<svg xmlns="http://www.w3.org/2000/svg" id="prefix___x31__x2C_5" width="74.586" height="85.237" viewBox="0 0 74.586 85.237">
    <g id="prefix__Grupo_5948" data-name="Grupo 5948" transform="translate(4.51)">
        <path id="prefix__Caminho_6877" d="M65.67 17.1a2.636 2.636 0 0 1-1.794-.7 41.734 41.734 0 0 0-56.647 0 2.665 2.665 0 1 1-3.591-3.939 47.065 47.065 0 0 1 63.829 0 2.662 2.662 0 0 1-1.8 4.631z" class="prefix__cls-1" data-name="Caminho 6877" transform="translate(-2.769)"/>
    </g>
    <g id="prefix__Grupo_5949" data-name="Grupo 5949" transform="translate(0 10.424)">
        <path id="prefix__Caminho_6878" d="M73.42 27.022a2.654 2.654 0 0 1-2.213-1.179A39.147 39.147 0 0 0 38.792 8.259 39.147 39.147 0 0 0 6.377 25.843a2.665 2.665 0 1 1-4.425-2.969 44.47 44.47 0 0 1 36.84-19.939 44.465 44.465 0 0 1 36.84 19.942 2.658 2.658 0 0 1-2.213 4.145z" class="prefix__cls-1" data-name="Caminho 6878" transform="translate(-1.5 -2.935)"/>
    </g>
    <g id="prefix__Grupo_5950" data-name="Grupo 5950" transform="translate(12.754 31.268)">
        <path id="prefix__Caminho_6879" d="M21.215 62.773a2.66 2.66 0 0 1-1.893-.788C18.74 61.4 5.091 47.466 5.091 34.052 5.091 20.13 16.1 8.8 29.629 8.8s24.537 11.33 24.537 25.252a2.664 2.664 0 0 1-5.327 0c0-10.985-8.616-19.921-19.21-19.921s-19.21 8.936-19.21 19.921c0 11.248 12.562 24.055 12.69 24.183a2.664 2.664 0 0 1-1.893 4.539z" class="prefix__cls-1" data-name="Caminho 6879" transform="translate(-5.091 -8.804)"/>
    </g>
    <g id="prefix__Grupo_5951" data-name="Grupo 5951" transform="translate(2.662 20.843)">
        <path id="prefix__Caminho_6880" d="M45.294 70.263c-6.407 0-21.26-12.189-22.7-25.763a17.225 17.225 0 0 1 4.081-13.13 13.585 13.585 0 0 1 10.129-4.649h.075A14.181 14.181 0 0 1 46.931 30.9a14.891 14.891 0 0 1 4.393 10.648v1.737a7.439 7.439 0 1 0 14.863 0v-.607c0-16.586-12.015-30.384-27.354-31.406a28.526 28.526 0 0 0-21.59 7.753A31.115 31.115 0 0 0 14.3 60.876a2.663 2.663 0 0 1-4.167 3.324A36.445 36.445 0 0 1 13.6 15.128a33.784 33.784 0 0 1 25.585-9.18c18.127 1.211 32.33 17.342 32.33 36.723v.607a12.763 12.763 0 1 1-25.518 0v-1.737a9.609 9.609 0 0 0-2.82-6.869 8.874 8.874 0 0 0-6.293-2.628h-.05a8.239 8.239 0 0 0-6.187 2.877 11.811 11.811 0 0 0-2.756 9.017c1.176 11.074 13.9 21 17.4 21a2.662 2.662 0 1 1 0 5.324z" class="prefix__cls-1" data-name="Caminho 6880" transform="translate(-2.249 -5.869)"/>
    </g>
    <g id="prefix__Grupo_5952" data-name="Grupo 5952" transform="translate(34.42 52.116)">
        <path id="prefix__Caminho_6881" d="M32.362 42.586c-9.532 0-21.171-11.649-21.171-25.248a2.664 2.664 0 0 1 5.327 0c0 10.541 8.861 19.921 15.844 19.921a2.664 2.664 0 0 1 0 5.327z" class="prefix__cls-1" data-name="Caminho 6881" transform="translate(-11.191 -14.674)"/>
    </g>
</svg>
