<svg xmlns="http://www.w3.org/2000/svg" id="prefix__user" width="74.894" height="89.172" viewBox="0 0 74.894 89.172">
    <path id="prefix__Caminho_6000" d="M107.362 42.673a19.216 19.216 0 0 0 14.374-6.251 21.173 21.173 0 0 0 5.955-15.086 21.174 21.174 0 0 0-5.955-15.086 19.654 19.654 0 0 0-28.748 0 21.172 21.172 0 0 0-5.956 15.085 21.173 21.173 0 0 0 5.956 15.087 19.222 19.222 0 0 0 14.374 6.251zM96.486 9.921a14.87 14.87 0 0 1 21.752 0 15.818 15.818 0 0 1 4.507 11.415 15.817 15.817 0 0 1-4.507 11.415 14.869 14.869 0 0 1-21.752 0 15.814 15.814 0 0 1-4.508-11.415 15.816 15.816 0 0 1 4.508-11.415zm0 0" class="prefix__cls-1" data-name="Caminho 6000" transform="translate(-70.528)"/>
    <path id="prefix__Caminho_6001" d="M74.713 272.644a52.043 52.043 0 0 0-.727-5.6 43.617 43.617 0 0 0-1.4-5.628 27.614 27.614 0 0 0-2.345-5.249 19.818 19.818 0 0 0-3.535-4.547 15.62 15.62 0 0 0-5.078-3.149 17.759 17.759 0 0 0-6.483-1.158c-.916 0-1.8.371-3.514 1.471-1.053.678-2.285 1.462-3.661 2.329a21.116 21.116 0 0 1-4.737 2.059 18.627 18.627 0 0 1-11.587 0 21.057 21.057 0 0 1-4.733-2.059c-1.362-.859-2.6-1.643-3.664-2.331-1.71-1.1-2.6-1.471-3.513-1.471a17.735 17.735 0 0 0-6.482 1.159 15.6 15.6 0 0 0-5.079 3.149 19.828 19.828 0 0 0-3.534 4.546A27.672 27.672 0 0 0 2.3 261.42a43.72 43.72 0 0 0-1.394 5.627 51.679 51.679 0 0 0-.727 5.6C.06 274.338 0 276.1 0 277.878c0 4.624 1.49 8.368 4.427 11.129a16.06 16.06 0 0 0 11.408 4.106h43.224a16.061 16.061 0 0 0 11.407-4.106c2.938-2.759 4.428-6.5 4.428-11.13 0-1.785-.062-3.546-.181-5.233zm-7.873 12.6c-1.917 1.8-4.462 2.676-7.781 2.676H15.835c-3.32 0-5.865-.875-7.781-2.675-1.88-1.766-2.794-4.177-2.794-7.368 0-1.66.055-3.3.166-4.872a46.62 46.62 0 0 1 .657-5.041A38.566 38.566 0 0 1 7.311 263a22.527 22.527 0 0 1 1.908-4.268 14.692 14.692 0 0 1 2.6-3.36A10.363 10.363 0 0 1 15.2 253.3a12.252 12.252 0 0 1 4.143-.789c.184.1.512.281 1.044.623 1.081.7 2.328 1.489 3.706 2.357a26.228 26.228 0 0 0 5.945 2.622 23.949 23.949 0 0 0 14.823 0 26.253 26.253 0 0 0 5.949-2.624c1.41-.889 2.622-1.66 3.7-2.356.531-.341.86-.526 1.044-.623a12.26 12.26 0 0 1 4.144.789 10.376 10.376 0 0 1 3.378 2.073 14.65 14.65 0 0 1 2.6 3.36A22.448 22.448 0 0 1 67.58 263a38.475 38.475 0 0 1 1.227 4.962 47 47 0 0 1 .657 5.043c.112 1.567.168 3.206.168 4.87 0 3.192-.914 5.6-2.794 7.367zm0 0" class="prefix__cls-1" data-name="Caminho 6001" transform="translate(0 -203.94)"/>
</svg>
