<svg height="1105" viewBox="0 0 1426 1105" width="1426" xmlns="http://www.w3.org/2000/svg" xmlns:xlink="http://www.w3.org/1999/xlink"><clipPath id="a"><path d="m0 0h1426v1105h-1426z" transform="translate(-140 -31.599)"/></clipPath><g clip-path="url(#a)" transform="translate(140 31.599)"><path d="m2469.514 228.1c-252.895-3.621-493.764-37.288-723.763-74.122s-457.824-77.644-704.668-97.161c-158.763-12.557-340.322-14.334-468.244 20.768-123.1 33.778-162.876 92.087-184.262 146.19-16.09 40.705-25.55 83.546 18.536 121.653 30.607 26.457 84.953 48.7 122.534 74.036 130.77 88.177 38.34 196.91-103.375 283.007-66.472 40.386-143.582 78.915-194.878 121.907s-75.027 92.255-30.148 136.111c44.485 43.469 150.5 76.12 265.33 99.085 233.233 46.642 508.072 59.992 776.081 67.552 593.262 16.737 1189.692 9.49 1784.529 2.233 220.135-2.686 441.24-5.407 657.8-19.444 120.259-7.8 244.418-20.167 331.724-50.035 110.835-37.916 138.307-102.12 64.04-149.662-124.576-79.747-469.014-99.555-556.086-185.138-47.928-47.108 1.291-99.582 70.942-143.271 149.417-93.724 399.86-175.948 413.052-283.077 9.059-73.577-111.332-147.263-297.488-182.075-195.12-36.49-465.7-31.9-609.648 28.5-148.229 62.203-408.717 86.136-632.008 82.943z" fill="#fff2e5" opacity=".89" transform="translate(-3096.507 -32.135)"/></g><path d="m620.923 463.023-136.514-162.405-274.025 2.5-166.228 161.914 3.359 2.158h-1.2v336.774h574.24v-336.774z" fill="#3f3d56" transform="translate(109.004 160.164)"/><path d="m444 300.912-170.545 199.946v303.054h306.545v-341.09z" fill="#ff7d00" transform="translate(149.554 160.216)"/><g fill="#fff"><path d="m0 0h62.605v55.336h-62.605z" transform="translate(546.06 796.534)"/><path d="m0 0h62.605v54.458h-62.605z" transform="translate(546.06 700.755)"/><path d="m0 0h62.605v55.336h-62.605z" transform="translate(267.839 781.852)"/><path d="m0 0h62.605v54.458h-62.605z" transform="translate(267.839 686.071)"/></g><path d="m0 0h989.143v2.354h-989.143z" fill="#3f3d56" transform="translate(101.193 963.077)"/><path d="m716.749 696.008 4.708 23.537-23.537 4.707 3.531-29.421z" fill="#a0616a" transform="translate(224.621 229.881)"/><path d="m782.048 692.715-5.884 29.421h-28.244l11.769-35.306z" fill="#a0616a" transform="translate(233.464 228.466)"/><path d="m998.1 592.006 4.708 31.775-5.884 69.434-4.707 25.89-20.006 84.734s-22.36 0-25.891-9.415l5.884-48.25s4.708-38.836 3.531-43.544-18.835-80.03-18.835-80.03-25.891 118.862-29.421 129.453-8.238 56.489-8.238 56.489-20.007 3.531-21.184 0-2.354-87.087-2.354-100.033 2.354-20.006 2.354-22.36-9.272-114.71-9.272-114.71z" fill="#2f2e41" transform="translate(43.3 124.404)"/><path d="m941.383 784.684s5.884 1.177 9.415 0 0-8.238 0-8.238h12.945s14.122 31.775 20.006 34.129 24.714 28.245 2.354 28.245a73.066 73.066 0 0 1 -38.836-11.769s-2.353-10.592-12.945-11.769-17.653-14.122-17.653-14.122l15.3-28.245s3.531 12.946 9.414 11.769z" fill="#2f2e41" transform="translate(51.769 160.035)"/><path d="m896.551 783.331s-2.354 4.707-4.707 2.354-4.708-8.238-4.708-8.238-7.061-3.531-8.238 0-5.884 22.36-8.238 24.714-27.067 27.067-2.354 31.775 29.421-5.885 29.421-5.885-3.531-5.884 3.531-8.238 8.238-10.591 8.238-10.591l-4.707-35.306s-4.708 11.769-8.238 9.415z" fill="#2f2e41" transform="translate(41.289 160.211)"/><path d="m1006.552 518.916 3.53 61.2s16.476 38.836-5.884 37.659-8.238-38.836-8.238-38.836l-21.892-54.617z" fill="#a0616a" transform="translate(61.92 115.115)"/><path d="m849.078 503.916-3.531 61.2s-16.476 38.836 5.884 37.659 8.238-38.836 8.238-38.836l21.892-54.617z" fill="#a0616a" transform="translate(38.156 112.462)"/><circle cx="981.383" cy="452.795" fill="#a0616a" r="30.598"/><path d="m955.42 375.416s-8.238 32.952 8.238 41.19-51.781 20.006-56.489 0l2.354-9.415s9.414-11.769 7.061-22.36z" fill="#a0616a" transform="translate(50.089 89.737)"/><path d="m945.4 412.631s-20.306 1.9-26.63-11.409c0 0-47.512 3.171-58.1 46.714l17.653 112.978s-18.83 32.952-16.476 36.482c0 0-11.768 32.952 96.5 34.129l47.074-2.354a65.489 65.489 0 0 0 -1.177-20.006c-2.354-10.592-15.3-84.733-15.3-84.733s35.305-55.312 31.775-63.55-9.185-40.72-54.609-53.9c.002-.001-.701 6.825-20.71 5.649z" fill="#e6e6e6" transform="translate(41.867 94.301)"/><path d="m989.328 434.916 15.3 20.006s15.3 83.556 10.591 84.733-32.952 10.591-37.659 7.061-25.891-72.965-25.891-72.965z" fill="#e6e6e6" transform="translate(57.959 100.259)"/><path d="m884.078 429.916-20.006 12.945s-29.421 82.38-21.183 85.91 54.135 1.177 54.135 1.177z" fill="#e6e6e6" transform="translate(38.463 99.375)"/><path d="m965.69 344.422s-10.6-22.963-30.911-17.664-31.8 13.248-32.679 21.2.442 19.872.442 19.872 2.208-16.339 16.339-12.806c7.516 1.879 17.281 2.009 24.776 1.719a10.818 10.818 0 0 1 11.262 10.954l-.37 25.294s29.421-18.833 11.141-48.569z" fill="#2f2e41" transform="translate(49.14 80.991)"/><path d="m0 0h430v206h-430z" fill="#fff" transform="translate(450 228.019)"/><path d="m896.968 380.228h-415.539a7.705 7.705 0 0 1 -7.695-7.7v-190.868a7.705 7.705 0 0 1 7.695-7.7h415.54a7.705 7.705 0 0 1 7.695 7.7v190.869a7.706 7.706 0 0 1 -7.696 7.699zm-415.539-203.187a4.623 4.623 0 0 0 -4.617 4.619v190.869a4.623 4.623 0 0 0 4.617 4.619h415.54a4.623 4.623 0 0 0 4.617-4.619v-190.869a4.623 4.623 0 0 0 -4.617-4.619z" fill="#e6e6e6" transform="translate(-26.564 54.124)"/><circle cx="516.371" cy="295.68" fill="#ff7d00" r="31.354"/><path d="m594.852 213.649a5.226 5.226 0 0 0 0 10.451h246.354a5.226 5.226 0 0 0 0-10.451z" fill="#e6e6e6" transform="translate(-6.068 61.128)"/><path d="m594.852 240.292a5.226 5.226 0 0 0 0 10.451h106.007a5.226 5.226 0 1 0 0-10.451z" fill="#e6e6e6" transform="translate(-6.068 65.84)"/><path d="m513.183 282.885c-3.975 0-7.21 2.345-7.21 5.226s3.235 5.226 7.21 5.226h339.893c3.974 0 7.21-2.345 7.21-5.226s-3.235-5.226-7.21-5.226z" fill="#e6e6e6" transform="translate(-20.862 73.372)"/><path d="m513.183 309.527c-3.975 0-7.21 2.344-7.21 5.226s3.235 5.226 7.21 5.226h339.893c3.974 0 7.21-2.345 7.21-5.226s-3.235-5.226-7.21-5.226z" fill="#e6e6e6" transform="translate(-20.862 78.084)"/><circle cx="795.655" cy="162.762" fill="#ff7d00" r="55.762"/><path d="m595.34 133.484-17.436-30.2-17.435-30.2h69.741l-17.435 30.2z" fill="#ff7d00" transform="translate(200.314 119.925)"/><circle cx="796.104" cy="162.413" fill="#fff" r="20.006"/><ellipse cx="1006.043" cy="452.795" fill="#a0616a" rx="4.707" ry="5.884"/></svg>