<svg height="1105" viewBox="0 0 1440 1105" width="1440" xmlns="http://www.w3.org/2000/svg" xmlns:xlink="http://www.w3.org/1999/xlink"><linearGradient id="a" gradientUnits="objectBoundingBox" x1=".5" x2=".5" y1="1"><stop offset="0" stop-color="#808080" stop-opacity=".251"/><stop offset=".54" stop-color="#808080" stop-opacity=".122"/><stop offset="1" stop-color="#808080" stop-opacity=".102"/></linearGradient><linearGradient id="b" x1=".5" x2=".5" xlink:href="#a" y1="1" y2="0"/><clipPath id="c"><path d="m0 0h1440v1105h-1440z" transform="translate(0 .401)"/></clipPath><g clip-path="url(#c)" transform="translate(0 -.401)"><path d="m2491.832 228.1c-255.357-3.621-498.572-37.288-730.811-74.122s-462.282-77.644-711.53-97.161c-160.308-12.554-343.635-14.33-472.8 20.772-124.3 33.778-164.462 92.087-186.057 146.19-16.247 40.705-25.8 83.546 18.717 121.653 30.905 26.457 85.781 48.7 123.728 74.036 132.044 88.177 38.714 196.91-104.381 283.007-67.124 40.387-144.98 78.915-196.776 121.908s-75.758 92.255-30.441 136.111c44.918 43.469 151.961 76.12 267.913 99.085 235.5 46.642 513.02 59.992 783.638 67.552 599.039 16.737 1201.277 9.49 1801.905 2.233 222.279-2.686 445.537-5.407 664.2-19.444 121.429-7.8 246.8-20.167 334.954-50.035 111.914-37.916 139.654-102.12 64.664-149.662-125.79-79.747-473.581-99.555-561.5-185.138-48.395-47.108 1.3-99.582 71.633-143.271 150.872-93.724 403.754-175.948 417.073-283.077 9.147-73.577-112.416-147.263-300.384-182.075-197.02-36.49-470.233-31.9-615.584 28.5-149.671 62.198-412.693 86.131-638.161 82.938z" fill="#fff2e5" opacity=".89" transform="translate(86.149 -32.135)"/></g><g fill="#ff7d00"><ellipse cx="511.896" cy="898.92" opacity=".31" rx="96.444" ry="15.49"/><ellipse cx="1036.153" cy="899.356" opacity=".31" rx="120.347" ry="15.49"/><path d="m0 0h62.277v137.926h-62.277z" opacity=".1" transform="translate(771.792 332.677)"/><path d="m0 0h33.366v43.244h-33.366z" opacity=".1" transform="translate(800.714 371.021)"/><path d="m0 0h29.069v29.069h-29.069z" opacity=".1" transform="translate(316.698 645.048)"/><path d="m0 0h28.149v28.149h-28.149z" opacity=".1" transform="translate(1023.632 488.112)"/><path d="m0 0h28.149v28.149h-28.149z" opacity=".1" transform="translate(1023.632 557.545)"/><path d="m0 0h28.149v28.149h-28.149z" opacity=".1" transform="translate(1023.632 626.969)"/><path d="m0 0h28.149v28.149h-28.149z" opacity=".1" transform="translate(1023.632 696.402)"/><path d="m88.26 593.77c.256.327.5.695.767 1.022h5.407v6.981c.583.7 1.155 1.39 1.748 2.045v-9.066h8.177v14.586h-3.312c.327.337.644.695 1.022 1.022h62.174v-16.59zm25.971 15.567h-8.177v-14.524h8.177zm9.9 0h-8.177v-14.524h8.177zm9.9 0h-8.177v-14.524h8.177zm9.894 0h-8.177v-14.524h8.177zm9.894 0h-8.177v-14.524h8.177zm9.894 0h-8.177v-14.524h8.177z" opacity=".1" transform="translate(106.777 104.243)"/><path d="m141.65 641.12c.93.532 1.881 1.022 2.841 1.553v-.511h8.177v4.6l1.737.808v-5.407h8.177v8.837a2.555 2.555 0 0 0 .491.184v-10.064z" opacity=".1" transform="translate(107.956 105.289)"/></g><path d="m506.661 436.05s-3.9-.544-3.9-6.226-2.791-16.292-2.791-16.292c0-.05-2.415-18.479-5.751-21.409s-7.621-20.132-7.621-20.132-.732-9.333-2.227-11.343-3.514-6.928-6.493-13.946-15.4-11.877-15.4-11.877-22.458-13.026-28.823-17.272a9.766 9.766 0 0 1 -1.613-1.217c-1.108-1.455-5.939-1.485-5.939-1.485a97.341 97.341 0 0 1 -1.148-10.165 7.725 7.725 0 0 0 -.05-1.069 34.245 34.245 0 0 0 15.055-18.627c.119-.376.218-.772.327-1.148a3.217 3.217 0 0 0 1.93-1.742c.574-1.277.584-2.771 1.3-3.959.831-1.405 2.415-2.158 3.662-3.217 3.147-2.672 3.959-7.176 3.811-11.274-.1-3.316-.633-6.661-.426-9.957l.059-.831c.059-.5.129-.99.218-1.465.485-2.455 1.544-4.771 2.138-7.206s.653-5.177-.732-7.275c-2.029-3.078-6.256-3.692-9.967-4.009-4.207-.356-7.968.109-10.66-3.385a38 38 0 0 0 -4.236-5.117c-.554-.515-5.939-3.8-5.939-4.018a24.061 24.061 0 0 0 -16.777-1.287c-2.791.812-5.424 2.138-8.255 2.8-6.107 1.445-13.134-.119-18.321 3.375-2.89 1.98-4.622 5.127-6.245 8.2q-1.98 3.791-4.018 7.572c-2.187 4.147-4.414 8.364-5.335 12.956a20.585 20.585 0 0 0 -.356 3.029v1.613a5.329 5.329 0 0 0 .059.99c.059.307.05.406.079.614s.079.673.139.99.178.871.3 1.307c.049.188.119.366.178.544.1.336.217.663.346.99.069.168.139.346.218.515a9.237 9.237 0 0 0 .5.99c.079.139.139.267.218.4a13.154 13.154 0 0 0 .911 1.326c2.118 2.643 5.236 4.325 7.542 6.8v1.108a33.88 33.88 0 0 0 15.421 27.665c0 .376.049.762.069 1.138a56.66 56.66 0 0 1 -.109 8.819 4.157 4.157 0 0 0 -3.286-1.465 4.749 4.749 0 0 0 -1.267.109l-.089-.069v.089c-2.177.535-4.86 2.8-7.423 9.245 0 0-7.8 8.789-13.738 8.423s-20.973 9.146-20.973 9.146-14.669 9.522-17.816 19.221a135.434 135.434 0 0 1 -6.315 16.114l-18.133 37.364-3.346 29.644s1.851 13.184 1.485 15.193 7.612 20.132 7.612 20.132 26.358 46.312 37.127 48.687l.772-.544a6.306 6.306 0 0 0 1.455.544l2.217-1.564a24.168 24.168 0 0 1 -.168 5.226c-1.485 4.573.554 34.414 3.147 40.264s1.673 82.548 1.673 82.548l-.366 6.77a2.863 2.863 0 0 0 .089.594l-.089 1.6.267.139a19.067 19.067 0 0 1 -.267 6.443c-.931 2.97-1.307 11.363-1.307 11.363s-7.413 47.391-3.9 56.912 6.5 19.954 6.5 19.954 3.712 11.878.178 13.907-13.58 5.434-11.511 10.383c1.88 4.573 9.017 16.826 10.076 18.618l-.089.94-1.455 15.767a19.8 19.8 0 0 0 1.673 6.018c1.593 3.434 4.691 7 10.581 6.612.99-.069 2.138-.188 3.246-.337 10.779-1.445 24.052-6.255 24.052-6.255a9.808 9.808 0 0 1 -1.881-1.554 5.434 5.434 0 0 1 -1.653-3.959c.158-2.871-5.216-16.549-6.552-19.915-.208-.485-.317-.762-.317-.762s12.253-12.808 10.215-24.16c0 0-13.56-7.918-9.1-12.263s12.442-16.826 12.442-16.826.366-46.668 0-53.636a57.7 57.7 0 0 1 .683-14.481c.148-.722.326-1.425.515-2.118a129.22 129.22 0 0 0 18.647 1.415c2.277 0 4.593 0 6.929-.139q0 .99.089 2.138c.515 11.561 1.475 31.831 2.257 39.364 1.109 10.8 7.235 39.9 7.235 39.9s-11.689 7.5 2.039 25.992c0 0 0 6.7-.911 7.671a83.939 83.939 0 0 0 -2.346 9.66c-.574 3.484-.812 7.008.119 8.839 2.227 4.375 15.589 4.019 15.589 4.019l.327-.06a19.152 19.152 0 0 1 14.144 4.266c5.078 4.078 24.349 2.286 34.781.99 4.088-.514 6.82-.99 6.82-.99a3.955 3.955 0 0 0 .139-1.425c-.109-2.563-2.118-8.185-15.737-13.2 0 0-12.808-8.611-12.63-16.114h-1.752a13.963 13.963 0 0 1 1.772 0s-5.018-18.311-2.969-19.8-4.088-21.775-4.088-21.775-3.514-34.049-3.7-36.434a20.792 20.792 0 0 1 .921-6.037l-.921-18.668s-.178-6.206 0-8.225a41.075 41.075 0 0 0 -.425-5.236c-.089-.693-.178-1.415-.277-2.128 4.8-1.217 7.918-2.346 7.918-2.346l-.554-64.979c4.078-7.918 4.83-25.289 4.81-37.612 0-7.918-.356-13.778-.356-13.778l5.572-9.1s1.287-10.888-.752-13.273c-.9-1.079-.495-2.2.247-3.118a10.4 10.4 0 0 1 1.217-.831s-.059-.089-.129-.218a9.845 9.845 0 0 1 1.237-.881s-1.98-3.068-.208-4.365c1.663 1.129 3.148 1.98 4.276 2.672-.079.723-.158 1.138-.158 1.138l.475-.99c1.089.614 1.752.99 1.752.99s8.73-17.39 8.542-19.954 5.939-13.362 5.939-13.362.742-5.671 4.088-8.047 2.593-19.588 2.593-19.588.931-8.967 3.157-12.63-2.03-8.603-2.03-8.603zm-167.036-7.631.168 4.147-1.7-2.742z" fill="url(#a)" transform="translate(98.491 79.845)"/><path d="m486.562 513.471-2.138 9.106s-17.123-8.74-20.211-19.845 5.167-15.322 5.167-15.322l15.955 6.76z" fill="#fff" transform="translate(96.775 77.094)"/><path d="m486.562 513.471-2.138 9.106s-17.123-8.74-20.211-19.845 5.167-15.322 5.167-15.322l15.955 6.76z" opacity=".1" transform="translate(96.775 77.094)"/><path d="m389.31 826.478s-15.837 5.82-26.724 6.552c-5.78.386-8.819-3.157-10.383-6.573a19.89 19.89 0 0 1 -1.633-5.988l1.415-15.688.752-8.354 23.131-6.008 3.276 10.016.307.762c1.317 3.346 6.592 16.955 6.434 19.8a5.405 5.405 0 0 0 1.623 3.909 9.4 9.4 0 0 0 1.802 1.572z" fill="#fff" transform="translate(97.929 73.997)"/><path d="m498.266 818.489a3.957 3.957 0 0 1 -.139 1.415s-33.87 5.652-40.8 0a18.35 18.35 0 0 0 -14.253-4.177s-13.1.356-15.292-3.959c-.911-1.812-.673-5.325-.109-8.79a83.742 83.742 0 0 1 2.3-9.611l.525-.415 3.118-2.5 36.5-1.079h.277c-.178 7.463 12.392 16.024 12.392 16.024 13.353 4.947 15.322 10.539 15.481 13.092z" fill="#fff" transform="translate(97.146 74.008)"/><path d="m498.266 818.63a4.036 4.036 0 0 1 -.148 1.415s-33.861 5.652-40.789 0a18.353 18.353 0 0 0 -14.243-4.176s-13.114.356-15.292-3.959c-.911-1.821-.683-5.325-.119-8.789 5.048.5 13.016 1.762 16.143 4.761 4.731 4.563 12.749 9.116 17.668 9.472 3.85.246 26.882.979 36.78 1.276z" opacity=".1" transform="translate(97.146 73.867)"/><path d="m389.327 826.834s-15.837 5.82-26.724 6.553c-5.781.386-8.819-3.158-10.373-6.582 4.028 1.356 9.621 2.781 12.56 1.475 3.484-1.544 15.836-2.544 22.765-2.969a9.757 9.757 0 0 0 1.772 1.523z" opacity=".1" transform="translate(97.913 73.64)"/><path d="m413.178 352.387c-13.065-5.078-29.872-21.854-25.675-29.693a17.54 17.54 0 0 0 1.633-6.295 57.482 57.482 0 0 0 .119-8.908 121.976 121.976 0 0 0 -1.755-14.491s40.789.921 38.414 6.928c-.693 1.762-.8 4.82-.614 8.245s.683 7.295 1.2 10.571c.713 4.494 1.425 7.918 1.425 7.918s-2.494 3.494-3.959 3.682 7.959 29.278-10.788 22.043z" fill="#cf6f80" transform="translate(97.56 79.08)"/><path d="m379.437 801.2-.307.337c-12.194-14.748-26.942 3.633-26.942 3.633l-.218-.386.752-8.354 23.131-6.008 3.276 10.016z" opacity=".1" transform="translate(97.915 73.997)"/><path d="m470.433 790.409s-8.908-.188-13.659 4.008-27.714.911-26.724 0a3.257 3.257 0 0 0 .515-1.5l3.118-2.5 36.5-1.079c.141.655.25 1.071.25 1.071z" opacity=".1" transform="translate(97.116 74.009)"/><path d="m394.506 673.208a27.522 27.522 0 0 0 -1.5 5.077 58.126 58.126 0 0 0 -.683 14.412c.366 6.929 0 53.359 0 53.359s-7.829 12.382-12.194 16.747 8.908 12.2 8.908 12.2c1.98 11.284-10.017 24.032-10.017 24.032-12.194-14.747-26.942 3.643-26.942 3.643s-8.017-13.857-10.016-18.806 7.829-8.373 11.284-10.382-.168-13.857-.168-13.857-2.92-10.382-6.384-19.855 3.821-56.625 3.821-56.625.376-8.374 1.277-11.294a18.874 18.874 0 0 0 .267-6.413c-.059-.723-.129-1.327-.178-1.732s-.089-.594-.089-.594l.139-.238 4.949-9.225s39.901 13.743 37.526 19.551z" fill="#ff7d00" transform="translate(98.019 75.395)"/><path d="m470.322 788.033s-8.908-.188-13.659 3.959-27.714.911-26.724 0 .911-7.651.911-7.651c-13.471-18.39-1.98-25.853-1.98-25.853s-6.018-28.951-7.107-39.69c-.762-7.5-1.7-27.665-2.207-39.176-.218-4.949-.346-8.353-.346-8.353l11.006-2.217 1.415-.287 26.546-5.325s.733 4.949 1.228 9a42.071 42.071 0 0 1 .415 5.216c-.178 1.979 0 8.176 0 8.176l.9 18.578a21.112 21.112 0 0 0 -.9 6.008c.178 2.365 3.633 36.236 3.633 36.236s6.008 20.211 3.959 21.666 2.91 19.713 2.91 19.713z" fill="#ff7d00" transform="translate(97.228 75.294)"/><path d="m425.923 299.928c-.693 1.762-.8 4.821-.614 8.245a33.9 33.9 0 0 1 -36.048-.673 121.957 121.957 0 0 0 -1.751-14.5s40.79.9 38.413 6.928z" opacity=".1" transform="translate(97.552 79.08)"/><path d="m441.551 277.55a33.524 33.524 0 0 1 -1.663 10.5 33.87 33.87 0 0 1 -66.058-9.69v-.812a33.868 33.868 0 1 1 67.736 0z" fill="#cf6f80" transform="translate(97.693 79.584)"/><path d="m413.178 352.629c-13.065-5.078-29.872-21.854-25.675-29.693a17.541 17.541 0 0 0 1.633-6.3l17.885 14.7 11.066 9.076 8.413-21.412c.713 4.494 1.425 7.918 1.425 7.918s-2.494 3.494-3.959 3.682 7.959 29.264-10.788 22.029z" opacity=".1" transform="translate(97.56 78.839)"/><path d="m412.064 358.942-14.936 250.909-19.479 1.277-50.439-145.488 8.274-172.727 1.742-36.493 22.428 18.42 11.076 9.076 8.661-22.042 16.1 14.035z" fill="#ff7d00" transform="translate(144.925 137.485)"/><path d="m394.61 673.209a27.55 27.55 0 0 0 -1.5 5.078 143.537 143.537 0 0 1 -40.838-12.758l-.272-.139.089-1.594.05-.831 4.949-9.225s39.898 13.66 37.522 19.469z" opacity=".1" transform="translate(97.915 75.394)"/><path d="m430.443 678.484a100.351 100.351 0 0 1 -10.947 1.247c-.218-4.949-.346-8.354-.346-8.354l11.006-2.217z" opacity=".1" transform="translate(97.228 75.236)"/><path d="m459.473 672.487c-7.037 1.832-17.905 3.89-27.635 2.6l-.139-6.275 26.546-5.325s.734 4.902 1.228 9z" opacity=".1" transform="translate(97.101 75.294)"/><path d="m430.335 672.677c-40.581 6.928-77.747-12.936-77.747-12.936l.356-6.731s.921-76.3-1.633-82.152-4.543-35.513-3.1-40.066-5.275-72.828-5.275-72.828l-1.089-27.714-39.847-16.143 17.816-37.137a134.058 134.058 0 0 0 6.2-16.035c3.1-9.64 17.48-19.112 17.48-19.112s14.748-9.462 20.578-9.106 13.471-8.374 13.471-8.374c5.641-14.382 10.749-7.869 10.749-7.869a12.853 12.853 0 0 1 -.277 2.128c-1.98 15.787 32.009 65.672 32.494 66.553l3.232 78.845 3.276 99.78z" opacity=".1" transform="translate(98.427 78.855)"/><path d="m429.235 672.676c-40.581 6.928-77.757-12.936-77.757-12.936l.366-6.73s.92-76.3-1.643-82.152-4.543-35.513-3.088-40.066-5.276-72.828-5.276-72.828l-1.1-27.714-39.868-16.2 17.816-37.137a136.141 136.141 0 0 0 6.2-16.035c3.088-9.64 17.48-19.113 17.48-19.113s14.748-9.462 20.568-9.106 13.471-8.373 13.471-8.373c5.652-14.382 11.877-7.869 11.877-7.869 0 .683-.594.99-.277 2.128 4.355 15.312 30.921 65.672 31.406 66.553l3.276 78.846 3.276 99.78z" fill="#fff" transform="translate(98.437 78.856)"/><path d="m419.124 387.366c-4.365-1.821-27.486-28.219-27.486-28.219v-6.008c-.841-1.98-5.84-.772-9.9.614l1.742-36.493 1.98 1.643c4.34 15.297 33.159 67.582 33.664 68.463z" opacity=".1" transform="translate(97.611 78.832)"/><path d="m420.234 385.156c-4.375-1.821-27.5-28.219-27.5-28.219v-6.007c-.841-1.98-5.84-.772-9.9.614l1.752-36.493 1.98 1.643c4.35 15.306 33.183 67.591 33.668 68.462z" fill="#fff" transform="translate(97.599 78.855)"/><path d="m353.087 518.86c.544 0 28.219-2.91 28.219-2.91s16.757 32.95 15.658 40.967-3.088 15.114-9.828 13.857-36.275.99-36.275.99z" opacity=".1" transform="translate(97.927 76.802)"/><path d="m351.977 516.65c.545 0 28.219-2.91 28.219-2.91s16.747 32.96 15.658 40.967-3.1 15.114-9.829 13.857-36.275.99-36.275.99z" fill="#fff" transform="translate(97.939 76.825)"/><path d="m372.914 501.05s25.4 13.649 25.942 17.816-12.926-1.821-15.837-2.544a36.237 36.237 0 0 0 -5.83-.911l-19.41.524z" fill="#cf6f80" transform="translate(97.857 76.954)"/><circle cx="509.646" cy="465.228" opacity=".1" r="2.672"/><circle cx="509.646" cy="464.14" fill="#3f3d56" r="2.672"/><circle cx="514.568" cy="580.914" opacity=".1" r="2.672"/><circle cx="514.568" cy="579.815" fill="#3f3d56" r="2.672"/><circle cx="512.31" cy="523.071" opacity=".1" r="2.672"/><circle cx="512.31" cy="521.982" fill="#3f3d56" r="2.672"/><path d="m476.765 513s1.821 2.732 0 4.009.178 4.365.178 4.365-4.543 2.662-2.544 5.058.732 13.214.732 13.214l-5.464 9.047s.327 5.83.346 13.708c0 12.293-.723 29.575-4.721 37.453l.554 64.643s-19.132 6.988-35.147 4.86l-2.375-103.729s3.464-58.823 4.741-70.106a117.5 117.5 0 0 0 .911-17.668s-.543-17.663-2.376-25.854c0 0-1.98-35.5-2.177-45.332-.089-4.7.158-18.42.435-31.465.307-14.263.653-27.714.653-27.714l-3.611-28.589s3.613-.366 4.7 1.089a10.416 10.416 0 0 0 1.584 1.217c6.236 4.216 28.268 17.183 28.268 17.183s12.194 4.85 15.114 11.8 4.949 11.877 6.364 13.857 2.187 11.284 2.187 11.284 4.2 17.123 7.473 20.023 5.671 21.35 5.671 21.35l-28.951 22.765s-2.544 37.869-3.088 39.334 10.543 34.198 10.543 34.198z" fill="#fff" transform="translate(97.15 78.816)"/><path d="m477.863 512.992s1.811 2.732 0 4.008.168 4.365.168 4.365-4.514 2.692-2.534 5.087.733 13.214.733 13.214l-5.464 9.047s.327 5.83.356 13.709c0 12.293-.723 29.574-4.721 37.453l.544 64.643s-19.162 6.988-35.157 4.86l-2.366-103.729s3.464-58.823 4.741-70.106a116.347 116.347 0 0 0 .9-17.667s-.544-17.658-2.366-25.853c0 0-1.98-35.5-2.187-45.332-.089-4.7.168-18.42.436-31.465.307-14.263.653-27.714.653-27.714l-4.769-28.972s4.771 0 5.869 1.475a9.4 9.4 0 0 0 1.584 1.217c6.236 4.217 28.278 17.183 28.278 17.183s12.184 4.85 15.1 11.8 4.949 11.877 6.374 13.857 2.177 11.284 2.177 11.284 4.2 17.123 7.473 20.023 5.642 21.31 5.642 21.31l-28.947 22.763s-2.544 37.869-3.1 39.334 10.583 34.206 10.583 34.206z" fill="#fff" transform="translate(97.15 78.819)"/><path d="m443.2 355.936 2.613 7.621-13.758 13.857c.307-14.253.653-27.714.653-27.714l-4.768-28.97s4.771 0 5.869 1.475a9.035 9.035 0 0 0 1.584 1.208l11.7 33.751z" opacity=".1" transform="translate(97.14 78.797)"/><path d="m442.092 353.726 2.623 7.621-13.758 13.853c.307-14.263.653-27.714.653-27.714l-4.78-28.966s4.781 0 5.869 1.475a9.874 9.874 0 0 0 1.584 1.217l11.709 33.742z" fill="#fff" transform="translate(97.15 78.819)"/><path d="m441.551 277.55a33.52 33.52 0 0 1 -1.663 10.5 1.416 1.416 0 0 1 -1.069-.267c-.257-8.908-4.642-17.272-10.036-24.388a25.626 25.626 0 0 0 -5.444-5.642 10.65 10.65 0 0 0 -7.384-2.088c-2.969.406-5.592 2.425-8.591 2.682-3.959.327-7.5-2.415-11.432-2.554a11.232 11.232 0 0 0 -8.4 3.9 23.046 23.046 0 0 0 -4.5 8.354 48.87 48.87 0 0 0 -2.514 14.411c-.05 2.771-.317 6.246-2.89 7.255a14.786 14.786 0 0 0 -3.731-11.293l-.059-.06v-.812a33.868 33.868 0 1 1 67.736 0z" opacity=".1" transform="translate(97.691 79.584)"/><path d="m421.609 223.547a23.318 23.318 0 0 0 -16.45-1.287c-2.742.812-5.325 2.128-8.106 2.791-5.939 1.435-12.867-.119-17.965 3.355-2.831 1.98-4.533 5.107-6.117 8.146l-3.959 7.542c-2.158 4.127-4.335 8.324-5.236 12.867s-.356 9.631 2.524 13.283c2.1 2.663 5.2 4.335 7.473 6.839a14.847 14.847 0 0 1 3.722 11.283c2.583-.99 2.831-4.474 2.89-7.245a48.875 48.875 0 0 1 2.514-14.411 22.976 22.976 0 0 1 4.5-8.354 11.254 11.254 0 0 1 8.4-3.9c3.959.139 7.512 2.87 11.432 2.544 2.969-.247 5.6-2.277 8.591-2.672a10.611 10.611 0 0 1 7.384 2.088 25.363 25.363 0 0 1 5.434 5.642c5.4 7.117 9.789 15.46 10.046 24.388 1.118.822 2.732-.247 3.286-1.514s.574-2.752 1.277-3.959c.812-1.4 2.366-2.138 3.583-3.187 3.088-2.663 3.86-7.146 3.741-11.214s-.91-8.2-.139-12.194c.465-2.455 1.514-4.751 2.088-7.176s.644-5.147-.713-7.235c-1.98-3.068-6.146-3.672-9.779-3.959-4.127-.356-7.819.1-10.452-3.375a37.909 37.909 0 0 0 -4.157-5.087c-.521-.515-5.812-3.781-5.812-3.999z" fill="#512e4e" transform="translate(97.798 79.813)"/><path d="m313.379 434.252-10.343-19.122-3.276 29.505s1.821 13.1 1.455 15.114 7.463 20.023 7.463 20.023 25.863 46.064 36.424 48.44l35.682-25.5-9.463-12.012s-3.276-1.277-4.1 0c0 0-17.569-30.228-19.39-32.416s-1.465-6.552-1.465-6.552-2.732-2.91-1.821-5.642-5.276-12.2-5.276-12.2l5.642-5.275z" opacity=".1" transform="translate(98.448 77.832)"/><path d="m303.558 412.93-2.732 2.178-3.276 29.505s1.821 13.1 1.455 15.114 7.473 20.023 7.473 20.023 25.853 46.064 36.414 48.44l35.691-25.5-9.472-12.016s-3.276-1.277-4.1 0c0 0-17.569-30.228-19.39-32.415s-1.455-6.552-1.455-6.552-2.732-2.91-1.821-5.642-5.285-12.2-5.285-12.2l5.641-5.275z" fill="#fff" transform="translate(98.47 77.855)"/><path d="m474.677 529.528c1.98 2.405.732 13.2.732 13.2l-5.464 9.047s.326 5.84.346 13.708l-9.185 2.871a5.454 5.454 0 0 1 -7.077-5.375l1.584-51.083 21.429 8.2c-1.821 1.267.178 4.375.178 4.375s-4.543 2.652-2.543 5.057z" opacity=".1" transform="translate(96.872 76.844)"/><path d="m475.787 528.418c1.98 2.405.733 13.214.733 13.214l-5.463 9.046s.327 5.83.356 13.709l-9.354 2.92a5.345 5.345 0 0 1 -6.928-5.266l1.594-51.241 21.439 8.195c-1.831 1.268.168 4.365.168 4.365s-4.525 2.663-2.545 5.058z" fill="#fff" transform="translate(96.861 76.854)"/><path d="m482.993 503.918s-1.455 9.294-5.1 9.838-5.276 15.035-8.908 14.52-1.227-13.471-1.1-15.985-3.959-12.927-.9-15.292 12.738 0 12.738 0z" fill="#cf6f80" transform="translate(96.751 77.006)"/><path d="m490.7 431.547 6.869-13.857s2.732 10.561 2.732 16.2 3.82 6.2 3.82 6.2 4.187 4.949 1.979 8.552-3.1 12.57-3.1 12.57.723 17.113-2.554 19.479-3.959 8.017-3.959 8.017-6.018 10.739-5.83 13.293-8.374 19.845-8.374 19.845 4.187-21.488-20.211-30.772c0 0-.188-7.295 1.633-9.294s4.662-2.91 2.88-13.016-.515-22.181-.515-24.606 5.464-17.549 5.464-17.549z" opacity=".1" transform="translate(96.79 77.806)"/><path d="m493.7 415.69 6 1.979s2.742 10.561 2.742 16.2 3.821 6.2 3.821 6.2 4.187 4.949 1.98 8.551-3.088 12.57-3.088 12.57.723 17.113-2.554 19.479-4.009 8.017-4.009 8.017-6.008 10.739-5.82 13.293-8.383 19.845-8.383 19.845 4.2-21.488-20.211-30.772c0 0-.178-7.295 1.643-9.294s4.662-2.91 2.88-13.015-.515-22.181-.515-24.606 5.464-17.549 5.464-17.549z" fill="#fff" transform="translate(96.769 77.826)"/><path d="m360.15 778.527s9.561-6.008 15.837-1.643-15.837 1.643-15.837 1.643z" opacity=".1" transform="translate(97.833 74.152)"/><path d="m435.21 759.789s8.462-1.089 15.569 6.563-15.569-6.563-15.569-6.563z" opacity=".1" transform="translate(97.066 74.31)"/><path d="m447 275.937c-1.217 1.049-2.781 1.8-3.593 3.2-.693 1.2-.713 2.672-1.267 3.959s-2.168 2.336-3.286 1.525c-.257-8.908-4.652-17.272-10.046-24.4a25.352 25.352 0 0 0 -5.434-5.642 10.638 10.638 0 0 0 -7.393-2.088c-2.969.406-5.582 2.425-8.582 2.672-3.959.336-7.512-2.405-11.442-2.544a11.2 11.2 0 0 0 -8.393 3.91 22.926 22.926 0 0 0 -4.5 8.344 48.926 48.926 0 0 0 -2.514 14.411c-.059 2.761-.317 6.206-2.871 7.235a13.559 13.559 0 0 1 0 2.2c2.574-.99 2.831-4.474 2.89-7.245a48.881 48.881 0 0 1 2.514-14.411 22.971 22.971 0 0 1 4.5-8.354 11.234 11.234 0 0 1 8.393-3.9c3.959.139 7.523 2.87 11.442 2.544 2.97-.247 5.6-2.277 8.582-2.672a10.64 10.64 0 0 1 7.393 2.088 25.349 25.349 0 0 1 5.434 5.642c5.395 7.116 9.789 15.46 10.046 24.388 1.118.821 2.732-.247 3.286-1.515s.574-2.751 1.267-3.959c.812-1.4 2.376-2.138 3.593-3.187 3.088-2.663 3.86-7.146 3.741-11.214v-.376c-.183 3.52-1.123 7.113-3.76 9.389z" transform="translate(97.652 79.494)"/><path d="m373.792 275.316c-2.276-2.5-5.384-4.177-7.473-6.829a14.491 14.491 0 0 1 -2.88-8.106 15.243 15.243 0 0 0 2.88 10.284c2.089 2.662 5.2 4.335 7.473 6.839a14.847 14.847 0 0 1 3.732 8.829 14.846 14.846 0 0 0 -3.732-11.016z" transform="translate(97.798 79.413)"/><path d="m453.445 245.26c-.584 2.425-1.623 4.731-2.1 7.176a22.85 22.85 0 0 0 -.307 4.949 19.23 19.23 0 0 1 .307-2.811c.475-2.455 1.514-4.751 2.1-7.176a12.18 12.18 0 0 0 .327-4.1 13.753 13.753 0 0 1 -.327 1.962z" transform="translate(96.903 79.588)"/><ellipse cx="279.642" cy="877.432" fill="#ff7d00" opacity=".31" rx="96.444" ry="15.49"/><path d="m0 0h6.409v144.29h-6.409z" fill="#535461" transform="translate(285.575 606.024)"/><path d="m224.39 644.722-.4 6.5-.572 9.2-.235 3.823-.562 9.2-.245 3.823-.572 9.2-6.46 104.325a17.683 17.683 0 0 1 -17.644 16.575h-33.583a17.672 17.672 0 0 1 -17.631-16.579l-6.429-104.4-.572-9.2-.235-3.823-.572-9.2-.235-3.822-.572-9.2-.409-6.5a9.2 9.2 0 0 1 9.2-9.72h68.7a9.138 9.138 0 0 1 9.035 9.792z" fill="#3f3d56" transform="translate(107.864 105.153)"/><path d="m176.743 592.24-.572 9.168h-85.019l-.572-9.168z" fill="#9d9cb5" transform="translate(155.112 164.135)"/><path d="m175.918 604.95-.562 9.179h-83.414l-.572-9.179z" fill="#9d9cb5" transform="translate(155.13 164.415)"/><path d="m175.093 617.68-.562 9.168h-81.8l-.572-9.168z" fill="#9d9cb5" transform="translate(155.148 164.697)"/><path d="m130.029 557.3c37.317 27 52.894 69.237 52.894 69.237s-44.972-1.543-82.3-28.547-52.873-69.23-52.873-69.23 44.95 1.533 82.279 28.54z" fill="#ff7d00" transform="translate(105.882 102.806)"/><path d="m47.72 528.76s46.689 25.91 61.663 47.364 73.54 50.41 73.54 50.41" fill="none" stroke="#535461" stroke-miterlimit="10" stroke-width="2" transform="translate(105.882 102.806)"/><path d="m152.788 503.8c20.309 14.688 28.8 37.674 28.8 37.674s-24.479-.838-44.8-15.526-28.788-37.688-28.788-37.688 24.469.84 44.788 15.54z" fill="#ff7d00" transform="translate(107.214 101.911)"/><path d="m108 488.26s25.409 14.105 33.556 25.777 40.036 27.433 40.036 27.433" fill="none" stroke="#535461" stroke-miterlimit="10" stroke-width="2" transform="translate(107.214 101.911)"/><path d="m208.567 538.843c-22.6 24.833-27.377 57.288-27.377 57.288s31.861-7.819 54.438-32.663 27.377-57.288 27.377-57.288-31.841 7.829-54.438 32.663z" fill="#ff7d00" transform="translate(99.661 76.902)"/><path d="m263.025 506.19s-29.436 25.457-36.919 43-44.916 46.946-44.916 46.946" fill="none" stroke="#535461" stroke-miterlimit="10" stroke-width="2" transform="translate(99.661 76.902)"/><path d="m1044.616 527.625s-16.341-81.3-10.086-91.416c0 0 .227-9.4-.149-21.389v-1.375a30.457 30.457 0 0 0 3.435 1.979 27.792 27.792 0 0 0 18.706 2.415l-4.948-5.513c-1.187-1.316-2.425-2.742-2.682-4.484s.455-3.3 1.069-4.85c4.7-11.877 4.949-26.813-4.108-35.879-7.651-7.621-9.512-17.46-17.816-24.418-6.067-5.1-9.4-12.57-12.55-19.8-2.663-6.107-5.345-12.263-6.869-18.737-1.188-5.058-1.663-10.294-3.3-15.233s-4.691-9.74-9.472-11.947c-1.7-.782-3.593-1.227-5.147-2.267-2.038-1.376-3.266-3.613-4.741-5.573-7.493-9.9-32.583-4.068-44.461-.049a25.013 25.013 0 0 0 -8.789 4.87l.109-.178c.089-.149.2-.3.3-.446a15.615 15.615 0 0 0 -3.326 3.712c-1.732 2.742-2.455 5.939-3.9 8.908-1.742 3.514-11.432 13.323-7.265 17.272a3.506 3.506 0 0 0 .99.633 8.557 8.557 0 0 0 4.949.495l-.178.426a28.924 28.924 0 0 0 -2.148 10.977c0 16.262 13.411 29.446 29.971 29.446a30.252 30.252 0 0 0 9.175-1.415c.069.376.129.752.2 1.128a3.467 3.467 0 0 0 .07.446l-.525.732a1.011 1.011 0 0 0 -.09-.129l-15.54 21.72c-2.375 1.673-16.054 11.571-16.826 18.994-.812 8.126-1.623 17.638-1.623 17.638l-.109 2.039a6.118 6.118 0 0 1 -4.949 1.336c-4.85-.792-4.85 17.816-4.85 17.816s-3.227 2.969-5.444.4-8.076 6.147-8.076 6.147l-36.723 1.579-.841.049-1.98-6.127a2.583 2.583 0 0 0 -3.236-1.653 2.96 2.96 0 0 0 -.446.188l-.138.079-.258.178-.128.119a1.964 1.964 0 0 0 -.2.208l-.119.139-.059.06a2.5 2.5 0 0 0 -.357 2.217l1.7 5.256c-7.087 1.425-14.332 5.444-8.423 16.509l-29.951-5.533 9.69 8.136 50.023 10.323c-.663 1.188-.227 2.91 1.841 5.335 8.908 10.462 25.141 13.3 31.673 14.035a56.242 56.242 0 0 0 6.424 10.888l-.565 10.422s-16.539 79.44-19.567 83.468a47.069 47.069 0 0 0 4.186-5.513c-4.8 16.321-11.511 38.661-13.273 42.006-2.831 5.345-5.454 26.972-2.227 28.357.99.425 3.82.218 7.858-.089v1.791l-.178 67.889s.811 41.64-1.415 45.609-2.821 12.293-2.821 12.293-8.901 16.426-15.958 23.026a1.073 1.073 0 0 1 -.158.138l-.218-1.544s-8.479 10.706-27.249 10.106c0 0-11.293 7.344 5.454 7.74s38.136-.594 38.136-.594 14.936-22.765 27.447-19.8v17.254h3.83v-17.528a15.708 15.708 0 0 0 6.82-10.323 12.552 12.552 0 0 0 -4.474-11.61 7.424 7.424 0 0 1 -2.445-5.424l-.138.119a10.548 10.548 0 0 0 -.129-1.069c-1.1-8.908-2.474-27.288 2.385-40.888 6.661-18.647 8.68-44.619 3.83-60.08a138.074 138.074 0 0 1 -3.85-15.054c-.119-.644-.228-1.257-.327-1.831a78.077 78.077 0 0 1 9.828 1.979c11.234 3.1 35.81 3.672 56.794 3.5.049.574.109 1.178.178 1.781a64.859 64.859 0 0 0 2.337 12.392c2.633 7.918 3.84 42.828 3.84 42.828s3.395 28.7 1.544 40.383c-.99 6.493-1.979 13.016-2.543 19.568v.129s-5.563 15.837-9.631 24.438c-.1.218-.208.436-.307.644a12.856 12.856 0 0 0 -3.177.7s-5.454 10.888-10.888 12.689-3.632 7.73 8.67 5.553 30.881-3.959 30.881-3.959l.8-11.105 3.781-4.731-.99 11.076 4.029-.792-.534-13.471 6.186-7.74s7.473-6.651-3.632-19.736v.287c-.119-.188-.227-.386-.356-.574v-.051c-1.841-2.851-3.306-8.166-.624-17.6 4.85-17.044 7.671-32.514 7.671-32.514s10.828-41.442-2.187-61.05h.574a32.988 32.988 0 0 1 -2.8-8.71q-.1-.534-.178-1.1c9.63-.554 19.083-2.3 26.794-6.057-.029-.041-4.673-98.386-8.513-114.044zm-122.267-68.592v.2l-1.98.1zm-6.79.94a2.188 2.188 0 0 0 -.892.425 8.8 8.8 0 0 0 -1.553 4.068l-3.089-.693s-2.167-.465-5.285-.99l-1.475-1.485c4.059-.335 8.275-.83 12.294-1.324z" fill="url(#b)" transform="translate(93.107 79.38)"/><path d="m972.5 743.51-1.179 14.025 3.949-.792-.593-15.213z" fill="#1d2366" transform="translate(138.343 132.527)"/><path d="m928.164 734.013c-4.761 13.56-3.415 31.861-2.346 40.75.4 3.286.762 5.285.762 5.285s-7.117 16.213-7.711 16.827-20.944 13.035-20.944 13.035l-14.223 8.3s-14.431-6.325-7.513-8.5a10.507 10.507 0 0 0 3.732-2.544c6.928-6.582 15.628-22.943 15.628-22.943s.594-8.3 2.771-12.253 1.386-45.451 1.386-45.451l.169-67.651v-8.818l27.07.2a61.256 61.256 0 0 0 1.168 8.908 136.211 136.211 0 0 0 3.771 15c4.772 15.434 2.793 41.277-3.72 59.855z" fill="#ffb0b1" transform="translate(92.577 75.431)"/><path d="m926.58 781.336s-7.117 16.213-7.711 16.826-20.943 13.038-20.943 13.038l-14.226 8.3s-14.431-6.324-7.513-8.5a10.5 10.5 0 0 0 3.732-2.544l.613 4.326 4.741-.2 40.581-36.513c.36 3.267.726 5.267.726 5.267z" opacity=".1" transform="translate(92.577 74.143)"/><path d="m925.826 777-40.808 36.76-4.741.2-.99-6.928s-8.294 10.67-26.724 10.076c0 0-11.066 7.314 5.335 7.71s37.345-.594 37.345-.594 14.629-22.765 26.872-19.8v17.192h3.761v-17.348a15.628 15.628 0 0 0 6.671-10.294 12.609 12.609 0 0 0 -4.365-11.561 7.452 7.452 0 0 1 -2.356-5.413z" fill="#1d2366" transform="translate(92.837 74.134)"/><path d="m1023.17 755.147c-2.632 9.4-1.2 14.7.6 17.539v.059a32.427 32.427 0 0 1 4.732 11.551l.158.891-18.569 27.07-10.076 3.959s-16.2-5.533-13.243-7.117c.742-.386 1.9-2.445 3.226-5.285 3.959-8.562 9.423-24.358 9.423-24.358v-.129c.574-6.522 1.485-13.025 2.494-19.5 1.812-11.65-1.514-40.245-1.514-40.245s-1.188-34.771-3.761-42.679a65.241 65.241 0 0 1 -2.306-12.313c-.535-4.949-.654-9.027-.654-9.027s10.67-14.847 30.228 1.188a21.521 21.521 0 0 1 4.088 4.434c13.511 19.221 2.633 61.564 2.633 61.564s-2.717 15.404-7.459 32.398z" fill="#ffb0b1" transform="translate(91.433 75.439)"/><path d="m1028.693 786.459-18.568 27.07-10.076 3.959s-16.2-5.533-13.243-7.117c.742-.386 1.9-2.445 3.227-5.285 6.859-.059 10.413 6.473 10.413 6.473l8.69-1.386s11.462-22.527 14.035-23.9.4-10.284.4-10.284v-2.269c.069.079.129.168.208.247v.06a32.407 32.407 0 0 1 4.731 11.551z" opacity=".1" transform="translate(91.431 74.168)"/><path d="m1000.9 812.149s-4.949-9.087-14.431-5.731c0 0-5.335 10.887-10.67 12.649s-3.553 7.7 8.5 5.533 30.227-3.959 30.227-3.959l.792-11.075 12.254-15.609s7.3-6.622-3.564-19.657v2.267s2.177 8.908-.4 10.284-14 23.913-14 23.913z" fill="#1d2366" transform="translate(91.571 74.162)"/><path d="m927.24 650.228a61.366 61.366 0 0 0 1.168 8.908c-11.145-1.633-21.488-.822-28.268-.287v-8.819z" opacity=".1" transform="translate(92.314 75.431)"/><path d="m1029.175 663.652s-15.837.772-34.722.931c-.534-4.949-.653-9.027-.653-9.027s10.669-14.847 30.228 1.188a21.519 21.519 0 0 1 4.088 4.434 24.093 24.093 0 0 0 1.059 2.474z" opacity=".1" transform="translate(91.357 75.439)"/><path d="m1028.123 660.08s-69.364 3.355-90.506-2.574-42.1-.791-45.253-2.168-.594-22.923 2.177-28.258 17.975-59.288 17.975-59.288l14.629-76.273 15.411-4.246 1.089-.307 26.852-7.4 19.677-5.434s39.126 152.753 35.771 164.017a28.845 28.845 0 0 0 -.574 13.253 33.09 33.09 0 0 0 2.752 8.678z" fill="#1d2366" transform="translate(92.407 77.229)"/><path d="m875.925 439s-13.857 14.847-3.365 23.121 17.391.792 17.391.792z" fill="#c7daf5" transform="translate(92.636 77.589)"/><path d="m875.925 439s-13.857 14.847-3.365 23.121 17.391.792 17.391.792z" opacity=".1" transform="translate(92.636 77.589)"/><path d="m988.8 340.1s-1.623 1.544-4.068 3.821c-3.484 3.256-8.641 8.017-13.214 12.006-6.335 5.513-11.561 9.561-9.69 6.107s1.514-9.472.584-15.1c-.069-.376-.129-.752-.2-1.118a103.757 103.757 0 0 0 -3.058-12.234s10.234-13.224 15.9-18.44c2.108-1.979 3.583-2.791 3.672-1.415.1 1.851 1.485 5.939 3.207 10.274.049.139.1.267.158.406 1.148 2.969 2.445 6.018 3.583 8.651 1.744 4.034 3.126 7.042 3.126 7.042z" fill="#ffb0b1" transform="translate(91.71 78.875)"/><path d="m982.093 324.4a29.377 29.377 0 0 1 -19.677 22.528 103.02 103.02 0 0 0 -3.256-13.352s19.271-24.893 19.568-19.855c.072 1.912 1.572 6.149 3.365 10.679z" opacity=".1" transform="translate(91.71 78.875)"/><path d="m960.127 353.964 2.494-3.514s1.653 10.076 7.73 5.632 6.374 33.444 6.374 33.444l-6.525 97.524-47.133-2.821 1.336-47.124 5.335-23.755 13.194-34.534 7.849-11.412z" opacity=".1" transform="translate(92.079 78.493)"/><path d="m976.727 390.136-5.939 88.18-.623 9.343-26.279-1.574-.99-.059-19.8-1.188 1.336-47.133 5.335-23.755 13.194-34.534 7.853-11.416 9.343-13.491 2.495-3.5s1.653 10.076 7.73 5.632l.129-.089c5.938-3.76 6.216 33.584 6.216 33.584z" fill="#1d2366" transform="translate(92.077 78.488)"/><path d="m929.879 406.26s-2.365 4.949-7.116 4.147-4.741 17.816-4.741 17.816-3.157 2.969-5.335.4-7.918 6.127-7.918 6.127l-35.969 1.58s16 7.314 12.867 29.446c0 0 54.339-3.365 56.12-8.5s-7.908-51.016-7.908-51.016z" fill="#fff" transform="translate(92.634 77.923)"/><path d="m929.879 406.26s-2.365 4.949-7.116 4.147-4.741 17.816-4.741 17.816-3.157 2.969-5.335.4-7.918 6.127-7.918 6.127l-35.969 1.58s16 7.314 12.867 29.446c0 0 54.339-3.365 56.12-8.5s-7.908-51.016-7.908-51.016z" opacity=".03" transform="translate(92.634 77.923)"/><path d="m777.66 389.76 9.482 8.1 78.054 16.4-9.68-9.878z" fill="#fff" transform="translate(140.321 136.122)"/><path d="m960.076 357.054c-1.3 1.98-5.008 12.115-8.107 20.964-2.583 7.374-4.741 13.857-4.741 13.857s-5.038 32.8-7.611 38.73-1.178 29.05-1.178 29.05l-9.591 57.1s-4.348 29.445-11.055 47.035c-6.622 17.311-14 25.428-14.223 25.685 2.969-4.018 19.152-83.142 19.152-83.142l5.345-99.79s.782-9.482 1.574-17.588 16.826-19.172 16.826-19.172l15.46-21.983c1.555 2.079.515 5.7-1.851 9.254z" fill="#fff" transform="translate(92.278 78.52)"/><path d="m919.559 486.494s-22.765-.99-33.791-14.233 25.487-5.285 25.487-5.285l9.492 2.178z" fill="#ffb0b1" transform="translate(92.48 77.326)"/><path d="m1026.479 636.954a28.843 28.843 0 0 0 -.574 13.253c-24.834 1.762-51.4-4.949-51.4-4.949-4.949 4.553-17.984 11.264-17.984 11.264l-7.107-88.091c-4.543-11.877-6.325-74.1-6.325-74.1s.406-3.257.99-8.136a.939.939 0 0 1 .049-.366c1.772-13.629 5.285-39.215 7.008-42.669 2.375-4.751-7.3-17.39-7.3-17.39l4.4-37.562.535-4.533c9.284-4.147 16.4-17.391 16.4-17.391l5.464-9.571c5.938-3.811 6.246 33.534 6.246 33.534l-5.939 88.18 19.677-5.434s39.215 152.697 35.86 163.961z" opacity=".1" transform="translate(91.876 78.432)"/><path d="m1051.978 642.8c-27.071 13.441-76.273.99-76.273.99-4.949 4.553-17.984 11.264-17.984 11.264l-7.121-88.094c-4.533-11.877-6.315-74.1-6.315-74.1s5.721-46.431 8.1-51.172c.693-1.386.357-3.445-.465-5.661a71.637 71.637 0 0 1 -4.335-33.148l1.9-16.143.525-4.523c9.294-4.157 16.411-17.4 16.411-17.4l4.949-8.67 9.106-15.975 4.316-7.562.732.663 5.592 5.068 5.939 4.949c7.75 6.532 21.142 18.034 28.051 25.071 6.077 6.2 8 30.3 8.552 48.44.366 11.946.149 21.31.149 21.31-6.127 10.086 9.9 91.06 9.9 91.06 3.728 15.642 8.271 113.633 8.271 113.633z" fill="#fff" transform="translate(91.862 78.676)"/><path d="m999.73 364.925s-18.578 35.365-16.42 48.806 8.294 28.654 5.335 32.208a10.936 10.936 0 0 1 -8.7 4.345c-2.969.2-10.888 5.731-10.888 6.325s-7.314.594-13.857 3.365-16.2 4.345-16.2 4.345-18.806-.594-20.558 1.188-3.554 12.442.2 20.944 7.918 14.847 11.066 16 23.121-5.533 39.323-7.117 33.791-14.421 33.791-14.421 19.37-6.929 22.765-18.578-4.147-75.678-4.147-75.678-5.705-29.838-21.71-21.732z" opacity=".03" transform="translate(92.148 78.36)"/><path d="m997.33 361.926s-18.578 35.375-16.4 48.806 8.295 28.654 5.325 32.217a10.886 10.886 0 0 1 -8.69 4.345c-2.969.2-10.888 5.731-10.888 6.325s-7.314.594-13.857 3.355-16.2 4.345-16.2 4.345-18.806-.594-20.548 1.188-3.563 12.451.2 20.944 7.918 14.847 11.066 16 23.121-5.533 39.324-7.107 33.792-14.431 33.792-14.431 19.36-6.929 22.715-18.568-4.147-75.689-4.147-75.689-5.687-29.827-21.692-21.73z" opacity=".03" transform="translate(92.171 78.39)"/><path d="m999.14 363.126s-18.578 35.375-16.4 48.806 8.295 28.654 5.335 32.208a10.887 10.887 0 0 1 -8.7 4.355c-2.969.2-10.888 5.731-10.888 6.315s-7.3.594-13.857 3.365-16.2 4.345-16.2 4.345-18.806-.594-20.558 1.188-3.553 12.451.2 20.944 7.918 14.847 11.066 16 23.121-5.533 39.324-7.117 33.791-14.421 33.791-14.421 19.37-6.928 22.765-18.578-4.1-75.679-4.1-75.679-5.783-29.788-21.778-21.731z" fill="#fff" transform="translate(92.153 78.378)"/><path d="m999.479 458.991s-14.846-2.969-9.68 1.979 5.137 9.284 11.462 9.086-1.782-11.065-1.782-11.065z" opacity=".1" transform="translate(91.409 77.393)"/><path d="m1024.922 566.58s-6.711 4.543 6.126 15.015-6.126-15.015-6.126-15.015z" opacity=".1" transform="translate(91.058 76.284)"/><path d="m1012 604.31c0 .594-2.375 21.776 6.513 27.071s-6.513-27.071-6.513-27.071z" opacity=".1" transform="translate(91.173 75.899)"/><path d="m869.245 436.59c-7.166.247-22.646 2.435-14.619 17.41 7.1 13.253 19.024 4.395 25.734-2.326a25.286 25.286 0 0 0 -11.115-15.084z" fill="#ffb0b1" transform="translate(92.802 77.613)"/><path d="m880.74 451.707.3-.307z" fill="#ffb0b1" transform="translate(92.511 77.462)"/><path d="m997.109 343.89c-7.6 5.2-13.976 9.581-15.223 10.491-3.4 2.524-9.9 17.341-14.085 24.9-3.335 6.087-14.174 7.651-18.261 8.037l.525-4.523c9.294-4.157 16.41-17.4 16.41-17.4l18.37-32.207 6.325 5.751z" opacity=".1" transform="translate(91.808 78.67)"/><path d="m997.109 343.289c-7.6 5.2-13.976 9.581-15.223 10.5-3.4 2.514-9.9 17.331-14.085 24.893-3.335 6.087-14.174 7.651-18.261 8.037l.525-4.523c9.294-4.157 16.41-17.4 16.41-17.4l18.37-32.207 6.325 5.731s2.376 1.961 5.939 4.969z" fill="#dce7ff" transform="translate(91.808 78.676)"/><path d="m982.214 317.617a29.357 29.357 0 1 1 -24.957-29.02 29.308 29.308 0 0 1 24.957 29.02z" fill="#ffb0b1" transform="translate(92.075 79.129)"/><path d="m1033.467 416.347a26.092 26.092 0 0 1 -9.472-10.175c-1.653-3.266-2.751-7.037-5.572-9.354-2.544-2.078-5.939-2.583-9.107-3.513-10.412-3.079-19.142-12.58-19.469-23.428-.158-5.107 1.435-10.2.713-15.263a16.908 16.908 0 0 0 -3.306-7.869 27.083 27.083 0 0 0 -2.861-3.078c-1.386-1.307-2.841-2.573-4.107-3.959a15.35 15.35 0 0 1 -2.079-2.821 13.575 13.575 0 0 1 -1.138-2.623c-1.98-6.058-.178-13.243-2.356-19.37l-.119-.337c-.822-2.177-2.495-4.355-4.82-4.523s-4.315 1.762-6.533 2.623c-4.642 1.8-9.65-1.267-13.52-4.395s-8.235-6.7-13.154-6.008c-3.256.465-5.83 2.682-8.829 3.83a12.365 12.365 0 0 1 -2.088.6 29.353 29.353 0 0 1 55.942 17.064c.05.139.1.267.158.406 1.148 2.969 2.445 6.018 3.583 8.651l5.592 5.068 5.938 4.949c7.75 6.533 21.142 18.034 28.051 25.071 6.078 6.22 7.979 30.307 8.553 48.454z" opacity=".1" transform="translate(92.052 79.129)"/><path d="m927.326 287.77c1.415-2.88 2.118-6.107 3.81-8.839 2.484-3.959 6.82-6.493 11.273-8.027 11.63-4.009 36.206-9.829 43.551 0 1.445 1.98 2.642 4.177 4.642 5.543 1.524 1.039 3.365 1.485 5.038 2.267 4.682 2.2 7.671 6.988 9.264 11.877s2.068 10.135 3.237 15.173c1.494 6.463 4.117 12.59 6.73 18.677 3.078 7.186 6.345 14.639 12.283 19.717 8.107 6.928 9.9 16.737 17.421 24.339 8.907 9.027 8.621 23.923 4.028 35.751a9.809 9.809 0 0 0 -1.05 4.83c.237 1.653 1.465 3.157 2.623 4.474l4.87 5.493c-11.521 2.781-24.556-3.237-29.921-13.8-1.653-3.266-2.751-7.027-5.582-9.353-2.534-2.079-5.939-2.573-9.1-3.5-10.412-3.088-19.143-12.6-19.469-23.448-.159-5.1 1.435-10.195.712-15.243a16.824 16.824 0 0 0 -3.316-7.918c-2.721-3.553-6.829-5.939-9.046-9.9-3.751-6.622-.9-15.223-3.6-22.33-.831-2.177-2.494-4.355-4.82-4.523s-4.315 1.762-6.542 2.623c-4.632 1.8-9.641-1.257-13.51-4.394s-8.235-6.7-13.164-6c-3.256.455-5.819 2.672-8.818 3.83-2.217.851-6.711 1.613-8.651-.257-4.097-3.769 5.395-13.538 7.107-17.062z" fill="#591d4b" transform="translate(92.118 79.361)"/><path d="m1027.875 402.08c-1.663-3.266-2.751-7.027-5.582-9.343-2.534-2.078-5.939-2.583-9.106-3.514-10.4-3.078-19.133-12.59-19.469-23.438-.159-5.1 1.435-10.2.722-15.252a16.931 16.931 0 0 0 -3.316-7.869c-2.732-3.553-6.84-5.939-9.047-9.9-3.751-6.612-.9-15.213-3.613-22.33-.822-2.168-2.494-4.345-4.81-4.523s-4.326 1.772-6.542 2.633c-4.632 1.8-9.651-1.267-13.511-4.395s-8.245-6.7-13.164-6.008c-3.256.465-5.83 2.682-8.819 3.83-2.216.851-6.72 1.623-8.66-.248-4.078-3.959 5.414-13.708 7.117-17.212 1.415-2.89 2.118-6.107 3.82-8.839.089-.148.188-.3.287-.446a15.731 15.731 0 0 0 -3.256 3.7c-1.692 2.732-2.395 5.939-3.81 8.839-1.713 3.5-11.2 13.283-7.117 17.212 1.98 1.88 6.433 1.108 8.651.257 2.969-1.158 5.563-3.375 8.819-3.83 4.949-.7 9.3 2.87 13.164 6s8.908 6.2 13.52 4.395c2.217-.861 4.157-2.8 6.533-2.623s3.959 2.346 4.82 4.523c2.7 7.107-.148 15.708 3.6 22.329 2.217 3.89 6.325 6.325 9.046 9.9a16.819 16.819 0 0 1 3.316 7.918c.723 5.048-.871 10.145-.712 15.243.326 10.888 9.056 20.36 19.469 23.448 3.137.93 6.562 1.425 9.1 3.5 2.841 2.326 3.959 6.087 5.582 9.354 5.365 10.561 18.4 16.579 29.921 13.8l-2.3-2.593c-9.984.151-20.09-5.53-24.653-14.518z" opacity=".1" transform="translate(92.12 79.262)"/><path d="m959.919 357.653c-1.3 1.98-5.008 12.115-8.106 20.964-2.9-1.128-5.533-8.324-5.533-8.324l15.46-21.993c1.584 2.177.544 5.79-1.821 9.353z" opacity=".1" transform="translate(91.843 78.515)"/><path d="m960.519 357.054c-1.3 1.98-5.008 12.115-8.106 20.964-2.9-1.118-5.533-8.324-5.533-8.324l15.46-21.984c1.584 2.168.545 5.79-1.821 9.344z" fill="#dce7ff" transform="translate(91.837 78.521)"/><path d="m869.751 459-8.572-27.031a2.524 2.524 0 0 1 1.643-3.177 2.534 2.534 0 0 1 3.168 1.643l8.571 27-.851 5.652z" fill="#be8b87" transform="translate(92.712 77.694)"/><path d="m861.994 429.591a2.534 2.534 0 0 1 3.177 1.643l8.572 27-.644 4.236.624.653.851-5.652-8.621-27a2.534 2.534 0 0 0 -3.167-1.643 2.535 2.535 0 0 0 -1.317.99 3.432 3.432 0 0 1 .525-.227z" fill="#fff" opacity=".1" transform="translate(92.708 77.693)"/><path d="m822.6 400.664 4.81-1.524-.7 4.632-.148 1.019-1.406-1.465z" fill="#efc8c4" transform="translate(139.864 136.026)"/><path d="m872.42 462a.989.989 0 0 1 .307-.258.436.436 0 0 1 .465 0 1.214 1.214 0 0 1 .168.267.852.852 0 0 0 .614.406l-.149.99z" fill="#727a9c" transform="translate(92.597 77.357)"/><path d="m861.13 441.7s17.192-.1 13.145 7.215-10.373 8.2-10.373 8.2z" fill="#ffb0b1" transform="translate(92.712 77.56)"/><path d="m750.765 110.05h-.742c-29.535 0-55.655 15.629-70.68 38.691-15.025-23.062-41.146-38.691-70.68-38.691h-.742a84.132 84.132 0 0 0 -83.33 84.082c0 27.526 12.056 66.582 35.563 98.721 44.786 61.237 119.188 114.814 119.188 114.814s74.4-53.567 119.18-114.815c23.517-32.138 35.562-71.195 35.562-98.721a84.131 84.131 0 0 0 -83.319-84.082zm-10.621 187.514a16.677 16.677 0 0 1 -15.509-10.709h-17.658a5.582 5.582 0 0 1 -5.255-3.8l-5.422-16.343-17.163 59.971a5.552 5.552 0 0 1 -5.325 4.009h-.346a5.483 5.483 0 0 1 -5.147-4.593l-17.69-106.381-12.929 62.95a5.513 5.513 0 0 1 -5.355 4.187h-24.871a5.533 5.533 0 1 1 0-11.056h20.518l18.308-84.637a5.553 5.553 0 0 1 10.887.455l18.064 108.519 15.381-53.656a5.444 5.444 0 0 1 5.177-3.959h.109a5.523 5.523 0 0 1 5.246 3.8l9.809 29.505h13.441a16.589 16.589 0 1 1 15.76 21.774z" fill="#ff7d00" transform="translate(96.152 80.95)"/></svg>