<svg id="Componente_1_1" data-name="Componente 1 – 1" xmlns="http://www.w3.org/2000/svg" xmlns:xlink="http://www.w3.org/1999/xlink" width="29.621" height="24.394" viewBox="0 0 29.621 24.394">
  <defs>
    <clipPath id="clip-path">
      <rect id="Retângulo_2963" data-name="Retângulo 2963" width="29.621" height="24.394" fill="none"/>
    </clipPath>
  </defs>
  <g id="Grupo_7476" data-name="Grupo 7476" clip-path="url(#clip-path)">
    <path id="Caminho_8708" data-name="Caminho 8708" d="M0,0C.135,0,.27.01.4.01H26.342v.4q0,5.539-.005,11.078a.532.532,0,0,0,.276.509,6.775,6.775,0,1,1-10.472,6.7c-.005-.028-.011-.057-.025-.128H0ZM1.805,16.762H16.1a6.818,6.818,0,0,1,8.442-5.712V6.512H1.805ZM24.55,1.813H1.8V4.684H24.55Zm3.276,15.8a4.993,4.993,0,1,0-4.975,5,5,5,0,0,0,4.975-5" transform="translate(0 0)" fill="#272626"/>
    <rect id="Retângulo_2962" data-name="Retângulo 2962" width="7.586" height="1.75" transform="translate(4.946 12.34)" fill="#ff7d00"/>
    <path id="Caminho_8709" data-name="Caminho 8709" d="M61.11,43.492v1.789H59.646v1.456H57.87V45.306H56.413v-1.8h1.434V42.061h1.78v1.431Z" transform="translate(-35.917 -26.779)" fill="#ff7d00"/>
  </g>
</svg>
