<svg id="Componente_58_1" data-name="Componente 58 – 1" xmlns="http://www.w3.org/2000/svg" width="333.803" height="301.02" viewBox="0 0 333.803 301.02">
  <g id="Grupo_17025" data-name="Grupo 17025" transform="translate(-855.731 -109.654)" opacity="0.21" style="mix-blend-mode: multiply;isolation: isolate">
    <ellipse id="Elipse_1399" data-name="Elipse 1399" cx="166.902" cy="10.524" rx="166.902" ry="10.524" transform="translate(855.731 389.626)" fill="#c4adad"/>
  </g>
  <g id="Grupo_17118" data-name="Grupo 17118" transform="translate(-855.731 -109.654)">
    <g id="Grupo_17057" data-name="Grupo 17057">
      <g id="Grupo_17026" data-name="Grupo 17026">
        <rect id="Retângulo_3420" data-name="Retângulo 3420" width="94.933" height="173.174" rx="7.154" transform="translate(1048.385 229.777)" fill="#85a6d6"/>
      </g>
      <g id="Grupo_17056" data-name="Grupo 17056">
        <g id="Grupo_17027" data-name="Grupo 17027">
          <rect id="Retângulo_3421" data-name="Retângulo 3421" width="94.934" height="173.174" rx="7.154" transform="translate(1040.402 229.777)" fill="#92b4ea"/>
        </g>
        <g id="Grupo_17034" data-name="Grupo 17034">
          <g id="Grupo_17030" data-name="Grupo 17030">
            <g id="Grupo_17028" data-name="Grupo 17028">
              <circle id="Elipse_1400" data-name="Elipse 1400" cx="16.048" cy="16.048" r="16.048" transform="translate(1051.817 363.807)" fill="#c5dbf9"/>
            </g>
            <g id="Grupo_17029" data-name="Grupo 17029">
              <path id="Caminho_13954" data-name="Caminho 13954" d="M1060.695,394.942a.723.723,0,0,1-.316-.071.743.743,0,0,1-.356-.99l13.694-29a.744.744,0,1,1,1.345.635l-13.693,29A.745.745,0,0,1,1060.695,394.942Z" fill="#92b4ea"/>
            </g>
          </g>
          <g id="Grupo_17033" data-name="Grupo 17033">
            <g id="Grupo_17031" data-name="Grupo 17031">
              <circle id="Elipse_1401" data-name="Elipse 1401" cx="16.048" cy="16.048" r="16.048" transform="translate(1091.824 363.807)" fill="#c5dbf9"/>
            </g>
            <g id="Grupo_17032" data-name="Grupo 17032">
              <path id="Caminho_13955" data-name="Caminho 13955" d="M1100.7,394.942a.731.731,0,0,1-.317-.071.743.743,0,0,1-.355-.99l13.692-29a.744.744,0,1,1,1.346.635l-13.692,29A.744.744,0,0,1,1100.7,394.942Z" fill="#92b4ea"/>
            </g>
          </g>
        </g>
        <g id="Grupo_17041" data-name="Grupo 17041">
          <g id="Grupo_17037" data-name="Grupo 17037">
            <g id="Grupo_17035" data-name="Grupo 17035">
              <circle id="Elipse_1402" data-name="Elipse 1402" cx="16.048" cy="16.048" r="16.048" transform="translate(1048.559 349.08) rotate(-76.718)" fill="#c5dbf9"/>
            </g>
            <g id="Grupo_17036" data-name="Grupo 17036">
              <path id="Caminho_13956" data-name="Caminho 13956" d="M1060.695,352.235a.723.723,0,0,1-.316-.071.743.743,0,0,1-.356-.99l13.694-29a.744.744,0,1,1,1.345.635l-13.693,29A.745.745,0,0,1,1060.695,352.235Z" fill="#92b4ea"/>
            </g>
          </g>
          <g id="Grupo_17040" data-name="Grupo 17040">
            <g id="Grupo_17038" data-name="Grupo 17038">
              <circle id="Elipse_1403" data-name="Elipse 1403" cx="16.048" cy="16.048" r="16.048" transform="matrix(0.16, -0.987, 0.987, 0.16, 1089.46, 350.419)" fill="#c5dbf9"/>
            </g>
            <g id="Grupo_17039" data-name="Grupo 17039">
              <path id="Caminho_13957" data-name="Caminho 13957" d="M1100.7,352.235a.731.731,0,0,1-.317-.071.743.743,0,0,1-.355-.99l13.692-29a.744.744,0,1,1,1.346.635l-13.692,29A.744.744,0,0,1,1100.7,352.235Z" fill="#92b4ea"/>
            </g>
          </g>
        </g>
        <g id="Grupo_17048" data-name="Grupo 17048">
          <g id="Grupo_17044" data-name="Grupo 17044">
            <g id="Grupo_17042" data-name="Grupo 17042">
              <circle id="Elipse_1404" data-name="Elipse 1404" cx="16.048" cy="16.048" r="16.048" transform="translate(1045.17 294.441) rotate(-45)" fill="#c5dbf9"/>
            </g>
            <g id="Grupo_17043" data-name="Grupo 17043">
              <path id="Caminho_13958" data-name="Caminho 13958" d="M1060.695,309.527a.724.724,0,0,1-.316-.071.743.743,0,0,1-.356-.99l13.694-29a.744.744,0,1,1,1.345.635l-13.693,29A.745.745,0,0,1,1060.695,309.527Z" fill="#92b4ea"/>
            </g>
          </g>
          <g id="Grupo_17047" data-name="Grupo 17047">
            <g id="Grupo_17045" data-name="Grupo 17045">
              <circle id="Elipse_1405" data-name="Elipse 1405" cx="16.048" cy="16.048" r="16.048" transform="translate(1086.904 285.755) rotate(-22.5)" fill="#c5dbf9"/>
            </g>
            <g id="Grupo_17046" data-name="Grupo 17046">
              <path id="Caminho_13959" data-name="Caminho 13959" d="M1100.7,309.527a.731.731,0,0,1-.317-.071.743.743,0,0,1-.355-.99l13.692-29a.744.744,0,1,1,1.346.635l-13.692,29A.744.744,0,0,1,1100.7,309.527Z" fill="#92b4ea"/>
            </g>
          </g>
        </g>
        <g id="Grupo_17055" data-name="Grupo 17055">
          <g id="Grupo_17051" data-name="Grupo 17051">
            <g id="Grupo_17049" data-name="Grupo 17049">
              <circle id="Elipse_1406" data-name="Elipse 1406" cx="16.048" cy="16.048" r="16.048" transform="translate(1045.17 251.733) rotate(-45)" fill="#c5dbf9"/>
            </g>
            <g id="Grupo_17050" data-name="Grupo 17050">
              <path id="Caminho_13960" data-name="Caminho 13960" d="M1060.695,266.82a.724.724,0,0,1-.316-.071.743.743,0,0,1-.356-.99l13.694-29a.744.744,0,1,1,1.345.635l-13.693,29A.745.745,0,0,1,1060.695,266.82Z" fill="#92b4ea"/>
            </g>
          </g>
          <g id="Grupo_17054" data-name="Grupo 17054">
            <g id="Grupo_17052" data-name="Grupo 17052">
              <circle id="Elipse_1407" data-name="Elipse 1407" cx="16.048" cy="16.048" r="16.048" transform="translate(1086.904 243.048) rotate(-22.5)" fill="#c5dbf9"/>
            </g>
            <g id="Grupo_17053" data-name="Grupo 17053">
              <path id="Caminho_13961" data-name="Caminho 13961" d="M1100.7,266.82a.731.731,0,0,1-.317-.071.743.743,0,0,1-.355-.99l13.692-29a.744.744,0,1,1,1.346.635l-13.692,29A.744.744,0,0,1,1100.7,266.82Z" fill="#92b4ea"/>
            </g>
          </g>
        </g>
      </g>
    </g>
    <g id="Grupo_17067" data-name="Grupo 17067">
      <g id="Grupo_17058" data-name="Grupo 17058">
        <rect id="Retângulo_3422" data-name="Retângulo 3422" width="46.828" height="28.667" rx="2.777" transform="translate(1047.694 109.654)" fill="#d3bcbc"/>
      </g>
      <g id="Grupo_17059" data-name="Grupo 17059">
        <path id="Caminho_13962" data-name="Caminho 13962" d="M1057.115,133.7l-7.652,14.322,18.175-12.037Z" fill="#d3bcbc"/>
      </g>
      <g id="Grupo_17066" data-name="Grupo 17066">
        <g id="Grupo_17062" data-name="Grupo 17062">
          <g id="Grupo_17060" data-name="Grupo 17060">
            <circle id="Elipse_1408" data-name="Elipse 1408" cx="9.236" cy="9.236" r="9.236" transform="translate(1065.542 116.097) rotate(-13.282)" fill="#ead8d8"/>
          </g>
          <g id="Grupo_17061" data-name="Grupo 17061">
            <path id="Caminho_13963" data-name="Caminho 13963" d="M1080.778,131.646a.429.429,0,0,1-.387-.245l-7.879-16.689a.428.428,0,1,1,.774-.365l7.88,16.688a.429.429,0,0,1-.388.611Z" fill="#d3bcbc"/>
          </g>
        </g>
        <g id="Grupo_17065" data-name="Grupo 17065">
          <g id="Grupo_17063" data-name="Grupo 17063">
            <path id="Caminho_13964" data-name="Caminho 13964" d="M1061.684,120.825a7.449,7.449,0,1,0,10.425,1.518A7.449,7.449,0,0,0,1061.684,120.825Z" fill="#fff"/>
          </g>
          <g id="Grupo_17064" data-name="Grupo 17064">
            <path id="Caminho_13965" data-name="Caminho 13965" d="M1062.79,133.789a.338.338,0,0,1-.162-.04.346.346,0,0,1-.143-.467l6.991-13.143a.345.345,0,0,1,.609.325l-6.99,13.142A.345.345,0,0,1,1062.79,133.789Z" fill="#ead8d8"/>
          </g>
        </g>
      </g>
    </g>
    <g id="Grupo_17110" data-name="Grupo 17110">
      <g id="Grupo_17109" data-name="Grupo 17109">
        <g id="Grupo_17068" data-name="Grupo 17068">
          <path id="Caminho_13966" data-name="Caminho 13966" d="M969.085,193.559s-9.2-3.376-12.508-8.832,3.716-12.434,3.716-12.434l9.976,2.981L975.5,186.9Z" fill="#f48462"/>
        </g>
        <g id="Grupo_17069" data-name="Grupo 17069">
          <path id="Caminho_13967" data-name="Caminho 13967" d="M932.315,192.246l28.935,8.647a1.822,1.822,0,0,0,2.368-1.48l7.992-46.128a2.428,2.428,0,0,0-1.648-2.679l-28.935-8.646a1.821,1.821,0,0,0-2.367,1.479l-7.992,46.128A2.426,2.426,0,0,0,932.315,192.246Z" fill="#40507f"/>
        </g>
        <g id="Grupo_17070" data-name="Grupo 17070">
          <path id="Caminho_13968" data-name="Caminho 13968" d="M938.843,175.766c.208,1.158,7.164,3.236,7.963,2.379s4.558-3.136,7.241-2.543a5.332,5.332,0,0,1,1.562.571,3.279,3.279,0,0,1,1.143,1.135c.254.441.371.852.512,1.113.347.657,2.954.768,4.8-1.4a7.992,7.992,0,0,0,1-1.655,13.737,13.737,0,0,0,.8-2.005,14.275,14.275,0,0,0,.685-4.91,8.308,8.308,0,0,0-4.461-7.25,12.539,12.539,0,0,0-2.222-.946c-10.419-3.343-13.7,5-13.7,5a5.938,5.938,0,0,0-1.5,1.8s.935,3.264-.12,4.138c-.61.507-1.415.162-1.988-.228C939.536,173.134,938.751,175.237,938.843,175.766ZM949.2,161.7c7.182-.526-1.832,7.948-3.927,6.122S949.2,161.7,949.2,161.7Z" fill="#fff"/>
        </g>
        <g id="Grupo_17071" data-name="Grupo 17071">
          <path id="Caminho_13969" data-name="Caminho 13969" d="M977.8,184.983s-4.974-14.518-8.992-16.035-13.564.512-12.462,3.058,7.872,3.578,7.872,3.578-2.49,7.086,5.532,10.161S977.8,184.983,977.8,184.983Z" fill="#f48462"/>
        </g>
        <g id="Grupo_17072" data-name="Grupo 17072">
          <path id="Caminho_13970" data-name="Caminho 13970" d="M968.122,184.715a.3.3,0,0,1-.106-.019c-.057-.019-5.633-2.07-4.109-9.179a.322.322,0,0,1,.629.134c-1.4,6.544,3.485,8.366,3.694,8.44a.321.321,0,0,1-.108.624Z"/>
        </g>
        <g id="Grupo_17073" data-name="Grupo 17073">
          <path id="Caminho_13971" data-name="Caminho 13971" d="M1021,357.242l3.533,10.177s-4.876,2.346-5.383,4.91c-.518,2.618,2.286,4.347,2.286,4.347l-8.743,10.74,27.157-3.369-2.493-26.8Z" fill="#50608e"/>
        </g>
        <g id="Grupo_17074" data-name="Grupo 17074">
          <path id="Caminho_13972" data-name="Caminho 13972" d="M1056.107,367.4v16.649l-23.456-1.791v-15.91Z" fill="#f48462"/>
        </g>
        <g id="Grupo_17075" data-name="Grupo 17075">
          <path id="Caminho_13973" data-name="Caminho 13973" d="M1016.359,231.839s-24.816,49.272-25.006,65.5,33.18,70.076,33.18,70.076,9.069,3.73,22.391,3.3,15.416-1.958,15.416-1.958-2.284-115.494-7.613-126.3S1016.359,231.839,1016.359,231.839Z" fill="#a37b90"/>
        </g>
        <g id="Grupo_17076" data-name="Grupo 17076">
          <path id="Caminho_13974" data-name="Caminho 13974" d="M1035.505,179.283s11.8-.4,17.89,5.124,2.093,53.668,2.093,53.668-15.887,1.332-27.26,0-16.512-3.14-16.512-3.14-1.332-44.26,1.713-49.583S1035.505,179.283,1035.505,179.283Z" fill="#ffb164"/>
        </g>
        <g id="Grupo_17077" data-name="Grupo 17077">
          <path id="Caminho_13975" data-name="Caminho 13975" d="M1038.458,179.112s-8.23,121.045-7.553,122.422,16.245,3.787,21.74,2.754,8.526-2.754,9.41-3.787-.573-80.185-.573-80.185l.858-32.511S1050.456,179.07,1038.458,179.112Z" fill="#f4e6e6"/>
        </g>
        <g id="Grupo_17078" data-name="Grupo 17078">
          <rect id="Retângulo_3423" data-name="Retângulo 3423" width="13.662" height="5.028" rx="1.615" transform="translate(1038.666 203.944)" fill="#92b4ea"/>
        </g>
        <g id="Grupo_17079" data-name="Grupo 17079">
          <path id="Caminho_13976" data-name="Caminho 13976" d="M1016.214,183.013a74.2,74.2,0,0,1-11.464,5.149,37.457,37.457,0,0,1-9.4,1.921s-.017,6.884.209,14.062a64.195,64.195,0,0,1-.753,12.616s17.863,3.838,22-1.86S1016.214,183.013,1016.214,183.013Z" fill="#7772d3"/>
        </g>
        <g id="Grupo_17080" data-name="Grupo 17080">
          <path id="Caminho_13977" data-name="Caminho 13977" d="M1024.533,367.422a.322.322,0,0,1-.321-.3c-2.133-36.61-1.458-95.408-1.411-99.174l-11.542-6.835a.321.321,0,1,1,.328-.552l11.7,6.929a.324.324,0,0,1,.157.28c-.008.614-.784,61.694,1.407,99.315a.32.32,0,0,1-.3.339Z" fill="#f7b369"/>
        </g>
        <g id="Grupo_17081" data-name="Grupo 17081">
          <path id="Caminho_13978" data-name="Caminho 13978" d="M1023.016,307.67a.325.325,0,0,1-.1-.017c-1.186-.393-11.6-3.931-12.261-7.008a1.551,1.551,0,0,1,.553-1.526,2.38,2.38,0,0,1,1.9-.6c3.923.366,9.91,8.3,10.163,8.639a.321.321,0,0,1-.257.514Zm-10.192-8.525a1.681,1.681,0,0,0-1.184.447.92.92,0,0,0-.357.918c.444,2.082,7.206,4.893,10.807,6.179-1.674-2.079-6.119-7.26-9.041-7.533A2.173,2.173,0,0,0,1012.824,299.145Z" fill="#f7b369"/>
        </g>
        <g id="Grupo_17083" data-name="Grupo 17083">
          <g id="Grupo_17082" data-name="Grupo 17082">
            <path id="Caminho_13979" data-name="Caminho 13979" d="M1054.043,401.036a3.173,3.173,0,0,0,2.953-3.22c.089-6.892,1.132-22.329-.125-22.345-1.6-.02-17.761,4.171-17.761,4.171s-.339-9.555-7.005-7.924c-5.115,1.251-11.1,7.249-13.607,9.972a5.745,5.745,0,0,1-2.908,1.723c-4.765,1.126-17.88,4.859-18.155,11.867-.337,8.566,3.112,7.63,4.716,7.65C1003.528,402.947,1042.916,401.458,1054.043,401.036Z" fill="#5c69a5"/>
          </g>
        </g>
        <g id="Grupo_17084" data-name="Grupo 17084">
          <path id="Caminho_13980" data-name="Caminho 13980" d="M1031.3,382.575a.321.321,0,0,1-.11-.623l7.677-2.812a.321.321,0,1,1,.22.6l-7.676,2.813A.36.36,0,0,1,1031.3,382.575Z" fill="#fff"/>
        </g>
        <g id="Grupo_17085" data-name="Grupo 17085">
          <path id="Caminho_13981" data-name="Caminho 13981" d="M979.065,176.792l-12.795,19.59s7.758,12.835,21.352,18.233c13.179,5.234,20.1,4.071,20.1,4.071l-12.176,62.16s18.23-42.864,18.629-45.21,12.917-55.543,12.917-55.543-2.952-.424-9.446,2.074-13.485,4.169-19.48,4.169S979.065,176.792,979.065,176.792Z" fill="#f4e6e6"/>
        </g>
        <g id="Grupo_17086" data-name="Grupo 17086">
          <path id="Caminho_13982" data-name="Caminho 13982" d="M998.29,195.844c-.05,0-.1,0-.157-.008a1.476,1.476,0,0,1-1.14-.7c-1.361-2.094.775-8.57.867-8.844a.321.321,0,0,1,.611,0c.233.745,2.238,7.327.815,9.08A1.235,1.235,0,0,1,998.29,195.844Zm-.133-8.333c-.636,2.21-1.465,5.984-.626,7.275a.84.84,0,0,0,.665.41.622.622,0,0,0,.591-.224C999.663,193.894,998.8,189.862,998.157,187.511Z" fill="#5c69a5"/>
        </g>
        <g id="Grupo_17087" data-name="Grupo 17087">
          <path id="Caminho_13983" data-name="Caminho 13983" d="M1041.833,190.378a.476.476,0,0,1-.1-.011.429.429,0,0,1-.319-.516c.905-3.82.75-6.823-.445-8.685a3.747,3.747,0,0,0-2.144-1.7.428.428,0,1,1,.168-.84,4.581,4.581,0,0,1,2.7,2.076c1.342,2.092,1.529,5.236.557,9.346A.428.428,0,0,1,1041.833,190.378Z" fill="#40507f"/>
        </g>
        <g id="Grupo_17088" data-name="Grupo 17088">
          <path id="Caminho_13984" data-name="Caminho 13984" d="M1021,200.2a.427.427,0,0,1-.427-.424c-.007-.666-.094-16.367,5.8-20.657a.428.428,0,1,1,.5.692c-5.544,4.033-5.452,19.8-5.451,19.956a.427.427,0,0,1-.424.433Z" fill="#40507f"/>
        </g>
        <g id="Grupo_17089" data-name="Grupo 17089">
          <path id="Caminho_13985" data-name="Caminho 13985" d="M1041.007,204.487a.422.422,0,0,1-.172-.036.428.428,0,0,1-.22-.564c.043-.1,4.187-9.682,1.124-13a1.587,1.587,0,0,0-1.385-.543c-2.791.245-7.13,6.1-8.566,8.336a.431.431,0,0,1-.592.128.426.426,0,0,1-.129-.591c.221-.343,5.435-8.4,9.212-8.726a2.444,2.444,0,0,1,2.089.815c3.441,3.725-.786,13.507-.968,13.922A.429.429,0,0,1,1041.007,204.487Z" fill="#40507f"/>
        </g>
        <g id="Grupo_17090" data-name="Grupo 17090">
          <path id="Caminho_13986" data-name="Caminho 13986" d="M1023.557,200.606A2.557,2.557,0,1,1,1021,198.05,2.557,2.557,0,0,1,1023.557,200.606Z" fill="#40507f"/>
        </g>
        <g id="Grupo_17091" data-name="Grupo 17091">
          <circle id="Elipse_1409" data-name="Elipse 1409" cx="0.995" cy="0.995" r="0.995" transform="translate(1020.006 199.611)" fill="#a37b90"/>
        </g>
        <g id="Grupo_17092" data-name="Grupo 17092">
          <path id="Caminho_13987" data-name="Caminho 13987" d="M1033.34,199.311h-3.306a.428.428,0,1,1,0-.856h3.306a.428.428,0,0,1,0,.856Z" fill="#40507f"/>
        </g>
        <g id="Grupo_17093" data-name="Grupo 17093">
          <path id="Caminho_13988" data-name="Caminho 13988" d="M1041.495,205.9a.43.43,0,0,1-.366-.2l-1.729-2.818a.428.428,0,0,1,.73-.448l1.73,2.818a.429.429,0,0,1-.365.652Z" fill="#40507f"/>
        </g>
        <g id="Grupo_17094" data-name="Grupo 17094">
          <path id="Caminho_13989" data-name="Caminho 13989" d="M1025.312,155.715s-1.076-7.08,3.463-8.07c10.079-2.2,15.27,9.011,15.27,9.011s5.113.334,3.493,5.938a9.055,9.055,0,0,1-6.936,6.721Z"/>
        </g>
        <g id="Grupo_17096" data-name="Grupo 17096">
          <g id="Grupo_17095" data-name="Grupo 17095">
            <path id="Caminho_13990" data-name="Caminho 13990" d="M1038.766,171.109l-.154,8.784s-1.628,2.5-6.774,2.825c-3.833.245-5.163-.644-5.163-.644l.612-4.44.6-4.329,9.314-1.879Z" fill="#f48462"/>
          </g>
        </g>
        <g id="Grupo_17098" data-name="Grupo 17098">
          <g id="Grupo_17097" data-name="Grupo 17097">
            <path id="Caminho_13991" data-name="Caminho 13991" d="M1037.2,171.426a2.853,2.853,0,0,1-.27.843c-2.042,4.354-7.432,5.206-9.646,5.365l.6-4.329Z"/>
          </g>
        </g>
        <g id="Grupo_17100" data-name="Grupo 17100">
          <g id="Grupo_17099" data-name="Grupo 17099">
            <path id="Caminho_13992" data-name="Caminho 13992" d="M1026.28,153.249s-4.8,10.933-3.092,17.084,7.313,5.194,10.666,4.012a11.089,11.089,0,0,0,4.913-3.234,4.724,4.724,0,0,0,5.228-1.839c2.1-2.907.817-6.252-.969-7.021s-3.914.516-3.914.516l1.672-3.176S1033.807,143.417,1026.28,153.249Z" fill="#f48462"/>
          </g>
        </g>
        <g id="Grupo_17101" data-name="Grupo 17101">
          <path id="Caminho_13993" data-name="Caminho 13993" d="M1025.312,155.715a3.71,3.71,0,0,1,3.176-1.726,4.743,4.743,0,0,1,3.444,1.589s-1.026,3.673,1.92,5.685a7.282,7.282,0,0,0,5.26,1.5l2.175-.732,1.64-3.13-6.134-6.848-6.52-3.588-3.881,1.265Z"/>
        </g>
        <g id="Grupo_17102" data-name="Grupo 17102">
          <path id="Caminho_13994" data-name="Caminho 13994" d="M1029.944,222.932s-8.246-2.994-14.65-.918c-2.295.743-5.9.968-6.05,1.895-.283,1.762,3,1.574,4.993,2.883s-4.808,4.367-7.871,4.446-7.82-2.142-8.09-.165c-.183,1.34,1.8,3.684,4.351,4.5s9.186.044,9.186.044Z" fill="#f48462"/>
        </g>
        <g id="Grupo_17103" data-name="Grupo 17103">
          <path id="Caminho_13995" data-name="Caminho 13995" d="M1028.511,237.354s-14.681,5.882-19.659,5.34-10.323-4.959-9.862-7.59,3.991-.468,3.991-.468l9.5.626,12.88-10.606,3.383,3.175Z" fill="#f48462"/>
        </g>
        <g id="Grupo_17104" data-name="Grupo 17104">
          <path id="Caminho_13996" data-name="Caminho 13996" d="M1008.043,236.122a17.046,17.046,0,0,1-8.039-1.985.322.322,0,0,1-.113-.44.325.325,0,0,1,.44-.114,16.78,16.78,0,0,0,12.1,1.284.321.321,0,1,1,.176.617A16.53,16.53,0,0,1,1008.043,236.122Z"/>
        </g>
        <g id="Grupo_17105" data-name="Grupo 17105">
          <path id="Caminho_13997" data-name="Caminho 13997" d="M1009.718,240.287a28.555,28.555,0,0,1-7.153-1.042.321.321,0,1,1,.181-.617c.07.02,6.993,2.018,11.208.338a.322.322,0,1,1,.239.6A12.3,12.3,0,0,1,1009.718,240.287Z"/>
        </g>
        <g id="Grupo_17106" data-name="Grupo 17106">
          <path id="Caminho_13998" data-name="Caminho 13998" d="M1030.156,182.916a10.814,10.814,0,0,1-3.595-.542.322.322,0,0,1,.229-.6c.052.021,5.407,1.969,11.646-2.148a.321.321,0,0,1,.354.536A15.568,15.568,0,0,1,1030.156,182.916Z" fill="#5c69a5"/>
        </g>
        <g id="Grupo_17107" data-name="Grupo 17107">
          <path id="Caminho_13999" data-name="Caminho 13999" d="M1062.34,187.8s22.53,21.409,17.782,39.752c-6.28,24.265-55.072,13.316-55.072,13.316l1.577-21.762,29.471-5.629Z" fill="#f4e6e6"/>
        </g>
        <g id="Grupo_17108" data-name="Grupo 17108">
          <path id="Caminho_14000" data-name="Caminho 14000" d="M1060.816,214.309c-3.062,0-6.586-.371-6.81-.4a.32.32,0,0,1-.108-.606c4.339-2.149,9.728-1.659,11.1-.686a.689.689,0,0,1,.361.65c-.032.262-.247.472-.638.623A12.808,12.808,0,0,1,1060.816,214.309Zm-5.509-.918c2.378.2,7.513.548,9.18-.1a.932.932,0,0,0,.2-.1C1064.195,212.655,1059.718,211.7,1055.307,213.391Z" fill="#5c69a5"/>
        </g>
      </g>
    </g>
    <g id="Grupo_17117" data-name="Grupo 17117">
      <g id="Grupo_17111" data-name="Grupo 17111">
        <path id="Caminho_14001" data-name="Caminho 14001" d="M947.171,379.449h3.4l5.381-11.952-11.587,5.976Z" fill="#f29e4c"/>
      </g>
      <g id="Grupo_17112" data-name="Grupo 17112">
        <path id="Caminho_14002" data-name="Caminho 14002" d="M1001.873,270.281a2.1,2.1,0,0,0-1.995-1.758c-2.983-.347-5.66-.447-7.686-2.191a10.72,10.72,0,0,1-3.943-8.158v-3.99a1.58,1.58,0,0,0-1.686-1.445h-72.25a1.58,1.58,0,0,0-1.686,1.445v3.99c0,5.844-5.068,10.671-11.63,11.435a2.038,2.038,0,0,0-1.893,1.883c-.032,1.376-.042,3.512.069,6.276.742,18.639,6.941,65.832,48.509,100.547.909.765,2.973,2.11,5.881.01a.076.076,0,0,0,.067-.01c37.272-31.134,46.106-72.287,48.073-93.9A92.092,92.092,0,0,0,1001.873,270.281Z" fill="#f29e4c"/>
      </g>
      <g id="Grupo_17113" data-name="Grupo 17113">
        <path id="Caminho_14003" data-name="Caminho 14003" d="M998.47,271.368a2.1,2.1,0,0,0-1.994-1.759,14.315,14.315,0,0,1-7.687-3.277,10.72,10.72,0,0,1-3.943-8.158v-3.99a1.58,1.58,0,0,0-1.686-1.445H910.91a1.58,1.58,0,0,0-1.686,1.445v3.99c0,5.844-5.068,10.671-11.63,11.435a2.039,2.039,0,0,0-1.893,1.883c-.032,1.376-.042,3.512.069,6.276.742,18.639,6.941,65.832,48.509,100.547.91.765,2.973,2.11,5.881.01a.076.076,0,0,0,.067-.01c37.273-31.134,46.106-72.287,48.073-93.9A78.321,78.321,0,0,0,998.47,271.368Z" fill="#ffb164"/>
      </g>
      <g id="Grupo_17114" data-name="Grupo 17114">
        <path id="Caminho_14004" data-name="Caminho 14004" d="M988.793,279.8a1.7,1.7,0,0,0-1.618-1.427,11.619,11.619,0,0,1-6.237-2.659,8.7,8.7,0,0,1-3.2-6.619v-3.237a1.282,1.282,0,0,0-1.368-1.173H917.75a1.281,1.281,0,0,0-1.367,1.173V269.1c0,4.741-4.112,8.658-9.437,9.278a1.655,1.655,0,0,0-1.536,1.528c-.026,1.116-.033,2.849.057,5.092.6,15.122,5.631,53.413,39.358,81.579.738.621,2.412,1.713,4.771.009a.061.061,0,0,0,.054-.009c30.242-25.26,37.409-58.65,39.005-76.188A63.49,63.49,0,0,0,988.793,279.8Z" fill="#ead8d8"/>
      </g>
      <g id="Grupo_17115" data-name="Grupo 17115">
        <path id="Caminho_14005" data-name="Caminho 14005" d="M966.87,286.955c-5.569-2.491-13.428,1.7-19.7,9.758-6.271-8.057-14.13-12.249-19.7-9.758-7.233,3.236-7.86,16.513-1.4,29.656,4.545,9.246,11.385,15.956,17.561,18a9.945,9.945,0,0,0,7.078,0c6.176-2.043,13.016-8.753,17.561-18C974.73,303.468,974.1,290.191,966.87,286.955Z" fill="#a37b90"/>
      </g>
      <g id="Grupo_17116" data-name="Grupo 17116">
        <path id="Caminho_14006" data-name="Caminho 14006" d="M943.116,327.662a.543.543,0,0,1-.533-.437l-5.1-25.724-3.98,14.734a.543.543,0,0,1-.525.4H921.608a.543.543,0,0,1,0-1.086h10.953l4.478-16.574a.534.534,0,0,1,.543-.4.546.546,0,0,1,.515.438l4.961,25.018,2.9-18.239a.543.543,0,0,1,1.037-.124l4.113,9.883H974.5a.543.543,0,0,1,0,1.086h-23.75a.542.542,0,0,1-.5-.334l-3.516-8.447L943.652,327.2a.542.542,0,0,1-.525.458Z" fill="#fff"/>
      </g>
    </g>
  </g>
</svg>
