<svg id="Componente_56_1" data-name="Componente 56 – 1" xmlns="http://www.w3.org/2000/svg" width="333.803" height="284.365" viewBox="0 0 333.803 284.365">
  <g id="Grupo_16911" data-name="Grupo 16911" transform="translate(407.717 -126.309)" opacity="0.21" style="mix-blend-mode: multiply;isolation: isolate">
    <ellipse id="Elipse_1387" data-name="Elipse 1387" cx="166.902" cy="10.524" rx="166.902" ry="10.524" transform="translate(-407.717 389.626)" fill="#c4adad"/>
  </g>
  <g id="Grupo_16921" data-name="Grupo 16921" transform="translate(407.717 -126.309)">
    <g id="Grupo_16912" data-name="Grupo 16912">
      <rect id="Retângulo_3409" data-name="Retângulo 3409" width="12.843" height="12.111" transform="matrix(-0.581, 0.814, -0.814, -0.581, -128.157, 255.814)" fill="#40507f"/>
    </g>
    <g id="Grupo_16916" data-name="Grupo 16916">
      <g id="Grupo_16913" data-name="Grupo 16913">
        <path id="Caminho_13886" data-name="Caminho 13886" d="M-140.7,250.436l10.913,7.791a.96.96,0,0,0,1.41-.338l7.077-13.6a.96.96,0,0,0-.293-1.225l-7.428-5.3a.96.96,0,0,0-1.254.12l-10.563,11.11A.96.96,0,0,0-140.7,250.436Z" fill="#3f3f3f"/>
      </g>
      <g id="Grupo_16914" data-name="Grupo 16914">
        <path id="Caminho_13887" data-name="Caminho 13887" d="M-138.286,252.5a.341.341,0,0,1-.236-.1.34.34,0,0,1-.009-.482l11.977-12.459a.341.341,0,0,1,.482-.01.342.342,0,0,1,.009.482L-138.041,252.4A.335.335,0,0,1-138.286,252.5Z" fill="#ead8d8"/>
      </g>
      <g id="Grupo_16915" data-name="Grupo 16915">
        <path id="Caminho_13888" data-name="Caminho 13888" d="M-132.07,256.941a.347.347,0,0,1-.156-.037.341.341,0,0,1-.147-.459l7.9-15.374a.342.342,0,0,1,.459-.148.341.341,0,0,1,.147.459l-7.9,15.374A.338.338,0,0,1-132.07,256.941Z" fill="#ead8d8"/>
      </g>
    </g>
    <g id="Grupo_16917" data-name="Grupo 16917">
      <path id="Caminho_13889" data-name="Caminho 13889" d="M-202.731,330.386l18.74,13.38,53.756-75.289a5.251,5.251,0,0,0-1.218-7.325l-10.2-7.281a5.248,5.248,0,0,0-7.323,1.226Z" fill="#5c69a5"/>
    </g>
    <g id="Grupo_16918" data-name="Grupo 16918">
      <rect id="Retângulo_3410" data-name="Retângulo 3410" width="8.15" height="25.483" rx="1.455" transform="translate(-181.6 340.42) rotate(125.528)" fill="#40507f"/>
    </g>
    <g id="Grupo_16919" data-name="Grupo 16919">
      <path id="Caminho_13890" data-name="Caminho 13890" d="M-161.709,277.857a.337.337,0,0,1-.2-.063.341.341,0,0,1-.079-.475l12.942-18.128a.343.343,0,0,1,.476-.079.34.34,0,0,1,.079.475l-12.942,18.128A.34.34,0,0,1-161.709,277.857Z" fill="#85a6d6"/>
    </g>
    <g id="Grupo_16920" data-name="Grupo 16920">
      <path id="Caminho_13891" data-name="Caminho 13891" d="M-179.6,321.292l7.718,5.51,27.5-38.518-7.718-5.51a2.817,2.817,0,0,0-3.931.656l-24.227,33.931A2.818,2.818,0,0,0-179.6,321.292Z" fill="#f4e6e6"/>
    </g>
  </g>
  <g id="Grupo_16953" data-name="Grupo 16953" transform="translate(407.717 -126.309)">
    <g id="Grupo_16922" data-name="Grupo 16922">
      <rect id="Retângulo_3411" data-name="Retângulo 3411" width="43.46" height="79.278" rx="3.275" transform="translate(-182.311 252.676)" fill="#85a6d6"/>
    </g>
    <g id="Grupo_16952" data-name="Grupo 16952">
      <g id="Grupo_16923" data-name="Grupo 16923">
        <rect id="Retângulo_3412" data-name="Retângulo 3412" width="43.46" height="79.278" rx="3.275" transform="translate(-185.965 252.676)" fill="#92b4ea"/>
      </g>
      <g id="Grupo_16930" data-name="Grupo 16930">
        <g id="Grupo_16926" data-name="Grupo 16926">
          <g id="Grupo_16924" data-name="Grupo 16924">
            <circle id="Elipse_1388" data-name="Elipse 1388" cx="7.347" cy="7.347" r="7.347" transform="translate(-180.739 314.034)" fill="#c5dbf9"/>
          </g>
          <g id="Grupo_16925" data-name="Grupo 16925">
            <path id="Caminho_13892" data-name="Caminho 13892" d="M-176.674,328.288a.326.326,0,0,1-.145-.033.339.339,0,0,1-.163-.453l6.268-13.276a.341.341,0,0,1,.454-.162.339.339,0,0,1,.162.453l-6.268,13.276A.341.341,0,0,1-176.674,328.288Z" fill="#92b4ea"/>
          </g>
        </g>
        <g id="Grupo_16929" data-name="Grupo 16929">
          <g id="Grupo_16927" data-name="Grupo 16927">
            <circle id="Elipse_1389" data-name="Elipse 1389" cx="7.347" cy="7.347" r="7.347" transform="translate(-162.424 314.034)" fill="#c5dbf9"/>
          </g>
          <g id="Grupo_16928" data-name="Grupo 16928">
            <path id="Caminho_13893" data-name="Caminho 13893" d="M-158.36,328.288a.326.326,0,0,1-.145-.033.341.341,0,0,1-.163-.453l6.269-13.276a.341.341,0,0,1,.454-.162.339.339,0,0,1,.162.453l-6.269,13.276A.34.34,0,0,1-158.36,328.288Z" fill="#92b4ea"/>
          </g>
        </g>
      </g>
      <g id="Grupo_16937" data-name="Grupo 16937">
        <g id="Grupo_16933" data-name="Grupo 16933">
          <g id="Grupo_16931" data-name="Grupo 16931">
            <circle id="Elipse_1390" data-name="Elipse 1390" cx="7.347" cy="7.347" r="7.347" transform="translate(-182.984 297.836) rotate(-22.394)" fill="#c5dbf9"/>
          </g>
          <g id="Grupo_16932" data-name="Grupo 16932">
            <path id="Caminho_13894" data-name="Caminho 13894" d="M-176.674,308.737a.341.341,0,0,1-.145-.033.339.339,0,0,1-.163-.453l6.268-13.276a.34.34,0,0,1,.454-.163.339.339,0,0,1,.162.453l-6.268,13.277A.343.343,0,0,1-176.674,308.737Z" fill="#92b4ea"/>
          </g>
        </g>
        <g id="Grupo_16936" data-name="Grupo 16936">
          <g id="Grupo_16934" data-name="Grupo 16934">
            <circle id="Elipse_1391" data-name="Elipse 1391" cx="7.347" cy="7.347" r="7.347" transform="translate(-164.846 298.291) rotate(-25.085)" fill="#c5dbf9"/>
          </g>
          <g id="Grupo_16935" data-name="Grupo 16935">
            <path id="Caminho_13895" data-name="Caminho 13895" d="M-158.36,308.737a.341.341,0,0,1-.145-.033.341.341,0,0,1-.163-.453l6.269-13.276a.34.34,0,0,1,.454-.163.339.339,0,0,1,.162.453l-6.269,13.277A.342.342,0,0,1-158.36,308.737Z" fill="#92b4ea"/>
          </g>
        </g>
      </g>
      <g id="Grupo_16944" data-name="Grupo 16944">
        <g id="Grupo_16940" data-name="Grupo 16940">
          <g id="Grupo_16938" data-name="Grupo 16938">
            <circle id="Elipse_1392" data-name="Elipse 1392" cx="7.347" cy="7.347" r="7.347" transform="translate(-180.739 274.932)" fill="#c5dbf9"/>
          </g>
          <g id="Grupo_16939" data-name="Grupo 16939">
            <path id="Caminho_13896" data-name="Caminho 13896" d="M-176.674,289.185a.34.34,0,0,1-.145-.032.34.34,0,0,1-.163-.454l6.268-13.276a.341.341,0,0,1,.454-.162.339.339,0,0,1,.162.453l-6.268,13.276A.341.341,0,0,1-176.674,289.185Z" fill="#92b4ea"/>
          </g>
        </g>
        <g id="Grupo_16943" data-name="Grupo 16943">
          <g id="Grupo_16941" data-name="Grupo 16941">
            <circle id="Elipse_1393" data-name="Elipse 1393" cx="7.347" cy="7.347" r="7.347" transform="translate(-162.424 274.932)" fill="#c5dbf9"/>
          </g>
          <g id="Grupo_16942" data-name="Grupo 16942">
            <path id="Caminho_13897" data-name="Caminho 13897" d="M-158.36,289.185a.34.34,0,0,1-.145-.032.342.342,0,0,1-.163-.454l6.269-13.276a.341.341,0,0,1,.454-.162.339.339,0,0,1,.162.453l-6.269,13.276A.34.34,0,0,1-158.36,289.185Z" fill="#92b4ea"/>
          </g>
        </g>
      </g>
      <g id="Grupo_16951" data-name="Grupo 16951">
        <g id="Grupo_16947" data-name="Grupo 16947">
          <g id="Grupo_16945" data-name="Grupo 16945">
            <circle id="Elipse_1394" data-name="Elipse 1394" cx="7.347" cy="7.347" r="7.347" transform="translate(-181.819 268.806) rotate(-80.804)" fill="#c5dbf9"/>
          </g>
          <g id="Grupo_16946" data-name="Grupo 16946">
            <path id="Caminho_13898" data-name="Caminho 13898" d="M-176.674,269.634a.327.327,0,0,1-.145-.033.339.339,0,0,1-.163-.453l6.268-13.276a.341.341,0,0,1,.454-.162.339.339,0,0,1,.162.453l-6.268,13.276A.341.341,0,0,1-176.674,269.634Z" fill="#92b4ea"/>
          </g>
        </g>
        <g id="Grupo_16950" data-name="Grupo 16950">
          <g id="Grupo_16948" data-name="Grupo 16948">
            <circle id="Elipse_1395" data-name="Elipse 1395" cx="7.347" cy="7.347" r="7.347" transform="translate(-163.559 268.729) rotate(-80.282)" fill="#c5dbf9"/>
          </g>
          <g id="Grupo_16949" data-name="Grupo 16949">
            <path id="Caminho_13899" data-name="Caminho 13899" d="M-158.36,269.634a.327.327,0,0,1-.145-.033.341.341,0,0,1-.163-.453l6.269-13.276a.341.341,0,0,1,.454-.162.339.339,0,0,1,.162.453l-6.269,13.276A.34.34,0,0,1-158.36,269.634Z" fill="#92b4ea"/>
          </g>
        </g>
      </g>
    </g>
  </g>
  <g id="Grupo_16960" data-name="Grupo 16960" transform="translate(407.717 -126.309)">
    <g id="Grupo_16954" data-name="Grupo 16954">
      <path id="Caminho_13900" data-name="Caminho 13900" d="M-211.536,265.7v43a7.09,7.09,0,0,0,7.089,7.094H-179.8a7.1,7.1,0,0,0,7.1-7.094v-43a7.09,7.09,0,0,0-7.1-7.089h-24.644A7.085,7.085,0,0,0-211.536,265.7Z" fill="#999"/>
    </g>
    <g id="Grupo_16955" data-name="Grupo 16955">
      <path id="Caminho_13901" data-name="Caminho 13901" d="M-203.89,262.8h23.532V256.2a11.766,11.766,0,0,0-11.766-11.766A11.766,11.766,0,0,0-203.89,256.2Z" fill="#999"/>
    </g>
    <g id="Grupo_16956" data-name="Grupo 16956">
      <rect id="Retângulo_3413" data-name="Retângulo 3413" width="10.143" height="10.143" transform="translate(-187.053 249.173) rotate(180)" fill="#999"/>
    </g>
    <g id="Grupo_16957" data-name="Grupo 16957">
      <path id="Caminho_13902" data-name="Caminho 13902" d="M-196.28,240.657h8.312a3.3,3.3,0,0,0,3.3-3.3,3.3,3.3,0,0,0-3.3-3.295h-8.312a3.3,3.3,0,0,0-3.3,3.295A3.3,3.3,0,0,0-196.28,240.657Z" fill="#ffb164"/>
    </g>
    <g id="Grupo_16958" data-name="Grupo 16958">
      <path id="Caminho_13903" data-name="Caminho 13903" d="M-203.888,277.5v21.377a2.548,2.548,0,0,0,2.548,2.548h28.632V274.952H-201.34A2.548,2.548,0,0,0-203.888,277.5Z" fill="#f7e8e8"/>
    </g>
    <g id="Grupo_16959" data-name="Grupo 16959">
      <path id="Caminho_13904" data-name="Caminho 13904" d="M-201.145,255.879a.341.341,0,0,1-.341-.341c0-3.308,3.91-6.5,4.077-6.63a.341.341,0,0,1,.478.051.34.34,0,0,1-.051.479c-.038.031-3.822,3.119-3.822,6.1A.341.341,0,0,1-201.145,255.879Z" fill="#ead8d8"/>
    </g>
  </g>
  <g id="Grupo_16961" data-name="Grupo 16961" transform="translate(407.717 -126.309)">
    <path id="Caminho_13905" data-name="Caminho 13905" d="M-222.4,396.73H-124.7a5.228,5.228,0,0,0,5.2-5.746l-9.365-93.96a5.228,5.228,0,0,0-5.2-4.709H-213.03a5.227,5.227,0,0,0-5.2,4.709l-9.365,93.96A5.227,5.227,0,0,0-222.4,396.73Z" fill="#f27d00"/>
  </g>
  <g id="Grupo_16962" data-name="Grupo 16962" transform="translate(407.717 -126.309)">
    <path id="Caminho_13906" data-name="Caminho 13906" d="M-229.062,396.73h97.692a5.227,5.227,0,0,0,5.2-5.746l-9.365-93.96a5.227,5.227,0,0,0-5.2-4.709H-219.7a5.228,5.228,0,0,0-5.2,4.709l-9.365,93.96A5.228,5.228,0,0,0-229.062,396.73Z" fill="#edab70"/>
  </g>
  <g id="Grupo_16963" data-name="Grupo 16963" transform="translate(407.717 -126.309)">
    <path id="Caminho_13907" data-name="Caminho 13907" d="M-145.553,304.709a.959.959,0,0,1-.913-.666l-2.765-8.63a.959.959,0,0,1,.62-1.206.958.958,0,0,1,1.2.621l2.766,8.63a.958.958,0,0,1-.62,1.2A.968.968,0,0,1-145.553,304.709Z" fill="#303030"/>
  </g>
  <g id="Grupo_16964" data-name="Grupo 16964" transform="translate(407.717 -126.309)">
    <path id="Caminho_13908" data-name="Caminho 13908" d="M-214.208,304.709a.968.968,0,0,1-.293-.046.958.958,0,0,1-.62-1.2l2.766-8.63a.958.958,0,0,1,1.205-.621.959.959,0,0,1,.62,1.206l-2.765,8.63A.96.96,0,0,1-214.208,304.709Z" fill="#303030"/>
  </g>
  <g id="Grupo_16965" data-name="Grupo 16965" transform="translate(407.717 -126.309)">
    <path id="Caminho_13909" data-name="Caminho 13909" d="M-172.708,344.8c-25.7,0-40.413-43.222-41.027-45.062a.959.959,0,0,1,.606-1.213.959.959,0,0,1,1.213.606c.146.438,14.882,43.751,39.208,43.751,6.838,0,12.383-2.317,16.48-6.887,10.862-12.117,8.366-36.214,8.339-36.456a.958.958,0,0,1,.849-1.057.957.957,0,0,1,1.057.848c.112,1.023,2.61,25.2-8.817,37.944C-159.277,342.269-165.3,344.8-172.708,344.8Z" fill="#303030"/>
  </g>
  <g id="Grupo_16966" data-name="Grupo 16966" transform="translate(407.717 -126.309)">
    <rect id="Retângulo_3414" data-name="Retângulo 3414" width="107.655" height="77.362" rx="5.725" transform="translate(-287.757 322.692)" fill="#b29d9d"/>
  </g>
  <g id="Grupo_16967" data-name="Grupo 16967" transform="translate(407.717 -126.309)">
    <path id="Caminho_13910" data-name="Caminho 13910" d="M-203.56,335.587h-71.364a1.8,1.8,0,0,1-1.8-1.8V318.963a7.621,7.621,0,0,1,7.612-7.612h59.744a7.621,7.621,0,0,1,7.612,7.612v14.822A1.8,1.8,0,0,1-203.56,335.587Zm-69.562-3.605h67.76V318.963a4.013,4.013,0,0,0-4.008-4.008h-59.744a4.013,4.013,0,0,0-4.008,4.008Z" fill="#c4adad"/>
  </g>
  <g id="Grupo_16968" data-name="Grupo 16968" transform="translate(407.717 -126.309)">
    <rect id="Retângulo_3415" data-name="Retângulo 3415" width="107.655" height="77.362" rx="5.725" transform="translate(-293.069 322.692)" fill="#c4adad"/>
  </g>
  <g id="Grupo_16969" data-name="Grupo 16969" transform="translate(407.717 -126.309)">
    <path id="Caminho_13911" data-name="Caminho 13911" d="M-185.415,347.132H-293.069a.361.361,0,0,1-.361-.36.361.361,0,0,1,.361-.361h107.654a.361.361,0,0,1,.361.361A.361.361,0,0,1-185.415,347.132Z" fill="#efe1e1"/>
  </g>
  <g id="Grupo_16970" data-name="Grupo 16970" transform="translate(407.717 -126.309)">
    <circle id="Elipse_1396" data-name="Elipse 1396" cx="23.199" cy="23.199" r="23.199" transform="translate(-267.069 387.401) rotate(-76.986)" fill="#efe1e1"/>
  </g>
  <g id="Grupo_16973" data-name="Grupo 16973" transform="translate(407.717 -126.309)">
    <g id="Grupo_16971" data-name="Grupo 16971">
      <rect id="Retângulo_3416" data-name="Retângulo 3416" width="5.244" height="25.709" rx="1.521" transform="translate(-241.864 357.168)" fill="#fff"/>
    </g>
    <g id="Grupo_16972" data-name="Grupo 16972">
      <rect id="Retângulo_3417" data-name="Retângulo 3417" width="5.244" height="25.709" rx="1.521" transform="translate(-252.097 372.644) rotate(-90)" fill="#fff"/>
    </g>
  </g>
  <g id="Grupo_16974" data-name="Grupo 16974" transform="translate(407.717 -126.309)">
    <path id="Caminho_13912" data-name="Caminho 13912" d="M-298.7,357.242l-3.532,10.177s4.875,2.346,5.383,4.91c.518,2.618-2.287,4.347-2.287,4.347l8.743,10.74-27.156-3.369,2.493-26.8Z" fill="#282828"/>
  </g>
  <g id="Grupo_16975" data-name="Grupo 16975" transform="translate(407.717 -126.309)">
    <path id="Caminho_13913" data-name="Caminho 13913" d="M-323.839,158.9s-9.421,1.182-12.846,10.227-1.4,20.749-1.4,20.749l17.386-4-.755-16.064Z"/>
  </g>
  <g id="Grupo_16976" data-name="Grupo 16976" transform="translate(407.717 -126.309)">
    <path id="Caminho_13914" data-name="Caminho 13914" d="M-315.8,175.982s-5.369.239-8.462-7.255a15.017,15.017,0,0,1,.776-13.358l6.742,3.53,3.663,13.387Z"/>
  </g>
  <g id="Grupo_16977" data-name="Grupo 16977" transform="translate(407.717 -126.309)">
    <path id="Caminho_13915" data-name="Caminho 13915" d="M-333.8,367.4v16.649l23.456-1.791v-15.91Z" fill="#f48462"/>
  </g>
  <g id="Grupo_16978" data-name="Grupo 16978" transform="translate(407.717 -126.309)">
    <path id="Caminho_13916" data-name="Caminho 13916" d="M-294.055,231.839s24.816,49.272,25.006,65.5-33.18,70.076-33.18,70.076-9.07,3.73-22.391,3.3-15.416-1.958-15.416-1.958,2.284-115.494,7.613-126.3S-294.055,231.839-294.055,231.839Z" fill="#f27d00"/>
  </g>
  <g id="Grupo_16979" data-name="Grupo 16979" transform="translate(407.717 -126.309)">
    <path id="Caminho_13917" data-name="Caminho 13917" d="M-313.2,179.283s-11.8-.4-17.889,5.124-2.094,53.668-2.094,53.668,15.888,1.332,27.261,0,16.511-3.14,16.511-3.14,1.333-44.26-1.712-49.583S-313.2,179.283-313.2,179.283Z" fill="#68b6d8"/>
  </g>
  <g id="Grupo_16981" data-name="Grupo 16981" transform="translate(407.717 -126.309)">
    <g id="Grupo_16980" data-name="Grupo 16980">
      <path id="Caminho_13918" data-name="Caminho 13918" d="M-315.614,172.743l-.748,8.824s1.376,2.671,6.5,3.529c3.819.638,5.243-.117,5.243-.117l-.157-4.514-.159-4.4-9.148-2.841Z" fill="#f48462"/>
    </g>
  </g>
  <g id="Grupo_16983" data-name="Grupo 16983" transform="translate(407.717 -126.309)">
    <g id="Grupo_16982" data-name="Grupo 16982">
      <path id="Caminho_13919" data-name="Caminho 13919" d="M-314.08,173.221a2.906,2.906,0,0,0,.184.873c1.6,4.575,6.919,5.984,9.123,6.371l-.159-4.4Z"/>
    </g>
  </g>
  <g id="Grupo_16985" data-name="Grupo 16985" transform="translate(407.717 -126.309)">
    <g id="Grupo_16984" data-name="Grupo 16984">
      <path id="Caminho_13920" data-name="Caminho 13920" d="M-301.26,156.115s3.694,11.456,1.347,17.448-7.867,4.458-11.108,2.929a11.185,11.185,0,0,1-4.6-3.747,4.763,4.763,0,0,1-5.053-2.381c-1.807-3.131-.178-6.354,1.692-6.942s3.872.92,3.872.92l-1.351-3.357S-307.8,145.482-301.26,156.115Z" fill="#f48462"/>
    </g>
  </g>
  <g id="Grupo_16986" data-name="Grupo 16986" transform="translate(407.717 -126.309)">
    <path id="Caminho_13921" data-name="Caminho 13921" d="M-316.154,179.112s8.23,121.045,7.553,122.422-16.245,3.787-21.74,2.754-8.527-2.754-9.41-3.787.573-80.185.573-80.185l-.858-32.511S-328.152,179.07-316.154,179.112Z" fill="#f4e6e6"/>
  </g>
  <g id="Grupo_16987" data-name="Grupo 16987" transform="translate(407.717 -126.309)">
    <rect id="Retângulo_3418" data-name="Retângulo 3418" width="13.662" height="5.028" rx="1.615" transform="translate(-316.362 208.972) rotate(180)" fill="#bcbcbc"/>
  </g>
  <g id="Grupo_16988" data-name="Grupo 16988" transform="translate(407.717 -126.309)">
    <path id="Caminho_13922" data-name="Caminho 13922" d="M-293.91,183.013a74.144,74.144,0,0,0,11.464,5.149,37.457,37.457,0,0,0,9.4,1.921s.016,6.884-.209,14.062a64.153,64.153,0,0,0,.752,12.616s-17.862,3.838-22-1.86S-293.91,183.013-293.91,183.013Z" fill="#7772d3"/>
  </g>
  <g id="Grupo_16989" data-name="Grupo 16989" transform="translate(407.717 -126.309)">
    <path id="Caminho_13923" data-name="Caminho 13923" d="M-259.331,173.185s3.26-8.054,8.76-9.618c2.63-.748-1.519,6.828-1.519,6.828l5.681-2.172s8.4-2.343,10.076-1.612-1.081,3.457-1.081,3.457,5.985-1.8,5.145,1.121-4.934,4.6-4.934,4.6,5.85-2.074,4.529,1.345c-.714,1.848-13.578,9.637-22.247,9.359s-6.32-6.067-6.32-6.067Z" fill="#f48462"/>
  </g>
  <g id="Grupo_16990" data-name="Grupo 16990" transform="translate(407.717 -126.309)">
    <path id="Caminho_13924" data-name="Caminho 13924" d="M-240.427,177.636a.316.316,0,0,1-.208-.077l-7.443-6.358a.321.321,0,0,1-.035-.453.32.32,0,0,1,.452-.036l7.443,6.359a.321.321,0,0,1,.035.452A.318.318,0,0,1-240.427,177.636Z"/>
  </g>
  <g id="Grupo_16991" data-name="Grupo 16991" transform="translate(407.717 -126.309)">
    <path id="Caminho_13925" data-name="Caminho 13925" d="M-256.071,181.261a.322.322,0,0,1-.31-.238.323.323,0,0,1,.227-.394,4.764,4.764,0,0,0,2.708-2.3c.81-1.586.732-3.686-.232-6.242a.321.321,0,0,1,.187-.414.32.32,0,0,1,.413.187c1.033,2.738,1.1,5.016.2,6.772a5.319,5.319,0,0,1-3.108,2.615A.3.3,0,0,1-256.071,181.261Z"/>
  </g>
  <g id="Grupo_16992" data-name="Grupo 16992" transform="translate(407.717 -126.309)">
    <path id="Caminho_13926" data-name="Caminho 13926" d="M-302.229,367.422a.325.325,0,0,1-.321-.339c2.192-37.623,1.417-98.7,1.408-99.315a.322.322,0,0,1,.158-.28l11.7-6.93a.323.323,0,0,1,.44.112.322.322,0,0,1-.113.441l-11.541,6.835c.046,3.765.721,62.562-1.411,99.174A.323.323,0,0,1-302.229,367.422Z" fill="#303030"/>
  </g>
  <g id="Grupo_16993" data-name="Grupo 16993" transform="translate(407.717 -126.309)">
    <path id="Caminho_13927" data-name="Caminho 13927" d="M-300.713,307.669a.318.318,0,0,1-.26-.133.32.32,0,0,1,0-.38c.253-.338,6.239-8.273,10.163-8.639a2.376,2.376,0,0,1,1.9.6,1.548,1.548,0,0,1,.552,1.525c-.658,3.077-11.075,6.614-12.26,7.008A.362.362,0,0,1-300.713,307.669Zm10.192-8.523a2.164,2.164,0,0,0-.225.011c-2.922.272-7.367,5.453-9.041,7.532,3.6-1.286,10.363-4.1,10.808-6.179a.923.923,0,0,0-.358-.918A1.681,1.681,0,0,0-290.521,299.146Z" fill="#303030"/>
  </g>
  <g id="Grupo_16995" data-name="Grupo 16995" transform="translate(407.717 -126.309)">
    <g id="Grupo_16994" data-name="Grupo 16994">
      <path id="Caminho_13928" data-name="Caminho 13928" d="M-331.74,401.035a3.171,3.171,0,0,1-2.952-3.219c-.089-6.892-1.132-22.329.125-22.345,1.6-.02,17.761,4.171,17.761,4.171s.338-9.555,7.005-7.924c5.115,1.251,11.1,7.249,13.607,9.972a5.745,5.745,0,0,0,2.908,1.723c4.764,1.126,17.879,4.859,18.155,11.867.337,8.566-3.112,7.63-4.716,7.65C-281.224,402.947-320.612,401.458-331.74,401.035Z" fill="#303030"/>
    </g>
  </g>
  <g id="Grupo_16996" data-name="Grupo 16996" transform="translate(407.717 -126.309)">
    <path id="Caminho_13929" data-name="Caminho 13929" d="M-308.993,382.575a.329.329,0,0,1-.111-.02l-7.676-2.812a.322.322,0,0,1-.192-.412.328.328,0,0,1,.412-.192l7.677,2.813a.321.321,0,0,1,.191.412A.32.32,0,0,1-308.993,382.575Z" fill="#fff"/>
  </g>
  <g id="Grupo_16997" data-name="Grupo 16997" transform="translate(407.717 -126.309)">
    <path id="Caminho_13930" data-name="Caminho 13930" d="M-315.105,164.342l1.025,1.189-.513-1.714a11.667,11.667,0,0,0,5.577-2.013c3.161-2,3.912-6.852,3.912-6.852a16.916,16.916,0,0,1,2.868,1.808,5,5,0,0,1,1.814,2.415s3.962-10.979-4.351-12.406-14.213,5.62-14.213,5.62-4.758.66-5.234,5.323a11.842,11.842,0,0,0,2.782,8.278A4.527,4.527,0,0,1-315.105,164.342Z"/>
  </g>
  <g id="Grupo_16998" data-name="Grupo 16998" transform="translate(407.717 -126.309)">
    <path id="Caminho_13931" data-name="Caminho 13931" d="M-264.837,176.843l20.493,11.062s-7.38,21.312-20.974,26.71c-13.179,5.234-20.1,4.071-20.1,4.071l12.175,62.16s-18.229-42.864-18.628-45.21-12.917-55.543-12.917-55.543,2.952-.424,9.446,2.074,13.485,4.169,19.48,4.169S-264.837,176.843-264.837,176.843Z" fill="#f4e6e6"/>
  </g>
  <g id="Grupo_16999" data-name="Grupo 16999" transform="translate(407.717 -126.309)">
    <path id="Caminho_13932" data-name="Caminho 13932" d="M-304.616,184.979l.5,3.968s-10.957-4.588-11.687-6.648,10.7,1.153,10.7,1.153Z" fill="#f48462"/>
  </g>
  <g id="Grupo_17000" data-name="Grupo 17000" transform="translate(407.717 -126.309)">
    <path id="Caminho_13933" data-name="Caminho 13933" d="M-304.118,189.268a.327.327,0,0,1-.122-.024c-.41-.169-10.067-4.155-11.831-6.765a.321.321,0,0,1,.086-.446.322.322,0,0,1,.446.087c1.445,2.137,9.081,5.485,11.07,6.331l-.394-6.622a.323.323,0,0,1,.3-.34.336.336,0,0,1,.34.3l.424,7.137a.322.322,0,0,1-.134.28A.318.318,0,0,1-304.118,189.268Z" fill="#fff"/>
  </g>
  <g id="Grupo_17001" data-name="Grupo 17001" transform="translate(407.717 -126.309)">
    <path id="Caminho_13934" data-name="Caminho 13934" d="M-328.082,297.869c-.641,0-1.2-.017-1.634-.052-3.522-.289-4.951-1.279-5.011-1.32a.323.323,0,0,1-.135-.262V270.948a.322.322,0,0,1,.321-.322h17.662a.322.322,0,0,1,.321.308c.316,7.431.993,24.79.45,25.5C-316.7,297.2-324.04,297.869-328.082,297.869Zm-6.137-1.815a11.461,11.461,0,0,0,4.556,1.122c3.554.293,12.383-.578,13.059-1.151.294-.855-.177-15.161-.583-24.756h-17.032Z" fill="#303030"/>
  </g>
  <g id="Grupo_17002" data-name="Grupo 17002" transform="translate(407.717 -126.309)">
    <path id="Caminho_13935" data-name="Caminho 13935" d="M-275.986,195.843a1.237,1.237,0,0,1-1-.466c-1.422-1.753.583-8.335.816-9.08a.322.322,0,0,1,.3-.225.28.28,0,0,1,.307.22c.092.274,2.228,6.75.867,8.844a1.477,1.477,0,0,1-1.141.7C-275.883,195.841-275.935,195.843-275.986,195.843Zm.134-8.332c-.646,2.351-1.507,6.384-.632,7.461a.615.615,0,0,0,.593.224.84.84,0,0,0,.664-.41C-274.387,193.494-275.216,189.72-275.852,187.511Z" fill="#5c69a5"/>
  </g>
  <g id="Grupo_17003" data-name="Grupo 17003" transform="translate(407.717 -126.309)">
    <path id="Caminho_13936" data-name="Caminho 13936" d="M-319.53,190.378a.427.427,0,0,1-.416-.329c-.972-4.11-.785-7.255.558-9.346a4.58,4.58,0,0,1,2.7-2.076.427.427,0,0,1,.5.336.428.428,0,0,1-.336.5,3.751,3.751,0,0,0-2.161,1.725c-1.18,1.863-1.328,4.858-.429,8.659a.428.428,0,0,1-.318.516A.477.477,0,0,1-319.53,190.378Z" fill="#40507f"/>
  </g>
  <g id="Grupo_17004" data-name="Grupo 17004" transform="translate(407.717 -126.309)">
    <path id="Caminho_13937" data-name="Caminho 13937" d="M-298.7,200.2a.428.428,0,0,1-.428-.433c0-.158.091-15.925-5.45-19.956a.428.428,0,0,1-.1-.6.429.429,0,0,1,.6-.094c5.9,4.29,5.809,19.991,5.8,20.657A.428.428,0,0,1-298.7,200.2Z" fill="#40507f"/>
  </g>
  <g id="Grupo_17005" data-name="Grupo 17005" transform="translate(407.717 -126.309)">
    <path id="Caminho_13938" data-name="Caminho 13938" d="M-318.7,204.487a.427.427,0,0,1-.392-.256c-.181-.415-4.41-10.2-.968-13.922a2.443,2.443,0,0,1,2.089-.815c3.776.331,8.992,8.383,9.212,8.726a.427.427,0,0,1-.129.591.429.429,0,0,1-.592-.128c-1.437-2.236-5.777-8.092-8.566-8.336a1.6,1.6,0,0,0-1.385.543c-3.063,3.315,1.081,12.9,1.123,13a.427.427,0,0,1-.22.564A.418.418,0,0,1-318.7,204.487Z" fill="#40507f"/>
  </g>
  <g id="Grupo_17006" data-name="Grupo 17006" transform="translate(407.717 -126.309)">
    <circle id="Elipse_1397" data-name="Elipse 1397" cx="2.556" cy="2.556" r="2.556" transform="translate(-301.253 198.049)" fill="#40507f"/>
  </g>
  <g id="Grupo_17007" data-name="Grupo 17007" transform="translate(407.717 -126.309)">
    <circle id="Elipse_1398" data-name="Elipse 1398" cx="0.995" cy="0.995" r="0.995" transform="translate(-299.692 199.611)" fill="#a37b90"/>
  </g>
  <g id="Grupo_17008" data-name="Grupo 17008" transform="translate(407.717 -126.309)">
    <path id="Caminho_13939" data-name="Caminho 13939" d="M-307.73,199.311h-3.306a.428.428,0,0,1-.428-.428.427.427,0,0,1,.428-.428h3.306a.428.428,0,0,1,.428.428A.428.428,0,0,1-307.73,199.311Z" fill="#40507f"/>
  </g>
  <g id="Grupo_17009" data-name="Grupo 17009" transform="translate(407.717 -126.309)">
    <path id="Caminho_13940" data-name="Caminho 13940" d="M-319.191,205.9a.437.437,0,0,1-.224-.063.428.428,0,0,1-.14-.589l1.729-2.818a.429.429,0,0,1,.589-.141.428.428,0,0,1,.14.589l-1.729,2.818A.428.428,0,0,1-319.191,205.9Z" fill="#40507f"/>
  </g>
  <g id="Grupo_17010" data-name="Grupo 17010" transform="translate(407.717 -126.309)">
    <rect id="Retângulo_3419" data-name="Retângulo 3419" width="74.495" height="103.128" rx="3.657" transform="translate(-251.235 126.309)" fill="#303030"/>
  </g>
  <g id="Grupo_17011" data-name="Grupo 17011" transform="translate(407.717 -126.309)">
    <path id="Caminho_13941" data-name="Caminho 13941" d="M-259.138,172.743s4.363-9.307,10.252-9.228-3.687,7.332-3.687,7.332Z" fill="#f48462"/>
  </g>
  <g id="Grupo_17018" data-name="Grupo 17018" transform="translate(407.717 -126.309)">
    <g id="Grupo_17012" data-name="Grupo 17012">
      <path id="Caminho_13942" data-name="Caminho 13942" d="M-190.064,142.608h-26.6a.725.725,0,0,1-.725-.725.724.724,0,0,1,.725-.725h26.6a.725.725,0,0,1,.725.725A.726.726,0,0,1-190.064,142.608Z" fill="#fff"/>
    </g>
    <g id="Grupo_17013" data-name="Grupo 17013">
      <path id="Caminho_13943" data-name="Caminho 13943" d="M-190.064,157.017h-47.848a.725.725,0,0,1-.725-.725.726.726,0,0,1,.725-.725h47.848a.726.726,0,0,1,.725.725A.725.725,0,0,1-190.064,157.017Z" fill="#fff"/>
    </g>
    <g id="Grupo_17014" data-name="Grupo 17014">
      <path id="Caminho_13944" data-name="Caminho 13944" d="M-190.064,171.427h-47.848a.726.726,0,0,1-.725-.725.726.726,0,0,1,.725-.725h47.848a.726.726,0,0,1,.725.725A.726.726,0,0,1-190.064,171.427Z" fill="#fff"/>
    </g>
    <g id="Grupo_17015" data-name="Grupo 17015">
      <path id="Caminho_13945" data-name="Caminho 13945" d="M-190.064,186.1h-47.848a.726.726,0,0,1-.725-.725.726.726,0,0,1,.725-.725h47.848a.726.726,0,0,1,.725.725A.726.726,0,0,1-190.064,186.1Z" fill="#fff"/>
    </g>
    <g id="Grupo_17016" data-name="Grupo 17016">
      <path id="Caminho_13946" data-name="Caminho 13946" d="M-190.064,200.514h-47.848a.726.726,0,0,1-.725-.726.726.726,0,0,1,.725-.725h47.848a.726.726,0,0,1,.725.725A.726.726,0,0,1-190.064,200.514Z" fill="#fff"/>
    </g>
    <g id="Grupo_17017" data-name="Grupo 17017">
      <path id="Caminho_13947" data-name="Caminho 13947" d="M-190.064,214.923h-11.729a.726.726,0,0,1-.725-.725.725.725,0,0,1,.725-.725h11.729a.725.725,0,0,1,.725.725A.726.726,0,0,1-190.064,214.923Z" fill="#fff"/>
    </g>
  </g>
  <g id="Grupo_17019" data-name="Grupo 17019" transform="translate(407.717 -126.309)">
    <path id="Caminho_13948" data-name="Caminho 13948" d="M-307.47,219.771s8.246-2.994,14.65-.919c2.3.744,5.9.969,6.05,1.9.282,1.761-3,1.574-4.993,2.883s4.808,4.367,7.871,4.446,7.819-2.142,8.089-.165c.183,1.34-1.8,3.684-4.351,4.5s-9.185.044-9.185.044Z" fill="#f48462"/>
  </g>
  <g id="Grupo_17020" data-name="Grupo 17020" transform="translate(407.717 -126.309)">
    <path id="Caminho_13949" data-name="Caminho 13949" d="M-306.037,234.193s14.68,5.882,19.659,5.34,10.323-4.959,9.861-7.591-3.99-.467-3.99-.467l-9.5.626-12.879-10.607-3.383,3.175Z" fill="#f48462"/>
  </g>
  <g id="Grupo_17021" data-name="Grupo 17021" transform="translate(407.717 -126.309)">
    <path id="Caminho_13950" data-name="Caminho 13950" d="M-285.57,232.961a16.53,16.53,0,0,1-4.56-.638.321.321,0,0,1-.22-.4.316.316,0,0,1,.4-.22,16.815,16.815,0,0,0,12.1-1.284.32.32,0,0,1,.439.115.321.321,0,0,1-.113.439A17.052,17.052,0,0,1-285.57,232.961Z"/>
  </g>
  <g id="Grupo_17022" data-name="Grupo 17022" transform="translate(407.717 -126.309)">
    <path id="Caminho_13951" data-name="Caminho 13951" d="M-287.244,237.126a12.3,12.3,0,0,1-4.475-.724.322.322,0,0,1-.18-.417.322.322,0,0,1,.417-.18c4.22,1.678,11.141-.317,11.21-.337a.322.322,0,0,1,.4.217.322.322,0,0,1-.218.4A28.555,28.555,0,0,1-287.244,237.126Z"/>
  </g>
  <g id="Grupo_17023" data-name="Grupo 17023" transform="translate(407.717 -126.309)">
    <path id="Caminho_13952" data-name="Caminho 13952" d="M-340.036,187.8s-22.53,21.409-17.783,39.752c6.281,24.265,54.843,10.144,54.843,10.144l-1.64-22.62-29.178-1.6Z" fill="#f4e6e6"/>
  </g>
  <g id="Grupo_17024" data-name="Grupo 17024" transform="translate(407.717 -126.309)">
    <path id="Caminho_13953" data-name="Caminho 13953" d="M-338.512,214.309a12.8,12.8,0,0,1-3.9-.414c-.391-.151-.606-.361-.638-.623a.686.686,0,0,1,.361-.65c1.371-.973,6.758-1.465,11.1.686a.32.32,0,0,1,.173.344.321.321,0,0,1-.282.262C-331.926,213.938-335.451,214.309-338.512,214.309Zm-3.876-1.116a.955.955,0,0,0,.2.1c1.668.644,6.8.3,9.181.1C-337.415,211.7-341.89,212.655-342.388,213.193Z" fill="#303030"/>
  </g>
</svg>
