<svg height="1598" viewBox="0 0 1440 1598" width="1440" xmlns="http://www.w3.org/2000/svg" xmlns:xlink="http://www.w3.org/1999/xlink"><clipPath id="a"><path d="m0 0h1440v1598h-1440z" transform="translate(0 -.4)"/></clipPath><g clip-path="url(#a)" transform="translate(0 .4)"><path d="m179.419 1350.847-5.606-1.263c62.508-277.982 219.6-530.413 442.328-710.8a1276.016 1276.016 0 0 1 2046.147 707.408l-5.6 1.274c-132.323-580.982-641.51-986.746-1238.254-986.746-588.925.001-1110.004 416.407-1239.015 990.127z" fill="#3f3d56" transform="translate(-1051.323 167.816)"/><circle cx="156.057" cy="156.057" fill="#ff6584" r="156.057" transform="translate(1142.344 527.351)"/><path d="m0 0h5.746v226.981h-5.746z" fill="#3f3d56" transform="translate(1233.373 1307.329)"/><path d="m1002.157 731.62c.366 79.369-55.475 143.97-55.475 143.97s-56.434-64.083-56.8-143.453 55.475-143.97 55.475-143.97 56.432 64.085 56.8 143.453z" fill="#001f40" transform="translate(289.995 604.634)"/><path d="m1002.157 731.62c.366 79.369-55.475 143.97-55.475 143.97s-56.434-64.083-56.8-143.453 55.475-143.97 55.475-143.97 56.432 64.085 56.8 143.453z" opacity=".1" transform="translate(289.995 604.634)"/><circle cx="89.781" cy="89.781" fill="#001f40" opacity=".4" r="89.781" transform="translate(63.342 676.487)"/><circle cx="62.981" cy="62.981" fill="#001f40" opacity=".4" r="62.981" transform="translate(-76.019 746.167)"/><circle cx="62.981" cy="62.981" fill="#001f40" opacity=".4" r="62.981" transform="translate(-751.215 927.176)"/><circle cx="89.781" cy="89.781" fill="#001f40" opacity=".4" r="89.781" transform="translate(1084.152 669.1)"/><path d="m89.089 721.726c4.867 17.992 21.538 29.134 21.538 29.134s8.78-18.027 3.913-36.019-21.54-29.133-21.54-29.133-8.778 18.027-3.911 36.018z" fill="#3f3d56" transform="translate(-1212.779 787.344)"/><path d="m112.38 706.087c13.355 13 14.986 32.986 14.986 32.986s-20.022-1.093-33.377-14.094-14.989-32.986-14.989-32.986 20.025 1.095 33.38 14.094z" fill="#001f40" transform="translate(-1228.919 799.116)"/><path d="m701.089 721.726c4.867 17.992 21.538 29.134 21.538 29.134s8.78-18.027 3.913-36.019-21.54-29.133-21.54-29.133-8.778 18.027-3.911 36.018z" fill="#3f3d56" transform="translate(-66.397 787.344)"/><path d="m724.38 706.087c13.355 13 14.986 32.986 14.986 32.986s-20.022-1.093-33.377-14.094-14.989-32.986-14.989-32.986 20.023 1.095 33.38 14.094z" fill="#001f40" transform="translate(-82.536 799.116)"/><path d="m75.886 535.117-11.886-19.811 110.945-95.1h285.289v27.735l-103.021 110.951-118.872 23.773z" fill="#3f3d56" transform="translate(-1166.517 838.715)"/><path d="m336.264 480.05v-61.994h-37.351v19.549l-11.757-13.36-95.1 95.1-15.847 15.845-19.809 79.247 35.662 87.169h182.263v-178.306z" fill="#ccc" transform="translate(-993.44 834.68)"/><path d="m0 0h301.137v182.267h-301.137z" fill="#f2f2f2" transform="translate(-1102.517 1354.021)"/><path d="m0 0h63.397v55.473h-63.397z" fill="#3f3d56" transform="translate(-906.383 1411.473)"/><path d="m0 0h55.473v126.794h-55.473z" fill="#ccc" transform="translate(-987.61 1409.494)"/><path d="m97.427 492.426v-19.811h-23.773v19.811z" fill="#3f3d56" transform="translate(-1148.433 936.879)"/><path d="m95.444 485.026h-21.79v19.813h23.773v-19.813z" fill="#3f3d56" transform="translate(-1148.433 960.127)"/><path d="m0 0h23.774v19.812h-23.774z" fill="#3f3d56" transform="translate(-1035.157 1409.494)"/><path d="m0 0h23.774v19.812h-23.774z" fill="#3f3d56" transform="translate(-1035.157 1445.153)"/><path d="m213.961 493.117v-19.817h-23.776v19.813h23.776z" fill="#3f3d56" transform="translate(-930.151 938.169)"/><path d="m211.978 485.716h-21.793v19.811h23.776v-19.811z" fill="#3f3d56" transform="translate(-930.151 961.419)"/><path d="m0 0h23.774v19.812h-23.774z" fill="#3f3d56" transform="translate(-700.342 1411.473)"/><path d="m0 0h23.774v19.812h-23.774z" fill="#3f3d56" transform="translate(-700.342 1447.135)"/><path d="m474.886 535.117-11.886-19.811 110.945-95.1h285.289v27.735l-103.021 110.951-118.872 23.773z" fill="#3f3d56" transform="translate(-419.121 838.715)"/><path d="m735.264 480.05v-61.994h-37.351v19.549l-11.757-13.36-95.1 95.1-15.848 15.845-19.808 79.247 35.662 87.169h182.263v-178.306z" fill="#ccc" transform="translate(-246.043 834.68)"/><path d="m0 0h301.137v182.267h-301.137z" fill="#f2f2f2" transform="translate(43.879 1354.021)"/><path d="m0 0h63.397v55.473h-63.397z" fill="#3f3d56" transform="translate(240.013 1411.473)"/><path d="m0 0h55.473v126.794h-55.473z" fill="#ccc" transform="translate(158.786 1409.494)"/><path d="m496.427 492.426v-19.811h-23.773v19.811z" fill="#3f3d56" transform="translate(-401.037 936.879)"/><path d="m494.444 485.026h-21.79v19.813h23.773v-19.813z" fill="#3f3d56" transform="translate(-401.037 960.127)"/><path d="m0 0h23.774v19.812h-23.774z" fill="#3f3d56" transform="translate(111.238 1409.494)"/><path d="m0 0h23.774v19.812h-23.774z" fill="#3f3d56" transform="translate(111.238 1445.153)"/><path d="m612.961 493.117v-19.817h-23.776v19.813h23.776z" fill="#3f3d56" transform="translate(-182.755 938.169)"/><path d="m610.978 485.716h-21.793v19.811h23.776v-19.811z" fill="#3f3d56" transform="translate(-182.755 961.419)"/><path d="m0 0h23.774v19.812h-23.774z" fill="#3f3d56" transform="translate(446.054 1411.473)"/><path d="m0 0h23.774v19.812h-23.774z" fill="#3f3d56" transform="translate(446.054 1447.135)"/><path d="m293.431 419.277-19.811-15.852 110.945-99.058h281.324v87.172l-182.266 122.834z" fill="#3f3d56" transform="translate(-773.862 621.721)"/><path d="m580.152 359.934v-53.587h-37.352v13.125l-13.941-15.1-91.134 99.058-35.658 23.77-55.294 403.978 83.388 83.388h193.8v-507.178z" fill="#ccc" transform="translate(-636.834 621.721)"/><path d="m0 0h301.137v511.14h-301.137z" fill="#f2f2f2" transform="translate(-500.242 1025.146)"/><path d="m0 0h55.473v124.813h-55.473z" fill="#ccc" transform="translate(-383.356 1411.473)"/><path d="m309.115 498.631v-19.81h-23.773v19.811h23.773z" fill="#3f3d56" transform="translate(-751.905 948.504)"/><path d="m307.135 491.232h-21.793v19.813h23.773v-19.813z" fill="#3f3d56" transform="translate(-751.905 971.752)"/><path d="m0 0h23.774v19.812h-23.774z" fill="#3f3d56" transform="translate(-426.942 1427.325)"/><path d="m0 0h23.774v19.812h-23.774z" fill="#3f3d56" transform="translate(-426.942 1462.984)"/><path d="m365.656 498.631v-19.81h-23.772v19.811h23.772z" fill="#3f3d56" transform="translate(-645.992 948.504)"/><path d="m363.677 491.232h-21.793v19.813h23.772v-19.813z" fill="#3f3d56" transform="translate(-645.992 971.752)"/><path d="m0 0h23.774v19.812h-23.774z" fill="#3f3d56" transform="translate(-264.484 1427.325)"/><path d="m0 0h23.774v19.812h-23.774z" fill="#3f3d56" transform="translate(-264.484 1462.984)"/><path d="m423.578 360.723v-19.81h-23.778v19.811h23.773z" fill="#3f3d56" transform="translate(-537.496 690.178)"/><path d="m421.6 353.325h-21.8v19.81h23.773v-19.81z" fill="#3f3d56" transform="translate(-537.496 713.428)"/><path d="m0 0h23.774v19.812h-23.774z" fill="#3f3d56" transform="translate(-98.067 1031.091)"/><path d="m0 0h23.774v19.812h-23.774z" fill="#3f3d56" transform="translate(-98.067 1066.753)"/><path d="m423.578 399.34v-19.813h-23.778v19.813h23.773z" fill="#3f3d56" transform="translate(-537.496 762.509)"/><path d="m421.6 391.939h-21.8v19.811h23.773v-19.811z" fill="#3f3d56" transform="translate(-537.496 785.759)"/><path d="m0 0h23.774v19.812h-23.774z" fill="#3f3d56" transform="translate(-98.067 1142.036)"/><path d="m0 0h23.774v19.812h-23.774z" fill="#3f3d56" transform="translate(-98.067 1177.698)"/><path d="m423.578 437.954v-19.813h-23.778v19.813h23.773z" fill="#3f3d56" transform="translate(-537.496 834.839)"/><path d="m421.6 430.553h-21.8v19.81h23.773v-19.81z" fill="#3f3d56" transform="translate(-537.496 858.089)"/><path d="m0 0h23.774v19.812h-23.774z" fill="#3f3d56" transform="translate(-98.067 1252.98)"/><path d="m0 0h23.774v19.812h-23.774z" fill="#3f3d56" transform="translate(-98.067 1288.642)"/><path d="m423.578 476.568v-19.813h-23.778v19.813h23.773z" fill="#3f3d56" transform="translate(-537.496 907.17)"/><path d="m421.6 469.167h-21.8v19.811h23.773v-19.811z" fill="#3f3d56" transform="translate(-537.496 930.42)"/><path d="m0 0h23.774v19.812h-23.774z" fill="#3f3d56" transform="translate(-98.067 1363.925)"/><path d="m0 0h23.774v19.812h-23.774z" fill="#3f3d56" transform="translate(-98.067 1399.587)"/><path d="m0 0h229.815v47.548h-229.815z" fill="#3f3d56" transform="translate(-466.563 1050.902)"/><path d="m0 0h229.815v47.548h-229.815z" fill="#3f3d56" transform="translate(-466.563 1145.998)"/><path d="m0 0h229.815v47.548h-229.815z" fill="#3f3d56" transform="translate(-466.563 1241.094)"/><path d="m0 0h229.815v47.548h-229.815z" fill="#3f3d56" transform="translate(-466.563 1336.19)"/><path d="m696.431 419.277-19.811-15.852 110.945-99.058h281.324v87.172l-182.266 122.834z" fill="#3f3d56" transform="translate(-18.974 621.721)"/><path d="m983.152 359.934v-53.587h-37.352v13.125l-13.941-15.1-91.134 99.058-35.658 23.77-55.294 403.978 83.388 83.388h193.8v-507.178z" fill="#ccc" transform="translate(118.054 621.721)"/><path d="m0 0h301.137v511.14h-301.137z" fill="#f2f2f2" transform="translate(657.646 1025.146)"/><path d="m0 0h55.473v124.813h-55.473z" fill="#ccc" transform="translate(774.533 1411.473)"/><path d="m712.115 498.631v-19.81h-23.773v19.811h23.773z" fill="#3f3d56" transform="translate(2.983 948.504)"/><path d="m710.135 491.232h-21.793v19.813h23.773v-19.813z" fill="#3f3d56" transform="translate(2.983 971.752)"/><path d="m0 0h23.774v19.812h-23.774z" fill="#3f3d56" transform="translate(730.947 1427.325)"/><path d="m0 0h23.774v19.812h-23.774z" fill="#3f3d56" transform="translate(730.947 1462.984)"/><path d="m768.656 498.631v-19.81h-23.772v19.811h23.772z" fill="#3f3d56" transform="translate(108.896 948.504)"/><path d="m766.677 491.232h-21.793v19.813h23.772v-19.813z" fill="#3f3d56" transform="translate(108.896 971.752)"/><path d="m0 0h23.774v19.812h-23.774z" fill="#3f3d56" transform="translate(893.404 1427.325)"/><path d="m0 0h23.774v19.812h-23.774z" fill="#3f3d56" transform="translate(893.404 1462.984)"/><path d="m826.578 360.723v-19.81h-23.778v19.811h23.773z" fill="#3f3d56" transform="translate(217.392 690.178)"/><path d="m824.6 353.325h-21.8v19.81h23.773v-19.81z" fill="#3f3d56" transform="translate(217.392 713.428)"/><path d="m0 0h23.774v19.812h-23.774z" fill="#3f3d56" transform="translate(1059.821 1031.091)"/><path d="m0 0h23.774v19.812h-23.774z" fill="#3f3d56" transform="translate(1059.821 1066.753)"/><path d="m826.578 399.34v-19.813h-23.778v19.813h23.773z" fill="#3f3d56" transform="translate(217.392 762.509)"/><path d="m824.6 391.939h-21.8v19.811h23.773v-19.811z" fill="#3f3d56" transform="translate(217.392 785.759)"/><path d="m0 0h23.774v19.812h-23.774z" fill="#3f3d56" transform="translate(1059.821 1142.036)"/><path d="m0 0h23.774v19.812h-23.774z" fill="#3f3d56" transform="translate(1059.821 1177.698)"/><path d="m826.578 437.954v-19.813h-23.778v19.813h23.773z" fill="#3f3d56" transform="translate(217.392 834.839)"/><path d="m824.6 430.553h-21.8v19.81h23.773v-19.81z" fill="#3f3d56" transform="translate(217.392 858.089)"/><path d="m0 0h23.774v19.812h-23.774z" fill="#3f3d56" transform="translate(1059.821 1252.98)"/><path d="m0 0h23.774v19.812h-23.774z" fill="#3f3d56" transform="translate(1059.821 1288.642)"/><path d="m826.578 476.568v-19.813h-23.778v19.813h23.773z" fill="#3f3d56" transform="translate(217.392 907.17)"/><path d="m824.6 469.167h-21.8v19.811h23.773v-19.811z" fill="#3f3d56" transform="translate(217.392 930.42)"/><path d="m0 0h23.774v19.812h-23.774z" fill="#3f3d56" transform="translate(1059.821 1363.925)"/><path d="m0 0h23.774v19.812h-23.774z" fill="#3f3d56" transform="translate(1059.821 1399.587)"/><path d="m0 0h229.815v47.548h-229.815z" fill="#3f3d56" transform="translate(691.325 1050.902)"/><path d="m0 0h229.815v47.548h-229.815z" fill="#3f3d56" transform="translate(691.325 1145.998)"/><path d="m0 0h229.815v47.548h-229.815z" fill="#3f3d56" transform="translate(691.325 1241.094)"/><path d="m0 0h229.815v47.548h-229.815z" fill="#3f3d56" transform="translate(691.325 1336.19)"/><path d="m917.431 419.277-19.811-15.852 110.945-99.058h281.33v87.172l-182.272 122.834z" fill="#3f3d56" transform="translate(394.997 621.721)"/><path d="m1204.152 359.934v-53.587h-37.352v13.125l-13.935-15.1-91.137 99.058-35.661 23.77-55.294 403.978 83.388 83.388h193.807v-507.178z" fill="#ccc" transform="translate(532.026 621.721)"/><path d="m0 0h301.137v511.14h-301.137z" fill="#f2f2f2" transform="translate(1292.617 1025.146)"/><path d="m0 0h55.473v124.813h-55.473z" fill="#ccc" transform="translate(1409.504 1411.473)"/><g fill="#3f3d56"><path d="m933.115 498.631v-19.81h-23.773v19.811h23.773z" transform="translate(416.955 948.504)"/><path d="m931.135 491.232h-21.793v19.813h23.773v-19.813z" transform="translate(416.955 971.752)"/><path d="m0 0h23.774v19.812h-23.774z" transform="translate(1365.918 1427.325)"/><path d="m0 0h23.774v19.812h-23.774z" transform="translate(1365.918 1462.984)"/><path d="m989.657 498.631v-19.81h-23.773v19.811h23.773z" transform="translate(522.868 948.504)"/><path d="m987.677 491.232h-21.793v19.813h23.773v-19.813z" transform="translate(522.868 971.752)"/><path d="m0 0h23.774v19.812h-23.774z" transform="translate(1528.376 1427.325)"/><path d="m0 0h23.774v19.812h-23.774z" transform="translate(1528.376 1462.984)"/><path d="m1047.59 360.723v-19.81h-23.79v19.811h23.79z" transform="translate(631.354 690.178)"/><path d="m1045.607 353.325h-21.807v19.81h23.79v-19.81z" transform="translate(631.354 713.428)"/><path d="m0 0h23.774v19.812h-23.774z" transform="translate(1694.804 1031.091)"/><path d="m0 0h23.774v19.812h-23.774z" transform="translate(1694.804 1066.753)"/><path d="m1047.59 399.34v-19.813h-23.79v19.813z" transform="translate(631.354 762.509)"/><path d="m1045.607 391.939h-21.807v19.811h23.79v-19.811z" transform="translate(631.354 785.759)"/><path d="m0 0h23.774v19.812h-23.774z" transform="translate(1694.804 1142.036)"/><path d="m0 0h23.774v19.812h-23.774z" transform="translate(1694.804 1177.698)"/><path d="m1047.59 437.954v-19.813h-23.79v19.813z" transform="translate(631.354 834.839)"/><path d="m1045.607 430.553h-21.807v19.81h23.79v-19.81z" transform="translate(631.354 858.089)"/><path d="m0 0h23.774v19.812h-23.774z" transform="translate(1694.804 1252.98)"/><path d="m0 0h23.774v19.812h-23.774z" transform="translate(1694.804 1288.642)"/><path d="m1047.59 476.568v-19.813h-23.79v19.813z" transform="translate(631.354 907.17)"/><path d="m1045.607 469.167h-21.807v19.811h23.79v-19.811z" transform="translate(631.354 930.42)"/><path d="m0 0h23.774v19.812h-23.774z" transform="translate(1694.804 1363.925)"/><path d="m0 0h23.774v19.812h-23.774z" transform="translate(1694.804 1399.587)"/><path d="m0 0h229.815v47.548h-229.815z" transform="translate(1326.297 1050.902)"/><path d="m0 0h229.815v47.548h-229.815z" transform="translate(1326.297 1145.998)"/><path d="m0 0h229.815v47.548h-229.815z" transform="translate(1326.297 1241.094)"/><path d="m0 0h229.815v47.548h-229.815z" transform="translate(1326.297 1336.19)"/><path d="m0 0h3266.798v5.746h-3266.798z" transform="translate(-1286.4 1534.31)"/><path d="m0 0h5.746v226.981h-5.746z" transform="translate(-562.36 1307.329)"/></g><path d="m377.157 731.62c.366 79.369-55.475 143.97-55.475 143.97s-56.434-64.083-56.8-143.453 55.475-143.97 55.475-143.97 56.432 64.085 56.8 143.453z" fill="#001f40" transform="translate(-880.738 604.634)"/><path d="m0 0h5.746v226.981h-5.746z" fill="#3f3d56" transform="translate(12.274 1307.329)"/><path d="m577.157 731.62c.366 79.369-55.475 143.97-55.475 143.97s-56.434-64.083-56.8-143.453 55.475-143.97 55.475-143.97 56.432 64.085 56.8 143.453z" fill="#001f40" transform="translate(-506.103 604.634)"/><path d="m0 0h5.746v226.981h-5.746z" fill="#3f3d56" transform="translate(1158.67 1307.329)"/><path d="m976.157 731.62c.366 79.369-55.475 143.97-55.475 143.97s-56.434-64.083-56.8-143.453 55.475-143.97 55.475-143.97 56.432 64.085 56.8 143.453z" fill="#001f40" transform="translate(241.292 604.634)"/><ellipse cx="109.181" cy="24.566" fill="#ff7d00" rx="109.181" ry="24.566" transform="translate(292.408 496.787)"/><path d="m826.839 317.392c0 69.819-126.419 267.205-126.419 267.205s-126.42-197.386-126.42-267.205a126.42 126.42 0 1 1 252.839 0z" fill="#ff7d00" transform="translate(-301.704 -139.382)"/><circle cx="71.829" cy="71.829" fill="#f2f2f2" r="71.829" transform="translate(326.887 106.179)"/></g></svg>