<svg height="1598" viewBox="0 0 1440 1598" width="1440" xmlns="http://www.w3.org/2000/svg" xmlns:xlink="http://www.w3.org/1999/xlink"><linearGradient id="a" gradientUnits="objectBoundingBox" x1=".5" x2=".5" y1="1" y2="-.001"><stop offset="0" stop-color="#808080" stop-opacity=".251"/><stop offset=".54" stop-color="#808080" stop-opacity=".122"/><stop offset="1" stop-color="#808080" stop-opacity=".102"/></linearGradient><clipPath id="b"><path d="m0 0h1440v1598h-1440z" transform="translate(0 -.4)"/></clipPath><g clip-path="url(#b)" transform="translate(0 .4)"><g opacity=".1" transform="translate(749.885 102.287)"><g fill="#3f3d56"><ellipse cx="44.869" cy="58.721" rx="44.869" ry="58.721" transform="translate(171.069 1210.739)"/><path d="m927.1 667.522a70.745 70.745 0 0 0 9.445-35.891c0-32.5-20.089-58.721-44.869-58.721s-44.848 26.283-44.848 58.721a70.742 70.742 0 0 0 9.364 35.891 73.428 73.428 0 0 0 0 71.762 73.466 73.466 0 0 0 0 71.782 70.745 70.745 0 0 0 -9.364 35.891c0 32.5 20.088 58.721 44.849 58.721s44.869-26.283 44.869-58.721a70.744 70.744 0 0 0 -9.364-35.891 73.468 73.468 0 0 0 0-71.782 73.428 73.428 0 0 0 0-71.762z" transform="translate(-675.661 350.722)"/><ellipse cx="44.869" cy="58.721" rx="44.869" ry="58.721" transform="translate(171.069 851.87)"/><ellipse cx="44.869" cy="58.721" rx="44.869" ry="58.721" transform="translate(171.069 780.088)"/></g><path d="m1146.435 465.813a216.233 216.233 0 0 0 16.7-24.6l-117.809-19.357 127.5.955a215.306 215.306 0 0 0 4.062-170.254l-171.066 88.681 157.782-115.9a214.9 214.9 0 1 0 -354.955 240.475 215.325 215.325 0 0 0 -24.5 39.182l153.009 79.5-163.14-54.842a214.9 214.9 0 0 0 34.53 201.778 214.879 214.879 0 1 0 337.785 0 214.878 214.878 0 0 0 0-265.7z" fill="#001f40" transform="translate(-762.558 -118.183)"/><path d="m762.612 356.349a213.9 213.9 0 0 0 45.988 132.839 214.879 214.879 0 1 0 337.785 0c28.8-36.561-383.773-156.969-383.773-132.839z" opacity=".1" transform="translate(-762.507 124.14)"/></g><g opacity=".1" transform="translate(-422.836 559.162)"><g fill="#3f3d56"><ellipse cx="27.299" cy="35.749" rx="27.299" ry="35.749" transform="translate(102.922 737.005)"/><path d="m284.832 677.514a43.122 43.122 0 0 0 5.708-21.855c0-19.743-12.187-35.749-27.319-35.749s-27.3 16.005-27.3 35.749a43.121 43.121 0 0 0 5.687 21.855 44.808 44.808 0 0 0 0 43.691 44.807 44.807 0 0 0 0 43.69 42.981 42.981 0 0 0 -5.687 21.835c0 19.763 12.187 35.769 27.3 35.769s27.319-16.006 27.319-35.769a42.981 42.981 0 0 0 -5.708-21.835 44.685 44.685 0 0 0 0-43.69 44.686 44.686 0 0 0 0-43.691z" transform="translate(-132.898 -57.688)"/><ellipse cx="27.299" cy="35.749" rx="27.299" ry="35.749" transform="translate(102.922 518.532)"/><ellipse cx="27.299" cy="35.749" rx="27.299" ry="35.749" transform="translate(102.922 474.841)"/></g><path d="m213.231 554.673a130.163 130.163 0 0 1 -10.156-14.97l71.762-11.781-77.611.589a131.153 131.153 0 0 1 -2.5-103.59l104.057 54.05-96.014-70.685a130.808 130.808 0 1 1 216.058 146.387 130.671 130.671 0 0 1 14.909 23.827l-93.15 48.423 99.325-33.332a130.889 130.889 0 0 1 -21.084 122.846 130.808 130.808 0 1 1 -205.637 0 130.849 130.849 0 0 1 0-161.763z" fill="#001f40" transform="translate(-185.199 -343.114)"/><path d="m446.817 488.068a130.3 130.3 0 0 1 -27.99 80.882 130.808 130.808 0 1 1 -205.637 0c-17.528-22.161 233.627-95.568 233.627-80.882z" opacity=".1" transform="translate(-185.199 -195.627)"/></g><g opacity=".1" transform="translate(148.575 316.3)"><g fill="#3f3d56"><ellipse cx="36.541" cy="47.834" rx="36.541" ry="47.834" transform="translate(137.717 986.814)"/><path d="m599.807 671.3a57.7 57.7 0 0 0 7.617-29.249c0-26.405-16.249-47.834-36.561-47.834s-36.563 21.432-36.563 47.837a57.525 57.525 0 0 0 7.637 29.249 59.8 59.8 0 0 0 0 58.478 59.759 59.759 0 0 0 0 58.458 57.524 57.524 0 0 0 -7.637 29.249c0 26.405 16.371 47.834 36.562 47.834s36.561-21.429 36.561-47.834a57.7 57.7 0 0 0 -7.617-29.249 59.88 59.88 0 0 0 0-58.458 59.92 59.92 0 0 0 0-58.478z" transform="translate(-396.625 158.684)"/><ellipse cx="36.541" cy="47.834" rx="36.541" ry="47.834" transform="translate(137.717 694.446)"/><ellipse cx="36.541" cy="47.834" rx="36.541" ry="47.834" transform="translate(137.717 635.969)"/></g><path d="m504.057 507.207a174.5 174.5 0 0 1 -13.609-20.027l96.014-15.762-103.834.772a175.392 175.392 0 0 1 -3.351-138.709l139.339 72.269-128.516-94.45a175.067 175.067 0 1 1 289.061 195.907 175.365 175.365 0 0 1 19.946 31.93l-124.633 64.754 132.9-44.686a175.128 175.128 0 0 1 -28.213 164.383 175.047 175.047 0 1 1 -275.184 0 175.108 175.108 0 0 1 0-216.463z" fill="#001f40" transform="translate(-466.519 -223.547)"/><path d="m816.615 417.8a174.294 174.294 0 0 1 -37.455 108.221 175.047 175.047 0 1 1 -275.184 0c-23.46-29.776 312.639-127.882 312.639-108.221z" opacity=".1" transform="translate(-466.519 -25.899)"/></g><path d="m2303.478 782.687c0 13.954-102.006 26.71-270.655 36.561-30.671 1.767-63.535 3.453-98.39 5.037q-45.173 2.031-94.694 3.839-47.976 1.707-99.629 3.169c-108.75 3.108-228.975 5.342-356.7 6.459q-46.494.426-94.226.65-49.723.223-100.584.2c-615.732 0-1114.854-25-1114.854-55.857s499.126-55.855 1114.854-55.855c265.089 0 508.526 4.651 699.863 12.37l20.921.853h.122c241.024 10.217 393.972 25.593 393.972 42.574z" fill="#3f3d56" transform="translate(-722.959 611.79)"/><path d="m2303.478 782.687c0 13.954-102.006 26.71-270.655 36.561-30.671 1.767-63.535 3.453-98.39 5.037q-45.173 2.031-94.694 3.839-47.976 1.707-99.629 3.169c-108.75 3.108-228.975 5.342-356.7 6.459q-46.494.426-94.226.65-49.723.223-100.584.2c-615.732 0-1114.854-25-1114.854-55.857s499.126-55.855 1114.854-55.855c265.089 0 508.526 4.651 699.863 12.37l20.921.853h.122c241.024 10.217 393.972 25.593 393.972 42.574z" opacity=".15" transform="translate(-722.959 611.79)"/><path d="m2258.228 773.268c0 11.659-102.006 22.343-270.655 30.468-30.651 1.483-63.535 2.885-98.37 4.2q-45.194 1.707-94.694 3.209-47.977 1.422-99.629 2.661c-108.77 2.6-229 4.469-356.716 5.4q-46.453.345-94.227.528-49.723.183-100.564.183c-615.732 0-1114.874-20.9-1114.874-46.717s499.143-46.71 1114.875-46.71c265.069 0 508.506 3.88 699.843 10.339l20.921.711h.142c241.102 8.673 393.948 21.449 393.948 35.728z" fill="#3f3d56" transform="translate(-769.62 611.377)"/><path d="m825.2 761.717q-103.956 0-163.855-82.527t-59.895-199.95q0-118.215 57.929-199.543t163.429-81.247q111.878 0 168.588 85.7t56.731 198.365q0 111.857-58.7 195.562t-164.227 83.64zm2.031-61.89q68.39 0 102.229-59.615t33.84-150.312q0-100.95-34.632-165.318t-106.226-64.382q-136.089 0-136.089 216.2 0 223.45 140.842 223.43zm22.835 592.673h-100.238l656.233-1083.021h98.35zm580.552 11.111q-105.52 0-164.526-83.279t-59.25-199.97q0-117.422 57.523-198.751t163.835-81.242q111.085 0 167.41 85.7t56.345 198.345q0 111.126-58.315 195.2t-163.063 84.01zm1.178-63.474q68.065 0 101.681-58.6t33.616-149.7q0-97.5-34.022-163.53t-106.007-66.135q-136.881 0-136.881 216.2-.041 221.785 141.573 221.764z" fill="#3f3d56" transform="translate(-178.805 66.873)"/><path d="m825.2 761.717q-103.956 0-163.855-82.527t-59.895-199.95q0-118.215 57.929-199.543t163.429-81.247q111.878 0 168.588 85.7t56.731 198.365q0 111.857-58.7 195.562t-164.227 83.64zm2.031-61.89q68.39 0 102.229-59.615t33.84-150.312q0-100.95-34.632-165.318t-106.226-64.382q-136.089 0-136.089 216.2 0 223.45 140.842 223.43zm22.835 592.673h-100.238l656.233-1083.021h98.35zm580.552 11.111q-105.52 0-164.526-83.279t-59.25-199.97q0-117.422 57.523-198.751t163.835-81.242q111.085 0 167.41 85.7t56.345 198.345q0 111.126-58.315 195.2t-163.063 84.01zm1.178-63.474q68.065 0 101.681-58.6t33.616-149.7q0-97.5-34.022-163.53t-106.007-66.135q-136.881 0-136.881 216.2-.041 221.785 141.573 221.764z" fill="#3f3d56" transform="translate(-178.805 66.873)"/><path d="m825.2 761.717q-103.956 0-163.855-82.527t-59.895-199.95q0-118.215 57.929-199.543t163.429-81.247q111.878 0 168.588 85.7t56.731 198.365q0 111.857-58.7 195.562t-164.227 83.64zm2.031-61.89q68.39 0 102.229-59.615t33.84-150.312q0-100.95-34.632-165.318t-106.226-64.382q-136.089 0-136.089 216.2 0 223.45 140.842 223.43zm22.835 592.673h-100.238l656.233-1083.021h98.35zm580.552 11.111q-105.52 0-164.526-83.279t-59.25-199.97q0-117.422 57.523-198.751t163.835-81.242q111.085 0 167.41 85.7t56.345 198.345q0 111.126-58.315 195.2t-163.063 84.01zm1.178-63.474q68.065 0 101.681-58.6t33.616-149.7q0-97.5-34.022-163.53t-106.007-66.135q-136.881 0-136.881 216.2-.041 221.785 141.573 221.764z" opacity=".15" transform="translate(-178.805 66.873)"/><path d="m794.2 761.717q-103.956 0-163.855-82.527t-59.895-199.95q0-118.215 57.929-199.543t163.429-81.247q111.878 0 168.588 85.7t56.731 198.365q0 111.857-58.7 195.562t-164.227 83.64zm2.031-61.89q68.39 0 102.229-59.615t33.84-150.312q0-100.95-34.632-165.318t-106.225-64.382q-136.089 0-136.089 216.2 0 223.45 140.842 223.43zm22.83 592.678h-100.233l656.233-1083.026h98.35zm580.552 11.111q-105.52 0-164.526-83.279t-59.25-199.97q0-117.422 57.523-198.751t163.84-81.247q111.085 0 167.41 85.7t56.345 198.345q0 111.126-58.315 195.2t-163.064 84.01zm1.178-63.474q68.065 0 101.681-58.6t33.616-149.7q0-97.5-34.022-163.53t-106.048-66.135q-136.881 0-136.881 216.2 0 221.785 141.614 221.764z" fill="#ff7d00" transform="translate(-210.772 66.873)"/><path d="m806.865 923.925c8.368-15.518-1.138-34.53-12.065-48.383s-24.252-28.233-23.968-45.884c.406-25.329 27.3-40.3 48.749-53.745a237.819 237.819 0 0 0 43.833-35.221 64.354 64.354 0 0 0 13.466-18.037c4.448-9.912 4.306-21.185 4.063-32.031q-1.4-54.273-5.363-108.384" fill="none" stroke="#3f3d56" stroke-miterlimit="10" stroke-width="4" transform="translate(-4.146 462.63)"/><g fill="#001f40"><path d="m882.632 600.389a39.465 39.465 0 0 0 -19.723-32.377l-8.856 17.509.264-21.206a40.006 40.006 0 0 0 -13.02-1.564 39.527 39.527 0 1 0 41.334 37.638z" transform="translate(29.669 442.491)"/><path d="m845.71 742.236a39.507 39.507 0 1 1 1.909-31.828l-24.699 20.092 27.218-6.337a39.409 39.409 0 0 1 -4.428 18.073z" transform="translate(-3.89 568.231)"/><path d="m819.219 715.336a39.527 39.527 0 0 1 -41.334-37.636 39.081 39.081 0 0 1 3.412-18.016 39.59 39.59 0 0 1 25.309-21.917l-.224 16.25 8.958-17.712a39.529 39.529 0 1 1 3.7 78.972z" transform="translate(3.081 518.332)"/><path d="m866.466 683.89a39.543 39.543 0 1 1 17.468-73.976l-6.988 19.134 14.381-13.792a39.407 39.407 0 0 1 12.817 27.279 38.6 38.6 0 0 1 -1.016 10.887 39.548 39.548 0 0 1 -36.662 30.468z" transform="translate(51.787 485.938)"/></g><path d="m877.3 599.938c-9.12 1-17.976 3.839-27.136 4.408s-19.215-1.625-25-8.754c-3.128-3.819-4.672-8.673-7.312-12.857a28.011 28.011 0 0 0 -9.953-9.364 39.527 39.527 0 1 0 73.894 26.223c-1.507.08-2.993.181-4.493.344z" opacity=".1" transform="translate(29.68 453.483)"/><path d="m866.452 672.385a39.567 39.567 0 0 1 -37.597-56.385 29.612 29.612 0 0 1 7.942 7.962c2.823 4.245 4.53 9.161 7.84 13.06 6.094 7.251 16.676 9.607 26.2 9.181s18.748-3.148 28.254-4.062c1.32-.122 2.661-.2 4.062-.244a39.547 39.547 0 0 1 -36.7 30.488z" opacity=".1" transform="translate(51.801 497.442)"/><path d="m819.219 703.444a39.527 39.527 0 0 1 -41.334-37.638 39.08 39.08 0 0 1 3.415-18.016 31.816 31.816 0 0 1 8.348 8.125c3.067 4.326 5 9.323 8.592 13.324 6.662 7.414 17.875 10.034 27.969 9.791s19.215-2.6 28.944-3.352a39.547 39.547 0 0 1 -35.934 27.766z" opacity=".1" transform="translate(3.081 530.224)"/><path d="m845.776 729.375a39.527 39.527 0 0 1 -72.066-32.255 39.825 39.825 0 0 1 8.673 7.739c3.758 4.591 6.236 9.791 10.583 14.056 8.125 7.921 21.124 11.192 32.742 11.5a168.221 168.221 0 0 0 20.068-1.04z" opacity=".1" transform="translate(-3.956 581.092)"/><path d="m1107.865 922.925c8.369-15.518-1.138-34.53-12.065-48.383s-24.252-28.233-23.968-45.884c.406-25.329 27.3-40.3 48.749-53.745a237.845 237.845 0 0 0 43.833-35.221 64.354 64.354 0 0 0 13.466-18.037c4.448-9.912 4.306-21.185 4.063-32.032q-1.4-54.273-5.363-108.384" fill="none" stroke="#3f3d56" stroke-miterlimit="10" stroke-width="4" transform="translate(306.239 461.598)"/><path d="m1183.632 599.388a39.466 39.466 0 0 0 -19.723-32.377l-8.856 17.509.264-21.206a39.991 39.991 0 0 0 -13.02-1.564 39.527 39.527 0 1 0 41.334 37.638z" fill="#001f40" transform="translate(340.055 441.459)"/><path d="m1146.71 741.236a39.506 39.506 0 1 1 1.909-31.829l-24.7 20.088 27.218-6.337a39.4 39.4 0 0 1 -4.427 18.078z" fill="#001f40" transform="translate(306.494 567.2)"/><path d="m1120.219 714.336a39.526 39.526 0 0 1 -41.334-37.638 39.085 39.085 0 0 1 3.412-18.017 39.59 39.59 0 0 1 25.309-21.916l-.224 16.249 8.958-17.712h.1a39.529 39.529 0 0 1 3.7 78.972z" fill="#001f40" transform="translate(313.466 517.301)"/><path d="m1167.466 682.89a39.543 39.543 0 1 1 17.468-73.976l-6.987 19.134 14.381-13.792a39.408 39.408 0 0 1 12.817 27.279 38.618 38.618 0 0 1 -1.016 10.887 39.548 39.548 0 0 1 -36.663 30.468z" fill="#001f40" transform="translate(362.172 484.907)"/><path d="m1178.3 598.938c-9.12 1-17.976 3.839-27.137 4.408s-19.215-1.625-25-8.754c-3.128-3.819-4.671-8.673-7.312-12.857a28.008 28.008 0 0 0 -9.953-9.364 39.527 39.527 0 1 0 73.895 26.222c-1.507.081-2.993.182-4.493.345z" opacity=".1" transform="translate(340.064 452.452)"/><path d="m1167.452 671.385a39.567 39.567 0 0 1 -37.6-56.385 29.622 29.622 0 0 1 7.941 7.962c2.823 4.245 4.53 9.161 7.84 13.061 6.094 7.251 16.676 9.607 26.2 9.181s18.749-3.149 28.254-4.063c1.321-.122 2.661-.2 4.063-.244a39.547 39.547 0 0 1 -36.7 30.488z" opacity=".1" transform="translate(362.186 496.411)"/><path d="m1120.219 702.444a39.527 39.527 0 0 1 -41.334-37.638 39.085 39.085 0 0 1 3.412-18.017 31.809 31.809 0 0 1 8.348 8.125c3.067 4.326 5 9.323 8.592 13.325 6.663 7.414 17.875 10.034 27.969 9.79 9.791-.2 19.215-2.6 28.944-3.352a39.546 39.546 0 0 1 -35.931 27.767z" opacity=".1" transform="translate(313.466 529.192)"/><path d="m1146.776 728.375a39.527 39.527 0 0 1 -72.066-32.255 39.815 39.815 0 0 1 8.673 7.739c3.757 4.59 6.236 9.79 10.583 14.056 8.125 7.921 21.124 11.192 32.743 11.5a168.314 168.314 0 0 0 20.067-1.04z" opacity=".1" transform="translate(306.429 580.06)"/><path d="m176.087 909.925c-8.368-15.518 1.137-34.53 12.065-48.383s24.252-28.234 23.968-45.885c-.406-25.329-27.3-40.3-48.748-53.745a237.827 237.827 0 0 1 -43.833-35.221 64.347 64.347 0 0 1 -13.467-18.037c-4.448-9.912-4.306-21.185-4.062-32.032q1.4-54.273 5.362-108.384" fill="none" stroke="#3f3d56" stroke-miterlimit="10" stroke-width="4" transform="translate(-693.92 448.193)"/><path d="m84.5 586.389a39.466 39.466 0 0 1 19.723-32.377l8.856 17.509-.264-21.206a40 40 0 0 1 13.02-1.564 39.527 39.527 0 1 1 -41.335 37.638z" fill="#001f40" transform="translate(-711.917 428.054)"/><path d="m121.428 728.236a39.506 39.506 0 1 0 -1.909-31.829l24.7 20.088-27.219-6.337a39.406 39.406 0 0 0 4.428 18.078z" fill="#001f40" transform="translate(-678.361 553.794)"/><path d="m147.827 701.335a39.527 39.527 0 0 0 41.335-37.635 39.079 39.079 0 0 0 -3.412-18.016 39.588 39.588 0 0 0 -25.309-21.917l.223 16.25-8.957-17.717a39.53 39.53 0 0 0 -3.7 78.973z" fill="#001f40" transform="translate(-685.24 503.896)"/><path d="m100.7 669.887a39.543 39.543 0 1 0 -17.367-73.976l6.987 19.134-14.48-13.73a39.405 39.405 0 0 0 -12.817 27.218 38.592 38.592 0 0 0 1.016 10.887 39.547 39.547 0 0 0 36.661 30.467z" fill="#001f40" transform="translate(-734.068 471.504)"/><path d="m89.379 585.938c9.12 1 17.976 3.839 27.137 4.408s19.215-1.625 25-8.754c3.128-3.819 4.672-8.673 7.312-12.858a28.01 28.01 0 0 1 9.953-9.364 39.527 39.527 0 1 1 -73.891 26.223c1.503.081 2.986.182 4.489.345z" opacity=".1" transform="translate(-711.472 439.047)"/><path d="m100.183 658.385a39.567 39.567 0 0 0 37.598-56.385 29.62 29.62 0 0 0 -7.942 7.962c-2.823 4.245-4.53 9.161-7.84 13.06-6.094 7.252-16.676 9.608-26.2 9.181s-18.748-3.148-28.254-4.062c-1.32-.122-2.661-.2-4.062-.244a39.547 39.547 0 0 0 36.7 30.488z" opacity=".1" transform="translate(-733.549 483.006)"/><path d="m147.032 689.444a39.527 39.527 0 0 0 41.335-37.638 39.079 39.079 0 0 0 -3.412-18.016 31.808 31.808 0 0 0 -8.348 8.125c-3.067 4.326-5 9.323-8.592 13.324-6.662 7.414-17.874 10.034-27.969 9.791-9.79-.2-19.215-2.6-28.944-3.352a39.547 39.547 0 0 0 35.93 27.766z" opacity=".1" transform="translate(-684.445 515.787)"/><path d="m119.18 715.375a39.527 39.527 0 0 0 72.066-32.255 39.813 39.813 0 0 0 -8.673 7.739c-3.758 4.59-6.236 9.79-10.582 14.056-8.125 7.921-21.124 11.192-32.743 11.5a168.371 168.371 0 0 1 -20.068-1.036z" opacity=".1" transform="translate(-676.113 566.655)"/><path d="m920.645 688.576a31.544 31.544 0 0 0 -12.553-25.431c-.488-18.626-13.771-33.839-30.854-36.2a36.826 36.826 0 0 0 -24.538-27.457 31.2 31.2 0 0 0 -4.57-1.077h-.447l-.792-.1h-4.185c-17.427 0-31.93 13.324-34.916 30.895-11.273-2.6-21.612.771-23.46 7.9a9.647 9.647 0 0 0 .3 5.708c1.909 5.525 8.125 10.806 16.554 13.426l1.1.325c.548.163 1.1.284 1.645.406h.365a28.437 28.437 0 0 0 12.411 37.191 6.332 6.332 0 0 0 -.731.467 10.162 10.162 0 0 0 -2.437 3.412 49.5 49.5 0 0 0 -4.712 11.354c-.812 3.392-.955 6.946-2.031 10.3-1.848 6.094-6.6 11.436-7.15 17.915-.244 2.884.223 6.276-1.828 8.246a13.416 13.416 0 0 1 -1.625 1.2 12.55 12.55 0 0 0 -3.575 3.738 11.946 11.946 0 0 1 -2.377 3.29c-1.848 1.4-4.895 1.26-5.809 3.413s1.442 4.692.894 7.048c-.447 1.909-2.539 2.782-4.062 4.062a14.4 14.4 0 0 0 -3.453 6.561 21 21 0 0 1 -17.326-4.408 32.516 32.516 0 0 1 1.787 6.48c-2.417-2.58-6.4-3.331-9.344-4.672a29.843 29.843 0 0 1 -9.953-7.394l5.322-.731-23.562-35.749-6.947-1.422 6.236 11.964a3.737 3.737 0 0 0 -2.022 2.556 10.887 10.887 0 0 0 -.244 4.063 75.131 75.131 0 0 0 1.6 9.526l1.808 8.409a21.8 21.8 0 0 0 .589 2.336 23.685 23.685 0 0 0 -6.987.792 61.386 61.386 0 0 0 -14.482-3.433 7.39 7.39 0 0 0 -3.27.163 7.923 7.923 0 0 0 -3.047 2.478 97.481 97.481 0 0 0 -10.767 15.153c-12.654 22.018-29.553 41.233-45.376 61.138-10.928 4.448-21.937 8.673-32.966 12.858l-23.7 9.038c-4.733 1.808-9.648 3.656-14.685 3.332-2.275-.142-5.037-.488-6.317 1.442a12.2 12.2 0 0 0 -1.442 3.087c-.833 0-1.666.2-2.437.244h-.142c-1.5-3.737-2.8-7.739-5.687-10.46a3.534 3.534 0 0 0 -2.681 2.031c-.569 1.056-.914 2.214-1.564 3.189-1.28 1.869-3.494 2.783-5.078 4.367s-2.58 4.062-4.286 5.606a17.02 17.02 0 0 1 -8.125 3.148 51.288 51.288 0 0 0 -12.614 4.793 21.594 21.594 0 0 1 -4.672 2.153 17.589 17.589 0 0 1 -5.464.183l-12.553-.914a9.768 9.768 0 0 0 -3.351.143 6.236 6.236 0 0 0 -4.062 6.439 10.015 10.015 0 0 0 3.957 6.904 26.41 26.41 0 0 0 7.15 3.717 207.656 207.656 0 0 0 33.616 9.851v2.539a57.015 57.015 0 0 0 25.613 6.094 3.822 3.822 0 0 0 1.909-.345 4.246 4.246 0 0 0 1.6-2.519 103.577 103.577 0 0 0 5.017-24.6 12.657 12.657 0 0 0 4.53-1.158c4.327-1.178 8.612 1.788 13.061 2.275 5.484.589 10.583-2.6 15.762-4.57.752-.285 1.5-.528 2.255-.772a25.255 25.255 0 0 1 -5.18 5.017c-2.153 1.544-4.57 2.681-6.683 4.286a44.418 44.418 0 0 1 -5.626 4.367 33.932 33.932 0 0 1 -4.326 1.666 29.334 29.334 0 0 0 -6.094 3.067 12.671 12.671 0 0 0 -4.225 4.062 5.545 5.545 0 0 0 3.778 8.653 17.437 17.437 0 0 0 5.139.142c6.784-.508 13.548-1.137 20.312-1.747a56.945 56.945 0 0 0 8.511-1.219c1.483-.366 2.945-.853 4.428-1.239a35.822 35.822 0 0 1 7.739-1.158 6.42 6.42 0 0 1 2.255.223c1.584.508 2.7 2.031 4.306 2.438a6.648 6.648 0 0 0 3.067-.427 70.463 70.463 0 0 1 15.071-1.6c2.214-.122 4.814-.548 5.85-2.6 1.259-2.539-.853-5.383-1.686-8.125a24.5 24.5 0 0 1 -.691-5.322 33.193 33.193 0 0 0 -3.737-12.654 34.267 34.267 0 0 1 -2.783-5.768 146.827 146.827 0 0 0 27.707-14.056c5-3.108 10.156-6.459 15.8-7.6 6.581-1.32 13.365.427 19.845 2.3a446.325 446.325 0 0 1 45.478 15.864c7.109 2.9 14.218 5.992 21.49 8.125a33.458 33.458 0 0 0 7.617 7.434c4.875 3.148 10.826 4.062 16.554 4.509a217.191 217.191 0 0 0 23.277.874c5.931-.1 12.045-.508 17.346-3.209a20.1 20.1 0 0 0 3.636-2.4c4.062.731 8.226-1.442 11.415-4.225a27.624 27.624 0 0 0 8.734-13.71c1.869-7.333.427-15.884 4.936-21.876 1.2-1.6 2.762-2.9 3.94-4.529a12.186 12.186 0 0 0 2.032-7.375l.2-.3a27.392 27.392 0 0 0 2.038-7.4 42.293 42.293 0 0 1 2.031-5.829 176.091 176.091 0 0 0 5.971-17.326 95.118 95.118 0 0 0 2.763-11.883c.487-3.209.772-6.439 1.036-9.668a58.293 58.293 0 0 1 2.925-14.848 121.3 121.3 0 0 0 6.723-35.586v-.711a23.826 23.826 0 0 0 21.227-24.049 25.473 25.473 0 0 0 -2.194-10.379 32.218 32.218 0 0 0 4.225-16.145zm-114.864 139.562c.345 1.239.752 2.478 1.158 3.717-1.869-1.848-3.717-3.758-5.606-5.586.751.223 1.5.467 2.234.731a13.422 13.422 0 0 1 2.234 1.137zm-9.1-6.094c-11.09-9.628-23.927-17.1-35.281-26.405 6.094 3.067 12.187 6.622 18.281 10.034q10.643 6.094 21.53 11.659a17.514 17.514 0 0 1 -4.469 4.631zm4.733-24.252.528-.548v3.8c-1-.325-2.031-.65-2.986-1.015a25.223 25.223 0 0 0 2.478-2.316zm-97.639 26.081a92.053 92.053 0 0 0 11.842-16.879c4.387 7.7 11.537 13.243 17.631 19.682-9.791-1.381-19.6-2.458-29.452-2.884z" fill="url(#a)" transform="translate(-293.765 479.201)"/><path d="m574.53 545.12 7.007 1.422 23.863 35.258-10.542 1.422z" fill="#2f2e41" transform="translate(-148.676 664.316)"/><path d="m519.48 733.984a138.82 138.82 0 0 0 6.967 18.281 168.846 168.846 0 0 0 23.277-6.642 63.416 63.416 0 0 0 -4.834-6.561 22.8 22.8 0 0 0 -6.581-5.062c-2.417-1.057-5.4-.264-7.983-.122q-5.426.208-10.846.106z" fill="#fbbebe" transform="translate(-263.331 618.569)"/><path d="m568.773 748.466c-3.94-1.239-6.358-5.22-7.962-9.059s-2.9-8.023-5.951-10.846a3.555 3.555 0 0 0 -2.681 2.031c-.589 1.016-.934 2.174-1.6 3.148-1.259 1.828-3.494 2.722-5.1 4.286s-2.6 3.941-4.326 5.5a17.206 17.206 0 0 1 -8.125 3.128 51.493 51.493 0 0 0 -12.715 4.712 21.735 21.735 0 0 1 -4.713 2.034 17.848 17.848 0 0 1 -5.5.183l-12.654-.914a9.87 9.87 0 0 0 -3.372.163 6.094 6.094 0 0 0 -4.074 6.338 9.83 9.83 0 0 0 4.062 6.8 26.956 26.956 0 0 0 7.19 3.656 216.761 216.761 0 0 0 33.921 9.689v2.5a58.721 58.721 0 0 0 25.816 6.094 4.062 4.062 0 0 0 2.031-.345 4.224 4.224 0 0 0 1.625-2.478 99.9 99.9 0 0 0 5.261-27.5 20.646 20.646 0 0 0 -.528-7.068c-.691-2.275 1.666-1.32-.528-2.214" fill="#2f2e41" transform="translate(-293.755 613.512)"/><path d="m774.609 719.965c-37.516 2.275-74.565-8.734-112.142-9.912a56.082 56.082 0 0 0 -13.934.893 68.507 68.507 0 0 0 -13.812 5.363c-20.129 9.364-40.969 17.123-61.788 24.882l-23.887 8.9c-4.794 1.767-9.729 3.575-14.827 3.27-2.275-.142-5.058-.487-6.358 1.422-3.88 5.748-2.031 14.218.528 20.677.833 2.031 2.234 4.367 4.469 4.611a13.18 13.18 0 0 0 4.57-1.158c4.347-1.158 8.694 1.767 13.162 2.234 5.545.589 10.684-2.559 15.9-4.489 8.653-3.189 18.118-3.087 27.218-4.611 15.274-2.539 29.412-9.628 42.655-17.712 5.037-3.067 10.156-6.358 15.925-7.475 6.642-1.3 13.487.406 20.007 2.255a461.377 461.377 0 0 1 45.844 15.62 211.205 211.205 0 0 0 23.968 8.734 86.65 86.65 0 0 0 53.7-3.128c6.094-2.376 12.512-6.561 12.857-13.04.2-3.7-2.661-6.947-4.57-10.156-1.239-2.031-2.458-4.062-3.8-5.992-6.449-9.428-14.294-21.879-25.685-21.188z" fill="#2f2e41" transform="translate(-256.987 594.321)"/><path d="m774.609 719.965c-37.516 2.275-74.565-8.734-112.142-9.912a56.082 56.082 0 0 0 -13.934.893 68.507 68.507 0 0 0 -13.812 5.363c-20.129 9.364-40.969 17.123-61.788 24.882l-23.887 8.9c-4.794 1.767-9.729 3.575-14.827 3.27-2.275-.142-5.058-.487-6.358 1.422-3.88 5.748-2.031 14.218.528 20.677.833 2.031 2.234 4.367 4.469 4.611a13.18 13.18 0 0 0 4.57-1.158c4.347-1.158 8.694 1.767 13.162 2.234 5.545.589 10.684-2.559 15.9-4.489 8.653-3.189 18.118-3.087 27.218-4.611 15.274-2.539 29.412-9.628 42.655-17.712 5.037-3.067 10.156-6.358 15.925-7.475 6.642-1.3 13.487.406 20.007 2.255a461.377 461.377 0 0 1 45.844 15.62 211.205 211.205 0 0 0 23.968 8.734 86.65 86.65 0 0 0 53.7-3.128c6.094-2.376 12.512-6.561 12.857-13.04.2-3.7-2.661-6.947-4.57-10.156-1.239-2.031-2.458-4.062-3.8-5.992-6.449-9.428-14.294-21.879-25.685-21.188z" opacity=".1" transform="translate(-256.987 594.321)"/><path d="m554.93 742.535q8.816 2.986 17.752 5.525c3.352-5.5 9.607-9.323 11.03-15.6a1.461 1.461 0 0 0 0-.833 1.506 1.506 0 0 0 -.67-.609 33.211 33.211 0 0 0 -13.914-4.063c-3.859-.243-5.606 3.778-7.353 6.6-.609 1.139-5.281 9.508-6.845 8.98z" fill="#fbbebe" transform="translate(-226.776 611.846)"/><path d="m588.434 737.189a12.775 12.775 0 0 1 -8.633-5.667c-.833-1.442-1.706-3.392-3.372-3.291s-2.234 1.93-2.58 3.453a98.65 98.65 0 0 1 -4.849 16.677 31.26 31.26 0 0 1 -10.379 13.629c-2.174 1.5-4.591 2.64-6.723 4.225a44.478 44.478 0 0 1 -5.687 4.306 32.058 32.058 0 0 1 -4.367 1.625 30 30 0 0 0 -6.236 3.026 12.7 12.7 0 0 0 -4.245 4.063 5.463 5.463 0 0 0 3.7 8.551 18.421 18.421 0 0 0 5.18.122c6.845-.508 13.67-1.117 20.495-1.727a58.217 58.217 0 0 0 8.582-1.181c1.5-.365 2.966-.853 4.448-1.239a37.653 37.653 0 0 1 7.82-1.137 6.63 6.63 0 0 1 2.275.224c1.584.508 2.7 2.031 4.326 2.4a6.7 6.7 0 0 0 3.087-.406 73.128 73.128 0 0 1 15.193-1.584c2.234-.122 4.875-.549 5.891-2.56 1.28-2.5-.833-5.3-1.686-7.982a25.047 25.047 0 0 1 -.711-5.241 31.916 31.916 0 0 0 -3.758-12.451c-1.747-3.209-4.062-6.744-2.9-10.156a8.9 8.9 0 0 0 1.158-3.474c-.287-5.505-12.942-3.474-16.029-4.205z" fill="#2f2e41" transform="translate(-252.013 613.17)"/><path d="m636.619 702.008a29.412 29.412 0 0 1 -14.949-14.848c-.609-1.422-1.137-2.905-1.727-4.347a33.245 33.245 0 0 0 -8.937-12.39 4.286 4.286 0 0 0 -3.311-1.4 3.534 3.534 0 0 0 -2.437 2.6 10.661 10.661 0 0 0 -.264 4.063 76.443 76.443 0 0 0 1.625 9.363l1.828 8.288a16.255 16.255 0 0 0 1.137 3.7 12.882 12.882 0 0 0 3.047 3.636c1.666 1.544 3.352 3.027 5.058 4.469a17.894 17.894 0 0 0 3.067 2.234 18.8 18.8 0 0 0 5.708 1.666c7.454 1.381 15.031 3.371 21.307 8.124 0 0 0-5.545-.142-6.094a8.123 8.123 0 0 0 -1.584-4.448c-2.357-2.545-6.42-3.296-9.426-4.616z" fill="#fbbebe" transform="translate(-175.24 552.114)"/><path d="m636.619 702.008a29.412 29.412 0 0 1 -14.949-14.848c-.609-1.422-1.137-2.905-1.727-4.347a33.245 33.245 0 0 0 -8.937-12.39 4.286 4.286 0 0 0 -3.311-1.4 3.534 3.534 0 0 0 -2.437 2.6 10.661 10.661 0 0 0 -.264 4.063 76.443 76.443 0 0 0 1.625 9.363l1.828 8.288a16.255 16.255 0 0 0 1.137 3.7 12.882 12.882 0 0 0 3.047 3.636c1.666 1.544 3.352 3.027 5.058 4.469a17.894 17.894 0 0 0 3.067 2.234 18.8 18.8 0 0 0 5.708 1.666c7.454 1.381 15.031 3.371 21.307 8.124 0 0 0-5.545-.142-6.094a8.123 8.123 0 0 0 -1.584-4.448c-2.357-2.545-6.42-3.296-9.426-4.616z" opacity=".1" transform="translate(-175.24 552.114)"/><ellipse cx="9.12" cy="9.181" fill="#2f2e41" rx="9.12" ry="9.181" transform="translate(528.632 1172.387)"/><path d="m687.441 646.939a10.157 10.157 0 0 0 -7.211 1.036 9.715 9.715 0 0 0 -2.458 3.372 47.918 47.918 0 0 0 -4.753 11.171c-.812 3.352-.954 6.845-2.031 10.156-1.868 6.094-6.662 11.273-7.211 17.631-.244 2.844.224 6.2-1.848 8.125a11.944 11.944 0 0 1 -1.645 1.158 12.468 12.468 0 0 0 -3.6 3.7 11.721 11.721 0 0 1 -2.539 3.514c-1.868 1.381-4.936 1.239-5.85 3.372s1.442 4.611.894 6.926c-.447 1.889-2.56 2.762-4.062 4.062a14.056 14.056 0 0 0 -3.473 6.479 21.51 21.51 0 0 1 -17.448-4.367c2.539 6.276 2.6 13.2 2.7 19.966a8.247 8.247 0 0 1 -1.6 6.094c7.272.163 14.34 2.031 21.429 3.717a14.711 14.711 0 0 0 9.344 0 15.436 15.436 0 0 0 4.286-3.412c3.859-3.92 7.9-8.125 8.835-13.589a73.7 73.7 0 0 0 .162-9.242 53.045 53.045 0 0 1 2.336-11.192 130.859 130.859 0 0 0 4.063-23.054c.427-4.814 4.57-8.673 6.764-12.979 4.063-8.125 8.328-16.554 8.653-25.654.285-2.968-.731-6.604-3.737-6.99z" fill="#2f2e41" transform="translate(-155.336 529.084)"/><path d="m687.441 646.939a10.157 10.157 0 0 0 -7.211 1.036 9.715 9.715 0 0 0 -2.458 3.372 47.918 47.918 0 0 0 -4.753 11.171c-.812 3.352-.954 6.845-2.031 10.156-1.868 6.094-6.662 11.273-7.211 17.631-.244 2.844.224 6.2-1.848 8.125a11.944 11.944 0 0 1 -1.645 1.158 12.468 12.468 0 0 0 -3.6 3.7 11.721 11.721 0 0 1 -2.539 3.514c-1.868 1.381-4.936 1.239-5.85 3.372s1.442 4.611.894 6.926c-.447 1.889-2.56 2.762-4.062 4.062a14.056 14.056 0 0 0 -3.473 6.479 21.51 21.51 0 0 1 -17.448-4.367c2.539 6.276 2.6 13.2 2.7 19.966a8.247 8.247 0 0 1 -1.6 6.094c7.272.163 14.34 2.031 21.429 3.717a14.711 14.711 0 0 0 9.344 0 15.436 15.436 0 0 0 4.286-3.412c3.859-3.92 7.9-8.125 8.835-13.589a73.7 73.7 0 0 0 .162-9.242 53.045 53.045 0 0 1 2.336-11.192 130.859 130.859 0 0 0 4.063-23.054c.427-4.814 4.57-8.673 6.764-12.979 4.063-8.125 8.328-16.554 8.653-25.654.285-2.968-.731-6.604-3.737-6.99z" opacity=".1" transform="translate(-155.336 529.084)"/><path d="m746.3 757.96c-7.82-3.717-13.528-10.644-19.845-16.574-12.065-11.334-26.812-19.337-39.486-29.96-8.389-7.028-15.9-15.214-25.146-21.1a62.436 62.436 0 0 0 -26.934-9.445 7.473 7.473 0 0 0 -3.29.163 7.9 7.9 0 0 0 -3.067 2.437 95.72 95.72 0 0 0 -10.867 14.929c-16.066 27.259-38.877 50.19-57.787 75.56a3.392 3.392 0 0 0 -.223 4.591l3.839 7.536c2.153 4.2 5.606 9.12 10.156 8.287a11.269 11.269 0 0 0 5.383-3.433l17.265-16.513 18.1-17.306c10.6-10.156 21.388-20.515 28.315-33.474 5.4 9.364 14.99 15.5 21.571 24.09 2.5 3.25 4.53 6.845 6.764 10.3 3.595 5.545 7.657 10.745 11.72 15.924l20.779 26.507a40.2 40.2 0 0 0 9.607 9.75c4.916 3.108 10.907 3.94 16.7 4.448a215.124 215.124 0 0 0 23.46.853c5.972-.1 12.187-.488 17.468-3.149s9.77-8.125 9.485-14.076a20.9 20.9 0 0 0 -2.986-8.795c-7.343-13.61-17.052-24.99-30.981-31.55z" fill="#2f2e41" transform="translate(-222.721 564.227)"/><ellipse cx="7.008" cy="7.048" fill="#e8e8f0" rx="7.008" ry="7.048" transform="translate(536.35 1180.877)"/><path d="m665 661.238a13.408 13.408 0 0 1 .772 10.156 39.262 39.262 0 0 1 -4.509 9.343 46.545 46.545 0 0 1 -5.87 8.369c10.826.528 21.327-3.717 30.874-8.876 7.7-4.062 15.376-9.242 19.479-16.981a9.02 9.02 0 0 1 -7.17-1.32 26.838 26.838 0 0 1 -5.5-5.119l-5.424-6.094a24.387 24.387 0 0 1 -3.352-4.407 12.191 12.191 0 0 1 -1.442-7.089 40.638 40.638 0 0 1 -7.19 5.972c-3.879 2.539-8.125 4.367-12.045 6.865-1.381.894-4.448 2.336-3.656 4.062s3.933 3.169 5.033 5.119z" fill="#fbbebe" transform="translate(-123.183 521.386)"/><path d="m665 661.238a13.408 13.408 0 0 1 .772 10.156 39.262 39.262 0 0 1 -4.509 9.343 46.545 46.545 0 0 1 -5.87 8.369c10.826.528 21.327-3.717 30.874-8.876 7.7-4.062 15.376-9.242 19.479-16.981a9.02 9.02 0 0 1 -7.17-1.32 26.838 26.838 0 0 1 -5.5-5.119l-5.424-6.094a24.387 24.387 0 0 1 -3.352-4.407 12.191 12.191 0 0 1 -1.442-7.089 40.638 40.638 0 0 1 -7.19 5.972c-3.879 2.539-8.125 4.367-12.045 6.865-1.381.894-4.448 2.336-3.656 4.062s3.933 3.169 5.033 5.119z" opacity=".1" transform="translate(-123.183 521.386)"/><path d="m681.948 651.188a9.16 9.16 0 0 0 0 10.582c.3.386 1.463 2.8 2.031 2.823a1.85 1.85 0 0 0 1.239-.63 86.1 86.1 0 0 0 6.865-8.125 15.152 15.152 0 0 1 8.734-5.728c4.245-.67 8.328 1.584 12.045 3.737a11.5 11.5 0 0 1 4.063 3.372 11.074 11.074 0 0 1 1.361 4.59 214.907 214.907 0 0 1 1.219 29.168 112.215 112.215 0 0 1 -1.381 20.982c-.691 3.575-1.727 7.068-2.214 10.684a71.82 71.82 0 0 0 -.427 9.587v13.406a34 34 0 0 0 .528 7.333 89.52 89.52 0 0 0 2.945 8.511 56.1 56.1 0 0 1 2.031 10.156l1.828 13.873c.589 4.387 1.016 9.161-1.646 12.675-1.178 1.6-2.762 2.864-4.062 4.448-4.57 5.809-3.047 14.239-5.078 21.449a27.161 27.161 0 0 1 -8.815 13.508c-3.23 2.742-7.414 4.915-11.6 4.062-5.626-1.056-9.018-6.926-10.562-12.472s-2.031-11.6-5.423-16.25c-2.722-3.839-6.926-6.235-10.724-8.978s-7.536-6.256-8.369-10.887c-.366-2.031-.142-4.062-.345-6.094a14.523 14.523 0 0 0 -8.978-11.781c-2.884-1.117-6.459-1.523-8.125-4.062a19.56 19.56 0 0 0 8.45-11.354 58.3 58.3 0 0 0 2.031-14.218l.975-16.128c.427-7.21.629-14.36 3.8-20.84 1.422-2.884 3.189-5.606 4.652-8.47a94 94 0 0 0 5-12.431c2.295-6.6 4.611-13.223 6.662-19.906a39.458 39.458 0 0 1 3.656-9.282c1.886-3.045 4.386-6.698 7.634-7.31z" fill="#e8e8f0" transform="translate(-139.992 532.493)"/><path d="m642.79 757.378 4.265.142.914-6.439a13.892 13.892 0 0 1 .894-3.758 23.947 23.947 0 0 1 2.458-3.595c4.2-5.931 3.9-13.812 4.936-21.023 1.381-9.608 5.4-18.626 9.384-27.482l8.287-18.464a26.555 26.555 0 0 0 1.767-4.732 25.952 25.952 0 0 0 .508-5.464c0-2.843.935-13.223 1-16.086 0-1.056-2.316-.467-2.8-1.4-1.036-2.031-2.458 3.494-4.407 4.712a10.807 10.807 0 0 0 -3.819 5.585c-1.787 4.652-2.884 9.547-4.55 14.219a29.225 29.225 0 0 1 -7.739 12.573c-1.686 1.5-3.656 2.681-5.261 4.265-5.159 5.1-5.647 13.142-5.83 20.312-.129 4.447-.962 46.635-.007 46.635z" fill="#2f2e41" transform="translate(-136.643 531.091)"/><path d="m692.575 647.029c-4.062 1.625-6.418 6.094-7.576 10.44s-1.645 8.937-3.88 12.8c-5.2 9.059-18.463 11.7-22.14 21.49a39.311 39.311 0 0 0 -1.483 10.156c-.65 7.008-2.965 13.792-3.656 20.8a91.693 91.693 0 0 0 .386 16.351l4.651 55.309a73.128 73.128 0 0 1 -1.4 24.374 23.421 23.421 0 0 0 13.934-2.3c4.367-2.031 8.348-4.712 12.532-7.028 7.211-4.062 15.173-6.8 21.47-12.187a12.732 12.732 0 0 0 2.9-3.189 27.438 27.438 0 0 0 2.031-7.292 41.037 41.037 0 0 1 2.031-5.728 169.987 169.987 0 0 0 6.093-17.062 91.828 91.828 0 0 0 2.783-11.72c.508-3.148.772-6.337 1.056-9.506a56.006 56.006 0 0 1 2.945-14.625 117.258 117.258 0 0 0 6.764-35.038 17.546 17.546 0 0 0 -.345-5.159 27.635 27.635 0 0 0 -2.8-5.85c-1.929-3.636-3.087-7.637-4.916-11.314-4.062-8.328-11.354-14.645-18.971-19.946-3.898-2.577-8.184-5.381-12.409-3.776z" fill="#2f2e41" transform="translate(-124.985 528.953)"/><path d="m650.687 700.641a33.308 33.308 0 0 1 -8.835-6.7c-1.158-1.361-2.031-2.884-3.291-4.225a21.711 21.711 0 0 0 -11.11-6.337 53.608 53.608 0 0 0 -12.878-1.239 22.875 22.875 0 0 0 -8.551 1.036 8.632 8.632 0 0 0 -5.687 6.094c-.63 3.453 1.625 6.8 4.326 9a20.9 20.9 0 0 0 8.633 4.2 71.587 71.587 0 0 0 7.8.914c15.356 1.6 29.066 9.953 42.512 17.57q17.733 10.014 36.155 18.748a72.381 72.381 0 0 0 .609-11.09c0-2.762-.2-6.987-2.823-8.612-3.047-1.909-8.125-2.336-11.5-3.473a182.466 182.466 0 0 1 -23.135-9.344c-4.242-2.053-8.305-4.226-12.225-6.542z" fill="#fbbebe" transform="translate(-180.066 565.586)"/><ellipse cx="27.36" cy="27.522" fill="#fbbebe" rx="27.36" ry="27.522" transform="translate(510.392 1124.431)"/><path d="m710.864 663.926a44.482 44.482 0 0 0 -5.3 9.892c-3.392 6.967-8.693 12.938-11.334 20.312-2.8 7.657-2.7 16.778-8.125 22.81a7.862 7.862 0 0 0 -2.376 3.453 17.108 17.108 0 0 1 -.284 2.5c-.772 2.194-4.367 2.3-5.038 4.53-.183.65 0 1.361-.325 2.031-.549 1.442-2.437 1.645-3.717 2.519-2.661 1.808-2.031 5.992-4.062 8.592a7.21 7.21 0 0 1 -6.824 2.4 25.318 25.318 0 0 1 -7.109-2.661 6.372 6.372 0 0 0 -2.539-.792 5.178 5.178 0 0 0 -2.945 1c-5.058 3.209-7.434 9.587-7.394 15.6a50.773 50.773 0 0 0 4.2 17.427 7.332 7.332 0 0 0 1.4 2.6c1.666 1.767 4.59 1.483 6.825.487a31.775 31.775 0 0 1 6.642-2.965c4.225-.772 8.368 2.153 12.654 1.909a17.831 17.831 0 0 0 8.551-3.778 47.321 47.321 0 0 0 11.537-9.851c1.869-2.458 3.25-5.261 4.9-7.881a89.324 89.324 0 0 1 6.906-9.222l15.782-19.316a41.511 41.511 0 0 0 4.245-5.87 43.029 43.029 0 0 0 3.311-8.815 69.689 69.689 0 0 0 3.27-15.7 62.653 62.653 0 0 0 -1.158-13.182 45.786 45.786 0 0 0 -3.392-12.532c-3.514-7.123-11.865-13.012-18.301-5.497z" fill="#2f2e41" transform="translate(-135.455 543.255)"/><path d="m773.658 689.788a30.812 30.812 0 0 0 -12.675-25.045 36.561 36.561 0 0 0 -31.1-35.647 35.546 35.546 0 0 0 -70.015 1.889c-11.375-2.559-21.774.771-23.663 7.779-2.031 7.333 6.094 15.9 18.118 19.154a33.293 33.293 0 0 0 11.6 1.158 35.647 35.647 0 0 0 24.5 15.234 36.419 36.419 0 0 0 26.71 27.563 30.468 30.468 0 0 0 8.246 11.416c0 .853-.142 1.726-.142 2.62a23.176 23.176 0 1 0 46.311 0 24.376 24.376 0 0 0 -2.217-10.161 31.133 31.133 0 0 0 4.327-15.96z" fill="#f86d70" transform="translate(-143.284 481.543)"/><path d="m643.968 640.25c1.889-7.008 12.187-10.339 23.663-7.779a36.135 36.135 0 0 1 35.2-30.471h2.356a34.529 34.529 0 0 0 -10.156-1.5 36.135 36.135 0 0 0 -35.2 30.468c-11.375-2.559-21.774.772-23.663 7.78-2.031 7.332 6.094 15.9 18.118 19.154a34.822 34.822 0 0 0 6.845 1.178c-11.415-3.332-19.093-11.66-17.163-18.83z" opacity=".1" transform="translate(-143.326 481.459)"/><path d="m717.255 687.016a16.326 16.326 0 0 1 .142-2.64 30.343 30.343 0 0 1 -8.246-11.4 36.562 36.562 0 0 1 -26.71-27.583 35.586 35.586 0 0 1 -24.5-15.234 32.352 32.352 0 0 1 -6.825-.183 35.525 35.525 0 0 0 23.6 14.015 36.419 36.419 0 0 0 26.71 27.563 30.47 30.47 0 0 0 8.247 11.416c0 .853-.142 1.726-.142 2.62a23.582 23.582 0 0 0 23.034 23.968 23.926 23.926 0 0 1 -15.31-22.542z" opacity=".1" transform="translate(-127.586 511.858)"/><ellipse cx="4.225" cy="5.626" fill="#fbbebe" rx="4.225" ry="5.626" transform="matrix(.79631882 -.60487712 .60487712 .79631882 540.104016 1155.630247)"/><path d="m390.044 731.761 27.055-15.9a65 65 0 0 0 -13.832-16.561l-51.023 15.864 39.974-23.5a65 65 0 0 0 -96.218 57.017c0 35.891 29.107 37.13 65 37.13s65-1.239 65-37.13a64.49 64.49 0 0 0 -5.586-26.406z" fill="#001f40" transform="translate(-493.779 567.23)"/><path d="m396.929 745.545a50.765 50.765 0 0 0 -9.587-7.536c-4.9-3.271-9.993-6.6-15.782-7.7-5.078-.975-10.318-.142-15.5-.447a36.217 36.217 0 0 1 -23.745-10.887c-3.7-3.819-6.6-8.51-11.05-11.436a24.171 24.171 0 0 0 -16.534-3.026 40.086 40.086 0 0 0 -4.9 1 65 65 0 0 0 -3.831 22.056c0 35.891 29.107 37.13 65 37.13 17.427 0 33.23-.284 44.909-4.692l-2.031-3.636a50.523 50.523 0 0 0 -6.949-10.826z" opacity=".1" transform="translate(-493.779 588.341)"/></g></svg>