<svg id="Componente_35_1" data-name="Componente 35 – 1" xmlns="http://www.w3.org/2000/svg" xmlns:xlink="http://www.w3.org/1999/xlink" width="371.738" height="321.028" viewBox="0 0 371.738 321.028">
  <defs>
    <clipPath id="clip-path">
      <rect id="Retângulo_3158" data-name="Retângulo 3158" width="110.59" height="197.913" rx="12.814" fill="none"/>
    </clipPath>
  </defs>
  <g id="Background_Simple" data-name="Background Simple" transform="translate(37.624)">
    <g id="Grupo_8089" data-name="Grupo 8089">
      <path id="Caminho_13093" data-name="Caminho 13093" d="M287.511,78.3c-16.579,9.855-29.784,24.467-45.506,35.637-20.024,14.227-43.659,22.535-67.489,28.486-29.688,7.415-62.7,12.845-82.673,36.031-17.172,19.939-20.2,48.8-15.818,74.746C96.3,373.318,289.695,366.552,350.7,287.375c32.477-42.153,95.572-175.034,26.8-213.727a56.869,56.869,0,0,0-9.674-4.239C342.36,60.8,310.554,64.6,287.511,78.3Z" transform="translate(-74.228 -64.817)" fill="#ffb77b"/>
      <path id="Caminho_13094" data-name="Caminho 13094" d="M287.511,78.3c-16.579,9.855-29.784,24.467-45.506,35.637-20.024,14.227-43.659,22.535-67.489,28.486-29.688,7.415-62.7,12.845-82.673,36.031-17.172,19.939-20.2,48.8-15.818,74.746C96.3,373.318,289.695,366.552,350.7,287.375c32.477-42.153,95.572-175.034,26.8-213.727a56.869,56.869,0,0,0-9.674-4.239C342.36,60.8,310.554,64.6,287.511,78.3Z" transform="translate(-74.228 -64.817)" fill="#ffb77b" opacity="0.7"/>
    </g>
  </g>
  <g id="Plants" transform="translate(38.251 201.183)">
    <g id="freepik--Plants--inject-2" transform="translate(245.495)">
      <path id="Caminho_13095" data-name="Caminho 13095" d="M418.168,337.517s2.082-2.532,2.194-2.707c1.282-2.056,2.552-6.757.808-8.859a3.2,3.2,0,0,0-4.523-.271,3.525,3.525,0,0,0-.255.253c-1.324,1.371-1.477,3.729-1.194,5.514C415.519,333.555,418.159,337.513,418.168,337.517Z" transform="translate(-366.175 -300.963)" fill="#ff7d00"/>
      <path id="Caminho_13096" data-name="Caminho 13096" d="M431.176,324.061l-.285-.2c-2.345-1.366-6.78.7-8.587,2.315-.155.145-2.3,2.625-2.3,2.625l.047.021c-.7.32-1.432.679-2.264,1.074-1.47.763-3.172,1.614-4.934,2.676a56.169,56.169,0,0,0-5.541,3.7,42.114,42.114,0,0,0-5.533,4.971l1.267-2.829c.7-2.317.679-7.212-1.553-8.754a3.2,3.2,0,0,0-4.433.927,3.56,3.56,0,0,0-.185.312c-.92,1.676-.434,3.993.3,5.644.835,1.864,4.15,4.793,4.419,5.026a56.477,56.477,0,0,0-4.65,6c-.829,1.22-1.628,2.476-2.409,3.74l.568-1.269c.7-2.316.689-7.207-1.543-8.749a3.221,3.221,0,0,0-4.451.941l-.167.3c-.919,1.676-.443,3.988.3,5.64s3.531,4.233,4.274,4.894l-.9,1.471c-1.4,2.352-2.806,4.7-4.249,6.968-.515.8-1.04,1.566-1.565,2.335l.488-1.091c.7-2.326.684-7.221-1.548-8.763a3.221,3.221,0,0,0-4.451.941l-.167.3c-.924,1.685-.444,3.988.3,5.653s3.254,3.974,4.14,4.767c-.562.775-1.123,1.55-1.706,2.271-.412.493-.77.988-1.2,1.448s-.846.93-1.255,1.391c-.834.856-1.686,1.749-2.514,2.564-.57.569-1.138,1.1-1.7,1.645.514-.8,1.495-2.355,1.558-2.5a12.423,12.423,0,0,0,.956-6.218,4.181,4.181,0,0,0,.244-.67,3.213,3.213,0,0,0-2.13-4.013c-.113-.027-.22-.064-.336-.082-2.683-.435-6.079,3.089-7.181,5.248-.059.132-.62,1.585-.954,2.508.119-.568.233-1.126.342-1.721.217-1.167.407-2.346.611-3.609.085-.616.16-1.238.244-1.854s.116-1.291.171-1.944c.107-1.5.138-3.03.142-4.574,1.041.195,4.677.82,6.444.4s3.9-1.439,4.659-3.2a3.22,3.22,0,0,0-1.5-4.293c-.1-.046-.207-.093-.315-.129-2.585-.831-6.484,2.129-7.9,4.1-.059.132-.949,1.64-1.407,2.485,0-.927,0-1.853-.049-2.787-.106-2.711-.292-5.446-.477-8.182l-.153-2.506c.363.072,4.691.916,6.672.449,1.767-.416,3.89-1.452,4.664-3.2a3.211,3.211,0,0,0-1.579-4.262,2.865,2.865,0,0,0-.687-.229c-2.585-.83-6.474,2.134-7.894,4.093-.076.17-1.334,2.348-1.623,2.919-.106-1.831-.2-3.666-.21-5.477a54.578,54.578,0,0,1,.384-7.333c.15.068,4.67.962,6.7.452,1.767-.416,3.9-1.438,4.659-3.195a3.226,3.226,0,0,0-1.51-4.288c-.1-.046-.207-.093-.314-.13-2.585-.83-6.475,2.134-7.885,4.1-.063.14-1.04,1.792-1.471,2.6l-.132-.059a40.909,40.909,0,0,1,1.678-7.149c.42-1.291.885-2.5,1.361-3.668.822.256,4.6,1.372,6.475,1.14s4.024-1,4.982-2.656a3.225,3.225,0,0,0-1.038-4.437,1.824,1.824,0,0,0-.288-.164c-2.482-1.111-6.671,1.414-8.3,3.2-.055.122-.876,1.2-1.437,2l.7-1.551c.842-1.88,1.73-3.536,2.53-4.994.463-.831.887-1.578,1.305-2.26.938-.177,4.71-.915,6.233-1.971s3.111-2.737,3.209-4.645a3.21,3.21,0,0,0-2.919-3.463,3.529,3.529,0,0,0-.369-.007c-2.709.152-5.313,4.3-5.889,6.673a27.274,27.274,0,0,0-.428,3.476c-.42.659-.85,1.369-1.3,2.149-.828,1.445-1.759,3.094-2.648,4.954q-.5,1.031-.962,2.074c-.584,1.33-1.126,2.689-1.606,4.066a41.192,41.192,0,0,0-1.883,7.2l-.038.085c-.107-.793-.5-2.98-.558-3.139-.7-2.321-3.407-6.4-6.134-6.461a3.21,3.21,0,0,0-3.182,3.248,1.68,1.68,0,0,0,.019.336c.24,1.834,1.893,3.534,3.423,4.5,1.758,1.115,6.108,1.709,6.456,1.763a56.6,56.6,0,0,0-.563,7.557c-.02,1.481.006,2.96.047,4.457-.112-.682-.235-1.291-.256-1.368-.7-2.321-3.412-6.392-6.139-6.452a3.206,3.206,0,0,0-3.186,3.235,3.046,3.046,0,0,0,.02.358c.159,1.911,1.8,3.547,3.361,4.542s5.282,1.587,6.287,1.687c.024.575.039,1.146.068,1.712.117,2.738.256,5.475.3,8.157.022.958,0,1.885-.009,2.817-.113-.6-.2-1.107-.209-1.222-.7-2.321-3.411-6.392-6.139-6.452a3.191,3.191,0,0,0-3.2,3.207,2.783,2.783,0,0,0,.029.441c.159,1.911,1.793,3.557,3.36,4.541s4.953,1.542,6.089,1.7c-.042.951-.089,1.912-.146,2.846-.07.634-.094,1.245-.206,1.871s-.183,1.239-.276,1.851c-.222,1.175-.438,2.388-.685,3.519-.164.8-.335,1.554-.5,2.3-.008-.94-.054-2.778-.074-2.933-.343-2.411-2.411-6.836-5.083-7.3a3.216,3.216,0,0,0-3.608,2.763c-.014.106-.023.2-.028.314-.132,1.905,1.278,3.8,2.637,5,1.5,1.305,5.572,2.552,6.073,2.72-.288,1.247-.577,2.472-.865,3.619-1,3.966-1.984,7.226-2.7,9.5-.084.29-.174.565-.261.809l1.632.765c.12-.319.192-.682.313-1.078.676-2.316,1.591-5.642,2.512-9.665.3-1.276.584-2.639.874-4.044a37.826,37.826,0,0,0,4.1-.073c.654,1.941,3.177,5,3.508,5.4-.926.883-1.839,1.737-2.714,2.531-3.022,2.766-5.607,4.96-7.494,6.451q-.435.33-.789.628l1.9.9.107-.087c1.828-1.563,4.443-3.822,7.434-6.67.943-.9,1.963-1.864,2.956-2.9.424.314,3.885,2.79,5.839,3.191,1.781.357,4.135.317,5.575-.956a3.217,3.217,0,0,0,.425-4.528,2.894,2.894,0,0,0-.228-.248c-2-1.842-6.773-.776-8.885.41-.125.08-1.392.991-2.183,1.574.411-.415.8-.772,1.233-1.242.835-.856,1.637-1.739,2.509-2.68.4-.464.813-.934,1.221-1.416s.8-1.008,1.208-1.513c.922-1.2,1.8-2.456,2.648-3.746.75.719,3.445,3.269,5.154,3.889s4.08.969,5.676-.076a3.2,3.2,0,0,0,1.151-4.382c-.06-.1-.119-.189-.188-.287-1.69-2.122-6.569-1.813-8.836-.933-.145.048-1.7.842-2.545,1.3.506-.777,1.008-1.546,1.495-2.355,1.409-2.315,2.764-4.71,4.111-7.085.421-.737.841-1.452,1.267-2.175.255.261,3.4,3.351,5.318,4.053,1.7.624,4.084.96,5.676-.076a3.22,3.22,0,0,0,1.141-4.41,2.5,2.5,0,0,0-.173-.269c-1.7-2.117-6.569-1.813-8.846-.937-.177.068-2.393,1.186-2.949,1.546.928-1.594,1.861-3.173,2.856-4.69a57.828,57.828,0,0,1,4.367-5.945c.126.124,3.39,3.369,5.347,4.088,1.7.615,4.037.939,5.681-.086a3.206,3.206,0,0,0,1.1-4.4,1.69,1.69,0,0,0-.188-.287c-1.69-2.122-6.569-1.813-8.845-.937-.15.057-1.851.931-2.657,1.372l-.093-.12a41.032,41.032,0,0,1,5.377-5.052c1.057-.846,2.117-1.6,3.161-2.32.545.673,3.075,3.692,4.748,4.519s3.9,1.374,5.624.521a3.206,3.206,0,0,0,1.594-4.24l-.165-.312c-1.453-2.3-6.335-2.51-8.684-1.9-.127.034-1.361.519-2.3.864.48-.316.964-.641,1.432-.928,1.733-1.1,3.39-2,4.856-2.779.853-.442,1.62-.821,2.355-1.2.874.392,4.426,1.836,6.282,1.8s4.107-.576,5.257-2.16A3.225,3.225,0,0,0,431.176,324.061Z" transform="translate(-358.579 -297.249)" fill="#ff7d00"/>
      <path id="Caminho_13097" data-name="Caminho 13097" d="M368,314.383c1.432,1.566,5.826,3.422,5.826,3.422s.323-3.241.336-3.472c-.043-2.424-1.6-7.069-4.2-7.839a3.225,3.225,0,0,0-3.938,2.3c-.028.106-.05.213-.068.322C365.609,311,366.784,313.037,368,314.383Z" transform="translate(-359.563 -298.478)" fill="#ff7d00"/>
      <path id="Caminho_13098" data-name="Caminho 13098" d="M431.176,324.061l-.285-.2c-2.345-1.366-6.78.7-8.587,2.315-.155.145-2.3,2.625-2.3,2.625l.047.021c-.7.32-1.432.679-2.264,1.074-1.47.763-3.172,1.614-4.934,2.676a56.169,56.169,0,0,0-5.541,3.7,42.114,42.114,0,0,0-5.533,4.971l1.267-2.829c.7-2.317.679-7.212-1.553-8.754a3.2,3.2,0,0,0-4.433.927,3.56,3.56,0,0,0-.185.312c-.92,1.676-.434,3.993.3,5.644.835,1.864,4.15,4.793,4.419,5.026a56.477,56.477,0,0,0-4.65,6c-.829,1.22-1.628,2.476-2.409,3.74l.568-1.269c.7-2.316.689-7.207-1.543-8.749a3.221,3.221,0,0,0-4.451.941l-.167.3c-.919,1.676-.443,3.988.3,5.64s3.531,4.233,4.274,4.894l-.9,1.471c-1.4,2.352-2.806,4.7-4.249,6.968-.515.8-1.04,1.566-1.565,2.335l.488-1.091c.7-2.326.684-7.221-1.548-8.763a3.221,3.221,0,0,0-4.451.941l-.167.3c-.924,1.685-.444,3.988.3,5.653s3.254,3.974,4.14,4.767c-.562.775-1.123,1.55-1.706,2.271-.412.493-.77.988-1.2,1.448s-.846.93-1.255,1.391c-.834.856-1.686,1.749-2.514,2.564-.57.569-1.138,1.1-1.7,1.645.514-.8,1.495-2.355,1.558-2.5a12.423,12.423,0,0,0,.956-6.218,4.181,4.181,0,0,0,.244-.67,3.213,3.213,0,0,0-2.13-4.013c-.113-.027-.22-.064-.336-.082-2.683-.435-6.079,3.089-7.181,5.248-.059.132-.62,1.585-.954,2.508.119-.568.233-1.126.342-1.721.217-1.167.407-2.346.611-3.609.085-.616.16-1.238.244-1.854s.116-1.291.171-1.944c.107-1.5.138-3.03.142-4.574,1.041.195,4.677.82,6.444.4s3.9-1.439,4.659-3.2a3.22,3.22,0,0,0-1.5-4.293c-.1-.046-.207-.093-.315-.129-2.585-.831-6.484,2.129-7.9,4.1-.059.132-.949,1.64-1.407,2.485,0-.927,0-1.853-.049-2.787-.106-2.711-.292-5.446-.477-8.182l-.153-2.506c.363.072,4.691.916,6.672.449,1.767-.416,3.89-1.452,4.664-3.2a3.211,3.211,0,0,0-1.579-4.262,2.865,2.865,0,0,0-.687-.229c-2.585-.83-6.474,2.134-7.894,4.093-.076.17-1.334,2.348-1.623,2.919-.106-1.831-.2-3.666-.21-5.477a54.578,54.578,0,0,1,.384-7.333c.15.068,4.67.962,6.7.452,1.767-.416,3.9-1.438,4.659-3.195a3.226,3.226,0,0,0-1.51-4.288c-.1-.046-.207-.093-.314-.13-2.585-.83-6.475,2.134-7.885,4.1-.063.14-1.04,1.792-1.471,2.6l-.132-.059a40.909,40.909,0,0,1,1.678-7.149c.42-1.291.885-2.5,1.361-3.668.822.256,4.6,1.372,6.475,1.14s4.024-1,4.982-2.656a3.225,3.225,0,0,0-1.038-4.437,1.824,1.824,0,0,0-.288-.164c-2.482-1.111-6.671,1.414-8.3,3.2-.055.122-.876,1.2-1.437,2l.7-1.551c.842-1.88,1.73-3.536,2.53-4.994.463-.831.887-1.578,1.305-2.26.938-.177,4.71-.915,6.233-1.971s3.111-2.737,3.209-4.645a3.21,3.21,0,0,0-2.919-3.463,3.529,3.529,0,0,0-.369-.007c-2.709.152-5.313,4.3-5.889,6.673a27.274,27.274,0,0,0-.428,3.476c-.42.659-.85,1.369-1.3,2.149-.828,1.445-1.759,3.094-2.648,4.954q-.5,1.031-.962,2.074c-.584,1.33-1.126,2.689-1.606,4.066a41.192,41.192,0,0,0-1.883,7.2l-.038.085c-.107-.793-.5-2.98-.558-3.139-.7-2.321-3.407-6.4-6.134-6.461a3.21,3.21,0,0,0-3.182,3.248,1.68,1.68,0,0,0,.019.336c.24,1.834,1.893,3.534,3.423,4.5,1.758,1.115,6.108,1.709,6.456,1.763a56.6,56.6,0,0,0-.563,7.557c-.02,1.481.006,2.96.047,4.457-.112-.682-.235-1.291-.256-1.368-.7-2.321-3.412-6.392-6.139-6.452a3.206,3.206,0,0,0-3.186,3.235,3.046,3.046,0,0,0,.02.358c.159,1.911,1.8,3.547,3.361,4.542s5.282,1.587,6.287,1.687c.024.575.039,1.146.068,1.712.117,2.738.256,5.475.3,8.157.022.958,0,1.885-.009,2.817-.113-.6-.2-1.107-.209-1.222-.7-2.321-3.411-6.392-6.139-6.452a3.191,3.191,0,0,0-3.2,3.207,2.783,2.783,0,0,0,.029.441c.159,1.911,1.793,3.557,3.36,4.541s4.953,1.542,6.089,1.7c-.042.951-.089,1.912-.146,2.846-.07.634-.094,1.245-.206,1.871s-.183,1.239-.276,1.851c-.222,1.175-.438,2.388-.685,3.519-.164.8-.335,1.554-.5,2.3-.008-.94-.054-2.778-.074-2.933-.343-2.411-2.411-6.836-5.083-7.3a3.216,3.216,0,0,0-3.608,2.763c-.014.106-.023.2-.028.314-.132,1.905,1.278,3.8,2.637,5,1.5,1.305,5.572,2.552,6.073,2.72-.288,1.247-.577,2.472-.865,3.619-1,3.966-1.984,7.226-2.7,9.5-.084.29-.174.565-.261.809l1.632.765c.12-.319.192-.682.313-1.078.676-2.316,1.591-5.642,2.512-9.665.3-1.276.584-2.639.874-4.044a37.826,37.826,0,0,0,4.1-.073c.654,1.941,3.177,5,3.508,5.4-.926.883-1.839,1.737-2.714,2.531-3.022,2.766-5.607,4.96-7.494,6.451q-.435.33-.789.628l1.9.9.107-.087c1.828-1.563,4.443-3.822,7.434-6.67.943-.9,1.963-1.864,2.956-2.9.424.314,3.885,2.79,5.839,3.191,1.781.357,4.135.317,5.575-.956a3.217,3.217,0,0,0,.425-4.528,2.894,2.894,0,0,0-.228-.248c-2-1.842-6.773-.776-8.885.41-.125.08-1.392.991-2.183,1.574.411-.415.8-.772,1.233-1.242.835-.856,1.637-1.739,2.509-2.68.4-.464.813-.934,1.221-1.416s.8-1.008,1.208-1.513c.922-1.2,1.8-2.456,2.648-3.746.75.719,3.445,3.269,5.154,3.889s4.08.969,5.676-.076a3.2,3.2,0,0,0,1.151-4.382c-.06-.1-.119-.189-.188-.287-1.69-2.122-6.569-1.813-8.836-.933-.145.048-1.7.842-2.545,1.3.506-.777,1.008-1.546,1.495-2.355,1.409-2.315,2.764-4.71,4.111-7.085.421-.737.841-1.452,1.267-2.175.255.261,3.4,3.351,5.318,4.053,1.7.624,4.084.96,5.676-.076a3.22,3.22,0,0,0,1.141-4.41,2.5,2.5,0,0,0-.173-.269c-1.7-2.117-6.569-1.813-8.846-.937-.177.068-2.393,1.186-2.949,1.546.928-1.594,1.861-3.173,2.856-4.69a57.828,57.828,0,0,1,4.367-5.945c.126.124,3.39,3.369,5.347,4.088,1.7.615,4.037.939,5.681-.086a3.206,3.206,0,0,0,1.1-4.4,1.69,1.69,0,0,0-.188-.287c-1.69-2.122-6.569-1.813-8.845-.937-.15.057-1.851.931-2.657,1.372l-.093-.12a41.032,41.032,0,0,1,5.377-5.052c1.057-.846,2.117-1.6,3.161-2.32.545.673,3.075,3.692,4.748,4.519s3.9,1.374,5.624.521a3.206,3.206,0,0,0,1.594-4.24l-.165-.312c-1.453-2.3-6.335-2.51-8.684-1.9-.127.034-1.361.519-2.3.864.48-.316.964-.641,1.432-.928,1.733-1.1,3.39-2,4.856-2.779.853-.442,1.62-.821,2.355-1.2.874.392,4.426,1.836,6.282,1.8s4.107-.576,5.257-2.16A3.225,3.225,0,0,0,431.176,324.061Z" transform="translate(-358.579 -297.249)" fill="#ff7d00" opacity="0.5" style="mix-blend-mode: normal;isolation: isolate"/>
      <path id="Caminho_13099" data-name="Caminho 13099" d="M418.168,337.517s2.082-2.532,2.194-2.707c1.282-2.056,2.552-6.757.808-8.859a3.2,3.2,0,0,0-4.523-.271,3.525,3.525,0,0,0-.255.253c-1.324,1.371-1.477,3.729-1.194,5.514C415.519,333.555,418.159,337.513,418.168,337.517Z" transform="translate(-366.175 -300.963)" fill="#ff7d00" opacity="0.3" style="mix-blend-mode: normal;isolation: isolate"/>
      <path id="Caminho_13100" data-name="Caminho 13100" d="M368,314.383c1.432,1.566,5.826,3.422,5.826,3.422s.323-3.241.336-3.472c-.043-2.424-1.6-7.069-4.2-7.839a3.225,3.225,0,0,0-3.938,2.3c-.028.106-.05.213-.068.322C365.609,311,366.784,313.037,368,314.383Z" transform="translate(-359.563 -298.478)" fill="#ff7d00" opacity="0.3" style="mix-blend-mode: normal;isolation: isolate"/>
    </g>
    <g id="freepik--Plants--inject-2-2" data-name="freepik--Plants--inject-2" transform="translate(0 15.819)">
      <path id="Caminho_13101" data-name="Caminho 13101" d="M128.652,337.2s-.307-3.04-.35-3.229c-.518-2.2-2.793-6.125-5.329-6.351a2.985,2.985,0,0,0-3.148,2.813,2.705,2.705,0,0,0,0,.335c.036,1.775,1.495,3.425,2.862,4.41C124.291,336.349,128.643,337.2,128.652,337.2Z" transform="translate(-80.985 -317.151)" fill="#ff7d00"/>
      <path id="Caminho_13102" data-name="Caminho 13102" d="M130.5,315.549l-.317.061c-2.443.654-3.989,4.943-4.106,7.2-.006.2.222,3.247.222,3.247l.045-.017c-.245.671-.492,1.394-.776,2.2-.46,1.474-1.014,3.158-1.469,5.021a52.427,52.427,0,0,0-1.189,6.1,39.329,39.329,0,0,0-.345,6.924l-1.04-2.7c-1.073-1.983-4.323-5.185-6.809-4.72a2.979,2.979,0,0,0-2.3,3.54c.021.1.053.216.086.327.5,1.709,2.356,2.908,3.933,3.5,1.781.672,5.9.4,6.226.377a52.6,52.6,0,0,0,.914,7.014c.262,1.349.569,2.7.892,4.049l-.466-1.21c-1.073-1.983-4.315-5.188-6.8-4.723a3,3,0,0,0-2.3,3.562l.087.306c.5,1.709,2.347,2.912,3.924,3.508s5.12.444,6.044.385l.385,1.56c.634,2.472,1.268,4.943,1.819,7.386.189.863.353,1.716.517,2.568l-.4-1.04c-1.077-1.992-4.327-5.193-6.813-4.729a3,3,0,0,0-2.3,3.562l.087.306c.507,1.718,2.347,2.913,3.937,3.513s4.765.458,5.871.391c.144.88.287,1.761.382,2.62.055.6.148,1.157.17,1.746s.06,1.17.1,1.742c.018,1.115.05,2.265.046,3.347,0,.75-.017,1.477-.026,2.2-.189-.864-.576-2.535-.628-2.669a11.574,11.574,0,0,0-3.485-4.716,3.8,3.8,0,0,0-.283-.6,2.993,2.993,0,0,0-4.053-1.226c-.092.056-.187.1-.274.168-2.05,1.49-1.948,6.049-1.244,8.2.048.126.641,1.451,1.032,2.277-.3-.451-.591-.893-.913-1.355-.629-.91-1.284-1.81-1.986-2.774-.352-.46-.714-.918-1.066-1.379s-.778-.924-1.174-1.389c-.921-1.054-1.913-2.081-2.933-3.1.813-.56,3.614-2.555,4.5-4s1.606-3.52.946-5.179a3,3,0,0,0-3.822-1.829c-.1.038-.2.076-.293.123-2.246,1.165-2.849,5.687-2.472,7.918.048.126.462,1.705.72,2.562-.615-.607-1.229-1.214-1.876-1.8-1.863-1.709-3.794-3.383-5.725-5.056l-1.758-1.544c.286-.193,3.686-2.5,4.677-4.118.885-1.442,1.593-3.526.943-5.188a2.993,2.993,0,0,0-3.856-1.754,2.661,2.661,0,0,0-.6.3c-2.247,1.165-2.84,5.683-2.475,7.909.062.161.677,2.424.865,2.99-1.28-1.132-2.555-2.276-3.761-3.458a50.982,50.982,0,0,1-4.6-5.069c.144-.055,3.7-2.456,4.7-4.137.884-1.442,1.606-3.52.945-5.18a3.006,3.006,0,0,0-3.827-1.816c-.1.038-.2.076-.293.123-2.246,1.164-2.84,5.683-2.466,7.905.051.135.5,1.864.756,2.682l-.125.048a38.214,38.214,0,0,1-3.626-5.8c-.578-1.125-1.076-2.23-1.533-3.309.709-.376,3.927-2.141,5.006-3.534s1.983-3.316,1.515-5.038a3.007,3.007,0,0,0-3.616-2.228,1.638,1.638,0,0,0-.3.084c-2.365.911-3.445,5.34-3.329,7.59.045.116.218,1.366.378,2.262l-.57-1.478c-.69-1.791-1.2-3.467-1.642-4.953-.246-.852-.46-1.623-.637-2.347.5-.737,2.487-3.716,2.788-5.417s.232-3.854-.965-5.173a2.992,2.992,0,0,0-4.207-.344,3.1,3.1,0,0,0-.248.24c-1.677,1.891-.642,6.338.547,8.276a25.569,25.569,0,0,0,2.018,2.566c.16.71.347,1.461.567,2.271.412,1.5.892,3.195,1.538,5q.356,1,.739,2c.5,1.259,1.04,2.511,1.634,3.732a38.457,38.457,0,0,0,3.528,5.975l.031.08c-.595-.449-2.3-1.622-2.443-1.691-1.993-1.063-6.472-1.95-8.3-.184a2.991,2.991,0,0,0,.06,4.236,1.487,1.487,0,0,0,.235.208c1.37,1.046,3.58,1.068,5.225.692,1.891-.431,5.141-2.918,5.4-3.113a52.66,52.66,0,0,0,4.629,5.334c.966.986,1.961,1.94,2.978,2.9-.525-.374-1.008-.692-1.073-.729-1.994-1.062-6.468-1.94-8.3-.175a3.016,3.016,0,0,0,.3,4.453c1.369,1.149,3.526,1.141,5.211.759s4.517-2.452,5.244-3.051c.4.362.784.727,1.177,1.079,1.888,1.721,3.79,3.426,5.59,5.16.648.615,1.249,1.237,1.857,1.856-.473-.321-.866-.592-.945-.664-1.994-1.063-6.468-1.941-8.3-.176a2.974,2.974,0,0,0,.023,4.22,2.708,2.708,0,0,0,.31.271c1.369,1.149,3.53,1.149,5.211.759s4.271-2.264,5.122-2.912c.6.653,1.207,1.315,1.787,1.966.374.463.761.879,1.1,1.365s.7.935,1.043,1.4c.632.918,1.292,1.857,1.878,2.764.418.631.808,1.241,1.194,1.844-.628-.612-1.873-1.788-1.989-1.877-1.819-1.356-6.106-2.893-8.165-1.43a3,3,0,0,0-.541,4.2c.061.08.119.15.19.226,1.174,1.337,3.352,1.65,5.037,1.535,1.85-.138,5.347-2.01,5.785-2.231.636,1.009,1.257,2,1.826,2.948,1.968,3.264,3.477,6.056,4.513,8.023.136.247.26.486.364.7l1.578-.577c-.132-.288-.325-.575-.507-.916-1.088-1.967-2.688-4.755-4.743-8.006-.647-1.037-1.362-2.119-2.1-3.234a35.137,35.137,0,0,0,2.641-2.757,22,22,0,0,0,5.873,1.224c-.023,1.192-.058,2.358-.107,3.457-.155,3.814-.4,6.965-.653,9.192q-.068.505-.1.935l1.841-.669.013-.128c.167-2.235.389-5.448.469-9.3.026-1.214.056-2.521.025-3.857.486-.074,4.4-.738,5.945-1.767,1.406-.943,2.925-2.527,3.028-4.316a3,3,0,0,0-2.715-3.254,2.672,2.672,0,0,0-.314-.012c-2.529.111-4.96,3.97-5.562,6.146-.03.135-.259,1.571-.393,2.476,0-.544.013-1.033-.011-1.632-.018-1.114-.076-2.224-.125-3.419-.045-.569-.084-1.15-.136-1.738s-.14-1.19-.207-1.792c-.19-1.4-.443-2.8-.739-4.212.969-.023,4.425-.132,5.956-.855s3.32-2.063,3.678-3.8a2.984,2.984,0,0,0-2.144-3.639c-.1-.022-.2-.045-.312-.064-2.514-.276-5.513,3.154-6.419,5.231-.064.128-.558,1.676-.813,2.536-.182-.846-.361-1.683-.576-2.535-.606-2.452-1.3-4.921-1.988-7.372-.211-.762-.407-1.51-.606-2.266.34,0,4.446-.048,6.171-.857,1.526-.711,3.317-2.07,3.678-3.8a3,3,0,0,0-2.168-3.65,2.3,2.3,0,0,0-.292-.062c-2.52-.263-5.513,3.154-6.428,5.236-.071.161-.787,2.361-.914,2.965-.444-1.66-.877-3.314-1.226-4.969a53.765,53.765,0,0,1-1.065-6.791c.164,0,4.453-.03,6.215-.853,1.523-.721,3.272-2.054,3.673-3.814a2.989,2.989,0,0,0-2.188-3.621,1.574,1.574,0,0,0-.313-.065c-2.514-.275-5.512,3.154-6.428,5.236-.061.137-.6,1.836-.838,2.658l-.14-.017a38.178,38.178,0,0,1,.19-6.874c.133-1.255.331-2.452.541-3.614.8.081,4.461.39,6.106-.173s3.469-1.677,4.038-3.377a2.989,2.989,0,0,0-1.758-3.839l-.314-.094c-2.475-.548-5.82,2.542-6.961,4.494-.061.106-.55,1.241-.943,2.092.106-.525.209-1.059.326-1.556.412-1.866.9-3.557,1.35-5.037.267-.854.521-1.611.751-2.347.833-.321,4.12-1.722,5.315-2.975s2.315-3.094,2.022-4.895A3.006,3.006,0,0,0,130.5,315.549Z" transform="translate(-75.745 -315.526)" fill="#ff7d00"/>
      <path id="Caminho_13103" data-name="Caminho 13103" d="M80.363,355.245c1.976.082,6.088-1.606,6.088-1.606s-1.931-2.341-2.076-2.5c-1.632-1.562-5.724-3.585-7.941-2.371a3,3,0,0,0-1.066,4.113c.052.088.108.174.168.256C76.556,354.6,78.676,355.165,80.363,355.245Z" transform="translate(-74.953 -319.945)" fill="#ff7d00"/>
      <path id="Caminho_13104" data-name="Caminho 13104" d="M130.5,315.549l-.317.061c-2.443.654-3.989,4.943-4.106,7.2-.006.2.222,3.247.222,3.247l.045-.017c-.245.671-.492,1.394-.776,2.2-.46,1.474-1.014,3.158-1.469,5.021a52.427,52.427,0,0,0-1.189,6.1,39.329,39.329,0,0,0-.345,6.924l-1.04-2.7c-1.073-1.983-4.323-5.185-6.809-4.72a2.979,2.979,0,0,0-2.3,3.54c.021.1.053.216.086.327.5,1.709,2.356,2.908,3.933,3.5,1.781.672,5.9.4,6.226.377a52.6,52.6,0,0,0,.914,7.014c.262,1.349.569,2.7.892,4.049l-.466-1.21c-1.073-1.983-4.315-5.188-6.8-4.723a3,3,0,0,0-2.3,3.562l.087.306c.5,1.709,2.347,2.912,3.924,3.508s5.12.444,6.044.385l.385,1.56c.634,2.472,1.268,4.943,1.819,7.386.189.863.353,1.716.517,2.568l-.4-1.04c-1.077-1.992-4.327-5.193-6.813-4.729a3,3,0,0,0-2.3,3.562l.087.306c.507,1.718,2.347,2.913,3.937,3.513s4.765.458,5.871.391c.144.88.287,1.761.382,2.62.055.6.148,1.157.17,1.746s.06,1.17.1,1.742c.018,1.115.05,2.265.046,3.347,0,.75-.017,1.477-.026,2.2-.189-.864-.576-2.535-.628-2.669a11.574,11.574,0,0,0-3.485-4.716,3.8,3.8,0,0,0-.283-.6,2.993,2.993,0,0,0-4.053-1.226c-.092.056-.187.1-.274.168-2.05,1.49-1.948,6.049-1.244,8.2.048.126.641,1.451,1.032,2.277-.3-.451-.591-.893-.913-1.355-.629-.91-1.284-1.81-1.986-2.774-.352-.46-.714-.918-1.066-1.379s-.778-.924-1.174-1.389c-.921-1.054-1.913-2.081-2.933-3.1.813-.56,3.614-2.555,4.5-4s1.606-3.52.946-5.179a3,3,0,0,0-3.822-1.829c-.1.038-.2.076-.293.123-2.246,1.165-2.849,5.687-2.472,7.918.048.126.462,1.705.72,2.562-.615-.607-1.229-1.214-1.876-1.8-1.863-1.709-3.794-3.383-5.725-5.056l-1.758-1.544c.286-.193,3.686-2.5,4.677-4.118.885-1.442,1.593-3.526.943-5.188a2.993,2.993,0,0,0-3.856-1.754,2.661,2.661,0,0,0-.6.3c-2.247,1.165-2.84,5.683-2.475,7.909.062.161.677,2.424.865,2.99-1.28-1.132-2.555-2.276-3.761-3.458a50.982,50.982,0,0,1-4.6-5.069c.144-.055,3.7-2.456,4.7-4.137.884-1.442,1.606-3.52.945-5.18a3.006,3.006,0,0,0-3.827-1.816c-.1.038-.2.076-.293.123-2.246,1.164-2.84,5.683-2.466,7.905.051.135.5,1.864.756,2.682l-.125.048a38.214,38.214,0,0,1-3.626-5.8c-.578-1.125-1.076-2.23-1.533-3.309.709-.376,3.927-2.141,5.006-3.534s1.983-3.316,1.515-5.038a3.007,3.007,0,0,0-3.616-2.228,1.638,1.638,0,0,0-.3.084c-2.365.911-3.445,5.34-3.329,7.59.045.116.218,1.366.378,2.262l-.57-1.478c-.69-1.791-1.2-3.467-1.642-4.953-.246-.852-.46-1.623-.637-2.347.5-.737,2.487-3.716,2.788-5.417s.232-3.854-.965-5.173a2.992,2.992,0,0,0-4.207-.344,3.1,3.1,0,0,0-.248.24c-1.677,1.891-.642,6.338.547,8.276a25.569,25.569,0,0,0,2.018,2.566c.16.71.347,1.461.567,2.271.412,1.5.892,3.195,1.538,5q.356,1,.739,2c.5,1.259,1.04,2.511,1.634,3.732a38.457,38.457,0,0,0,3.528,5.975l.031.08c-.595-.449-2.3-1.622-2.443-1.691-1.993-1.063-6.472-1.95-8.3-.184a2.991,2.991,0,0,0,.06,4.236,1.487,1.487,0,0,0,.235.208c1.37,1.046,3.58,1.068,5.225.692,1.891-.431,5.141-2.918,5.4-3.113a52.66,52.66,0,0,0,4.629,5.334c.966.986,1.961,1.94,2.978,2.9-.525-.374-1.008-.692-1.073-.729-1.994-1.062-6.468-1.94-8.3-.175a3.016,3.016,0,0,0,.3,4.453c1.369,1.149,3.526,1.141,5.211.759s4.517-2.452,5.244-3.051c.4.362.784.727,1.177,1.079,1.888,1.721,3.79,3.426,5.59,5.16.648.615,1.249,1.237,1.857,1.856-.473-.321-.866-.592-.945-.664-1.994-1.063-6.468-1.941-8.3-.176a2.974,2.974,0,0,0,.023,4.22,2.708,2.708,0,0,0,.31.271c1.369,1.149,3.53,1.149,5.211.759s4.271-2.264,5.122-2.912c.6.653,1.207,1.315,1.787,1.966.374.463.761.879,1.1,1.365s.7.935,1.043,1.4c.632.918,1.292,1.857,1.878,2.764.418.631.808,1.241,1.194,1.844-.628-.612-1.873-1.788-1.989-1.877-1.819-1.356-6.106-2.893-8.165-1.43a3,3,0,0,0-.541,4.2c.061.08.119.15.19.226,1.174,1.337,3.352,1.65,5.037,1.535,1.85-.138,5.347-2.01,5.785-2.231.636,1.009,1.257,2,1.826,2.948,1.968,3.264,3.477,6.056,4.513,8.023.136.247.26.486.364.7l1.578-.577c-.132-.288-.325-.575-.507-.916-1.088-1.967-2.688-4.755-4.743-8.006-.647-1.037-1.362-2.119-2.1-3.234a35.137,35.137,0,0,0,2.641-2.757,22,22,0,0,0,5.873,1.224c-.023,1.192-.058,2.358-.107,3.457-.155,3.814-.4,6.965-.653,9.192q-.068.505-.1.935l1.841-.669.013-.128c.167-2.235.389-5.448.469-9.3.026-1.214.056-2.521.025-3.857.486-.074,4.4-.738,5.945-1.767,1.406-.943,2.925-2.527,3.028-4.316a3,3,0,0,0-2.715-3.254,2.672,2.672,0,0,0-.314-.012c-2.529.111-4.96,3.97-5.562,6.146-.03.135-.259,1.571-.393,2.476,0-.544.013-1.033-.011-1.632-.018-1.114-.076-2.224-.125-3.419-.045-.569-.084-1.15-.136-1.738s-.14-1.19-.207-1.792c-.19-1.4-.443-2.8-.739-4.212.969-.023,4.425-.132,5.956-.855s3.32-2.063,3.678-3.8a2.984,2.984,0,0,0-2.144-3.639c-.1-.022-.2-.045-.312-.064-2.514-.276-5.513,3.154-6.419,5.231-.064.128-.558,1.676-.813,2.536-.182-.846-.361-1.683-.576-2.535-.606-2.452-1.3-4.921-1.988-7.372-.211-.762-.407-1.51-.606-2.266.34,0,4.446-.048,6.171-.857,1.526-.711,3.317-2.07,3.678-3.8a3,3,0,0,0-2.168-3.65,2.3,2.3,0,0,0-.292-.062c-2.52-.263-5.513,3.154-6.428,5.236-.071.161-.787,2.361-.914,2.965-.444-1.66-.877-3.314-1.226-4.969a53.765,53.765,0,0,1-1.065-6.791c.164,0,4.453-.03,6.215-.853,1.523-.721,3.272-2.054,3.673-3.814a2.989,2.989,0,0,0-2.188-3.621,1.574,1.574,0,0,0-.313-.065c-2.514-.275-5.512,3.154-6.428,5.236-.061.137-.6,1.836-.838,2.658l-.14-.017a38.178,38.178,0,0,1,.19-6.874c.133-1.255.331-2.452.541-3.614.8.081,4.461.39,6.106-.173s3.469-1.677,4.038-3.377a2.989,2.989,0,0,0-1.758-3.839l-.314-.094c-2.475-.548-5.82,2.542-6.961,4.494-.061.106-.55,1.241-.943,2.092.106-.525.209-1.059.326-1.556.412-1.866.9-3.557,1.35-5.037.267-.854.521-1.611.751-2.347.833-.321,4.12-1.722,5.315-2.975s2.315-3.094,2.022-4.895A3.006,3.006,0,0,0,130.5,315.549Z" transform="translate(-75.745 -315.526)" fill="#ff7d00" opacity="0.5" style="mix-blend-mode: normal;isolation: isolate"/>
      <path id="Caminho_13105" data-name="Caminho 13105" d="M128.652,337.2s-.307-3.04-.35-3.229c-.518-2.2-2.793-6.125-5.329-6.351a2.985,2.985,0,0,0-3.148,2.813,2.705,2.705,0,0,0,0,.335c.036,1.775,1.495,3.425,2.862,4.41C124.291,336.349,128.643,337.2,128.652,337.2Z" transform="translate(-80.985 -317.151)" fill="#ff7d00" opacity="0.3" style="mix-blend-mode: normal;isolation: isolate"/>
      <path id="Caminho_13106" data-name="Caminho 13106" d="M80.363,355.245c1.976.082,6.088-1.606,6.088-1.606s-1.931-2.341-2.076-2.5c-1.632-1.562-5.724-3.585-7.941-2.371a3,3,0,0,0-1.066,4.113c.052.088.108.174.168.256C76.556,354.6,78.676,355.165,80.363,355.245Z" transform="translate(-74.953 -319.945)" fill="#ff7d00" opacity="0.3" style="mix-blend-mode: normal;isolation: isolate"/>
    </g>
  </g>
  <g id="Shape" transform="translate(40.788 281.267)">
    <g id="Grupo_8090" data-name="Grupo 8090" opacity="0.7">
      <ellipse id="Elipse_1209" data-name="Elipse 1209" cx="148.976" cy="19.88" rx="148.976" ry="19.88" fill="#ffb77b"/>
      <ellipse id="Elipse_1210" data-name="Elipse 1210" cx="148.976" cy="19.88" rx="148.976" ry="19.88" fill="#ffb77b" opacity="0.5"/>
    </g>
  </g>
  <g id="Character_2" data-name="Character 2" transform="translate(162.351 21.729)">
    <g id="Grupo_8097" data-name="Grupo 8097" transform="translate(0 0)">
      <path id="Caminho_13107" data-name="Caminho 13107" d="M437.2,191s-5.3,24.374-12.244,35.916l-7.939-2.8-3.943,3.3-16.787,14.1s-25.4-8.465-30.114-16.735S368,205.627,368,205.627l16.58-39.9.145-.082,7.124-3.8s1.291-.165,3.242-.3c.671-.052,1.425-.093,2.23-.124,3.975-.165,9.219-.062,12.636,1.228a23.541,23.541,0,0,0,11.18,1.456s7.1,9.519,11.511,16.146S437.2,191,437.2,191Z" transform="translate(-237.975 -99.526)" fill="#ff7d00"/>
      <g id="Grupo_8091" data-name="Grupo 8091" transform="translate(99.711 168.049)">
        <path id="Caminho_13108" data-name="Caminho 13108" d="M340.19,284.072s-5.711,15.1-6.61,24.1,10.193,24.284,10.193,24.284-5.366,9.593-3.583,12.591,6.971-4.5,9.474-14.39-1.994-23.385-1.994-23.385,7.337-10.393,7.716-14.94S340.19,284.072,340.19,284.072Z" transform="translate(-333.528 -284.072)" fill="#fff"/>
        <path id="Caminho_13109" data-name="Caminho 13109" d="M340.3,284.072s-5.807,15.1-6.721,24.1,10.363,24.284,10.363,24.284-5.456,9.593-3.642,12.591,7.087-4.5,9.632-14.39-2.028-23.385-2.028-23.385,7.461-10.393,7.845-14.94S340.3,284.072,340.3,284.072Z" transform="translate(-333.528 -284.072)" fill="none" stroke="#263238" stroke-linecap="round" stroke-linejoin="round" stroke-width="1"/>
        <path id="Caminho_13110" data-name="Caminho 13110" d="M343.087,341.393s-1.471-2.7-.613-3.433,4.046,1.1,4.536,2.452,2.935-.82,2.935-.82l1.412-5.073a24.235,24.235,0,0,1,1.538,4.789c.123,1.471-2.6,4.259-2.943,7.724-.408,4.08-5.394,8.092-8.336,7.723S340.39,345.562,343.087,341.393Z" transform="translate(-334.409 -290.854)" fill="#263238"/>
        <path id="Caminho_13111" data-name="Caminho 13111" d="M352.186,339.313a44.1,44.1,0,0,0-4.1,7.5c-.74,1.651-1.017,3.489-2.411,4.644a10.04,10.04,0,0,1-4.452,2.065" transform="translate(-334.563 -291.499)" fill="none" stroke="#fff" stroke-linecap="round" stroke-linejoin="round" stroke-width="1"/>
      </g>
      <path id="Caminho_13112" data-name="Caminho 13112" d="M413.073,227.345l-16.787,14.1s-25.4-8.465-30.114-16.735S368,205.552,368,205.552l16.58-39.9.145-.082c3.459-.981,6.927-2.921,10.365-4.1a20.272,20.272,0,0,1,2.333-.671c-.03.185-.072.361-.1.547a68.153,68.153,0,0,0,9.436,48.294c1.806,2.839,2.5,6.256,3.892,9.312a27.75,27.75,0,0,1,2.158,5.906A14.324,14.324,0,0,1,413.073,227.345Z" transform="translate(-237.975 -99.45)" opacity="0.1"/>
      <path id="Caminho_13113" data-name="Caminho 13113" d="M418.107,164.444s.481,3.394,5.475,4.033a8.655,8.655,0,0,0,7.768-3.131,25.724,25.724,0,0,1,.056-8.876c.9-4.7,2.3-6.116,2.3-6.116s5.8.068,6.152-4.467-5.338-7.01-7.214-5.085-4.349-5.083-4.349-5.083l-6.638-3.829-4.872-4.368L413,131.18s-1.247,4.331-1.548,6.405-1.7,5.742-1.684,7.547.518,11.765,1.643,14.9a5.362,5.362,0,0,0,5.375,3.767C418.108,163.548,418.107,164.444,418.107,164.444Z" transform="translate(-244.067 -94.976)" fill="#fff"/>
      <g id="Grupo_8093" data-name="Grupo 8093" transform="translate(120.679 199.558)">
        <g id="Grupo_8092" data-name="Grupo 8092" transform="translate(1.262)">
          <path id="Caminho_13114" data-name="Caminho 13114" d="M359.463,386.678a19.666,19.666,0,0,1,1.324-10.506c2.465-6.576,4.677-49.586,10.929-54.52,4.033-3.183,14,1.1,14,1.1a108.591,108.591,0,0,1,0,15.068c-.548,9.315-17.52,40-17.663,42.739a5.356,5.356,0,0,0,.959,2.353Z" transform="translate(-359.211 -320.475)" fill="#fff"/>
          <path id="Caminho_13115" data-name="Caminho 13115" d="M359.463,386.678a19.666,19.666,0,0,1,1.324-10.506c2.465-6.576,4.677-49.586,10.929-54.52,4.033-3.183,14,1.1,14,1.1a108.591,108.591,0,0,1,0,15.068c-.548,9.315-17.52,40-17.663,42.739a5.356,5.356,0,0,0,.959,2.353Z" transform="translate(-359.211 -320.475)" fill="none" stroke="#263238" stroke-linecap="round" stroke-linejoin="round" stroke-width="1"/>
        </g>
        <path id="Caminho_13116" data-name="Caminho 13116" d="M359.589,388.594s-2.14,6.493-1.8,10.195,3.026,1.684,8.309,7.818,10.081,6.74,11.785,5.547.7-4.289-4.663-13.365-3.382-5.1-3.382-5.1,1.094-3.786-.973-4.322c-2.994-.776-4.771,3.579-6.646,3.579S359.589,388.594,359.589,388.594Z" transform="translate(-357.753 -329.633)" fill="#263238"/>
        <path id="Caminho_13117" data-name="Caminho 13117" d="M358.494,398.31a6.593,6.593,0,0,0,1.684,1.724c1.3.932,2.809,1.523,4.143,2.4a29.646,29.646,0,0,1,4.538,4.162q1.51,1.524,3.151,2.911a9.373,9.373,0,0,0,2.839,1.817,3.632,3.632,0,0,0,3.251-.285" transform="translate(-357.852 -330.939)" fill="none" stroke="#fff" stroke-linecap="round" stroke-linejoin="round" stroke-width="1"/>
      </g>
      <path id="Caminho_13118" data-name="Caminho 13118" d="M418.132,126.269c-2.373,1.874-4.935,4.016-5.887,7s-.687,6.313-1.921,9.209c-.856,2.01-.492,4.846-.371,6.97a68.685,68.685,0,0,0,1.34,9.9c.5,2.43,1.526,3.957,4.1,4.261,2.52.3,5.3-1.012,7.48-2.143,3.517-1.821,7.692-7.628,9.78-11.086,2.77-.656,8.058-.323,7.1-5.623s-4.957-2.72-6.074-1.2" transform="translate(-244.067 -94.808)" fill="none" stroke="#263238" stroke-linecap="round" stroke-linejoin="round" stroke-width="1"/>
      <path id="Caminho_13125" data-name="Caminho 13125" d="M433.944,154.132a42.418,42.418,0,0,0-1.529,8.283,17.482,17.482,0,0,0,.23,6.51c-1.329,2.161-4.746,3.4-7.273,3.19a7.9,7.9,0,0,1-4.022-1.347,4.522,4.522,0,0,1-1.947-3.642" transform="translate(-245.362 -98.554)" fill="none" stroke="#263238" stroke-linecap="round" stroke-linejoin="round" stroke-width="1"/>
      <path id="Caminho_13126" data-name="Caminho 13126" d="M362.7,231.785s15.2,15.526,31.713,18.169c0,0,4.626,8.259,2.313,16.188s-11.232,42.284-11.232,42.284l-16.847-1.982V264.489s-5.6,14.244-10.762,21.21l-16.657-8.656S346.841,244.669,362.7,231.785Z" transform="translate(-234.851 -108.994)" fill="#263238"/>
      <path id="Caminho_13127" data-name="Caminho 13127" d="M366.436,255.729l5.061,5.784.536,6.2" transform="translate(-238.241 -112.213)" fill="none" stroke="#fff" stroke-linecap="round" stroke-linejoin="round" stroke-width="1"/>
      <path id="Caminho_13128" data-name="Caminho 13128" d="M369.637,307.446s-.92,5.315,1.1,13.562c0,0,11.729,3.116,18.877.917,0,0,3.482-7.331,4.032-10.264C393.642,311.661,382.1,304.88,369.637,307.446Z" transform="translate(-238.643 -119.088)" fill="#263238"/>
      <path id="Caminho_13129" data-name="Caminho 13129" d="M337.9,286.718a45.716,45.716,0,0,0,17.777,8.064s5.04-3.482,6.918-5.865c0,0-10.767-10.813-23.412-10.813Z" transform="translate(-234.405 -115.221)" fill="#263238"/>
      <path id="Caminho_13130" data-name="Caminho 13130" d="M421.677,204.227s2.539-9.662,10.973-11.952" transform="translate(-245.667 -103.682)" fill="none" stroke="#263238" stroke-linecap="round" stroke-linejoin="round" stroke-width="1"/>
      <path id="Caminho_13131" data-name="Caminho 13131" d="M433.706,142.033c-.791.623-.56,1.962-1.162,2.769a3.079,3.079,0,0,1-2.243,1.276.351.351,0,0,1-.235-.041.363.363,0,0,1-.112-.229,19.209,19.209,0,0,1-.045-3.911c.005-2.16-.88-3.175-2.346-4.561-1.142-1.079-1.1-2.99-2.187-4.125a4.4,4.4,0,0,0-3.081-1.1,19.583,19.583,0,0,1-3.346-.142,5.35,5.35,0,0,1-4.076-4.325c-1.726,1.381-3.217,6.024-3.217,6.024l-1.087-.945a8.29,8.29,0,0,1-1.314-9.938,9.571,9.571,0,0,1,9.431-4.388c2.423.338,4.676,1.542,7.113,1.759,2.971.264,6.058-.95,8.888-.01s4.581,3.791,5.415,6.645.987,5.877,1.881,8.713a16.575,16.575,0,0,1,.8,2.843,5.758,5.758,0,0,1-2.983,5.692S438.981,137.88,433.706,142.033Z" transform="translate(-243.852 -93.738)" fill="#263238"/>
      <path id="Caminho_13132" data-name="Caminho 13132" d="M412.062,130.558a6.162,6.162,0,0,1-.708-5.7,4.934,4.934,0,0,1,4.691-3.061c2.005.132,3.657,1.611,4.923,3.172s2.367,3.325,4.039,4.442c1.832,1.223,4.13,1.521,6.084,2.536a9.35,9.35,0,0,1,4.921,8.5" transform="translate(-244.225 -94.206)" fill="none" stroke="#fff" stroke-linecap="round" stroke-linejoin="round" stroke-width="1" opacity="0.2"/>
      <path id="Caminho_13133" data-name="Caminho 13133" d="M426.476,124.046a6.794,6.794,0,0,0,4.324,2.894,25.515,25.515,0,0,1,5.1,1.56,7.647,7.647,0,0,1,3.985,6.753" transform="translate(-246.313 -94.509)" fill="none" stroke="#fff" stroke-linecap="round" stroke-linejoin="round" stroke-width="1" opacity="0.2"/>
      <g id="Grupo_8095" data-name="Grupo 8095">
        <path id="Retângulo_3149" data-name="Retângulo 3149" d="M7.4,0H174.43a7.4,7.4,0,0,1,7.4,7.4V97.184a7.4,7.4,0,0,1-7.4,7.4H7.4a7.4,7.4,0,0,1-7.4-7.4V7.4A7.4,7.4,0,0,1,7.4,0Z" transform="translate(0 167.94) rotate(-67.459)" fill="#fff" stroke="#263238" stroke-width="1"/>
        <path id="Caminho_13134" data-name="Caminho 13134" d="M370.464,143.7l-3.092,7.45a4.409,4.409,0,0,1-5.758,2.38l-50.877-21.117a4.4,4.4,0,0,1-2.688-4.57,4.254,4.254,0,0,1,.3-1.189l3.092-7.449a4.411,4.411,0,0,1,5.765-2.383l50.877,21.116A4.409,4.409,0,0,1,370.464,143.7Z" transform="translate(-230.387 -93.492)" fill="#ff7d00"/>
        <g id="Grupo_8094" data-name="Grupo 8094" transform="translate(39.928 63.369)">
          <rect id="Retângulo_3150" data-name="Retângulo 3150" width="70.025" height="4.246" transform="translate(22.566 0) rotate(22.541)" fill="#263238"/>
          <rect id="Retângulo_3151" data-name="Retângulo 3151" width="70.025" height="4.246" transform="matrix(0.924, 0.383, -0.383, 0.924, 18.378, 10.089)" fill="#263238"/>
          <rect id="Retângulo_3152" data-name="Retângulo 3152" width="70.025" height="4.246" transform="matrix(0.924, 0.383, -0.383, 0.924, 14.191, 20.179)" fill="#263238"/>
          <rect id="Retângulo_3153" data-name="Retângulo 3153" width="70.025" height="4.246" transform="translate(10.003 30.268) rotate(22.541)" fill="#263238"/>
          <rect id="Retângulo_3154" data-name="Retângulo 3154" width="70.025" height="4.246" transform="matrix(0.924, 0.383, -0.383, 0.924, 5.815, 40.357)" fill="#263238"/>
          <rect id="Retângulo_3155" data-name="Retângulo 3155" width="70.025" height="4.246" transform="matrix(0.924, 0.383, -0.383, 0.924, 1.628, 50.446)" fill="#263238"/>
        </g>
        <path id="Caminho_13135" data-name="Caminho 13135" d="M339.7,272.855l-17.666,42.564a6.406,6.406,0,0,1-8.372,3.46l-60.715-25.2a27.045,27.045,0,0,1,14.657-9.108c8.887-1.974,19.025.43,26.634-4.57,6.139-4.03,9.14-12.108,15.885-15.015,3.395-1.46,7.269-1.363,10.89-.645A48.921,48.921,0,0,1,339.7,272.855Z" transform="translate(-222.983 -113.302)" fill="#ff7d00" stroke="#263238" stroke-width="1"/>
        <path id="Caminho_13136" data-name="Caminho 13136" d="M301.58,109.808c-2.349,1.721-3.874,4.326-5.152,6.936-3.009,6.152-5,12.757-8.056,18.886s-7.426,11.942-13.632,14.829a17.753,17.753,0,0,1-5.493,1.521l23.175-55.837a6.409,6.409,0,0,1,8.372-3.46l14.8,6.144C314.4,104.181,306.2,106.427,301.58,109.808Z" transform="translate(-225.175 -90.226)" fill="#ff7d00" stroke="#263238" stroke-width="1"/>
        <path id="Caminho_13137" data-name="Caminho 13137" d="M370.464,145.46l-3.092,7.45a4.41,4.41,0,0,1-5.758,2.38l-50.877-21.117a4.4,4.4,0,0,1-2.688-4.57c2.649.034,5.932,2.262,8.117,3.153q5.315,2.181,10.729,4.1c11.335,4.022,23.774,7.2,35.252,3.609a22.485,22.485,0,0,0,3.911-1.609l2.028.841A4.409,4.409,0,0,1,370.464,145.46Z" transform="translate(-230.387 -95.256)" opacity="0.1"/>
        <path id="Caminho_13138" data-name="Caminho 13138" d="M370.464,143.7l-3.092,7.45a4.409,4.409,0,0,1-5.758,2.38l-50.877-21.117a4.4,4.4,0,0,1-2.688-4.57,4.254,4.254,0,0,1,.3-1.189l3.092-7.449a4.411,4.411,0,0,1,5.765-2.383l50.877,21.116A4.409,4.409,0,0,1,370.464,143.7Z" transform="translate(-230.387 -93.492)" fill="none" stroke="#263238" stroke-width="1"/>
      </g>
      <g id="Grupo_8096" data-name="Grupo 8096" transform="translate(111.436 91.213)">
        <path id="Caminho_13139" data-name="Caminho 13139" d="M415.833,230.045s-12.673,9.418-16.845,12.436c0,0-20.4-13.044-27.629-19.818s-10.379-9.144-10.835-16.824c0,0-10.731,1.149-11.86-1.172a10.029,10.029,0,0,1,4.594-1.31s-4.992-1.439-5.008-3.266l10.011-.55s-11.275-1.691-11.149-2.729,13.866-2.647,17.552,0a101.544,101.544,0,0,1,6.251,13.1s13.762,12.352,28.074,15.184l5.189-5.54Z" transform="translate(-347.079 -195.311)" fill="#fff"/>
        <path id="Caminho_13140" data-name="Caminho 13140" d="M404.171,219.549l-5.189,5.54s-18.221-4.764-28.074-15.184c0,0-4.138-10.42-6.251-13.1s-18.4-1.191-17.552,0,10.025,3.11,10.025,3.11" transform="translate(-347.074 -195.302)" fill="none" stroke="#263238" stroke-linecap="round" stroke-linejoin="round" stroke-width="1"/>
        <path id="Caminho_13141" data-name="Caminho 13141" d="M416.074,230.7s-8.585,8.328-16.845,12.942c0,0-21.1-11.833-31.526-23.866l-.943-.646A13.818,13.818,0,0,1,360.765,207h0a16.431,16.431,0,0,1-11.373-.648c-.233-.1-.5-.269-.486-.524a.592.592,0,0,1,.317-.413,8.847,8.847,0,0,1,4.277-.9c2.612-.116,5.012-.852,7.586-.385" transform="translate(-347.32 -196.468)" fill="none" stroke="#263238" stroke-linecap="round" stroke-linejoin="round" stroke-width="1"/>
        <path id="Caminho_13142" data-name="Caminho 13142" d="M361.848,200.691l-3.467-.066-9.338-.177c-.259,0-.606.067-.617.325a.488.488,0,0,0,.149.316,9.693,9.693,0,0,0,2.7,2.012,9.184,9.184,0,0,0,1.735.827" transform="translate(-347.256 -195.994)" fill="none" stroke="#263238" stroke-linecap="round" stroke-linejoin="round" stroke-width="1"/>
      </g>
      <path id="Caminho_13143" data-name="Caminho 13143" d="M397.363,252.764s-2.292,13.8,6.873,16.2" transform="translate(-242.364 -111.814)" fill="none" stroke="#fff" stroke-linecap="round" stroke-linejoin="round" stroke-width="1"/>
      <path id="Caminho_13144" data-name="Caminho 13144" d="M374.664,307.223s8.508-.566,15.173,2.787" transform="translate(-239.347 -119.131)" fill="none" stroke="#fff" stroke-linecap="round" stroke-linejoin="round" stroke-width="1"/>
      <path id="Caminho_13145" data-name="Caminho 13145" d="M361.662,286.663a51.606,51.606,0,0,0-4.819-3.184" transform="translate(-236.951 -115.944)" fill="none" stroke="#fff" stroke-linecap="round" stroke-linejoin="round" stroke-width="1"/>
      <path id="Caminho_13146" data-name="Caminho 13146" d="M400.016,161.376a33.18,33.18,0,0,1,9.461.455" transform="translate(-242.755 -99.509)" fill="none" stroke="#263238" stroke-linecap="round" stroke-linejoin="round" stroke-width="1"/>
      <path id="Caminho_13147" data-name="Caminho 13147" d="M431.265,169.465s9.794,12.828,12.242,22.622c0,0-4.079,23.4-12.242,35.914,0,0-10.134-.272-19.895-14.42a129.263,129.263,0,0,1,13.662-17.956" transform="translate(-244.282 -100.615)" fill="none" stroke="#263238" stroke-linecap="round" stroke-linejoin="round" stroke-width="1"/>
      <line id="Linha_26" data-name="Linha 26" y1="2.577" x2="2.96" transform="translate(159.56 138.383)" fill="none" stroke="#263238" stroke-linecap="round" stroke-linejoin="round" stroke-width="1"/>
      <path id="Caminho_13148" data-name="Caminho 13148" d="M419.661,167.957a5.711,5.711,0,0,0,5.926,1.825c3.6-1.1,6.792-12.785,6.792-12.785S426.315,165.783,419.661,167.957Z" transform="translate(-245.396 -98.939)" fill="#263238"/>
    </g>
  </g>
  <g id="Phone" transform="translate(125.566 62.721)">
    <g id="Grupo_8128" data-name="Grupo 8128" transform="translate(0 0)">
      <path id="Caminho_13149" data-name="Caminho 13149" d="M300.636,146.042V361.271a8.762,8.762,0,0,1-8.761,8.761H184.591a8.759,8.759,0,0,1-8.761-8.761V146.042a8.762,8.762,0,0,1,8.761-8.762H291.875A8.763,8.763,0,0,1,300.636,146.042Z" transform="translate(-175.83 -137.28)" fill="#263238"/>
      <path id="Caminho_13150" data-name="Caminho 13150" d="M304.784,146.042V361.271a8.762,8.762,0,0,1-8.761,8.761H188.739a8.759,8.759,0,0,1-8.761-8.761V146.042a8.763,8.763,0,0,1,8.761-8.762H296.023A8.763,8.763,0,0,1,304.784,146.042Z" transform="translate(-176.388 -137.28)" fill="#263238"/>
      <line id="Linha_27" data-name="Linha 27" x2="28.997" transform="translate(48.48 9.614)" fill="none" stroke="#fff" stroke-linecap="round" stroke-linejoin="round" stroke-width="2"/>
      <path id="Caminho_13151" data-name="Caminho 13151" d="M301.174,146.042V361.271a8.762,8.762,0,0,1-8.761,8.761H185.128a8.741,8.741,0,0,1-5.3-1.786L273.477,137.28h18.935A8.763,8.763,0,0,1,301.174,146.042Z" transform="translate(-176.367 -137.28)" fill="#fff" opacity="0.1"/>
      <path id="Caminho_13152" data-name="Caminho 13152" d="M300.636,146.042V361.271a8.762,8.762,0,0,1-8.761,8.761H184.591a8.759,8.759,0,0,1-8.761-8.761V146.042a8.762,8.762,0,0,1,8.761-8.762H291.875A8.763,8.763,0,0,1,300.636,146.042Z" transform="translate(-175.83 -137.28)" fill="none" stroke="#263238" stroke-width="1"/>
      <rect id="Retângulo_3156" data-name="Retângulo 3156" width="110.59" height="197.913" rx="12.814" transform="translate(7.191 15.163)" fill="#fff" stroke="#263238" stroke-width="1"/>
      <path id="Caminho_13153" data-name="Caminho 13153" d="M251.962,394.7a5.239,5.239,0,1,1-5.239-5.239A5.239,5.239,0,0,1,251.962,394.7Z" transform="translate(-184.657 -171.184)" fill="#263238"/>
      <path id="Caminho_13154" data-name="Caminho 13154" d="M289.327,399.512v-9.47l9.47,4.735Z" transform="translate(-191.089 -171.262)" fill="#263238"/>
      <rect id="Retângulo_3157" data-name="Retângulo 3157" width="8.596" height="8.597" transform="translate(17.835 219.308)" fill="#263238"/>
      <g id="Grupo_8127" data-name="Grupo 8127" transform="translate(7.191 15.163)">
        <g id="Grupo_8126" data-name="Grupo 8126" clip-path="url(#clip-path)">
          <g id="Grupo_8125" data-name="Grupo 8125" transform="translate(-17.396 -10.099)">
            <g id="Grupo_8100" data-name="Grupo 8100" transform="translate(23.853 24.977)">
              <circle id="Elipse_1211" data-name="Elipse 1211" cx="20.116" cy="20.116" r="20.116" transform="matrix(0.967, -0.254, 0.254, 0.967, 5.117, 13.178)" fill="#ca8024"/>
              <circle id="Elipse_1212" data-name="Elipse 1212" cx="20.116" cy="20.116" r="20.116" transform="matrix(0.821, -0.571, 0.571, 0.821, 0, 22.972)" fill="#ecb74a"/>
              <g id="Grupo_8098" data-name="Grupo 8098" transform="translate(9.73 9.893)">
                <path id="Caminho_13155" data-name="Caminho 13155" d="M226.228,219.37a18.329,18.329,0,1,1,10.977-8.733A18.207,18.207,0,0,1,226.228,219.37Zm-9.805-34.184A17.235,17.235,0,1,0,237.742,197,17.254,17.254,0,0,0,216.423,185.186Z" transform="translate(-202.839 -183.416)" fill="#e8a22c"/>
              </g>
              <g id="Grupo_8099" data-name="Grupo 8099" transform="translate(20.595 14.566)">
                <path id="Caminho_13156" data-name="Caminho 13156" d="M226.754,206.9a3.022,3.022,0,0,0-.335-1.011,2.212,2.212,0,0,0-.676-.725,4.2,4.2,0,0,0-1.084-.515,10.99,10.99,0,0,0-1.555-.366,28.8,28.8,0,0,1-2.866-.65,9.109,9.109,0,0,1-2.282-.975,5.354,5.354,0,0,1-1.619-1.523,6.052,6.052,0,0,1-.793-4.537,5.1,5.1,0,0,1,.93-1.909,6.341,6.341,0,0,1,1.688-1.491,8.473,8.473,0,0,1,2.359-.982l-.488-3,2.417-.393.5,3.045a7.6,7.6,0,0,1,2.468.3,5.756,5.756,0,0,1,3.476,2.827,7.667,7.667,0,0,1,.812,2.468l-4.365.71a3.726,3.726,0,0,0-1.158-2.4,2.588,2.588,0,0,0-2.137-.509,3.3,3.3,0,0,0-1.139.38,2.237,2.237,0,0,0-.724.65,2.077,2.077,0,0,0-.341.855,3.06,3.06,0,0,0,.006.993,2.811,2.811,0,0,0,.3.916,2.082,2.082,0,0,0,.648.694,4.173,4.173,0,0,0,1.091.513,14.144,14.144,0,0,0,1.625.406q1.554.309,2.849.688a9.233,9.233,0,0,1,2.277.991,5.179,5.179,0,0,1,2.48,3.809,5.528,5.528,0,0,1-.07,2.287,5.023,5.023,0,0,1-.939,1.9A6.156,6.156,0,0,1,228.4,211.8a9.18,9.18,0,0,1-2.379.963l.454,2.792-2.4.39-.452-2.778a10.289,10.289,0,0,1-2.514-.152,6.514,6.514,0,0,1-2.274-.876,5.822,5.822,0,0,1-1.775-1.764,7.074,7.074,0,0,1-1.014-2.8l4.365-.71a4.369,4.369,0,0,0,.55,1.617,2.82,2.82,0,0,0,.921.945,2.742,2.742,0,0,0,1.156.388,4.666,4.666,0,0,0,1.242-.036,3.91,3.91,0,0,0,1.216-.385,2.6,2.6,0,0,0,.817-.651,2.081,2.081,0,0,0,.419-.853A2.532,2.532,0,0,0,226.754,206.9Z" transform="translate(-215.392 -188.816)" fill="#da9627"/>
              </g>
            </g>
            <g id="Grupo_8103" data-name="Grupo 8103" transform="translate(71.803 62.447)">
              <circle id="Elipse_1213" data-name="Elipse 1213" cx="23.041" cy="23.041" r="23.041" transform="translate(3.453 47.34) rotate(-82.192)" fill="#ca8024"/>
              <circle id="Elipse_1214" data-name="Elipse 1214" cx="23.041" cy="23.041" r="23.041" transform="translate(0 9.799) rotate(-12.278)" fill="#ecb74a"/>
              <g id="Grupo_8101" data-name="Grupo 8101" transform="translate(6.387 6.689)">
                <path id="Caminho_13157" data-name="Caminho 13157" d="M272.981,264.857a20.993,20.993,0,1,1,15.448-4.419A20.859,20.859,0,0,1,272.981,264.857Zm4.637-40.469a19.741,19.741,0,1,0,17.365,21.86A19.763,19.763,0,0,0,277.618,224.388Z" transform="translate(-254.375 -223.005)" fill="#e8a22c"/>
              </g>
              <g id="Grupo_8102" data-name="Grupo 8102" transform="translate(17.659 12.404)">
                <path id="Caminho_13158" data-name="Caminho 13158" d="M279.3,251.27a3.464,3.464,0,0,0,.089-1.216,2.531,2.531,0,0,0-.4-1.065,4.774,4.774,0,0,0-.921-1.021,12.563,12.563,0,0,0-1.484-1.071,33.175,33.175,0,0,1-2.746-1.946,10.467,10.467,0,0,1-1.986-2.035,6.148,6.148,0,0,1-1.045-2.321,6.932,6.932,0,0,1,1.154-5.148,5.835,5.835,0,0,1,1.822-1.61,7.276,7.276,0,0,1,2.44-.837,9.722,9.722,0,0,1,2.928,0l.8-3.39,2.729.646-.813,3.438a8.708,8.708,0,0,1,2.477,1.406,6.584,6.584,0,0,1,2.436,4.516,8.785,8.785,0,0,1-.224,2.966l-4.93-1.165a4.272,4.272,0,0,0-.171-3.044,2.966,2.966,0,0,0-2.038-1.478,3.766,3.766,0,0,0-1.373-.1,2.557,2.557,0,0,0-1.051.37,2.382,2.382,0,0,0-.737.755,3.494,3.494,0,0,0-.428,1.053,3.2,3.2,0,0,0-.08,1.1,2.371,2.371,0,0,0,.38,1.02,4.8,4.8,0,0,0,.93,1.022,16.376,16.376,0,0,0,1.54,1.143q1.509,1.009,2.711,1.98a10.537,10.537,0,0,1,1.974,2.048,5.937,5.937,0,0,1,.951,5.119,6.332,6.332,0,0,1-1.078,2.388,5.764,5.764,0,0,1-1.826,1.593,7.035,7.035,0,0,1-2.448.794,10.484,10.484,0,0,1-2.939-.026l-.745,3.153-2.713-.641.743-3.138a11.739,11.739,0,0,1-2.592-1.265,7.459,7.459,0,0,1-2.021-1.925,6.674,6.674,0,0,1-1.1-2.645,8.122,8.122,0,0,1,.158-3.409l4.93,1.166a5.007,5.007,0,0,0-.129,1.952,3.239,3.239,0,0,0,.56,1.4,3.131,3.131,0,0,0,1.053.918,5.4,5.4,0,0,0,1.33.507,4.473,4.473,0,0,0,1.456.126,2.979,2.979,0,0,0,1.149-.331,2.39,2.39,0,0,0,.819-.718A2.919,2.919,0,0,0,279.3,251.27Z" transform="translate(-267.397 -229.608)" fill="#da9627"/>
              </g>
            </g>
            <g id="Grupo_8106" data-name="Grupo 8106" transform="translate(0 145.349)">
              <circle id="Elipse_1215" data-name="Elipse 1215" cx="23.041" cy="23.041" r="23.041" transform="translate(3.453 47.34) rotate(-82.192)" fill="#ca8024"/>
              <circle id="Elipse_1216" data-name="Elipse 1216" cx="23.041" cy="23.041" r="23.041" transform="translate(0 9.799) rotate(-12.278)" fill="#ecb74a"/>
              <g id="Grupo_8104" data-name="Grupo 8104" transform="translate(6.387 6.689)">
                <path id="Caminho_13159" data-name="Caminho 13159" d="M190.025,360.636a20.993,20.993,0,1,1,15.448-4.419A20.854,20.854,0,0,1,190.025,360.636Zm4.638-40.468a19.741,19.741,0,1,0,17.365,21.86A19.762,19.762,0,0,0,194.663,320.168Z" transform="translate(-171.419 -318.784)" fill="#e8a22c"/>
              </g>
              <g id="Grupo_8105" data-name="Grupo 8105" transform="translate(17.659 12.404)">
                <path id="Caminho_13160" data-name="Caminho 13160" d="M196.343,347.05a3.471,3.471,0,0,0,.09-1.217,2.536,2.536,0,0,0-.4-1.064,4.791,4.791,0,0,0-.92-1.021,12.684,12.684,0,0,0-1.485-1.071,32.957,32.957,0,0,1-2.746-1.946A10.438,10.438,0,0,1,188.9,338.7a6.15,6.15,0,0,1-1.046-2.321,6.937,6.937,0,0,1,1.155-5.148,5.835,5.835,0,0,1,1.821-1.611,7.3,7.3,0,0,1,2.441-.837,9.718,9.718,0,0,1,2.927,0l.8-3.391,2.73.646-.814,3.438a8.729,8.729,0,0,1,2.477,1.406,6.584,6.584,0,0,1,2.436,4.516,8.744,8.744,0,0,1-.224,2.967l-4.929-1.166a4.268,4.268,0,0,0-.172-3.044,2.964,2.964,0,0,0-2.038-1.477,3.763,3.763,0,0,0-1.372-.1,2.552,2.552,0,0,0-1.052.37,2.379,2.379,0,0,0-.737.755,3.5,3.5,0,0,0-.429,1.053,3.2,3.2,0,0,0-.081,1.1,2.374,2.374,0,0,0,.381,1.019,4.791,4.791,0,0,0,.929,1.022,15.993,15.993,0,0,0,1.541,1.142q1.507,1.009,2.711,1.98a10.588,10.588,0,0,1,1.974,2.048,5.935,5.935,0,0,1,.95,5.119,6.355,6.355,0,0,1-1.078,2.389,5.766,5.766,0,0,1-1.827,1.593,7.034,7.034,0,0,1-2.448.793,10.477,10.477,0,0,1-2.939-.026l-.746,3.153-2.712-.641.742-3.137a11.754,11.754,0,0,1-2.591-1.265,7.462,7.462,0,0,1-2.022-1.925,6.68,6.68,0,0,1-1.1-2.645,8.136,8.136,0,0,1,.158-3.409l4.93,1.165a4.992,4.992,0,0,0-.128,1.953,3.239,3.239,0,0,0,.559,1.4,3.141,3.141,0,0,0,1.053.918,5.369,5.369,0,0,0,1.33.506,4.5,4.5,0,0,0,1.456.127,3.014,3.014,0,0,0,1.15-.331,2.388,2.388,0,0,0,.818-.718A2.9,2.9,0,0,0,196.343,347.05Z" transform="translate(-184.442 -325.387)" fill="#da9627"/>
              </g>
            </g>
            <g id="Grupo_8109" data-name="Grupo 8109" transform="translate(92.899 106.888)">
              <circle id="Elipse_1217" data-name="Elipse 1217" cx="23.041" cy="23.041" r="23.041" transform="translate(3.453 47.34) rotate(-82.192)" fill="#ca8024"/>
              <circle id="Elipse_1218" data-name="Elipse 1218" cx="23.041" cy="23.041" r="23.041" transform="translate(0 9.799) rotate(-12.278)" fill="#ecb74a"/>
              <g id="Grupo_8107" data-name="Grupo 8107" transform="translate(6.387 6.689)">
                <path id="Caminho_13161" data-name="Caminho 13161" d="M297.354,316.2a20.993,20.993,0,1,1,15.448-4.419A20.854,20.854,0,0,1,297.354,316.2Zm4.638-40.468a19.741,19.741,0,1,0,17.365,21.86A19.762,19.762,0,0,0,301.992,275.733Z" transform="translate(-278.748 -274.349)" fill="#e8a22c"/>
              </g>
              <g id="Grupo_8108" data-name="Grupo 8108" transform="translate(17.659 12.404)">
                <path id="Caminho_13162" data-name="Caminho 13162" d="M303.672,302.615a3.471,3.471,0,0,0,.09-1.217,2.536,2.536,0,0,0-.4-1.064,4.79,4.79,0,0,0-.92-1.021,12.672,12.672,0,0,0-1.485-1.071,32.945,32.945,0,0,1-2.746-1.946,10.439,10.439,0,0,1-1.986-2.034,6.149,6.149,0,0,1-1.046-2.321,6.937,6.937,0,0,1,1.155-5.148,5.826,5.826,0,0,1,1.821-1.611,7.3,7.3,0,0,1,2.441-.837,9.718,9.718,0,0,1,2.927,0l.8-3.391,2.73.646-.814,3.438a8.728,8.728,0,0,1,2.477,1.406,6.584,6.584,0,0,1,2.436,4.516,8.745,8.745,0,0,1-.224,2.967L306,292.759a4.268,4.268,0,0,0-.172-3.044,2.964,2.964,0,0,0-2.038-1.477,3.763,3.763,0,0,0-1.372-.1,2.541,2.541,0,0,0-1.052.37,2.377,2.377,0,0,0-.737.754,3.513,3.513,0,0,0-.429,1.053,3.2,3.2,0,0,0-.081,1.1,2.373,2.373,0,0,0,.381,1.019,4.79,4.79,0,0,0,.929,1.022,16,16,0,0,0,1.541,1.143q1.507,1.009,2.711,1.98a10.588,10.588,0,0,1,1.974,2.048,5.935,5.935,0,0,1,.95,5.119,6.355,6.355,0,0,1-1.078,2.389,5.766,5.766,0,0,1-1.827,1.593,7.034,7.034,0,0,1-2.448.793,10.477,10.477,0,0,1-2.939-.026l-.746,3.153-2.712-.641.742-3.137a11.752,11.752,0,0,1-2.591-1.265,7.461,7.461,0,0,1-2.022-1.925,6.679,6.679,0,0,1-1.1-2.645,8.136,8.136,0,0,1,.158-3.409l4.93,1.165a4.992,4.992,0,0,0-.128,1.953,3.229,3.229,0,0,0,.559,1.4,3.142,3.142,0,0,0,1.053.918,5.372,5.372,0,0,0,1.33.506,4.5,4.5,0,0,0,1.456.127,3,3,0,0,0,1.15-.331,2.387,2.387,0,0,0,.818-.718A2.9,2.9,0,0,0,303.672,302.615Z" transform="translate(-291.771 -280.952)" fill="#da9627"/>
              </g>
            </g>
            <g id="Grupo_8112" data-name="Grupo 8112" transform="translate(83.804)">
              <circle id="Elipse_1219" data-name="Elipse 1219" cx="23.041" cy="23.041" r="23.041" transform="translate(3.453 47.34) rotate(-82.192)" fill="#ca8024"/>
              <circle id="Elipse_1220" data-name="Elipse 1220" cx="23.041" cy="23.041" r="23.041" transform="translate(0 9.799) rotate(-12.278)" fill="#ecb74a"/>
              <g id="Grupo_8110" data-name="Grupo 8110" transform="translate(6.387 6.688)">
                <path id="Caminho_13163" data-name="Caminho 13163" d="M286.846,192.71a20.993,20.993,0,1,1,15.448-4.419A20.854,20.854,0,0,1,286.846,192.71Zm4.638-40.468a19.741,19.741,0,1,0,17.365,21.86A19.762,19.762,0,0,0,291.484,152.242Z" transform="translate(-268.24 -150.858)" fill="#e8a22c"/>
              </g>
              <g id="Grupo_8111" data-name="Grupo 8111" transform="translate(17.658 12.404)">
                <path id="Caminho_13164" data-name="Caminho 13164" d="M293.164,179.124a3.469,3.469,0,0,0,.089-1.217,2.527,2.527,0,0,0-.4-1.064,4.791,4.791,0,0,0-.92-1.021,12.76,12.76,0,0,0-1.485-1.071,32.949,32.949,0,0,1-2.746-1.946,10.413,10.413,0,0,1-1.986-2.034,6.136,6.136,0,0,1-1.046-2.321,6.937,6.937,0,0,1,1.155-5.148,5.836,5.836,0,0,1,1.821-1.611,7.293,7.293,0,0,1,2.441-.837,9.718,9.718,0,0,1,2.927,0l.8-3.391,2.73.646-.814,3.439a8.707,8.707,0,0,1,2.477,1.4,6.585,6.585,0,0,1,2.436,4.516,8.767,8.767,0,0,1-.224,2.967l-4.929-1.166a4.268,4.268,0,0,0-.172-3.044,2.966,2.966,0,0,0-2.038-1.477,3.763,3.763,0,0,0-1.372-.1,2.553,2.553,0,0,0-1.052.37,2.376,2.376,0,0,0-.737.754,3.512,3.512,0,0,0-.429,1.053,3.2,3.2,0,0,0-.081,1.1,2.374,2.374,0,0,0,.381,1.019,4.79,4.79,0,0,0,.929,1.022,16.08,16.08,0,0,0,1.54,1.143q1.509,1.009,2.711,1.98a10.563,10.563,0,0,1,1.974,2.048,6.234,6.234,0,0,1,1.044,2.33,6.972,6.972,0,0,1-1.17,5.178,5.775,5.775,0,0,1-1.827,1.593,7.035,7.035,0,0,1-2.448.793,10.508,10.508,0,0,1-2.939-.025l-.746,3.152-2.712-.641.742-3.137a11.753,11.753,0,0,1-2.591-1.265,7.461,7.461,0,0,1-2.022-1.925,6.68,6.68,0,0,1-1.1-2.645,8.122,8.122,0,0,1,.158-3.409l4.93,1.166a4.986,4.986,0,0,0-.128,1.952,3.228,3.228,0,0,0,.559,1.4,3.142,3.142,0,0,0,1.053.918,5.37,5.37,0,0,0,1.33.506,4.5,4.5,0,0,0,1.456.127,3,3,0,0,0,1.15-.331,2.4,2.4,0,0,0,.818-.718A2.9,2.9,0,0,0,293.164,179.124Z" transform="translate(-281.262 -157.461)" fill="#da9627"/>
              </g>
            </g>
            <g id="Grupo_8115" data-name="Grupo 8115" transform="translate(29.292 87.484)">
              <circle id="Elipse_1221" data-name="Elipse 1221" cx="12.716" cy="12.716" r="12.716" transform="matrix(0.815, -0.58, 0.58, 0.815, 0.835, 14.75)" fill="#ca8024"/>
              <circle id="Elipse_1222" data-name="Elipse 1222" cx="12.716" cy="12.716" r="12.716" transform="matrix(0.566, -0.824, 0.824, 0.566, 0, 21.685)" fill="#ecb74a"/>
              <g id="Grupo_8113" data-name="Grupo 8113" transform="translate(6.182 6.93)">
                <path id="Caminho_13165" data-name="Caminho 13165" d="M223.539,273.084a11.584,11.584,0,1,1,4.538-7.618A11.509,11.509,0,0,1,223.539,273.084ZM210.1,255.064a10.895,10.895,0,1,0,15.247,2.218A10.907,10.907,0,0,0,210.1,255.064Z" transform="translate(-205.024 -252.209)" fill="#e8a22c"/>
              </g>
              <g id="Grupo_8114" data-name="Grupo 8114" transform="translate(12.104 10.532)">
                <path id="Caminho_13166" data-name="Caminho 13166" d="M220.821,266.1a1.915,1.915,0,0,0-.424-.523,1.4,1.4,0,0,0-.563-.278,2.661,2.661,0,0,0-.756-.062,7.083,7.083,0,0,0-1,.132,18.262,18.262,0,0,1-1.84.256,5.789,5.789,0,0,1-1.568-.066,3.4,3.4,0,0,1-1.3-.538,3.825,3.825,0,0,1-1.483-2.506,3.221,3.221,0,0,1,.123-1.336,4.011,4.011,0,0,1,.665-1.259,5.343,5.343,0,0,1,1.175-1.109l-.96-1.666,1.341-.772.974,1.69a4.79,4.79,0,0,1,1.528-.372,3.629,3.629,0,0,1,2.687.894,4.821,4.821,0,0,1,1.032,1.278l-2.422,1.4a2.359,2.359,0,0,0-1.22-1.158,1.635,1.635,0,0,0-1.378.177,2.077,2.077,0,0,0-.589.479,1.408,1.408,0,0,0-.283.546,1.321,1.321,0,0,0-.01.583,1.929,1.929,0,0,0,.226.585,1.782,1.782,0,0,0,.384.473,1.306,1.306,0,0,0,.538.266,2.7,2.7,0,0,0,.76.06,9.074,9.074,0,0,0,1.051-.124q.988-.165,1.838-.229a5.816,5.816,0,0,1,1.568.076,3.275,3.275,0,0,1,2.318,1.7,3.5,3.5,0,0,1,.47,1.368,3.184,3.184,0,0,1-.132,1.33,3.889,3.889,0,0,1-.685,1.246,5.807,5.807,0,0,1-1.19,1.1l.892,1.549-1.333.768-.888-1.542a6.52,6.52,0,0,1-1.52.472,4.115,4.115,0,0,1-1.541-.01,3.678,3.678,0,0,1-1.444-.646,4.489,4.489,0,0,1-1.226-1.43l2.423-1.4a2.753,2.753,0,0,0,.686.834,1.78,1.78,0,0,0,.756.352,1.728,1.728,0,0,0,.77-.029,2.976,2.976,0,0,0,.726-.3,2.455,2.455,0,0,0,.634-.5,1.637,1.637,0,0,0,.337-.568,1.315,1.315,0,0,0,.058-.6A1.617,1.617,0,0,0,220.821,266.1Z" transform="translate(-211.866 -256.371)" fill="#da9627"/>
              </g>
            </g>
            <g id="Grupo_8118" data-name="Grupo 8118" transform="translate(48.907 171.054)">
              <circle id="Elipse_1223" data-name="Elipse 1223" cx="12.716" cy="12.716" r="12.716" transform="matrix(0.815, -0.58, 0.58, 0.815, 0.835, 14.75)" fill="#ca8024"/>
              <circle id="Elipse_1224" data-name="Elipse 1224" cx="12.716" cy="12.716" r="12.716" transform="matrix(0.566, -0.824, 0.824, 0.566, 0, 21.685)" fill="#ecb74a"/>
              <g id="Grupo_8116" data-name="Grupo 8116" transform="translate(6.182 6.929)">
                <path id="Caminho_13167" data-name="Caminho 13167" d="M246.2,369.635a11.584,11.584,0,1,1,4.538-7.618A11.506,11.506,0,0,1,246.2,369.635ZM232.76,351.615a10.895,10.895,0,1,0,15.247,2.218A10.907,10.907,0,0,0,232.76,351.615Z" transform="translate(-227.686 -348.76)" fill="#e8a22c"/>
              </g>
              <g id="Grupo_8117" data-name="Grupo 8117" transform="translate(12.104 10.532)">
                <path id="Caminho_13168" data-name="Caminho 13168" d="M243.483,362.649a1.912,1.912,0,0,0-.424-.523,1.4,1.4,0,0,0-.562-.278,2.7,2.7,0,0,0-.757-.062,7.1,7.1,0,0,0-1,.132,18.014,18.014,0,0,1-1.839.256,5.76,5.76,0,0,1-1.568-.066,3.385,3.385,0,0,1-1.3-.538,3.821,3.821,0,0,1-1.484-2.506,3.222,3.222,0,0,1,.123-1.336,4.01,4.01,0,0,1,.665-1.259,5.356,5.356,0,0,1,1.175-1.108l-.96-1.666,1.342-.773.973,1.69a4.812,4.812,0,0,1,1.528-.372,3.629,3.629,0,0,1,2.687.894,4.822,4.822,0,0,1,1.032,1.278l-2.422,1.4a2.359,2.359,0,0,0-1.22-1.158,1.633,1.633,0,0,0-1.377.177,2.083,2.083,0,0,0-.589.48,1.406,1.406,0,0,0-.282.546,1.321,1.321,0,0,0-.011.583,1.929,1.929,0,0,0,.226.585,1.782,1.782,0,0,0,.384.473,1.311,1.311,0,0,0,.538.266,2.631,2.631,0,0,0,.76.06,8.9,8.9,0,0,0,1.052-.124c.658-.11,1.272-.186,1.838-.229a5.851,5.851,0,0,1,1.568.076,3.275,3.275,0,0,1,2.318,1.7,3.486,3.486,0,0,1,.47,1.368,3.189,3.189,0,0,1-.132,1.331,3.892,3.892,0,0,1-.684,1.245,5.812,5.812,0,0,1-1.191,1.1l.892,1.549-1.332.768-.889-1.542a6.469,6.469,0,0,1-1.52.472,4.115,4.115,0,0,1-1.541-.01,3.67,3.67,0,0,1-1.444-.646,4.489,4.489,0,0,1-1.226-1.43l2.423-1.4a2.765,2.765,0,0,0,.686.834,1.783,1.783,0,0,0,.757.352,1.73,1.73,0,0,0,.77-.029,3,3,0,0,0,.726-.3,2.482,2.482,0,0,0,.633-.5,1.656,1.656,0,0,0,.338-.568,1.329,1.329,0,0,0,.057-.6A1.6,1.6,0,0,0,243.483,362.649Z" transform="translate(-234.528 -352.922)" fill="#da9627"/>
              </g>
            </g>
            <g id="Grupo_8121" data-name="Grupo 8121" transform="translate(52.13 126.002)">
              <circle id="Elipse_1225" data-name="Elipse 1225" cx="12.716" cy="12.716" r="12.716" transform="matrix(0.815, -0.58, 0.58, 0.815, 0.835, 14.75)" fill="#ca8024"/>
              <circle id="Elipse_1226" data-name="Elipse 1226" cx="12.716" cy="12.716" r="12.716" transform="matrix(0.566, -0.824, 0.824, 0.566, 0, 21.685)" fill="#ecb74a"/>
              <g id="Grupo_8119" data-name="Grupo 8119" transform="translate(6.182 6.93)">
                <path id="Caminho_13169" data-name="Caminho 13169" d="M249.924,317.585a11.585,11.585,0,1,1,4.538-7.619A11.506,11.506,0,0,1,249.924,317.585Zm-13.441-18.019a10.895,10.895,0,1,0,15.247,2.218A10.907,10.907,0,0,0,236.483,299.565Z" transform="translate(-231.409 -296.71)" fill="#e8a22c"/>
              </g>
              <g id="Grupo_8120" data-name="Grupo 8120" transform="translate(12.104 10.531)">
                <path id="Caminho_13170" data-name="Caminho 13170" d="M247.206,310.6a1.9,1.9,0,0,0-.424-.523,1.4,1.4,0,0,0-.562-.278,2.638,2.638,0,0,0-.756-.062,6.975,6.975,0,0,0-1,.132,18.257,18.257,0,0,1-1.839.256,5.759,5.759,0,0,1-1.568-.067,3.371,3.371,0,0,1-1.3-.538,3.826,3.826,0,0,1-1.484-2.506,3.221,3.221,0,0,1,.123-1.336,4.023,4.023,0,0,1,.665-1.259,5.4,5.4,0,0,1,1.175-1.108l-.96-1.666,1.342-.773.973,1.69a4.789,4.789,0,0,1,1.528-.371,3.629,3.629,0,0,1,2.687.894,4.832,4.832,0,0,1,1.032,1.277l-2.422,1.4a2.352,2.352,0,0,0-1.22-1.158,1.633,1.633,0,0,0-1.377.177,2.069,2.069,0,0,0-.589.479,1.4,1.4,0,0,0-.282.546,1.317,1.317,0,0,0-.011.582,1.934,1.934,0,0,0,.226.586,1.782,1.782,0,0,0,.384.473,1.311,1.311,0,0,0,.538.265,2.633,2.633,0,0,0,.76.06,8.88,8.88,0,0,0,1.052-.123c.658-.11,1.271-.186,1.838-.229a5.816,5.816,0,0,1,1.568.076,3.277,3.277,0,0,1,2.318,1.7,3.494,3.494,0,0,1,.47,1.368,3.184,3.184,0,0,1-.132,1.33,3.873,3.873,0,0,1-.684,1.245,5.763,5.763,0,0,1-1.191,1.1l.892,1.549-1.332.769-.889-1.542a6.507,6.507,0,0,1-1.52.472,4.132,4.132,0,0,1-1.541-.01,3.7,3.7,0,0,1-1.444-.646,4.489,4.489,0,0,1-1.227-1.43l2.423-1.4a2.764,2.764,0,0,0,.686.834,1.793,1.793,0,0,0,.756.352,1.729,1.729,0,0,0,.77-.029,2.97,2.97,0,0,0,.726-.3,2.463,2.463,0,0,0,.633-.5,1.648,1.648,0,0,0,.338-.568,1.326,1.326,0,0,0,.057-.6A1.6,1.6,0,0,0,247.206,310.6Z" transform="translate(-238.251 -300.871)" fill="#da9627"/>
              </g>
            </g>
            <g id="Grupo_8124" data-name="Grupo 8124" transform="translate(84.053 161.491)">
              <ellipse id="Elipse_1227" data-name="Elipse 1227" cx="19.422" cy="20.07" rx="19.422" ry="20.07" transform="translate(1.358)" fill="#ca8024"/>
              <ellipse id="Elipse_1228" data-name="Elipse 1228" cx="19.422" cy="20.07" rx="19.422" ry="20.07" transform="translate(0 1.047)" fill="#ecb74a"/>
              <g id="Grupo_8122" data-name="Grupo 8122" transform="translate(1.86 3.018)">
                <path id="Caminho_13171" data-name="Caminho 13171" d="M291.577,366.138a17.158,17.158,0,0,1-13.129,3.438,17.489,17.489,0,0,1-11.636-7.162,18.624,18.624,0,0,1-3.327-13.566,18.284,18.284,0,0,1,6.931-12.024,17.154,17.154,0,0,1,13.129-3.437,17.487,17.487,0,0,1,11.636,7.162,18.624,18.624,0,0,1,3.327,13.566A18.286,18.286,0,0,1,291.577,366.138ZM271.048,337.7a17.6,17.6,0,0,0-3.389,24.064,16.308,16.308,0,0,0,23.287,3.5,17.6,17.6,0,0,0,3.389-24.064A16.308,16.308,0,0,0,271.048,337.7Z" transform="translate(-263.298 -333.191)" fill="#e8a22c"/>
              </g>
              <g id="Grupo_8123" data-name="Grupo 8123" transform="translate(10.905 8.702)">
                <path id="Caminho_13172" data-name="Caminho 13172" d="M287.426,355.112a3,3,0,0,0-.647-.826,2.108,2.108,0,0,0-.859-.438,3.9,3.9,0,0,0-1.155-.1,10.32,10.32,0,0,0-1.53.207,27.2,27.2,0,0,1-2.81.405,8.5,8.5,0,0,1-2.394-.106,5.077,5.077,0,0,1-1.983-.848,5.456,5.456,0,0,1-1.561-1.837,5.616,5.616,0,0,1-.7-2.118,5.236,5.236,0,0,1,.188-2.109,6.405,6.405,0,0,1,1.015-1.987,8.286,8.286,0,0,1,1.8-1.748l-1.466-2.63,2.049-1.22,1.487,2.667a7.143,7.143,0,0,1,2.333-.587,5.533,5.533,0,0,1,2.181.272,5.669,5.669,0,0,1,1.922,1.139,7.607,7.607,0,0,1,1.576,2.016l-3.7,2.2a3.648,3.648,0,0,0-1.864-1.829,2.43,2.43,0,0,0-2.1.279,3.209,3.209,0,0,0-.9.757,2.246,2.246,0,0,0-.431.862,2.132,2.132,0,0,0-.016.918,3.107,3.107,0,0,0,.345.924,2.808,2.808,0,0,0,.587.747,1.987,1.987,0,0,0,.822.419,3.928,3.928,0,0,0,1.162.094,13.3,13.3,0,0,0,1.6-.195q1.509-.26,2.808-.363a8.626,8.626,0,0,1,2.4.121,5.162,5.162,0,0,1,1.986.855,5.426,5.426,0,0,1,1.555,1.824,5.656,5.656,0,0,1,.718,2.159,5.167,5.167,0,0,1-.2,2.1,6.188,6.188,0,0,1-1.044,1.965,8.964,8.964,0,0,1-1.819,1.738l1.364,2.445-2.036,1.212-1.357-2.433a9.652,9.652,0,0,1-2.321.744,6.078,6.078,0,0,1-2.353-.015,5.533,5.533,0,0,1-2.205-1.02,7,7,0,0,1-1.872-2.257l3.7-2.2a4.337,4.337,0,0,0,1.049,1.315,2.693,2.693,0,0,0,1.155.557,2.562,2.562,0,0,0,1.176-.046,4.459,4.459,0,0,0,1.11-.473,3.8,3.8,0,0,0,.967-.789,2.626,2.626,0,0,0,.515-.9,2.148,2.148,0,0,0,.087-.944A2.578,2.578,0,0,0,287.426,355.112Z" transform="translate(-273.748 -339.759)" fill="#da9627"/>
              </g>
            </g>
          </g>
        </g>
      </g>
    </g>
  </g>
  <g id="Character_1" data-name="Character 1" transform="translate(0 14.182)">
    <path id="Caminho_13173" data-name="Caminho 13173" d="M88.031,163.365c2.77,1.868,5.875,3.322,8.194,5.727a16.571,16.571,0,0,1,4.3,10.684A28.555,28.555,0,0,1,98.4,191.264a14.518,14.518,0,0,1-3.6,5.863,12.5,12.5,0,0,1-5.907,2.652,26.344,26.344,0,0,1-12.635-.766,21.925,21.925,0,0,1-9.662-5.553,25.222,25.222,0,0,1-4.7-7.586,44.8,44.8,0,0,1-3.539-13.386,78.589,78.589,0,0,1,.247-13.414q.417-5.528.834-11.057c.151-2.006-.08-7.209,2.457-8.041,2.091-.686,5.34,2.792,6.749,4.058,4.412,3.963,8.009,8.72,12.1,12.992A45.354,45.354,0,0,0,88.031,163.365Z" transform="translate(-34.444 -89.092)" fill="#263238"/>
    <path id="Caminho_13174" data-name="Caminho 13174" d="M74.9,185.528s10.311.758,15.53-2.484,17.051,9.98,17.051,9.98L103.4,262.216s-10.368,2.192-16.768-.854-9.545-2.9-11.081-6.552-1.559-9.723-8.173-15.005-6.62-8.031-8.668-11.367-8.662-7.975-9.119-11.663.228-12.973.228-12.973l12.634-9.836S65.548,183.047,74.9,185.528Z" transform="translate(-33.271 -94.825)" fill="#ff7d00"/>
    <path id="Caminho_13175" data-name="Caminho 13175" d="M86.178,195.049A55.685,55.685,0,0,0,89.028,208.4a33.871,33.871,0,0,0-15.678,4.316,60.8,60.8,0,0,0,13.584,14.634,8.84,8.84,0,0,1,4.906-3.144c.747-.176,1.519-.254,2.248-.5a8.592,8.592,0,0,0,1.938-1,25.474,25.474,0,0,0,11.37-20.383,32.031,32.031,0,0,0-3.122-13.862c-1.6-3.541-4.053-7.155-7.826-8.1a13.034,13.034,0,0,0-6.014.269c-1.542.351-3.808.641-5.149,1.5-2.091,1.346-1.506.9-.814,3.208A46.54,46.54,0,0,1,86.178,195.049Z" transform="translate(-36.487 -94.501)" opacity="0.1"/>
    <path id="Caminho_13176" data-name="Caminho 13176" d="M66.532,147.476s5.453,9.428,7.047,14.024a25.966,25.966,0,0,1,.912,11.592,21.645,21.645,0,0,0,2.366,7.135l3.346.589s4.628,9.716,4.909,24.05c0,0-7.9-9.988-13.368-12.6s-4.346-2.325-4.346-2.325-4.469-7.876-6.8-10.288S48.155,185.1,48.155,185.1L37.644,168.312l5.186-9.777,7.039-5.461,6.888-5.6h9.776Z" transform="translate(-31.686 -90.112)" fill="#fff"/>
    <g id="Grupo_8129" data-name="Grupo 8129" transform="translate(71.998 274.705)">
      <path id="Caminho_13177" data-name="Caminho 13177" d="M118.645,418.3a22.282,22.282,0,0,0,14.2,8.348c1.308.2,2.965.09,3.513-1.113a2.965,2.965,0,0,0,.091-1.716c-1.261-7.495-8.431-12.371-12.274-18.929-1.086-1.854-2.529-6.635-4.9-6.3-1.075.154-4.059,3.417-4.6,4.466C112.379,407.525,115.931,414.774,118.645,418.3Z" transform="translate(-113.942 -398.575)" fill="#fff" stroke="#263238" stroke-width="1"/>
      <path id="Caminho_13178" data-name="Caminho 13178" d="M114.8,403.755s.58,8.221,5.81,13.016,6.634,7.491,15.958,7.742" transform="translate(-114.057 -399.272)" fill="#fff" stroke="#263238" stroke-width="1"/>
    </g>
    <g id="Grupo_8130" data-name="Grupo 8130" transform="translate(100.225 261.379)">
      <path id="Caminho_13179" data-name="Caminho 13179" d="M146.93,385.954s-1.638,9.336,1.911,14.038,7.1,3.7,12.834,4.744c3.807.7,6.978,3.419,11.028,2.415,3.63-.9,1.367-3.532-.363-4.98-3.813-3.19-8.319-5.468-12.165-8.63-6.693-5.5-5.52-10.362-5.52-10.362Z" transform="translate(-146.553 -383.18)" fill="#fff" stroke="#263238" stroke-width="1"/>
      <path id="Caminho_13180" data-name="Caminho 13180" d="M147.747,399.89c1.537,1,2.385,2.28,3.985,3.17,2.3,1.278,5.086,1.091,7.7,1.344a21.9,21.9,0,0,1,4.527.929,27.074,27.074,0,0,0,4.815,1.408,8.4,8.4,0,0,0,4.729-.811" transform="translate(-146.714 -385.427)" fill="none" stroke="#263238" stroke-width="1"/>
    </g>
    <path id="Caminho_13181" data-name="Caminho 13181" d="M93.1,273.623s-6.793,22.758,0,46.534.339,38.381,15.285,67.932c0,0,6.994,5.774,11.818-2.718,0,0-1.371-32.947-3.707-40.759s7.7-24.863,4.378-41.133a126.627,126.627,0,0,0-10.452-29.857S99.217,276,93.1,273.623Z" transform="translate(-38.736 -107.072)" fill="#263238"/>
    <path id="Caminho_13182" data-name="Caminho 13182" d="M132.212,335.479s4.973,33.07,11.189,45.5c0,0,7.211,5.222,11.687-1.491,0,0,.5-54.951-3.979-59.178S132.212,335.479,132.212,335.479Z" transform="translate(-44.4 -113.268)" fill="#263238"/>
    <path id="Caminho_13183" data-name="Caminho 13183" d="M203.46,87.549l29.4,194.511a7.461,7.461,0,0,1-6.262,8.493L120.989,306.518a7.46,7.46,0,0,1-8.493-6.262l-29.4-194.512a7.462,7.462,0,0,1,6.263-8.493L194.967,81.287a7.462,7.462,0,0,1,7.533,3.57A7.373,7.373,0,0,1,203.46,87.549Z" transform="translate(-37.785 -81.202)" fill="#fff"/>
    <rect id="Retângulo_3159" data-name="Retângulo 3159" width="13.991" height="1.202" transform="translate(142.92 22.16) rotate(-8.596)" fill="#263238"/>
    <rect id="Retângulo_3160" data-name="Retângulo 3160" width="13.991" height="1.202" transform="translate(142.403 18.743) rotate(-8.596)" fill="#263238"/>
    <rect id="Retângulo_3161" data-name="Retângulo 3161" width="13.991" height="1.202" transform="translate(141.887 15.327) rotate(-8.596)" fill="#263238"/>
    <path id="Caminho_13184" data-name="Caminho 13184" d="M207.434,250.141l1.4,9.282a5.124,5.124,0,0,1-4.3,5.836l-63.394,9.583a5.13,5.13,0,0,1-5.843-4.3l-1.4-9.282a5.135,5.135,0,0,1,4.309-5.843l63.394-9.583A5.129,5.129,0,0,1,207.434,250.141Z" transform="translate(-44.618 -103.327)" fill="#ff7d00"/>
    <rect id="Retângulo_3162" data-name="Retângulo 3162" width="100.361" height="1.796" transform="translate(81.144 189.807) rotate(-8.596)" fill="#263238"/>
    <rect id="Retângulo_3163" data-name="Retângulo 3163" width="100.361" height="1.796" transform="translate(81.873 194.632) rotate(-8.596)" fill="#263238"/>
    <rect id="Retângulo_3164" data-name="Retângulo 3164" width="100.361" height="1.796" transform="translate(82.602 199.457) rotate(-8.596)" fill="#263238"/>
    <rect id="Retângulo_3165" data-name="Retângulo 3165" width="100.361" height="1.796" transform="translate(83.332 204.283) rotate(-8.596)" fill="#263238"/>
    <path id="Caminho_13185" data-name="Caminho 13185" d="M207.659,250.141l1.4,9.282a5.124,5.124,0,0,1-4.3,5.836l-63.394,9.583a5.13,5.13,0,0,1-5.842-4.3l-.016-.1c11.669.132,52.407-1.117,65.5-24.482l.811-.122A5.129,5.129,0,0,1,207.659,250.141Z" transform="translate(-44.843 -103.327)" opacity="0.1"/>
    <path id="Caminho_13186" data-name="Caminho 13186" d="M207.434,250.141l1.4,9.282a5.124,5.124,0,0,1-4.3,5.836l-63.394,9.583a5.13,5.13,0,0,1-5.843-4.3l-1.4-9.282a5.135,5.135,0,0,1,4.309-5.843l63.394-9.583A5.129,5.129,0,0,1,207.434,250.141Z" transform="translate(-44.618 -103.327)" fill="none" stroke="#263238" stroke-linecap="round" stroke-linejoin="round" stroke-width="1"/>
    <g id="Grupo_8131" data-name="Grupo 8131" transform="translate(114.09 129.043)">
      <path id="Caminho_13187" data-name="Caminho 13187" d="M165.633,234.137a1.539,1.539,0,1,1-1.752-1.292A1.539,1.539,0,0,1,165.633,234.137Z" transform="translate(-162.572 -230.63)" fill="#263238"/>
      <path id="Caminho_13188" data-name="Caminho 13188" d="M174.028,232.868a1.539,1.539,0,1,1-1.752-1.292A1.539,1.539,0,0,1,174.028,232.868Z" transform="translate(-163.7 -230.459)" fill="#263238"/>
      <path id="Caminho_13189" data-name="Caminho 13189" d="M182.423,231.6a1.539,1.539,0,1,1-1.752-1.292A1.539,1.539,0,0,1,182.423,231.6Z" transform="translate(-164.829 -230.289)" fill="#263238"/>
    </g>
    <rect id="Retângulo_3166" data-name="Retângulo 3166" width="55.059" height="7.511" rx="3.74" transform="translate(56.646 28.212) rotate(-8.596)" fill="#fff" stroke="#263238" stroke-width="1"/>
    <line id="Linha_28" data-name="Linha 28" x1="0.56" y1="3.704" transform="translate(61.75 29.428)" fill="none" stroke="#263238" stroke-linecap="round" stroke-linejoin="round" stroke-width="1"/>
    <g id="Grupo_8132" data-name="Grupo 8132" transform="translate(59.753 33.786)">
      <rect id="Retângulo_3167" data-name="Retângulo 3167" width="100.2" height="85.434" transform="translate(0 14.976) rotate(-8.596)" fill="#c6ff00"/>
      <rect id="Retângulo_3168" data-name="Retângulo 3168" width="100.2" height="85.434" transform="translate(0 14.976) rotate(-8.596)" fill="#ffab66"/>
      <rect id="Retângulo_3169" data-name="Retângulo 3169" width="100.2" height="85.434" transform="translate(0 14.976) rotate(-8.596)" fill="none" stroke="#263238" stroke-width="1"/>
    </g>
    <path id="Caminho_13190" data-name="Caminho 13190" d="M208.514,88.117l29.4,194.511a7.461,7.461,0,0,1-6.262,8.493L126.043,307.086a7.434,7.434,0,0,1-5.44-1.3c23.534-20.869,97.721-97.051,86.951-220.364A7.373,7.373,0,0,1,208.514,88.117Z" transform="translate(-42.839 -81.77)" opacity="0.1"/>
    <path id="Caminho_13191" data-name="Caminho 13191" d="M203.46,87.549l29.4,194.511a7.461,7.461,0,0,1-6.262,8.493L120.989,306.518a7.46,7.46,0,0,1-8.493-6.262l-29.4-194.512a7.462,7.462,0,0,1,6.263-8.493L194.967,81.287a7.462,7.462,0,0,1,7.533,3.57A7.373,7.373,0,0,1,203.46,87.549Z" transform="translate(-37.785 -81.202)" fill="none" stroke="#263238" stroke-width="1"/>
    <path id="Caminho_13192" data-name="Caminho 13192" d="M68.429,149.322s5.72,11.265,7.151,15.384-.03,10.922-3.624,13.984-7.619,2.868-12.09.656a69.185,69.185,0,0,1-9.007-5.588,4.741,4.741,0,0,0-.933.071c-.881-.011-4.36-1.353-5.54-3.54-2.922-5.422,3.528-3.488,4.831-2.594" transform="translate(-32.492 -90.36)" fill="none" stroke="#263238" stroke-linecap="round" stroke-linejoin="round" stroke-width="1"/>
    <path id="Caminho_13199" data-name="Caminho 13199" d="M47,166.007c.158.116,8.333-4.225,9.287-16.523,0,0,4.69,3.58,12.325.6,0,0-6.279-12.942-15.479-11.157S35.915,146.792,35.6,157.566c-.222,7.664,1.39,15.287,1.458,22.953a37.63,37.63,0,0,1-1.381,11.547c-1.947,6.243-6.347,10.42-4.455,17.476,1.4,5.217,6.023,11.253,11.605,10.526,2.351-.306,7.749-1.681,8.65-2.765a16.225,16.225,0,0,1-2.791-6.413c-.45-6.332,1.016-8.75,1.016-8.75l14.65-16.913-4.074-6.393-11.152-6.5s-4.622.529-7.162-5.2C41.493,163.741,47,166.007,47,166.007Z" transform="translate(-30.761 -88.94)" fill="#263238"/>
    <path id="Caminho_13200" data-name="Caminho 13200" d="M86.891,232.773s-11.154-8.529-16.083-17.994" transform="translate(-36.145 -99.161)" fill="none" stroke="#263238" stroke-linecap="round" stroke-linejoin="round" stroke-width="1"/>
    <path id="Caminho_13201" data-name="Caminho 13201" d="M95.749,231.38c-.3-.8-1.457-.875-2.191-.446a19,19,0,0,0-1.894,1.7,9.414,9.414,0,0,0-1.506,1.144,3.941,3.941,0,0,0-.724,1.931,28.575,28.575,0,0,0-.122,8.8" transform="translate(-38.595 -101.298)" fill="none" stroke="#263238" stroke-linecap="round" stroke-linejoin="round" stroke-width="1"/>
    <path id="Caminho_13202" data-name="Caminho 13202" d="M85.453,245.627a24.227,24.227,0,0,1,1.65-6.58" transform="translate(-38.114 -102.423)" fill="none" stroke="#263238" stroke-linecap="round" stroke-linejoin="round" stroke-width="1"/>
    <path id="Caminho_13203" data-name="Caminho 13203" d="M100.388,249.564a2.272,2.272,0,0,1,.038,3.313,10.065,10.065,0,0,1-1.2.755c-1.224.8-1.894,2.22-3.01,3.163a4.085,4.085,0,0,1-5.467-.087c-1.138-1.258-1.421-3.93-1.362-5.625" transform="translate(-38.642 -103.837)" fill="none" stroke="#263238" stroke-linecap="round" stroke-linejoin="round" stroke-width="1"/>
    <path id="Caminho_13204" data-name="Caminho 13204" d="M84.992,249.744c-7.26.859-30.73-24.579-30.73-24.579-3.5-4.293-3.574-10.9-.96-15.811,2.5-4.7,7.44-7.644,10.331-12.116" transform="translate(-33.545 -96.802)" fill="none" stroke="#263238" stroke-linecap="round" stroke-linejoin="round" stroke-width="1"/>
    <path id="Caminho_13205" data-name="Caminho 13205" d="M65.585,185.683a22.338,22.338,0,0,1,4.521,8.478" transform="translate(-35.443 -95.249)" fill="none" stroke="#263238" stroke-linecap="round" stroke-linejoin="round" stroke-width="1"/>
    <path id="Caminho_13206" data-name="Caminho 13206" d="M80.214,177.07a12.408,12.408,0,0,0,4.054,9.086" transform="translate(-37.409 -94.091)" fill="none" stroke="#263238" stroke-linecap="round" stroke-linejoin="round" stroke-width="1"/>
    <path id="Caminho_13207" data-name="Caminho 13207" d="M67.044,194.258c-1.727,1.8-1,5.531,1.17,6.752,2.3,1.3,5.235.147,7.8.771a2,2,0,0,1,.962.466,2.567,2.567,0,0,1,.493,1.813c.033,1.357.269,2.891,1.384,3.666a6.655,6.655,0,0,0,2.366.744c4.425,1.033,7.4,3.742,9.651,7.688" transform="translate(-35.51 -96.402)" fill="none" stroke="#263238" stroke-linecap="round" stroke-linejoin="round" stroke-width="1"/>
    <path id="Caminho_13208" data-name="Caminho 13208" d="M70.161,195.742a39.354,39.354,0,0,1,22.133,22.793" transform="translate(-36.058 -96.601)" fill="none" stroke="#263238" stroke-linecap="round" stroke-linejoin="round" stroke-width="1"/>
    <path id="Caminho_13209" data-name="Caminho 13209" d="M59.6,234.774c2.57,8.406,12.054,12.512,14.991,20.8.747,2.107,1.058,4.418,2.321,6.261,1.615,2.358,4.457,3.493,7.13,4.5,1.819.686,3.924,2.22,5.744,2.907" transform="translate(-34.638 -101.849)" fill="none" stroke="#263238" stroke-linecap="round" stroke-linejoin="round" stroke-width="1"/>
    <path id="Caminho_13210" data-name="Caminho 13210" d="M102.7,273.713c-2.281-.289-4.055-2.085-5.475-3.894s-2.768-3.812-4.82-4.85" transform="translate(-39.049 -105.908)" fill="none" stroke="#263238" stroke-linecap="round" stroke-linejoin="round" stroke-width="1"/>
    <path id="Caminho_13211" data-name="Caminho 13211" d="M83.151,185.46a16.2,16.2,0,0,0,9.071-.813" transform="translate(-37.804 -95.109)" fill="none" stroke="#263238" stroke-linecap="round" stroke-linejoin="round" stroke-width="1"/>
    <path id="Caminho_13212" data-name="Caminho 13212" d="M87.212,185.993c2.49,7.588,5.083,16.836,4.517,24.916" transform="translate(-38.35 -95.29)" fill="none" stroke="#263238" stroke-linecap="round" stroke-linejoin="round" stroke-width="1"/>
    <g id="Grupo_8134" data-name="Grupo 8134" transform="translate(55.361 97.373)">
      <path id="Caminho_13213" data-name="Caminho 13213" d="M94.721,227.905s.344,10.372,4.89,14.811c0,0,11.215-11.109,16-17.976s10.114-15.016,11.673-20.716-2.414-7.237-2.414-7.237-1.192-3.238-2.412-2.871-3.246,6.307-3.246,6.307-1.27-3.062-3.786,1.407-3.722,6.511-1.986,10.575l-9.885,9.644Z" transform="translate(-94.721 -193.724)" fill="#fff"/>
      <g id="Grupo_8133" data-name="Grupo 8133">
        <path id="Caminho_13214" data-name="Caminho 13214" d="M117.806,204.785s2.135-5.9,0-4.63-4.146,4.755-4.9,6.765.531,6.1.531,6.1c-5.342,7.122-13.711,12.627-18.716,15.7" transform="translate(-94.721 -194.543)" fill="none" stroke="#263238" stroke-linecap="round" stroke-linejoin="round" stroke-width="1"/>
        <path id="Caminho_13215" data-name="Caminho 13215" d="M118.834,203.138s3-8.242,4.38-9.247,1.381,2.261,1.381,2.261,2.136,1.024,2.513,2.271,1.381,2.171,1.13,4.723-6.648,13.86-6.648,13.86c-2.09,4.443-12.805,17.636-21.22,25.685" transform="translate(-95.48 -193.699)" fill="none" stroke="#263238" stroke-linecap="round" stroke-linejoin="round" stroke-width="1"/>
        <path id="Caminho_13216" data-name="Caminho 13216" d="M128.216,196.533a40.171,40.171,0,0,1-.917,4.873" transform="translate(-99.101 -194.08)" fill="none" stroke="#263238" stroke-linecap="round" stroke-linejoin="round" stroke-width="1"/>
      </g>
    </g>
    <path id="Caminho_13217" data-name="Caminho 13217" d="M94.953,232.867a1.6,1.6,0,0,0-.473,1.434,23.906,23.906,0,0,0,5.841,14.93" transform="translate(-39.327 -101.592)" fill="none" stroke="#263238" stroke-linecap="round" stroke-linejoin="round" stroke-width="1"/>
    <path id="Caminho_13218" data-name="Caminho 13218" d="M50.152,230.676" transform="translate(-33.368 -101.298)" fill="#263238"/>
    <path id="Caminho_13219" data-name="Caminho 13219" d="M42.362,173.188A51.618,51.618,0,0,1,43.9,192.029c-.5,4.864-1.7,9.685-1.542,14.573s2,10.085,6.145,12.676" transform="translate(-32.318 -93.569)" fill="none" stroke="#fff" stroke-linecap="round" stroke-linejoin="round" stroke-width="1" opacity="0.2"/>
    <path id="Caminho_13220" data-name="Caminho 13220" d="M46.881,162.788a98.956,98.956,0,0,0,6.836-14.759" transform="translate(-32.928 -90.186)" fill="none" stroke="#fff" stroke-linecap="round" stroke-linejoin="round" stroke-width="1" opacity="0.2"/>
    <path id="Caminho_13221" data-name="Caminho 13221" d="M43.324,161.625c2.114-5.061,1.667-10.853,3.388-16.061" transform="translate(-32.45 -89.855)" fill="none" stroke="#fff" stroke-linecap="round" stroke-linejoin="round" stroke-width="1" opacity="0.2"/>
    <path id="Caminho_13222" data-name="Caminho 13222" d="M67.572,184.817s5.785,2.729,8.7,1.562,1.688-7.647,1.688-7.647S75.043,186.029,67.572,184.817Z" transform="translate(-35.71 -94.314)" fill="#263238"/>
    <path id="Caminho_13223" data-name="Caminho 13223" d="M175.911,158.177l-8.386,1.267-1.267-8.386a4.576,4.576,0,0,0-5.209-3.84l-11.379,1.72a4.575,4.575,0,0,0-3.84,5.208l1.267,8.386-8.386,1.267a4.576,4.576,0,0,0-3.84,5.208l1.72,11.379a4.575,4.575,0,0,0,5.208,3.84l8.386-1.267,1.267,8.386a4.575,4.575,0,0,0,5.208,3.84l11.379-1.72a4.575,4.575,0,0,0,3.84-5.208l-1.267-8.386L179,178.6a4.576,4.576,0,0,0,3.84-5.208l-1.72-11.379A4.575,4.575,0,0,0,175.911,158.177Z" transform="translate(-44.751 -90.07)" fill="#ff7d00"/>
  </g>
</svg>
