<svg height="129.854" viewBox="0 0 129.854 129.854" width="129.854" xmlns="http://www.w3.org/2000/svg"><g fill="#ff7d00"><path d="m54.375 49.375a4.192 4.192 0 0 1 4.188 4.188h4.188a8.364 8.364 0 0 0 -6.282-8.078v-4.485h-4.187v4.188h-6.282v8.375a8.384 8.384 0 0 0 8.375 8.375 4.192 4.192 0 0 1 4.188 4.188v4.188h-4.188a4.192 4.192 0 0 1 -4.188-4.188h-4.187a8.364 8.364 0 0 0 6.282 8.074v4.485h4.188v-4.185h6.282v-8.374a8.384 8.384 0 0 0 -8.375-8.375 4.192 4.192 0 0 1 -4.188-4.188v-4.188z" transform="translate(48.26 42.79)"/><path d="m126.666 89.184v-60.956h-8.378v-16.756h-4.188v16.756h-8.378v-12.567h-4.189v12.567h-4.189v-27.228h-32.711l-4.189 8.378h-9.178v25.284a25.961 25.961 0 0 0 -2.75-.151 25.62 25.62 0 0 0 -18.236 7.552l-1.047 1.047a13.136 13.136 0 0 0 -9.383 12.6v20.69a8.386 8.386 0 0 0 8.378 8.378h3.642a28.178 28.178 0 0 0 6.83 8.057v2.305a4.168 4.168 0 0 1 -2.67 3.9l-20.03 7.794a23.381 23.381 0 0 0 -15 21.926v2.094h92.155v-2.1a27.189 27.189 0 0 0 33.511-39.574zm-50.114 17.027-8.531-3.318v-18.413a8.366 8.366 0 0 0 6.279-8.08v-10.473h31.416v10.579c-.693-.054-1.387-.107-2.094-.107a27.259 27.259 0 0 0 -27.222 27.228c0 .865.073 1.726.153 2.585zm-21.097-11.071v-2.306a28.173 28.173 0 0 0 6.83-8.057h1.548v16.487l-5.705-2.218a4.17 4.17 0 0 1 -2.673-3.906zm10.428-22.93h.044a4.189 4.189 0 1 1 0 8.378h-1.711a27.733 27.733 0 0 0 1.667-8.377zm39.838-14.66v4.189h-31.421v-1.439a25.9 25.9 0 0 0 -.151-2.75zm-20.944-4.189v-12.567h37.7v43.231a27.193 27.193 0 0 0 -12.567-6.865v-23.8zm37.7-16.755h-33.511v-4.19h33.511zm-55.255-31.417h25.933v4.189h-28.028zm-11.767 8.378h37.7v14.661h-8.378v8.378h-4.189v16.755h-7.259a25.853 25.853 0 0 0 -17.874-17.874zm-24.626 33.448.566-.14 1.847-1.847a21.6 21.6 0 0 1 36.874 15.272v8.887a8.291 8.291 0 0 0 -4.189-1.165v-6.284h-3.682a19.226 19.226 0 0 1 -13.687-5.67l-1.481-1.481-1.477 1.482a19.226 19.226 0 0 1 -13.687 5.67h-3.685v6.283a8.292 8.292 0 0 0 -4.189 1.165v-13.474a8.953 8.953 0 0 1 6.79-8.7zm-2.6 33.574a4.189 4.189 0 0 1 0-8.378h.044a27.606 27.606 0 0 0 1.667 8.378zm4.189-9.517v-5.149a23.362 23.362 0 0 0 14.661-5.529 23.362 23.362 0 0 0 14.661 5.529v5.148a23.848 23.848 0 0 1 -14.663 21.929 23.846 23.846 0 0 1 -14.661-21.929zm13.922 26.14.737.274.737-.276a27.6 27.6 0 0 0 3.486-1.61 8.286 8.286 0 0 0 1.889 4.859l-.2.741a6.126 6.126 0 0 1 -11.823 0l-.2-.741a8.287 8.287 0 0 0 1.889-4.859 27.3 27.3 0 0 0 3.485 1.611zm30.06 29.454v-8.378h-4.189v8.378h-50.267v-8.378h-4.189v8.378h-12.455a19.2 19.2 0 0 1 12.219-15.928l19.864-7.724a10.262 10.262 0 0 0 19.39 0l19.864 7.724a19.2 19.2 0 0 1 12.219 15.928zm27.228 0a23 23 0 0 1 -11-2.836 23.29 23.29 0 0 0 -11.549-15.612 23.021 23.021 0 1 1 22.544 18.448z" transform="translate(-1 -1)"/><path d="m43 22h29.314v4.188h-29.314z" transform="translate(44.979 21.983)"/><path d="m38 34h23.032v4.188h-23.032z" transform="translate(39.498 35.117)"/><path d="m29 9h4.188v4.188h-4.188z" transform="translate(29.645 7.751)"/><path d="m41 9h4.188v4.188h-4.188z" transform="translate(42.777 7.751)"/><path d="m33 9h4.188v4.188h-4.188z" transform="translate(34.021 7.751)"/><path d="m37 9h4.188v4.188h-4.188z" transform="translate(38.4 7.751)"/><path d="m33 13h4.188v4.188h-4.188z" transform="translate(34.021 12.133)"/><path d="m37 13h4.188v4.188h-4.188z" transform="translate(38.4 12.133)"/><path d="m29 13h4.188v4.188h-4.188z" transform="translate(29.645 12.133)"/></g></svg>