<svg height="76.8" viewBox="0 0 73.375 76.8" width="73.375" xmlns="http://www.w3.org/2000/svg"><g fill="#001f40"><path d="m105.932 196.121a1.168 1.168 0 0 0 1.168 1.168h31.7a1.168 1.168 0 0 0 0-2.335h-31.7a1.168 1.168 0 0 0 -1.168 1.167z" transform="translate(-92.171 -165.744)"/><path d="m107.1 255.587h29.771a1.168 1.168 0 1 0 0-2.335h-29.771a1.168 1.168 0 0 0 0 2.335z" transform="translate(-92.127 -215.308)"/><path d="m107.1 313.886h27.468a1.168 1.168 0 1 0 0-2.335h-27.468a1.168 1.168 0 1 0 0 2.335z" transform="translate(-92.078 -264.872)"/><path d="m107.1 372.185h18.811a1.168 1.168 0 1 0 0-2.335h-18.811a1.168 1.168 0 1 0 0 2.335z" transform="translate(-91.933 -314.436)"/></g><path d="m143.217 105.487a1.965 1.965 0 0 0 1.963-1.963v-4.707a1.965 1.965 0 0 0 -1.963-1.963h-25.695a1.965 1.965 0 0 0 -1.963 1.963v4.708a1.965 1.965 0 0 0 1.963 1.963h25.695zm-25.323-6.3h24.951v3.963h-24.951z" fill="#ff7d00" transform="translate(-100.296 -82.393)"/><path d="m236.377 430.8c-.467.95-1.8-.885-2.546-1.709-.895-.846-.862-1.338-1.714-1.567-1.966.164-1.5 2.875-3.178 3.473s-2.105-1.966-3.8-1.966-1.564 1.827-2.982 1.966-2.687-1.409-2.687-1.409" fill="none" stroke="#ff7d00" stroke-linecap="round" stroke-width="2" transform="translate(-188.16 -364.5)"/><path d="m84.24 17.378a1.124 1.124 0 0 0 -.667-.544l-3.736-1.116.671-2.249a2.438 2.438 0 0 0 -.189-1.874 2.473 2.473 0 0 0 -.459-.606l1.24-4.169a4.171 4.171 0 0 0 -2.8-5.181 4.163 4.163 0 0 0 -5.178 2.8l-1.236 4.166a2.452 2.452 0 0 0 -1.832 1.512l-9.634-9.191-.169-.161a3.876 3.876 0 0 0 -.61-.511l-.03-.02-.011-.008a1.112 1.112 0 0 0 -.281-.126 1.693 1.693 0 0 0 -.583-.1h-45.609a2.13 2.13 0 0 0 -2.127 2.129v32.192a1.123 1.123 0 1 0 2.246 0v-32.071h44.63l-.007 6.5a5.173 5.173 0 0 0 5.163 5.172h5.876l-4.618 15.464a1.123 1.123 0 1 0 2.152.645l5.036-16.87c.009-.028.018-.056.025-.084l.633-2.12a.214.214 0 0 1 .261-.136l5.823 1.741a.209.209 0 0 1 .136.259l-.993 3.325v.016l-12.25 41.024-2.032-.607-4.188-1.252 6.065-20.313a1.123 1.123 0 1 0 -2.152-.645l-6.387 21.392v.02c0 .007-.007.027-.01.04s-.013.057-.017.085 0 .028-.006.043c0 .031-.006.062-.007.094v.033a1.107 1.107 0 0 0 .006.128l.615 5.555a12.377 12.377 0 0 0 .219 3.443 6.586 6.586 0 0 0 1.567 2.982s-.1.025.014 0a2.3 2.3 0 0 0 .445-.1l.056-.027.011-.006a1.1 1.1 0 0 0 .155-.1 2.194 2.194 0 0 0 .355-.325l.037-.043 6.873-8.283c.01-.012.018-.026.028-.039l.036-.049a1.127 1.127 0 0 0 .064-.108l.018-.033a1.119 1.119 0 0 0 .06-.155s0-.009.005-.013l3.157-10.578v26.225h-56.854v-35.029a1.123 1.123 0 1 0 -2.246 0v35.145a2.133 2.133 0 0 0 2.127 2.134h57.091a2.135 2.135 0 0 0 2.131-2.134v-33.866l6.844-22.927 2.661.795-4.564 15.288a1.123 1.123 0 1 0 2.152.644l4.886-16.366a1.127 1.127 0 0 0 -.088-.857zm-8.957-12.298a1.919 1.919 0 0 1 2.384-1.285 1.918 1.918 0 0 1 1.285 2.382l-1.166 3.906-3.669-1.1zm-15.168 3.668.006-5 8.3 7.921h-5.39a2.922 2.922 0 0 1 -2.916-2.921zm-.552 55.682-.763-6.783 5.117 1.529z" fill="#001f40" transform="translate(-11)"/></svg>