<svg xmlns="http://www.w3.org/2000/svg" width="80.181" height="80.181" viewBox="0 0 80.181 80.181">
    <path fill="#ff7d00" d="M28.123 6.2v18.791a3.132 3.132 0 0 1-3.132 3.132H6.2a3.132 3.132 0 0 1-3.132-3.132V6.2A3.132 3.132 0 0 1 6.2 3.066h18.791A3.132 3.132 0 0 1 28.123 6.2zm-6.264 3.131H9.331v12.528h12.528zm35.235 18.792H38.3a3.132 3.132 0 0 1-3.132-3.132V6.2A3.132 3.132 0 0 1 38.3 3.066h18.794A3.132 3.132 0 0 1 60.226 6.2v18.791a3.132 3.132 0 0 1-3.132 3.132zM53.962 9.331H41.434v12.528h12.528zM28.123 38.3v18.794a3.132 3.132 0 0 1-3.132 3.132H6.2a3.132 3.132 0 0 1-3.132-3.132V38.3A3.132 3.132 0 0 1 6.2 35.17h18.791a3.132 3.132 0 0 1 3.132 3.13zm-6.264 3.132H9.331v12.53h12.528zm31.2 14.76H42.335a3.132 3.132 0 0 1-3.135-3.13V42.335a3.132 3.132 0 0 1 3.135-3.135h10.727a3.132 3.132 0 0 1 3.132 3.132v10.73a3.132 3.132 0 0 1-3.132 3.132zM49.93 45.467h-4.463v4.463h4.463zm0 0" transform="translate(9.229 9.227)"/>
    <path fill="#001f40" d="M0 15.034V3.132A3.132 3.132 0 0 1 3.132 0h11.9a3.132 3.132 0 0 1 0 6.264H6.264v8.77a3.132 3.132 0 0 1-6.264 0zM77.049 0h-11.9a3.132 3.132 0 1 0 0 6.264h8.77v8.77a3.132 3.132 0 0 0 6.264 0V3.132A3.132 3.132 0 0 0 77.049 0zM15.034 73.917h-8.77v-8.77a3.132 3.132 0 1 0-6.264 0v11.9a3.132 3.132 0 0 0 3.132 3.132h11.9a3.132 3.132 0 0 0 0-6.264zm62.015-11.9a3.132 3.132 0 0 0-3.132 3.132v8.77h-8.77a3.132 3.132 0 0 0 0 6.264h11.9a3.132 3.132 0 0 0 3.132-3.132v-11.9a3.132 3.132 0 0 0-3.13-3.136z"/>
</svg>
