<svg height="132.175" viewBox="0 0 143.668 132.175" width="143.668" xmlns="http://www.w3.org/2000/svg"><g fill="#ff7d00"><path d="m18.378 174.324h7.135v9.514h4.757v-11.892a2.378 2.378 0 0 0 -2.378-2.378h-7.135v-1.259l30.057-24.875-3.032-3.665-30.92 25.588a2.379 2.379 0 0 0 -.862 1.832v4.757a2.378 2.378 0 0 0 2.378 2.378z" transform="translate(-15.999 -108.094)"/><path d="m244.2 89.629-15.782-13.065v-27.915h2.382v-4.756h-28.545v4.757h2.378v8.23l-29.4-24.334a2.378 2.378 0 0 0 -3.032 0l-33.301 27.554 3.032 3.665 31.782-26.3 66.6 55.114v1.259h-7.135a2.378 2.378 0 0 0 -2.378 2.378v21.406h4.757v-19.022h7.135a2.378 2.378 0 0 0 2.378-2.378v-4.761a2.378 2.378 0 0 0 -.862-1.832zm-34.81-28.812v-12.168h14.271v23.978l-5.1-4.218z" transform="translate(-101.399 -32.001)"/><path d="m157.269 297.082h-7.183v-28.541h-4.786v28.541h-9.578v-38.055a19.156 19.156 0 0 0 -38.311 0v38.055h-12.011a5.349 5.349 0 0 0 .033-.595v-8.325a5.373 5.373 0 0 0 -4.825-5.322 5.359 5.359 0 0 0 .036-.624v-8.324a5.363 5.363 0 0 0 -.036-.624 5.373 5.373 0 0 0 4.825-5.322v-8.325a5.373 5.373 0 0 0 -4.823-5.321 5.359 5.359 0 0 0 .036-.624v-8.324a5.376 5.376 0 0 0 -5.387-5.352h-27.536a5.376 5.376 0 0 0 -5.388 5.351v8.324a5.373 5.373 0 0 0 4.826 5.325 5.363 5.363 0 0 0 -.037.624v1.638a21.626 21.626 0 0 0 -27.724 7.62 21.3 21.3 0 0 0 4.615 28.2h-5.624a2.386 2.386 0 0 0 -2.391 2.378v9.514a2.386 2.386 0 0 0 2.394 2.378h138.875a2.386 2.386 0 0 0 2.394-2.378v-9.514a2.386 2.386 0 0 0 -2.394-2.378zm-55.069-38.055a14.367 14.367 0 0 1 28.733 0v38.055h-28.733zm-21.55 37.46a.6.6 0 0 1 -.6.595h-27.538a.6.6 0 0 1 -.6-.595v-.112a21.467 21.467 0 0 0 5.952-8.807h22.184a.6.6 0 0 1 .6.595zm-4.789-22.595v8.324a.6.6 0 0 1 -.6.595h-16.297a21.333 21.333 0 0 0 -1.1-9.514h17.395a.6.6 0 0 1 .599.596zm-28.737-28.541a.6.6 0 0 1 .6-.595h27.535a.6.6 0 0 1 .6.595v8.324a.6.6 0 0 1 -.6.595h-27.536a.6.6 0 0 1 -.6-.595zm4.789 14.27a.6.6 0 0 1 .6-.595h27.535a.6.6 0 0 1 .6.595v8.325a.6.6 0 0 1 -.6.595h-24.591a21.63 21.63 0 0 0 -3.544-4.05zm-31.128 20.812a16.762 16.762 0 1 1 16.761 16.649 16.705 16.705 0 0 1 -16.761-16.649zm134.089 26.167h-134.089v-4.757h134.089z" transform="translate(-15.995 -179.178)"/><path d="m0 0h5.747v5.747h-5.747z" transform="translate(104.167 94.428)"/><path d="m205.406 96a16.668 16.668 0 0 0 -16.649 16.649v2.378h-4.757v4.757h42.812v-4.757h-4.757v-2.378a16.668 16.668 0 0 0 -16.649-16.649zm-11.892 16.649a11.912 11.912 0 0 1 9.514-11.654v14.033h-9.514zm14.271 2.378v-14.032a11.912 11.912 0 0 1 9.514 11.654v2.378z" transform="translate(-133.571 -76.973)"/><path d="m73.514 336h-4.757v2.411a5.359 5.359 0 0 0 -4.757 5.319v1.189a5.358 5.358 0 0 0 5.351 5.351h3.568a.6.6 0 0 1 .595.595v1.189a.6.6 0 0 1 -.595.595h-8.919v4.757h4.757v2.378h4.757v-2.411a5.359 5.359 0 0 0 4.757-5.318v-1.189a5.357 5.357 0 0 0 -5.351-5.351h-3.569a.6.6 0 0 1 -.595-.595v-1.19a.6.6 0 0 1 .595-.595h8.919v-4.757h-4.756z" transform="translate(-49.729 -246.637)"/></g></svg>