<svg height="77.26" viewBox="0 0 57.945 77.26" width="57.945" xmlns="http://www.w3.org/2000/svg"><g fill="#001f40"><path d="m121.473 16.567-16.1-16.1a1.608 1.608 0 0 0 -1.134-.467h-33.8a6.446 6.446 0 0 0 -6.439 6.438v64.384a6.446 6.446 0 0 0 6.438 6.438h45.068a6.446 6.446 0 0 0 6.438-6.438v-53.117a1.608 1.608 0 0 0 -.471-1.138zm-15.624-11.067 10.6 10.6h-7.381a3.222 3.222 0 0 1 -3.219-3.219zm12.877 65.326a3.222 3.222 0 0 1 -3.219 3.219h-45.069a3.222 3.222 0 0 1 -3.219-3.219v-64.388a3.222 3.222 0 0 1 3.219-3.219h32.192v9.657a6.446 6.446 0 0 0 6.438 6.438h9.657z" transform="translate(-64)"/><path d="m165.02 298.667h-35.41a1.61 1.61 0 0 0 0 3.219h35.41a1.61 1.61 0 1 0 0-3.219z" transform="translate(-118.343 -253.599)"/><path d="m165.02 234.667h-35.41a1.61 1.61 0 0 0 0 3.219h35.41a1.61 1.61 0 1 0 0-3.219z" transform="translate(-118.343 -199.256)"/><path d="m165.02 362.667h-35.41a1.61 1.61 0 0 0 0 3.219h35.41a1.61 1.61 0 1 0 0-3.219z" transform="translate(-118.343 -307.941)"/><path d="m148.925 426.667h-19.315a1.61 1.61 0 1 0 0 3.219h19.315a1.61 1.61 0 1 0 0-3.219z" transform="translate(-118.343 -362.284)"/><path d="m234.667 172.276a1.609 1.609 0 0 0 1.61 1.61h19.315a1.61 1.61 0 1 0 0-3.219h-19.315a1.609 1.609 0 0 0 -1.61 1.609z" transform="translate(-208.914 -144.913)"/></g><path d="m132.829 89.152h-3.219a1.61 1.61 0 1 0 0 3.219h1.61a1.61 1.61 0 0 0 3.219 0v-.3a4.817 4.817 0 0 0 -1.61-9.361 1.61 1.61 0 0 1 0-3.219h3.219a1.61 1.61 0 0 0 0-3.219h-1.61a1.61 1.61 0 1 0 -3.219 0v.3a4.817 4.817 0 0 0 1.61 9.361 1.61 1.61 0 1 1 0 3.219z" fill="#ff7d00" transform="translate(-118.343 -63.398)"/></svg>