<svg height="77.405" viewBox="0 0 77.383 77.405" width="77.383" xmlns="http://www.w3.org/2000/svg"><path d="m221.285 332.755a1.5 1.5 0 1 0 -2.122 0 1.5 1.5 0 0 0 2.122 0zm0 0" fill="#001f40" transform="translate(-185.637 -280.415)"/><path d="m188.449 16.5a16.5 16.5 0 1 0 16.495-16.5 16.515 16.515 0 0 0 -16.495 16.5zm29.992 0a13.5 13.5 0 1 1 -13.497-13.5 13.512 13.512 0 0 1 13.497 13.5zm0 0" fill="#ff7d00" stroke="#ff7d00" stroke-width=".5" transform="translate(-159.903 .25)"/><path d="m17.774 256.827a1.5 1.5 0 0 0 2.116.012l7.27-7.163a4.532 4.532 0 0 0 1.068-4.654l1.564-1.508a4.472 4.472 0 0 1 3.122-1.262h19.936a13.426 13.426 0 0 0 9.414-3.824c.1-.1-.792.954 13.6-16.247a6 6 0 0 0 -9.128-7.785l-8.849 9.095a6.027 6.027 0 0 0 -4.662-2.232h-16.725a19.346 19.346 0 0 0 -7.509-1.5c-7.221 0-13.526 3.335-16.91 9.588a4.479 4.479 0 0 0 -4.011 1.243l-7.131 7.156a1.5 1.5 0 0 0 0 2.115zm11.219-34.068a16.371 16.371 0 0 1 6.6 1.374 1.5 1.5 0 0 0 .6.126h17.032a3 3 0 1 1 0 6h-12.235a1.5 1.5 0 1 0 0 3h12.235a5.989 5.989 0 0 0 5.946-6.782c8.56-8.8 9.767-10.035 9.819-10.1a3 3 0 1 1 4.58 3.875l-13.45 16.079a10.442 10.442 0 0 1 -7.269 2.923h-19.937a7.456 7.456 0 0 0 -5.205 2.1l-1.274 1.23-11.748-11.744c2.746-5.151 7.9-8.081 14.306-8.081zm-18.8 9.952a1.5 1.5 0 0 1 1.857-.211c.26.158-.486-.52 12.988 12.935a1.5 1.5 0 0 1 .008 2.113l-6.2 6.106-14.73-14.846zm0 0" fill="#001f40" stroke="#001f40" stroke-width=".5" transform="translate(-.147 -180.221)"/><path d="m268.882 41.488v1.757a4.5 4.5 0 0 0 1.5 8.74 1.5 1.5 0 1 1 0 3 2.712 2.712 0 0 1 -1.947-1.134 1.5 1.5 0 1 0 -2.3 1.93 6.22 6.22 0 0 0 2.743 1.953v1.75a1.5 1.5 0 0 0 3 0v-1.758a4.5 4.5 0 0 0 -1.5-8.74 1.5 1.5 0 0 1 0-3 2.408 2.408 0 0 1 1.622.784 1.5 1.5 0 0 0 2.086-2.155 5.793 5.793 0 0 0 -2.208-1.38v-1.747a1.5 1.5 0 1 0 -3 0zm0 0" fill="#ff7d00" transform="translate(-225.639 -33.74)"/></svg>