<svg height="735.41" viewBox="0 0 1002.427 735.41" width="1002.427" xmlns="http://www.w3.org/2000/svg" xmlns:xlink="http://www.w3.org/1999/xlink"><linearGradient id="a" gradientUnits="objectBoundingBox" x1=".5" x2=".5" y1="1"><stop offset="0" stop-color="#808080" stop-opacity=".251"/><stop offset=".54" stop-color="#808080" stop-opacity=".122"/><stop offset="1" stop-color="#808080" stop-opacity=".102"/></linearGradient><linearGradient id="b" x1="9.926" x2="9.926" xlink:href="#a" y2="0"/><path d="m244.246 462.417c-13.184 3.983-25.524 13.626-28.817 27.006-3.767 15.376 4.92 30.876 6.175 46.664 4.055 51.727-69.532 88.222-59.034 139.033 4.168 20.2 21.016 35.065 37.617 47.343 26.594 19.606 56.1 36.927 88.778 41.816 49.6 7.431 101.416-14.409 149.624-.607 38.883 11.136 68.637 43.771 107.252 55.813 29.394 9.17 61.062 5.558 91.6 1.842 16.467-2 33.716-4.3 47-14.182 24.7-18.392 26.255-54.712 42.794-80.74 25.544-40.138 81.553-48.022 128.515-40.221s92.565 27.006 140.145 25.442c10.168-.34 20.584-1.719 29.455-6.71 10.786-6.062 18.073-16.745 24.515-27.315a441.984 441.984 0 0 0 64.088-219.619c.278-13.328-.2-27.232-6.463-39-7.925-14.882-23.764-23.785-39.531-29.774-37.864-14.409-79.69-16.766-116.792-33.016-35.785-15.675-64.767-43.164-95.931-66.722a510.982 510.982 0 0 0 -210.459-93.728c-17.9-3.458-36.474-5.928-54.259-1.935-20.491 4.6-38.152 17.373-54.032 31.123-42.248 36.577-76.109 81.707-115.043 121.794a654.963 654.963 0 0 1 -87.4 75.368c-14.409 10.385-29.723 22.714-45.778 30.392-14.698 7.016-28.479 5.25-44.019 9.933z" fill="#ff7d00" opacity=".2" transform="translate(-111.584 -89.849)"/><path d="m426.608 138.88s-39.778 52.828-11.321 114.4-49.597 160.52-49.597 160.52" fill="none" stroke="#535461" stroke-miterlimit="10" stroke-width="2" transform="translate(-105.625 -91.392)"/><path d="m442.939 120.456c-3.16 13.6-18.278 21.7-18.278 21.7s-9.983-13.946-6.824-27.541 11.321-23.311 18.278-21.7 9.985 13.946 6.824 27.541z" fill="#8ed16f" transform="translate(-104.121 -92.739)"/><ellipse cx="7.935" cy="2.974" fill="#8ed16f" rx="7.935" ry="2.974" transform="matrix(.22665131 -.97397597 .97397597 .22665131 321.071468 31.725969)"/><ellipse cx="7.935" cy="2.974" opacity=".3" rx="7.935" ry="2.974" transform="matrix(.22665131 -.97397597 .97397597 .22665131 321.071468 31.725969)"/><path d="m436.328 179.124c-13.132 4.734-28.148-3.561-28.148-3.561s6.278-15.963 19.421-20.687 25.73-3.088 28.148 3.561-6.288 15.953-19.421 20.687z" fill="#8ed16f" transform="translate(-104.385 -91.005)"/><ellipse cx="7.935" cy="2.974" fill="#8ed16f" rx="7.935" ry="2.974" transform="matrix(.93969262 -.34202014 .34202014 .93969262 320.648648 75.23085)"/><ellipse cx="7.935" cy="2.974" opacity=".3" rx="7.935" ry="2.974" transform="matrix(.93969262 -.34202014 .34202014 .93969262 320.648648 75.23085)"/><path d="m433.358 225.894c-13.132 4.734-28.148-3.561-28.148-3.561s6.278-15.963 19.421-20.687 25.73-3.088 28.148 3.561-6.288 15.963-19.421 20.687z" fill="#8ed16f" transform="translate(-104.471 -89.639)"/><ellipse cx="7.935" cy="2.974" fill="#8ed16f" rx="7.935" ry="2.974" transform="matrix(.94088077 -.33873792 .33873792 .94088077 315.871138 123.590016)"/><ellipse cx="7.935" cy="2.974" opacity=".3" rx="7.935" ry="2.974" transform="matrix(.94088077 -.33873792 .33873792 .94088077 315.871138 123.590016)"/><path d="m448.268 280.764c-13.132 4.736-28.148-3.564-28.148-3.564s6.278-15.963 19.421-20.687 25.73-3.088 28.148 3.561-6.289 15.987-19.421 20.69z" fill="#8ed16f" transform="translate(-104.035 -88.038)"/><ellipse cx="7.935" cy="2.974" fill="#8ed16f" rx="7.935" ry="2.974" transform="matrix(.94088077 -.33873792 .33873792 .94088077 331.21892 180.086842)"/><ellipse cx="7.935" cy="2.974" opacity=".3" rx="7.935" ry="2.974" transform="matrix(.94088077 -.33873792 .33873792 .94088077 331.21892 180.086842)"/><path d="m438.568 330.944c-13.132 4.734-28.148-3.561-28.148-3.561s6.278-15.963 19.421-20.687 25.73-3.088 28.148 3.561-6.278 15.963-19.421 20.687z" fill="#8ed16f" transform="translate(-104.318 -86.573)"/><ellipse cx="7.935" cy="2.974" fill="#8ed16f" rx="7.935" ry="2.974" transform="matrix(.93969262 -.34202014 .34202014 .93969262 323.130603 232.280715)"/><ellipse cx="7.935" cy="2.974" opacity=".3" rx="7.935" ry="2.974" transform="matrix(.93969262 -.34202014 .34202014 .93969262 323.130603 232.280715)"/><path d="m378.22 192.479c9.695 10.045 26.831 9.263 26.831 9.263s1.41-17.095-8.285-27.14-21.706-14.182-26.831-9.263-1.41 17.095 8.285 27.14z" fill="#8ed16f" transform="translate(-105.568 -90.681)"/><ellipse cx="2.974" cy="7.935" fill="#8ed16f" rx="2.974" ry="7.935" transform="matrix(.71897598 -.69503492 .69503492 .71897598 274.659287 88.883518)"/><ellipse cx="2.974" cy="7.935" opacity=".3" rx="2.974" ry="7.935" transform="matrix(.71897598 -.69503492 .69503492 .71897598 274.659287 88.883518)"/><path d="m372.81 347.469c9.7 10.045 26.831 9.263 26.831 9.263s1.41-17.095-8.285-27.14-21.706-14.182-26.831-9.263-1.41 17.095 8.285 27.14z" fill="#8ed16f" transform="translate(-105.725 -86.157)"/><ellipse cx="2.974" cy="7.935" fill="#8ed16f" rx="2.974" ry="7.935" transform="matrix(.71897598 -.69503492 .69503492 .71897598 269.079072 248.420406)"/><ellipse cx="2.974" cy="7.935" opacity=".3" rx="2.974" ry="7.935" transform="matrix(.71897598 -.69503492 .69503492 .71897598 269.079072 248.420406)"/><path d="m385.5 247.215c12.494 6.237 28.375-.247 28.375-.247s-4.374-16.58-16.858-22.817-25.195-6.175-28.375.247 4.358 16.58 16.858 22.817z" fill="#8ed16f" transform="translate(-105.559 -89.038)"/><ellipse cx="2.974" cy="7.935" fill="#8ed16f" rx="2.974" ry="7.935" transform="matrix(.44651018 -.89477855 .89477855 .44651018 277.471275 145.305525)"/><ellipse cx="2.974" cy="7.935" opacity=".3" rx="2.974" ry="7.935" transform="matrix(.44651018 -.89477855 .89477855 .44651018 277.471275 145.305525)"/><path d="m390.589 301.785c12.494 6.237 28.375-.247 28.375-.247s-4.374-16.58-16.858-22.817-25.195-6.175-28.375.247 4.415 16.642 16.858 22.817z" fill="#8ed16f" transform="translate(-105.41 -87.446)"/><ellipse cx="2.974" cy="7.935" fill="#8ed16f" rx="2.974" ry="7.935" transform="matrix(.44651018 -.89477855 .89477855 .44651018 282.711943 201.475655)"/><ellipse cx="2.974" cy="7.935" opacity=".3" rx="2.974" ry="7.935" transform="matrix(.44651018 -.89477855 .89477855 .44651018 282.711943 201.475655)"/><path d="m240.9 249.21s72.65 72.65 31.637 180.458 70.3 287.082 70.3 287.082-1.194-.175-3.407-.566c-149.23-26.337-223.33-196.997-140.38-323.773 30.804-47.136 56.173-102.424 41.85-143.201z" fill="#8ed16f" transform="translate(-111.496 -88.172)"/><path d="m113 534.746s82.9-13.2 90.456 61.093 159.411 84.6 159.411 84.6-1.029.679-2.851 1.894c-125.386 82.334-245.246 52.426-227.184-56.864 6.731-40.643 6.176-81.45-19.832-90.723z" fill="#8ed16f" transform="translate(-113 -79.864)"/><path d="m113 534.746s82.9-13.2 90.456 61.093 159.411 84.6 159.411 84.6-1.029.679-2.851 1.894c-125.386 82.334-245.246 52.426-227.184-56.864 6.731-40.643 6.176-81.45-19.832-90.723z" fill="#fff" opacity=".3" transform="translate(-113 -79.864)"/><ellipse cx="108.414" cy="394.489" fill="#8ed16f" rx="22.797" ry="59.477"/><ellipse cx="108.414" cy="394.489" opacity=".3" rx="22.797" ry="59.477"/><ellipse cx="15.366" cy="34.2" fill="#8ed16f" rx="15.366" ry="34.2" transform="matrix(.70710678 -.70710678 .70710678 .70710678 47.103673 572.998325)"/><ellipse cx="15.366" cy="34.2" opacity=".3" rx="15.366" ry="34.2" transform="matrix(.70710678 -.70710678 .70710678 .70710678 47.103673 572.998325)"/><path d="m852.893 358.2h-539.646a24.587 24.587 0 0 0 -24.587 24.587v316.3a24.587 24.587 0 0 0 24.587 24.587h539.646a24.587 24.587 0 0 0 24.587-24.587v-316.3a24.587 24.587 0 0 0 -24.587-24.587z" fill="url(#a)" transform="translate(-107.873 -84.991)"/><rect fill="#ff7d00" height="356.872" rx="24.81" width="574.957" x="187.713" y="277.511"/><path d="m0 0h574.957v65.426h-574.957z" fill="#ff7d00" transform="translate(187.713 339.963)"/><path d="m0 0h574.957v65.426h-574.957z" opacity=".3" transform="translate(187.713 339.963)"/><path d="m0 0h465.914v31.72h-465.914z" fill="#d6d6e3" transform="translate(242.24 453.966)"/><circle cx="280.896" cy="564.995" fill="#ff7d00" r="45.603"/><circle cx="280.896" cy="564.995" opacity=".3" r="45.603"/><path d="m822.285 278.962a9.983 9.983 0 0 0 4.395 5.558c9.458 6.247 30.021 4.92 32.492 4.92.525 0 1.214.937 1.976 2.511 3.633 7.492 9.263 29.455 9.644 34.4.5 5.98 6.062 33.963 15.16 44.389.278.319.556.618.823.9 8.923 8.964 19.39-.9 19.39-.9l1.5-5.218c-.422 2.058-.9 4.456-1.369 7.143-.237 1.348-.473 2.779-.7 4.251a162.89 162.89 0 0 0 -2.131 25.081 90.956 90.956 0 0 0 .391 9.139c.082.844.175 1.678.288 2.491a87.264 87.264 0 0 1 .679 11.156c-.082 22.148-5.733 49.7-5.733 49.7l.216-.072c-.134.69-.216 1.029-.216 1.029l.329-.1q-.237 1.533-.453 3.139c-1.914 13.894-3.016 31.184-3.54 41.168a82.436 82.436 0 0 0 .7 15.767l10.045 70.716v32.934a58.146 58.146 0 0 0 1.811 14.8c3.273 12.443.576 55.875-.937 76.479-.422 5.619-.751 9.551-.844 10.683v.34l.288-.113v.36a5.818 5.818 0 0 1 1.338-.391c-3.983 6.175-11.2 16.385-16.745 18.1a17.568 17.568 0 0 0 -8.367 5.547l-.144.2-.206.288a6.176 6.176 0 0 0 -1.2 3.149 3.478 3.478 0 0 1 -.185-.607c-.422 2.3.957 4.395 5.29 5.414a35.611 35.611 0 0 0 7.667.617c15.026 0 41.693-4.621 44.636-9.592v-17.156l.484.154v.154l1.842.607 5.053-16.961c6.062-4.487 1.029-84.795 0-103.248-.926-16.817 9.479-83.714 11.321-95.5l-.247-.3.278-1.719a7.3 7.3 0 0 1 1.029.906 13.449 13.449 0 0 1 1.575 2.326 31.1 31.1 0 0 1 2.233 4.611c10.168 25.359 14.748 97.876 14.748 104.38v68.194a71.012 71.012 0 0 0 2.779 19.894 85.329 85.329 0 0 1 2.161 10.354c.216 1.369.4 2.727.576 4.024s.35 2.779.484 3.993a8.315 8.315 0 0 0 .1.916 1.8 1.8 0 0 1 0 .422c.278 2.686.422 4.446.422 4.446a1.031 1.031 0 0 1 .206-.4l.051.648a1.389 1.389 0 0 1 .4-.638 9.746 9.746 0 0 1 1.359-1.112v8.667l-.247-.185v1.492c10.477 7.9 27.531 10.292 40.622 10.2 8.491 0 15.366-1.029 17.754-2.223 3.417-1.678 1.544-5.589-1.564-8.583-2.408-2.326-5.547-4.117-7.534-3.89-3.314.36-14.645-12.474-20.584-19.5l.669-.3.947-.412v-113.7s1.523-44.893 6.062-89.293a157.963 157.963 0 0 0 -7.77-66.239l-.144-.422 1.379.216c1.461.226 2.244.36 2.244.36a8.552 8.552 0 0 0 -.093-1.029h.093s-1.77-19.256-1.791-43.442c0-27.418 2.316-60.846 11.9-79.762 5.516-10.889 7.359-19.555 7.2-26.388a27.6 27.6 0 0 0 -4.93-16.879 13.379 13.379 0 0 0 -5.671-4.487l-.2-.113h-.1a14.1 14.1 0 0 0 -5.208-1.029h-20.7a13.822 13.822 0 0 1 -6.834-1.8l-8.1-4.59c-2.7-5.9-3.088-13.2-2.511-20.059 0-.545.1-1.091.154-1.626l.587-.618c.453-.484.875-1.029 1.286-1.492a11.482 11.482 0 0 1 -.093 1.214c-.1.648-.278 1.029-.556 1.112 4.426-.576 9.366-1.451 12.083-4.868.113-.134.216-.278.319-.422a22.056 22.056 0 0 0 1.986-4.117 11.959 11.959 0 0 1 1.513-2.758c.679-.885 1.564-1.605 2.3-2.449l.123-.144c2.6-3.088 2.748-7.513 2.779-11.548.052-9.8-.237-20.584-6.793-27.932-5.444-6.113-14.131-8.429-22.375-8.7s-16.467 1.214-24.7 1.256c-5.6 0-12.35-.093-15.438 4.539-1.513 2.275-1.7 5.249-3.345 7.431-.947 1.256-2.4 2.336-2.48 3.9a4 4 0 0 0 .535 2.058v.072c2 3.932 6.237 6.381 10.662 7.153a26.561 26.561 0 0 0 -2.058 2.841 27.048 27.048 0 0 0 -4.117 14.409 16.856 16.856 0 0 0 .062 1.77 27.2 27.2 0 0 0 8.625 18.124c-.082.576-.165 1.153-.257 1.719l.185.165q.875.792 1.822 1.5l.226.175v1.029a17.249 17.249 0 0 1 -.062 1.791c-.062.587 0 .947-.062 1.42l-.134-.113-10.055-8.4-16.169-14.964s-40.427-29.425-42.454-15.438a10.075 10.075 0 0 0 1.924 6.978c7.421 11.321 32.934 20.954 32.934 20.954s15.211 16.086 25.39 33.428c-.36.2-.72.381-1.1.556-9.057 4.209-22.272 2.429-22.272 2.429-15.263 2.377-16.642 19.1-16.56 25.864v1.4l-20.246-47.561-.062-.144a10.014 10.014 0 0 0 -7.575-5.949c-13.548-2.274-47.393-7.019-44.563 2.975zm84.795 462.106a8.792 8.792 0 0 1 .9-.165l-.093.144z" fill="url(#b)" transform="translate(-92.301 -89.446)"/><path d="m1003.684 716.43s19.184 24.114 23.62 23.62 14.759 9.345 8.861 12.35-39.85 4.92-56.605-7.873v-19.277z" fill="#aca9c9" transform="translate(-87.705 -74.534)"/><path d="m909.628 717.86s-11.321 20.172-19.184 22.642-14.759 11.321-4.425 13.781 47.24-2.954 50.677-8.861v-26.09z" fill="#aca9c9" transform="translate(-90.588 -74.492)"/><path d="m895.023 527.507 9.777 69.758v32.43a58.126 58.126 0 0 0 1.77 14.594c3.19 12.278.566 55.113-.916 75.44-.484 6.628-.854 10.868-.854 10.868 6.391-2.954 33.459 6.391 33.459 6.391l2.741-9.314 2.182-7.41c5.908-4.426 1.029-83.642 0-101.89-.669-12.464 4.889-52.87 8.45-77.086 1.029-6.844 1.863-12.35 2.367-15.664.319-2.058.494-3.2.494-3.2a10.776 10.776 0 0 1 2.655 3.2 30.8 30.8 0 0 1 2.172 4.549c9.9 25.02 14.409 96.548 14.409 102.919v67.268a70.935 70.935 0 0 0 2.707 19.627 102.908 102.908 0 0 1 2.666 14.172c.7 5.341 1.029 9.643 1.029 9.643.494-2.954 31-16.241 31-16.241v-112.182s1.472-44.255 5.907-88.078a157.135 157.135 0 0 0 -5.661-59.261c-1.225-4.189-2.449-7.74-3.51-10.549-1.8-4.786-3.088-7.431-3.088-7.431h-100.493c-1.688.319-3.088 3.715-4.353 8.872-.823 3.458-1.544 7.7-2.172 12.35-1.863 13.7-2.933 30.752-3.448 40.612a82.2 82.2 0 0 0 .71 15.613z" fill="#618fd8" transform="translate(-90.197 -82.309)"/><g opacity=".1" transform="translate(814.852 368.059)"><path d="m1006.918 727.871v-112.182s1.472-44.255 5.907-88.078-12.35-77.251-12.35-77.251h1.966s16.724 33.459 12.35 77.251-5.908 88.078-5.908 88.078v112.182s-30.505 13.287-31 16.241a14.732 14.732 0 0 0 -.154-1.791c6.65-4.621 29.189-14.45 29.189-14.45z" transform="translate(-902.609 -450.36)"/><path d="m907.447 722.341a7.637 7.637 0 0 0 -2.707.556v-.497a17.573 17.573 0 0 1 2.707-.062z" transform="translate(-904.74 -442.422)"/><path d="m940.254 718.451c5.908-4.425 1.029-83.642 0-101.89s11.321-95.941 11.321-95.941a8.581 8.581 0 0 1 1.7 1.75c-1.811 11.609-11.939 77.611-11.043 94.191 1.029 18.206 5.908 97.423 0 101.89l-4.92 16.724-1.791-.6z" transform="translate(-903.842 -448.309)"/></g><path d="m917.155 333.755-10.292 36.413s-10.827 10.292-19.678 0-14.306-37.884-14.841-43.792-8.367-36.413-11.321-36.413-32.471 1.966-35.919-10.292c-2.758-9.86 30.2-5.146 43.391-2.933a9.777 9.777 0 0 1 7.379 5.866l20.234 48.32s10.714-12.424 21.047 2.831z" fill="#f7c4a7" transform="translate(-92.219 -87.458)"/><path d="m980.629 249.82s-12.793 35.919 3.448 48.712-58.077 16.24-58.077 16.24l10.086-9.592s7.132-28.292 2.213-51.912z" fill="#f7c4a7" transform="translate(-89.27 -88.154)"/><path d="m965.828 297.338s13.04-3.2 13.04-6.638l11.558 6.638h29.034s21.16 11.8 3.448 47.24-9.839 122.474-9.839 122.474-62.976-11.321-115.135 5.908c0 0 7.873-38.872 4.92-61.01s4.92-53.137 4.92-53.137l4.425-18.7s-.247-17.5-18.453-8.614c0 0-2.707-25.339 15.994-28.292 0 0 21.613 2.954 28.045-7.873-.002.039 14.273 8.406 28.043 2.004z" opacity=".1" transform="translate(-90.215 -86.961)"/><path d="m965.828 296.388s13.04-3.2 13.04-6.638l8.47 4.868a13.38 13.38 0 0 0 6.649 1.77h20.306a13.38 13.38 0 0 1 10.879 5.537c4.662 6.556 8.841 19.483-2.264 41.7-17.712 35.425-9.839 122.474-9.839 122.474s-62.976-11.321-115.135 5.908c0 0 7.873-38.872 4.92-61.01s4.919-53.065 4.919-53.065l4.426-18.7s-.247-17.5-18.453-8.614c0 0-2.635-24.639 15.222-28.159a5.044 5.044 0 0 1 1.513-.1c3.818.4 21.613 1.688 27.315-7.956-.013.009 14.262 8.377 28.032 1.985z" fill="#e14b5a" transform="translate(-90.215 -86.989)"/><path d="m1014.317 340.8s-15.747 9.839-41.332 0c0 0-28.045-10.292-36.907-30.505s44.77 3.448 44.77 3.448 11.321 0 14.759-2.46 27.561 18.687 18.71 29.517z" opacity=".1" transform="translate(-89.004 -86.628)"/><path d="m1016.092 340.743s-15.747 9.839-41.332 0c0 0-28.045-10.292-36.907-30.505s-29.517-42.351-29.517-42.351-35.919-13.781-33.963-27.551 41.327 15.252 41.327 15.252l15.747 14.759 51.171 43.3s11.321 0 14.759-2.46 27.566 18.729 18.715 29.556z" fill="#f7c4a7" transform="translate(-90.777 -88.539)"/><path d="m937.49 254.7 42.31-3.448a97.119 97.119 0 0 0 -4.415 20.038 27.037 27.037 0 0 1 -37.874 1.029 48.092 48.092 0 0 0 -.021-17.62z" opacity=".1" transform="translate(-88.934 -88.112)"/><circle cx="867.504" cy="162.9" fill="#f7c4a7" r="27.057"/><path d="m971.658 258.09c-1.585-2.614 1.636-6.021.576-8.882-.978-2.635-4.868-3.088-6.175-5.547-1.029-1.986 0-4.426-.412-6.618-.587-2.83-3.633-4.59-6.525-4.734s-5.681.937-8.429 1.863c-4.477 1.513-9.191 2.676-13.884 2.141s-9.376-3.088-11.465-7.276a4.118 4.118 0 0 1 -.525-2c.082-1.544 1.5-2.6 2.419-3.839 1.606-2.151 1.791-5.084 3.252-7.328 2.985-4.57 9.541-4.456 15-4.477 8.028 0 16.014-1.5 24.042-1.235s16.467 2.542 21.788 8.573c6.381 7.256 6.669 17.877 6.618 27.551 0 3.983-.165 8.316-2.707 11.393-.741.9-1.647 1.636-2.357 2.552-1.544 2.058-1.956 4.693-3.407 6.782-2.573 3.715-7.6 4.621-12.072 5.218 1.317-.175.226-9 0-9.808-.868-4.051-1.805-3.968-5.737-4.329z" opacity=".1" transform="translate(-89.303 -89.313)"/><path d="m971.658 257.14c-1.585-2.614 1.636-6.021.576-8.882-.978-2.635-4.868-3.088-6.175-5.547-1.029-1.986 0-4.426-.412-6.618-.587-2.83-3.633-4.59-6.525-4.734s-5.681.937-8.429 1.863c-4.477 1.513-9.191 2.676-13.884 2.141s-9.376-3.088-11.465-7.276a4.118 4.118 0 0 1 -.525-2c.082-1.544 1.5-2.6 2.419-3.839 1.606-2.151 1.791-5.084 3.252-7.328 2.985-4.57 9.541-4.456 15-4.477 8.028 0 16.014-1.5 24.042-1.235s16.467 2.542 21.788 8.573c6.381 7.256 6.669 17.877 6.618 27.551 0 3.983-.165 8.316-2.707 11.393-.741.9-1.647 1.636-2.357 2.552-1.544 2.058-1.956 4.693-3.407 6.782-2.573 3.715-7.6 4.621-12.072 5.218 1.317-.175.226-9 0-9.808-.868-4.102-1.805-3.979-5.737-4.329z" fill="#281c1c" transform="translate(-89.303 -89.34)"/><path d="m1012.561 341.917s-13.287-34.447-23.62-35.425 19.678 0 19.678 0l9.839 17.712z" opacity=".1" transform="translate(-87.494 -86.513)"/><path d="m1013.521 341.917s-13.287-34.447-23.62-35.425 19.678 0 19.678 0l9.839 17.712z" fill="#e14b5a" transform="translate(-87.467 -86.513)"/><path d="m976.65 726.594c.7 5.341 1.029 9.643 1.029 9.643.494-2.954 31-16.241 31-16.241v-8a13.565 13.565 0 0 0 -2.326.113c-5.918.792-11.4 3.664-16.467 6.731a150.209 150.209 0 0 1 -13.235 7.75z" fill="#618fd8" transform="translate(-87.791 -74.663)"/><path d="m976.65 726.594c.7 5.341 1.029 9.643 1.029 9.643.494-2.954 31-16.241 31-16.241v-8a13.565 13.565 0 0 0 -2.326.113c-5.918.792-11.4 3.664-16.467 6.731a150.209 150.209 0 0 1 -13.235 7.75z" opacity=".3" transform="translate(-87.791 -74.663)"/><path d="m904.5 722.967c6.391-2.954 33.459 6.391 33.459 6.391l2.738-9.314c-4.724-.957-9.417-2.151-14.028-3.571a46.657 46.657 0 0 1 -6.3-2.326 42.189 42.189 0 0 0 -4.2-1.956c-3.53-1.214-7.2-.7-10.827-.093-.471 6.628-.842 10.869-.842 10.869z" fill="#618fd8" transform="translate(-89.896 -74.679)"/><path d="m904.5 722.967c6.391-2.954 33.459 6.391 33.459 6.391l2.738-9.314c-4.724-.957-9.417-2.151-14.028-3.571a46.657 46.657 0 0 1 -6.3-2.326 42.189 42.189 0 0 0 -4.2-1.956c-3.53-1.214-7.2-.7-10.827-.093-.471 6.628-.842 10.869-.842 10.869z" opacity=".3" transform="translate(-89.896 -74.679)"/><path d="m1035.906 750.113a2.944 2.944 0 0 0 1.688-1.955 2.892 2.892 0 0 1 -1.688 3.427c-5.908 2.954-39.85 4.92-56.605-7.873v-1.472c16.754 12.793 50.699 10.827 56.605 7.873z" fill="#fff" opacity=".4" transform="translate(-87.713 -73.781)"/><path d="m885.768 752.051c10.292 2.46 47.24-2.954 50.677-8.861v1.472c-3.448 5.908-40.344 11.321-50.677 8.861-4.22-1.029-5.568-3.088-5.146-5.341.329 1.667 1.878 3.046 5.146 3.869z" fill="#fff" opacity=".4" transform="translate(-90.596 -73.753)"/><path d="m945.131 403.573s-10.827-3.448-13.781 0-28.2 11.527-28.2 11.527" opacity=".1" transform="translate(-89.936 -83.711)"/><path d="m0 0h52.643v1.112h-52.643z" fill="#8ed16f" transform="matrix(-1 0 0 -1 785.334 184.668)"/><path d="m0 0h52.643v1.112h-52.643z" fill="#8ed16f" transform="matrix(-1 0 0 -1 785.334 185.78)"/><path d="m0 0h52.643v1.112h-52.643z" opacity=".1" transform="matrix(-1 0 0 -1 785.334 185.78)"/><path d="m0 0h52.643v1.112h-52.643z" fill="#8ed16f" transform="matrix(-1 0 0 -1 785.334 186.892)"/><path d="m0 0h52.643v1.112h-52.643z" fill="#8ed16f" transform="matrix(-1 0 0 -1 785.334 187.992)"/><path d="m0 0h52.643v1.112h-52.643z" opacity=".1" transform="matrix(-1 0 0 -1 785.334 187.992)"/><path d="m0 0h52.643v1.112h-52.643z" fill="#8ed16f" transform="matrix(-1 0 0 -1 785.334 189.104)"/><path d="m0 0h52.643v1.112h-52.643z" fill="#8ed16f" transform="matrix(-1 0 0 -1 785.334 190.206)"/><path d="m0 0h52.643v1.112h-52.643z" opacity=".1" transform="matrix(-1 0 0 -1 785.334 190.206)"/><path d="m0 0h52.643v1.112h-52.643z" fill="#8ed16f" transform="matrix(-1 0 0 -1 785.334 191.318)"/><path d="m0 0h52.643v1.112h-52.643z" fill="#8ed16f" transform="matrix(-1 0 0 -1 785.334 192.418)"/><path d="m0 0h52.643v1.112h-52.643z" opacity=".1" transform="matrix(-1 0 0 -1 785.334 192.418)"/><g fill="#8ed16f"><path d="m0 0h52.643v1.112h-52.643z" transform="matrix(-1 0 0 -1 785.334 175.818)"/><path d="m0 0h52.643v1.112h-52.643z" transform="matrix(-.76895342 -.6393048 .6393048 -.76895342 810.398713 183.300402)"/><path d="m0 0h52.643v1.112h-52.643z" transform="matrix(-.76895342 -.6393048 .6393048 -.76895342 773.499819 165.583037)"/><path d="m0 0h52.643v1.112h-52.643z" transform="matrix(-1 0 0 -1 785.334 176.918)"/></g><path d="m0 0h52.643v1.112h-52.643z" opacity=".1" transform="matrix(-1 0 0 -1 785.334 176.918)"/><path d="m0 0h52.643v1.112h-52.643z" fill="#8ed16f" transform="matrix(-1 0 0 -1 785.334 178.04)"/><path d="m0 0h52.643v1.112h-52.643z" fill="#8ed16f" transform="matrix(-1 0 0 -1 785.334 179.14)"/><path d="m0 0h52.643v1.112h-52.643z" opacity=".1" transform="matrix(-1 0 0 -1 785.334 179.14)"/><path d="m0 0h52.643v1.112h-52.643z" fill="#8ed16f" transform="matrix(-1 0 0 -1 785.334 180.244)"/><path d="m0 0h52.643v1.112h-52.643z" fill="#8ed16f" transform="matrix(-1 0 0 -1 785.334 181.354)"/><path d="m0 0h52.643v1.112h-52.643z" opacity=".1" transform="matrix(-1 0 0 -1 785.334 181.354)"/><path d="m0 0h52.643v1.112h-52.643z" fill="#8ed16f" transform="matrix(-1 0 0 -1 785.334 182.456)"/><path d="m0 0h52.643v1.112h-52.643z" fill="#8ed16f" transform="matrix(-1 0 0 -1 785.334 183.568)"/><path d="m0 0h52.643v1.112h-52.643z" opacity=".1" transform="matrix(-1 0 0 -1 785.334 183.568)"/><path d="m0 0h19.184v37.39h-19.184z" fill="#8ed16f" transform="matrix(-.98319124 -.18257874 .18257874 -.98319124 744.880678 230.226025)"/><ellipse cx="7.873" cy="3.932" fill="#8ed16f" rx="7.873" ry="3.932" transform="matrix(.18257874 -.98319124 .98319124 .18257874 733.821562 217.235826)"/><ellipse cx="7.873" cy="3.932" opacity=".1" rx="7.873" ry="3.932" transform="matrix(.18257874 -.98319124 .98319124 .18257874 733.821562 217.235826)"/><path d="m0 0h19.184v37.39h-19.184z" fill="#8ed16f" transform="matrix(-.98319124 -.18257874 .18257874 -.98319124 748.107222 307.819071)"/><ellipse cx="7.873" cy="3.932" fill="#8ed16f" rx="7.873" ry="3.932" transform="matrix(.18257874 -.98319124 .98319124 .18257874 737.039207 294.821997)"/><ellipse cx="7.873" cy="3.932" opacity=".1" rx="7.873" ry="3.932" transform="matrix(.18257874 -.98319124 .98319124 .18257874 737.039207 294.821997)"/><path d="m0 0h19.184v37.39h-19.184z" fill="#8ed16f" transform="matrix(.4762382 -.87931631 .87931631 .4762382 652.112191 130.53108)"/><ellipse cx="3.941" cy="7.892" fill="#8ed16f" rx="3.941" ry="7.892" transform="matrix(.47884509 -.87789941 .87789941 .47884509 667.287181 131.331137)"/><ellipse cx="3.941" cy="7.892" opacity=".1" rx="3.941" ry="7.892" transform="matrix(.47884509 -.87789941 .87789941 .47884509 667.287181 131.331137)"/><path d="m0 0h19.184v37.39h-19.184z" fill="#8ed16f" transform="matrix(.4762382 -.87931631 .87931631 .4762382 579.870967 463.609065)"/><ellipse cx="3.932" cy="7.873" fill="#8ed16f" rx="3.932" ry="7.873" transform="matrix(.4762382 -.87931631 .87931631 .4762382 591.979668 464.007731)"/><ellipse cx="3.932" cy="7.873" opacity=".1" rx="3.932" ry="7.873" transform="matrix(.4762382 -.87931631 .87931631 .4762382 591.979668 464.007731)"/><path d="m0 0h19.184v37.39h-19.184z" fill="#8ed16f" transform="matrix(.4762382 -.87931631 .87931631 .4762382 535.687645 188.737994)"/><ellipse cx="3.932" cy="7.873" fill="#8ed16f" rx="3.932" ry="7.873" transform="matrix(.4762382 -.87931631 .87931631 .4762382 547.786918 189.120832)"/><ellipse cx="3.932" cy="7.873" opacity=".1" rx="3.932" ry="7.873" transform="matrix(.4762382 -.87931631 .87931631 .4762382 547.786918 189.120832)"/><path d="m0 0h19.184v37.39h-19.184z" fill="#8ed16f" transform="matrix(.4762382 -.87931631 .87931631 .4762382 591.077155 130.524549)"/><ellipse cx="3.932" cy="7.873" fill="#8ed16f" rx="3.932" ry="7.873" transform="matrix(.4762382 -.87931631 .87931631 .4762382 603.177832 130.907742)"/><ellipse cx="3.932" cy="7.873" opacity=".1" rx="3.932" ry="7.873" transform="matrix(.4762382 -.87931631 .87931631 .4762382 603.177832 130.907742)"/><path d="m0 0h19.184v37.39h-19.184z" fill="#8ed16f" transform="matrix(.9939992 -.10938735 .10938735 .9939992 638.442722 185.117657)"/><ellipse cx="3.932" cy="7.873" fill="#8ed16f" rx="3.932" ry="7.873" transform="matrix(.9939992 -.10938735 .10938735 .9939992 645.016019 195.328904)"/><ellipse cx="3.932" cy="7.873" opacity=".1" rx="3.932" ry="7.873" transform="matrix(.9939992 -.10938735 .10938735 .9939992 645.016019 195.328904)"/><path d="m0 0h19.184v37.39h-19.184z" fill="#8ed16f" transform="matrix(.9939992 -.10938735 .10938735 .9939992 769.617824 389.395311)"/><ellipse cx="3.932" cy="7.873" fill="#8ed16f" rx="3.932" ry="7.873" transform="matrix(.9939992 -.10938735 .10938735 .9939992 776.199129 399.606558)"/><ellipse cx="3.932" cy="7.873" opacity=".1" rx="3.932" ry="7.873" transform="matrix(.9939992 -.10938735 .10938735 .9939992 776.199129 399.606558)"/><path d="m0 0h19.184v37.39h-19.184z" fill="#8ed16f" transform="matrix(.4762382 -.87931631 .87931631 .4762382 571.671869 278.198028)"/><ellipse cx="3.932" cy="7.873" fill="#8ed16f" rx="3.932" ry="7.873" transform="matrix(.4762382 -.87931631 .87931631 .4762382 583.766184 278.594541)"/><ellipse cx="3.932" cy="7.873" opacity=".1" rx="3.932" ry="7.873" transform="matrix(.4762382 -.87931631 .87931631 .4762382 583.766184 278.594541)"/><path d="m0 0h19.184v37.39h-19.184z" fill="#8ed16f" transform="matrix(.4762382 -.87931631 .87931631 .4762382 488.661715 254.486618)"/><ellipse cx="3.941" cy="7.892" fill="#8ed16f" rx="3.941" ry="7.892" transform="matrix(.47884509 -.87789941 .87789941 .47884509 503.30949 255.838323)"/><ellipse cx="3.941" cy="7.892" opacity=".1" rx="3.941" ry="7.892" transform="matrix(.47884509 -.87789941 .87789941 .47884509 503.30949 255.838323)"/><path d="m0 0h19.184v37.39h-19.184z" fill="#8ed16f" transform="matrix(.4762382 -.87931631 .87931631 .4762382 462.064888 653.646595)"/><ellipse cx="3.932" cy="7.873" fill="#8ed16f" rx="3.932" ry="7.873" transform="matrix(.4762382 -.87931631 .87931631 .4762382 474.163095 654.033642)"/><ellipse cx="3.932" cy="7.873" opacity=".1" rx="3.932" ry="7.873" transform="matrix(.4762382 -.87931631 .87931631 .4762382 474.163095 654.033642)"/><path d="m0 0h19.184v37.39h-19.184z" fill="#8ed16f" transform="matrix(.18240713 -.98322309 .98322309 .18240713 443.632583 661.904896)"/><path d="m0 0h19.184v37.39h-19.184z" opacity=".05" transform="matrix(.18240713 -.98322309 .98322309 .18240713 443.632583 661.904896)"/><ellipse cx="3.932" cy="7.873" fill="#8ed16f" rx="3.932" ry="7.873" transform="matrix(.18240713 -.98322309 .98322309 .18240713 455.267582 658.552945)"/><ellipse cx="3.932" cy="7.873" opacity=".1" rx="3.932" ry="7.873" transform="matrix(.18240713 -.98322309 .98322309 .18240713 455.267582 658.552945)"/><path d="m0 0h19.184v37.39h-19.184z" fill="#8ed16f" transform="matrix(.18240713 -.98322309 .98322309 .18240713 447.075907 673.217778)"/><ellipse cx="3.932" cy="7.873" fill="#8ed16f" rx="3.932" ry="7.873" transform="matrix(.18240713 -.98322309 .98322309 .18240713 458.700918 669.865816)"/><ellipse cx="3.932" cy="7.873" opacity=".1" rx="3.932" ry="7.873" transform="matrix(.18240713 -.98322309 .98322309 .18240713 458.700918 669.865816)"/><path d="m0 0h19.184v37.39h-19.184z" fill="#8ed16f" transform="matrix(.4762382 -.87931631 .87931631 .4762382 500.863728 702.157939)"/><ellipse cx="3.932" cy="7.873" fill="#8ed16f" rx="3.932" ry="7.873" transform="matrix(.4762382 -.87931631 .87931631 .4762382 512.972991 702.545548)"/><ellipse cx="3.932" cy="7.873" opacity=".1" rx="3.932" ry="7.873" transform="matrix(.4762382 -.87931631 .87931631 .4762382 512.972991 702.545548)"/><path d="m0 0h19.184v37.39h-19.184z" fill="#8ed16f" transform="matrix(.18240713 -.98322309 .98322309 .18240713 482.430017 710.386022)"/><path d="m0 0h19.184v37.39h-19.184z" opacity=".05" transform="matrix(.18240713 -.98322309 .98322309 .18240713 482.430017 710.386022)"/><ellipse cx="3.932" cy="7.873" fill="#8ed16f" rx="3.932" ry="7.873" transform="matrix(.18240713 -.98322309 .98322309 .18240713 494.054211 707.033077)"/><ellipse cx="3.932" cy="7.873" opacity=".1" rx="3.932" ry="7.873" transform="matrix(.18240713 -.98322309 .98322309 .18240713 494.054211 707.033077)"/><path d="m0 0h19.184v37.39h-19.184z" fill="#8ed16f" transform="matrix(.18240713 -.98322309 .98322309 .18240713 485.871364 721.710526)"/><ellipse cx="3.932" cy="7.873" fill="#8ed16f" rx="3.932" ry="7.873" transform="matrix(.18240713 -.98322309 .98322309 .18240713 497.507346 718.357757)"/><ellipse cx="3.932" cy="7.873" opacity=".1" rx="3.932" ry="7.873" transform="matrix(.18240713 -.98322309 .98322309 .18240713 497.507346 718.357757)"/><path d="m0 0h19.184v37.39h-19.184z" fill="#8ed16f" transform="matrix(.4762382 -.87931631 .87931631 .4762382 559.084061 670.897014)"/><ellipse cx="3.932" cy="7.873" fill="#8ed16f" rx="3.932" ry="7.873" transform="matrix(.4762382 -.87931631 .87931631 .4762382 571.174205 671.280525)"/><ellipse cx="3.932" cy="7.873" opacity=".1" rx="3.932" ry="7.873" transform="matrix(.4762382 -.87931631 .87931631 .4762382 571.174205 671.280525)"/><path d="m0 0h19.184v37.39h-19.184z" fill="#8ed16f" transform="matrix(.18240713 -.98322309 .98322309 .18240713 540.622452 679.141241)"/><path d="m0 0h19.184v37.39h-19.184z" opacity=".05" transform="matrix(.18240713 -.98322309 .98322309 .18240713 540.622452 679.141241)"/><ellipse cx="3.932" cy="7.873" fill="#8ed16f" rx="3.932" ry="7.873" transform="matrix(.18240713 -.98322309 .98322309 .18240713 552.247464 675.789279)"/><ellipse cx="3.932" cy="7.873" opacity=".1" rx="3.932" ry="7.873" transform="matrix(.18240713 -.98322309 .98322309 .18240713 552.247464 675.789279)"/><path d="m0 0h19.184v37.39h-19.184z" fill="#8ed16f" transform="matrix(.18240713 -.98322309 .98322309 .18240713 544.06413 690.462143)"/><g transform="matrix(.18240713 -.98322309 .98322309 .18240713 555.700764 687.112159)"><ellipse cx="3.932" cy="7.873" fill="#8ed16f" rx="3.932" ry="7.873"/><ellipse cx="3.932" cy="7.873" opacity=".1" rx="3.932" ry="7.873"/></g></svg>