<svg id="Componente_43_1" data-name="Componente 43 – 1" xmlns="http://www.w3.org/2000/svg" width="360.643" height="337.645" viewBox="0 0 360.643 337.645">
  <g id="Grupo_7716" data-name="Grupo 7716">
    <g id="Grupo_7650" data-name="Grupo 7650" transform="translate(82.598 0)">
      <g id="Grupo_7646" data-name="Grupo 7646" transform="translate(2.02 67.477)">
        <rect id="Retângulo_3128" data-name="Retângulo 3128" width="60.69" height="54.817" rx="12" fill="#f4f4f4"/>
      </g>
      <g id="Grupo_7647" data-name="Grupo 7647">
        <rect id="Retângulo_3129" data-name="Retângulo 3129" width="60.69" height="54.817" rx="12" fill="#f4f4f4"/>
      </g>
      <g id="Grupo_7648" data-name="Grupo 7648" transform="translate(73.151 68.782)">
        <rect id="Retângulo_3130" data-name="Retângulo 3130" width="60.69" height="54.817" rx="12" fill="#f4f4f4"/>
      </g>
      <g id="Grupo_7649" data-name="Grupo 7649" transform="translate(71.131 1.305)">
        <rect id="Retângulo_3131" data-name="Retângulo 3131" width="60.69" height="54.817" rx="12" fill="#f4f4f4"/>
      </g>
    </g>
    <g id="Grupo_7684" data-name="Grupo 7684" transform="translate(92.6 65.459)">
      <g id="Grupo_7651" data-name="Grupo 7651" transform="translate(92.19 151.54)">
        <rect id="Retângulo_3132" data-name="Retângulo 3132" width="107.676" height="119.422" rx="12" fill="#bababa"/>
      </g>
      <g id="Grupo_7652" data-name="Grupo 7652" transform="translate(67.228 151.703)">
        <rect id="Retângulo_3133" data-name="Retângulo 3133" width="107.676" height="119.422" rx="12" fill="#d1d1d1"/>
      </g>
      <g id="Grupo_7653" data-name="Grupo 7653" transform="translate(63.313 183.363)">
        <rect id="Retângulo_3134" data-name="Retângulo 3134" width="114.637" height="31.559" rx="12" fill="#bababa"/>
      </g>
      <g id="Grupo_7654" data-name="Grupo 7654" transform="translate(11.27 78.378)">
        <rect id="Retângulo_3135" data-name="Retângulo 3135" width="96.283" height="110.278" rx="12" fill="#bababa"/>
      </g>
      <g id="Grupo_7655" data-name="Grupo 7655" transform="translate(31.092 78.133)">
        <rect id="Retângulo_3136" data-name="Retângulo 3136" width="72.561" height="110.278" rx="12" fill="#d1d1d1"/>
      </g>
      <g id="Grupo_7681" data-name="Grupo 7681" transform="translate(34.673)">
        <g id="Grupo_7674" data-name="Grupo 7674">
          <g id="Grupo_7656" data-name="Grupo 7656" transform="translate(79.539 146.743)">
            <path id="Caminho_9545" data-name="Caminho 9545" d="M3670.931,4299.727c20.808-5.134,46.213-11.485,55.1-6.4,10.4,5.945-2.541,102.892-2.541,102.892l-15.243,2.541-5.081-74.946-27.946,6.352Z" transform="translate(-3670.931 -4291.456)" fill="#272626"/>
          </g>
          <g id="Grupo_7657" data-name="Grupo 7657" transform="translate(71.13 64.773)">
            <path id="Caminho_9546" data-name="Caminho 9546" d="M3631.734,3430.507c-.267.267-.661,2.477-1.27,5.831-2.223,12.233-7.355,39.721-20.324,43.71-16.513,5.081-22.865-12.7-22.865-12.7l-6.351-53.351c11.432,8.892,25.405,38.108,25.405,38.108l10.734-20.49,3.239-6.186S3633,3429.237,3631.734,3430.507Z" transform="translate(-3580.923 -3413.994)" fill="#f77d00"/>
          </g>
          <g id="Grupo_7658" data-name="Grupo 7658" transform="translate(12.698 57.151)">
            <path id="Caminho_9547" data-name="Caminho 9547" d="M3022.752,3445.461h-62.243c0-8.892,2.541-22.865,2.541-49.54s-7.622-50.811-7.622-50.811l17.631-8.4,3.43-1.639,5.615-2.667h19.054l13.973,8.892s3.811,6.351,11.433,30.486C3029.1,3408.623,3022.752,3445.461,3022.752,3445.461Z" transform="translate(-2955.428 -3332.407)" fill="#f77d00"/>
          </g>
          <g id="Grupo_7659" data-name="Grupo 7659" transform="translate(0 69.854)">
            <path id="Caminho_9548" data-name="Caminho 9548" d="M2877.929,3529.357s-2.4,1.232-6.212,2.985c-12.588,5.792-40.61,17.225-48.41,8.447-10.162-11.432,2.541-69.865,8.892-72.405,0,0,3.811,3.811,6.351,13.973s2.541,35.568,2.541,35.568l27.311-3.036,6.986-.775Z" transform="translate(-2819.502 -3468.384)" fill="#f77d00"/>
          </g>
          <g id="Grupo_7660" data-name="Grupo 7660" transform="translate(107.269 76.205)">
            <path id="Caminho_9549" data-name="Caminho 9549" d="M3982.449,3541.454c-.267.267-.661,2.477-1.27,5.831l-13.4-4.725,3.239-6.186S3983.719,3540.184,3982.449,3541.454Z" transform="translate(-3967.777 -3536.373)" fill="#ce6200"/>
          </g>
          <g id="Grupo_7661" data-name="Grupo 7661" transform="translate(48.901 115.584)">
            <path id="Caminho_9550" data-name="Caminho 9550" d="M3352.49,3973.145s-2.4,1.232-6.212,2.985l-3.315-17.454,6.986-.775Z" transform="translate(-3342.963 -3957.902)" fill="#ce6200"/>
          </g>
          <g id="Grupo_7662" data-name="Grupo 7662" transform="translate(56.139 114.067)">
            <path id="Caminho_9551" data-name="Caminho 9551" d="M3420.445,3944.692s7.37-4.051,12.451-2.781,10.162,6.352,8.892,10.162-10.162,1.27-10.162,1.27l-9.178,3.365Z" transform="translate(-3420.445 -3941.664)" fill="#f1978c"/>
          </g>
          <g id="Grupo_7663" data-name="Grupo 7663" transform="translate(111.947 55.688)">
            <path id="Caminho_9552" data-name="Caminho 9552" d="M4017.848,3337.7s1.1-23.312,8.724-20.771,7.622,12.563,0,24.065Z" transform="translate(-4017.848 -3316.738)" fill="#f1978c"/>
          </g>
          <g id="Grupo_7664" data-name="Grupo 7664" transform="translate(33.372 57.151)">
            <path id="Caminho_9553" data-name="Caminho 9553" d="M3182.9,3332.407l15.759,10.162s-6.566,3.811-9.193,10.162l-12.732-17.456Z" transform="translate(-3176.738 -3332.407)" fill="#7c3800"/>
          </g>
          <g id="Grupo_7665" data-name="Grupo 7665" transform="translate(30.329 59.819)">
            <path id="Caminho_9554" data-name="Caminho 9554" d="M3158.289,3390.051v-7.622l-6.351,1.27-7.774-21.1,3.43-1.639c7.964,14.532,24.668,25.278,24.668,25.278l2.541,11.432Z" transform="translate(-3144.164 -3360.962)" fill="#ce6200"/>
          </g>
          <g id="Grupo_7666" data-name="Grupo 7666" transform="translate(58.427 58.907)">
            <path id="Caminho_9555" data-name="Caminho 9555" d="M3447.621,3351.2s2.314,21.2-2.676,26.19l2.541,10.9,8.892-12.174-5.081-3.811,6.352-1.27-5.7-17.135Z" transform="translate(-3444.945 -3351.203)" fill="#ce6200"/>
          </g>
          <g id="Grupo_7667" data-name="Grupo 7667" transform="translate(49.562 67.327)">
            <path id="Caminho_9556" data-name="Caminho 9556" d="M3353.625,3441.674l-3.584,2.927,2.569,6.207,6.089-1.015v-7.527S3355.655,3440.659,3353.625,3441.674Z" transform="translate(-3350.041 -3441.338)" fill="#7c3800"/>
          </g>
          <g id="Grupo_7668" data-name="Grupo 7668" transform="translate(50.425 75.61)">
            <path id="Caminho_9557" data-name="Caminho 9557" d="M3360.739,3530.487l-1.462,3.41,7.835,7.791s4.833-7.3-.04-11.688Z" transform="translate(-3359.277 -3530)" fill="#7c3800"/>
          </g>
          <g id="Grupo_7669" data-name="Grupo 7669" transform="translate(17.779 148.632)">
            <path id="Caminho_9558" data-name="Caminho 9558" d="M3009.819,4333.249c22.865-21.595,59.7-24.206,64.784-19.725s21.594,103.562,21.594,103.562l-15.243,5.082-22.865-71.135S3009.819,4372.627,3009.819,4333.249Z" transform="translate(-3009.819 -4311.676)" fill="#3f3f3f"/>
          </g>
          <g id="Grupo_7670" data-name="Grupo 7670" transform="translate(40.541 40.648)">
            <path id="Caminho_9559" data-name="Caminho 9559" d="M3253.476,3155.75l.635,19.689,12.068,6.986,6.7-3.811-1.616-3.811-3.811-16.513Z" transform="translate(-3253.476 -3155.75)" fill="#f1978c"/>
          </g>
          <g id="Grupo_7671" data-name="Grupo 7671" transform="translate(35.804 10.621)">
            <path id="Caminho_9560" data-name="Caminho 9560" d="M3234.36,2854.346c-.184,14.2-7.388,21.989-12.987,21.115-9.365-1.461-17.055-18.09-17.055-18.09-2.844-2.372-2.808-19.08,9.271-22.337S3235.986,2839.815,3234.36,2854.346Z" transform="translate(-3202.773 -2834.314)" fill="#f1978c"/>
          </g>
          <g id="Grupo_7672" data-name="Grupo 7672" transform="translate(32.8)">
            <path id="Caminho_9561" data-name="Caminho 9561" d="M3212.658,2723.165a30.126,30.126,0,0,1-11.113,2.7,48.709,48.709,0,0,0-1.59-5.24,14.35,14.35,0,0,1-1.5,2.616,13.814,13.814,0,0,1-10.745,5.745c-7.678.42-14.159,4.681-16.522,13.767-3.214,12.355,8.288,20.352,8.288,20.352l-.213-8.425,6.852-6.772s1.861,2.609,4.567,1.745,2.43-7.334,2.43-7.334a26.209,26.209,0,0,0,5.43,1.668,9.7,9.7,0,0,0,4.594.314c.039-.005.073-.015.112-.02a10,10,0,0,0,3.866-1.063,6.688,6.688,0,0,0,1.95-1.607C3215.142,2735.833,3212.658,2723.165,3212.658,2723.165Z" transform="translate(-3170.616 -2720.624)" fill="#3f3f3f"/>
          </g>
          <g id="Grupo_7673" data-name="Grupo 7673" transform="translate(37.27 23.086)">
            <circle id="Elipse_1248" data-name="Elipse 1248" cx="6.904" cy="6.904" r="6.904" fill="#f1978c"/>
          </g>
        </g>
        <g id="Grupo_7675" data-name="Grupo 7675" transform="translate(53.348 56.911)">
          <path id="Caminho_9562" data-name="Caminho 9562" d="M3390.57,3340.249l8.77,4.872-.974-13.155-3.111-2.134Z" transform="translate(-3390.57 -3329.833)" fill="#7c3800"/>
        </g>
        <g id="Grupo_7676" data-name="Grupo 7676" transform="translate(45.065 40.044)">
          <path id="Caminho_9563" data-name="Caminho 9563" d="M3301.908,3149.275s2.393,11.374,11.428,11.534l1.231,4.718S3301.908,3165.353,3301.908,3149.275Z" transform="translate(-3301.908 -3149.275)" fill="#b2726d"/>
        </g>
        <g id="Grupo_7677" data-name="Grupo 7677" transform="translate(20.217 98.022)">
          <path id="Caminho_9564" data-name="Caminho 9564" d="M3035.922,3769.909v22.412l16.565-1.461-12.667-2.923Z" transform="translate(-3035.922 -3769.909)" fill="#ce6200"/>
        </g>
        <g id="Grupo_7678" data-name="Grupo 7678" transform="translate(83.777 98.862)">
          <path id="Caminho_9565" data-name="Caminho 9565" d="M3716.3,3778.906l.41,29.54,5.539,2.667Z" transform="translate(-3716.304 -3778.906)" fill="#ce6200"/>
        </g>
        <g id="Grupo_7679" data-name="Grupo 7679" transform="translate(90.88 252.411)">
          <path id="Caminho_9566" data-name="Caminho 9566" d="M3792.339,5426.683l.47,14.956h35.566l-24.959-19.059Z" transform="translate(-3792.339 -5422.58)" fill="#272626"/>
        </g>
        <g id="Grupo_7680" data-name="Grupo 7680" transform="translate(118.164 249.949)">
          <path id="Caminho_9567" data-name="Caminho 9567" d="M4084.4,5398.28l.47,11.673,29.72,2.436-19.318-16.161Z" transform="translate(-4084.402 -5396.229)" fill="#272626"/>
        </g>
      </g>
      <g id="Grupo_7682" data-name="Grupo 7682" transform="translate(4.091 151.785)">
        <rect id="Retângulo_3137" data-name="Retângulo 3137" width="107.676" height="119.422" rx="12" fill="#bababa"/>
      </g>
      <g id="Grupo_7683" data-name="Grupo 7683" transform="translate(0 151.948)">
        <rect id="Retângulo_3138" data-name="Retângulo 3138" width="86.806" height="119.422" rx="12" fill="#d1d1d1"/>
      </g>
    </g>
    <g id="Grupo_7687" data-name="Grupo 7687" transform="translate(47.993 311.215)">
      <g id="Grupo_7685" data-name="Grupo 7685" transform="translate(0 0.489)">
        <path id="Caminho_9568" data-name="Caminho 9568" d="M1974.256,5356.588l-3.424,25.94,4.478-.245,6.321-24.961Z" transform="translate(-1970.832 -5356.588)" fill="#272626"/>
      </g>
      <g id="Grupo_7686" data-name="Grupo 7686" transform="translate(19.49)">
        <path id="Caminho_9569" data-name="Caminho 9569" d="M2187.382,5351.349l3.675,25.94-4.805-.245-6.784-24.961Z" transform="translate(-2179.468 -5351.349)" fill="#272626"/>
      </g>
    </g>
    <g id="Grupo_7688" data-name="Grupo 7688" transform="translate(3.255 173.58)">
      <path id="Caminho_9570" data-name="Caminho 9570" d="M1529.322,3909.5a14.4,14.4,0,0,0,14.117-1.674c3.379-2.534,6.261-7.034,6.123-15.018-.326-18.925-45.354-16.967-56.122-9.136C1484.525,3890.156,1517.652,3904.689,1529.322,3909.5Z" transform="translate(-1491.935 -3878.022)" fill="#3f3f3f"/>
    </g>
    <g id="Grupo_7689" data-name="Grupo 7689" transform="translate(69.206 177.985)">
      <path id="Caminho_9571" data-name="Caminho 9571" d="M2215.22,3956.653a10.847,10.847,0,0,1-12.068-1.674c-2.888-2.534-5.352-7.034-5.234-15.018.279-18.925,38.771-16.967,47.975-9.136C2253.514,3937.308,2225.2,3951.842,2215.22,3956.653Z" transform="translate(-2197.914 -3925.175)" fill="#f77d00"/>
    </g>
    <g id="Grupo_7690" data-name="Grupo 7690" transform="translate(63.323 146.537)">
      <path id="Caminho_9572" data-name="Caminho 9572" d="M2152.161,3616.619a9.015,9.015,0,0,1-10.1.782c-2.795-1.545-5.594-4.761-6.915-11.265-3.132-15.415,28.469-20.656,37.332-15.932C2179.82,3594.117,2159.406,3610.942,2152.161,3616.619Z" transform="translate(-2134.934 -3588.528)" fill="#3f3f3f"/>
    </g>
    <g id="Grupo_7691" data-name="Grupo 7691" transform="translate(22.052 145.499)">
      <path id="Caminho_9573" data-name="Caminho 9573" d="M1717.393,3603.581a7.674,7.674,0,0,0,9.153-1.391c2.19-2.106,4.059-5.846,3.97-12.481-.212-15.729-29.406-14.1-36.387-7.593C1688.35,3587.5,1709.828,3599.583,1717.393,3603.581Z" transform="translate(-1693.154 -3577.419)" fill="#f77d00"/>
    </g>
    <g id="Grupo_7692" data-name="Grupo 7692" transform="translate(53.411 112.55)">
      <path id="Caminho_9574" data-name="Caminho 9574" d="M2049.647,3255.643a7.382,7.382,0,0,1-7.941,4.357c-2.982-.363-6.711-2.211-10.689-7.523-9.43-12.59,14.187-28.714,23.566-27.721C2062.348,3225.579,2053.071,3247.961,2049.647,3255.643Z" transform="translate(-2028.835 -3224.712)" fill="#3f3f3f"/>
    </g>
    <g id="Grupo_7693" data-name="Grupo 7693" transform="translate(21.801 182.956)">
      <path id="Caminho_9575" data-name="Caminho 9575" d="M1732.782,4026.915l-2.2-23.738a19.765,19.765,0,0,0-7.092-13.45,38.146,38.146,0,0,0-13.665-7.114,77.012,77.012,0,0,0-19.358-3.195l.013-1.033a78.154,78.154,0,0,1,19.633,3.236,39.19,39.19,0,0,1,14.045,7.318,20.769,20.769,0,0,1,7.453,14.143l2.2,23.738Z" transform="translate(-1690.464 -3978.386)" fill="#272626"/>
    </g>
    <g id="Grupo_7694" data-name="Grupo 7694" transform="translate(60.691 154.35)">
      <path id="Caminho_9576" data-name="Caminho 9576" d="M2107.794,3744.6h-1.033c0-.258.045-25.976,3.925-45.861a34.73,34.73,0,0,1,13.038-20.927,36.527,36.527,0,0,1,10.068-5.65l.319.983a36.232,36.232,0,0,0-9.784,5.508,33.706,33.706,0,0,0-12.627,20.285C2107.839,3718.727,2107.794,3744.345,2107.794,3744.6Z" transform="translate(-2106.761 -3672.163)" fill="#272626"/>
    </g>
    <g id="Grupo_7695" data-name="Grupo 7695" transform="translate(35.697 151.146)">
      <path id="Caminho_9577" data-name="Caminho 9577" d="M1867.93,3709.135l-1.032-.046c.012-.276,1.172-27.824-2.927-47.838a26.5,26.5,0,0,0-13.9-18.646,33.557,33.557,0,0,0-10.855-3.7l.12-1.026a34.024,34.024,0,0,1,11.23,3.822,27.907,27.907,0,0,1,14.422,19.346C1869.109,3681.184,1867.943,3708.857,1867.93,3709.135Z" transform="translate(-1839.212 -3637.875)" fill="#ce6200"/>
    </g>
    <g id="Grupo_7696" data-name="Grupo 7696" transform="translate(59.263 188.507)">
      <path id="Caminho_9578" data-name="Caminho 9578" d="M2092.434,4075.554l-.951-.4,8.32-19.577a28.052,28.052,0,0,1,18.5-16.323,34.84,34.84,0,0,1,12.127-1.364l-.1,1.028a34.473,34.473,0,0,0-11.768,1.338,26.637,26.637,0,0,0-17.8,15.725Z" transform="translate(-2091.483 -4037.806)" fill="#ce6200"/>
    </g>
    <g id="Grupo_7697" data-name="Grupo 7697" transform="translate(58.244 123.081)">
      <path id="Caminho_9579" data-name="Caminho 9579" d="M2081.6,3444.826l-1.033-.012c.005-.409.5-41.139,1.714-63.648,1.214-22.582,9.5-43.515,9.58-43.724l.96.384c-.083.207-8.3,20.988-9.508,43.4C2082.1,3403.709,2081.6,3444.417,2081.6,3444.826Z" transform="translate(-2080.565 -3337.442)" fill="#272626"/>
    </g>
    <g id="Grupo_7698" data-name="Grupo 7698" transform="translate(44.811 217.57)">
      <rect id="Retângulo_3139" data-name="Retângulo 3139" width="37.197" height="96.582" rx="12" fill="#3f3f3f"/>
    </g>
    <g id="Grupo_7699" data-name="Grupo 7699" transform="translate(108.764 192.12)">
      <rect id="Retângulo_3140" data-name="Retângulo 3140" width="219.267" height="7.178" fill="#3f3f3f"/>
    </g>
    <g id="Grupo_7700" data-name="Grupo 7700" transform="translate(76.135 192.527)">
      <path id="Caminho_9580" data-name="Caminho 9580" d="M2351.375,4080.842l-33.608,144.465-45.68-.163,32.792-144.3Z" transform="translate(-2272.086 -4080.842)" fill="#3f3f3f"/>
    </g>
    <g id="Grupo_7701" data-name="Grupo 7701" transform="translate(279.74 192.12)">
      <path id="Caminho_9581" data-name="Caminho 9581" d="M4499.886,4076.476l32.466,144.057-47.476.489L4451.595,4083Z" transform="translate(-4451.595 -4076.476)" fill="#3f3f3f"/>
    </g>
    <g id="Grupo_7702" data-name="Grupo 7702" transform="translate(279.74 198.645)">
      <path id="Caminho_9582" data-name="Caminho 9582" d="M4451.595,4146.333h29.855L4461.383,4185Z" transform="translate(-4451.595 -4146.333)" fill="#595959"/>
    </g>
    <g id="Grupo_7703" data-name="Grupo 7703" transform="translate(320.118 197.748)">
      <path id="Caminho_9583" data-name="Caminho 9583" d="M4883.829,4136.727l33.037,138.591,7.342-.163-31.161-138.347Z" transform="translate(-4883.829 -4136.727)" fill="#272626"/>
    </g>
    <g id="Grupo_7704" data-name="Grupo 7704" transform="translate(113.006 199.189)">
      <path id="Caminho_9584" data-name="Caminho 9584" d="M2707.559,4152.154l-9.136.109-31.65,137.368,8.81.327Z" transform="translate(-2666.773 -4152.154)" fill="#272626"/>
    </g>
    <g id="Grupo_7705" data-name="Grupo 7705" transform="translate(250.863 107.405)">
      <path id="Caminho_9585" data-name="Caminho 9585" d="M4142.482,3175.718l20.067,20.556s13.7-21.046,3.916-25.451S4142.482,3175.718,4142.482,3175.718Z" transform="translate(-4142.482 -3169.64)" fill="#3f3f3f"/>
    </g>
    <g id="Grupo_7706" data-name="Grupo 7706" transform="translate(281.691 115.221)">
      <path id="Caminho_9586" data-name="Caminho 9586" d="M4472.49,3253.875s21.083,26.2,24.812,25.413,1.578-2.346.574-3.258S4472.06,3249.183,4472.49,3253.875Z" transform="translate(-4472.485 -3253.307)" fill="#3f3f3f"/>
    </g>
    <g id="Grupo_7707" data-name="Grupo 7707" transform="translate(307.899 148.565)">
      <path id="Caminho_9587" data-name="Caminho 9587" d="M4757.5,3610.56s-6.037,31.65-4.079,33.771,3.426.489,4.4-.653S4762.723,3606.481,4757.5,3610.56Z" transform="translate(-4753.033 -3610.238)" fill="#3f3f3f"/>
    </g>
    <g id="Grupo_7708" data-name="Grupo 7708" transform="translate(289.202 185.53)">
      <path id="Caminho_9588" data-name="Caminho 9588" d="M4552.886,4013.343l.414-.729a12.921,12.921,0,0,1,11.082-6.537l11.684-.138a12.921,12.921,0,0,1,11.94,7.628l.12.266Z" transform="translate(-4552.886 -4005.937)" fill="#3f3f3f"/>
    </g>
    <g id="Grupo_7709" data-name="Grupo 7709" transform="translate(308.562 141.762)">
      <circle id="Elipse_1249" data-name="Elipse 1249" cx="2.556" cy="2.556" r="2.556" fill="#37456d"/>
    </g>
    <g id="Grupo_7710" data-name="Grupo 7710" transform="translate(8.775 40.577)">
      <rect id="Retângulo_3141" data-name="Retângulo 3141" width="15.662" height="15.662" transform="translate(0 11.075) rotate(-45)" fill="#3f3f3f"/>
    </g>
    <g id="Grupo_7711" data-name="Grupo 7711" transform="translate(265.052 74.459)">
      <rect id="Retângulo_3142" data-name="Retângulo 3142" width="15.662" height="15.662" transform="translate(0 11.075) rotate(-45)" fill="#3f3f3f"/>
    </g>
    <g id="Grupo_7712" data-name="Grupo 7712" transform="translate(252.001 18.075)">
      <rect id="Retângulo_3143" data-name="Retângulo 3143" width="15.662" height="15.662" transform="translate(0 11.075) rotate(-45)" fill="#ddd"/>
    </g>
    <g id="Grupo_7713" data-name="Grupo 7713" transform="translate(0 93.96)">
      <rect id="Retângulo_3144" data-name="Retângulo 3144" width="15.662" height="15.662" transform="translate(0 11.075) rotate(-45)" fill="#ddd"/>
    </g>
    <g id="Grupo_7714" data-name="Grupo 7714" transform="translate(338.494 170.358)">
      <rect id="Retângulo_3145" data-name="Retângulo 3145" width="15.662" height="15.662" transform="translate(0 11.075) rotate(-45)" fill="#ddd"/>
    </g>
    <g id="Grupo_7715" data-name="Grupo 7715" transform="translate(2.742 272.16)">
      <rect id="Retângulo_3146" data-name="Retângulo 3146" width="15.662" height="15.662" transform="translate(0 11.075) rotate(-45)" fill="#ddd"/>
    </g>
  </g>
</svg>
