<svg id="Vector" xmlns="http://www.w3.org/2000/svg" width="254.403" height="351.836" viewBox="0 0 254.403 351.836">
  <g id="Grupo_16175" data-name="Grupo 16175" transform="translate(55.924)">
    <path id="Caminho_9591" data-name="Caminho 9591" d="M3285.814,169.408s19.99,25.064,22.161,25.064c.362-4.1,42.044-66.273,48.438-72.428C3330.993,128.212,3285.814,169.408,3285.814,169.408Z" transform="translate(-3203.908 -121.371)" fill="#1c2f56"/>
    <path id="Caminho_9592" data-name="Caminho 9592" d="M3307.371,194.522l-14-21.6,63.83-51.5Z" transform="translate(-3203.304 -121.421)" fill="#cc6202"/>
    <path id="Caminho_9593" data-name="Caminho 9593" d="M3287.381,169.458s55.988-43.691,71.995-48.037c-19.949,4.666-69.708,28.244-93.174,55.762C3274.471,170.022,3283.521,167,3287.381,169.458Z" transform="translate(-3205.476 -121.421)" fill="#f27d00"/>
    <path id="Caminho_9594" data-name="Caminho 9594" d="M3289.687,170.745s41.106-36.772,67.812-49.324c-35.877,31.7-53.751,52.06-62.591,77.325C3291.055,188.448,3289.687,170.745,3289.687,170.745Z" transform="translate(-3203.599 -121.421)" fill="#f27d00"/>
    <path id="Caminho_9595" data-name="Caminho 9595" d="M3215.914,400.716c-7.99-27.222-7.066-58.028-2.266-91.187,17.375-120.027,147.69-187.21,147.69-187.21" transform="translate(-3209.971 -121.349)" fill="none" stroke="#1a1a1a" stroke-linecap="round" stroke-linejoin="round" stroke-width="0.63" stroke-dasharray="3.782"/>
  </g>
  <path id="Caminho_9596" data-name="Caminho 9596" d="M3341.686,425.569c0-.406.486-.811,1.021-1.217a5.586,5.586,0,0,1-2.716-1.093c-1.026-1.268-5.611,5.431-5.611,5.431s1.2,1.154,2.968,2.889A9.729,9.729,0,0,0,3341.686,425.569Z" transform="translate(-3144.101 -97.304)" fill="#1a1a1a" stroke="#1a1a1a" stroke-linecap="round" stroke-linejoin="round" stroke-width="0.63"/>
  <path id="Caminho_9597" data-name="Caminho 9597" d="M3358.309,446.795c-.6-2.655-7.481-20.155-9.834-21.121a8.4,8.4,0,0,0-1.005-.326c4.443,7.081,7.271,15.219,10.1,23.068a.84.84,0,0,1,.024.112A1.54,1.54,0,0,0,3358.309,446.795Z" transform="translate(-3143.055 -97.124)" fill="#1a1a1a" stroke="#1a1a1a" stroke-linecap="round" stroke-linejoin="round" stroke-width="0.63"/>
  <path id="Caminho_9598" data-name="Caminho 9598" d="M3348.3,425.434c-1.622-.434-3.966-.757-5.81-1.175-.534.406-1.021.811-1.021,1.217a9.73,9.73,0,0,1-4.339,6.01c4.056,3.976,11.121,11.013,13.684,14.25,2.642,3.335,6.092,3.84,7.6,2.878a.8.8,0,0,0-.024-.112C3355.568,440.652,3352.74,432.515,3348.3,425.434Z" transform="translate(-3143.882 -97.211)" fill="#f27d00"/>
  <path id="Caminho_9599" data-name="Caminho 9599" d="M3291.494,338.062s5.55,30.053,4.947,40.311l.045,6.88s36.354,27.115,52.6,43.69a21.684,21.684,0,0,1-8.044,8.851s-59.526-30.575-65.961-42.966-16.894-50.986-17.055-67.011Z" transform="translate(-3150.205 -104.921)" fill="#353535"/>
  <path id="Caminho_9600" data-name="Caminho 9600" d="M3274.09,329.9s-2.525,49.309,18.023,66.611S3340.9,431.8,3340.9,431.8" transform="translate(-3148.929 -104.755)" fill="none" stroke="#b3b3b3" stroke-linecap="round" stroke-linejoin="round" stroke-width="0.63" stroke-dasharray="3.782"/>
  <path id="Caminho_9601" data-name="Caminho 9601" d="M3261.182,347.686s4.585-1.461,7.159-1.3c2.438.153,18.144,2.835,23.712-5.9l-2.878-7.894-31.146-7.907S3260.338,346.733,3261.182,347.686Z" transform="translate(-3150.205 -105.172)" fill="#1a1a1a" stroke="#1a1a1a" stroke-linecap="round" stroke-linejoin="round" stroke-width="0.63"/>
  <path id="Caminho_9602" data-name="Caminho 9602" d="M3330,329.9c0,.15,6.032,3.2,8.627,3.107s1.026,3.742-2.564,2.777c2.323,2.143,5.128,6.7,5.248,9.353s-3.438,3.742-5.248,2.716-9.412-7.664-11.4-15.992A19.829,19.829,0,0,1,3330,329.9Z" transform="translate(-3144.878 -104.755)" fill="#fc9590"/>
  <path id="Caminho_9603" data-name="Caminho 9603" d="M3332.4,333.311s-7.963-10.621-17.616-24.5c-5.735-8.245-9.042-21.985-10.783-31.782-3.143,7.994-1.664,16.964-4.473,25.077a5.513,5.513,0,0,1-2.3,2.992c7.7,15.347,23.834,29.127,25.962,31.15,2.452,2.333,4.866,3.017,7.681.966S3332.4,333.311,3332.4,333.311Z" transform="translate(-3147.071 -108.981)" fill="#f27d00"/>
  <path id="Caminho_9604" data-name="Caminho 9604" d="M3299.743,302.961c2.809-8.114,1.329-17.084,4.473-25.077-1.189-6.695-1.646-11.547-1.646-11.547l-8,32.466a43.037,43.037,0,0,0,2.872,7.15A5.513,5.513,0,0,0,3299.743,302.961Z" transform="translate(-3147.284 -109.836)" fill="#cc6202"/>
  <path id="Caminho_9605" data-name="Caminho 9605" d="M3254.3,323.477c7.24,27.357,24.264,29.559,39.348,18.979,15.6-10.941,6.757-42.807,6.757-42.807l-22.846-5.149-8.125,4.587-20.19,11.587" transform="translate(-3150.907 -107.584)" fill="#272626"/>
  <path id="Caminho_9606" data-name="Caminho 9606" d="M3269.212,306.672s6.033-5.472,10.618-5.552,14.881,3.782,19.065,3.3l1.085.212-1.246-6.167s-23.248-5.552-23.248-5.23-7.4,11.1-7.4,11.426A11.21,11.21,0,0,0,3269.212,306.672Z" transform="translate(-3149.401 -107.687)" fill="#1a1a1a" stroke="#1a1a1a" stroke-linecap="round" stroke-linejoin="round" stroke-width="0.63"/>
  <path id="Caminho_9607" data-name="Caminho 9607" d="M3299.1,228.526c-1.026,4.1-7.964,12.734-7.964,12.734s17.5,4.1,17.978,4.1,14.842-31.561,14.842-31.561l-3.8-3.137s-5.49-1.872-15.746,1.448-11.824,7-10.075,9.776,3.257,7.3,7.239,7.362a20.5,20.5,0,0,0,5.551-.422" transform="translate(-3147.558 -114.328)" fill="#fc9590"/>
  <path id="Caminho_9608" data-name="Caminho 9608" d="M3297.35,230.128s8.919-.519,9.281-2.662c-5.813,1.08-8.024-.3-8.024-.3Z" transform="translate(-3147.062 -112.967)" fill="#db6767"/>
  <path id="Caminho_9609" data-name="Caminho 9609" d="M3301.581,260.685c4.012-2.7,10.11-3.087,13.457.821,3.836,5.054,2.227,12.128,3.983,17.931,7.446,21.435,20.766,25.986,42.022,21.908.53-15.419-21.471-19.648-21.518-34.8.1-4.477,2.673-8.631,2.713-13.109.038-4.3-2.236-8.218-4.08-12.1a66.615,66.615,0,0,1-5.416-16.972c-.822-6.632-2.791-16.487-11.055-16.578-1.216.052-2.59.608-2.9,1.785-.416,1.578,1.33,3.061,1.1,4.676-.316,2.251-4.1,3.026-3.867,5.286.087.849.764,1.505,1.1,2.287,1.238,5.909-6.333,6.182-9.764,2.959,0,0,2.407,6.053,1.683,7.863s-10.2,12.371-10.2,12.371Z" transform="translate(-3146.941 -114.517)" fill="#272626"/>
  <path id="Caminho_9610" data-name="Caminho 9610" d="M3290.779,258.016c-2.594-7.784,2.383-16.056,9.551-19.644a16,16,0,0,1-3.035-.933c-3.378-1.509-7.661.121-7.661.121s-19.387,13.758-21.478,18.587-3.137,8.931.161,16.736c2.917,6.9,3.716,18.241-.294,27.032,7.012-3.712,17.049-2.872,24.8-3.1C3301.33,285.243,3295.2,270.268,3290.779,258.016Z" transform="translate(-3149.552 -112.197)" fill="#f27d00"/>
  <path id="Caminho_9611" data-name="Caminho 9611" d="M3306.888,239.071a43.627,43.627,0,0,1-6.559-.816c-7.168,3.589-12.145,11.86-9.551,19.644,4.425,12.252,10.551,27.227,2.043,38.8-7.749.228-17.786-.612-24.8,3.1a23.971,23.971,0,0,1-1.822,3.3s2.377,10.319,5,6.025,6.034-7.594,12.455-6.93c4.192.433,8.808,4.1,14.6,3.319s3.68-12.431,6.7-25.346S3306.888,239.071,3306.888,239.071Z" transform="translate(-3149.552 -112.081)" fill="#cc6202"/>
  <path id="Caminho_9612" data-name="Caminho 9612" d="M3302.206,242.527c6.865-3.18,25.413-12.5,33.222-19.91,9.291-8.81,18.824-29.57,18.824-29.57,3.3-1.062,5.4.435,6.877,3.259,0,0-10.014,25.708-21.719,37.777s-29.32,30.293-36.56,31.5c0,0-4.827-.495-6.7-3.5s-3.848-11.189.8-16.51a8.529,8.529,0,0,1,5.252-3.048" transform="translate(-3147.322 -115.722)" fill="#f27d00"/>
  <path id="Caminho_9613" data-name="Caminho 9613" d="M3302.24,238.857c-1.3.6-2.186.986-2.494,1.092-1.931.663-4.705,4.888-5.1,10.379s1.543,8.087,1.543,8.087-2.959-2.5-2.474-8.2,2.71-9.826,6.622-11.594Z" transform="translate(-3147.357 -112.052)" fill="#cc6202"/>
  <path id="Caminho_9614" data-name="Caminho 9614" d="M3349.839,193.818s-1.24,2.892,1.432,3.8,4.714-.283,4.957-1.152-2.6-2.527-3.515-2.872S3350.263,192.767,3349.839,193.818Z" transform="translate(-3142.889 -115.684)" fill="#d1334a"/>
  <path id="Caminho_9615" data-name="Caminho 9615" d="M3350.133,195.793s2.836-8.509,6.515-12.914,7.361-5.371,5.973-2.535-1.146,3.379,1.206,2.474,11.4-3.319,10.619.422-5.551,8.63-12.73,8.811c-2.9,0-6.4,6.035-6.4,6.035C3353,198.851,3351.256,198.135,3350.133,195.793Z" transform="translate(-3142.842 -116.838)" fill="#fc9590"/>
  <path id="Caminho_9616" data-name="Caminho 9616" d="M3253.125,386.872a68.781,68.781,0,0,0-13.541,15.915c-.78,1.3-2.556,2.8-4.259,2.351.778,1.773,3.291.8,4.732-.571,3.417-3.247,3.137-6.436,8.365-10.862,4.082-3.455,5.59-4.85,5.365-7.555A2.211,2.211,0,0,1,3253.125,386.872Z" transform="translate(-3152.02 -100.258)" fill="#1a1a1a" stroke="#1a1a1a" stroke-linecap="round" stroke-linejoin="round" stroke-width="0.63"/>
  <path id="Caminho_9617" data-name="Caminho 9617" d="M3239.6,403.294a68.781,68.781,0,0,1,13.541-15.915,2.211,2.211,0,0,0,.662-.723,13.007,13.007,0,0,0-.58-2.663,20,20,0,0,1-.833-4.182c-2.768.82-5.391,2.164-8.5,1.878a14.832,14.832,0,0,1-2.285,4.637c-2.734,3.62-4.746,9.736-6.194,15.77a5.851,5.851,0,0,0-.066,3.548C3237.045,406.09,3238.822,404.593,3239.6,403.294Z" transform="translate(-3152.037 -100.765)" fill="#f27d00"/>
  <path id="Caminho_9618" data-name="Caminho 9618" d="M3251.742,380.044a9.556,9.556,0,0,1,.15-3.14l-7.963,1.448a16.817,16.817,0,0,1-.691,3.57C3246.351,382.209,3248.975,380.864,3251.742,380.044Z" transform="translate(-3151.387 -100.997)" fill="#1a1a1a" stroke="#1a1a1a" stroke-linecap="round" stroke-linejoin="round" stroke-width="0.63"/>
  <g id="Grupo_16176" data-name="Grupo 16176" transform="translate(219.472 203.536)">
    <path id="Caminho_9619" data-name="Caminho 9619" d="M3396.343,327.316l-10.237,14.518-24.694-17.426,10.237-14.518,7.23,15.974Z" transform="translate(-3361.412 -309.89)" fill="#545454"/>
    <path id="Caminho_9620" data-name="Caminho 9620" d="M3395.585,327.316l-17.464-1.452-7.23-15.974Z" transform="translate(-3360.654 -309.89)" fill="#272626"/>
  </g>
  <g id="Grupo_16177" data-name="Grupo 16177" transform="translate(0 139.18)">
    <path id="Caminho_9621" data-name="Caminho 9621" d="M3201.87,271.844l-31.82,18.038,2.992-20.988,6.513.666,2.77-5.931h0Z" transform="translate(-3157.238 -249.232)" fill="#dbdbdb"/>
    <path id="Caminho_9622" data-name="Caminho 9622" d="M3201.458,272.288l-30.809,17.465,2.9-20.322,6.306.645,2.681-5.743h0Z" transform="translate(-3157.19 -249.176)" fill="#545454"/>
    <path id="Caminho_9623" data-name="Caminho 9623" d="M3200.961,272.91l-19.54-8.216,6.728-14.4Z" transform="translate(-3156.329 -250.298)" fill="#545454"/>
    <path id="Caminho_9624" data-name="Caminho 9624" d="M3173.991,268.624,3171,289.612,3158.187,267Z" transform="translate(-3158.187 -248.963)" fill="#545454"/>
    <path id="Caminho_9625" data-name="Caminho 9625" d="M3190.006,250.3l-6.728,14.4h0l-2.77,5.931-6.514-.666-15.8-1.619Z" transform="translate(-3158.187 -250.298)" fill="#272626"/>
    <line id="Linha_128" data-name="Linha 128" y1="0.004" transform="translate(15.805 19.657)" fill="none"/>
  </g>
  <path id="Caminho_9626" data-name="Caminho 9626" d="M3275.393,312.649s-8.929-48.278-31.854-34.277-1.208,110.073-1.208,110.073l11.878-2.173s4.96-50.37,0-69.358" transform="translate(-3152.203 -109.077)" fill="#272626"/>
  <path id="Caminho_9627" data-name="Caminho 9627" d="M3247.513,383.706s-9.428-91.647,2.155-91.888,16.169,43.148,30.407,41.126,6.819-20.363,8.349-27.056" transform="translate(-3151.335 -107.799)" fill="none" stroke="#b3b3b3" stroke-linecap="round" stroke-linejoin="round" stroke-width="0.63" stroke-dasharray="3.782"/>
</svg>
