<svg id="Componente_135_1" data-name="Componente 135 – 1" xmlns="http://www.w3.org/2000/svg" width="274.229" height="290.743" viewBox="0 0 274.229 290.743">
  <path id="Caminho_9527" data-name="Caminho 9527" d="M1576.052,1350.925h189.471c9.742-4.444,17.078-9.9,20.84-16.371,6.834-11.755-4.964-12.835-21.4-9.61,17.895-13.6,7.367-17.935-6.519-17.442,8.957-9.731,6.945-18.756-7.208-28.521-8.14-5.614-21.7.657-35.036,10.628-3.74-4.047-8.867-5.5-15.707-2.632-3.142,1.315-6.075,2.706-8.8,4.153-4.2-5.661-10.857-10.765-19.789-14.738-10.805-4.8-19.9,6.165-26.512,21.713-8.982-4.139-18.087-5.574-25.468-1.339-16.444,9.432-20.479,17.084-13.611,24.26-13.892.935-25.472,5.532-10.447,15.047-15.861-1.08-28,.946-23.721,10A14.664,14.664,0,0,0,1576.052,1350.925Z" transform="translate(-1571.277 -1064.699)" fill="#c6c6c6"/>
  <g id="Grupo_16152" data-name="Grupo 16152" transform="translate(155.734 224.508)">
    <path id="Caminho_9528" data-name="Caminho 9528" d="M1962.833,1307.441a73.631,73.631,0,0,0-52.229,44.607,73.456,73.456,0,0,0,118.5-26.54A73.645,73.645,0,0,0,1962.833,1307.441Z" transform="translate(-1910.604 -1305.661)" fill="#494949"/>
    <g id="Grupo_16151" data-name="Grupo 16151" transform="translate(4.414 2.439)">
      <line id="Linha_91" data-name="Linha 91" x1="104.658" y2="23.442" transform="translate(0 19.127)" fill="none" stroke="#fff" stroke-width="1.379"/>
      <line id="Linha_92" data-name="Linha 92" x2="14.634" y2="10.822" transform="translate(83.097 24.087)" fill="none" stroke="#fff" stroke-width="1.379"/>
      <line id="Linha_93" data-name="Linha 93" x2="18.041" y2="13.338" transform="translate(65.252 28.085)" fill="none" stroke="#fff" stroke-width="1.379"/>
      <line id="Linha_94" data-name="Linha 94" x2="30.153" y2="22.298" transform="translate(47.407 32.082)" fill="none" stroke="#fff" stroke-width="1.379"/>
      <line id="Linha_95" data-name="Linha 95" x2="29.335" y2="21.697" transform="translate(29.563 36.078)" fill="none" stroke="#fff" stroke-width="1.379"/>
      <line id="Linha_96" data-name="Linha 96" x2="16.335" y2="12.081" transform="translate(11.717 40.075)" fill="none" stroke="#fff" stroke-width="1.379"/>
      <line id="Linha_97" data-name="Linha 97" y1="16.031" x2="8.617" transform="translate(85.182 7.261)" fill="none" stroke="#fff" stroke-width="1.379"/>
      <line id="Linha_98" data-name="Linha 98" y1="24.995" x2="13.434" transform="translate(67.337 2.295)" fill="none" stroke="#fff" stroke-width="1.379"/>
      <line id="Linha_99" data-name="Linha 99" y1="31.288" x2="16.821" transform="translate(49.491)" fill="none" stroke="#fff" stroke-width="1.379"/>
      <line id="Linha_100" data-name="Linha 100" y1="32.139" x2="17.276" transform="translate(31.648 3.146)" fill="none" stroke="#fff" stroke-width="1.379"/>
      <line id="Linha_101" data-name="Linha 101" y1="27.606" x2="14.843" transform="translate(13.8 11.673)" fill="none" stroke="#fff" stroke-width="1.379"/>
    </g>
  </g>
  <g id="Grupo_16154" data-name="Grupo 16154" transform="translate(127.869 191.087)">
    <path id="Caminho_9529" data-name="Caminho 9529" d="M1874.343,1255.839a81.342,81.342,0,0,0-23.264,72.228,81.155,81.155,0,0,0,96.06-93.656A81.351,81.351,0,0,0,1874.343,1255.839Z" transform="translate(-1849.889 -1232.84)" fill="#8c8c8c"/>
    <g id="Grupo_16153" data-name="Grupo 16153" transform="translate(4.541 3.786)">
      <line id="Linha_102" data-name="Linha 102" x1="84.842" y2="82.716" transform="translate(0 4.866)" fill="none" stroke="#fff" stroke-width="1.523"/>
      <line id="Linha_103" data-name="Linha 103" x2="20.039" y2="1.695" transform="translate(67.44 22.028)" fill="none" stroke="#fff" stroke-width="1.523"/>
      <line id="Linha_104" data-name="Linha 104" x2="24.697" y2="2.088" transform="translate(52.975 36.133)" fill="none" stroke="#fff" stroke-width="1.523"/>
      <line id="Linha_105" data-name="Linha 105" x2="41.289" y2="3.492" transform="translate(38.508 50.238)" fill="none" stroke="#fff" stroke-width="1.523"/>
      <line id="Linha_106" data-name="Linha 106" x2="40.168" y2="3.4" transform="translate(24.039 64.341)" fill="none" stroke="#fff" stroke-width="1.523"/>
      <line id="Linha_107" data-name="Linha 107" x2="22.366" y2="1.894" transform="translate(9.574 78.446)" fill="none" stroke="#fff" stroke-width="1.523"/>
      <line id="Linha_108" data-name="Linha 108" x1="1.187" y1="20.073" transform="translate(67.751)" fill="none" stroke="#fff" stroke-width="1.523"/>
      <line id="Linha_109" data-name="Linha 109" x1="1.851" y1="31.297" transform="translate(52.623 2.881)" fill="none" stroke="#fff" stroke-width="1.523"/>
      <line id="Linha_110" data-name="Linha 110" x1="2.316" y1="39.179" transform="translate(37.69 9.105)" fill="none" stroke="#fff" stroke-width="1.523"/>
      <line id="Linha_111" data-name="Linha 111" x1="2.382" y1="40.242" transform="translate(23.16 22.145)" fill="none" stroke="#fff" stroke-width="1.523"/>
      <line id="Linha_112" data-name="Linha 112" x1="2.043" y1="34.569" transform="translate(9.03 41.92)" fill="none" stroke="#fff" stroke-width="1.523"/>
    </g>
  </g>
  <g id="Grupo_16157" data-name="Grupo 16157" transform="translate(9.353 54.229)">
    <g id="Grupo_16155" data-name="Grupo 16155" transform="translate(0)">
      <path id="Caminho_9530" data-name="Caminho 9530" d="M1669.073,1055.642a77.482,77.482,0,0,1-77.395-77.393l-.023-33.042a10.575,10.575,0,0,1,10.564-10.567h21.138a10.574,10.574,0,0,1,10.565,10.563V950a4.94,4.94,0,0,0,4.959,4.79h46.948v99.054l-2.337.442A78.144,78.144,0,0,1,1669.073,1055.642Zm-66.854-115.254a4.817,4.817,0,0,0-4.814,4.816l.021,33.042a71.6,71.6,0,0,0,82.657,70.79v-88.5h-41.2A10.631,10.631,0,0,1,1628.172,950V945.2a4.817,4.817,0,0,0-4.816-4.816Z" transform="translate(-1591.655 -934.641)" fill="#fec12f"/>
    </g>
    <g id="Grupo_16156" data-name="Grupo 16156" transform="translate(130.735)">
      <path id="Caminho_9531" data-name="Caminho 9531" d="M1893.271,1055.646a77.964,77.964,0,0,1-14.419-1.365l-2.34-.442V954.787h46.948a4.942,4.942,0,0,0,4.96-4.791v-4.788a10.575,10.575,0,0,1,10.559-10.567h21.149a10.577,10.577,0,0,1,10.563,10.567l-.024,33.045A77.484,77.484,0,0,1,1893.271,1055.646Zm-11.01-6.611a71.582,71.582,0,0,0,82.654-70.784l.027-33.047a4.824,4.824,0,0,0-4.813-4.816h-21.149a4.819,4.819,0,0,0-4.809,4.819V950a10.637,10.637,0,0,1-10.71,10.538h-41.2Z" transform="translate(-1876.512 -934.641)" fill="#fec12f"/>
    </g>
    <rect id="Retângulo_3126" data-name="Retângulo 3126" width="16.287" height="98.69" transform="translate(104.311 109.469)" fill="#fec12f"/>
    <rect id="Retângulo_3127" data-name="Retângulo 3127" width="16.287" height="9.261" transform="translate(104.311 151.725)" fill="#ffab01"/>
    <rect id="Retângulo_3128" data-name="Retângulo 3128" width="21.947" height="25.047" transform="translate(101.48 131.697)" fill="#ffab01"/>
    <rect id="Retângulo_3129" data-name="Retângulo 3129" width="21.947" height="5.881" transform="translate(101.48 150.863)" fill="#fec12f"/>
    <path id="Caminho_9532" data-name="Caminho 9532" d="M1813.705,1393.258a13.883,13.883,0,0,1-13.868-13.414H1753.8a13.89,13.89,0,0,1-13.872,13.414h-13.89v14.372H1827.6v-14.372Z" transform="translate(-1664.364 -1175.519)" fill="#fec12f"/>
    <path id="Caminho_9533" data-name="Caminho 9533" d="M1729.168,1004.976v79.4a35.572,35.572,0,0,0,35.572,35.569h27.542a35.566,35.566,0,0,0,35.572-35.569v-79.4Z" transform="translate(-1666.057 -972.696)" fill="#fec12f"/>
    <rect id="Retângulo_3130" data-name="Retângulo 3130" width="114.022" height="15.329" transform="translate(55.442 17.907)" fill="#fec12f"/>
    <path id="Caminho_9534" data-name="Caminho 9534" d="M1811.865,1050.686l6.5,13.183,14.547,2.111-10.525,10.263,2.486,14.487-13.012-6.842-13.012,6.842,2.487-14.487-10.527-10.263,14.548-2.111Z" transform="translate(-1699.41 -997.428)" fill="#ffab01"/>
    <rect id="Retângulo_3131" data-name="Retângulo 3131" width="98.685" height="7.346" transform="translate(63.111 32.28)" fill="#ffab01"/>
    <path id="Caminho_9535" data-name="Caminho 9535" d="M1740.156,1414.291v11.977h95.079v-11.977Z" transform="translate(-1672.002 -1194.156)" fill="#ffab01"/>
  </g>
  <g id="Grupo_16159" data-name="Grupo 16159" transform="translate(110.348)">
    <path id="Caminho_9536" data-name="Caminho 9536" d="M1831.292,1061.236l.028,2.963-4.042,1.924s-3.863,1.467-5.08,1.239-3.255-.443-3.913-1.6.894-1.484,2.471-2.3a11.949,11.949,0,0,0,4.16-3.31c.671-1.114,2.721.88,2.721.88S1826.942,1062.75,1831.292,1061.236Z" transform="translate(-1815.184 -948.135)" fill="#b75802"/>
    <path id="Caminho_9537" data-name="Caminho 9537" d="M1870.2,933.127s12.114,3.807,17.306,3.461-9,7.961-12.46,8.307S1868.818,939.7,1870.2,933.127Z" transform="translate(-1843.161 -879.592)" fill="#494949"/>
    <path id="Caminho_9538" data-name="Caminho 9538" d="M1874.866,940.287s5.074,12.23,1.613,14.652-32.071.577-32.071.577l-5.192,40.5h-5.538l4.153-45.688s.693-5.192,6.923-5.884S1870.713,936.826,1874.866,940.287Z" transform="translate(-1823.597 -882.945)" fill="#272626"/>
    <path id="Caminho_9539" data-name="Caminho 9539" d="M1875.707,944.44s1.613,5.307-3.925,6-25.149,2.654-25.149,2.654l-6.922,44.3" transform="translate(-1826.861 -885.713)" fill="none" stroke="#fff" stroke-width="0.265"/>
    <path id="Caminho_9540" data-name="Caminho 9540" d="M1845.194,932.221s-2.769-1.73-4.846,0-16.731,46.149-16.731,46.149l3.579,1.961s18.345-34.958,19.037-37.727S1845.194,932.913,1845.194,932.221Z" transform="translate(-1818.153 -878.686)" fill="#494949"/>
    <path id="Caminho_9541" data-name="Caminho 9541" d="M1854.291,966.938s9.115-17.306,8.769-22.5" transform="translate(-1834.75 -885.713)" fill="none" stroke="#fff" stroke-width="0.265"/>
    <path id="Caminho_9542" data-name="Caminho 9542" d="M1821.771,1034.311l1.058,2.711-2.836,3.349s-2.84,2.859-3.975,3.126-2.978.867-3.952.063.257-1.714,1.34-3.084a12.49,12.49,0,0,0,2.455-4.669c.193-1.285,2.667-.256,2.667-.256S1818.525,1037.4,1821.771,1034.311Z" transform="translate(-1811.712 -934.338)" fill="#b75802"/>
    <path id="Caminho_9543" data-name="Caminho 9543" d="M1882.752,845.445s6.125-5.5,1.4-14.229c-2.619-4.839-1.245-18.06,7.233-13.957s6.183-1.012,10.969,1.269,6.907,5.714,6.262,9.46-.226,10.881,2.717,12.253,17.047,9.047,7.958,18.742S1877.151,861.56,1882.752,845.445Z" transform="translate(-1849.805 -816.481)" fill="#272626"/>
    <path id="Caminho_9544" data-name="Caminho 9544" d="M1912.5,850.164s-1.347,6.733-.448,9.127-6.135.6-6.135.6.3-5.536.449-6.733S1912.5,850.164,1912.5,850.164Z" transform="translate(-1862.683 -834.705)" fill="#f7b68b"/>
    <path id="Caminho_9545" data-name="Caminho 9545" d="M1906.594,853.156c.15-1.2,6.134-2.992,6.134-2.992s-4.352,6.31-5.835,6.434a2.743,2.743,0,0,1-.556-.008C1906.426,855.168,1906.525,853.706,1906.594,853.156Z" transform="translate(-1862.909 -834.705)" fill="#ec9568"/>
    <path id="Caminho_9546" data-name="Caminho 9546" d="M1898.589,835.493s-.449,6.135.3,7.93,1.047,3.142,2.843,2.992,4.638-2.843,6.284-3.89,2.843-2.244,2.244-3.74-1.347-.3-1.347.15-4.639,1.2-8.229-1.047C1899.787,837.326,1898.44,836.391,1898.589,835.493Z" transform="translate(-1858.645 -826.767)" fill="#f7b68b"/>
    <path id="Caminho_9547" data-name="Caminho 9547" d="M1886.726,916.3l-14.394-11.68s-2.75.3-1.459,2.059,9.823,12.072,9.823,12.072S1889.407,922.708,1886.726,916.3Z" transform="translate(-1843.535 -864.171)" fill="#ec9568"/>
    <path id="Caminho_9548" data-name="Caminho 9548" d="M1896.76,871.026s-5.686.9-6.434,3.142a11.155,11.155,0,0,0-.449,4.638C1889.877,879.854,1897.059,875.066,1896.76,871.026Z" transform="translate(-1853.972 -845.993)" fill="#b75802"/>
    <path id="Caminho_9549" data-name="Caminho 9549" d="M1900.76,869.4l-6.135.748s-6.883,7.182-8.379,7.481,2.013,20.991,1.643,23.21c-.2,1.2,5.386,1.745,8.379,2.194a34.664,34.664,0,0,0,7.182,0s-2.989-9.1-1.942-14.033,5.686-8.678,4.638-12.119S1908.091,873.436,1900.76,869.4Z" transform="translate(-1851.837 -845.111)" fill="#f27d00"/>
    <path id="Caminho_9550" data-name="Caminho 9550" d="M1926.134,877.821s-1.646,4.638-1.347,7.63,1.2,10.324,1.2,10.324,1.8,8.529,5.237,7.481,3.142-10.773.748-16.908S1927.181,876.324,1926.134,877.821Z" transform="translate(-1872.872 -849.495)" fill="#b75802"/>
    <path id="Caminho_9551" data-name="Caminho 9551" d="M1874.8,895.7l4.4-.247a.61.61,0,0,0,.521-.93l-4.172-9.727a1.428,1.428,0,0,0-1.276-.83l-4.4.247a.61.61,0,0,0-.521.931l4.171,9.727A1.43,1.43,0,0,0,1874.8,895.7Z" transform="translate(-1842.859 -852.993)" fill="#eaf4fe"/>
    <path id="Caminho_9552" data-name="Caminho 9552" d="M1913.443,913.928s-.15,1.721-.15,2.095-1.646.823-3.367.823-14.438-7.331-15.635-7.855a27.085,27.085,0,0,0-4.638-1.347c-.674-.075-1.2-1.945-.823-3.142a3.282,3.282,0,0,1,.873-1.713.624.624,0,0,1,.7.067c.823.524,4.115,3.366,4.115,3.366s7.706,1.421,10.773,2.768S1911.947,911.983,1913.443,913.928Z" transform="translate(-1853.37 -863.136)" fill="#f7b68b"/>
    <path id="Caminho_9553" data-name="Caminho 9553" d="M1882.042,903.4l3.94-.516-.873,1.713.524,2.618-2.169.374s-.3-.374.075-.524.9-.374.9-.374-1.047-.15-1.5-.224-.524-.224-.524-.449.449-.374.449-.374-.823-.3-.9-.524-.224-.524-.075-.748S1881.818,903.547,1882.042,903.4Z" transform="translate(-1849.649 -863.228)" fill="#ec9568"/>
    <g id="Grupo_16158" data-name="Grupo 16158" transform="translate(26.866 32.368)">
      <path id="Caminho_9554" data-name="Caminho 9554" d="M1872.423,892.174l1.87-2.517,2.842-2.65s.363.4-.077,1.052-2.1,2.582-2.1,2.582l-.813,1.353-.165.274S1872.829,893.455,1872.423,892.174Z" transform="translate(-1871.426 -887.007)" fill="#f0bf97"/>
      <path id="Caminho_9555" data-name="Caminho 9555" d="M1874.6,894.7s-.02.863.168.925.451-.234.859-.553,1.609-1.316,1.609-1.316l1.862-1.128a3.489,3.489,0,0,1-.368,1.1,14.309,14.309,0,0,1-1.135,1.123l-1.68,1.779s-1.365,1.083-1.518.789-.018-.736-.313-.9S1873.113,895.74,1874.6,894.7Z" transform="translate(-1872.103 -890.048)" fill="#f0bf97"/>
      <path id="Caminho_9556" data-name="Caminho 9556" d="M1879.409,898.758l1.179-1.039s1.368-.978,1.455-.81l.087.168s-.294.392-.706.847c-.156.172-.869.911-1.053,1.08-.67.615-1.229,1.545-1.352,1.609S1877.4,900.707,1879.409,898.758Z" transform="translate(-1874.642 -892.354)" fill="#f0bf97"/>
      <path id="Caminho_9557" data-name="Caminho 9557" d="M1870.8,892.47l-.04-2.483,1.55-2.83s.385.439.056,1.409-.327,1.075-.428,1.181a8.446,8.446,0,0,0,.312,1.7S1870.92,893,1870.8,892.47Z" transform="translate(-1870.527 -887.088)" fill="#f0bf97"/>
      <path id="Caminho_9558" data-name="Caminho 9558" d="M1872.435,898.676l-1.282-1.464s-.809.047-.77,1.626a24.751,24.751,0,0,1-.132,3.053s.4.965,1.062.939a3.8,3.8,0,0,0,2.476-.648,4.9,4.9,0,0,0,1.214-2.176c.129-.426-.531-.256-.8-.436-.329-.222-.316-.749-.581-.817A4.655,4.655,0,0,0,1872.435,898.676Z" transform="translate(-1870.25 -892.528)" fill="#f0bf97"/>
    </g>
  </g>
  <g id="Grupo_16161" data-name="Grupo 16161" transform="translate(125.678 197.17)">
    <g id="Grupo_16160" data-name="Grupo 16160" transform="translate(0 0)">
      <path id="Caminho_9559" data-name="Caminho 9559" d="M1885.064,1333.963c-.141,3.83-3.041,13.174-4.8,18.526h-27.285l-4.88-13.42s-10.33-16.084,7.454-26.754c2.553-1.532,15.827-.408,15.827-.408s9.833.659,22.874,20.219C1894.663,1332.739,1885.268,1328.45,1885.064,1333.963Z" transform="translate(-1845.116 -1281.487)" fill="#272626"/>
      <path id="Caminho_9560" data-name="Caminho 9560" d="M1915.9,1332.327c-.165.467.068.875.519.875h21.648a1.329,1.329,0,0,0,1.114-.875l5.5-15.587c.164-.467-.069-.792-.52-.792h-21.648a1.241,1.241,0,0,0-1.114.792Z" transform="translate(-1883.387 -1283.888)" fill="#f7f8fc"/>
      <path id="Caminho_9561" data-name="Caminho 9561" d="M1881.872,1277.207c-.2,1.021-1.971,4.113,5.719,11.233,5.514,5.105-12.05,5.718-18.176-2.042,0,0,9.395-1.226,6.331-18.381C1873.447,1255.144,1881.872,1277.207,1881.872,1277.207Z" transform="translate(-1858.263 -1255.774)" fill="#f7b68b"/>
      <path id="Caminho_9562" data-name="Caminho 9562" d="M1872.746,1329.657l3.676,1.5s1.418.659,1.089.85c-.408.239-3.268-.646-3.268-.646a13.427,13.427,0,0,0-2.042,1.157,6.665,6.665,0,0,1-3.4.681s-7.488,14.568-14.16,17.019-7.624,1.362-8.578-.409-2.722-9.667,4.085-11.709,17.155-5.718,17.155-5.718l3.268-3.438,2.315-.1s.953.681,1.5,1.09" transform="translate(-1845.12 -1290.864)" fill="#f7b68b"/>
      <path id="Caminho_9563" data-name="Caminho 9563" d="M1916.982,1332.715a.574.574,0,0,0,.52.846h21.648a1.323,1.323,0,0,0,1.114-.846l5.5-15.061a.517.517,0,0,0-.52-.766H1923.6a1.24,1.24,0,0,0-1.114.766Z" transform="translate(-1883.97 -1284.397)" fill="#e6e6e6"/>
      <rect id="Retângulo_3132" data-name="Retângulo 3132" width="30.528" height="2.348" rx="1.174" transform="translate(25.16 49.164)" fill="#e6e6e6"/>
      <path id="Caminho_9564" data-name="Caminho 9564" d="M1921,1356.22h15.521s3.268,1.1.2,4.975-6.229,2.794-7.965,2.079-7.557-6.057-7.557-6.057l-2.45.29-3.063-1.437a1.892,1.892,0,0,1,1.634,0,2.615,2.615,0,0,0,1.43.3l.919-.512-.613-.715-.306-.715,1.43.845Z" transform="translate(-1883.302 -1304.708)" fill="#ec9568"/>
      <path id="Caminho_9565" data-name="Caminho 9565" d="M1883.1,1277.78a29.673,29.673,0,0,0-.36-9.763c-2.3-12.873,6.126,9.19,6.126,9.19-.175.875-1.5,3.272,2.971,8.422C1888.211,1284.849,1885.079,1281.919,1883.1,1277.78Z" transform="translate(-1865.258 -1255.774)" fill="#ec9568"/>
      <path id="Caminho_9566" data-name="Caminho 9566" d="M1889.262,1258.429s2.042,12.662,1.225,15.521-3.255,3.526-6.126-.408c-5.514-7.557-5.31-13.479-3.676-14.5S1886.812,1254.14,1889.262,1258.429Z" transform="translate(-1863.815 -1251.699)" fill="#f7b68b"/>
      <path id="Caminho_9567" data-name="Caminho 9567" d="M1883.921,1254.662c1.984.319,5.105,1.43,7.147-3.676s-2.451-6.127-4.7-3.472-2.042,3.88-.613,2.655-.817-4.9-2.859-2.451-2.859,6.127-1.838,5.923-2.246-4.289-3.472-2.451-2.042,4.493-.613,5.31,3.063-2.042,1.634-1.021-1.838,6.535,0,7.352,1.838-.613.2-2.246.613-5,1.429-1.736c.07.28.613,2.144.613,2.144l1.225,1.021s0-3.676-.817-5C1879.424,1254.018,1879.48,1253.948,1883.921,1254.662Z" transform="translate(-1861.944 -1246.094)" fill="#272626"/>
      <path id="Caminho_9568" data-name="Caminho 9568" d="M1923.451,1358.76s11.049,1.064,13.824,1.344c1.836.186,3.532.958,4.006,1.933a7.625,7.625,0,0,1-.953,1.5c-3.063,3.88-6.229,2.794-7.965,2.079s-7.557-6.058-7.557-6.058l-2.452.295C1922.24,1359.644,1923.244,1358.8,1923.451,1358.76Z" transform="translate(-1886.902 -1307.052)" fill="#f7b68b"/>
      <path id="Caminho_9569" data-name="Caminho 9569" d="M1847.71,1355.425c.722.5.957.9,2.131.739,1.8-.24,7.429-3.453,10.1-5.479,4.227-3.209,10.014-12.278,10.24-12.274-.4.776-7.657,14.6-14.141,16.984C1849.94,1357.634,1848.62,1356.917,1847.71,1355.425Z" transform="translate(-1846.519 -1296.042)" fill="#ec9568"/>
      <path id="Caminho_9570" data-name="Caminho 9570" d="M1946.006,1334.065a2.105,2.105,0,1,0,2.105-2.105A2.105,2.105,0,0,0,1946.006,1334.065Z" transform="translate(-1899.703 -1292.552)" fill="#f7f8fc"/>
    </g>
    <path id="Caminho_9571" data-name="Caminho 9571" d="M1950.984,1426.753a4.556,4.556,0,0,0,1.857,0c1.3-.186,4.829-.929,7.987-1.3s3.158.186,3.158,1.3-.929,4.829-4.458,5.387a49.623,49.623,0,0,1-9.473,0s-2.972-.186-2.972-.929S1947.826,1425.638,1950.984,1426.753Z" transform="translate(-1900.286 -1343.074)" fill="#281616"/>
    <path id="Caminho_9572" data-name="Caminho 9572" d="M1893.7,1385.934s23.591-8.917,31.393-8.917,10.959,2.972,7.43,7.988-26.005,21.547-26.005,21.547H1892.59S1883.674,1395.965,1893.7,1385.934Z" transform="translate(-1868.826 -1316.931)" fill="#774900"/>
    <path id="Caminho_9573" data-name="Caminho 9573" d="M1860.458,1401.062s-3.157-8.359-.928-14.117,6.687-10.031,11.7-7.8,32.879,20.619,32.879,20.619l-2.786,6.13s-21.543-3.9-24.891-7.244c-.186-.186,0,7.244-5.015,8.359C1867.977,1407.771,1863.431,1406.263,1860.458,1401.062Z" transform="translate(-1852.484 -1317.755)" fill="#d38905"/>
    <path id="Caminho_9574" data-name="Caminho 9574" d="M1895.562,1432.715a51.094,51.094,0,0,0,5.759-.929c1.1-.441,3.158-3.158,7.059-2.972s7.43.372,6.13,2.972-3.344,4.086-8.731,4.644-10.4.743-11.331.185S1892.219,1432.343,1895.562,1432.715Z" transform="translate(-1871.241 -1344.95)" fill="#281616"/>
    <line id="Linha_113" data-name="Linha 113" x1="9.845" y2="10.217" transform="translate(40.668 64.174)" fill="#f7f8fc"/>
    <line id="Linha_114" data-name="Linha 114" x2="8.73" y2="5.015" transform="translate(16.705 76.991)" fill="none" stroke="#281616" stroke-width="0.57"/>
  </g>
</svg>
