<svg id="Componente_136_1" data-name="Componente 136 – 1" xmlns="http://www.w3.org/2000/svg" width="380.827" height="269.091" viewBox="0 0 380.827 269.091">
  <g id="Grupo_16120" data-name="Grupo 16120" transform="translate(133.075)">
    <path id="Caminho_9455" data-name="Caminho 9455" d="M2251.739,794.249l116.239,49.178V997.659l-116.239-49.178Z" transform="translate(-2200.011 -760.89)" fill="#bcbec0"/>
    <path id="Caminho_9456" data-name="Caminho 9456" d="M2447.763,562.469l-79.785,31.983-116.239-49.178,80.817-33.358Z" transform="translate(-2200.011 -511.916)" fill="#959597"/>
    <path id="Caminho_9457" data-name="Caminho 9457" d="M3315.324,939.781v154.232L3235.539,1126V971.764Z" transform="translate(-3067.573 -889.228)" fill="#afb1b5"/>
    <path id="Caminho_9458" data-name="Caminho 9458" d="M2315.773,928.139l96.98,43.242v60.272l-96.98-41.612Z" transform="translate(-2256.48 -878.961)" fill="#afb1b5"/>
    <path id="Caminho_9459" data-name="Caminho 9459" d="M2315.773,1531.142l96.98,43.242v60.273l-96.98-41.612Z" transform="translate(-2256.48 -1410.718)" fill="#959597"/>
    <path id="Caminho_9460" data-name="Caminho 9460" d="M2633.005,1266.744l22.017,9.817v8.869l-22.017-9.447Z" transform="translate(-2536.23 -1177.559)" fill="#959597"/>
    <path id="Caminho_9461" data-name="Caminho 9461" d="M1817.962,1977.428l-4.027,1.891,88.109,94.045,4.027-1.892v-54.759Z" transform="translate(-1813.934 -1804.274)" fill="#954512"/>
    <path id="Caminho_9462" data-name="Caminho 9462" d="M1813.934,1993.437l88.109,39.286v54.759l-88.109-37.805Z" transform="translate(-1813.934 -1818.391)" fill="#f7841c"/>
    <path id="Caminho_9463" data-name="Caminho 9463" d="M2089.354,2310.7l23.026,10.267v8.808l-23.026-9.88Z" transform="translate(-2056.812 -2098.167)" fill="#954512"/>
    <path id="Caminho_9464" data-name="Caminho 9464" d="M2657.878,2029.471v28.643l-64.138,47.686v-31.694Z" transform="translate(-2501.604 -1850.168)" fill="#f7841c"/>
    <path id="Caminho_9465" data-name="Caminho 9465" d="M2039.938,1630.164l-69.461,46.451-28.984-12.924,69.729-46.327-2.892-1.293Z" transform="translate(-1926.422 -1485.612)" fill="#f7841c"/>
    <path id="Caminho_9466" data-name="Caminho 9466" d="M2256.255,1735.359l42.758,19.113v11.38l-64.137,45.131v-7.736l-48.082-21.439Z" transform="translate(-2142.74 -1590.806)" fill="#5e290b"/>
    <path id="Caminho_9467" data-name="Caminho 9467" d="M2657.878,1993.437v4.257l-64.138,44.635v-3.762Z" transform="translate(-2501.604 -1818.391)" fill="#954512"/>
    <path id="Caminho_9468" data-name="Caminho 9468" d="M1990.124,1617.364l-69.729,46.327-2.827-1.262,69.664-46.358Z" transform="translate(-1905.323 -1485.612)" fill="#954512"/>
  </g>
  <g id="Grupo_16122" data-name="Grupo 16122" transform="translate(224.607 121.605)">
    <g id="Grupo_16121" data-name="Grupo 16121" transform="translate(0 0)">
      <path id="Caminho_9469" data-name="Caminho 9469" d="M2589.231,1609.363a.345.345,0,0,1-.321-.222,3.978,3.978,0,0,1-.283-1.411,2.926,2.926,0,0,1,.227-1.141.344.344,0,1,1,.634.266,2.247,2.247,0,0,0-.173.875,3.3,3.3,0,0,0,.238,1.166.344.344,0,0,1-.322.466Zm1.524-3.977a.344.344,0,0,1-.182-.636,10.936,10.936,0,0,1,2.257-1.019.344.344,0,1,1,.219.652,10.275,10.275,0,0,0-2.113.951A.343.343,0,0,1,2590.755,1605.386Zm4.51-1.621a.344.344,0,0,1-.074-.68c.723-.161,1.528-.314,2.392-.453a.344.344,0,1,1,.11.679c-.85.137-1.642.287-2.352.446A.352.352,0,0,1,2595.266,1603.765Zm4.763-.786a.344.344,0,0,1-.042-.685c.748-.092,1.559-.181,2.408-.264a.341.341,0,0,1,.376.309.344.344,0,0,1-.309.376c-.844.083-1.649.171-2.391.262Zm4.8-.476a.344.344,0,0,1-.027-.687q1.18-.1,2.411-.179a.348.348,0,0,1,.367.319.344.344,0,0,1-.32.367q-1.225.085-2.4.179Zm4.815-.335a.344.344,0,0,1-.021-.687q1.19-.073,2.411-.142a.35.35,0,0,1,.363.324.344.344,0,0,1-.324.363q-1.218.069-2.407.142Zm4.818-.277a.344.344,0,0,1-.019-.687l2.409-.134a.349.349,0,0,1,.362.324.344.344,0,0,1-.324.362l-2.409.134Zm4.818-.272a.344.344,0,0,1-.02-.687q1.2-.071,2.406-.147a.344.344,0,0,1,.043.687q-1.206.077-2.409.147Zm4.814-.309a.344.344,0,0,1-.024-.687q1.2-.085,2.4-.181a.34.34,0,0,1,.37.315.344.344,0,0,1-.315.37q-1.2.1-2.408.182Zm4.809-.389a.344.344,0,0,1-.031-.686q1.207-.112,2.4-.239a.34.34,0,0,1,.378.305.344.344,0,0,1-.305.379q-1.193.128-2.405.24Zm4.8-.518a.344.344,0,0,1-.043-.685c.821-.1,1.622-.213,2.382-.326a.344.344,0,0,1,.1.68c-.765.114-1.572.224-2.4.328Zm4.771-.713a.344.344,0,0,1-.06-.683c.815-.144,1.608-.3,2.356-.457a.344.344,0,1,1,.143.673c-.755.161-1.556.316-2.379.462A.348.348,0,0,1,2638.474,1599.69Zm4.714-1.011a.344.344,0,0,1-.086-.677c.8-.208,1.577-.431,2.3-.662a.344.344,0,0,1,.21.655c-.732.235-1.518.461-2.334.673A.349.349,0,0,1,2643.188,1598.679Zm4.581-1.484a.344.344,0,0,1-.129-.663,22.985,22.985,0,0,0,2.147-1,.344.344,0,0,1,.324.607,23.706,23.706,0,0,1-2.213,1.028A.345.345,0,0,1,2647.77,1597.2Zm4.213-2.283a.344.344,0,0,1-.205-.62,11.1,11.1,0,0,0,1.713-1.55.344.344,0,0,1,.515.456,11.821,11.821,0,0,1-1.819,1.647A.344.344,0,0,1,2651.982,1594.913Zm-28.431-.547c-.437,0-.879-.012-1.312-.035a.344.344,0,1,1,.037-.687c.781.042,1.583.045,2.371.009a.353.353,0,0,1,.359.328.344.344,0,0,1-.328.359C2624.3,1594.358,2623.926,1594.366,2623.551,1594.366Zm3.5-.246a.344.344,0,0,1-.047-.685c.77-.106,1.555-.25,2.335-.427a.344.344,0,1,1,.153.671c-.8.181-1.6.328-2.393.438A.327.327,0,0,1,2627.054,1594.121Zm-7.189-.041a.337.337,0,0,1-.054,0,23.664,23.664,0,0,1-2.388-.5.344.344,0,1,1,.177-.665,22.977,22.977,0,0,0,2.319.49.344.344,0,0,1-.053.684Zm11.875-1.015a.344.344,0,0,1-.1-.672c.742-.23,1.5-.495,2.248-.785a.344.344,0,1,1,.249.641c-.765.3-1.537.566-2.294.8A.336.336,0,0,1,2631.741,1593.065Zm-16.519-.22a.343.343,0,0,1-.122-.023c-.751-.284-1.5-.612-2.236-.974a.344.344,0,0,1,.305-.617c.712.352,1.444.671,2.175.948a.344.344,0,0,1-.122.666Zm39.843-1.493a.344.344,0,0,1-.309-.493,7.607,7.607,0,0,0,.664-2.151.344.344,0,0,1,.68.1,8.284,8.284,0,0,1-.724,2.346A.343.343,0,0,1,2655.065,1591.353Zm-18.838-.024a.344.344,0,0,1-.145-.656c.708-.327,1.427-.685,2.137-1.064a.344.344,0,1,1,.324.607c-.722.385-1.453.749-2.172,1.081A.342.342,0,0,1,2636.227,1591.33Zm-25.317-.609a.344.344,0,0,1-.179-.05c-.678-.415-1.358-.872-2.021-1.357a.344.344,0,0,1,.406-.555c.647.474,1.312.92,1.974,1.325a.344.344,0,0,1-.18.637Zm29.567-1.651a.344.344,0,0,1-.177-.639c.67-.4,1.35-.832,2.022-1.278a.344.344,0,0,1,.38.573c-.681.452-1.37.888-2.049,1.3A.343.343,0,0,1,2640.477,1589.07Zm-33.45-1.184a.344.344,0,0,1-.224-.082c-.6-.512-1.2-1.064-1.793-1.639a.344.344,0,0,1,.48-.492c.578.564,1.17,1.105,1.76,1.608a.344.344,0,0,1-.223.605Zm48.775-1.179a.344.344,0,0,1-.342-.308,12.674,12.674,0,0,0-.473-2.291.344.344,0,1,1,.659-.2,13.356,13.356,0,0,1,.5,2.416.344.344,0,0,1-.306.378Zm-11.31-.3a.344.344,0,0,1-.2-.622c.632-.458,1.275-.944,1.912-1.444a.344.344,0,0,1,.425.541c-.643.5-1.294,1-1.933,1.46A.343.343,0,0,1,2644.491,1586.409Zm-40.921-1.87a.343.343,0,0,1-.252-.109c-.567-.607-1.109-1.217-1.611-1.811a.344.344,0,1,1,.525-.444c.495.586,1.029,1.186,1.588,1.786a.344.344,0,0,1-.251.578Zm44.712-1.1a.344.344,0,0,1-.222-.607c.6-.507,1.21-1.037,1.808-1.575a.344.344,0,0,1,.46.511c-.6.543-1.218,1.078-1.825,1.59A.342.342,0,0,1,2648.282,1583.436Zm6.186-1.334a.344.344,0,0,1-.314-.2c-.307-.683-.669-1.394-1.078-2.115a.344.344,0,1,1,.6-.339c.419.74.792,1.471,1.107,2.173a.344.344,0,0,1-.173.454A.337.337,0,0,1,2654.468,1582.1Zm-54-1.244a.343.343,0,0,1-.276-.138c-.5-.674-.968-1.347-1.383-2a.344.344,0,1,1,.581-.369c.406.639.862,1.3,1.354,1.958a.344.344,0,0,1-.275.549Zm51.389-.638a.344.344,0,0,1-.237-.593c.572-.546,1.147-1.111,1.711-1.68a.344.344,0,1,1,.489.484c-.568.574-1.149,1.144-1.725,1.694A.342.342,0,0,1,2651.861,1580.22Zm.26-2.314a.343.343,0,0,1-.287-.155c-.435-.661-.9-1.316-1.375-1.947a.344.344,0,1,1,.548-.416c.487.643.958,1.31,1.4,1.984a.344.344,0,0,1-.287.533Zm3.133-1.109a.344.344,0,0,1-.251-.579c.545-.58,1.092-1.177,1.626-1.775a.344.344,0,0,1,.513.458c-.538.6-1.089,1.2-1.638,1.788A.343.343,0,0,1,2655.254,1576.8Zm-57.346-.006a.344.344,0,0,1-.307-.188,19.423,19.423,0,0,1-.974-2.246.344.344,0,1,1,.647-.231,18.82,18.82,0,0,0,.939,2.167.344.344,0,0,1-.306.5Zm51.311-2.721a.342.342,0,0,1-.26-.119c-.516-.6-1.06-1.189-1.616-1.756a.344.344,0,1,1,.491-.481c.567.578,1.12,1.18,1.646,1.788a.344.344,0,0,1-.26.569Zm9.251-.871a.344.344,0,0,1-.262-.567c.513-.6,1.03-1.224,1.536-1.847a.344.344,0,0,1,.534.434c-.51.627-1.03,1.253-1.546,1.859A.344.344,0,0,1,2658.47,1573.2Zm-62.143-.936a.344.344,0,0,1-.338-.284,11.567,11.567,0,0,1-.179-1.99q0-.243.011-.481a.348.348,0,0,1,.359-.328.344.344,0,0,1,.328.359q-.01.222-.01.449a10.826,10.826,0,0,0,.169,1.871.345.345,0,0,1-.339.4Zm49.524-1.633a.344.344,0,0,1-.231-.089c-.584-.528-1.2-1.048-1.818-1.547a.344.344,0,1,1,.43-.537c.633.508,1.256,1.037,1.85,1.574a.344.344,0,0,1-.231.6Zm15.659-1.172a.344.344,0,0,1-.271-.555c.49-.632.979-1.276,1.451-1.915a.344.344,0,0,1,.553.409c-.476.643-.967,1.291-1.461,1.927A.343.343,0,0,1,2661.51,1569.458Zm-19.414-1.841a.342.342,0,0,1-.2-.064c-.643-.458-1.311-.906-1.984-1.332a.344.344,0,0,1,.367-.581c.684.432,1.362.887,2.015,1.353a.344.344,0,0,1-.2.624Zm-45.509-.109a.34.34,0,0,1-.106-.017.344.344,0,0,1-.221-.433,9.145,9.145,0,0,1,1.085-2.241.344.344,0,1,1,.573.38,8.476,8.476,0,0,0-1,2.073A.344.344,0,0,1,2596.586,1567.509Zm67.793-1.924a.344.344,0,0,1-.281-.542c.462-.653.921-1.319,1.365-1.978a.344.344,0,0,1,.57.385c-.447.663-.909,1.333-1.374,1.99A.343.343,0,0,1,2664.379,1565.585Zm-26.353-.542a.345.345,0,0,1-.168-.044c-.69-.386-1.4-.762-2.115-1.115a.344.344,0,1,1,.3-.616c.725.358,1.447.739,2.147,1.131a.344.344,0,0,1-.168.644Zm-38.833-1.512a.344.344,0,0,1-.234-.6,13.181,13.181,0,0,1,1.966-1.491.344.344,0,0,1,.365.583,12.462,12.462,0,0,0-1.863,1.412A.342.342,0,0,1,2599.193,1563.531Zm34.517-.624a.34.34,0,0,1-.136-.029c-.727-.315-1.472-.617-2.216-.9a.344.344,0,1,1,.242-.644c.755.284,1.511.59,2.247.91a.344.344,0,0,1-.137.66Zm33.365-1.32a.344.344,0,0,1-.289-.53c.435-.677.863-1.363,1.273-2.037a.344.344,0,1,1,.588.357c-.414.68-.844,1.37-1.282,2.051A.343.343,0,0,1,2667.074,1561.587Zm-37.869-.376a.339.339,0,0,1-.105-.017c-.755-.243-1.527-.471-2.293-.678a.344.344,0,1,1,.179-.664c.777.209,1.559.441,2.325.688a.344.344,0,0,1-.105.671Zm-25.968-.247a.344.344,0,0,1-.138-.659,21.453,21.453,0,0,1,2.294-.847.344.344,0,1,1,.2.658,20.637,20.637,0,0,0-2.22.819A.344.344,0,0,1,2603.237,1560.963Zm21.32-1.007a.355.355,0,0,1-.074-.008c-.777-.17-1.566-.322-2.347-.453a.344.344,0,1,1,.114-.678c.792.133,1.593.287,2.381.459a.344.344,0,0,1-.073.68Zm-16.732-.421a.344.344,0,0,1-.07-.681c.772-.16,1.58-.293,2.4-.4a.34.34,0,0,1,.384.3.344.344,0,0,1-.3.384c-.8.1-1.594.232-2.348.388A.356.356,0,0,1,2607.825,1559.535Zm11.984-.373-.04,0c-.8-.092-1.6-.163-2.38-.212a.344.344,0,0,1,.042-.686c.795.049,1.608.122,2.417.215a.344.344,0,0,1-.039.686Zm-7.211-.236a.344.344,0,0,1-.019-.687c.72-.041,1.463-.061,2.207-.061h.221a.344.344,0,0,1,0,.688h-.219c-.731,0-1.46.02-2.168.06Zm56.981-1.46a.344.344,0,0,1-.3-.515c.405-.706.8-1.412,1.167-2.1a.344.344,0,1,1,.606.325c-.372.693-.768,1.4-1.177,2.116A.344.344,0,0,1,2669.579,1557.467Zm2.281-4.249a.344.344,0,0,1-.307-.5c.366-.735.712-1.464,1.029-2.167a.344.344,0,0,1,.627.283c-.321.711-.67,1.448-1.04,2.191A.345.345,0,0,1,2671.86,1553.218Zm1.977-4.4a.344.344,0,0,1-.32-.47c.311-.788.582-1.545.805-2.249a.344.344,0,1,1,.656.208c-.228.719-.5,1.49-.821,2.293A.344.344,0,0,1,2673.837,1548.818Zm1.421-4.6a.348.348,0,0,1-.065-.006.344.344,0,0,1-.273-.4,9.433,9.433,0,0,0,.189-1.731,4.687,4.687,0,0,0-.031-.555.344.344,0,0,1,.3-.382.339.339,0,0,1,.383.3,5.448,5.448,0,0,1,.036.637,10.115,10.115,0,0,1-.2,1.861A.344.344,0,0,1,2675.258,1544.215Z" transform="translate(-2588.627 -1541.135)" fill="#636363"/>
    </g>
  </g>
  <path id="Caminho_9470" data-name="Caminho 9470" d="M3263.913,1458.6a4.075,4.075,0,0,0-.152-.474c-.334-.834-.686-.411-.792.71-1.854-1.524-4.344-2.872-4.623-.73-.264,2.032,3.3,2.551,4.63,2.366q.029.349.081.727c-1.552-.252-7.867,1.466-6.869,4.737,1.031,3.378,4.853.12,7.271-2.83a14.52,14.52,0,0,0,.59,1.691c.159.377.26-.2.287-1.166,1.721,1.7,5.283,3.907,6.949,1.744,2.251-2.922-3.16-4.13-7.019-4.314-.019-.244-.04-.487-.065-.725,2.446-.556,5.64-1.9,3.909-3.5C3266.841,1455.652,3264.869,1457.327,3263.913,1458.6Z" transform="translate(-2952.614 -1344.832)" fill="#636363"/>
  <g id="Grupo_16149" data-name="Grupo 16149" transform="translate(0 92.24)">
    <g id="Grupo_16124" data-name="Grupo 16124" transform="translate(11.855 119.839)">
      <path id="Caminho_9471" data-name="Caminho 9471" d="M888.4,2361.486l-13.26-1.758-1.744-.232-2.2-.014s.04.178-3.065-1.323-.19-6.633-.19-6.633l6.574.258,5.949-.288,7.774-.376A47.336,47.336,0,0,0,888.4,2361.486Z" transform="translate(-857.4 -2345.891)" fill="#f9ae93"/>
      <path id="Caminho_9472" data-name="Caminho 9472" d="M868.131,2361.189c3.106,1.5,3.066,1.324,3.066,1.324l2.2.013c-.359-1.577-.976-5.524,1.12-7.713l-2.9-.114-3.674-.144S865.024,2359.689,868.131,2361.189Z" transform="translate(-857.397 -2348.922)" fill="#fff"/>
      <path id="Caminho_9473" data-name="Caminho 9473" d="M868.131,2361.189c3.106,1.5,3.066,1.324,3.066,1.324l2.2.013a6,6,0,0,1-3.157-1.936c-1.533-1.671-.422-5.054,1.376-5.892l-3.674-.144S865.024,2359.689,868.131,2361.189Z" transform="translate(-857.397 -2348.922)" fill="#dbeafc"/>
      <path id="Caminho_9474" data-name="Caminho 9474" d="M834.448,2343.311c.814.681.8,2.606.379,5.022a6.479,6.479,0,0,0-.022,1.813,13.948,13.948,0,0,0,.632,2.758c3.248-.758,4.807-8.614,5.168-9.6.409-1.1,3.232-1.565,3-2.329s-4.17-2.5-4.116-5.555a5.018,5.018,0,0,1,.306-1.8,2.087,2.087,0,0,1,1.139-1.189l0,0a7.416,7.416,0,0,1,1.544-.387c1.374-.278,2.365-1.507-.082-1.714,0,0-6.082-.614-6.858-1.4-.052-.053-.114-.113-.19-.182-1.142,1.383-.12,3.808-.129,4.914-.009,1.269-1.4.626-.978,2.193s.923,2,.585,4.427S833.635,2342.628,834.448,2343.311Z" transform="translate(-828.657 -2326.162)" fill="#f27d00"/>
      <path id="Caminho_9475" data-name="Caminho 9475" d="M807.314,2318.115c.754,2.646,1.707,5.4,1.5,8.268-.181,2.526-.166,8.487.523,10.9a2.776,2.776,0,0,0,.321.773,9.51,9.51,0,0,0,.732.962,2.311,2.311,0,0,0,1.2.045,13.948,13.948,0,0,1-.632-2.758,6.479,6.479,0,0,1,.022-1.813c.419-2.416.434-4.34-.379-5.022s.044-.61.382-3.031-.164-2.859-.585-4.427.969-.924.978-2.193c.009-1.106-1.013-3.531.129-4.914a15.546,15.546,0,0,0-2.563-1.855C807.34,2313.765,806.664,2315.835,807.314,2318.115Z" transform="translate(-804.813 -2312.318)" fill="#fff"/>
      <path id="Caminho_9476" data-name="Caminho 9476" d="M789.014,2317.712a9.077,9.077,0,0,1,1.746,6.975c-.188,1.625-.916,5.205.633,7.378a3.973,3.973,0,0,0,2.087,1.486c.022.007.047.015.07.02a9.455,9.455,0,0,1-.732-.962,2.776,2.776,0,0,1-.321-.773c-.689-2.41-.7-8.371-.523-10.9.207-2.871-.746-5.622-1.5-8.268-.65-2.28.026-4.35,1.631-5.068-1.152-.651-2.33-1.041-2.859-.409C788.168,2308.482,787.131,2315.189,789.014,2317.712Z" transform="translate(-787.972 -2306.874)" fill="#a54e00"/>
      <path id="Caminho_9477" data-name="Caminho 9477" d="M840,2386.533a13.944,13.944,0,0,0,.632,2.758c3.248-.758,4.807-8.614,5.168-9.6.409-1.1,3.232-1.565,3-2.329s-4.17-2.5-4.116-5.555a5.018,5.018,0,0,1,.306-1.8,5.723,5.723,0,0,0-.4,5.331C845.273,2376.585,843.374,2383.659,840,2386.533Z" transform="translate(-833.854 -2362.549)" fill="#a54e00"/>
      <g id="Grupo_16123" data-name="Grupo 16123" transform="translate(9.669 16.182)">
        <path id="Caminho_9478" data-name="Caminho 9478" d="M870.578,2450.484a1.4,1.4,0,0,0,.356-.049.863.863,0,0,0,.656-.5c.116-.375-.149-.714-.4-1.043a3.023,3.023,0,0,1-.283-.4,1.19,1.19,0,0,1-.049-1.014c.1-.167.311-.234.617-.2a.7.7,0,0,0,.733-.229c.169-.285,0-.592-.189-.917-.146-.258-.346-.61-.25-.77a2.925,2.925,0,0,1,.892-.708c.283-.171.507-.306.4-.595-.108-.305-.351-.251-1-.108a.326.326,0,0,0-.238.386.35.35,0,0,0,.023.074,2.162,2.162,0,0,0-.6.6c-.3.5.013,1.056.242,1.461.027.048.06.107.09.162l-.047,0a1.132,1.132,0,0,0-1.192.489,1.843,1.843,0,0,0,.025,1.692,3.444,3.444,0,0,0,.348.505,2.371,2.371,0,0,1,.281.414.728.728,0,0,1-.207.079c-.195.05-.3.03-.328,0a.614.614,0,0,1-.018-.416.332.332,0,0,0-.216-.4.3.3,0,0,0-.376.227,1.239,1.239,0,0,0,.169,1.045A.726.726,0,0,0,870.578,2450.484Z" transform="translate(-869.803 -2443.83)" fill="#fff"/>
      </g>
    </g>
    <path id="Caminho_9479" data-name="Caminho 9479" d="M951.394,2361.486l-13.26-1.758c1.128-1.71,2.26-5.676,5.325-8.233l7.774-.376A47.336,47.336,0,0,0,951.394,2361.486Z" transform="translate(-908.537 -2226.053)" fill="#f6816b"/>
    <path id="Caminho_9480" data-name="Caminho 9480" d="M1007,2322.267c1.337,6.9,1.108,11.024,1.509,11.368s28.916,1.821,29.26-1.554-1.547-14.036-12.81-14.036S1007,2322.267,1007,2322.267Z" transform="translate(-969.263 -2196.885)" fill="#111"/>
    <g id="Grupo_16126" data-name="Grupo 16126" transform="translate(0 130.342)">
      <path id="Caminho_9481" data-name="Caminho 9481" d="M789.307,2450.293l-12.867-1.706-3.38-.448-2.2-.013s.04.178-3.066-1.323-.19-6.634-.19-6.634l6.574.258,12.805-.62,1.46-.07.137-.007c0,.022-.006.044-.008.066A29.608,29.608,0,0,0,789.307,2450.293Z" transform="translate(-757.061 -2434.535)" fill="#f9ae93"/>
      <path id="Caminho_9482" data-name="Caminho 9482" d="M767.8,2450.085c3.106,1.5,3.066,1.324,3.066,1.324l2.2.013c-.359-1.577-.976-5.524,1.12-7.713l-2.9-.115-3.674-.143S764.689,2448.585,767.8,2450.085Z" transform="translate(-757.062 -2437.818)" fill="#fff"/>
      <path id="Caminho_9483" data-name="Caminho 9483" d="M767.8,2450.085c3.106,1.5,3.066,1.324,3.066,1.324l2.2.013a6,6,0,0,1-3.157-1.936c-1.533-1.671-.422-5.054,1.376-5.892l-3.674-.143S764.689,2448.585,767.8,2450.085Z" transform="translate(-757.062 -2437.818)" fill="#dbeafc"/>
      <path id="Caminho_9484" data-name="Caminho 9484" d="M734.113,2432.207c.814.681.8,2.606.379,5.021a6.479,6.479,0,0,0-.022,1.813,13.944,13.944,0,0,0,.632,2.758c3.248-.758,4.807-8.614,5.168-9.6.409-1.1,3.232-1.565,3-2.329s-4.17-2.5-4.116-5.555a5.018,5.018,0,0,1,.306-1.8,2.087,2.087,0,0,1,1.139-1.189l0,0a7.416,7.416,0,0,1,1.544-.387c1.374-.278,2.365-1.507-.082-1.714,0,0-6.082-.614-6.857-1.4-.052-.053-.114-.113-.19-.182-1.142,1.383-.12,3.808-.129,4.914-.009,1.269-1.4.626-.978,2.193s.924,2,.585,4.427S733.3,2431.524,734.113,2432.207Z" transform="translate(-728.322 -2415.058)" fill="#f27d00"/>
      <path id="Caminho_9485" data-name="Caminho 9485" d="M706.98,2407.01c.754,2.646,1.706,5.4,1.5,8.268-.181,2.526-.166,8.487.523,10.9a2.778,2.778,0,0,0,.321.773,9.455,9.455,0,0,0,.732.962,2.313,2.313,0,0,0,1.2.045,13.944,13.944,0,0,1-.632-2.758,6.479,6.479,0,0,1,.022-1.813c.419-2.416.434-4.34-.379-5.021s.044-.61.382-3.031-.164-2.859-.585-4.427.969-.924.978-2.193c.009-1.106-1.013-3.531.129-4.914a15.56,15.56,0,0,0-2.563-1.855C707.005,2402.66,706.329,2404.729,706.98,2407.01Z" transform="translate(-704.478 -2401.213)" fill="#fff"/>
      <path id="Caminho_9486" data-name="Caminho 9486" d="M688.679,2406.608a9.076,9.076,0,0,1,1.746,6.975c-.188,1.625-.916,5.206.633,7.378a3.973,3.973,0,0,0,2.087,1.486c.022.007.047.015.07.02a9.517,9.517,0,0,1-.732-.963,2.778,2.778,0,0,1-.321-.773c-.689-2.41-.7-8.371-.523-10.9.207-2.871-.746-5.622-1.5-8.268-.65-2.281.026-4.35,1.63-5.068-1.152-.65-2.33-1.041-2.859-.409C687.833,2397.378,686.8,2404.085,688.679,2406.608Z" transform="translate(-687.637 -2395.77)" fill="#a54e00"/>
      <path id="Caminho_9487" data-name="Caminho 9487" d="M739.666,2475.428a13.944,13.944,0,0,0,.632,2.758c3.248-.758,4.807-8.614,5.168-9.6.409-1.1,3.232-1.565,3-2.329s-4.17-2.5-4.116-5.555a5.018,5.018,0,0,1,.306-1.8,5.723,5.723,0,0,0-.4,5.331C744.938,2465.48,743.04,2472.554,739.666,2475.428Z" transform="translate(-733.519 -2451.445)" fill="#a54e00"/>
      <g id="Grupo_16125" data-name="Grupo 16125" transform="translate(9.669 16.182)">
        <path id="Caminho_9488" data-name="Caminho 9488" d="M770.242,2539.379a1.39,1.39,0,0,0,.356-.049.862.862,0,0,0,.656-.5c.116-.375-.149-.714-.4-1.043a3.009,3.009,0,0,1-.283-.4,1.19,1.19,0,0,1-.049-1.014c.1-.167.311-.234.617-.2a.7.7,0,0,0,.733-.229c.169-.285,0-.592-.189-.917-.146-.257-.346-.61-.25-.769a2.921,2.921,0,0,1,.892-.707c.283-.171.507-.306.4-.595-.108-.3-.351-.252-1-.108a.327.327,0,0,0-.238.387.348.348,0,0,0,.024.074,2.165,2.165,0,0,0-.6.6c-.3.5.013,1.056.242,1.461.027.048.061.107.09.162l-.047,0a1.132,1.132,0,0,0-1.192.489,1.843,1.843,0,0,0,.025,1.692,3.442,3.442,0,0,0,.348.5,2.372,2.372,0,0,1,.281.414.74.74,0,0,1-.207.079c-.195.05-.3.03-.328,0a.615.615,0,0,1-.018-.416.332.332,0,0,0-.216-.4.3.3,0,0,0-.376.227,1.238,1.238,0,0,0,.169,1.044A.725.725,0,0,0,770.242,2539.379Z" transform="translate(-769.468 -2532.726)" fill="#fff"/>
      </g>
    </g>
    <path id="Caminho_9489" data-name="Caminho 9489" d="M984.179,2113.006c-15.283,3.787-41.524,2.15-62.993-.261a82.771,82.771,0,0,0-1.014-13.924c13.03-.245,24.918-.457,24.918-.457-14.156-.89-24.01-5.971-29.667-13.034-6.025-7.522-7.289-17.289-3.918-26.632l.076-.017c15.7-3.369,33.67,6.476,33.91,6.608h0c.087-1.744,2.432-4.464,4.721-6.718,2.221-2.191,4.392-3.943,4.392-3.943.6,6.706-2.149,14.53-2.149,14.53,3.752.084,10.638,5.052,10.746,5.129h0s13.494,8.395,22.467,17.511C981.858,2096.338,979.88,2108.563,984.179,2113.006Z" transform="translate(-883.439 -1964.594)" fill="#272626"/>
    <g id="Grupo_16127" data-name="Grupo 16127" transform="translate(36.262 94.678)">
      <path id="Caminho_9490" data-name="Caminho 9490" d="M994.885,2141.381a.344.344,0,0,1-.008-.687l.128,0a.344.344,0,1,1,.015.688l-.127,0Zm2.557-.065a.344.344,0,0,1-.009-.687c.688-.019,1.5-.042,2.418-.07a.353.353,0,0,1,.354.333.344.344,0,0,1-.334.354c-.919.028-1.732.051-2.42.07Zm4.836-.147a.344.344,0,0,1-.011-.688c.761-.025,1.568-.053,2.414-.084a.344.344,0,0,1,.025.688c-.847.031-1.654.058-2.416.084Zm4.829-.174a.344.344,0,0,1-.013-.687c.781-.03,1.586-.062,2.412-.1a.344.344,0,0,1,.029.687c-.826.034-1.633.067-2.414.1Zm4.825-.2a.344.344,0,0,1-.015-.687q1.186-.053,2.41-.111a.344.344,0,1,1,.033.687q-1.224.059-2.412.111Zm4.822-.23a.344.344,0,0,1-.017-.687q1.195-.061,2.409-.127a.344.344,0,0,1,.038.687q-1.213.067-2.411.128Zm4.82-.264a.344.344,0,0,1-.02-.687q1.2-.071,2.407-.147a.344.344,0,0,1,.044.687q-1.205.076-2.41.147Zm4.815-.3a.344.344,0,0,1-.023-.687q1.209-.082,2.406-.171a.344.344,0,0,1,.05.686q-1.2.089-2.409.171Zm4.814-.356a.344.344,0,0,1-.027-.687q1.216-.1,2.4-.2a.344.344,0,1,1,.061.685q-1.187.1-2.408.2Zm4.809-.426a.344.344,0,0,1-.033-.686q1.228-.12,2.4-.248a.344.344,0,0,1,.075.684q-1.172.129-2.406.249Zm4.8-.529a.344.344,0,0,1-.042-.685c.843-.105,1.646-.214,2.387-.322a.344.344,0,1,1,.1.68c-.745.109-1.553.219-2.4.324Zm4.78-.708a.344.344,0,0,1-.06-.682c.876-.157,1.667-.319,2.349-.482a.344.344,0,0,1,.159.669c-.7.166-1.5.33-2.387.49A.348.348,0,0,1,1045.59,2137.974Zm4.679-1.184a.344.344,0,0,1-.129-.663c1.139-.462,1.227-.8,1.227-.9a.314.314,0,0,0-.049-.156.344.344,0,0,1,.6-.343.993.993,0,0,1,.141.5c0,.581-.542,1.083-1.656,1.535A.342.342,0,0,1,1050.269,2136.791Zm-.561-2.994a.342.342,0,0,1-.187-.055c-.6-.388-1.282-.817-2.035-1.286a.344.344,0,0,1,.363-.584c.756.471,1.443.9,2.045,1.292a.344.344,0,0,1-.187.633Zm-4.091-2.561a.34.34,0,0,1-.181-.052c-.653-.4-1.338-.829-2.05-1.274a.344.344,0,0,1,.365-.583c.711.445,1.4.869,2.048,1.273a.344.344,0,0,1-.181.636Zm-4.09-2.559a.343.343,0,0,1-.184-.054q-.994-.632-2.031-1.307a.344.344,0,0,1,.375-.576q1.032.672,2.025,1.3a.344.344,0,0,1-.185.634Zm-4.041-2.634a.341.341,0,0,1-.191-.058q-.991-.664-2-1.361a.344.344,0,1,1,.392-.565q1,.693,1.989,1.354a.344.344,0,0,1-.192.63Zm-3.963-2.748a.343.343,0,0,1-.2-.065c-.666-.479-1.322-.961-1.948-1.432a.344.344,0,1,1,.413-.55c.623.468,1.274.947,1.937,1.424a.344.344,0,0,1-.2.623Zm-3.855-2.9a.341.341,0,0,1-.213-.074c-.646-.51-1.278-1.023-1.878-1.524a.344.344,0,1,1,.441-.528c.6.5,1.222,1.006,1.864,1.512a.344.344,0,0,1-.214.614Zm-3.7-3.092a.341.341,0,0,1-.229-.087c-.616-.549-1.215-1.1-1.779-1.645a.344.344,0,0,1,.476-.5c.559.537,1.151,1.084,1.76,1.627a.344.344,0,0,1-.229.6Zm-3.471-3.343a.341.341,0,0,1-.249-.107c-.573-.6-1.12-1.207-1.628-1.8a.344.344,0,1,1,.522-.447c.5.585,1.039,1.182,1.6,1.774a.344.344,0,0,1-.249.581Zm-3.121-3.668a.344.344,0,0,1-.276-.138c-.5-.674-.967-1.35-1.379-2.008a.344.344,0,1,1,.583-.365c.4.642.855,1.3,1.347,1.961a.344.344,0,0,1-.275.55Zm-2.538-4.084a.344.344,0,0,1-.309-.192,18.912,18.912,0,0,1-.94-2.26.344.344,0,1,1,.651-.221,18.3,18.3,0,0,0,.906,2.177.344.344,0,0,1-.308.5Zm-1.516-4.543a.344.344,0,0,1-.339-.287,13.172,13.172,0,0,1-.185-2.177c0-.091,0-.184,0-.276a.344.344,0,0,1,.344-.336h.008a.344.344,0,0,1,.336.352q0,.13,0,.26a12.489,12.489,0,0,0,.176,2.065.344.344,0,0,1-.282.4A.356.356,0,0,1,1015.325,2101.664Zm.119-4.774a.343.343,0,0,1-.335-.42,12.79,12.79,0,0,1,.784-2.342.344.344,0,0,1,.629.279,12.1,12.1,0,0,0-.743,2.216A.344.344,0,0,1,1015.444,2096.89Z" transform="translate(-994.541 -2093.923)" fill="#b7b7b7"/>
    </g>
    <path id="Caminho_9491" data-name="Caminho 9491" d="M1265.792,2074.288c-.116-.06-8.239-4.3-11.729-3.443,0,0,.9-8.062-1.26-12.273,2.221-2.191,4.392-3.943,4.392-3.943.6,6.706-2.149,14.53-2.149,14.53C1258.8,2069.243,1265.685,2074.211,1265.792,2074.288Z" transform="translate(-1186.028 -1964.594)" fill="#111"/>
    <path id="Caminho_9492" data-name="Caminho 9492" d="M1522.471,2390.361c-.114.031-.23.058-.347.086-4.3-4.443-2.321-16.669,1.492-21.2C1531.952,2377.712,1536.382,2386.8,1522.471,2390.361Z" transform="translate(-1421.384 -2242.035)" fill="#5e5e5e"/>
    <path id="Caminho_9493" data-name="Caminho 9493" d="M864.521,2450.346l-12.867-1.706c2.481-.447,5.625-1.015,6.855-1.24,2.078-.378.93-3.231,3.689-7.542l1.46-.07.129.059A29.608,29.608,0,0,0,864.521,2450.346Z" transform="translate(-832.275 -2304.246)" fill="#f6816b"/>
    <path id="Caminho_9494" data-name="Caminho 9494" d="M949.248,2434.9c-.035.567-.1.918-.2.97-.688.368-6.1.151-7.05-.708a2.362,2.362,0,0,1-.327-1.162,86.252,86.252,0,0,1,.169-12.9,2.688,2.688,0,0,1,.158-.894c.344-.258,3.611-.333,5.846-.162.127.01.258.354.385.936A82.83,82.83,0,0,1,949.248,2434.9Z" transform="translate(-911.5 -2286.75)" fill="#272626"/>
    <path id="Caminho_9495" data-name="Caminho 9495" d="M945.491,2090.289c-.233-.064-23.394-6.4-28.488.663a19.187,19.187,0,0,0-1.58,19.377c-6.025-7.522-7.289-17.289-3.918-26.632l.076-.017C927.278,2080.312,945.251,2090.157,945.491,2090.289Z" transform="translate(-883.439 -1989.594)" fill="#5e5e5e"/>
    <path id="Caminho_9496" data-name="Caminho 9496" d="M1618.972,1763.926c-2.029-.052-9.141,1.589-11.827,2.222-4.416-22.7-11.036-62.776-10.854-66.823.251-5.681,25.132-17.752,25.132-17.752C1618.088,1699.083,1618.274,1741.459,1618.972,1763.926Z" transform="translate(-1488.928 -1635.615)" fill="#474747"/>
    <path id="Caminho_9497" data-name="Caminho 9497" d="M1725.805,2453.751c-.086,1.118-20.892.859-22.526.945-.182.01-.509-.943-.946-2.651-.339-1.323-.744-3.1-1.2-5.234a46.717,46.717,0,0,0,10.6-1.981,46.491,46.491,0,0,0,.547,6.686C1713.194,2453.234,1725.892,2452.633,1725.805,2453.751Z" transform="translate(-1581.387 -2308.691)" fill="#f9ae93"/>
    <path id="Caminho_9498" data-name="Caminho 9498" d="M1032.253,1544.51c-34.173,28.375-53.253,56.152-55.509,61.785,0,0-6.964-5.045-10.747-5.131,0,0,2.751-7.824,2.149-14.53,0,0-8.941,7.222-9.113,10.661,0,0-18.11-10-33.912-6.61-.052.01-.076.017-.076.017s-4.013-66.369,107.239-66.772C1031.7,1523.948,1031.933,1536.532,1032.253,1544.51Z" transform="translate(-896.979 -1496.599)" fill="#272626"/>
    <path id="Caminho_9499" data-name="Caminho 9499" d="M1970.906,1496.744c-4.813,3.292-5.5,3.979-5.931,5.7s-.6,8.425-3.009,5.76-4.184-1.347-13.469,1.319c-7.75,2.225-11.658-5.454-27.047-6.465a58.358,58.358,0,0,0-9.112.161c-.045-1.451-.434-9.132-.533-10.852,2.651-.616,9.57,1.739,19.382,1.739,12.956,0,19.716-5.833,19.716-5.833s3.67-4.6,8.371-3.339S1970.906,1496.744,1970.906,1496.744Z" transform="translate(-1767.165 -1462.015)" fill="#f9ae93"/>
    <path id="Caminho_9500" data-name="Caminho 9500" d="M2289.688,1503.007c-4.737-.737-8.479-7.354-11-7.2s-4.017-.76-3.663-1.7-3.229-3.027,1.221-2.751,12.485,3.9,13.233,5.514S2289.688,1503.007,2289.688,1503.007Z" transform="translate(-2086.563 -1467.855)" fill="#f6816b"/>
    <path id="Caminho_9501" data-name="Caminho 9501" d="M2259.948,1454.118s4.508-1.274,5.158-.86-1.778,1.9-.86,2.321,4.4-1.7,5.321-.509-.175.629.355,1.488,4.321,3.713,6.547,6.083-9.1-15.121-11.155-15.817S2259.948,1454.118,2259.948,1454.118Z" transform="translate(-2074.175 -1428.564)" fill="#ffa608"/>
    <path id="Caminho_9502" data-name="Caminho 9502" d="M2128.087,1407.04c-4.083.333-10.146,2.688-12.108,3,0,0,1.864,1.1.818,1.06s-7.734,2.94-7.982,3.132,4.452-.054,3.088.576-1.656,1-1.6,1.378,4.718-.082,4.2.617-3.677,2.856-2.079,3.384,4.948,4.067,7.449,2.77,12.153-7.682,13.7-7.819S2128.087,1407.04,2128.087,1407.04Z" transform="translate(-1940.891 -1393.519)" fill="#ffa608"/>
    <path id="Caminho_9503" data-name="Caminho 9503" d="M2297.6,1382.532l0,0c-.175-.1-3.918-2.123-7.161.476l-17.231-22.318c7.909-6.574,23.369-9.161,31.119,5.156C2308.982,1374.463,2303.052,1379.718,2297.6,1382.532Z" transform="translate(-2085.862 -1347.981)" fill="#272626"/>
    <path id="Caminho_9504" data-name="Caminho 9504" d="M2211.947,1329.466c-.793.24-1.273.351-1.273.351l-27.482-35.595c-1.181-1.53-.579-2.75,1.447.107s8.659,10.982,8.659,10.982Z" transform="translate(-2005.959 -1292.605)" fill="#001f44"/>
    <path id="Caminho_9505" data-name="Caminho 9505" d="M2426.2,1553.691c3.482,2.166,5.275-2.131,4.119-4.2,0,0,2.284.962,1.132,4.718,0,0,1.009-.121,1.114-1.753,0,0,.992,4.309-3.92,3.825,0,0,.023.828,1.4.845,0,0-2.281,2.466-5.936.072s-3.655-1.2-3.655-1.2l-1.418-1.837S2421.86,1551.437,2426.2,1553.691Z" transform="translate(-2214.469 -1519.14)" fill="#ffa608"/>
    <path id="Caminho_9506" data-name="Caminho 9506" d="M2225.33,1458.49c1.8-9.718-5.768-10.952-8.039-4.825s3.657,7.108,3.657,7.108Z" transform="translate(-2036.101 -1431.33)" fill="#f9ae93"/>
    <ellipse id="Elipse_1173" data-name="Elipse 1173" cx="0.976" cy="1.59" rx="0.976" ry="1.59" transform="matrix(0.792, -0.611, 0.611, 0.792, 214.968, 14.564)" fill="#001f44"/>
    <path id="Caminho_9507" data-name="Caminho 9507" d="M1839.991,1538.005c-.058,1.032-9.113,12.15-9.457,12.552a49.044,49.044,0,0,1-.433-6.417c-.32-7.979-.554-20.562.031-20.579,1.547-.052,8.426-.289,9,1.032a30.655,30.655,0,0,1,.6,5.606c.1,1.719.172,3.532.217,4.983S1840.008,1537.713,1839.991,1538.005Z" transform="translate(-1694.826 -1496.229)" fill="#5e5e5e"/>
    <path id="Caminho_9508" data-name="Caminho 9508" d="M2014.609,1887.834h0a31.982,31.982,0,0,0-9.607-.548c-.034-2.239-.361-6.248-.574-8.105.553.034,1.076.065,1.561.1,13.413.86,23.386,2.064,25.105,9.458C2032.374,1894.258,2024.346,1889.7,2014.609,1887.834Z" transform="translate(-1848.842 -1809.874)" fill="#f9ae93"/>
    <path id="Caminho_9509" data-name="Caminho 9509" d="M1908.132,1862.651c-.4.633-11.118,2.235-12.208,2.352-.21.021-.4-.485-.557-1.32a67.4,67.4,0,0,1-.636-11.51,4.064,4.064,0,0,1,.279-1.785c4.044-2.7,12.322,1.431,12.494,1.6a5.591,5.591,0,0,1,.158.994c.213,1.857.54,5.867.574,8.106A4.908,4.908,0,0,1,1908.132,1862.651Z" transform="translate(-1752.079 -1783.678)" fill="#272626"/>
    <circle id="Elipse_1174" data-name="Elipse 1174" cx="1.49" cy="1.49" r="1.49" transform="translate(143.681 75.993)" fill="#b7b7b7"/>
    <path id="Caminho_9510" data-name="Caminho 9510" d="M1692.886,2385.868c-.014.107-.457.3-1.176.537a46.763,46.763,0,0,1-10.6,1.981c-1.265.021-2.16-.151-2.325-.626-.688-1.978-.172-6.73-.172-6.73.141-.034.481-.117.967-.23,2.686-.633,9.8-2.273,11.827-2.221.292,0,.478.048.533.131C1692.456,2379.481,1692.972,2385.266,1692.886,2385.868Z" transform="translate(-1561.364 -2250.266)" fill="#272626"/>
    <circle id="Elipse_1175" data-name="Elipse 1175" cx="1.204" cy="1.204" r="1.204" transform="translate(118.97 133.539)" fill="#b7b7b7"/>
    <path id="Caminho_9511" data-name="Caminho 9511" d="M1921.449,1560.161a58.372,58.372,0,0,0-9.112.161c-.045-1.451-.434-9.132-.533-10.852C1913.755,1553.756,1918.291,1557.749,1921.449,1560.161Z" transform="translate(-1767.165 -1519.12)" fill="#f6816b"/>
    <path id="Caminho_9512" data-name="Caminho 9512" d="M2242.982,1488.1c.638-3.66-1.653-4.082-2.283-2.54s.645,1.857.323,2.54-2.264,1.916-.821,1.627A4.592,4.592,0,0,0,2242.982,1488.1Z" transform="translate(-2056.296 -1462.015)" fill="#f6816b"/>
    <path id="Caminho_9513" data-name="Caminho 9513" d="M2014.605,1887.832a31.982,31.982,0,0,0-9.607-.548c-.034-2.239-.361-6.248-.574-8.105C2009.3,1881.507,2005.611,1885,2014.605,1887.832Z" transform="translate(-1848.842 -1809.874)" fill="#f6816b"/>
    <path id="Caminho_9514" data-name="Caminho 9514" d="M1711.732,2444.829c-1.491,3.471-8.955,4.2-8.955,5.027a13.8,13.8,0,0,1-.444,2.188c-.339-1.323-.744-3.1-1.2-5.234A46.717,46.717,0,0,0,1711.732,2444.829Z" transform="translate(-1581.387 -2308.691)" fill="#f6816b"/>
    <g id="Grupo_16129" data-name="Grupo 16129" transform="translate(28.911 81.752)">
      <g id="Grupo_16128" data-name="Grupo 16128">
        <path id="Caminho_9515" data-name="Caminho 9515" d="M932.667,1985.232c10.953.376,19.178,9.212,29.6,11.512a13.945,13.945,0,0,0,4.463.448,4.366,4.366,0,0,0,2.125-.793c.565-.411,1.514-1.326,2.185-.6.311.335.811-.167.5-.5-1.027-1.109-2.284-.009-3.2.6-1.321.883-3.035.663-4.522.426a30.573,30.573,0,0,1-7.7-2.444c-4.982-2.249-9.577-5.284-14.652-7.336a25.906,25.906,0,0,0-8.8-2.019c-.456-.016-.456.693,0,.709Z" transform="translate(-932.325 -1984.523)" fill="#b7b7b7"/>
      </g>
    </g>
    <g id="Grupo_16130" data-name="Grupo 16130" transform="translate(71.952 95.791)">
      <path id="Caminho_9516" data-name="Caminho 9516" d="M1296.859,2104.042a8.745,8.745,0,0,1,5.4,4.373,4.9,4.9,0,0,0,1.9,2.472,6.1,6.1,0,0,0,3.258.363c.452-.036.456-.745,0-.709-1.113.088-2.486.208-3.389-.589-.848-.749-1.149-2.036-1.8-2.95a9.512,9.512,0,0,0-5.177-3.643.355.355,0,0,0-.188.683Z" transform="translate(-1296.609 -2103.344)" fill="#b7b7b7"/>
    </g>
    <g id="Grupo_16132" data-name="Grupo 16132" transform="translate(33.354 70.174)">
      <g id="Grupo_16131" data-name="Grupo 16131">
        <path id="Caminho_9517" data-name="Caminho 9517" d="M970.277,1887.251a35.89,35.89,0,0,1,12.579,1.975,38.6,38.6,0,0,1,10.971,6.132c3.02,2.34,5.942,4.906,9.4,6.6a21.251,21.251,0,0,0,5.643,1.767,20.925,20.925,0,0,1,6.1,1.641c3.3,1.728,5.839,5.467,9.878,5.457a.355.355,0,0,0,0-.709c-3.6.009-6.083-3.312-8.937-5.032a16.4,16.4,0,0,0-5.728-1.843,24.942,24.942,0,0,1-6.007-1.617c-3.568-1.608-6.557-4.2-9.617-6.588a40.679,40.679,0,0,0-10.356-6.067,36.464,36.464,0,0,0-13.921-2.423.355.355,0,0,0,0,.709Z" transform="translate(-969.935 -1886.533)" fill="#b7b7b7"/>
      </g>
    </g>
    <g id="Grupo_16134" data-name="Grupo 16134" transform="translate(39.372 60.125)">
      <g id="Grupo_16133" data-name="Grupo 16133">
        <path id="Caminho_9518" data-name="Caminho 9518" d="M1021.206,1802.187c8.544.459,17.239,1.712,25,5.517a36.023,36.023,0,0,1,9.405,6.54c2.745,2.693,4.764,6.059,8.368,7.725,2.053.949,4.239,1.55,6.214,2.674A41.889,41.889,0,0,1,1076,1828.9c.349.288.854-.211.5-.5a51.267,51.267,0,0,0-4.962-3.767,29.7,29.7,0,0,0-5.508-2.573,14.59,14.59,0,0,1-5.257-3.174c-1.4-1.376-2.564-2.96-3.914-4.378-5.5-5.786-13.015-9.255-20.7-11.069a84.825,84.825,0,0,0-14.955-1.958c-.456-.024-.455.685,0,.709Z" transform="translate(-1020.864 -1801.478)" fill="#b7b7b7"/>
      </g>
    </g>
    <g id="Grupo_16136" data-name="Grupo 16136" transform="translate(49.604 49.325)">
      <g id="Grupo_16135" data-name="Grupo 16135">
        <path id="Caminho_9519" data-name="Caminho 9519" d="M1107.9,1711.455a14.474,14.474,0,0,1,7.651-.3,25.016,25.016,0,0,1,6.658,2.775c2.15,1.22,4.218,2.586,6.3,3.91l6.708,4.257,7.695,4.883c.386.245.742-.368.358-.612l-14.008-8.89c-4.162-2.641-8.374-5.723-13.228-6.936a15.255,15.255,0,0,0-8.326.232c-.433.137-.248.822.188.683Z" transform="translate(-1107.468 -1710.071)" fill="#b7b7b7"/>
      </g>
    </g>
    <g id="Grupo_16138" data-name="Grupo 16138" transform="translate(62.741 41.813)">
      <g id="Grupo_16137" data-name="Grupo 16137">
        <path id="Caminho_9520" data-name="Caminho 9520" d="M1218.91,1647.185c7.836,1.631,13.293,7.944,19.141,12.882a42.01,42.01,0,0,0,5.373,3.93.355.355,0,0,0,.358-.612c-6.827-4.116-11.708-10.786-18.727-14.632a21.591,21.591,0,0,0-5.957-2.251c-.445-.093-.636.591-.188.684Z" transform="translate(-1218.655 -1646.493)" fill="#b7b7b7"/>
      </g>
    </g>
    <g id="Grupo_16140" data-name="Grupo 16140" transform="translate(76.201 36.149)">
      <g id="Grupo_16139" data-name="Grupo 16139">
        <path id="Caminho_9521" data-name="Caminho 9521" d="M1332.663,1599.173a12.566,12.566,0,0,0,2.155,1.863q1.342.986,2.6,2.069c1.6,1.367,3.125,2.811,4.76,4.131,2.984,2.41,6.478,4.458,10.418,4.508a.355.355,0,0,0,0-.709c-3.972-.05-7.461-2.251-10.42-4.714-1.56-1.3-3.036-2.691-4.587-4-1.445-1.22-3.189-2.212-4.428-3.65-.3-.346-.8.157-.5.5Z" transform="translate(-1332.572 -1598.555)" fill="#b7b7b7"/>
      </g>
    </g>
    <g id="Grupo_16142" data-name="Grupo 16142" transform="translate(89.038 32.509)">
      <g id="Grupo_16141" data-name="Grupo 16141">
        <path id="Caminho_9522" data-name="Caminho 9522" d="M1441.377,1568.428a78.345,78.345,0,0,1,12.806,11.335,11.868,11.868,0,0,1,2.425,3.646c.483,1.256.767,2.576,1.344,3.8a15.024,15.024,0,0,0,4.342,5.22,43.985,43.985,0,0,0,6.739,4.2c.4.215.76-.4.358-.612-4.088-2.191-8.623-4.669-10.751-9.012-.625-1.274-.9-2.673-1.426-3.986a11.675,11.675,0,0,0-2.116-3.292,69.333,69.333,0,0,0-5.984-6.012,81.113,81.113,0,0,0-7.38-5.9c-.373-.264-.727.35-.358.612Z" transform="translate(-1441.221 -1567.751)" fill="#b7b7b7"/>
      </g>
    </g>
    <g id="Grupo_16144" data-name="Grupo 16144" transform="translate(100.098 30.589)">
      <g id="Grupo_16143" data-name="Grupo 16143">
        <path id="Caminho_9523" data-name="Caminho 9523" d="M1534.931,1552.1a48.675,48.675,0,0,1,9.418,13.148c1.023,2.1,1.736,4.621,3.741,6.021,1.7,1.187,3.849,1.366,5.739,2.109a5.49,5.49,0,0,1,2.656,2.164c.563.828,1.188,1.742,2.3,1.738a.355.355,0,0,0,0-.709c-1.03,0-1.55-1.243-2.077-1.953a5.471,5.471,0,0,0-2.18-1.711c-1.81-.823-3.882-.973-5.62-1.965-2.191-1.25-2.9-3.923-3.943-6.053a48.7,48.7,0,0,0-3.945-6.675,49.69,49.69,0,0,0-5.584-6.616.355.355,0,0,0-.5.5Z" transform="translate(-1534.826 -1551.499)" fill="#b7b7b7"/>
      </g>
    </g>
    <g id="Grupo_16146" data-name="Grupo 16146" transform="translate(111.283 29.567)">
      <g id="Grupo_16145" data-name="Grupo 16145">
        <path id="Caminho_9524" data-name="Caminho 9524" d="M1629.529,1543.387c1.708,3.572,5.742,5.113,8.11,8.148,2.235,2.865,3.643,6.7,7.165,8.286,1.734.779,4.2,1.08,5.09,2.993.192.413.8.054.612-.358-.741-1.6-2.467-2.182-4.009-2.734a10.854,10.854,0,0,1-2.533-1.181,9.6,9.6,0,0,1-2.027-1.954c-1.21-1.51-2.117-3.235-3.239-4.808a19.24,19.24,0,0,0-3.995-3.979c-1.747-1.36-3.583-2.724-4.562-4.772-.2-.411-.808-.052-.612.358Z" transform="translate(-1629.49 -1542.847)" fill="#b7b7b7"/>
      </g>
    </g>
    <g id="Grupo_16148" data-name="Grupo 16148" transform="translate(124.914 28.62)">
      <g id="Grupo_16147" data-name="Grupo 16147">
        <path id="Caminho_9525" data-name="Caminho 9525" d="M1744.982,1535.428a63.684,63.684,0,0,1,7.529,7.722c.29.353.789-.151.5-.5a63.7,63.7,0,0,0-7.529-7.722c-.344-.3-.847.2-.5.5Z" transform="translate(-1744.866 -1534.835)" fill="#b7b7b7"/>
      </g>
    </g>
    <path id="Caminho_9526" data-name="Caminho 9526" d="M1328.67,1631.778c-28.049,6.049-87.458,18.086-74.871-14.385,11.242-28.994,48.834-35.147,59.839-28.406s-22.01,18.433-23.557,23.936c-1.152,4.092,21.005,6.187,37.953,7.346A67.4,67.4,0,0,0,1328.67,1631.778Z" transform="translate(-1185.383 -1551.775)" fill="#5e5e5e"/>
  </g>
</svg>
