<svg xmlns="http://www.w3.org/2000/svg" id="prefix__right" width="105.681" height="105.681" viewBox="0 0 105.681 105.681">
    <defs>
        <style>
            .prefix__cls-1{fill:currentColor}
        </style>
    </defs>
    <g id="prefix__Grupo_6444" data-name="Grupo 6444">
        <g id="prefix__Grupo_6443" data-name="Grupo 6443">
            <path id="prefix__Caminho_8727" d="M90.2 15.477A52.841 52.841 0 0 0 15.477 90.2 52.841 52.841 0 1 0 90.2 15.477zM52.841 99.489a46.648 46.648 0 1 1 46.648-46.648 46.7 46.7 0 0 1-46.648 46.648z" class="prefix__cls-1" data-name="Caminho 8727"/>
        </g>
    </g>
    <g id="prefix__Grupo_6446" data-name="Grupo 6446" transform="translate(26.42 33.026)">
        <g id="prefix__Grupo_6445" data-name="Grupo 6445">
            <path id="prefix__Caminho_8728" d="M186.57 170.477a3.45 3.45 0 0 0-4.879 0l-30.465 30.465-16.036-16.037a3.45 3.45 0 0 0-4.879 4.879l18.476 18.476a3.45 3.45 0 0 0 4.879 0l32.9-32.9a3.45 3.45 0 0 0 .004-4.883z" class="prefix__cls-1" data-name="Caminho 8728" transform="translate(-129.301 -169.467)"/>
        </g>
    </g>
</svg>
