<svg height="51.051" viewBox="0 0 76.577 51.051" width="76.577" xmlns="http://www.w3.org/2000/svg"><path d="m68.6 85.333h-60.623a7.988 7.988 0 0 0 -7.977 7.977v35.1a7.988 7.988 0 0 0 7.977 7.977h60.623a7.988 7.988 0 0 0 7.977-7.977v-35.1a7.988 7.988 0 0 0 -7.977-7.977zm4.786 43.074a4.792 4.792 0 0 1 -4.786 4.786h-60.623a4.792 4.792 0 0 1 -4.786-4.786v-35.097a4.792 4.792 0 0 1 4.786-4.786h60.623a4.792 4.792 0 0 1 4.786 4.786v35.1z" fill="#001f40" transform="translate(0 -85.333)"/><path d="m74.981 149.333h-73.381a1.6 1.6 0 0 0 -1.6 1.6v9.567a1.6 1.6 0 0 0 1.6 1.6h73.381a1.6 1.6 0 0 0 1.6-1.6v-9.572a1.6 1.6 0 0 0 -1.6-1.595zm-1.6 9.572h-70.19v-6.381h70.2v6.381z" fill="#001f40" transform="translate(0 -139.761)"/><g fill="#ff7d00"><path d="m84.74 298.667h-19.14a1.6 1.6 0 1 0 0 3.191h19.14a1.6 1.6 0 1 0 0-3.191z" transform="translate(-54.428 -266.76)"/><path d="m84.74 341.333h-19.14a1.6 1.6 0 0 0 0 3.191h19.14a1.6 1.6 0 0 0 0-3.191z" transform="translate(-54.428 -303.045)"/><path d="m370.643 277.333h-3.19a4.792 4.792 0 0 0 -4.786 4.786v3.191a4.792 4.792 0 0 0 4.786 4.786h3.19a4.792 4.792 0 0 0 4.786-4.786v-3.191a4.792 4.792 0 0 0 -4.786-4.786zm1.6 7.977a1.6 1.6 0 0 1 -1.6 1.6h-3.19a1.6 1.6 0 0 1 -1.6-1.6v-3.191a1.6 1.6 0 0 1 1.6-1.6h3.19a1.6 1.6 0 0 1 1.6 1.6z" transform="translate(-308.425 -248.617)"/></g></svg>