<svg id="Componente_44_3" data-name="Componente 44 – 3" xmlns="http://www.w3.org/2000/svg" xmlns:xlink="http://www.w3.org/1999/xlink" width="13.038" height="14.897" viewBox="0 0 13.038 14.897">
  <defs>
    <clipPath id="clip-path">
      <rect id="Retângulo_3567" data-name="Retângulo 3567" width="13.038" height="14.897" fill="none"/>
    </clipPath>
  </defs>
  <g id="Grupo_16955" data-name="Grupo 16955" clip-path="url(#clip-path)">
    <path id="Caminho_15880" data-name="Caminho 15880" d="M10.7,13.11c.006-.086.05-.074.1-.075a3.2,3.2,0,0,0,.807-.057,2,2,0,0,0,1.425-1.854c-.013-2.419,0-4.838,0-7.257a.326.326,0,0,0-.084-.234Q11.4,1.86,9.854.083A.218.218,0,0,0,9.669,0q-2.748,0-5.5,0A1.942,1.942,0,0,0,2.36,1.559a.681.681,0,0,1-.022.1c-.021.067.036.163-.036.2a.5.5,0,0,1-.215.008,1.96,1.96,0,0,0-1.255.317A1.843,1.843,0,0,0,.006,3.73C0,6.818.01,9.906,0,12.994a1.981,1.981,0,0,0,1.545,1.872c.023,0,.049,0,.059.03H9.078a2.488,2.488,0,0,0,.677-.261A1.913,1.913,0,0,0,10.7,13.11M9.776.953,12.093,3.72c-.493,0-.961.01-1.428,0a.667.667,0,0,1-.488-.334,1.924,1.924,0,0,1-.4-1.2c0-.4,0-.794,0-1.229M3.261,1.991A.987.987,0,0,1,4.322.932c1.459,0,2.918,0,4.377,0,.118,0,.152.024.15.147-.008.577-.005,1.154,0,1.731A1.913,1.913,0,0,0,10.4,4.627a10.37,10.37,0,0,0,1.218.03c.158.007.369-.069.458.03s.022.295.022.449q0,2.953,0,5.905A.987.987,0,0,1,11.046,12.1H4.314a.986.986,0,0,1-1.053-1.052q0-2.269,0-4.538t0-4.523m5.5,11.975h-6.8A.982.982,0,0,1,.935,12.944q0-2.283,0-4.567t0-4.567a.932.932,0,0,1,.681-.962A3.528,3.528,0,0,1,2.28,2.8c.038,0,.052.015.051.051s0,.078,0,.116c0,2.71.012,5.42-.007,8.129a2,2,0,0,0,1.666,1.935,1.775,1.775,0,0,0,.261.007q2.69,0,5.379,0c.127,0,.147.025.125.148a.99.99,0,0,1-.993.786" transform="translate(0 0)" fill="#ec6600"/>
    <path id="Caminho_15881" data-name="Caminho 15881" d="M196.594,331.581q-1.81,0-3.619,0c-.174,0-.349,0-.523,0a.468.468,0,1,0,.045.934c.678,0,1.357,0,2.035,0s1.357,0,2.035,0a.491.491,0,0,0,.477-.241.468.468,0,0,0-.449-.7" transform="translate(-186.859 -322.733)" fill="#ec6600"/>
    <path id="Caminho_15882" data-name="Caminho 15882" d="M192.38,245.34c.673,0,1.347,0,2.02,0h0c.693,0,1.386,0,2.078,0a.454.454,0,0,0,.48-.469.465.465,0,0,0-.489-.465q-2.071,0-4.142,0a.519.519,0,0,0-.058,0,.469.469,0,0,0-.39.662.492.492,0,0,0,.5.275" transform="translate(-186.717 -237.88)" fill="#ec6600"/>
  </g>
</svg>
