<svg height="41.976" viewBox="0 0 41.976 41.976" width="41.976" xmlns="http://www.w3.org/2000/svg"><path d="m40.337 28.859a1.64 1.64 0 0 0 1.64-1.64v-17.381a6.566 6.566 0 0 0 -6.559-6.559h-2.132v-1.639a1.64 1.64 0 0 0 -3.279 0v1.64h-7.461v-1.64a1.64 1.64 0 0 0 -3.279 0v1.64h-7.379v-1.64a1.64 1.64 0 0 0 -3.279 0v1.64h-2.05a6.566 6.566 0 0 0 -6.559 6.558v25.579a6.566 6.566 0 0 0 6.559 6.559h28.858a6.566 6.566 0 0 0 6.559-6.559 1.64 1.64 0 1 0 -3.279 0 3.283 3.283 0 0 1 -3.28 3.283h-28.858a3.283 3.283 0 0 1 -3.279-3.279v-25.583a3.283 3.283 0 0 1 3.279-3.279h2.05v1.641a1.64 1.64 0 0 0 3.279 0v-1.641h7.379v1.641a1.64 1.64 0 0 0 3.279 0v-1.641h7.461v1.641a1.64 1.64 0 0 0 3.279 0v-1.641h2.132a3.283 3.283 0 0 1 3.282 3.279v17.381a1.64 1.64 0 0 0 1.637 1.64z" fill="#001f40"/><path d="m149.478 201.684-8.078 11.289a.937.937 0 0 1 -1.348.07l-5.232-5.024a1.64 1.64 0 0 0 -2.271 2.365l5.238 5.029a4.228 4.228 0 0 0 2.909 1.162q.139 0 .278-.009a4.227 4.227 0 0 0 3-1.566l.055-.073 8.115-11.335a1.64 1.64 0 0 0 -2.667-1.909z" fill="#ff7d00" transform="translate(-121.215 -184.519)"/></svg>