<svg height="41.976" viewBox="0 0 41.976 41.976" width="41.976" xmlns="http://www.w3.org/2000/svg"><path d="m37.56 11.045a1.749 1.749 0 0 0 -.813 2.336 17.312 17.312 0 0 1 1.731 7.608 17.49 17.49 0 1 1 -17.489-17.489 17.28 17.28 0 0 1 10.857 3.771 1.749 1.749 0 1 0 2.176-2.738 20.991 20.991 0 1 0 7.954 16.455 20.774 20.774 0 0 0 -2.076-9.131 1.747 1.747 0 0 0 -2.336-.813zm0 0" fill="#001f40"/><path d="m177.749 64a1.75 1.75 0 0 0 -1.749 1.749v12.243a1.75 1.75 0 0 0 1.749 1.749h8.745a1.749 1.749 0 0 0 0-3.5h-7v-10.492a1.75 1.75 0 0 0 -1.745-1.749zm0 0" fill="#ff7d00" transform="translate(-156.76 -57.004)"/></svg>