<svg xmlns="http://www.w3.org/2000/svg" id="prefix__wifi" width="55.279" height="46.066" viewBox="0 0 55.279 46.066">
    <g id="prefix__Grupo_5017" data-name="Grupo 5017" transform="translate(25.106 37.493)">
        <g id="prefix__Grupo_5016" data-name="Grupo 5016">
            <ellipse id="prefix__Elipse_422" cx="4.184" cy="4.286" class="prefix__cls-1" data-name="Elipse 422" rx="4.184" ry="4.286"/>
        </g>
    </g>
    <g id="prefix__Grupo_5019" data-name="Grupo 5019">
        <g id="prefix__Grupo_5018" data-name="Grupo 5018">
            <path id="prefix__Caminho_5430" d="M54.7 57.595a36.318 36.318 0 0 0-54.119 0 2.25 2.25 0 0 0 .107 3.126 2.124 2.124 0 0 0 3.052-.11 32.069 32.069 0 0 1 47.8 0 2.123 2.123 0 0 0 3.052.11 2.25 2.25 0 0 0 .108-3.126z" class="prefix__cls-1" data-name="Caminho 5430" transform="translate(0 -45.5)"/>
        </g>
    </g>
    <g id="prefix__Grupo_5021" data-name="Grupo 5021" transform="translate(7.881 12.834)">
        <g id="prefix__Grupo_5020" data-name="Grupo 5020">
            <path id="prefix__Caminho_5431" d="M111.887 169.942a26 26 0 0 0-38.263 0 2.25 2.25 0 0 0 .012 3.128 2.123 2.123 0 0 0 3.054-.012 21.752 21.752 0 0 1 32.132 0 2.123 2.123 0 0 0 3.054.012 2.25 2.25 0 0 0 .011-3.128z" class="prefix__cls-1" data-name="Caminho 5431" transform="translate(-72.998 -161.547)"/>
        </g>
    </g>
    <g id="prefix__Grupo_5023" data-name="Grupo 5023" transform="translate(16.311 25.768)">
        <g id="prefix__Grupo_5022" data-name="Grupo 5022">
            <path id="prefix__Caminho_5432" d="M172.893 283.122a15.4 15.4 0 0 0-10.509-4.622h-.159a15.4 15.4 0 0 0-10.51 4.622 2.25 2.25 0 0 0-.014 3.128 2.123 2.123 0 0 0 3.054.014 11.15 11.15 0 0 1 7.47-3.34h.158a11.15 11.15 0 0 1 7.47 3.34 2.123 2.123 0 0 0 3.054-.014 2.25 2.25 0 0 0-.014-3.128z" class="prefix__cls-1" data-name="Caminho 5432" transform="translate(-151.076 -278.5)"/>
        </g>
    </g>
</svg>
