<svg xmlns="http://www.w3.org/2000/svg" id="prefix__phone" width="46.066" height="46.066" viewBox="0 0 46.066 46.066">
    <g id="prefix__Grupo_5024" data-name="Grupo 5024">
        <path id="prefix__Caminho_5433" d="M42.369 30.237a26.154 26.154 0 0 1-8.214-1.308 3.754 3.754 0 0 0-3.651.77l-5.18 3.91a28.624 28.624 0 0 1-12.87-12.867l3.8-5.045a3.723 3.723 0 0 0 .916-3.773A26.194 26.194 0 0 1 15.852 3.7a3.7 3.7 0 0 0-3.7-3.7H3.7A3.7 3.7 0 0 0 0 3.7a42.417 42.417 0 0 0 42.369 42.366 3.7 3.7 0 0 0 3.7-3.7v-8.433a3.7 3.7 0 0 0-3.7-3.696z" data-name="Caminho 5433"/>
    </g>
</svg>
