<svg xmlns="http://www.w3.org/2000/svg" width="15.792" height="16.496" viewBox="0 0 15.792 16.496">
  <g id="Componente_52_1" data-name="Componente 52 – 1" transform="translate(0.753 0.859)">
    <path id="Caminho_28" data-name="Caminho 28" d="M18.548,17.881l-.954,1.007a1.576,1.576,0,0,1-1.35.479l-.96-.127A12.1,12.1,0,0,1,4.793,6.425a1.452,1.452,0,0,1,.613-1.09l.873-.614a1.23,1.23,0,0,1,1.71.293L9.165,6.67A1.635,1.635,0,0,1,9.31,8.317l-.4.851s-.813,1.717,1.627,4.293S14.6,14.75,14.6,14.75l.419-.332a1.684,1.684,0,0,1,2.267.162l1.261,1.331A1.432,1.432,0,0,1,18.548,17.881Z" transform="translate(-4.765 -4.497)" fill="none" stroke="#fff" stroke-linecap="round" stroke-linejoin="round" stroke-width="1.5"/>
  </g>
</svg>
