<svg height="76.32" viewBox="0 0 72.505 76.32" width="72.505" xmlns="http://www.w3.org/2000/svg"><path d="m52.921 64.4a11.956 11.956 0 0 1 -11.96 11.92h-29a11.956 11.956 0 0 1 -11.961-11.92v-52.475a11.956 11.956 0 0 1 11.959-11.925h29a11.956 11.956 0 0 1 11.962 11.925v1.211a2.99 2.99 0 0 1 -5.98 0v-1.211a5.978 5.978 0 0 0 -5.98-5.963h-29a5.978 5.978 0 0 0 -5.98 5.963v52.475a5.978 5.978 0 0 0 5.98 5.963h29a5.978 5.978 0 0 0 5.98-5.963 2.99 2.99 0 0 1 5.98 0zm-29.451-1.626a2.99 2.99 0 1 0 2.99-2.981 2.985 2.985 0 0 0 -2.99 2.981zm8.97-49.191a2.985 2.985 0 0 0 -2.99-2.983h-5.98a2.981 2.981 0 1 0 0 5.963h5.98a2.985 2.985 0 0 0 2.99-2.98z" fill="#001f40"/><path d="m37.274 11.836h-24.804a2.981 2.981 0 1 0 0 5.963h25.106l-3.44 3.4a2.986 2.986 0 0 0 4.208 4.237l5.251-5.185a7.407 7.407 0 0 0 0-10.561l-5.251-5.19a2.986 2.986 0 0 0 -4.208 4.237zm5.544 20.422h-25.106l3.44-3.4a2.986 2.986 0 0 0 -4.208-4.237l-5.251 5.189a7.407 7.407 0 0 0 0 10.561l5.251 5.185a2.986 2.986 0 1 0 4.208-4.237l-3.138-3.1h24.8a2.981 2.981 0 1 0 0-5.963zm0 0" fill="#ff7d00" transform="translate(26.697 10.244)"/></svg>