<svg height="76.776" viewBox="0 0 49.192 76.776" width="49.192" xmlns="http://www.w3.org/2000/svg"><path d="m39.453 0h-29.713a9.614 9.614 0 0 0 -9.74 9.477v57.823a9.615 9.615 0 0 0 9.74 9.477h29.713a9.614 9.614 0 0 0 9.74-9.477v-57.823a9.614 9.614 0 0 0 -9.74-9.477zm-7.094 4.5a5.657 5.657 0 0 0 -.17 1.365 1.385 1.385 0 0 1 -1.4 1.364h-12.383a1.385 1.385 0 0 1 -1.406-1.366 5.631 5.631 0 0 0 -.17-1.365zm12.21 62.8a5.053 5.053 0 0 1 -5.116 4.978h-29.713a5.052 5.052 0 0 1 -5.117-4.978v-57.823a5.053 5.053 0 0 1 5.117-4.977h1.238a1.387 1.387 0 0 1 1.4 1.365 5.953 5.953 0 0 0 6.026 5.863h12.38a5.953 5.953 0 0 0 6.026-5.863 1.387 1.387 0 0 1 1.4-1.365h1.238a5.052 5.052 0 0 1 5.116 4.978zm0 0" fill="#001f40"/><path d="m3.388 16.826a16.1 16.1 0 0 1 -4.062-.768 23.564 23.564 0 0 1 -2.314-.938l1.474-3.92a18.109 18.109 0 0 0 2.862 1.058 12.662 12.662 0 0 0 3.513.478 5.162 5.162 0 0 0 2.862-.563 1.85 1.85 0 0 0 .771-1.587 1.947 1.947 0 0 0 -.308-1.109 3.01 3.01 0 0 0 -.886-.84 8.834 8.834 0 0 0 -1.479-.737q-.891-.358-2.057-.768-1.131-.409-2.211-.9a8.936 8.936 0 0 1 -1.953-1.212 5.443 5.443 0 0 1 -1.405-1.758 5.461 5.461 0 0 1 -.532-2.508 7.214 7.214 0 0 1 .326-2.167 5.728 5.728 0 0 1 1.011-1.893 5.814 5.814 0 0 1 1.782-1.451 8.647 8.647 0 0 1 2.605-.87v-3.685h4.319v3.549a19.264 19.264 0 0 1 3.068.512 13.55 13.55 0 0 1 2.039.682l-1.062 4.095a15.864 15.864 0 0 0 -2.622-.819 14.022 14.022 0 0 0 -3.136-.341 3.975 3.975 0 0 0 -2.365.546 1.714 1.714 0 0 0 -.72 1.433 1.871 1.871 0 0 0 .223.938 2.055 2.055 0 0 0 .7.7 7.592 7.592 0 0 0 1.183.6q.7.291 1.7.633a25.367 25.367 0 0 1 2.794 1.2 10.43 10.43 0 0 1 2.226 1.484 6.044 6.044 0 0 1 1.474 1.961 6.092 6.092 0 0 1 .531 2.626 6.887 6.887 0 0 1 -.308 2.029 5.248 5.248 0 0 1 -1.031 1.854 6.283 6.283 0 0 1 -1.868 1.466 9.086 9.086 0 0 1 -2.828.887v4.163h-4.316z" fill="#ff7d00" transform="translate(20.127 35.439)"/></svg>