<svg height="66.32" viewBox="0 0 62.178 66.32" width="62.178" xmlns="http://www.w3.org/2000/svg"><g fill="#001f40"><path d="m27.219 329.456a2.076 2.076 0 0 0 -2.214.307l-8.29 7.088a2.075 2.075 0 0 0 -.725 1.575v12.435a2.073 2.073 0 0 0 2.073 2.073h8.29a2.073 2.073 0 0 0 2.073-2.073v-19.523a2.072 2.072 0 0 0 -1.207-1.882zm-2.939 19.333h-4.145v-9.409l4.145-3.544z" transform="translate(-15.99 -286.614)"/><path d="m156.135 220.813a1.835 1.835 0 0 0 -.112-.195c-.037-.05-.054-.112-.1-.162a2.04 2.04 0 0 0 -.692-.518s-.008-.012-.017-.017c-.025-.012-.058 0-.083-.012a1.994 1.994 0 0 0 -.933-.137 1.584 1.584 0 0 0 -.24.029 2.059 2.059 0 0 0 -.958.427l-8.29 7.088a2.1 2.1 0 0 0 -.539.713 2.15 2.15 0 0 0 -.187.862v26.653a2.073 2.073 0 0 0 2.073 2.073h8.29a2.073 2.073 0 0 0 2.073-2.073v-33.744a2.047 2.047 0 0 0 -.285-.987zm-3.855 32.66h-4.145v-23.628l4.145-3.544z" transform="translate(-127.409 -191.298)"/><path d="m283.219 109.936a2.079 2.079 0 0 0 -2.214.307l-8.29 7.088a2.075 2.075 0 0 0 -.725 1.575v40.871a2.073 2.073 0 0 0 2.073 2.073h8.29a2.073 2.073 0 0 0 2.073-2.073v-47.96a2.072 2.072 0 0 0 -1.207-1.881zm-2.939 47.764h-4.145v-37.836l4.145-3.544z" transform="translate(-238.829 -95.53)"/></g><path d="m411.219.188a2.085 2.085 0 0 0 -2.213.307l-8.29 7.088a2.075 2.075 0 0 0 -.725 1.575v55.09a2.073 2.073 0 0 0 2.073 2.073h8.29a2.074 2.074 0 0 0 2.073-2.073v-62.178a2.072 2.072 0 0 0 -1.208-1.882zm-2.939 61.987h-4.145v-52.063l4.145-3.544z" fill="#ff7d00" transform="translate(-350.248)"/></svg>