<svg id="Componente_34_1" data-name="Componente 34 – 1" xmlns="http://www.w3.org/2000/svg" width="336.391" height="386.544" viewBox="0 0 336.391 386.544">
  <g id="Componente_31_1" data-name="Componente 31 – 1">
    <path id="Caminho_13836" data-name="Caminho 13836" d="M319.643,209.962c-6.309-8.61-9.832-16.155-11.065-25.87-13.551,6.207-16.673-6.053.11-19.267-18.1-1.383-8.389-15.164,17.156-16.081-14.333-6.737.777-13.757,27.544-5.874-10.939-13.271,30.5-8.032,37.542,17.8,8.976,10.544,2.65,28.825-2.23,49.887Z" transform="translate(-192.782 -64.379)" fill="#272626"/>
    <g id="Grupo_16591" data-name="Grupo 16591">
      <g id="Grupo_16590" data-name="Grupo 16590">
        <g id="Grupo_16520" data-name="Grupo 16520" transform="translate(50.757)">
          <g id="Grupo_16502" data-name="Grupo 16502" transform="translate(61.197 49.736)">
            <g id="Grupo_16501" data-name="Grupo 16501">
              <path id="Caminho_14002" data-name="Caminho 14002" d="M312.3,115.534s6.123,3.958,6.2,5.982c.115,3.049-3.831,3.993-8.719,10.991-2.056,2.944-7.032.361-5.1-7.284C305.643,121.41,312.3,115.534,312.3,115.534Z" transform="translate(-304.245 -115.534)" fill="#fcb289"/>
            </g>
          </g>
          <g id="Grupo_16504" data-name="Grupo 16504" transform="translate(46.265)">
            <g id="Grupo_16503" data-name="Grupo 16503">
              <path id="Caminho_14003" data-name="Caminho 14003" d="M290.289,96.291c9.865-10.887,16.84-21.369,20.139-25.8s5.313,2.284,2.089,8.063-16.529,24.19-16.529,24.19Z" transform="translate(-290.289 -69.05)" fill="#fcb289"/>
            </g>
          </g>
          <g id="Grupo_16506" data-name="Grupo 16506" transform="translate(0 27.241)">
            <g id="Grupo_16505" data-name="Grupo 16505">
              <path id="Caminho_14004" data-name="Caminho 14004" d="M266.03,163.845l-18.981-5.417S265.488,126.85,266.8,125.3c6.793-8.013,25.067-30.466,26.509-30.788l6.448,5.861,2.191,22.52c-3.843,1.315-8.538,14.894-15.219,17.334a59.031,59.031,0,0,1-8.039,1.788Z" transform="translate(-247.049 -94.51)" fill="#fcb289"/>
            </g>
          </g>
          <g id="Grupo_16519" data-name="Grupo 16519" transform="translate(45.508 31.293)">
            <g id="Grupo_16508" data-name="Grupo 16508" transform="translate(2.905)">
              <g id="Grupo_16507" data-name="Grupo 16507">
                <path id="Caminho_14005" data-name="Caminho 14005" d="M302.122,122.161c-3.389,5.795.856,9.937,2.782,7.727,6.909-7.922,12.012-11.767,12.808-13.149,2.336-4.056-23.061-18.443-23.061-18.443-3.1,2.743-3.613,7.673,1.362,9.936l10.883,8.086C304.982,118.378,303.866,119.179,302.122,122.161Z" transform="translate(-292.297 -98.297)" fill="#fcb289"/>
              </g>
            </g>
            <g id="Grupo_16510" data-name="Grupo 16510" transform="translate(22.363 17.743)">
              <g id="Grupo_16509" data-name="Grupo 16509">
                <path id="Caminho_14006" data-name="Caminho 14006" d="M311.181,121.5a.7.7,0,0,1-.486-1.2c.9-.87,1.705-1.626,2.4-2.281a22.6,22.6,0,0,0,2.737-2.786.7.7,0,1,1,1.21.7,19.755,19.755,0,0,1-2.99,3.1c-.694.653-1.495,1.4-2.388,2.269A.694.694,0,0,1,311.181,121.5Z" transform="translate(-310.483 -114.88)" fill="#ff985f"/>
              </g>
            </g>
            <g id="Grupo_16512" data-name="Grupo 16512" transform="translate(1.752 6.966)">
              <g id="Grupo_16511" data-name="Grupo 16511">
                <path id="Caminho_14007" data-name="Caminho 14007" d="M295.98,128.377c-4.447,4.764-1.312,9.593.984,7.912,8.235-6.029,15.205-10.194,16.263-11.323,3.448-3.678-19.75-20.158-19.75-20.158-2.744,2.039-3.452,7.752.523,11.182l7.888,7.557C300.443,125.128,298.269,125.923,295.98,128.377Z" transform="translate(-291.219 -104.808)" fill="#fcb289"/>
              </g>
            </g>
            <g id="Grupo_16514" data-name="Grupo 16514" transform="translate(3.311 6.271)">
              <g id="Grupo_16513" data-name="Grupo 16513">
                <path id="Caminho_14008" data-name="Caminho 14008" d="M304.506,131.667a.7.7,0,0,1-.393-1.275c1.36-.92,2.607-1.751,3.711-2.489a51.07,51.07,0,0,0,4.8-3.369.69.69,0,0,0,.153-.59c-.4-3.935-14.427-14.705-19.8-18.522a.7.7,0,1,1,.808-1.138c2.031,1.443,19.852,14.242,20.38,19.521a2.076,2.076,0,0,1-.523,1.684,44.948,44.948,0,0,1-5.037,3.577c-1.1.732-2.347,1.562-3.7,2.48A.7.7,0,0,1,304.506,131.667Z" transform="translate(-292.677 -104.158)" fill="#ff985f"/>
              </g>
            </g>
            <g id="Grupo_16516" data-name="Grupo 16516" transform="translate(0 15.319)">
              <g id="Grupo_16515" data-name="Grupo 16515">
                <path id="Caminho_14009" data-name="Caminho 14009" d="M292.08,131.589c-4.327,3.6-2.161,8.081-.012,6.889,7.711-4.278,12.375-5.939,13.367-6.836,2.065-1.866-10.422-19.028-10.422-19.028-2.919.454-5.293,3.47-2.7,7.948l4.837,7.66A24.314,24.314,0,0,0,292.08,131.589Z" transform="translate(-289.582 -112.615)" fill="#fcb289"/>
              </g>
            </g>
            <g id="Grupo_16518" data-name="Grupo 16518" transform="translate(4.733 14.621)">
              <g id="Grupo_16517" data-name="Grupo 16517">
                <path id="Caminho_14010" data-name="Caminho 14010" d="M305.161,130.619a.7.7,0,0,1-.669-.5c-1.4-4.7-10.265-16.925-10.353-17.049a.7.7,0,1,1,1.127-.821c.372.509,9.1,12.542,10.564,17.471a.7.7,0,0,1-.47.868A.718.718,0,0,1,305.161,130.619Z" transform="translate(-294.006 -111.962)" fill="#ff985f"/>
              </g>
            </g>
          </g>
        </g>
        <g id="Grupo_16534" data-name="Grupo 16534" transform="translate(86.337 140.772)">
          <g id="Grupo_16528" data-name="Grupo 16528" transform="translate(0 56.756)">
            <g id="Grupo_16522" data-name="Grupo 16522" transform="translate(0.671)">
              <g id="Grupo_16521" data-name="Grupo 16521">
                <path id="Caminho_14011" data-name="Caminho 14011" d="M312.788,264.362c-22.2-8.6-30.583-14.993-30.84-7.138-.286,8.741-.647,44.576-.223,63.255.795,34.97-.795,122.2-.795,122.2H406.35s5.231-70.157,11.127-114.449c4.541-34.108,4.913-51.674-40.9-58.605C353.8,266.191,312.788,264.362,312.788,264.362Z" transform="translate(-280.93 -253.665)" fill="#f27d00"/>
              </g>
            </g>
            <g id="Grupo_16525" data-name="Grupo 16525" transform="translate(92.491 34.919)">
              <g id="Grupo_16524" data-name="Grupo 16524">
                <g id="Grupo_16523" data-name="Grupo 16523">
                  <path id="Caminho_14012" data-name="Caminho 14012" d="M409.8,286.3c-3.92,28.383-20.774,53.516-27.108,81.2-.71,24.522-4.189,51.011-15.946,72.9h33.6s5.231-70.157,11.127-114.449C413.763,308.771,414.539,295.686,409.8,286.3Z" transform="translate(-366.747 -286.301)" fill="#be612f"/>
                </g>
              </g>
            </g>
          </g>
          <g id="Grupo_16533" data-name="Grupo 16533" transform="translate(32.529)">
            <g id="Grupo_16530" data-name="Grupo 16530" transform="translate(0 67.454)">
              <g id="Grupo_16529" data-name="Grupo 16529">
                <path id="Caminho_14014" data-name="Caminho 14014" d="M322.37,263.663H310.7l5.388,30.352s16.736-12.394,19.034-12.2S354.4,295.98,354.4,295.98l20.094-27.053-12.953-5.264Z" transform="translate(-310.705 -263.663)" fill="#f1f2f2"/>
              </g>
            </g>
            <g id="Grupo_16532" data-name="Grupo 16532" transform="translate(11.665)">
              <g id="Grupo_16531" data-name="Grupo 16531">
                <path id="Caminho_14015" data-name="Caminho 14015" d="M361.828,201.182c-2.311,25.912-6.808,55.529-3.867,64.014,1.053,3.037,2.814,2.877,2.814,2.877-15.482,12.185-26.411,18.15-26.411,18.15s-9.884-11.41-12.758-18.15a4.682,4.682,0,0,0,3.564-1.943c7.553-11.272,1.962-45.961.328-65.511Z" transform="translate(-321.607 -200.619)" fill="#fcb289"/>
              </g>
            </g>
          </g>
        </g>
        <g id="Grupo_16562" data-name="Grupo 16562" transform="translate(108.415 85.469)">
          <g id="Grupo_16536" data-name="Grupo 16536" transform="translate(9.489)">
            <g id="Grupo_16535" data-name="Grupo 16535">
              <path id="Caminho_14016" data-name="Caminho 14016" d="M309.889,189.962c-2.568,28.9,55.545,48.4,65.16,40.031,24.663-21.455,30.854-59.093-5.516-75.648C349.551,145.249,314.129,142.237,309.889,189.962Z" transform="translate(-309.807 -148.931)" fill="#272626"/>
            </g>
          </g>
          <g id="Grupo_16561" data-name="Grupo 16561" transform="translate(0 26.53)">
            <g id="Grupo_16538" data-name="Grupo 16538">
              <g id="Grupo_16537" data-name="Grupo 16537">
                <path id="Caminho_14017" data-name="Caminho 14017" d="M363.95,230.663c-8.278,14.741-26.093,24.178-40.321,21.69s-25.927-21.156-21.881-37.5,14.543-41.122,14.543-41.122,55.064,6.225,57.484,17.165-6.4,28.993-6.4,28.993Z" transform="translate(-300.938 -173.726)" fill="#fcb289"/>
              </g>
            </g>
            <g id="Grupo_16546" data-name="Grupo 16546" transform="translate(56.647 45.796)">
              <g id="Grupo_16545" data-name="Grupo 16545">
                <path id="Caminho_14019" data-name="Caminho 14019" d="M372.477,228.455c-1.531,4.818-10.062,10.45-14.879,8.919s-4.1-9.646-2.567-14.464a9.153,9.153,0,0,1,17.445,5.544Z" transform="translate(-353.881 -216.528)" fill="#fcb289"/>
              </g>
            </g>
          </g>
        </g>
        <g id="Grupo_16564" data-name="Grupo 16564" transform="translate(0 70.475)">
          <g id="Grupo_16563" data-name="Grupo 16563">
            <path id="Caminho_14025" data-name="Caminho 14025" d="M288.148,150.5s-32.586,70.306-37.139,81.715c16.555,18.259,37.6,27.344,54.368,35.428,11.34,5.465.128,69.191-8.842,62.528,0,0-105.54-67.488-96.359-93.85S259.257,136.07,259.257,136.07C261.782,130.791,290.789,145.049,288.148,150.5Z" transform="translate(-199.61 -134.918)" fill="#f27d00"/>
          </g>
        </g>
        <g id="Grupo_16589" data-name="Grupo 16589" transform="matrix(0.899, -0.438, 0.438, 0.899, 161.34, 186.328)">
          <g id="Grupo_16566" data-name="Grupo 16566" transform="translate(0 37.608)">
            <g id="Grupo_16565" data-name="Grupo 16565">
              <path id="Caminho_14026" data-name="Caminho 14026" d="M400.709,278.38c18.179,13.752,20.308,26.734,57.2,73.3,12.453,15.719,17.505,55.377-2.288,47.12S386.4,336.43,386.4,336.43,383.663,265.485,400.709,278.38Z" transform="translate(-386.236 -276.814)" fill="#f27d00"/>
            </g>
          </g>
          <g id="Grupo_16584" data-name="Grupo 16584" transform="translate(77.38)">
            <g id="Grupo_16568" data-name="Grupo 16568" transform="translate(4.307 13.028)">
              <g id="Grupo_16567" data-name="Grupo 16567">
                <path id="Caminho_14027" data-name="Caminho 14027" d="M462.583,320.866l16.51,10.818s11.834-34.6,12.148-36.609c1.621-10.38,6.658-38.887,5.96-40.188l-8.651-1.046-18.472,13.067c1.518,3.768-5.686,16.2-3.164,22.85a59.107,59.107,0,0,0,3.9,7.251Z" transform="translate(-462.583 -253.84)" fill="#fcb289"/>
              </g>
            </g>
          </g>
          <g id="Grupo_16586" data-name="Grupo 16586" transform="translate(55.601 61.709)">
            <g id="Grupo_16585" data-name="Grupo 16585">
              <path id="Caminho_14035" data-name="Caminho 14035" d="M438.98,368.622c-6.155,26.961,25.99,42.742,34.944,15.689,3.522-10.642,18.9-77.538,18.635-79.775s-23.857-7.037-24.935-4.452C448.9,344.934,441.23,358.767,438.98,368.622Z" transform="translate(-438.202 -299.339)" fill="#f27d00"/>
            </g>
          </g>
          <g id="Grupo_16588" data-name="Grupo 16588" transform="translate(55.886 61.961)">
            <g id="Grupo_16587" data-name="Grupo 16587">
              <path id="Caminho_14036" data-name="Caminho 14036" d="M438.96,369.1a.539.539,0,0,1-.109-.012.492.492,0,0,1-.37-.59c1.31-5.733,4.353-12.609,10.42-26.31,4.361-9.849,10.333-23.339,18.25-42.309a.492.492,0,0,1,.908.379c-7.922,18.98-13.9,32.475-18.259,42.328-6.042,13.643-9.073,20.492-10.361,26.131A.49.49,0,0,1,438.96,369.1Z" transform="translate(-438.469 -299.575)" fill="#be612f"/>
            </g>
          </g>
        </g>
      </g>
    </g>
  </g>
  <g id="Grupo_16612" data-name="Grupo 16612" transform="translate(32.045 -383.025) rotate(8)">
    <g id="Grupo_16596" data-name="Grupo 16596" transform="translate(266.41 550.65)">
      <g id="Grupo_16593" data-name="Grupo 16593" transform="translate(0 0)">
        <rect id="Retângulo_3440" data-name="Retângulo 3440" width="65.972" height="28.253" fill="#272626"/>
      </g>
      <g id="Grupo_16594" data-name="Grupo 16594" transform="translate(13.66 5.255)">
        <rect id="Retângulo_3441" data-name="Retângulo 3441" width="38.652" height="17.309" fill="#feedb4"/>
      </g>
      <g id="Grupo_16595" data-name="Grupo 16595" transform="translate(16.062 6.63)">
        <path id="Caminho_14037" data-name="Caminho 14037" d="M506.475,1077.525H473.741a.557.557,0,0,1-.557-.557v-13.18a.557.557,0,0,1,.557-.557h32.735a.557.557,0,0,1,.557.557v13.18A.557.557,0,0,1,506.475,1077.525Zm-32.178-1.114h31.621v-12.066H474.3Z" transform="translate(-473.184 -1063.231)" fill="#fbcb22"/>
      </g>
    </g>
    <g id="Grupo_16598" data-name="Grupo 16598" transform="translate(266.409 530.58)">
      <path id="Caminho_14038" data-name="Caminho 14038" d="M388.043,938.2c.205-5.843,18.922-7.071,32.984-16.5,14.151,10.632,32.78,10.671,32.985,16.5h0v3.547H388.041V938.2Z" transform="translate(-388.041 -921.702)" fill="#fbcb22"/>
      <g id="Grupo_16597" data-name="Grupo 16597" transform="translate(4.504 16.202)">
        <path id="Caminho_14039" data-name="Caminho 14039" d="M468.428,1008.485H412.366a.451.451,0,0,1,0-.9h56.062a.451.451,0,1,1,0,.9Z" transform="translate(-411.915 -1007.583)" fill="#eca400"/>
      </g>
    </g>
    <g id="Grupo_16601" data-name="Grupo 16601" transform="translate(237.843 426.087)">
      <path id="Caminho_14041" data-name="Caminho 14041" d="M261.73,534.328a24.68,24.68,0,0,1-15.092-4.79c-5.573-4.327-8.526-11.066-8.779-20.031-.215-7.616,1.816-13.036,6.038-16.109,6.548-4.768,15.63-1.633,16.013-1.5a2.83,2.83,0,0,1-1.882,5.338c-.1-.034-6.706-2.266-10.818.747-2.61,1.913-3.853,5.735-3.694,11.361.2,7.192,2.421,12.481,6.592,15.72,4.984,3.87,11.779,4.107,16.083,3.135a2.83,2.83,0,1,1,1.247,5.521A26.257,26.257,0,0,1,261.73,534.328Z" transform="translate(-237.843 -490.765)" fill="#eca400"/>
      <g id="Grupo_16600" data-name="Grupo 16600" transform="translate(90.616 0)">
        <path id="Caminho_14042" data-name="Caminho 14042" d="M726.081,534.329a26.23,26.23,0,0,1-5.709-.6,2.83,2.83,0,0,1,1.247-5.521c4.3.973,11.1.735,16.083-3.135,4.172-3.239,6.39-8.528,6.593-15.72.159-5.626-1.084-9.448-3.694-11.362-4.121-3.02-10.752-.77-10.818-.747A2.83,2.83,0,0,1,727.9,491.9c.384-.136,9.465-3.271,16.014,1.5,4.221,3.073,6.252,8.493,6.038,16.109-.253,8.965-3.207,15.7-8.779,20.031A24.682,24.682,0,0,1,726.081,534.329Z" transform="translate(-718.165 -490.766)" fill="#eca400"/>
      </g>
    </g>
    <g id="Grupo_16608" data-name="Grupo 16608" transform="translate(256.492 411.048)">
      <g id="Grupo_16602" data-name="Grupo 16602" transform="translate(0 0)">
        <path id="Caminho_14043" data-name="Caminho 14043" d="M336.691,430.929V419.537a8.489,8.489,0,0,1,8.489-8.489h68.142a8.49,8.49,0,0,1,8.489,8.49v11.594c-.076,34.527-19.117,62.52-42.56,62.52C355.762,493.652,336.691,465.547,336.691,430.929Z" transform="translate(-336.691 -411.048)" fill="#fbcb22"/>
      </g>
      <g id="Grupo_16606" data-name="Grupo 16606" transform="translate(17.075 15.934)">
        <g id="Grupo_16603" data-name="Grupo 16603" transform="translate(3.618 3.618)">
          <circle id="Elipse_1248" data-name="Elipse 1248" cx="21.75" cy="21.75" r="21.75" fill="#feedb4"/>
        </g>
        <g id="Grupo_16604" data-name="Grupo 16604">
          <path id="Caminho_14044" data-name="Caminho 14044" d="M452.57,546.243a25.368,25.368,0,1,1,25.368-25.368A25.4,25.4,0,0,1,452.57,546.243Zm0-49.6A24.233,24.233,0,1,0,476.8,520.874,24.261,24.261,0,0,0,452.57,496.641Z" transform="translate(-427.202 -495.506)" fill="#eca400"/>
        </g>
        <g id="Grupo_16605" data-name="Grupo 16605" transform="translate(12.119 12.989)">
          <path id="Caminho_14045" data-name="Caminho 14045" d="M503.883,564.942a.849.849,0,0,1,1.615,0c.833,2.564,2.074,6.386,2.546,7.836a.848.848,0,0,0,.807.587h8.238a.849.849,0,0,1,.5,1.536l-6.665,4.842a.85.85,0,0,0-.309.949c.472,1.451,1.713,5.272,2.546,7.835a.849.849,0,0,1-1.306.95l-6.665-4.843a.849.849,0,0,0-1,0l-6.665,4.843a.849.849,0,0,1-1.306-.95c.833-2.564,2.074-6.385,2.545-7.835a.849.849,0,0,0-.308-.949l-6.665-4.842a.849.849,0,0,1,.5-1.536h8.239a.848.848,0,0,0,.807-.587C501.809,571.328,503.051,567.506,503.883,564.942Z" transform="translate(-491.442 -564.356)" fill="#fbcb22"/>
        </g>
      </g>
      <g id="Grupo_16607" data-name="Grupo 16607" transform="translate(4.826 14.798)">
        <path id="Caminho_14046" data-name="Caminho 14046" d="M370.494,526.862a1.7,1.7,0,0,1-1.567-1.037A86.118,86.118,0,0,1,362.31,491.1a1.7,1.7,0,1,1,3.4.179,84.273,84.273,0,0,0,6.35,33.213,1.7,1.7,0,0,1-1.566,2.369Z" transform="translate(-362.271 -489.489)" fill="#feedb4"/>
        <path id="Caminho_14047" data-name="Caminho 14047" d="M418.589,712.147a1.7,1.7,0,0,1-1.368-.687,64.817,64.817,0,0,1-4.89-7.675,1.7,1.7,0,1,1,2.992-1.626,61.345,61.345,0,0,0,4.631,7.271,1.7,1.7,0,0,1-1.365,2.718Z" transform="translate(-402.719 -661.315)" fill="#feedb4"/>
      </g>
    </g>
    <g id="Grupo_16611" data-name="Grupo 16611" transform="translate(253.511 411.048)">
      <g id="Grupo_16609" data-name="Grupo 16609" transform="translate(0 0)">
        <path id="Caminho_14048" data-name="Caminho 14048" d="M411.74,415.73a4.681,4.681,0,0,0-4.682-4.681H325.573a4.682,4.682,0,0,0-4.682,4.681v0a4.682,4.682,0,0,0,4.682,4.681h81.485a4.681,4.681,0,0,0,4.682-4.681Z" transform="translate(-320.891 -411.049)" fill="#feedb4"/>
      </g>
      <g id="Grupo_16610" data-name="Grupo 16610" transform="translate(6.729 3.867)">
        <path id="Caminho_14049" data-name="Caminho 14049" d="M433.6,433.178H357.376a.815.815,0,1,1,0-1.63H433.6a.815.815,0,1,1,0,1.63Z" transform="translate(-356.561 -431.548)" fill="#fbcb22"/>
      </g>
    </g>
  </g>
  <g id="Grupo_16613" data-name="Grupo 16613" transform="translate(252.966 133.467) rotate(8)">
    <path id="Caminho_14040" data-name="Caminho 14040" d="M517.77,794.7a78.313,78.313,0,0,1,3.454,13.18,45.934,45.934,0,0,1,1.016,8.786,47.772,47.772,0,0,1-1.123,8.786,91.992,91.992,0,0,1-3.348,13.179c0,7.922,17.024,7.922,17.024,0a92.074,92.074,0,0,1-3.348-13.179,47.751,47.751,0,0,1-1.122-8.786,45.885,45.885,0,0,1,1.016-8.786,78.353,78.353,0,0,1,3.454-13.18c0-7.921-3.814-14.353-8.512-14.353S517.77,786.78,517.77,794.7Z" transform="translate(-517.77 -780.349)" fill="#eca400"/>
  </g>
  <g id="Grupo_16614" data-name="Grupo 16614" transform="matrix(0.899, -0.438, 0.438, 0.899, 230.889, 152.407)">
    <g id="Grupo_16570" data-name="Grupo 16570" transform="translate(5.338)">
      <g id="Grupo_16569" data-name="Grupo 16569">
        <path id="Caminho_14028" data-name="Caminho 14028" d="M471.19,257.374c-5.011,3.46-9.045-.1-7.178-1.989,6.7-6.789,10.62-12.669,11.872-13.394,4.631-2.681,20.113,11.937,21.25,13.747-1.073,3.6-4.931,5.9-8.693,2.675L478.09,250.5C476.357,252.375,473.769,255.594,471.19,257.374Z" transform="translate(-463.547 -241.664)" fill="#fcb289"/>
      </g>
    </g>
    <g id="Grupo_16572" data-name="Grupo 16572" transform="translate(2.288 6.783)">
      <g id="Grupo_16571" data-name="Grupo 16571">
        <path id="Caminho_14029" data-name="Caminho 14029" d="M468.381,264.489c-2.168,6.353-8.076,5.85-7.665,2.948,1.478-10.407,1.05-16.783,1.574-18.289,1.541-4.419,29.032,5.388,29.032,5.388-.049,4.138-3.442,7.752-8.407,5.466l-13.234-2.947C469.374,259.852,469.5,261.219,468.381,264.489Z" transform="translate(-460.696 -248.004)" fill="#fcb289"/>
      </g>
    </g>
    <g id="Grupo_16574" data-name="Grupo 16574" transform="translate(11.451 6.67)">
      <g id="Grupo_16573" data-name="Grupo 16573">
        <path id="Caminho_14030" data-name="Caminho 14030" d="M490.723,255.242a.7.7,0,0,1-.235-.042c-.121-.044-12.213-4.34-20.657-5.916a.7.7,0,0,1,.256-1.374c8.555,1.6,20.748,5.932,20.872,5.976a.7.7,0,0,1-.235,1.356Z" transform="translate(-469.26 -247.898)" fill="#ff985f"/>
      </g>
    </g>
    <g id="Grupo_16576" data-name="Grupo 16576" transform="translate(0.283 15.206)">
      <g id="Grupo_16575" data-name="Grupo 16575">
        <path id="Caminho_14031" data-name="Caminho 14031" d="M467.532,273c-.7,6.481-6.4,7.266-6.63,4.43-.824-10.173-2.23-18.17-2.067-19.709.529-5.014,28.165,1.763,28.165,1.763.253,3.41-3.608,7.68-8.8,6.915l-10.875-1.026C467.071,267.5,467.891,269.669,467.532,273Z" transform="translate(-458.822 -255.876)" fill="#fcb289"/>
      </g>
    </g>
    <g id="Grupo_16578" data-name="Grupo 16578" transform="translate(2.812 14.508)">
      <g id="Grupo_16577" data-name="Grupo 16577">
        <path id="Caminho_14032" data-name="Caminho 14032" d="M486.835,260.231a.685.685,0,0,1-.165-.022c-.175-.042-17.516-4.289-24.713-3.5a.716.716,0,0,1-.768-.622.7.7,0,0,1,.622-.768c7.416-.784,24.469,3.354,25.19,3.533a.7.7,0,0,1-.166,1.376Z" transform="translate(-461.185 -255.224)" fill="#ff985f"/>
      </g>
    </g>
    <g id="Grupo_16582" data-name="Grupo 16582" transform="translate(0.617 22.504)">
      <g id="Grupo_16581" data-name="Grupo 16581">
        <path id="Caminho_14034" data-name="Caminho 14034" d="M459.833,267.468a.7.7,0,0,1-.287-1.334c4.687-2.117,19.5-3.38,20.126-3.431a.661.661,0,0,1,.752.637.7.7,0,0,1-.637.752c-.152.015-15.2,1.295-19.669,3.313A.668.668,0,0,1,459.833,267.468Z" transform="translate(-459.134 -262.697)" fill="#ff985f"/>
      </g>
    </g>
  </g>
  <g id="Grupo_16615" data-name="Grupo 16615" transform="matrix(0.899, -0.438, 0.438, 0.899, 241.061, 173.263)">
    <path id="Caminho_14033" data-name="Caminho 14033" d="M467.332,277.976c.1,5.63-4.7,6.92-5.205,4.514-1.806-8.631-3.6-13.246-3.568-14.583.062-2.783,21.212-4.556,21.212-4.556,1.565,2.5.836,6.273-4.244,7.242l-8.959,1.348A24.283,24.283,0,0,1,467.332,277.976Z" transform="translate(-458.558 -263.351)" fill="#fcb289"/>
  </g>
  <g id="Grupo_6107" data-name="Grupo 6107" transform="translate(237.031 212.407) rotate(8)">
    <g id="Grupo_6106" data-name="Grupo 6106" transform="translate(0 0)">
      <path id="Caminho_7283" data-name="Caminho 7283" d="M389.5,520.738a2.945,2.945,0,0,1,1.276-1.491,2.494,2.494,0,0,1,2.773-.021,2.976,2.976,0,0,0-.141-.291,2.409,2.409,0,0,0-3.258-1.122,2.435,2.435,0,0,0-.992,2.784A.224.224,0,0,0,389.5,520.738Z" transform="translate(-387.576 -517.534)" fill="#272626"/>
      <path id="Caminho_7284" data-name="Caminho 7284" d="M448.8,555.975a2.915,2.915,0,0,1,1.455,1.308,2.666,2.666,0,0,1,.021,2.843,2.884,2.884,0,0,0,.284-.144,2.529,2.529,0,0,0,1.094-3.34,2.32,2.32,0,0,0-2.716-1.017A.233.233,0,0,0,448.8,555.975Z" transform="translate(-444.992 -554.038)" fill="#272626"/>
      <path id="Caminho_7285" data-name="Caminho 7285" d="M379.464,615.831a2.944,2.944,0,0,1-1.276,1.491,2.494,2.494,0,0,1-2.773.021,2.989,2.989,0,0,0,.141.291,2.409,2.409,0,0,0,3.258,1.122,2.435,2.435,0,0,0,.992-2.784A.224.224,0,0,0,379.464,615.831Z" transform="translate(-374.454 -611.938)" fill="#272626"/>
      <path id="Caminho_7286" data-name="Caminho 7286" d="M353.5,547.284a2.915,2.915,0,0,1-1.455-1.308,2.666,2.666,0,0,1-.021-2.843,2.855,2.855,0,0,0-.284.144,2.529,2.529,0,0,0-1.094,3.34,2.32,2.32,0,0,0,2.716,1.017A.233.233,0,0,0,353.5,547.284Z" transform="translate(-350.379 -542.125)" fill="#272626"/>
      <path id="Caminho_7287" data-name="Caminho 7287" d="M448.8,555.975a2.915,2.915,0,0,1,1.455,1.308,2.666,2.666,0,0,1,.021,2.843,2.884,2.884,0,0,0,.284-.144,2.529,2.529,0,0,0,1.094-3.34,2.32,2.32,0,0,0-2.716-1.017A.233.233,0,0,0,448.8,555.975Z" transform="translate(-444.992 -554.038)" fill="#272626"/>
      <g id="Grupo_6106-2" data-name="Grupo 6106" transform="translate(7.651 0.712)">
        <rect id="Retângulo_2405" data-name="Retângulo 2405" width="1.141" height="5.373" transform="translate(11.018 0.195)" fill="#272626"/>
        <path id="Caminho_7289" data-name="Caminho 7289" d="M984.976,575.644a3.679,3.679,0,0,0-.08-.806,1.629,1.629,0,0,0-.263-.607,1.169,1.169,0,0,0-.475-.382,1.751,1.751,0,0,0-.716-.131,1.5,1.5,0,0,0-1.236.543,2.409,2.409,0,0,0-.439,1.548,2.382,2.382,0,0,0,.446,1.548,1.658,1.658,0,0,0,1.36.543,2.545,2.545,0,0,0,.764-.1,2.626,2.626,0,0,0,.5-.2l-.132-.847-.486.146a2.029,2.029,0,0,1-.574.079,1.208,1.208,0,0,1-.329-.038.414.414,0,0,1-.208-.127.571.571,0,0,1-.113-.24,1.91,1.91,0,0,1-.044-.383h2.026Zm-1.06-.21h-.965a1.8,1.8,0,0,1,.117-.7.475.475,0,0,1,.746-.041,1.147,1.147,0,0,1,.1.573Z" transform="translate(-965.18 -572.229)" fill="#272626"/>
        <rect id="Retângulo_2406" data-name="Retângulo 2406" width="1.141" height="3.988" transform="translate(12.543 1.579)" fill="#272626"/>
        <path id="Caminho_7290" data-name="Caminho 7290" d="M875.991,535.789a.682.682,0,0,0-.88,0,.57.57,0,0,0-.185.454.558.558,0,0,0,.185.45.693.693,0,0,0,.88,0,.557.557,0,0,0,.185-.45A.57.57,0,0,0,875.991,535.789Z" transform="translate(-862.442 -535.628)" fill="#272626"/>
        <path id="Caminho_7291" data-name="Caminho 7291" d="M917.748,539.089a.277.277,0,0,1,.1-.246.562.562,0,0,1,.307-.064h.483l.058-.682a1.507,1.507,0,0,0-.333-.122,2.049,2.049,0,0,0-.538-.063,1.1,1.1,0,0,0-.922.37,1.677,1.677,0,0,0-.292,1.059v.068h-.431v.778h.431v3.2h1.141v-3.2h.812v-.778h-.812Z" transform="translate(-902.108 -537.821)" fill="#272626"/>
        <path id="Caminho_7292" data-name="Caminho 7292" d="M552.478,555.025a1.539,1.539,0,0,1-.559.1,1,1,0,0,1-.34-.056.556.556,0,0,1-.267-.209,1.189,1.189,0,0,1-.172-.423,3.155,3.155,0,0,1-.062-.688v-.427a3.125,3.125,0,0,1,.051-.628.875.875,0,0,1,.154-.367.5.5,0,0,1,.256-.172,1.252,1.252,0,0,1,.351-.045,2.431,2.431,0,0,1,.57.063q.263.064.585.176l.117-1.018a2.623,2.623,0,0,0-.545-.194,2.937,2.937,0,0,0-.72-.082,2.376,2.376,0,0,0-1.009.191,1.714,1.714,0,0,0-.662.527,2.1,2.1,0,0,0-.358.8,4.738,4.738,0,0,0,0,1.994,2.236,2.236,0,0,0,.354.812,1.724,1.724,0,0,0,.647.546,2.215,2.215,0,0,0,.991.2,2.587,2.587,0,0,0,.794-.116,3.511,3.511,0,0,0,.6-.243l-.234-.965Q552.731,554.927,552.478,555.025Z" transform="translate(-549.762 -550.445)" fill="#272626"/>
        <path id="Caminho_7293" data-name="Caminho 7293" d="M745.392,573.713a1.35,1.35,0,0,0-.594.127l-.426.495-.327-.533h-.8v3.988h1.141v-3.036a2.9,2.9,0,0,1,.29-.078,1.22,1.22,0,0,1,.253-.026q.379,0,.379.292v2.849h1.141v-2.759a1.607,1.607,0,0,0-.257-.971A.927.927,0,0,0,745.392,573.713Z" transform="translate(-735.817 -572.224)" fill="#272626"/>
        <path id="Caminho_7294" data-name="Caminho 7294" d="M646.3,573.713a1.529,1.529,0,0,0-1.269.544,2.952,2.952,0,0,0,0,3.085,1.724,1.724,0,0,0,2.534,0,2.458,2.458,0,0,0,.439-1.559,2.369,2.369,0,0,0-.439-1.526A1.532,1.532,0,0,0,646.3,573.713Zm.519,2.185a5.114,5.114,0,0,1-.026.568,1.144,1.144,0,0,1-.084.346.325.325,0,0,1-.161.169.719.719,0,0,1-.5,0,.328.328,0,0,1-.157-.173,1.205,1.205,0,0,1-.084-.353,5.322,5.322,0,0,1-.025-.579V575.7q0-.346.022-.56a1.022,1.022,0,0,1,.081-.335.31.31,0,0,1,.161-.162.691.691,0,0,1,.256-.041.662.662,0,0,1,.252.041.327.327,0,0,1,.161.166,1.008,1.008,0,0,1,.084.342q.022.218.022.579Z" transform="translate(-640.953 -572.224)" fill="#272626"/>
      </g>
      <path id="Caminho_7295" data-name="Caminho 7295" d="M353.5,547.284a2.915,2.915,0,0,1-1.455-1.308,2.666,2.666,0,0,1-.021-2.843,2.855,2.855,0,0,0-.284.144,2.529,2.529,0,0,0-1.094,3.34,2.32,2.32,0,0,0,2.716,1.017A.233.233,0,0,0,353.5,547.284Z" transform="translate(-350.379 -542.125)" fill="#272626"/>
    </g>
  </g>
</svg>
