<svg xmlns="http://www.w3.org/2000/svg" width="61.421" height="46.066" viewBox="0 0 61.421 46.066">
    <path id="prefix__email" d="M55.663 59.882H5.758A5.765 5.765 0 0 0 0 65.64v34.549a5.765 5.765 0 0 0 5.758 5.758h49.9a5.765 5.765 0 0 0 5.758-5.758V65.64a5.765 5.765 0 0 0-5.753-5.758zm0 3.839a1.908 1.908 0 0 1 .736.149L30.71 86.133 5.022 63.869a1.91 1.91 0 0 1 .736-.149zm0 38.388H5.758a1.921 1.921 0 0 1-1.919-1.919V67.925l25.614 22.2a1.922 1.922 0 0 0 2.516 0l25.614-22.2v32.264a1.921 1.921 0 0 1-1.92 1.92z" transform="translate(0 -59.882)"/>
</svg>
