<svg height="1058.641" viewBox="0 0 1520.057 1058.641" width="1520.057" xmlns="http://www.w3.org/2000/svg" xmlns:xlink="http://www.w3.org/1999/xlink"><linearGradient id="a" gradientUnits="objectBoundingBox" x1=".5" x2=".5" y1="1"><stop offset="0" stop-color="#808080" stop-opacity=".251"/><stop offset=".54" stop-color="#808080" stop-opacity=".122"/><stop offset="1" stop-color="#808080" stop-opacity=".102"/></linearGradient><linearGradient id="b" x1=".495" x2=".495" xlink:href="#a" y1="1.014" y2="0"/><linearGradient id="c" x1=".5" x2=".5" xlink:href="#a" y1="1" y2="0"/><circle cx="152.276" cy="105.64" fill="#ff7d00" r="74.401"/><path d="m248.667 376.359c31.239 70.56-8.61 151.811-55.517 212.993-15.7 20.517-33.031 42.026-35.208 67.759-2.625 31.479 18.692 60.414 43.978 79.33 46.122 34.472 109.113 45.13 164.005 27.734 47.435-15.028 87.316-48.971 135.167-62.654 80.019-22.921 164.838 15.079 233.366 62.414 48.507 33.464 100.455 74.241 158.932 67.071 41.145-5.041 76.065-33.928 99.767-67.935 11.443-16.42 21.4-34.824 38.057-45.9 9.906-6.593 21.541-10.082 33.176-12.579 106.248-22.709 219.01 32.712 323.85 4.209 70.816-19.2 127.277-75.217 162.389-139.664s51.5-137.215 65.151-209.312c9.7-51.212 17.748-106.536-4.545-153.635-23.59-49.867-78.194-80.1-133.071-85.764s-109.913 9.97-160.469 32.023c-63.166 27.622-125.085 66.287-194.028 66.415-46.955.1-91.733-17.924-136.623-31.671-75.057-22.965-153.107-34.376-230.885-44.906-74.465-10.082-149.666-19.46-224.579-13.507-53 4.209-99.815 24.47-151.251 33.848-33.528 6.113-67.215 1.6-100.119 11.843-40.521 12.675-82.195 42.042-84.435 88.292-2.113 44.028 36.325 76.163 52.892 113.596z" fill="#001f40" opacity=".1" transform="translate(-105.481 -119.26)"/><path d="m897.145 361.311c-6.834-17.812-24.454-59.678-36.056-51.372-14.659 10.5 14.659 56.877 14.659 56.877.832 8.514-15.652 26.23-24.486 35.064v-1.1a3.853 3.853 0 0 1 -.384.96l-.736-.4a4.805 4.805 0 0 1 -1.04 1.9 18.752 18.752 0 0 0 -.08-1.9c-1.7 7.186-31.3 16.292-31.3 16.292h-2.177c-8.226 0-29.639-1.856-39.561-17.732a87.8 87.8 0 0 0 -19.412-22.645 16.532 16.532 0 0 0 -9.2-3.489c-27.414-1.761-49.611-15.636-54.044-18.6l-.816-.56-.176.512c-1.04-1.488-2.049-3.073-2.993-4.705l-.48-.88a40.2 40.2 0 0 0 22.165-35.752v-.832a27.381 27.381 0 0 0 3.681-13.715v-4.8l6.257-5.569c2.865-2.545 5.826-5.233 7.282-8.738a10.358 10.358 0 0 0 .768-4.481 7.761 7.761 0 0 0 -2.945-6.946c-4.8-3.313-12.8 0-16.276-4.609-1.6-2.08-1.312-4.913-2.1-7.362-1.6-4.977-7.361-7.666-12.691-7.746s-10.434 1.856-15.555 3.313a91.333 91.333 0 0 1 -33.128 3.1 21.639 21.639 0 0 0 -9.074.32 12.5 12.5 0 0 0 -7.362 8.562 20.11 20.11 0 0 0 -.7 4.385 27.589 27.589 0 0 0 -6.946 18.26v12.307a27.575 27.575 0 0 0 6.642 17.908 40.01 40.01 0 0 0 16.756 29.191v.976l.208.128a66.171 66.171 0 0 1 -1.76 11.315v-.816s-22.405 11.923-46.41 12.211h-2.641a17.877 17.877 0 0 0 -12.8 4.8c-7.105 6.689-19.556 17.268-27.206 17.268-1.6 0-41.994 7.89-48.683 9.2l-12.5-12.243-.384.72-.736-.72a30.4 30.4 0 0 0 -4.065.592c-6.4-7.586-19.2-25.222-22.165-48.891 0 0 27.638-31.479 17.476-60.814-8.674-25-32.567 28.582-39.353 44.73a12.9 12.9 0 0 0 -.416 8.882l22.453 72.368a33.947 33.947 0 0 0 -1.776 17.6h-.256l16.356 20.981s12.307 5.249 31.559 5.153a110.329 110.329 0 0 0 41.194-7.906h3.793l-.72.272h19.477l12.387 37.465c-.416 3.409-6.4 50.988-11.2 61.63a26.745 26.745 0 0 0 -1.889 11.2 85.515 85.515 0 0 0 3.569 21.685l10.85-.4-.416.848c-9.186 18.836-24.534 52.4-33.608 83.763l-15.8 32.007 11.835 143.567h.48l.912.144c1.28.192 3.2.48 5.73.8l-.928 1.6-26.1 43.21s-18.612 38.1 22.565 30.919c0 0 15.22-4.417 21.429-30.407l27.078-25.4s1.265-16.868-6.4-23.605c-.48-7.794-1.7-30.551.176-36.024 2.256-6.626-9.6-82.819-9.6-82.819s42.858-88.9 68.816-91.109a14.229 14.229 0 0 1 5.617.736c21.333 6.945 47.179 58.525 54.78 74.577l.352.736v.144l.288.624v.176l.256.544v.144l.224.5v.112l.192.4v.16l.144.3v.128l.1.224v.272l.08.192 3.377 99.943.336.176h.16l-.288 2.065-1.486 10.324s18.612 39.209 17.476 44.17 12.4 24.854 31.575 19.333 7.762-36.649 7.762-36.649l-18.468-38.057-.816-1.7a36.292 36.292 0 0 0 5.185-3.857s-5.633-40.857 0-49.691 7.33-49.147 7.33-49.147-3.953-27.606-10.722-39.753l-28.355-101.22c8.5 7.906 15.108 10.995 20.629 10.786h.912a13.78 13.78 0 0 0 6.946-1.728 19.583 19.583 0 0 0 3.2-2.256 5.05 5.05 0 0 0 .528-.528c7.89-6.626-9.026-32.583-18.612-48.011-9.234-14.883 3.489-55.325 4.449-58.333a15.267 15.267 0 0 1 2.737-1.6 16.883 16.883 0 0 1 6.273-1.36c9.186.32 20.485 5.6 34.472 8.258a162.64 162.64 0 0 0 29.431 2.289h.576c3.921 0 7.474-.08 10.354-.192a17.5 17.5 0 0 0 7.522-2.033 22.708 22.708 0 0 0 5.345-4.321l24.55-27.734-.64.3a13.8 13.8 0 0 0 0-9.762l25.942-44.81a17.045 17.045 0 0 0 1.264-14.769z" fill="url(#a)" transform="translate(66.148 -41.382)"/><path d="m572.136 635.1-26.136 25.047c-5.985 25.606-20.693 29.943-20.693 29.943-39.737 7.073-21.781-30.407-21.781-30.407l25.206-42.65 3.1-5.265s17.972-5.441 29.943-2.176a10.244 10.244 0 0 1 4.081 2.208c7.512 6.514 6.28 23.3 6.28 23.3z" fill="#444176" transform="translate(99.698 174.491)"/><path d="m663.323 669.913c-18.516 5.441-31.575-14.147-30.407-19.06s-16.916-43.499-16.916-43.499l1.409-10.178 1.312-9.426 30.407 2.176 2.865 6.017 17.828 37.529s12.018 30.999-6.498 36.441z" fill="#444176" transform="translate(169.652 162.004)"/><path d="m555.171 616.087c-2.865 4.913-26.086 2.433-37.4.9l3.1-5.265s17.972-5.441 29.943-2.176a10.243 10.243 0 0 1 4.081 2.208c.164 2.652.276 4.333.276 4.333z" opacity=".1" transform="translate(110.678 174.461)"/><path d="m651.508 595.924c-15.571 10.37-32.151 2.528-34.648 1.232l1.312-9.426 30.407 2.176z" opacity=".1" transform="translate(170.168 161.992)"/><path d="m721.791 637.848c-5.441 8.706 0 49 0 49-17.972 16.343-39.191 4.352-39.191 4.352l-3.2-98.535s-35.384-81.122-60.43-78.946-66.415 89.828-66.415 89.828 11.427 75.121 9.25 81.619 0 38.1 0 38.1c-3.809 6.53-43.546 0-43.546 0l-11.429-141.543 15.17-31.591c8.722-30.919 23.541-64.015 32.407-82.579 4.4-9.234 7.346-14.867 7.346-14.867l28.966-6.033 94.022-19.492 33.784 122.972c6.53 11.971 10.338 39.193 10.338 39.193s-1.631 39.816-7.072 48.522z" fill="#565387" transform="translate(104.11 65.592)"/><g opacity=".1" transform="translate(610.876 492.688)"><path d="m647.2 658.747-3.2-98.535s-35.384-81.123-60.43-78.946a13.626 13.626 0 0 0 -3.281.736c24.422 8.114 55 78.21 55 78.21l3.2 98.534a38.405 38.405 0 0 0 21.653 3.953 38.516 38.516 0 0 1 -12.942-3.952z" transform="translate(-462.663 -394.639)"/><path d="m526.922 723.348-11.422-141.548 15.236-31.639c8.722-30.919 23.541-64.015 32.407-82.579 4.4-9.234 7.346-14.867 7.346-14.867l28.967-6.033 85.827-17.844-.464-1.712-94.07 19.556-28.967 6.033s-2.945 5.633-7.345 14.867c-8.9 18.564-23.686 51.724-32.408 82.579l-15.239 31.57 11.426 141.552s21.7 3.569 34.568 2.785a257.193 257.193 0 0 1 -25.862-2.72z" transform="translate(-506.79 -427.12)"/></g><path d="m488.165 338.21s-31.031 1.6-26.678 34.3l8.706 1.088 13.059-14.147 6.53-11.971v-2.721z" fill="#ced2df" transform="translate(76.637 12.189)"/><path d="m488.165 338.21s-31.031 1.6-26.678 34.3l8.706 1.088 13.059-14.147 6.53-11.971v-2.721z" opacity=".1" transform="translate(76.637 12.189)"/><path d="m694.3 345.69s25.606 13.6 19.06 29.4l-8.162 3.2-10.877-5.99-1.6-14.147 1.088-9.794z" fill="#ced2df" transform="translate(215.712 16.68)"/><path d="m694.3 345.69s25.606 13.6 19.06 29.4l-8.162 3.2-10.877-5.99-1.6-14.147 1.088-9.794z" opacity=".1" transform="translate(215.712 16.68)"/><rect fill="#88455e" height="67.503" rx="21.09" width="89.284" x="690.078" y="221.906"/><path d="m495.55 385.628-19.06 30.407-1.6-5.409-25.89-84.372a12.979 12.979 0 0 1 .4-8.754c6.545-15.907 29.623-68.816 37.993-44.09 9.79 28.807-16.893 59.89-16.893 59.89 3.041 25.222 17.2 43.5 22.773 49.835 1.413 1.644 2.277 2.493 2.277 2.493z" fill="#ec8c9c" transform="translate(69.043 -30.603)"/><path d="m691.16 385.579s29.943-28.311 28.807-39.737c0 0-28.31-45.722-14.147-56.013 11.2-8.194 28.215 33.1 34.808 50.651a17.124 17.124 0 0 1 -1.136 14.4l-35.784 63.358z" fill="#ec8c9c" transform="translate(214.776 -17.495)"/><path d="m574.907 299.964s5.441 34.84-10.338 47.915 45.195 12.995 45.195 12.995l21.781-20.149s-25.045-23.413-17.429-40.825z" fill="#ec8c9c" transform="translate(137.208 -10.811)"/><path d="m586.231 325.587s23.413 17.428 46.811-2.176l38.1 78.946-2.176 96.358s-78.946 40.825-111.609 15.8-5.441-38.1-5.441-38.1l-7.616-74.043 8.162-47.915s14.691-22.869 15.8-22.869 17.969-6.001 17.969-6.001z" opacity=".1" transform="translate(124.796 3.304)"/><path d="m586.225 324.906s23.413 17.46 46.827-2.176l38.1 78.946-2.177 96.358s-78.946 40.825-111.609 15.8-5.441-38.1-5.441-38.1l-7.618-74.033 8.162-47.915s14.691-22.869 15.8-22.869 17.956-6.011 17.956-6.011z" fill="#ebf1f6" transform="translate(124.802 2.896)"/><path d="m633.909 319s-22.2 12.643-46.3 12.019a17.06 17.06 0 0 0 -12.307 4.7c-6.865 6.594-18.884 17.028-26.326 17.028-1.6 0-47.915 9.25-47.915 9.25l-12.241-12.238s-18.244 35.656-26.95 34.024l15.8 20.693s29.943 13.059 69.136-2.72h22.869l11.971 37.016s-5.985 50.091-10.883 60.974 1.6 32.119 1.6 32.119l43-1.6s2.177-21.237 5.441-24.005-11.428-96.36-11.428-96.36-9.794-52.812 26.134-71.856z" opacity=".1" transform="translate(77.118 .656)"/><path d="m572.856 439.38a142.1 142.1 0 0 0 -3.377 19.636l-32.92 1.248c4.4-9.234 7.346-14.867 7.346-14.867z" opacity=".1" transform="translate(121.959 72.928)"/><path d="m485.621 342.043-19.061 30.407-1.6-5.409c6.994-6.946 15.188-21.461 18.452-27.51a32.31 32.31 0 0 0 2.209 2.512z" opacity=".1" transform="translate(78.973 12.982)"/><path d="m634.336 319s-23.3 12.643-47.387 12.019a17.06 17.06 0 0 0 -12.307 4.7c-6.865 6.594-18.884 17.028-26.326 17.028-1.6 0-47.915 9.25-47.915 9.25l-12.291-12.254s-18.244 35.656-26.95 34.024l15.8 20.693s29.943 13.059 69.136-2.721h22.869l11.971 37s-5.985 50.091-10.882 60.974 1.6 32.119 1.6 32.119l43-1.6s2.177-21.237 5.441-24.005-11.427-96.358-11.427-96.358-9.794-52.812 26.134-71.856z" fill="#ced2df" transform="translate(76.692 .656)"/><path d="m601.446 316.94s22.213 16.932 51.868 18.884a15.764 15.764 0 0 1 8.882 3.441 85.962 85.962 0 0 1 18.74 22.405c11.971 19.6 41.37 17.428 41.37 17.428s28.582-8.978 30.215-16c0 0 .816 38.409 18.788 29.127l-23.638 27.235a16.675 16.675 0 0 1 -11.923 5.745c-8.882.352-24.31.464-37.337-2.064-19.6-3.809-33.752-13.059-44.09-4.9 0 0-13.6 42.458-4.353 57.709s25.606 40.825 17.972 47.371-16.884 5.985-32.12-9.794-16.883-42.458-16.883-42.458l3.808-68.592s-14.691-51.724-28.806-62.062z" opacity=".1" transform="translate(156.408 -.58)"/><path d="m772.677 391.335-23.7 27.35a16.657 16.657 0 0 1 -5.713 4.257 16.592 16.592 0 0 1 -6.177 1.456c-8.882.368-24.309.48-37.336-2.065-18.341-3.569-31.911-11.891-42.058-6.273a14.873 14.873 0 0 0 -2.049 1.36s-13.6 42.458-4.353 57.709 25.606 40.825 17.972 47.371a17.591 17.591 0 0 1 -4.263 2.77c-6.85 3.089-15.348.416-27.863-12.563-15.235-15.8-16.884-42.458-16.884-42.458l3.809-68.592s-14.687-51.724-28.802-62.057l6.226-22.325c4.289 2.913 25.7 16.6 52.171 18.34a15.763 15.763 0 0 1 8.882 3.441 86.034 86.034 0 0 1 18.74 22.405c11.971 19.6 41.369 17.428 41.369 17.428a158.824 158.824 0 0 0 20.6-8.194c4.177-2.048 7.858-4.289 9.6-6.4a4.8 4.8 0 0 0 1.04-1.921s.833 38.211 18.789 28.961z" opacity=".1" transform="translate(157.201 -.382)"/><path d="m772.015 392.071-23.685 27.382a16.664 16.664 0 0 1 -4.609 3.713 16.609 16.609 0 0 1 -7.265 2c-8.882.368-24.31.48-37.337-2.064-17.684-3.441-30.951-11.315-40.953-6.818a14.8 14.8 0 0 0 -3.2 1.9s-13.6 42.458-4.353 57.709 25.606 40.825 17.972 47.371a18.872 18.872 0 0 1 -3.2 2.225c-7.041 3.889-15.747 1.6-28.95-12.019-15.236-15.8-16.884-42.458-16.884-42.458l3.809-68.592s-14.695-51.72-28.81-62.057l6.529-23.413.784.544c4.289 2.913 25.7 16.6 52.172 18.34a15.765 15.765 0 0 1 8.882 3.441 86.049 86.049 0 0 1 18.74 22.405c11.971 19.6 41.369 17.428 41.369 17.428a158.9 158.9 0 0 0 20.6-8.194c4.945-2.528 8.978-5.3 9.6-7.826v1.376c.48 6.61 2.881 35.785 18.789 27.607z" fill="#ced2df" transform="translate(156.774 -.574)"/><path d="m609.859 300.45h-40.009a97.884 97.884 0 0 1 .752 19.2 41.131 41.131 0 0 0 42.282 3.041c-3.841-7.101-6.177-15.167-3.025-22.241z" opacity=".1" transform="translate(141.945 -10.48)"/><circle cx="736.073" cy="276.078" fill="#ec8c9c" r="39.737"/><path d="m591.536 308.249c4.433-.528 8.866-2.1 13.235-1.216 3.969.8 7.346 3.537 11.315 4.369 7.65 1.6 14.755-4.033 20.533-9.282l12.481-11.363c2.769-2.513 5.617-5.153 7.041-8.61s.928-8-2.113-10.178c-4.561-3.2-12.419 0-15.716-4.545-1.488-2.048-1.264-4.8-2.032-7.25-1.6-4.9-7.106-7.57-12.259-7.634s-10.082 1.824-15.011 3.2a86.421 86.421 0 0 1 -32.01 3.06 20.451 20.451 0 0 0 -8.754.3 12.243 12.243 0 0 0 -7.106 8.434c-2.464 8.706 1.745 22.741 5.97 30.535s15.99 11.221 24.426 10.18z" opacity=".1" transform="translate(136.28 -39.245)"/><path d="m591.536 307.569c4.433-.528 8.866-2.1 13.235-1.216 3.969.8 7.346 3.537 11.315 4.369 7.65 1.6 14.755-4.033 20.533-9.282l12.481-11.362c2.769-2.513 5.617-5.153 7.041-8.61s.928-8-2.113-10.178c-4.561-3.2-12.419 0-15.716-4.545-1.488-2.048-1.264-4.8-2.032-7.25-1.6-4.9-7.106-7.57-12.259-7.634s-10.082 1.824-15.011 3.2a86.418 86.418 0 0 1 -32.01 3.057 20.453 20.453 0 0 0 -8.754.3 12.244 12.244 0 0 0 -7.106 8.434c-2.464 8.706 1.745 22.741 5.97 30.535s15.99 11.143 24.426 10.182z" fill="#88455e" transform="translate(136.28 -39.653)"/><path d="m536.55 394s8.706 1.088 13.059 6.529 11.971 7.071 11.971 7.071" opacity=".1" transform="translate(121.953 45.684)"/><path d="m487.676 349.09s7.106 15.86 2.721 17.46-2.721 13.059-2.721 13.059" opacity=".1" transform="translate(92.425 18.721)"/><g opacity=".1" transform="translate(582.054 319.912)"><path d="m489.276 357.106s46.267-9.25 47.867-9.25c7.458 0 19.46-10.434 26.326-17.028a16.8 16.8 0 0 1 7.458-4.145h-.592a17.06 17.06 0 0 0 -12.307 4.7c-6.865 6.594-18.884 17.028-26.326 17.028-1.3 0-30.9 5.874-42.922 8.258z" transform="translate(-488.78 -314.648)"/><path d="m582.714 321.192v-2.032a115.519 115.519 0 0 1 -35.464 11.347 109.6 109.6 0 0 0 35.464-9.314z" transform="translate(-453.677 -319.16)"/><path d="m543.782 500.63s-6.529-21.237-1.6-32.119 10.883-60.974 10.883-60.974l-11.94-37.017h-22.933l-1.392.544h18.8l11.927 37.036s-5.985 50.091-10.883 60.974 1.6 32.119 1.6 32.119l43-1.6v-.336z" transform="translate(-471.958 -288.325)"/></g><g opacity=".1" transform="translate(776.866 391.529)"><path d="m659.545 458.879a18.88 18.88 0 0 1 -3.2 2.224c-7.042 3.889-15.748 1.6-28.951-12.019-12.1-12.531-15.619-32.007-16.564-39.385l-.32 5.633s1.6 26.678 16.884 42.458c13.2 13.667 21.909 15.908 28.951 12.019a18.89 18.89 0 0 0 3.2-2.225c2.288-1.969 2.416-5.665 1.216-10.274a5.049 5.049 0 0 1 -1.216 1.569z" transform="translate(-610.51 -336.419)"/><path d="m744.281 364.694-15.411 17.812a16.653 16.653 0 0 1 -4.609 3.713 16.613 16.613 0 0 1 -7.266 2c-8.882.368-24.31.48-37.337-2.065-17.684-3.441-30.951-11.315-40.953-6.818a14.8 14.8 0 0 0 -3.2 1.9s-8.786 27.43-7.442 46.107c1.04-17.46 7.442-37.4 7.442-37.4a14.8 14.8 0 0 1 3.2-1.9c10.018-4.5 23.269 3.377 40.953 6.818 13.027 2.529 28.439 2.417 37.337 2.065a16.614 16.614 0 0 0 7.266-2 16.661 16.661 0 0 0 4.609-3.665l23.7-27.35a9.33 9.33 0 0 1 -8.289.783z" transform="translate(-600.056 -363.91)"/></g><path d="m265.74 486.89a1.232 1.232 0 0 0 1.456.192 4.959 4.959 0 0 1 -1.456-.192z" fill="url(#b)" transform="translate(-40.632 101.452)"/><path d="m513.281 351.417c-2.881-.832-6.994-2.192-11.939-3.921a62.607 62.607 0 0 0 11.058-22.277l-.416.16c.144-.5.288-.976.416-1.488-9.49 3.857-19.989-2.673-26.678-11.058s-11.2-18.788-18.532-26.5a84.819 84.819 0 0 0 -9.826-8.466c-2.161-1.6-4.481-3.409-7.122-3.489-4.273-.128-7.618 4.065-11.731 5.3a16 16 0 0 1 -8.178-.3c-10.611-2.432-20.8-6.929-31.639-8.114a37.08 37.08 0 0 0 -17.172 1.937c-5.441 2.064-7.922 6.177-12.323 9.474-4.8 3.537-14.179 3.457-19.765 4.081a141.583 141.583 0 0 1 -20.421.848 47.8 47.8 0 0 0 -11.747.432c-8.114 1.776-14.627 8.226-20.709 14.4a10.674 10.674 0 0 0 -3.425 5.361 6.774 6.774 0 0 0 0 1.776 11.539 11.539 0 0 0 .816 4.721 62.411 62.411 0 0 0 7.858 15.636c2.48 3.553 5.377 6.9 6.786 11.107a21.553 21.553 0 0 1 1.04 6.4 46.55 46.55 0 0 1 -.72 6.882 86.416 86.416 0 0 1 -5.265 18.324 33.291 33.291 0 0 0 -3.073 9.6 15.3 15.3 0 0 0 0 2.048c-.4 10.562 10.258 18.164 12.323 28.663a17.129 17.129 0 0 1 .3 2.641c-.224 6.546-3.953 12.947-9.458 15.491.48.192.976.352 1.472.512a13.335 13.335 0 0 1 -1.472.8 29.855 29.855 0 0 0 3.073.992 71.382 71.382 0 0 0 -15.539 19.2c-18.516 34.472-143.921 101.991-143.921 101.991l1.856 1.056-1.5.976c-10.85 7.218-36.312 28.262-13.3 54.877 0 0 17.972-28.359 30.567-40.441.56-.544 1.12-1.04 1.6-1.5a3.682 3.682 0 0 1 .48 2.913l82.451-46.331s29.3-20.517 37.481-25.142a67.454 67.454 0 0 1 18.58-8l-.96.4a37.633 37.633 0 0 1 9.458-1.344c14.6.224 30.407 10.914 35.608 53.244 6.978 56.685 3.745 66.911 1.5 68.3a4.12 4.12 0 0 1 -.816-.144 1.388 1.388 0 0 0 .224.16 4.284 4.284 0 0 1 -.9-.16 1.28 1.28 0 0 0 1.216.288 1.136 1.136 0 0 0 .912-.112 9.468 9.468 0 0 0 1.1 0 11.756 11.756 0 0 1 -.112 1.6c-.112 0-.656.3 0 .336-.176 3.2-.16 6.674 0 10.306-7.25.4-14.5.832-20.8 1.216l.56-2.992.256-1.344c5.569-.448 10.85-2.08 11.475-6.593 1.36-9.922-12.259-15.22-23.845-15.876s-81.074 3.969-81.074 3.969-10.418 13.491 22.629 17.6q1.472.768 3.057 1.6c12.947 7.378 30.5 20.965 38.921 27.654l1.168.928-3.777 3.073c20.437 4.625 40.2 82.723 51.1 118.427s34.744 34.408 54.509 29.111c18.516-4.961 20.8-58.733 21.109-65.487v-.688l32.935 40.681 2.5 3.089q1.44.752 2.849 1.408c24.934 11.859 52.476-10.883 44.65-36.808-7.922-26.134-20.213-64.783-28.406-81.122-6.866-13.683-15.732-36.408-21.109-50.636a17.079 17.079 0 0 0 2.032-.976s-.128-.64-.336-1.808l.336-.176s-8-41.161-8.354-70.416v-2.545c5.953-1.36 9.73-1.888 9.73-1.888l.112-1.28-.688.144 3.313-37.913s12.163-25.878 2.849-36.648a22.63 22.63 0 0 1 -5.457-11.2c-1.6-9.907 0-26.438 21.685-40.169 33.384-21.173 46.411-38.409 46.411-38.409s.581-12.354-19.856-18.372zm-66.3 26.31v-17.527c6.193-.3 12.515.416 18.74 0a47.435 47.435 0 0 0 9.042-1.52l1.5 1.04a164.824 164.824 0 0 1 -29.285 18.007zm-94.665 274.687c2.449 1.7 4.913 3.457 7.33 5.233 1.5 8.642 2.833 14.739 2.929 15.171a119.8 119.8 0 0 0 -10.259-20.404z" fill="url(#c)" transform="translate(-125.08 -28.176)"/><path d="m328.732 500.32-1.44 7.826-1.1 5.985-2.016 10.947-19.557 13.683s-1.76-1.5-4.673-3.889c-8-6.594-24.854-19.973-37.225-27.206a41.61 41.61 0 0 0 -10.226-4.721z" fill="#ffbdc6" transform="translate(-48.587 109.515)"/><path d="m328.737 500.32-1.44 7.826a60.819 60.819 0 0 1 -12.9-.656l-45.626.656c-2.161-.128-4.177-.3-6.065-.5a41.606 41.606 0 0 0 -10.226-4.721z" opacity=".1" transform="translate(-48.593 109.515)"/><path d="m320.337 512.11s22.821 3.905 24.117-5.873-11.731-14.931-22.789-15.668-77.586 3.937-77.586 3.937-11.731 15.635 30.631 18.244z" fill="#7679b4" transform="translate(-54.531 103.613)"/><path d="m328.732 500.32-1.44 7.826-1.1 5.985-2.016 10.947-19.557 13.683s-1.76-1.5-4.673-3.889c-8-6.594-24.854-19.973-37.225-27.206a41.61 41.61 0 0 0 -10.226-4.721z" opacity=".1" transform="translate(-48.587 109.515)"/><path d="m328.737 500.32-1.44 7.826a60.819 60.819 0 0 1 -12.9-.656l-45.626.656c-2.161-.128-4.177-.3-6.065-.5a41.606 41.606 0 0 0 -10.226-4.721z" opacity=".1" transform="translate(-48.593 109.515)"/><path d="m320.337 512.11s22.821 3.905 24.117-5.873-11.731-14.931-22.789-15.668-77.586 3.937-77.586 3.937-11.731 15.635 30.631 18.244z" opacity=".1" transform="translate(-54.531 103.613)"/><path d="m0 0h119.275v141.44h-119.275z" fill="#a66477" transform="translate(196.382 294.355)"/><path d="m0 0h119.275v141.44h-119.275z" opacity=".1" transform="translate(196.382 294.355)"/><path d="m177.472 458.907c-1.968.5-4.465 2.384-7.266 5.137-12.051 11.907-29.239 39.833-29.239 39.833-22.021-26.214 2.352-46.939 12.8-54.06 2.533-1.729 4.233-2.657 4.233-2.657z" fill="#ffbdc6" transform="translate(-120.899 77.599)"/><path d="m323.041 331.09s5.873 41.065 26.07 50.843-26.07 28.022-26.07 28.022l-63.231-23.46s35.848-11.731 28.679-46.283z" fill="#ffbdc6" transform="translate(-44.192 7.915)"/><path d="m285.6 485.45-1.44 7.826-1.1 5.985-2.016 10.947-19.556 13.683s-1.76-1.5-4.673-3.889c-8-6.593-24.854-19.973-37.224-27.206a41.62 41.62 0 0 0 -10.226-4.721z" fill="#ffbdc6" transform="translate(-74.48 100.587)"/><path d="m285.607 485.45-1.44 7.826a60.823 60.823 0 0 1 -12.9-.656l-45.626.656c-2.16-.128-4.177-.3-6.065-.5a41.609 41.609 0 0 0 -10.226-4.721z" opacity=".1" transform="translate(-74.486 100.587)"/><path d="m277.173 497.212s22.821 3.9 24.117-5.873-11.731-15-22.821-15.635-77.57 3.9-77.57 3.9-11.731 15.635 30.631 18.244z" fill="#7679b4" transform="translate(-80.455 94.699)"/><path d="m265.216 494.264-2.016 10.947-19.556 13.683s-1.76-1.5-4.673-3.889l25.862-21.2z" opacity=".1" transform="translate(-56.704 105.6)"/><path d="m395.2 654.361q-1.344-.656-2.721-1.392l-2.385-3.041-31.5-40.009v.7c-.208 6.642-2.48 59.613-20.181 64.495-18.9 5.217-41.722 6.513-52.14-28.678s-29.326-112.103-48.883-116.664l29-23.8s19.2 22.405 27.046 43.978c-.288-1.376-13.555-63.326-2.609-74.273h95.158s14.659 41.834 24.774 62.574c7.842 16.1 19.6 54.156 27.206 79.906 7.521 25.481-18.757 47.886-42.765 36.204z" fill="#7679b4" transform="translate(-57.652 94.722)"/><path d="m374.18 517.221c-14.675 8.69-79.2 5.153-100.231 3.745l-5.713-.416c-.624 0 .1-.352.1-.352l.592-5.922 15.635-39.753 83.759-48.523c-1.7 5.105-2.272 12.931-2.128 21.909.416 28.775 7.986 69.312 7.986 69.312z" opacity=".1" transform="translate(-39.286 64.895)"/><path d="m374.439 516c-14.676 8.69-79.2 5.153-100.231 3.745l-5.713-.416h-.944l1.04-.272 5.153-1.36 11.075-44.33 83.763-48.555c-1.7 5.105-2.272 12.931-2.128 21.909.415 28.725 7.985 69.279 7.985 69.279z" fill="#f2f1f2" transform="translate(-39.545 64.181)"/><path d="m366.092 446.709c-17.028 3.921-54.508 15.459-68.912 43.21-9.6 18.532-17.6 26.486-23.317 29.815l-5.713-.416.1-.352 5.153-1.36 11.075-44.33 83.763-48.555c-1.733 5.248-2.293 13.01-2.149 21.988z" opacity=".1" transform="translate(-39.185 64.127)"/><path d="m149.795 447.17 19.556 11.73c-1.968.5-4.465 2.385-7.266 5.137-1.6-4.8-11.875-11.395-16.516-14.211 2.531-1.726 4.226-2.656 4.226-2.656z" opacity=".1" transform="translate(-112.778 77.605)"/><path d="m266.516 484.406a1.168 1.168 0 0 1 -1.376-.176 4.708 4.708 0 0 0 1.376.176z" opacity=".1" transform="translate(-40.992 99.855)"/><path d="m382.62 398.609s-17.6 1.953-29.991-11.074c0 0-52.14 15-69.744 48.891s-137.535 100.374-137.535 100.374 20.8 11.731 18.9 17.6l78.866-45.626s28.023-20.209 35.849-24.774 50.844-32.583 59.966 43.674 0 67.215 0 67.215 13.043 4.561 32.007-32.007 77.57-44.97 77.57-44.97l3.2-38.409s11.635-25.478 2.721-36.1a22.564 22.564 0 0 1 -5.217-11.026c-1.488-9.762 0-26.038 20.8-39.561 32.007-20.8 44.33-37.8 44.33-37.8s.656-12.387-18.9-18.244-99.079-37.8-99.079-37.8l-2.609 11.075 62.574 44.33s-31.287 25.414-56.013 24.773c-.091-.114 4.47 18.803-17.695 19.459z" fill="#565388" transform="translate(-112.91 -11.369)"/><path d="m315.767 348.264a128.085 128.085 0 0 1 -3.6-16l-34.552 9.186a38.089 38.089 0 0 1 -.784 19.925 37.16 37.16 0 0 0 38.937-13.123z" opacity=".1" transform="translate(-33.974 8.617)"/><circle cx="253.098" cy="332.155" fill="#ffbdc6" r="37.16"/><path d="m333.509 274.123c10.306 1.168 20.117 5.6 30.263 8a14.948 14.948 0 0 0 7.826.3c3.937-1.216 7.138-5.345 11.2-5.217 2.513 0 4.8 1.792 6.818 3.441a81.81 81.81 0 0 1 9.394 8.338c6.994 7.6 11.347 17.844 17.732 26.1s16.452 14.691 25.526 10.9c-6.161 24.006-26.39 42.362-48.251 43.85-8.722.592-17.6-1.216-26.1 1.344a22.849 22.849 0 0 1 -6.594 1.6c-4.8 0-8.77-4.465-11.811-8.8-7.106-10.21-12.8-21.8-20.8-31.1-2.641-3.073-5.761-6-9.49-6.562s-7.17 1.216-10.5 2.945c-5.489 2.849-11.107 5.793-15.363 10.658s-6.946 12.147-5.185 18.74c.944 3.553 3.121 6.754 3.2 10.482 0 5.921-5.153 10.258-6.193 16a61.786 61.786 0 0 0 -.256 7.3c-.464 7.906-5.617 14.4-11.026 19.349-2.1 1.936-4.433 4-5.041 6.994-.416 2.032 0 4.193-.272 6.257-.784 5.137-5.905 7.73-10.434 8.4a30.247 30.247 0 0 1 -15.652-1.842c6.4-2.993 10.226-11.523 8.754-19.2-2.016-10.578-12.643-18.164-11.747-28.951a33.5 33.5 0 0 1 2.945-9.522 87.139 87.139 0 0 0 5.025-18.052 30.582 30.582 0 0 0 -.3-14.4c-1.36-4.145-4.129-7.442-6.5-10.947a62.121 62.121 0 0 1 -7.522-15.411 10.8 10.8 0 0 1 -.72-5.089 10.547 10.547 0 0 1 3.2-5.281c5.825-6.1 12.067-12.451 19.813-14.211a44.439 44.439 0 0 1 11.2-.432 131.634 131.634 0 0 0 19.54-.832c5.345-.624 14.4-.544 18.916-4.033 4.209-3.2 6.593-7.282 11.795-9.33a34.521 34.521 0 0 1 16.61-1.786z" opacity=".1" transform="translate(-60.662 -26.483)"/><path d="m308.48 513.76s21.509 42.362 15 55.4" opacity=".1" transform="translate(-14.972 117.584)"/><path d="m344.763 602.859-31.5-40.009v.7s-1.824-12.931 4.177-8.578c13.139 9.506 34.168 25.094 34.616 27.783s-4.256 13.478-7.293 20.104z" opacity=".1" transform="translate(-12.254 141.791)"/><g opacity=".1" transform="translate(33.096 287.489)"><path d="m307.227 349.2s2.657 11.01-5.937 16.516c13.235-2.273 13.811-12.563 13.411-17.044a41.7 41.7 0 0 1 -7.474.528z" transform="translate(-52.385 -269.02)"/><path d="m152.946 500.565s119.931-66.479 137.535-100.375c12.627-24.326 43.05-38.9 59.214-45.21-11.795 3.953-51.484 19.108-66.4 47.819-17.6 33.9-137.535 100.375-137.535 100.375z" transform="translate(-145.76 -265.232)"/><path d="m330.771 373.909c20.4-6.4 39.913-22.2 39.913-22.2l-62.574-44.33 1.424-6.081-5.985-2.4-2.609 11.074 62.574 44.33a150.992 150.992 0 0 1 -32.743 19.607z" transform="translate(-52.595 -298.9)"/><path d="m319.83 442.428a155.069 155.069 0 0 1 24.534-6.193l.112-1.264a166.044 166.044 0 0 0 -24.646 7.457z" transform="translate(-41.255 -217.208)"/><path d="m292.282 527.226h-.576a1.168 1.168 0 0 1 -1.376-.176 4.8 4.8 0 0 0 1.376.176c2.144-1.248 5.361-10.978-1.376-67.311-7.2-60.142-35.464-55.421-50.94-48.507 15.812-4.353 37.577-.592 43.77 51.116 6.737 56.333 3.521 66.079 1.376 67.311a14.4 14.4 0 0 0 7.746-2.609z" transform="translate(-89.548 -233.719)"/><path d="m268.116 484.006a4.8 4.8 0 0 1 -1.376-.176 1.169 1.169 0 0 0 1.376.176z" transform="translate(-73.128 -187.874)"/></g><path d="m333.509 273.333c10.306 1.168 20.117 5.6 30.263 8a14.948 14.948 0 0 0 7.826.3c3.937-1.216 7.138-5.345 11.2-5.217 2.512 0 4.8 1.792 6.818 3.441a81.794 81.794 0 0 1 9.394 8.338c6.994 7.6 11.346 17.844 17.732 26.1s16.452 14.691 25.526 10.9c-6.161 24.005-26.39 42.362-48.251 43.85-8.722.592-17.6-1.216-26.1 1.344a22.852 22.852 0 0 1 -6.594 1.6c-4.8 0-8.77-4.465-11.811-8.8-7.106-10.21-12.8-21.8-20.8-31.1-2.641-3.073-5.761-6-9.49-6.561s-7.17 1.216-10.5 2.945c-5.489 2.849-11.107 5.793-15.364 10.658s-6.946 12.147-5.185 18.74c.944 3.553 3.121 6.754 3.2 10.483 0 5.921-5.153 10.258-6.193 16a61.807 61.807 0 0 0 -.256 7.3c-.464 7.906-5.617 14.4-11.026 19.348-2.1 1.936-4.433 4-5.041 6.994-.416 2.032 0 4.193-.272 6.258-.784 5.137-5.905 7.73-10.434 8.4a30.247 30.247 0 0 1 -15.652-1.856c6.4-2.993 10.226-11.523 8.754-19.2-2.016-10.578-12.643-18.164-11.747-28.951a33.495 33.495 0 0 1 2.945-9.522 87.15 87.15 0 0 0 5.025-18.052 30.582 30.582 0 0 0 -.3-14.4c-1.36-4.145-4.129-7.442-6.5-10.947a62.125 62.125 0 0 1 -7.522-15.412 10.8 10.8 0 0 1 -.72-5.089 10.546 10.546 0 0 1 3.2-5.281c5.825-6.1 12.067-12.451 19.813-14.211a44.42 44.42 0 0 1 11.2-.432 131.633 131.633 0 0 0 19.54-.832c5.345-.624 14.4-.544 18.916-4.033 4.209-3.2 6.594-7.282 11.795-9.33a34.519 34.519 0 0 1 16.611-1.773z" fill="#a66477" transform="translate(-60.662 -26.957)"/><path d="m1085.845 236.753v-.592a1.346 1.346 0 0 0 -.1-.608h-.256v-1.328c-.641-14.835-21.157-46.411-29.382-37.192-7.2 8.1 3.665 28.583 9.2 37.8l.5.832-.272-.176s-22.9 68.3-25.606 70.96-21.556 56.365-46.411 62.414c-4.913 1.168-8.994 2.225-12.419 3.2l.272-.912c1.6-5.233 3.569-10.178 4.369-16s0-12.883-2.945-15.716c-1.44-1.408-3.2-1.6-4.385-3.841a17.732 17.732 0 0 1 -1.217-6.161l-2.112-25.894 1.473-.448c8.9-2.849 17.524-9.6 18.532-18.692a9.568 9.568 0 0 1 -.944.3q.176-.793.272-1.6c-7.474 2.945-14.4-4.8-21.605-8.274-11.859-5.809-25.414-.336-37.657.992-13.875 1.52-27.046-4.241-41.225-3.2-7.714.592-16.292 5.825-15.875 13.427.24 4.177 3.2 7.714 4.417 11.715 3.073 9.682-3.761 19.4-9.746 27.654-3.937 5.425-7.714 12.035-8.386 18.4-13.779-14.4-28.679-31.047-30.407-37.3l-39.865-68.3s-.945 1.008-2.465 2.5c-.24-.736-.528-1.6-.848-2.465-5.089-14.259-19.492-48.811-37.752-42.474s7.57 41.754 18.8 55.869l1.6 1.952a5.056 5.056 0 0 1 -2.849-.128l44.458 76.257s8.082 14.6 15.491 18.564c0 0 55.229 69.632 55.9 83.555s24.838 51.068 24.838 51.068 8.082 60.35-6.065 70.96h2.337q-1.008.984-2.064 2.161c-10.482 11.619-23.878 36.52-5.57 78.866 26.934 62.414 30.983 86.868 30.983 86.868s-51.212 2.656-61.294 4.641c-8.93 1.76-43.642 2.993-51.58 3.2-2.832-3.3-11.2-10.594-22.5 0-14.147 13.267-24.246 57.613-24.246 57.613s-5.393 35.816 12.8 26.518c0 0 21.557-29.847 27.607-31.175 3.009-.656 6.193-5.089 8.626-9.362l.128.08c.144 0 .736-.32 1.7-.7 4.481-1.776 16.82-6.049 26.55-3.921 5.329 1.168 28.182 1.44 52.14 1.376-5.409 12.963-15.108 46.411-15.108 46.411s-4.049 31.191 9.394 29.911c9.6-.944 24.326-25.478 32.008-39.481 5.569-4.081 21.525-18.708 33.32-17.6l79.474-30.5s18.853-10.61 8.754-45.755c-8-27.942-30.775-85.139-39.769-107.432l-.263-.59c-2.176-5.393-3.489-8.594-3.489-8.594a131.544 131.544 0 0 1 -7.218-31.543c-.08-.848-.144-1.712-.208-2.561a14.15 14.15 0 0 0 3.12-1.809s-7.409-74.929 0-82.9l.128-.144v-.1l.128-.16.288-.368.352-.448c.4-.528.88-1.184 1.424-1.985 4.241-6.209 12.147-20.389 9.875-37.128q-.144-1.088-.352-2.192a45.728 45.728 0 0 0 -4.609-12.995 36.064 36.064 0 0 1 -.592-5.137v-4.545a15.389 15.389 0 0 1 .24-2.3v-.291a2.879 2.879 0 0 1 .144-.88v-.368a4.2 4.2 0 0 1 .192-.864v-.3c.1-.384.192-.768.32-1.152v-.192q.144-.48.32-.944l.144-.368.32-.768.16-.384c.128-.288.272-.576.417-.864l.112-.24q.288-.528.609-1.04l.176-.272.528-.752.256-.336.56-.672.256-.288c.288-.3.576-.608.9-.9 8.754-8 47.818-66.975 47.818-66.975s9.426-13.267 9.426-21.877c.52-.194 17.18-55.727 15.5-72.611zm-104.872 495.714c-.96-9.09-1.92-20.357-2.8-32.007l15.236 23.749s-1.441 7.233-12.436 8.258z" fill="url(#c)" transform="translate(248.093 -73.789)"/><path d="m811.443 530.253s-9.122-14.4-22.821-1.3-23.461 56.7-23.461 56.7-5.218 35.208 12.387 26.07c0 0 20.8-29.335 26.726-30.631s12.387-17.6 12.387-17.6z" fill="#493545" transform="translate(258.769 123.4)"/><path d="m867.576 550.831s-12.387-5.873-16.292-1.3-16.948 50.188-16.948 50.188-3.905 29.99 9.122 28.678 35.848-48.267 35.848-48.267z" fill="#493545" transform="translate(300.404 138.014)"/><path d="m867.576 550.831s-12.387-5.873-16.292-1.3-16.948 50.188-16.948 50.188-3.905 29.99 9.122 28.678 35.848-48.267 35.848-48.267z" opacity=".05" transform="translate(300.404 138.014)"/><path d="m900.4 524.09 28.022 43.674s-1.952 9.778-18.9 7.826l-58.013 36.5s-5.041 44.442 11.074 40.409c2.608-.656 20.8-19.556 33.9-18.244l76.93-29.991s18.244-10.434 8.466-44.97-42.109-114.614-42.109-114.614l-51.1 28.582z" fill="#3e3d77" transform="translate(310.596 76.11)"/><path d="m900.4 524.09 28.022 43.674s-1.952 9.778-18.9 7.826l-58.013 36.5s-5.041 44.442 11.074 40.409c2.608-.656 20.8-19.556 33.9-18.244l76.93-29.991s18.244-10.434 8.466-44.97-42.109-114.614-42.109-114.614l-51.1 28.582z" opacity=".05" transform="translate(310.596 76.11)"/><path d="m955.509 606.256c3.9 24.774-18.245 26.726-18.245 26.726s-99.735 1.953-111.466-.656-27.382 4.561-27.382 4.561c-20.212-12.387-3.9-43.018-3.9-43.018s41.721-1.3 51.5-3.2 59.31-4.609 59.31-4.609-3.905-24.118-29.991-85.38c-17.716-41.61-4.8-66.1 5.393-77.506a42.922 42.922 0 0 1 8.946-7.874l80.178 3.9a103.986 103.986 0 0 0 .448 12.115 129.033 129.033 0 0 0 10.643 40.009c-4.561 0-33.9 27.382-33.9 27.382s4.545 82.794 8.466 107.55z" fill="#3e3d77" transform="translate(273.093 58.472)"/><path d="m800.366 596.459s41.722-1.3 51.5-3.2 59.309-4.561 59.309-4.561-3.9-24.118-29.991-85.38c-17.716-41.609-4.8-66.1 5.393-77.506a42.932 42.932 0 0 1 8.946-7.874l74.289 3.617v-2.32l-80.178-3.9a42.909 42.909 0 0 0 -8.946 7.874c-10.146 11.427-23.109 35.9-5.393 77.506 26.15 61.214 30.023 85.331 30.023 85.331s-49.611 2.609-59.309 4.561-51.5 3.2-51.5 3.2-16.292 30.647 3.9 43.082c0 0 .608-.288 1.6-.7-13.422-13.82.357-39.73.357-39.73z" opacity=".1" transform="translate(273.095 58.49)"/><path d="m0 0h40.409v102.327h-40.409z" fill="#493545" transform="translate(1152.328 234.533)"/><path d="m0 0h40.409v102.327h-40.409z" opacity=".1" transform="translate(1152.328 234.533)"/><path d="m891.693 262.92c1.393.384 2.961.432 3.9 2.353a14.409 14.409 0 0 1 .945 4.8l2.544 31.623a17.606 17.606 0 0 0 1.184 6.05c1.072 2.144 2.849 2.4 4.241 3.777 2.8 2.785 3.617 9.762 2.849 15.443s-2.7 10.546-4.225 15.684c-2.177 7.362-3.617 15.636-6.674 21.845s-8.61 9.6-12.195 4.385-3.1-15.748-3.777-24.374c-1.12-14.4-6.738-26.822-7.122-41.322-.32-11.731 2.833-22.677 4.8-33.8 1.408-7.634 1.488-16.9 3.537-23.765 1.719 8.163 4.984 15.925 9.993 17.301z" fill="#493545" transform="translate(324.154 -43.398)"/><path d="m891.693 262.92c1.393.384 2.961.432 3.9 2.353a14.409 14.409 0 0 1 .945 4.8l2.544 31.623a17.606 17.606 0 0 0 1.184 6.05c1.072 2.144 2.849 2.4 4.241 3.777 2.8 2.785 3.617 9.762 2.849 15.443s-2.7 10.546-4.225 15.684c-2.177 7.362-3.617 15.636-6.674 21.845s-8.61 9.6-12.195 4.385-3.1-15.748-3.777-24.374c-1.12-14.4-6.738-26.822-7.122-41.322-.32-11.731 2.833-22.677 4.8-33.8 1.408-7.634 1.488-16.9 3.537-23.765 1.719 8.163 4.984 15.925 9.993 17.301z" opacity=".1" transform="translate(324.154 -43.398)"/><path d="m794.647 246.466-15.636 13.043s-1.856-2.177-4.625-5.7c-10.866-13.875-35.848-48.683-18.2-54.908s31.607 27.718 36.536 41.738c1.253 3.554 1.925 5.827 1.925 5.827z" fill="#c77485" transform="translate(250.136 -71.899)"/><path d="m965.411 241.757c-6.513 9.778-15.635 0-15.635 0s-1.168-1.744-2.817-4.561c-5.361-9.074-15.875-29.191-8.914-37.161 8-9.106 27.83 21.973 28.439 36.552a8.674 8.674 0 0 1 -1.073 5.17z" fill="#c77485" transform="translate(361.612 -71.751)"/><path d="m854.08 295.612s13.043 41.722 9.122 54.092 28.038 26.774 28.038 26.774h36.5s13.043-26.726 9.778-34.552-31.287-13.683-31.287-13.683-16.292 0-15.636-43.674z" fill="#c77485" transform="translate(312.587 -20.014)"/><path d="m785.521 230.525-15.636 13.043s-1.856-2.177-4.625-5.7c5.681-1.008 14.5-9.3 18.356-13.171 1.233 3.556 1.905 5.828 1.905 5.828z" opacity=".1" transform="translate(259.263 -55.958)"/><path d="m961.2 227.447c-6.513 9.778-15.635 0-15.635 0s-1.168-1.744-2.817-4.561l.208-.656c4.225 3.025 17.364.448 19.317 0a8.673 8.673 0 0 1 -1.073 5.217z" opacity=".1" transform="translate(365.822 -57.441)"/><path d="m935.62 431.316c-20.164 9.2-85.684-7.186-89.62-8.162a42.925 42.925 0 0 1 8.946-7.874l80.178 3.9a103.99 103.99 0 0 0 .5 12.131z" opacity=".1" transform="translate(307.736 58.46)"/><path d="m916.343 368.377s-15.636 5.217-37.8-15c0 0-49.611-48.891-52.812-60.622l-38.409-67.215s-16.292 17.6-22.821 15l43.017 74.96s7.826 14.4 15 18.244c0 0 53.452 68.448 54.092 82.131s24.086 50.331 24.086 50.331 7.826 59.31-5.873 69.744c0 0 76.257 19.556 92.549 6.513 0 0-7.17-73.617 0-81.475 0 0 22.165-26.07 7.169-54.749 0 0-3.2-15.636 5.217-23.461s46.283-65.839 46.283-65.839 9.122-13.043 9.122-21.509c0 0 16.948-57.357 14.4-72.352 0 0-15 3.2-19.557 0 0 0-22.165 67.215-24.773 69.744s-20.8 55.4-44.97 61.278-28.022 8.466-28.022 8.466 46.923 29.335 24.117 42.362-60.015-36.551-60.015-36.551z" fill="#ffaac4" transform="translate(258.807 -56.931)"/><path d="m891.938 304.686a124.581 124.581 0 0 1 -.944-18.516l-36.5 11.074a49.221 49.221 0 0 1 2.288 7.49c4.177 1.84 9.81 6.194 14.659 6.194a33.237 33.237 0 0 0 20.5-6.242z" opacity=".1" transform="translate(312.833 -19.054)"/><circle cx="1183.615" cy="256.042" fill="#c77485" r="33.896"/><path d="m850.239 246.792c-7.458.576-15.78 5.729-15.364 13.2.224 4.113 3.041 7.586 4.273 11.523 2.961 9.522-3.633 19.076-9.426 27.206s-11.2 18.9-6.242 27.51a67.85 67.85 0 0 0 4.578 5.969c6.129 8.274 6.049 19.444 8.77 29.383a51.548 51.548 0 0 0 60.558 36.808 32.232 32.232 0 0 1 -6.8-21.8c.368-5.7 2.209-11.651 0-16.916-2.849-6.769-11.2-9.442-15.508-15.363s-4.017-14.131-1.937-21.189 5.681-13.6 7.41-20.8a62.648 62.648 0 0 1 1.6-6.225c3.009-8.546 12-13.507 20.8-15.635s18.052-2.257 26.646-5.057 16.948-9.362 17.94-18.372c-7.234 2.9-13.939-4.657-20.916-8.13-11.491-5.7-24.6-.336-36.44.976-13.488 1.505-26.291-4.08-39.942-3.088z" opacity=".1" transform="translate(293.047 -42.97)"/><path d="m849.829 245.982c-7.457.576-15.78 5.729-15.363 13.2.224 4.113 3.04 7.586 4.273 11.523 2.961 9.522-3.633 19.076-9.426 27.206s-11.2 18.9-6.241 27.51a67.789 67.789 0 0 0 4.577 5.969c6.129 8.274 6.05 19.444 8.77 29.383a51.547 51.547 0 0 0 60.558 36.809 32.232 32.232 0 0 1 -6.8-21.8c.368-5.7 2.208-11.651 0-16.916-2.849-6.77-11.2-9.442-15.507-15.364s-4.017-14.131-1.936-21.189 5.681-13.6 7.409-20.8a62.723 62.723 0 0 1 1.6-6.226c3.009-8.546 12-13.507 20.8-15.635s18.057-2.252 26.648-5.052 16.948-9.362 17.94-18.372c-7.234 2.9-13.939-4.657-20.917-8.13-11.491-5.7-24.6-.336-36.44.976-13.459 1.485-26.214-4.164-39.945-3.092z" fill="#493545" transform="translate(292.801 -43.456)"/><path d="m885.65 326.3s13.571 12.115 16.244 17.46" opacity=".1" transform="translate(331.541 5.039)"/><path d="m923.32 371.51s-16.948 0-24.774 1.953-26.726 0-26.726 0" opacity=".1" transform="translate(323.237 32.182)"/><g opacity=".1" transform="translate(1023.29 166.101)"><path d="m905.9 352.572a16.29 16.29 0 0 1 -4.689 1.792 17.923 17.923 0 0 0 12.515-1.792c22.821-13.043-24.117-42.362-24.117-42.362h-7.829s46.939 29.335 24.12 42.362z" transform="translate(-694.073 -170.722)"/><path d="m958.294 224.234a6.839 6.839 0 0 0 -.16-1.184 76.6 76.6 0 0 1 -8.114 1.232 35.947 35.947 0 0 0 8.274-.048z" transform="translate(-653.104 -223.05)"/><path d="m902.666 529.317c13.683-10.434 5.873-69.744 5.873-69.744s-23.461-36.5-24.118-50.187-54.092-82.131-54.092-82.131c-7.17-3.9-15-18.244-15-18.244s-44.329-72.352-50.839-74.961l43.018 74.961s7.826 14.4 15 18.244c0 0 53.452 68.448 54.092 82.131s24.1 50.235 24.1 50.235 7.826 59.31-5.873 69.744c0 0 46.875 12.019 74.977 10.931-28.17-.996-67.138-10.979-67.138-10.979z" transform="translate(-764.49 -216.446)"/><path d="m860.274 314.376-.384-.5a10.32 10.32 0 0 1 -1.36.3c.608.088 1.185.152 1.744.2z" transform="translate(-708.032 -168.519)"/></g><g opacity=".1" transform="translate(1245.549 166.021)"><path d="m983.683 223-.4.08c-.688 20.02-14.579 67.055-14.579 67.055 0 8.466-9.122 21.509-9.122 21.509s-37.8 58.013-46.282 65.839-5.217 23.461-5.217 23.461l.08.16c-.256-5.265.384-13.427 5.777-18.42 8.466-7.826 46.282-65.839 46.282-65.839s9.122-13.043 9.122-21.509c0 .097 16.948-57.261 14.339-72.336z" transform="translate(-900.912 -223)"/><path d="m903.37 382.24c.976 5.537.32-.32.656 5.217 0 0 16-18.772 11.635-41.978 1.313 20.742-12.291 36.761-12.291 36.761z" transform="translate(-903.37 -149.467)"/></g><ellipse cx="751.868" cy="992.898" fill="#001f40" opacity=".1" rx="684.428" ry="65.743"/><path d="m432.551 792.762s-23.3-79.138 4.369-137.375a124.99 124.99 0 0 0 10.114-78.418 210.192 210.192 0 0 0 -11.107-36.808" fill="none" stroke="#535461" stroke-miterlimit="10" stroke-width="2" transform="translate(54.009 133.433)"/><g fill="#001f40"><path d="m455.226 524.272c0 9.7-17.6 37.817-17.6 37.817s-17.6-28.118-17.6-37.817a17.6 17.6 0 1 1 35.112 0z" transform="translate(51.963 112.545)"/><path d="m473.348 561.314c-5.265 8.146-35.288 22.2-35.288 22.2s.544-33.143 5.809-41.29a17.6 17.6 0 1 1 29.479 19.093z" transform="translate(62.823 129.211)"/><path d="m474.93 620.82c-8.658 4.369-41.61 1.344-41.61 1.344s17.2-28.343 25.862-32.711a17.6 17.6 0 1 1 15.812 31.347z" transform="translate(59.977 161.519)"/><path d="m464.277 662.928c-7.794 5.761-40.857 8.37-40.857 8.37s12.163-30.839 19.973-36.617a17.6 17.6 0 0 1 20.8 28.231z" transform="translate(54.034 188.642)"/><path d="m417.352 577.448c6.962 6.754 39.369 13.763 39.369 13.763s-8-32.183-14.9-38.953a17.6 17.6 0 1 0 -24.47 25.19z" transform="translate(46.626 137.163)"/><path d="m406.736 628.793c8.658 4.369 41.61 1.344 41.61 1.344s-17.14-28.342-25.8-32.631a17.6 17.6 0 0 0 -15.812 31.351z" transform="translate(38.887 167.052)"/><path d="m402.275 679.664c7.794 5.761 40.857 8.37 40.857 8.37s-12.163-30.839-19.973-36.616a17.6 17.6 0 1 0 -20.8 28.231z" transform="translate(36.306 197.576)"/><path d="m455.226 524.272c0 9.7-17.6 37.817-17.6 37.817s-17.6-28.118-17.6-37.817a17.6 17.6 0 1 1 35.112 0z" opacity=".1" transform="translate(51.963 112.545)"/><path d="m473.348 561.314c-5.265 8.146-35.288 22.2-35.288 22.2s.544-33.143 5.809-41.29a17.6 17.6 0 1 1 29.479 19.093z" opacity=".1" transform="translate(62.823 129.211)"/><path d="m474.93 620.82c-8.658 4.369-41.61 1.344-41.61 1.344s17.2-28.343 25.862-32.711a17.6 17.6 0 1 1 15.812 31.347z" opacity=".1" transform="translate(59.977 161.519)"/><path d="m464.277 662.928c-7.794 5.761-40.857 8.37-40.857 8.37s12.163-30.839 19.973-36.617a17.6 17.6 0 0 1 20.8 28.231z" opacity=".1" transform="translate(54.034 188.642)"/><path d="m417.352 577.448c6.962 6.754 39.369 13.763 39.369 13.763s-8-32.183-14.9-38.953a17.6 17.6 0 1 0 -24.47 25.19z" opacity=".1" transform="translate(46.626 137.163)"/><path d="m406.736 628.793c8.658 4.369 41.61 1.344 41.61 1.344s-17.14-28.342-25.8-32.631a17.6 17.6 0 0 0 -15.812 31.351z" opacity=".1" transform="translate(38.887 167.052)"/><path d="m402.275 679.664c7.794 5.761 40.857 8.37 40.857 8.37s-12.163-30.839-19.973-36.616a17.6 17.6 0 1 0 -20.8 28.231z" opacity=".1" transform="translate(36.306 197.576)"/></g><path d="m727.192 793.472s-23.3-79.138 4.369-137.376a124.987 124.987 0 0 0 10.114-78.418 210.164 210.164 0 0 0 -11.106-36.809" fill="none" stroke="#535461" stroke-miterlimit="10" stroke-width="2" transform="translate(230.9 133.859)"/><path d="m749.828 524c0 9.7-17.6 37.816-17.6 37.816s-17.6-28.118-17.6-37.816a17.6 17.6 0 0 1 35.112 0z" fill="#001f40" transform="translate(228.86 113.94)"/><path d="m768 562.014c-5.265 8.146-35.288 22.2-35.288 22.2s.544-33.144 5.809-41.29a17.6 17.6 0 1 1 29.479 19.09z" fill="#001f40" transform="translate(239.721 129.631)"/><path d="m769.609 621.532c-8.658 4.368-41.609 1.344-41.609 1.344s17.2-28.343 25.862-32.711a17.6 17.6 0 1 1 15.748 31.367z" fill="#001f40" transform="translate(236.893 161.927)"/><path d="m758.917 663.628c-7.794 5.761-40.857 8.37-40.857 8.37s12.162-30.839 19.972-36.617a17.6 17.6 0 0 1 20.8 28.231z" fill="#001f40" transform="translate(230.925 189.063)"/><path d="m712.013 578.148c6.961 6.754 39.369 13.763 39.369 13.763s-8-32.183-14.9-38.953a17.6 17.6 0 1 0 -24.47 25.19z" fill="#001f40" transform="translate(223.53 137.583)"/><path d="m701.4 629.523c8.658 4.369 41.609 1.344 41.609 1.344s-17.2-28.342-25.862-32.711a17.6 17.6 0 0 0 -15.812 31.351z" fill="#001f40" transform="translate(215.755 167.442)"/><path d="m695.979 679.667c7.794 5.761 40.857 8.37 40.857 8.37s-12.163-30.839-19.972-36.617a17.6 17.6 0 0 0 -20.8 28.231z" fill="#001f40" transform="translate(214.15 198.693)"/><path d="m749.828 524c0 9.7-17.6 37.816-17.6 37.816s-17.6-28.118-17.6-37.816a17.6 17.6 0 0 1 35.112 0z" fill="#001f40" opacity=".1" transform="translate(228.86 113.94)"/><path d="m768 562.014c-5.265 8.146-35.288 22.2-35.288 22.2s.544-33.144 5.809-41.29a17.6 17.6 0 1 1 29.479 19.09z" fill="#001f40" opacity=".1" transform="translate(239.721 129.631)"/><path d="m769.609 621.532c-8.658 4.368-41.609 1.344-41.609 1.344s17.2-28.343 25.862-32.711a17.6 17.6 0 1 1 15.748 31.367z" fill="#001f40" opacity=".1" transform="translate(236.893 161.927)"/><path d="m758.917 663.628c-7.794 5.761-40.857 8.37-40.857 8.37s12.162-30.839 19.972-36.617a17.6 17.6 0 0 1 20.8 28.231z" fill="#001f40" opacity=".1" transform="translate(230.925 189.063)"/><path d="m712.013 578.148c6.961 6.754 39.369 13.763 39.369 13.763s-8-32.183-14.9-38.953a17.6 17.6 0 1 0 -24.47 25.19z" fill="#001f40" opacity=".1" transform="translate(223.53 137.583)"/><path d="m701.4 629.523c8.658 4.369 41.609 1.344 41.609 1.344s-17.2-28.342-25.862-32.711a17.6 17.6 0 0 0 -15.812 31.351z" fill="#001f40" opacity=".1" transform="translate(215.755 167.442)"/><path d="m695.979 679.667c7.794 5.761 40.857 8.37 40.857 8.37s-12.163-30.839-19.972-36.617a17.6 17.6 0 0 0 -20.8 28.231z" fill="#001f40" opacity=".1" transform="translate(214.15 198.693)"/><path d="m833.615 139.83h-10.05a7.042 7.042 0 1 0 0-14.067h-81.491a7.042 7.042 0 0 0 0 14.067h10.05a7.042 7.042 0 0 0 0 14.067h-14.066a7.042 7.042 0 1 0 0 14.067h81.427a7.042 7.042 0 1 0 0-14.067h14.131a7.042 7.042 0 0 0 0-14.067z" fill="#dee3f3" opacity=".5" transform="translate(238.502 -115.361)"/><path d="m530.164 164.209h-7.65a5.361 5.361 0 1 0 0-10.706h-61.966a5.361 5.361 0 0 0 0 10.706h7.65a5.361 5.361 0 1 0 0 10.707h-10.707a5.361 5.361 0 1 0 0 10.706h61.966a5.361 5.361 0 1 0 0-10.706h10.706a5.361 5.361 0 0 0 0-10.707z" fill="#dee3f3" opacity=".5" transform="translate(71.094 -98.707)"/><path d="m177.448 634s28.006 54.972 5.185 85.043 2.08 112.026 2.08 112.026" fill="none" stroke="#001f40" stroke-miterlimit="10" transform="translate(-96.308 189.771)"/><path d="m186.836 630.464c0 10.594-7.778 19.2-7.778 19.2s-7.778-8.594-7.778-19.2 7.778-19.2 7.778-19.2 7.778 8.606 7.778 19.2z" fill="#001f40" transform="translate(-97.342 176.119)"/><path d="m190.154 634s-28.006 54.972-5.185 85.043-2.08 112.026-2.08 112.026" fill="none" stroke="#001f40" stroke-miterlimit="10" transform="translate(-94.499 189.771)"/><path d="m179.67 630.464c0 10.594 7.778 19.2 7.778 19.2s7.778-8.594 7.778-19.2-7.778-19.2-7.778-19.2-7.778 8.606-7.778 19.2z" fill="#001f40" transform="translate(-92.305 176.119)"/><path d="m179.67 630.464c0 10.594 7.778 19.2 7.778 19.2s7.778-8.594 7.778-19.2-7.778-19.2-7.778-19.2-7.778 8.606-7.778 19.2z" opacity=".1" transform="translate(-92.305 176.119)"/><path d="m193.668 634s28.006 54.972 5.185 85.043 2.08 112.026 2.08 112.026" fill="none" stroke="#001f40" stroke-miterlimit="10" transform="translate(-86.57 189.771)"/><path d="m203.006 630.464c0 10.594-7.778 19.2-7.778 19.2s-7.778-8.594-7.778-19.2 7.778-19.2 7.778-19.2 7.778 8.606 7.778 19.2z" fill="#001f40" transform="translate(-87.634 176.119)"/><path d="m201.536 657.984c-7.346 7.634-18.916 8.434-18.916 8.434s.352-11.587 7.7-19.2 18.916-8.434 18.916-8.434-.402 11.551-7.7 19.2z" fill="#001f40" transform="translate(-90.534 192.641)"/><path d="m202 681.685c-7.346 7.634-18.916 8.434-18.916 8.434s.352-11.587 7.7-19.2 18.916-8.434 18.916-8.434-.358 11.55-7.7 19.2z" fill="#001f40" transform="translate(-90.258 206.87)"/><path d="m176.923 691.034c6.946 8 6.706 19.588 6.706 19.588s-11.507-1.392-18.452-9.394-6.706-19.589-6.706-19.589 11.506 1.394 18.452 9.395z" fill="#001f40" transform="translate(-105.033 218.373)"/><path d="m181.613 638.637c8.834 5.857 11.7 17.092 11.7 17.092s-11.459 1.745-20.293-4.113-11.7-17.092-11.7-17.092 11.507-1.776 20.293 4.113z" fill="#001f40" transform="translate(-103.322 189.935)"/><path d="m181.613 638.637c8.834 5.857 11.7 17.092 11.7 17.092s-11.459 1.745-20.293-4.113-11.7-17.092-11.7-17.092 11.507-1.776 20.293 4.113z" opacity=".1" transform="translate(-103.322 189.935)"/><path d="m206.354 634s-28.006 54.972-5.185 85.043-2.081 112.026-2.081 112.026" fill="none" stroke="#001f40" stroke-miterlimit="10" transform="translate(-84.773 189.771)"/><path d="m195.87 630.464c0 10.594 7.778 19.2 7.778 19.2s7.778-8.594 7.778-19.2-7.778-19.2-7.778-19.2-7.778 8.606-7.778 19.2z" fill="#001f40" transform="translate(-82.579 176.119)"/><path d="m195.87 630.464c0 10.594 7.778 19.2 7.778 19.2s7.778-8.594 7.778-19.2-7.778-19.2-7.778-19.2-7.778 8.606-7.778 19.2z" opacity=".1" transform="translate(-82.579 176.119)"/><path d="m200.272 654.37c-7.442 7.554-8 19.2-8 19.2s11.571-.656 19.012-8.21 8-19.2 8-19.2-11.57.656-19.012 8.21z" fill="#001f40" transform="translate(-84.741 197.072)"/><path d="m200.272 654.37c-7.442 7.554-8 19.2-8 19.2s11.571-.656 19.012-8.21 8-19.2 8-19.2-11.57.656-19.012 8.21z" opacity=".1" transform="translate(-84.741 197.072)"/><path d="m209.382 687.18c-7.442 7.554-8 19.2-8 19.2s11.571-.656 19.012-8.21 8-19.2 8-19.2-11.619.656-19.012 8.21z" fill="#001f40" transform="translate(-79.271 216.77)"/><path d="m193 687.1s16.852-26.566 40.521-27.206" fill="none" stroke="#001f40" stroke-miterlimit="10" transform="translate(-84.302 205.315)"/><path d="m199.971 677.066s-16.852-26.566-40.521-27.206" fill="none" stroke="#001f40" stroke-miterlimit="10" transform="translate(-104.445 199.293)"/><path d="m183.4 700.766s16.852-26.566 40.521-27.206" fill="none" stroke="#001f40" stroke-miterlimit="10" transform="translate(-90.066 213.522)"/><circle cx="148.403" cy="865.061" fill="#001f40" r="4.369"/><circle cx="55.421" cy="849.377" fill="#001f40" r="4.369"/><path d="m206.351 706.206s-16.851-26.566-40.521-27.206" fill="none" stroke="#001f40" stroke-miterlimit="10" transform="translate(-100.614 216.788)"/><circle cx="65.632" cy="896.044" fill="#001f40" r="4.369"/><circle cx="134.175" cy="887.306" fill="#001f40" r="4.369"/><path d="m309.213 752.121s-40.617-8.13-51.468-18.964-59.566-29.783-64.991-16.244-73.121 59.582-27.078 67.711 108.324 10.834 121.868 5.409 21.669-37.912 21.669-37.912z" fill="#a8a8a8" transform="translate(-110.287 236.729)"/><path d="m165.669 764.72c46.043 8.13 108.329 10.834 121.868 5.409 10.306-4.129 17.476-24.005 20.309-33.159l1.36.288s-8.13 32.5-21.669 37.913-75.825 2.7-121.868-5.409c-13.283-2.352-17.092-7.858-15.652-14.82 1.121 4.481 5.762 8.034 15.652 9.778z" opacity=".2" transform="translate(-110.28 251.591)"/><path d="m1033.771 641.78s13.411 17.6-6.193 44.01-35.768 48.827-29.222 65.343c0 0 29.574-49.179 53.644-49.868s8.257-29.926-18.229-59.485z" fill="#001f40" transform="translate(398.317 194.442)"/><path d="m1033.486 641.78a21.722 21.722 0 0 1 2.737 5.505c23.494 27.59 35.992 53.34 13.427 54-21.029.608-46.251 38.2-52.3 47.707a20.282 20.282 0 0 0 .72 2.16s29.574-49.179 53.644-49.867 8.258-29.946-18.228-59.505z" opacity=".1" transform="translate(398.601 194.442)"/><path d="m1036.711 657.212c0 6.177-.689 11.2-1.6 11.2s-1.6-5.009-1.6-11.2.864-3.2 1.712-3.2 1.488-2.961 1.488 3.2z" fill="#ffd037" transform="translate(420.311 201.351)"/><path d="m1044.827 661.935c-5.425 2.961-10.147 4.8-10.546 3.985s3.649-3.761 9.074-6.706 3.281-.8 3.7 0 3.181-.239-2.228 2.721z" fill="#ffd037" transform="translate(420.757 204.006)"/><path d="m986.961 641.78s-13.411 17.6 6.194 44.01 35.768 48.827 29.222 65.343c0 0-29.575-49.179-53.644-49.868s-8.258-29.926 18.228-59.485z" fill="#001f40" transform="translate(374.294 194.442)"/><path d="m986.962 641.78a21.714 21.714 0 0 0 -2.737 5.505c-23.494 27.59-35.992 53.34-13.427 54 21.029.608 46.25 38.2 52.3 47.707a20.4 20.4 0 0 1 -.721 2.16s-29.577-49.182-53.644-49.87-8.258-29.943 18.229-59.502z" opacity=".1" transform="translate(374.294 194.442)"/><path d="m960.09 657.212c0 6.177.688 11.2 1.6 11.2s1.6-5.009 1.6-11.2-.864-3.2-1.712-3.2-1.488-2.961-1.488 3.2z" fill="#ffd037" transform="translate(376.232 201.351)"/><path d="m955.981 661.935c5.425 2.961 10.146 4.8 10.546 3.985s-3.649-3.761-9.074-6.706-3.281-.8-3.7 0-3.197-.239 2.228 2.721z" fill="#ffd037" transform="translate(371.779 204.006)"/><path d="m962.76 716.268s37.5-1.152 48.8-9.2 57.613-17.6 60.478-4.8 56.349 64.19 14.019 64.527-98.358-6.594-109.641-13.459-13.656-37.068-13.656-37.068z" fill="#a8a8a8" transform="translate(377.835 227.003)"/><path d="m1086.8 754.773c-42.33.336-98.358-6.594-109.641-13.459-8.594-5.233-12.019-24.005-13.155-32.663h-1.244s2.368 30.247 13.651 37.112 67.311 13.811 109.641 13.459c12.227-.1 16.436-4.449 16.212-10.883-1.696 3.921-6.289 6.354-15.464 6.434z" opacity=".2" transform="translate(377.835 234.589)"/><path d="m341.279 199.16h-10.05a7.042 7.042 0 1 0 0-14.067h-81.429a7.042 7.042 0 0 0 0 14.067h10.05a7.042 7.042 0 0 0 0 14.067h-14.064a7.042 7.042 0 0 0 0 14.067h81.427a7.042 7.042 0 1 0 0-14.067h14.067a7.042 7.042 0 0 0 0-14.067z" fill="#dee3f3" opacity=".5" transform="translate(-56.638 -79.742)"/></svg>