<svg width="92" height="159" xmlns="http://www.w3.org/2000/svg" data-name="Componente 62 – 1">
 <defs>
  <clipPath id="clip-path">
   <rect fill="none" height="159.487" width="92.371" data-name="Retângulo 3359" id="Retângulo_3359"/>
  </clipPath>
 </defs>
 <g>
  <title>Layer 1</title>
  <g clip-path="url(#clip-path)" data-name="Grupo 8729" id="Grupo_8729">
   <path fill="#faa78c" d="m4.73459,49.637a122.347,122.347 0 0 0 14.258,11.337a0.879,0.879 0 0 0 1.375,-0.795c0,-1.085 0.047,-9.384 0.047,-11.713a1.487,1.487 0 0 0 -0.615,-1.036c-5.771,-3.325 -11.66,-7.227 -17.71,-10.346a1.213,1.213 0 0 0 -1.759,0.742c-1.184,4.787 0.935,8.447 4.4,11.811" data-name="Caminho 13886" id="Caminho_13886"/>
   <path fill="#faa78c" d="m73.46259,159.486l-40.592,0c-0.406,-4.992 -1.549,-17.794 -4.093,-26.294c-2.461,-8.221 -6.06,-16.892 -5.443,-25.756c0.549,-7.889 21.479,-7.51 26.592,-7.452a47.4,47.4 0 0 1 15.48,2.424c5.954,2.194 13.315,11.515 14.317,19.315c0.726,5.65 -1.191,8.1 -4.02,13.567c-2.594,5.017 -2.742,17.032 -2.245,24.2" data-name="Caminho 13887" id="Caminho_13887"/>
   <path fill="#ed775a" d="m23.26559,111.882a76.087,76.087 0 0 1 7.907,-0.409c10.366,0.309 18.625,5.464 28.268,3.927a3.171,3.171 0 0 0 2.386,-1.678a38.707,38.707 0 0 1 6.932,-9.459a14.041,14.041 0 0 0 -3.345,-1.856a47.366,47.366 0 0 0 -15.481,-2.422c-5.112,-0.058 -26.039,-0.44 -26.589,7.451a39.843,39.843 0 0 0 -0.073,4.447" data-name="Caminho 13888" id="Caminho_13888"/>
   <path fill="#241f55" d="m21.36759,109.995l49.048,0a3.716,3.716 0 0 0 3.716,-3.716l0,-102.556a3.716,3.716 0 0 0 -3.716,-3.716l-49.048,0a3.716,3.716 0 0 0 -3.716,3.716l0,102.557a3.716,3.716 0 0 0 3.716,3.716" data-name="Caminho 13889" id="Caminho_13889"/>
   <path fill="#ccc" d="m21.36759,107.765l49.049,0a1.486,1.486 0 0 0 1.486,-1.486l0,-102.557a1.486,1.486 0 0 0 -1.486,-1.486l-49.049,0a1.486,1.486 0 0 0 -1.486,1.486l0,102.557a1.486,1.486 0 0 0 1.486,1.486" data-name="Caminho 13890" id="Caminho_13890"/>
   <path fill="#241f55" d="m37.94959,6.7l15.887,0a1.486,1.486 0 0 0 1.486,-1.486l0,-5.214l-18.859,0l0,5.21a1.486,1.486 0 0 0 1.486,1.49" data-name="Caminho 13891" id="Caminho_13891"/>
   <path fill="#fff" d="m21.27059,107.677l0,-102.556a1.486,1.486 0 0 1 1.486,-1.486l13.707,0l0,-1.4l-15.1,0a1.487,1.487 0 0 0 -1.487,1.486l0,102.558a1.482,1.482 0 0 0 1.4,1.477c0,-0.027 -0.008,-0.052 -0.008,-0.079" data-name="Caminho 13892" id="Caminho_13892"/>
   <path fill="#fff" d="m39.33959,8.093l15.883,0a1.486,1.486 0 0 0 1.487,-1.486l0,-2.973l15.1,0c0.03,0 0.058,0.007 0.089,0.009a1.483,1.483 0 0 0 -1.486,-1.407l-15.1,0l0,2.973a1.486,1.486 0 0 1 -1.486,1.486l-15.877,0c-0.03,0 -0.058,-0.007 -0.088,-0.009a1.483,1.483 0 0 0 1.478,1.407" data-name="Caminho 13893" id="Caminho_13893"/>
   <path fill="#faa78c" d="m64.04359,140.008c4.894,0.874 9.264,-1.905 13.034,-7.865c2.867,-4.533 9.325,-17.179 11.891,-22.766c2.3,-5.006 4.2,-8.314 3.059,-13.912c-1.292,-6.318 -6.219,-18.4 -8.838,-24.367c-1.1,-2.5 -2.1,-10.378 -3.146,-13.5a1.8,1.8 0 0 0 -2.786,-1.06c-2.7,1.54 -3.834,6.8 -3.834,10.119c0,5.014 2.53,15.419 3.223,18.689c0.493,2.328 1.049,5.637 0.43,7.9a16.677,16.677 0 0 1 -4.931,7.33c-6.663,5.92 -15.794,13.33 -17.366,22.787c-1.062,6.392 3.421,15.6 9.263,16.648" data-name="Caminho 13894" id="Caminho_13894"/>
   <path fill="#faa78c" d="m8.88959,95.42499a49.3,49.3 0 0 0 4.341,4.573a109.457,109.457 0 0 0 8.749,8.209a0.653,0.653 0 0 0 0.9,-0.064c2.014,-3.2 0.884,-7.388 -0.435,-10.517c-1.668,-3.956 -4.64,-7.19 -7.625,-10.132c-0.476,-0.469 -1.989,-1.854 -2.562,-2.38c-0.533,-0.49 -0.757,-0.195 -1.178,0.387a29.374,29.374 0 0 0 -2.769,4.762a6.591,6.591 0 0 0 -0.274,0.8a5.413,5.413 0 0 0 0.851,4.364" data-name="Caminho 13895" id="Caminho_13895"/>
   <path fill="#ed775a" d="m7.92659,91.78199c0.035,-0.069 0.081,-0.139 0.11,-0.185c2.07,-2.74 6.764,-0.543 8.816,1.11c1.78,1.434 3.659,2.636 5.289,4.237c-1.711,-3.648 -4.509,-6.683 -7.319,-9.452c-0.48,-0.468 -1.988,-1.85 -2.566,-2.376c-0.532,-0.491 -0.758,-0.2 -1.174,0.381a29.226,29.226 0 0 0 -2.769,4.763a6.449,6.449 0 0 0 -0.278,0.8a5.091,5.091 0 0 0 -0.11,0.723" data-name="Caminho 13896" id="Caminho_13896"/>
   <path fill="#faa78c" d="m8.05359,79.949c0.169,1.86 2.031,3.586 3.222,4.859c0.82,0.877 5.019,5.172 6.369,6.3c1.514,1.263 3.493,3.3 4.338,4.153c1.009,1.016 2.046,-0.425 2.259,-1.114a11.144,11.144 0 0 0 -0.1,-6.326a25.031,25.031 0 0 0 -3.64,-6.036c-0.67,-0.886 -2.855,-3.813 -2.855,-3.823l0,-11.483a50.562,50.562 0 0 0 -5,4.932c-1.329,1.556 -2.984,3.845 -3.631,4.787a5.535,5.535 0 0 0 -0.963,3.751" data-name="Caminho 13897" id="Caminho_13897"/>
   <path fill="#ed775a" d="m81.57559,67.394a6.184,6.184 0 0 1 -1.452,-0.189a2.339,2.339 0 0 1 -1.489,-1.456a20.947,20.947 0 0 1 -0.793,-4.2a15.007,15.007 0 0 1 -0.014,-4.617a2.134,2.134 0 0 1 1.611,-1.895a0.393,0.393 0 0 1 0.159,0.77c-0.459,0.095 -0.805,0.35 -1,1.285a14.2,14.2 0 0 0 0.022,4.338a20.455,20.455 0 0 0 0.762,4.073a1.58,1.58 0 0 0 0.923,0.936a4.922,4.922 0 0 0 1.848,0.129a0.393,0.393 0 1 1 0.1,0.779a5.175,5.175 0 0 1 -0.681,0.046" data-name="Caminho 13898" id="Caminho_13898"/>
   <path fill="#ed775a" d="m23.18759,108.41299a0.393,0.393 0 0 1 -0.286,-0.663a2.615,2.615 0 0 0 -0.02,-2.182a18.8,18.8 0 0 0 -4.336,-5.9a2.271,2.271 0 0 0 -2.658,-0.419a6.206,6.206 0 0 0 -1.717,1.623a0.393,0.393 0 1 1 -0.64,-0.456a6.956,6.956 0 0 1 1.93,-1.827a3.051,3.051 0 0 1 3.639,0.516a19.688,19.688 0 0 1 4.484,6.111c0.393,0.789 0.544,2.378 -0.112,3.072a0.393,0.393 0 0 1 -0.286,0.123" data-name="Caminho 13899" id="Caminho_13899"/>
   <path fill="#ed775a" d="m23.45559,95.781a0.393,0.393 0 0 1 -0.286,-0.663a2.613,2.613 0 0 0 -0.02,-2.182a18.813,18.813 0 0 0 -4.335,-5.905a2.273,2.273 0 0 0 -2.657,-0.412a6.094,6.094 0 0 0 -1.717,1.622a0.393,0.393 0 1 1 -0.64,-0.456a6.944,6.944 0 0 1 1.93,-1.827a3.051,3.051 0 0 1 3.639,0.516a19.7,19.7 0 0 1 4.484,6.111c0.393,0.788 0.545,2.378 -0.112,3.072a0.391,0.391 0 0 1 -0.286,0.123" data-name="Caminho 13900" id="Caminho_13900"/>
   <path fill="#ed775a" d="m92.02759,95.466c-0.162,-0.786 -0.377,-1.667 -0.645,-2.611c-0.475,0.526 -0.433,2.2 -0.415,3.3a16.717,16.717 0 0 1 -1.382,6.446c-2.854,7.4 -9.6,15.9 -12.819,20.164c-3.413,4.518 -8.686,10.088 -9.11,17.041c-0.4,6.549 1.507,12.683 1.636,19.681l4.169,0c-0.5,-7.162 -0.346,-19.175 2.249,-24.193c1.243,-2.412 2.312,-4.237 3.057,-6c3.214,-5.679 8.059,-15.248 10.2,-19.909c2.3,-5.007 4.2,-8.316 3.057,-13.911" data-name="Caminho 13901" id="Caminho_13901"/>
   <path fill="#c75946" d="m54.78059,123.885a0.508,0.508 0 0 1 -0.087,-0.007a0.525,0.525 0 0 1 -0.432,-0.6c1.488,-8.951 9.558,-16.061 16.043,-21.774q0.762,-0.671 1.492,-1.318a16.25,16.25 0 0 0 4.773,-7.076c0.666,-2.439 -0.165,-6.362 -0.438,-7.651c-0.107,-0.506 -0.259,-1.184 -0.438,-1.987c-0.978,-4.374 -2.8,-12.517 -2.8,-16.811a0.524,0.524 0 1 1 1.048,0c0,4.178 1.8,12.247 2.771,16.582c0.18,0.807 0.333,1.488 0.441,2c0.5,2.344 1.08,5.739 0.423,8.145a17.337,17.337 0 0 1 -5.088,7.583c-0.486,0.433 -0.987,0.873 -1.5,1.321c-6.36,5.6 -14.275,12.577 -15.7,21.16a0.524,0.524 0 0 1 -0.516,0.438" data-name="Caminho 13902" id="Caminho_13902"/>
   <path fill="#ff4066" d="m61.98959,85.877l14.782,0l0,-14.778l2.229,0l0,17.011l-17.011,0l0,-2.233z" data-name="Caminho 13903" id="Caminho_13903"/>
   <path fill="#ff4066" d="m15.00959,71.099l0,14.778l14.784,0l0,2.23l-17.011,0l0,-17.008l2.227,0z" data-name="Caminho 13904" id="Caminho_13904"/>
   <path fill="#ff4066" d="m61.98959,21.892l17.011,0l0,17.011l-2.229,0l0,-14.781l-14.782,0l0,-2.23z" data-name="Caminho 13905" id="Caminho_13905"/>
   <path fill="#ff4066" d="m29.79359,21.892l0,2.23l-14.784,0l0,14.781l-2.23,0l0,-17.011l17.014,0z" data-name="Caminho 13906" id="Caminho_13906"/>
  </g>
 </g>
</svg>