<svg xmlns="http://www.w3.org/2000/svg" id="prefix__Componente_8_4" width="57.582" height="57.582" data-name="Componente 8 – 4" viewBox="0 0 57.582 57.582">
    <path id="prefix__Caminho_7321" d="M55.333 39.588a2.249 2.249 0 0 0 2.249-2.249V13.5a9.007 9.007 0 0 0-9-9h-2.921V2.249a2.249 2.249 0 1 0-4.5 0V4.5H30.928V2.249a2.249 2.249 0 0 0-4.5 0V4.5H16.307V2.249a2.249 2.249 0 0 0-4.5 0V4.5H9a9.007 9.007 0 0 0-9 9v35.085a9.007 9.007 0 0 0 9 9h39.585a9.007 9.007 0 0 0 9-9 2.249 2.249 0 1 0-4.5 0 4.5 4.5 0 0 1-4.5 4.5H9a4.5 4.5 0 0 1-4.5-4.5V13.5A4.5 4.5 0 0 1 9 9h2.812v2.249a2.249 2.249 0 0 0 4.5 0V9h10.117v2.249a2.249 2.249 0 0 0 4.5 0V9h10.233v2.249a2.249 2.249 0 0 0 4.5 0V9h2.924a4.5 4.5 0 0 1 4.5 4.5v23.838a2.249 2.249 0 0 0 2.247 2.25z" data-name="Caminho 7321"/>
</svg>
