<svg id="ky9q8B.tif" xmlns="http://www.w3.org/2000/svg" width="20.069" height="17.534" viewBox="0 0 20.069 17.534">
  <g id="Grupo_7607" data-name="Grupo 7607">
    <path id="Caminho_9351" data-name="Caminho 9351" d="M739.07,218.308a2.343,2.343,0,0,0-.234-1.1,1.85,1.85,0,0,0-1.745-1.137c-.476,0-.952,0-1.428,0-.326,0-.292-.054-.333-.264a.609.609,0,0,0-.5-.557.637.637,0,0,0-.735.607c-.031.172-.112.221-.277.219-.664-.007-1.328,0-1.991,0-.243,0-.246,0-.287-.238-.051-.3-.276-.6-.557-.586a.621.621,0,0,0-.669.569c-.058.254-.058.255-.322.255h-1.932c-.261,0-.261,0-.32-.258a.621.621,0,0,0-.672-.566c-.267-.02-.516.278-.55.589-.02.182-.095.241-.273.239q-1-.011-2.009,0c-.18,0-.251-.065-.28-.239a.634.634,0,0,0-.71-.589.655.655,0,0,0-.529.6c-.039.227-.039.229-.271.23-.521,0-1.042,0-1.563,0a1.718,1.718,0,0,0-1.329.63,2.316,2.316,0,0,0-.549,1.269v.118c.076.078.045.157,0,.236v12.4c.041.065.011.137.02.205a1.6,1.6,0,0,0,.192.731,1.76,1.76,0,0,0,1.659,1.122h16.354a1.633,1.633,0,0,0,1.308-.628,2.4,2.4,0,0,0,.536-1.558Q739.067,224.453,739.07,218.308Zm-18.892.143a.775.775,0,0,1,.443-.815.5.5,0,0,1,.192-.055c.6,0,1.2,0,1.8,0,.1,0,.141.025.136.13a.77.77,0,0,0,.093.415.534.534,0,0,0,.6.3.6.6,0,0,0,.458-.516c.022-.1-.009-.245.049-.3.08-.073.224-.024.34-.024.659,0,1.318.007,1.977-.006.2,0,.3.027.3.262a.568.568,0,0,0,1.134.055.868.868,0,0,0,.018-.195c-.006-.1.035-.12.126-.119.79,0,1.579,0,2.369,0,.111,0,.129.041.13.136a.842.842,0,0,0,.1.414.523.523,0,0,0,.6.291.6.6,0,0,0,.46-.538c.046-.3.046-.3.349-.3.7,0,1.41,0,2.114,0,.134,0,.171.036.18.169a.651.651,0,0,0,.4.654.569.569,0,0,0,.754-.571c.009-.216.079-.261.284-.254.508.017,1.019.022,1.527,0a.729.729,0,0,1,.768.719c.013.68.005,1.36.01,2.04,0,.092-.039.112-.118.105-.045,0-.091,0-.137,0h-8.6q-4.317,0-8.634,0c-.18,0-.225-.046-.221-.224C720.184,219.628,720.173,219.04,720.178,218.451Zm17.7,11.966a.874.874,0,0,1-.365.809.471.471,0,0,1-.206.082,2.047,2.047,0,0,1-.254.006H721.059c-.618,0-.881-.267-.881-.9q0-2.432,0-4.863c0-1.163,0-2.327,0-3.49,0-.151.041-.179.183-.178q4.336.007,8.671,0t8.652,0c.162,0,.2.037.2.2Q737.871,226.251,737.876,230.417Z" transform="translate(-719.002 -215.249)" fill="#f17b00"/>
    <path id="Caminho_9352" data-name="Caminho 9352" d="M719,228.22v.236A.3.3,0,0,0,719,228.22Z" transform="translate(-719.002 -225.376)" fill="#f17b00"/>
    <path id="Caminho_9353" data-name="Caminho 9353" d="M719,228.22a.3.3,0,0,1,0,.236C719.047,228.377,719.078,228.3,719,228.22Z" transform="translate(-719.002 -225.376)" fill="#f17b00"/>
    <path id="Caminho_9354" data-name="Caminho 9354" d="M733.957,271.241c-.228,0-.457,0-.685,0-.254,0-.509,0-.763,0a.586.586,0,0,0-.4.123.9.9,0,0,0-.18.906.668.668,0,0,0,.68.417c.436.02.874.021,1.31,0a.7.7,0,0,0,.662-.354A.721.721,0,0,0,733.957,271.241Z" transform="translate(-729.054 -258.963)" fill="#f17b00"/>
    <path id="Caminho_9355" data-name="Caminho 9355" d="M786.962,271.24c-.228,0-.456,0-.685,0-.254,0-.509,0-.763,0a.573.573,0,0,0-.418.133.916.916,0,0,0-.164.91.669.669,0,0,0,.67.4,12.867,12.867,0,0,0,1.33,0,.686.686,0,0,0,.644-.349A.726.726,0,0,0,786.962,271.24Z" transform="translate(-770.433 -258.962)" fill="#f17b00"/>
    <path id="Caminho_9356" data-name="Caminho 9356" d="M751.6,271.235c-.222.005-.443,0-.665,0-.254,0-.509,0-.763,0a.531.531,0,0,0-.417.132.854.854,0,0,0-.173.888.675.675,0,0,0,.671.43c.443.006.888.019,1.33-.005a.654.654,0,0,0,.634-.33.9.9,0,0,0,0-.807A.581.581,0,0,0,751.6,271.235Z" transform="translate(-742.831 -258.958)" fill="#f17b00"/>
    <path id="Caminho_9357" data-name="Caminho 9357" d="M769.286,271.241c-.228,0-.457,0-.685,0h-.763a.592.592,0,0,0-.4.126.913.913,0,0,0-.177.907.67.67,0,0,0,.684.414c.436.019.874.021,1.31,0a.7.7,0,0,0,.649-.341A.726.726,0,0,0,769.286,271.241Z" transform="translate(-756.638 -258.963)" fill="#f17b00"/>
    <path id="Caminho_9358" data-name="Caminho 9358" d="M732.571,257.573a5.78,5.78,0,0,1,.684,0c.235,0,.47-.014.7,0a.6.6,0,0,0,.63-.4.73.73,0,0,0-.651-1.058,13.507,13.507,0,0,1-1.368,0,.631.631,0,0,0-.644.418C731.745,256.924,731.986,257.643,732.571,257.573Z" transform="translate(-729.046 -247.149)" fill="#f17b00"/>
    <path id="Caminho_9359" data-name="Caminho 9359" d="M751.577,256.1c-.46.038-.925.01-1.388.006a.558.558,0,0,0-.5.226.812.812,0,0,0-.1.83.588.588,0,0,0,.63.4c.227-.017.456,0,.684,0s.483-.012.723,0a.6.6,0,0,0,.6-.381A.734.734,0,0,0,751.577,256.1Z" transform="translate(-742.825 -247.144)" fill="#f17b00"/>
    <path id="Caminho_9360" data-name="Caminho 9360" d="M767.917,257.571a5.585,5.585,0,0,1,.664,0c.235,0,.47-.013.7,0a.6.6,0,0,0,.628-.4.731.731,0,0,0-.651-1.057,12.829,12.829,0,0,1-1.368,0,.616.616,0,0,0-.663.473C767.089,256.965,767.316,257.643,767.917,257.571Z" transform="translate(-756.624 -247.147)" fill="#f17b00"/>
    <path id="Caminho_9361" data-name="Caminho 9361" d="M785.563,257.57a6.075,6.075,0,0,1,.684,0c.235,0,.47-.013.7,0a.6.6,0,0,0,.628-.406.731.731,0,0,0-.652-1.055,13.5,13.5,0,0,1-1.368,0,.6.6,0,0,0-.651.437C784.739,256.952,784.982,257.637,785.563,257.57Z" transform="translate(-770.415 -247.147)" fill="#f17b00"/>
  </g>
</svg>
