<svg xmlns="http://www.w3.org/2000/svg" id="prefix__receipt" width="122.168" height="110.102" viewBox="0 0 122.168 110.102">
    <defs>
        
    </defs>
    <g id="prefix__Grupo_5026" data-name="Grupo 5026">
        <g id="prefix__Grupo_5025" data-name="Grupo 5025">
            <path id="prefix__Caminho_5435" d="M118.589 25H3.579a3.575 3.575 0 1 0 0 7.149h8.59v99.378a3.579 3.579 0 0 0 4.968 3.295l21.28-8.949 21.28 8.949a3.584 3.584 0 0 0 2.778 0l21.278-8.949 21.278 8.949a3.579 3.579 0 0 0 4.969-3.294V32.149h8.59a3.575 3.575 0 1 0 0-7.149zM102.84 126.143l-17.7-7.443a3.585 3.585 0 0 0-2.778 0l-21.278 8.949-21.279-8.949a3.583 3.583 0 0 0-2.778 0l-17.7 7.444V32.149h83.513z" class="prefix__cls-1" data-name="Caminho 5435" transform="translate(0 -25)"/>
        </g>
    </g>
    <g id="prefix__Grupo_5028" data-name="Grupo 5028" transform="translate(39.609 19.065)">
        <g id="prefix__Grupo_5027" data-name="Grupo 5027">
            <path id="prefix__Caminho_5436" d="M205.37 105h-35.791a3.575 3.575 0 1 0 0 7.15h35.791a3.575 3.575 0 1 0 0-7.15z" class="prefix__cls-1" data-name="Caminho 5436" transform="translate(-166 -105)"/>
        </g>
    </g>
    <g id="prefix__Grupo_5030" data-name="Grupo 5030" transform="translate(50.346 47.663)">
        <g id="prefix__Grupo_5029" data-name="Grupo 5029">
            <path id="prefix__Caminho_5437" d="M247.984 225h-33.405a3.575 3.575 0 1 0 0 7.149h33.405a3.575 3.575 0 1 0 0-7.149z" class="prefix__cls-1" data-name="Caminho 5437" transform="translate(-211 -225)"/>
        </g>
    </g>
    <g id="prefix__Grupo_5032" data-name="Grupo 5032" transform="translate(34.56 47.226)">
        <g id="prefix__Grupo_5031" data-name="Grupo 5031">
            <ellipse id="prefix__Elipse_423" cx="3.84" cy="3.835" class="prefix__cls-1" data-name="Elipse 423" rx="3.84" ry="3.835"/>
        </g>
    </g>
    <g id="prefix__Grupo_5034" data-name="Grupo 5034" transform="translate(50.346 66.729)">
        <g id="prefix__Grupo_5033" data-name="Grupo 5033">
            <path id="prefix__Caminho_5438" d="M247.984 305h-33.405a3.575 3.575 0 1 0 0 7.15h33.405a3.575 3.575 0 1 0 0-7.15z" class="prefix__cls-1" data-name="Caminho 5438" transform="translate(-211 -305)"/>
        </g>
    </g>
    <g id="prefix__Grupo_5036" data-name="Grupo 5036" transform="translate(34.56 66.402)">
        <g id="prefix__Grupo_5035" data-name="Grupo 5035">
            <ellipse id="prefix__Elipse_424" cx="3.84" cy="3.835" class="prefix__cls-1" data-name="Elipse 424" rx="3.84" ry="3.835"/>
        </g>
    </g>
</svg>
