<svg xmlns="http://www.w3.org/2000/svg" width="60" height="71.276" viewBox="0 0 60 71.276">
    <path fill="#ff7d00" d="M37.726 71.276H11.137A11.149 11.149 0 0 1 0 60.139V22.413a11.149 11.149 0 0 1 11.137-11.137h26.589a11.149 11.149 0 0 1 11.137 11.137v37.726a11.149 11.149 0 0 1-11.137 11.137zM11.137 16.845a5.575 5.575 0 0 0-5.568 5.568v37.726a5.575 5.575 0 0 0 5.568 5.568h26.589a5.575 5.575 0 0 0 5.568-5.568V22.413a5.575 5.575 0 0 0-5.568-5.568zM60 53.179V11.137A11.149 11.149 0 0 0 48.863 0h-30.9a2.784 2.784 0 0 0 0 5.568h30.9a5.575 5.575 0 0 1 5.568 5.568v42.043a2.784 2.784 0 0 0 5.568 0zm0 0"/>
</svg>
