<svg id="Componente_41_2" data-name="Componente 41 – 2" xmlns="http://www.w3.org/2000/svg" width="267.941" height="267.289" viewBox="0 0 267.941 267.289">
  <g id="Grupo_8376" data-name="Grupo 8376" transform="translate(201.256 40.514)">
    <path id="Caminho_13398" data-name="Caminho 13398" d="M6641.838,2660.227l-3.462-1.934,1.044-1.869a4.988,4.988,0,0,1,1.309-1.66,7.716,7.716,0,0,1,2.153-.868l3.486-.987a3.1,3.1,0,0,0,1.766-1.506,2.958,2.958,0,0,0,.317-2.3,2.913,2.913,0,0,0-1.48-1.812,3.163,3.163,0,0,0-2.348-.367,3.329,3.329,0,0,0-1.974,1.41l-3.707-2.071a7.189,7.189,0,0,1,4.517-3.085,7.776,7.776,0,0,1,5.415.993,7.5,7.5,0,0,1,3.613,3.968,5.961,5.961,0,0,1-.6,5.111,5.335,5.335,0,0,1-2.723,2.5,15.133,15.133,0,0,1-1.471.546q-.478.135-1.248.328t-1.32.348q-.55.156-.9.281a3.356,3.356,0,0,0-1.612,1.592Zm-5.47,5.87a2.7,2.7,0,0,1-1.3-1.592,2.4,2.4,0,0,1,.185-1.987,2.487,2.487,0,0,1,1.588-1.223,2.614,2.614,0,0,1,2.031.25,2.708,2.708,0,0,1,1.3,1.592,2.41,2.41,0,0,1-.185,1.987,2.489,2.489,0,0,1-1.588,1.224A2.616,2.616,0,0,1,6636.369,2666.1Z" transform="translate(-6634.935 -2643.046)" fill="#ff7d00"/>
  </g>
  <g id="Grupo_8377" data-name="Grupo 8377" transform="translate(0 212.977)">
    <ellipse id="Elipse_1233" data-name="Elipse 1233" cx="133.97" cy="27.156" rx="133.97" ry="27.156" transform="translate(0 0)" fill="#f0f0f0"/>
  </g>
  <g id="Grupo_8378" data-name="Grupo 8378" transform="translate(139.211 119.609)">
    <path id="Caminho_13399" data-name="Caminho 13399" d="M6513,2841.639l-4.788,1.286a.021.021,0,0,1-.011,0l-4.217,1.133a3.192,3.192,0,0,1-3.943-2.392l-.73-3.288-.346-1.557a11.459,11.459,0,0,1,.061-5.218c.015-.061.029-.12.044-.179.426-1.712.895-3.229,1.424-4.807a11.042,11.042,0,0,1,7.114-7.011l7.367-2.353a11.05,11.05,0,0,1,11.043,2.579l15.563,15.039-.775-5.15,24.849-3.535c2.677,13.8,4.628,24.809,6.85,36.865a13.011,13.011,0,0,1-16.553,14.819,47,47,0,0,1-8.048-3.238,49.081,49.081,0,0,1-14.165-11.333l-5.115-20.693a16,16,0,0,0-9.106-10.79l1.261,4.015a3.445,3.445,0,0,1-2.394,4.359l-.114.031Z" transform="translate(-6498.692 -2816.73)" fill="#fff"/>
  </g>
  <g id="Grupo_8379" data-name="Grupo 8379" transform="translate(83.583 80.752)">
    <path id="Caminho_13400" data-name="Caminho 13400" d="M6474.281,2783.254l.775,5.15-15.563-15.039a11.049,11.049,0,0,0-11.043-2.579l-7.368,2.353a11.061,11.061,0,0,0-6.032,4.707,24.5,24.5,0,0,1-7.895-.338,2.428,2.428,0,0,0-1.826,4.374,15.6,15.6,0,0,0,7.215,3.076c-.015.059-.03.118-.044.179a11.452,11.452,0,0,0-.061,5.218l.345,1.557a16.3,16.3,0,0,0-1.74,12.2l6.595,26.388a145.426,145.426,0,0,1-18.43-4.65c-7.138-24.049-12.619-44.088-16.363-64.415-6.5,2.013-12.865,3.986-19.407,5.954l-6.9-26.124c6.338-2.138,12.7-4.492,19.716-7.041a47.275,47.275,0,0,1,19.83-2.669c4.03.32,7.984.639,11.91.964,1.1,7.682,5.15,16.446,15.865,17.614s17.327-10.14,17.6-14.347c4.688.546,9.513,1.148,14.545,1.829a21.325,21.325,0,0,1,18.007,16.76c2.02,9.66,3.674,17.909,5.118,25.346Z" transform="translate(-6376.539 -2731.404)" fill="#323433"/>
  </g>
  <g id="Grupo_8380" data-name="Grupo 8380" transform="translate(136.135 246.961)">
    <path id="Caminho_13401" data-name="Caminho 13401" d="M6550.029,3096.378v3.844a2.653,2.653,0,0,1-2.655,2.653h-52.783a2.653,2.653,0,0,1-2.653-2.653v-1.577a5.7,5.7,0,0,1,.435-2.267Z" transform="translate(-6491.938 -3096.378)" fill="#fff"/>
  </g>
  <g id="Grupo_8381" data-name="Grupo 8381" transform="translate(136.569 224.514)">
    <path id="Caminho_13402" data-name="Caminho 13402" d="M6545,3047.088l5.55,22.447h-57.657c1.927-4.516,9.856-4.916,15.769-8.771a13.88,13.88,0,0,0,5.376-6.193h26.753A9.41,9.41,0,0,1,6545,3047.088Zm-6.385,15.234a3.731,3.731,0,1,0-3.731,3.731A3.732,3.732,0,0,0,6538.614,3062.322Z" transform="translate(-6492.892 -3047.088)" fill="#323433"/>
  </g>
  <g id="Grupo_8382" data-name="Grupo 8382" transform="translate(137.598 134.698)">
    <path id="Caminho_13403" data-name="Caminho 13403" d="M6516.339,2858.268l.114-.031a3.445,3.445,0,0,0,2.394-4.359l-1.261-4.015a16,16,0,0,1,9.107,10.79l5.115,20.693,3.371,13.636,9.64,39,1.41,5.7a9.41,9.41,0,0,0-4.208,7.482h-26.753l-7.212-28.864-5.82-23.287-6.595-26.387a16.306,16.306,0,0,1,1.74-12.2l.73,3.288a3.192,3.192,0,0,0,3.944,2.392l4.217-1.134a.026.026,0,0,0,.011,0l4.787-1.286Z" transform="translate(-6495.149 -2849.863)" fill="#ff7d00"/>
  </g>
  <g id="Grupo_8383" data-name="Grupo 8383" transform="translate(174.257 166.18)">
    <path id="Caminho_13404" data-name="Caminho 13404" d="M6601.737,2934.122h0a13.008,13.008,0,0,1-3.877-.554,47.032,47.032,0,0,1-8.048-3.238A49.064,49.064,0,0,1,6575.648,2919l3.37,13.636,9.641,39C6606.979,2965.785,6607.734,2947.5,6601.737,2934.122Z" transform="translate(-6575.648 -2918.995)" fill="#ff7d00"/>
  </g>
  <g id="Grupo_8384" data-name="Grupo 8384" transform="translate(174.828 236.014)">
    <path id="Caminho_13405" data-name="Caminho 13405" d="M6580.636,3072.341a3.732,3.732,0,1,1-3.731,3.733A3.731,3.731,0,0,1,6580.636,3072.341Z" transform="translate(-6576.904 -3072.341)" fill="#fff"/>
  </g>
  <g id="Grupo_8385" data-name="Grupo 8385" transform="translate(150.117 21.916)">
    <path id="Caminho_13406" data-name="Caminho 13406" d="M6541.706,2614.357c4.01,5.29,13.169,7.6,10.438,15.59-2.2,6.437-11.285,18.33-18.159,26.1h0l.462-12.1s7.744-3.555,7.488-6.4-9.179-1.174-9.179-1.174,9.185-7.8,7.84-11.268c0-.011-8.775-4.149-14.033-9.623-.381-.4-.744-.8-1.083-1.209-4.588-5.539-4.342-14.485,6.227-11.454C6537.546,2604.494,6540.275,2612.467,6541.706,2614.357Z" transform="translate(-6522.642 -2602.209)" fill="#323433"/>
  </g>
  <g id="Grupo_8386" data-name="Grupo 8386" transform="translate(135.039 35.19)">
    <path id="Caminho_13407" data-name="Caminho 13407" d="M6523.9,2653.421c.256,2.842-7.488,6.4-7.488,6.4l-.462,12.1-.326,8.558q3.636.389,7.37.823c-.272,4.206-6.885,15.515-17.6,14.346s-14.768-9.932-15.865-17.615q3.372.282,6.728.573c.794-4.038,1.494-7.761,2.06-11.047v0c5.031-.749,10.06-2.792,15.871-6.276l-2.793-3.6s-8.225,7.579-11.307,2.593c-2.685-4.344.035-8.023-8.692-10.2h0a160.619,160.619,0,0,0,11.614-14.264,12.155,12.155,0,0,1,5.52-4.451c5.258,5.474,14.03,9.612,14.034,9.624,1.345,3.466-7.84,11.268-7.84,11.268S6523.646,2650.579,6523.9,2653.421Z" transform="translate(-6489.53 -2631.356)" fill="#fff"/>
  </g>
  <g id="Grupo_8387" data-name="Grupo 8387" transform="translate(129.945 53.904)">
    <path id="Caminho_13408" data-name="Caminho 13408" d="M6505.3,2680.058l2.793,3.6c-5.811,3.485-10.84,5.527-15.87,6.276a30.8,30.8,0,0,1-7.148.221,7.338,7.338,0,0,1-4.722-12.351q2.48-2.63,4.947-5.354h0c8.728,2.177,6.007,5.855,8.692,10.2C6497.079,2687.637,6505.3,2680.058,6505.3,2680.058Z" transform="translate(-6478.345 -2672.451)" fill="#323433"/>
  </g>
  <g id="Grupo_8388" data-name="Grupo 8388" transform="translate(136.804 203.132)">
    <path id="Caminho_13409" data-name="Caminho 13409" d="M6507.1,3000.135l7.213,28.864a13.885,13.885,0,0,1-5.376,6.193l-.079-.122-7.436-4.462a6.163,6.163,0,0,0-2.282-.812l-5.739-26.7Z" transform="translate(-6493.405 -3000.135)" fill="#323433"/>
  </g>
  <g id="Grupo_8389" data-name="Grupo 8389" transform="translate(56.749 175.195)">
    <path id="Caminho_13410" data-name="Caminho 13410" d="M6397.67,2969.69l5.739,26.7a6.143,6.143,0,0,0-2.256.094c-23.532,5.415-39.976,8.95-60.226,12.177a20.151,20.151,0,0,1-13.257-37.34c21.53-12.47,38.749-22.091,59.449-32.531a145.524,145.524,0,0,0,18.43,4.649l5.82,23.287Z" transform="translate(-6317.617 -2938.789)" fill="#ff7d00"/>
  </g>
  <g id="Grupo_8390" data-name="Grupo 8390" transform="translate(131.345 126.817)">
    <path id="Caminho_13411" data-name="Caminho 13411" d="M6492.167,2832.935a11.06,11.06,0,0,0-1.083,2.3c-.529,1.578-1,3.095-1.424,4.808a15.6,15.6,0,0,1-7.215-3.076,2.428,2.428,0,0,1,1.826-4.374A24.513,24.513,0,0,0,6492.167,2832.935Z" transform="translate(-6481.419 -2832.558)" fill="#fff"/>
  </g>
  <g id="Grupo_8391" data-name="Grupo 8391" transform="translate(61.392 0.6)">
    <path id="Caminho_13412" data-name="Caminho 13412" d="M6370.941,2570.323a22.174,22.174,0,0,1-40.74,17.265,22.456,22.456,0,0,1-1.164-2.751,22.173,22.173,0,0,1,41.9-14.514ZM6355.5,2593.5a16.851,16.851,0,1,0-21.437-10.409A16.852,16.852,0,0,0,6355.5,2593.5Z" transform="translate(-6327.81 -2555.4)" fill="#fff"/>
  </g>
  <g id="Grupo_8392" data-name="Grupo 8392" transform="translate(66.715 5.924)">
    <path id="Caminho_13413" data-name="Caminho 13413" d="M6372.279,2578.432a16.851,16.851,0,1,1-21.438-10.409A16.851,16.851,0,0,1,6372.279,2578.432Z" transform="translate(-6339.5 -2567.091)" fill="#fff"/>
  </g>
  <g id="Grupo_8393" data-name="Grupo 8393" transform="translate(24.497 35.998)">
    <path id="Caminho_13414" data-name="Caminho 13414" d="M6305.879,2687.742l6.9,26.124c-10.676,3.215-21.809,6.418-34.712,9.772a10.509,10.509,0,0,1-12.67-7.04,616.255,616.255,0,0,1-18.378-72.323c-.076-.381-.151-.764-.227-1.148l.442,1.624a2.77,2.77,0,0,0,4.064,1.667l2.631-1.529,5.717-3.323,6.081-3.535,3.1-1.8,8.481-3.1a9.177,9.177,0,0,1,2.546,2.594,1.329,1.329,0,0,1-1.021,2.082l-3.408.189a6.274,6.274,0,0,0-5.144,3.229l-1.318,2.381a15.737,15.737,0,0,0-.806,13.552l14.488,35.57a1.9,1.9,0,0,0,2.191,1.125C6292.326,2692.08,6299.088,2690.034,6305.879,2687.742Z" transform="translate(-6246.793 -2633.13)" fill="#fff"/>
  </g>
  <g id="Grupo_8394" data-name="Grupo 8394" transform="translate(46.528 27.153)">
    <path id="Caminho_13415" data-name="Caminho 13415" d="M6312.427,2619.342l-8.772,3.211-8.481,3.1,1.883-1.094a2.68,2.68,0,0,0,1.247-3l-.934-3.564,13.105-4.287a22.373,22.373,0,0,0,1.953,5.634Z" transform="translate(-6295.173 -2613.708)" fill="#323433"/>
  </g>
  <g id="Grupo_8395" data-name="Grupo 8395" transform="translate(22.081 28.234)">
    <path id="Caminho_13416" data-name="Caminho 13416" d="M6262.841,2628.747l-6.081,3.534-5.717,3.323-2.631,1.529a2.769,2.769,0,0,1-4.064-1.667l-.442-1.624s0-.005,0-.01l-1.646-6.057-.7-2.557a2.025,2.025,0,0,1,1.378-2.471l22.189-6.58a2.049,2.049,0,0,1,2.565,1.444l.439,1.677.935,3.564a2.682,2.682,0,0,1-1.248,3l-1.882,1.095Z" transform="translate(-6241.491 -2616.082)" fill="#fff"/>
  </g>
  <g id="Grupo_8396" data-name="Grupo 8396" transform="translate(15.653 39.928)">
    <path id="Caminho_13417" data-name="Caminho 13417" d="M6236.443,2648.975l-.392.078-3.038,1.111c-2.307.845-4.769-.1-5.459-2.092s.66-4.258,3-5.021l3.554-1.163.465-.127,1.647,6.057s0,.006,0,.01Q6236.331,2648.4,6236.443,2648.975Z" transform="translate(-6227.374 -2641.76)" fill="#323433"/>
  </g>
  <g id="Grupo_8428" data-name="Grupo 8428" transform="translate(15.059)">
    <g id="Grupo_8397" data-name="Grupo 8397" transform="translate(134.458 21.328)">
      <path id="Caminho_13418" data-name="Caminho 13418" d="M6572.022,2761.489a13.55,13.55,0,0,1-3.919-.58,47.422,47.422,0,0,1-8.15-3.279,49.4,49.4,0,0,1-14.334-11.465.594.594,0,0,1,.886-.792,48.26,48.26,0,0,0,13.995,11.2,46.185,46.185,0,0,0,7.947,3.2,12.41,12.41,0,0,0,15.8-14.143c-.595-3.234-1.171-6.394-1.748-9.55-1.544-8.463-3.141-17.214-5.1-27.31-1.59-8.187-3.264-16.475-5.117-25.338a20.761,20.761,0,0,0-17.505-16.293c-4.795-.649-9.549-1.247-14.535-1.828-2.53-.293-5.008-.569-7.364-.821a.6.6,0,0,1-.53-.613l.788-20.658a.592.592,0,0,1,.345-.517c2.847-1.308,7.3-4.04,7.146-5.8a.682.682,0,0,0-.307-.5c-1.447-1.1-6.39-.473-8.172-.139a.594.594,0,0,1-.494-1.037c3.327-2.826,8.242-8.048,7.732-10.4-2.311-1.144-9.394-4.868-13.968-9.631-.393-.407-.766-.825-1.112-1.241-2.954-3.565-3.833-8.088-2.09-10.754.866-1.324,3.18-3.3,8.938-1.65,4.748,1.361,7.507,6.6,9.155,9.728a18.285,18.285,0,0,0,1.156,2.021,24.865,24.865,0,0,0,4.743,4.321c3.826,2.938,7.782,5.976,5.784,11.82-2.152,6.289-10.88,17.92-18.138,26.142l-.3,7.79c2.193.236,4.485.493,6.823.764,4.993.582,9.754,1.181,14.556,1.83a21.952,21.952,0,0,1,18.509,17.228c1.854,8.869,3.529,17.162,5.12,25.355,1.959,10.1,3.557,18.856,5.1,27.322.576,3.157,1.152,6.314,1.748,9.548a13.6,13.6,0,0,1-13.255,16.075Zm-37.715-117.865-.385,10.066c6.971-8.041,14.936-18.776,16.941-24.639,1.723-5.037-1.571-7.566-5.383-10.494a25.642,25.642,0,0,1-4.966-4.545,18.03,18.03,0,0,1-1.26-2.186c-1.56-2.961-4.17-7.917-8.431-9.139-3.726-1.068-6.431-.656-7.617,1.158-1.441,2.205-.577,6.223,2.011,9.346.327.394.681.79,1.053,1.176,4.667,4.857,12.308,8.736,13.792,9.464a.636.636,0,0,1,.379.39c1.134,2.92-3.861,8.084-6.528,10.567,2.225-.265,5.658-.449,7.12.657a1.876,1.876,0,0,1,.773,1.345C6542.069,2639.7,6535.963,2642.83,6534.307,2643.624Z" transform="translate(-6521.323 -2600.917)" fill="#323433"/>
    </g>
    <g id="Grupo_8398" data-name="Grupo 8398" transform="translate(29.037 35.404)">
      <path id="Caminho_13419" data-name="Caminho 13419" d="M6307.828,2693.789a2.477,2.477,0,0,1-2.295-1.548l-14.488-35.57a16.26,16.26,0,0,1,.836-14.063l1.318-2.381a6.832,6.832,0,0,1,5.631-3.534l3.408-.19a.734.734,0,0,0,.565-1.151,8.538,8.538,0,0,0-2.384-2.435.594.594,0,0,1,.654-.992,9.778,9.778,0,0,1,2.709,2.754,1.922,1.922,0,0,1-1.479,3.01l-3.407.189a5.652,5.652,0,0,0-4.657,2.924l-1.318,2.381a15.078,15.078,0,0,0-.775,13.04l14.489,35.569a1.3,1.3,0,0,0,1.5.772c6.689-1.582,13.359-3.519,20.992-6.1,5.258-1.773,10.57-3.709,16.195-5.758l3.508-1.277a48.037,48.037,0,0,1,20.079-2.7c4.03.32,7.986.638,11.913.964q3.108.26,6.2.528c.8-4.061,1.437-7.5,1.955-10.51a.594.594,0,0,1,1.171.2c-.542,3.144-1.217,6.762-2.063,11.061a.6.6,0,0,1-.635.477q-3.357-.292-6.724-.574c-3.926-.325-7.879-.644-11.909-.964a46.879,46.879,0,0,0-19.58,2.636l-3.507,1.277c-5.631,2.052-10.949,3.989-16.221,5.768-7.668,2.588-14.372,4.535-21.1,6.125A2.508,2.508,0,0,1,6307.828,2693.789Z" transform="translate(-6289.832 -2631.826)" fill="#323433"/>
    </g>
    <g id="Grupo_8399" data-name="Grupo 8399" transform="translate(45.74)">
      <path id="Caminho_13420" data-name="Caminho 13420" d="M6349.325,2599.623a22.827,22.827,0,0,1-20.363-12.485h0a22.969,22.969,0,0,1-2-5.784,22.769,22.769,0,1,1,29.773,17.022A22.6,22.6,0,0,1,6349.325,2599.623Zm-.026-44.351a21.576,21.576,0,0,0-20.41,28.653,21.871,21.871,0,0,0,1.134,2.678h0a21.571,21.571,0,1,0,19.275-31.331Z" transform="translate(-6326.509 -2554.083)" fill="#323433"/>
    </g>
    <g id="Grupo_8400" data-name="Grupo 8400" transform="translate(51.065 5.332)">
      <path id="Caminho_13421" data-name="Caminho 13421" d="M6355.665,2600.686a17.448,17.448,0,1,1,5.693-.962h0A17.379,17.379,0,0,1,6355.665,2600.686Zm-.03-33.705a16.258,16.258,0,1,0,5.334,31.621h0a16.258,16.258,0,0,0-5.334-31.621Zm5.529,32.182h0Z" transform="translate(-6338.204 -2565.793)" fill="#323433"/>
    </g>
    <g id="Grupo_8401" data-name="Grupo 8401" transform="translate(6.427 27.639)">
      <path id="Caminho_13422" data-name="Caminho 13422" d="M6246.312,2637.394a3.377,3.377,0,0,1-3.25-2.482l-.441-1.625c0-.01,0-.019-.006-.028l-2.337-8.6a2.6,2.6,0,0,1,1.782-3.2l22.188-6.58a2.642,2.642,0,0,1,3.309,1.863l1.375,5.24a3.285,3.285,0,0,1-1.524,3.666L6248,2636.936A3.355,3.355,0,0,1,6246.312,2637.394Zm-2.54-4.4.436,1.606a2.177,2.177,0,0,0,3.193,1.309l19.408-11.281a2.089,2.089,0,0,0,.971-2.336l-1.374-5.241a1.455,1.455,0,0,0-1.821-1.026l-22.188,6.58a1.424,1.424,0,0,0-.975,1.747l2.343,8.614C6243.767,2632.975,6243.77,2632.985,6243.771,2632.994Z" transform="translate(-6240.183 -2614.775)" fill="#323433"/>
    </g>
    <g id="Grupo_8402" data-name="Grupo 8402" transform="translate(30.875 32.193)">
      <path id="Caminho_13423" data-name="Caminho 13423" d="M6294.462,2632.277a.594.594,0,0,1-.2-1.152l17.254-6.313a.594.594,0,1,1,.409,1.116l-17.254,6.313A.593.593,0,0,1,6294.462,2632.277Z" transform="translate(-6293.869 -2624.775)" fill="#323433"/>
    </g>
    <g id="Grupo_8403" data-name="Grupo 8403" transform="translate(0 39.461)">
      <path id="Caminho_13424" data-name="Caminho 13424" d="M6230.581,2650.508a5.039,5.039,0,0,1-2.159-.473,3.97,3.97,0,0,1-1.9-5.478,5.327,5.327,0,0,1,3.133-2.63l3.553-1.163a.594.594,0,0,1,.369,1.129l-3.552,1.163a4.132,4.132,0,0,0-2.439,2.029,2.784,2.784,0,0,0,1.345,3.876,4.126,4.126,0,0,0,3.168.085l3.038-1.111a.594.594,0,0,1,.409,1.116l-3.038,1.111A5.619,5.619,0,0,1,6230.581,2650.508Z" transform="translate(-6226.07 -2640.734)" fill="#323433"/>
    </g>
    <g id="Grupo_8404" data-name="Grupo 8404" transform="translate(33.07 26.558)">
      <path id="Caminho_13425" data-name="Caminho 13425" d="M6299.283,2617.878a.594.594,0,0,1-.185-1.158l13.106-4.287a.594.594,0,0,1,.369,1.129l-13.107,4.287A.587.587,0,0,1,6299.283,2617.878Z" transform="translate(-6298.689 -2612.402)" fill="#323433"/>
    </g>
    <g id="Grupo_8405" data-name="Grupo 8405" transform="translate(13.346 37.515)">
      <path id="Caminho_13426" data-name="Caminho 13426" d="M6258.6,2647.3a.594.594,0,0,1-.573-.438l-2.635-9.649a.594.594,0,0,1,1.146-.313l2.635,9.649a.594.594,0,0,1-.417.729A.6.6,0,0,1,6258.6,2647.3Z" transform="translate(-6255.375 -2636.461)" fill="#323433"/>
    </g>
    <g id="Grupo_8406" data-name="Grupo 8406" transform="translate(19.512 35.84)">
      <path id="Caminho_13427" data-name="Caminho 13427" d="M6271.7,2641.972a.593.593,0,0,1-.572-.437l-2.187-8a.594.594,0,1,1,1.146-.313l2.185,8a.593.593,0,0,1-.416.73A.6.6,0,0,1,6271.7,2641.972Z" transform="translate(-6268.915 -2632.783)" fill="#323433"/>
    </g>
    <g id="Grupo_8407" data-name="Grupo 8407" transform="translate(25.937 33.56)">
      <path id="Caminho_13428" data-name="Caminho 13428" d="M6285.46,2635.71a.594.594,0,0,1-.573-.438l-1.841-6.745a.594.594,0,1,1,1.146-.313l1.841,6.745a.594.594,0,0,1-.416.73A.6.6,0,0,1,6285.46,2635.71Z" transform="translate(-6283.024 -2627.777)" fill="#323433"/>
    </g>
    <g id="Grupo_8408" data-name="Grupo 8408" transform="translate(8.841 45.391)">
      <path id="Caminho_13429" data-name="Caminho 13429" d="M6298.506,2854.274a20.851,20.851,0,0,1-20.2-15.948,20.617,20.617,0,0,1,9.788-22.748c20.888-12.1,38.081-21.742,59.036-32.324-6.978-23.531-12.4-43.37-16.115-63.343-6.067,1.88-12.333,3.82-18.773,5.758-12.584,3.789-23.3,6.8-34.733,9.779a11.1,11.1,0,0,1-13.387-7.438,618.3,618.3,0,0,1-18.394-72.386l-.227-1.149v0a.594.594,0,1,1,1.167-.223l.225,1.145a617.257,617.257,0,0,0,18.363,72.261,9.906,9.906,0,0,0,11.955,6.643c11.421-2.969,22.12-5.981,34.689-9.766,6.661-2,13.138-4.012,19.4-5.953a.587.587,0,0,1,.482.059.594.594,0,0,1,.278.4c3.735,20.279,9.237,40.393,16.348,64.354a.6.6,0,0,1-.3.7c-21.131,10.657-38.4,20.342-59.419,32.515a19.438,19.438,0,0,0-9.228,21.445,19.634,19.634,0,0,0,22.094,14.794c19.969-3.183,36.559-6.732,60.186-12.169a6.737,6.737,0,0,1,4.976.787l7.436,4.462a.594.594,0,0,1-.611,1.019l-7.435-4.462a5.557,5.557,0,0,0-4.1-.648c-23.654,5.443-40.264,9-60.267,12.185A20.53,20.53,0,0,1,6298.506,2854.274Z" transform="translate(-6245.484 -2653.757)" fill="#323433"/>
    </g>
    <g id="Grupo_8409" data-name="Grupo 8409" transform="translate(90.665 202.537)">
      <path id="Caminho_13430" data-name="Caminho 13430" d="M6425.752,3009.579a.594.594,0,0,1-.125-1.175l44.184-9.561a.594.594,0,1,1,.252,1.161l-44.185,9.561A.557.557,0,0,1,6425.752,3009.579Z" transform="translate(-6425.158 -2998.829)" fill="#323433"/>
    </g>
    <g id="Grupo_8410" data-name="Grupo 8410" transform="translate(120.482 134.103)">
      <path id="Caminho_13431" data-name="Caminho 13431" d="M6546.664,2968.506h-52.782a3.251,3.251,0,0,1-3.248-3.248v-1.577a6.345,6.345,0,0,1,.482-2.5c1.259-2.951,4.817-4.262,8.583-5.652a36.415,36.415,0,0,0,7.409-3.384,13.318,13.318,0,0,0,5.075-5.75l-19.579-78.341a16.834,16.834,0,0,1,1.8-12.641.594.594,0,0,1,1.026.6,15.648,15.648,0,0,0-1.678,11.753l19.628,78.539a.6.6,0,0,1-.031.381,14.438,14.438,0,0,1-5.6,6.454,37.838,37.838,0,0,1-7.645,3.5c-3.672,1.355-6.844,2.524-7.9,5a5.093,5.093,0,0,0-.386,2.033v1.577a2.061,2.061,0,0,0,2.06,2.06h52.782a2.062,2.062,0,0,0,2.061-2.06v-3.771l-25.067-101.4a15.343,15.343,0,0,0-8.769-10.388.594.594,0,0,1,.478-1.088,16.526,16.526,0,0,1,9.444,11.19l25.085,101.474a.614.614,0,0,1,.018.143v3.844A3.252,3.252,0,0,1,6546.664,2968.506Z" transform="translate(-6490.634 -2848.557)" fill="#323433"/>
    </g>
    <g id="Grupo_8411" data-name="Grupo 8411" transform="translate(142.062 223.92)">
      <path id="Caminho_13432" data-name="Caminho 13432" d="M6565.368,3054.453h-26.753a.594.594,0,1,1,0-1.188H6564.8a10.16,10.16,0,0,1,4.437-7.372.594.594,0,1,1,.688.968,8.825,8.825,0,0,0-3.958,7A.594.594,0,0,1,6565.368,3054.453Z" transform="translate(-6538.021 -3045.783)" fill="#323433"/>
    </g>
    <g id="Grupo_8412" data-name="Grupo 8412" transform="translate(120.916 246.366)">
      <path id="Caminho_13433" data-name="Caminho 13433" d="M6549.838,3096.262h-57.657a.594.594,0,1,1,0-1.188h57.657a.594.594,0,0,1,0,1.188Z" transform="translate(-6491.587 -3095.073)" fill="#323433"/>
    </g>
    <g id="Grupo_8413" data-name="Grupo 8413" transform="translate(159.176 235.42)">
      <path id="Caminho_13434" data-name="Caminho 13434" d="M6579.926,3079.689a4.327,4.327,0,1,1,4.326-4.326A4.331,4.331,0,0,1,6579.926,3079.689Zm0-7.465a3.138,3.138,0,1,0,3.137,3.139A3.142,3.142,0,0,0,6579.926,3072.225Z" transform="translate(-6575.6 -3071.036)" fill="#323433"/>
    </g>
    <g id="Grupo_8414" data-name="Grupo 8414" transform="translate(110.599 174.6)">
      <path id="Caminho_13435" data-name="Caminho 13435" d="M6487.957,2943.322a.555.555,0,0,1-.1-.01,146.066,146.066,0,0,1-18.5-4.667.594.594,0,1,1,.356-1.133,145.019,145.019,0,0,0,18.354,4.631.594.594,0,0,1-.1,1.179Z" transform="translate(-6468.932 -2937.484)" fill="#323433"/>
    </g>
    <g id="Grupo_8415" data-name="Grupo 8415" transform="translate(171.614 180.713)">
      <path id="Caminho_13436" data-name="Caminho 13436" d="M6603.508,2989.6a.594.594,0,0,1-.181-1.16c6.751-2.153,11.457-6.116,13.985-11.776,3.1-6.929,2.623-16.246-1.268-24.923a.594.594,0,1,1,1.084-.485c4.026,8.979,4.5,18.66,1.268,25.893-2.674,5.983-7.623,10.163-14.709,12.422A.576.576,0,0,1,6603.508,2989.6Z" transform="translate(-6602.914 -2950.907)" fill="#323433"/>
    </g>
    <g id="Grupo_8416" data-name="Grupo 8416" transform="translate(121.15 205.502)">
      <path id="Caminho_13437" data-name="Caminho 13437" d="M6498.433,3033.227a.6.6,0,0,1-.581-.469l-5.738-26.7a.594.594,0,1,1,1.162-.25l5.738,26.7a.594.594,0,0,1-.456.706A.625.625,0,0,1,6498.433,3033.227Z" transform="translate(-6492.101 -3005.34)" fill="#323433"/>
    </g>
    <g id="Grupo_8417" data-name="Grupo 8417" transform="translate(133.077 127.097)">
      <path id="Caminho_13438" data-name="Caminho 13438" d="M6518.884,2852.474a.594.594,0,0,1-.154-1.168l10.17-2.732a2.851,2.851,0,0,0,1.983-3.608l-2.05-6.53a.591.591,0,0,1,0-.373l1.563-4.491a.594.594,0,1,1,1.123.39l-1.5,4.306,1.991,6.343a4.04,4.04,0,0,1-2.807,5.111l-.112.03-10.059,2.7A.608.608,0,0,1,6518.884,2852.474Z" transform="translate(-6518.29 -2833.172)" fill="#323433"/>
    </g>
    <g id="Grupo_8418" data-name="Grupo 8418" transform="translate(123.56 119.014)">
      <path id="Caminho_13439" data-name="Caminho 13439" d="M6561.174,2854.375a.592.592,0,0,1-.413-.167L6524.9,2819.55a10.444,10.444,0,0,0-10.45-2.441l-7.368,2.353a10.452,10.452,0,0,0-6.73,6.633c-.6,1.793-1.038,3.262-1.411,4.762l-.043.175a10.923,10.923,0,0,0-.058,4.95l1.076,4.845a2.6,2.6,0,0,0,3.21,1.947l4.216-1.133a.594.594,0,1,1,.309,1.147l-4.217,1.134a3.785,3.785,0,0,1-4.677-2.838l-1.076-4.844a12.116,12.116,0,0,1,.063-5.488l.045-.185c.381-1.529.824-3.025,1.437-4.85a11.636,11.636,0,0,1,7.5-7.386l7.368-2.354a11.627,11.627,0,0,1,11.637,2.718l35.865,34.658a.594.594,0,0,1-.413,1.021Z" transform="translate(-6497.392 -2815.423)" fill="#323433"/>
    </g>
    <g id="Grupo_8419" data-name="Grupo 8419" transform="translate(127.788 129.56)">
      <path id="Caminho_13440" data-name="Caminho 13440" d="M6511.721,2855.531a3.791,3.791,0,0,1-3.685-2.968l-1.079-4.845a12.156,12.156,0,0,1,.065-5.488c.258-1.053.551-2.109.9-3.228a.594.594,0,1,1,1.134.35c-.338,1.1-.625,2.13-.877,3.161a10.962,10.962,0,0,0-.06,4.948l1.079,4.844a2.595,2.595,0,0,0,3.2,1.948l.056-.012a.594.594,0,0,1,.374,1.116.62.62,0,0,1-.145.05A3.816,3.816,0,0,1,6511.721,2855.531Z" transform="translate(-6506.676 -2838.582)" fill="#323433"/>
    </g>
    <g id="Grupo_8420" data-name="Grupo 8420" transform="translate(132.605 128.267)">
      <path id="Caminho_13441" data-name="Caminho 13441" d="M6522.3,2852.69a3.792,3.792,0,0,1-3.688-2.968l-1.076-4.845a12.1,12.1,0,0,1,.064-5.489c.261-1.068.554-2.124.9-3.229a.594.594,0,1,1,1.134.353c-.335,1.082-.623,2.115-.878,3.158a10.93,10.93,0,0,0-.059,4.948l1.077,4.845a2.6,2.6,0,0,0,3.186,1.953l.023-.006a.594.594,0,0,1,.356,1.133.839.839,0,0,1-.086.024A3.833,3.833,0,0,1,6522.3,2852.69Z" transform="translate(-6517.254 -2835.741)" fill="#323433"/>
    </g>
    <g id="Grupo_8421" data-name="Grupo 8421" transform="translate(138.093 126.804)">
      <path id="Caminho_13442" data-name="Caminho 13442" d="M6534.346,2849.477a3.773,3.773,0,0,1-3.682-2.968l-1.076-4.844a12.133,12.133,0,0,1,.065-5.489c.259-1.055.551-2.112.9-3.228a.594.594,0,1,1,1.135.351c-.338,1.094-.625,2.127-.877,3.16a10.917,10.917,0,0,0-.06,4.948l1.076,4.844a2.588,2.588,0,0,0,3.008,1.992,2.058,2.058,0,0,0,.2-.045.594.594,0,0,1,.308,1.148c-.1.027-.2.048-.3.066A3.876,3.876,0,0,1,6534.346,2849.477Z" transform="translate(-6529.305 -2832.528)" fill="#323433"/>
    </g>
    <g id="Grupo_8422" data-name="Grupo 8422" transform="translate(115.692 126.223)">
      <path id="Caminho_13443" data-name="Caminho 13443" d="M6488.954,2839.93a.569.569,0,0,1-.091-.007,16.077,16.077,0,0,1-7.47-3.179,3.022,3.022,0,0,1,2.275-5.443,23.884,23.884,0,0,0,7.72.334.594.594,0,0,1,.141,1.179,25.258,25.258,0,0,1-8.071-.343,1.82,1.82,0,0,0-2.085,1.306,1.844,1.844,0,0,0,.708,2,15.006,15.006,0,0,0,6.96,2.974.594.594,0,0,1-.088,1.181Z" transform="translate(-6480.116 -2831.253)" fill="#323433"/>
    </g>
    <g id="Grupo_8423" data-name="Grupo 8423" transform="translate(164.182 122.112)">
      <path id="Caminho_13444" data-name="Caminho 13444" d="M6589.45,2838.461a.594.594,0,0,1-.586-.506l-2.264-15.046a.594.594,0,1,1,1.175-.177l2.264,15.046a.6.6,0,0,1-.5.676A.624.624,0,0,1,6589.45,2838.461Z" transform="translate(-6586.593 -2822.226)" fill="#323433"/>
    </g>
    <g id="Grupo_8424" data-name="Grupo 8424" transform="translate(114.293 34.595)">
      <path id="Caminho_13445" data-name="Caminho 13445" d="M6487.046,2667.771c-.9,0-1.8-.038-2.726-.115a7.932,7.932,0,0,1-5.1-13.349c1.9-2.016,3.47-3.715,4.937-5.344a157.962,157.962,0,0,0,11.572-14.211,12.807,12.807,0,0,1,5.8-4.664.594.594,0,1,1,.407,1.116,11.624,11.624,0,0,0-5.243,4.241,156.419,156.419,0,0,1-11.007,13.592c5.516,1.6,6.116,4.029,6.75,6.589a11.807,11.807,0,0,0,1.361,3.621,2.744,2.744,0,0,0,2.041,1.385c3.356.464,8.31-4.056,8.359-4.1a.588.588,0,0,1,.452-.155.594.594,0,0,1,.42.228l2.793,3.6a.594.594,0,0,1-.164.874c-5.992,3.593-11.1,5.613-16.087,6.354A30.6,30.6,0,0,1,6487.046,2667.771Zm-2.251-17.746c-1.4,1.555-2.911,3.184-4.714,5.1a6.743,6.743,0,0,0,4.337,11.351,30.038,30.038,0,0,0,7.012-.216c4.667-.695,9.472-2.559,15.077-5.856l-2-2.571c-1.41,1.2-5.567,4.429-8.839,3.98a3.918,3.918,0,0,1-2.89-1.938,12.957,12.957,0,0,1-1.5-3.96C6490.639,2653.322,6490.171,2651.437,6484.8,2650.024Z" transform="translate(-6477.044 -2630.051)" fill="#323433"/>
    </g>
    <g id="Grupo_8425" data-name="Grupo 8425" transform="translate(119.386 81.27)">
      <path id="Caminho_13446" data-name="Caminho 13446" d="M6506.2,2751.427a14.526,14.526,0,0,1-1.58-.087c-5.236-.571-14.327-3.685-16.389-18.121a.594.594,0,0,1,1.177-.168c.836,5.856,3.94,15.865,15.341,17.108a14.032,14.032,0,0,0,10.615-3.458c4.082-3.429,6.188-8.195,6.327-10.336a.594.594,0,0,1,1.186.076c-.186,2.859-2.76,7.819-6.748,11.169A15.312,15.312,0,0,1,6506.2,2751.427Z" transform="translate(-6488.226 -2732.542)" fill="#323433"/>
    </g>
    <g id="Grupo_8426" data-name="Grupo 8426" transform="translate(165.671 128.474)">
      <path id="Caminho_13447" data-name="Caminho 13447" d="M6590.457,2840.918a.594.594,0,0,1-.083-1.182l24.85-3.535a.594.594,0,0,1,.167,1.176l-24.849,3.535A.632.632,0,0,1,6590.457,2840.918Z" transform="translate(-6589.864 -2836.196)" fill="#323433"/>
    </g>
    <g id="Grupo_8427" data-name="Grupo 8427" transform="translate(67.929 90.015)">
      <path id="Caminho_13448" data-name="Caminho 13448" d="M6382.728,2779.058a.594.594,0,0,1-.573-.442l-6.9-26.125a.594.594,0,1,1,1.148-.3l6.9,26.124a.594.594,0,0,1-.423.726A.58.58,0,0,1,6382.728,2779.058Z" transform="translate(-6375.235 -2751.744)" fill="#323433"/>
    </g>
  </g>
</svg>
