<svg width="91.158" height="104.174" xmlns="http://www.w3.org/2000/svg" data-name="Componente 18 – 1">
 <defs>
  <clipPath id="clip-path">
   <rect fill="none" height="104.174" width="91.158" data-name="Retângulo 3295" id="Retângulo_3295"/>
  </clipPath>
 </defs>
 <g>
  <title>Layer 1</title>
  <g clip-path="url(#clip-path)" data-name="Grupo 16890" id="Grupo_16890">
   <path fill="#f1fafe" d="m77.30701,0a2.923,2.923 0 0 1 0.831,2.463c-0.042,4.265 -0.02,8.532 -0.021,12.8a1.851,1.851 0 0 1 -1.345,0.324q-9.625,0.011 -19.25,0a2.177,2.177 0 0 1 -1.366,-0.274a1.541,1.541 0 0 1 -0.321,-1.138q-0.024,-6.568 0,-13.136a2.051,2.051 0 0 1 0.1,-0.7a1.328,1.328 0 0 1 0.217,-0.339l21.155,0z" data-name="Caminho 13757" id="Caminho_13757"/>
   <path fill="#f1fafe" d="m17.299,0l17.7,0a1.354,1.354 0 0 1 0.212,0.341a1.229,1.229 0 0 1 0.087,0.394c0.053,4.552 0.036,9.1 0.008,13.657a1.377,1.377 0 0 1 -0.252,0.86a1.683,1.683 0 0 1 -1.243,0.323c-3.617,0.011 -7.235,0.025 -10.852,-0.008a2.749,2.749 0 0 1 -2.223,-0.765c0.233,-0.61 0.786,-0.428 1.213,-0.437c1.625,-0.038 3.252,0 4.878,-0.02c1.445,-0.017 2.125,-0.465 2.111,-1.354c-0.013,-0.852 -0.669,-1.279 -2.061,-1.292c-1.965,-0.019 -3.929,0 -5.894,-0.01a2.127,2.127 0 0 0 -1.953,0.852a0.668,0.668 0 0 1 -0.578,0.359a3.3,3.3 0 0 1 -1.416,-2.965c-0.127,-2.995 -0.051,-6 -0.038,-8.994a1.34,1.34 0 0 1 0.3,-0.94" data-name="Caminho 13758" id="Caminho_13758"/>
   <path fill="#def5fc" d="m20.758,14.659a4.608,4.608 0 0 0 2.41,0.608c3.93,-0.014 7.86,0 11.791,0l0.146,0.13a7.588,7.588 0 0 1 -0.091,4.205a6.523,6.523 0 0 1 -2.79,0.242a19.092,19.092 0 0 1 -2.125,-0.014c-3.135,0.058 -6.269,0.019 -9.4,0.019a1.516,1.516 0 0 1 -1.139,-0.314c-1.593,0 -3.186,0 -4.779,-0.008c-1.2,-0.005 -1.747,-0.538 -1.748,-1.707c0,-5.356 0.022,-10.711 -0.028,-16.067a2.838,2.838 0 0 1 0.836,-1.753l3.458,0c0,3.172 -0.01,6.344 0,9.516a4.616,4.616 0 0 0 1.242,3.309a3.566,3.566 0 0 0 2.214,1.834" data-name="Caminho 13759" id="Caminho_13759"/>
   <path fill="#fc868d" d="m35.03,0.206l-0.034,-0.206l21.155,0l-0.033,0.206a1.745,1.745 0 0 1 -1.344,0.324q-9.2,0.013 -18.4,0a1.743,1.743 0 0 1 -1.344,-0.324" data-name="Caminho 13760" id="Caminho_13760"/>
   <path fill="#f1fafe" d="m84.626,49.83901q0,23.889 0.005,47.778c-0.53,0.526 -1.208,0.359 -1.831,0.36q-19.508,0.016 -39.017,0.007c-1.152,0 -2.3,0.007 -3.455,0a2.184,2.184 0 0 1 -1.275,-0.251a2.93,2.93 0 0 1 -0.311,-1.961q-0.013,-20.116 -0.007,-40.232c0,-3.066 -0.06,-3.118 -3.128,-3.126c-5.35,-0.014 -10.7,0.039 -16.05,-0.026c-1.489,0.058 -2.979,-0.006 -4.468,0.032c-1.3,0.033 -1.671,0.416 -1.728,1.722c-0.018,0.406 -0.008,0.812 -0.008,1.219q0,20.162 0,40.323a4.853,4.853 0 0 1 -0.153,1.808a0.38,0.38 0 0 1 -0.28,0.218c-0.569,-0.423 -0.377,-1.048 -0.378,-1.593q-0.022,-11.747 -0.01,-23.495q0,-11.7 0,-23.393c0,-1.953 0.2,-2.07 1.915,-1.142a9.948,9.948 0 0 0 10.265,-0.073a2.313,2.313 0 0 1 2.624,-0.026a9.83,9.83 0 0 0 10.516,-0.04a2.153,2.153 0 0 1 2.441,0.012a9.917,9.917 0 0 0 10.61,-0.029a2.064,2.064 0 0 1 2.349,-0.005a9.891,9.891 0 0 0 10.694,-0.007a2.049,2.049 0 0 1 2.347,0.019a9.888,9.888 0 0 0 10.606,0.014a2.066,2.066 0 0 1 2.435,0a8.724,8.724 0 0 0 4.095,1.41a1.737,1.737 0 0 1 1.2,0.481" data-name="Caminho 13761" id="Caminho_13761"/>
   <path fill="#def5fc" d="m84.626,49.83899a11.68,11.68 0 0 1 -5.983,-1.965a0.909,0.909 0 0 0 -1.2,0.1a10.273,10.273 0 0 1 -11.625,0.033a1.125,1.125 0 0 0 -1.453,0a10.244,10.244 0 0 1 -11.534,0.017a1.244,1.244 0 0 0 -1.538,0.021a10.294,10.294 0 0 1 -11.455,0a1.247,1.247 0 0 0 -1.537,-0.024a10.242,10.242 0 0 1 -11.534,-0.015a1.172,1.172 0 0 0 -1.455,0a10.342,10.342 0 0 1 -11.545,0.038c-0.253,-0.153 -0.5,-0.47 -0.8,-0.3s-0.146,0.559 -0.146,0.848q-0.008,24.513 0,49.027c-0.687,0.578 -1.5,0.276 -2.265,0.332c-0.977,0.049 -1.954,0.026 -2.932,0.014a1.3,1.3 0 0 1 -1.116,-0.346q0,-26.007 0,-52.014c0.258,-0.35 0.667,-0.291 1.019,-0.36a6.033,6.033 0 0 0 4.958,-4.272c0.112,-0.343 0.108,-1.043 0.822,-0.529a9.217,9.217 0 0 0 1.738,3.048a6.317,6.317 0 0 0 10.378,-2.292a3.011,3.011 0 0 1 0.314,-0.745c0.584,-0.5 0.682,0.041 0.8,0.406a6.4,6.4 0 0 0 1.589,2.678a6.327,6.327 0 0 0 10.341,-2.36c0.12,-0.332 -0.05,-1.258 0.874,-0.741a9.35,9.35 0 0 0 1.738,3.05a6.316,6.316 0 0 0 10.382,-2.287a3,3 0 0 1 0.314,-0.745c0.584,-0.5 0.682,0.039 0.8,0.4a6.4,6.4 0 0 0 1.589,2.678a6.327,6.327 0 0 0 10.341,-2.359c0.12,-0.332 -0.05,-1.258 0.874,-0.742a9.093,9.093 0 0 0 1.88,3.194a6.346,6.346 0 0 0 10.174,-2.236a4.226,4.226 0 0 1 0.378,-0.937c0.565,-0.5 0.67,0.015 0.8,0.385a6.789,6.789 0 0 0 1.207,2.3a6.331,6.331 0 0 0 3.7,2.083c0.38,0.075 0.824,0.007 1.109,0.377l0,4.236" data-name="Caminho 13762" id="Caminho_13762"/>
   <path fill="#567fa5" d="m10.58,97.68801l2.247,-0.071a0.244,0.244 0 0 0 0.189,0a1.72,1.72 0 0 1 1.155,-0.29c1.79,0 3.58,-0.036 5.37,0.019q6.5,-0.064 12.991,0c1.794,-0.053 3.587,-0.017 5.381,-0.019a1.715,1.715 0 0 1 1.157,0.288c0.406,0.011 0.813,0.031 1.219,0.031q21.562,0 43.124,0c0.406,0 0.812,-0.021 1.219,-0.032c1.592,0.011 3.184,0.016 4.776,0.036c1.212,0.015 1.717,0.521 1.729,1.739c0.013,1.322 -0.039,2.645 0.02,3.964c0.032,0.717 -0.259,0.836 -0.88,0.816c-1.219,-0.04 -2.439,-0.012 -3.659,-0.012q-37.358,0 -74.717,0c-0.44,0 -0.879,-0.024 -1.319,-0.036a13.516,13.516 0 0 1 0,-6.435" data-name="Caminho 13763" id="Caminho_13763"/>
   <path fill="#def5fc" d="m6.517,32.517c0,-1.653 0,-3.305 0,-4.958c0.005,-1.15 0.363,-1.515 1.5,-1.517q5.767,-0.011 11.534,-0.009a1.52,1.52 0 0 1 1.142,-0.314c3.142,0 6.285,-0.04 9.428,0.018c0.575,-0.053 1.151,-0.029 1.726,-0.029q18.943,0 37.886,0.005a2.607,2.607 0 0 1 1.854,0.32q5.625,0 11.25,0.008c1.4,0 1.784,0.393 1.787,1.813c0,1.554 0,3.108 0,4.663a1.281,1.281 0 0 1 -1.1,0.349c-1.8,0.009 -3.606,0.041 -5.408,-0.014q-6.5,0.064 -13.006,0q-6.509,0.063 -13.018,0q-6.509,0.063 -13.019,0q-6.509,0.063 -13.018,0q-6.506,0.062 -13.011,0c-1.807,0.053 -3.615,0.024 -5.422,0.015a1.286,1.286 0 0 1 -1.107,-0.35" data-name="Caminho 13764" id="Caminho_13764"/>
   <path fill="#567fa5" d="m71.591,26.034q-20.438,0 -40.876,0c-0.2,0 -0.405,-0.024 -0.608,-0.036a13.53,13.53 0 0 1 0,-6.434l4.887,-0.071a1.545,1.545 0 0 1 1.053,-0.29c6.7,0 13.392,-0.044 20.088,0.019c4.773,-0.059 9.546,-0.02 14.319,-0.018a1.414,1.414 0 0 1 1.135,0.328l0,6.5" data-name="Caminho 13765" id="Caminho_13765"/>
   <path fill="#f27d00" d="m78.113,32.583l6.518,-0.066c1.587,0.011 3.174,0.017 4.761,0.035c1.212,0.014 1.733,0.522 1.744,1.715c0.013,1.453 0,2.905 0,4.358c0,4.2 -2.322,6.685 -6.508,6.977c-3.386,-0.235 -5.256,-1.676 -6.308,-4.886c-0.082,-0.249 -0.136,-0.366 -0.388,-0.2a0.812,0.812 0 0 1 -0.234,-0.741c0.2,-2.016 0.046,-4.037 0.1,-6.055a1.522,1.522 0 0 1 0.309,-1.137" data-name="Caminho 13766" id="Caminho_13766"/>
   <path fill="#f27d00" d="m6.517,32.517l6.518,0.066a1.522,1.522 0 0 1 0.309,1.137c0.056,2.018 -0.092,4.039 0.1,6.055a0.81,0.81 0 0 1 -0.234,0.74c-0.25,-0.163 -0.305,-0.05 -0.388,0.2c-1.055,3.214 -2.921,4.652 -6.307,4.887c-4.183,-0.292 -6.505,-2.782 -6.508,-6.978c0,-1.453 -0.01,-2.906 0,-4.358c0.011,-1.2 0.531,-1.7 1.744,-1.715c1.587,-0.018 3.174,-0.024 4.761,-0.035" data-name="Caminho 13767" id="Caminho_13767"/>
   <path fill="#def5fc" d="m71.591,19.536l-15.44,-0.039a7.074,7.074 0 0 1 -0.108,-4.1l0.146,-0.126l21.928,-0.007c0,0.874 0.011,1.748 0,2.622a1.492,1.492 0 0 1 -1.686,1.645c-1.613,0.009 -3.227,0.006 -4.84,0.008" data-name="Caminho 13768" id="Caminho_13768"/>
   <path fill="#49708f" d="m30.108,19.568l0,6.434l-10.552,0.031l0,-6.5l10.552,0.031" data-name="Caminho 13769" id="Caminho_13769"/>
   <path fill="#49708f" d="m10.58,97.68899l0,6.435c-3.321,0.012 -6.642,0.015 -9.963,0.047c-0.507,0 -0.625,-0.187 -0.618,-0.653c0.023,-1.457 -0.007,-2.915 0.014,-4.373a1.358,1.358 0 0 1 1.519,-1.49c1.66,-0.025 3.32,-0.026 4.98,-0.038l4.066,0.072" data-name="Caminho 13770" id="Caminho_13770"/>
   <path fill="#f27d00" d="m35.03,0.206l21.088,0q0.017,6.824 0.035,13.649c0,0.471 0.024,0.942 0.036,1.413l-0.078,-0.018a1.7,1.7 0 0 1 -1.339,0.333q-9.2,0.014 -18.4,0a1.7,1.7 0 0 1 -1.339,-0.333l-0.078,0.018q0.019,-6.622 0.039,-13.244c0,-0.606 0.021,-1.212 0.033,-1.818" data-name="Caminho 13771" id="Caminho_13771"/>
   <path fill="#5680a6" d="m67.24901,8.111c-1.186,0 -2.373,0.019 -3.559,-0.005c-1.157,-0.023 -1.845,-0.639 -1.843,-1.595s0.689,-1.576 1.85,-1.586q3.508,-0.031 7.016,0a1.612,1.612 0 1 1 -0.007,3.182c-1.152,0.02 -2.3,0 -3.457,0" data-name="Caminho 13772" id="Caminho_13772"/>
   <path fill="#5680a6" d="m67.211,14.616c-1.186,0 -2.373,0.022 -3.559,-0.006c-1.144,-0.027 -1.829,-0.672 -1.805,-1.631a1.6,1.6 0 0 1 1.786,-1.546q3.558,-0.038 7.118,0a1.6,1.6 0 1 1 0.019,3.179c-1.186,0.026 -2.372,0.006 -3.559,0.006" data-name="Caminho 13773" id="Caminho_13773"/>
   <path fill="#5680a6" d="m23.994,8.108c-1.152,0 -2.3,0.011 -3.456,0c-1.188,-0.014 -1.959,-0.667 -1.943,-1.616a1.679,1.679 0 0 1 1.886,-1.569q3.456,-0.025 6.913,0c1.244,0.009 1.93,0.61 1.917,1.614s-0.7,1.557 -1.961,1.572c-1.118,0.014 -2.236,0 -3.355,0" data-name="Caminho 13774" id="Caminho_13774"/>
   <path fill="#5680a6" d="m20.759,14.659c-1.595,-0.135 -1.9,-0.386 -2.214,-1.834a1.981,1.981 0 0 1 2.174,-1.414c2.162,0.043 4.326,0.008 6.489,0.015c1.4,0 2.123,0.572 2.1,1.627c-0.02,1.02 -0.718,1.553 -2.065,1.564q-3.243,0.026 -6.486,0.043" data-name="Caminho 13775" id="Caminho_13775"/>
   <path fill="#c15f06" d="m35.036,15.25l21.075,0q0.021,2.124 0.041,4.248l-21.157,0l0.041,-4.247" data-name="Caminho 13776" id="Caminho_13776"/>
   <path fill="#c7eefd" d="m49.63101,52.09301q13.311,-0.007 26.622,-0.01c1.325,0 1.866,0.574 1.867,1.953q0,8.892 0,17.784a1.85,1.85 0 0 1 -1.348,0.321q-12.89,0.01 -25.78,0a2.547,2.547 0 0 1 -1.288,-0.21a0.8,0.8 0 0 1 -0.253,-0.318a4.022,4.022 0 0 1 -0.133,-1.407q-0.005,-8.229 0,-16.458a2.319,2.319 0 0 1 0.314,-1.655" data-name="Caminho 13777" id="Caminho_13777"/>
   <path fill="#c7eefd" d="m39.071,97.617l-6.507,0c-0.478,-0.55 -0.327,-1.222 -0.327,-1.849q-0.014,-17.059 -0.007,-34.117c0,-2.631 -0.11,-2.739 -2.762,-2.74c-2.267,0 -4.535,0.022 -6.8,-0.01a5.713,5.713 0 0 0 -2.941,0.556c-0.461,-0.135 -0.476,-0.54 -0.486,-0.9c-0.054,-1.878 -0.042,-3.757 -0.009,-5.636a1.191,1.191 0 0 1 0.294,-0.835q8.837,-0.007 17.674,-0.01c1.355,0 1.865,0.575 1.865,2.055q0.005,21.739 0.008,43.479" data-name="Caminho 13778" id="Caminho_13778"/>
   <path fill="#98e5fb" d="m19.527,52.093c0,2.082 0,4.164 0.018,6.245c0,0.353 -0.137,0.746 0.18,1.05a1.68,1.68 0 0 1 0.152,0.988c-0.017,11.831 0,23.662 -0.013,35.494c0,0.6 0.129,1.233 -0.331,1.75l-6.517,0q0.006,-21.7 0.011,-43.4c0,-1.774 0.366,-2.144 2.128,-2.142c1.456,0 2.913,0.008 4.37,0.012" data-name="Caminho 13779" id="Caminho_13779"/>
   <path fill="#567fa5" d="m49.65101,71.79101q14.029,-0.005 28.059,-0.009c0.135,0 0.269,0.024 0.4,0.038c0,1.559 0.018,3.118 0,4.677a1.422,1.422 0 0 1 -1.54,1.615q-13.469,0 -26.937,-0.024a0.6,0.6 0 0 1 -0.213,-0.336a28.851,28.851 0 0 1 0.006,-5.631a0.557,0.557 0 0 1 0.221,-0.329" data-name="Caminho 13780" id="Caminho_13780"/>
   <path fill="#98e5fb" d="m49.63,52.09299q-0.006,9.783 -0.013,19.566a10.753,10.753 0 0 1 -4.218,0.168q-0.009,-8.976 -0.013,-17.952c0,-1.226 0.577,-1.778 1.81,-1.792c0.811,-0.009 1.622,0.006 2.434,0.01" data-name="Caminho 13781" id="Caminho_13781"/>
   <path fill="#497090" d="m45.40001,71.82599a23.412,23.412 0 0 1 4.218,-0.168c0.01,0.044 0.021,0.089 0.034,0.132q-0.007,3.148 -0.014,6.3c-0.808,0.011 -1.615,0.033 -2.423,0.031c-1.293,0 -1.807,-0.518 -1.817,-1.845c-0.012,-1.482 0,-2.964 0,-4.447" data-name="Caminho 13782" id="Caminho_13782"/>
   <path fill="#f27d00" d="m26.038,32.583l13.033,0a1.522,1.522 0 0 1 0.309,1.137c0.056,2.018 -0.092,4.039 0.1,6.055a0.81,0.81 0 0 1 -0.234,0.74c-0.393,-0.238 -0.332,0.1 -0.4,0.3a6.549,6.549 0 0 1 -12.595,0c-0.065,-0.208 0,-0.541 -0.4,-0.3a0.811,0.811 0 0 1 -0.234,-0.74c0.195,-2.016 0.046,-4.037 0.1,-6.055a1.523,1.523 0 0 1 0.309,-1.137" data-name="Caminho 13783" id="Caminho_13783"/>
   <path fill="#f27d00" d="m52.076,32.583l13.033,0a1.523,1.523 0 0 1 0.309,1.137c0.056,2.018 -0.092,4.039 0.1,6.055a0.811,0.811 0 0 1 -0.234,0.741c-0.393,-0.239 -0.332,0.094 -0.4,0.3a6.549,6.549 0 0 1 -12.595,0c-0.065,-0.208 0,-0.541 -0.4,-0.3a0.811,0.811 0 0 1 -0.234,-0.74c0.195,-2.016 0.046,-4.037 0.1,-6.055a1.523,1.523 0 0 1 0.309,-1.137" data-name="Caminho 13784" id="Caminho_13784"/>
   <path fill="#c15f06" d="m26.042,32.583a70.748,70.748 0 0 1 -0.178,7.932a6.484,6.484 0 0 1 -12.649,0a70.953,70.953 0 0 1 -0.178,-7.932l13,0" data-name="Caminho 13785" id="Caminho_13785"/>
   <path fill="#c15f06" d="m52.07501,32.583a70.747,70.747 0 0 1 -0.178,7.932a6.484,6.484 0 0 1 -12.649,0a70.9,70.9 0 0 1 -0.178,-7.932l13,0" data-name="Caminho 13786" id="Caminho_13786"/>
   <path fill="#c15f06" d="m65.287,40.515a70.852,70.852 0 0 1 -0.178,-7.933l13,0a70.637,70.637 0 0 1 -0.178,7.932a6.484,6.484 0 0 1 -12.649,0" data-name="Caminho 13787" id="Caminho_13787"/>
   <path fill="#62dafa" d="m19.531,97.62q0,-18.42 0.005,-36.841a2.914,2.914 0 0 1 0.187,-1.391a1.619,1.619 0 0 1 1.615,-0.811c3.118,0.027 6.237,0.009 9.355,0.013c1.389,0 1.861,0.487 1.861,1.91q0.007,18.56 0.01,37.12l-13.033,0" data-name="Caminho 13788" id="Caminho_13788"/>
   <path fill="#f1fafe" d="m50.89001,9.783c-0.009,0.908 -0.6,1.472 -1.64,1.583c-0.661,0.07 -1.492,-0.3 -1.942,0.193c-0.4,0.438 -0.08,1.235 -0.137,1.87c-0.093,1.039 -0.662,1.637 -1.567,1.652c-0.948,0.016 -1.537,-0.6 -1.631,-1.693c-0.055,-0.632 0.276,-1.42 -0.159,-1.859s-1.225,-0.106 -1.857,-0.161c-1.091,-0.095 -1.7,-0.669 -1.7,-1.627c0,-0.939 0.621,-1.5 1.738,-1.577c1.868,-0.125 1.868,-0.125 1.979,-1.957c0.068,-1.111 0.628,-1.741 1.565,-1.759c0.985,-0.019 1.574,0.624 1.636,1.79c0.1,1.834 0.1,1.834 1.908,1.925c1.172,0.059 1.817,0.637 1.808,1.619" data-name="Caminho 13789" id="Caminho_13789"/>
  </g>
 </g>
</svg>