<svg width="70.677" height="70.727" xmlns="http://www.w3.org/2000/svg" data-name="Componente 19 – 1">
 <defs>
  <clipPath id="clip-path">
   <rect fill="none" height="70.727" width="70.677" data-name="Retângulo 3296" id="Retângulo_3296"/>
  </clipPath>
 </defs>
 <g>
  <title>Layer 1</title>
  <g clip-path="url(#clip-path)" data-name="Grupo 16892" id="Grupo_16892">
   <path fill="#c15f06" d="m65.571,70.72701l-60.583,0a5.373,5.373 0 0 1 -2.587,-0.931a1.386,1.386 0 0 1 -0.608,-0.789c-0.013,-0.5 0.357,-0.774 0.661,-1.077q5.924,-5.914 11.836,-11.84c4.947,-4.958 9.933,-9.878 14.839,-14.878a1.054,1.054 0 0 1 0.715,-0.365a7.188,7.188 0 0 1 2.146,1.2c0.951,0.555 1.847,1.2 2.759,1.823a0.931,0.931 0 0 0 1.192,0q2.11,-1.431 4.265,-2.794a1.112,1.112 0 0 1 0.955,-0.279a15.2,15.2 0 0 1 1.276,1.336q12.863,12.829 25.7,25.687c0.333,0.333 0.767,0.616 0.77,1.174a2.877,2.877 0 0 1 -2.064,1.512c-0.406,0.133 -0.859,0.065 -1.269,0.218" data-name="Caminho 13790" id="Caminho_13790"/>
   <path fill="#3a3a3a" d="m70.67699,20.218l0,0.276a4.242,4.242 0 0 0 -0.137,0.914a13.386,13.386 0 0 1 -2.3,6.828a18.735,18.735 0 0 1 -20.435,8.488c-0.735,-0.317 -1.533,-0.427 -2.28,-0.729a18.67,18.67 0 0 1 -10.768,-10.795a17.983,17.983 0 0 1 -1.195,-8.243a18.137,18.137 0 0 1 4,-10.094a18.382,18.382 0 0 1 9.444,-6.346a20.579,20.579 0 0 1 4.081,-0.517c0.786,0 1.571,0 2.356,0a23.073,23.073 0 0 1 3.533,0.4a14.033,14.033 0 0 1 4.551,1.859a17.729,17.729 0 0 1 6.132,5.614a15.2,15.2 0 0 1 2.848,7.066a10.165,10.165 0 0 0 0.17,1.694l0,2.76a1.088,1.088 0 0 0 0,0.828" data-name="Caminho 13791" id="Caminho_13791"/>
   <path fill="#f27d00" d="m47.90399,36.415c7.2,1.479 13.327,-0.42 18.267,-5.882a17.663,17.663 0 0 0 4.28,-9.176c0.116,-0.055 0.175,0.016 0.227,0.1l0,44.3a5.239,5.239 0 0 1 -0.979,2.65c-0.252,0.285 -0.445,0.666 -0.933,0.552c-0.214,-0.239 -0.416,-0.49 -0.642,-0.716q-13.136,-13.142 -26.277,-26.28a1.933,1.933 0 0 1 -0.712,-1.067c-0.105,-0.415 0.22,-0.589 0.475,-0.75c1.787,-1.128 3.532,-2.32 5.312,-3.458a2.786,2.786 0 0 1 0.982,-0.276" data-name="Caminho 13792" id="Caminho_13792"/>
   <path fill="#e9f1f3" d="m70.67699,21.46l-0.227,-0.1c0.04,-0.3 -0.026,-0.622 0.227,-0.864l0,0.964z" data-name="Caminho 13793" id="Caminho_13793"/>
   <path fill="#9ad0f5" d="m70.677,20.218a0.64,0.64 0 0 1 0,-0.828l0,0.828z" data-name="Caminho 13794" id="Caminho_13794"/>
   <path fill="#f0f1f1" d="m9.124,12.452a1.679,1.679 0 0 0 0.14,-0.941q0,-4.692 0,-9.384c0,-1.6 0.45,-2.058 2.04,-2.058l38.083,0c0.529,0 1.057,0.009 1.586,0.014a20.558,20.558 0 0 0 -5.35,1.232c-6.387,2.664 -10.409,7.349 -11.5,14.2c-1.191,7.457 1.485,13.484 7.493,18.018a17.373,17.373 0 0 0 6.286,2.882q-3.085,2.016 -6.169,4.033c-0.209,0.137 -0.4,0.3 -0.6,0.45c-1.7,1.087 -3.4,2.153 -5.077,3.275a1.058,1.058 0 0 1 -1.4,0.017c-1.589,-1.082 -3.222,-2.1 -4.838,-3.141a4.42,4.42 0 0 1 -2.126,-1.043c-3.841,-2.522 -7.7,-5.011 -11.544,-7.536c-2.131,-1.4 -4.273,-2.786 -6.413,-4.173a1.3,1.3 0 0 1 -0.691,-1.226c0.018,-4.6 0.011,-9.2 0.007,-13.8c0,-0.278 0.056,-0.548 0.068,-0.823" data-name="Caminho 13795" id="Caminho_13795"/>
   <path fill="#f27d00" d="m9.124,12.453c0.214,0.236 0.122,0.526 0.122,0.791c0.006,4.484 0.017,8.968 -0.01,13.451a1.414,1.414 0 0 0 0.73,1.385q9.584,6.2 19.13,12.453c0.249,0.162 0.485,0.344 0.727,0.516c-0.5,0.164 -0.69,0.651 -1.023,0.983q-13.125,13.091 -26.225,26.212c-0.226,0.226 -0.431,0.475 -0.645,0.713a5.984,5.984 0 0 1 -1.906,-4.7q-0.016,-7.585 0,-15.17q0,-13.342 0.005,-26.685c0,-0.309 -0.112,-0.646 0.134,-0.925a10.252,10.252 0 0 1 2.089,1.146c1.933,1.283 3.886,2.536 5.823,3.814c0.183,0.121 0.366,0.373 0.6,0.252s0.137,-0.415 0.137,-0.634q0.008,-6.033 0,-12.067a3.669,3.669 0 0 1 0.193,-1.365l0.119,-0.175" data-name="Caminho 13796" id="Caminho_13796"/>
   <path fill="#f0f1f1" d="m52.85999,15.063c-0.75,0.5 -1.337,0.894 -1.932,1.279a1.6,1.6 0 0 1 -2.376,-0.241a1.564,1.564 0 0 1 0.641,-2.288c1.368,-0.928 2.742,-1.849 4.128,-2.75c1.345,-0.875 2.611,-0.253 2.623,1.343c0.035,4.456 0.017,8.913 0.009,13.369a1.582,1.582 0 0 1 -0.952,1.616a1.459,1.459 0 0 1 -1.608,-0.271a2.016,2.016 0 0 1 -0.532,-1.647q0,-4.755 0,-9.51l-0.001,-0.9z" data-name="Caminho 13797" id="Caminho_13797"/>
   <path fill="#f0f1f1" d="m53.52799,0.08c2.084,0 4.168,-0.022 6.252,-0.008a1.529,1.529 0 0 1 1.651,1.681c0,0.252 0,0.5 0.005,0.756a20.108,20.108 0 0 0 -7.908,-2.429" data-name="Caminho 13798" id="Caminho_13798"/>
   <path fill="#c15f06" d="m9.005,12.628a0.957,0.957 0 0 1 0.124,0.6q0,6.9 0,13.8a2.9,2.9 0 0 1 -0.039,0.336c-0.314,0.031 -0.484,-0.183 -0.686,-0.315q-3.438,-2.236 -6.872,-4.479c-0.492,-0.319 -1.119,-0.462 -1.371,-1.083q3.8,-3.831 7.611,-7.66c0.4,-0.406 0.823,-0.8 1.235,-1.192" data-name="Caminho 13799" id="Caminho_13799"/>
  </g>
 </g>
</svg>