<svg id="Componente_48_1" data-name="Componente 48 – 1" xmlns="http://www.w3.org/2000/svg" width="281.165" height="281.094" viewBox="0 0 281.165 281.094">
  <path id="Caminho_13593" data-name="Caminho 13593" d="M260.755,519.66c-11.122-.757-21.73-3.743-32.151-7.492-2.468-.888-4.845-2.03-7.264-3.055-.95-1.058-.846-2.375-.847-3.642q-.024-44.666,0-89.332a9.268,9.268,0,0,1,.274-2.71c1.11-1.984,1.937-.444,2.594.331,2.122,2.506,4.032,5.181,6.353,7.532a65,65,0,0,0,41.9,19.774,65.693,65.693,0,0,0,33.758-6.263c7.967-3.668,15.707-3.592,23.29.991a6.233,6.233,0,0,1,2.107,1.711c.095.155.241.326.227.489-.464,5.519,2.936,8.933,6.609,12.216a26.255,26.255,0,0,1,2.825,2.99c2.206,2.047,4.35,4.153,6.457,6.3a5.662,5.662,0,0,1,2,3.481c.2,12.617.284,25.229-.032,37.837-.259,1.548-1.5,2.234-2.688,2.886a140.215,140.215,0,0,1-48.405,16.41,30.647,30.647,0,0,0-3.536.227,9.847,9.847,0,0,0-3.546-.026c-.569.27-1.284-.106-1.8.406h-2.745a5.6,5.6,0,0,0-3.842,0h-9.88a10.957,10.957,0,0,0-5.489,0h-1.646c-.35-.773-1.109-.434-1.675-.617C262.71,519.6,261.646,520.181,260.755,519.66Z" transform="translate(-136.757 -239.68)" fill="#484748"/>
  <path id="Caminho_13594" data-name="Caminho 13594" d="M413.8,216.37a139.1,139.1,0,0,1,48.156,67.384,136.974,136.974,0,0,1,6.579,31.822c.045.513-.121,1.127.544,1.408v22.5a144.246,144.246,0,0,1-3,20.783,142.317,142.317,0,0,1-21.736,48.5,87.2,87.2,0,0,1-5.753,7.678c-.6.689-1.089,1.485-2.062,1.714a1.721,1.721,0,0,1-1.4-.727c-6.292-7.126-13.348-13.5-19.953-20.32-1.09-1.125-2.19-2.227-2.282-3.933a27.924,27.924,0,0,1-.136-3.842q-.005-83.9.023-167.8C412.781,219.791,412.236,217.848,413.8,216.37Z" transform="translate(-187.97 -187.434)" fill="#e34147"/>
  <path id="Caminho_13595" data-name="Caminho 13595" d="M409.832,462.784a134.5,134.5,0,0,0,23.486-39.516,141.448,141.448,0,0,0,8.8-37.115c.07-.669-.268-1.5.593-1.945q0,63.4.053,126.791c0,1.879-.369,2.251-2.248,2.248q-63.4-.1-126.793-.053c.349-.778,1.116-.433,1.683-.626a9.766,9.766,0,0,1,3.148-.159,140.56,140.56,0,0,0,22.864-4.641,134.558,134.558,0,0,0,26.189-10.715,39.526,39.526,0,0,0,5.4-3.035c.673-1.315,2.046-1.771,3.156-2.534,3.682-2.533,7.49-4.884,10.953-7.727,2.6-1.805,4.88-4,7.377-5.934a5.383,5.383,0,0,1,2.822-1.491c1.456-.134,2.933.087,4.375-.14a9.059,9.059,0,0,0,7.593-6.615C410.1,467.363,408.892,464.985,409.832,462.784Z" transform="translate(-161.602 -232.153)" fill="#fff"/>
  <path id="Caminho_13596" data-name="Caminho 13596" d="M283.8,559.812a6.157,6.157,0,0,1,5.489,0Z" transform="translate(-153.627 -278.77)" fill="#6f83bf"/>
  <path id="Caminho_13597" data-name="Caminho 13597" d="M304.747,559.81a3.166,3.166,0,0,1,3.842,0Z" transform="translate(-159.21 -278.769)" fill="#6983c0"/>
  <path id="Caminho_13598" data-name="Caminho 13598" d="M161.676,439.563c-25.1-19.588-42.515-44.495-50.4-75.4-11.452-44.893-2.9-86,25.131-122.959,7.228-9.531,15.941-17.6,25.209-25.1.989.5.983,1.467,1.081,2.363a24.94,24.94,0,0,1,.061,2.742q0,106.6-.026,213.2C162.732,436.155,163.3,438.108,161.676,439.563Z" transform="translate(-106.347 -187.363)" fill="#e34147"/>
  <path id="Caminho_13599" data-name="Caminho 13599" d="M363.814,205.86c-.046,1.184-.133,2.368-.133,3.552q-.011,85.247-.009,170.494c0,1.279-.042,2.557-.065,3.836-.861.492-1.375-.186-1.847-.651a59.67,59.67,0,0,1-5.822-6.041,68.025,68.025,0,0,0-5.986-6.172c-.778-.77-1.606-1.467-1.4-2.73q-.044-80.5-.012-160.983a24.7,24.7,0,0,0-.535-6.539,10.511,10.511,0,0,0-7.908-7.911,19.154,19.154,0,0,0-4.881-.654c-6.124,0-12.25-.062-18.374.019-5.423.072-6.9,1.251-8.4,6.369-.361,1.228-.677,2.468-1.072,3.686-1.447,4.451-3.133,5.741-7.769,5.822-3.473.06-6.948.016-10.421.016q-15.357,0-30.715-.005c-5.82-.011-7.316-1.16-8.973-6.787-.387-1.315-.8-2.626-1.135-3.953a6.019,6.019,0,0,0-4.4-4.775c-2.194-.854-4.484-.376-6.73-.464-3.706-.145-7.423.213-11.122-.2-2.064-1.177-.506-2.412.128-3.356,4.374-6.522,10.219-10.771,18.29-11.407,9.5-.029,19-.078,28.5-.083q32.206-.019,64.411.011a25.827,25.827,0,0,1,25.952,21.807A59.348,59.348,0,0,1,363.814,205.86Z" transform="translate(-137.981 -176.924)" fill="#45485a"/>
  <path id="Caminho_13600" data-name="Caminho 13600" d="M232.958,177.035c-3.608,1.122-7.236,2.13-10.448,4.293a27.8,27.8,0,0,0-8.751,9.839c-1.49,1.3-3.3.706-4.968.77-6.865.264-11.145,4.258-11.807,11.137q-.021,115.359-.028,230.7c0,1.677.537,3.5-.8,4.988a86.553,86.553,0,0,1-14.409-9.631c.026-.822.078-1.643.078-2.464q.005-109.137,0-218.273c0-.91-.09-1.819-.137-2.727-.255-8.709,2.181-16.36,8.916-22.25a24.625,24.625,0,0,1,16.643-6.466C215.815,176.961,224.386,177.006,232.958,177.035Z" transform="translate(-126.416 -176.932)" fill="#373b4d"/>
  <path id="Caminho_13601" data-name="Caminho 13601" d="M201.607,207.39c.811-6.574,5.448-10.834,12-11,1.821-.046,3.644-.04,5.465-.059,5.269.035,10.539.059,15.807.117.976.011,2.013-.264,2.9.417-1,1.087-2.342.9-3.6.914-4.024.051-8.05.07-12.074,0a3.388,3.388,0,0,0-3.776,2.781,30.492,30.492,0,0,0-1.141,8.393q.033,33.615.014,67.23c0,1.555-.009,3.11-.117,4.657a7.967,7.967,0,0,1-1.4,3.8c-11.459,20.055-12.1,40.651-3.069,61.727.866,2.021,2.188,3.792,3.133,5.769.418.873,1.205,1.673.683,2.782-.033,4.834-.092,9.668-.095,14.5q-.025,41.056-.028,82.111a74.647,74.647,0,0,1-13.731-6.922c-1.193-1-.762-2.368-.763-3.6q-.026-95.571-.015-191.141,0-19.745-.009-39.489A8.254,8.254,0,0,0,201.607,207.39Z" transform="translate(-131.729 -182.095)" fill="#2a2a2a"/>
  <path id="Caminho_13602" data-name="Caminho 13602" d="M201.556,211.407c.856,1.05.441,2.291.441,3.435q.033,114.737.022,229.474a9.407,9.407,0,0,0,.511,4.307c-.443-.107-.922-.155-1.113-.678.017-1.189.049-2.377.049-3.566q0-114.705.006-229.409C201.472,213.782,201.527,212.595,201.556,211.407Z" transform="translate(-131.678 -186.112)" fill="#406bb2"/>
  <path id="Caminho_13603" data-name="Caminho 13603" d="M275.384,558.576c.96.079,2.006-.39,2.848.445C277.254,559.059,276.242,559.308,275.384,558.576Z" transform="translate(-151.386 -278.597)" fill="#7384bf"/>
  <path id="Caminho_13604" data-name="Caminho 13604" d="M217.936,374.939c-3.831-6.732-7.286-13.605-8.938-21.269-3.806-17.659-1.518-34.33,7.845-49.907.418-.695.733-1.452,1.1-2.179,2.289-5.258,6.309-9.166,10.425-12.905a63.449,63.449,0,0,1,34.918-16.492c18.44-2.428,35.475,1.32,50.442,12.768,14.736,11.27,23.306,26.244,25.958,44.536,1.843,12.714-.288,24.957-5.476,36.64-3.545,7.983-3.646,15.72.789,23.37a3.008,3.008,0,0,1,.579,2.325c-.333.706-1.048.869-1.664,1.174-3.53,1.254-5.04,4.437-6.925,7.261-8.078-5.773-16.5-6.416-25.482-2.091a64.019,64.019,0,0,1-22.807,6.022c-17.148,1.4-32.364-3.374-46-13.6C226.881,386.23,222.292,380.686,217.936,374.939Z" transform="translate(-133.231 -202.118)" fill="#d6d4dc"/>
  <path id="Caminho_13605" data-name="Caminho 13605" d="M295.7,520.69c-.731.806-1.7.514-2.58.516-7.484.021-14.973.178-22.452-.039-6.358-.185-9.469-1.491-11.664-7.081-2.317-5.9,2.054-12.968,8.407-13.09,13.047-.249,26.1-.079,39.154-.052.4,0,.8.333,1.2.511-.869.906-2.014.714-3.082.731-2.639.042-5.28-.013-7.919.022-4.732.063-7.728,2.322-8.821,6.611a9.308,9.308,0,0,0,4.7,10.155C293.659,519.552,294.928,519.68,295.7,520.69Z" transform="translate(-146.854 -263.236)" fill="#f2803c"/>
  <path id="Caminho_13606" data-name="Caminho 13606" d="M428.392,489.852c-1.306,5.508-6.532,8.253-12.87,6.76-1.65.512-2.768-.431-3.826-1.445-2.086-2-4.085-4.084-6.159-6.1-3.83-3.9-7.718-7.749-11.6-11.6a14.824,14.824,0,0,1-2.361-2.975l-8.055-8.25c2.405-2.449,4.319-5.44,7.624-6.9,1.37.259,2.13,1.359,3.021,2.248,7.569,7.542,15.215,15.012,22.632,22.7C420.057,487.67,423.487,490.162,428.392,489.852Z" transform="translate(-180.2 -252.173)" fill="#ec6723"/>
  <path id="Caminho_13607" data-name="Caminho 13607" d="M306.056,520.879c-5.582-.947-9.26-5.3-8.765-10.62.4-4.266,3.695-9.2,10.2-8.646,2.617.222,5.268.037,7.9.037q1.363,0,2.727-.005A9.968,9.968,0,0,1,325.669,512c-.706,5.625-4.712,8.853-10.587,8.87C312.073,520.88,309.064,520.877,306.056,520.879Z" transform="translate(-157.211 -263.424)" fill="#ec6723"/>
  <path id="Caminho_13608" data-name="Caminho 13608" d="M394.505,479.994l14.362,14.338a7.222,7.222,0,0,1,.791,4.467c-.261,3.66.745,7.406-.734,10.982a84.612,84.612,0,0,1-14.4,9.758Q394.517,499.767,394.505,479.994Z" transform="translate(-183.126 -257.675)" fill="#45485a"/>
  <path id="Caminho_13609" data-name="Caminho 13609" d="M387.527,453.52c-1.778,1.691-3.549,3.389-5.337,5.07-.649.61-1.148,1.456-2.187,1.509-1.816-1.773-3.572-3.611-5.461-5.3a11.5,11.5,0,0,1-4.109-10.622c.91-3.69,2.884-6.461,6.642-7.69,1.178-.571,1.654.23,1.516,1.089-.814,5.028,2.149,8.144,5.394,11.2a19.477,19.477,0,0,1,3.677,3.982A.717.717,0,0,1,387.527,453.52Z" transform="translate(-176.679 -246.031)" fill="#e3550b"/>
  <path id="Caminho_13610" data-name="Caminho 13610" d="M319.168,558.84a7.612,7.612,0,0,1-3.148.159A2.958,2.958,0,0,1,319.168,558.84Z" transform="translate(-162.213 -278.583)" fill="#6c84c0"/>
  <path id="Caminho_13611" data-name="Caminho 13611" d="M393.779,457l0-.545c2.088-2.813,4.143-5.661,7.529-7.1l7.249,6.97c5.891,6.633,12.456,12.6,18.646,18.943a23.728,23.728,0,0,1,3.955,4.869c.533,2.353,1.1,4.706-.037,7.049-3.751,1.426-6.826-.034-9.394-2.562-8.627-8.494-17.145-17.1-25.716-25.651C395.312,458.277,394.526,457.66,393.779,457Z" transform="translate(-182.932 -249.513)" fill="#f2803c"/>
  <path id="Caminho_13612" data-name="Caminho 13612" d="M414.14,514.989l-.057-15.45c1.9,1.815,3.831,3.6,5.684,5.456a7.888,7.888,0,0,0,3.9,2.328C420.435,509.81,417.577,512.759,414.14,514.989Z" transform="translate(-188.342 -262.883)" fill="#e34247"/>
  <path id="Caminho_13613" data-name="Caminho 13613" d="M339.245,371.928c-2.472-4.5-4.595-9.059-4.56-14.411a27.246,27.246,0,0,1,2.57-11.373,62.174,62.174,0,0,0,6.138-27.271c-.523-25.494-11.465-45.333-33.745-58.18a65.872,65.872,0,0,0-73.077,5.216,62.541,62.541,0,0,0-13.2,13.8,23.88,23.88,0,0,1-1.587,1.858c-.034-10.133-.086-20.267-.1-30.4q-.025-21.777,0-43.553a17.2,17.2,0,0,1,.12-3c1.376-7.677,1.392-7.667,9.268-7.677,4.017,0,8.034-.039,12.05-.059,2.655.183,4.082,1.833,4.828,4.178s1.427,4.7,2.039,7.08a5.072,5.072,0,0,0,5.374,4.134q22.347.057,44.693-.008a4.941,4.941,0,0,0,5.213-3.963c.578-2.2,1.454-4.325,1.928-6.542.7-3.26,2.718-5.042,5.876-5.108,8.3-.174,16.64-.676,24.909.224,6.5.708,10.3,5.378,10.432,11.947.053,2.65.009,5.3.009,7.952q0,77.046-.012,154.094c0,1.17.259,2.378-.279,3.512C345.249,373.276,342.116,373.079,339.245,371.928Z" transform="translate(-137.077 -182.098)" fill="#484748"/>
  <path id="Caminho_13614" data-name="Caminho 13614" d="M295.522,200.069c-1.639,0-3.282.075-4.916-.018-3.356-.191-5.369-2.252-5.312-5.319.052-2.854,2.148-4.935,5.354-5.051,3.181-.117,6.375-.114,9.557,0,3.49.122,5.543,2.306,5.4,5.5-.133,2.964-2.34,4.86-5.714,4.892C298.435,200.083,296.978,200.072,295.522,200.069Z" transform="translate(-154.026 -180.3)" fill="#595b6a"/>
  <path id="Caminho_13615" data-name="Caminho 13615" d="M381.3,435.681a11.748,11.748,0,0,1,8.89,2.439q3.662,3.79,7.32,7.578l-7.529,7.1c-2.538-2.454-5.243-4.762-7.56-7.41a8.105,8.105,0,0,1-1.963-7.557c.235-.908.017-1.4-.931-1.524C379.953,435.613,380.7,435.845,381.3,435.681Z" transform="translate(-179.135 -245.85)" fill="#ec6723"/>
  <path id="Caminho_13616" data-name="Caminho 13616" d="M259.415,307c28.889-19.724,68.525-2.091,72.934,32.447a46.941,46.941,0,0,1-37.582,52.07c-1.138.232-2.233.9-3.471.574a4.115,4.115,0,0,0-1.931-1.462,64.877,64.877,0,0,1-24.08-22.25c-11.24-17.5-13.923-36.364-8.057-56.375A23.654,23.654,0,0,1,259.415,307Z" transform="translate(-145.745 -209.387)" fill="#e34147"/>
  <path id="Caminho_13617" data-name="Caminho 13617" d="M253.881,309.989c-.858,4.544-2.666,8.819-3.459,13.415a65.277,65.277,0,0,0,3.863,36.142,66.6,66.6,0,0,0,25.1,30.6,59.407,59.407,0,0,0,6.169,3.514c.922.477,1.038.809.213,1.42-25.2,3-46.5-14.442-51.364-36.748C230.472,340.332,238.9,318.877,253.881,309.989Z" transform="translate(-140.21 -212.378)" fill="#d12930"/>
  <path id="Caminho_13618" data-name="Caminho 13618" d="M288.044,351.42c-.792-.737-.474-1.7-.518-2.588-.324-6.477.369-12.928.552-19.393a6.988,6.988,0,0,1,7.11-6.573,7.261,7.261,0,0,1,7.124,6.59c.1,2.554.021,5.115.021,7.673-.72,3.561-3.161,5.256-6.529,5.515a7,7,0,0,1-7.144-3.586c.319,3.267.135,6.824.112,10.379A2.4,2.4,0,0,1,288.044,351.42Z" transform="translate(-154.599 -215.809)" fill="#d12930"/>
  <path id="Caminho_13619" data-name="Caminho 13619" d="M288.263,356.6V342.385c1.277,1.672,2.061,3.184,3.652,3.941,4.142,1.967,7.256.824,10.637-4.017.006,4.389.029,8.778.012,13.167-.017,4.351-2.541,7.262-6.595,7.666C292.1,363.527,289.044,360.93,288.263,356.6Z" transform="translate(-154.818 -220.99)" fill="#bf2228"/>
  <path id="Caminho_13620" data-name="Caminho 13620" d="M288.261,386.4c-.175-4.148,2.883-7.1,7.2-7.29,3.814-.169,7.126,3.391,7.091,7.2-.038,4.1-3.253,7.627-7.13,7.421C291.055,393.5,288.067,390.51,288.261,386.4Z" transform="translate(-154.815 -230.793)" fill="#bf2228"/>
</svg>
