<svg height="100.163" viewBox="0 0 79.035 100.163" width="79.035" xmlns="http://www.w3.org/2000/svg"><path d="m441.339 280.813a1.955 1.955 0 1 0 .573 1.383 1.971 1.971 0 0 0 -.573-1.383z" fill="#ff7d00" transform="translate(-362.877 -225.416)"/><path d="m131.079 50.493a1.956 1.956 0 0 0 1.956-1.956v-30.93a9.793 9.793 0 0 0 -9.782-9.782h-12.283a9.534 9.534 0 0 0 -9.37-7.825h-16.169a9.534 9.534 0 0 0 -9.366 7.825h-12.283a9.793 9.793 0 0 0 -9.782 9.782v72.775a9.793 9.793 0 0 0 9.782 9.782h59.472a9.793 9.793 0 0 0 9.782-9.782v-25.445a1.956 1.956 0 0 0 -3.913 0v25.445a5.876 5.876 0 0 1 -5.869 5.869h-59.472a5.876 5.876 0 0 1 -5.869-5.869v-72.775a5.876 5.876 0 0 1 5.869-5.869h12.129v3.913h-10.173a3.917 3.917 0 0 0 -3.913 3.913v68.861a3.917 3.917 0 0 0 3.913 3.913h55.562a3.917 3.917 0 0 0 3.913-3.913v-68.862a3.917 3.917 0 0 0 -3.913-3.913h-10.176v-3.912h12.129a5.876 5.876 0 0 1 5.869 5.869v30.93a1.956 1.956 0 0 0 1.957 1.956zm-51.256-40.972a5.615 5.615 0 0 1 5.608-5.608h16.169a5.614 5.614 0 0 1 5.608 5.608v6.13h-27.385zm41.477 10.042v68.862h-55.562v-68.862z" fill="#001f40" transform="translate(-54)"/><g fill="#ff7d00"><path d="m148.691 130.1a7.825 7.825 0 1 0 7.825 7.825 7.834 7.834 0 0 0 -7.825-7.825zm0 11.738a3.913 3.913 0 1 1 3.913-3.913 3.917 3.917 0 0 1 -3.913 3.915z" transform="translate(-123.872 -104.65)"/><path d="m299.136 160.1h-12.847a1.956 1.956 0 0 0 0 3.913h12.847a1.956 1.956 0 1 0 0-3.913z" transform="translate(-239.273 -128.781)"/><path d="m249.469 160.673a1.955 1.955 0 1 0 .573 1.383 1.971 1.971 0 0 0 -.573-1.383z" transform="translate(-208.543 -128.779)"/><path d="m148.691 238.1a7.825 7.825 0 1 0 7.825 7.825 7.834 7.834 0 0 0 -7.825-7.825zm0 11.738a3.913 3.913 0 1 1 3.913-3.913 3.917 3.917 0 0 1 -3.913 3.915z" transform="translate(-123.872 -191.522)"/></g><path d="m268.4 268.1h-20.317a1.956 1.956 0 1 0 0 3.913h20.317a1.956 1.956 0 0 0 0-3.913z" fill="#001f40" transform="translate(-208.541 -215.653)"/><path d="m148.691 346.1a7.825 7.825 0 1 0 7.825 7.825 7.834 7.834 0 0 0 -7.825-7.825zm0 11.738a3.913 3.913 0 1 1 3.913-3.913 3.917 3.917 0 0 1 -3.913 3.915z" fill="#ff7d00" transform="translate(-123.872 -278.393)"/><path d="m268.4 376.1h-20.317a1.956 1.956 0 1 0 0 3.913h20.317a1.956 1.956 0 0 0 0-3.913z" fill="#001f40" transform="translate(-208.541 -302.524)"/><path d="m234.868 40h-8.412a1.956 1.956 0 0 0 0 3.913h8.412a1.956 1.956 0 0 0 0-3.913z" fill="#001f40" transform="translate(-191.145 -32.175)"/></svg>