<svg id="TPoUzz.tif" xmlns="http://www.w3.org/2000/svg" width="17.905" height="16.285" viewBox="0 0 17.905 16.285">
  <g id="Grupo_7605" data-name="Grupo 7605">
    <path id="Caminho_9345" data-name="Caminho 9345" d="M787.084,124.954a.69.69,0,0,0-.585-.435l-.314,0H770.012a.635.635,0,0,1-.069-.007s0-.008,0-.012a.658.658,0,0,0-.464.164.726.726,0,0,0-.23.413v.035c.072.1.015.213.033.318a1.031,1.031,0,0,0,.289.508q3.3,4.156,6.611,8.311a.417.417,0,0,1,.1.283q0,2.691,0,5.382a.78.78,0,0,0,.427.761.791.791,0,0,0,.868-.087c.628-.441,1.253-.889,1.895-1.311a1.431,1.431,0,0,0,.69-1.317c-.017-1.153,0-2.307-.007-3.46a.4.4,0,0,1,.092-.269q2.486-3.122,4.968-6.247l1.738-2.189A.768.768,0,0,0,787.084,124.954Zm-.845.489q-3.341,4.207-6.687,8.41a.8.8,0,0,0-.184.527c0,1.223,0,2.447.005,3.671a.582.582,0,0,1-.28.539c-.627.422-1.245.859-1.867,1.29-.047.033-.1.063-.171.114v-.2c0-1.777,0-3.555,0-5.332a.93.93,0,0,0-.223-.646c-.88-1.078-1.74-2.173-2.607-3.262l-1.588-2-.134-.172H779.4a1.438,1.438,0,0,0,.243-.016.382.382,0,0,0,.315-.366.389.389,0,0,0-.286-.372.923.923,0,0,0-.26-.025q-3.654,0-7.308,0a.373.373,0,0,1-.332-.162c-.565-.718-1.138-1.43-1.724-2.162h16.3C786.331,125.356,786.277,125.4,786.239,125.444Z" transform="translate(-769.252 -124.487)" fill="#f17b00"/>
    <path id="Caminho_9346" data-name="Caminho 9346" d="M787.263,124.482a.537.537,0,0,1,.208.013.023.023,0,0,1-.005-.032H770.922c-.005,0,0,.012-.005.018.022,0,.044,0,.066,0Z" transform="translate(-770.223 -124.463)" fill="#f17b00"/>
    <path id="Caminho_9347" data-name="Caminho 9347" d="M770.977,124.521H787.15l.314,0a.537.537,0,0,0-.208-.013H770.978c-.023,0-.044,0-.066,0,0,0-.005.007,0,.012A.638.638,0,0,0,770.977,124.521Z" transform="translate(-770.217 -124.484)" fill="#f17b00"/>
    <path id="Caminho_9348" data-name="Caminho 9348" d="M769.252,125.973v.315l.033,0C769.243,126.189,769.3,126.076,769.252,125.973Z" transform="translate(-769.252 -125.344)" fill="#f17b00"/>
    <path id="Caminho_9349" data-name="Caminho 9349" d="M769.252,125.973c.048.1-.009.216.033.318C769.267,126.186,769.324,126.073,769.252,125.973Z" transform="translate(-769.252 -125.344)" fill="#f17b00"/>
    <path id="Caminho_9350" data-name="Caminho 9350" d="M797.59,132.69c.12.018.243.015.368.023s.241-.005.361-.024a.382.382,0,0,0,.312-.367.375.375,0,0,0-.288-.367,2.043,2.043,0,0,0-.776,0,.365.365,0,0,0-.293.377A.374.374,0,0,0,797.59,132.69Z" transform="translate(-785.592 -128.81)" fill="#f17b00"/>
  </g>
</svg>
