<svg xmlns="http://www.w3.org/2000/svg" id="prefix__history" width="64.88" height="64.88" viewBox="0 0 64.88 64.88">
    <path id="prefix__Caminho_6798" d="M34.975 17.487v13.9l9.225 9.23a2.534 2.534 0 1 1-3.583 3.583l-9.969-9.969a2.534 2.534 0 0 1-.742-1.792V17.487a2.534 2.534 0 1 1 5.069 0zM42.409 0H22.472A22.393 22.393 0 0 0 7.736 5.51V2.534a2.534 2.534 0 1 0-5.069 0V12.5A2.541 2.541 0 0 0 5.2 15.037h9.97a2.534 2.534 0 1 0 0-5.069h-4.794a17.462 17.462 0 0 1 12.1-4.9h19.933a17.422 17.422 0 0 1 17.4 17.4v19.941a17.422 17.422 0 0 1-17.4 17.4H22.472a17.422 17.422 0 0 1-17.4-17.4V32.44a2.534 2.534 0 0 0-5.072 0v9.969A22.5 22.5 0 0 0 22.472 64.88h19.937A22.5 22.5 0 0 0 64.88 42.409V22.472A22.5 22.5 0 0 0 42.409 0z" data-name="Caminho 6798"/>
</svg>
