<svg xmlns="http://www.w3.org/2000/svg" width="48.64" height="48.645" viewBox="0 0 48.64 48.645">
    <path id="prefix__home-run"  d="M46.861 20.723L27.422 1.284a4.386 4.386 0 0 0-6.2 0L1.793 20.709l-.02.02A4.384 4.384 0 0 0 4.692 28.2c.045 0 .09.007.136.007H5.6v14.3a5.139 5.139 0 0 0 5.134 5.133h7.6a1.4 1.4 0 0 0 1.4-1.4V35.035a2.345 2.345 0 0 1 2.342-2.342h4.485a2.345 2.345 0 0 1 2.339 2.342v11.213a1.4 1.4 0 0 0 1.4 1.4h7.6a5.139 5.139 0 0 0 5.134-5.133v-14.3h.718a4.387 4.387 0 0 0 3.1-7.486zm-1.977 4.227a1.585 1.585 0 0 1-1.128.467h-2.114a1.4 1.4 0 0 0-1.4 1.4v15.7a2.344 2.344 0 0 1-2.342 2.336h-6.2v-9.818a5.14 5.14 0 0 0-5.137-5.135h-4.485a5.14 5.14 0 0 0-5.134 5.134v9.817h-6.208a2.345 2.345 0 0 1-2.342-2.342v-15.7a1.4 1.4 0 0 0-1.4-1.4H4.855a1.593 1.593 0 0 1-1.1-2.72L23.193 3.258a1.594 1.594 0 0 1 2.254 0l19.43 19.43.009.009a1.6 1.6 0 0 1 0 2.253zm0 0" transform="translate(0 .501)"/>
</svg>
