<svg height="76.8" viewBox="0 0 66 76.8" width="66" xmlns="http://www.w3.org/2000/svg"><path d="m237.505 182.774c-1.908 0-3.264.805-3.264 1.992v16.151c0 1.017 1.357 2.035 3.264 2.035 1.823 0 3.306-1.018 3.306-2.035v-16.151c.001-1.187-1.483-1.992-3.306-1.992z" fill="#ff7d00" transform="translate(-204.505 -155.358)"/><path d="m236.3 116.361a3.055 3.055 0 1 0 3.434 3.01 3.284 3.284 0 0 0 -3.434-3.01z" fill="#ff7d00" transform="translate(-203.304 -98.907)"/><path d="m69 0a32.983 32.983 0 0 0 -9.987 64.422l7.5 11.062a3 3 0 0 0 4.965 0l7.5-11.062a32.983 32.983 0 0 0 -9.978-64.422zm7.3 58.965a3 3 0 0 0 -1.675 1.2l-5.625 8.291-5.622-8.286a3 3 0 0 0 -1.675-1.2 27 27 0 1 1 14.594 0z" fill="#001f40" transform="translate(-36)"/></svg>