<svg height="47.993" viewBox="0 0 57.591 47.993" width="57.591" xmlns="http://www.w3.org/2000/svg"><path d="m179.792 148.333h-47.992a4.8 4.8 0 1 0 0 9.6h47.992a4.8 4.8 0 0 0 0-9.6z" fill="#001f40" transform="translate(-127 -148.333)"/><path d="m179.792 233.667h-47.992a4.8 4.8 0 0 0 0 9.6h47.992a4.8 4.8 0 0 0 0-9.6z" fill="#001f40" transform="translate(-127 -214.47)"/><path d="m166.344 319h-35.767c-1.975 0-3.577 2.149-3.577 4.8s1.6 4.8 3.577 4.8h35.767c1.975 0 3.577-2.148 3.577-4.8s-1.602-4.8-3.577-4.8z" fill="#ff7d00" transform="translate(-127 -280.606)"/></svg>