<svg xmlns="http://www.w3.org/2000/svg" id="prefix__menu_1_" width="121.983" height="30.458" data-name="menu (1)" viewBox="0 0 121.983 30.458">

    <g id="prefix__Grupo_4995" data-name="Grupo 4995">
        <g id="prefix__Grupo_4994" data-name="Grupo 4994">
            <path id="prefix__Caminho_5233" d="M207.248 192a15.229 15.229 0 1 0 15.252 15.229A15.255 15.255 0 0 0 207.248 192zm0 25.382a10.153 10.153 0 1 1 10.165-10.153 10.171 10.171 0 0 1-10.165 10.153z" class="prefix__cls-1" data-name="Caminho 5233" transform="translate(-146.256 -192)"/>
            <path id="prefix__Caminho_5234" d="M399.248 192a15.229 15.229 0 1 0 15.252 15.229A15.255 15.255 0 0 0 399.248 192zm0 25.382a10.153 10.153 0 1 1 10.165-10.153 10.171 10.171 0 0 1-10.165 10.153z" class="prefix__cls-1" data-name="Caminho 5234" transform="translate(-292.513 -192)"/>
            <path id="prefix__Caminho_5235" d="M15.248 192A15.229 15.229 0 1 0 30.5 207.229 15.255 15.255 0 0 0 15.248 192zm0 25.382a10.153 10.153 0 1 1 10.165-10.153 10.171 10.171 0 0 1-10.165 10.153z" class="prefix__cls-1" data-name="Caminho 5235" transform="translate(0 -192)"/>
        </g>
    </g>
</svg>
