<svg xmlns="http://www.w3.org/2000/svg" width="43.274" height="69.411" viewBox="0 0 43.274 69.411">
    <path id="prefix__Caminho_6761" d="M34.706 0H8.568A8.57 8.57 0 0 0 0 8.568v52.276a8.57 8.57 0 0 0 8.568 8.568h26.138a8.57 8.57 0 0 0 8.568-8.568V8.568A8.57 8.57 0 0 0 34.706 0zm-6.24 4.067a5.249 5.249 0 0 0-.15 1.233 1.235 1.235 0 0 1-1.234 1.233H16.191A1.235 1.235 0 0 1 14.958 5.3a5.225 5.225 0 0 0-.15-1.234zm10.74 56.777a4.5 4.5 0 0 1-4.5 4.5H8.568a4.5 4.5 0 0 1-4.5-4.5V8.568a4.5 4.5 0 0 1 4.5-4.5h1.089A1.237 1.237 0 0 1 10.89 5.3a5.307 5.307 0 0 0 5.3 5.3h10.892a5.307 5.307 0 0 0 5.3-5.3 1.237 1.237 0 0 1 1.233-1.234h1.089a4.5 4.5 0 0 1 4.5 4.5zm0 0" data-name="Caminho 6761"/>
</svg>
