<svg id="Componente_35_1" data-name="Componente 35 – 1" xmlns="http://www.w3.org/2000/svg" width="78.424" height="78.431" viewBox="0 0 78.424 78.431">
  <path id="Caminho_13977" data-name="Caminho 13977" d="M-369,316.029c1.607,0,3.215-.033,4.821.015a7.914,7.914,0,0,1,7.546,4.766,7.113,7.113,0,0,1,.666,2.953c.016,2.194.02,4.388,0,6.581-.006.522.134.719.683.7,1.3-.036,2.605.05,3.9-.028a2.913,2.913,0,0,1,3.239,1.7v9.5a1.4,1.4,0,0,1-1.016.246q-9.376.007-18.751,0c-1.134,0-1.277-.155-1.279-1.287-.007-3.546,0-7.092-.005-10.638,0-.324.073-.671-.2-.94a2.158,2.158,0,0,0-1.26-.159c-.937-.024-1.875.015-2.812-.019a11.666,11.666,0,0,1-11.484-10.678,4.9,4.9,0,0,1-.009-.84,1.933,1.933,0,0,1,2.038-1.93c2.369-.022,4.739-.008,7.108-.007.764,0,1.528,0,2.292-.056,1.234.083,2.469.025,3.7.041A1.7,1.7,0,0,1-369,316.029Z" transform="translate(426.567 -295.184)" fill="#fec4ba"/>
  <path id="Caminho_13978" data-name="Caminho 13978" d="M-308.544,380.842c.257.256.14.581.14.873q.013,5.586.006,11.171c0,.973,0,.974,1.009.974h19.819v11.487a2.467,2.467,0,0,1-2.605,1.9c-1.35.023-2.7.028-4.05,0-.612-.015-.9.154-1.018.809a8.123,8.123,0,0,1-8.482,7.013c-1.274,0-2.547,0-3.821,0a1.54,1.54,0,0,1-1.029-.2,1.641,1.641,0,0,1-.227-1.1q-.007-15.913,0-31.827A1.465,1.465,0,0,1-308.544,380.842Z" transform="translate(365.994 -346.827)" fill="#feacac"/>
  <path id="Caminho_13979" data-name="Caminho 13979" d="M-399.5,414.842c-.073,1.722.2,3.465-.267,5.162a6.794,6.794,0,0,1-5.282,5.111,1,1,0,0,0-.244.142H-423.06a.775.775,0,0,1-.211-.477,35.759,35.759,0,0,1,.009-3.713.714.714,0,0,1,.173-.414,1.963,1.963,0,0,1,1.326-.233q7.08-.01,14.159,0c2.448,0,3.289-.842,3.29-3.324q.006-17.411.007-34.822a2.122,2.122,0,0,1,.213-1.406l4.48-.023q0,6.693,0,13.385,0,9.982,0,19.965C-399.608,414.409-399.7,414.653-399.5,414.842Z" transform="translate(457.064 -346.826)" fill="#232323"/>
  <path id="Caminho_13980" data-name="Caminho 13980" d="M-513.666,542.6l0,4.567h-17.768c-.491-.176-1-.317-1.471-.532a6.891,6.891,0,0,1-4.314-6.445c-.043-1.142-.008-2.287-.009-3.431a1.293,1.293,0,0,1,.825-.33,5.147,5.147,0,0,0,3.182-1.887c.152-.187.313-.7.709-.205a38.933,38.933,0,0,1,.087,4.127c.011.383-.006.766.006,1.149a2.56,2.56,0,0,0,2.752,2.715c4.875.016,9.751,0,14.626.009a2.529,2.529,0,0,1,1.277.153Z" transform="translate(547.668 -468.733)" fill="#515151"/>
  <path id="Caminho_13981" data-name="Caminho 13981" d="M-538.292,240.915c.012-.279.035-.559.035-.838q0-8.955,0-17.909c0-4.489,2.94-7.437,7.413-7.434q8.074,0,16.148.024a1.312,1.312,0,0,1,.243,1.01q.01,6.191,0,12.381a2.062,2.062,0,0,1-.13.9.476.476,0,0,1-.209.2,2.669,2.669,0,0,1-1.056.111c-1.836,0-3.672.009-5.508,0a7.31,7.31,0,0,1-7.21-7.226c0-.637,0-1.275-.006-1.912-.006-.436-.2-.66-.648-.658-.663,0-1.328-.041-1.988.02a2.494,2.494,0,0,0-2.2,2.2,7.908,7.908,0,0,0-.045,1.222q0,13.5-.006,27c0,.472.114.977-.239,1.4a10.2,10.2,0,0,1-3.076.165,2.437,2.437,0,0,1-1.548-.2,1.742,1.742,0,0,1-.208-1.105q-.009-4.128,0-8.256A1.573,1.573,0,0,1-538.292,240.915Z" transform="translate(548.699 -214.72)" fill="#515151"/>
  <path id="Caminho_13982" data-name="Caminho 13982" d="M-422.065,229.057q0-7.176,0-14.353c5.743-.006,11.487-.085,17.228.008,3.53.058,6.309,3.359,6.324,7.247.018,4.518.011,9.035.014,13.553a27.321,27.321,0,0,1-4.6.014,1.712,1.712,0,0,1-.194-1.178q-.011-5.737,0-11.474a5.645,5.645,0,0,0-.126-1.443,2.372,2.372,0,0,0-2.352-1.922c-.509-.023-1.02-.014-1.53-.006-.8.014-.876.087-.9.873a18.579,18.579,0,0,1-.136,2.822,7.389,7.389,0,0,1-7.137,6.1c-1.861.023-3.723.01-5.584,0C-421.409,229.3-421.786,229.365-422.065,229.057Z" transform="translate(456.072 -214.668)" fill="#232323"/>
  <path id="Caminho_13983" data-name="Caminho 13983" d="M-572.595,392.564l4.575-.015c2.955-.675,5.658.365,6.874,2.97a5.408,5.408,0,0,1-2.2,6.957,13.668,13.668,0,0,1-1.964.829c-3.051-.111-6.1-.1-9.151-.016a.61.61,0,0,1-.494-.149,3,3,0,0,0-1.563-.132,5.175,5.175,0,0,1-4.816-3.166,5.219,5.219,0,0,1,1.282-5.887,4.346,4.346,0,0,1,2.489-1.231,1.054,1.054,0,0,1,.815-.354c1.194-.064,2.388-.044,3.583-.013A1.083,1.083,0,0,1-572.595,392.564Z" transform="translate(583.056 -355.962)" fill="#fec4ba"/>
  <path id="Caminho_13984" data-name="Caminho 13984" d="M-564.836,444.5c2.948-.314,5.9-.072,8.856-.136.326-.007.633.205.975.135a1.1,1.1,0,0,1,1.092.053,5.435,5.435,0,0,1,3.381,5.465,5.509,5.509,0,0,1-3.858,4.829,4.258,4.258,0,0,1-1.286.139c-2.275.008-4.548-.014-6.821.014a6.28,6.28,0,0,1-1.879-.22,5.113,5.113,0,0,1-4.6-4.6A5.127,5.127,0,0,1-564.836,444.5Z" transform="translate(572.941 -397.327)" fill="#feacac"/>
  <path id="Caminho_13985" data-name="Caminho 13985" d="M-577.73,353.026c-1.082.005-2.165.028-3.247.009a9.334,9.334,0,0,0-1.717.152c-.722-.3-1.517-.244-2.255-.554a5.284,5.284,0,0,1-3.241-5.058,5.41,5.41,0,0,1,3.427-4.641,4.974,4.974,0,0,1,1.785-.32c1.73.022,3.462.006,5.193,0q.018,4.591.037,9.183C-577.746,352.21-577.736,352.618-577.73,353.026Z" transform="translate(588.191 -316.424)" fill="#fedbc7"/>
  <path id="Caminho_13986" data-name="Caminho 13986" d="M-559.37,495.34l1.862-.006c.442.163.917.017,1.362.15a4.98,4.98,0,0,1,3.4,2.5,5.5,5.5,0,0,1,.453,4.211,1.648,1.648,0,0,1-.638,1.092,5.679,5.679,0,0,1-4.564,2.62,5.263,5.263,0,0,1-5.178-4.722,5.131,5.131,0,0,1,3.194-5.382c.188-.076.384-.133.624-.216Z" transform="translate(567.935 -437.883)" fill="#fec4ba"/>
  <path id="Caminho_13987" data-name="Caminho 13987" d="M-423.1,246.9c2.319.006,4.639.07,6.955,0a7.172,7.172,0,0,0,6.544-5.845,20.685,20.685,0,0,0,.119-3.35c0-.46.109-.637.594-.6.609.043,1.222.01,1.834.01a2.672,2.672,0,0,1,2.917,2.875c.012,4.459,0,8.918,0,13.378a1.879,1.879,0,0,1-.83.077c-2.729,0-5.459,0-8.188,0-1.53,0-2.167.683-2.122,2.228A11.361,11.361,0,0,0-404.6,266.5c.152.012.3.032.455.048q0,18.409.012,36.817a2.859,2.859,0,0,1-2.984,3.01c-5.331-.066-10.664-.01-16,0l0-.061a.486.486,0,0,1-.182-.324,22.672,22.672,0,0,1,.08-4.766c.251-.336.627-.3.977-.3,1.07-.014,2.14,0,3.21-.005a4.943,4.943,0,0,0,1.139-.1,2.142,2.142,0,0,0,1.718-2.212,2.009,2.009,0,0,0-2.024-1.818c-1.323-.059-2.649,0-3.974-.025-.373-.005-.778.053-1.052-.313a2.5,2.5,0,0,1-.143-1.129q0-23.73,0-47.459a1.611,1.611,0,0,1,.133-.9Z" transform="translate(457.112 -232.512)" fill="#f27d00"/>
  <path id="Caminho_13988" data-name="Caminho 13988" d="M-497,246.664a1.476,1.476,0,0,1,.112.747q0,24.216,0,48.431c0,.128-.007.255-.011.382l-.088.1a4.332,4.332,0,0,1-1.736.135c-.994.022-1.988-.01-2.982.011a2.029,2.029,0,0,0-2.144,1.849,2.073,2.073,0,0,0,1.921,2.254c.759.107,1.528.014,2.291.049a10.816,10.816,0,0,1,2.657.125l.093.093q0,2.587,0,5.174-5.741.016-11.483.032-2.259.005-4.517,0a2.7,2.7,0,0,1-2.969-3q-.013-2.717-.03-5.435a5.7,5.7,0,0,0,0-5.315,3.523,3.523,0,0,1-.064-2.457c.832-.267,1.7.024,2.538-.158a5.14,5.14,0,0,0,4.729-4.837,5.133,5.133,0,0,0-4.274-5.458c.071-.3.335-.259.545-.325a5.294,5.294,0,0,0,3.7-5.72,5.236,5.236,0,0,0-5.238-4.518c-.636-.007-1.272-.018-1.908-.027q0-14.428,0-28.856c0-2.131,1-3.132,3.145-3.119.682,0,1.568-.289,1.993.122s.157,1.31.129,1.989a7.22,7.22,0,0,0,5.939,7.6,11.05,11.05,0,0,0,1.676.109C-500.977,246.657-498.988,246.657-497,246.664Z" transform="translate(530.886 -232.208)" fill="#ffb069"/>
  <path id="Caminho_13989" data-name="Caminho 13989" d="M-530.2,495.356a15.014,15.014,0,0,1-2.451.143,4.668,4.668,0,0,1-2.47.154c-.247-.017-.488-.172-.742-.029-.446-.18-.964-.018-1.39-.29Z" transform="translate(547.677 -437.882)" fill="#d1a0a6"/>
  <path id="Caminho_13990" data-name="Caminho 13990" d="M-530.458,496.065a11.705,11.705,0,0,1,3.212-.125q-.011,1.236-.023,2.472A5.309,5.309,0,0,0-530.458,496.065Z" transform="translate(542.276 -438.324)" fill="#02376d"/>
  <path id="Caminho_13991" data-name="Caminho 13991" d="M-423.078,527.406l4.657.016a2.268,2.268,0,0,1,2.558,2.211,2.436,2.436,0,0,1-2.544,2.378c-1.552.023-3.105.007-4.658.008l0,0a.8.8,0,0,1-.211-.48c-.059-1.216-.056-2.433,0-3.649a.865.865,0,0,1,.2-.485Z" transform="translate(457.065 -463.39)" fill="#ffb069"/>
  <path id="Caminho_13992" data-name="Caminho 13992" d="M-450.153,527.419q.005,2.307.011,4.614c-1.607,0-3.215.005-4.821-.018a2.381,2.381,0,0,1-2.366-1.893,2.313,2.313,0,0,1,1.453-2.579,2.318,2.318,0,0,1,.9-.117Q-452.564,527.419-450.153,527.419Z" transform="translate(484.145 -463.401)" fill="#f27d00"/>
</svg>
