<svg id="Componente_42_1" data-name="Componente 42 – 1" xmlns="http://www.w3.org/2000/svg" width="348.108" height="415.259" viewBox="0 0 348.108 415.259">
  <g id="Grupo_8371" data-name="Grupo 8371" transform="translate(0 19.506)">
    <g id="Grupo_8309" data-name="Grupo 8309" transform="translate(0 346.228)">
      <ellipse id="Elipse_1232" data-name="Elipse 1232" cx="167.972" cy="24.762" rx="167.972" ry="24.762" transform="translate(0)" fill="#e2e2e2"/>
    </g>
    <g id="Grupo_8326" data-name="Grupo 8326" transform="translate(45.785 123.638)">
      <g id="Grupo_8314" data-name="Grupo 8314" transform="translate(16.827 0.555)">
        <g id="Grupo_8310" data-name="Grupo 8310">
          <path id="Caminho_13338" data-name="Caminho 13338" d="M9169,3621.925c-1.076.9-2.14,1.766-3.206,2.59.036-.024.072-.051.107-.078a60.98,60.98,0,0,1-14.187,8.44,66.955,66.955,0,0,1-15.45,4.19c-2.858.453-5.937.807-9.287,1.063H9067.4c-3.351-.257-6.431-.611-9.288-1.063a66.955,66.955,0,0,1-15.45-4.19,60.96,60.96,0,0,1-14.107-8.376q-1.581-1.229-3.182-2.57a29.447,29.447,0,0,1-6.4-34.578s5.175-13.767,15.281-40.63,34.6-47.753,62.925-47.753h.015c28.325,0,52.818,20.889,62.924,47.753s15.282,40.63,15.282,40.63a29.451,29.451,0,0,1-6.4,34.578c-.038.029-.073.061-.109.091Z" transform="translate(-9015.952 -3498.97)" fill="#fff"/>
        </g>
        <g id="Grupo_8311" data-name="Grupo 8311" transform="translate(149.841 122.956)">
          <path id="Caminho_13339" data-name="Caminho 13339" d="M9371.26,3787.9l-.105.1q-1.5,1.261-2.993,2.416c-.035.027-.071.054-.107.078C9369.119,3789.661,9370.183,3788.8,9371.26,3787.9Z" transform="translate(-9368.054 -3787.896)" fill="#fff"/>
        </g>
        <g id="Grupo_8312" data-name="Grupo 8312" transform="translate(149.949 123.052)">
          <path id="Caminho_13340" data-name="Caminho 13340" d="M9368.307,3790.538q1.491-1.153,3-2.415A28.944,28.944,0,0,1,9368.307,3790.538Z" transform="translate(-9368.307 -3788.123)" fill="#fff"/>
        </g>
        <g id="Grupo_8313" data-name="Grupo 8313" transform="translate(9.419 122.961)">
          <path id="Caminho_13341" data-name="Caminho 13341" d="M9038.084,3787.908q1.6,1.345,3.179,2.57A28.986,28.986,0,0,1,9038.084,3787.908Z" transform="translate(-9038.084 -3787.908)" fill="#fff"/>
        </g>
      </g>
      <g id="Grupo_8325" data-name="Grupo 8325" transform="translate(0 0)">
        <g id="Grupo_8315" data-name="Grupo 8315" transform="translate(25.691 122.961)">
          <path id="Caminho_13342" data-name="Caminho 13342" d="M9040.516,3790.285a.562.562,0,0,1-.318-.1,30.034,30.034,0,0,1-3.241-2.62.555.555,0,0,1,.757-.812,28.853,28.853,0,0,0,3.121,2.522.555.555,0,0,1-.318,1.011Z" transform="translate(-9036.779 -3786.604)" fill="#323433"/>
        </g>
        <g id="Grupo_8316" data-name="Grupo 8316" transform="translate(16.302)">
          <path id="Caminho_13343" data-name="Caminho 13343" d="M9066.69,3637.937c-3.42-.261-6.475-.61-9.377-1.07a67.81,67.81,0,0,1-15.577-4.227,61.455,61.455,0,0,1-14.232-8.449c-1.065-.828-2.142-1.7-3.2-2.585a30.169,30.169,0,0,1-6.55-35.224c.251-.668,5.419-14.41,15.272-40.6a79.548,79.548,0,0,1,24.806-34.192c11.6-9.107,24.96-13.921,38.64-13.921s27.053,4.814,38.651,13.921a79.544,79.544,0,0,1,24.808,34.192c9.854,26.2,15.022,39.939,15.271,40.6a30.165,30.165,0,0,1-6.529,35.205c-.011.01-.023.02-.035.03l-.033.029c-.028.022-.054.044-.082.066-1.019.853-2.028,1.67-2.993,2.414a61.4,61.4,0,0,1-14.312,8.514,67.792,67.792,0,0,1-15.575,4.227h0c-2.9.459-5.953.808-9.333,1.068Zm29.8-139.162c-13.442,0-26.565,4.732-37.967,13.685a78.4,78.4,0,0,0-24.452,33.708c-10.106,26.864-15.282,40.63-15.282,40.63-.007.017-.014.034-.021.05a29.042,29.042,0,0,0,6.277,33.926c1.023.86,2.088,1.721,3.143,2.54a60.314,60.314,0,0,0,13.98,8.3,66.61,66.61,0,0,0,15.323,4.155c2.872.455,5.9.8,9.245,1.058h59.535c3.306-.255,6.33-.6,9.2-1.057h0a66.641,66.641,0,0,0,15.325-4.155,60.449,60.449,0,0,0,14.061-8.366c.95-.736,1.95-1.544,2.976-2.4l.1-.081a29.055,29.055,0,0,0,6.268-33.917.212.212,0,0,1-.022-.05l-15.282-40.63a78.412,78.412,0,0,0-24.454-33.708C9123.035,3503.507,9109.912,3498.775,9096.486,3498.775Z" transform="translate(-9014.719 -3497.665)" fill="#323433"/>
        </g>
        <g id="Grupo_8317" data-name="Grupo 8317" transform="translate(166.113 122.94)">
          <path id="Caminho_13344" data-name="Caminho 13344" d="M9367.3,3790.269a.556.556,0,0,1-.341-.994c1.013-.783,2.056-1.625,3.186-2.574l.007,0,.009-.007a.554.554,0,0,1,.756.811.231.231,0,0,1-.045.04l-.1.09a29.987,29.987,0,0,1-3.047,2.46c-.024.019-.069.051-.114.082A.552.552,0,0,1,9367.3,3790.269Z" transform="translate(-9366.749 -3786.554)" fill="#323433"/>
        </g>
        <g id="Grupo_8318" data-name="Grupo 8318" transform="translate(25.656 122.932)">
          <path id="Caminho_13345" data-name="Caminho 13345" d="M9037.288,3787.675a.554.554,0,0,1-.369-.141c-.016-.013-.04-.033-.051-.044a.555.555,0,0,1,.77-.8c.02.016.023.02.043.037a.555.555,0,0,1-.393.948Z" transform="translate(-9036.697 -3786.535)" fill="#323433"/>
        </g>
        <g id="Grupo_8319" data-name="Grupo 8319" transform="translate(175.7 88.362)">
          <path id="Caminho_13346" data-name="Caminho 13346" d="M9389.829,3706.423a.538.538,0,0,1-.506-.343l-.009-.021a.555.555,0,0,1,1.033-.406.565.565,0,0,1-.309.73A.577.577,0,0,1,9389.829,3706.423Z" transform="translate(-9389.275 -3705.302)" fill="#323433"/>
        </g>
        <g id="Grupo_8320" data-name="Grupo 8320" transform="translate(0 133.908)">
          <path id="Caminho_13347" data-name="Caminho 13347" d="M8976.965,3929.784a.554.554,0,0,1-.519-.748l42.977-116.347a.555.555,0,0,1,1.041.385l-42.977,116.347A.559.559,0,0,1,8976.965,3929.784Z" transform="translate(-8976.41 -3812.327)" fill="#323433"/>
        </g>
        <g id="Grupo_8321" data-name="Grupo 8321" transform="translate(152.034 133.908)">
          <path id="Caminho_13348" data-name="Caminho 13348" d="M9377.2,3929.784a.554.554,0,0,1-.521-.363L9333.7,3813.075a.554.554,0,1,1,1.04-.384l42.979,116.347a.553.553,0,0,1-.521.747Z" transform="translate(-9333.665 -3812.327)" fill="#323433"/>
        </g>
        <g id="Grupo_8322" data-name="Grupo 8322" transform="translate(19.004 138.099)">
          <path id="Caminho_13349" data-name="Caminho 13349" d="M9021.621,3930.011a.556.556,0,0,1-.521-.748l39.426-106.725a.555.555,0,0,1,1.041.385l-39.426,106.726A.554.554,0,0,1,9021.621,3930.011Z" transform="translate(-9021.066 -3822.175)" fill="#323433"/>
        </g>
        <g id="Grupo_8323" data-name="Grupo 8323" transform="translate(136.583 138.099)">
          <path id="Caminho_13350" data-name="Caminho 13350" d="M9337.339,3930.011a.554.554,0,0,1-.521-.363l-39.426-106.726a.555.555,0,1,1,1.042-.384l39.425,106.725a.557.557,0,0,1-.329.714A.566.566,0,0,1,9337.339,3930.011Z" transform="translate(-9297.357 -3822.176)" fill="#323433"/>
        </g>
        <g id="Grupo_8324" data-name="Grupo 8324" transform="translate(38.844 110.565)">
          <path id="Caminho_13351" data-name="Caminho 13351" d="M9176.508,3760.654H9077.3a21.6,21.6,0,0,1-9.224-2.086l-.077-.036a.555.555,0,0,1,.482-1l.072.035a20.47,20.47,0,0,0,8.746,1.977h99.206a20.523,20.523,0,0,0,8.753-1.978l.067-.034a.556.556,0,0,1,.483,1l-.071.034A21.621,21.621,0,0,1,9176.508,3760.654Z" transform="translate(-9067.688 -3757.476)" fill="#323433"/>
        </g>
      </g>
    </g>
    <g id="Grupo_8327" data-name="Grupo 8327" transform="translate(273.931 293.984)">
      <path id="Caminho_13352" data-name="Caminho 13352" d="M9583.9,3898.285l1.955,3.131a1.808,1.808,0,0,1-.615,2.52l-62,36.6a1.808,1.808,0,0,1-2.463-.61l-8.264-13.434a21.353,21.353,0,0,1,20.706,1.264l50.3-29.688.171-.11C9583.768,3898.06,9583.835,3898.172,9583.9,3898.285Z" transform="translate(-9512.519 -3897.953)" fill="#fff"/>
    </g>
    <g id="Grupo_8328" data-name="Grupo 8328" transform="translate(263.965 284.031)">
      <path id="Caminho_13353" data-name="Caminho 13353" d="M9532.965,3882.708a9.149,9.149,0,0,0,7.011,1.132l13.006-3.167c8.127-1.979,13.466-1.99,17.26,3.846l-.172.11-50.3,29.688a21.354,21.354,0,0,0-20.7-1.264l-9.969-16.208,37.739-22.279,2.862,4.651.323.527A9.137,9.137,0,0,0,9532.965,3882.708Z" transform="translate(-9489.098 -3874.564)" fill="#323433"/>
    </g>
    <g id="Grupo_8329" data-name="Grupo 8329" transform="translate(102.021 172.07)">
      <path id="Caminho_13354" data-name="Caminho 13354" d="M9308.238,3723.435l-37.739,22.279-44.793-72.835a21.67,21.67,0,0,0-40.443-12.4c-16.781,10.631-35.683,22.312-60.629,11.336-20.5-9.022-16.949-31.9-13.184-44.364l15.742-2.34a48.245,48.245,0,0,0-4.6,16.261,2.6,2.6,0,0,0,4.158,2.381c8.733-6.681,23.353-17.221,31.858-23.315l55.387-8.237,2.392-.356.132-.018a32.387,32.387,0,0,1,32.354,15.067Z" transform="translate(-9108.556 -3611.474)" fill="#ff7d00"/>
    </g>
    <g id="Grupo_8330" data-name="Grupo 8330" transform="translate(77.329 69.322)">
      <path id="Caminho_13355" data-name="Caminho 13355" d="M9078.788,3432.167l-28.253-7.546a334.341,334.341,0,0,1,18.2-38.78,30.209,30.209,0,0,1,27.513-15.793c5.529.174,11.193.311,16.909.413a19.522,19.522,0,0,0,36.9.38c7.118.04,14.019.073,20.521.126a26.494,26.494,0,0,1,26.28,26.671c-.078,11.985-.443,23.751-1.124,35.906H9166.58c-.33,4.215-.637,8.618-.974,13.593a3.994,3.994,0,0,1-2.966,3.591c-35.326,9.318-58.987,16.193-68.776,35.692l-15.741,2.34-17.081,2.542c3.068-7.413,5.692-14.565,7.8-21.519v0c14.354-7.211,27.835-14.933,46.056-25.409.364-.209.726-.421,1.085-.629a4.082,4.082,0,0,0,1.732.382h17.676a4.073,4.073,0,0,0,4.074-4.075v-16.669a22.448,22.448,0,0,0,3.15-12.9,2.786,2.786,0,0,0-3.15-2.573v-3.575a4.073,4.073,0,0,0-4.074-4.075h-17.676a4.074,4.074,0,0,0-4.076,4.075v4.9a58.186,58.186,0,0,0-8.272,12.446,16.2,16.2,0,0,1-9.412,8.055l-18.535,6.063Z" transform="translate(-9050.535 -3370.033)" fill="#323433"/>
    </g>
    <g id="Grupo_8331" data-name="Grupo 8331" transform="translate(116.037 132.833)">
      <path id="Caminho_13356" data-name="Caminho 13356" d="M9218.828,3519.273h29.155c-.511,9.148-1.2,18.517-2.079,28.365a12.49,12.49,0,0,1-10.6,11.244l-2.392.356-55.387,8.237c-8.508,6.094-23.124,16.635-31.858,23.315a2.6,2.6,0,0,1-4.157-2.381,48.243,48.243,0,0,1,4.6-16.262c9.791-19.5,33.45-26.374,68.778-35.692a3.994,3.994,0,0,0,2.965-3.591C9218.192,3527.89,9218.5,3523.488,9218.828,3519.273Z" transform="translate(-9141.492 -3519.273)" fill="#fff"/>
    </g>
    <g id="Grupo_8332" data-name="Grupo 8332" transform="translate(145.417 210.109)">
      <path id="Caminho_13357" data-name="Caminho 13357" d="M9284.286,3724.224a21.95,21.95,0,0,1-.731,4.1l-29.725,106.937h-43.3L9241.738,3717a21.666,21.666,0,0,1,42.548,7.227Z" transform="translate(-9210.531 -3700.858)" fill="#ff7d00"/>
    </g>
    <g id="Grupo_8333" data-name="Grupo 8333" transform="translate(135.765 364.485)">
      <path id="Caminho_13358" data-name="Caminho 13358" d="M9263.128,4074.286l.205-.005c.006.129.008.26.014.391l.142,5.548h-75.638l4.383-16.6a21.436,21.436,0,0,1,4.3,1.938,21.2,21.2,0,0,1,8.183,8.729Z" transform="translate(-9187.851 -4063.618)" fill="#fff"/>
    </g>
    <g id="Grupo_8334" data-name="Grupo 8334" transform="translate(140.149 344.514)">
      <path id="Caminho_13359" data-name="Caminho 13359" d="M9245.154,4025.027c.647,3.144,3.346,5.187,6.4,6.116,9.407,2.852,17.286,4.4,17.689,16.179l-.206.005h-58.406a21.2,21.2,0,0,0-8.186-8.729,21.419,21.419,0,0,0-4.3-1.939l5.271-19.971h43.3l-1.381,4.963A7.014,7.014,0,0,0,9245.154,4025.027Z" transform="translate(-9198.146 -4016.688)" fill="#323433"/>
    </g>
    <g id="Grupo_8335" data-name="Grupo 8335" transform="translate(136.247 0.556)">
      <path id="Caminho_13360" data-name="Caminho 13360" d="M9241.768,3211.329a20.276,20.276,0,0,1-2.586,8.02,47.786,47.786,0,0,0-5.843,16.029c-.3,1.74-.567,2.986-.663,3.366a4.207,4.207,0,0,0-2.074-.632c.048-1.958.078-3.987.092-6.111a14.92,14.92,0,0,0-.2-2.52,1.543,1.543,0,0,0-2.109-1.173c-8.25,3.337-18.516,2.785-25.506-.975a4.327,4.327,0,0,0-5.893,1.856l-4.544,8.923a4.224,4.224,0,0,0-2.1.645c-6.271-24.641,10.459-29.448,22.692-30.235s17.96,4.378,21.887,5.053A8.486,8.486,0,0,0,9241.768,3211.329Z" transform="translate(-9188.981 -3208.442)" fill="#323433"/>
    </g>
    <g id="Grupo_8336" data-name="Grupo 8336" transform="translate(135.287 18.936)">
      <path id="Caminho_13361" data-name="Caminho 13361" d="M9231.379,3263.555a5.115,5.115,0,0,1,2.348,4.391,4.813,4.813,0,0,1-4.563,5.029c-.091,0-.183,0-.274-.008-.125,2.094-.273,4.148-.448,6.2a18.288,18.288,0,0,1-18.07,16.755,18.042,18.042,0,0,1-12.015-4.467,18.744,18.744,0,0,1-6.367-12.574c-.165-1.955-.309-3.915-.429-5.913-.089.005-.18.008-.27.008a4.813,4.813,0,0,1-4.563-5.029,5.129,5.129,0,0,1,2.32-4.378,4.233,4.233,0,0,1,2.1-.645l4.544-8.922a4.327,4.327,0,0,1,5.893-1.856c6.991,3.76,17.256,4.311,25.507.975a1.542,1.542,0,0,1,2.108,1.173,14.913,14.913,0,0,1,.2,2.52c-.015,2.124-.045,4.153-.093,6.111A4.216,4.216,0,0,1,9231.379,3263.555Z" transform="translate(-9186.727 -3251.633)" fill="#fff"/>
    </g>
    <g id="Grupo_8337" data-name="Grupo 8337" transform="translate(139.955 58.758)">
      <path id="Caminho_13362" data-name="Caminho 13362" d="M9229.892,3356.553q2.364.017,4.7.027a19.521,19.521,0,0,1-36.9-.38q2.61.048,5.23.089a1.42,1.42,0,0,0,1.438-1.35c.148-3.282.24-6.5.295-9.731a18.133,18.133,0,0,0,23.617.187c-.024,3.489.052,6.695.21,9.814A1.416,1.416,0,0,0,9229.892,3356.553Z" transform="translate(-9197.694 -3345.208)" fill="#fff"/>
    </g>
    <g id="Grupo_8338" data-name="Grupo 8338" transform="translate(67.625 107.167)">
      <path id="Caminho_13363" data-name="Caminho 13363" d="M9064.325,3486.874l18.534-6.062a16.2,16.2,0,0,0,9.411-8.054,58.308,58.308,0,0,1,8.272-12.446v11.525h.057c9.864-4.743,16.146-7.638,24.769-12.511a2.818,2.818,0,0,1,1-.339,2.784,2.784,0,0,1,3.148,2.573,22.482,22.482,0,0,1-3.148,12.9c-4.294,7.455-12.651,14.023-23.485,20.362-.357.209-.72.42-1.085.629-18.218,10.476-31.7,18.2-46.055,25.41-3.554,1.786-7.157,3.543-10.9,5.3-10.224,4.8-19.562-10.569-16.531-22.181a259.151,259.151,0,0,1,9.123-28.276l28.256,7.546Z" transform="translate(-9027.731 -3458.961)" fill="#fff"/>
    </g>
    <g id="Grupo_8339" data-name="Grupo 8339" transform="translate(142.779 122.669)">
      <path id="Caminho_13364" data-name="Caminho 13364" d="M9227.817,3495.387v16.669a4.074,4.074,0,0,1-4.075,4.076h-17.676a4.083,4.083,0,0,1-1.733-.383C9215.167,3509.41,9223.525,3502.842,9227.817,3495.387Z" transform="translate(-9204.333 -3495.387)" fill="#ff7d00"/>
    </g>
    <g id="Grupo_8340" data-name="Grupo 8340" transform="translate(140.436 99.54)">
      <path id="Caminho_13365" data-name="Caminho 13365" d="M9224.654,3445.115v3.576a2.809,2.809,0,0,0-1,.34c-8.624,4.874-14.9,7.768-24.771,12.51h-.057v-16.426a4.074,4.074,0,0,1,4.076-4.075h17.677A4.074,4.074,0,0,1,9224.654,3445.115Z" transform="translate(-9198.826 -3441.04)" fill="#ff7d00"/>
    </g>
    <g id="Grupo_8370" data-name="Grupo 8370" transform="translate(67.082)">
      <g id="Grupo_8341" data-name="Grupo 8341" transform="translate(12.901 107.962)">
        <path id="Caminho_13366" data-name="Caminho 13366" d="M9057.326,3496.246a.555.555,0,0,1-.174-1.083l42.216-13.807a15.752,15.752,0,0,0,9.088-7.779,58.8,58.8,0,0,1,8.348-12.557.554.554,0,1,1,.839.725,57.844,57.844,0,0,0-8.2,12.335,16.873,16.873,0,0,1-9.734,8.331l-42.216,13.807A.538.538,0,0,1,9057.326,3496.246Z" transform="translate(-9056.77 -3460.829)" fill="#323433"/>
      </g>
      <g id="Grupo_8342" data-name="Grupo 8342" transform="translate(75.143 122.113)">
        <path id="Caminho_13367" data-name="Caminho 13367" d="M9222.992,3515.937h-17.677a4.609,4.609,0,0,1-1.967-.434.555.555,0,1,1,.471-1.006,3.51,3.51,0,0,0,1.5.33h17.677a3.524,3.524,0,0,0,3.521-3.52v-16.669a.555.555,0,1,1,1.11,0v16.669A4.635,4.635,0,0,1,9222.992,3515.937Z" transform="translate(-9203.029 -3494.083)" fill="#323433"/>
      </g>
      <g id="Grupo_8343" data-name="Grupo 8343" transform="translate(72.8 98.985)">
        <path id="Caminho_13368" data-name="Caminho 13368" d="M9198.076,3461.347a.554.554,0,0,1-.553-.556v-16.426a4.635,4.635,0,0,1,4.631-4.631h17.676a4.637,4.637,0,0,1,4.631,4.631v3.575a.556.556,0,0,1-1.111,0v-3.575a3.525,3.525,0,0,0-3.52-3.52h-17.676a3.524,3.524,0,0,0-3.521,3.52v16.426A.555.555,0,0,1,9198.076,3461.347Z" transform="translate(-9197.523 -3439.735)" fill="#323433"/>
      </g>
      <g id="Grupo_8344" data-name="Grupo 8344" transform="translate(0 58.203)">
        <path id="Caminho_13369" data-name="Caminho 13369" d="M9040.226,3461.522a10.49,10.49,0,0,1-6.724-2.642c-5.519-4.591-8.356-13.874-6.46-21.132a259.83,259.83,0,0,1,9.14-28.337,336.422,336.422,0,0,1,18.234-38.843,30.553,30.553,0,0,1,28.018-16.084c5.416.17,11.1.308,16.9.412q2.612.048,5.228.088h.014a.867.867,0,0,0,.862-.819c.143-3.171.239-6.349.295-9.715a.556.556,0,0,1,.554-.546h.009a.554.554,0,0,1,.546.564c-.056,3.377-.151,6.565-.295,9.747a1.962,1.962,0,0,1-1.97,1.88h-.03q-2.618-.041-5.232-.089c-5.8-.1-11.494-.242-16.916-.412a29.492,29.492,0,0,0-27.007,15.5,334.6,334.6,0,0,0-18.173,38.715,258.748,258.748,0,0,0-9.1,28.218c-1.795,6.876.882,15.66,6.1,20,2.131,1.771,5.534,3.476,9.66,1.54,3.608-1.692,7.172-3.423,10.893-5.292,14.733-7.4,29.236-15.741,46.026-25.4q.4-.228.79-.458l.292-.17c12.01-7.026,19.409-13.432,23.281-20.158a21.8,21.8,0,0,0,3.078-12.593,2.178,2.178,0,0,0-.8-1.562,2.256,2.256,0,0,0-1.723-.5,2.228,2.228,0,0,0-.8.274c-7.484,4.231-13.167,6.952-21.028,10.718-1.2.576-2.456,1.176-3.771,1.81a.556.556,0,0,1-.482-1c1.317-.633,2.57-1.233,3.773-1.81,7.842-3.756,13.508-6.47,20.965-10.684a3.327,3.327,0,0,1,1.2-.407,3.366,3.366,0,0,1,2.573.738,3.28,3.28,0,0,1,1.2,2.35,22.856,22.856,0,0,1-3.223,13.217c-3.972,6.9-11.5,13.434-23.684,20.563l-.292.17c-.266.154-.529.308-.8.461-16.807,9.662-31.318,18.006-46.082,25.424-3.729,1.875-7.3,3.61-10.919,5.307A9.633,9.633,0,0,1,9040.226,3461.522Z" transform="translate(-9026.454 -3343.903)" fill="#323433"/>
      </g>
      <g id="Grupo_8345" data-name="Grupo 8345" transform="translate(48.4 106.621)">
        <path id="Caminho_13370" data-name="Caminho 13370" d="M9143.348,3556.506a3.179,3.179,0,0,1-3.14-3.542,48.534,48.534,0,0,1,4.66-16.448c9.771-19.465,32.635-26.353,69.129-35.979a3.438,3.438,0,0,0,2.556-3.092c.367-5.407.659-9.568.972-13.6.721-9.191,1.481-16.632,2.63-25.686a.555.555,0,0,1,1.1.14c-1.146,9.034-1.906,16.46-2.623,25.632-.315,4.025-.606,8.183-.972,13.587a4.546,4.546,0,0,1-3.379,4.09c-36.2,9.547-58.864,16.365-68.422,35.4a47.426,47.426,0,0,0-4.549,16.078,2.034,2.034,0,0,0,1.026,2.03,2.011,2.011,0,0,0,2.24-.155c8.809-6.738,23.752-17.506,31.875-23.326a.562.562,0,0,1,.242-.1l55.387-8.237a.556.556,0,0,1,.163,1.1l-55.253,8.217c-8.144,5.833-22.98,16.529-31.739,23.227A3.12,3.12,0,0,1,9143.348,3556.506Z" transform="translate(-9140.186 -3457.677)" fill="#323433"/>
      </g>
      <g id="Grupo_8346" data-name="Grupo 8346" transform="translate(102.893 58.39)">
        <path id="Caminho_13371" data-name="Caminho 13371" d="M9308.111,3458.952a.555.555,0,0,1-.08-1.1,11.9,11.9,0,0,0,10.127-10.744c.885-9.918,1.564-19.19,2.077-28.348.678-12.115,1.048-23.852,1.124-35.878a25.976,25.976,0,0,0-25.731-26.112c-5.118-.042-10.488-.072-16.017-.1l-5.172-.028q-2.005-.011-4.03-.023a1.973,1.973,0,0,1-1.957-1.872c-.167-3.241-.234-6.461-.209-9.845a.553.553,0,0,1,.553-.552h0a.553.553,0,0,1,.551.559c-.022,3.363.047,6.562.21,9.782a.863.863,0,0,0,.857.817q2.023.014,4.026.024l5.172.028c5.53.03,10.9.059,16.022.1a27.089,27.089,0,0,1,26.831,27.229c-.078,12.045-.444,23.8-1.124,35.935-.513,9.17-1.194,18.455-2.084,28.383a13,13,0,0,1-11.068,11.744A.549.549,0,0,1,9308.111,3458.952Z" transform="translate(-9268.238 -3344.344)" fill="#323433"/>
      </g>
      <g id="Grupo_8347" data-name="Grupo 8347" transform="translate(36.58 130.902)">
        <path id="Caminho_13372" data-name="Caminho 13372" d="M9112.967,3519.467a.568.568,0,0,1-.2-.036.555.555,0,0,1-.323-.714l1.366-3.624a.555.555,0,1,1,1.038.392l-1.364,3.623A.556.556,0,0,1,9112.967,3519.467Z" transform="translate(-9112.412 -3514.735)" fill="#323433"/>
      </g>
      <g id="Grupo_8348" data-name="Grupo 8348" transform="translate(37.948 106.189)">
        <path id="Caminho_13373" data-name="Caminho 13373" d="M9116.181,3482.486a.525.525,0,0,1-.193-.036.554.554,0,0,1-.325-.715l9.321-24.713a.555.555,0,1,1,1.038.392l-9.321,24.713A.555.555,0,0,1,9116.181,3482.486Z" transform="translate(-9115.626 -3456.662)" fill="#323433"/>
      </g>
      <g id="Grupo_8349" data-name="Grupo 8349" transform="translate(9.693 123.356)">
        <path id="Caminho_13374" data-name="Caminho 13374" d="M9078.041,3505.659a.6.6,0,0,1-.146-.019l-28.254-7.547a.555.555,0,0,1,.286-1.072l28.242,7.543a.555.555,0,0,1-.129,1.095Z" transform="translate(-9049.23 -3497.002)" fill="#323433"/>
      </g>
      <g id="Grupo_8350" data-name="Grupo 8350" transform="translate(139.822 171.513)">
        <path id="Caminho_13375" data-name="Caminho 13375" d="M9431.858,3776.018a2.375,2.375,0,0,1-2.025-1.124l-63.019-102.47a.554.554,0,0,1,.886-.663.642.642,0,0,1,.056.073l63.022,102.478a1.264,1.264,0,0,0,1.711.424l62-36.6a1.256,1.256,0,0,0,.429-1.747l-1.956-3.13c-.066-.11-.134-.216-.2-.315-3.624-5.572-8.652-5.568-16.668-3.617l-13,3.167a9.707,9.707,0,0,1-10.558-4.345l-3.185-5.179-59.372-96.539a31.792,31.792,0,0,0-31.8-14.81l-2.522.375a.555.555,0,1,1-.164-1.1l2.527-.375a32.9,32.9,0,0,1,32.9,15.326l62.554,101.719a8.6,8.6,0,0,0,9.351,3.847l13-3.168c8.313-2.022,13.9-2,17.855,4.083.07.1.144.223.219.343l1.953,3.127a2.363,2.363,0,0,1-.8,3.292l-62,36.6A2.343,2.343,0,0,1,9431.858,3776.018Z" transform="translate(-9355.013 -3610.164)" fill="#323433"/>
      </g>
      <g id="Grupo_8351" data-name="Grupo 8351" transform="translate(196.329 283.476)">
        <path id="Caminho_13376" data-name="Caminho 13376" d="M9488.351,3896.649a.555.555,0,0,1-.283-1.033l37.739-22.279a.555.555,0,1,1,.564.956l-37.74,22.278A.549.549,0,0,1,9488.351,3896.649Z" transform="translate(-9487.795 -3873.26)" fill="#323433"/>
      </g>
      <g id="Grupo_8352" data-name="Grupo 8352" transform="translate(227.76 288.128)">
        <path id="Caminho_13377" data-name="Caminho 13377" d="M9562.209,3890.712a.555.555,0,0,1-.283-1.032l9.17-5.413a.555.555,0,0,1,.564.956l-9.168,5.413A.561.561,0,0,1,9562.209,3890.712Z" transform="translate(-9561.654 -3884.191)" fill="#fff"/>
      </g>
      <g id="Grupo_8353" data-name="Grupo 8353" transform="translate(230.933 291.619)">
        <path id="Caminho_13378" data-name="Caminho 13378" d="M9569.665,3898.974a.556.556,0,0,1-.282-1.033l9.263-5.468a.555.555,0,1,1,.563.956l-9.262,5.468A.548.548,0,0,1,9569.665,3898.974Z" transform="translate(-9569.111 -3892.395)" fill="#fff"/>
      </g>
      <g id="Grupo_8354" data-name="Grupo 8354" transform="translate(206.295 293.539)">
        <path id="Caminho_13379" data-name="Caminho 13379" d="M9532.476,3927.705a.552.552,0,0,1-.3-.088,20.8,20.8,0,0,0-20.164-1.23.555.555,0,1,1-.481-1,21.9,21.9,0,0,1,20.955,1.114l50.006-29.516a.555.555,0,1,1,.565.956l-50.3,29.688A.566.566,0,0,1,9532.476,3927.705Z" transform="translate(-9511.216 -3896.906)" fill="#323433"/>
      </g>
      <g id="Grupo_8355" data-name="Grupo 8355" transform="translate(77.78 343.959)">
        <path id="Caminho_13380" data-name="Caminho 13380" d="M9253.076,4016.495h-43.3a.555.555,0,0,1,0-1.11h43.3a.555.555,0,1,1,0,1.11Z" transform="translate(-9209.225 -4015.385)" fill="#323433"/>
      </g>
      <g id="Grupo_8356" data-name="Grupo 8356" transform="translate(72.511 363.93)">
        <path id="Caminho_13381" data-name="Caminho 13381" d="M9268.292,4074.092h-58.407a.557.557,0,0,1-.5-.3,20.668,20.668,0,0,0-7.968-8.5,20.922,20.922,0,0,0-4.192-1.889.555.555,0,1,1,.341-1.056,22.058,22.058,0,0,1,4.414,1.989,21.774,21.774,0,0,1,8.24,8.653h58.069a.555.555,0,1,1,0,1.109Z" transform="translate(-9196.842 -4062.313)" fill="#323433"/>
      </g>
      <g id="Grupo_8357" data-name="Grupo 8357" transform="translate(68.13 209.567)">
        <path id="Caminho_13382" data-name="Caminho 13382" d="M9262.738,3871.661h-75.633a.557.557,0,0,1-.537-.7l40.857-154.839a22.221,22.221,0,0,1,43.637,7.413,22.562,22.562,0,0,1-.75,4.207l-31.1,111.9a6.458,6.458,0,0,0-.172,3.116c.539,2.622,2.734,4.7,6.02,5.7q.9.273,1.779.532c8.537,2.54,15.912,4.732,16.3,16.16,0,.112.008.23.01.349v.048l.143,5.547a.558.558,0,0,1-.555.569Zm-74.914-1.111h74.344l-.127-5.029c0-.111,0-.223-.01-.331-.365-10.634-7.049-12.621-15.512-15.138-.586-.174-1.184-.352-1.785-.534-3.689-1.121-6.162-3.5-6.783-6.535a7.578,7.578,0,0,1,.189-3.646l31.1-111.891a21.632,21.632,0,0,0,.713-4,21.115,21.115,0,0,0-39.408-12.079h0a21.019,21.019,0,0,0-2.049,5.038Zm42.242-159.456h0Z" transform="translate(-9186.55 -3699.584)" fill="#323433"/>
      </g>
      <g id="Grupo_8358" data-name="Grupo 8358" transform="translate(20.2 168.517)">
        <path id="Caminho_13383" data-name="Caminho 13383" d="M9074.476,3625.752a.555.555,0,0,1-.512-.768c3.19-7.71,5.738-14.732,7.784-21.467a.556.556,0,0,1,1.064.323c-1.979,6.5-4.417,13.274-7.45,20.664l31.854-4.738a.556.556,0,0,1,.164,1.1l-32.822,4.881A.5.5,0,0,1,9074.476,3625.752Z" transform="translate(-9073.921 -3603.123)" fill="#323433"/>
      </g>
      <g id="Grupo_8359" data-name="Grupo 8359" transform="translate(34.386 187.494)">
        <path id="Caminho_13384" data-name="Caminho 13384" d="M9143.8,3697.6a49.482,49.482,0,0,1-20.137-4.453c-9.185-4.039-14.574-11.212-16.022-21.319-1.231-8.6.694-17.644,2.527-23.712a.555.555,0,1,1,1.063.321c-3.786,12.537-7.148,34.884,12.878,43.694,24.946,10.977,43.626-.855,60.107-11.3a.555.555,0,0,1,.595.937c-8.046,5.1-17.167,10.875-27.4,13.834A48.716,48.716,0,0,1,9143.8,3697.6Z" transform="translate(-9107.257 -3647.717)" fill="#323433"/>
      </g>
      <g id="Grupo_8360" data-name="Grupo 8360" transform="translate(125.737 132.278)">
        <path id="Caminho_13385" data-name="Caminho 13385" d="M9351.629,3519.079h-29.157a.555.555,0,1,1,0-1.11h29.155a.555.555,0,0,1,0,1.11Z" transform="translate(-9321.916 -3517.969)" fill="#323433"/>
      </g>
      <g id="Grupo_8361" data-name="Grupo 8361" transform="translate(67.65 18.379)">
        <path id="Caminho_13386" data-name="Caminho 13386" d="M9209.485,3295.725a18.663,18.663,0,0,1-12.243-4.6,19.219,19.219,0,0,1-6.557-12.947c-.157-1.895-.289-3.668-.4-5.4a5.4,5.4,0,0,1-4.869-5.577,5.7,5.7,0,0,1,2.584-4.849h0a4.817,4.817,0,0,1,2.041-.706l4.405-8.643a4.878,4.878,0,0,1,6.648-2.092c7.029,3.78,17.09,4.161,25.035.949a2.105,2.105,0,0,1,1.828.115,2.076,2.076,0,0,1,1.037,1.483,15.627,15.627,0,0,1,.2,2.613c-.014,1.989-.04,3.828-.079,5.6a4.829,4.829,0,0,1,1.8.663,5.685,5.685,0,0,1,2.608,4.864,5.4,5.4,0,0,1-4.869,5.577c-.117,1.905-.255,3.772-.419,5.69a18.842,18.842,0,0,1-18.619,17.263Zm-18.674-24.065a.552.552,0,0,1,.366.139.558.558,0,0,1,.187.383c.113,1.894.255,3.824.428,5.9a18.1,18.1,0,0,0,6.18,12.2,17.548,17.548,0,0,0,11.514,4.33h.134a17.735,17.735,0,0,0,17.52-16.247c.178-2.084.322-4.107.449-6.185a.549.549,0,0,1,.585-.521c.082,0,.161.007.241.007a4.265,4.265,0,0,0,4.009-4.473,4.572,4.572,0,0,0-2.082-3.918,3.681,3.681,0,0,0-1.8-.55.554.554,0,0,1-.534-.569c.046-1.929.077-3.925.091-6.1a14.328,14.328,0,0,0-.189-2.426.966.966,0,0,0-.484-.695,1,1,0,0,0-.87-.054c-8.232,3.33-18.672,2.928-25.977-1a3.718,3.718,0,0,0-2.889-.273,3.765,3.765,0,0,0-2.245,1.893l-4.546,8.922a.554.554,0,0,1-.475.3,3.7,3.7,0,0,0-1.825.561h0a4.587,4.587,0,0,0-2.059,3.908,4.265,4.265,0,0,0,4.008,4.473c.079,0,.16,0,.235-.007Zm-2.513-8.844h0Z" transform="translate(-9185.421 -3250.325)" fill="#323433"/>
      </g>
      <g id="Grupo_8362" data-name="Grupo 8362" transform="translate(68.616 0)">
        <path id="Caminho_13387" data-name="Caminho 13387" d="M9231.927,3238.579a.543.543,0,0,1-.19-.034.555.555,0,0,1-.34-.684c.08-.328.347-1.536.651-3.325a48.263,48.263,0,0,1,5.912-16.216,19.418,19.418,0,0,0,2.318-6.436,8.524,8.524,0,0,1-6.189,1.489,19.119,19.119,0,0,1-4.179-1.532,33.806,33.806,0,0,0-17.58-3.513c-9.765.628-16.58,3.511-20.258,8.568-3.573,4.916-4.223,11.973-1.932,20.975a.555.555,0,0,1-1.076.274c-2.376-9.337-1.666-16.707,2.112-21.9,3.88-5.337,10.972-8.373,21.081-9.023a34.815,34.815,0,0,1,18.105,3.608,18.181,18.181,0,0,0,3.912,1.451,8,8,0,0,0,6.359-2.093.555.555,0,0,1,.943.455,20.806,20.806,0,0,1-2.661,8.238,47.13,47.13,0,0,0-5.773,15.843c-.314,1.833-.589,3.079-.668,3.405-.007.02-.02.07-.027.089A.556.556,0,0,1,9231.927,3238.579Z" transform="translate(-9187.691 -3207.136)" fill="#323433"/>
      </g>
      <g id="Grupo_8363" data-name="Grupo 8363" transform="translate(72.318 69.195)">
        <path id="Caminho_13388" data-name="Caminho 13388" d="M9215.459,3384.176a20.053,20.053,0,0,1-19.041-13.712.555.555,0,0,1,1.054-.352,18.965,18.965,0,0,0,35.847.369.557.557,0,0,1,1.049.374A20.116,20.116,0,0,1,9215.459,3384.176Z" transform="translate(-9196.39 -3369.733)" fill="#323433"/>
      </g>
      <g id="Grupo_8364" data-name="Grupo 8364" transform="translate(81.141 110.609)">
        <path id="Caminho_13389" data-name="Caminho 13389" d="M9217.681,3479.887a.556.556,0,0,1-.247-1.053,215.652,215.652,0,0,0,20.619-11.69.554.554,0,1,1,.615.922,216.616,216.616,0,0,1-20.744,11.764A.56.56,0,0,1,9217.681,3479.887Z" transform="translate(-9217.124 -3467.049)" fill="#323433"/>
      </g>
      <g id="Grupo_8365" data-name="Grupo 8365" transform="translate(83.435 117.606)">
        <path id="Caminho_13390" data-name="Caminho 13390" d="M9223.069,3494.118a.555.555,0,0,1-.245-1.054c.089-.044,9.173-4.522,17.193-9.49a.555.555,0,0,1,.585.943c-8.068,5-17.2,9.5-17.289,9.543A.552.552,0,0,1,9223.069,3494.118Z" transform="translate(-9222.513 -3483.491)" fill="#323433"/>
      </g>
      <g id="Grupo_8366" data-name="Grupo 8366" transform="translate(58.107 184.711)">
        <path id="Caminho_13391" data-name="Caminho 13391" d="M9164.373,3656.593a.558.558,0,0,1-.475-.267,6.126,6.126,0,0,1,.366-6.933l6.1-8a.554.554,0,1,1,.88.673l-6.1,8a5.03,5.03,0,0,0-.3,5.683.553.553,0,0,1-.185.763A.545.545,0,0,1,9164.373,3656.593Z" transform="translate(-9162.996 -3641.177)" fill="#323433"/>
      </g>
      <g id="Grupo_8367" data-name="Grupo 8367" transform="translate(52.858 187.057)">
        <path id="Caminho_13392" data-name="Caminho 13392" d="M9152.783,3663.133a.559.559,0,0,1-.4-.17,6.15,6.15,0,0,1-1.23-6.678l3.928-9.257a.556.556,0,0,1,1.023.434l-3.932,9.257a5.045,5.045,0,0,0,1.011,5.473.556.556,0,0,1-.4.941Z" transform="translate(-9150.661 -3646.689)" fill="#323433"/>
      </g>
      <g id="Grupo_8368" data-name="Grupo 8368" transform="translate(108.406 349.416)">
        <path id="Caminho_13393" data-name="Caminho 13393" d="M9292.395,4029.32h-10.648a.556.556,0,0,1,0-1.111h10.648a.556.556,0,0,1,0,1.111Z" transform="translate(-9281.191 -4028.208)" fill="#fff"/>
      </g>
      <g id="Grupo_8369" data-name="Grupo 8369" transform="translate(109.172 354.084)">
        <path id="Caminho_13394" data-name="Caminho 13394" d="M9294.3,4040.286h-10.751a.555.555,0,1,1,0-1.11H9294.3a.555.555,0,1,1,0,1.11Z" transform="translate(-9282.992 -4039.176)" fill="#fff"/>
      </g>
    </g>
  </g>
  <g id="Grupo_8375" data-name="Grupo 8375" transform="translate(224.953)">
    <g id="Grupo_8372" data-name="Grupo 8372" transform="translate(0)">
      <path id="Caminho_13395" data-name="Caminho 13395" d="M4872.585,4255.612a40.977,40.977,0,1,1,40.979-40.977A41.023,41.023,0,0,1,4872.585,4255.612Zm0-80.406a39.429,39.429,0,1,0,39.43,39.43A39.473,39.473,0,0,0,4872.585,4175.206Z" transform="translate(-4831.609 -4173.658)" fill="#323433"/>
    </g>
    <g id="Grupo_8373" data-name="Grupo 8373" transform="translate(22.816 16.123)">
      <path id="Caminho_13396" data-name="Caminho 13396" d="M4887.776,4234.963a.993.993,0,0,1-.812-.42l-26.553-37.52a.992.992,0,1,1,1.62-1.146l26.554,37.521a.992.992,0,0,1-.81,1.565Z" transform="translate(-4860.229 -4195.458)" fill="#323433"/>
    </g>
    <g id="Grupo_8374" data-name="Grupo 8374" transform="translate(28.705 29.592)">
      <path id="Caminho_13397" data-name="Caminho 13397" d="M4870.838,4225.252a.993.993,0,0,1-.374-1.912l35.654-14.542a.992.992,0,0,1,.749,1.836l-35.654,14.543A.985.985,0,0,1,4870.838,4225.252Z" transform="translate(-4869.846 -4208.724)" fill="#323433"/>
    </g>
  </g>
</svg>
