<svg xmlns="http://www.w3.org/2000/svg" id="prefix__Grupo_4962" width="107.388" height="107.399" data-name="Grupo 4962" viewBox="0 0 107.388 107.399">
    <path id="prefix__home" d="M105 46.713V46.7L61.186 2.9a9.886 9.886 0 0 0-13.986 0L3.415 46.682l-.044.045A9.883 9.883 0 0 0 9.95 63.573c.1.01.2.015.306.015H12v32.24A11.585 11.585 0 0 0 23.573 107.4h17.14a3.147 3.147 0 0 0 3.146-3.146V78.975A5.286 5.286 0 0 1 49.14 73.7h10.11a5.285 5.285 0 0 1 5.279 5.279v25.277a3.147 3.147 0 0 0 3.146 3.146h17.14a11.585 11.585 0 0 0 11.572-11.575v-32.24h1.619a9.889 9.889 0 0 0 7-16.875zm-4.456 9.528a3.572 3.572 0 0 1-2.542 1.054h-4.761a3.146 3.146 0 0 0-3.146 3.146v35.386a5.285 5.285 0 0 1-5.279 5.279H70.822V78.975A11.585 11.585 0 0 0 59.249 67.4H49.14a11.586 11.586 0 0 0-11.573 11.575v22.13H23.573a5.285 5.285 0 0 1-5.279-5.279V60.441a3.146 3.146 0 0 0-3.146-3.146h-4.684c-.049 0-.1-.006-.147-.007a3.59 3.59 0 0 1-2.475-6.132L51.654 7.345a3.592 3.592 0 0 1 5.082 0l43.8 43.8.02.02a3.6 3.6 0 0 1-.007 5.078zm0 0" transform="translate(-.5 .001)"/>
</svg>
