<svg xmlns="http://www.w3.org/2000/svg" width="80.6" height="69.156" viewBox="0 0 80.6 69.156">
    <g id="prefix__private" transform="translate(0 -33.927)">
        <g id="prefix__Grupo_5044" data-name="Grupo 5044" transform="translate(0 33.926)">
            <path id="prefix__Caminho_5443" d="M80.05 66.812a76.425 76.425 0 0 0-17.41-16.578L74 38.875a2.879 2.879 0 0 0-4-4.141l-.071.071L57.52 47.2a37.225 37.225 0 0 0-17.22-4.6C18.423 42.6 1.27 65.821.55 66.812a2.879 2.879 0 0 0 0 3.385 76.427 76.427 0 0 0 17.41 16.577L6.6 98.133a2.879 2.879 0 1 0 4 4.141l.071-.071 12.409-12.4a37.224 37.224 0 0 0 17.22 4.608c21.877 0 39.03-23.224 39.75-24.214a2.878 2.878 0 0 0 0-3.385zM22.145 82.6A71.674 71.674 0 0 1 6.546 68.5c4.237-5.132 17.979-20.15 33.754-20.15a30.47 30.47 0 0 1 12.922 3.166l-5 5a14.37 14.37 0 0 0-19.917 19.921zm25.927-17.795a8.494 8.494 0 0 1 .864 3.7A8.636 8.636 0 0 1 40.3 77.14a8.494 8.494 0 0 1-3.7-.864zM32.528 72.2a8.494 8.494 0 0 1-.864-3.7 8.636 8.636 0 0 1 8.636-8.632 8.494 8.494 0 0 1 3.7.864zM40.3 88.654a30.471 30.471 0 0 1-12.922-3.166l5-5A14.37 14.37 0 0 0 52.3 60.571l6.16-6.16A71.679 71.679 0 0 1 74.054 68.5C69.817 73.637 56.075 88.654 40.3 88.654z" data-name="Caminho 5443" transform="translate(0 -33.926)"/>
        </g>
    </g>
</svg>
