<svg xmlns="http://www.w3.org/2000/svg" id="prefix__view" width="80.64" height="53.198" viewBox="0 0 80.64 53.198">
    <g id="prefix__Grupo_5041" data-name="Grupo 5041">
        <g id="prefix__Grupo_5040" data-name="Grupo 5040">
            <path id="prefix__Caminho_5441" d="M80.128 117.811c-.72-1.02-17.885-24.976-39.808-24.976S1.231 116.791.512 117.81a2.833 2.833 0 0 0 0 3.248c.72 1.02 17.885 24.976 39.808 24.976s39.088-23.956 39.808-24.975a2.829 2.829 0 0 0 0-3.248zM40.32 140.53c-16.148 0-30.135-15.9-34.275-21.1 4.135-5.2 18.092-21.094 34.275-21.094 16.148 0 30.133 15.9 34.275 21.1C70.46 124.638 56.5 140.53 40.32 140.53z" class="prefix__cls-1" data-name="Caminho 5441" transform="translate(0 -92.835)"/>
        </g>
    </g>
    <g id="prefix__Grupo_5043" data-name="Grupo 5043" transform="translate(23.81 10.089)">
        <g id="prefix__Grupo_5042" data-name="Grupo 5042">
            <path id="prefix__Caminho_5442" d="M171.232 154.725a16.51 16.51 0 1 0 16.51 16.51 16.529 16.529 0 0 0-16.51-16.51zm0 27.516a11.006 11.006 0 1 1 11.006-11.006 11.019 11.019 0 0 1-11.006 11.006z" class="prefix__cls-1" data-name="Caminho 5442" transform="translate(-154.722 -154.725)"/>
        </g>
    </g>
</svg>
