<svg id="Componente_23_1" data-name="Componente 23 – 1" xmlns="http://www.w3.org/2000/svg" xmlns:xlink="http://www.w3.org/1999/xlink" width="24.177" height="24.134" viewBox="0 0 24.177 24.134">
  <defs>
    <clipPath id="clip-path">
      <rect id="Retângulo_3140" data-name="Retângulo 3140" width="24.177" height="24.134" fill="none"/>
    </clipPath>
  </defs>
  <g id="Grupo_8942" data-name="Grupo 8942" clip-path="url(#clip-path)">
    <path id="Caminho_9571" data-name="Caminho 9571" d="M12.086,0A12.067,12.067,0,1,0,24.178,12.03,12.058,12.058,0,0,0,12.086,0m-.012,22.529A10.46,10.46,0,1,1,22.567,12.05,10.473,10.473,0,0,1,12.075,22.528" transform="translate(0 0.001)"/>
    <path id="Caminho_9572" data-name="Caminho 9572" d="M125.745,95a3.131,3.131,0,0,1-.9.072c-.132-.007-.174.033-.168.166.011.217.008.436,0,.653a.8.8,0,0,1-1.609-.011c-.006-.209-.01-.419,0-.628.008-.141-.035-.182-.179-.181-.714.007-1.427,0-2.141,0a.817.817,0,0,1-.908-.9c0-.486,0-.972,0-1.458a.808.808,0,1,1,1.612-.006c0,.242-.085.567.037.7.141.156.473.045.721.047.966.005,1.931.008,2.9,0a1.2,1.2,0,0,0,.387-2.335,1.4,1.4,0,0,0-.494-.076c-.781,0-1.562.009-2.343,0a2.815,2.815,0,1,1-.005-5.63c.411-.006.411-.006.412-.42,0-.142-.005-.285,0-.427a.8.8,0,0,1,1.606-.005,6.347,6.347,0,0,1,0,.678c-.008.147.044.178.183.177.714-.007,1.427,0,2.141,0a.817.817,0,0,1,.9.9c0,.486,0,.972,0,1.458a.807.807,0,1,1-1.611,0c0-.168-.012-.336,0-.5.017-.186-.03-.256-.238-.25-.562.017-1.125.006-1.688.006s-1.108,0-1.662,0a1.207,1.207,0,1,0-.01,2.412c.806,0,1.612,0,2.418,0A2.813,2.813,0,0,1,125.745,95" transform="translate(-111.788 -78.179)" fill="#fefefe"/>
    <path id="Caminho_9573" data-name="Caminho 9573" d="M125.115,89.445c-.806-.007-1.612,0-2.418,0a1.207,1.207,0,1,1,.01-2.412c.554,0,1.108,0,1.662,0s1.125.011,1.688-.006c.208-.006.255.064.238.25-.015.166,0,.335,0,.5a.807.807,0,1,0,1.611,0c0-.486,0-.972,0-1.458a.817.817,0,0,0-.9-.9c-.714,0-1.427,0-2.141,0-.138,0-.191-.03-.183-.177a6.329,6.329,0,0,0,0-.678.8.8,0,0,0-1.606.005c-.008.142,0,.285,0,.427,0,.414,0,.414-.412.42a2.815,2.815,0,1,0,.005,5.63c.781.009,1.562,0,2.343,0a1.4,1.4,0,0,1,.494.076,1.2,1.2,0,0,1-.387,2.335c-.966.009-1.931.006-2.9,0-.248,0-.58.109-.721-.047-.122-.135-.034-.461-.037-.7a.808.808,0,1,0-1.612.006c0,.486,0,.972,0,1.458a.817.817,0,0,0,.908.9c.714,0,1.427,0,2.141,0,.144,0,.187.039.179.181-.012.209-.007.419,0,.628a.8.8,0,0,0,1.609.011c.007-.218.01-.436,0-.653-.007-.133.036-.173.168-.166a3.131,3.131,0,0,0,.9-.072,2.813,2.813,0,0,0-.629-5.556" transform="translate(-111.787 -78.179)" fill="#ff7d00"/>
  </g>
</svg>
