<svg xmlns="http://www.w3.org/2000/svg" width="65.751" height="69.411" viewBox="0 0 65.751 69.411">
    <path id="prefix__exchange" d="M47.992 58.566a10.858 10.858 0 0 1-10.846 10.846h-26.3A10.858 10.858 0 0 1 0 58.566v-47.72A10.858 10.858 0 0 1 10.846 0h26.3a10.858 10.858 0 0 1 10.846 10.846v1.1a2.711 2.711 0 1 1-5.423 0v-1.1a5.429 5.429 0 0 0-5.423-5.423h-26.3a5.429 5.429 0 0 0-5.423 5.423v47.72a5.429 5.429 0 0 0 5.423 5.423h26.3a5.429 5.429 0 0 0 5.423-5.423 2.711 2.711 0 0 1 5.423 0zm-26.708-1.475A2.711 2.711 0 1 0 24 54.38a2.711 2.711 0 0 0-2.716 2.711zm8.134-44.738a2.711 2.711 0 0 0-2.711-2.711h-5.423a2.711 2.711 0 1 0 0 5.423h5.423a2.711 2.711 0 0 0 2.712-2.712zm28.594 7.727H35.519a2.711 2.711 0 1 0 0 5.423h22.767l-3.12 3.09a2.712 2.712 0 0 0 3.816 3.853l4.762-4.716a6.75 6.75 0 0 0 0-9.6l-4.762-4.716a2.712 2.712 0 0 0-3.816 3.853zm5.028 18.574H40.273l3.12-3.09a2.712 2.712 0 0 0-3.816-3.853l-4.762 4.716a6.75 6.75 0 0 0 0 9.6l4.762 4.716a2.712 2.712 0 1 0 3.816-3.853l-2.846-2.818H63.04a2.711 2.711 0 0 0 0-5.423zm0 0"/>
</svg>
