<svg xmlns="http://www.w3.org/2000/svg" id="prefix__contact" width="68.996" height="110.536" viewBox="0 0 68.996 110.536">
    <path id="prefix__Caminho_5434" d="M55.335 0H13.661A13.656 13.656 0 0 0 0 13.644v83.248a13.656 13.656 0 0 0 13.661 13.644h41.674A13.656 13.656 0 0 0 69 96.892V13.644A13.656 13.656 0 0 0 55.335 0zm-9.95 6.477a8.349 8.349 0 0 0-.238 1.965 1.968 1.968 0 0 1-1.967 1.964H25.816a1.967 1.967 0 0 1-1.966-1.964 8.311 8.311 0 0 0-.239-1.965zm17.127 90.414a7.177 7.177 0 0 1-7.176 7.167H13.661a7.176 7.176 0 0 1-7.176-7.167V13.644a7.177 7.177 0 0 1 7.176-7.167H15.4a1.97 1.97 0 0 1 1.967 1.965 8.456 8.456 0 0 0 8.452 8.441H43.18a8.456 8.456 0 0 0 8.452-8.441A1.971 1.971 0 0 1 53.6 6.477h1.737a7.176 7.176 0 0 1 7.176 7.167zm0 0" data-name="Caminho 5434"/>
    <text id="prefix___" data-name="$" transform="translate(34.04 69.25)" style="font-size:40px;font-family:Ubuntu-Bold,Ubuntu;font-weight:700;">
        <tspan x="-11.36" y="0">$</tspan>
    </text>
</svg>
