<svg xmlns="http://www.w3.org/2000/svg" width="71.845" height="76.8" viewBox="0 0 71.845 76.8">
    <path fill="#ff7d00" d="M159.219 128.252a13.639 13.639 0 1 0-13.262-10.509l-21.683 12.046a13.626 13.626 0 1 0 0 19.223l21.683 12.046a13.645 13.645 0 1 0 3.613-6.495l-21.683-12.046a13.528 13.528 0 0 0 0-6.234l21.683-12.046a13.583 13.583 0 0 0 9.649 4.015zm0 29.729a6.194 6.194 0 1 1-6.194 6.194 6.2 6.2 0 0 1 6.194-6.194zm-44.594-12.387a6.194 6.194 0 1 1 6.194-6.194 6.2 6.2 0 0 1-6.193 6.194zm44.594-37.161a6.194 6.194 0 1 1-6.194 6.194 6.2 6.2 0 0 1 6.194-6.195z" transform="translate(-101 -101)"/>
</svg>
