<svg xmlns="http://www.w3.org/2000/svg" width="269.091" height="277.217" viewBox="0 0 269.091 277.217">
    <g id="prefix__Grupo_5941" data-name="Grupo 5941" transform="translate(.002)">
        <path id="prefix__Caminho_6758" d="M173.58 336.243a9.821 9.821 0 0 1-8.551-14.719c12.477-21.028 50.4-70.162 133.246-70.162 35.887 0 67.359 9.533 93.5 28.317 21.518 15.42 33.574 32.873 39.322 41.284a9.741 9.741 0 0 1-2.594 13.6 9.97 9.97 0 0 1-13.738-2.593c-10.444-15.14-42.125-61.121-116.494-61.121-72.616 0-105.419 42.336-116.143 60.49a9.676 9.676 0 0 1-8.548 4.904z" class="prefix__cls-1" data-name="Caminho 6758" transform="translate(-163.722 -251.361)"/>
        <path id="prefix__Caminho_6759" d="M344.691 544.158a9.757 9.757 0 0 1-2.453-.28c-60.069-15.07-82.5-75.77-83.41-78.293l-.14-.561c-.491-1.752-12.547-43.387 5.958-67.779 8.481-11.145 21.378-16.822 38.411-16.822 15.841 0 27.266 4.977 35.116 15.28 6.448 8.411 9.042 18.785 11.565 28.808 5.257 20.818 9.042 31.752 30.911 32.873 9.6.491 15.911-5.187 19.486-10.023 9.673-13.177 11.355-34.7 4.065-53.621-9.392-24.532-42.616-70.723-101.214-70.723-25.023 0-48.013 8.131-66.448 23.411-15.28 12.687-27.406 30.56-33.224 48.925-10.794 34.205 3.365 87.966 3.5 88.457a9.722 9.722 0 0 1-7.009 11.916 9.955 9.955 0 0 1-12.126-6.939c-.631-2.453-15.771-59.789-3.294-99.321 13.6-42.827 55.513-86 118.6-86 29.158 0 56.7 10.023 79.7 28.948 17.8 14.719 32.383 34.485 39.953 54.252 9.673 25.233 7.079 53.551-6.589 72.055-9.115 12.331-22.083 18.779-36.449 18.079-37.429-1.893-44.158-28.317-49.065-47.593-5.047-19.766-8.271-29.3-27.546-29.3-10.584 0-18.014 2.944-22.64 9.042-6.308 8.341-6.8 21.378-6.1 30.841l.021.3a79.854 79.854 0 0 0 10.661 34.136c9.73 16.777 29.467 42.508 62.213 50.73a9.737 9.737 0 0 1 7.149 11.846 9.951 9.951 0 0 1-9.602 7.356z" class="prefix__cls-1" data-name="Caminho 6759" transform="translate(-168.435 -266.942)"/>
        <path id="prefix__Caminho_6760" d="M283.518 555.7a9.98 9.98 0 0 1-7.22-3.084c-24.042-25.514-37.64-54.041-42.756-89.718v-.21c-2.874-23.621 1.332-57.055 21.939-80.046 15.21-16.962 36.588-25.583 63.434-25.583 31.752 0 56.7 14.93 72.265 43.107a121.17 121.17 0 0 1 13.6 41.705 9.9 9.9 0 1 1-19.7 2.033 101.458 101.458 0 0 0-11.564-34.836c-12.056-21.518-30.42-32.453-54.672-32.453-20.958 0-37.359 6.378-48.644 19-16.261 18.154-19.416 46.121-17.173 64.625 4.486 31.542 16.472 56.635 37.64 79.064a9.695 9.695 0 0 1-.491 13.808 9.944 9.944 0 0 1-6.658 2.588z" class="prefix__cls-1" data-name="Caminho 6760" transform="translate(-184.362 -282.973)"/>
        <circle id="prefix__Elipse_668" cx="12.617" cy="12.617" r="12.617" class="prefix__cls-1" data-name="Elipse 668" transform="translate(122.077 155.956)"/>
    </g>
</svg>
