<svg id="Componente_24_1" data-name="Componente 24 – 1" xmlns="http://www.w3.org/2000/svg" xmlns:xlink="http://www.w3.org/1999/xlink" width="21.894" height="16.112" viewBox="0 0 21.894 16.112">
  <defs>
    <clipPath id="clip-path">
      <rect id="Retângulo_3141" data-name="Retângulo 3141" width="21.894" height="16.112" fill="none"/>
    </clipPath>
  </defs>
  <g id="Grupo_8944" data-name="Grupo 8944" clip-path="url(#clip-path)">
    <path id="Caminho_9574" data-name="Caminho 9574" d="M10.949.009c2.864,0,5.729.022,8.593-.01a2.3,2.3,0,0,1,2.352,2.354c-.025,3.8-.008,7.608-.009,11.412a2.206,2.206,0,0,1-2.342,2.346q-8.627,0-17.255,0A2.2,2.2,0,0,1,.02,14.188,2.518,2.518,0,0,1,0,13.8Q0,8.061,0,2.32A2.209,2.209,0,0,1,2.31.01h8.639m9.48,8.8H1.459v.217q0,2.389,0,4.779a.739.739,0,0,0,.837.844h17.3a.736.736,0,0,0,.836-.843q0-2.1,0-4.207v-.79m0-4.417c0-.683,0-1.352,0-2.021,0-.649-.247-.9-.895-.9H2.351c-.053,0-.106,0-.16,0a.715.715,0,0,0-.73.742c-.006.465,0,.93,0,1.395v.78ZM1.47,7.313H20.41V5.876H1.47Z" transform="translate(0 0)"/>
    <path id="Caminho_9575" data-name="Caminho 9575" d="M193.274,191.825c.235,0,.47,0,.7,0a.73.73,0,1,1,.013,1.46c-.492.008-.985.009-1.478,0a.73.73,0,0,1,.01-1.459c.25-.005.5,0,.75,0" transform="translate(-180.143 -180.104)" fill="#ff7d00"/>
    <path id="Caminho_9576" data-name="Caminho 9576" d="M265.315,191.827c.236,0,.471,0,.707,0a.73.73,0,1,1,0,1.461c-.486.007-.973.008-1.459,0a.73.73,0,1,1,.021-1.461c.243,0,.486,0,.729,0" transform="translate(-247.807 -180.106)" fill="#ff7d00"/>
  </g>
</svg>
