<?xml version="1.0" standalone="no"?>
<!DOCTYPE svg PUBLIC "-//W3C//DTD SVG 20010904//EN"
 "http://www.w3.org/TR/2001/REC-SVG-20010904/DTD/svg10.dtd">
<svg version="1.0" xmlns="http://www.w3.org/2000/svg"
 width="2123.000000pt" height="644.000000pt" viewBox="0 0 2123.000000 644.000000"
 preserveAspectRatio="xMidYMid meet">

<g transform="translate(0.000000,644.000000) scale(0.100000,-0.100000)"
fill="currentColor" stroke="none">
<path d="M15140 5714 c-113 -30 -203 -103 -252 -202 -31 -64 -33 -72 -33 -182
0 -110 1 -118 33 -182 151 -308 680 -272 776 52 22 75 21 193 -4 273 -59 189
-299 300 -520 241z"/>
<path d="M3595 5654 c-331 -51 -617 -201 -847 -443 -162 -170 -269 -352 -347
-586 -64 -192 -85 -326 -85 -550 0 -199 7 -267 50 -448 21 -88 32 -114 58
-141 38 -41 95 -59 150 -46 48 11 48 10 85 100 227 538 800 1015 1415 1174
202 53 266 60 511 60 199 0 244 -3 331 -22 193 -42 363 -110 499 -201 33 -22
61 -36 63 -31 5 14 -93 199 -157 296 -270 406 -664 693 -1106 804 -201 51
-430 63 -620 34z"/>
<path d="M16770 5650 c-274 -58 -436 -209 -524 -490 -35 -108 -56 -249 -56
-367 l0 -93 -145 0 -145 0 0 -255 0 -255 145 0 145 0 0 -1040 0 -1040 380 0
380 0 0 1040 0 1040 270 0 270 0 0 255 0 255 -271 0 -271 0 4 143 c4 164 15
195 83 231 37 19 59 21 265 24 124 2 228 6 232 10 4 4 14 86 23 182 8 96 17
194 21 218 l5 43 -46 20 c-72 32 -201 68 -300 84 -126 21 -357 18 -465 -5z"/>
<path d="M13877 5603 c-4 -3 -7 -791 -7 -1750 l0 -1743 385 0 385 0 -2 1748
-3 1747 -376 3 c-206 1 -378 -1 -382 -5z"/>
<path d="M7766 5329 c-350 -33 -635 -162 -840 -380 -185 -196 -294 -449 -351
-819 -23 -143 -31 -541 -16 -707 25 -262 82 -499 165 -677 134 -292 394 -528
686 -626 287 -96 672 -104 1000 -20 124 31 426 147 458 175 3 3 -149 617 -154
624 -2 2 -68 -23 -146 -57 -296 -126 -367 -144 -568 -146 -154 -1 -238 19
-323 75 -123 81 -207 271 -236 532 -16 145 -14 739 4 867 24 182 70 296 148
367 55 50 85 67 162 87 201 51 507 19 843 -89 89 -29 135 -39 137 -32 6 20 77
649 73 652 -50 43 -343 133 -523 160 -128 19 -391 26 -519 14z"/>
<path d="M2295 4912 c-882 -462 -1275 -1472 -879 -2264 196 -394 553 -677 998
-792 289 -76 673 -71 946 10 105 31 161 120 129 206 -13 36 -22 42 -111 82
-899 403 -1440 1545 -1148 2427 43 129 81 210 146 312 24 37 44 70 44 72 0 11
-19 2 -125 -53z"/>
<path d="M9921 4750 c-431 -55 -728 -305 -866 -730 -64 -200 -79 -318 -80
-615 0 -165 5 -287 13 -335 36 -215 101 -407 188 -552 57 -96 209 -255 298
-313 199 -129 500 -188 791 -155 528 60 860 417 949 1021 47 315 24 676 -60
941 -125 396 -394 645 -784 723 -93 19 -349 27 -449 15z m322 -591 c80 -21
145 -110 173 -238 39 -181 38 -853 -2 -1041 -43 -206 -114 -265 -319 -265
-133 0 -188 21 -233 88 -74 109 -92 221 -99 612 -9 521 20 714 121 803 32 28
71 41 166 56 34 5 147 -4 193 -15z"/>
<path d="M12765 4750 c-67 -11 -187 -45 -225 -65 -14 -7 -86 -83 -160 -168
-74 -86 -137 -156 -140 -156 -3 -1 -52 75 -110 167 l-106 167 -267 3 -267 2 0
-1295 0 -1295 380 0 380 0 0 985 0 984 68 20 c114 33 183 44 282 45 149 1 224
-38 250 -132 6 -24 10 -359 10 -969 l0 -933 380 0 381 0 -4 1003 c-3 983 -4
1004 -25 1089 -73 301 -221 471 -462 532 -77 20 -281 29 -365 16z"/>
<path d="M18515 4749 c-186 -25 -395 -113 -523 -219 -219 -183 -359 -480 -402
-855 -13 -116 -13 -436 0 -545 67 -549 311 -892 729 -1024 154 -49 247 -60
471 -60 242 1 364 20 560 84 133 45 270 103 270 117 0 15 -83 538 -86 542 -2
2 -92 -22 -201 -53 -109 -32 -243 -64 -298 -72 -125 -20 -355 -14 -431 10
-143 45 -213 165 -231 397 l-6 79 672 0 671 0 0 284 c0 195 -5 321 -15 399
-69 529 -305 818 -736 902 -100 20 -346 28 -444 14z m325 -550 c116 -53 150
-139 165 -416 l6 -133 -322 0 -322 0 7 104 c9 130 37 269 66 327 53 106 113
137 265 138 70 0 100 -4 135 -20z"/>
<path d="M14890 3405 l0 -1295 380 0 380 0 0 1295 0 1295 -380 0 -380 0 0
-1295z"/>
<path d="M4330 4626 c-116 -17 -276 -54 -311 -72 -69 -35 -103 -117 -78 -187
13 -37 21 -42 109 -81 735 -324 1259 -1171 1227 -1986 -11 -291 -92 -561 -227
-759 -23 -35 -40 -65 -37 -67 6 -7 167 74 254 127 115 70 253 180 353 279 274
273 448 594 522 962 32 160 31 426 -1 578 -78 368 -269 673 -556 890 -208 157
-435 254 -716 306 -117 22 -419 27 -539 10z"/>
<path d="M4847 2997 c-27 -6 -42 -17 -49 -36 -71 -171 -168 -340 -271 -469
-344 -437 -874 -741 -1424 -818 -162 -22 -455 -15 -598 16 -183 39 -346 104
-484 194 -39 25 -71 41 -71 36 0 -6 18 -47 41 -92 232 -461 635 -817 1099
-972 199 -66 290 -80 520 -80 174 0 220 3 302 21 200 45 358 112 522 220 132
86 318 272 405 402 266 401 347 919 220 1415 -11 44 -29 92 -40 108 -36 50
-105 73 -172 55z"/>


</g>
</svg>
