<svg width="177" height="177" xmlns="http://www.w3.org/2000/svg" viewBox="0 0 196.5 207.89" preserveAspectRatio="xMidYMid meet">

 <clipPath id="a">
  <path id="svg_1" d="m4.41301,2.57436c-3.09,0.75 -5,3.87 -4.25,6.96c0.15,0.62 0.4,1.2 0.74,1.74c14.31,5.32 27.91,16.66 37.17,32.61c14.46,24.9 13.94,53.39 0.53,70.87c2.48,-1.07 4.9,-2.27 7.25,-3.6c31.43,-17.89 43.95,-55.16 27.96,-83.25c-10.28,-18.04 -29.82,-27.9 -50.81,-27.9c-6.29,0.01 -12.54,0.87 -18.59,2.57"/>
 </clipPath>

 <clipPath id="b">
  <path id="svg_2" d="m34.94301,3.59436c-31.43,17.89 -43.95,55.16 -27.96,83.25c13.27,23.32 42.03,32.98 69.4,25.34c3.09,-0.75 5,-3.86 4.25,-6.96c-0.15,-0.62 -0.4,-1.21 -0.74,-1.74c-14.32,-5.32 -27.91,-16.66 -37.17,-32.61c-14.46,-24.9 -13.94,-53.39 -0.52,-70.87c-2.49,1.06 -4.91,2.26 -7.26,3.59"/>
 </clipPath>
 <g>
  <title>Layer 1</title>
  <path id="svg_3" fill="#fff" d="m49.25301,79.86436c5.32,-14.32 16.66,-27.91 32.61,-37.17c24.9,-14.46 53.39,-13.94 70.87,-0.53c-1.06,-2.48 -2.26,-4.9 -3.59,-7.25c-17.89,-31.43 -55.16,-43.95 -83.25,-27.96c-23.32,13.28 -32.98,42.03 -25.34,69.4c0.75,3.09 3.86,5 6.96,4.25c0.61,-0.15 1.2,-0.4 1.74,-0.74"/>
  <path id="svg_4" fill="#ef7b08" d="m97.44301,48.54436c14.32,5.32 27.91,16.66 37.17,32.61c14.46,24.9 13.94,53.39 0.53,70.87c2.48,-1.06 4.9,-2.27 7.25,-3.6c31.43,-17.89 43.95,-55.16 27.96,-83.25c-13.28,-23.32 -42.03,-32.98 -69.4,-25.34c-3.09,0.75 -5,3.87 -4.25,6.96c0.15,0.62 0.4,1.21 0.74,1.75"/>
  <path id="svg_5" fill="#fff" d="m128.08301,97.29436c-5.32,14.32 -16.66,27.91 -32.61,37.17c-24.9,14.46 -53.39,13.94 -70.87,0.52c1.06,2.48 2.26,4.9 3.59,7.25c17.89,31.43 55.16,43.95 83.25,27.96c23.32,-13.27 32.98,-42.03 25.34,-69.4c-0.75,-3.09 -3.87,-5 -6.96,-4.25c-0.62,0.16 -1.21,0.41 -1.74,0.75"/>
  <path id="svg_6" fill="#ef7b08" d="m79.88301,128.60436c-14.32,-5.32 -27.91,-16.66 -37.17,-32.61c-14.46,-24.9 -13.94,-53.39 -0.53,-70.87c-2.48,1.06 -4.9,2.26 -7.25,3.59c-31.42,17.88 -43.94,55.16 -27.95,83.25c13.27,23.32 42.03,32.98 69.4,25.34c3.09,-0.75 5,-3.87 4.25,-6.96c-0.15,-0.62 -0.4,-1.21 -0.75,-1.74"/>
 </g>
</svg>