<?xml version="1.0" encoding="UTF-8"?>
<!DOCTYPE svg PUBLIC "-//W3C//DTD SVG 1.1//EN" "http://www.w3.org/Graphics/SVG/1.1/DTD/svg11.dtd">
<!-- Creator: CorelDRAW 2021 (64 Bit) -->
<svg xmlns="http://www.w3.org/2000/svg" xml:space="preserve" width="178.002mm" height="47.2718mm" version="1.1" style="shape-rendering:geometricPrecision; text-rendering:geometricPrecision; image-rendering:optimizeQuality; fill-rule:evenodd; clip-rule:evenodd"
viewBox="0 0 17772.3 4719.77"
 xmlns:xlink="http://www.w3.org/1999/xlink"
 xmlns:xodm="http://www.corel.com/coreldraw/odm/2003">
 <defs>
  <style type="text/css">
   <![CDATA[
    .fil1 {fill:#F49636;fill-rule:nonzero}
    .fil0 {fill:#313131;fill-rule:nonzero}
   ]]>
  </style>
   <clipPath id="id0">
    <path d="M3600.11 4051c178.6,-233.32 271.28,-539.78 271.28,-870.62 0,-330.83 -92.68,-686.04 -285.39,-1017.74 -246.73,-425.73 -608.83,-727.84 -990.59,-868.88 -15.95,-27.87 -23.32,-56.59 -23.32,-85.33 0,-64.42 41.12,-125.36 116.61,-147.13 165.1,-46.15 332.04,-67.91 495.29,-67.91 559.74,0 1080.19,262.93 1353.92,743.51 125.81,220.26 185.35,462.29 185.35,706.07 0,583.3 -340.02,1176.19 -930.44,1512.26 -63.21,35.69 -127.66,67.03 -192.72,95.77l0 0z"/>
   </clipPath>
   <clipPath id="id1">
    <path d="M1539.05 3726.64c-559.14,0 -1080.14,-262.93 -1353.87,-743.5 -125.48,-221.13 -185.15,-463.17 -185.15,-706.94 0,-582.45 339.55,-1175.34 930.06,-1511.39 63.36,-35.69 127.94,-67.04 193.15,-95.77 -178.38,233.32 -271.26,538.91 -271.26,869.74 0,331.71 92.88,686.91 285.41,1018.62 246.66,424.86 608.96,726.97 990.34,868.88 15.99,26.99 23.38,56.59 23.38,84.45 0,65.3 -41.22,126.24 -116.88,147.14 -164.85,46.14 -331.55,68.77 -495.17,68.77l0 0z"/>
   </clipPath>
 </defs>
 <g id="Camada_x0020_1">
  <metadata id="CorelCorpID_0Corel-Layer"/>
  <path class="fil0" d="M1311.46 2127.68c141.63,-381.39 443.79,-743.58 868.93,-990.43 663.5,-385.23 1422.5,-371.39 1888.3,-14 -28.15,-65.15 -59.65,-129.71 -95.72,-193.07 -476.63,-837.38 -1469.69,-1170.9 -2218.09,-744.9 -621.4,353.68 -878.65,1119.8 -675.21,1848.97 30.38,108.84 142.47,145.56 231.8,93.42z"/>
  <path class="fil1" d="M2595.5 1293.34c381.38,141.66 743.6,443.79 990.42,868.93 385.25,663.51 371.4,1422.51 14.01,1888.31 65.17,-28.15 129.71,-59.64 193.08,-95.71 837.38,-476.64 1170.88,-1469.7 744.91,-2218.1 -353.71,-621.4 -1119.83,-878.65 -1848.98,-675.21 -108.85,30.37 -145.58,142.47 -93.43,231.79z"/>
  <path class="fil0" d="M3411.71 2592.09c-141.64,381.37 -443.79,743.59 -868.93,990.43 -663.51,385.23 -1422.51,371.4 -1888.3,13.99 28.15,65.17 59.64,129.73 95.71,193.08 476.63,837.38 1469.69,1170.89 2218.09,744.91 621.4,-353.69 878.65,-1119.8 675.21,-1848.98 -30.37,-108.85 -142.47,-145.57 -231.79,-93.42z"/>
  <path class="fil1" d="M2127.67 3426.43c-381.37,-141.66 -743.58,-443.8 -990.43,-868.94 -385.23,-663.5 -371.39,-1422.51 -13.99,-1888.29 -65.17,28.15 -129.71,59.63 -193.08,95.7 -837.38,476.62 -1170.88,1469.7 -744.91,2218.09 353.7,621.41 1119.82,878.66 1848.98,675.22 108.85,-30.38 145.58,-142.48 93.42,-231.79z"/>
  <g style="clip-path:url(#id0)">
   <image x="2565.95" y="987.3" width="2165.29" height="3071.53" xlink:href="logo-agility-color-black_Images\logo-agility-color-black_ImgID1.png"/>
  </g>
  <g style="clip-path:url(#id1)">
   <image x="-9.81" y="663.82" width="2170.14" height="3071.53" xlink:href="logo-agility-color-black_Images\logo-agility-color-black_ImgID2.png"/>
  </g>
  <polygon class="fil0" points="12149.11,3995.46 12879.8,3995.46 12879.8,632.35 12149.11,632.35 "/>
  <path class="fil0" d="M17093.22 2519.89l-618.37 0c6.29,-206.15 31.25,-351.22 74.99,-435.59 43.61,-84.31 126.48,-126.53 248.24,-126.53 109.29,0 185.74,33.75 229.59,100.76 43.62,67.17 65.55,186.66 65.55,358.32l0 103.04zm679.08 131.23c0,-187.39 -17.2,-355.31 -51.49,-503.66 -34.3,-148.26 -90.51,-274.61 -168.54,-379.32 -78.14,-104.61 -179.67,-184.21 -304.58,-238.9 -124.91,-54.52 -277.81,-81.86 -458.94,-81.86 -340.45,0 -604.32,113.03 -791.75,339.47 -187.31,226.42 -281.08,548.83 -281.08,967.3 0,418.46 95.47,740.88 285.8,967.29 190.58,226.39 480.99,339.57 871.23,339.57 184.15,0 347.34,-22 489.46,-65.56 142.25,-43.75 249.1,-85.97 321.07,-126.49l-84.33 -529.24c-93.89,27.94 -197.6,58.46 -311.61,91.28 -114.12,32.68 -236.5,49.09 -367.7,49.09 -84.21,0 -154.6,-7.66 -210.69,-23.45 -56.22,-15.55 -100.8,-42.05 -133.52,-79.53 -32.83,-37.39 -57.06,-87.32 -72.69,-149.82 -15.64,-62.55 -24.96,-142.17 -28.11,-239.05l1297.45 0 0 -337.11z"/>
  <polygon class="fil0" points="13125.75,3995.46 13856.43,3995.46 13856.43,1503.49 13125.75,1503.49 "/>
  <path class="fil0" d="M13770.42 611.1c-79,-67.03 -173.01,-100.51 -281.69,-100.51 -108.56,0 -202.45,33.48 -281.69,100.51 -79.12,67.25 -118.73,161.74 -118.73,283.46 0,121.74 39.62,215.45 118.73,280.96 79.24,65.73 173.13,98.37 281.69,98.37 108.68,0 202.69,-32.64 281.69,-98.37 79.24,-65.51 118.85,-159.22 118.85,-280.96 0,-121.72 -39.62,-216.2 -118.85,-283.46z"/>
  <path class="fil0" d="M15110.03 1304.4c0,-75.75 20.23,-127.16 60.81,-154 40.59,-26.82 106.13,-40.4 196.76,-40.4l309.06 0 37.44 -427.14c-43.62,-24.81 -114.86,-50.27 -213,-76.6 -98.38,-26.3 -213.24,-39.53 -344.32,-39.53 -268.73,0 -465.36,77.26 -590.27,231.74 -124.79,154.66 -187.31,375.6 -187.31,662.8l0 42.21 -276.36 0 0 487.2 276.36 0 0 2004.77 730.81 0 0 -2004.77 519.75 0 0 -487.2 -519.75 0 0 -199.09z"/>
  <path class="fil0" d="M6831.32 3377.05c-107.77,40.69 -227.03,60.98 -358.31,60.98 -78.05,0 -150.64,-11.75 -217.81,-35.25 -67.25,-23.37 -124.06,-66.99 -170.97,-130.98 -46.8,-64.02 -83.57,-152.34 -110.13,-264.77 -26.42,-112.29 -39.65,-255.89 -39.65,-430.82l0 -267.04c0,-162.32 10.87,-293.42 32.64,-393.39 21.76,-99.95 54.62,-176.5 98.33,-229.65 43.8,-52.94 98.47,-89.01 164.06,-107.6 65.59,-18.72 140.5,-28.12 224.78,-28.12 131.18,0 253.02,13.23 365.27,39.69 112.52,26.69 237.31,63.29 374.82,110.12l74.99 -637.01c-93.67,-46.88 -210.1,-87.31 -349.04,-121.84 -138.93,-34.3 -292.81,-51.4 -461.34,-51.4 -256.08,0 -471.58,39.7 -646.4,119.48 -174.94,79.62 -316.26,189.64 -423.99,330.11 -107.55,140.64 -184.11,306.82 -229.38,498.86 -45.28,192.06 -67.95,400.57 -67.95,625.27 0,221.73 22.67,429.32 67.95,623.09 45.27,193.53 120.96,362.97 227.08,508.05 106.19,145.33 244.36,259.33 414.59,342.07 170.06,82.61 381.77,124.02 634.59,124.02 184.37,0 353.81,-24.11 508.29,-72.56 154.49,-48.45 281.76,-98.99 381.75,-152.14l-149.83 -604.32c-121.82,56.19 -236.57,104.73 -344.35,145.16z"/>
  <path class="fil0" d="M11224.47 1447.28c-141.02,0 -267.99,26.5 -380.7,79.6l-272.72 309.26 -209.23 -332.72 -512.02 0 0 2491.98 730.68 0 0 -1896.99c69.95,-21.78 131.7,-38.24 185.64,-49.1 53.96,-11.06 107.9,-16.45 161.86,-16.45 161.74,0 242.75,60.8 242.75,182.64l0 1779.91 730.68 0 0 -1723.76c0,-259.11 -54.81,-461.39 -164.63,-606.47 -109.63,-145.28 -280.42,-217.89 -512.31,-217.89z"/>
  <path class="fil0" d="M8847.5 2812.73c0,144.2 -5.49,262.51 -16.45,354.82 -11.01,92.54 -28.94,164.53 -53.89,216.16 -25,51.79 -59.37,87.01 -103.12,105.76 -43.7,18.81 -96.64,28.14 -159.19,28.14 -65.53,0 -119.43,-9.33 -161.51,-28.14 -42.22,-18.75 -75.75,-54.76 -100.73,-108.12 -24.95,-53.27 -42.92,-126.83 -54.03,-220.85 -10.87,-94.01 -16.18,-214.45 -16.18,-361.84l0 -108.08c0,-143.93 4.66,-260.54 13.94,-349.91 9.3,-89.27 26.59,-158.95 51.54,-209.15 25,-50.09 59.32,-83.79 103.11,-101.05 43.69,-17.11 98.34,-25.79 163.86,-25.79 65.56,0 119.48,8.68 161.54,25.79 42.22,17.26 76.61,51.78 103.13,103.45 26.42,51.76 44.53,122.97 53.92,213.8 9.41,90.85 14.07,211.51 14.07,361.84l0 103.17zm-332.65 -1365.45c-355.9,0 -626.97,113.34 -812.58,339.6 -185.88,226.47 -278.71,548.79 -278.71,967.31 0,409.02 92.83,729.08 278.71,960.24 185.62,231.04 456.68,346.48 812.58,346.48 352.93,0 623.06,-115.44 810.44,-346.48 187.39,-231.17 281.06,-555.98 281.06,-974.35 0,-409.17 -93.67,-726.73 -281.06,-953.2 -187.38,-226.25 -457.51,-339.6 -810.44,-339.6z"/>
 </g>
</svg>
