<?xml version="1.0" standalone="no"?>
<!DOCTYPE svg PUBLIC "-//W3C//DTD SVG 20010904//EN"
 "http://www.w3.org/TR/2001/REC-SVG-20010904/DTD/svg10.dtd">
<svg version="1.0" xmlns="http://www.w3.org/2000/svg"
 width="779.000000pt" height="778.000000pt" viewBox="0 0 779.000000 778.000000"
 preserveAspectRatio="xMidYMid meet">

<g transform="translate(0.000000,778.000000) scale(0.100000,-0.100000)"
fill="currentColor" stroke="none">
<path d="M3945 7769 c-432 -21 -818 -142 -1159 -363 -189 -123 -424 -331 -548
-485 -265 -330 -462 -781 -539 -1235 -27 -157 -37 -524 -20 -716 14 -153 60
-406 96 -520 50 -155 124 -220 252 -220 107 0 134 23 187 156 76 189 260 493
419 691 310 388 712 704 1192 938 330 161 617 256 954 317 114 21 157 23 456
23 328 0 406 -5 585 -41 249 -49 570 -181 774 -318 54 -36 101 -64 104 -62 8
9 -100 223 -189 371 -246 411 -556 738 -949 1000 -515 343 -1037 493 -1615
464z"/>
<path d="M1798 6655 c-124 -46 -413 -222 -624 -381 -128 -96 -343 -295 -444
-409 -565 -641 -825 -1476 -695 -2230 65 -375 208 -709 437 -1021 99 -135 336
-371 482 -481 364 -273 889 -455 1423 -493 300 -21 862 48 1020 126 125 61
187 214 134 330 -17 37 -26 44 -102 74 -726 289 -1388 965 -1742 1780 -276
636 -343 1272 -201 1920 55 250 119 403 267 638 54 84 97 155 97 158 0 6 -11
4 -52 -11z"/>
<path d="M4950 6129 c-176 -17 -451 -73 -540 -111 -146 -62 -202 -163 -165
-296 10 -34 23 -66 29 -71 6 -6 63 -33 126 -62 506 -228 950 -587 1286 -1041
187 -252 367 -584 477 -879 84 -224 147 -480 183 -744 25 -182 25 -601 1 -770
-54 -366 -152 -640 -327 -910 -45 -69 -80 -128 -78 -130 15 -15 327 151 508
270 324 214 658 548 872 875 215 327 368 720 435 1117 24 146 24 541 -1 723
-20 153 -63 325 -112 456 -41 110 -152 337 -215 441 -65 106 -206 288 -298
386 -377 396 -1001 689 -1590 747 -119 12 -466 11 -591 -1z"/>
<path d="M5695 3541 c-66 -16 -77 -29 -123 -146 -82 -208 -245 -474 -435 -711
-481 -598 -1239 -1054 -2007 -1208 -239 -48 -360 -60 -610 -61 -245 0 -312 6
-545 51 -249 48 -559 169 -745 291 -41 27 -92 59 -113 72 l-38 23 26 -58 c62
-142 225 -422 319 -549 166 -226 314 -385 511 -548 215 -179 286 -230 451
-323 579 -327 1161 -437 1756 -334 643 112 1203 485 1567 1045 168 257 309
623 360 935 39 232 45 308 46 535 0 244 -6 308 -55 567 -53 278 -87 350 -183
393 -58 26 -136 37 -182 26z"/>
</g>
</svg>
