<?xml version="1.0" standalone="no"?>
<!DOCTYPE svg PUBLIC "-//W3C//DTD SVG 20010904//EN"
 "http://www.w3.org/TR/2001/REC-SVG-20010904/DTD/svg10.dtd">
<svg version="1.0" xmlns="http://www.w3.org/2000/svg"
 width="2775.000000pt" height="778.000000pt" viewBox="0 0 2775.000000 778.000000"
 preserveAspectRatio="xMidYMid meet">

<g transform="translate(0.000000,778.000000) scale(0.100000,-0.100000)"
fill="currentColor" stroke="none">
<path d="M3945 7769 c-432 -21 -818 -142 -1159 -363 -189 -123 -424 -331 -548
-485 -265 -330 -462 -781 -539 -1235 -27 -157 -37 -524 -20 -716 14 -153 60
-406 96 -520 50 -155 124 -220 252 -220 107 0 134 23 187 156 76 189 260 493
419 691 310 388 712 704 1192 938 330 161 617 256 954 317 114 21 157 23 456
23 328 0 406 -5 585 -41 249 -49 570 -181 774 -318 54 -36 101 -64 104 -62 8
9 -100 223 -189 371 -246 411 -556 738 -949 1000 -515 343 -1037 493 -1615
464z"/>
<path d="M1798 6655 c-124 -46 -413 -222 -624 -381 -128 -96 -343 -295 -444
-409 -565 -641 -825 -1476 -695 -2230 65 -375 208 -709 437 -1021 99 -135 336
-371 482 -481 364 -273 889 -455 1423 -493 300 -21 862 48 1020 126 125 61
187 214 134 330 -17 37 -26 44 -102 74 -726 289 -1388 965 -1742 1780 -276
636 -343 1272 -201 1920 55 250 119 403 267 638 54 84 97 155 97 158 0 6 -11
4 -52 -11z"/>
<path d="M21055 6580 c-237 -38 -417 -187 -479 -399 -21 -73 -22 -275 -1 -356
48 -183 215 -338 420 -390 77 -20 245 -19 343 1 115 23 193 65 281 150 129
123 161 206 161 420 0 163 -18 229 -89 331 -74 106 -171 176 -311 225 -64 23
-232 32 -325 18z"/>
<path d="M23645 6503 c-517 -33 -817 -227 -986 -637 -82 -199 -119 -396 -119
-638 l0 -158 -215 0 -215 0 0 -375 0 -375 215 0 215 0 0 -1540 0 -1540 558 2
557 3 5 1535 5 1535 398 3 397 2 0 375 0 375 -402 0 -401 0 6 193 c4 126 11
209 21 242 19 61 64 108 126 130 63 22 240 35 500 35 l226 0 23 303 c12 166
25 314 28 328 5 25 1 29 -53 49 -243 92 -417 133 -639 150 -77 5 -153 9 -170
8 -16 -1 -52 -3 -80 -5z"/>
<path d="M19110 3820 l0 -2580 565 0 565 0 0 2580 0 2580 -565 0 -565 0 0
-2580z"/>
<path d="M4950 6129 c-176 -17 -451 -73 -540 -111 -146 -62 -202 -163 -165
-296 10 -34 23 -66 29 -71 6 -6 63 -33 126 -62 506 -228 950 -587 1286 -1041
187 -252 367 -584 477 -879 84 -224 147 -480 183 -744 25 -182 25 -601 1 -770
-54 -366 -152 -640 -327 -910 -45 -69 -80 -128 -78 -130 15 -15 327 151 508
270 324 214 658 548 872 875 215 327 368 720 435 1117 24 146 24 541 -1 723
-20 153 -63 325 -112 456 -41 110 -152 337 -215 441 -65 106 -206 288 -298
386 -377 396 -1001 689 -1590 747 -119 12 -466 11 -591 -1z"/>
<path d="M10160 6003 c-299 -23 -612 -103 -829 -212 -168 -85 -398 -253 -474
-347 -17 -21 -53 -64 -81 -94 -193 -214 -355 -615 -431 -1064 -40 -243 -48
-377 -42 -764 5 -377 15 -494 63 -732 97 -487 252 -810 524 -1093 244 -254
494 -399 832 -482 218 -54 349 -68 608 -69 476 -1 747 60 1293 291 84 35 107
49 103 62 -17 53 -216 857 -216 870 -1 51 6 53 -429 -128 -406 -170 -864 -183
-1097 -33 -203 132 -330 413 -374 827 -14 137 -15 990 -1 1135 55 563 202 760
605 810 131 17 404 7 561 -19 167 -28 297 -60 534 -131 112 -33 207 -57 211
-53 6 7 121 925 120 959 0 15 -167 87 -308 134 -289 94 -615 141 -957 138 -93
-1 -190 -3 -215 -5z"/>
<path d="M26155 5153 c-564 -29 -960 -236 -1231 -644 -260 -390 -380 -971
-334 -1604 41 -551 184 -953 449 -1264 181 -213 476 -375 808 -445 189 -39
304 -50 538 -50 239 1 383 15 585 60 112 25 456 145 573 199 l59 27 -7 62 c-7
59 -50 337 -97 619 -15 88 -27 137 -35 137 -6 0 -47 -11 -90 -24 -149 -47
-432 -126 -503 -141 -197 -41 -467 -56 -627 -34 -285 39 -404 153 -462 446
-11 54 -23 142 -26 196 l-7 97 997 0 997 0 -5 418 c-5 445 -16 579 -62 808
-103 510 -354 847 -760 1021 -190 82 -505 130 -760 116z m287 -817 c71 -26
132 -86 172 -169 53 -109 67 -191 73 -439 l6 -218 -473 0 -473 0 7 113 c10
154 32 302 62 403 54 189 125 273 269 321 58 19 294 11 357 -11z"/>
<path d="M13235 5135 c-351 -52 -633 -189 -860 -419 -348 -353 -522 -931 -501
-1656 13 -421 46 -609 161 -915 143 -384 400 -681 720 -835 457 -219 1113
-224 1562 -10 351 167 630 500 766 915 39 119 92 344 113 480 27 174 27 777 1
945 -67 426 -212 773 -424 1012 -260 293 -565 444 -983 488 -132 13 -447 11
-555 -5z m485 -857 c115 -27 180 -83 237 -203 74 -156 88 -307 88 -940 0 -532
-7 -644 -50 -810 -36 -136 -114 -254 -198 -297 -123 -62 -382 -62 -503 0 -110
57 -178 190 -219 427 -42 241 -45 1089 -5 1387 32 235 109 366 244 417 106 39
284 48 406 19z"/>
<path d="M17438 5135 c-105 -17 -259 -67 -310 -100 -20 -14 -60 -53 -89 -87
-114 -138 -333 -378 -344 -378 -7 0 -15 8 -17 18 -3 9 -52 91 -110 182 -57 91
-116 185 -131 210 -14 25 -36 55 -47 68 l-21 22 -389 0 -390 0 0 -1915 0
-1915 565 0 565 0 0 1458 0 1457 103 28 c171 46 237 57 367 63 223 11 355 -41
404 -158 14 -33 16 -195 16 -1443 l0 -1405 565 0 566 0 -4 1468 c-2 1352 -4
1474 -20 1555 -80 396 -251 658 -519 793 -37 19 -107 46 -155 61 -82 24 -103
27 -303 29 -149 2 -242 -1 -302 -11z"/>
<path d="M20610 3155 l0 -1915 565 0 565 0 0 1915 0 1915 -565 0 -565 0 0
-1915z"/>
<path d="M5695 3541 c-66 -16 -77 -29 -123 -146 -82 -208 -245 -474 -435 -711
-481 -598 -1239 -1054 -2007 -1208 -239 -48 -360 -60 -610 -61 -245 0 -312 6
-545 51 -249 48 -559 169 -745 291 -41 27 -92 59 -113 72 l-38 23 26 -58 c62
-142 225 -422 319 -549 166 -226 314 -385 511 -548 215 -179 286 -230 451
-323 579 -327 1161 -437 1756 -334 643 112 1203 485 1567 1045 168 257 309
623 360 935 39 232 45 308 46 535 0 244 -6 308 -55 567 -53 278 -87 350 -183
393 -58 26 -136 37 -182 26z"/>
</g>
</svg>
