<svg xmlns="http://www.w3.org/2000/svg" width="279.157" height="209.055" viewBox="0 0 279.157 209.055">
  <g id="Componente_47_1" data-name="Componente 47 – 1" transform="translate(1.76 0.628)">
    <g id="_500_Internal_Server_Error-bro" data-name="500 Internal Server Error-bro">
      <g id="freepik--Server--inject-2" transform="translate(0)">
        <path id="Caminho_13757" data-name="Caminho 13757" d="M153,338.5a20.2,20.2,0,0,1,14.983,3.729c6.924,5.322,12.187,18.856,14.907,37.805s4.237,27.119,20.229,29.814,54.314,1.6,77.2,1.068,21.831-21.831,2.669-23.958-32.432,2.983-52.424-1.441,17.8-10.28,46.56-6.017,41.526,5.322,56.975,3.729" transform="translate(-58.084 -214.355)" fill="none" stroke="#263238" stroke-linecap="round" stroke-linejoin="round" stroke-width="2.513"/>
        <path id="Caminho_13758" data-name="Caminho 13758" d="M153,305.1s15.517.119,19.771,16.1,5.856,38.339,6.39,55.932,1.068,32.483,21.3,36.737,75.077,2.661,89.984-.534,31.415-17.568,19.17-20.763-29.288,0-22.881,4.237,23.432,3.195,43.661.534" transform="translate(-58.084 -209.294)" fill="none" stroke="#263238" stroke-linecap="round" stroke-linejoin="round" stroke-width="2.513"/>
        <path id="Caminho_13759" data-name="Caminho 13759" d="M139.1,370.687s9.483-.847,13.186,9.89-.847,13.187,1.237,18.543,15.068.356,15.009,4.8c-.059,4.051-5.195,5.195-34.788,3.449-38.7-2.28-64.3,3.712-62.238,7.424s32.975.847,25.551,6.593-25.551-.848-39.568-1.237S41,423.026,41,423.026" transform="translate(-41 -219.297)" fill="none" stroke="#263238" stroke-linecap="round" stroke-linejoin="round" stroke-width="2.513"/>
        <rect id="Retângulo_3212" data-name="Retângulo 3212" width="99.204" height="182.543" rx="3.56" transform="translate(3.059)" fill="#263238" stroke="#263238" stroke-linecap="round" stroke-linejoin="round" stroke-width="1.257"/>
        <rect id="Retângulo_3213" data-name="Retângulo 3213" width="94.416" height="69.924" transform="translate(5.432 27.339)" fill="#616161"/>
        <rect id="Retângulo_3214" data-name="Retângulo 3214" width="94.416" height="69.924" transform="translate(5.432 108.628)" fill="#616161"/>
        <rect id="Retângulo_3215" data-name="Retângulo 3215" width="53.602" height="54.661" transform="translate(34.534 117.145)" fill="#ff8700" stroke="#263238" stroke-linecap="round" stroke-linejoin="round" stroke-width="1.257"/>
        <rect id="Retângulo_3216" data-name="Retângulo 3216" width="53.602" height="13.492" transform="translate(34.534 35.153)" fill="#ff8700" stroke="#263238" stroke-linecap="round" stroke-linejoin="round" stroke-width="1.257"/>
        <rect id="Retângulo_3217" data-name="Retângulo 3217" width="53.602" height="13.492" transform="translate(34.534 61.06)" fill="#ff8700" stroke="#263238" stroke-linecap="round" stroke-linejoin="round" stroke-width="1.257"/>
        <path id="Caminho_13760" data-name="Caminho 13760" d="M132.15,226.16,131.117,229H83.633L82.6,226.16H72.54v12.475H82.6l1.034-2.839h47.483l1.034,2.839h11.39V226.16Z" transform="translate(-45.811 -197.253)" fill="#263238" stroke="#263238" stroke-linecap="round" stroke-linejoin="round" stroke-width="1.257"/>
        <path id="Caminho_13761" data-name="Caminho 13761" d="M132.15,242.22l-1.034,2.831H83.633L82.6,242.22H72.54v12.466H82.6l1.034-2.831h47.483l1.034,2.831h11.39V242.22Z" transform="translate(-45.811 -199.703)" fill="#263238" stroke="#263238" stroke-linecap="round" stroke-linejoin="round" stroke-width="1.257"/>
        <path id="Caminho_13762" data-name="Caminho 13762" d="M132.15,258.27l-1.034,2.839H83.633L82.6,258.27H72.54v12.475H82.6l1.034-2.839h47.483l1.034,2.839h11.39V258.27Z" transform="translate(-45.811 -202.151)" fill="#263238" stroke="#263238" stroke-linecap="round" stroke-linejoin="round" stroke-width="1.257"/>
        <path id="Caminho_13763" data-name="Caminho 13763" d="M132.15,274.32l-1.034,2.839H83.633L82.6,274.32H72.54v12.475H82.6l1.034-2.83h47.483l1.034,2.83h11.39V274.32Z" transform="translate(-45.811 -204.599)" fill="#263238" stroke="#263238" stroke-linecap="round" stroke-linejoin="round" stroke-width="1.257"/>
        <path id="Caminho_13764" data-name="Caminho 13764" d="M132.15,290.38l-1.034,2.831H83.633L82.6,290.38H72.54v12.475H82.6l1.034-2.839h47.483l1.034,2.839h11.39V290.38Z" transform="translate(-45.811 -207.049)" fill="#263238" stroke="#263238" stroke-linecap="round" stroke-linejoin="round" stroke-width="1.257"/>
        <path id="Caminho_13765" data-name="Caminho 13765" d="M132.15,322.49l-1.034,2.831H83.633L82.6,322.49H72.54v12.466H82.6l1.034-2.831h47.483l1.034,2.831h11.39V322.49Z" transform="translate(-45.811 -211.947)" fill="#263238" stroke="#263238" stroke-linecap="round" stroke-linejoin="round" stroke-width="1.257"/>
        <path id="Caminho_13766" data-name="Caminho 13766" d="M132.15,338.54l-1.034,2.839H83.633L82.6,338.54H72.54v12.475H82.6l1.034-2.83h47.483l1.034,2.83h11.39V338.54Z" transform="translate(-45.811 -214.395)" fill="#263238" stroke="#263238" stroke-linecap="round" stroke-linejoin="round" stroke-width="1.257"/>
        <path id="Caminho_13767" data-name="Caminho 13767" d="M132.15,354.6l-1.034,2.831H83.633L82.6,354.6H72.54v12.466H82.6l1.034-2.831h47.483l1.034,2.831h11.39V354.6Z" transform="translate(-45.811 -216.845)" fill="#263238" stroke="#263238" stroke-linecap="round" stroke-linejoin="round" stroke-width="1.257"/>
        <path id="Caminho_13768" data-name="Caminho 13768" d="M132.15,370.65l-1.034,2.839H83.633L82.6,370.65H72.54v12.475H82.6l1.034-2.839h47.483l1.034,2.839h11.39V370.65Z" transform="translate(-45.811 -219.293)" fill="#263238" stroke="#263238" stroke-linecap="round" stroke-linejoin="round" stroke-width="1.257"/>
        <path id="Caminho_13769" data-name="Caminho 13769" d="M132.15,386.71l-1.034,2.831H83.633L82.6,386.71H72.54v12.466H82.6l1.034-2.831h47.483l1.034,2.831h11.39V386.71Z" transform="translate(-45.811 -221.743)" fill="#263238" stroke="#263238" stroke-linecap="round" stroke-linejoin="round" stroke-width="1.257"/>
        <rect id="Retângulo_3218" data-name="Retângulo 3218" width="90.382" height="8.517" transform="translate(7.331 99.441)" fill="#fff"/>
        <path id="Caminho_13770" data-name="Caminho 13770" d="M57.793,313.881a2.381,2.381,0,1,0-2.381,2.381A2.381,2.381,0,0,0,57.793,313.881Z" transform="translate(-42.835 -210.271)" fill="#263238" stroke="#263238" stroke-linecap="round" stroke-linejoin="round" stroke-width="1.257"/>
        <circle id="Elipse_1247" data-name="Elipse 1247" cx="2.381" cy="2.381" r="2.381" transform="translate(18.127 101.229)" fill="#ff8700" stroke="#263238" stroke-linecap="round" stroke-linejoin="round" stroke-width="1.257"/>
        <path id="Caminho_13771" data-name="Caminho 13771" d="M76.513,313.881a2.381,2.381,0,1,0-2.381,2.381A2.381,2.381,0,0,0,76.513,313.881Z" transform="translate(-45.691 -210.271)" fill="#263238" stroke="#263238" stroke-linecap="round" stroke-linejoin="round" stroke-width="1.257"/>
        <rect id="Retângulo_3219" data-name="Retângulo 3219" width="90.382" height="8.517" transform="translate(7.331 17.805)" fill="#fff"/>
        <path id="Caminho_13772" data-name="Caminho 13772" d="M57.793,217.571a2.381,2.381,0,1,0-2.381,2.381A2.381,2.381,0,0,0,57.793,217.571Z" transform="translate(-42.835 -195.58)" fill="#fff" stroke="#263238" stroke-linecap="round" stroke-linejoin="round" stroke-width="1.257"/>
        <path id="Caminho_13773" data-name="Caminho 13773" d="M67.143,217.571a2.381,2.381,0,1,0-2.381,2.381,2.381,2.381,0,0,0,2.381-2.381Z" transform="translate(-44.261 -195.58)" fill="#ff8700" stroke="#263238" stroke-linecap="round" stroke-linejoin="round" stroke-width="1.257"/>
        <path id="Caminho_13774" data-name="Caminho 13774" d="M76.513,217.571a2.381,2.381,0,1,0-2.381,2.381A2.381,2.381,0,0,0,76.513,217.571Z" transform="translate(-45.691 -195.58)" fill="#fff" stroke="#263238" stroke-linecap="round" stroke-linejoin="round" stroke-width="1.257"/>
        <rect id="Retângulo_3220" data-name="Retângulo 3220" width="90.382" height="8.517" transform="translate(7.331 6.847)" fill="#fff"/>
        <path id="Caminho_13775" data-name="Caminho 13775" d="M57.793,204.621A2.381,2.381,0,1,0,55.411,207,2.381,2.381,0,0,0,57.793,204.621Z" transform="translate(-42.835 -193.604)" fill="#ff8700" stroke="#263238" stroke-linecap="round" stroke-linejoin="round" stroke-width="1.257"/>
        <path id="Caminho_13776" data-name="Caminho 13776" d="M67.143,204.621A2.381,2.381,0,1,0,64.761,207a2.381,2.381,0,0,0,2.381-2.381Z" transform="translate(-44.261 -193.604)" fill="#263238" stroke="#263238" stroke-linecap="round" stroke-linejoin="round" stroke-width="1.257"/>
        <path id="Caminho_13777" data-name="Caminho 13777" d="M76.513,204.621A2.381,2.381,0,1,0,74.131,207a2.381,2.381,0,0,0,2.381-2.381Z" transform="translate(-45.691 -193.604)" fill="#263238" stroke="#263238" stroke-linecap="round" stroke-linejoin="round" stroke-width="1.257"/>
        <rect id="Retângulo_3221" data-name="Retângulo 3221" width="14.907" height="6.39" transform="translate(7.559 29.119)" fill="#263238" stroke="#263238" stroke-linecap="round" stroke-linejoin="round" stroke-width="1.257"/>
        <rect id="Retângulo_3222" data-name="Retângulo 3222" width="14.907" height="6.39" transform="translate(7.559 42.958)" fill="#263238" stroke="#263238" stroke-linecap="round" stroke-linejoin="round" stroke-width="1.257"/>
        <rect id="Retângulo_3223" data-name="Retângulo 3223" width="14.907" height="6.39" transform="translate(7.559 56.805)" fill="#ff8700" stroke="#263238" stroke-linecap="round" stroke-linejoin="round" stroke-width="1.257"/>
        <rect id="Retângulo_3224" data-name="Retângulo 3224" width="14.907" height="6.39" transform="translate(7.559 70.644)" fill="#ff8700" stroke="#263238" stroke-linecap="round" stroke-linejoin="round" stroke-width="1.257"/>
        <rect id="Retângulo_3225" data-name="Retângulo 3225" width="14.907" height="6.39" transform="translate(7.559 84.492)" fill="#ff8700" stroke="#263238" stroke-linecap="round" stroke-linejoin="round" stroke-width="1.257"/>
        <rect id="Retângulo_3226" data-name="Retângulo 3226" width="14.907" height="6.39" transform="translate(7.559 110.399)" fill="#ff8700" stroke="#263238" stroke-linecap="round" stroke-linejoin="round" stroke-width="1.257"/>
        <rect id="Retângulo_3227" data-name="Retângulo 3227" width="14.907" height="6.39" transform="translate(7.559 124.246)" fill="#263238" stroke="#263238" stroke-linecap="round" stroke-linejoin="round" stroke-width="1.257"/>
        <rect id="Retângulo_3228" data-name="Retângulo 3228" width="14.907" height="6.39" transform="translate(7.559 138.085)" fill="#ff8700" stroke="#263238" stroke-linecap="round" stroke-linejoin="round" stroke-width="1.257"/>
        <rect id="Retângulo_3229" data-name="Retângulo 3229" width="14.907" height="6.39" transform="translate(7.559 151.933)" fill="#263238" stroke="#263238" stroke-linecap="round" stroke-linejoin="round" stroke-width="1.257"/>
        <rect id="Retângulo_3230" data-name="Retângulo 3230" width="14.907" height="6.39" transform="translate(7.559 165.772)" fill="#ff8700" stroke="#263238" stroke-linecap="round" stroke-linejoin="round" stroke-width="1.257"/>
      </g>
    </g>
  </g>
</svg>
