<svg height="796.359" viewBox="0 0 1142.105 796.359" width="1142.105" xmlns="http://www.w3.org/2000/svg" xmlns:xlink="http://www.w3.org/1999/xlink"><linearGradient id="a" gradientUnits="objectBoundingBox" x1=".5" x2=".5" y1="1"><stop offset="0" stop-color="#808080" stop-opacity=".251"/><stop offset=".54" stop-color="#808080" stop-opacity=".122"/><stop offset="1" stop-color="#808080" stop-opacity=".102"/></linearGradient><g fill="#001f40"><path d="m699.543 182.62c-73.193-2.541-142.9-26.176-209.477-52.028s-132.509-54.497-203.961-68.192c-45.944-8.816-98.5-10.061-135.525 14.576-35.63 23.706-47.139 64.63-53.333 102.608-4.656 28.575-7.389 58.637 5.365 85.39 8.857 18.564 24.587 34.172 35.427 51.957 37.847 61.9 11.134 138.207-29.921 198.646-19.232 28.342-41.561 55.388-56.4 85.562s-21.682 64.751-8.634 95.583c12.875 30.508 43.525 53.424 76.8 69.549 67.454 32.684 147 42.057 224.569 47.361 171.711 11.742 344.344 6.66 516.511 1.569 63.709-1.893 127.711-3.8 190.387-13.655 34.81-5.466 70.744-14.171 96.018-35.114 32.077-26.611 40.033-71.675 18.534-105.047-36.055-55.975-135.748-69.843-160.942-129.948-13.878-33.059.374-69.893 20.538-100.553 43.242-65.794 115.726-123.49 119.542-198.687 2.632-51.623-32.219-103.367-86.1-127.8-56.481-25.609-134.786-22.39-176.459 20.011-42.91 43.656-118.31 60.449-182.939 58.212z" opacity=".1" transform="translate(-35.836 -56.625)"/><path d="m938.677 738.558a31.2 31.2 0 0 0 -12.744-1.357c-5.233.567-4.494 8.533.759 8.159a37.649 37.649 0 0 0 7.753-1.427z" transform="translate(-25.015 -48.316)"/><path d="m940.112 738.61a31.141 31.141 0 0 1 3.118 12.44c.172 5.263-7.824 5.638-8.189.385a38.064 38.064 0 0 1 .344-7.875z" transform="translate(-24.861 -48.297)"/><path d="m952.093 721.838s-2.561-8.037-18.22-4.919c-7.085 1.407-6.893 11.57.2 12.642h.3c10.341 1.439 13.934-2.661 17.72-7.723z" transform="translate(-24.938 -48.571)"/><path d="m953.482 721.3s8.411.658 8.938 16.6c.243 7.177-9.687 9.353-12.349 2.692a.876.876 0 0 0 -.111-.294c-3.715-9.726-.547-14.16 3.522-18.998z" transform="translate(-24.698 -48.508)"/><path d="m964.793 701.158a16.731 16.731 0 0 0 -11.3-12.612c-10.6-3.34-16.2 12.511-5.841 16.54a33.08 33.08 0 0 0 13.4 1.943z" transform="translate(-24.773 -48.914)"/><path d="m977.606 675s-4.282-10.122-15.385-12.147c-11.772-2.156-15.335 15.527-3.7 18.352a38.82 38.82 0 0 0 15.851.131z" transform="translate(-24.66 -49.224)"/><path d="m985.311 649.236a25.126 25.126 0 0 0 -16.2-11.134c-10.122-1.9-13.533 13.25-3.593 15.841a37.8 37.8 0 0 0 18.969-.263z" transform="translate(-24.56 -49.526)"/><path d="m992.568 624.141a26.126 26.126 0 0 0 -14.168-11.266c-10.122-3.108-15.123 12.238-5.061 15.578a28.817 28.817 0 0 0 18.361-.071z" transform="translate(-24.459 -49.837)"/><path d="m995.633 601.321s-4.049-9.495-12.3-14.515c-9.191-5.6-17.947 8.1-9.11 14.262 5.446 3.816 12.42 6.448 20.568 4.687z" transform="translate(-24.426 -50.167)"/><path d="m997.151 574.184s-4.464-9.585-13.027-14.171c-9.576-5.061-17.906 8.928-8.887 14.96 5.9 3.938 13.27 6.488 21.094 3.411z" transform="translate(-24.416 -50.491)"/><path d="m996.18 549.446a62.107 62.107 0 0 0 -12.146-13.817c-6.7-5.476-15.183 4.383-8.837 10.234 5.86 5.375 13.158 9.889 20.7 9.525z" transform="translate(-24.397 -50.795)"/><path d="m993.672 525.754a91 91 0 0 0 -13.725-17.734c-5.243-5.061-13 2.652-8.1 7.987 5.658 6.073 13.29 12.369 22.461 15.122z" transform="translate(-24.43 -51.133)"/><path d="m988.791 497.784a81.125 81.125 0 0 0 -10.962-13.574c-5.284-5.172-13.25 2.612-8.179 7.986 5.385 5.719 12.349 11.074 20.518 12.9z" transform="translate(-24.457 -51.424)"/><path d="m984.526 471.719a129.4 129.4 0 0 0 -10.537-12.519c-4.231-4.363-10.993 1.771-7 6.367 4.687 5.405 10.7 10.193 17.612 10.962z" transform="translate(-24.485 -51.727)"/><path d="m980.113 447.612a131.889 131.889 0 0 0 -10.122-16.651c-3.168-4.332-9.768.3-6.782 4.757 3.907 5.841 9.333 11.62 16.459 14.4z" transform="translate(-24.525 -52.075)"/><path d="m976.44 415.413s-2.5-4.241-6.073-9.171c-3.3-4.545-10.264.152-7.207 4.859 3.442 5.274 7.754 9.768 12.774 10.659z" transform="translate(-24.526 -52.378)"/><path d="m974.658 394.223-3.168-15.841c-.84-4.191-7.086-3.189-6.58 1.012 1.134 8.462 4.049 16.975 10.4 22.562z" transform="translate(-24.496 -52.728)"/><path d="m976.472 349.543a3.108 3.108 0 0 0 -5.932 1.7 80.2 80.2 0 0 0 3.2 12.956z" transform="translate(-24.427 -53.071)"/><path d="m965.259 700.7a16.732 16.732 0 0 1 16.56 3.563c8.1 7.561-2.854 20.244-11.489 13.27a33.269 33.269 0 0 1 -8.33-10.679z" transform="translate(-24.531 -48.77)"/><path d="m978.039 673.9s10.649-2.571 18.888 5.142c8.735 8.179-3.34 21.57-12.541 13.908a38.755 38.755 0 0 1 -9.545-12.663z" transform="translate(-24.374 -49.092)"/><path d="m985.7 650.917a25.133 25.133 0 0 1 19.232-4.271c10.122 2.024 7.6 17.339-2.592 16.033a37.869 37.869 0 0 1 -17.491-7.339z" transform="translate(-24.252 -49.425)"/><path d="m992.78 624.2a26.1 26.1 0 0 1 17.329-5.172c10.587.921 9.454 17-1.144 16.337a28.756 28.756 0 0 1 -17.005-6.934z" transform="translate(-24.165 -49.758)"/><path d="m995.2 601.935s5.618-8.664 14.586-12.207c9.95-3.938 16.337 10.972 6.671 15.557-6.073 2.865-13.391 4.312-21.165 1.164z" transform="translate(-24.125 -50.123)"/><path d="m995.55 573.746s5.678-8.907 14.758-12.308c10.122-3.8 16.59 11.185 6.863 15.993-6.367 3.138-14.009 4.7-21.358.628z" transform="translate(-24.121 -50.468)"/><path d="m993.67 549.226a62.063 62.063 0 0 1 8.907-16.094c5.365-6.792 15.8 1.012 10.821 8.1-4.575 6.508-10.689 12.47-18.22 13.735z" transform="translate(-24.144 -50.838)"/><path d="m992.9 525.766a90.608 90.608 0 0 1 8.219-20.912c3.634-6.3 13.219-1.083 9.96 5.415-3.725 7.44-9.312 15.588-17.349 20.8z" transform="translate(-24.154 -51.186)"/><path d="m987.1 496.523a81.178 81.178 0 0 1 8.361-15.963c4.17-6.073 13.412-.121 9.6 6.154-4.15 6.842-10 13.726-17.846 17.207z" transform="translate(-24.224 -51.479)"/><path d="m982.48 471.638a130.155 130.155 0 0 1 4.383-15.76c2.024-5.739 10.74-2.966 9.019 2.875-2.024 6.863-5.5 13.715-11.458 17.289z" transform="translate(-24.281 -51.788)"/><path d="m979.27 447.174a131.47 131.47 0 0 1 6.074-18.534c2.105-4.94 9.6-1.933 7.693 3.087-2.47 6.579-6.438 13.442-12.733 17.774z" transform="translate(-24.32 -52.113)"/><path d="m974.46 417.646s.951-4.828 2.682-10.669c1.6-5.385 9.737-3.269 8.411 2.186-1.478 6.073-4.049 11.792-8.5 14.3z" transform="translate(-24.379 -52.385)"/><path d="m975.6 393.15 5.506-15.183c1.458-4.049 7.531-2.085 6.347 2.025-2.379 8.2-6.509 16.2-13.645 20.75z" transform="translate(-24.386 -52.728)"/><path d="m982.47 351.119s.86-.688 2.176-1.771c2.682-2.227 6.185 1.66 3.654 4.049a51.623 51.623 0 0 1 -14.97 9.495z" transform="translate(-24.392 -53.058)"/><path d="m982.014 342.672a199.442 199.442 0 0 1 10.986-19.556 2.024 2.024 0 0 0 -3.279-2.318c-3.239 4.433-6.417 10.922-8.827 20.457z" transform="translate(-24.3 -53.407)"/></g><path d="m975.833 422.8 1.174-.121c-5.061-47.179-2.925-76.27 5.921-81.908l-.638-1.012c-9.373 6.003-11.6 34.71-6.457 83.041z" fill="#444053" transform="translate(-24.395 -53.167)"/><path d="m993.214 533.387 1.751-.263c-.658-4.363-1.417-8.8-2.267-13.159-7.369-38.292-13.1-73.689-15.962-100.573l-1.286-1.012c2.875 26.935 8.1 63.557 15.517 101.9.833 4.332 1.59 8.755 2.247 13.107z" fill="#444053" transform="translate(-24.367 -52.207)"/><path d="m912.017 770.5c.263-.212 27.228-20.841 50.9-60.409a255.068 255.068 0 0 0 29.966-74.691c7.48-32.907 7.693-71.229 2.3-107.122l-1.579 1.265c12.147 80.552-11.023 143.1-32.643 179.253-23.443 39.2-50.095 59.619-50.368 59.822z" fill="#444053" transform="translate(-25.158 -50.865)"/><ellipse cx="196.39" cy="706.498" fill="#001f40" rx="67.363" ry="12.956"/><ellipse cx="195.256" cy="700.992" fill="#3f3d56" rx="7.845" ry="10.264"/><ellipse cx="195.256" cy="688.441" fill="#3f3d56" rx="7.845" ry="10.264"/><ellipse cx="195.256" cy="675.899" fill="#3f3d56" rx="7.845" ry="10.264"/><ellipse cx="195.256" cy="663.348" fill="#3f3d56" rx="7.845" ry="10.264"/><ellipse cx="195.256" cy="650.796" fill="#3f3d56" rx="7.845" ry="10.264"/><ellipse cx="195.256" cy="638.255" fill="#3f3d56" rx="7.845" ry="10.264"/><ellipse cx="195.256" cy="625.704" fill="#3f3d56" rx="7.845" ry="10.264"/><path d="m258.55 590.674a36.922 36.922 0 0 0 2.925-4.3l-20.609-3.381 22.269.162a37.593 37.593 0 0 0 .719-29.759l-29.9 15.507 27.573-20.244a37.573 37.573 0 1 0 -62.049 42.037 37.944 37.944 0 0 0 -4.282 6.853l26.753 13.9-28.5-9.575a37.583 37.583 0 0 0 6.073 35.276 37.573 37.573 0 1 0 59.052 0 37.543 37.543 0 0 0 0-46.45z" fill="#001f40" transform="translate(-33.941 -50.846)"/><path d="m191.46 612.9a37.452 37.452 0 0 0 8.037 23.22 37.573 37.573 0 1 0 59.052 0c5.041-6.39-67.089-27.444-67.089-23.22z" opacity=".1" transform="translate(-33.94 -49.839)"/><path d="m267.81 317.87v447.1a15.608 15.608 0 0 0 15.608 15.608h641.61a15.608 15.608 0 0 0 15.609-15.608v-447.1z" fill="#fff" transform="translate(-33.007 -53.435)"/><rect height="94.409" opacity=".1" rx="5" width="160.84" x="288.045" y="304.458"/><rect height="94.409" opacity=".1" rx="8.65" width="160.84" x="490.801" y="304.458"/><rect fill="#444053" height="91.747" opacity=".1" rx="5" transform="matrix(-1 0 0 -1 852.13 397.532)" width="156.316"/><rect fill="#ff7d00" height="91.747" rx="5" transform="matrix(-1 0 0 -1 649.496 397.534)" width="156.316"/><rect fill="#444053" height="91.747" opacity=".1" rx="5" width="156.316" x="290.302" y="438.313"/><rect fill="#444053" height="91.747" opacity=".1" rx="5" transform="matrix(-1 0 0 -1 852.13 530.06)" width="156.316"/><rect fill="#444053" height="91.747" opacity=".1" rx="5" transform="matrix(-1 0 0 -1 649.374 530.06)" width="156.316"/><rect fill="#444053" height="91.747" opacity=".1" rx="5" width="156.316" x="290.302" y="570.842"/><rect fill="#444053" height="91.747" opacity=".1" rx="5" transform="matrix(-1 0 0 -1 852.13 662.6)" width="156.316"/><rect fill="#444053" height="91.747" opacity=".1" rx="5" transform="matrix(-1 0 0 -1 649.374 662.6)" width="156.316"/><path d="m267.81 240.048v81.23h672.827v-81.23a15.608 15.608 0 0 0 -15.608-15.618h-641.611a15.608 15.608 0 0 0 -15.608 15.618zm166.509 24.03a12.46 12.46 0 1 1 12.46-12.46 12.46 12.46 0 0 1 -12.46 12.46zm339.809 0a12.485 12.485 0 1 0 -.02 0z" fill="#001f40" transform="translate(-33.007 -54.576)"/><path d="m432.488 236.74a14.728 14.728 0 1 0 14.718 14.724 14.728 14.728 0 0 0 -14.718-14.724zm0 27.188a12.46 12.46 0 1 1 12.46-12.46 12.46 12.46 0 0 1 -12.46 12.46z" opacity=".1" transform="translate(-31.176 -54.425)"/><path d="m768.178 236.74a14.728 14.728 0 1 0 14.728 14.728 14.727 14.727 0 0 0 -14.728-14.728zm0 27.188a12.46 12.46 0 1 1 12.46-12.46 12.46 12.46 0 0 1 -12.46 12.46z" opacity=".1" transform="translate(-27.078 -54.425)"/><circle cx="1045.715" cy="425.073" fill="#001f40" opacity=".1" r="15.456"/><circle cx="1101.012" cy="356.142" fill="#001f40" opacity=".1" r="25.913"/><circle cx="1066.709" cy="481.879" fill="#001f40" opacity=".1" r="25.913"/><circle cx="36.693" cy="349.785" fill="#001f40" opacity=".1" r="36.693"/><path d="m963.677 801.861a32.391 32.391 0 0 0 -7.51-4.221 1.544 1.544 0 0 0 -.658-.172 115.548 115.548 0 0 1 -15.487-13.341c1.012-.81 1.943-1.6 2.935-2.379-6.073-2.895-9.444-9.525-12.724-15.507a152.982 152.982 0 0 0 -33.747-42.047c-.334-1.286-2.288-1.012-3.33-1.842a2.673 2.673 0 0 1 -.739-2.581c.162-.931.587-1.792.82-2.7.557-2.136.071-4.383-.172-6.579s-.142-4.646 1.316-6.286c.466-.537 1.063-.952 1.518-1.5a5.71 5.71 0 0 0 1.012-4.545 16.143 16.143 0 0 0 -1.012-4.606q7.439-20.244 14.869-40.559c3.472-9.454 6.974-19.111 7.328-29.192.283-8.1-1.8-16.509-6.7-22.694.891-.213 1.781-.435 2.662-.688-5.79-7.672-6.417-17.835-6.569-27.5q-.122-7.227-.5-14.465c1.68.739 3.381 1.4 5.122 1.964l1.62.5a55.827 55.827 0 0 0 8.027 1.721c1.194.172 2.409.3 3.614.385q-2.612-6.539-5.213-13.1a17.89 17.89 0 0 1 -1.619-6.144v-.4a3.551 3.551 0 0 1 .05-.729 7.992 7.992 0 0 1 .4-1.7 7.66 7.66 0 0 1 .313-.8 14.217 14.217 0 0 1 1.3-2.277c.364-.557.769-1.093 1.174-1.64a22.372 22.372 0 0 0 3.634-5.881 11.13 11.13 0 0 0 .557-3.351 16.482 16.482 0 0 0 -.3-3.442c-.142-.749-.324-1.508-.526-2.237-.132-.455-.273-.911-.415-1.356l-.122-.365c-.111-.344-.223-.678-.344-1.012l-.121-.344c-.132-.364-.263-.719-.4-1.083l-.081-.213c-1.933-4.97-4.5-9.707-6.073-14.819a39.026 39.026 0 0 1 -1.012-4.14c-.071-.354-.121-.719-.182-1.073s-.091-.607-.131-.911-.091-.709-.132-1.063l-.091-1.012c0-.324-.051-.648-.071-1.012 0-.618-.061-1.235-.071-1.852v-2.814c0-.466.071-.931.111-1.387a2.056 2.056 0 0 1 .071-.658q.1-1.012.273-2.024c.1-.6.212-1.2.334-1.812a24.172 24.172 0 0 0 .567-5.061 5.019 5.019 0 0 0 -.071-1.012c-.071-.354-.081-.547-.132-.81a1.965 1.965 0 0 1 0-.243 2.689 2.689 0 0 0 -.131-.547 1.017 1.017 0 0 0 -.081-.253c-.03-.081-.111-.354-.172-.526s-.051-.152-.081-.233-.142-.364-.223-.536l-.071-.182c-.1-.223-.213-.435-.324-.648a14.9 14.9 0 0 0 -1.356-2.105c-3.33-4.373-8.867-7.7-11.914-12.521a27.877 27.877 0 0 1 -3.411-10.122c-.152-.81-.283-1.619-.425-2.419s-.263-1.589-.4-2.379c-.091-.486-.182-1.012-.283-1.458l-.077-.321c-.081-.385-.162-.779-.253-1.164l-.061-.273c-.091-.4-.182-.81-.283-1.215l-.061-.213c-.1-.425-.212-.85-.324-1.275a.87.87 0 0 1 0-.152c-.122-.445-.253-.891-.385-1.336v-.091c-.142-.466-.283-.921-.435-1.377-.152-.466-.314-.941-.486-1.407-.182-.476-.354-.951-.547-1.417a37.448 37.448 0 0 0 -5.122-9.11c-4.636-5.952-11.8-10.223-19.232-9.94-3.988.152-7.814 1.549-11.569 2.935l-9.748 3.593 2.723-1.255c-2.834.253-5.729.516-8.29 1.771s-4.727 3.715-4.808 6.59c-.051 1.67.607 3.33.4 4.99-.354 2.743-2.875 4.606-4.181 7.035a9.052 9.052 0 0 0 -1.012 4.758v.648a.885.885 0 0 0 0 .162v.324c-4.049-1.761-8.1-3.593-12.146-5.557-6.691-3.29-13.462-7.156-17.633-13.392-1.336-2.025-2.368-4.211-3.694-6.215a49.2 49.2 0 0 0 -5.061-6.073l-12.429-13.444c-.951 1.792.273 3.907 1.235 5.689a24.425 24.425 0 0 1 2.3 5.931 2.814 2.814 0 0 1 -.061 2.075 4.048 4.048 0 0 1 -1.7 1.2 6.073 6.073 0 0 0 -2.561 6.954 7.693 7.693 0 0 0 5.739 5 10.413 10.413 0 0 1 2.561.627c1.5.739 2.207 2.46 3.28 3.745 1.953 2.348 5.061 3.229 8.027 4 4.6 5.3 9.373 10.385 13.968 15.689 6.954 8.027 14.07 16.2 23.139 21.621.941.567 1.9 1.093 2.875 1.579a1.593 1.593 0 0 1 -.051.486 5.486 5.486 0 0 0 .435 3.543c.81 1.285 2.48 1.67 3.968 1.933l6.863 1.225a23.434 23.434 0 0 1 -.334 2.652c-.091.537-.2 1.063-.3 1.6l-.121.688v.1a2 2 0 0 1 -.071.557c-.071.192 0 .132 0 .192v1.346c.233 2.692 2.025 4.919 3.816 6.974l.961 1.164a16.2 16.2 0 0 0 -3.128 6.559 22.285 22.285 0 0 0 -.445 4.565 7.929 7.929 0 0 0 -2.025 3.158 14.441 14.441 0 0 0 -.526 5.112v2.024a17.008 17.008 0 0 0 1.174 7.086c.091.182.192.344.284.516-1.518 2.976-4.049 5.294-5.861 8.1a17.572 17.572 0 0 0 1.609 20.123c1.387 1.6 3.168 3.138 3.331 5.263a19.788 19.788 0 0 1 -.284 2.875c-.162 2.287.891 4.454 1.458 6.67.476 1.842.5 4.049-.557 5.527a8.1 8.1 0 0 0 -1.387 5.3c.516 2.865-.668 5.729-.871 8.634-.091 1.245 0 2.51-.111 3.755a21.208 21.208 0 0 1 -.739 3.523 1.449 1.449 0 0 1 -.1.385c-2.5 1.1-4.98 2.247-7.369 3.573a6.467 6.467 0 0 0 -3.037 2.794 7.167 7.167 0 0 0 -.162 3.846l2.156 15-.374-.162q.253 3.685.526 7.4c.131 1.873.3 3.857 1.417 5.355a13.913 13.913 0 0 1 1.529 1.954c.85 1.721-.162 3.725-.911 5.486s-1.012 4.262.638 5.213a13.449 13.449 0 0 0 2.764 1.478c-2.024 8.442-.162 17.289 1.721 25.761q2.156 9.717 4.322 19.414a47.135 47.135 0 0 1 .951 8.341v1.215a46.714 46.714 0 0 0 2.024 11.357c2.247 7.571.091 16.661.8 24.91a73.884 73.884 0 0 0 2.369 11.732c4.889 19.394 9.252 38.4 10.932 58.344a14.655 14.655 0 0 0 7 4.889c-.2 2.45.071 5.253 0 6.681a11.538 11.538 0 0 1 -.546 3.482c-.86 2.247-3.037 3.715-5.294 4.5-.708.243-1.427.435-2.156.607l.81-.688a18.078 18.078 0 0 0 -13.473 2.368 5.335 5.335 0 0 0 -2.662 3.138 5.062 5.062 0 0 0 .931 3.634 16.571 16.571 0 0 0 9.363 6.65 49.125 49.125 0 0 0 11.539 1.609l7.146.415a1.964 1.964 0 0 0 .466 2.54 5 5 0 0 0 2.622.951 33.406 33.406 0 0 0 8.816.132 3.453 3.453 0 0 0 2.025-.729 1.306 1.306 0 0 0 0-1.933 2.135 2.135 0 0 0 1.944-1.417 5.749 5.749 0 0 0 .263-2.561c-.192-3.33-.486-8.169-2.217-11.134a2.824 2.824 0 0 0 -3.128-1.377 121.48 121.48 0 0 1 -2.025-17.956 43.847 43.847 0 0 0 5.2-2.349c-4.97-8.027-5.061-18.22-3.543-27.552a83.446 83.446 0 0 0 1.326-8.918c.334-5.972-.567-12.734-3.877-17.673a63.23 63.23 0 0 1 15.79 14.292c6.994 9.11 11.256 20.143 19.829 27.734q1.69-1.65 3.421-3.28 2.713 4.6 5.132 9.383a35.687 35.687 0 0 1 2.976 7.4 34.23 34.23 0 0 1 .273 11.934q-.354 3.158-.86 6.286a17.163 17.163 0 0 1 -.617 2.632 1.824 1.824 0 0 0 -.192-.789c-.537-.942-2.024-.517-2.834.131a12.513 12.513 0 0 0 -3.492 4.049 4.362 4.362 0 0 0 -.628 2.581 3.817 3.817 0 0 0 2.024 2.531c3.755 2.2 8.472.607 12.5-1.012a14.678 14.678 0 0 0 3.158-1.589c2.025-1.457 3.128-3.856 5.142-5.274a29.711 29.711 0 0 0 3.107-1.963c1.872-1.711 2.025-4.6 3.391-6.762 2.267-3.735 7.339-4.7 9.322-8.654 2.3-4.363-.382-9.88-3.844-12.734z" fill="url(#a)" transform="translate(-26.724 -52.445)"/><path d="m875.479 814.735a11.275 11.275 0 0 1 -.557 3.442c-.85 2.217-3.036 3.664-5.284 4.444s-4.636 1.012-6.923 1.69a6.079 6.079 0 0 0 -2.7 1.4c-2.024 2.025-.81 5.668 1.559 7.177s5.385 1.457 8.2 1.265a107.977 107.977 0 0 0 17.734-2.52c2.105-.5 4.565-1.468 4.9-3.6a5.912 5.912 0 0 0 -.161-2.024 119.624 119.624 0 0 1 -2.278-22c0-.486-11.742-.8-12.835-.091-2.455 1.606-1.524 8.327-1.655 10.817z" fill="#a1616a" transform="translate(-25.789 -47.505)"/><path d="m927.027 789.254q2.915 4.828 5.476 9.849a34.863 34.863 0 0 1 2.976 7.3 33.545 33.545 0 0 1 .273 11.772q-.354 3.108-.87 6.2c-.334 2.024-.871 4.322-2.6 5.486a5.991 5.991 0 0 0 5.162.455 14.868 14.868 0 0 0 4.545-2.784c8.675-7.156 15.183-17.552 15.507-28.8a4.566 4.566 0 0 0 -.476-2.551 5.059 5.059 0 0 0 -1.518-1.356 116.67 116.67 0 0 1 -17.947-15.072 2.2 2.2 0 0 0 -1.316-.84 2.274 2.274 0 0 0 -1.174.334c-3.33 1.67-8.9 4.049-10.284 7.845a5.3 5.3 0 0 1 2.247 2.156z" fill="#a1616a" transform="translate(-24.985 -47.805)"/><path d="m887.423 826.262c-7.288 3.037-15.183 4.13-23.068 5.172-1.012.122-2.1.2-2.763-.506a2.106 2.106 0 0 1 -.182-2.369 6.171 6.171 0 0 1 1.69-1.863l5.233-4.383a18.222 18.222 0 0 0 -13.3 2.288 5.294 5.294 0 0 0 -2.652 3.037 4.939 4.939 0 0 0 .931 3.593 16.538 16.538 0 0 0 9.353 6.559 50 50 0 0 0 11.529 1.589l7.085.405a1.913 1.913 0 0 0 .476 2.51 5.062 5.062 0 0 0 2.632.961 33.759 33.759 0 0 0 8.806.122 3.372 3.372 0 0 0 2.024-.719 1.276 1.276 0 0 0 0-1.9 2.136 2.136 0 0 0 1.943-1.407 5.864 5.864 0 0 0 .263-2.52c-.193-3.28-.486-8.1-2.217-10.962s-5.333-.619-7.783.393z" fill="#3f3d56" transform="translate(-25.87 -47.28)"/><path d="m961.728 797.672a32.571 32.571 0 0 0 -7.51-4.16.891.891 0 0 0 -1.357.344 77.061 77.061 0 0 0 -11.061 21.328c-1.448 4.352-2.591 8.988-5.527 12.511-.385.466-1.012.941-1.539.668-.759-.385-.294-1.609-.719-2.348-.526-.931-1.964-.506-2.824.132a12.143 12.143 0 0 0 -3.482 4.049 4.049 4.049 0 0 0 -.628 2.541 3.745 3.745 0 0 0 1.974 2.49c3.755 2.176 8.472.607 12.49-1.012a14.27 14.27 0 0 0 3.148-1.569c2.024-1.427 3.128-3.806 5.142-5.192a29.558 29.558 0 0 0 3.108-1.944c1.862-1.69 2.024-4.535 3.381-6.68 2.267-3.674 7.339-4.626 9.323-8.533 2.215-4.365-.457-9.811-3.919-12.625z" fill="#3f3d56" transform="translate(-24.957 -47.629)"/><path d="m906.3 597.932c7.956 5.972 11.3 16.59 10.942 26.53s-3.846 19.475-7.308 28.8q-7.44 20.011-14.859 40.013a16.484 16.484 0 0 1 1.012 4.555 5.6 5.6 0 0 1 -1.012 4.474c-.466.537-1.012.951-1.518 1.478-1.457 1.62-1.549 4.049-1.316 6.2s.729 4.383.172 6.489c-.233.9-.658 1.751-.82 2.662a2.641 2.641 0 0 0 .739 2.551c1.012.81 3.036.547 3.33 1.822a151.289 151.289 0 0 1 33.707 41.5c3.279 5.9 6.589 12.44 12.713 15.295a221.851 221.851 0 0 0 -17.136 15.072c-8.553-7.49-12.815-18.392-19.8-27.33a62.768 62.768 0 0 0 -15.77-14.1c3.31 4.869 4.211 11.549 3.877 17.43a80.843 80.843 0 0 1 -1.326 8.8c-1.569 9.211-1.427 19.232 3.543 27.188-5.3 2.753-11.4 4.8-17.319 3.978a14.738 14.738 0 0 1 -9.434-5.385c-1.68-19.677-6.073-38.464-10.922-57.564a70.78 70.78 0 0 1 -2.359-11.65c-.708-8.1 1.448-17.107-.81-24.577a45.824 45.824 0 0 1 -2.024-11.195v-1.2a45.846 45.846 0 0 0 -.952-8.219l-4.312-19.151c-1.883-8.371-3.765-17.1-1.731-25.427a13.5 13.5 0 0 1 -2.753-1.447c-1.65-.941-1.387-3.4-.638-5.142s1.751-3.715.911-5.415a13.224 13.224 0 0 0 -1.529-1.933c-1.113-1.478-1.285-3.432-1.417-5.274l-.527-7.308a14.3 14.3 0 0 1 7.207 6.306c-3.988-6.175-2.025-14.981.921-21.722a9.9 9.9 0 0 1 9.292-7.359c16.232-2.777 36.051-9.654 49.226.255z" fill="#3f3d56" transform="translate(-26.025 -50.078)"/><path d="m898.318 638.93s-7.976 5.324-7.976 9.312-2.024 39.881-2.024 39.881v25.305s1.326 13.3 0 16.62 0 18.615 0 20.609 2.024-20.609 2.024-20.609v-23.968l2.025-54.518z" opacity=".1" transform="translate(-25.438 -49.514)"/><path d="m855.117 457.423-4.646-1.812c-9.494-3.806-19-7.622-28.19-12.086-6.681-3.249-13.453-7.086-17.613-13.209-1.336-2.025-2.368-4.15-3.695-6.144a48.99 48.99 0 0 0 -5.061-6l-12.412-13.262c-.951 1.771.263 3.856 1.235 5.608a24.328 24.328 0 0 1 2.3 5.861 2.712 2.712 0 0 1 -.071 2.024 3.933 3.933 0 0 1 -1.69 1.194 5.941 5.941 0 0 0 -2.561 6.853 7.641 7.641 0 0 0 5.729 4.94 10.882 10.882 0 0 1 2.56.617c1.5.739 2.207 2.429 3.28 3.694 1.953 2.318 5.061 3.2 8.017 3.948 4.6 5.233 9.363 10.243 13.958 15.477 6.944 7.915 14.05 15.973 23.119 21.337a33.854 33.854 0 0 0 10.436 4.19 169.1 169.1 0 0 1 5.3-23.23z" fill="#a1616a" transform="translate(-26.724 -52.372)"/><path d="m855.117 457.423-4.646-1.812c-9.494-3.806-19-7.622-28.19-12.086-6.681-3.249-13.453-7.086-17.613-13.209-1.336-2.025-2.368-4.15-3.695-6.144a48.99 48.99 0 0 0 -5.061-6l-12.412-13.262c-.951 1.771.263 3.856 1.235 5.608a24.328 24.328 0 0 1 2.3 5.861 2.712 2.712 0 0 1 -.071 2.024 3.933 3.933 0 0 1 -1.69 1.194 5.941 5.941 0 0 0 -2.561 6.853 7.641 7.641 0 0 0 5.729 4.94 10.882 10.882 0 0 1 2.56.617c1.5.739 2.207 2.429 3.28 3.694 1.953 2.318 5.061 3.2 8.017 3.948 4.6 5.233 9.363 10.243 13.958 15.477 6.944 7.915 14.05 15.973 23.119 21.337a33.854 33.854 0 0 0 10.436 4.19 169.1 169.1 0 0 1 5.3-23.23z" opacity=".15" transform="translate(-26.724 -52.372)"/><path d="m845.894 483.235c-1.488-.263-3.158-.628-3.968-1.9a5.333 5.333 0 0 1 -.435-3.492 97.916 97.916 0 0 1 5.061-22.37c2.257 4.18 6.7 6.62 10.912 8.816a81.031 81.031 0 0 0 11.721 5.345c-1.012-.324-3.492 15.244-4.889 16.2-1.761 1.235-6.013-.435-7.966-.769z" fill="#001f40" transform="translate(-26.004 -51.754)"/><circle cx="830.671" cy="405.609" fill="#a1616a" r="21.277"/><path d="m852.22 474.917s13.958 11.964 7.976 19.941-9.312 13.3-1.336 13.969 34.567-13.3 34.567-13.3-24.6-19.94-20.609-31.9-20.598 11.29-20.598 11.29z" fill="#fbbebe" transform="translate(-25.871 -51.697)"/><path d="m865.716 493.42a16.51 16.51 0 0 0 -12.216 12.289c-1.569 7.166 1.761 15.183-1.377 21.783-1.478 3.138-4.221 5.486-6.074 8.432a17.207 17.207 0 0 0 1.6 19.849c1.387 1.579 3.168 3.107 3.33 5.193a19.07 19.07 0 0 1 -.283 2.834c-.162 2.257.891 4.4 1.458 6.589.476 1.812.5 3.988-.557 5.446a7.887 7.887 0 0 0 -1.377 5.233c.506 2.834-.678 5.658-.88 8.523-.091 1.235 0 2.47-.111 3.7a21.591 21.591 0 0 1 -.729 3.472l-1.781 6.569c9.656 4.13 19.92 5.618 30.366 5.425 9.353-.182 18.574-2.115 27.724-4.049 2.784-.587 5.567-1.174 8.31-1.933-5.79-7.571-6.407-17.6-6.569-27.127a404.85 404.85 0 0 0 -3.55-47.468c2.8-5.294 4.049-11.195 5.2-17.076a28.874 28.874 0 0 0 .648-7.217c-.283-5.061-2.612-9.869-4.889-14.454-2.085-4.191-4.342-8.6-8.988-10.416a7.146 7.146 0 0 0 -6.914.759c-3.512 2.652-2.47 7.227-3.371 11.134-1.184 5.061-5.851 8.695-10.821 10.122a35.177 35.177 0 0 1 -11.377 1.063 2.024 2.024 0 0 1 -1.437-3.32c1.629-1.802 3.268-3.634 4.665-5.355z" fill="#001f40" transform="translate(-25.976 -51.474)"/><path d="m882.267 574.49c-7.875 6.438-15.841 12.936-24.931 17.491-5.334 2.672-11 4.646-16.2 7.521a6.466 6.466 0 0 0 -3.036 2.753 6.8 6.8 0 0 0 -.162 3.8l2.308 15.912c.638 4.312 4.778 7.085 8.1 9.838-.182-1.447-.476-2.571.213-3.856a12.907 12.907 0 0 1 .779-1.164c1.417-2.146 1.468-4.929 1.124-7.48s-1.012-5.061-.881-7.673a2.511 2.511 0 0 1 1.073-2.227c11.306-5.436 23.483-9.606 34.911-14.768a37.013 37.013 0 0 0 8.472-4.808 13.039 13.039 0 0 0 4.919-8.169 1.6 1.6 0 0 0 -.2-1.245 1.688 1.688 0 0 0 -.86-.506c-5.122-1.866-10.527-3.577-15.629-5.419z" fill="#a1616a" transform="translate(-26.048 -50.301)"/><path d="m860.239 508.531c-3.907.658-8.017 2.682-9.343 6.427a14.273 14.273 0 0 0 -.526 5.061 16.458 16.458 0 0 0 1.184 7.015 19.806 19.806 0 0 0 2.369 3.441c9.353 11.985 14.049 27.036 23.159 39.213.809 1.073 2.288 2.47 1.832 3.735a9.027 9.027 0 0 0 -.435 1.012 2.025 2.025 0 0 0 .668 1.771 4.323 4.323 0 0 1 1.1 1.609c.172.638-.253 1.468-.911 1.417 1.093 3.381 4.444 5.355 7.622 6.954 5.284 2.662 11.134 4.757 17.015 4.18 1.1-4.423 2.642-9.424 2.024-13.928a36.171 36.171 0 0 0 -3.391-9.879l-3.958-8.644c-3.371-7.379-6.772-14.808-11.469-21.418a32.394 32.394 0 0 1 -4.241-6.832c-1.2-3.128-4.514-5.324-6.519-8.006-2.976-4.049-6.073-8.1-10.061-11.023-1.594-1.236-4.165-2.429-6.119-2.105z" opacity=".1" transform="translate(-25.894 -51.107)"/><path d="m860.24 506.561c-3.907.658-8.017 2.682-9.343 6.417a14.368 14.368 0 0 0 -.526 5.061 16.458 16.458 0 0 0 1.184 7.015 19.775 19.775 0 0 0 2.368 3.442c9.353 11.985 14.05 27.036 23.159 39.213.81 1.073 2.288 2.47 1.832 3.735a9.105 9.105 0 0 0 -.435 1.012 2.025 2.025 0 0 0 .668 1.771 4.324 4.324 0 0 1 1.1 1.61c.172.637-.253 1.468-.911 1.417 1.093 3.381 4.443 5.354 7.622 6.954 5.284 2.662 11.134 4.758 17.015 4.181 1.1-4.423 2.642-9.424 2.025-13.928a36.142 36.142 0 0 0 -3.391-9.879l-3.957-8.644c-3.371-7.379-6.772-14.809-11.469-21.418a32.225 32.225 0 0 1 -4.241-6.843c-1.2-3.118-4.515-5.314-6.519-8-2.976-4.049-6.073-8.1-10.061-11.023-1.596-1.223-4.167-2.417-6.12-2.093z" fill="#001f40" transform="translate(-25.895 -51.131)"/><path d="m851.526 422.873c-2.824.243-5.729.506-8.28 1.741s-4.727 3.664-4.808 6.5c0 1.65.607 3.29.395 4.919-.354 2.713-2.875 4.545-4.17 6.944-2.268 4.17-.506 9.474 2.429 13.159s6.913 6.519 9.93 10.183a26.317 26.317 0 0 1 5.486 21.175 16.809 16.809 0 0 0 -.537 4.423c.233 2.652 2.025 4.849 3.806 6.873a317.478 317.478 0 0 1 24.009 31.945 86.3 86.3 0 0 1 5.911 10.122c1.721 3.624 3.037 7.491 5.426 10.7a28.254 28.254 0 0 0 7.966 6.833 56.261 56.261 0 0 0 25.508 8.229l-5.213-12.926c-.921-2.3-1.873-4.717-1.569-7.177.577-4.656 5.274-7.713 6.8-12.147 1.012-2.854.557-6-.273-8.907-1.842-6.549-5.526-12.44-7.51-18.949a38.468 38.468 0 0 1 -1.132-17.623c.435-2.591 1.144-5.193.82-7.794-.962-7.916-10.244-11.7-14.535-18.412-2.773-4.312-3.31-9.626-4.241-14.667-1.346-7.359-3.745-14.707-8.381-20.578s-11.782-10.122-19.232-9.808c-3.988.152-7.8 1.538-11.56 2.895l-9.758 3.553" fill="#3f3d56" transform="translate(-26.098 -52.217)"/><g opacity=".1" transform="translate(807.56 384.23)"><path d="m894.347 439.176c.84 4.545 1.366 9.312 3.492 13.371-.293-1.579-.537-3.168-.83-4.727a58.936 58.936 0 0 0 -3.259-11.6c.25.98.425 1.964.597 2.956z" transform="translate(-832.924 -436.22)"/><path d="m912.086 479.583a38.654 38.654 0 0 0 1.134 17.633 45.581 45.581 0 0 0 1.66 4.555 38.54 38.54 0 0 1 -.132-13.543c.435-2.591 1.144-5.193.82-7.794a12.146 12.146 0 0 0 -2.631-6.073c-.152 1.76-.557 3.491-.851 5.222z" transform="translate(-832.706 -435.754)"/><path d="m923.362 524.257a48.887 48.887 0 0 0 -2.024-5.587 12.421 12.421 0 0 1 -.385 5.851c-1.528 4.423-6.235 7.49-6.8 12.147-.3 2.459.638 4.879 1.569 7.177.344.86.688 1.731 1.012 2.591a8.294 8.294 0 0 1 0-1.123c.577-4.656 5.274-7.713 6.8-12.147 1.093-2.856.658-6.004-.172-8.909z" transform="translate(-832.676 -435.213)"/><path d="m896.217 548.912a28.331 28.331 0 0 1 -7.966-6.843c-2.4-3.209-3.715-7.085-5.436-10.7a85.405 85.405 0 0 0 -5.911-10.122 317.9 317.9 0 0 0 -24-31.956c-.314-.354-.617-.719-.921-1.083a10.394 10.394 0 0 0 -.233 2.854c.233 2.652 2.024 4.848 3.806 6.873a317.545 317.545 0 0 1 24.009 31.945 86.247 86.247 0 0 1 5.912 10.12c1.721 3.624 3.037 7.49 5.425 10.7a28.266 28.266 0 0 0 7.966 6.832 56.259 56.259 0 0 0 25.508 8.229l-3.543-8.705a56.321 56.321 0 0 1 -24.617-8.148z" transform="translate(-833.437 -435.585)"/><path d="m844.359 457.366c-3.037-3.664-6.994-6.448-9.93-10.173-.263-.344-.516-.7-.769-1.073a14.738 14.738 0 0 0 3.431 9.707c2.936 3.735 6.914 6.519 9.93 10.183a25.31 25.31 0 0 1 3.037 4.616 26.316 26.316 0 0 0 -5.699-13.26z" transform="translate(-833.658 -436.099)"/></g><path d="m656 354.683-7.338-7.379a3.9 3.9 0 0 0 -5.537 0l-46.086 45.661-19.5-19.637a3.887 3.887 0 0 0 -5.5 0l-7.42 7.339a3.938 3.938 0 0 0 0 5.537l29.607 29.83a3.927 3.927 0 0 0 5.527 0l56.247-55.814a3.9 3.9 0 0 0 0-5.537z" fill="#fff" transform="translate(-37.859 -30.629)"/></svg>