<svg width="218" height="212" xmlns="http://www.w3.org/2000/svg" xml:space="preserve" version="1.1">

 <g>
  <title>Layer 1</title>
  <g id="BACKGROUND"/>
  <g id="OBJECTS">
   <g id="svg_1">
    <g id="svg_2">
     <g id="svg_3">
      <path id="svg_4" fill="#C1D5E8" clip-rule="evenodd" fill-rule="evenodd" d="m141.92,15.26c3.04,-0.19 6.52,0.99 9.17,2.16c7.81,3.45 15.29,7.57 22.41,11.59c2.34,1.32 4.74,2.8 7.26,4.08c5.06,2.56 9.84,4.59 14.9,7.77c2.72,1.71 5.67,3.78 6.75,6.49c2.03,5.12 -0.47,11.48 -2.29,15.16c-2.17,4.37 -4.43,8.46 -6.5,12.48c-4.36,8.47 -8.53,16.16 -13.12,24.83c-4.61,8.72 -8.67,16.94 -12.73,25.22c-3.02,6.15 -6.53,12.54 -9.81,18.72c-1.84,3.46 -3.34,6.87 -7.01,8.28c-0.74,0.28 -2.22,0.52 -3.56,0.38c-2.97,-0.3 -5.86,-2.05 -8.53,-3.31c-2.69,-1.27 -5.34,-2.73 -7.77,-4.08c-9.74,-5.4 -21.29,-10.63 -30.95,-16.43c-4.66,-2.79 -10.24,-6.16 -12.61,-10.95c-2.72,-5.52 0.85,-13.25 3.06,-17.7c2.18,-4.41 4.31,-8.17 6.49,-11.85c2.36,-3.96 4.64,-8.03 6.75,-11.71c4.31,-7.5 9.09,-15.86 12.73,-24.07c1.8,-4.05 3.99,-8.59 5.99,-12.35c3.03,-5.71 6.43,-12.01 10.06,-17.57c1.25,-1.92 2.66,-3.92 4.08,-5.09c1.14,-0.96 2.83,-1.9 5.23,-2.05z" class="st0"/>
      <g id="svg_5">
       <path id="svg_6" fill="#FFFFFF" d="m169.9,35.87c0.11,0.03 0.28,0 0.28,0.13c1.9,-0.37 2.8,-2.42 3.62,-3.87c0.4,-0.7 0.85,-1.46 1.21,-2.26c-0.5,-0.29 -1.01,-0.58 -1.51,-0.86c-0.27,-0.15 -0.55,-0.31 -0.82,-0.46c-0.5,0.75 -0.96,1.57 -1.39,2.38c-0.76,1.46 -2.07,3.18 -1.39,4.94z" class="st1"/>
       <path id="svg_7" fill="#FFFFFF" d="m165.31,43.76c-1.08,1.66 -2.65,3.86 -3.49,5.75c-0.62,1.4 -0.71,2.87 0.56,2.94c0.96,0.05 1.82,-1.64 2.23,-2.27c0.68,-1.04 1.38,-1.93 1.81,-2.67c1.23,-2.1 2.5,-3.74 2.37,-6.28c-1.73,-1.29 -2.71,1.35 -3.48,2.53z" class="st1"/>
       <path id="svg_8" fill="#FFFFFF" d="m157.22,59.26c-1.77,2 -3.78,5.33 -4.88,8.02c-0.35,0.84 -0.84,2.03 0.14,2.67c1.21,0.07 1.86,-1.1 2.37,-1.87c0.61,-0.92 1.06,-1.92 1.53,-2.81c0.99,-1.85 2.41,-3.85 2.37,-6.01c-0.29,-0.27 -1.28,-0.45 -1.53,0z" class="st1"/>
       <path id="svg_9" fill="#FFFFFF" d="m146.77,77.3c-0.86,0.92 -1.53,2.51 -2.51,4.28c-0.45,0.8 -2.73,3.72 -1.39,4.54c0.78,0.48 2,-0.84 2.37,-1.34c0.73,-0.98 1.12,-1.87 1.53,-2.54c1.12,-1.8 2.31,-3.38 2.23,-5.48c-0.8,-0.61 -1.72,0 -2.23,0.54z" class="st1"/>
       <path id="svg_10" fill="#FFFFFF" d="m138.82,94.14c0,0.17 -0.24,0.12 -0.28,0.27c-1.52,1.19 -2.43,2.64 -3.48,4.68c-0.51,1 -2.92,4.78 -1.53,5.48c1.02,0.52 1.88,-0.92 2.37,-1.61c1.27,-1.76 2.17,-3.52 3.07,-5.34c0.46,-0.93 1.27,-1.91 0.97,-3.08c-0.31,-0.19 -0.6,-0.4 -1.12,-0.4z" class="st1"/>
       <path id="svg_11" fill="#FFFFFF" d="m128.79,112.32c-0.99,1.32 -1.92,2.63 -3.06,4.68c-0.45,0.8 -3,4.63 -1.12,4.94c0.92,0.15 1.67,-1.15 2.09,-1.74c0.59,-0.83 1.13,-1.77 1.53,-2.41c1.12,-1.76 2.26,-3.34 2.09,-5.48c-0.29,-0.26 -1.28,-0.45 -1.53,0.01z" class="st1"/>
       <path id="svg_12" fill="#FFFFFF" d="m120.57,129.96c-0.3,-0.27 -1.28,-0.45 -1.54,0c-0.97,1.06 -1.75,2 -2.65,4.01c-0.19,0.41 -0.91,1.68 -1.21,2.78c0.65,0.33 1.3,0.66 1.96,1c0.84,-0.95 1.55,-2.47 1.76,-2.84c0.93,-1.65 1.83,-3.12 1.68,-4.95z" class="st1"/>
      </g>
      <g id="svg_13">
       <g id="svg_14">
        <g id="svg_15">
         <path id="svg_16" fill="#334F70" clip-rule="evenodd" fill-rule="evenodd" opacity="0.38" d="m143.95,118.01c-0.24,0.94 -1.39,0.83 -2.02,1.01c-4.56,1.3 -8.83,4.25 -8.94,10.24c-0.12,6.35 5.14,11.04 11.54,10.38c2.78,-0.29 4.88,-1.68 6.34,-3.32c0.53,-0.59 0.96,-1.87 2.31,-1.3c1.11,2.13 -1.3,3.77 -2.74,4.76c-8.4,5.8 -20.66,-0.45 -19.61,-11.68c0.48,-5.11 4.69,-10.08 9.95,-10.67c1.24,-0.13 2.45,-0.09 3.17,0.58z" class="st2"/>
         <g id="svg_17">
          <path id="svg_18" fill="#FFFFFF" clip-rule="evenodd" fill-rule="evenodd" d="m142.66,122.19c1.31,-0.15 3.54,0.04 4.76,0.72c2.42,1.34 4.53,4.86 3.61,8.36c-0.84,3.21 -6.23,7.36 -10.96,5.05c-1.39,-0.68 -3.14,-2.65 -3.61,-4.47c-1.13,-4.42 1.6,-8.31 4.33,-9.37c0.52,-0.21 1.15,-0.21 1.87,-0.29z" class="st3"/>
          <path id="svg_19" fill="#334F70" clip-rule="evenodd" fill-rule="evenodd" opacity="0.38" d="m142.8,123.05c1.48,2.1 2.37,5.45 2.89,8.65c0.15,0.95 0.72,2.21 -0.14,3.03c-1.22,0.27 -1.52,-1.08 -1.88,-2.02c-0.32,-0.86 -0.62,-1.96 -0.87,-2.89c-0.53,-1.98 -1.34,-4.9 -1.01,-6.34c0,-0.25 0.11,-0.38 0.29,-0.43c0.24,0 0.48,0 0.72,0z" class="st2"/>
         </g>
        </g>
        <g id="svg_20">
         <path id="svg_21" fill="#334F70" clip-rule="evenodd" fill-rule="evenodd" opacity="0.38" d="m159.19,93.01c-0.24,0.94 -1.39,0.83 -2.02,1.01c-4.56,1.3 -8.83,4.25 -8.94,10.24c-0.12,6.35 5.14,11.04 11.54,10.38c2.78,-0.28 4.88,-1.68 6.34,-3.32c0.53,-0.59 0.96,-1.87 2.31,-1.3c1.11,2.13 -1.3,3.77 -2.74,4.76c-8.4,5.8 -20.66,-0.45 -19.61,-11.68c0.48,-5.11 4.69,-10.09 9.95,-10.67c1.24,-0.14 2.45,-0.09 3.17,0.58z" class="st2"/>
         <g id="svg_22">
          <path id="svg_23" fill="#FFFFFF" clip-rule="evenodd" fill-rule="evenodd" d="m157.9,97.19c1.31,-0.15 3.54,0.05 4.76,0.72c2.41,1.34 4.52,4.86 3.6,8.36c-0.84,3.21 -6.23,7.36 -10.96,5.05c-1.38,-0.68 -3.14,-2.65 -3.6,-4.47c-1.14,-4.43 1.6,-8.31 4.33,-9.37c0.52,-0.21 1.15,-0.21 1.87,-0.29z" class="st3"/>
          <path id="svg_24" fill="#334F70" clip-rule="evenodd" fill-rule="evenodd" opacity="0.38" d="m158.04,98.06c1.48,2.1 2.37,5.45 2.88,8.65c0.15,0.95 0.71,2.21 -0.14,3.03c-1.22,0.27 -1.52,-1.08 -1.88,-2.02c-0.32,-0.85 -0.62,-1.96 -0.87,-2.88c-0.53,-1.98 -1.34,-4.9 -1.01,-6.34c0,-0.25 0.11,-0.38 0.29,-0.44c0.25,0 0.49,0 0.73,0z" class="st2"/>
         </g>
        </g>
        <g id="svg_25">
         <path id="svg_26" fill="#334F70" clip-rule="evenodd" fill-rule="evenodd" opacity="0.38" d="m172.13,68.26c-0.24,0.95 -1.39,0.83 -2.02,1.01c-4.56,1.3 -8.83,4.25 -8.94,10.24c-0.12,6.35 5.14,11.04 11.54,10.38c2.78,-0.28 4.88,-1.68 6.35,-3.32c0.53,-0.58 0.96,-1.86 2.31,-1.3c1.11,2.13 -1.3,3.77 -2.74,4.76c-8.4,5.8 -20.66,-0.45 -19.61,-11.68c0.48,-5.11 4.69,-10.08 9.95,-10.67c1.23,-0.14 2.44,-0.09 3.16,0.58z" class="st2"/>
         <g id="svg_27">
          <path id="svg_28" fill="#FFFFFF" clip-rule="evenodd" fill-rule="evenodd" d="m170.84,72.44c1.31,-0.15 3.54,0.04 4.76,0.72c2.41,1.34 4.53,4.86 3.6,8.36c-0.84,3.21 -6.23,7.36 -10.96,5.04c-1.38,-0.68 -3.14,-2.64 -3.61,-4.47c-1.13,-4.43 1.6,-8.31 4.33,-9.37c0.53,-0.2 1.16,-0.2 1.88,-0.28z" class="st3"/>
          <path id="svg_29" fill="#334F70" clip-rule="evenodd" fill-rule="evenodd" opacity="0.38" d="m170.98,73.06c1.48,2.1 2.36,5.45 2.88,8.66c0.15,0.95 0.72,2.21 -0.15,3.03c-1.22,0.27 -1.52,-1.08 -1.87,-2.02c-0.32,-0.85 -0.62,-1.96 -0.86,-2.88c-0.53,-1.98 -1.34,-4.9 -1.01,-6.35c0,-0.25 0.11,-0.37 0.29,-0.43c0.24,-0.01 0.48,-0.01 0.72,-0.01z" class="st2"/>
         </g>
        </g>
        <g id="svg_30">
         <path id="svg_31" fill="#334F70" clip-rule="evenodd" fill-rule="evenodd" opacity="0.38" d="m185.87,41.51c-0.24,0.95 -1.39,0.83 -2.02,1.01c-4.56,1.3 -8.83,4.25 -8.94,10.24c-0.12,6.36 5.14,11.04 11.54,10.38c2.78,-0.28 4.88,-1.68 6.34,-3.32c0.53,-0.59 0.96,-1.87 2.31,-1.3c1.11,2.13 -1.3,3.77 -2.74,4.76c-8.4,5.79 -20.66,-0.45 -19.61,-11.68c0.48,-5.11 4.7,-10.08 9.95,-10.67c1.23,-0.13 2.44,-0.08 3.17,0.58z" class="st2"/>
         <g id="svg_32">
          <path id="svg_33" fill="#FFFFFF" clip-rule="evenodd" fill-rule="evenodd" d="m184.57,45.7c1.31,-0.15 3.54,0.04 4.76,0.72c2.42,1.34 4.53,4.86 3.61,8.36c-0.84,3.21 -6.23,7.36 -10.96,5.05c-1.38,-0.68 -3.14,-2.65 -3.6,-4.47c-1.13,-4.43 1.6,-8.31 4.33,-9.37c0.52,-0.21 1.14,-0.21 1.86,-0.29z" class="st3"/>
          <path id="svg_34" fill="#334F70" clip-rule="evenodd" fill-rule="evenodd" opacity="0.38" d="m184.71,47.06c1.48,2.1 2.37,5.45 2.89,8.65c0.15,0.95 0.72,2.21 -0.15,3.03c-1.22,0.27 -1.52,-1.08 -1.87,-2.02c-0.32,-0.86 -0.62,-1.96 -0.87,-2.88c-0.53,-1.98 -1.34,-4.9 -1.01,-6.35c0,-0.25 0.11,-0.37 0.29,-0.43c0.24,0 0.48,0 0.72,0z" class="st2"/>
         </g>
        </g>
       </g>
       <g id="svg_35">
        <g id="svg_36">
         <path id="svg_37" fill="#334F70" clip-rule="evenodd" fill-rule="evenodd" opacity="0.38" d="m108.01,98.97c-0.24,0.94 -1.39,0.83 -2.02,1.01c-4.56,1.3 -8.83,4.25 -8.94,10.24c-0.12,6.35 5.14,11.04 11.54,10.38c2.78,-0.28 4.88,-1.68 6.35,-3.32c0.53,-0.59 0.96,-1.86 2.31,-1.3c1.11,2.13 -1.3,3.77 -2.74,4.76c-8.4,5.8 -20.66,-0.45 -19.61,-11.68c0.48,-5.11 4.69,-10.08 9.95,-10.67c1.23,-0.14 2.44,-0.09 3.16,0.58z" class="st2"/>
         <g id="svg_38">
          <path id="svg_39" fill="#FFFFFF" clip-rule="evenodd" fill-rule="evenodd" d="m106.72,103.15c1.31,-0.15 3.54,0.05 4.76,0.72c2.42,1.34 4.52,4.86 3.61,8.36c-0.84,3.21 -6.23,7.36 -10.96,5.05c-1.38,-0.68 -3.14,-2.65 -3.61,-4.47c-1.13,-4.43 1.6,-8.31 4.33,-9.37c0.52,-0.21 1.15,-0.21 1.87,-0.29z" class="st3"/>
          <path id="svg_40" fill="#334F70" clip-rule="evenodd" fill-rule="evenodd" opacity="0.38" d="m106.86,104.05c1.48,2.1 2.37,5.45 2.89,8.65c0.15,0.95 0.72,2.21 -0.14,3.03c-1.22,0.27 -1.53,-1.08 -1.88,-2.02c-0.32,-0.85 -0.62,-1.96 -0.87,-2.88c-0.53,-1.98 -1.34,-4.9 -1.01,-6.34c-0.01,-0.25 0.11,-0.37 0.29,-0.43c0.24,-0.01 0.48,-0.01 0.72,-0.01z" class="st2"/>
         </g>
        </g>
        <g id="svg_41">
         <path id="svg_42" fill="#334F70" clip-rule="evenodd" fill-rule="evenodd" opacity="0.38" d="m123.25,73.97c-0.24,0.94 -1.39,0.83 -2.02,1.01c-4.56,1.3 -8.83,4.25 -8.94,10.24c-0.12,6.35 5.14,11.04 11.54,10.38c2.78,-0.28 4.88,-1.68 6.35,-3.32c0.53,-0.59 0.96,-1.87 2.3,-1.3c1.11,2.13 -1.3,3.77 -2.74,4.76c-8.4,5.79 -20.66,-0.45 -19.61,-11.68c0.48,-5.11 4.69,-10.08 9.95,-10.67c1.24,-0.14 2.45,-0.09 3.17,0.58z" class="st2"/>
         <g id="svg_43">
          <path id="svg_44" fill="#FFFFFF" clip-rule="evenodd" fill-rule="evenodd" d="m121.95,78.15c1.31,-0.15 3.54,0.04 4.76,0.72c2.41,1.34 4.53,4.86 3.6,8.36c-0.84,3.21 -6.23,7.37 -10.96,5.05c-1.38,-0.68 -3.14,-2.65 -3.6,-4.47c-1.14,-4.42 1.6,-8.31 4.33,-9.37c0.53,-0.21 1.16,-0.21 1.87,-0.29z" class="st3"/>
          <path id="svg_45" fill="#334F70" clip-rule="evenodd" fill-rule="evenodd" opacity="0.38" d="m122.1,79.06c1.48,2.1 2.37,5.45 2.89,8.65c0.15,0.95 0.71,2.21 -0.15,3.03c-1.22,0.27 -1.52,-1.08 -1.87,-2.02c-0.32,-0.85 -0.62,-1.96 -0.87,-2.88c-0.53,-1.98 -1.34,-4.9 -1.01,-6.34c-0.01,-0.25 0.11,-0.37 0.29,-0.43c0.24,-0.01 0.48,-0.01 0.72,-0.01z" class="st2"/>
         </g>
        </g>
        <g id="svg_46">
         <path id="svg_47" fill="#334F70" clip-rule="evenodd" fill-rule="evenodd" opacity="0.38" d="m136.19,49.22c-0.24,0.94 -1.39,0.83 -2.02,1.01c-4.56,1.31 -8.83,4.25 -8.94,10.24c-0.12,6.35 5.14,11.04 11.54,10.38c2.78,-0.29 4.88,-1.68 6.35,-3.32c0.53,-0.59 0.96,-1.87 2.31,-1.3c1.11,2.13 -1.3,3.77 -2.74,4.76c-8.4,5.8 -20.66,-0.45 -19.61,-11.68c0.48,-5.11 4.69,-10.08 9.95,-10.67c1.23,-0.14 2.44,-0.09 3.16,0.58z" class="st2"/>
         <g id="svg_48">
          <path id="svg_49" fill="#FFFFFF" clip-rule="evenodd" fill-rule="evenodd" d="m134.9,53.4c1.31,-0.15 3.54,0.04 4.76,0.72c2.42,1.34 4.53,4.86 3.61,8.37c-0.84,3.21 -6.23,7.36 -10.96,5.05c-1.38,-0.68 -3.14,-2.65 -3.6,-4.47c-1.13,-4.43 1.6,-8.31 4.33,-9.37c0.51,-0.22 1.14,-0.22 1.86,-0.3z" class="st3"/>
          <path id="svg_50" fill="#334F70" clip-rule="evenodd" fill-rule="evenodd" opacity="0.38" d="m135.04,54.06c1.48,2.1 2.36,5.45 2.89,8.65c0.15,0.95 0.72,2.21 -0.14,3.03c-1.22,0.27 -1.53,-1.08 -1.87,-2.02c-0.32,-0.85 -0.62,-1.96 -0.87,-2.88c-0.53,-1.98 -1.34,-4.9 -1.01,-6.34c-0.01,-0.25 0.11,-0.38 0.29,-0.44c0.23,0 0.47,0 0.71,0z" class="st2"/>
         </g>
        </g>
        <g id="svg_51">
         <path id="svg_52" fill="#334F70" clip-rule="evenodd" fill-rule="evenodd" opacity="0.38" d="m149.92,22.47c-0.24,0.95 -1.39,0.83 -2.02,1.01c-4.55,1.3 -8.83,4.25 -8.94,10.24c-0.12,6.35 5.13,11.04 11.53,10.38c2.78,-0.28 4.88,-1.68 6.35,-3.32c0.53,-0.59 0.96,-1.87 2.31,-1.3c1.11,2.13 -1.3,3.77 -2.74,4.76c-8.4,5.8 -20.66,-0.45 -19.61,-11.68c0.48,-5.11 4.69,-10.08 9.95,-10.67c1.24,-0.13 2.45,-0.08 3.17,0.58z" class="st2"/>
         <g id="svg_53">
          <path id="svg_54" fill="#FFFFFF" clip-rule="evenodd" fill-rule="evenodd" d="m148.63,26.66c1.31,-0.15 3.54,0.05 4.76,0.72c2.42,1.34 4.52,4.86 3.61,8.36c-0.85,3.21 -6.23,7.36 -10.96,5.05c-1.39,-0.68 -3.14,-2.65 -3.61,-4.47c-1.13,-4.42 1.6,-8.3 4.33,-9.37c0.53,-0.21 1.15,-0.21 1.87,-0.29z" class="st3"/>
          <path id="svg_55" fill="#334F70" clip-rule="evenodd" fill-rule="evenodd" opacity="0.38" d="m148.77,28.06c1.48,2.1 2.36,5.45 2.88,8.65c0.15,0.95 0.71,2.21 -0.14,3.03c-1.22,0.27 -1.53,-1.08 -1.88,-2.02c-0.32,-0.85 -0.62,-1.96 -0.87,-2.88c-0.53,-1.98 -1.34,-4.9 -1.01,-6.35c-0.01,-0.25 0.11,-0.37 0.29,-0.43c0.25,0 0.49,0 0.73,0z" class="st2"/>
         </g>
        </g>
       </g>
      </g>
     </g>
     <g id="svg_56">
      <g id="svg_57">
       <path id="svg_58" fill="#E8BD54" clip-rule="evenodd" fill-rule="evenodd" d="m14.99,101.39l4.06,5.13c2,2.53 7.77,1.3 12.88,-2.75c5.11,-4.04 7.64,-9.37 5.64,-11.9l-4.06,-5.13l-18.52,14.65z" class="st4"/>
       <path id="svg_59" fill="#334F70" clip-rule="evenodd" fill-rule="evenodd" opacity="0.14" d="m14.99,101.39l4.06,5.13c2,2.53 7.77,1.3 12.88,-2.75c5.11,-4.04 7.64,-9.37 5.64,-11.9l-4.06,-5.13l-18.52,14.65z" class="st5"/>
       <path id="svg_60" fill="#E8BD54" clip-rule="evenodd" fill-rule="evenodd" d="m33.51,86.74c2,2.53 -0.52,7.86 -5.64,11.9c-5.11,4.05 -10.88,5.28 -12.88,2.75c-2,-2.53 0.52,-7.86 5.64,-11.9c5.11,-4.05 10.88,-5.28 12.88,-2.75z" class="st4"/>
       <path id="svg_61" fill="#FFFFFF" d="m32.11,85.75c-0.48,-0.18 -1.02,-0.28 -1.62,-0.31c-1.04,0.95 -2.26,2.27 -3.44,3.54c-2,2.14 -4.3,4.65 -6.14,6.79c-1.75,2.03 -4.19,4.66 -5.12,6.34c0.36,0.22 0.78,0.38 1.24,0.48c3.57,-2.91 8.62,-8.91 12.59,-13.77c0.76,-0.93 1.83,-2.07 2.49,-3.07z" class="st1"/>
      </g>
      <g id="svg_62">
       <path id="svg_63" fill="#E8BD54" clip-rule="evenodd" fill-rule="evenodd" d="m82.92,69.86l0.41,6.53c0.2,3.22 5.64,5.49 12.15,5.09c6.51,-0.41 11.62,-3.34 11.42,-6.56l-0.41,-6.53l-23.57,1.47z" class="st4"/>
       <path id="svg_64" fill="#334F70" clip-rule="evenodd" fill-rule="evenodd" opacity="0.14" d="m82.92,69.86l0.41,6.53c0.21,3.22 5.63,5.5 12.15,5.09c6.51,-0.41 11.62,-3.34 11.42,-6.56l-0.41,-6.53l-23.57,1.47z" class="st5"/>
       <path id="svg_65" fill="#E8BD54" clip-rule="evenodd" fill-rule="evenodd" d="m106.49,68.39c0.2,3.22 -4.91,6.16 -11.42,6.56c-6.51,0.41 -11.95,-1.87 -12.15,-5.09c-0.2,-3.22 4.91,-6.15 11.42,-6.56c6.51,-0.41 11.95,1.87 12.15,5.09z" class="st4"/>
       <path id="svg_66" fill="#FFFFFF" d="m105.91,66.78c-0.29,-0.42 -0.67,-0.81 -1.15,-1.18c-1.4,0.19 -3.15,0.58 -4.84,0.95c-2.87,0.61 -6.19,1.37 -8.92,2.07c-2.6,0.67 -6.09,1.43 -7.82,2.29c0.17,0.39 0.42,0.76 0.75,1.11c4.59,-0.35 12.16,-2.4 18.2,-4.13c1.13,-0.34 2.66,-0.66 3.78,-1.11z" class="st1"/>
      </g>
      <g id="svg_67">
       <g id="svg_68">
        <path id="svg_69" fill="#334F70" clip-rule="evenodd" fill-rule="evenodd" d="m47.98,86.88c-0.64,-0.47 -2.11,-1.41 -3.06,-2.29c-2.9,-2.69 -5.06,-7.54 -0.64,-9.99c1.61,-0.89 4.23,-0.78 6.15,-0.13c2.66,0.91 6.59,3.27 9.85,5.63c3.31,2.4 7.52,5.57 8.58,8.03c1.08,2.53 0.39,6.15 -2.98,7.57c-3.06,1.29 -6.43,-1.05 -10.16,-3.42c-2.73,-1.74 -5.11,-3.49 -7.74,-5.4z" class="st6"/>
        <path id="svg_70" fill="#C64F69" d="m44.92,84.58c0.95,0.89 2.42,1.83 3.06,2.29c1.38,1 2.7,1.97 4.03,2.91c-0.25,-3.94 0.74,-9.09 7.12,-10.5c-3,-2.07 -6.34,-4.01 -8.7,-4.81c-1.92,-0.65 -4.54,-0.76 -6.15,0.13c-4.42,2.45 -2.25,7.29 0.64,9.98z" class="st7"/>
       </g>
       <g id="svg_71">
        <path id="svg_72" fill="#FFFFFF" clip-rule="evenodd" fill-rule="evenodd" d="m55.89,89.2c-0.52,-1.06 -2.2,-2.14 -3.92,-3.09c-0.74,-0.41 -1.93,-1.05 -2.38,-0.44c-0.53,0.74 0.72,1.69 1.17,2.02c1.42,1.06 3.34,2.06 4.52,2.3c0.27,-0.06 0.56,-0.47 0.61,-0.79z" class="st3"/>
        <path id="svg_73" fill="#FFFFFF" clip-rule="evenodd" fill-rule="evenodd" d="m52.99,84.51c1.39,-1.31 -1.96,-3.81 -2.76,-2.45c-0.35,0.59 0.82,2.41 1.8,2.72c0.36,0.11 0.72,-0.05 0.96,-0.27z" class="st3"/>
       </g>
      </g>
      <g id="svg_74">
       <g id="svg_75">
        <path id="svg_76" fill="#FF8C9B" d="m79.83,34.76c-1.17,3.03 -2.16,6.13 -2.57,9.78c-0.41,3.64 0.88,6.49 3.31,7.26c2.69,0.85 5.17,-1.49 6.62,-3.31c1.96,-2.46 3.41,-5.98 4.62,-9.49c-3.19,-5.39 -8.66,-5.07 -11.98,-4.24z" class="st8"/>
        <path id="svg_77" fill="#25364F" d="m89.87,20.09c-0.41,0.05 -1.24,0.19 -1.66,0.38c-3.29,1.57 -5.39,6.99 -6.88,10.57c-0.52,1.25 -1.03,2.48 -1.51,3.72c3.32,-0.83 8.79,-1.15 11.99,4.24c0.49,-1.4 0.93,-2.8 1.36,-4.14c0.81,-2.53 1.84,-5.17 2.04,-7.77c0.36,-4.6 -1.67,-7.48 -5.34,-7z" class="st9"/>
       </g>
       <g id="svg_78">
        <path id="svg_79" fill="#FFFFFF" clip-rule="evenodd" fill-rule="evenodd" d="m87.15,25.6c0.03,1.31 -1.08,3.23 -2.29,5.05c-0.52,0.78 -1.37,2.02 -2.12,1.64c-0.9,-0.46 -0.15,-2.03 0.12,-2.59c0.85,-1.77 2.24,-3.74 3.29,-4.57c0.3,-0.07 0.79,0.18 1,0.47z" class="st3"/>
        <path id="svg_80" fill="#FFFFFF" clip-rule="evenodd" fill-rule="evenodd" d="m86.69,31.71c2.04,0.59 0.01,4.76 -1.47,3.82c-0.64,-0.41 -0.42,-2.79 0.39,-3.6c0.28,-0.29 0.72,-0.32 1.08,-0.22z" class="st3"/>
        <path id="svg_81" fill="#FFFFFF" clip-rule="evenodd" fill-rule="evenodd" d="m79.79,41.55c0.74,0.13 0.98,1.2 0.8,2.27c-0.14,0.86 -0.79,2.46 -1.69,1.99c-0.4,-0.2 -0.7,-1.03 -0.58,-1.93c0.15,-1.05 0.52,-2.5 1.47,-2.33z" class="st3"/>
       </g>
      </g>
     </g>
     <g id="svg_82">
      <g id="svg_83">
       <path id="svg_84" fill="#E8BD54" clip-rule="evenodd" fill-rule="evenodd" d="m193.17,71.34l-5.89,2.86c-2.9,1.41 -2.94,7.3 -0.1,13.17c2.85,5.87 7.5,9.48 10.41,8.08l5.89,-2.86l-10.31,-21.25z" class="st4"/>
       <path id="svg_85" fill="#334F70" clip-rule="evenodd" fill-rule="evenodd" opacity="0.14" d="m193.17,71.34l-5.89,2.86c-2.9,1.41 -2.94,7.3 -0.1,13.17c2.85,5.87 7.5,9.48 10.41,8.08l5.89,-2.86l-10.31,-21.25z" class="st5"/>
       <path id="svg_86" fill="#E8BD54" clip-rule="evenodd" fill-rule="evenodd" d="m203.48,92.58c-2.9,1.41 -7.56,-2.21 -10.41,-8.07c-2.85,-5.87 -2.8,-11.76 0.1,-13.17c2.9,-1.41 7.56,2.21 10.41,8.07c2.84,5.87 2.8,11.76 -0.1,13.17z" class="st4"/>
       <path id="svg_87" fill="#FFFFFF" d="m204.75,91.43c0.28,-0.43 0.5,-0.94 0.65,-1.51c-0.71,-1.22 -1.73,-2.69 -2.71,-4.12c-1.66,-2.42 -3.61,-5.21 -5.3,-7.47c-1.61,-2.15 -3.64,-5.09 -5.08,-6.37c-0.3,0.31 -0.54,0.68 -0.74,1.11c2.07,4.12 6.84,10.34 10.73,15.26c0.73,0.95 1.61,2.24 2.45,3.1z" class="st1"/>
      </g>
      <g id="svg_88">
       <path id="svg_89" fill="#E8BD54" clip-rule="evenodd" fill-rule="evenodd" d="m164.15,153.83l3.69,5.41c1.82,2.66 7.65,1.84 13.04,-1.83c5.39,-3.67 8.28,-8.81 6.47,-11.47l-3.69,-5.41l-19.51,13.3z" class="st4"/>
       <path id="svg_90" fill="#334F70" clip-rule="evenodd" fill-rule="evenodd" opacity="0.14" d="m164.15,153.83l3.69,5.41c1.82,2.66 7.65,1.85 13.04,-1.83c5.39,-3.67 8.28,-8.81 6.47,-11.47l-3.69,-5.41l-19.51,13.3z" class="st5"/>
       <path id="svg_91" fill="#E8BD54" clip-rule="evenodd" fill-rule="evenodd" d="m183.66,140.53c1.81,2.66 -1.08,7.8 -6.47,11.48c-5.39,3.67 -11.23,4.49 -13.04,1.83c-1.82,-2.66 1.08,-7.8 6.46,-11.47c5.39,-3.69 11.23,-4.5 13.05,-1.84z" class="st4"/>
       <path id="svg_92" fill="#FFFFFF" d="m182.33,139.44c-0.46,-0.22 -1,-0.36 -1.59,-0.43c-1.11,0.88 -2.41,2.1 -3.68,3.28c-2.15,2 -4.62,4.34 -6.61,6.34c-1.89,1.9 -4.5,4.35 -5.55,5.96c0.35,0.25 0.75,0.44 1.21,0.57c3.77,-2.65 9.23,-8.28 13.53,-12.85c0.82,-0.86 1.96,-1.92 2.69,-2.87z" class="st1"/>
      </g>
      <g id="svg_93">
       <g id="svg_94">
        <path id="svg_95" fill="#334F70" clip-rule="evenodd" fill-rule="evenodd" d="m166.52,123.67c-0.64,0.46 -2.12,1.4 -3.07,2.27c-2.91,2.68 -5.11,7.5 -0.7,9.98c1.6,0.9 4.23,0.81 6.15,0.16c2.67,-0.89 6.61,-3.23 9.89,-5.57c3.33,-2.37 7.56,-5.52 8.62,-7.98c1.09,-2.52 0.43,-6.15 -2.93,-7.59c-3.05,-1.31 -6.44,1.01 -10.18,3.36c-2.75,1.73 -5.14,3.47 -7.78,5.37z" class="st6"/>
        <path id="svg_96" fill="#C64F69" d="m163.45,125.94c0.95,-0.88 2.43,-1.81 3.07,-2.27c1.39,-1 2.71,-1.95 4.05,-2.88c-0.27,3.94 0.69,9.09 7.05,10.54c-3.01,2.05 -6.37,3.97 -8.73,4.76c-1.92,0.64 -4.54,0.74 -6.15,-0.16c-4.4,-2.48 -2.2,-7.31 0.71,-9.99z" class="st7"/>
       </g>
       <g id="svg_97">
        <path id="svg_98" fill="#FFFFFF" clip-rule="evenodd" fill-rule="evenodd" d="m174.44,121.39c-0.53,1.06 -2.22,2.12 -3.94,3.07c-0.74,0.4 -1.94,1.04 -2.38,0.42c-0.53,-0.74 0.73,-1.68 1.18,-2.01c1.42,-1.06 3.36,-2.04 4.54,-2.27c0.27,0.06 0.56,0.47 0.6,0.79z" class="st3"/>
        <path id="svg_99" fill="#FFFFFF" clip-rule="evenodd" fill-rule="evenodd" d="m171.52,126.07c1.38,1.32 -1.98,3.8 -2.78,2.43c-0.34,-0.59 0.83,-2.4 1.82,-2.71c0.35,-0.11 0.72,0.05 0.96,0.28z" class="st3"/>
       </g>
      </g>
      <g id="svg_100">
       <g id="svg_101">
        <path id="svg_102" fill="#FF8C9B" d="m149.41,151.97c2.71,1.8 5.3,3.76 7.75,6.5c2.43,2.74 3.03,5.81 1.49,7.84c-1.7,2.24 -5.07,1.77 -7.32,1.12c-3.02,-0.87 -6.24,-2.91 -9.26,-5.07c-0.5,-6.25 4.15,-9.15 7.34,-10.39z" class="st8"/>
        <path id="svg_103" fill="#25364F" d="m132.74,145.79c0.37,-0.19 1.12,-0.56 1.57,-0.64c3.59,-0.62 8.44,2.59 11.72,4.66c1.14,0.72 2.27,1.43 3.38,2.17c-3.19,1.24 -7.83,4.14 -7.34,10.39c-1.21,-0.87 -2.38,-1.75 -3.5,-2.59c-2.12,-1.59 -4.49,-3.15 -6.15,-5.16c-2.94,-3.58 -2.96,-7.1 0.32,-8.83z" class="st9"/>
       </g>
       <g id="svg_104">
        <path id="svg_105" fill="#FFFFFF" clip-rule="evenodd" fill-rule="evenodd" d="m138.15,148.72c0.73,1.09 2.75,2.01 4.78,2.8c0.87,0.34 2.29,0.86 2.68,0.11c0.47,-0.9 -1.05,-1.74 -1.59,-2.04c-1.72,-0.95 -3.99,-1.76 -5.33,-1.83c-0.29,0.11 -0.54,0.6 -0.54,0.96z" class="st3"/>
        <path id="svg_106" fill="#FFFFFF" clip-rule="evenodd" fill-rule="evenodd" d="m142.05,153.44c-1.32,1.66 2.74,3.89 3.41,2.27c0.29,-0.71 -1.27,-2.52 -2.4,-2.72c-0.4,-0.07 -0.78,0.16 -1.01,0.45z" class="st3"/>
        <path id="svg_107" fill="#FFFFFF" clip-rule="evenodd" fill-rule="evenodd" d="m153.36,157.49c-0.53,0.54 -0.1,1.54 0.66,2.32c0.61,0.63 2.06,1.55 2.53,0.65c0.21,-0.39 -0.03,-1.24 -0.64,-1.91c-0.72,-0.77 -1.87,-1.75 -2.55,-1.06z" class="st3"/>
       </g>
      </g>
     </g>
    </g>
    <g id="svg_108">
     <g id="svg_109">
      <g id="svg_110">
       <path id="svg_111" fill="#C1D5E8" clip-rule="evenodd" fill-rule="evenodd" d="m55.99,30.28c3.81,1.63 5.19,4.67 3.41,8.51c-1.94,4.18 -6.08,6.75 -8.87,8.52c-8.17,5.19 -16.22,7.98 -25.24,9.22c-1.95,0.27 -3.82,0.64 -5.43,0.19c-1.88,-0.52 -3.3,-1.98 -3.91,-2.89c-1.72,-2.58 -0.99,-6.43 1.91,-10.26c0.97,-1.28 2.53,-2.43 4.01,-3.55c3.77,-2.84 8.69,-5.41 12.7,-7c5.67,-2.24 12.27,-4.42 18.51,-3.57c0.89,0.12 1.87,0.39 2.91,0.83z" class="st0"/>
       <path id="svg_112" fill="#334F70" d="m64.08,51.25c0.95,-2.03 0.99,-3.84 0.27,-5.33l0.01,0l-4.36,-11.57c0.34,1.3 0.16,2.8 -0.6,4.44c-1.94,4.18 -6.08,6.75 -8.87,8.52c-8.17,5.19 -16.22,7.98 -25.24,9.22c-1.95,0.27 -3.82,0.64 -5.43,0.19c-1.88,-0.52 -3.3,-1.98 -3.91,-2.89c-0.22,-0.32 -0.39,-0.66 -0.53,-1.02l4.49,11.85c0.15,0.58 0.39,1.13 0.72,1.62c0.61,0.92 2.04,2.38 3.91,2.9c1.62,0.45 3.49,0.07 5.44,-0.2c9.02,-1.24 17.07,-4.03 25.24,-9.22c2.78,-1.76 6.91,-4.33 8.86,-8.51z" class="st10"/>
       <g id="svg_113">
        <path id="svg_114" fill="#C1D5E8" d="m64.08,51.25c0.09,-0.18 0.16,-0.36 0.23,-0.54c-1.54,-3.57 -2.92,-7.85 -5.29,-11.17c-0.47,0.85 -1.03,1.62 -1.64,2.34c0.07,0.15 0.13,0.29 0.19,0.44c1.32,3.1 2.7,5.88 4.41,8.79c0.33,0.56 0.68,1.26 1.1,1.9c0.37,-0.56 0.71,-1.14 1,-1.76z" class="st11"/>
        <path id="svg_115" fill="#C1D5E8" d="m53.8,45.12c-0.51,0.38 -1.02,0.73 -1.51,1.06c0.3,0.35 0.66,0.7 0.9,1.1c1.21,1.94 2.05,4.32 3.25,6.43c0.59,1.04 1.38,2.1 2.12,3.13c0.1,0.14 0.2,0.3 0.31,0.46c0.56,-0.42 1.11,-0.88 1.65,-1.37c-0.05,-0.09 -0.11,-0.19 -0.15,-0.28c-1.63,-3.08 -3.99,-7.85 -6.57,-10.53z" class="st11"/>
        <path id="svg_116" fill="#C1D5E8" d="m53.07,55.2c-1.17,-2.64 -2.33,-5.47 -3.85,-7.08c-0.51,0.31 -1.03,0.61 -1.54,0.91c0.05,1.04 0.85,2 1.26,2.96c1.14,2.6 1.91,5.12 3.25,7.58c0.25,0.45 0.52,1.01 0.85,1.53c0.68,-0.4 1.36,-0.8 2.04,-1.23c-0.14,-0.33 -0.29,-0.67 -0.41,-0.99c-0.48,-1.2 -1.08,-2.49 -1.6,-3.68z" class="st11"/>
        <path id="svg_117" fill="#C1D5E8" d="m47.99,61.01c-1.05,-2.27 -1.96,-4.59 -3.03,-6.7c-0.5,-0.99 -1.06,-2.26 -1.82,-2.94c-0.57,0.27 -1.14,0.52 -1.72,0.77c-0.02,0.88 0.39,1.81 0.71,2.61c1.03,2.59 2.23,4.76 3.72,7.1c0.41,0.65 0.8,1.64 1.43,2.24c0.58,-0.26 1.16,-0.53 1.74,-0.82c-0.15,-0.74 -0.69,-1.52 -1.03,-2.26z" class="st11"/>
        <path id="svg_118" fill="#C1D5E8" d="m39.9,60.34c-0.97,-2.17 -1.89,-4.66 -3.1,-6.44c-0.71,0.24 -1.43,0.46 -2.16,0.67c0.18,0.81 0.49,1.66 0.67,2.18c1.07,3.15 1.97,5.45 3.25,8.13c0.32,0.66 0.65,1.4 1.07,2.05c0.85,-0.25 1.69,-0.53 2.53,-0.81c-0.22,-0.61 -0.55,-1.23 -0.77,-1.81c-0.51,-1.28 -0.92,-2.69 -1.49,-3.97z" class="st11"/>
        <path id="svg_119" fill="#C1D5E8" d="m31.96,58.89c-0.5,-1.07 -1.03,-2.51 -1.8,-3.2c-0.5,0.11 -1.01,0.21 -1.52,0.3c-0.04,1.12 0.43,2.28 0.82,3.39c0.95,2.65 2.09,5.04 3.37,7.51c0.23,0.44 0.46,1 0.76,1.51c0.71,-0.13 1.42,-0.28 2.12,-0.44c-0.22,-0.59 -0.55,-1.19 -0.77,-1.77c-0.93,-2.5 -1.84,-4.83 -2.98,-7.3z" class="st11"/>
        <path id="svg_120" fill="#C1D5E8" d="m26.76,66.91c-0.95,-2.49 -1.86,-4.94 -2.79,-7.38c-0.33,-0.88 -0.67,-1.89 -1.12,-2.67c-0.65,0.07 -1.29,0.1 -1.89,0.05c0.13,0.79 0.69,1.67 0.96,2.42c0.94,2.64 1.66,5.12 2.75,7.68c0.32,0.75 0.61,1.66 1.1,2.38c0.59,0.03 1.21,0 1.84,-0.07c-0.05,-0.77 -0.56,-1.66 -0.85,-2.41z" class="st11"/>
       </g>
      </g>
      <g id="svg_121">
       <g id="svg_122">
        <path id="svg_123" fill="#FFFFFF" clip-rule="evenodd" fill-rule="evenodd" d="m19.59,52.18c0.25,1.56 -3.66,0.36 -2.59,-0.78c0.55,-0.59 2.04,0.23 2.59,0.78z" class="st3"/>
        <path id="svg_124" fill="#FFFFFF" clip-rule="evenodd" fill-rule="evenodd" d="m21.35,54.29c-0.26,-0.21 -0.68,-0.79 -0.21,-1.27c0.61,-0.64 2.32,-0.24 3.04,-0.21c0.87,0.04 2.51,-0.29 2.96,0.58c0.64,1.24 -1.88,1.32 -2.75,1.31c-0.46,0 -0.91,-0.05 -1.3,-0.08c-0.68,-0.02 -1.24,0.08 -1.74,-0.33z" class="st3"/>
       </g>
       <g id="svg_125">
        <path id="svg_126" fill="#FFFFFF" clip-rule="evenodd" fill-rule="evenodd" d="m47.12,31.73c0.94,-0.7 5.66,-0.09 5.36,1.5c-0.25,1.3 -4.4,0.67 -5.29,-0.39c-0.23,-0.27 -0.29,-0.51 -0.07,-1.11z" class="st3"/>
        <path id="svg_127" fill="#FFFFFF" clip-rule="evenodd" fill-rule="evenodd" d="m51.73,36.35c-0.19,-1.56 2.16,-1.16 2.25,-0.23c0.13,1.26 -2.08,1.6 -2.25,0.23z" class="st3"/>
        <path id="svg_128" fill="#FFFFFF" clip-rule="evenodd" fill-rule="evenodd" d="m54.55,33.29c0.11,-1.49 3.68,-0.85 3.4,0.49c-0.12,0.56 -0.53,0.64 -1.26,0.69c-1.09,0.06 -2.22,-0.14 -2.14,-1.18z" class="st3"/>
       </g>
      </g>
     </g>
     <g id="svg_129">
      <g id="svg_130">
       <path id="svg_131" fill="#F27D00" clip-rule="evenodd" fill-rule="evenodd" d="m81.69,100.71c1.49,2.34 2.42,4.53 4.71,5.6c3.19,1.5 8.63,0.49 11.59,2.17c2.17,1.23 3.82,4.39 5.35,7c1.61,2.75 3.11,5.4 4.46,7.89c2.95,5.48 6,10.82 8.92,15.79c1.64,2.79 2.8,5.58 4.08,8.28c2.63,5.56 4.93,11.07 7.38,17.32c1.2,3.05 3.1,8.13 1.78,11.71c-1.37,3.72 -6.38,6.14 -10.19,8.02c-10.68,5.28 -19.9,9.85 -30.95,14.64c-2.9,1.26 -6.57,2.8 -10.06,1.4c-1.32,-0.53 -3.23,-2.3 -4.33,-3.69c-1.61,-2.03 -2.85,-4.66 -4.2,-7.13c-5.28,-9.65 -10.11,-19.62 -15.54,-29.8c-2.64,-4.95 -4.86,-9.92 -7.26,-15.41c-1.35,-3.09 -2.57,-6.35 -1.91,-9.81c0.47,-2.42 2.01,-4.52 3.31,-6.37c1.28,-1.83 3.04,-3.98 3.18,-6.5c0.14,-2.45 -0.9,-4.15 -1.53,-6.11c7.46,-3.91 15.3,-7.5 23.05,-11.34c2.67,-1.29 5.62,-2.82 8.16,-3.66z" class="st12"/>
       <g id="svg_132">
        <path id="svg_133" fill="#C1D5E8" d="m92.39,179.79c2.94,-1.4 6.06,-2.96 8.15,-5.09c0.67,-0.68 1.62,-2.01 1.91,-2.8c0.98,-2.61 -0.03,-5.78 -0.89,-8.28c-0.66,-1.91 -1.5,-3.77 -2.16,-5.35c-3.19,-7.54 -5.93,-13.33 -9.17,-20.63c-1.73,-3.9 -4.14,-8.86 -9.3,-8.79c-3.65,0.05 -7.07,2.01 -10.06,3.18c-3.16,1.24 -6.23,2.47 -9.42,3.95c-4.21,1.96 -9.22,4.23 -13.12,6.88c-0.38,0.26 -0.81,0.54 -1.24,0.85c0.11,0.27 0.23,0.54 0.34,0.81c2.4,5.49 4.62,10.46 7.26,15.41c5.43,10.18 10.26,20.15 15.54,29.8c0.1,0.18 0.2,0.37 0.3,0.56c4.32,-2.06 8.97,-4.6 12.82,-6.42c3.12,-1.48 5.99,-2.63 9.04,-4.08z" class="st11"/>
        <path id="svg_134" fill="#FFFFFF" clip-rule="evenodd" fill-rule="evenodd" d="m70.4,146.72c1.61,-0.43 4.32,-2.09 6.74,-2.23c1.72,-0.1 3.89,5.06 3.52,7.44c-0.2,1.3 -4.08,2.49 -5.97,3.83c0.7,1.8 2.69,4.92 1.68,5.82c-1.41,1.27 -4.13,2.53 -5.36,2.76c-1.23,0.22 -2.73,-3.57 -3.98,-5.36c-1.83,0.97 -4.28,2.73 -6.13,1.84c-1,-0.48 -2.78,-3.78 -3.06,-5.21c-0.53,-2.69 2.96,-3.99 4.9,-5.21c-0.47,-1.62 -1.58,-2.57 -1.38,-4.44c0.19,-1.72 3.01,-3.63 5.05,-3.83c2.77,-0.27 3.08,2.69 3.99,4.59z" class="st3"/>
        <g id="svg_135">
         <path id="svg_136" fill="#334F70" clip-rule="evenodd" fill-rule="evenodd" d="m87.76,162.61c-4.24,1.89 -10.43,4.94 -14.86,7.16c-1.12,0.56 -2.77,1.33 -3.75,2.17c0.65,1.16 1.28,2.34 1.91,3.5c1.71,-0.08 4.07,-1.94 5.33,-2.62c3.92,-2.11 7.6,-3.79 11.1,-5.66c0.63,-0.34 1.36,-0.67 2.02,-1.08c-0.59,-1.16 -1.17,-2.31 -1.75,-3.47z" class="st6"/>
         <path id="svg_137" fill="#334F70" clip-rule="evenodd" fill-rule="evenodd" d="m92.79,172.01c-0.47,-0.77 -0.91,-1.54 -1.34,-2.32c-1.71,0.44 -3.32,1.81 -4.61,2.47c-3.02,1.55 -7.45,3.75 -10.45,5.23c-0.83,0.41 -2.24,0.95 -3.31,1.57c0.03,0.05 0.06,0.1 0.09,0.15c0.56,0.91 1.12,1.82 1.69,2.73c0.34,-0.18 0.7,-0.36 1.1,-0.53c5.13,-2.11 8.99,-4.44 13.72,-6.97c0.81,-0.44 2.32,-1.1 3.39,-1.9c-0.1,-0.14 -0.19,-0.29 -0.28,-0.43z" class="st6"/>
        </g>
       </g>
      </g>
      <g id="svg_138">
       <g id="svg_139">
        <path id="svg_140" fill="#FFFFFF" clip-rule="evenodd" fill-rule="evenodd" d="m107.73,134.83c-1.68,-1.21 -3.02,-4.44 -4.15,-7.68c-0.49,-1.39 -1.23,-3.65 -0.04,-4.22c1.43,-0.69 2.69,1.74 3.13,2.62c1.41,2.76 2.56,6.38 2.6,8.48c-0.19,0.45 -0.98,0.82 -1.54,0.8z" class="st3"/>
        <path id="svg_141" fill="#FFFFFF" clip-rule="evenodd" fill-rule="evenodd" d="m96.69,123.55c-2.68,1.99 -5.98,-4.52 -3.39,-5.49c1.13,-0.42 3.9,2.13 4.15,3.92c0.08,0.64 -0.3,1.22 -0.76,1.57z" class="st3"/>
        <path id="svg_142" fill="#FFFFFF" clip-rule="evenodd" fill-rule="evenodd" d="m95.99,114.74c-0.87,0.8 -2.43,0.08 -3.62,-1.15c-0.96,-1 -2.33,-3.34 -0.9,-4.02c0.63,-0.31 1.96,0.1 2.98,1.11c1.19,1.17 2.66,3.02 1.54,4.06z" class="st3"/>
       </g>
       <g id="svg_143">
        <path id="svg_144" fill="#FFFFFF" clip-rule="evenodd" fill-rule="evenodd" d="m82.59,194.41c-2.21,1.28 3.3,4.97 3.63,2.47c0.17,-1.3 -2.39,-2.34 -3.63,-2.47z" class="st3"/>
        <path id="svg_145" fill="#FFFFFF" clip-rule="evenodd" fill-rule="evenodd" d="m78.12,194.38c0.53,0.11 1.67,0.05 1.81,-1.04c0.18,-1.42 -2.08,-3.16 -2.85,-4.02c-0.93,-1.05 -2.22,-3.44 -3.76,-3.11c-2.2,0.47 0.27,3.71 1.17,4.79c0.48,0.57 1,1.09 1.43,1.56c0.73,0.8 1.18,1.61 2.2,1.82z" class="st3"/>
       </g>
      </g>
      <g id="svg_146">
       <path id="svg_147" fill="#EFAA6C" clip-rule="evenodd" fill-rule="evenodd" d="m82.04,93.45c-0.67,-1.23 -1.11,-2.27 -1.94,-3.55c-0.77,-1.2 -2.11,-2.81 -3.37,-3.36c-1.63,-0.71 -3.6,-0.1 -5.46,0.66c-3.58,1.46 -15.81,7.99 -15.82,8c-3.23,1.5 -6.26,2.91 -9.31,4.69c-1.73,1 -3.29,2.15 -3.86,3.91c-1.03,3.18 1.43,7.49 2,8.78c1.15,2.63 2.62,6.16 6.78,5.7c1.64,-0.18 3.41,-1.09 4.99,-1.86c2.75,-1.35 19.51,-9.93 22.24,-11.27c1.57,-0.77 3.37,-1.61 4.52,-2.8c2.9,-3.01 0.61,-6.38 -0.77,-8.9z" class="st13"/>
       <g id="svg_148">
        <path id="svg_149" fill="#B25A0B" d="m44.43,106.24c4.26,-2.18 8.36,-4.07 12.6,-6.17c1.12,-0.55 2.54,-1.37 3.88,-2.19c0.46,-0.28 2.3,-1.03 1.84,-1.83c-0.2,-0.35 -0.95,-0.3 -1.47,-0.17c-0.87,0.21 -0.69,0.27 -1.49,0.56c-5.02,1.79 -10.14,4.17 -14.95,6.58c-0.88,0.44 -1.8,0.88 -2.71,1.36c-0.18,0.93 -0.11,1.94 0.1,2.93c0.83,-0.4 1.57,-0.75 2.2,-1.07z" class="st14"/>
        <path id="svg_150" fill="#B25A0B" d="m75.21,88.7c-2.01,1.01 -4.23,2 -6.01,3.46c-0.33,0.27 -0.61,0.65 -0.64,0.71c-0.17,0.33 -0.27,0.72 0.02,1.04c0.59,0.64 2.14,-0.08 3.08,-0.5c1.18,-0.53 2.26,-1.04 3.12,-1.48c1.69,-0.87 3.35,-1.68 5.01,-2.48c-0.5,-0.71 -1.15,-1.49 -1.85,-2.09c-0.91,0.44 -1.83,0.89 -2.73,1.34z" class="st14"/>
        <path id="svg_151" fill="#B25A0B" d="m51.96,107.98c1.01,-0.54 3.42,-1.7 2.73,-2.66c-0.54,-0.75 -2.27,0.08 -3.39,0.55c-2.39,1.02 -4.86,2.33 -6.99,3.43c-0.34,0.17 -0.79,0.37 -1.26,0.59c0.29,0.71 0.58,1.34 0.83,1.85c2.74,-1.11 5.32,-2.29 8.08,-3.76z" class="st14"/>
        <path id="svg_152" fill="#B25A0B" d="m80.13,96.7c-2.16,1.02 -4.71,2.18 -6.97,3.46c-1.06,0.6 -2.77,1.47 -2.5,2.35c0.34,1.14 2.73,-0.07 3.77,-0.55c3.24,-1.48 6.04,-2.99 8.95,-4.76c0.14,-0.08 0.28,-0.17 0.42,-0.24c-0.2,-0.56 -0.45,-1.11 -0.73,-1.64c-1,0.29 -2.17,1.02 -2.94,1.38z" class="st14"/>
        <path id="svg_153" fill="#B25A0B" d="m63.69,107.48c0.47,-0.26 2.57,-1.41 2.22,-2.19c-0.48,-1.07 -2.24,-0.1 -2.76,0.08c-2.97,1.07 -5.68,2.44 -8.41,3.81c-2.85,1.43 -5.61,2.74 -8.44,4.54c-0.34,0.22 -0.75,0.47 -1.16,0.74c0.4,0.79 0.87,1.55 1.46,2.2c1.08,-0.59 2.14,-1.22 3.21,-1.83c4.71,-2.67 9.08,-4.65 13.88,-7.35z" class="st14"/>
        <path id="svg_154" fill="#B25A0B" d="m64.56,99.37c-1.5,0.73 -3.83,1.57 -3.16,2.72c1.73,0.23 14.38,-6.15 20.32,-9.26c-0.3,-0.57 -0.56,-1.11 -0.87,-1.68c-4.67,2.31 -15.4,7.8 -16.29,8.22z" class="st14"/>
       </g>
      </g>
     </g>
    </g>
   </g>
  </g>
 </g>
</svg>