<?xml version="1.0" encoding="UTF-8" standalone="no"?>
<!-- Created with Inkscape (http://www.inkscape.org/) -->

<svg
   version="1.1"
   id="svg1"
   width="6912"
   height="1209"
   viewBox="0 0 6912 1209"
   sodipodi:docname="logo.png"
   xmlns:inkscape="http://www.inkscape.org/namespaces/inkscape"
   xmlns:sodipodi="http://sodipodi.sourceforge.net/DTD/sodipodi-0.dtd"
   xmlns="http://www.w3.org/2000/svg"
   xmlns:svg="http://www.w3.org/2000/svg">
  <defs
     id="defs1" />
  <sodipodi:namedview
     id="namedview1"
     pagecolor="#505050"
     bordercolor="#eeeeee"
     borderopacity="1"
     inkscape:showpageshadow="0"
     inkscape:pageopacity="0"
     inkscape:pagecheckerboard="0"
     inkscape:deskcolor="#505050"
     showgrid="false"
     showguides="true">
    <inkscape:grid
       id="grid6"
       units="px"
       originx="0"
       originy="0"
       spacingx="1"
       spacingy="1"
       empcolor="#0099e5"
       empopacity="0.30196078"
       color="#0099e5"
       opacity="0.14901961"
       empspacing="5"
       dotted="false"
       gridanglex="30"
       gridanglez="30"
       visible="false" />
  </sodipodi:namedview>
  <g
     inkscape:groupmode="layer"
     inkscape:label="Image"
     id="g1"
     style="display:inline">
    <path
       style="display:inline;fill:#ffffff"
       d="m 6679.9648,1123.6347 c -23.9818,-4.3932 -44.7372,-15.7503 -56.3531,-30.8358 l -4.353,-5.6533 3.0312,-3.7741 c 1.6672,-2.0757 7.3132,-8.0149 12.5468,-13.1982 l 9.5156,-9.4242 6.8346,6.4475 c 7.967,7.5156 19.2611,13.7662 30.8345,17.065 10.2187,2.9127 29.864,3.2173 38.463,0.5963 7.2329,-2.2045 14.3391,-6.9913 17.1887,-11.5785 3.5076,-5.6462 3.1431,-14.7916 -0.815,-20.4496 -5.6213,-8.0355 -15.2596,-11.5484 -38.9343,-14.1905 -28.3326,-3.1619 -46.8177,-9.7288 -57.4865,-20.4222 -16.8861,-16.9252 -18.3185,-48.30815 -3.1229,-68.42435 8.4436,-11.1778 24.5602,-20.482 42.1259,-24.3195 17.1548,-3.7477 41.4637,-2.589 57.4703,2.7393 11.5057,3.8301 19.2927,8.5672 28.2361,17.1769 l 7.1819,6.9139 -12.9811,11.3971 c -7.1396,6.2683 -13.18,11.397 -13.4232,11.397 -0.2432,0 -2.5836,-1.6431 -5.2008,-3.6513 -10.5197,-8.0717 -20.441,-10.8487 -38.7587,-10.8487 -13.252,0 -14.3204,0.15 -19.9971,2.8078 -10.1178,4.7371 -13.5029,9.1724 -13.5029,17.6922 0,13.7117 9.3937,19.01325 39,22.01045 43.0371,4.3569 66.0877,19.0562 72.4944,46.2293 1.76,7.4647 1.9407,20.6053 0.3845,27.9611 -5.1134,24.1698 -25.9528,40.7216 -58.2599,46.2731 -10.6804,1.8353 -32.2688,1.8677 -42.119,0.063 z m -783,-0.5935 c -37.9291,-5.1227 -64.8193,-26.0796 -76.1321,-59.3336 -5.1809,-15.2292 -7.2316,-33.9964 -5.4188,-49.5899 5.418,-46.60355 33.9274,-78.05745 78.4408,-86.54215 10.9009,-2.0778 30.912,-2.0541 41.1101,0.049 15.7674,3.2512 31.1389,10.7407 43.9901,21.4333 l 6.5625,5.4603 -13.1863,13.2134 -13.1862,13.2135 -4.468,-3.4116 c -5.6671,-4.3272 -13.3877,-7.9863 -21.4224,-10.153 -8.6971,-2.3453 -27.1994,-2.286 -35.2374,0.1129 -25.7528,7.6859 -41.4719,29.5971 -41.5349,57.89655 -0.057,25.3827 11.3192,45.1053 31.2898,54.2482 11.6588,5.3375 27.1031,6.7956 41.485,3.9166 8.8419,-1.77 24.1449,-8.7069 29.4144,-13.3335 l 3.5798,-3.1432 13.3035,14.6562 13.3034,14.6562 -3.9467,3.3837 c -11.882,10.187 -24.7371,16.7133 -41.3133,20.9742 -10.9788,2.8221 -34.2454,3.9662 -46.6333,2.2931 z m -1635.5,-98.4437 v -94.50005 h 69 69 v 19.5 19.5 h -48 -48 v 22.5 22.50005 h 45 45 v 18.5 18.5 h -45 -45 v 34 34 h -21 -21 z m 244.2605,93.2691 c 0.269,-0.698 19.3074,-43.2316 42.3076,-94.5191 l 41.8185,-93.25005 h 23.0592 23.0593 l 41.9975,93.60435 c 23.0986,51.4824 42.1474,94.0074 42.3307,94.5 0.1903,0.5113 -9.4649,0.8919 -22.5,0.8867 l -22.8333,-0.01 -6.6128,-15.7411 -6.6128,-15.741 -48.8872,-0.242 -48.8872,-0.242 -6.6659,15.742 -6.6658,15.742 -22.6985,0.2691 c -18.0163,0.2135 -22.5975,0.01 -22.2093,-1 z m 133.0981,-84.0191 c -3.5613,-8.3875 -10.8035,-25.5142 -16.0939,-38.05945 -6.8615,-16.2711 -9.8634,-22.3721 -10.4725,-21.2838 -0.6241,1.1152 -27.1644,62.93615 -31.487,73.34325 -0.4091,0.985 6.3754,1.25 32.0047,1.25 h 32.5239 z m 210.6414,-9.25 v -94.50005 h 49.5422 c 54.2254,0 58.1893,0.3302 71.6761,5.9698 16.6098,6.9457 27.9169,18.8346 34.297,36.0618 2.249,6.0726 2.8555,9.6479 3.2454,19.1298 1.2113,29.45955 -10.3448,48.10075 -36.7607,59.29895 -2.475,1.0492 -4.8436,2.1909 -5.2635,2.5372 -0.4199,0.3462 10.7176,14.5194 24.75,31.496 14.0324,16.9766 25.5135,31.6855 25.5135,32.6865 0,1.7082 -1.4286,1.8192 -23.25,1.8076 l -23.25,-0.012 -24,-30.9751 -24,-30.9751 -15.25,-0.012 -15.25,-0.013 v 31 31 h -21 -21 z m 99.2247,-4.5456 c 5.6947,-1.5816 11.9392,-6.9053 15.2366,-12.99 5.968,-11.01275 3.0188,-26.11785 -6.7286,-34.46125 -6.8589,-5.871 -10.7391,-6.5032 -39.9142,-6.5032 h -25.8185 v 27.5 27.50005 l 26.75,-0.01 c 15.3413,0 28.3386,-0.4467 30.4747,-1.04 z m 204.7753,4.5278 v -94.51785 l 24.25,0.2678 24.25,0.2678 27,35.7148 c 14.85,19.6431 27.4301,35.58725 27.9558,35.43145 0.5257,-0.1559 13.1257,-16.31225 28,-35.90305 l 27.0442,-35.6196 24.25,-0.062 24.25,-0.0616 v 94.50005 94.5 h -21.4928 -21.4927 l -0.2573,-65.0809 -0.2572,-65.08095 -28.5,36.03995 -28.5,36.0399 -4.1173,0.041 -4.1174,0.041 -27.8826,-36.5915 -27.8827,-36.59145 -0.2572,65.59145 -0.2572,65.5915 h -20.9928 -20.9928 z m 335.7753,92.6923 c 0.3986,-1.0246 19.3997,-43.5461 42.2247,-94.4922 l 41.5,-92.62935 23.0895,-0.026 23.0895,-0.027 1.2657,2.75 c 7.4582,16.2038 83.0553,185.19225 83.0553,185.66035 0,0.345 -10.2027,0.5063 -22.6726,0.3585 l -22.6727,-0.2688 -6.5773,-15.7303 -6.5774,-15.7304 -48.892,0.2304 -48.892,0.2303 -6.652,15.5 -6.652,15.5 -22.6807,0.2687 c -21.7741,0.258 -22.6517,0.1943 -21.956,-1.5942 z m 137.893,-71.4245 c -15.1871,-36.3325 -30.0987,-71.41405 -30.5981,-71.98625 -0.3534,-0.4048 -6.8951,13.9952 -14.5371,32.00005 -7.642,18.0049 -14.9326,35.0987 -16.2012,37.9862 l -2.3067,5.25 h 32.5008 32.5008 z m 494.3317,-21.25 v -94.50005 h 21 21 v 94.50005 94.5 h -21 -21 z m 171.2626,93.258 c 0.2702,-0.704 19.3036,-43.2376 42.2966,-94.519 l 41.8053,-93.23905 h 23.0677 23.0678 l 42,93.59495 c 23.1,51.4772 42.15,94.001 42.3333,94.4975 0.1922,0.5203 -9.3364,0.8988 -22.5,0.8936 l -22.8333,-0.01 -6.6128,-15.7411 -6.6128,-15.741 -48.8872,-0.242 -48.8872,-0.242 -6.6659,15.742 -6.6658,15.742 -22.6985,0.2691 c -18.1175,0.2147 -22.5993,0.011 -22.2072,-1.0111 z m 123.5844,-106.4644 c -8.7596,-20.73855 -16.0795,-37.85955 -16.2667,-38.04665 -0.2456,-0.2457 -24.6887,56.17525 -32.2768,74.50305 -0.4078,0.985 6.3719,1.25 31.9762,1.25 h 32.4937 z M 5576.247,912.34533 c 0.3948,-0.96367 4.9097,-9.73867 10.0332,-19.5 l 9.3154,-17.74788 h 22.9346 c 12.614,0 22.9346,0.25563 22.9346,0.56807 0,0.31244 -7.0119,9.08744 -15.5821,19.5 l -15.582,18.93193 h -17.3857 c -16.1723,0 -17.3357,-0.12229 -16.668,-1.75212 z m 538.2178,-67.82217 c -39.7592,-4.55629 -61.3948,-11.41373 -84.2589,-26.70603 -29.1144,-19.47274 -49.3146,-52.16003 -57.634,-93.2612 -4.3686,-21.5828 -4.4201,-22.83477 -4.8233,-117.20848 l -0.3899,-91.25 h -35.947 -35.9469 v -64 -64 h 36 36 v -56 c 0,-45.49836 0.2456,-56 1.3099,-56 1.678,0 155.9439,-16.75468 160.9401,-17.47956 l 3.75,-0.54408 v 65.01182 65.01182 h 50.5 50.5 v 64 64 h -51.0503 -51.0503 l 0.3003,78.75 0.3003,78.75 2.2871,6.32871 c 1.258,3.48079 3.3421,7.99982 4.6315,10.0423 12.299,19.48289 44.6897,22.55107 76.0814,7.20675 5.5,-2.68841 10.1819,-4.71135 10.4041,-4.49544 1.1111,1.07936 35.9859,121.78658 35.4413,122.66781 -1.2346,1.99758 -23.0769,11.66779 -36.3688,16.10148 -14.6999,4.90337 -32.0525,8.78184 -49.9766,11.17027 -10.849,1.44567 -53.4074,2.77392 -61,1.90383 z M 2112.316,843.0639 c -14.9289,-1.24579 -35.2591,-4.32808 -49.3638,-7.48407 -101.7614,-22.7697 -162.8317,-85.36383 -178.0401,-182.48238 -2.2175,-14.16125 -3.0795,-55.01928 -1.491,-70.67628 8.3257,-82.06024 50.664,-144.04331 122.5437,-179.40335 51.5773,-25.37263 112.2114,-34.00869 174.723,-24.88569 45.5222,6.64357 88.0022,24.40978 119.0749,49.80015 10.4894,8.57125 27.1448,26.32915 34.9263,37.23828 18.1577,25.45603 30.9255,59.45278 35.3331,94.08157 3.1358,24.63692 1.0511,66.81149 -4.5771,92.59532 l -1.1459,5.25 H 2207.7735 2051.248 l 0.6776,2.75 c 2.4593,9.97991 15.057,25.16388 27.9356,33.6704 10.4784,6.92126 13.9838,8.6381 26.639,13.04711 14.1509,4.93013 30.0415,7.53677 45.814,7.51516 39.6536,-0.0543 74.81,-10.05564 104.8573,-29.82995 l 9.2066,-6.05895 12.3391,13.70311 c 38.5982,42.86489 68.8682,77.32328 68.5788,78.06764 -0.1822,0.46852 -3.4812,3.52941 -7.3312,6.80199 -42.2669,35.92776 -94.4504,57.57995 -157.5,65.3506 -11.5774,1.42689 -57.0515,2.04229 -70.1488,0.94934 z m 101.823,-297.32656 c -1.6208,-11.8254 -9.4885,-24.56018 -19.923,-32.24787 -16.35,-12.04595 -34.7167,-17.39202 -59.7512,-17.39202 -20.5364,0 -35.3866,3.38343 -51.2228,11.6705 -10.5931,5.5434 -21.6177,16.68043 -26.3258,26.59432 -1.9961,4.20313 -3.8735,9.463 -4.172,11.68861 l -0.5427,4.04657 h 81.2676 81.2675 z m 2824.3258,297.70111 c -128.3899,-8.83288 -211.0095,-72.37128 -231.3514,-177.92025 -3.6713,-19.04947 -4.9414,-33.54069 -4.901,-55.92075 0.1003,-55.5854 14.6962,-102.66941 44.0708,-142.16538 8.887,-11.94916 29.4389,-32.36436 41.8316,-41.55344 56.882,-42.17745 133.2022,-59.34825 212.35,-47.77528 79.477,11.62111 140.5332,52.86188 170.4843,115.1546 10.0084,20.81559 16.9837,46.31922 19.6026,71.67305 2.3599,22.8454 0.057,61.74924 -5.1437,86.91645 l -1.085,5.25 h -156.4291 c -131.5414,0 -156.4291,0.21727 -156.4291,1.36564 0,0.75111 1.6393,4.64247 3.643,8.64748 13.7955,27.57558 53.8665,46.98688 96.9958,46.98688 42.3534,0 79.9964,-11.61638 111.9989,-34.56209 2.0756,-1.48819 3.3227,-0.20403 42.9197,44.19392 l 40.7821,45.72664 -5.6252,5.23586 c -8.5614,7.96891 -24.8891,19.83239 -37.9523,27.57561 -39.0356,23.13827 -82.9718,36.55347 -133.762,40.84195 -10.5055,0.88703 -41.0778,1.08052 -52,0.32911 z m 95.5236,-298.03216 c -2.6834,-17.89424 -16.6698,-33.5416 -37.5027,-41.95637 -14.3562,-5.79873 -20.0656,-6.73308 -41.5209,-6.79487 -23.9526,-0.069 -31.8097,1.48663 -48.5,9.60235 -8.9358,4.34508 -11.7041,6.31489 -18.5826,13.22286 -5.1174,5.13932 -9.0829,10.18296 -10.8091,13.74815 -2.9779,6.15009 -5.7257,15.4183 -4.8352,16.30878 0.3081,0.30814 36.9863,0.56026 81.5071,0.56026 h 80.9469 z m 1386.9764,297.59659 c -108.0294,-9.28706 -183.5012,-59.14787 -214.0382,-141.40543 -19.1421,-51.5627 -20.0822,-119.1927 -2.4032,-172.8633 18.287,-55.51604 56.4088,-98.73425 110.9551,-125.78826 66.1784,-32.82336 152.6371,-37.54236 225.9692,-12.33364 80.5297,27.68294 130.666,90.74214 139.0915,174.94296 2.2856,22.84124 0.2979,57.95266 -4.7152,83.28914 l -1.6317,8.24691 -156.9309,0.25309 -156.931,0.2531 4.1953,8.38178 c 14.4455,28.8611 53.629,48.13866 97.7885,48.11002 39.0465,-0.0253 74.9561,-10.20057 104.1506,-29.51181 4.675,-3.09236 8.7985,-5.81786 9.1633,-6.05667 0.3648,-0.2388 18.952,20.09308 41.3048,45.18196 39.8856,44.76772 40.6079,45.65342 38.8367,47.6202 -2.8258,3.13776 -16.0844,13.96185 -23.8933,19.5061 -37.8626,26.88208 -83.6125,43.91646 -136.4984,50.82345 -14.8543,1.93999 -58.3691,2.72967 -74.4131,1.3504 z m 102.9738,-297.15543 c -3.277,-19.83905 -17.7368,-35.14643 -41.3363,-43.75916 -13.2005,-4.81757 -24.1108,-6.27702 -42.6375,-5.70346 -19.5841,0.60629 -28.6788,2.67082 -43.5,9.8747 -8.9334,4.34211 -11.7068,6.31459 -18.5889,13.22073 -5.6499,5.66962 -9.034,10.07713 -11.2233,14.61719 -3.1696,6.57275 -5.4124,14.44202 -4.4038,15.45071 0.3022,0.30211 36.9639,0.54929 81.4706,0.54929 h 80.9212 z m -2774.3036,296.18 c -43.2679,-3.23097 -82.8187,-16.69864 -114.3332,-38.93228 -10.876,-7.67307 -28.4054,-24.18476 -37.0356,-34.88542 -27.528,-34.13216 -44.1672,-78.41027 -48.8519,-129.99782 -1.5513,-17.08263 -0.7133,-54.70819 1.5393,-69.11448 6.7915,-43.43505 21.876,-80.74188 45.2856,-112 6.9161,-9.23496 24.2877,-27.23965 33.838,-35.07117 28.592,-23.44645 63.7913,-38.52928 103.8876,-44.5156 16.0374,-2.39436 49.3499,-2.39123 65,0.006 43.6616,6.68825 75.9188,23.94897 95.4193,51.05852 2.8543,3.96804 3.6404,4.57662 3.8752,3 0.162,-1.08782 1.9901,-11.87786 4.0625,-23.97786 l 3.768,-22 78.6875,-0.25606 78.6875,-0.25595 v 224.50606 224.50606 h -77.3332 -77.3331 l -3.2309,-21.75 c -1.777,-11.9625 -3.4742,-22.59033 -3.7715,-23.61739 -0.4567,-1.57743 -1.4949,-0.94354 -6.6859,4.08223 -8.9325,8.64794 -15.9979,14.3027 -25.9239,20.74806 -31.9182,20.72586 -77.5883,31.60063 -119.5513,28.4671 z m 77.6477,-136.91241 c 33.5283,-8.14138 59.6663,-36.27885 67.3444,-72.49591 2.4591,-11.59977 2.6255,-34.16608 0.3467,-47.02168 -3.7344,-21.06685 -11.3263,-36.27176 -25.009,-50.08757 -7.8521,-7.92848 -10.3392,-9.7477 -19.5,-14.26319 -14.7838,-7.2872 -23.1924,-9.28568 -41.5,-9.86332 -18.6012,-0.5869 -29.7554,1.3945 -43.1281,7.66113 -31.5068,14.76457 -49.3833,44.36863 -51.0578,84.55295 -1.3048,31.31341 6.1092,55.72601 23.0114,75.77092 11.4884,13.62463 33.0389,24.9493 52.7351,27.71206 9.3841,1.3163 27.1558,0.36606 36.7573,-1.96539 z M 1288.4648,516.09745 v -318 l 160.25,0.01 c 100.1257,0.006 165.6903,0.39749 174.75,1.04297 114.1462,8.13256 194.1851,67.50215 220.5139,163.56812 6.7781,24.73137 7.9473,34.54833 7.9656,66.87902 0.018,31.65037 -0.8761,40.39435 -6.4714,63.29707 -20.9633,85.80672 -84.993,143.84745 -179.46,162.67425 -29.3043,5.8402 -30.6036,5.90985 -117.2981,6.28773 l -80.25,0.34968 v 85.94558 85.94558 h -90 -90 z m 329.5,-7.41432 c 9.2732,-2.34203 21.7684,-8.45138 28.1838,-13.78002 19.5121,-16.20685 29.4143,-43.42287 26.2822,-72.23666 -2.1911,-20.15759 -9.8087,-36.63996 -22.9694,-49.69924 -6.0779,-6.03109 -9.6603,-8.60307 -17.093,-12.27202 -15.5479,-7.67473 -14.1394,-7.56072 -93.6536,-7.58038 l -70.25,-0.0174 v 79.05484 79.05483 l 71.25,-0.37803 c 64.0329,-0.33974 71.959,-0.55711 78.25,-2.14596 z m 824.5,100.91432 v -224.5 h 74.9171 74.9172 l 0.9846,4.75 c 0.5416,2.6125 2.675,13.075 4.741,23.25 2.066,10.175 4.0419,18.83422 4.3909,19.24271 0.3491,0.40848 2.626,-2.29152 5.0599,-6 13.7665,-20.97558 37.9535,-38.5045 63.6671,-46.14111 26.1528,-7.76708 60.0186,-7.23599 89.8222,1.4086 23.9809,6.95571 50.0634,21.93937 64.7836,37.21623 l 3.7836,3.92669 -31.1112,55.92344 c -17.1112,30.75789 -32.2148,57.8267 -33.5637,60.15291 l -2.4525,4.22947 -9.4067,-6.51294 c -10.69,-7.4015 -25.1922,-14.57181 -34.0331,-16.82694 -10.1106,-2.579 -24.4125,-3.88973 -36,-3.2993 -37.7717,1.92462 -62.2704,22.48533 -71.1108,59.68024 -1.6506,6.9447 -1.8077,16.77345 -2.1225,132.75 l -0.3399,125.25 h -83.4634 -83.4634 z m 429,0 v -224.5 h 70.2955 70.2954 l 5.9058,24.07113 5.9058,24.07113 3.4537,-4.32113 c 10.6348,-13.3055 28.4413,-27.45147 45.0315,-35.77414 9.783,-4.90775 28.2608,-11.23517 39.4451,-13.50734 41.617,-8.45474 84.3031,-0.0781 114.5818,22.48545 12.3246,9.18424 21.1866,19.1686 32.61,36.74005 0.095,0.14583 6.2031,-5.72224 13.5739,-13.04015 19.2872,-19.14872 37.4745,-30.69001 61.4982,-39.02548 25.991,-9.0181 61.3511,-13.22646 90.4033,-10.75931 42.6948,3.62569 75.7998,17.83141 101.5,43.55472 28.8783,28.90427 45.399,68.35278 52.1417,124.50507 1.3993,11.65383 1.6816,32.40617 2.0636,151.75 l 0.4427,138.25 h -84.074 -84.074 V 703.22844 c 0,-143.79267 0.1155,-140.81219 -6.029,-155.52178 -7.7547,-18.56395 -21.9541,-28.63244 -40.3263,-28.59443 -26.2731,0.0544 -46.4678,15.89764 -54.8121,43.00155 l -2.304,7.48367 -0.2891,132.25 -0.2891,132.25 h -82.448 -82.448 l -0.2868,-137.25 -0.2869,-137.25 -2.1722,-7.64353 c -4.5817,-16.12212 -11.3917,-25.81601 -21.6661,-30.8415 -27.1411,-13.27545 -59.5591,-0.0147 -73.5266,30.07656 -8.0437,17.32926 -7.4883,6.52719 -7.8503,152.65847 l -0.3227,130.25 h -82.9714 -82.9714 z m 1390,0 v -224.5 h 74 c 40.7,0 74,0.19913 74,0.44251 0,0.24338 1.575,11.03764 3.5,23.98724 1.925,12.94961 3.5,23.84247 3.5,24.20636 0,0.3639 3.0375,-2.47208 6.75,-6.30218 29.3864,-30.31724 70.0499,-48.46095 117.3644,-52.36708 29.5501,-2.43955 65.727,2.54436 91.0117,12.53825 19.724,7.79597 33.5776,16.96517 48.9321,32.38644 27.9964,28.11812 42.6242,62.02943 50.692,117.51835 1.4095,9.69444 1.6574,29.05491 1.9696,153.84011 l 0.3572,142.75 h -83.5106 -83.5106 l -0.2883,-133.75 -0.2882,-133.75 -2.2081,-7.78672 c -5.1884,-18.29639 -15.9046,-32.62196 -29.8845,-39.94998 -10.5524,-5.53143 -18.3301,-7.03303 -33.8867,-6.54232 -11.3083,0.35669 -14.1401,0.80945 -21.7612,3.47927 -12.0369,4.21674 -18.887,8.49925 -27.7132,17.32538 -13.4806,13.48059 -20.245,28.47091 -22.9906,50.94814 -0.6609,5.41076 -1.035,52.13059 -1.035,129.25 v 120.77623 h -82.5 -82.5 z m 1101,0 v -224.5 h 73.8887 73.8887 l 0.5896,3.25 c 0.3242,1.7875 1.9886,12.7 3.6987,24.25 1.71,11.55 3.229,21.1217 3.3755,21.27045 0.1465,0.14875 2.2438,-1.87625 4.6606,-4.5 42.2332,-45.84864 113.532,-65.09064 183.8196,-49.60893 40.9417,9.01793 72.2862,29.91716 93.7569,62.51339 16.0048,24.29803 25.8716,53.24496 31.9809,93.82509 1.5669,10.40791 1.7636,25.10361 2.0714,154.75 l 0.3402,143.25 h -83.5354 -83.5354 V 704.22844 c 0,-111.03096 -0.2179,-131.11848 -1.5021,-138.4828 -3.9122,-22.4341 -14.3146,-38.0493 -31.2899,-46.96955 -10.4394,-5.48572 -18.217,-6.96863 -33.708,-6.42685 -10.6909,0.3739 -14.421,0.93504 -21,3.1592 -29.8169,10.08013 -47.8508,34.49549 -51.4604,69.67012 -0.6571,6.40343 -1.0396,54.05886 -1.0396,129.52484 v 119.39405 h -82.5 -82.5 z M 697.46875,996.57215 c 18.83038,0 34.1092,-21.5268 38.0683,-40.2098 1.1681,-5.5121 1.43543,-20.4392 1.4493,-81.00732 l 0.017,-74.25 h -53.5 -53.5 v 45 45 h -102.5 -102.5 v -101.7899 c 0,-112.1871 0.2571,-107.2916 -6.2812,-119.613 -4.9775,-9.3802 -13.59601,-17.47969 -24.1428,-22.6892 l -8.9239,-4.4079 -107.8261,-0.2717 -107.826,-0.2717 v -90.4783 -90.4783 h 179 179 v -53.5 -53.5 l -208.25,0.017 c -230.298302,0.0188 -215.5122,-0.4042 -228.748802,6.5514 -7.9965,4.2021 -17.9081,14.0322 -22.2183,22.0357 -6.0844,11.2981 -5.7852,2.5231 -5.7584,168.8557 0.016,101.2718 0.3705,153.5425 1.0608,156.5399 3.8449,16.6944 18.54916,32.39072 35.8426,38.2602 l 6.572102,2.2306 105.7232,0.2892 105.7232,0.2892 0.2768,103.7154 0.2768,103.71532 2.7091,6.7604 c 6.66875,16.6415 19.8905,28.8527 35.9032,33.1591 8.3683,2.2505 331.43373,0.048 340.3527,0.048 z M 953.45147,709.57663 c -19.8072,0 35.6045,-21.7711 39.4506,-40.2708 0.7743,-3.7242 1.0973,-49.9414 1.0869,-155.5 -0.016,-165.4904 0.3064,-156.7452 -6.2359,-169.0197 -4.1535,-7.7929 -13.6757,-17.3537 -21.2493,-21.3357 -12.7418,-6.6992 -5.8721,-6.3454 -123.18152,-6.3454 h -106.3185 l -0.017,-99.75 c -0.0188,-110.6065 0.1502,-107.4956 -6.5514,-120.248799 -4.4119,-8.3958 -14.6057,-18.4716 -22.6892,-22.4265 -11.9777,-5.8602 -1.9493,-5.552 -180.2421,-5.5384 -108.9664,0.01 -165.5007,0.3584 -168.4722,1.0431 -14.1847,3.2686 -28.3849,14.7371 -35.0558,28.3123 -2.1914,4.459599 -4.4316,10.532299 -4.9782,13.494799 -0.6003,3.2543 -0.9937,34.4277 -0.9937,78.75 v 73.3635 h 53.5 53.5 v -44 -44 h 102.5 102.5 v 100.4508 c 0,70.6538 0.334,102.0227 1.1259,105.75 2.5588,12.0427 12.3396,26.0393 22.9576,32.8528 2.7825,1.7856 8.0645,4.41639 11.7378,5.8464 l 6.6787,2.6 107.25,0.2802 107.25002,0.2801 v 90.135 90.135 l -180.00002,-0.6833 -180,-0.6833 v 53.5094 53.5094 l 53.25,0.2677 c 29.2875,0.14723 123.9179,0.3762 210.2899,0.5088 138.18622,0.2121 168.24362,-1.2874 162.90782,-1.2874 z"
       id="path6"
       sodipodi:nodetypes="sscsscssssssssssscsssssssssssssssssscccssssssscccssssccccccccccccccccccccccscccssscccccccsccssssscsccssssssssscccccccccccsssccccccccccsssccccccccccccccccccccsscccssscccccccsssssscccsccccccccccscccssscccccccsccsssscssscssscsssssscccccccssscccccccccccsssssssssssssssssscccssssscssssssssssscccsssssssssscsssssscsssssssssssscsssssssscccssssssssssssssssscssssssssssssscccccccsssssssssssssssscccssssssccccccsssssscccssccccssssssscsscsssssccccccccccssssssssssscccsssscccccccssssccccccsssssssssscccccsssssssccccccccsssssssscccsssssssccccssscccccccssscccccccccsssssscccccsssssssssscssscsssscccccccsssscccccccccssss" />
  </g>
</svg>
