<svg id="Componente_34_1" data-name="Componente 34 – 1" xmlns="http://www.w3.org/2000/svg" xmlns:xlink="http://www.w3.org/1999/xlink" width="62.323" height="33.752" viewBox="0 0 62.323 33.752">
  <defs>
    <clipPath id="clip-path">
      <rect id="Retângulo_3366" data-name="Retângulo 3366" width="62.323" height="33.752" fill="none"/>
    </clipPath>
  </defs>
  <g id="Grupo_17023" data-name="Grupo 17023" clip-path="url(#clip-path)">
    <path id="Caminho_13957" data-name="Caminho 13957" d="M122.968,99.226a27.062,27.062,0,0,1-8.746-1.419q-.406.243-.828.471a26.277,26.277,0,0,0,12.489,3.047c7.927,0,14.865-3.27,18.686-8.16h-5.076c-3.719,3.673-9.733,6.062-16.524,6.062" transform="translate(-82.245 -67.573)" fill="#fff"/>
    <path id="Caminho_13958" data-name="Caminho 13958" d="M98.991,101.785a20.742,20.742,0,0,0,3.125,2.273q.419-.143.827-.3a22.078,22.078,0,0,1-3.952-1.973" transform="translate(-71.799 -73.825)" fill="#fff"/>
    <path id="Caminho_13959" data-name="Caminho 13959" d="M97.87,15.48a21.886,21.886,0,0,1,4.26-2.172q-.452-.173-.916-.33a20.535,20.535,0,0,0-3.344,2.5" transform="translate(-70.986 -9.413)" fill="#fff"/>
    <path id="Caminho_13960" data-name="Caminho 13960" d="M122.969,2.176c6.728,0,12.7,2.343,16.423,5.959h5.158C140.725,3.258,133.8,0,125.883,0a26.31,26.31,0,0,0-12.488,3.039q.467.253.917.524a27.113,27.113,0,0,1,8.657-1.387" transform="translate(-82.246)" fill="#fff"/>
    <path id="Caminho_13961" data-name="Caminho 13961" d="M21.565,99.225c-6.791,0-12.806-2.388-16.524-6.062H0c3.818,4.89,10.75,8.16,18.67,8.16a26.24,26.24,0,0,0,12.478-3.047q-.423-.229-.831-.472a27.068,27.068,0,0,1-8.751,1.42" transform="translate(0 -67.572)" fill="#fff"/>
    <path id="Caminho_13962" data-name="Caminho 13962" d="M117.345,101.75a22.07,22.07,0,0,1-3.967,1.982q.411.157.832.3a20.75,20.75,0,0,0,3.135-2.284" transform="translate(-82.234 -73.8)" fill="#fff"/>
    <path id="Caminho_13963" data-name="Caminho 13963" d="M111.193,108.967q-.408.157-.827.3.408.244.831.472.421-.228.828-.471-.421-.144-.832-.3" transform="translate(-80.049 -79.035)" fill="#fff"/>
    <path id="Caminho_13964" data-name="Caminho 13964" d="M5.193,8.135c3.726-3.616,9.694-5.959,16.423-5.959a27.105,27.105,0,0,1,8.663,1.389q.451-.272.92-.526A26.272,26.272,0,0,0,18.72,0C10.814,0,3.891,3.258.069,8.135Z" transform="translate(-0.05)" fill="#fff"/>
    <path id="Caminho_13965" data-name="Caminho 13965" d="M117.656,15.488a20.5,20.5,0,0,0-3.358-2.517q-.468.158-.922.332a21.878,21.878,0,0,1,4.279,2.185" transform="translate(-82.233 -9.408)" fill="#fff"/>
    <path id="Caminho_13966" data-name="Caminho 13966" d="M110.96,11.92q.454-.174.922-.333-.449-.271-.917-.524-.469.254-.92.525.465.157.916.331" transform="translate(-79.816 -8.025)" fill="#fff"/>
    <path id="Caminho_13967" data-name="Caminho 13967" d="M70.982,21.391V20.1H65.962v6.462h1.45v-2.5h3.145V22.767H67.413V21.391Z" transform="translate(-47.843 -14.578)" fill="#fff"/>
    <path id="Caminho_13968" data-name="Caminho 13968" d="M144,29.011c-1.057,0-1.8.45-1.8,1.424v.017a1.381,1.381,0,0,0,1.532,1.365,1.716,1.716,0,0,0,1.349-.566v.483H146.3v-2.59a1.944,1.944,0,0,0-.483-1.424,2.061,2.061,0,0,0-1.507-.5,3.939,3.939,0,0,0-1.732.358l.316.966a3.28,3.28,0,0,1,1.232-.241c.633,0,.958.291.958.816v.075A3.171,3.171,0,0,0,144,29.011m1.108.924v.225c0,.458-.4.783-.991.783-.408,0-.691-.2-.691-.541v-.017c0-.4.333-.616.874-.616a1.961,1.961,0,0,1,.808.166" transform="translate(-103.137 -19.744)" fill="#fff"/>
    <path id="Caminho_13969" data-name="Caminho 13969" d="M87.158,29.011c-1.057,0-1.8.45-1.8,1.424v.017a1.381,1.381,0,0,0,1.532,1.365,1.717,1.717,0,0,0,1.349-.566v.483h1.224v-2.59a1.945,1.945,0,0,0-.483-1.424,2.061,2.061,0,0,0-1.507-.5,3.937,3.937,0,0,0-1.732.358l.316.966a3.28,3.28,0,0,1,1.232-.241c.633,0,.958.291.958.816v.075a3.173,3.173,0,0,0-1.091-.183m1.108.924v.225c0,.458-.4.783-.991.783-.408,0-.691-.2-.691-.541v-.017c0-.4.333-.616.874-.616a1.96,1.96,0,0,1,.808.166" transform="translate(-61.912 -19.744)" fill="#fff"/>
    <path id="Caminho_13970" data-name="Caminho 13970" d="M115.279,27.183v4.463h1.266v-2.49c0-.6.291-.908.766-.908s.741.308.741.908v2.49h1.266v-2.49c0-.6.291-.908.766-.908s.741.308.741.908v2.49h1.266V28.74c0-1.074-.566-1.64-1.507-1.64a1.838,1.838,0,0,0-1.466.708,1.335,1.335,0,0,0-1.257-.708,1.594,1.594,0,0,0-1.316.716v-.633Z" transform="translate(-83.613 -19.656)" fill="#fff"/>
    <path id="Caminho_13971" data-name="Caminho 13971" d="M102.911,27.178v4.463h1.266V29.993c0-1.066.516-1.574,1.357-1.574h.066V27.095a1.378,1.378,0,0,0-1.424.983v-.9Z" transform="translate(-74.642 -19.651)" fill="#fff"/>
    <path id="Caminho_13972" data-name="Caminho 13972" d="M102.7,60.838h2.752V55.426c0-1.3.67-1.973,1.72-1.973s1.665.67,1.665,1.973v5.413h2.751V54.557c0-2.226-1.213-3.6-3.294-3.6a3.432,3.432,0,0,0-2.842,1.557V51.136H102.7Z" transform="translate(-74.488 -36.958)" fill="#fff"/>
    <path id="Caminho_13973" data-name="Caminho 13973" d="M190.769,56.221c0-2.751-1.484-5.267-4.725-5.267a4.831,4.831,0,0,0-4.8,5.05v.036a5.125,5.125,0,0,0,9.033,3.2L188.7,57.851a3.179,3.179,0,0,1-2.353,1,2.25,2.25,0,0,1-2.371-1.9h6.752c.018-.253.036-.507.036-.724m-6.824-1a2.163,2.163,0,0,1,2.1-2.063,2.081,2.081,0,0,1,2.046,2.063Z" transform="translate(-131.46 -36.957)" fill="#fff"/>
    <path id="Caminho_13974" data-name="Caminho 13974" d="M139.533,47.21c0,3.24,2.154,5.014,4.417,5.014a3.564,3.564,0,0,0,3.023-1.575v1.394h2.751V38.829h-2.751v4.779a3.726,3.726,0,0,0-3.023-1.448c-2.3,0-4.417,1.774-4.417,5.014Zm2.752-.036a2.381,2.381,0,1,1,4.724,0v.036a2.381,2.381,0,1,1-4.724,0Z" transform="translate(-101.204 -28.163)" fill="#fff"/>
    <path id="Caminho_13975" data-name="Caminho 13975" d="M59.864,56v.036A5.254,5.254,0,0,0,70.363,56v-.036a5.254,5.254,0,0,0-10.5.036m2.715-.036A2.486,2.486,0,0,1,65.1,53.325,2.578,2.578,0,0,1,67.648,56v.036a2.485,2.485,0,0,1-2.516,2.643A2.578,2.578,0,0,1,62.579,56Z" transform="translate(-43.42 -36.957)" fill="#fff"/>
    <path id="Caminho_13976" data-name="Caminho 13976" d="M16.962,38.091a5.353,5.353,0,0,1,3.632,1.579l1.88-2.258a7.469,7.469,0,0,0-5.591-2.158,6.822,6.822,0,0,0-7.041,7.234v.04a7.364,7.364,0,0,0,7.425,7.194,6.894,6.894,0,0,0,5.648-2.5l-2.027-1.978a4.866,4.866,0,0,1-3.62,1.639,4.333,4.333,0,0,1-4.21-4.4v-.04a3.977,3.977,0,0,1,3.9-4.356" transform="translate(-7.134 -25.569)" fill="#fff"/>
  </g>
</svg>
