<svg id="Componente_31_2" data-name="Componente 31 – 2" xmlns="http://www.w3.org/2000/svg" xmlns:xlink="http://www.w3.org/1999/xlink" width="70" height="70.03" viewBox="0 0 70 70.03">
  <defs>
    <clipPath id="clip-path">
      <rect id="Retângulo_3369" data-name="Retângulo 3369" width="70" height="70.03" fill="currentColor"/>
    </clipPath>
  </defs>
  <g id="Grupo_17051" data-name="Grupo 17051" clip-path="url(#clip-path)">
    <path id="Caminho_14063" data-name="Caminho 14063" d="M19.465,47.684c.37-.255.789-.44,1.223-.679a8.226,8.226,0,0,1-.04-8.813c-.455-.285-.9-.538-1.317-.834A6.031,6.031,0,0,1,16.665,32.1a16.206,16.206,0,0,1,2-7.783A16.522,16.522,0,0,1,32.176,15.36c2.579-.238,5.19-.109,7.785-.145.266,0,.532,0,.838,0,.113-1.855.219-3.636.328-5.413H1.245c0,.4-.019.736,0,1.077.255,4.115.521,8.228.772,12.343.206,3.411.389,6.821.6,10.232.251,4.115.517,8.228.772,12.343.223,3.592.468,7.181.638,10.775a2.476,2.476,0,0,0,1.549,2.4H18.7a10.719,10.719,0,0,1-2-5.292,6.146,6.146,0,0,1,2.762-6" transform="translate(1.395 11.055)" fill="currentColor"/>
    <path id="Caminho_14064" data-name="Caminho 14064" d="M45.273,14.276q-10.829-.006-21.66,0a18.357,18.357,0,0,0-2.106.134A13.089,13.089,0,0,0,10.4,26.828a2.3,2.3,0,0,0,2.494,2.513q21.387-.061,42.774-.006a2.49,2.49,0,0,0,2.606-1.521V25.762a1.34,1.34,0,0,1-.123-.306A12.942,12.942,0,0,0,45.273,14.276" transform="translate(11.727 16.098)" fill="currentColor"/>
    <path id="Caminho_14065" data-name="Caminho 14065" d="M55.656,29.048c-9.9.034-19.811.019-29.716.019q-6.693,0-13.388,0A2.017,2.017,0,0,0,10.41,31.2a5.992,5.992,0,0,0,1.481,3.934A6.922,6.922,0,0,0,15.6,37.272H53.067a7.017,7.017,0,0,0,3.7-2.117,7.728,7.728,0,0,0,1.494-3.081v-1.5a2.484,2.484,0,0,0-2.606-1.521" transform="translate(11.74 32.759)" fill="currentColor"/>
    <path id="Caminho_14066" data-name="Caminho 14066" d="M15.874,31.474q8.509.006,17.02,0t17.02,0a4.1,4.1,0,1,0,.032-8.2q-17.053-.006-34.107,0a4.061,4.061,0,0,0-.881.072,4.106,4.106,0,0,0,.917,8.126" transform="translate(13.181 26.245)" fill="currentColor"/>
    <path id="Caminho_14067" data-name="Caminho 14067" d="M43,12.6q-7.893-.006-15.783,0h-.806c.083-.164.113-.245.16-.315,1.7-2.611,3.4-5.228,5.124-7.822a.983.983,0,0,1,.717-.328c2.14-.026,4.281-.013,6.424-.017A2.024,2.024,0,0,0,41.014,2.09a2.028,2.028,0,0,0-2.2-2.072c-2.551,0-5.1.03-7.653-.017a2.511,2.511,0,0,0-2.366,1.283c-2.313,3.6-4.668,7.166-6.99,10.758a1.063,1.063,0,0,1-1.028.568q-9.294-.029-18.586-.011a2.054,2.054,0,1,0,0,4.1q20.362,0,40.723,0a2.6,2.6,0,0,0,.738-.085A2.047,2.047,0,0,0,43,12.6" transform="translate(0 0.001)" fill="currentColor"/>
  </g>
</svg>
