<svg id="Componente_32_2" data-name="Componente 32 – 2" xmlns="http://www.w3.org/2000/svg" xmlns:xlink="http://www.w3.org/1999/xlink" width="82" height="60.111" viewBox="0 0 82 60.111">
  <defs>
    <clipPath id="clip-path">
      <rect id="Retângulo_3368" data-name="Retângulo 3368" width="82" height="60.111" fill="currentColor"/>
    </clipPath>
  </defs>
  <g id="Grupo_17049" data-name="Grupo 17049" clip-path="url(#clip-path)">
    <path id="Caminho_14062" data-name="Caminho 14062" d="M78.46,14.807A18.39,18.39,0,0,0,63.125.21a16.283,16.283,0,0,0-9.364,1.233,22.044,22.044,0,0,1-6.519,2.071,11.671,11.671,0,0,1-1.273.106q-4.527.04-9.052.05a19.61,19.61,0,0,1-7.506-1.7A23.757,23.757,0,0,0,24.446.28,17.808,17.808,0,0,0,8.493,5.409,18.738,18.738,0,0,0,3.175,16.529c-.718,4.926-1.649,9.833-2.147,14.786C.475,36.829.233,42.38.007,47.925A9.751,9.751,0,0,0,2.32,54.271a14.242,14.242,0,0,0,9.77,5.791,8.319,8.319,0,0,0,4.637-.947,24.424,24.424,0,0,0,6.921-5.491c2.071-2.161,4.085-4.368,6.153-6.532a18.211,18.211,0,0,1,1.748-1.522,5.814,5.814,0,0,1,3.913-1.32c3.66.063,7.32.08,10.976-.007a5.778,5.778,0,0,1,4.3,1.579c1.855,1.765,3.6,3.647,5.408,5.455,1.965,1.958,3.879,3.976,5.96,5.8a11.318,11.318,0,0,0,6.509,2.985,9.575,9.575,0,0,0,4.74-.891c3.9-1.709,6.864-4.358,8.224-8.533.166-.5.279-1.021.419-1.532V43.82c-.1-1.3-.226-2.6-.3-3.9A188.28,188.28,0,0,0,78.46,14.807M31.387,26.268a17.033,17.033,0,0,1-2.949.116c-.718.013-1.436,0-2.284,0,0,.951,0,1.848,0,2.749,0,.612.017,1.227-.023,1.838A3.231,3.231,0,0,1,22.757,34.1a3.278,3.278,0,0,1-3.241-3.284c-.027-1.436,0-2.875,0-4.431-1.516,0-2.972.017-4.428-.007a3.2,3.2,0,0,1-3.158-2.453,3.281,3.281,0,0,1,3.042-4.142c1.466-.03,2.935-.007,4.541-.007,0-.336-.007-.638,0-.944a31.272,31.272,0,0,1,.153-4.222,3.123,3.123,0,0,1,3.613-2.526,3.22,3.22,0,0,1,2.842,3.065c.063,1.227.027,2.453.033,3.683v.944c1.529,0,2.962-.01,4.4,0a3.265,3.265,0,0,1,3.3,2.965,3.2,3.2,0,0,1-2.463,3.53m26.1,7.828a4.7,4.7,0,1,1-.123-9.4,4.7,4.7,0,1,1,.123,9.4m7.872-12.612a4.7,4.7,0,0,1-4.727-4.717,4.7,4.7,0,1,1,4.727,4.717" transform="translate(0 0)" fill="currentColor"/>
  </g>
</svg>
