<svg id="Componente_35_2" data-name="Componente 35 – 2" xmlns="http://www.w3.org/2000/svg" xmlns:xlink="http://www.w3.org/1999/xlink" width="59.209" height="58.999" viewBox="0 0 59.209 58.999">
  <defs>
    <clipPath id="clip-path">
      <rect id="Retângulo_3366" data-name="Retângulo 3366" width="59.209" height="58.999" fill="currentColor"/>
    </clipPath>
  </defs>
  <g id="Grupo_17045" data-name="Grupo 17045" clip-path="url(#clip-path)">
    <path id="Caminho_14042" data-name="Caminho 14042" d="M12.411,30.851a26.725,26.725,0,0,0,3.6-2.253,8.77,8.77,0,0,0,6.734,2.954,9.084,9.084,0,0,0,6.836-3.1,9.14,9.14,0,0,0,13.8-.109,2.092,2.092,0,0,0,.243.389,8.843,8.843,0,0,0,14.706-2.8,13.625,13.625,0,0,0,.277-8.83c-.994-3.66-2.33-7.23-3.519-10.837q-.424-1.276-.85-2.551A4.867,4.867,0,0,0,49.114,0Q29.871,0,10.63,0C10.289,0,9.945-.006,9.6.01A4.736,4.736,0,0,0,5.013,3.457Q2.893,9.736.8,16.022a16.26,16.26,0,0,0-.488,8.243,8.874,8.874,0,0,0,12.1,6.585" transform="translate(-0.001 0.001)" fill="currentColor"/>
    <path id="Caminho_14043" data-name="Caminho 14043" d="M41.837,12.76a.858.858,0,0,0-.688.013A13.119,13.119,0,0,1,28.1,12.8a.918.918,0,0,0-.736.011,12.988,12.988,0,0,1-12.872-.005.744.744,0,0,0-.81,0,12.723,12.723,0,0,1-12.226.349,1.961,1.961,0,0,0-.376-.1v.629q0,9.478,0,18.95a4.879,4.879,0,0,0,5.169,5.2c3.063.011,6.124,0,9.187,0,.224,0,.451-.021.72-.037v-.9c0-4.132.053-8.265-.016-12.4a4.285,4.285,0,0,1,4.479-4.5c4.8.1,9.595.027,14.391.032a5.3,5.3,0,0,1,1.146.083,4.036,4.036,0,0,1,3.261,4.242c.016,3.554.005,7.11.005,10.664v2.749a2.083,2.083,0,0,0,.32.061c3.341,0,6.684.069,10.022-.021a4.726,4.726,0,0,0,4.756-5.049V13.013a.929.929,0,0,0-.2.019,13.018,13.018,0,0,1-12.477-.272" transform="translate(1.792 21.137)" fill="currentColor"/>
    <path id="Caminho_14044" data-name="Caminho 14044" d="M22.212,16.969q-6.394,0-12.786,0c-.992,0-1.168.179-1.17,1.154V30.667H23.393V18.177c0-1.034-.165-1.208-1.181-1.208" transform="translate(13.753 28.268)" fill="currentColor"/>
  </g>
</svg>
