<svg height="88.32" viewBox="0 0 96 88.32" width="96" xmlns="http://www.w3.org/2000/svg"><g fill="#ff7d00"><path d="m1.875 319.83h16.125a1.885 1.885 0 0 0 1.875-1.9v-1.852c6.061.28 10.076 1.9 14.3 3.611 4.774 1.93 9.71 3.925 17.571 3.925 3.453 0 8.578-1.174 15.233-3.488a1.9 1.9 0 0 0 1.163-2.408 1.87 1.87 0 0 0 -2.383-1.175c-6.262 2.177-10.976 3.282-14.013 3.282-7.139 0-11.53-1.775-16.179-3.655-4.382-1.771-8.9-3.6-15.7-3.885v-19.247a22.956 22.956 0 0 0 3.669-1.451c3.7-1.7 7.885-3.637 13.627-.373l9.051 5.146a5.589 5.589 0 0 0 2.76.731h12.151a3.8 3.8 0 0 1 1.353 7.323 3.657 3.657 0 0 1 -1.353.256h-19.061a1.9 1.9 0 0 0 0 3.79h19.061a7.357 7.357 0 0 0 2.641-.488l.045-.015 23.332-8.717a3.7 3.7 0 0 1 1.357-.256 3.774 3.774 0 0 1 3.75 3.79 3.812 3.812 0 0 1 -2.143 3.426c-.321.156-.642.314-1.263.613 0 0-3.442 1.617-3.4 1.605-1.227.569-2.623 1.206-4.148 1.884a1.9 1.9 0 0 0 -.961 2.5 1.867 1.867 0 0 0 2.471.971c3.688-1.641 6.129-2.8 8.9-4.143a7.625 7.625 0 0 0 4.294-6.855 7.549 7.549 0 0 0 -7.5-7.58 7.4 7.4 0 0 0 -2.7.507l-17.286 6.458a7.569 7.569 0 0 0 -7.389-8.86h-12.142a1.861 1.861 0 0 1 -.92-.243l-9.053-5.147c-7.4-4.208-12.963-1.644-17.022.229a11.57 11.57 0 0 1 -3.988 1.372h-16.125a1.885 1.885 0 0 0 -1.875 1.895v26.529a1.885 1.885 0 0 0 1.875 1.9zm1.875-26.53h12.375v22.74h-12.375z" transform="translate(0 -235.3)"/><path d="m213.425 74.9a1.895 1.895 0 0 0 2.083 0c27.8-18.288 28.712-31.82 26.784-38.258a15.469 15.469 0 0 0 -14.565-10.742 17.522 17.522 0 0 0 -13.26 6.345 17.52 17.52 0 0 0 -13.259-6.345 15.473 15.473 0 0 0 -14.558 10.757c-1.927 6.434-1.011 19.958 26.775 38.243zm-23.144-37.156a11.762 11.762 0 0 1 10.927-8.044c7.557 0 11.454 6.394 11.626 6.682a1.9 1.9 0 0 0 3.269 0c.039-.067 3.994-6.678 11.625-6.678a11.759 11.759 0 0 1 10.934 8.031c1.292 4.313 1.465 16.118-24.195 33.314-25.649-17.19-25.476-28.985-24.186-33.3z" transform="translate(-151.794 -25.905)"/><path d="m287.895 117.465h5.685v5.685a1.895 1.895 0 0 0 3.79 0v-5.685h5.685a1.895 1.895 0 0 0 0-3.79h-5.685v-5.685a1.895 1.895 0 1 0 -3.79 0v5.685h-5.685a1.895 1.895 0 0 0 0 3.79z" transform="translate(-232.513 -90.651)"/><circle cx="74.239" cy="79.982" r="1.895"/></g></svg>