<svg height="88.32" viewBox="0 0 96 88.32" width="96" xmlns="http://www.w3.org/2000/svg"><g fill="#ff7d00"><path d="m17.589 162.859h4.768v6.357h3.179v-7.946a1.589 1.589 0 0 0 -1.589-1.589h-4.768v-.841l20.084-16.622-2.026-2.449-20.661 17.1a1.589 1.589 0 0 0 -.576 1.222v3.179a1.589 1.589 0 0 0 1.589 1.589z" transform="translate(-15.999 -118.603)"/><path d="m209.265 70.508-10.549-8.73v-18.653h1.589v-3.178h-19.071v3.179h1.589v5.5l-19.647-16.26a1.589 1.589 0 0 0 -2.026 0l-22.25 18.413 2.026 2.449 21.237-17.575 44.5 36.827v.842h-4.768a1.589 1.589 0 0 0 -1.589 1.589v14.3h3.179v-12.711h4.768a1.589 1.589 0 0 0 1.589-1.589v-3.179a1.589 1.589 0 0 0 -.576-1.224zm-23.265-19.252v-8.13h9.536v16.021l-3.406-2.818z" transform="translate(-113.841 -32.001)"/><path d="m110.395 278.143h-4.8v-19.072h-3.2v19.071h-6.395v-25.428a12.8 12.8 0 0 0 -25.6 0v25.428h-8.027a3.573 3.573 0 0 0 .022-.4v-5.562a3.59 3.59 0 0 0 -3.224-3.556 3.58 3.58 0 0 0 .024-.417v-5.562a3.584 3.584 0 0 0 -.024-.417 3.59 3.59 0 0 0 3.224-3.556v-5.562a3.59 3.59 0 0 0 -3.224-3.556 3.58 3.58 0 0 0 .024-.417v-5.562a3.592 3.592 0 0 0 -3.595-3.575h-18.4a3.592 3.592 0 0 0 -3.6 3.576v5.562a3.59 3.59 0 0 0 3.224 3.556 3.583 3.583 0 0 0 -.024.417v1.094a14.451 14.451 0 0 0 -18.529 5.095 14.234 14.234 0 0 0 3.084 18.845h-3.755a1.6 1.6 0 0 0 -1.6 1.589v6.357a1.6 1.6 0 0 0 1.6 1.589h92.8a1.6 1.6 0 0 0 1.6-1.589v-6.357a1.6 1.6 0 0 0 -1.605-1.591zm-36.795-25.429a9.6 9.6 0 0 1 19.2 0v25.428h-19.2zm-14.4 25.031a.4.4 0 0 1 -.4.4h-18.4a.4.4 0 0 1 -.4-.4v-.075a14.345 14.345 0 0 0 3.977-5.885h14.823a.4.4 0 0 1 .4.4zm-3.2-15.1v5.562a.4.4 0 0 1 -.4.4h-10.893a14.255 14.255 0 0 0 -.734-6.357h11.627a.4.4 0 0 1 .4.397zm-19.2-19.069a.4.4 0 0 1 .4-.4h18.4a.4.4 0 0 1 .4.4v5.562a.4.4 0 0 1 -.4.4h-18.4a.4.4 0 0 1 -.4-.4zm3.2 9.536a.4.4 0 0 1 .4-.4h18.4a.4.4 0 0 1 .4.4v5.563a.4.4 0 0 1 -.4.4h-16.436a14.454 14.454 0 0 0 -2.364-2.71zm-20.8 13.906a11.2 11.2 0 1 1 11.2 11.125 11.163 11.163 0 0 1 -11.2-11.125zm89.6 17.482h-89.6v-3.179h89.6z" transform="translate(-15.995 -199.358)"/><path d="m0 0h3.84v3.84h-3.84z" transform="translate(69.605 63.097)"/><path d="m198.3 96a11.138 11.138 0 0 0 -11.125 11.125v1.589h-3.175v3.179h28.607v-3.179h-3.179v-1.589a11.138 11.138 0 0 0 -11.128-11.125zm-7.946 11.125a7.96 7.96 0 0 1 6.357-7.787v9.377h-6.357zm9.536 1.589v-9.377a7.96 7.96 0 0 1 6.357 7.787v1.589z" transform="translate(-150.303 -83.286)"/><path d="m70.357 336h-3.178v1.611a3.581 3.581 0 0 0 -3.179 3.554v.795a3.58 3.58 0 0 0 3.576 3.576h2.384a.4.4 0 0 1 .4.4v.795a.4.4 0 0 1 -.4.4h-5.96v3.169h3.179v1.589h3.179v-1.611a3.581 3.581 0 0 0 3.179-3.554v-.795a3.58 3.58 0 0 0 -3.576-3.576h-2.385a.4.4 0 0 1 -.4-.4v-.795a.4.4 0 0 1 .4-.4h5.96v-3.179h-3.179z" transform="translate(-54.463 -276.287)"/></g></svg>