<svg xmlns="http://www.w3.org/2000/svg" width="512pt" height="512pt" viewBox="-31 0 512 512" id="hamster-wheel">
  <path fill="currentColor" d="m225 0c-124.351562 0-225 100.632812-225 225 0 55.070312 19.664062 107.113281 55.652344 148.136719l-55.652344 55.648437v83.214844h150v-30h-120v-40.785156l46.863281-46.867188c41.023438 35.988282 93.066407 55.652344 148.136719 55.652344s107.113281-19.664062 148.136719-55.648438l46.863281 46.863282v40.785156h-120v30h150v-83.214844l-55.652344-55.648437c35.988282-41.023438 55.652344-93.066407 55.652344-148.136719 0-124.351562-100.632812-225-225-225zm194.429688 210.011719h-30.117188c-3.101562-34.25-16.710938-65.523438-37.574219-90.539063l21.277344-21.277344c26.21875 30.558594 43.164063 69.304688 46.414063 111.816407zm-194.429688 149.988281c-31.828125 0-61.113281-11.078125-84.214844-29.570312l64.824219-64.828126c5.875 2.816407 12.453125 4.398438 19.390625 4.398438s13.515625-1.582031 19.390625-4.398438l64.824219 64.828126c-23.101563 18.492187-52.386719 29.570312-84.214844 29.570312zm0-120c-8.269531 0-15-6.730469-15-15s6.730469-15 15-15 15 6.730469 15 15-6.730469 15-15 15zm40.601562 4.390625c2.816407-5.875 4.398438-12.453125 4.398438-19.390625 0-24.8125-20.1875-45-45-45s-45 20.1875-45 45c0 6.9375 1.582031 13.515625 4.398438 19.390625l-64.828126 64.828125c-18.492187-23.105469-29.570312-52.390625-29.570312-84.21875 0-74.4375 60.5625-135 135-135s135 60.5625 135 135c0 31.828125-11.078125 61.113281-29.570312 84.214844zm-204.914062-34.378906h-30.117188c3.25-42.511719 20.195313-81.253907 46.414063-111.816407l21.277344 21.277344c-20.867188 25.015625-34.472657 56.285156-37.574219 90.539063zm269.839844-111.75c-25.015625-20.867188-56.277344-34.472657-90.527344-37.574219v-30.117188c42.507812 3.25 81.242188 20.195313 111.804688 46.414063zm-120.527344-37.574219c-34.25 3.101562-65.511719 16.707031-90.527344 37.574219l-21.277344-21.277344c30.5625-26.21875 69.296876-43.164063 111.804688-46.414063zm-179.429688 179.3125h30.117188c3.101562 34.25 16.707031 65.511719 37.574219 90.527344l-21.277344 21.277344c-26.21875-30.5625-43.164063-69.296876-46.414063-111.804688zm88.902344 111.738281c25.015625 20.863281 56.277344 34.472657 90.527344 37.574219v30.117188c-42.507812-3.25-81.242188-20.195313-111.804688-46.414063zm120.527344 67.691407v-30.117188c34.25-3.101562 65.511719-16.710938 90.527344-37.574219l21.277344 21.277344c-30.5625 26.21875-69.296876 43.164063-111.804688 46.414063zm111.738281-88.902344c20.867188-25.015625 34.472657-56.277344 37.574219-90.527344h30.117188c-3.25 42.507812-20.195313 81.242188-46.414063 111.804688zm0 0"/>
</svg>