<svg height="65.574" viewBox="0 0 76.305 65.574" width="76.305" xmlns="http://www.w3.org/2000/svg"><path d="m75.111 46.34a5.343 5.343 0 0 0 -4.173-1.993h-58.16l-.519-3.722a5.388 5.388 0 0 0 -5.315-4.625h-4.559a2.385 2.385 0 1 0 0 4.769h4.56a.6.6 0 0 1 .59.514l6.437 46.13a5.388 5.388 0 0 0 5.314 4.624h2.586a7.154 7.154 0 1 0 13.487 0h12.741a7.154 7.154 0 1 0 13.487 0h5.179a2.385 2.385 0 0 0 0-4.769h-47.481a.6.6 0 0 1 -.59-.514l-.595-4.254h46.96a5.4 5.4 0 0 0 5.247-4.241l5.876-27.421a5.341 5.341 0 0 0 -1.073-4.5zm-44.111 48.082a2.385 2.385 0 1 1 -2.385-2.384 2.387 2.387 0 0 1 2.385 2.384zm26.23 0a2.385 2.385 0 1 1 -2.385-2.384 2.387 2.387 0 0 1 2.383 2.384zm14.291-44.584-5.876 27.42a.6.6 0 0 1 -.584.472h-47.626l-3.992-28.613h57.495a.6.6 0 0 1 .583.721z" fill="currentColor" transform="translate(0 -36.002)"/></svg>