<svg id="Componente_34_2" data-name="Componente 34 – 2" xmlns="http://www.w3.org/2000/svg" xmlns:xlink="http://www.w3.org/1999/xlink" width="73.155" height="73.143" viewBox="0 0 73.155 73.143">
  <defs>
    <clipPath id="clip-path">
      <rect id="Retângulo_3367" data-name="Retângulo 3367" width="73.155" height="73.143" fill="currentColor"/>
    </clipPath>
  </defs>
  <g id="Grupo_17047" data-name="Grupo 17047" clip-path="url(#clip-path)">
    <path id="Caminho_14045" data-name="Caminho 14045" d="M11.476,3.4c.083,1.734.015,3.474.021,5.211a2.563,2.563,0,1,0,5.107-.03c.006-1.784-.05-3.572.018-5.353a2.934,2.934,0,0,0-2-3.231H13.337a3.173,3.173,0,0,0-1.861,3.4" transform="translate(22.526 0.001)" fill="currentColor"/>
    <path id="Caminho_14046" data-name="Caminho 14046" d="M28.82,11.475c-1.734.08-3.471.015-5.208.021a2.563,2.563,0,1,0,.009,5.107c1.781.006,3.569-.041,5.35.015a3.041,3.041,0,0,0,3.252-2V13.333a3.162,3.162,0,0,0-3.4-1.859" transform="translate(40.932 22.525)" fill="currentColor"/>
    <path id="Caminho_14047" data-name="Caminho 14047" d="M30.6,23.021a2.569,2.569,0,0,0,1.473-2.362,2.524,2.524,0,0,0-1.435-2.268Q21.977,13.452,13.317,8.5a2.541,2.541,0,0,0-3.96,2.321q-.009,9.884,0,19.768a2.547,2.547,0,0,0,3.987,2.285c1.778-1,3.548-2.022,5.321-3.035q5.971-3.41,11.94-6.82" transform="translate(18.37 15.878)" fill="currentColor"/>
    <path id="Caminho_14048" data-name="Caminho 14048" d="M7.463,3.9a2.24,2.24,0,0,0-2.611-.258A2.767,2.767,0,0,0,3.325,5.937a5.4,5.4,0,0,0,.714,1.571c1.58,1.678,3.2,3.323,4.882,4.9a2.41,2.41,0,0,0,3.361-.163,2.377,2.377,0,0,0,.216-3.3C10.889,7.2,9.194,5.528,7.463,3.9" transform="translate(6.531 6.572)" fill="currentColor"/>
    <path id="Caminho_14049" data-name="Caminho 14049" d="M23.316,26.864a5.673,5.673,0,0,0,1.467.806c1.446-.047,2.273-.5,2.688-1.5a2.442,2.442,0,0,0-.534-2.828c-1.485-1.509-2.973-3.015-4.491-4.488a2.534,2.534,0,1,0-3.584,3.584c1.455,1.5,2.923,3,4.452,4.422" transform="translate(35.505 35.499)" fill="currentColor"/>
    <path id="Caminho_14050" data-name="Caminho 14050" d="M8.891,18.653c-1.722,1.6-3.382,3.278-4.992,5a2.248,2.248,0,0,0-.255,2.614A2.723,2.723,0,0,0,5.936,27.77a4.952,4.952,0,0,0,1.521-.664c1.7-1.595,3.37-3.225,4.956-4.932a2.324,2.324,0,0,0-.237-3.284,2.322,2.322,0,0,0-3.284-.237" transform="translate(6.576 35.505)" fill="currentColor"/>
    <path id="Caminho_14051" data-name="Caminho 14051" d="M8.792,16.586a2.553,2.553,0,1,0-.015-5.1c-1.023-.015-2.045,0-3.068,0-1,0-2-.006-3,0A2.543,2.543,0,0,0,0,13.99a2.615,2.615,0,0,0,2.727,2.6q3.032.027,6.065,0" transform="translate(0 22.538)" fill="currentColor"/>
    <path id="Caminho_14052" data-name="Caminho 14052" d="M16.59,23.581a2.56,2.56,0,1,0-5.107-.012q-.013,2.926,0,5.848a2.562,2.562,0,0,0,2.5,2.8,2.625,2.625,0,0,0,2.608-2.786c.015-1,0-2,0-2.994,0-.951.006-1.9,0-2.854" transform="translate(22.543 40.925)" fill="currentColor"/>
    <path id="Caminho_14053" data-name="Caminho 14053" d="M12.955,20.321A2.386,2.386,0,0,0,9.78,21.548c-.892,2.039-1.758,4.093-2.54,6.177a2.537,2.537,0,0,0,2.6,3.32A2.324,2.324,0,0,0,11.9,29.619c.9-2.042,1.758-4.1,2.555-6.18a2.407,2.407,0,0,0-1.5-3.118" transform="translate(13.918 39.525)" fill="currentColor"/>
    <path id="Caminho_14054" data-name="Caminho 14054" d="M11.568,16.636A2.423,2.423,0,0,0,8.4,15.229c-2.033.8-4.046,1.642-6.05,2.5A2.379,2.379,0,0,0,.87,19.793a2.6,2.6,0,0,0,3.447,2.591c2.039-.771,4.052-1.621,6.047-2.5a2.409,2.409,0,0,0,1.2-3.246" transform="translate(1.709 29.569)" fill="currentColor"/>
    <path id="Caminho_14055" data-name="Caminho 14055" d="M17.075,20.2a2.581,2.581,0,0,0-1.995,2.662,1.973,1.973,0,0,0,.095.563c.848,2.084,1.666,4.179,2.591,6.231a2.518,2.518,0,0,0,4.612-1.983q-1.187-3.081-2.514-6.109A2.477,2.477,0,0,0,17.075,20.2" transform="translate(29.619 39.563)" fill="currentColor"/>
    <path id="Caminho_14056" data-name="Caminho 14056" d="M20.208,17.061a2.532,2.532,0,0,0,1.473,2.869c1.939.83,3.883,1.642,5.851,2.4a2.891,2.891,0,0,0,1.524.11,2.45,2.45,0,0,0,1.95-2.185,2.482,2.482,0,0,0-1.521-2.576c-1.936-.833-3.889-1.627-5.842-2.419a3.86,3.86,0,0,0-.768-.184,2.615,2.615,0,0,0-2.668,1.986" transform="translate(39.567 29.61)" fill="currentColor"/>
    <path id="Caminho_14057" data-name="Caminho 14057" d="M9.7,10.3a2.489,2.489,0,0,0,2.783,1.384A2.614,2.614,0,0,0,14.5,8.959a4.008,4.008,0,0,0-.184-.759c-.762-1.888-1.532-3.773-2.327-5.65A2.517,2.517,0,0,0,8.738,1.03,2.613,2.613,0,0,0,7.274,4.385C8.033,6.377,8.857,8.345,9.7,10.3" transform="translate(13.952 1.701)" fill="currentColor"/>
    <path id="Caminho_14058" data-name="Caminho 14058" d="M2.614,12.005c1.814.756,3.631,1.509,5.454,2.244a6.081,6.081,0,0,0,.883.243,2.619,2.619,0,0,0,2.733-2.01,2.5,2.5,0,0,0-1.441-2.819C8.329,8.843,6.4,8.045,4.458,7.3A2.629,2.629,0,0,0,1.031,8.727a2.539,2.539,0,0,0,1.583,3.278" transform="translate(1.702 13.964)" fill="currentColor"/>
    <path id="Caminho_14059" data-name="Caminho 14059" d="M20.667,11.7a1.259,1.259,0,0,0,1.672.655c1.942-.78,3.874-1.565,5.78-2.419.391-.175.64-.658.957-1a1.42,1.42,0,0,0-1.956-1.3C25.2,8.393,23.3,9.185,21.393,9.991a1.269,1.269,0,0,0-.726,1.7" transform="translate(40.376 14.769)" fill="currentColor"/>
    <path id="Caminho_14060" data-name="Caminho 14060" d="M16.232,9.548c.723.314,1.417-.027,1.784-.907q1.129-2.686,2.235-5.377a4.7,4.7,0,0,0,.175-.6,1.308,1.308,0,0,0-1-1.322,1.248,1.248,0,0,0-1.473.824C17.174,4,16.419,5.837,15.666,7.677a1.309,1.309,0,0,0,.566,1.87" transform="translate(30.447 2.558)" fill="currentColor"/>
    <path id="Caminho_14061" data-name="Caminho 14061" d="M20.779,10.356q2.188-2.148,4.334-4.339a5.28,5.28,0,0,0,.59-1.032,4.626,4.626,0,0,0-.889-1.037,1.16,1.16,0,0,0-1.491.273c-1.444,1.444-2.9,2.884-4.334,4.337a1.273,1.273,0,1,0,1.79,1.8" transform="translate(36.384 7.426)" fill="currentColor"/>
  </g>
</svg>
