<svg id="Componente_33_2" data-name="Componente 33 – 2" xmlns="http://www.w3.org/2000/svg" xmlns:xlink="http://www.w3.org/1999/xlink" width="75.828" height="53.658" viewBox="0 0 75.828 53.658">
  <defs>
    <clipPath id="clip-path">
      <rect id="Retângulo_3365" data-name="Retângulo 3365" width="75.828" height="53.658" fill="currentColor"/>
    </clipPath>
  </defs>
  <g id="Grupo_17043" data-name="Grupo 17043" clip-path="url(#clip-path)">
    <path id="Caminho_14041" data-name="Caminho 14041" d="M1.046,23.158a2.04,2.04,0,0,0,2.247,1.878c.579.007,1.16,0,1.853,0-.158.231-.229.353-.316.462a13.412,13.412,0,0,0,1.024,17.51,1.392,1.392,0,0,1,.348.9c.029,2.148.015,4.3.017,6.443s1.1,3.279,3.267,3.291q3.035.018,6.071,0c2.177-.01,3.276-1.1,3.3-3.271.01-.832,0-1.666,0-2.542H56.985c0,.973-.029,1.907.007,2.836a2.836,2.836,0,0,0,2.992,2.97q3.331.051,6.662,0a2.844,2.844,0,0,0,2.972-3.06c.007-2.148-.019-4.3.022-6.443a1.737,1.737,0,0,1,.435-1.08,13.257,13.257,0,0,0,2.71-14.265,41.513,41.513,0,0,0-2.06-3.748c.55,0,1.158,0,1.763,0A2.05,2.05,0,0,0,74.8,23.137q.471-2.313.956-4.626a2,2,0,0,0-2.138-2.663c-2.148,0-4.3-.022-6.441.012a.821.821,0,0,1-.91-.62c-.6-1.457-1.226-2.9-1.868-4.337a14.6,14.6,0,0,0-9.337-8.525A54.435,54.435,0,0,0,39.933.011c-2.291-.039-4.59.024-6.878.144A43.256,43.256,0,0,0,20.407,2.562a22.3,22.3,0,0,0-4.524,2.3,11.335,11.335,0,0,0-3.6,4.531c-1.08,2.1-2.046,4.254-3.091,6.453-2.1,0-4.3.051-6.494-.019A2.607,2.607,0,0,0,0,17.175v1.333a1.545,1.545,0,0,1,.151.314q.452,2.167.9,4.337m64.134,11.2a5.706,5.706,0,0,1-11.412-.012,5.706,5.706,0,1,1,11.412.012M15.557,16.047c.718-1.564,1.481-3.111,2.252-4.648A6.225,6.225,0,0,1,21.09,8.555a32.556,32.556,0,0,1,9.423-2.337,60.689,60.689,0,0,1,11.453-.3A42.507,42.507,0,0,1,53.894,8.186a7.791,7.791,0,0,1,4.7,4.2c.944,2.1,1.885,4.21,2.887,6.455H14.467c.379-.98.686-1.909,1.09-2.795m.917,12.592a5.69,5.69,0,1,1-5.738,5.716,5.683,5.683,0,0,1,5.738-5.716" transform="translate(0 -0.001)" fill="currentColor"/>
  </g>
</svg>
