<svg height="69.099" viewBox="0 0 76.577 69.099" width="76.577" xmlns="http://www.w3.org/2000/svg"><path d="m74.333 25h-72.09a2.243 2.243 0 1 0 0 4.487h5.385v62.368a2.244 2.244 0 0 0 3.114 2.068l13.338-5.616 13.339 5.616a2.244 2.244 0 0 0 1.741 0l13.34-5.616 13.337 5.616a2.243 2.243 0 0 0 3.114-2.068v-62.368h5.384a2.243 2.243 0 1 0 0-4.487zm-9.871 63.476-11.094-4.676a2.244 2.244 0 0 0 -1.741 0l-13.338 5.621-13.338-5.621a2.243 2.243 0 0 0 -1.741 0l-11.095 4.676v-58.989h52.347z" fill="#001f40" transform="translate(0 -25)"/><path d="m190.678 105h-22.435a2.243 2.243 0 0 0 0 4.487h22.435a2.243 2.243 0 0 0 0-4.487z" fill="#ff7d00" transform="translate(-141.173 -93.035)"/><path d="m234.182 225h-20.939a2.243 2.243 0 0 0 0 4.487h20.939a2.243 2.243 0 1 0 0-4.487z" fill="#ff7d00" transform="translate(-179.442 -195.087)"/><circle cx="24.07" cy="32.045" fill="#001f40" r="2.407"/><path d="m234.182 305h-20.939a2.243 2.243 0 1 0 0 4.487h20.939a2.243 2.243 0 1 0 0-4.487z" fill="#ff7d00" transform="translate(-179.442 -263.122)"/><circle cx="24.07" cy="44.08" fill="#001f40" r="2.407"/></svg>