<svg id="_403_Error_Forbidden-rafiki" data-name="403 Error Forbidden-rafiki" xmlns="http://www.w3.org/2000/svg" width="387.78" height="161.28" viewBox="0 0 387.78 161.28">
  <g id="freepik--Shadow--inject-166" transform="translate(-56.11 -266.28)">
    <ellipse id="freepik--path--inject-166" cx="193.89" cy="11.32" rx="193.89" ry="11.32" transform="translate(56.11 404.92)" fill="#f5f5f5"/>
  </g>
  <g id="freepik--Barricade--inject-166" transform="translate(-101.88 -266.28)">
    <path id="Caminho_14230" data-name="Caminho 14230" d="M241.88,417.46H215.7l19.03-151.18h26.19Z" fill="#f27d00"/>
    <path id="Caminho_14231" data-name="Caminho 14231" d="M241.88,417.46H215.7l19.03-151.18h26.19Z" opacity="0.4"/>
    <path id="Caminho_14232" data-name="Caminho 14232" d="M213.36,417.46h2.34l19.03-151.18h-2.34Z" fill="#263238"/>
    <path id="Caminho_14233" data-name="Caminho 14233" d="M339.53,417.46H313.35l19.03-151.18h26.19Z" fill="#f27d00"/>
    <path id="Caminho_14234" data-name="Caminho 14234" d="M339.53,417.46H313.35l19.03-151.18h26.19Z" opacity="0.4"/>
    <path id="Caminho_14235" data-name="Caminho 14235" d="M311,417.46h2.35l19.03-151.18h-2.34Z" fill="#263238"/>
    <path id="Caminho_14236" data-name="Caminho 14236" d="M266.12,399.47h94.96l-4.14-32.91H261.98Z" fill="#f27d00"/>
    <path id="Caminho_14237" data-name="Caminho 14237" d="M266.12,399.47h-1.55l-4.15-32.91h1.56Z" fill="#263238"/>
    <path id="Caminho_14238" data-name="Caminho 14238" d="M355.85,368l3.78,30.03h-5.61L338.95,368Z" fill="#fff"/>
    <path id="Caminho_14239" data-name="Caminho 14239" d="M329.38,368l15.07,30.03h-20.6L308.78,368Z" fill="#fff"/>
    <path id="Caminho_14240" data-name="Caminho 14240" d="M299.21,368l15.07,30.03H293.67L278.61,368Z" fill="#fff"/>
    <path id="Caminho_14241" data-name="Caminho 14241" d="M269.05,368l15.06,30.03h-16.9L263.43,368Z" fill="#fff"/>
    <path id="Caminho_14242" data-name="Caminho 14242" d="M351.99,417.46h26.19L359.14,266.28H332.96Z" fill="#f27d00"/>
    <path id="Caminho_14243" data-name="Caminho 14243" d="M341.44,333.63l27.55,10.83-7.91-62.78H334.89Z" opacity="0.2"/>
    <path id="Caminho_14244" data-name="Caminho 14244" d="M351.99,417.46h-2.34L330.62,266.28h2.34Z" fill="#263238"/>
    <path id="Caminho_14245" data-name="Caminho 14245" d="M254.34,417.46h26.19L261.5,266.28H235.31Z" fill="#f27d00"/>
    <path id="Caminho_14246" data-name="Caminho 14246" d="M243.79,333.63l27.55,10.83-7.91-62.78H237.25Z" opacity="0.2"/>
    <path id="Caminho_14247" data-name="Caminho 14247" d="M254.34,417.46H252L232.97,266.28h2.34Z" fill="#263238"/>
    <path id="Caminho_14248" data-name="Caminho 14248" d="M233.33,326.66H376.32l-6.24-49.55H227.09Z" fill="#f27d00"/>
    <path id="Caminho_14249" data-name="Caminho 14249" d="M233.33,326.66h-2.34l-6.24-49.55h2.34Z" fill="#263238"/>
    <path id="Caminho_14250" data-name="Caminho 14250" d="M368.44,279.27l5.7,45.22h-8.45L343,279.27Z" fill="#fff"/>
    <path id="Caminho_14251" data-name="Caminho 14251" d="M328.59,279.27l22.69,45.22H320.25l-22.68-45.22Z" fill="#fff"/>
    <path id="Caminho_14252" data-name="Caminho 14252" d="M283.16,279.27l22.69,45.22H274.82l-22.69-45.22Z" fill="#fff"/>
    <path id="Caminho_14253" data-name="Caminho 14253" d="M237.74,279.27l22.68,45.22H234.97l-5.69-45.22Z" fill="#fff"/>
  </g>
</svg>
