<svg height="1073.72" viewBox="0 0 1488.999 1073.72" width="1488.999" xmlns="http://www.w3.org/2000/svg" xmlns:xlink="http://www.w3.org/1999/xlink"><linearGradient id="a" gradientUnits="objectBoundingBox" x1="-1.02" x2="-1.02" y1="1"><stop offset="0" stop-color="#808080" stop-opacity=".251"/><stop offset=".54" stop-color="#808080" stop-opacity=".122"/><stop offset="1" stop-color="#808080" stop-opacity=".102"/></linearGradient><linearGradient id="b" x1="0" x2="1.001" xlink:href="#a" y1=".5" y2=".5"/><g transform="translate(-.001 -.006)"><path d="m900.144 208.748c-95.457-3.307-186.38-34.129-273.193-67.85s-172.82-71.065-265.984-88.934c-59.93-11.49-128.467-13.111-176.747 19.015-46.437 30.861-61.485 84.3-69.55 133.816-6.075 37.252-9.646 76.429 6.984 111.348 11.557 24.22 32.074 44.579 46.266 67.771 49.349 80.711 14.5 180.253-39.031 259.053-25.037 36.976-54.2 72.238-73.556 111.586s-28.319 84.454-11.386 124.592c16.8 39.8 56.807 69.682 100.148 90.7 88.038 42.695 191.783 54.923 292.945 61.841 223.936 15.312 449.07 8.684 673.6 2.042 83.1-2.464 166.548-4.955 248.3-17.8 45.383-7.129 92.241-18.448 125.185-45.791 41.838-34.709 52.208-93.48 24.167-137.044-47.017-72.989-177.037-91.121-209.9-169.461-18.093-43.116.488-91.161 26.776-131.141 56.4-85.8 150.933-161.067 155.914-259.119 3.426-67.349-42.023-134.8-112.284-166.667-73.661-33.4-175.786-29.2-230.129 26.091-55.913 56.977-154.242 78.878-238.525 75.952z" fill="#001f40" opacity=".1" transform="translate(-35 -41.991)"/><g opacity=".9"><g fill="#3a3768"><rect height="107.698" rx="2.29" width="13.059" x="954.395" y="314.818"/><rect height="35.46" rx="2.29" width="7.327" x="520.11" y="230.443"/><rect height="61.723" rx="2.29" width="8.262" x="519.846" y="295.355"/><rect height="62.25" rx="2.29" width="7.867" x="519.978" y="378.662"/><rect height="888.508" rx="15" width="437.184" x="524.26" y="113.257"/></g><rect fill="#e6e8ec" height="12.4" rx="3.87" width="61.051" x="700.679" y="139.796"/><circle cx="777.99" cy="145.99" fill="#e6e8ec" r="7.037"/></g><path d="m801.8 146.1h-50.072v6.035a28.582 28.582 0 0 1 -28.595 28.582h-159.551a28.6 28.6 0 0 1 -28.595-28.582v-6.035h-46.925a34.722 34.722 0 0 0 -34.722 34.722v772.772a34.722 34.722 0 0 0 34.722 34.722h313.738a34.722 34.722 0 0 0 34.722-34.722v-772.772a34.722 34.722 0 0 0 -34.722-34.722z" fill="#fff" transform="translate(97.92 -9.69)"/><path d="m0 0h383.487v35.394h-383.487z" fill="#e6e8ec" transform="translate(551.577 195.642)"/><path d="m0 0h32.456v2.952h-32.456z" fill="#3a3768" transform="translate(563.383 203.008)"/><path d="m0 0h32.456v2.952h-32.456z" fill="#3a3768" transform="translate(563.383 211.863)"/><path d="m0 0h32.456v2.952h-32.456z" fill="#3a3768" transform="translate(563.383 220.718)"/><path d="m729.563 211.064h-1.2l-.461-.369a10.093 10.093 0 0 0 2.345-6.457 9.8 9.8 0 1 0 -9.751 9.87 10.121 10.121 0 0 0 6.431-2.359l.448.382v1.212l7.564 7.59 2.267-2.28zm-9.066 0a6.786 6.786 0 1 1 4.821-2 6.826 6.826 0 0 1 -4.818 2z" fill="#3a3768" transform="translate(179.673 5.688)"/><g fill="#d5d5d5"><circle cx="579.604" cy="295.934" r="16.221"/><path d="m0 0h225.675v8.855h-225.675z" transform="translate(630.496 312.156)"/><path d="m0 0h225.675v8.855h-225.675z" transform="translate(631.234 331.329)"/><path d="m0 0h225.675v8.855h-225.675z" transform="translate(631.971 350.515)"/><circle cx="579.604" cy="406.558" r="16.221"/><path d="m0 0h225.675v8.855h-225.675z" transform="translate(630.496 422.78)"/><path d="m0 0h225.675v8.855h-225.675z" transform="translate(631.234 441.953)"/><path d="m0 0h225.675v8.855h-225.675z" transform="translate(631.971 461.126)"/><circle cx="579.604" cy="517.182" r="16.221"/><path d="m0 0h225.675v8.855h-225.675z" transform="translate(630.496 533.403)"/><path d="m0 0h225.675v8.855h-225.675z" transform="translate(631.234 552.576)"/><path d="m0 0h225.675v8.855h-225.675z" transform="translate(631.971 571.749)"/><circle cx="579.604" cy="627.805" r="16.221"/><path d="m0 0h225.675v8.855h-225.675z" transform="translate(630.496 644.027)"/><path d="m0 0h225.675v8.855h-225.675z" transform="translate(631.234 663.2)"/><path d="m0 0h225.675v8.855h-225.675z" transform="translate(631.971 682.373)"/><circle cx="579.604" cy="738.429" r="16.221"/><path d="m0 0h225.675v8.855h-225.675z" transform="translate(630.496 754.651)"/><path d="m0 0h225.675v8.855h-225.675z" transform="translate(631.234 773.824)"/><path d="m0 0h225.675v8.855h-225.675z" transform="translate(631.971 792.997)"/><circle cx="579.604" cy="849.053" r="16.221"/><path d="m0 0h225.675v8.855h-225.675z" transform="translate(630.496 865.274)"/><path d="m0 0h225.675v8.855h-225.675z" transform="translate(631.234 884.447)"/><path d="m0 0h225.675v8.855h-225.675z" transform="translate(631.971 903.62)"/></g><circle cx="856.896" cy="912.476" opacity=".1" r="41.298"/><circle cx="856.895" cy="912.475" fill="#001f40" r="36.87"/><path d="m366.656 158.471-72.119 38.965a1.5 1.5 0 0 0 .105 2.635l12.308 4.625a2.991 2.991 0 0 1 1.621 1.515l9.554 19.687c.185.87 1.792 1.094 1.805.211l-1.463-16.261a5.851 5.851 0 0 1 1.318-3.294l37.4-36.633a.922.922 0 0 1 .817-.237.857.857 0 0 1 .461 1.318l-32.232 39.611a7.18 7.18 0 0 0 -1.318 3.242l-1.861 14.045c.158 1.225 1.12 1.687 1.884.593l6.944-8.157a1.45 1.45 0 0 1 2.042-.343l17.895 13.046a1.449 1.449 0 0 0 2.28-.883l14.68-72.067a1.463 1.463 0 0 0 -2.108-1.621z" fill="#001f40" transform="translate(47.231 -5.813)"/><path d="m944.564 170.116-72.12 39.018a1.5 1.5 0 0 0 .119 2.635l12.295 4.638a2.859 2.859 0 0 1 1.621 1.515l9.567 19.674c.185.87 1.779 1.107 1.805.224l-1.463-16.274a5.77 5.77 0 0 1 1.318-3.281l37.384-36.633a.9.9 0 0 1 .817-.237.856.856 0 0 1 .474 1.318l-32.245 39.427a7.208 7.208 0 0 0 -1.318 3.255l-1.937 14.047c.158 1.225 1.12 1.7 1.9.593l6.945-8.144a1.45 1.45 0 0 1 2.042-.343l17.895 13.032a1.436 1.436 0 0 0 2.267-.883l14.68-72.067a1.463 1.463 0 0 0 -2.108-1.621z" fill="#001f40" transform="translate(230.854 -2.147)"/><path d="m601.265 61.746-49.244 26.631a1.028 1.028 0 0 0 .066 1.845l8.407 3.163a2.016 2.016 0 0 1 1.107 1.028l6.589 13.441c.132.593 1.225.751 1.239.158l-1-11.122a4.033 4.033 0 0 1 .9-2.24l25.531-25.037a.606.606 0 0 1 .553-.158.58.58 0 0 1 .316.936l-22.005 26.921a4.931 4.931 0 0 0 -.857 2.214l-1.318 9.593c.105.843.751 1.16 1.318.408l4.744-5.561a.988.988 0 0 1 1.318-.237l12.215 8.908a.988.988 0 0 0 1.555-.606l10.028-49.2a.988.988 0 0 0 -1.437-1.107z" fill="#001f40" transform="translate(129.102 -36.54)"/><path d="m813.931 42.71-49.243 26.644a1.028 1.028 0 0 0 .066 1.832l8.407 3.163a1.991 1.991 0 0 1 1.107 1.041l6.523 13.428c.132.593 1.226.751 1.239.158l-.949-11.109a4.043 4.043 0 0 1 .9-2.253l25.538-25.037a.606.606 0 0 1 .553-.158.58.58 0 0 1 .316.936l-22.037 26.945a4.93 4.93 0 0 0 -.856 2.214l-1.318 9.606c.105.83.764 1.146 1.318.4l4.744-5.561a.988.988 0 0 1 1.384-.237l12.229 8.908a.975.975 0 0 0 1.542-.606l9.949-49.2a.988.988 0 0 0 -1.443-1.114z" fill="#001f40" transform="translate(196.678 -42.58)"/><path d="m979.8 305.3-145.373-12a2.635 2.635 0 0 0 -2.451 4.111l13.823 18.87a5.152 5.152 0 0 1 .949 3.835l-4.9 38.61c-.566 1.463 1.594 3.373 2.478 2.082l13.652-25.722a10.291 10.291 0 0 1 5.152-3.611l91.319-18.211a1.621 1.621 0 0 1 1.436.435 1.528 1.528 0 0 1 -.633 2.5l-86.352 27.445a12.89 12.89 0 0 0 -5.047 3.611l-16.533 19.054c-.949 1.99 0 3.611 2.24 2.728l18.277-5.39a2.636 2.636 0 0 1 3.374 1.476l13.968 36.818a2.635 2.635 0 0 0 4.256.9l91.938-93.071a2.635 2.635 0 0 0 -1.573-4.47z" fill="#001f40" transform="translate(218.081 37.073)"/><path d="m647.015 432.781a23.473 23.473 0 0 0 4.955 5.007c1.225 1.015 2.49 2.056 3.808 2.978.369.264.751.514 1.133.764 0 .066-.079.132-.106.211a2.99 2.99 0 0 0 -.343 1.832 3.951 3.951 0 0 0 1.41 1.9 19.5 19.5 0 0 1 5.943 10.74c.448 2.385-1.16 4.942-1.054 7.366a21.45 21.45 0 0 0 1.871 6.879c2.016 5.113 4.151 10.423 8.17 14.152a45.75 45.75 0 0 0 9.158 22.573c4.243 5.416 9.883 9.527 15.457 13.546a30.039 30.039 0 0 0 5.706 3.584 32.24 32.24 0 0 0 5.653 1.515 291.469 291.469 0 0 0 49.665 5.614q.7 14.89.606 29.768a12.276 12.276 0 0 1 -.685 4.81 21.394 21.394 0 0 1 -2.873 4.032c-3.808 5.06-3.953 11.939-3.69 18.277a168.339 168.339 0 0 0 2.635 22.112c1.726 9.356.145 19.687 3.466 28.595 1.318 3.518 2.635 7.024 3.953 10.542a9.305 9.305 0 0 1 .778 3.123c0 2.306-1.529 4.269-2.635 6.272a18.171 18.171 0 0 0 -2.306 9.58 1.989 1.989 0 0 0 .277 1.067c.435.58 1.318.527 2.029.422a85.4 85.4 0 0 1 8.8-.817 16.16 16.16 0 0 0 -1.423 2.1 30.852 30.852 0 0 0 -1.871 3.848 36.392 36.392 0 0 0 -2.5 6.879 8.352 8.352 0 0 0 -.25 1.054c-.158.712-.3 1.436-.422 2.148a71.145 71.145 0 0 0 -.778 12.65c-.408 7.906-.8 16.129-1.568 18.527-1.08 3.413.264 8.868 1.594 14.073a33.314 33.314 0 0 0 1.911 10.542 63.533 63.533 0 0 0 1.318 11.122q6.839 38.53 14.5 76.877c.461 2.227.9 4.441 1.489 6.589a53.923 53.923 0 0 0 9.87 19.516 88.706 88.706 0 0 1 10.3 16.5c-.3 1.4-.619 2.794-.948 4.177-2.9 12.242-6.734 24.312-8.065 36.818-.527 4.981-.685 10.12-2.635 14.719-1 2.346-2.477 4.586-2.635 7.129a7.907 7.907 0 0 0 1.094 4.625c-.343.25-.672.514-.989.777l-.54.448c-3.742 2.978-8.763 3.584-13.375 4.783s-9.58 3.637-11 8.223a7.181 7.181 0 0 0 -.224.883c-.843 4.217 1.713 8.7 5.271 11.174 3.835 2.636 8.6 3.453 13.177 4.046s9.382 1.054 13.56 3.11c3.611 1.792 6.655 4.731 10.542 6.022l.672.2c-.856.514-1.726 1.015-2.635 1.476a39.685 39.685 0 0 1 -12.637 3.953c-4.454.619-9.778.909-12.071 4.8-1.871 3.215-.514 7.551 2.188 10.081s6.444 3.663 10.067 4.454a183.212 183.212 0 0 0 25.037 3.11l8.183.619c7.906.606 15.971 1.226 23.983 1.318a165.21 165.21 0 0 0 29.491-2.57 3.215 3.215 0 0 0 2.345-1.133 3.346 3.346 0 0 0 .356-1.871 144.141 144.141 0 0 0 -3.742-29.728c-.672-2.925-4.665 1.067-6.905 3.6-.29-1.463-.632-2.912-1.015-4.322l1.753-.83a6.313 6.313 0 0 0 3.215-2.636 6.443 6.443 0 0 0 .343-3.1c-.316-6.43-.711-13.1-3.769-18.751a39.735 39.735 0 0 0 -7.458-9.079c-.909-20.2-2.886-40.428-7.3-60.141-2.267-10.081-5.073-20.267-10.9-28.792-.725-1.067-1.515-2.135-2.306-3.2a259.017 259.017 0 0 0 -3.518-28.9 7.458 7.458 0 0 1 0-3.848 11.868 11.868 0 0 1 2.121-2.925c3.505-4.52 2.069-10.95 1.66-16.669-.58-8.223 1.318-16.366 3.281-24.378q3.584-14.811 7.129-29.636a48.025 48.025 0 0 1 2.5-8.209c1.66-3.716 4.23-6.931 6.43-10.358a58.413 58.413 0 0 0 8.934-35.2c1.318.474 2.636.962 4.033 1.489.988-8.275-2.5-17.671 0-25.445a32.708 32.708 0 0 0 10.094-12.018c1.95-4.375 2.5-9.3 4.546-13.639 1.16-2.438 2.78-4.691 3.452-7.313 1.015-3.953-.25-8.065-.2-12.11.132-8.816 6.589-17 5.139-25.709-.659-4.138-3.057-7.906-2.925-12.163a20.353 20.353 0 0 1 1.7-6.589c4.849-12.848 9.633-26.526 7.142-40.046-.633-3.453-1.752-6.892-1.568-10.41.211-4.019 2.122-7.906 1.555-11.925a9.05 9.05 0 0 0 -1.792-4.177 50.079 50.079 0 0 0 4.415-8.46 12.112 12.112 0 0 0 1.173-5.4 9.568 9.568 0 0 0 -3.808-6.431 38.554 38.554 0 0 0 -6.587-3.851 5.379 5.379 0 0 1 -1.937-1.384 14.221 14.221 0 0 1 -1.094-2.082c-1.318-2.253-4.125-2.965-6.352-4.322-8.038-4.9-7.261-17.539-14.126-24.009a13.731 13.731 0 0 0 -17.131-.909 4.2 4.2 0 0 1 -2.425 1.2 4.654 4.654 0 0 1 -2.345-1.318 9.449 9.449 0 0 0 -5.8-1.608 55.607 55.607 0 0 1 -1.74-15.378h.619a8.131 8.131 0 0 0 2.4-.277c3.531-1.015 5.548-4.665 6.984-8.064a61.3 61.3 0 0 0 3.1-8.855c.079-.29.145-.58.21-.856 6.76 4.744 14.614 9.712 16.485 8.671 3.465-1.911-15.484-15.391-15.484-15.391 2.227-1.977 3.466-5.548 3.953-8.7 1.107-6.286 1.634-12.822.158-19.041s-5.205-12.136-10.871-15.035c-2.5-1.318-5.547-2.187-7.366-4.177a4.747 4.747 0 0 1 -.711-.975 2.457 2.457 0 0 1 -.29-.514 7.185 7.185 0 0 0 -.791-1.555c-1.041-1.2-2.926-.83-4.493-.646h-1.353c-5.614.119-11.056-3.018-16.735-3.018-6.233 0-11.53 3.61-17.012 6.088-1.107.5-2.161.962-3.149 1.423-3.426 1.608-6.127 3.321-7.906 7.182a11.137 11.137 0 0 0 -2.28 4.414 10.369 10.369 0 0 0 -.29 2.267 37.7 37.7 0 0 0 16.941 63.247c.132.369.264.738.382 1.107a31.721 31.721 0 0 1 1.647 10.542v.751a28.6 28.6 0 0 0 -8.131 3.308 15.722 15.722 0 0 0 -6.852 8.42 8.165 8.165 0 0 0 -.21.8 21.691 21.691 0 0 0 -6.194-1.067c-1.911 0-4.059.145-5.271 1.594a4.865 4.865 0 0 0 -1 2.042c-.725.672-.87 1.832-1.318 2.715-1.594 2.78-5.706 1.871-8.8 2.635-3.36.83-6.009 3.953-9.474 3.953a16.182 16.182 0 0 0 -3.953-.145c-1.318.316-2.319 2.1-1.318 2.991a4.2 4.2 0 0 0 -3.953 1.911c-.949 1.239-1.582 2.715-2.635 3.874a4.033 4.033 0 0 0 -4.111-1.594 15.26 15.26 0 0 0 -4.336 1.713 6.238 6.238 0 0 1 -1.91.672 8.242 8.242 0 0 1 -2.333-.211 18.631 18.631 0 0 0 -10.911 1.529c-3 1.423-5.891-1.186-9.224-1.4a5.153 5.153 0 0 1 -3.374-1.041 6.59 6.59 0 0 1 -1.317-2.635 13.178 13.178 0 0 0 -9.646-8.539 11.227 11.227 0 0 0 -6.589-13.849 11.978 11.978 0 0 0 -4.112-10.436 19.244 19.244 0 0 1 -2.082-1.634 9.989 9.989 0 0 1 -1.911-3.531l-2.925-7.748c-1.318-.264-2.306-.8-3.531-1.015v-.791a25.4 25.4 0 0 0 -1.318-7.775 43.554 43.554 0 0 0 -6.246-11.372c-2.794-3.953-5.89-7.735-10.041-10.094a35.986 35.986 0 0 0 -4.283-1.976l-7.537-3.11a3.664 3.664 0 0 0 -1.318-.369c-2.029 0-2.4 3.136-1.318 4.81 2.293 3.387 7.458 4.335 8.921 8.17a5.811 5.811 0 0 0 -5.39 4.19 2.938 2.938 0 0 1 -.725 1.7c-.659.54-1.7.224-2.464.633-1.318.725-.751 2.728-.9 4.243a20.384 20.384 0 0 1 -1.318 3.821 8.182 8.182 0 0 0 1.173 6.879zm180.685 528.411c0-.777-.105-1.555-.171-2.319.158.408.3.83.461 1.239 1.318 3.479 2.807 6.9 4.362 10.292l-.263-.145a13.023 13.023 0 0 0 -3.6-1.028 3.681 3.681 0 0 1 -1-.092 28.1 28.1 0 0 0 .211-7.92z" fill="url(#a)" transform="translate(158.989 56.201)"/><path d="m770.571 437.036c-.145 5.508-2 10.832-2.293 16.327 16.195.8 32.179-7.05 48.229-4.652-4.48-2.9-6.879-8.13-8.3-13.283a55.435 55.435 0 0 1 -1.581-20.4 8.388 8.388 0 0 1 .211-1.133c.593-2.635 2.135-6.5 1.713-8.618-.54-2.794-3.176-2.24-5.561-2.082a209.484 209.484 0 0 0 -21.624 2.794c-1.858.316-20.03 4.849-20.293 4.375a85.381 85.381 0 0 1 7.906 16.195 31.456 31.456 0 0 1 1.593 10.477z" fill="#ee8e9e" transform="translate(195.697 71.95)"/><path d="m647.009 424.156a23.72 23.72 0 0 0 4.955 4.981c1.225 1.015 2.49 2.042 3.808 2.965a16.275 16.275 0 0 0 8.1 3.294c3.861.264 12.044-2 14.5-5.271a9.517 9.517 0 0 0 1.384-5.535 25.13 25.13 0 0 0 -1.318-7.735 43.162 43.162 0 0 0 -6.246-11.306c-2.793-3.874-5.89-7.7-10.041-10.041a38.218 38.218 0 0 0 -4.283-1.977l-7.537-3.083a3.663 3.663 0 0 0 -1.318-.369c-2.029 0-2.4 3.11-1.318 4.783 2.293 3.373 7.458 4.309 8.921 8.13a5.785 5.785 0 0 0 -5.39 4.164 2.9 2.9 0 0 1 -.725 1.687c-.659.54-1.7.237-2.464.633-1.318.725-.751 2.714-.9 4.23a20.461 20.461 0 0 1 -1.318 3.8 8.09 8.09 0 0 0 1.186 6.655z" fill="#ee8e9e" transform="translate(158.996 67.83)"/><path d="m824.265 840.784c-1.239-1.318-3.281-1.041-5.021-.764a186.391 186.391 0 0 1 -28.266 2.293c-1.186-5.785 2.253-11.412 3.36-17.223a15.189 15.189 0 0 1 1.12-4.348c1.318-2.556 4.335-3.729 7.155-4.322 5.1-1.067 13.059-2.965 15.905 2.174 3.415 6.18 4.509 15.312 5.747 22.19z" fill="#65617d" transform="translate(205.122 202.898)"/><path d="m738.905 824.661c3.834 2.635 8.6 3.439 13.177 4.032s9.382 1.041 13.56 3.1c3.611 1.779 6.654 4.7 10.542 5.982a21.835 21.835 0 0 0 10.871.171c4.3-.8 8.869-2.372 11.188-6.075 2.056-3.294 1.845-7.484 1.555-11.359-.329-4.388-.646-8.776-.975-13.177a6.236 6.236 0 0 0 -.817-3.176c-3.1-4.533-10.647 1.885-14.693 1.885-6.4 0-13.27-3.479-17.882-7.722a5.725 5.725 0 0 0 -1.4-1.054c-1.818-.817-3.65.7-5.271 2.016l-.54.448c-3.743 2.965-8.763 3.571-13.375 4.77s-9.58 3.611-11 8.17a7.02 7.02 0 0 0 -.224.869c-.87 4.228 1.687 8.682 5.284 11.12z" fill="#3f3d56" transform="translate(186.921 197.133)"/><path d="m738.905 824.661c3.834 2.635 8.6 3.439 13.177 4.032s9.382 1.041 13.56 3.1c3.611 1.779 6.654 4.7 10.542 5.982a21.835 21.835 0 0 0 10.871.171c4.3-.8 8.869-2.372 11.188-6.075 2.056-3.294 1.845-7.484 1.555-11.359-.329-4.388-.646-8.776-.975-13.177a6.236 6.236 0 0 0 -.817-3.176c-3.1-4.533-10.647 1.885-14.693 1.885-6.4 0-13.27-3.479-17.882-7.722a5.725 5.725 0 0 0 -1.4-1.054c-1.818-.817-3.65.7-5.271 2.016l-.54.448c-3.743 2.965-8.763 3.571-13.375 4.77s-9.58 3.611-11 8.17a7.02 7.02 0 0 0 -.224.869c-.87 4.228 1.687 8.682 5.284 11.12z" opacity=".05" transform="translate(186.921 197.133)"/><path d="m739.014 826.157c3.834 2.635 8.6 3.439 13.177 4.032s9.382 1.041 13.56 3.1c3.61 1.779 6.654 4.7 10.542 5.982a21.832 21.832 0 0 0 10.871.171 17.96 17.96 0 0 0 11.188-7.55c2.056-3.294 1.845-7.485 1.555-11.359-.33-4.388-.646-8.776-.975-13.177a6.236 6.236 0 0 0 -.817-3.176c-3.1-4.533-10.647 1.885-14.693 1.885-6.4 0-13.27-3.479-17.882-7.722a5.736 5.736 0 0 0 -1.4-1.054c-1.818-.817-3.65.7-5.271 2.016a37.725 37.725 0 0 0 4.493 9.224 19.384 19.384 0 0 0 14.1 8.829c2.859.211 5.8-.356 8.565.382s5.271 3.558 4.362 6.259-4.335 3.189-7.129 3.334c-3.953.224-7.906.409-11.635-.8-2.267-.764-4.335-2.016-6.589-2.926-9.382-3.953-21.229-1.713-28.99-8.288a17.432 17.432 0 0 0 -2.372-1.819c-2.026 4.316 1.743 10.193 5.34 12.657z" fill="#e8eaf2" transform="translate(186.812 197.14)"/><path d="m739.014 826.157c3.834 2.635 8.6 3.439 13.177 4.032s9.382 1.041 13.56 3.1c3.61 1.779 6.654 4.7 10.542 5.982a21.832 21.832 0 0 0 10.871.171 17.96 17.96 0 0 0 11.188-7.55c2.056-3.294 1.845-7.485 1.555-11.359-.33-4.388-.646-8.776-.975-13.177a6.236 6.236 0 0 0 -.817-3.176c-3.1-4.533-10.647 1.885-14.693 1.885-6.4 0-13.27-3.479-17.882-7.722a5.736 5.736 0 0 0 -1.4-1.054c-1.818-.817-3.65.7-5.271 2.016a37.725 37.725 0 0 0 4.493 9.224 19.384 19.384 0 0 0 14.1 8.829c2.859.211 5.8-.356 8.565.382s5.271 3.558 4.362 6.259-4.335 3.189-7.129 3.334c-3.953.224-7.906.409-11.635-.8-2.267-.764-4.335-2.016-6.589-2.926-9.382-3.953-21.229-1.713-28.99-8.288a17.432 17.432 0 0 0 -2.372-1.819c-2.026 4.316 1.743 10.193 5.34 12.657z" opacity=".05" transform="translate(186.812 197.14)"/><path d="m840.709 605.331a57.677 57.677 0 0 1 -7.906 42.563c-2.2 3.413-4.77 6.589-6.43 10.3a47.566 47.566 0 0 0 -2.5 8.17l-7.129 29.544c-1.924 7.906-3.861 16.076-3.281 24.246.408 5.693 1.845 12.084-1.66 16.59a11.856 11.856 0 0 0 -2.122 2.9 7.416 7.416 0 0 0 0 3.835c3.611 21.4 6.272 43.788-.237 64.49-5.89 18.765-6.233 39.532-11.253 58.587-.619 2.359-1.318 4.836-3.11 6.5a10.294 10.294 0 0 1 -4.678 2.227c-7.392 1.753-15.193-.3-22.085-3.505-4.849-2.24-10.067-6.18-9.646-11.5.2-2.53 1.674-4.757 2.635-7.089 1.977-4.573 2.135-9.685 2.636-14.64 1.312-12.449 5.157-24.449 8.057-36.625s4.876-24.892 2.425-37.16a325.25 325.25 0 0 0 -23.917-73.543 8.6 8.6 0 0 0 -2.187-3.281 23.337 23.337 0 0 1 -3.1-2.121 9.316 9.316 0 0 1 -1.41-3.861c-1.081-3.874-4.283-6.747-6.43-10.147-5.429-8.618-3.7-19.66-3.505-29.833.2-9.9-1.225-19.871.4-29.636s7.208-19.766 16.617-22.8c4.665-1.515 9.712-1.173 14.587-.685 25.867 2.493 50.983 7.185 75.229 16.474z" fill="#303d5c" transform="translate(186.925 130.858)"/><path d="m840.709 605.331a57.677 57.677 0 0 1 -7.906 42.563c-2.2 3.413-4.77 6.589-6.43 10.3a47.566 47.566 0 0 0 -2.5 8.17l-7.129 29.544c-1.924 7.906-3.861 16.076-3.281 24.246.408 5.693 1.845 12.084-1.66 16.59a11.856 11.856 0 0 0 -2.122 2.9 7.416 7.416 0 0 0 0 3.835c3.611 21.4 6.272 43.788-.237 64.49-5.89 18.765-6.233 39.532-11.253 58.587-.619 2.359-1.318 4.836-3.11 6.5a10.294 10.294 0 0 1 -4.678 2.227c-7.392 1.753-15.193-.3-22.085-3.505-4.849-2.24-10.067-6.18-9.646-11.5.2-2.53 1.674-4.757 2.635-7.089 1.977-4.573 2.135-9.685 2.636-14.64 1.312-12.449 5.157-24.449 8.057-36.625s4.876-24.892 2.425-37.16a325.25 325.25 0 0 0 -23.917-73.543 8.6 8.6 0 0 0 -2.187-3.281 23.337 23.337 0 0 1 -3.1-2.121 9.316 9.316 0 0 1 -1.41-3.861c-1.081-3.874-4.283-6.747-6.43-10.147-5.429-8.618-3.7-19.66-3.505-29.833.2-9.9-1.225-19.871.4-29.636s7.208-19.766 16.617-22.8c4.665-1.515 9.712-1.173 14.587-.685 25.867 2.493 50.983 7.185 75.229 16.474z" opacity=".05" transform="translate(186.925 130.858)"/><path d="m735.954 666.228a61.924 61.924 0 0 0 1.317 11.438q6.839 38.333 14.5 76.429c.461 2.214.9 4.414 1.489 6.589a53.56 53.56 0 0 0 9.87 19.41c21.47 26.763 23.332 65.636 34.981 97.906.778 2.188 1.568 4.375 2.4 6.589a163.188 163.188 0 0 0 7.195 16.037 4.519 4.519 0 0 0 1.476 1.911 4.414 4.414 0 0 0 2.346.461 68.325 68.325 0 0 0 30.308-6.892 6.273 6.273 0 0 0 3.215-2.635 6.416 6.416 0 0 0 .343-3.083c-.316-6.391-.711-13.032-3.769-18.646a39.541 39.541 0 0 0 -7.458-9.04c-.909-20.1-2.886-40.217-7.3-59.825-2.266-10.028-5.073-20.161-10.9-28.647-4.3-6.259-10.45-12.426-9.7-19.977.343-3.321 1.726-7.445-.975-9.4-1.173-.856-2.925-.962-3.716-2.187a4.032 4.032 0 0 1 -.527-1.871 46.421 46.421 0 0 1 .962-15.5 83.461 83.461 0 0 0 2.306-10.094c.343-3.452-.237-7.182-2.543-9.751-.145-6.892 0-14.047-.092-20.939a39.023 39.023 0 0 1 .975-11.688c.514-1.805 1.318-3.531 1.713-5.376 1.449-6.589-2.148-14.5 2.135-19.766 1.779-2.187 4.533-3.268 6.865-4.849 4.678-3.11 7.735-8.209 9.435-13.559a74.918 74.918 0 0 0 2.635-16.6 17.284 17.284 0 0 0 0-3.6 6.7 6.7 0 0 0 -.487-1.792c-1.318-2.991-4.9-4.151-8.091-4.915a261.689 261.689 0 0 0 -61.8-7.221c-7.7-5.271-12.031-3.373-15.286 2.188a56.349 56.349 0 0 0 -4.362 10.634c-1.489 4.493-1.581 29.715-3.031 34.261-1.845 5.816 3.571 17.833 3.571 24z" fill="#303d5c" transform="translate(186.46 132)"/><path d="m853 476.181c.566 3.953-1.318 7.906-1.555 11.86-.185 3.505.936 6.918 1.568 10.357 2.491 13.441-2.293 27.053-7.142 39.835a20.143 20.143 0 0 0 -1.7 6.589c-.132 4.164 2.267 7.985 2.926 12.11 1.384 8.657-5.007 16.8-5.139 25.564 0 4.032 1.212 8.144.2 12.044-.672 2.635-2.293 4.849-3.452 7.287-2.043 4.309-2.635 9.224-4.546 13.56-3.531 7.906-11.122 13.006-18.33 17.723-4.111-1.318-8.552-2.991-10.806-6.681a16.544 16.544 0 0 1 -1.884-5.877c-1.568-8.96-1.516-18.119-1.449-27.211a169.7 169.7 0 0 1 1.239-23.442c1.462-9.883 4.665-19.41 6.971-29.135 2.9-12.268 4.388-24.945 8.908-36.712 3.953-10.331 10.16-19.621 16.683-28.5 2.477-3.4 4.441-8.236 9.224-7.458a10.134 10.134 0 0 1 8.284 8.087z" fill="#3f3d56" transform="translate(208.593 92.59)"/><path d="m853 476.181c.566 3.953-1.318 7.906-1.555 11.86-.185 3.505.936 6.918 1.568 10.357 2.491 13.441-2.293 27.053-7.142 39.835a20.143 20.143 0 0 0 -1.7 6.589c-.132 4.164 2.267 7.985 2.926 12.11 1.384 8.657-5.007 16.8-5.139 25.564 0 4.032 1.212 8.144.2 12.044-.672 2.635-2.293 4.849-3.452 7.287-2.043 4.309-2.635 9.224-4.546 13.56-3.531 7.906-11.122 13.006-18.33 17.723-4.111-1.318-8.552-2.991-10.806-6.681a16.544 16.544 0 0 1 -1.884-5.877c-1.568-8.96-1.516-18.119-1.449-27.211a169.7 169.7 0 0 1 1.239-23.442c1.462-9.883 4.665-19.41 6.971-29.135 2.9-12.268 4.388-24.945 8.908-36.712 3.953-10.331 10.16-19.621 16.683-28.5 2.477-3.4 4.441-8.236 9.224-7.458a10.134 10.134 0 0 1 8.284 8.087z" opacity=".05" transform="translate(208.593 92.59)"/><path d="m761.07 410.365a85.386 85.386 0 0 1 7.906 16.2 37.118 37.118 0 0 0 8.934 1.08c11.675 0 19.95-6.589 26.816-15.035.593-2.635 4.3-5.205 3.874-7.327-.54-2.794-3.176-2.24-5.561-2.082a209.488 209.488 0 0 0 -21.624 2.794c-1.915.311-20.082 4.897-20.345 4.37z" opacity=".1" transform="translate(195.697 71.95)"/><circle cx="973.555" cy="461.152" fill="#ee8e9e" r="37.424"/><path d="m737.93 597.27c6.47-.382 12.993-.132 19.489.132a67.78 67.78 0 0 1 12.11 1.239c4.915 1.12 9.514 3.36 14.363 4.757 7.761 2.266 15.945 2.359 24 3.163a137.956 137.956 0 0 1 15.707 2.451 6.712 6.712 0 0 0 -.487-1.792c-1.318-2.991-4.9-4.151-8.091-4.915a261.685 261.685 0 0 0 -61.8-7.221c-7.701-5.22-12.036-3.349-15.291 2.186z" opacity=".1" transform="translate(188.344 131.988)"/><path d="m767.212 441.6c1.634 1.884 3.821 3.953 6.246 3.347a8.614 8.614 0 0 0 2.425-1.318c4.309-2.78 9.606-3.439 14.68-4.2a215.742 215.742 0 0 0 30.308-6.8 30.9 30.9 0 0 1 8.947-1.818c6.338 0 11.965 4.256 15.931 9.224s6.747 10.792 10.7 15.786c2.781 3.558 6.088 6.694 8.684 10.4 6.589 9.343 7.906 21.532 6.259 32.812s-6.194 21.927-10.661 32.416a111.721 111.721 0 0 1 -8.71 17.565c1.5 8.565.711 18.369-3.36 26.065-1.318 2.5-2.952 4.942-3.4 7.748a19.582 19.582 0 0 0 .237 5.679l1.911 13.546c.58 4.124 1.159 8.262 1.91 12.36 1.318 7.5 3.242 15.628-.237 22.4-4.164 8.117.211 18.54-.883 27.672a138.926 138.926 0 0 0 -36.554-8.71c-8.038-.777-16.221-.883-23.983-3.136-4.849-1.41-9.448-3.65-14.363-4.77a66.572 66.572 0 0 0 -12.11-1.239c-8.974-.356-18-.712-26.868.606-.725.105-1.594.158-2.029-.422a1.936 1.936 0 0 1 -.277-1.054 17.948 17.948 0 0 1 2.306-9.527c1.12-2 2.635-3.953 2.635-6.246a9.223 9.223 0 0 0 -.778-3.11l-3.953-10.542c-3.321-8.855-1.74-19.134-3.466-28.437a166.667 166.667 0 0 1 -2.635-21.993c-.316-6.312-.119-13.177 3.69-18.2a20.716 20.716 0 0 0 2.873-3.953 12.184 12.184 0 0 0 .685-4.783q.119-18.936-1.041-37.859c3.321-5.969 6.786-12.07 10.107-18.027 3.861-6.944 7.775-14.021 9.343-21.808 1.028-5.166.989-10.476 1.726-15.681a6.83 6.83 0 0 1 1.318-3.65c1.318-1.436 3.413-1.647 5.271-1.581a23.258 23.258 0 0 1 7.116 1.238z" fill="#3f3d56" transform="translate(184.561 80.772)"/><path d="m653.31 423.945a16.276 16.276 0 0 0 8.1 3.294c3.861.263 12.044-2 14.495-5.271a9.513 9.513 0 0 0 1.384-5.534 6.814 6.814 0 0 0 -1.608-.3 42.163 42.163 0 0 0 -12.558.5c-4.085 1-8.025 3.479-9.751 7.313z" opacity=".1" transform="translate(161.458 76.027)"/><path d="m777.669 504.619c-2.266 2.846-4.652 5.759-7.906 7.445-3.716 1.924-8.091 1.963-12.281 1.884a294.742 294.742 0 0 1 -51.392-5.64 32.237 32.237 0 0 1 -5.653-1.515 29.976 29.976 0 0 1 -5.706-3.571c-5.574-3.953-11.214-8.078-15.457-13.467a45.449 45.449 0 0 1 -9.158-22.467c-4.019-3.7-6.154-8.974-8.17-14.073a21.248 21.248 0 0 1 -1.871-6.826c-.105-2.424 1.5-4.968 1.054-7.353a19.356 19.356 0 0 0 -5.943-10.674 3.954 3.954 0 0 1 -1.41-1.884 2.952 2.952 0 0 1 .343-1.819c1.713-3.848 5.653-6.325 9.738-7.327a42.259 42.259 0 0 1 12.571-.5 29.154 29.154 0 0 1 4.111 1.094l2.926 7.709a9.93 9.93 0 0 0 1.911 3.518 19.162 19.162 0 0 0 2.082 1.621 11.86 11.86 0 0 1 4.111 10.384 11.161 11.161 0 0 1 6.588 13.783 13.177 13.177 0 0 1 9.646 8.486 6.427 6.427 0 0 0 1.318 2.635 5.152 5.152 0 0 0 3.373 1.041c3.307.2 6.193 2.807 9.224 1.4a18.634 18.634 0 0 1 10.911-1.528 8.223 8.223 0 0 0 2.332.2 5.876 5.876 0 0 0 1.911-.659 15.651 15.651 0 0 1 4.335-1.713 4.058 4.058 0 0 1 4.111 1.595c1.054-1.146 1.687-2.636 2.635-3.848a4.23 4.23 0 0 1 3.953-1.911c-1-.883 0-2.636 1.318-2.978a17.6 17.6 0 0 1 3.953.145c3.466 0 6.114-3.162 9.474-3.953 3.1-.764 7.208.145 8.8-2.636.554-.975.672-2.293 1.621-2.9a3.162 3.162 0 0 1 2.1-.237 20.462 20.462 0 0 1 6.312 1.911c3.242 12.677 1.542 25.841-.936 38.689a33.93 33.93 0 0 1 -6.879 15.939z" fill="#3f3d56" transform="translate(161.597 76.249)"/><path d="m748.757 518.893 16.116 32.5c-1.74-3-5.416-4.177-8.315-6.1a22.11 22.11 0 0 1 -7.906-10.674 65.9 65.9 0 0 1 -3.044-13.177c-.329-2.069-1-4.955 0-6.826 1.792.389 2.384 2.748 3.149 4.277z" opacity=".1" transform="translate(190.616 107.398)"/><path d="m784.669 540.347c3.637 3.6 8.078 6.246 12.083 9.435 9.343 7.445 16.01 17.644 22.52 27.672a44.721 44.721 0 0 1 4.6 8.381c-.764.659-1.911 0-2.635-.685l-12.65-11.122a28.1 28.1 0 0 1 -4.217-4.27c-2.2-2.965-3.176-6.589-5.165-9.751a38.389 38.389 0 0 0 -7.7-7.906c-2.9-2.49-16.261-13.783-13.006-18.171 2.323 1.252 4.247 4.507 6.17 6.417z" opacity=".1" transform="translate(201.074 113.536)"/><path d="m763.84 433.717c3.954-2.5 8.75-3.558 13.4-4.414a28.076 28.076 0 0 1 8.512-.606c2.635.329 5.166 1.318 7.814 1.489 3.729.211 7.3-1.318 10.885-2.28s7.748-1.318 10.779.8a4.561 4.561 0 0 0 2.345 1.252 4.177 4.177 0 0 0 2.425-1.182 13.784 13.784 0 0 1 17.131.909c6.865 6.431 6.088 19 14.126 23.877 2.227 1.318 5.06 2.056 6.351 4.309a15.544 15.544 0 0 0 1.094 2.069 5.5 5.5 0 0 0 1.937 1.318 38.418 38.418 0 0 1 6.589 3.808 9.515 9.515 0 0 1 3.808 6.4 12.006 12.006 0 0 1 -1.173 5.376 50.457 50.457 0 0 1 -49.031 31.358 7.748 7.748 0 0 1 -5.139-1.594 9.736 9.736 0 0 1 -1.805-2.965c-3.782-7.906-10.871-13.783-15.391-21.321-2.635-4.493-4.4-9.514-7.208-13.928-4.23-6.707-10.687-11.662-17-16.472-3.558-2.715-7.524-5.561-11.991-5.363-3.954.171-6.879.382-5.416-4.507a15.629 15.629 0 0 1 6.958-8.328z" fill="#3f3d56" transform="translate(194.244 79.314)"/><path d="m763.84 433.717c3.954-2.5 8.75-3.558 13.4-4.414a28.076 28.076 0 0 1 8.512-.606c2.635.329 5.166 1.318 7.814 1.489 3.729.211 7.3-1.318 10.885-2.28s7.748-1.318 10.779.8a4.561 4.561 0 0 0 2.345 1.252 4.177 4.177 0 0 0 2.425-1.182 13.784 13.784 0 0 1 17.131.909c6.865 6.431 6.088 19 14.126 23.877 2.227 1.318 5.06 2.056 6.351 4.309a15.544 15.544 0 0 0 1.094 2.069 5.5 5.5 0 0 0 1.937 1.318 38.418 38.418 0 0 1 6.589 3.808 9.515 9.515 0 0 1 3.808 6.4 12.006 12.006 0 0 1 -1.173 5.376 50.457 50.457 0 0 1 -49.031 31.358 7.748 7.748 0 0 1 -5.139-1.594 9.736 9.736 0 0 1 -1.805-2.965c-3.782-7.906-10.871-13.783-15.391-21.321-2.635-4.493-4.4-9.514-7.208-13.928-4.23-6.707-10.687-11.662-17-16.472-3.558-2.715-7.524-5.561-11.991-5.363-3.954.171-6.879.382-5.416-4.507a15.629 15.629 0 0 1 6.958-8.328z" opacity=".05" transform="translate(194.244 79.314)"/><path d="m748.025 850.726c2.715 2.53 6.444 3.637 10.068 4.427a183.024 183.024 0 0 0 25.037 3.084l8.183.633c7.906.606 15.971 1.212 23.983 1.252a165.215 165.215 0 0 0 29.491-2.557 3.215 3.215 0 0 0 2.345-1.133 3.282 3.282 0 0 0 .356-1.858 142.744 142.744 0 0 0 -3.65-29.57c-.922-3.953-8.078 4.955-8.407 5.271-1.977 2.253-3.479 3.294-6.5 3.452-8.236.448-17.447-4.559-24-9.013a30.309 30.309 0 0 0 -4.441-2.754 13.477 13.477 0 0 0 -3.6-1.028 21.753 21.753 0 0 0 -12.242 2.49c-4.928 2.438-9.224 5.943-14.1 8.447a39.654 39.654 0 0 1 -12.637 3.953c-4.454.606-9.777.909-12.07 4.77-1.874 3.294-.517 7.616 2.184 10.134z" fill="#3f3d56" transform="translate(190.583 204.698)"/><path d="m748.154 852.19c2.715 2.53 6.444 3.637 10.068 4.414a181.044 181.044 0 0 0 25.037 3.1l8.183.633c7.906.606 15.971 1.212 23.983 1.252a165.192 165.192 0 0 0 29.491-2.556 3.215 3.215 0 0 0 2.345-1.133 13.166 13.166 0 0 0 1.832-3.334c-.171-9.962-2.872-19.9-5.113-29.609-.922-3.953-8.077 4.955-8.407 5.271-1.977 2.253-3.479 3.294-6.5 3.452-8.236.448-17.447-4.559-24-9.013a30.319 30.319 0 0 0 -4.441-2.754 13.493 13.493 0 0 0 -3.6-1.028c1.054 5.93 9.553 13.085 13.941 15.26 8.868 4.4 19.41 2.214 29.306 2.728a3.955 3.955 0 0 1 2.069.5c1.186.79 1.318 2.464 1.226 3.887-.079 2.359-.382 5.139-2.438 6.338a7.091 7.091 0 0 1 -3.281.685 463.641 463.641 0 0 1 -73.068-2.635 39.8 39.8 0 0 1 -11.86-2.635 31.322 31.322 0 0 1 -6.9-4.441c-3.17 2.565-.574 9.101 2.127 11.618z" fill="#e8eaf2" transform="translate(190.454 204.71)"/><path d="m765.55 401.773c.145 3.861-2.5 11.372 4.731 9.224 4.322-1.252 5.534-6.352 11-5.271s6.733 7.906 8.592 12.294a23.561 23.561 0 0 0 17.054 13.78 10.252 10.252 0 0 0 4.691 0c3.532-1.015 5.548-4.652 6.984-8.025a61.163 61.163 0 0 0 3.1-8.8 37.329 37.329 0 0 0 1.12-6.47 29.722 29.722 0 0 0 0-4.467c-.659-8.8-5.666-16.827-12.083-22.889s-14.192-10.45-21.887-14.772a31.787 31.787 0 0 0 -8.065-3.6 26.807 26.807 0 0 0 -8.526-.356 29.885 29.885 0 0 0 -10.845 2.543 15.165 15.165 0 0 0 -3.822 2.635 11.478 11.478 0 0 0 -3.308 5.521c-1.384 5.679 2.24 10.805 5.179 15.3 2.645 4.142 5.887 8.372 6.085 13.353z" fill="#3f3d56" transform="translate(193.444 58.984)"/><path d="m670.35 459.718c1.542-3.953 8.038-14.68 6.167-18.448a49.312 49.312 0 0 0 -4.955 8.842c-1.225 3.07-.224 7.116-1.212 9.606z" opacity=".1" transform="translate(166.872 84.095)"/><path d="m759.326 387.428c-2.952-4.493-6.589-9.62-5.192-15.3a11.861 11.861 0 0 1 4.217-6.3 10.042 10.042 0 0 0 -1.067 2.635c-1.4 5.693 2.24 10.805 5.179 15.3 2.635 3.953 5.864 8.236 6.062 13.177.145 3.874-2.5 11.385 4.744 9.224 4.309-1.252 5.521-6.365 11-5.271s6.72 7.906 8.579 12.294a23.547 23.547 0 0 0 17.052 13.773 10.249 10.249 0 0 0 4.691 0 6.922 6.922 0 0 0 2.214-1.08 9.579 9.579 0 0 1 -5.35 4.731 10.251 10.251 0 0 1 -4.691 0 23.588 23.588 0 0 1 -17.064-13.785c-1.845-4.414-3.057-11.135-8.579-12.294s-6.694 3.953-11 5.271c-7.248 2.1-4.6-5.416-4.744-9.224-.134-4.929-3.415-9.159-6.051-13.151z" opacity=".1" transform="translate(193.395 60.125)"/><path d="m757.382 380.857a33.5 33.5 0 0 0 2.227 3.176 38.078 38.078 0 0 0 5.113 5.271c1.107.962 2.253 1.858 3.453 2.714a55.181 55.181 0 0 0 6.984 4.164c7.076 3.571 14.745 5.811 22.4 8.012l14.943 4.349c1.832 1.318 5.192 3.887 8.895 6.483a37.326 37.326 0 0 0 1.12-6.47 29.786 29.786 0 0 0 0-4.467c-.659-8.8-5.666-16.827-12.083-22.889s-14.192-10.45-21.887-14.772a31.8 31.8 0 0 0 -8.065-3.6 26.807 26.807 0 0 0 -8.526-.356 29.886 29.886 0 0 0 -10.845 2.543 15.168 15.168 0 0 0 -3.821 2.635 14.615 14.615 0 0 0 -1.911 4.045c-.962 3.154.329 6.448 2.003 9.162z" opacity=".1" transform="translate(193.784 59)"/><path d="m757.381 381.8a33.284 33.284 0 0 0 2.227 3.163 36.673 36.673 0 0 0 5.113 5.271 40.048 40.048 0 0 0 3.439 2.741 56.842 56.842 0 0 0 6.984 4.177c7.076 3.558 14.746 5.8 22.4 8.012l14.943 4.335c5.271 3.953 22.665 16.88 25.59 15.259 3.466-1.9-15.483-15.312-15.483-15.312l-.87.659c2.781-1.74 4.23-5.785 4.849-9.224 1.107-6.259 1.634-12.756.158-18.949s-5.2-12.057-10.871-14.956c-2.5-1.318-5.548-2.161-7.366-4.151a5.041 5.041 0 0 1 -.712-.962 3.35 3.35 0 0 1 -.29-.514 6.805 6.805 0 0 0 -.791-1.542c-1.041-1.2-2.925-.844-4.494-.646h-.5a6.267 6.267 0 0 1 -.856 0c-5.614.132-11.056-2.991-16.735-2.991-6.233 0-11.53 3.6-17.012 6.048-1.107.5-2.161.962-3.149 1.423-3.953 1.845-6.931 3.808-8.565 9.053-.974 3.084.317 6.378 1.991 9.106z" fill="#ff7d00" transform="translate(193.785 57.056)"/><path d="m789.873 358.47a2.729 2.729 0 0 0 -.343 1.318 2.635 2.635 0 0 0 .936 2.016 4.627 4.627 0 0 0 2.359.83 17.153 17.153 0 0 0 1.845.145 4.941 4.941 0 0 0 2.425-.408 2.907 2.907 0 0 0 .422-.277 5.046 5.046 0 0 1 -.711-.962c-.145.105-.29.079-.844 0a13.882 13.882 0 0 1 -3.031-.514 3.491 3.491 0 0 1 -1.134-.553 3.322 3.322 0 0 1 -1.067-1.634z" opacity=".1" transform="translate(204.739 57.774)"/><path d="m808.3 396.5a7.119 7.119 0 0 1 -2.635.962 10.391 10.391 0 0 1 -2 .316 11.094 11.094 0 0 1 -4.9-1.318" opacity=".1" transform="translate(207.672 69.857)"/><path d="m0 0h68.166v33.444h-68.166z" fill="#3f3d56" opacity=".1" transform="translate(265.233 449.332)"/><path d="m0 0h68.166v33.444h-68.166z" fill="#3f3d56" opacity=".1" transform="translate(265.233 543.22)"/><path d="m0 0h68.166v33.444h-68.166z" fill="#3f3d56" opacity=".1" transform="translate(265.233 637.109)"/><path d="m0 0h68.166v33.444h-68.166z" fill="#3f3d56" opacity=".1" transform="translate(265.233 730.997)"/><path d="m461.577 472.564c1.9-1.212 1.146-4.454-.817-5.561s-4.388-.764-6.589-.316a2.636 2.636 0 0 0 -1.41-2.833v-.487c1.318-1.239.791-3.874-.764-4.994s-3.953-1.186-6.141-1.081a8.143 8.143 0 0 0 -2.635-6.944 2.175 2.175 0 0 0 -1.423-.685c-1.226 0-1.634 1.647-1.726 2.873a56.758 56.758 0 0 1 -1.581 9.5l-39.941 66.9c-4.454 6.43 9.382-12.808 4.928-6.378a57.608 57.608 0 0 1 -7.906 9.778 38.846 38.846 0 0 1 -8.895 5.943 10.462 10.462 0 0 1 -6.075-1.713 24.576 24.576 0 0 1 -5.838-5.785 114.155 114.155 0 0 1 -9.422-14.007 17.58 17.58 0 0 1 -2.161-5.007c-.606-2.767 0-5.785-1.107-8.381a13 13 0 0 0 -1.713-2.728l-2.754-3.677a.646.646 0 0 1 0-.158c-.316-5.442-4.717-9.619-8.829-13.177-3.505-3.057-7.3-6.246-11.86-6.839-2.477-.316-5.007.158-7.485-.158-2.016-.25-3.953-1.015-5.93-1.318a26.07 26.07 0 0 0 -5.824-.119l-.83-.751a23.139 23.139 0 0 0 10.41-8.75c1.911-3.083 2.939-6.589 4.7-9.791 2.148-3.861 5.271-7.05 7.761-10.753 5.745-8.789 6.8-20.1 4.48-30.308s-7.781-19.528-14.2-27.83c-12.347-15.971-33.062-21.9-52.564-18.765-1.318.2-2.635.448-3.887.725a49.244 49.244 0 0 0 -9.549 3.058 24.233 24.233 0 0 0 -10.423 8.13 17.623 17.623 0 0 0 -1.818 3.373 19.281 19.281 0 0 0 -.883 2.767 28.62 28.62 0 0 0 -.474 8.7c.079.988.185 1.99.3 2.978a11.485 11.485 0 0 0 .185 1.489c.132.988.277 1.99.409 2.978.211 1.489.408 2.978.553 4.441a27.761 27.761 0 0 1 .158 3.136v.777a12.338 12.338 0 0 1 -.343 2.306 11.878 11.878 0 0 1 -.382 1.212 15.286 15.286 0 0 1 -1.819 3.347 44.782 44.782 0 0 1 -3.255 3.953l-1.12 1.318-1.107 1.318a45.978 45.978 0 0 0 -4.019 5.442 25.853 25.853 0 0 0 -1.594 2.978 21.811 21.811 0 0 0 -.9 2.4 17.26 17.26 0 0 0 -.7 3.334c0 .29-.066.567-.079.857a14.384 14.384 0 0 0 0 1.687 11.631 11.631 0 0 0 .184 1.66 12.746 12.746 0 0 0 .975 3.2c0 .145.145.29.211.422s.145.277.211.422.277.567.409.843a6.131 6.131 0 0 1 .422 1.318v.461a3.037 3.037 0 0 1 0 .487 5.271 5.271 0 0 1 -1.9 3.281c-.25.237-.527.461-.791.685l-.409.329-.83.659-.8.646a15.815 15.815 0 0 0 -1.937 1.937 71.408 71.408 0 0 0 -21.532 2.108 29.4 29.4 0 0 1 -7.735 1.4 3.848 3.848 0 0 1 -3.347-1.41 5.06 5.06 0 0 1 -.343-3.07 26.5 26.5 0 0 0 -2.056-12.611 7.091 7.091 0 0 0 -2.069-3 2.926 2.926 0 0 0 -3.413-.184 32.152 32.152 0 0 1 -.88 21.449 70.774 70.774 0 0 1 -4.955 9.3c-2.938 4.994-4.586 10.713-7.195 15.892 2.925 9.9 2.28 20.464 3.808 30.664 1.423 9.514 4.744 18.606 8.078 27.672 2.517 6.813 5.271 13.9 10.7 18.7a9.818 9.818 0 0 0 6.589 2.873 11.639 11.639 0 0 0 5.179-1.95 20.172 20.172 0 0 0 4.362-3.215 9.94 9.94 0 0 0 1.318-1.713 6.458 6.458 0 0 0 .962 2.425c3.136-6.76 6.589-13.375 10.278-19.845a17.013 17.013 0 0 0 3.083-2.108c.066.224.119.461.171.7-.158.619-.316 1.252-.487 1.871s-.356 1.186-.54 1.766-.263.87-.408 1.318-.343 1.028-.527 1.542l-.632 1.673c-.158.4-.3.791-.474 1.186-.4.962-.8 1.924-1.252 2.873a8.648 8.648 0 0 0 1.094.448l.25.079a9.506 9.506 0 0 0 1.015.25h.369l.764.079h1.2a12.1 12.1 0 0 0 2.715-.474c.171.685.329 1.384.5 2.069a73.661 73.661 0 0 1 2.477 14.113c.237 5.4-.7 10.885.329 16.208.54 2.754 1.608 5.4 1.99 8.2a34.061 34.061 0 0 1 -.145 7.906l-1.792 18.949a16.194 16.194 0 0 1 -1.621 6.681c-.9 1.542-2.332 3.307-1.436 4.836a31.425 31.425 0 0 1 4.52-.87c-.553 2.016-1.054 4.032-1.529 6.062a10.661 10.661 0 0 0 -.356 4.678c.316 1.463 1.226 2.78 1.318 4.283.224 2.306-1.318 4.349-2.267 6.5-2.266 5.482.145 11.662 2.543 17.13l7.089 16.09q2.9 6.589 5.824 13.177c1.726 3.953 3.466 7.906 5.126 11.86a384.105 384.105 0 0 1 18.554 55.622 6.51 6.51 0 0 0 .949 2.411c.988 1.318 2.767 1.7 4.217 2.5 4.375 2.4 4.876 9.58.87 12.558.83 9.672-6.417 19.015-10.146 27.975-8.592 20.6-7.037 43.8-9.988 65.887l3.334-1.95a4.4 4.4 0 0 1 1.081.712c-.079.409-.158.817-.264 1.239a19.625 19.625 0 0 1 -2.148 5.35c-1.937 3.347-4.9 6.312-5.35 10.146-.277 2.306.435 4.625.422 6.958v.646c-.29-.29-.738-.264-1.423.263a8.462 8.462 0 0 0 -2.1 3.953c-.58 1.647-1.041 3.334-1.5 5.021l-1.621 5.956a69.088 69.088 0 0 1 -3.479 10.463 43.99 43.99 0 0 0 -3.083 7.116 21.992 21.992 0 0 0 -.54 6.1 18.556 18.556 0 0 0 .843 5.772 14.378 14.378 0 0 0 8.42 8 39.533 39.533 0 0 0 11.7 2.2 9.986 9.986 0 0 0 3.07-.079 8.428 8.428 0 0 0 2.991-1.555c5.416-3.953 8.223-11.332 8.71-18.053a26.124 26.124 0 0 0 -.738-4.1c.329-7.313-.738-14.666-.171-21.953.105.83.237 1.647.356 2.478q.659 4.085 1.318 8.183a1.725 1.725 0 0 0 -.448-.764 18.857 18.857 0 0 0 -.474 9.382 54.927 54.927 0 0 0 2.635 9.092l1.753 4.889a11.7 11.7 0 0 0 2.082 4.046c1.542 1.687 3.887 2.306 6.1 2.859a66.305 66.305 0 0 0 14.759 2.517 3.387 3.387 0 0 0 1.95-.356 11.209 11.209 0 0 0 .87-.738 8.043 8.043 0 0 1 1.423-.83 9.3 9.3 0 0 0 4.52-5.35 8.473 8.473 0 0 0 -.83-6.931 15.906 15.906 0 0 0 -2-2.425l-8.789-9.317a50.468 50.468 0 0 0 -4.309-4.559 1.607 1.607 0 0 0 -1.41-.474c-2.385-5.956-2.082-12.94-1.66-19.476.119-1.95 1.186-6.009 1.621-9.329a14.857 14.857 0 0 0 4.665-2.517 7.142 7.142 0 0 0 2.636-3.953c4.427-22.665 11.609-44.632 18.316-66.717.659-2.174 1.318-4.362 1.963-6.589l.817-2.794c.211-.764.448-1.529.659-2.293.369-1.318.725-2.57 1.067-3.861.105-.343.2-.7.29-1.041a1.247 1.247 0 0 0 0-.211c.435-1.581.843-3.163 1.252-4.744l.474-1.819c.514-2.016 1-4.045 1.489-6.062.066-.277.132-.567.185-.857a3.715 3.715 0 0 0 -.145-2.148 3.527 3.527 0 0 0 -.514-.738c-.132-.158-.29-.329-.448-.488l-.488-.54a4.862 4.862 0 0 1 -.9-1.687v-1.845c0-.606-.079-1.318-.119-1.963a20.03 20.03 0 0 1 .58-2.557c.145-.5.316-1 .474-1.5s.382-1.318.593-1.871a4.678 4.678 0 0 0 1.173-3.176c.791-1.99 1.66-3.953 2.635-5.851a17.8 17.8 0 0 0 2.359-6.325 25.29 25.29 0 0 0 -.764-6.009c-1.318-8.354 2.556-16.511 5.429-24.457a108.582 108.582 0 0 0 4.783-17.948c.843-4.7 1.423-9.619 3.953-13.691a20.546 20.546 0 0 0 2.108-3.637 14.615 14.615 0 0 0 .567-4.151 45.516 45.516 0 0 1 4.045-16.432 9.673 9.673 0 0 0 1.054-3.189 1.314 1.314 0 0 0 0-.224v-.316l.659-.092c1.12-7.089 2.24-15 1.476-22.125a33.826 33.826 0 0 0 -11.306-21.36h.132c2.214-1.12 3.2-3.8 3.228-6.272a12.2 12.2 0 0 0 -4.546-9.567 4.652 4.652 0 0 1 -1.542-1.581 4.81 4.81 0 0 1 -.185-2.082 10.621 10.621 0 0 0 -6.589-9.83 2.425 2.425 0 0 1 -1.067-.619 2.637 2.637 0 0 1 -.264-1.871 11.5 11.5 0 0 0 -5.548-10.542 18.067 18.067 0 0 0 .237-8.341c-.791-2.635-3.321-5.1-6.1-4.744 2.266-6.18-.949-13.059-.092-19.582.369-2.793 1.489-5.482 1.634-8.3.132-2.556-.514-5.271.738-7.564s4.2-3.953 3.439-6.378c-.329-1.054-1.318-1.766-1.739-2.794s1.318-2.635 2.28-2c.435-.329.87-.685 1.318-1.041a21.552 21.552 0 0 0 .778 3.861c.619 2.108 1.594 4.1 2.24 6.193 1 3.2 1.318 6.668 2.925 9.606 2.635 4.691 8 7.01 11.688 10.911 2.161 2.28 3.7 5.087 5.93 7.313a32.817 32.817 0 0 0 5.534 4.151l11.86 7.7a13.443 13.443 0 0 0 4.059 2.016 6.931 6.931 0 0 0 8.17-5.877 7.775 7.775 0 0 1 -2.925-1.805 1.083 1.083 0 0 0 .5-.079 18.766 18.766 0 0 0 7.643-4.059c8.46-6.734 14.5-15.931 20.478-24.971 6.22-9.475 36.185-34.551 36.185-34.551v-10.19a36.7 36.7 0 0 0 9.975-8.486 11 11 0 0 0 2.5-6.5 5.719 5.719 0 0 0 -3.485-5.716zm-249.131 24.364q-.87 5.535-2.122 11.016a107.083 107.083 0 0 1 -3.545 12.439c-.158.422-.316.857-.461 1.318-.435-.791-.856-1.581-1.239-2.385-.975-2.016-1.753-4.124-2.53-6.22l-4.949-13.374c-.646-1.726-1.318-3.742-.329-5.337a5.982 5.982 0 0 1 2.833-2.121 56.526 56.526 0 0 1 10.871-3.69 31.856 31.856 0 0 0 3.505-.922 52.27 52.27 0 0 0 -2.034 9.276zm5.482-16.682a2.016 2.016 0 0 1 0-1.937 4.282 4.282 0 0 1 1.318-.9 2.65 2.65 0 0 0 .369-.264zm10.278-14.495a25.6 25.6 0 0 0 -3.953 4.059 41.622 41.622 0 0 0 -3.4 5.271 3.822 3.822 0 0 0 -1.41-3.887 8.008 8.008 0 0 1 -1.318-.87 2.7 2.7 0 0 1 .54-3.782 7.907 7.907 0 0 1 3.953-1.318l5.917-.87c-.079.382-.2.87-.329 1.331zm55.529 430.359a21.626 21.626 0 0 0 -.343-5.271c.738 0 1.463 0 2.187-.066z" fill="url(#b)" transform="translate(10.725 60.642)"/><path d="m269.3 371.125c-10.292 1.647-21.743 5.614-25.683 15.259-2.965 7.287-.672 15.5.092 23.337a17.842 17.842 0 0 1 -.224 6.206c-.843 3.308-3.189 5.983-5.442 8.539a45.4 45.4 0 0 0 -7.841 10.977c-1.858 4.125-2.438 9.04-.527 13.177a9.686 9.686 0 0 1 1.318 3.453c.119 2.635-2.635 4.375-4.744 6.088-7.722 6.391-7.392 18.04-7.458 28.081a142 142 0 0 1 -13.428 59.3 18.132 18.132 0 0 0 20.293-2.635 67.764 67.764 0 0 1 -4.612 13.283c6.589 3.163 14.416-2.029 17.7-8.512s3.663-14.021 6-20.9 6.47-12.861 8.236-19.766c.593-2.293.949-4.731 2.346-6.589a17.265 17.265 0 0 1 4.111-3.505 40.112 40.112 0 0 0 14.5-19.766c8.012 1.766 16.169 3.545 24.325 2.807s16.485-4.441 20.794-11.412c1.911-3.083 2.939-6.589 4.7-9.778 2.148-3.861 5.271-7.05 7.761-10.74 5.732-8.776 6.8-20.069 4.467-30.308s-7.775-19.5-14.192-27.8c-12.305-16.002-33.006-21.932-52.492-18.796z" fill="#303d5c" transform="translate(19.129 61.551)"/><path d="m206.227 472.616q-.87 5.535-2.108 10.99a106.142 106.142 0 0 1 -3.545 12.426 11.86 11.86 0 0 0 -1.12 5.719 10.281 10.281 0 0 0 1.384 3.4c4.691 8.341 11.029 16.406 11.57 25.973.145 2.385 0 4.968 1.318 6.931q5.455-11.7 12.018-22.836c4.573-7.775 9.672-15.615 10.99-24.536a46.463 46.463 0 0 0 -.171-12.611c-.606-4.691-1.66-9.5-4.52-13.257-3.11-4.072-11.636-10.2-17.131-8.934-6.523 1.528-7.868 11.504-8.685 16.735z" fill="#ff7d00" transform="translate(17.247 88.684)"/><path d="m330.434 524.922c6.154-2.517 12.426-5.179 17.3-9.685a56.171 56.171 0 0 0 7.906-9.751l14.5-20.912c3.426-4.955 6.958-10.173 7.7-16.155a53.223 53.223 0 0 0 14.5-32.838c.105-1.225.514-2.833 1.739-2.859a2.188 2.188 0 0 1 1.423.672 8.144 8.144 0 0 1 2.635 6.944c2.108-.105 4.414-.158 6.127 1.067s2.174 4.3.329 5.271a2.636 2.636 0 0 1 1.845 2.991c2.214-.448 4.638-.8 6.589.3s2.714 4.348.817 5.561a5.732 5.732 0 0 1 3.663 5.495 10.976 10.976 0 0 1 -2.5 6.483c-5.548 7.445-15.365 10.463-21.8 17.13a51.783 51.783 0 0 0 -5.679 7.59l-18.659 28.384c-5.93 9.026-12.018 18.224-20.478 24.945a18.792 18.792 0 0 1 -7.63 4.059 8.46 8.46 0 0 1 -8.012-2.227c-1.871-2.121-2.135-5.165-2.332-7.985-.497-4.729.333-9.67.017-14.48z" fill="#ee8e9e" transform="translate(58.811 81.378)"/><path d="m291.108 805.889a15.988 15.988 0 0 1 1.99 2.425 8.448 8.448 0 0 1 .843 6.918 9.4 9.4 0 0 1 -4.52 5.35 7.971 7.971 0 0 0 -1.421.818 11.21 11.21 0 0 1 -.87.738 3.506 3.506 0 0 1 -1.95.369 67.834 67.834 0 0 1 -14.759-2.517c-2.214-.553-4.546-1.186-6.088-2.859a11.7 11.7 0 0 1 -2.082-4.045l-1.753-4.875a56.461 56.461 0 0 1 -2.635-9.079 18.79 18.79 0 0 1 .474-9.369 2.819 2.819 0 0 1 .646 1.91 21.227 21.227 0 0 0 3.756 9.093 7.288 7.288 0 0 0 5.851 3.677 54.621 54.621 0 0 0 9.356 1.2 2.794 2.794 0 0 0 1.318-.158 2.28 2.28 0 0 0 1.067-1.318 5.68 5.68 0 0 0 0-3.848c-.83-2.372-3.162-3.953-4.283-6.193-.817-1.674.329-3.505 2.016-2.1a52.1 52.1 0 0 1 4.309 4.546z" fill="#303d5c" transform="translate(35.689 194.822)"/><path d="m275.069 780.65c-.5 7.906-.857 16.327 3.452 22.928 1.542 2.372 3.611 4.362 5.376 6.589a7.826 7.826 0 0 1 1.924 3.953c.264 2.886-2.451 5.35-5.271 5.877s-5.745-.343-8.5-1.225a20.644 20.644 0 0 1 -7.208-3.4c-3.742-3.163-4.731-8.434-5.482-13.27l-1.753-11.24a35.674 35.674 0 0 1 -.633-8.183 36.231 36.231 0 0 1 2.2-8.842l2.886-8.446a3.954 3.954 0 0 1 1.318-2.1 3.665 3.665 0 0 1 2.188-.408c2.767.145 9.712 1.146 11.056 4.072 1.109 2.56-1.356 10.664-1.553 13.695z" fill="#ee8e9e" transform="translate(35.521 186.275)"/><path d="m275.069 780.65c-.5 7.906-.857 16.327 3.452 22.928 1.542 2.372 3.611 4.362 5.376 6.589a7.826 7.826 0 0 1 1.924 3.953c.264 2.886-2.451 5.35-5.271 5.877s-5.745-.343-8.5-1.225a20.644 20.644 0 0 1 -7.208-3.4c-3.742-3.163-4.731-8.434-5.482-13.27l-1.753-11.24a35.674 35.674 0 0 1 -.633-8.183 36.231 36.231 0 0 1 2.2-8.842l2.886-8.446a3.954 3.954 0 0 1 1.318-2.1 3.665 3.665 0 0 1 2.188-.408c2.767.145 9.712 1.146 11.056 4.072 1.109 2.56-1.356 10.664-1.553 13.695z" opacity=".05" transform="translate(35.521 186.275)"/><path d="m336.07 604.286a1.309 1.309 0 0 1 0 .224 9.869 9.869 0 0 1 -1.054 3.189 45.65 45.65 0 0 0 -4.046 16.401 14.494 14.494 0 0 1 -.567 4.138 20.548 20.548 0 0 1 -2.108 3.637c-2.5 4.072-3.084 8.987-3.953 13.678a106.744 106.744 0 0 1 -4.783 17.921c-2.86 7.906-6.721 16.09-5.416 24.431a25.037 25.037 0 0 1 .764 6 17.8 17.8 0 0 1 -2.359 6.325c-.975 1.9-1.845 3.848-2.635 5.837s-1.594 4.335-2.24 6.589c-.777 2.635-1.318 5.877.488 8.038a10.3 10.3 0 0 1 1.449 1.779 4.692 4.692 0 0 1 0 3.031q-1.515 6.43-3.268 12.808c-.9 3.347-1.845 6.668-2.833 9.988-7.221 24.273-15.4 48.295-20.267 73.161-.7 3.571-5.271 6.141-8.842 6.918a11.621 11.621 0 0 1 -10.16-2.715l-.7-.7c-3.729-3.953-4.269-10.173-3.953-15.734 1.318-25.577 14.139-48.993 20.267-73.859a141.5 141.5 0 0 0 3.953-27.422c1.436-30.888 2-63.515-6.72-93.177-1.818-6.167-3.953-13.177-.712-18.672 2.069-3.505 5.89-5.561 9.659-7.063a62.144 62.144 0 0 1 48.189 1.226 17.336 17.336 0 0 1 -.066 1.858 18.886 18.886 0 0 0 .962 8.513 10.62 10.62 0 0 1 .949 3.65z" fill="#303d5c" transform="translate(36.335 129.69)"/><path d="m239.468 784.616-1.621 5.943a68.6 68.6 0 0 1 -3.479 10.463 44.5 44.5 0 0 0 -3.083 7.1 21.941 21.941 0 0 0 -.527 6.088 18.174 18.174 0 0 0 .843 5.772 14.323 14.323 0 0 0 8.407 7.985 39.529 39.529 0 0 0 11.7 2.2 9.993 9.993 0 0 0 3.07-.079 8.485 8.485 0 0 0 2.978-1.555c5.416-3.953 8.223-11.32 8.71-18.027a22.4 22.4 0 0 0 -.922-4.6c-.422-.567-4.52 1.753-2.767 3.677 2.635 2.873-5.007 1.384-8.868 1.146a35.746 35.746 0 0 1 -5.007-.83l-6.259-1.318c-2.042-.448-4.4-1.146-5.126-3.11s.857-4.3 2.1-6.193c3.268-5.047 4.1-11.24 4.862-17.21.145-1.173 1.608-8.763-1.41-6.4a8.458 8.458 0 0 0 -2.1 3.953c-.579 1.635-1.04 3.322-1.501 4.995z" fill="#303d5c" transform="translate(27.189 190.201)"/><path d="m308.176 692.551c-1.779-2.161-1.252-5.35-.488-8.038.29-1 .606-2 .936-2.991l-24.549-8.3c-.092 2.2-.185 4.4-.29 6.589a141.758 141.758 0 0 1 -3.953 27.435c-6.127 24.853-19.015 48.269-20.267 73.793-.29 5.89.343 12.466 4.691 16.432a11.609 11.609 0 0 0 10.16 2.715c3.558-.778 8.143-3.347 8.842-6.931 4.862-24.852 13.032-48.875 20.267-73.161q3.387-11.306 6.1-22.8a4.652 4.652 0 0 0 0-3.018 9.216 9.216 0 0 0 -1.449-1.726z" opacity=".05" transform="translate(36.332 157.793)"/><path d="m248.525 764.369c-1.937 3.334-4.9 6.3-5.35 10.134-.277 2.306.435 4.625.422 6.945a21.993 21.993 0 0 1 -1.015 5.666q-3.582 12.952-8.262 25.55a6.958 6.958 0 0 0 -.646 3.466c.316 1.977 2.214 3.268 4.059 4.046 5.838 2.5 12.426 2.332 18.778 2.069a9.843 9.843 0 0 0 5.271-1.225c2.267-1.555 2.833-4.639 2.978-7.393.435-7.906-.909-15.971 0-23.9.316-2.886.922-5.732 1.384-8.6.619-3.953.936-8.17-.369-11.991a28.018 28.018 0 0 0 -4.493-7.551 23.561 23.561 0 0 0 -6.246-6.22c-.738-.448-2.873-1.805-3.624-.949-.382.435-.211 1.594-.277 2.135a19.878 19.878 0 0 1 -.435 2.477 20.224 20.224 0 0 1 -2.175 5.341z" fill="#ee8e9e" transform="translate(28.12 183.501)"/><path d="m287.534 614.283c-1.146 1.555-.909 3.716-.448 5.587.817 3.4 2.174 6.589 3.281 9.962a137.673 137.673 0 0 1 4.217 18.106c1.041 5.535 3.215 11.7 2.319 17.262a123.394 123.394 0 0 1 13.046 40.85c.5 3.664-7.643 8.407-7.485 12.11.3 7.34 6.167 7.906 1.832 13.81-.211.29 1.621 6.852 1.318 7.142-1.766 2.122-3.953 3.808-5.89 5.8a44.624 44.624 0 0 0 -6.206 9.105c-11.2 20.2-27.369 43.13-22.4 65.689a3.954 3.954 0 0 1 -2.135 4.059 10.7 10.7 0 0 1 -4.731 1.094h-.777c-3.729-3.953-4.27-10.173-3.953-15.734 1.318-25.577 14.139-48.993 20.267-73.859a141.491 141.491 0 0 0 3.953-27.422c1.436-30.888 2-63.515-6.721-93.177-1.819-6.167-3.953-13.177-.712-18.672 2.069-3.505 5.89-5.561 9.659-7.063a62.145 62.145 0 0 1 48.19 1.226 17.382 17.382 0 0 1 -.066 1.858 18.883 18.883 0 0 0 .962 8.512 10.621 10.621 0 0 1 .962 3.7c0 .079.448-4.968.435-4.9-10.028 1.449-20.491 8.012-30.519 9.448a70.146 70.146 0 0 0 -15.312 3.373 6.866 6.866 0 0 0 -3.086 2.134z" opacity=".05" transform="translate(36.312 129.655)"/><path d="m229.461 567.809q-2.042 6.43-3.558 12.993a10.792 10.792 0 0 0 -.369 4.665c.329 1.463 1.239 2.781 1.318 4.283.237 2.306-1.318 4.349-2.253 6.5-2.266 5.469.145 11.636 2.53 17.051l7.089 16.089 5.824 13.178c1.726 3.953 3.466 7.841 5.126 11.794a383.075 383.075 0 0 1 18.54 55.542 6.706 6.706 0 0 0 .949 2.425c.988 1.318 2.767 1.687 4.217 2.491 4.375 2.4 4.862 9.567.87 12.545.83 9.659-6.417 18.989-10.146 27.936-8.578 20.57-7.023 43.749-9.975 65.887l3.334-1.937c3.2 1.463 3.083 6 4.81 9.066 2.635 4.612 8.895 5.271 14.179 4.915a10.787 10.787 0 0 0 4.731-1.094 3.953 3.953 0 0 0 2.135-4.058c-4.981-22.56 11.188-45.475 22.4-65.7a43.852 43.852 0 0 1 6.207-9.092c1.9-2 4.124-3.69 5.89-5.8 4.941-5.93 5.574-14.3 5.271-22.006a123.273 123.273 0 0 0 -14.021-51.982c.883-5.561-1.318-11.715-2.319-17.249a136.584 136.584 0 0 0 -4.2-18.053c-1.107-3.334-2.464-6.589-3.281-9.975-.448-1.871-.685-4.032.448-5.587a6.838 6.838 0 0 1 3.163-2.042 70.479 70.479 0 0 1 15.338-3.479l34.472-4.955c1.12-7.076 2.24-14.983 1.476-22.1a34 34 0 0 0 -24.3-28.437c-1.515-.408-3.268-.672-4.507.29a179.447 179.447 0 0 0 -91.385 5.89z" fill="#303d5c" transform="translate(24.953 121.364)"/><path d="m257.839 428.183a16.972 16.972 0 0 1 -1.515 9.87 15.534 15.534 0 0 1 -3.953 4.335 29.53 29.53 0 0 1 -11.359 5.653c-2.451.606-5.192 1.028-6.8 2.965-2.425 2.925-.8 7.34 1.318 10.542 3.571 5.534 8.539 10.542 14.9 12.321 5.086 1.384 10.542.527 15.707 1.436 3.769.646 7.313 2.2 11.029 3.1a32.587 32.587 0 0 0 29.926-8.354c-5.521-4.243-11.253-8.75-14.113-15.1a21.427 21.427 0 0 1 -1.081-14.5c1.318-4.717 4.309-9.3 3.387-14.1s-5.666-8.117-10.357-9.738a66.695 66.695 0 0 0 -12.98-2.635c-2.438-.329-17.868-3.742-18.83-2.056-.54.949 2.635 6.589 3.057 7.828a29.518 29.518 0 0 1 1.664 8.433z" fill="#ee8e9e" transform="translate(27.911 74.622)"/><circle cx="305.16" cy="482.749" fill="#ee8e9e" r="31.309"/><path d="m269.121 450.75 21.229 3.584a80.385 80.385 0 0 0 15.813 1.594 44.015 44.015 0 0 1 8.737 0c2 .329 3.953 1.094 5.943 1.318 2.477.316 4.994-.158 7.472.158 4.612.593 8.407 3.782 11.86 6.826 4.1 3.584 8.513 7.761 8.816 13.177a3.689 3.689 0 0 1 -.25 1.818 5.336 5.336 0 0 1 -1.568 1.647c-3.953 3.2-6.088 7.985-8.868 12.2a47.347 47.347 0 0 1 -10.542 11.372c-.922-.593-2.636.975-2.28 1.99s1.41 1.739 1.739 2.794c.751 2.4-2.214 4.164-3.439 6.365s-.606 4.994-.738 7.564c-.145 2.807-1.318 5.495-1.634 8.288-.857 6.523 2.359 13.388.092 19.555 2.794-.356 5.271 2.056 6.1 4.744a17.841 17.841 0 0 1 -.25 8.328 11.464 11.464 0 0 1 5.548 10.476 2.517 2.517 0 0 0 .277 1.871 2.635 2.635 0 0 0 1.067.619 10.542 10.542 0 0 1 6.589 9.817 4.732 4.732 0 0 0 .2 2.069 4.64 4.64 0 0 0 1.529 1.594 12.2 12.2 0 0 1 4.559 9.54c0 2.477-1.028 5.152-3.242 6.272-4.493 2.28-9.316 3.176-14.258 4.243a122.4 122.4 0 0 1 -13.8 2.438 124.228 124.228 0 0 1 -12.914.409l-28.41-.119c-7.906 0-15.971 0-23.93-.593-7.432-.5-15.035-1.436-22.23.514-.9-1.515.54-3.294 1.436-4.823a16.249 16.249 0 0 0 1.621-6.681l1.792-18.923a34.8 34.8 0 0 0 .132-7.906c-.382-2.781-1.436-5.416-1.977-8.183-1.028-5.271-.092-10.779-.329-16.182a75.82 75.82 0 0 0 -2.477-14.1l-5.536-23.108c-.9-3.729-1.318-8.038-2.767-11.609q-6.51-16.682-13.612-33.088a3.492 3.492 0 0 1 .25-2.939l4.691-8.407a53.35 53.35 0 0 1 4.3-6.852 26.986 26.986 0 0 1 15.813-9.725 27.922 27.922 0 0 1 18.448 2.728c2.187 1.173 4.217 2.635 6.444 3.729 3.752 1.897 8.364 3.887 12.554 3.597z" fill="#ff7d00" transform="translate(19.462 83.747)"/><path d="m314.921 463.85 7.406 9.857a13.73 13.73 0 0 1 1.713 2.728c1.12 2.635.5 5.614 1.107 8.381a17.66 17.66 0 0 0 2.161 4.994 113.4 113.4 0 0 0 9.409 13.994 24.326 24.326 0 0 0 5.851 5.772 9.594 9.594 0 0 0 7.906 1.4 4.889 4.889 0 0 0 -2.635 2.345c-2.82 5.574-3.031 12.176-1.832 18.317a19.145 19.145 0 0 0 2.056 6 8.973 8.973 0 0 0 4.717 4.072 6.945 6.945 0 0 1 -8.17 5.864 13.753 13.753 0 0 1 -4.058-2.016l-11.86-7.682a34.2 34.2 0 0 1 -5.521-4.151c-2.214-2.214-3.769-5.021-5.93-7.3-3.676-3.953-9.079-6.22-11.688-10.9-1.621-2.939-1.911-6.4-2.912-9.606-.659-2.1-1.621-4.072-2.253-6.18-1.95-6.5-.54-13.652 2.438-19.766s7.707-10.931 12.095-16.123z" fill="#ff7d00" transform="translate(49.036 91.27)"/><path d="m316.959 403.183a41.216 41.216 0 0 0 -11.016-11.451c-5.838-4.375-12.571-8-19.858-8.407a21.462 21.462 0 0 0 -8.948 1.463c-.132-8.842-2.332-14.732-7.84-13.836-10.292 1.647-21.743 5.614-25.683 15.259-2.965 7.287-.672 15.5.092 23.337a17.844 17.844 0 0 1 -.224 6.206c-.843 3.308-3.189 5.983-5.442 8.539a45.394 45.394 0 0 0 -7.84 10.977c-1.858 4.125-2.438 9.04-.527 13.177a9.686 9.686 0 0 1 1.318 3.453c.119 2.635-2.635 4.375-4.744 6.088-7.722 6.391-7.393 18.04-7.458 28.081a142 142 0 0 1 -13.428 59.3 18.132 18.132 0 0 0 20.293-2.635 67.778 67.778 0 0 1 -4.612 13.283c6.589 3.162 14.416-2.029 17.7-8.513s3.663-14.021 6-20.9 6.47-12.861 8.236-19.766c.593-2.293.949-4.731 2.346-6.589a17.264 17.264 0 0 1 4.111-3.505c6.747-4.836-3.176-41.482-.54-49.362 3.953.87 11.122-18.04 15.22-37.265a19.477 19.477 0 0 0 8.908.883 11.359 11.359 0 0 1 3.189-.224 8.487 8.487 0 0 1 2.78 1.133 68.441 68.441 0 0 0 9.474 4.876c6.8 2.53 14.271 2.2 21.505 1.832a21.386 21.386 0 0 0 -3-15.431z" fill="#303d5c" transform="translate(19.129 61.724)"/><g opacity=".1" transform="translate(224.515 432.583)"><path d="m209.03 545.368a142.2 142.2 0 0 0 13.428-59.3c0-10.041-.277-21.69 7.458-28.081 2.056-1.713 4.862-3.413 4.731-6.088a9.408 9.408 0 0 0 -1.318-3.452c-1.924-4.085-1.318-9 .514-13.177a45.765 45.765 0 0 1 7.84-10.977c2.253-2.556 4.612-5.271 5.455-8.539a18.172 18.172 0 0 0 .224-6.206c-.764-7.906-3.07-16.05-.092-23.337 3.808-9.343 14.653-13.349 24.681-15.088a5.27 5.27 0 0 0 -2.636-.171c-10.292 1.647-21.743 5.614-25.683 15.259-2.965 7.287-.672 15.5.092 23.337a17.841 17.841 0 0 1 -.224 6.206c-.843 3.307-3.189 5.983-5.442 8.539a45.394 45.394 0 0 0 -7.84 10.977c-1.858 4.125-2.438 9.04-.527 13.177a9.688 9.688 0 0 1 1.318 3.453c.119 2.635-2.635 4.375-4.744 6.088-7.722 6.391-7.393 18.04-7.458 28.081a142 142 0 0 1 -13.428 59.3 17.553 17.553 0 0 0 9.949 1.858 17.036 17.036 0 0 1 -6.298-1.859z" transform="translate(-205.38 -370.859)"/><path d="m220.94 514.553a67.72 67.72 0 0 0 4.6-13.283 16.7 16.7 0 0 1 -4.454 2.952 67.058 67.058 0 0 1 -3.835 10.331 9.751 9.751 0 0 0 6.048.777 9.71 9.71 0 0 1 -2.359-.777z" transform="translate(-201.609 -329.423)"/><path d="m262.634 381.789a21.085 21.085 0 0 1 5.956-1.4l-.7-.066a21.082 21.082 0 0 0 -5.271.4c-.011.355.015.697.015 1.066z" transform="translate(-187.194 -367.86)"/><path d="m282.46 407.087a69.371 69.371 0 0 1 -9.488-4.875 8.258 8.258 0 0 0 -2.781-1.133 9.9 9.9 0 0 0 -2.912.184 10.793 10.793 0 0 1 2.016.949 68.44 68.44 0 0 0 9.474 4.875 42.669 42.669 0 0 0 15.879 2.056 37.394 37.394 0 0 1 -12.188-2.056z" transform="translate(-185.712 -361.269)"/><path d="m260.365 400.57c-.066.277-.132.553-.185.843a18.949 18.949 0 0 0 4.652.119 20.015 20.015 0 0 1 -4.467-.962z" transform="translate(-187.968 -361.419)"/></g><path d="m220.929 537.861a11.4 11.4 0 0 1 -3.07 9.145 19.993 19.993 0 0 1 -4.362 3.2 11.477 11.477 0 0 1 -5.179 1.95 9.752 9.752 0 0 1 -6.589-2.873c-5.442-4.783-8.17-11.86-10.687-18.672-3.334-9-6.655-18.092-8.078-27.593-1.529-10.186-.883-20.741-3.8-30.624 2.636-5.179 4.243-10.885 7.182-15.879a72.2 72.2 0 0 0 4.955-9.29 31.955 31.955 0 0 0 .817-21.413 2.9 2.9 0 0 1 3.426.185 6.972 6.972 0 0 1 2.069 2.991 26.553 26.553 0 0 1 2.043 12.584 5.087 5.087 0 0 0 .369 3.083 3.953 3.953 0 0 0 3.347 1.41 29.411 29.411 0 0 0 7.722-1.41 72.078 72.078 0 0 1 23.811-1.964 11.4 11.4 0 0 1 4.638 1.133 4.335 4.335 0 0 1 2.4 3.887l-19.041 2.78a7.8 7.8 0 0 0 -3.953 1.318 2.635 2.635 0 0 0 -.553 3.769 8.846 8.846 0 0 0 1.318.883 3.953 3.953 0 0 1 -.158 6.259 3.953 3.953 0 0 0 -1.318.9c-.778 1.041.264 2.425.58 3.69a4.638 4.638 0 0 1 -2.28 4.744 16.1 16.1 0 0 1 -5.271 1.779 55.981 55.981 0 0 0 -10.871 3.7 5.878 5.878 0 0 0 -2.833 2.109c-.936 1.594-.316 3.61.329 5.337l4.955 13.362c.777 2.1 1.555 4.19 2.53 6.193 1.318 2.635 2.82 5.086 4.111 7.682a80.567 80.567 0 0 1 3.1 7.485c2.503 6.854 7.498 10.939 8.341 18.16z" fill="#ee8e9e" transform="translate(10.807 79.034)"/><path d="m378.466 443.264a5.918 5.918 0 0 0 -2.174 3.176 1.318 1.318 0 0 0 .5 1.423 1.449 1.449 0 0 0 .883 0 8.369 8.369 0 0 0 3.821-1.818 3.953 3.953 0 0 0 -1.146.922 1.318 1.318 0 0 0 -.145 1.4 1.805 1.805 0 0 0 1.252.659 12.215 12.215 0 0 0 5.521-.264 7.391 7.391 0 0 0 -2.306 1.318 3.058 3.058 0 0 0 -1.028 2.372 1.133 1.133 0 0 0 .409.9 1.661 1.661 0 0 0 .606.211 14.881 14.881 0 0 0 5.126 0 2.635 2.635 0 0 0 2.161-1.318 3.229 3.229 0 0 0 -.5-2.477 13.742 13.742 0 0 1 -1.318-6.272 2.544 2.544 0 0 0 -.185-1.318 2.3 2.3 0 0 0 -1.146-.83c-1.818-.8-4.269-1.911-6.3-1.252a13.007 13.007 0 0 0 -4.032 3.176z" fill="#ee8e9e" transform="translate(73.424 83.656)"/><path d="m424.9 410.489-62.882 34.024a1.318 1.318 0 0 0 .092 2.346l10.726 4.046a2.516 2.516 0 0 1 1.41 1.318l8.341 17.13c.158.764 1.555.962 1.568.2l-1.318-14.192a5.073 5.073 0 0 1 1.146-2.86l32.6-31.942a.765.765 0 0 1 .712-.211.751.751 0 0 1 .408 1.2l-28.048 34.452a6.272 6.272 0 0 0 -1.107 2.833l-1.673 12.255c.132 1.067.975 1.476 1.647.514l6.062-7.1a1.318 1.318 0 0 1 1.766-.3l15.615 11.372a1.318 1.318 0 0 0 1.977-.777l12.835-62.882a1.318 1.318 0 0 0 -1.845-1.423z" fill="#001f40" transform="translate(68.692 74.277)"/><ellipse cx="1208.467" cy="1058.652" fill="#001f40" rx="78.366" ry="15.075"/><ellipse cx="1207.162" cy="1052.248" fill="#3f3d56" rx="9.119" ry="11.939"/><ellipse cx="1207.162" cy="1037.661" fill="#3f3d56" rx="9.119" ry="11.939"/><ellipse cx="1207.162" cy="1023.06" fill="#3f3d56" rx="9.119" ry="11.939"/><ellipse cx="1207.162" cy="1008.46" fill="#3f3d56" rx="9.119" ry="11.939"/><ellipse cx="1207.162" cy="993.859" fill="#3f3d56" rx="9.119" ry="11.939"/><ellipse cx="1207.162" cy="979.272" fill="#3f3d56" rx="9.119" ry="11.939"/><ellipse cx="1207.162" cy="964.671" fill="#3f3d56" rx="9.119" ry="11.939"/><path d="m995.83 715.909a46.274 46.274 0 0 0 3.4-4.994l-23.983-3.953 25.933.2a43.84 43.84 0 0 0 .83-34.63l-34.775 18.04 32.074-23.574a43.709 43.709 0 1 0 -72.186 48.9 45.16 45.16 0 0 0 -4.981 7.906l31.125 16.168-33.18-11.135a43.735 43.735 0 0 0 7.036 41.034 43.7 43.7 0 1 0 68.707 0 43.749 43.749 0 0 0 0-54.027z" fill="#001f40" transform="translate(245.474 148.865)"/><path d="m917.78 719.505a43.483 43.483 0 0 0 9.343 27.013 43.7 43.7 0 1 0 68.707 0c5.85-7.431-78.05-31.918-78.05-27.013z" opacity=".1" transform="translate(245.488 172.295)"/><ellipse cx="471.814" cy="1018.303" fill="#001f40" rx="44.737" ry="8.605"/><ellipse cx="472.565" cy="1014.64" fill="#3f3d56" rx="5.205" ry="6.813"/><ellipse cx="472.565" cy="1006.312" fill="#3f3d56" rx="5.205" ry="6.813"/><ellipse cx="472.565" cy="997.97" fill="#3f3d56" rx="5.205" ry="6.813"/><ellipse cx="472.565" cy="989.642" fill="#3f3d56" rx="5.205" ry="6.813"/><ellipse cx="472.565" cy="981.301" fill="#3f3d56" rx="5.205" ry="6.813"/><ellipse cx="472.565" cy="972.973" fill="#3f3d56" rx="5.205" ry="6.813"/><ellipse cx="472.565" cy="964.645" fill="#3f3d56" rx="5.205" ry="6.813"/><path d="m380.107 741.108a24.744 24.744 0 0 1 -1.937-2.859l13.678-2.24-14.8.105a25.036 25.036 0 0 1 -.474-19.766l19.858 10.3-18.317-13.467a24.958 24.958 0 1 1 41.205 27.923 24.175 24.175 0 0 1 2.846 4.546l-17.763 9.224 18.949-6.325a25.151 25.151 0 0 1 1.318 8.012 24.8 24.8 0 0 1 -5.35 15.417 24.945 24.945 0 1 1 -39.216 0 24.958 24.958 0 0 1 0-30.848z" fill="#001f40" transform="translate(72.956 166.505)"/><path d="m424.673 743.149a24.8 24.8 0 0 1 -5.35 15.417 24.945 24.945 0 1 1 -39.216 0c-3.347-4.243 44.566-18.224 44.566-15.417z" opacity=".1" transform="translate(72.956 179.895)"/><ellipse cx="138.586" cy="949.096" fill="#001f40" rx="30.084" ry="5.785"/><ellipse cx="139.1" cy="946.645" fill="#3f3d56" rx="3.505" ry="4.586"/><ellipse cx="139.1" cy="941.044" fill="#3f3d56" rx="3.505" ry="4.586"/><ellipse cx="139.1" cy="935.431" fill="#3f3d56" rx="3.505" ry="4.586"/><ellipse cx="139.1" cy="929.83" fill="#3f3d56" rx="3.505" ry="4.586"/><ellipse cx="139.1" cy="924.23" fill="#3f3d56" rx="3.505" ry="4.586"/><ellipse cx="139.1" cy="918.63" fill="#3f3d56" rx="3.505" ry="4.586"/><ellipse cx="139.1" cy="913.029" fill="#3f3d56" rx="3.505" ry="4.586"/><path d="m131.481 712.93a14.5 14.5 0 0 1 -1.318-1.924l9.224-1.5h-9.949a16.761 16.761 0 0 1 -.329-13.283l13.349 7.01-12.321-9.052a16.775 16.775 0 1 1 27.672 18.778 17 17 0 0 1 1.911 3.057l-11.912 6.18 12.729-4.27a16.485 16.485 0 0 1 .883 5.376 16.735 16.735 0 0 1 -3.584 10.37 16.788 16.788 0 1 1 -26.355 0 16.748 16.748 0 0 1 0-20.742z" fill="#001f40" transform="translate(-5.492 161.753)"/><path d="m161.43 714.289a16.736 16.736 0 0 1 -3.584 10.371 16.788 16.788 0 1 1 -26.355 0c-2.267-2.846 29.939-12.255 29.939-10.371z" opacity=".1" transform="translate(-5.489 170.764)"/></g></svg>