<svg height="1282.848" viewBox="0 0 1447.788 1282.848" width="1447.788" xmlns="http://www.w3.org/2000/svg"><g fill="#001f40"><path d="m767.484 369.034c-56.584-18.313-116.411-33.666-177.554-32.083-89.889 2.334-176.317 44.224-218.943 106.135-36.031 52.464-40.84 114.124-56.569 172.463-19.378 71.873-56.161 140.082-95.418 206.786-21.086 35.827-43.331 72.407-47 111.774-5.029 54.657 28.088 109.3 80.3 145.925s121.691 56.146 191.5 60.7c37.143 2.413 75.963.548 109.033-12.83 34.981-14.1 60.563-39.9 95.686-53.843 32.553-12.909 70.5-14.569 107.012-12.674a595.372 595.372 0 0 1 139.519 23.913c50.9 15.227 98.192 37.143 148.98 52.589s107.56 24.188 159.6 11.765c48.861-11.655 87.618-40.386 122.568-69.493a1332.648 1332.648 0 0 0 156.578-153.523c31.566-36.642 60.971-75.336 75.07-118.15 26.929-81.869-9.149-174.562-89.874-230.943-66.876-46.731-156.845-67.362-244.948-79.895-80.349-11.545-173.309-12.689-247.157-42.094-70.431-28.12-134.503-62.616-208.383-86.522z" opacity=".1" transform="translate(-118.88 127.291)"/><ellipse cx="1369.882" cy="770.349" opacity=".1" rx="36.203" ry="4.966"/><ellipse cx="1231.194" cy="784.416" opacity=".1" rx="36.203" ry="4.966"/><ellipse cx="1067.833" cy="765.383" opacity=".1" rx="36.203" ry="4.966"/><ellipse cx="1286.698" cy="824.457" opacity=".1" rx="25.739" ry="3.54"/><ellipse cx="1142.762" cy="820.917" opacity=".1" rx="25.739" ry="3.54"/><path d="m979.081 639.99s50.788-166.463-7.942-233.136c-43.864-49.879-93.806-43.864-116.13-37.739a41.231 41.231 0 0 0 -26.631 22.136c-7.833 16.841-6.392 44.177 48.72 76.088 92.286 53.436 98.036 126.735 98.036 126.735z" transform="translate(251.331 143.299)"/></g><path d="m849.2 382.73s149.7 46.809 116.13 247.27" fill="none" stroke="#565987" stroke-miterlimit="10" transform="translate(265.082 153.292)"/><path d="m910.56 393.44s-20.616 13.9-14.1 34.762" fill="none" stroke="#565987" stroke-miterlimit="10" transform="translate(291.136 159.36)"/><path d="m858.79 404.178s12.532-12.814 27.932-5.749" fill="none" stroke="#565987" stroke-miterlimit="10" transform="translate(270.515 160.982)"/><path d="m896.56 444.014s22.12-11.216 27.838 2.836" fill="none" stroke="#565987" stroke-miterlimit="10" transform="translate(291.914 185.61)"/><path d="m937.629 457.45s-16.621-1.316-16.919 6.626" fill="none" stroke="#565987" stroke-miterlimit="10" transform="translate(305.597 195.579)"/><path d="m957.091 584.234s-59.529-120.986-75.806-118.334c-7.833 1.253-11.342 8.9-12.955 16.559a48.686 48.686 0 0 0 3.243 29.451c8.443 19.358 31.111 56.125 85.518 72.324z" fill="#001f40" transform="translate(275.372 200.386)"/><path d="m876.53 480.54s62.428 90.516 74.49 94.5" fill="none" stroke="#565987" stroke-miterlimit="10" transform="translate(280.566 208.708)"/><path d="m0 0h14.569" fill="none" stroke="#565987" stroke-miterlimit="10" transform="translate(1151.363 703.378)"/><path d="m0 0 22.841.971" fill="none" stroke="#565987" stroke-miterlimit="10" transform="translate(1168.814 736.495)"/><path d="m2.475 0-2.475 11.89" fill="none" stroke="#565987" stroke-miterlimit="10" transform="translate(1180.234 710.005)"/><path d="m.439 0-.439 10.809" fill="none" stroke="#565987" stroke-miterlimit="10" transform="translate(1206.553 746.208)"/><path d="m923.52 584.234s59.529-120.986 75.806-118.334c7.833 1.253 11.342 8.9 12.956 16.559a48.692 48.692 0 0 1 -3.243 29.451c-8.444 19.358-31.112 56.125-85.519 72.324z" fill="#001f40" transform="translate(307.189 200.386)"/><path d="m998.57 480.54s-62.428 90.516-74.49 94.5" fill="none" stroke="#565987" stroke-miterlimit="10" transform="translate(307.506 208.708)"/><path d="m14.569 0h-14.569" fill="none" stroke="#565987" stroke-miterlimit="10" transform="translate(1297.241 703.378)"/><path d="m22.841 0-22.841.971" fill="none" stroke="#565987" stroke-miterlimit="10" transform="translate(1271.518 736.495)"/><path d="m0 0 2.475 11.89" fill="none" stroke="#565987" stroke-miterlimit="10" transform="translate(1280.463 710.005)"/><path d="m0 0 .454 10.809" fill="none" stroke="#565987" stroke-miterlimit="10" transform="translate(1256.166 746.208)"/><path d="m859.607 565.378a10.4 10.4 0 0 1 -3.384-5.107 4.558 4.558 0 0 1 2.365-5.216c2.178-.831 4.5.674 6.266 2.209s3.775 3.243 6.079 2.929a9.258 9.258 0 0 1 -2.851-8.663 3.635 3.635 0 0 1 .783-1.77c1.206-1.285 3.4-.721 4.841.282 4.59 3.243 5.875 9.478 5.906 15.086a29.284 29.284 0 0 0 0-6.266 6.377 6.377 0 0 1 2.334-5.5 6.911 6.911 0 0 1 3.556-.846 7.4 7.4 0 0 1 5.781 1.645c1.739 1.88 1.284 5.029-.235 7.1a22.533 22.533 0 0 1 -5.969 4.7 13.125 13.125 0 0 0 -4.277 4.073 4.981 4.981 0 0 0 -.313.72h-12.94a35.68 35.68 0 0 1 -7.942-5.373z" fill="#001f40" transform="translate(268.978 247.503)"/><path d="m1004.277 534.264a10.262 10.262 0 0 1 -3.384-5.107 4.544 4.544 0 0 1 2.366-5.2c2.178-.83 4.5.674 6.266 2.193s3.791 3.259 6.094 2.93a9.227 9.227 0 0 1 -2.867-8.663 3.464 3.464 0 0 1 .8-1.754c1.206-1.285 3.384-.736 4.825.282 4.59 3.227 5.875 9.4 5.906 15.086a28.422 28.422 0 0 0 0-6.266 6.377 6.377 0 0 1 2.334-5.5 7.128 7.128 0 0 1 3.556-.83 7.332 7.332 0 0 1 5.781 1.567c1.755 1.864 1.3 5.013-.235 7.081a22.278 22.278 0 0 1 -5.969 4.794 13.127 13.127 0 0 0 -4.277 4.073 3.848 3.848 0 0 0 -.313.72h-12.94a36.1 36.1 0 0 1 -7.943-5.4z" fill="#001f40" transform="translate(350.943 229.881)"/><path d="m956.057 565.378a10.4 10.4 0 0 1 -3.384-5.107 4.56 4.56 0 0 1 2.366-5.217c2.178-.83 4.5.674 6.266 2.209s3.776 3.243 6.079 2.929a9.274 9.274 0 0 1 -2.867-8.663 3.809 3.809 0 0 1 .8-1.77c1.206-1.284 3.4-.72 4.841.282 4.59 3.243 5.875 9.478 5.906 15.086a29.289 29.289 0 0 0 .078-6.266 6.377 6.377 0 0 1 2.334-5.5 6.909 6.909 0 0 1 3.556-.846 7.394 7.394 0 0 1 5.781 1.645c1.739 1.88 1.285 5.029-.235 7.1a22.522 22.522 0 0 1 -5.969 4.7 13.129 13.129 0 0 0 -4.277 4.073 5 5 0 0 0 -.313.721h-12.94a35.676 35.676 0 0 1 -8.022-5.376z" fill="#001f40" transform="translate(323.623 247.503)"/><path d="m821.989 496.58s-4.856 6.345 2.24 15.916 12.924 17.671 10.574 23.64c0 0-10.7-17.781-19.41-18.031s-2.993-10.825 6.596-21.525z" fill="#001f40" transform="translate(243.494 217.795)"/><path d="m821.989 496.58a7.655 7.655 0 0 0 -1 1.989c-8.491 9.979-13.018 19.3-4.856 19.535 7.613.22 16.746 13.817 18.924 17.232a2.41 2.41 0 0 1 -.251.783s-10.7-17.78-19.41-18.031-2.996-10.808 6.593-21.508z" opacity=".1" transform="translate(243.494 217.795)"/><path d="m812.29 502.256c0 2.24.25 4.042.564 4.042s.548-1.8.548-4.042-.313-1.175-.611-1.175-.501-1.049-.501 1.175z" fill="#ffd037" transform="translate(244.17 220.202)"/><path d="m810.742 503.989c1.958 1.081 3.681 1.723 3.822 1.457s-1.316-1.363-3.274-2.428-1.191-.3-1.347 0-1.159-.094.799.971z" fill="#ffd037" transform="translate(242.616 221.133)"/><path d="m839.223 496.58s4.856 6.345-2.24 15.916-12.924 17.671-10.559 23.64c0 0 10.684-17.781 19.394-18.031s2.992-10.825-6.595-21.525z" fill="#001f40" transform="translate(251.874 217.795)"/><path d="m839.125 496.58a7.659 7.659 0 0 1 1 1.989c8.491 9.979 13.018 19.3 4.856 19.535-7.614.22-16.747 13.817-18.924 17.232a6.537 6.537 0 0 0 .266.783s10.684-17.78 19.394-18.031 2.996-10.808-6.592-21.508z" opacity=".1" transform="translate(251.971 217.795)"/><path d="m840.562 502.256c0 2.24-.25 4.042-.564 4.042s-.548-1.8-.548-4.042.313-1.175.611-1.175.501-1.049.501 1.175z" fill="#ffd037" transform="translate(259.558 220.202)"/><path d="m843.526 503.989c-1.958 1.081-3.682 1.723-3.823 1.457s1.316-1.363 3.274-2.428 1.191-.3 1.347 0 1.16-.094-.798.971z" fill="#ffd037" transform="translate(259.696 221.133)"/><path d="m857.439 523.95s-13.551-.407-17.64-3.321-20.867-6.392-21.932-1.723-20.365 23.216-5.076 23.342 35.592-2.381 39.665-4.872 4.983-13.426 4.983-13.426z" fill="#a8a8a8" transform="translate(241.13 229.151)"/><path d="m812.576 537.974c15.306.126 35.577-2.381 39.665-4.872 3.133-1.88 4.339-8.679 4.7-11.812h.439s-.846 10.966-4.935 13.425-24.344 5-39.665 4.872c-4.418 0-5.937-1.567-5.859-3.932.674 1.426 2.366 2.303 5.655 2.319z" opacity=".2" transform="translate(241.127 231.795)"/><circle cx="202.071" cy="94.799" fill="#001f40" opacity=".1" r="33.885"/><circle cx="788.139" cy="41.317" fill="#001f40" opacity=".1" r="33.885"/><circle cx="1325.706" cy="175.18" fill="#001f40" opacity=".1" r="33.885"/><circle cx="56.788" cy="405.496" fill="#001f40" opacity=".1" r="56.788"/><circle cx="111.226" cy="685.911" fill="#001f40" opacity=".1" r="56.788"/><circle cx="1174.798" cy="438.566" fill="#001f40" opacity=".1" r="56.788"/><path d="m606 391.134c-2.005.188-4.042.094-6.031.407a27.463 27.463 0 0 0 -9.4 3.775c-14.256 8.115-27.713 19.269-33.619 34.558a4.7 4.7 0 0 0 -.439 3.055 5.169 5.169 0 0 0 1.661 2.162l5.546 5.044a7.83 7.83 0 0 0 2.459 1.723 8.036 8.036 0 0 0 4.543-.141c15.243-3.493 31.441-7.52 42.141-18.924 5.076-5.4 9.76-12.846 17.232-13.05 3.133 0 6.063 1.206 9.149 1.567s6.8-.956 7.535-3.963a8.334 8.334 0 0 0 -.5-4.433l-4.606-15.337c-1.253-4.2-13.9-4.418-18.11-3.666-6.424 1.113-10.747 6.596-17.561 7.223z" fill="#65617d" transform="translate(99.206 153.77)"/><path d="m640.627 458.649c-.219 5.248.2 10.559-.658 15.76a45.977 45.977 0 0 1 -3.9 11.828 77.651 77.651 0 0 1 -10.653 16.778c-3.963 4.7-8.71 9.117-14.585 10.966s-13.1.517-16.762-4.433c-2.992-4.026-3.133-9.4-2.914-14.428.533-12.36 2.475-24.893 8.021-35.953 2.381-4.7 5.4-9.18 7.833-13.927 5.076-9.854 7.974-21.54 16.731-28.339a55 55 0 0 0 17.389 4.778c2.334.251 9.008.407 9.791 3.4.533 2.021-3.854 7.676-4.7 9.666a65.971 65.971 0 0 0 -5.592 23.906z" fill="#65617d" transform="translate(118.843 172.651)"/><path d="m584.881 327.829c1.88 4.794 4.261 9.493 4.7 14.6.313 3.133 0 6.266 0 9.4a61.4 61.4 0 0 0 2.131 12.689l8.726 35.718c1.3 5.342 2.6 10.825 1.927 16.277-.454 3.634-1.77 7.159-1.754 10.809a41.91 41.91 0 0 0 1.316 8.193 50.474 50.474 0 0 1 -1.316 24.908 3.728 3.728 0 0 0 -.266 1.927c.219 1.018 1.206 1.645 2.1 2.13a89.469 89.469 0 0 0 30.235 10.073 296.152 296.152 0 0 0 19.9-71.044c2.225-14.788 3.305-29.765 6.157-44.443a3.634 3.634 0 0 1 1.018-2.256c1.065-.893 2.679-.329 3.932.266a350.977 350.977 0 0 1 46.073 26.632 57.555 57.555 0 0 0 10.637-47.639 98.691 98.691 0 0 0 -7.833-20.491 115.765 115.765 0 0 0 -13.316-22.355c-11.624-14.569-28.668-23.875-46.214-30.188-10.668-3.854-21.65-6.7-32.616-9.619-6.141-1.645-16.433-7-22.4-2.836-6.266 4.339-10.433 15.1-13 21.932a80.808 80.808 0 0 0 -5.107 26.459 74.752 74.752 0 0 0 4.982 28.856z" fill="#3f3d56" transform="translate(112.491 77.541)"/><path d="m699.477 337.925c-3.274 3.572-.517 9.274-1.144 14.1a19.473 19.473 0 0 1 -2.3 6.188l-14.992 29.436a54.588 54.588 0 0 0 -5.577 14.1c-2.052 10.621 2.162 22.559-3.227 31.942-1.739 3.024-4.433 5.624-5.154 9.039-.533 2.491 0 5.091-.266 7.613-.36 2.961-1.943 5.624-2.82 8.475a59 59 0 0 0 -1.457 8.334 49.035 49.035 0 0 1 -17.611 30.448 28.01 28.01 0 0 1 -19.425 6.611c-6.987-.6-13.927-5.342-15.352-12.2-.486-2.334-.392-4.935-1.849-6.83-2.068-2.71-6.423-2.82-8.412-5.593l7.709-12.688c2.4-3.932 4.841-8.037 5.232-12.627.47-5.624-2.24-11.232-1.269-16.793.83-4.778 4.261-8.757 5.295-13.488 1.285-5.875-1.284-11.812-2.679-17.671-3.415-14.428.407-29.467 4.214-43.864 5.06-19.049 10.245-38.4 20.49-55.237 20.442 11.013 39.241 21.587 60.594 30.705z" fill="#3f3d56" transform="translate(123.832 110.511)"/><path d="m706.939 140.65c1.222 3.321.564 7 .329 10.527-.548 7.833 1.112 15.666.736 23.608s-2.82 15.525-4.512 23.248c-4.809 22.042-3.65 45.007-8.005 67.143-5.373 27.415-19.112 52.95-21.822 80.772-.862 8.835-.752 18.3-5.593 25.754a404.411 404.411 0 0 1 -81.022-47.592c5.514-40.9 10.966-82.01 10.23-123.273a52.911 52.911 0 0 1 1.034-14.851 45.792 45.792 0 0 1 5.577-11.561c6.063-9.854 12.736-19.316 19.394-28.762 4.261-6.047 8.867-12.392 15.665-15.227s14.851-1.566 22.261-.219q13.379 2.444 26.726 4.888c5.563 1.017 16.621-.925 19.002 5.545z" fill="#001f40" transform="translate(116.557 9.386)"/><path d="m530.956 256.307a83.6 83.6 0 0 0 -11.906-9.885c5.561-6.767 4.465-16.559 5.827-25.222a83.189 83.189 0 0 1 5.06-16.4c.564-1.488 1.363-3.133 2.914-3.525a5.122 5.122 0 0 1 2.789.439c4.7 1.66 14.506 1.566 18.156 4.606 4.4 3.7.376 11.436-1.284 16.057-1.175 3.101-19.222 36.28-21.556 33.93z" fill="#be6f72" transform="translate(78.03 50.463)"/><path d="m566.226 446.273a32.458 32.458 0 0 1 4.527 12.533c.376 4.449-1.253 9.321-5.044 11.671s-9.227 1.567-13.739.157a71.5 71.5 0 0 1 -43.315-39.164c-1.426-3.29-2.663-6.783-5.186-9.321a28.7 28.7 0 0 0 -6.188-4.149c-6.156-3.478-12.094-8.052-14.945-14.538s-1.567-15.149 4.339-19a16.01 16.01 0 0 1 12.282-1.567 47.5 47.5 0 0 1 11.624 5.06c6.078 3.305 13.5 6.157 18.8 10.559 4.7 3.869 8.914 9.1 12.924 13.66a192.117 192.117 0 0 1 12.895 16.444c1.282 1.676 12.107 16.136 11.026 17.655z" fill="#65617d" transform="translate(56.405 153.053)"/><path d="m477.643 418.531a108.5 108.5 0 0 1 -4.151 23.263c-1.269 4.261-2.945 8.694-6.47 11.4a23.672 23.672 0 0 1 -9.885 3.619 9.4 9.4 0 0 1 -3.775.235c-2.162-.454-3.7-2.318-5.029-4.089-5.232-6.924-10.324-14.24-12.532-22.637-3.133-12.172 0-25.222 5.436-36.595a37.455 37.455 0 0 1 8.381-12.2 32.1 32.1 0 0 1 15.382-6.907c5.781-1.159 12.877-3.635 13.3 3.4a326.866 326.866 0 0 1 -.658 40.511z" fill="#65617d" transform="translate(30.158 147.914)"/><path d="m579.615 214.19c10.809 5.593 22.809 12.7 25.065 24.658 1.394 7.3-1.285 14.773-.846 22.2.392 6.533 3.133 12.846 2.789 19.363a91.12 91.12 0 0 1 -1.567 9.164c-.924 5.781-.376 11.671-.611 17.514-.517 13.159-4.919 25.817-7.05 38.8a113.671 113.671 0 0 0 -1.05 28.057c.517 6.047 1.567 12.063 1.567 18.141a79.474 79.474 0 0 1 -1.081 13.067 130.339 130.339 0 0 1 -12.531 38.961c-7.535 14.835-6.47 33.979-5.671 50.6a12.532 12.532 0 0 1 -.846 6.768c-1.974 3.587-6.893 4.1-10.966 3.76a59.529 59.529 0 0 1 -39.164-19.833 10.042 10.042 0 0 1 -2.851-5.279c-.345-3.353 2.35-6.11 4.292-8.882 6.611-9.4 4.935-22.135 5.718-33.681a73.633 73.633 0 0 1 5.937-24.36c1.943-4.465 4.371-8.867 4.809-13.723.407-4.527-.971-9.008-2.334-13.332l-4.7-14.914c-7.284-23.169-14.616-46.48-25.645-68.114a34.073 34.073 0 0 0 -14.491 20.365c-4.1 14.757 1.739 31.237-3.854 45.43a41.527 41.527 0 0 0 -2.3 6.094 24.517 24.517 0 0 0 -.376 5.467 445.188 445.188 0 0 0 2.788 45.7 14.1 14.1 0 0 0 1.88 6.532c.924 1.332 2.272 2.319 3.258 3.587 2.742 3.556 2.225 8.538 1.567 12.971l-3.133 20.961a5.687 5.687 0 0 1 -1.018 2.961 5.607 5.607 0 0 1 -2.663 1.441 74.256 74.256 0 0 1 -30.8 2.82c-3.055-.36-5.828-2.412-8.381-4.136-.266-3.133 3.634-5.217 3.775-8.334a7.19 7.19 0 0 0 -2.4-4.794c-5.828-6.58-12.783-13.567-12.721-22.355 0-2.3.548-4.606.47-6.908-.2-5.906-4.277-10.966-5.7-16.653-1.755-7.034.58-14.334 1.473-21.524 1.222-9.681-.219-19.488-1.567-29.154l-5.248-35.467a95 95 0 0 0 -3.259-16.261 127.308 127.308 0 0 0 -6.94-15.258c-5.013-10.183-9.133-20.773-13.237-31.331a28.562 28.562 0 0 1 -2.428-9.07c-.235-5.373 2.538-10.449 5.984-14.585a45.6 45.6 0 0 1 25.065-15.2 10.966 10.966 0 0 1 5.029-.2 13.5 13.5 0 0 1 3.9 2.052 93.711 93.711 0 0 0 82.824 9.822c1.567 1.191 4.465.674 6.266-.172 5.029-2.3 9.133-6.141 13.551-9.4 8.227-6.237 19.318-12.158 29.422-14.336z" fill="#3f3d56" transform="translate(14.865 57.803)"/><path d="m310.337 478.854a21.432 21.432 0 0 0 3.7 6.6c5.671 7.394 13.582 13.3 17.232 21.932.768 1.849 1.332 3.791 2.037 5.671a37.3 37.3 0 0 0 10.183 14.757 62.674 62.674 0 0 0 11.232 7.441c6.924 3.775 14.413 7.19 22.277 6.987a24.208 24.208 0 0 0 4.7-.564 25.42 25.42 0 0 0 7-2.569c5.06-2.789 9.4-8.24 8.4-13.927a12.736 12.736 0 0 0 -1.018-3.133 32.9 32.9 0 0 0 -2.867-4.527c-2.648-3.666-5.373-7.426-9.243-9.775-4.355-2.663-9.838-3.321-13.754-6.611a21.619 21.619 0 0 1 -3.963-4.794 60.434 60.434 0 0 1 -7.833-17.749c-1.191-4.7-1.99-9.854-5.42-13.3s-8.146-4.23-12.72-5.013a22.094 22.094 0 0 0 -4.7-.454c-2.24.078-4.559.721-6.658-.329s-2.8-2.538-5.342-2.334a10.965 10.965 0 0 0 -5.5 2.4c-5.958 4.393-9.905 12.226-7.743 19.291z" fill="#3f3d56" transform="translate(-40.559 195.449)"/><path d="m361.791 483.154c1.018 5.311 2.585 10.966 6.689 14.428 2.616 2.256 6.266 3.666 7.566 6.846s-.376 7.175-2.538 10.089a37.156 37.156 0 0 1 -10.089 9.258c-3.321 2.052-7.284 3.619-11.091 2.71-3.133-.736-5.608-2.992-7.943-5.17-5.358-4.966-10.841-10.12-13.848-16.778-3.133-7.018-3.29-15.149-6.7-22.057-1.989-4.026-5.06-7.551-6.266-11.874a7.379 7.379 0 0 1 0-4.825 6.8 6.8 0 0 1 6.141-3.65 21.372 21.372 0 0 1 7.347 1.567 161.8 161.8 0 0 0 21.666 6.062c2.929.548 4.7.533 6.266 3.368a33.779 33.779 0 0 1 2.8 10.026z" fill="#fbbebe" transform="translate(-36.353 198.277)"/><path d="m358.247 507.461a17.232 17.232 0 0 0 -2.428 5.828 13.016 13.016 0 0 0 -.172 4.919 25.43 25.43 0 0 0 7-2.569c5.06-2.789 9.4-8.24 8.4-13.927a12.736 12.736 0 0 0 -1.018-3.133 4.371 4.371 0 0 0 -4.167 1.3 34.6 34.6 0 0 0 -7.614 7.582z" fill="#fbbebe" transform="translate(-14.637 218.867)"/><path d="m321.67 431.822a7.709 7.709 0 0 0 -.579 4.7c.72 3.133 3.932 4.935 6.83 6.36l27.556 13.472a57.728 57.728 0 0 1 5.577 2.961c4.7 2.882 8.4 6.956 12.407 10.684s8.475 7.222 13.786 8.538a23.3 23.3 0 0 0 15.666-2.052 32.378 32.378 0 0 0 7.175-4.872 44.111 44.111 0 0 0 5.17-5.373 11.593 11.593 0 0 0 2.8-5.06c.517-2.867-.909-5.687-2.569-8.052a37.182 37.182 0 0 0 -3.133-3.885c-10.449-11.546-27.572-17.53-42.3-19.88-5.859-.94-11.42-3.133-17.06-4.919s-11.608-3.133-17.467-2.3-11.619 4.195-13.859 9.678z" fill="#3f3d56" transform="translate(-34.205 175.478)"/><path d="m321.67 431.822a7.709 7.709 0 0 0 -.579 4.7c.72 3.133 3.932 4.935 6.83 6.36l27.556 13.472a57.728 57.728 0 0 1 5.577 2.961c4.7 2.882 8.4 6.956 12.407 10.684s8.475 7.222 13.786 8.538a23.3 23.3 0 0 0 15.666-2.052 32.378 32.378 0 0 0 7.175-4.872 44.111 44.111 0 0 0 5.17-5.373 11.593 11.593 0 0 0 2.8-5.06c.517-2.867-.909-5.687-2.569-8.052a37.182 37.182 0 0 0 -3.133-3.885c-10.449-11.546-27.572-17.53-42.3-19.88-5.859-.94-11.42-3.133-17.06-4.919s-11.608-3.133-17.467-2.3-11.619 4.195-13.859 9.678z" opacity=".1" transform="translate(-34.205 175.478)"/><path d="m373.163 435.409a31.336 31.336 0 0 1 5.17 7.974 8.931 8.931 0 0 1 1.175 6.376 9.308 9.308 0 0 1 -2.867 3.76l-2.741 2.538a10.966 10.966 0 0 1 -2.851 2.131 11.405 11.405 0 0 1 -4.7.7c-3.681 0-7.645 0-10.637-2.209-4.089-2.945-4.825-9.039-2.961-13.723s5.765-8.225 9.7-11.389c3.193-2.581 8.472 1.476 10.712 3.842z" fill="#fbbebe" transform="translate(-16.738 180.492)"/><path d="m376.2 446.746a13.926 13.926 0 0 0 .7 7.754c.689 2.35 1.363 4.7 2.036 7.1v.094a44.122 44.122 0 0 0 5.17-5.373 11.592 11.592 0 0 0 2.8-5.06c.517-2.867-.909-5.687-2.569-8.052a37.19 37.19 0 0 0 -3.133-3.885c-.736.956-1.379 1.9-1.911 2.507a13.833 13.833 0 0 0 -3.093 4.915z" fill="#fbbebe" transform="translate(-3.048 185.354)"/><path d="m331.22 406.249c-3.243 13.629-1.864 27.885-.141 41.8 1.316 10.59 2.788 21.556-.345 31.754-1.159 3.807-2.992 7.676-2.287 11.608 1.332 7.41 10.261 10.261 17.655 11.655a17.4 17.4 0 0 0 6.533.391 15.51 15.51 0 0 0 5.953-3.133 65.075 65.075 0 0 0 22.919-30.47c2.8-8.177 3.7-16.872 4.559-25.472 1.441-14.475 2.9-29.122.783-43.5-.627-4.23-1.567-8.413-1.958-12.674a91.573 91.573 0 0 1 1.222-22.167 357.567 357.567 0 0 1 12.219-53.483 72.062 72.062 0 0 1 -43.363-7.833c2.569 1.379-.376 23.357-.689 26.444a179.491 179.491 0 0 1 -4.966 27.258c-4.371 16.71-14.131 31.217-18.094 47.822z" fill="#3f3d56" transform="translate(-30.047 109.094)"/><path d="m331.22 406.249c-3.243 13.629-1.864 27.885-.141 41.8 1.316 10.59 2.788 21.556-.345 31.754-1.159 3.807-2.992 7.676-2.287 11.608 1.332 7.41 10.261 10.261 17.655 11.655a17.4 17.4 0 0 0 6.533.391 15.51 15.51 0 0 0 5.953-3.133 65.075 65.075 0 0 0 22.919-30.47c2.8-8.177 3.7-16.872 4.559-25.472 1.441-14.475 2.9-29.122.783-43.5-.627-4.23-1.567-8.413-1.958-12.674a91.573 91.573 0 0 1 1.222-22.167 357.567 357.567 0 0 1 12.219-53.483 72.062 72.062 0 0 1 -43.363-7.833c2.569 1.379-.376 23.357-.689 26.444a179.491 179.491 0 0 1 -4.966 27.258c-4.371 16.71-14.131 31.217-18.094 47.822z" opacity=".1" transform="translate(-30.047 109.094)"/><path d="m418.14 333.62c6.266 18.156 4.888 37.989 2.178 57.007s-6.7 38.036-5.53 57.2c.454 7.52 1.676 15.243-.517 22.433a49.03 49.03 0 0 1 -4.809 10.01l-49.99 86.44a15.54 15.54 0 0 1 -12.532 7.833c-5.342.376-10.59-1.379-15.572-3.337a28.013 28.013 0 0 1 -9.071-5.029 10.731 10.731 0 0 1 -3.822-9.18c2.24-15.008 5.608-30.376 8.1-45.43a78.642 78.642 0 0 1 10.872-28.778c3.869-6.266 8.632-11.89 11.969-18.407 9.587-18.673 6.266-41.451-1.128-61.1s-18.409-37.876-24.288-57.959a66.451 66.451 0 0 1 -2.961-17.232 45.947 45.947 0 0 1 13.1-32.679 11.485 11.485 0 0 1 4.527-3.133 12.689 12.689 0 0 1 6.172.11c27.84 5.404 64.106 14.411 73.302 41.231z" fill="#3f3d56" transform="translate(-35.632 101.859)"/><path d="m707.582 153.228c.909 6.862-1.567 13.8-5.091 19.739-13.331 22.245-44.068 32.083-67.832 21.728-9.791-4.277-18.078-11.326-26.193-18.282-2.726-2.35-5.561-4.809-6.94-8.13-2.428-5.875.5-12.877 5.279-17.076s10.966-6.266 17.123-8.13c20.318-6.329 78.813-26.287 83.654 10.151z" fill="#fbbebe" transform="translate(124.264 11.189)"/><path d="m677.286 131.674c18.5 14.882 45.43 29.06 66.391 40.088 7.128 3.76 15.039 7.989 17.608 15.666 1.378 4.1.924 8.569.47 12.893-.877 8.318-1.786 16.762-5 24.485-3.775 9.039-10.449 16.5-15.807 24.7-9.4 14.381-14.914 31.331-26.522 44.036 7.833 26.021 16.4 52.01 19.19 79.017a3.633 3.633 0 0 1 -.235 2.209 3.794 3.794 0 0 1 -1.222 1.112l-19.488 12.783a21.938 21.938 0 0 0 -5.624 4.7c-3.446 4.48-2.992 10.778-5.123 15.995a20.787 20.787 0 0 1 -12.062 10.966 37.143 37.143 0 0 1 -16.59 1.755 38.568 38.568 0 0 1 -19.8-6.971c-4.966-3.76-8.507-9.039-11.922-14.24a55.435 55.435 0 0 1 -6.266-11.42c-2.084-5.765-2.209-12.047-2.13-18.188a192.283 192.283 0 0 1 3.337-34.825c.909-4.559 2.036-9.055 2.757-13.645 1.441-9.243 1.159-18.673 2.224-27.963a188.1 188.1 0 0 1 6.971-30.814 158.947 158.947 0 0 0 4.073-18.955c1.833-11.248 5.483-22.1 9.133-32.9l6.266-18.5c1.331-3.995 2.679-7.974 4.261-11.875 2.945-7.285 6.736-14.381 7.739-22.151 1.112-8.475-8.037-18.532-4.95-26.491.253-.872 1.616-2.031 2.321-1.467z" fill="#3f3d56" transform="translate(142.67 10.968)"/><path d="m751.927 164.42c4.339 1.958 6.736 6.627 8.287 11.138a63.127 63.127 0 0 1 2.444 31.645 56.706 56.706 0 0 0 -1.253 8.083 53.913 53.913 0 0 0 .925 9.4c1.566 11.984 0 24.156.517 36.25.533 13.6 3.493 27.963-2.209 40.323-3.791 8.209-10.966 14.318-18.047 19.864a361.124 361.124 0 0 1 -86.428 49.877c5.342-6.423 5.436-16.089 1.88-23.655s-10.167-13.253-17.232-17.671a111.033 111.033 0 0 0 25.926-9.258c16.418-8.334 30.486-20.538 44.381-32.616a13.506 13.506 0 0 0 4.606-5.828c1.41-4.7-2.475-9.164-5.17-13.284-8.162-12.533-6.266-28.9-2.851-43.409 3.807-15.9 9.4-31.739 19.6-44.522 6.358-7.987 14.66-14.128 24.624-16.337z" fill="#3f3d56" transform="translate(147.015 29.605)"/><path d="m669.091 310.575a21.41 21.41 0 0 1 -5.391 5.925c-4.7 3.133-11.154 1.943-16.4-.282a47.859 47.859 0 0 1 -13.316-8.475 20.871 20.871 0 0 0 -5.906-4.386c-4.1-1.567-9.838-.392-12.141-4.167a2.209 2.209 0 0 1 -.376-1.347c.141-1.363 1.927-1.739 3.305-1.817a41.028 41.028 0 0 0 18.125-5.593 17.4 17.4 0 0 1 -4.449-4.7 3.666 3.666 0 0 1 -.752-2.225 3.978 3.978 0 0 1 1.363-2.224 34.872 34.872 0 0 1 38.35-6.392 7.645 7.645 0 0 1 3.133 2.35 8.692 8.692 0 0 1 1.144 3.133c1.018 4.386 4.7 10.966 3.368 15.4-1.473 5.087-7.034 10.492-10.057 14.8z" fill="#fbbebe" transform="translate(132.708 90.425)"/><path d="m587.994 377.549c19.488-22.512 28.2-52.135 36.281-80.788l5.781-20.365 13.944-49.049c2.052-7.238 4.1-14.475 5.467-21.854 2.334-12.736 2.553-25.754 2.412-38.694a41.876 41.876 0 0 0 -3.619-15.54c-1.363-3.384-2.021-6.987-3.133-10.48a52.3 52.3 0 0 0 -6.282-13.77 14.418 14.418 0 0 0 -2.835-3.384 16.481 16.481 0 0 0 -6.408-2.6 56.394 56.394 0 0 0 -15.336-2.334c-5.2.188-10.559 1.99-13.911 5.937-2.553 3.023-3.728 6.94-5.749 10.339a40.34 40.34 0 0 0 -2.554 4.339 21.942 21.942 0 0 0 -1.41 7.112q-1.222 14.8-2.083 29.639c-.266 4.5-.5 9.023-.329 13.535.141 3.509.517 7 .893 10.5l3.713 34.214c.862 8.036.25 15.556.971 23.608 1.754 19.441-2.428 38.882-6.721 57.963-2.052 9.07-4.167 18.266-8.553 26.475-3.869 7.269-9.666 14.647-8.13 22.747.533 2.82 1.958 5.452 2.178 8.3a16.663 16.663 0 0 0 .517 5.248 6.266 6.266 0 0 0 6.689 3.133 15.526 15.526 0 0 0 8.207-4.231z" fill="#3f3d56" transform="translate(106.981 3.696)"/><path d="m594.734 234.377c.6 4.5.141 9.055.36 13.582a91.617 91.617 0 0 0 3.133 17.232c1.567 6.266 3.572 13.284 9.1 16.762a28.617 28.617 0 0 1 3.964 2.491 3.854 3.854 0 0 1 1.285 4.2l-4.308-.721a4.371 4.371 0 1 1 -6.016 6.266 10.19 10.19 0 0 1 -.392 4.2 3.415 3.415 0 0 1 -3.133 2.35 5.045 5.045 0 0 1 -2.24-.94l-11.248-6.971a20.758 20.758 0 0 1 -8.1-7.833l-4.919-7.41a17.709 17.709 0 0 1 -2.553-4.7c-1.833-6.266 3.29-13.222.626-19.128a25.712 25.712 0 0 0 -2.8-4.1c-5.687-7.833-5.327-18.485-4.7-28.2.2-3.274.8-7.159 3.76-8.585 2.35-1.144 5.17-.125 7.347 1.3s4.1 3.305 6.58 4.151c1.567.533 3.29.6 4.856 1.159 2.193.768 4.23 3.76 5.7 5.53a18.345 18.345 0 0 1 3.698 9.365z" fill="#fbbebe" transform="translate(102.622 56.775)"/><path d="m512.528 167.994a27.848 27.848 0 0 1 -5.514 8.24 10.668 10.668 0 0 1 -9.086 3.133c-3.478-.689-6.031-3.556-8.334-6.266-6.016-7.065-12.11-14.224-16.151-22.59-6.172-12.736-7.159-27.274-8.052-41.389-.219-3.634-.407-7.488 1.332-10.668 2.209-4.057 6.893-5.969 11.216-7.582l23.89-8.929a9.258 9.258 0 0 1 4.7-.862c3.744.627 5.123 5.138 6.141 8.788a54.83 54.83 0 0 0 8.93 18.172c5.358 7.144 17.373 16.762 10.512 25.676-8.289 10.683-13.553 22.214-19.584 34.277z" fill="#be6f72" transform="translate(47.55 -17.629)"/><path d="m565.622 124.619c10.465 9.838 14.005 25.159 13.5 39.493s-4.48 28.308-6.752 42.47-2.726 29.279 3.431 42.3c2.115 4.465 5 8.6 6.47 13.316a41.777 41.777 0 0 1 1.238 14.3 40.839 40.839 0 0 1 -2.851 14.788c-3.337 7.394-10.2 12.533-16.762 17.232-13.396 9.682-27.052 19.519-42.781 24.582-10.653 3.431-21.932 4.559-33.086 5.17a105.236 105.236 0 0 1 -22.653-.642 61.519 61.519 0 0 1 -34.386-18.2 19.266 19.266 0 0 1 -3.9-5.373 22.32 22.32 0 0 1 -1.363-8.146q-.564-15.431.188-30.861a135.663 135.663 0 0 1 4.026-29.06c2.992-10.966 8.178-21.243 12.11-31.927 13.692-37.143 12.313-79.409 31.331-114.093 4.1-7.488 10.966-15.368 19.425-14.177a6.517 6.517 0 0 1 4.292 1.974 9.039 9.039 0 0 1 1.567 4.825c2.021 16.856 4.888 34.151 12.83 49.362 3.133 5.969 7.833 15.055 15.055 16.653s11.483-5.3 15.352-10.183a125.022 125.022 0 0 1 23.718-23.8z" fill="#e3e8f4" transform="translate(25.02 -15.016)"/><path d="m570 97.917a31.216 31.216 0 0 1 5.938 4.167c4.7 4.449 6.423 11.264 6.392 17.718s-1.567 12.814-2.506 19.206c-2.522 17.232-.376 34.872.627 52.323a25.337 25.337 0 0 1 -.5 8.428c-.768 2.632-2.35 4.95-3.368 7.5-2.992 7.551-.736 16.167-2.491 24.094-1.88 8.444-8.318 16.12-7.112 24.689.486 3.352 2.1 6.439 2.789 9.76s.094 7.332-2.773 9.117-7.034.486-10.449 1.473a32.2 32.2 0 0 0 -4.042 1.817c-5.279 2.381-11.577 1.567-16.778-1.034a50.847 50.847 0 0 1 -13.551-10.747c-5.969-6.11-11.749-12.8-14.365-20.929-3.822-11.781-.423-24.611 3.728-36.3s9.1-23.5 8.365-35.921c-.407-6.956-2.6-13.645-3.916-20.475a130.977 130.977 0 0 1 -1.739-28.668c.2-7.018.674-14.256 3.7-20.6a28.37 28.37 0 0 1 22.433-15.352c10.965-1.183 20.365 4.408 29.618 9.734z" fill="#3f3d56" transform="translate(70.72 -13.677)"/><path d="m528.066 218.325a47.756 47.756 0 0 0 2.663 14.71c2.8-6.392 3.133-13.566 3.509-20.522 1.567-23.953 6.877-46.543 12.533-69.743-4.12 3.133-6.439 10.966-8.412 15.666a138.14 138.14 0 0 0 -10.292 59.89z" opacity=".1" transform="translate(83.035 17.339)"/><path d="m507.1 84.806c-7.551 1.99-14.1 6.47-21.415 9.4-7.6 3.133-15.775 4.465-23.749 6.392-18.454 4.48-36.987 12.8-48.125 28.2-8.209 11.326-11.608 25.316-17.232 38.146-4.7 10.762-10.966 20.851-14.428 32.052-4.527 14.616-4.01 30.282-2.9 45.54.909 12.533 2.287 25.206 7.974 36.313 2.977 5.828 7.081 11.044 10.058 16.872 3.572 7 5.452 14.726 8.428 21.932s7.347 14.412 14.256 18.172l11.436-6.689c17.06-9.979 34.12-19.974 50.647-30.814 14.412-9.4 28.95-20.193 36.626-35.639 6.8-13.645 7.472-29.592 5.718-44.741s-5.765-29.968-7.833-45.07a181.5 181.5 0 0 1 1.175-57.2c1.567-8.522 5.734-17.326 6.6-25.817.956-9.07-10.699-8.772-17.236-7.049z" fill="#3f3d56" transform="translate(-1.605 -16.043)"/><path d="m426.786 250.5c8.757 8.287 21.352 10.7 32.3 15.666a69.354 69.354 0 0 1 21.574 15.664c3.368 3.7 6.626 8.726 4.934 13.425-1.426 4.042-5.8 6.11-9.807 7.613-4.982 1.88-10.543 3.54-15.509 1.645-2.914-1.112-5.264-3.337-7.943-4.919-6.564-3.9-14.835-3.916-21.571-7.52-9.492-5.074-14.223-16.244-23.153-22.274-4.888-3.29-11.64-5.984-12.141-11.859a14.332 14.332 0 0 1 1.316-6.157c1.8-4.794 4.872-21.258 11.734-20.82 7.472.485 12.705 15.571 18.266 19.536z" fill="#fbbebe" transform="translate(8.014 67.301)"/><path d="m415.869 212.561c2.867 10.308 9.525 19.1 16.433 27.274 4.966 5.875 10.418 12.266 10.59 19.958.157 7.269-4.7 13.958-10.966 17.671s-13.645 4.9-20.9 5.373a52.715 52.715 0 0 1 -17.326-1.206c-14.318-3.885-24.251-16.371-35.514-26.021-6.689-5.718-14.209-10.7-19.331-17.859s-7.284-17.436-2.24-24.658a35.681 35.681 0 0 1 6.266-6.266 104.737 104.737 0 0 0 21.6-25.927c2.318-3.932 4.543-8.193 8.444-10.559 5.593-3.4 12.767-1.849 19.1-.188 6.877 1.8 26.256 5.326 27.6 14.1.548 3.6-3.916 9.211-4.59 13.081a34.65 34.65 0 0 0 .834 15.227z" fill="#fbbebe" transform="translate(-26.954 31.813)"/><path d="m461.248 223.582a66.157 66.157 0 0 1 5.044 11.671c4.778 16.606-3.76 33.712-7.833 50.506-5.2 21.509-2.992 44-3.243 66.14-.11 10.12-1.191 21.258-8.475 28.277-1.88 1.786-4.136 3.29-5.4 5.546a22.95 22.95 0 0 0 -1.739 5.185 26.726 26.726 0 0 1 -38.726 15.948c-5.937-3.305-11.091-9.039-17.89-9.211a51.848 51.848 0 0 0 -6.376.705c-6.768.674-13.394-1.833-19.739-4.292a12.876 12.876 0 0 1 -4.167-2.225c-1.144-1.05-1.88-2.46-2.929-3.587-3.869-4.167-10.48-3.447-16.057-4.606a22.48 22.48 0 0 1 -17.029-17.029c-1.128-5.389-.172-10.966.768-16.4l4.2-24.219a222.971 222.971 0 0 0 3.65-26.9 112.794 112.794 0 0 0 -2.6-30.407c-1.848-8.146-4.606-16.12-5.608-24.423a59.671 59.671 0 0 1 10.966-42c2.178-2.992 5.029-5.984 8.726-6.266 2.992-.266 5.8 1.332 8.4 2.867q33.885 20.052 68.24 39.274c6.266 3.525 12.674 7.065 19.66 8.8 2.1.533 5.107.313 5.4-1.817a3.961 3.961 0 0 0 -.611-2.3c-3.916-7.535-9.587-14.005-14.1-21.18s-7.99-15.666-6.658-24c1.817-11.53 12.532-19.159 21.29-10.12 9.818 10.262 16.397 23.452 22.836 36.063z" fill="#f86d70" transform="translate(-36.912 40.437)"/><path d="m379.152 310.723c18.376 1.175 37.159 2.428 54.172 9.478 5.467 2.256 11.264 5.17 17.013 3.776a22.749 22.749 0 0 0 7.833-4.2 179.214 179.214 0 0 0 20.02-17.077c-.627-3.431-5.279-3.9-8.757-3.869a52.34 52.34 0 0 1 -24.376-5.859 41.075 41.075 0 0 0 -7.833-3.65c-7.441-2.052-15.023 1.864-22.5 3.775-11.06 2.82-22.715 1.175-34.01-.486l-30.485-4.5c-2.835-.407-6.031-.736-8.287 1.018a10.12 10.12 0 0 0 -2.961 5.311c-3.729 12.533-1.943 13.582 10.465 14.365z" fill="#fbbebe" transform="translate(-24.967 99.504)"/><circle cx="770.452" cy="142.595" opacity=".1" r="50.13"/><circle cx="770.092" cy="140.417" fill="#fbbebe" r="50.13"/><path d="m690.281 94.692c4.01 2.475 8.209 5.138 10.4 9.305a46.567 46.567 0 0 1 2.679 8.773c2.741 9.4 10.042 17.561 10.48 27.352.486 10.731-7.566 20.052-16.684 25.676a12.376 12.376 0 0 1 -7.175 2.413c-2.648-.172-4.935-1.833-7.363-2.9-10.292-4.574-21.807 1.222-32.71 3.885a58.716 58.716 0 0 1 -34.151-2.005c-5.875-2.193-11.577-5.483-15.258-10.574s-5-12.219-1.864-17.686c1.567-2.788 4.167-5.311 3.995-8.491-.094-1.911-1.222-3.634-1.566-5.514-.5-2.992 1.065-5.906 2.663-8.459a122.444 122.444 0 0 1 27.1-30.658c3.133-2.569 6.752-5.076 10.857-5.264 8.24-.36 15.321 5.781 23.8 5.812 9.616.032 16.525 3.228 24.797 8.335z" fill="#3f3d56" transform="translate(122.124 -17.924)"/><circle cx="585.551" cy="78.131" opacity=".1" r="51.697"/><circle cx="586.46" cy="76.862" fill="#be6f72" r="51.697"/><path d="m562.608 146.629c7.3 4.089 16.308 3.666 24.454 1.8a32.9 32.9 0 0 0 12.846-5.42 15.494 15.494 0 0 0 6.47-11.906c0-5.248-3.446-9.979-3.869-15.227-.517-6.611 3.791-12.721 4.245-19.363s-2.82-12.627-6.016-18.329c-5.5-9.791-11.216-19.707-19.582-27.2s-19.956-12.26-30.924-9.738c-5.389 1.238-10.386 4.136-15.885 4.7-4.888.454-9.713-1.018-14.585-1.645s-10.339-.235-13.833 3.133c-1.911 1.88-3.133 4.527-5.373 5.906a32.24 32.24 0 0 1 -4.7 1.739c-5.655 2.272-8.24 8.647-10.245 14.381l-13.441 38.521c4.5 3.133 9.916 4.559 14.835 6.971s9.7 6.266 10.7 11.655c.768 4.089-.689 8.788 1.692 12.2 2.177 3.133 6.611 3.666 10.371 3.133s7.535-1.833 11.295-1.253c9.4 1.426 12.893 7.191 21.587 0s11.874 1.398 19.958 5.942z" fill="#3f3d56" transform="translate(51.47 -40.566)"/><circle cx="366.764" cy="193.446" opacity=".1" r="46.997"/><circle cx="368.581" cy="190.892" fill="#fbbebe" r="46.997"/><path d="m446.324 141.369a123.947 123.947 0 0 0 -37.175-19.551c-8.585-2.788-17.921-4.7-26.632-2.131-11.812 3.368-27.618 8.4-34.934 18.282-3.6 4.856-7.253 9.854-8.992 15.666-3.478 11.687 1.473 24.141 1.144 36.329-.392 14.209-7.927 27.18-16.151 38.773s-9.885 28.2-14.741 41.577c-1.661 4.59-2.193 10.966 2.083 13.269 3.76 2.084 8.3-.517 11.781-3.023l20.914-15.117a15.931 15.931 0 0 1 5.514-2.945c4.308-1 8.522 1.692 12.125 4.245l43.864 31.018a13.456 13.456 0 0 0 .2-11.4c4.12 1.269 7.112 4.7 10.731 7.144s9.117 3.243 11.749-.172.642-8.005-2.287-10.762-6.783-4.4-9.65-7.238c-5.687-5.655-6.266-14.585-9.854-21.728-2.569-5.013-6.721-9.211-8.538-14.553-2.961-8.726.909-18.125 4.7-26.522 4.527-9.963 9.65-20.6 19.284-25.8 3.243-1.755 6.83-2.788 10.151-4.386 8.271-3.963 18.6-13.316 22.637-21.7 3.545-7.444-1.907-14.638-7.923-19.275z" fill="#3f3d56" transform="translate(-41.759 3.576)"/><path d="m377.107 232.785c4.5 2.867 9.572 4.7 13.99 7.692s8.287 7.535 8.412 12.862c.125 5.091-3.133 9.556-6.266 13.6l-38.162 50.081 19.457 5.154c-3.133 4.324-3.932 9.838-5.561 14.914s-4.7 10.355-9.9 11.686c-4.7 1.206-9.619-1.269-14.475-.987-3.588.219-6.971 1.911-10.559 2.052-4.622.172-8.914-2.256-12.768-4.825-8.585-5.749-17.107-13.989-17.044-24.329a36.8 36.8 0 0 1 2.084-10.245c5.624-18.345 11.452-37.128 23.107-52.386 6.266-8.146 13.927-15.023 21.587-21.854a20.129 20.129 0 0 1 6.047-4.183c5.013-1.88 10.48.439 15.666 1.943s11.718 1.723 14.71-2.71" opacity=".1" transform="translate(-43.679 67.469)"/><path d="m376.051 230.855c4.5 2.851 9.572 4.7 13.989 7.692s8.287 7.535 8.428 12.846-3.133 9.572-6.266 13.613l-38.177 50.036 19.457 5.154c-3.133 4.324-3.932 9.822-5.561 14.914s-4.7 10.355-9.9 11.687c-4.7 1.206-9.619-1.269-14.475-.987-3.587.2-6.971 1.911-10.559 2.037-4.621.172-8.914-2.256-12.768-4.825-8.585-5.734-17.107-13.989-17.029-24.313a36.036 36.036 0 0 1 2.068-10.245c5.624-18.36 11.452-37.143 23.107-52.386 6.266-8.162 13.943-15.039 21.587-21.932a20.71 20.71 0 0 1 6.048-4.184c5.013-1.88 10.48.439 15.666 1.958s11.718 1.723 14.71-2.71" fill="#f86d70" transform="translate(-44.268 66.313)"/><g opacity=".1" transform="translate(719.001 99.06)"><path d="m602.13 125.252c3.681 5.091 9.4 8.4 15.258 10.574a58.447 58.447 0 0 0 34.151 2.005c10.966-2.663 22.418-8.459 32.71-3.885 2.428 1.081 4.7 2.726 7.347 2.914a12.533 12.533 0 0 0 7.191-2.428c6.345-3.916 12.172-9.619 14.961-16.339a4.032 4.032 0 0 0 .094 1.05c.486 10.731-7.567 20.052-16.684 25.676a12.376 12.376 0 0 1 -7.175 2.413c-2.648-.172-4.935-1.833-7.363-2.9-10.292-4.574-21.807 1.222-32.71 3.885a58.715 58.715 0 0 1 -34.151-2.005c-5.875-2.193-11.577-5.483-15.258-10.574s-5-12.219-1.864-17.686l.235-.392a19.159 19.159 0 0 0 3.258 7.692z" transform="translate(-596.877 -96.004)"/><path d="m602.745 106.87c.125 2.413-1.332 4.433-2.726 6.486a9.907 9.907 0 0 1 -.454-1.567c-.47-2.8.877-5.53 2.366-7.99a10.42 10.42 0 0 1 .814 3.07z" transform="translate(-595.408 -103.8)"/></g><path d="m489.288 58.2-13.441 38.5c4.5 3.133 9.916 4.574 14.835 6.971s9.7 6.266 10.7 11.655c.768 4.089-.689 8.788 1.692 12.219 2.178 3.133 6.611 3.65 10.371 3.133s7.535-1.833 11.295-1.253c9.4 1.426 12.893 7.191 21.587.078s11.843 1.332 19.927 5.875c7.3 4.1 16.308 3.681 24.454 1.8a32.9 32.9 0 0 0 12.846-5.4 20.06 20.06 0 0 0 1.567-1.426 17.454 17.454 0 0 1 -5.263 6.517 32.9 32.9 0 0 1 -12.846 5.42c-8.146 1.864-17.232 2.287-24.454-1.8-8.083-4.543-11.4-12.83-19.927-5.875s-12.219 1.347-21.587 0c-3.76-.58-7.519.721-11.295 1.253s-8.193 0-10.371-3.133c-2.381-3.415-.924-8.115-1.692-12.2-1-5.389-5.781-9.258-10.7-11.655s-10.339-3.854-14.835-6.971l13.5-38.616c1.567-4.245 3.29-8.835 6.423-11.859a52.609 52.609 0 0 0 -2.788 6.768z" opacity=".1" transform="translate(51.459 -34.411)"/><g opacity=".1" transform="translate(265.875 139.227)"><path d="m379.942 281.835c3.462 1.567 7.833 1.8 10.026-1.128 2.46-3.133.642-7.989-2.287-10.762s-6.783-4.4-9.65-7.238c-5.687-5.64-6.266-14.569-9.854-21.713-2.569-5.029-6.721-9.227-8.538-14.569-2.961-8.71.909-18.125 4.7-26.506 4.527-9.963 9.65-20.6 19.284-25.8 3.243-1.755 6.83-2.788 10.151-4.386 8.271-3.963 18.6-13.332 22.637-21.713 3.4-7.065-1.394-13.927-7.1-18.579 2.773 1.8 5.483 3.7 8.115 5.718 6.031 4.7 11.467 11.828 7.833 19.237-4.042 8.381-14.365 17.734-22.637 21.7-3.321 1.567-6.909 2.632-10.151 4.386-9.634 5.2-14.757 15.838-19.284 25.8-3.807 8.4-7.676 17.8-4.7 26.522 1.817 5.342 5.969 9.54 8.538 14.553 3.634 7.144 4.167 16.073 9.854 21.728 2.867 2.835 6.721 4.465 9.65 7.238s4.7 7.566 2.287 10.762-8.146 2.538-11.749.172c-2.426-1.646-4.634-3.808-7.125-5.422z" transform="translate(-278.755 -129.44)"/><path d="m313.8 224.458 20.914-15.1a15.98 15.98 0 0 1 5.514-2.961c4.308-.987 8.522 1.708 12.125 4.261l43.864 31.018a13.489 13.489 0 0 0 .2-11.42c4.026 1.253 6.955 4.606 10.449 6.956a11.717 11.717 0 0 0 -1.567-.58 13.457 13.457 0 0 1 -.2 11.4l-43.864-31.018c-3.6-2.553-7.833-5.248-12.125-4.245a15.932 15.932 0 0 0 -5.514 2.945l-20.914 15.117c-3.478 2.507-8.021 5.107-11.781 3.023a6.877 6.877 0 0 1 -3.274-6.047 22.7 22.7 0 0 0 6.173-3.349z" transform="translate(-307.628 -85.958)"/></g><path d="m684.023 289.738s-89.764 7.19-107.623-5.53l82.12-12.658z" fill="#e3e8f4" transform="translate(110.523 90.301)"/><path d="m684.023 289.738s-89.764 7.19-107.623-5.53l82.12-12.658z" opacity=".1" transform="translate(110.523 90.301)"/><path d="m688.754 294.95-25.143-15.916s-75.011 21.556-95.561 12.658l20.914-29.342 74.318 14.491z" fill="#e3e8f4" transform="translate(105.792 85.089)"/><path d="m586.847 160.926a44.066 44.066 0 0 0 -6.6 11.577c-.721 2.209-1.081 4.512-1.692 6.752a51.891 51.891 0 0 1 -7.833 15.525c-7.723 11.232-17.373 22.073-19.316 35.561-.94 6.658.094 13.425 1.41 20.021a54.051 54.051 0 0 0 3.7 12.642c1.99 4.292 4.95 8.068 7.222 12.219a86.785 86.785 0 0 1 5.232 12.658c2.679-2.679 4.261-6.266 6.407-9.4s5.342-5.953 9.117-6c4.355 0 7.942 3.6 12.25 4.167a3.494 3.494 0 0 0 2.005-.188c1.567-.736 1.692-2.851 1.567-4.543-1.237-11.828-8.005-23.5-4.809-34.966 2.945-10.606 13.472-17.232 19-26.741 4.01-6.909 5.2-15.055 6.266-22.981 1.331-9.478 2.679-19.034 2.084-28.574-.3-4.809-4.12-35.2-11.107-32.021-2.428 1.1-4.543 5.749-6.062 7.833l-6.266 8.882z" fill="#3f3d56" transform="translate(96.16 8.065)"/><path d="m357.976 234.781-50.4 41.028-64.84-11.593 43.664-34.276z" fill="#e3e8f4" transform="translate(137.528 130.266)"/><path d="m359.136 233.151-50.4 41.028-64.836-11.592 43.66-34.276z" opacity=".1" transform="translate(138.185 129.343)"/><path d="m358.912 231.766-50.4 41.013-64.852-11.579 43.676-34.292z" fill="#e3e8f4" transform="translate(138.049 128.55)"/><path d="m359.842 228.731-50.412 41.028-64.84-11.593 43.676-34.276z" opacity=".1" transform="translate(138.576 126.839)"/><path d="m359.6 227.341-50.4 41.028-64.84-11.593 43.66-34.276z" fill="#e3e8f4" transform="translate(138.446 126.051)"/><path d="m882.966 624.3a8.115 8.115 0 0 1 11.64 6.658l2.8 36.36-16.637 3.008-8.769-26.292z" fill="#3f3d56" transform="translate(278 289.691)"/><path d="m603.03 469.12-254.614 129.211a17.718 17.718 0 0 0 .125 31.629l548.376 275.2a66.563 66.563 0 0 0 62.553-1.567l230.974-130.244a17.718 17.718 0 0 0 -1.049-31.331l-570.715-273.07a17.718 17.718 0 0 0 -15.65.172z" fill="#3f3d56" transform="translate(-24.121 201.156)"/><path d="m346.942 536.56-7.974 5.922-.627 28.355a11.78 11.78 0 0 0 6.392 10.747l557.744 286.211a8.3 8.3 0 0 0 12.11-7.379v-41.185z" fill="#3f3d56" transform="translate(-24.355 240.447)"/><path d="m603.038 448.143-254.614 129.195a17.718 17.718 0 0 0 .078 31.629l548.423 275.2a66.61 66.61 0 0 0 62.553-1.567l230.974-130.26a17.718 17.718 0 0 0 -1.049-31.331l-570.715-273.054a17.717 17.717 0 0 0 -15.65.188z" fill="#001f40" transform="translate(-24.13 189.267)"/><path d="m504.64 421.86-280.54 142.448 482.173 241.092 289.313-146.85z" fill="#ebebeb" transform="translate(126.967 239.001)"/><ellipse cx="1009.682" cy="983.041" fill="#3f3d56" rx="29.592" ry="17.53"/><circle cx="469.969" cy="706.338" fill="#3f3d56" r="2.741"/><circle cx="461.761" cy="727.707" fill="#3f3d56" r="3.29"/><path d="m0 15.337 32.882-15.337" fill="none" stroke="#3f3d56" stroke-miterlimit="10" transform="translate(473.808 706.887)"/><rect fill="#ff7d00" height="56.396" rx="18" transform="matrix(.8660254 -.5 .5 .8660254 647.855017 861.22584)" width="163.581"/><rect fill="#ff7d00" height="56.396" rx="18" transform="matrix(.8660254 -.5 .5 .8660254 730.883391 903.52795)" width="163.581"/><rect fill="#ff7d00" height="56.396" rx="18" transform="matrix(.8660254 -.5 .5 .8660254 572.660768 812.667082)" width="163.581"/></svg>