<svg height="1224.561" viewBox="0 0 1589.156 1224.561" width="1589.156" xmlns="http://www.w3.org/2000/svg" xmlns:xlink="http://www.w3.org/1999/xlink"><linearGradient id="a" gradientUnits="objectBoundingBox" x1=".5" x2=".5" y1="1"><stop offset="0" stop-color="#808080" stop-opacity=".251"/><stop offset=".54" stop-color="#808080" stop-opacity=".122"/><stop offset="1" stop-color="#808080" stop-opacity=".102"/></linearGradient><linearGradient id="b" x1=".5" x2=".5" xlink:href="#a" y1="1" y2="0"/><linearGradient id="c" x1="0" x2="1" xlink:href="#a" y1=".5" y2=".5"/><path d="m921.62 733.181c23.176 11.718 51.523 4.592 77.857 5.417 3.607.116 7.416.463 10.313 2.477s4.345 5.316 6.3 8.126c7.373 10.444 22.5 13.8 35.705 12.037s25.335-7.648 37.806-12.124c21.554-7.721 46.193-11.24 67.457-2.81a12.269 12.269 0 0 0 6.1 1.347c4.664-.681 6.04-6.3 9.314-9.5 5.881-5.794 18.657-4.2 21.25-11.819 1.448-4.476-1.97-9.053-5.794-12.1-14.485-11.675-35.315-13.6-54.348-11.791s-37.661 6.75-56.825 6.779c-23.813 0-46.83-7.619-70.411-10.733-16.339-2.173-34.17-1.9-49.495 4.476-16.558 6.955-20.194 22.367-35.229 30.218z" fill="#001f40" opacity=".1" transform="translate(338.833 273.192)"/><path d="m63.3 457.28c25.146 107.479 78.378 200.385 162.492 245.42 174.848 93.587 569.144 45.309 863.406-10.139a673.843 673.843 0 0 0 383.186-219.042z" fill="#001f40" opacity=".1" transform="translate(-46.121 165.559)"/><path d="m1593.872 144.2h-161.464a13.949 13.949 0 0 1 0-27.9h27.913a13.964 13.964 0 0 1 0-27.913h-19.931a13.964 13.964 0 0 1 0-27.913h84.274c-18.7-8.691-40.558-14.876-65.747-18.106-229.79-29.52-311.833-9.995-340.774 10.139-35.706 24.769-75.539 42.991-118.111 51.769-141.779 29.245-406.926 64.444-647.247-11.255-119.443-37.659-208.207 25.944-261.425 132.221h1530.54c-2-30.9-7.981-59.388-18.961-84.375a13.848 13.848 0 0 1 -9.067 3.333z" fill="#001f40" opacity=".1" transform="translate(-33.536 -27.29)"/><path d="m54.916 302.41a711.369 711.369 0 0 0 6.257 187.508l1417.617 51.856a666.323 666.323 0 0 0 98.5-150.209zm560.684 133.769h-27.912a13.949 13.949 0 1 1 0 27.9h-161.464a13.949 13.949 0 0 1 0-27.9h27.913a13.964 13.964 0 0 1 0-27.913h-19.932a13.963 13.963 0 0 1 0-27.912h161.464a13.963 13.963 0 0 1 0 27.912h19.931a13.964 13.964 0 0 1 0 27.913z" fill="#001f40" opacity=".1" transform="translate(-51.44 96.1)"/><path d="m1638.729 164.6-1547.691 37.661c-18.83 48.38-31.244 103.089-37.038 159.813h1557.613a662.545 662.545 0 0 0 22.5-101.887c4.631-33.331 6.487-65.56 4.616-95.587zm-1270.521 123.354h-27.908a13.949 13.949 0 0 1 0 27.9h-161.468a13.949 13.949 0 0 1 0-27.9h27.913a13.964 13.964 0 0 1 0-27.913h-19.932a13.964 13.964 0 0 1 0-27.913h161.464a13.963 13.963 0 0 1 0 27.912h19.931a13.963 13.963 0 0 1 0 27.913z" fill="#001f40" opacity=".1" transform="translate(-50.292 34.293)"/><g opacity=".1" transform="translate(835.171 539.838)"><path d="m634.76 700.691s40.848-100.671 117.126-138.028a164.576 164.576 0 0 0 74.7-72.526 277.1 277.1 0 0 0 18.729-47.047" fill="none" stroke="#535461" stroke-miterlimit="10" stroke-width="2" transform="translate(-624.994 -380.643)"/><g fill="#001f40"><path d="m828.414 438.612c-7.952 9.995-49.1 24.624-49.1 24.624s4.954-43.383 12.906-53.377a23.176 23.176 0 1 1 36.213 28.8z" transform="translate(-560.163 -399.978)"/><path d="m820.359 495.42c-12.109 4.07-54.579-6.04-54.579-6.04s27.739-33.721 39.848-37.791a23.176 23.176 0 1 1 14.731 43.832z" transform="translate(-566.232 -377.626)"/><path d="m764.243 560.024c-12.5-2.593-44.063-32.78-44.063-32.78s40.978-15.108 53.478-12.5a23.176 23.176 0 0 1 -9.415 45.28z" transform="translate(-586.683 -348.642)"/><path d="m714.764 600.109c-12.764-.449-48.974-24.856-48.974-24.856s37.834-21.814 50.6-21.38a23.176 23.176 0 1 1 -1.622 46.236z" transform="translate(-611.077 -330.961)"/><path d="m738.614 466.155c1.622 12.66 29.288 46.453 29.288 46.453s18.222-39.689 16.585-52.363a23.176 23.176 0 1 0 -45.874 5.91z" transform="translate(-578.61 -382.691)"/><path d="m679.9 514.756c5.345 11.588 41.862 35.561 41.862 35.561s5.49-43.325.145-54.927a23.176 23.176 0 0 0 -42.007 19.366z" transform="translate(-605.445 -362.632)"/><path d="m628.484 567.535c3.317 12.327 35.242 42.122 35.242 42.122s12.747-41.775 9.444-54.1a23.176 23.176 0 0 0 -44.686 11.979z" transform="translate(-628.018 -337.294)"/></g><path d="m828.414 438.612c-7.952 9.995-49.1 24.624-49.1 24.624s4.954-43.383 12.906-53.377a23.176 23.176 0 1 1 36.213 28.8z" opacity=".25" transform="translate(-560.163 -399.978)"/><path d="m820.359 495.42c-12.109 4.07-54.579-6.04-54.579-6.04s27.739-33.721 39.848-37.791a23.176 23.176 0 1 1 14.731 43.832z" opacity=".25" transform="translate(-566.232 -377.626)"/><path d="m764.243 560.024c-12.5-2.593-44.063-32.78-44.063-32.78s40.978-15.108 53.478-12.5a23.176 23.176 0 0 1 -9.415 45.28z" opacity=".25" transform="translate(-586.683 -348.642)"/><path d="m714.764 600.109c-12.764-.449-48.974-24.856-48.974-24.856s37.834-21.814 50.6-21.38a23.176 23.176 0 1 1 -1.622 46.236z" opacity=".25" transform="translate(-611.077 -330.961)"/><path d="m738.614 466.155c1.622 12.66 29.288 46.453 29.288 46.453s18.222-39.689 16.585-52.363a23.176 23.176 0 1 0 -45.874 5.91z" opacity=".25" transform="translate(-578.61 -382.691)"/><path d="m679.9 514.756c5.345 11.588 41.862 35.561 41.862 35.561s5.49-43.325.145-54.927a23.176 23.176 0 0 0 -42.007 19.366z" opacity=".25" transform="translate(-605.445 -362.632)"/><path d="m628.484 567.535c3.317 12.327 35.242 42.122 35.242 42.122s12.747-41.775 9.444-54.1a23.176 23.176 0 0 0 -44.686 11.979z" opacity=".25" transform="translate(-628.018 -337.294)"/></g><g opacity=".1" transform="translate(831.944 324.104)"><path d="m655.86 612.562s5.157-108.521 64.733-169.04a164.6 164.6 0 0 0 46.424-93.211 276.894 276.894 0 0 0 2.028-50.582" fill="none" stroke="#535461" stroke-miterlimit="10" stroke-width="2" transform="translate(-612.303 -229.206)"/><g fill="#001f40"><path d="m773.643 283.2c-4.186 12.066-38.168 39.472-38.168 39.472s-9.705-42.571-5.533-54.637a23.176 23.176 0 1 1 43.7 15.166z" transform="translate(-579.545 -251.042)"/><path d="m785.288 340.539c-10.139 7.865-53.508 12.4-53.508 12.4s14.992-41.021 25.059-48.872a23.176 23.176 0 0 1 28.448 36.473z" transform="translate(-578.254 -229.066)"/><path d="m756.52 420.722c-12.66 1.695-52.45-16.31-52.45-16.31s33.648-27.884 46.251-29.535a23.176 23.176 0 0 1 6.141 45.845z" transform="translate(-590.682 -195.527)"/><path d="m722.234 475.209c-12.182 3.81-54.434-7.242-54.434-7.242s28.448-33.127 40.645-36.937a23.176 23.176 0 1 1 13.79 44.15z" transform="translate(-606.948 -171.013)"/><path d="m700.533 338.02c5.794 11.4 43.049 34.112 43.049 34.112s4.012-43.455-1.723-54.9a23.176 23.176 0 1 0 -41.326 20.786z" transform="translate(-593.691 -227.677)"/><path d="m661.915 404.01c8.894 9.169 51.277 19.671 51.277 19.671s-9.169-42.687-18.063-51.856a23.176 23.176 0 1 0 -33.214 32.186z" transform="translate(-613.013 -200.543)"/><path d="m630.8 470.986c7.242 10.545 47.221 28.043 47.221 28.043s-1.839-43.629-9.038-54.159a23.176 23.176 0 1 0 -38.183 26.073z" transform="translate(-625.79 -169.267)"/></g></g><path d="m1046.833 650s7.967 10.415-3.665 26.073-21.22 28.97-17.382 38.776c0 0 17.556-29.172 31.867-29.593s4.896-17.715-10.82-35.256z" fill="#001f40" transform="translate(385.166 251.994)"/><path d="m1046.688 650a13.074 13.074 0 0 1 1.637 3.274c13.934 16.368 21.35 31.65 7.952 32.026-12.472.362-27.434 22.669-31.027 28.3a13.46 13.46 0 0 0 .42 1.289s17.556-29.173 31.867-29.593 4.863-17.755-10.849-35.296z" opacity=".1" transform="translate(385.311 251.994)"/><path d="m1050.84 659.877c0 3.665-.42 6.634-.927 6.634s-.913-2.969-.913-6.634.507-1.941 1.014-1.941.826-1.724.826 1.941z" fill="#ffd037" transform="translate(395.963 255.371)"/><path d="m1055.712 662.945c-3.215 1.753-6.026 2.81-6.257 2.361s2.158-2.216 5.373-3.969 1.956-.478 2.2 0 1.914-.087-1.316 1.608z" fill="#ffd037" transform="translate(396.16 256.677)"/><path d="m1016.533 650s-7.967 10.415 3.665 26.073 21.22 28.97 17.382 38.776c0 0-17.541-29.172-31.866-29.593s-4.84-17.715 10.819-35.256z" fill="#001f40" transform="translate(373.387 251.994)"/><path d="m1016.542 650a13.041 13.041 0 0 0 -1.637 3.274c-13.935 16.368-21.351 31.65-7.952 32.026 12.471.362 27.435 22.669 31.027 28.3a10.3 10.3 0 0 1 -.435 1.289s-17.545-29.169-31.866-29.589-4.795-17.759 10.863-35.3z" opacity=".1" transform="translate(373.378 251.994)"/><path d="m1000.82 659.877c0 3.665.42 6.634.927 6.634s.913-2.969.913-6.634-.507-1.941-1.014-1.941-.826-1.724-.826 1.941z" fill="#ffd037" transform="translate(374.354 255.371)"/><path d="m997.927 662.945c3.216 1.753 6.011 2.81 6.258 2.361s-2.158-2.216-5.374-3.969-1.955-.478-2.2 0-1.9-.087 1.316 1.608z" fill="#ffd037" transform="translate(372.178 256.677)"/><path d="m1002.57 697.579s22.249-.681 28.97-5.461 34.228-10.473 35.894-2.9 33.431 38.1 8.314 38.3-58.36-3.925-65.052-8-8.126-21.939-8.126-21.939z" fill="#a8a8a8" transform="translate(375.139 267.931)"/><path d="m1076.183 721.192c-25.117.2-58.36-3.911-65.052-7.981-5.1-3.1-7.126-14.239-7.807-19.381h-.754s1.449 17.947 8.112 22.017 39.935 8.184 65.052 8c7.243-.073 9.748-2.651 9.618-6.46-1.043 2.328-3.781 3.762-9.169 3.805z" opacity=".2" transform="translate(375.139 271.651)"/><path d="m52.29 756.118c29.955 10.835 66.5 4.244 100.482 5.012 4.65.1 9.589.42 13.312 2.289s5.577 4.91 8.126 7.5c9.531 9.661 28.97 12.776 46.106 11.139s32.693-7.069 48.829-11.211c27.826-7.141 59.635-10.4 87.084-2.607a21.028 21.028 0 0 0 7.865 1.245c6.011-.637 7.807-5.794 12.022-8.778 7.59-5.345 24.089-3.9 27.435-10.95 1.955-4.128-2.549-8.358-7.445-11.183-18.758-10.791-45.6-12.573-70.136-10.907s-48.684 6.258-73.366 6.272c-30.737 0-60.446-7.04-90.893-9.922-21.09-2-44.092-1.753-63.864 4.143-21.468 6.375-26.191 20.686-45.557 27.958z" fill="#001f40" opacity=".1" transform="translate(-51.059 284.685)"/><path d="m302.767 734.53a16.845 16.845 0 0 0 5.562-8.372c.71-3.331-.71-7.315-3.882-8.532-3.563-1.361-7.373 1.1-10.255 3.592s-6.2 5.345-9.98 4.824a15.2 15.2 0 0 0 4.693-14.225 5.967 5.967 0 0 0 -1.3-2.9c-1.97-2.115-5.562-1.2-7.938.464-7.532 5.3-9.632 15.528-9.661 24.74-.768-3.332-.13-6.779-.145-10.139s-.956-7.242-3.824-9.01a11.59 11.59 0 0 0 -5.794-1.449c-3.389-.116-7.156.218-9.473 2.694-2.9 3.071-2.129 8.242.377 11.588s6.3 5.5 9.792 7.851a21.728 21.728 0 0 1 7.011 6.678 6.4 6.4 0 0 1 .521 1.188h21.129a58.567 58.567 0 0 0 13.167-8.992z" fill="#001f40" transform="translate(37.122 277.868)"/><path d="m172.131 810.3s-20.279-69.108 3.81-119.979a109.217 109.217 0 0 0 8.836-68.471 184.719 184.719 0 0 0 -9.7-32.142" fill="none" stroke="#535461" stroke-miterlimit="10" stroke-width="2" transform="translate(-.891 224.954)"/><g fill="#001f40"><path d="m191.579 572.269c0 8.474-15.34 33.026-15.34 33.026s-15.34-24.625-15.34-33.026a15.34 15.34 0 0 1 30.679 0z" transform="translate(-2.348 210.252)"/><path d="m209.124 607.241c-4.606 7.1-30.824 19.381-30.824 19.381s.463-28.97 5.07-36.053a15.34 15.34 0 1 1 25.754 16.672z" transform="translate(5.456 222.197)"/><path d="m210.081 664.236c-7.561 3.81-36.4 1.188-36.4 1.188s15.035-24.755 22.6-28.564a15.33 15.33 0 1 1 13.8 27.376z" transform="translate(3.384 245.362)"/><path d="m199.847 705.737c-6.808 5.027-35.677 7.243-35.677 7.243s10.63-26.943 17.382-31.98a15.34 15.34 0 1 1 18.237 24.624z" transform="translate(-.881 264.336)"/><path d="m157.608 622.671c6.069 5.9 34.373 12.008 34.373 12.008s-6.938-28.115-13.036-34.011a15.34 15.34 0 1 0 -21.365 22z" transform="translate(-6.052 227.8)"/><path d="m147.614 672.391c7.561 3.81 36.4 1.174 36.4 1.174s-15.021-24.755-22.6-28.564a15.338 15.338 0 1 0 -13.806 27.394z" transform="translate(-12.093 249.013)"/><path d="m142.836 721.2c6.808 5.041 35.677 7.242 35.677 7.242s-10.632-26.942-17.382-31.968a15.34 15.34 0 1 0 -18.237 24.626z" transform="translate(-13.486 271.279)"/><path d="m191.579 572.269c0 8.474-15.34 33.026-15.34 33.026s-15.34-24.625-15.34-33.026a15.34 15.34 0 0 1 30.679 0z" transform="translate(-2.348 210.252)"/><path d="m209.124 607.241c-4.606 7.1-30.824 19.381-30.824 19.381s.463-28.97 5.07-36.053a15.34 15.34 0 1 1 25.754 16.672z" transform="translate(5.456 222.197)"/><path d="m210.081 664.236c-7.561 3.81-36.4 1.188-36.4 1.188s15.035-24.755 22.6-28.564a15.33 15.33 0 1 1 13.8 27.376z" transform="translate(3.384 245.362)"/><path d="m199.847 705.737c-6.808 5.027-35.677 7.243-35.677 7.243s10.63-26.943 17.382-31.98a15.34 15.34 0 1 1 18.237 24.624z" transform="translate(-.881 264.336)"/><path d="m157.608 622.671c6.069 5.9 34.373 12.008 34.373 12.008s-6.938-28.115-13.036-34.011a15.34 15.34 0 1 0 -21.365 22z" transform="translate(-6.052 227.8)"/><path d="m147.614 672.391c7.561 3.81 36.4 1.174 36.4 1.174s-15.021-24.755-22.6-28.564a15.338 15.338 0 1 0 -13.806 27.394z" transform="translate(-12.093 249.013)"/><path d="m142.836 721.2c6.808 5.041 35.677 7.242 35.677 7.242s-10.632-26.942-17.382-31.968a15.34 15.34 0 1 0 -18.237 24.626z" transform="translate(-13.486 271.279)"/></g><path d="m136.45 746.485s24.784-4.925 31.389-11.485 36.357-18.048 39.66-9.835 44.614 36.082 16.527 41.007-66.095 6.562-74.366 3.288-13.21-22.975-13.21-22.975z" fill="#a8a8a8" transform="translate(-13.314 284.425)"/><path d="m224.026 755.687c-28.1 4.925-66.095 6.562-74.366 3.273-6.286-2.491-10.661-14.485-12.385-20.09l-.826.174s4.954 19.685 13.21 22.973 46.265 1.637 74.366-3.288c8.1-1.449 10.415-4.751 9.546-8.981-.724 2.752-3.519 4.882-9.545 5.939z" opacity=".2" transform="translate(-13.314 291.852)"/><path d="m395.27 858.725c56.955 19.134 126.439 7.489 191.057 8.85 8.85.188 18.222.738 25.32 4.041s10.574 8.691 15.441 13.268c18.121 17.063 55.217 22.567 87.649 19.656s62.169-12.486 92.7-19.786c52.9-12.631 113.374-18.367 165.549-4.606 4.795 1.26 9.835 2.709 14.963 2.2 11.443-1.116 14.847-10.284 22.857-15.514 14.485-9.444 45.8-6.88 52.146-19.323 3.723-7.243-4.838-14.789-14.152-19.758-35.647-19.077-86.664-22.22-133.349-19.265s-92.551 11.04-139.472 11.069c-58.447 0-114.924-12.428-172.806-17.527-40.094-3.549-83.853-3.1-121.442 7.243-40.659 11.342-49.64 36.604-86.461 49.452z" fill="#001f40" opacity=".1" transform="translate(102.766 319.28)"/><path d="m807.619 751.811c.319-2.767.782-5.519 1.275-8.271 2.173-11.921-1.144-23.277-2.9-27.956-.507-1.448-.884-2.274-.884-2.274-8.792-2.39-43.455 24.465-56.028 34.59-4.346 0-9.126.188-14.3.536-2.259.159-4.534.217-6.793.173h-8.271c-11.719-9.43-47.945-37.805-56.984-35.343 0 0-.362.811-.884 2.274-1.695 4.679-5 16.035-2.9 27.956.507 2.753.956 5.5 1.275 8.271.681 6.069 3.215 17.672 12.428 25.537 1.955 14.34 9.343 33.185 15.021 44.628a32.421 32.421 0 0 0 1.926 6.315c-2.346 9.039-5.041 20.844-4.345 24.74 0 0-12.24-2.969-13.485 11.776v.449c-4.432 2.042-9.951 6.677-3.737 16.426a6.343 6.343 0 0 0 3.2 2.592c1.1.391 2.172.391 2.057-1.159l7.663 8.691s13.876 1.593 14.036-6.46l.811.13c1.869.275 3.824.507 5.794.71l.956 3.187s-10.415-.217-7.576 6.185c0 0 2.622 2.434 3.52 1.55 0 0-1.347 4.2 4.056 4.2 0 0 5.794 3.1 8.1.9s7-5.533 7.445-6.866c.131-.362.188-3.635.2-8.155h.9c11.588.275 23.958-.1 35.2-.71h.9c0 4.911.073 8.5.2 8.894.449 1.333 5.186 4.65 7.445 6.866s8.1-.9 8.1-.9c5.4 0 4.056-4.2 4.056-4.2.9.884 3.52-1.55 3.52-1.55 2.9-6.4-7.575-6.185-7.575-6.185l1.231-4.085 5.794-.478.9-.087c-.55 8.764 14.036 7.083 14.036 7.083l7.663-8.691c-.116 1.55.956 1.55 2.057 1.159a6.341 6.341 0 0 0 3.2-2.593c9.386-14.688-7.967-17.8-7.967-17.8a8.053 8.053 0 0 0 -1.637-.261v-.768a32.767 32.767 0 0 0 .116-5.794c-.652-2.651-4.939-6.851-10.342-7.518-3.519-.434-3.606-16.643-3.23-27.884a32.845 32.845 0 0 0 .55-6.416 34.215 34.215 0 0 0 -1.446-10.225c6.91-11.7 12.443-23.958 13.037-27.652 9.415-7.909 11.935-19.497 12.616-25.537z" fill="url(#a)" transform="translate(220.727 280.301)"/><path d="m789.377 832.671c-.55 7.634-2.028 19.888-2.028 19.888s-6.141.753-15.629 1.608l-6.431.551c-4.954.391-10.487.782-16.339 1.115-10.835.594-22.727.956-33.924.7-5.606-.13-11.038-.42-16.078-.913-2.245-.217-4.345-.478-6.5-.8-12.848-1.912-21.988-5.577-22.828-12.023a37.108 37.108 0 0 1 -.3-8.2c1.2-14.485 13.037-11.588 13.037-11.588-.768-4 2.1-16.426 4.345-25.421 1.448-5.664 2.709-9.966 2.709-9.966l82.9-5.562h.275a4.07 4.07 0 0 1 4.056 4.273c-.493 9.936-1.2 32.707 2.9 33.214 5.215.652 9.343 4.78 9.966 7.388a31.458 31.458 0 0 1 -.131 5.736z" fill="#d3899b" transform="translate(225.628 311.222)"/><path d="m722.992 753.348s-31.259 37.661-46.352 27.217c-.362-.246-.71-.507-1.043-.768-10.14-7.677-12.79-20.018-13.486-26.291-.3-2.723-.739-5.417-1.217-8.126-2.1-11.7 1.1-22.843 2.723-27.449.493-1.449.84-2.216.84-2.216 10.488-2.896 58.535 37.633 58.535 37.633z" fill="#d3899b" transform="translate(221.588 281.4)"/><path d="m706.23 756.092s-9.85 6.953-23.741 18.236a49.608 49.608 0 0 1 -6.822 4.737c-10.139-7.677-12.79-20.018-13.485-26.29-.3-2.723-.739-5.417-1.217-8.126-2.1-11.7 1.1-22.843 2.723-27.449 19.366 1.361 42.542 38.892 42.542 38.892z" fill="#eec5cd" transform="translate(221.619 282.133)"/><path d="m692.171 747.9s-5.258 3.708-12.674 9.734a28.262 28.262 0 0 1 -3.65 2.593c-5.4-4.1-6.822-10.69-7.242-14.036-.159-1.448-.391-2.9-.652-4.346a30.145 30.145 0 0 1 1.447-14.645c10.429.666 22.771 20.7 22.771 20.7z" opacity=".1" transform="translate(224.916 286.618)"/><path d="m717.54 753.348s31.273 37.661 46.352 27.217l1.043-.768c10.139-7.677 12.776-20.018 13.471-26.291.3-2.723.753-5.417 1.231-8.126 2.086-11.7-1.1-22.843-2.737-27.449a23.408 23.408 0 0 0 -.855-2.216c-10.445-2.896-58.505 37.633-58.505 37.633z" fill="#d3899b" transform="translate(247.304 281.4)"/><path d="m729.13 756.092s9.85 6.953 23.741 18.236a50.526 50.526 0 0 0 6.837 4.737c10.14-7.677 12.776-20.018 13.471-26.29.3-2.723.753-5.417 1.231-8.126 2.086-11.7-1.1-22.843-2.738-27.449-19.424 1.361-42.542 38.892-42.542 38.892z" fill="#eec5cd" transform="translate(252.502 282.133)"/><path d="m736.58 747.87s5.229 3.693 12.6 9.676a26.882 26.882 0 0 0 3.621 2.52c5.359-4.07 6.779-10.632 7.156-13.949.159-1.448.391-2.9.637-4.346a30.128 30.128 0 0 0 -1.448-14.572c-10.297.754-22.566 20.671-22.566 20.671z" opacity=".1" transform="translate(255.843 286.618)"/><path d="m766.924 782.08c-3.94 6.243-8.141 11.878-11.979 15.253-12.443 10.994-65.993 6.663-69.528 6.084-.724-.116-2.245-2.289-4.157-5.794 1.448-5.663 2.709-9.965 2.709-9.965z" opacity=".1" transform="translate(231.032 311.231)"/><path d="m729.778 739.638c-2.173.159-4.346.2-6.533.174-11.2-.188-48.858.3-53.044 15.5-4.925 17.874 17.078 65.936 20.554 66.515s57.028 4.925 69.528-6.084 28.665-45.439 27.8-48.626c-.061 0 15.409-32.592-58.305-27.479z" fill="#d3899b" transform="translate(225.752 291.952)"/><path d="m723.906 759.614s-27.521-4.244-40.558 22.9a33.07 33.07 0 0 0 2.433 33.316c4.346 6.054 10.618 10.559 19.41 6.923 19.57-8.037 18.715-63.139 18.715-63.139z" opacity=".1" transform="translate(230.45 301.048)"/><path d="m723.307 758.414s-27.521-4.244-40.558 22.9a33.07 33.07 0 0 0 2.433 33.315c4.346 6.055 10.618 10.56 19.41 6.938 19.569-8.052 18.715-63.153 18.715-63.153z" opacity=".1" transform="translate(230.181 300.51)"/><path d="m723.307 759.015s-27.521-4.244-40.558 22.9a33.07 33.07 0 0 0 2.433 33.315c4.346 6.055 10.618 10.56 19.41 6.924 19.569-8.009 18.715-63.139 18.715-63.139z" fill="#eec5cd" transform="translate(230.181 300.779)"/><path d="m689.98 775.32s-3.766 3.477-2.317 4.346 2.317-4.346 2.317-4.346z" fill="#3f2b3b" transform="translate(233.755 308.2)"/><path d="m692.345 778.39s-2.042 4.534-.594 5.041 2.332-3.259 2.332-3.259z" fill="#3f2b3b" transform="translate(235.505 309.576)"/><path d="m685.955 783.12s-2 5.359 0 5.359 0-5.359 0-5.359z" fill="#3f2b3b" transform="translate(232.74 311.698)"/><path d="m684 793s4.012 10.284 14.485 9.56" fill="none" stroke="#3f2b3b" stroke-miterlimit="10" transform="translate(232.261 316.129)"/><path d="m690.46 795.11s4.2 4.056 8.691 1.159" fill="none" stroke="#3f2b3b" stroke-miterlimit="10" transform="translate(235.159 317.075)"/><path d="m712.7 759.614s27.522-4.244 40.558 22.9a33.011 33.011 0 0 1 -2.433 33.316c-4.346 6.054-10.617 10.559-19.4 6.923-19.592-8.037-18.725-63.139-18.725-63.139z" opacity=".1" transform="translate(245.131 301.048)"/><path d="m713.3 758.414s27.522-4.244 40.558 22.9a33.011 33.011 0 0 1 -2.433 33.315c-4.346 6.055-10.618 10.56-19.4 6.938-19.592-8.052-18.725-63.153-18.725-63.153z" opacity=".1" transform="translate(245.4 300.51)"/><path d="m713.3 759.015s27.522-4.244 40.558 22.9a33.012 33.012 0 0 1 -2.433 33.315c-4.346 6.055-10.617 10.56-19.4 6.924-19.592-8.009-18.725-63.139-18.725-63.139z" fill="#eec5cd" transform="translate(245.4 300.779)"/><path d="m733.83 775.32s3.766 3.477 2.317 4.346-2.317-4.346-2.317-4.346z" fill="#3f2b3b" transform="translate(254.61 308.2)"/><path d="m731.538 778.39s2.057 4.534.594 5.041-2.332-3.259-2.332-3.259z" fill="#3f2b3b" transform="translate(252.803 309.576)"/><path d="m737.585 783.12s2 5.359 0 5.359 0-5.359 0-5.359z" fill="#3f2b3b" transform="translate(255.896 311.698)"/><path d="m743.485 793s-4.027 10.284-14.485 9.56" fill="none" stroke="#3f2b3b" stroke-miterlimit="10" transform="translate(252.444 316.129)"/><path d="m735.221 795.11s-4.2 4.056-8.691 1.159" fill="none" stroke="#3f2b3b" stroke-miterlimit="10" transform="translate(251.336 317.075)"/><path d="m702.45 814.047c.724-.145 14.485-6.084 28.666 0z" fill="#3f2b3b" transform="translate(240.536 324.341)"/><path d="m692.444 839.2c-12.848-1.912-21.988-5.577-22.828-12.023a37.109 37.109 0 0 1 -.3-8.2 18.938 18.938 0 0 1 4.911-1.8c2.332-.652 5.214-.218 11.3 1.448s5.649 8.908 6.953 18.237a7.234 7.234 0 0 1 -.029 2.332z" opacity=".1" transform="translate(225.628 326.844)"/><path d="m675.289 817.779s-16.73 3.071-7.677 17.483a6.127 6.127 0 0 0 3.085 2.549c1.058.376 2.086.376 1.984-1.144l7.373 8.474s14.775 1.738 13.471-7.6-.869-16.5-6.953-18.237-8.965-2.177-11.283-1.525z" fill="#d3899b" transform="translate(223.706 327.114)"/><path d="m674.82 824.39s3.549 8.112 8.474 1.3" fill="none" stroke="#3f2b3b" stroke-miterlimit="10" transform="translate(228.144 330.207)"/><path d="m669.21 826.59s1.84 7.648 8.778 1.941" fill="none" stroke="#3f2b3b" stroke-miterlimit="10" transform="translate(225.628 331.194)"/><path d="m757.649 817.046c-.551 7.633-2.028 19.888-2.028 19.888s-6.141.753-15.629 1.608a8.774 8.774 0 0 1 0-1.608c1.3-9.329.869-16.5 6.953-18.237 5.591-1.579 8.488-2.086 10.704-1.651z" opacity=".1" transform="translate(257.357 326.847)"/><path d="m758.892 817.779s16.716 3.071 7.677 17.483a6.227 6.227 0 0 1 -3.1 2.549c-1.058.377-2.086.377-1.97-1.144l-7.387 8.474s-14.76 1.738-13.456-7.6.869-16.5 6.938-18.237 8.966-2.177 11.298-1.525z" fill="#d3899b" transform="translate(257.634 327.114)"/><path d="m753.094 824.39s-3.549 8.112-8.474 1.3" fill="none" stroke="#3f2b3b" stroke-miterlimit="10" transform="translate(259.449 330.207)"/><path d="m758.812 826.59s-1.839 7.648-8.792 1.941" fill="none" stroke="#3f2b3b" stroke-miterlimit="10" transform="translate(261.871 331.194)"/><path d="m707.5 843.242c-5.605-.131-11.038-.42-16.078-.913l-5-16.86a10.719 10.719 0 1 1 20.989-3.187c.05 6.618.108 14.934.089 20.96z" opacity=".1" transform="translate(233.149 324.508)"/><path d="m686.259 825.506 5.9 19.888s-10.038-.218-7.242 6.083c0 0 2.52 2.39 3.389 1.449 0 0-1.289 4.128 3.911 4.128 0 0 5.634 3.027 7.807.869s6.75-5.432 7.243-6.735c.275-.855.188-17.483.1-28.97a10.719 10.719 0 0 0 -10.722-10.618 10.7 10.7 0 0 0 -10.386 13.906z" fill="#d3899b" transform="translate(232.45 324.471)"/><path d="m692.035 838.48s-4.345 4.2-2.071 6.591" fill="none" stroke="#3f2b3b" stroke-miterlimit="10" transform="translate(234.641 336.527)"/><path d="m691.116 836.67s-4.056 1.318-4.056 5.084" fill="none" stroke="#3f2b3b" stroke-miterlimit="10" transform="translate(233.634 335.715)"/><path d="m745.784 822.449a10.768 10.768 0 0 1 -.449 3.057l-4.735 15.933c-4.954.391-10.487.782-16.339 1.116 0-5.953 0-13.891.087-20.279a10.719 10.719 0 1 1 21.438.086z" opacity=".1" transform="translate(250.318 324.471)"/><path d="m745.964 825.506-5.9 19.888s10.038-.217 7.242 6.084c0 0-2.521 2.39-3.39 1.448 0 0 1.3 4.128-3.911 4.128 0 0-5.62 3.028-7.807.869s-6.736-5.432-7.243-6.736c-.289-.855-.2-17.483-.1-28.97a10.7 10.7 0 0 1 10.7-10.617 10.7 10.7 0 0 1 10.4 13.906z" fill="#d3899b" transform="translate(250.544 324.471)"/><path d="m733.9 838.48s4.346 4.2 2.071 6.591" fill="none" stroke="#3f2b3b" stroke-miterlimit="10" transform="translate(254.641 336.527)"/><path d="m735.23 836.67s4.056 1.318 4.056 5.084" fill="none" stroke="#3f2b3b" stroke-miterlimit="10" transform="translate(255.238 335.715)"/><path d="m716.224 755.941s-20.409-.652-21.061 15.195 31.867 9.126 31.867 9.126 13.688-1.84 11.3-11.458-7.33-11.994-22.106-12.863z" opacity=".1" transform="translate(237.264 299.507)"/><path d="m716.224 754.741s-20.409-.652-21.061 15.195 31.867 9.126 31.867 9.126 13.688-1.84 11.3-11.458-7.33-11.994-22.106-12.863z" opacity=".1" transform="translate(237.264 298.968)"/><path d="m716.224 755.341s-20.409-.652-21.061 15.195 31.867 9.125 31.867 9.125 13.688-1.839 11.3-11.458-7.33-11.993-22.106-12.862z" fill="#3f2b3b" transform="translate(237.264 299.237)"/><path d="m678.25 810.35s6.837 2.463 8.227 7.156" opacity=".1" transform="translate(229.682 323.91)"/><path d="m746.788 808s-4.9 2.057-4.563 10.632" opacity=".1" transform="translate(258.368 322.856)"/><ellipse cx="3.187" cy="5.273" fill="#eec5cd" rx="3.187" ry="5.273" transform="matrix(.8660254 -.5 .5 .8660254 902.543218 1162.421147)"/><ellipse cx="5.291" cy="3.198" fill="#eec5cd" rx="5.291" ry="3.198" transform="matrix(.49829103 -.86700983 .86700983 .49829103 1007.250206 1164.082263)"/><path d="m821.835 535.287c-4.707-1.536-32.417-23.017-34.5-32.736s14.63-100.236 14.63-100.236-1.535-.072-4-.3v-1.448l3.435-118.941s14.108-79.769-12.544-75.177-9.937 75.177-9.937 75.177-3.042 35.807-5.171 46.555c-2.071 10.342-11.371 52.523-5.012 65.632a9.967 9.967 0 0 0 .782 1.347s1.043 44.99-10.458 51.132c-10.98 5.794-15.542 35.285-15.934 37.936l-.579-.261a31.968 31.968 0 0 1 -8.517-7.59c-.217-.3-.42-.637-.637-.956a43.252 43.252 0 0 0 -1.2-59.591l-1.086-1.058a7.617 7.617 0 0 0 1.927-3.2c2.028-6.113-4.983-11.023-8.619-14.847-8.416-8.952-16.006-19.917-27.739-24.987a46.855 46.855 0 0 1 9.27 6.895 39.56 39.56 0 0 0 -11.979-7.1c-12.283-4.346-26.421-.753-37.139 6.576s-18.648 17.891-25.89 28.537l-3.506 5.215a85.351 85.351 0 0 0 -9.995-9.546c-6.794-5.113-20.38-21.988-20.38-21.988s-42.34-42.962-45.483-54.724-45.468-82.347-54.884-70.064 32.4 65.965 32.4 65.965 7.851 19.439 14.123 26.073 52.787 73.134 52.787 73.134l3.94 7.967.739 1.448-.492-.275v9.719l4.346.391a41.19 41.19 0 0 0 -5.273 5.635 36.359 36.359 0 0 0 -5.186 11.255c-6.852 22.64-4.056 47.424 4.78 69.4 1.825 4.519 3.911 9.024 4.461 13.848.8 6.75-1.448 13.427-2.81 20.105-1.883 9.372-1.811 19.584 2.9 27.942 6.3 11.1 20.424 16.875 33.229 14.8a37.661 37.661 0 0 0 16.136-6.866 43.007 43.007 0 0 0 14.065-16.339c2.39-4.881 3.882-10.14 6.258-15.035.449-.942.956-1.84 1.448-2.752 5.417 6.069 10.284 11.588 10.284 11.588s11.5 55.231 1.564 70.571a94.6 94.6 0 0 1 -18.99 20.453 37.056 37.056 0 0 0 -5.055 5.055c-.985.71-1.564 1.086-1.564 1.086s-.261.739-.637 1.868a34.153 34.153 0 0 0 -4.983 11.284 7.447 7.447 0 0 0 -.377 3.216c.71 1.449-5.113 7.242-3.4 9.719-14.485 16.658-17.266 41.919-17.266 41.919l-26.417 39.387c-13.587 35.025-33.967 38.617-33.967 38.617s-47.8-31.461-49.148-33-19.6-9.2-19.6-9.2a20.525 20.525 0 0 0 -9.4-8.445c-6.272-2.549-6.793-12.008-6.793-12.008-.782-22.249-14.123-24.045-14.123-24.045-10.748-.884-18.975.985-25.276 4.418l-1.912.145c-9.256.739-20.409 1.55-32.664 2.347-34 2.2-42.079 23.784-42.079 23.784s-4.186 4.592 1.3 9.575 40.558.087 42.006-.116a22.725 22.725 0 0 1 -7.981-.536c5.533-.2 13.123-.391 19.584-.406h1.579a80.181 80.181 0 0 0 -.579 10.139c0 6.4 18.034 10.487 18.034 10.487l54.884 47.8s34.5 15.093 56.491 36.821 41.3 3.071 41.3 3.071c23.176-5.62 90.111-84.81 90.169-84.882 0 2.434 1.449 79.334 4.114 94.79a10.139 10.139 0 0 0 .58 2.289c3.143 6.663-1.043 24.813-2.9 32.49s-1.318 19.424-1.318 19.424-25.059 94.036-22.9 102.221-13.6 46.54-13.6 46.54v31.954s1 0 2.738-.13a15.087 15.087 0 0 0 -.985 1.579 2.859 2.859 0 0 0 -.174.348s16.716 3.578 27.956 2.549 30.578 8.5 30.578 8.5 6.547 3.013 26.667 4.345 20.12-8.691 20.12-8.691c-2.318-13.6-34.083-18.135-35.083-18.266-2.564-1.579-4.968-3.3-6.938-4.78l-.42-.333a4.993 4.993 0 0 0 .362-.913c3.4-13.558-15.412-19.439-15.412-19.439v-3.317c12.269-6.141 14.63-48.336 14.63-48.336s18.295-52.146 20.9-60.837 0-21.727 0-21.727l1.84-11.24s3.911-7.677 3.911-9.212a22.542 22.542 0 0 1 4.447-10.733c2.9-3.331-3.129-11.255-3.129-11.255l5.229-13.3v-14.65l12.269-52.928s12.819-61.633 8.372-81.84 5.229-30.418 5.229-30.418a27.06 27.06 0 0 1 -2.694 1.2 72.614 72.614 0 0 0 3.172-8.5l27.522 3.346v.391h9.922s-3.129-37.849-3.129-53.189 10.458-70.064 10.458-70.064 4.669-53.711-.024-55.247zm-122.05-44.9v.623c0 1.448-.145 3.056-.246 4.635l-.551.84-1-.855-1.26 1.9a7.4 7.4 0 0 1 2.144-6.663 7.839 7.839 0 0 1 .912-.464zm91.429 177.195h.608l-.985 2.491c.13-.811.246-1.637.377-2.477zm-100.4 452.511-3.752-.913 2.086-.348 1.883 1.231.232.145zm38.3-5.36c-1.246-.652-2.506-1.448-3.723-2.144.394.211 2.002 1.04 3.726 2.141z" fill="url(#b)" transform="translate(91.978 52.976)"/><path d="m628.628 471-23.973 62.459-3.361-2.752-13.354 20.728 40.688 5.07z" fill="#f1d2d7" transform="translate(263.704 211.271)"/><path d="m628.613 471-23.987 62.459-6.026-1.622-10.69 19.6 40.7 5.07z" opacity=".1" transform="translate(263.69 211.271)"/><path d="m590.09 533.734h37.574l13.79-113.5h-51.364z" fill="#f1d2d7" transform="translate(264.668 188.501)"/><path d="m590.09 533.734h37.574l13.79-113.5h-51.364z" opacity=".1" transform="translate(264.668 188.501)"/><path d="m592.036 504.5 8.1-1.448 18.642-3.042s55.985-12.6 67.587-13.616c7.242-.638 15.252-3.621 20.279-5.794 3.027-1.289 4.954-2.288 4.954-2.288l-20.163-36.835-31.291-23.177s-19.786-4.215-28.173-15.731a18.6 18.6 0 0 1 -2.593-17.569c5.113-15.847-30.505 15.137-30.505 15.137s.348 7.416 0 16.875c0 1.869-.174 3.81-.3 5.794-.087 1.3-.2 2.607-.319 3.94-.884 9.386-2.665 19.062-6.171 24.842-8.549 14.061-.047 52.912-.047 52.912z" fill="#ffbec7" transform="translate(189.326 131.117)"/><path d="m595.57 417.5h.782c1.448 0 2.564-3.013 3.954-3.158 11.139-1.072 21.307-3.4 28.376-11.284a18.642 18.642 0 0 1 -2.593-17.57c5.113-15.847-30.418 15.122-30.418 15.122s.276 7.416-.101 16.89z" opacity=".1" transform="translate(192.601 131.336)"/><path d="m565.64 388.636a43.455 43.455 0 0 0 43.455 43.383 40.913 40.913 0 0 0 4.229-.217 43.383 43.383 0 1 0 -47.612-43.165z" fill="#ffbec7" transform="translate(179.177 115.311)"/><path d="m565.64 388.61a43.455 43.455 0 0 0 43.455 43.383 40.879 40.879 0 0 0 4.229-.217 5.273 5.273 0 0 0 2-1.449 6.388 6.388 0 0 0 .782-5.287c-1.709-8.474-9.4-14.557-12.167-22.756-2.433-7.243-.609-15.455 3.129-22.148s9.256-12.211 14.7-17.628a8.95 8.95 0 0 1 3.36-2.434c4.635-1.448 11.588 2.607 15.267-1.535a43.455 43.455 0 0 0 -74.685 30.042z" opacity=".1" transform="translate(179.177 115.336)"/><path d="m642.82 369.337a8.793 8.793 0 0 0 -3.361 2.434c-5.432 5.417-10.951 10.922-14.688 17.628s-5.562 14.862-3.129 22.133c2.752 8.213 10.458 14.3 12.153 22.77a6.358 6.358 0 0 1 -.782 5.273c-1.448 1.81-4.2 1.912-6.084 3.274-2.4 1.753-2.9 5.229-2.173 8.111a34.553 34.553 0 0 0 3.983 7.938c4.056 7.17 5.794 16.5 1.449 23.466a37.278 37.278 0 0 1 -7.242 7.547 111.217 111.217 0 0 0 -12.631 13.225 65.166 65.166 0 0 0 -8.43 12.892c-2.289 4.823-3.737 10.024-6.04 14.847-5.4 11.284-16.035 20.279-28.39 22.321s-25.986-3.665-32.056-14.6c-4.577-8.256-4.635-18.323-2.824-27.522 1.289-6.576 3.477-13.167 2.723-19.83-.551-4.751-2.564-9.2-4.346-13.659-8.517-21.727-11.226-46.12-4.62-68.456a36.483 36.483 0 0 1 5.012-11.11 67.462 67.462 0 0 1 7.909-8.242c9.024-8.821 15.673-19.728 22.669-30.23s14.615-20.931 24.972-28.159 23.987-10.806 35.836-6.475c12.4 4.534 20.062 16.093 28.666 25.392 3.491 3.8 10.27 8.619 8.314 14.659-2.854 8.515-11.458 2.664-16.89 4.373z" fill="#493545" transform="translate(159.894 105.35)"/><path d="m557.642 550.511c12.341-2.042 22.973-11.038 28.376-22.336 2.318-4.809 3.752-10.009 6.055-14.833a65.187 65.187 0 0 1 8.416-12.892 112.651 112.651 0 0 1 12.645-13.239 36.867 36.867 0 0 0 7.242-7.547c4.345-6.967 2.68-16.3-1.361-23.451a35.284 35.284 0 0 1 -4-7.952c-.753-2.9-.232-6.359 2.173-8.1 1.9-1.362 4.621-1.449 6.1-3.274a6.357 6.357 0 0 0 .782-5.272c-1.709-8.488-9.415-14.557-12.167-22.77-2.433-7.243-.623-15.441 3.129-22.148s9.242-12.182 14.63-17.628a8.918 8.918 0 0 1 3.375-2.419c5.417-1.709 14.036 4.143 16.817-4.418 1.956-6.04-4.824-10.878-8.314-14.659-7.4-8.01-14.123-17.686-23.77-23.176 11.313 4.954 18.642 15.8 26.8 24.625 3.491 3.78 10.27 8.6 8.314 14.644-2.781 8.561-11.4 2.709-16.817 4.418a8.949 8.949 0 0 0 -3.375 2.433c-5.432 5.417-10.936 10.922-14.688 17.628s-5.562 14.861-3.129 22.147c2.752 8.2 10.458 14.282 12.167 22.756a6.359 6.359 0 0 1 -.782 5.272c-1.449 1.811-4.215 1.912-6.1 3.288-2.4 1.738-2.9 5.215-2.173 8.1a34.036 34.036 0 0 0 4 7.938c4.041 7.17 5.794 16.5 1.362 23.466a37.228 37.228 0 0 1 -7.243 7.547 113.654 113.654 0 0 0 -12.646 13.225 65.537 65.537 0 0 0 -8.416 12.892c-2.3 4.838-3.737 10.024-6.055 14.847-5.4 11.284-16.035 20.279-28.376 22.321a32.72 32.72 0 0 1 -21.191-3.853 32.678 32.678 0 0 0 18.22 2.42z" opacity=".1" transform="translate(167.418 105.963)"/><path d="m583.73 833.117 7.576 5 1.144.768.232.159 8.966 5.924 20.916 3.534 18.425-1.26s5.3-11.1-3.027-10.849a17.379 17.379 0 0 1 -7.619-2.173l-1.13-.594c-1.2-.637-2.419-1.347-3.592-2.1-2.462-1.564-4.794-3.259-6.692-4.722-2.752-2.129-4.591-3.752-4.591-3.752z" fill="#ffbec7" transform="translate(187.291 329.606)"/><path d="m589 834.677 1.144.768.232.159 8.966 5.924 20.916 3.534 18.425-1.26s5.3-11.1-3.028-10.849a17.379 17.379 0 0 1 -7.619-2.173 6.662 6.662 0 0 1 2.9 3.433c.333 2.9-13.616 7.967-13.616 7.967l-19.685-5.2s-3.346-.941-7.937-2.129l-.435-.116z" opacity=".1" transform="translate(189.654 333.073)"/><path d="m565.8 840.357s16.136 3.52 26.986 2.52 29.506 8.372 29.506 8.372 6.316 2.9 25.726 4.244 19.468-8.589 19.468-8.589c-2.231-13.4-32.9-17.889-33.866-18 .391.2 1.941 1.029 3.592 2.1 2.173 1.449 4.534 3.288 4.708 4.78.333 2.9-13.616 7.967-13.616 7.967l-19.67-5.186s-3.346-.956-7.952-2.144l-.435-.116a170.277 170.277 0 0 0 -20.627-4.345c-8.474-.9-12.819 6.315-13.7 7.981a4.016 4.016 0 0 1 -.12.416z" fill="#bd577a" transform="translate(179.249 332.23)"/><path d="m390.28 598.135 8.575 6.562s2.491-.116 6.2-.246h1.188c5.331-.188 12.66-.377 18.9-.391 5.794 0 10.6.174 12.051.681 4.346 1.448 11.849-24.465 11.849-24.465l-8.6-2.028-2.9-.666-2-.464-6.982-1.637-21.192 2.39-14.869 9.588z" fill="#ffbec7" transform="translate(100.529 218.572)"/><path d="m390.28 598.148 8.575 6.562s2.491-.116 6.2-.246a7.5 7.5 0 0 1 -3.925-3.549c-5.548-15.383 21.945-21.93 21.945-21.93l12.8-.565 2.477-.1 2.086-.1-2.9-.666-2-.464-6.982-1.637-21.192 2.39-14.864 9.586z" opacity=".1" transform="translate(100.529 218.558)"/><path d="m379.442 607.494c5.186 4.809 39.109.087 40.558-.116a21.185 21.185 0 0 1 -7.706-.536c-4.737-1.333-5.881-4.259-5.881-4.259-5.533-15.383 21.945-21.945 21.945-21.945l12.819-.55 2.477-.116 31.114-1.347 1.521-8.575s-10.14.971-25.986 2.231c-8.937.724-19.714 1.535-31.519 2.3-32.809 2.173-40.558 23.466-40.558 23.466s-4.013 4.536 1.216 9.447z" fill="#bd577a" transform="translate(94.462 216.136)"/><path d="m642.205 396.743a10.6 10.6 0 0 0 .739 1.333l7.576 11.1 19.67 2.024.217-7.793 3.3-117.328s13.63-78.7-12.1-74.149-9.589 74.149-9.589 74.149-2.9 35.314-5 45.9c-1.973 10.228-10.954 51.828-4.813 64.764z" fill="#ffbec7" transform="translate(212.567 55.434)"/><path d="m611.07 543.042 5.591 9.589 12.529 21.438s22.742 8.329 28.535 2.014c3.2-3.476 6.634-15.543 9.053-25.668 1.984-8.242 3.3-15.195 3.3-15.195z" fill="#ffbec7" transform="translate(199.553 200.515)"/><path d="m611.07 543.042 5.591 9.589a7.19 7.19 0 0 0 .97-1.014c6.315-8.083 34.2-1.709 49.148-1.2 1.984-8.242 3.3-15.195 3.3-15.195z" opacity=".1" transform="translate(199.553 200.515)"/><path d="m414.35 606.451c5.794 0 10.6.174 12.052.681 4.345 1.448 11.849-24.465 11.849-24.465l-11.371-2.694 31.114-1.347 1.521-8.575s-10.14.971-25.986 2.231a32.1 32.1 0 0 0 -8.691 7.242l-.478.579c-6.62 8.125-9.068 18.613-10.01 26.348z" opacity=".1" transform="translate(111.324 216.136)"/><path d="m583.73 833.117 8.691 5.794c13.037-2.346 24.929-6.04 26.334-11.82a2.694 2.694 0 0 0 0-.289c-2.752-2.129-4.591-3.752-4.591-3.752z" opacity=".1" transform="translate(187.291 329.606)"/><path d="m565.91 839.076a296.759 296.759 0 0 0 34.33-3.679 170.253 170.253 0 0 0 -20.626-4.345c-8.475-.852-12.82 6.358-13.704 8.024z" opacity=".1" transform="translate(179.298 333.164)"/><path d="m415 632.067c0 6.3 17.382 10.342 17.382 10.342l52.972 47.163s33.315 14.876 54.478 36.314 39.877 3.1 39.877 3.1c22.437-5.548 87.011-83.738 87.011-83.738s1.521 89.285 4.548 95.847-1.014 24.465-2.781 32.041-1.26 19.164-1.26 19.164-24.219 92.559-22.191 100.627-13.123 45.9-13.123 45.9v31.534s59.272-2.274 62.546-15.644-14.876-19.164-14.876-19.164v-3.343c11.849-6.055 14.123-47.67 14.123-47.67s17.657-51.465 20.178-59.954 0-21.452 0-21.452l1.767-11.1s3.781-7.561 3.781-9.067a22.536 22.536 0 0 1 4.346-10.6c2.781-3.274-3.028-11.1-3.028-11.1l5.055-13.036v-14.378l11.849-52.146s12.356-60.837 8.068-80.71 5.055-30.027 5.055-30.027c-20.279 10.632-30.418-13.037-33.794-23.176-.869-2.622-1.275-4.345-1.275-4.345s-27.8-10.255-53.7-7.822a63.074 63.074 0 0 0 -15.408 3.273c-28.753 10.342-33.315 53.218-33.315 53.218l-25.479 38.849c-13.036 34.547-32.794 38.081-32.794 38.081s-46.15-31.028-47.412-32.535-18.917-9.082-18.917-9.082a20.018 20.018 0 0 0 -9.083-8.331c-6.055-2.52-6.547-11.848-6.547-11.848-.768-21.945-13.63-23.712-13.63-23.712-44.669-3.94-44.423 42.226-44.423 48.527z" fill="#e7aeb8" transform="translate(111.615 200.529)"/><path d="m0 0h27.246v84.491h-27.246z" fill="#f1d2d7" transform="matrix(-1 0 0 -1 810.622 709.256)"/><path d="m0 0h27.246v84.491h-27.246z" opacity=".1" transform="matrix(-1 0 0 -1 808.102 705.794)"/><path d="m641.541 339.33a1.8 1.8 0 0 0 0 .188 10.59 10.59 0 0 0 .739 1.333l7.576 11.1 19.671 2.028.217-7.793c-6.144-.541-20.106-2.221-28.203-6.856z" opacity=".1" transform="translate(213.217 112.659)"/><path d="m649.971 340.38s1.014 44.382-10.139 50.437-15.412 37.661-15.412 37.661 33.58 22.133 41.137 31.867 24.711 32.924 21.191 38.472 8.633 30.766 8.633 30.766-22.205 45.41-17.15 62.56 5.548 62.546 5.548 62.546h9.56s-3.027-37.328-3.027-52.464 10.139-69.108 10.139-69.108 4.534-52.971 0-54.478-31.273-22.7-33.316-32.287 14.123-98.874 14.123-98.874-20.683-1.043-31.287-7.098z" fill="#f1d2d7" transform="translate(205.54 113.13)"/><path d="m591.92 476.675a42.976 42.976 0 0 0 6.58 17.295l18.642-3.114s55.985-12.6 67.587-13.616c7.243-.637 15.253-3.621 20.279-5.794a89.152 89.152 0 0 0 -25.048-41.046l-7.112-6.59a120.558 120.558 0 0 0 -35.807-22.915c.826.71 59.563 50.857 46.7 60.692s-47.468-14.187-47.468-14.187l-39.385-33.837-1.448-1.231-2.289 3.534a34.169 34.169 0 0 1 3.4 1.637 57.941 57.941 0 0 1 27.623 34.431c8.126 27.233-32.254 24.741-32.254 24.741z" opacity=".1" transform="translate(190.964 140.268)"/><path d="m583.56 542.57s37.328 20.684 46.352 9.082c2-2.55 6.142-3.665 11.356-3.969-.869-2.622-1.275-4.346-1.275-4.346s-27.8-10.255-53.7-7.822c-1.661 4.303-2.733 7.055-2.733 7.055z" opacity=".1" transform="translate(187.214 200.48)"/><path d="m600.693 412.38 40.8 35.039s34.5 24.045 47.453 14.137-46.7-60.707-46.7-60.707a120.224 120.224 0 0 1 35.821 22.915l7.112 6.591c18.686 17.309 22.9 17.309 23.524 42.774.159 6.258-1.97 15.267-3.607 16.9-6.055 6-10.313 49.046-9.372 54.087s-11.313 48.583-7.242 60.692-49.423-6.055-58.505 5.548-46.352-9.082-46.352-9.082 20.685-52.972 25.725-56.491 11.1-30.781 0-43.455-12.15-24.635-12.15-24.635 40.384 2.506 32.287-24.711a57.143 57.143 0 0 0 -31.027-36.068z" fill="#e8e8f0" transform="translate(187.246 140.25)"/><path d="m646.108 470.45s-15.644 29.52-35.908 37.183c-.638.232-1.275.449-1.927.652-21.173 6.415 39.356-28.753 37.835-37.835z" opacity=".1" transform="translate(196.28 171.466)"/><path d="m491.965 310.822s7.561 19.178 13.616 25.725 50.944 72.135 50.944 72.135l3.81 7.865 3.259 6.765 28.753-3.027 2.013-11.585-1.1-1.347c-2.9-3.462-10.762-12.761-16.049-16.817-6.547-5.041-19.671-21.727-19.671-21.727s-40.862-42.383-43.875-53.971-43.89-81.217-52.972-69.108 31.272 65.092 31.272 65.092z" fill="#ffbec7" transform="translate(131.511 70.046)"/><path d="m529.07 366.068 3.259 6.765 28.753-3.028 2.013-11.588-1.1-1.347c-3.1 1.521-26.088 12.544-32.925 9.198z" opacity=".1" transform="translate(162.776 120.526)"/><path d="m634.688 441.528s-7.054-11.1-11.1-8.068-5.606-9.082-7.851-7.069-9.053 7.648-11.82-.232c-2.2-6.258-26.073-45.8-35.807-61.735l-4.041-6.634s-27.246 13.63-33.793 9.082v9.589l5.548.507 29.752 55.478s9.357 14.847 8.691 20.047 11.964 27.884 13.978 29.39 23.712 26.739 23.712 26.739 11.1 54.478 1.449 69.615-26.232 26.232-26.232 26.232-5 14.615-4.346 16.136-5.794 8.068-2.8 10.139 7.072 16.156 7.072 16.156 14.123-22.7 21.728-26.232 17.382-49.944 17.382-49.944 2.79-27.367 3.017-45.024-.594-84.172 5.461-84.172z" opacity=".1" transform="translate(163.318 120.938)"/><path d="m633.652 441.528s-7.069-11.1-11.1-8.068-5.606-9.082-7.851-7.069-9.053 7.648-11.82-.232c-2.216-6.258-26.073-45.8-35.807-61.735-2.491-4.1-4.056-6.634-4.056-6.634s-27.232 13.63-33.793 9.082v9.589l5.548.507 29.767 55.478s9.343 14.847 8.691 20.047 11.979 27.884 13.992 29.39 23.712 26.739 23.712 26.739 11.1 54.478 1.449 69.615a92.37 92.37 0 0 1 -18.305 20.163 35.4 35.4 0 0 0 -11.82 19.048 7.477 7.477 0 0 0 -.347 3.158c.739 1.449-5.794 8.068-2.8 10.14s7.058 16.154 7.058 16.154 14.123-22.7 21.728-26.232 17.382-49.944 17.382-49.944 2.767-27.362 3-45.019-.68-84.177 5.372-84.177z" fill="#f1d2d7" transform="translate(162.847 120.938)"/><path d="m554.391 574.05s21.191 4.041 29.766 10.139-32.287-9.589-32.287-9.589z" opacity=".1" transform="translate(173.001 217.93)"/><path d="m588.78 611.14s22.191 18.41 18.164 35.068-14.2 58.519-14.2 58.519z" opacity=".1" transform="translate(189.555 234.565)"/><path d="m464.373 586.68s-31.157 3.4-29.144 7.431 29.144-3.708 29.144-3.708z" opacity=".1" transform="translate(120.646 223.595)"/><path d="m625.317 695.644s2.028 2.52-9.575 0-3.027-10.284-3.027-10.284z" opacity=".1" transform="translate(198.922 267.853)"/><path d="m625.657 716.837s-15.934 2.521-24.349 0 24.349 0 24.349 0z" opacity=".1" transform="translate(194.554 281.468)"/><path d="m607.715 810.765s-2.767-3.028-16.643 2.535-19.424 5.794-23.451 4.026 40.094-6.561 40.094-6.561z" opacity=".1" transform="translate(179.949 323.727)"/><path d="m611.945 583.72-19.685 27.362s10.603-23.958 19.685-27.362z" opacity=".1" transform="translate(191.116 222.267)"/><path d="m588.242 410s-.84 9.082-13.529 12.616-15.093 6.417-15.093 6.417" opacity=".1" transform="translate(176.477 144.354)"/><path d="m567.288 364.56s-16.73 11.907-34.228 9.372" opacity=".1" transform="translate(164.565 123.975)"/><path d="m565.49 543.307s4.9 3.071 16.629-10.357" opacity=".1" transform="translate(179.11 199.497)"/><path d="m654.255 446.866c.478-2.448-1.231-4.737-2.9-6.649l-3.288-3.925a15.5 15.5 0 0 0 -2.144-2.216c-1.941-1.521-4.519-1.984-6.576-3.346" opacity=".1" transform="translate(212.236 153.652)"/><path d="m709.177 75.92h-215.754a27.594 27.594 0 0 0 -27.753 27.435v213.345a27.594 27.594 0 0 0 27.753 27.435h215.827a27.594 27.594 0 0 0 27.75-27.435v-213.345a27.594 27.594 0 0 0 -27.823-27.435z" fill="url(#c)" transform="translate(134.341 -5.48)"/><rect fill="#ff7d00" height="268.233" rx="18.95" width="268.233" x="601.981" y="70.44"/><path d="m532.727 194.21a15.934 15.934 0 1 0 11.255 4.664 15.456 15.456 0 0 0 -11.255-4.664z" fill="#eaeaf3" transform="translate(157.265 47.573)"/><path d="m536.365 176.531a17.8 17.8 0 1 0 -5.215 12.529 17.064 17.064 0 0 0 5.215-12.529z" fill="#eaeaf3" transform="translate(150.078 31.632)"/><path d="m599.109 148.289a8.879 8.879 0 1 0 -6.3-2.593 8.561 8.561 0 0 0 6.3 2.593z" fill="#eaeaf3" transform="translate(190.192 19.012)"/><path d="m533.814 123.211a19.482 19.482 0 1 0 13.8 5.707 18.83 18.83 0 0 0 -13.8-5.707z" fill="#eaeaf3" transform="translate(156.177 15.729)"/><path d="m621.928 166.734a10.719 10.719 0 1 0 3.1 7.532 10.269 10.269 0 0 0 -3.1-7.532z" fill="#eaeaf3" transform="translate(196.197 33.824)"/><path d="m600.262 196.66a12.486 12.486 0 1 0 8.691 3.665 11.993 11.993 0 0 0 -8.691-3.665z" fill="#eaeaf3" transform="translate(189.039 48.671)"/><path d="m566.465 210.13a14.2 14.2 0 1 0 10.038 4.157 13.731 13.731 0 0 0 -10.038-4.157z" fill="#eaeaf3" transform="translate(173.181 54.713)"/><path d="m568.588 107.291a21.163 21.163 0 1 0 15.079 6.2 20.569 20.569 0 0 0 -15.079-6.2z" fill="#eaeaf3" transform="translate(171.058 8.588)"/></svg>