<svg height="1296.458" viewBox="0 0 1861.528 1296.458" width="1861.528" xmlns="http://www.w3.org/2000/svg" xmlns:xlink="http://www.w3.org/1999/xlink"><linearGradient id="a" gradientUnits="objectBoundingBox" x1=".5" x2=".5" y1="1"><stop offset="0" stop-color="#808080" stop-opacity=".251"/><stop offset=".54" stop-color="#808080" stop-opacity=".122"/><stop offset="1" stop-color="#808080" stop-opacity=".102"/></linearGradient><linearGradient id="b" x1=".495" x2=".495" xlink:href="#a" y1="1.014" y2="0"/><linearGradient id="c" x1=".5" x2=".5" xlink:href="#a" y1="1" y2="0"/><circle cx="186.483" cy="129.371" fill="#ff7d00" r="91.115"/><path d="m269.1 434.114c38.257 86.411-10.544 185.914-67.988 260.84-19.226 25.126-40.452 51.467-43.117 82.981-3.214 38.551 22.891 73.985 53.857 97.151 56.48 42.214 133.621 55.269 200.848 33.965 58.091-18.4 106.931-59.972 165.531-76.729 97.994-28.065 201.867 18.462 285.789 76.435 59.4 40.981 123.021 90.919 194.635 82.139 50.389-6.174 93.153-41.549 122.179-83.2 14.013-20.108 26.2-42.647 46.606-56.209 12.132-8.075 26.38-12.347 40.628-15.4 130.116-27.811 268.209 40.06 396.6 5.154 86.724-23.518 155.869-92.114 198.868-171.038s63.069-168.04 79.787-256.332c11.877-62.716 21.735-130.469-5.566-188.148-28.888-61.07-95.759-98.092-162.964-105.03s-134.6 12.21-196.517 39.217c-77.356 33.827-153.184 81.178-237.616 81.335-57.5.118-112.34-21.951-167.314-38.786-91.918-28.124-187.5-42.1-282.752-54.994-91.194-12.35-183.288-23.835-275.03-16.544-64.911 5.154-122.238 29.966-185.228 41.451-41.059 7.487-82.315 1.96-122.61 14.5-49.626 15.528-100.659 51.489-103.403 108.128-2.587 53.918 44.489 93.272 64.777 139.114z" fill="#001f40" opacity=".1" transform="translate(-93.746 -119.26)"/><path d="m999.031 386.545c-8.369-21.813-29.947-73.084-44.156-62.912-17.952 12.857 17.952 69.654 17.952 69.654 1.019 10.427-19.167 32.122-29.986 42.941v-1.352a4.7 4.7 0 0 1 -.47 1.176l-.9-.49a5.873 5.873 0 0 1 -1.274 2.332 22.936 22.936 0 0 0 -.1-2.332c-2.078 8.8-38.335 19.952-38.335 19.952h-2.662c-10.074 0-36.3-2.273-48.448-21.715a107.522 107.522 0 0 0 -23.773-27.732 20.245 20.245 0 0 0 -11.269-4.272c-33.573-2.156-60.756-19.148-66.185-22.774l-1-.686-.215.627c-1.274-1.823-2.509-3.763-3.665-5.762l-.588-1.078a49.232 49.232 0 0 0 27.143-43.785v-1.019a33.532 33.532 0 0 0 4.508-16.8v-5.88l7.663-6.82c3.508-3.116 7.134-6.409 8.917-10.7a12.678 12.678 0 0 0 .941-5.488 9.505 9.505 0 0 0 -3.606-8.506c-5.88-4.057-15.679 0-19.932-5.645-1.96-2.548-1.607-6.017-2.568-9.015-1.96-6.1-9.015-9.388-15.542-9.486s-12.779 2.273-19.05 4.057a111.85 111.85 0 0 1 -40.569 3.8 26.5 26.5 0 0 0 -11.112.392 15.307 15.307 0 0 0 -9.015 10.485 24.619 24.619 0 0 0 -.862 5.37 33.787 33.787 0 0 0 -8.506 22.362v15.071a33.77 33.77 0 0 0 8.133 21.931 49 49 0 0 0 20.52 35.748v1.2l.255.157a81.026 81.026 0 0 1 -2.156 13.856v-1s-27.438 14.6-56.837 14.954h-3.234a21.892 21.892 0 0 0 -15.679 5.88c-8.7 8.192-23.95 21.147-33.318 21.147-1.96 0-51.427 9.662-59.62 11.269l-15.306-14.993-.47.882-.9-.882a37.21 37.21 0 0 0 -4.978.725c-7.839-9.29-23.518-30.888-27.144-59.874 0 0 33.847-38.551 21.4-74.475-10.623-30.613-39.884 35-48.193 54.779a15.8 15.8 0 0 0 -.51 10.877l27.5 88.625a41.569 41.569 0 0 0 -2.175 21.559h-.314l20.03 25.694s15.072 6.428 38.649 6.311a135.108 135.108 0 0 0 50.447-9.682h4.645l-.882.333h23.852l15.17 45.881c-.51 4.174-7.84 62.442-13.719 75.475a32.749 32.749 0 0 0 -2.313 13.719 104.74 104.74 0 0 0 4.371 26.556l13.288-.49-.51 1.039c-11.25 23.068-30.045 64.166-41.157 102.58l-19.344 39.2 14.5 175.8h.588l1.117.177c1.568.235 3.92.588 7.017.98l-1.137 1.96-31.966 52.917s-22.793 46.664 27.634 37.865c0 0 18.639-5.409 26.243-37.238l33.161-31.1s1.548-20.657-7.84-28.908c-.588-9.544-2.077-37.414.216-44.117 2.763-8.114-11.759-101.424-11.759-101.424s52.486-108.871 84.275-111.576a17.423 17.423 0 0 1 6.879.9c26.125 8.506 57.777 71.672 67.086 91.33l.431.9v.177l.353.764v.216l.314.666v.176l.274.608v.137l.235.49v.2l.176.372v.157l.117.274v.333l.1.235 4.135 122.394.412.215h.2l-.353 2.528-1.8 12.641s22.793 48.017 21.4 54.093 15.189 30.437 38.668 23.675 9.506-44.882 9.506-44.882l-22.617-46.606-1-2.077a44.463 44.463 0 0 0 6.35-4.723s-6.9-50.036 0-60.854 8.976-60.188 8.976-60.188-4.841-33.808-13.131-48.683l-34.738-123.964c10.407 9.682 18.5 13.464 25.263 13.209h1.117a16.874 16.874 0 0 0 8.506-2.117 23.97 23.97 0 0 0 3.92-2.763 6.2 6.2 0 0 0 .647-.647c9.662-8.114-11.054-39.9-22.794-58.8-11.308-18.218 4.273-67.748 5.451-71.433a18.7 18.7 0 0 1 3.352-1.96 20.674 20.674 0 0 1 7.682-1.666c11.25.392 25.087 6.86 42.216 10.113a199.169 199.169 0 0 0 36.042 2.8h.708c4.8 0 9.152-.1 12.68-.235a21.426 21.426 0 0 0 9.211-2.489 27.808 27.808 0 0 0 6.546-5.292l30.063-33.962-.784.372a16.9 16.9 0 0 0 0-11.955l31.769-54.877a20.872 20.872 0 0 0 1.546-18.089z" fill="url(#a)" transform="translate(180.658 5.253)"/><path d="m588.457 641.066-32 30.672c-7.33 31.358-25.341 36.669-25.341 36.669-48.664 8.662-26.674-37.238-26.674-37.238l30.868-52.231 3.8-6.448s22.009-6.663 36.669-2.665a12.541 12.541 0 0 1 5 2.7c9.187 7.982 7.678 28.541 7.678 28.541z" fill="#444176" transform="translate(234.3 350.396)"/><path d="m673.954 688.37c-22.676 6.664-38.668-17.325-37.238-23.342s-20.716-53.269-20.716-53.269l1.725-12.465 1.607-11.544 37.238 2.665 3.508 7.369 21.833 45.959s14.719 37.964-7.957 44.627z" fill="#444176" transform="translate(346.143 330.432)"/><path d="m563.573 617.792c-3.508 6.017-31.946 2.979-45.8 1.1l3.8-6.448s22.009-6.663 36.669-2.665a12.544 12.544 0 0 1 5 2.7c.193 3.255.331 5.313.331 5.313z" opacity=".1" transform="translate(251.854 350.348)"/><path d="m659.291 597.765c-19.069 12.7-39.374 3.1-42.431 1.509l1.607-11.544 37.233 2.67z" opacity=".1" transform="translate(346.968 330.413)"/><path d="m770.081 685.178c-6.663 10.662 0 60.011 0 60.011-22.009 20.01-48 5.331-48 5.331l-3.92-120.67s-43.333-99.346-74-96.681-81.335 110.008-81.335 110.008 13.994 92 11.328 99.954 0 46.664 0 46.664c-4.665 8-53.328 0-53.328 0l-13.996-173.35 18.58-38.688c10.682-37.865 28.83-78.4 39.687-101.13 5.39-11.308 9-18.207 9-18.207l35.474-7.389 115.139-23.871 41.373 150.6c8 14.66 12.661 48 12.661 48s-2 48.756-8.663 59.418z" fill="#565387" transform="translate(241.353 176.286)"/><g opacity=".1" transform="translate(748.105 603.367)"><path d="m662.233 698.626-3.92-120.67s-43.333-99.346-74-96.681a16.7 16.7 0 0 0 -4.017.9c29.908 9.937 67.361 95.779 67.361 95.779l3.92 120.67a47.039 47.039 0 0 0 26.517 4.841 47.169 47.169 0 0 1 -15.861-4.839z" transform="translate(-436.239 -375.188)"/><path d="m531.445 789.893-13.993-173.351 18.658-38.742c10.682-37.865 28.83-78.4 39.688-101.13 5.39-11.308 9-18.207 9-18.207l35.474-7.389 105.108-21.853-.568-2.1-115.2 23.95-35.473 7.389s-3.606 6.9-9 18.207c-10.9 22.735-29.006 63.343-39.687 101.13l-18.662 38.667 13.994 173.351s26.576 4.371 42.333 3.41a314.85 314.85 0 0 1 -31.672-3.332z" transform="translate(-506.79 -427.12)"/></g><path d="m494.253 338.21s-38 1.96-32.671 42l10.662 1.333 15.993-17.325 8-14.66v-3.332z" fill="#ced2df" transform="translate(197.428 90.904)"/><path d="m494.253 338.21s-38 1.96-32.671 42l10.662 1.333 15.993-17.325 8-14.66v-3.332z" opacity=".1" transform="translate(197.428 90.904)"/><path d="m694.66 345.69s31.358 16.659 23.342 36l-10 3.92-13.327-7.33-1.96-17.325 1.333-11.994z" fill="#ced2df" transform="translate(419.785 98.084)"/><path d="m694.66 345.69s31.358 16.659 23.342 36l-10 3.92-13.327-7.33-1.96-17.325 1.333-11.994z" opacity=".1" transform="translate(419.785 98.084)"/><rect fill="#88455e" height="82.668" rx="21.09" width="109.342" x="845.099" y="271.756"/><path d="m506.138 412.292-23.338 37.238-1.96-6.624-31.715-103.326a15.9 15.9 0 0 1 .49-10.721c8.016-19.481 36.278-84.275 46.527-53.994 11.994 35.278-20.677 73.339-20.677 73.339 3.724 30.888 21.069 53.269 27.889 61.031 1.725 2.018 2.784 3.057 2.784 3.057z" fill="#ec8c9c" transform="translate(185.288 22.487)"/><path d="m691.16 407.327s36.669-34.67 35.278-48.664c0 0-34.671-55.994-17.326-68.6 13.719-10.035 34.553 40.53 42.627 62.03a20.969 20.969 0 0 1 -1.391 17.639l-43.822 77.592z" fill="#ec8c9c" transform="translate(418.287 43.444)"/><path d="m577.815 299.979s6.664 42.666-12.661 58.679 55.346 15.913 55.346 15.913l26.675-24.671s-30.672-28.673-21.343-50z" fill="#ec8c9c" transform="translate(294.271 54.132)"/><path d="m596.328 326.075s28.672 21.344 57.327-2.665l46.665 96.681-2.666 118s-96.681 50-136.682 19.344-6.664-46.665-6.664-46.665l-9.329-90.664 10-58.679s17.992-28.007 19.344-28.007 22.005-7.345 22.005-7.345z" opacity=".1" transform="translate(274.426 76.698)"/><path d="m596.319 325.4s28.673 21.382 57.346-2.665l46.665 96.681-2.666 118s-96.681 50-136.682 19.344-6.664-46.665-6.664-46.665l-9.329-90.664 10-58.679s17.992-28.007 19.344-28.007 21.986-7.345 21.986-7.345z" fill="#ebf1f6" transform="translate(274.435 76.046)"/><path d="m672.557 319s-27.184 15.483-56.7 14.719a20.892 20.892 0 0 0 -15.072 5.762c-8.408 8.075-23.126 20.853-32.24 20.853-1.96 0-58.679 11.328-58.679 11.328l-14.993-14.993s-22.343 43.666-33 41.667l19.344 25.341s36.669 15.992 84.667-3.332h28.007l14.66 45.332s-7.33 61.344-13.327 74.671 1.96 39.335 1.96 39.335l52.662-1.96s2.665-26.008 6.664-29.4-13.994-118-13.994-118-11.994-64.676 32-88z" opacity=".1" transform="translate(198.197 72.465)"/><path d="m581.01 439.38a174.1 174.1 0 0 0 -4.135 24.048l-40.315 1.529c5.39-11.309 9-18.207 9-18.207z" opacity=".1" transform="translate(269.891 188.015)"/><path d="m490.262 342.607-23.342 37.238-1.96-6.624c8.565-8.506 18.6-26.282 22.6-33.69a39.473 39.473 0 0 0 2.702 3.076z" opacity=".1" transform="translate(201.163 92.172)"/><path d="m673.238 319s-28.536 15.483-58.032 14.719a20.892 20.892 0 0 0 -15.072 5.762c-8.408 8.075-23.126 20.853-32.24 20.853-1.96 0-58.679 11.328-58.679 11.328l-15.052-15.013s-22.342 43.666-33 41.667l19.337 25.341s36.669 15.993 84.667-3.332h28.007l14.66 45.312s-7.33 61.344-13.327 74.671 1.96 39.335 1.96 39.335l52.662-1.96s2.665-26.008 6.664-29.4-13.994-118-13.994-118-11.995-64.676 32-88z" fill="#ced2df" transform="translate(197.516 72.465)"/><path d="m603.132 316.94s27.2 20.735 63.52 23.126a19.306 19.306 0 0 1 10.877 4.214 105.276 105.276 0 0 1 22.95 27.438c14.66 24.008 50.663 21.343 50.663 21.343s35-10.995 37-19.6c0 0 1 47.037 23.009 35.67l-28.945 33.359a20.422 20.422 0 0 1 -14.6 7.036c-10.877.431-29.77.568-45.724-2.528-24.008-4.665-41.334-15.993-53.995-6 0 0-16.659 52-5.331 70.673s31.358 50 22.009 58.012-20.677 7.33-39.335-11.994-20.677-52-20.677-52l4.664-84s-17.992-63.343-35.278-76z" opacity=".1" transform="translate(324.968 70.488)"/><path d="m812.532 407.973-29.026 33.494a20.394 20.394 0 0 1 -7 5.213 20.322 20.322 0 0 1 -7.565 1.784c-10.877.451-29.771.588-45.724-2.528-22.46-4.37-39.08-14.562-51.505-7.683a18.208 18.208 0 0 0 -2.509 1.666s-16.659 52-5.331 70.673 31.358 50 22.009 58.012a21.564 21.564 0 0 1 -5.209 3.396c-8.389 3.782-18.8.509-34.122-15.385-18.658-19.344-20.676-52-20.676-52l4.665-84s-17.992-63.343-35.278-76l7.624-27.34c5.252 3.567 31.476 20.324 63.892 22.46a19.3 19.3 0 0 1 10.877 4.214 105.373 105.373 0 0 1 22.95 27.438c14.66 24.009 50.663 21.343 50.663 21.343a194.588 194.588 0 0 0 25.224-10.035c5.115-2.509 9.623-5.253 11.759-7.839a5.878 5.878 0 0 0 1.274-2.352s1.018 46.796 23.008 35.469z" opacity=".1" transform="translate(326.235 70.805)"/><path d="m811.881 408.947-29.006 33.533a20.392 20.392 0 0 1 -5.644 4.547 20.344 20.344 0 0 1 -8.9 2.45c-10.877.451-29.77.588-45.724-2.528-21.657-4.214-37.9-13.856-50.154-8.349a18.123 18.123 0 0 0 -3.92 2.332s-16.659 52-5.331 70.673 31.358 50 22.01 58.012a23.124 23.124 0 0 1 -3.92 2.724c-8.623 4.762-19.285 1.96-35.454-14.719-18.658-19.344-20.676-52-20.676-52l4.664-84s-17.991-63.343-35.278-76l8-28.673.96.666c5.253 3.567 31.476 20.324 63.892 22.46a19.3 19.3 0 0 1 10.878 4.214 105.362 105.362 0 0 1 22.95 27.438c14.66 24.009 50.663 21.343 50.663 21.343a194.567 194.567 0 0 0 25.224-10.034c6.056-3.1 11-6.487 11.759-9.584v1.686c.586 8.095 3.526 43.824 23.007 33.809z" fill="#ced2df" transform="translate(325.554 70.498)"/><path d="m618.847 300.45h-49a119.889 119.889 0 0 1 .921 23.519 50.369 50.369 0 0 0 51.78 3.724c-4.7-8.702-7.562-18.58-3.701-27.243z" opacity=".1" transform="translate(301.845 54.66)"/><circle cx="901.426" cy="338.098" fill="#ec8c9c" r="48.664"/><path d="m598.527 320.764c5.429-.647 10.858-2.567 16.208-1.49 4.86.98 9 4.331 13.856 5.35 9.368 1.96 18.07-4.939 25.145-11.367l15.287-13.915c3.391-3.077 6.879-6.311 8.623-10.544s1.137-9.8-2.587-12.465c-5.586-3.92-15.209 0-19.246-5.566-1.822-2.509-1.548-5.88-2.489-8.878-1.96-6-8.7-9.27-15.012-9.349s-12.348 2.234-18.384 3.92a105.834 105.834 0 0 1 -39.2 3.743 25.046 25.046 0 0 0 -10.72.372 14.994 14.994 0 0 0 -8.7 10.329c-3.018 10.662 2.136 27.85 7.31 37.394s19.582 13.74 29.909 12.466z" opacity=".1" transform="translate(292.786 8.671)"/><path d="m598.527 320.084c5.429-.647 10.858-2.567 16.208-1.489 4.86.98 9 4.331 13.856 5.35 9.368 1.96 18.07-4.939 25.145-11.367l15.287-13.915c3.391-3.077 6.879-6.311 8.623-10.544s1.137-9.8-2.587-12.465c-5.586-3.92-15.209 0-19.246-5.566-1.822-2.509-1.548-5.88-2.489-8.878-1.96-6-8.7-9.27-15.012-9.349s-12.348 2.234-18.384 3.92a105.83 105.83 0 0 1 -39.2 3.743 25.046 25.046 0 0 0 -10.72.372 14.994 14.994 0 0 0 -8.7 10.329c-3.018 10.662 2.136 27.85 7.31 37.394s19.582 13.641 29.909 12.465z" fill="#88455e" transform="translate(292.786 8.018)"/><path d="m536.55 394s10.662 1.333 15.992 8 14.66 8.663 14.66 8.663" opacity=".1" transform="translate(269.881 144.456)"/><path d="m487.746 349.09s8.7 19.422 3.332 21.382-3.332 15.993-3.332 15.993" opacity=".1" transform="translate(222.671 101.348)"/><g opacity=".1" transform="translate(712.808 391.779)"><path d="m489.388 363.942s56.66-11.328 58.62-11.328c9.133 0 23.832-12.779 32.24-20.853a20.58 20.58 0 0 1 9.133-5.076h-.725a20.891 20.891 0 0 0 -15.071 5.762c-8.408 8.075-23.127 20.853-32.24 20.853-1.588 0-37.845 7.193-52.564 10.113z" transform="translate(-488.78 -311.947)"/><path d="m590.681 321.649v-2.489a141.457 141.457 0 0 1 -43.431 13.9 134.211 134.211 0 0 0 43.431-11.406z" transform="translate(-432.656 -319.16)"/><path d="m549.844 529.858s-8-26.007-1.96-39.335 13.327-74.671 13.327-74.671l-14.621-45.332h-28.085l-1.705.666h23.028l14.6 45.352s-7.33 61.344-13.327 74.671 1.96 39.335 1.96 39.335l52.662-1.96v-.412z" transform="translate(-461.884 -269.861)"/></g><g opacity=".1" transform="translate(951.383 479.484)"><path d="m670.561 469.927a23.136 23.136 0 0 1 -3.92 2.724c-8.624 4.763-19.285 1.96-35.454-14.719-14.817-15.346-19.129-39.2-20.285-48.233l-.392 6.9s1.96 32.671 20.677 52c16.169 16.737 26.831 19.481 35.454 14.719a23.13 23.13 0 0 0 3.92-2.724c2.8-2.411 2.959-6.938 1.49-12.582a6.175 6.175 0 0 1 -1.49 1.915z" transform="translate(-610.51 -319.957)"/><path d="m770.42 364.87-18.873 21.813a20.409 20.409 0 0 1 -5.645 4.547 20.341 20.341 0 0 1 -8.9 2.45c-10.877.451-29.771.588-45.724-2.529-21.656-4.214-37.9-13.856-50.153-8.349a18.111 18.111 0 0 0 -3.92 2.332s-10.76 33.592-9.113 56.464c1.274-21.382 9.113-45.8 9.113-45.8a18.131 18.131 0 0 1 3.92-2.332c12.269-5.507 28.5 4.135 50.153 8.349 15.953 3.1 34.827 2.959 45.724 2.528a20.335 20.335 0 0 0 8.9-2.45 20.4 20.4 0 0 0 5.645-4.488l29.025-33.494a11.426 11.426 0 0 1 -10.152.96z" transform="translate(-593.797 -363.91)"/></g><path d="m265.74 486.89a1.509 1.509 0 0 0 1.784.235 6.077 6.077 0 0 1 -1.784-.235z" fill="url(#b)" transform="translate(9.937 233.619)"/><path d="m600.488 369.488c-3.528-1.019-8.565-2.685-14.621-4.8a76.673 76.673 0 0 0 13.543-27.288l-.51.2c.176-.608.353-1.2.51-1.823-11.622 4.723-24.479-3.273-32.671-13.543s-13.719-23.009-22.7-32.456a103.866 103.866 0 0 0 -12.034-10.368c-2.646-1.96-5.488-4.175-8.721-4.273-5.233-.157-9.329 4.978-14.366 6.487a19.6 19.6 0 0 1 -10.015-.373c-12.994-2.979-25.478-8.486-38.747-9.936a45.409 45.409 0 0 0 -21.029 2.371c-6.664 2.528-9.7 7.565-15.091 11.6-5.88 4.331-17.364 4.233-24.2 5a173.448 173.448 0 0 1 -25.008 1.039 58.533 58.533 0 0 0 -14.385.529c-9.937 2.175-17.913 10.074-25.361 17.639a13.073 13.073 0 0 0 -4.194 6.566 8.293 8.293 0 0 0 0 2.175 14.131 14.131 0 0 0 1 5.782 76.437 76.437 0 0 0 9.623 19.148c3.038 4.351 6.585 8.447 8.31 13.6a26.4 26.4 0 0 1 1.274 7.839 57.008 57.008 0 0 1 -.882 8.428 105.839 105.839 0 0 1 -6.448 22.441 40.764 40.764 0 0 0 -3.765 11.763 18.73 18.73 0 0 0 0 2.509c-.49 12.935 12.563 22.245 15.091 35.1a20.974 20.974 0 0 1 .372 3.234c-.274 8.016-4.841 15.855-11.583 18.972.588.235 1.2.431 1.8.627a16.346 16.346 0 0 1 -1.8.98 36.521 36.521 0 0 0 3.763 1.215 87.415 87.415 0 0 0 -19.03 23.519c-22.676 42.216-176.252 124.9-176.252 124.9l2.273 1.294-1.842 1.2c-13.288 8.839-44.47 34.612-16.287 67.2 0 0 22.009-34.729 37.434-49.526.686-.666 1.372-1.274 1.96-1.842a4.508 4.508 0 0 1 .588 3.567l100.973-56.738s35.885-25.126 45.9-30.79a82.606 82.606 0 0 1 22.754-9.8l-1.176.49a46.094 46.094 0 0 1 11.583-1.646c17.874.274 37.238 13.366 43.607 65.205 8.545 69.419 4.586 81.942 1.842 83.648a5.045 5.045 0 0 1 -1-.176 1.7 1.7 0 0 0 .274.2 5.252 5.252 0 0 1 -1.1-.2 1.568 1.568 0 0 0 1.49.353 1.391 1.391 0 0 0 1.117-.137 11.6 11.6 0 0 0 1.352 0 14.414 14.414 0 0 1 -.137 1.96c-.137 0-.8.372 0 .412-.216 3.92-.2 8.173 0 12.622-8.878.49-17.757 1.019-25.478 1.489l.686-3.665.314-1.646c6.82-.549 13.288-2.548 14.052-8.075 1.666-12.151-15.013-18.638-29.2-19.442s-99.287 4.861-99.287 4.861-12.759 16.522 27.713 21.559q1.8.941 3.743 1.96c15.855 9.035 37.355 25.674 47.664 33.867l1.431 1.137-4.625 3.763c25.028 5.664 49.232 101.306 62.579 145.031s42.549 42.137 66.753 35.65c22.676-6.076 25.478-71.927 25.851-80.2v-.843l40.334 49.82 3.057 3.783q1.764.921 3.489 1.725c30.535 14.523 64.264-13.327 54.681-45.077-9.7-32-24.753-79.336-34.788-99.346-8.408-16.757-19.266-44.587-25.851-62.011a20.92 20.92 0 0 0 2.489-1.2s-.157-.784-.412-2.215l.412-.216s-9.8-50.408-10.231-86.234v-3.116c7.291-1.666 11.916-2.313 11.916-2.313l.137-1.568-.843.176 4.057-46.429s14.9-31.691 3.489-44.881a27.714 27.714 0 0 1 -6.683-13.719c-1.96-12.132 0-32.377 26.556-49.193 40.883-25.929 56.836-47.037 56.836-47.037s.709-15.125-24.319-22.494zm-81.2 32.22v-21.46c7.585-.372 15.326.51 22.95 0a58.066 58.066 0 0 0 11.073-1.862l1.842 1.274a201.859 201.859 0 0 1 -35.866 22.049zm-115.924 336.392c3 2.077 6.017 4.233 8.976 6.409 1.842 10.583 3.469 18.051 3.587 18.58a146.722 146.722 0 0 0 -12.563-24.989z" fill="url(#c)" transform="translate(-125.08 26.367)"/><path d="m345.859 500.32-1.764 9.584-1.352 7.33-2.469 13.405-23.951 16.761s-2.156-1.842-5.723-4.763c-9.8-8.075-30.437-24.459-45.587-33.318a50.953 50.953 0 0 0 -12.524-5.781z" fill="#ffbdc6" transform="translate(-2.782 246.51)"/><path d="m345.868 500.32-1.768 9.58a74.473 74.473 0 0 1 -15.8-.8l-55.876.8c-2.646-.157-5.115-.373-7.428-.608a50.975 50.975 0 0 0 -12.524-5.782z" opacity=".1" transform="translate(-2.791 246.51)"/><path d="m337.8 516.967s27.948 4.782 29.535-7.193-14.366-18.286-27.909-19.187-95.015 4.821-95.015 4.821-14.366 19.148 37.512 22.343z" fill="#7679b4" transform="translate(-12.286 237.075)"/><path d="m345.859 500.32-1.764 9.584-1.352 7.33-2.469 13.405-23.951 16.761s-2.156-1.842-5.723-4.763c-9.8-8.075-30.437-24.459-45.587-33.318a50.953 50.953 0 0 0 -12.524-5.781z" opacity=".1" transform="translate(-2.782 246.51)"/><path d="m345.868 500.32-1.768 9.58a74.473 74.473 0 0 1 -15.8-.8l-55.876.8c-2.646-.157-5.115-.373-7.428-.608a50.975 50.975 0 0 0 -12.524-5.782z" opacity=".1" transform="translate(-2.791 246.51)"/><path d="m337.8 516.967s27.948 4.782 29.535-7.193-14.366-18.286-27.909-19.187-95.015 4.821-95.015 4.821-14.366 19.148 37.512 22.343z" opacity=".1" transform="translate(-12.286 237.075)"/><path d="m0 0h146.07v173.214h-146.07z" fill="#a66477" transform="translate(240.497 360.48)"/><path d="m0 0h146.07v173.214h-146.07z" opacity=".1" transform="translate(240.497 360.48)"/><path d="m187.678 461.546c-2.411.607-5.468 2.92-8.9 6.291-14.758 14.582-35.807 48.781-35.807 48.781-26.968-32.1 2.881-57.483 15.679-66.2 3.1-2.117 5.174-3.253 5.174-3.253z" fill="#ffbdc6" transform="translate(-118.396 195.483)"/><path d="m337.245 331.09s7.193 50.29 31.927 62.265-31.927 34.317-31.927 34.317l-77.435-28.731s43.9-14.366 35.121-56.68z" fill="#ffbdc6" transform="translate(4.245 84.07)"/><path d="m302.729 485.45-1.764 9.584-1.352 7.33-2.469 13.406-23.95 16.757s-2.156-1.842-5.723-4.762c-9.8-8.075-30.437-24.459-45.587-33.318a50.953 50.953 0 0 0 -12.524-5.781z" fill="#ffbdc6" transform="translate(-44.181 232.237)"/><path d="m302.738 485.45-1.764 9.584a74.471 74.471 0 0 1 -15.8-.8l-55.876.8c-2.646-.157-5.115-.372-7.428-.607a50.953 50.953 0 0 0 -12.524-5.782z" opacity=".1" transform="translate(-44.191 232.237)"/><path d="m294.642 502.058s27.948 4.782 29.535-7.193-14.366-18.364-27.948-19.148-95 4.782-95 4.782-14.366 19.148 37.512 22.343z" fill="#7679b4" transform="translate(-53.733 222.822)"/><path d="m271.112 494.368-2.469 13.406-23.95 16.757s-2.156-1.842-5.723-4.762l31.672-25.969z" opacity=".1" transform="translate(-15.759 240.252)"/><path d="m430.654 694.5q-1.646-.8-3.332-1.705l-2.92-3.724-38.57-49v.862c-.255 8.133-3.038 73.005-24.714 78.983-23.146 6.389-51.094 7.977-63.853-35.121s-35.925-137.285-59.875-142.871l35.51-29.143s23.519 27.438 33.122 53.858c-.353-1.686-16.6-77.552-3.195-90.958h116.538s17.952 51.231 30.339 76.631c9.6 19.716 24.008 66.322 33.318 97.857 9.211 31.2-22.97 58.639-52.368 44.331z" fill="#7679b4" transform="translate(-17.276 222.859)"/><path d="m398.037 537.713c-17.972 10.642-96.994 6.311-122.747 4.586l-7-.51c-.764 0 .118-.431.118-.431l.725-7.252 19.148-48.683 102.582-59.423c-2.077 6.252-2.783 15.836-2.607 26.831.51 35.238 9.781 84.882 9.781 84.882z" opacity=".1" transform="translate(12.088 175.172)"/><path d="m398.45 536.484c-17.972 10.642-96.994 6.311-122.747 4.586l-7-.51h-1.153l1.274-.333 6.311-1.666 13.565-54.288 102.58-59.463c-2.077 6.252-2.783 15.836-2.606 26.831.506 35.18 9.776 84.843 9.776 84.843z" fill="#f2f1f2" transform="translate(11.674 174.03)"/><path d="m388.095 451.649c-20.853 4.8-66.754 18.933-84.392 52.917-11.759 22.7-21.559 32.436-28.555 36.512l-7-.51.118-.431 6.311-1.666 13.562-54.289 102.58-59.463c-2.119 6.429-2.801 15.935-2.624 26.93z" opacity=".1" transform="translate(12.25 173.943)"/><path d="m150.744 447.17 23.95 14.366c-2.411.608-5.468 2.92-8.9 6.291-1.96-5.88-14.542-13.954-20.226-17.4 3.099-2.12 5.176-3.257 5.176-3.257z" opacity=".1" transform="translate(-105.412 195.493)"/><path d="m266.826 484.445a1.431 1.431 0 0 1 -1.685-.215 5.764 5.764 0 0 0 1.685.215z" opacity=".1" transform="translate(9.361 231.066)"/><path d="m435.921 420.992s-21.559 2.391-36.728-13.562c0 0-63.853 18.364-85.411 59.874s-168.432 122.923-168.432 122.923 25.478 14.366 23.146 21.559l96.583-55.876s34.317-24.753 43.9-30.339 62.265-39.9 73.437 53.485 0 82.315 0 82.315 15.973 5.586 39.2-39.2 95-55.073 95-55.073l3.92-47.037s14.248-31.2 3.332-44.215a27.633 27.633 0 0 1 -6.389-13.5c-1.823-11.955 0-31.887 25.478-48.448 39.2-25.478 54.289-46.292 54.289-46.292s.8-15.169-23.146-22.343-121.343-46.293-121.343-46.293l-3.195 13.562 76.631 54.289s-38.316 31.123-68.6 30.339c-.113-.137 5.473 23.029-21.672 23.832z" fill="#565388" transform="translate(-105.623 53.239)"/><path d="m324.514 351.859a156.866 156.866 0 0 1 -4.41-19.6l-42.314 11.251a46.645 46.645 0 0 1 -.96 24.4 45.509 45.509 0 0 0 47.684-16.071z" opacity=".1" transform="translate(20.582 85.193)"/><circle cx="309.955" cy="406.772" fill="#ffbdc6" r="45.508"/><path d="m356.228 274.2c12.622 1.431 24.636 6.86 37.061 9.8a18.307 18.307 0 0 0 9.584.372c4.821-1.49 8.741-6.546 13.719-6.389 3.077 0 5.88 2.2 8.349 4.214a100.126 100.126 0 0 1 11.5 10.211c8.565 9.309 13.9 21.852 21.716 31.966s20.148 17.992 31.26 13.347c-7.545 29.4-32.318 51.878-59.09 53.7-10.681.725-21.559-1.49-31.965 1.646a27.983 27.983 0 0 1 -8.075 1.96c-5.879 0-10.74-5.468-14.464-10.779-8.7-12.5-15.679-26.693-25.478-38.08-3.234-3.763-7.056-7.35-11.622-8.036s-8.78 1.49-12.857 3.606c-6.722 3.489-13.6 7.095-18.815 13.053s-8.506 14.875-6.35 22.95c1.156 4.351 3.822 8.271 3.92 12.837 0 7.252-6.311 12.563-7.585 19.6a75.638 75.638 0 0 0 -.314 8.937c-.568 9.682-6.879 17.639-13.5 23.695-2.568 2.372-5.429 4.9-6.174 8.565-.51 2.489 0 5.135-.333 7.663-.96 6.291-7.232 9.466-12.778 10.289a37.041 37.041 0 0 1 -19.168-2.274c7.839-3.665 12.523-14.111 10.72-23.518-2.469-12.955-15.483-22.245-14.386-35.454a41.023 41.023 0 0 1 3.606-11.661 106.716 106.716 0 0 0 6.154-22.107 37.453 37.453 0 0 0 -.372-17.639c-1.666-5.076-5.057-9.113-7.957-13.406a76.084 76.084 0 0 1 -9.211-18.873 13.23 13.23 0 0 1 -.882-6.233 12.917 12.917 0 0 1 3.92-6.468c7.134-7.467 14.777-15.248 24.263-17.4a54.4 54.4 0 0 1 13.719-.529 161.223 161.223 0 0 0 23.93-1.019c6.546-.765 17.639-.666 23.166-4.939 5.155-3.92 8.075-8.917 14.444-11.426a42.273 42.273 0 0 1 20.345-2.181z" opacity=".1" transform="translate(-22.088 29.074)"/><path d="m308.48 513.76s26.341 51.878 18.364 67.851" opacity=".1" transform="translate(50.962 259.411)"/><path d="m351.9 613.817-38.57-49v.862s-2.234-15.836 5.115-10.5c16.091 11.642 41.843 30.731 42.392 34.023s-5.216 16.498-8.937 24.615z" opacity=".1" transform="translate(55.307 298.113)"/><g opacity=".1" transform="translate(40.531 352.072)"><path d="m308.561 349.317s3.253 13.484-7.271 20.226c16.208-2.783 16.914-15.385 16.424-20.873a51.056 51.056 0 0 1 -9.153.647z" transform="translate(3.53 -251.127)"/><path d="m154.56 533.27s146.873-81.413 168.432-122.924c15.463-29.79 52.721-47.645 72.515-55.366-14.444 4.841-63.049 23.4-81.315 58.561-21.559 41.51-168.432 122.924-168.432 122.924z" transform="translate(-145.76 -245.07)"/><path d="m337.472 390.76c24.988-7.84 48.879-27.183 48.879-27.183l-76.631-54.289 1.744-7.448-7.33-2.94-3.195 13.562 76.631 54.289a184.919 184.919 0 0 1 -40.098 24.009z" transform="translate(3.194 -298.9)"/><path d="m319.83 444.1a189.872 189.872 0 0 1 30.045-7.585l.137-1.548a203.333 203.333 0 0 0 -30.182 9.133z" transform="translate(21.326 -168.29)"/><path d="m304.164 554.129h-.706a1.43 1.43 0 0 1 -1.685-.216 5.882 5.882 0 0 0 1.686.216c2.626-1.529 6.565-13.445-1.686-82.432-8.819-73.652-43.431-67.871-62.383-59.4 19.364-5.331 46.018-.725 53.6 62.6 8.251 68.988 4.312 80.923 1.686 82.432a17.64 17.64 0 0 0 9.488-3.2z" transform="translate(-55.887 -194.687)"/><path d="m268.425 484.046a5.873 5.873 0 0 1 -1.685-.216 1.431 1.431 0 0 0 1.686.216z" transform="translate(-29.634 -121.39)"/></g><path d="m356.228 273.406c12.622 1.431 24.636 6.86 37.061 9.8a18.307 18.307 0 0 0 9.584.372c4.821-1.49 8.741-6.546 13.719-6.389 3.077 0 5.88 2.195 8.349 4.214a100.169 100.169 0 0 1 11.5 10.211c8.565 9.309 13.9 21.853 21.716 31.966s20.148 17.992 31.26 13.347c-7.546 29.4-32.318 51.878-59.09 53.7-10.681.725-21.559-1.489-31.966 1.646a28 28 0 0 1 -8.075 1.96c-5.88 0-10.74-5.468-14.464-10.779-8.7-12.5-15.679-26.693-25.478-38.08-3.234-3.763-7.056-7.349-11.622-8.035s-8.78 1.49-12.857 3.606c-6.722 3.488-13.6 7.095-18.815 13.053s-8.506 14.875-6.35 22.95c1.156 4.351 3.822 8.271 3.92 12.837 0 7.252-6.311 12.563-7.585 19.6a75.642 75.642 0 0 0 -.314 8.937c-.568 9.682-6.879 17.639-13.5 23.695-2.567 2.371-5.429 4.9-6.173 8.565-.51 2.489 0 5.135-.333 7.663-.96 6.291-7.232 9.466-12.779 10.289a37.04 37.04 0 0 1 -19.168-2.274c7.84-3.665 12.524-14.111 10.721-23.518-2.469-12.955-15.483-22.245-14.385-35.454a41.023 41.023 0 0 1 3.606-11.661 106.712 106.712 0 0 0 6.154-22.107 37.45 37.45 0 0 0 -.372-17.639c-1.666-5.076-5.056-9.113-7.957-13.406a76.077 76.077 0 0 1 -9.211-18.874 13.231 13.231 0 0 1 -.882-6.233 12.914 12.914 0 0 1 3.92-6.467c7.134-7.467 14.777-15.248 24.263-17.4a54.406 54.406 0 0 1 13.719-.529 161.192 161.192 0 0 0 23.93-1.019c6.546-.764 17.639-.666 23.166-4.939 5.155-3.92 8.075-8.917 14.444-11.426a42.275 42.275 0 0 1 20.344-2.182z" fill="#a66477" transform="translate(-22.088 28.316)"/><path d="m1162.041 246.133v-.725a1.648 1.648 0 0 0 -.118-.745h-.313v-1.627c-.784-18.168-25.91-56.837-35.984-45.548-8.819 9.917 4.488 35 11.27 46.292l.607 1.019-.333-.216s-28.045 83.648-31.358 86.9-26.4 69.027-56.836 76.435c-6.017 1.431-11.015 2.724-15.209 3.92l.333-1.117c1.96-6.409 4.371-12.465 5.35-19.6s0-15.777-3.606-19.246c-1.764-1.725-3.92-1.96-5.37-4.7a21.708 21.708 0 0 1 -1.49-7.546l-2.587-31.711 1.8-.549c10.9-3.489 21.46-11.759 22.695-22.891a11.76 11.76 0 0 1 -1.156.372q.216-.971.333-1.96c-9.153 3.606-17.639-5.88-26.458-10.133-14.523-7.114-31.123-.412-46.116 1.215-16.992 1.862-33.122-5.194-50.486-3.92-9.446.725-19.952 7.134-19.442 16.443.294 5.115 3.919 9.447 5.409 14.346 3.763 11.857-4.606 23.754-11.936 33.867-4.821 6.644-9.447 14.738-10.27 22.539-16.875-17.639-35.121-38.022-37.238-45.685l-48.82-83.648s-1.156 1.235-3.018 3.058c-.294-.9-.647-1.96-1.039-3.018-6.232-17.463-23.871-59.776-46.233-52.015s9.27 51.133 23.028 68.419l1.96 2.391a6.192 6.192 0 0 1 -3.489-.157l54.445 93.388s9.9 17.874 18.972 22.735c0 0 67.635 85.274 68.458 102.325s30.418 62.54 30.418 62.54 9.9 73.907-7.428 86.9h2.861q-1.234 1.205-2.528 2.646c-12.837 14.229-29.241 44.724-6.821 96.583 32.985 76.435 37.944 106.382 37.944 106.382s-62.716 3.253-75.063 5.684c-10.936 2.156-53.446 3.665-63.167 3.92-3.469-4.037-13.719-12.974-27.556 0-17.325 16.247-29.692 70.556-29.692 70.556s-6.6 43.862 15.679 32.475c0 0 26.4-36.552 33.807-38.178 3.685-.8 7.585-6.232 10.564-11.465l.157.1c.176 0 .9-.392 2.077-.862 5.488-2.175 20.6-7.408 32.515-4.8 6.526 1.431 34.513 1.764 63.853 1.686-6.625 15.875-18.5 56.836-18.5 56.836s-4.959 38.2 11.5 36.63c11.759-1.156 29.79-31.2 39.2-48.35 6.82-5 26.36-22.911 40.8-21.559l97.327-37.355s23.088-12.994 10.72-56.033c-9.8-34.219-37.688-104.265-48.7-131.567l-.333-.706c-2.665-6.6-4.272-10.524-4.272-10.524a161.086 161.086 0 0 1 -8.839-38.629c-.1-1.039-.176-2.1-.255-3.136a17.32 17.32 0 0 0 3.822-2.215s-9.074-91.761 0-101.521l.157-.176v-.118l.156-.2.353-.451.431-.549c.49-.647 1.078-1.45 1.744-2.43 5.194-7.6 14.875-24.969 12.092-45.469q-.176-1.333-.431-2.685a55.99 55.99 0 0 0 -5.644-15.914 44.12 44.12 0 0 1 -.725-6.291v-5.566a18.819 18.819 0 0 1 .294-2.822v-.353a3.524 3.524 0 0 1 .176-1.078v-.451a5.143 5.143 0 0 1 .236-1.058v-.367c.118-.47.235-.941.392-1.411v-.235q.176-.588.392-1.156l.176-.451.392-.941.2-.47c.157-.353.333-.706.51-1.058l.137-.294q.353-.647.745-1.274l.216-.333.647-.921.313-.412.686-.823.314-.353c.353-.372.705-.745 1.1-1.1 10.72-9.8 58.561-82.021 58.561-82.021s11.544-16.247 11.544-26.792c.65-.237 21.05-68.245 18.991-88.922zm-128.43 607.067c-1.176-11.132-2.352-24.93-3.43-39.2l18.658 29.085s-1.764 8.866-15.228 10.115z" fill="url(#c)" transform="translate(471.555 -46.559)"/><path d="m822 531.781s-11.171-17.639-27.948-1.587-28.732 69.439-28.732 69.439-6.389 43.117 15.169 31.926c0 0 25.478-35.924 32.73-37.512s15.17-21.559 15.17-21.559z" fill="#493545" transform="translate(488.626 268.711)"/><path d="m875.166 551.514s-15.17-7.193-19.952-1.587-20.755 61.462-20.755 61.462-4.782 36.728 11.171 35.121 43.9-59.11 43.9-59.11z" fill="#493545" transform="translate(555.192 292.075)"/><path d="m875.166 551.514s-15.17-7.193-19.952-1.587-20.755 61.462-20.755 61.462-4.782 36.728 11.171 35.121 43.9-59.11 43.9-59.11z" opacity=".05" transform="translate(555.192 292.075)"/><path d="m911.552 541.929 34.317 53.485s-2.391 11.975-23.146 9.584l-71.045 44.7s-6.178 54.431 13.562 49.492c3.195-.8 25.478-23.95 41.51-22.343l94.211-36.728s22.342-12.778 10.367-55.072-51.563-140.367-51.563-140.367l-62.579 35z" fill="#3e3d77" transform="translate(571.487 193.103)"/><path d="m911.552 541.929 34.317 53.485s-2.391 11.975-23.146 9.584l-71.045 44.7s-6.178 54.431 13.562 49.492c3.195-.8 25.478-23.95 41.51-22.343l94.211-36.728s22.342-12.778 10.367-55.072-51.563-140.367-51.563-140.367l-62.579 35z" opacity=".05" transform="translate(571.487 193.103)"/><path d="m993.072 649.153c4.782 30.339-22.342 32.73-22.342 32.73s-122.14 2.391-136.506-.8-33.533 5.586-33.533 5.586c-24.753-15.169-4.782-52.682-4.782-52.682s51.094-1.587 63.069-3.92 72.633-5.645 72.633-5.645-4.782-29.535-36.728-104.559c-21.7-50.957-5.879-80.943 6.6-94.917a52.563 52.563 0 0 1 10.956-9.643l98.19 4.782a127.268 127.268 0 0 0 .549 14.836 158.01 158.01 0 0 0 13.033 49c-5.585 0-41.51 33.533-41.51 33.533s5.569 101.379 10.371 131.699z" fill="#3e3d77" transform="translate(511.526 164.902)"/><path d="m803.077 637.149s51.094-1.587 63.069-3.92 72.633-5.586 72.633-5.586-4.779-29.535-36.728-104.559c-21.7-50.957-5.879-80.943 6.605-94.917a52.563 52.563 0 0 1 10.956-9.643l90.977 4.429v-2.842l-98.189-4.781a52.569 52.569 0 0 0 -10.956 9.643c-12.425 13.994-28.3 43.96-6.6 94.917 32.024 74.965 36.767 104.5 36.767 104.5s-60.756 3.195-72.633 5.586-63.078 3.924-63.078 3.924-19.952 37.532 4.782 52.76c0 0 .745-.353 1.96-.862-16.442-16.919.435-48.649.435-48.649z" opacity=".1" transform="translate(511.53 164.93)"/><path d="m0 0h49.487v125.315h-49.487z" fill="#493545" transform="translate(1411.19 287.22)"/><path d="m0 0h49.487v125.315h-49.487z" opacity=".1" transform="translate(1411.19 287.22)"/><path d="m895.814 266.806c1.705.47 3.626.529 4.782 2.881a17.628 17.628 0 0 1 1.157 5.88l3.116 38.727a21.56 21.56 0 0 0 1.451 7.408c1.313 2.626 3.488 2.94 5.194 4.625 3.43 3.41 4.429 11.955 3.489 18.913s-3.312 12.916-5.174 19.207c-2.665 9.016-4.43 19.148-8.173 26.752s-10.544 11.759-14.934 5.37-3.8-19.285-4.626-29.849c-1.372-17.639-8.251-32.848-8.721-50.6-.392-14.366 3.469-27.772 5.88-41.393 1.725-9.349 1.823-20.7 4.332-29.1 2.095 9.989 6.093 19.494 12.227 21.179z" fill="#493545" transform="translate(593.163 2.03)"/><path d="m895.814 266.806c1.705.47 3.626.529 4.782 2.881a17.628 17.628 0 0 1 1.157 5.88l3.116 38.727a21.56 21.56 0 0 0 1.451 7.408c1.313 2.626 3.488 2.94 5.194 4.625 3.43 3.41 4.429 11.955 3.489 18.913s-3.312 12.916-5.174 19.207c-2.665 9.016-4.43 19.148-8.173 26.752s-10.544 11.759-14.934 5.37-3.8-19.285-4.626-29.849c-1.372-17.639-8.251-32.848-8.721-50.6-.392-14.366 3.469-27.772 5.88-41.393 1.725-9.349 1.823-20.7 4.332-29.1 2.095 9.989 6.093 19.494 12.227 21.179z" opacity=".1" transform="translate(593.163 2.03)"/><path d="m804.664 257.32-19.148 15.973s-2.273-2.665-5.664-6.977c-13.307-16.992-43.9-59.619-22.284-67.243s38.708 33.945 44.744 51.114c1.529 4.35 2.352 7.133 2.352 7.133z" fill="#c77485" transform="translate(474.822 -43.537)"/><path d="m972.077 251.5c-7.977 11.975-19.148 0-19.148 0s-1.43-2.136-3.449-5.586c-6.566-11.112-19.442-35.748-10.917-45.508 9.8-11.152 34.082 26.909 34.827 44.764a10.621 10.621 0 0 1 -1.313 6.33z" fill="#c77485" transform="translate(653.053 -43.301)"/><path d="m854.08 298.093s15.974 51.094 11.172 66.244 34.337 32.789 34.337 32.789h44.7s15.973-32.73 11.974-42.314-38.315-16.757-38.315-16.757-19.952 0-19.148-53.485z" fill="#c77485" transform="translate(574.67 39.417)"/><path d="m790.072 231.834-19.148 15.973s-2.273-2.666-5.664-6.977c6.958-1.235 17.756-11.387 22.48-16.13 1.509 4.351 2.332 7.134 2.332 7.134z" opacity=".1" transform="translate(489.414 -18.051)"/><path d="m965.347 228.619c-7.976 11.975-19.148 0-19.148 0s-1.43-2.136-3.449-5.586l.255-.8c5.174 3.7 21.264.549 23.655 0a10.625 10.625 0 0 1 -1.312 6.389z" opacity=".1" transform="translate(659.783 -20.422)"/><path d="m955.753 434.918c-24.695 11.269-104.932-8.8-109.753-10a52.553 52.553 0 0 1 10.956-9.643l98.19 4.782a127.4 127.4 0 0 0 .607 14.861z" opacity=".1" transform="translate(566.915 164.882)"/><path d="m950.453 401.017s-19.148 6.389-46.292-18.364c0 0-60.756-59.874-64.676-74.24l-47.037-82.313s-19.948 21.557-27.948 18.362l52.682 91.8s9.584 17.639 18.364 22.343c0 0 65.46 83.824 66.244 100.581s29.5 61.638 29.5 61.638 9.584 72.633-7.193 85.411c0 0 93.388 23.95 113.34 7.977 0 0-8.78-90.154 0-99.777 0 0 27.144-31.926 8.781-67.047 0 0-3.92-19.148 6.389-28.732s56.679-80.629 56.679-80.629 11.172-15.973 11.172-26.341c0 0 20.755-70.242 17.638-88.606 0 0-18.364 3.92-23.949 0 0 0-27.144 82.315-30.339 85.411s-25.479 67.851-55.073 75.044-34.322 10.365-34.322 10.365 57.464 35.924 29.536 51.878-73.496-44.761-73.496-44.761z" fill="#ffaac4" transform="translate(488.685 -19.606)"/><path d="m900.351 308.846a152.546 152.546 0 0 1 -1.151-22.676l-44.7 13.562a60.321 60.321 0 0 1 2.8 9.172c5.115 2.254 12.014 7.585 17.952 7.585a40.706 40.706 0 0 0 25.099-7.643z" opacity=".1" transform="translate(575.064 40.953)"/><circle cx="1449.505" cy="313.56" fill="#c77485" r="41.51"/><path d="m856.688 246.895c-9.133.706-19.324 7.016-18.815 16.169.274 5.037 3.724 9.29 5.233 14.111 3.626 11.661-4.449 23.362-11.544 33.318s-13.719 23.146-7.644 33.69a83.078 83.078 0 0 0 5.605 7.31c7.506 10.133 7.408 23.812 10.74 35.983a63.128 63.128 0 0 0 74.162 45.077 39.472 39.472 0 0 1 -8.329-26.693c.451-6.977 2.7-14.268 0-20.716-3.489-8.29-13.719-11.563-18.991-18.815s-4.919-17.306-2.371-25.949 6.958-16.659 9.074-25.479a76.769 76.769 0 0 1 1.96-7.624c3.685-10.466 14.7-16.541 25.478-19.148s22.107-2.763 32.632-6.193 20.755-11.465 21.97-22.5c-8.859 3.547-17.071-5.7-25.616-9.956-14.072-6.977-30.123-.412-44.626 1.2-16.522 1.84-32.2-5-48.918-3.785z" opacity=".1" transform="translate(543.429 2.715)"/><path d="m856.278 246.085c-9.133.706-19.325 7.016-18.815 16.169.274 5.037 3.724 9.29 5.233 14.111 3.626 11.661-4.449 23.362-11.544 33.318s-13.719 23.146-7.644 33.69a83.063 83.063 0 0 0 5.605 7.31c7.506 10.133 7.408 23.813 10.74 35.983a63.127 63.127 0 0 0 74.162 45.077 39.472 39.472 0 0 1 -8.33-26.693c.451-6.977 2.7-14.268 0-20.716-3.489-8.29-13.719-11.563-18.991-18.815s-4.919-17.306-2.372-25.949 6.957-16.659 9.075-25.479a76.66 76.66 0 0 1 1.96-7.624c3.685-10.466 14.7-16.541 25.478-19.148s22.108-2.763 32.632-6.193 20.755-11.465 21.97-22.5c-8.859 3.547-17.071-5.7-25.616-9.956-14.072-6.977-30.123-.412-44.626 1.2-16.481 1.82-32.101-5.098-48.917-3.785z" fill="#493545" transform="translate(543.036 1.937)"/><path d="m885.65 326.3s16.62 14.836 19.893 21.382" opacity=".1" transform="translate(604.973 79.472)"/><path d="m934.889 371.51s-20.755 0-30.339 2.391-32.73 0-32.73 0" opacity=".1" transform="translate(591.699 122.868)"/><g opacity=".1" transform="translate(1253.165 203.415)"><path d="m911.316 362.088a19.955 19.955 0 0 1 -5.743 2.2 21.949 21.949 0 0 0 15.326-2.2c27.948-15.973-29.535-51.878-29.535-51.878h-9.584s57.483 35.925 29.536 51.878z" transform="translate(-651.906 -139.387)"/><path d="m960.153 224.5a8.394 8.394 0 0 0 -.2-1.45 93.756 93.756 0 0 1 -9.937 1.509 44.017 44.017 0 0 0 10.137-.059z" transform="translate(-586.405 -223.05)"/><path d="m933.706 595.647c16.757-12.778 7.193-85.411 7.193-85.411s-28.732-44.7-29.535-61.462-66.244-100.581-66.244-100.581c-8.78-4.782-18.364-22.343-18.364-22.343s-54.289-88.606-62.265-91.8l52.682 91.8s9.584 17.639 18.364 22.343c0 0 65.46 83.824 66.244 100.581s29.519 61.521 29.519 61.521 9.584 72.633-7.193 85.411c0 0 57.4 14.719 91.82 13.386-34.498-1.215-82.221-13.445-82.221-13.445z" transform="translate(-764.49 -212.491)"/><path d="m860.667 314.488-.471-.608a12.641 12.641 0 0 1 -1.666.373c.745.097 1.451.176 2.137.235z" transform="translate(-674.224 -135.864)"/></g><g opacity=".1" transform="translate(1525.353 203.317)"><path d="m1000.805 223-.49.1c-.843 24.518-17.855 82.119-17.855 82.119 0 10.368-11.171 26.341-11.171 26.341s-46.289 71.04-56.679 80.627-6.389 28.732-6.389 28.732l.1.2c-.313-6.448.471-16.443 7.075-22.558 10.368-9.584 56.68-80.629 56.68-80.629s11.171-15.973 11.171-26.341c-.002.109 20.753-70.129 17.558-88.591z" transform="translate(-899.44 -223)"/><path d="m903.37 390.5c1.2 6.781.392-.392.8 6.389 0 0 19.6-22.989 14.248-51.408 1.611 25.399-15.048 45.019-15.048 45.019z" transform="translate(-903.37 -105.434)"/></g><ellipse cx="920.77" cy="1215.946" fill="#001f40" opacity=".1" rx="838.18" ry="80.512"/><path d="m434.612 849.507s-28.536-96.916 5.35-168.236a153.066 153.066 0 0 0 12.387-96.034 257.4 257.4 0 0 0 -13.6-45.077" fill="none" stroke="#535461" stroke-miterlimit="10" stroke-width="2" transform="translate(161.25 284.752)"/><g fill="#001f40"><path d="m463.146 528.518c0 11.877-21.559 46.312-21.559 46.312s-21.559-34.435-21.559-46.312a21.559 21.559 0 1 1 43 0z" transform="translate(157.978 251.356)"/><path d="m481.275 567.646c-6.448 9.976-43.215 27.183-43.215 27.183s.666-40.589 7.114-50.565a21.559 21.559 0 1 1 36.1 23.381z" transform="translate(175.343 278.002)"/><path d="m484.277 628.43c-10.6 5.35-50.957 1.646-50.957 1.646s21.069-34.71 31.672-40.06a21.559 21.559 0 1 1 19.364 38.394z" transform="translate(170.793 329.655)"/><path d="m473.456 669.848c-9.545 7.055-50.036 10.25-50.036 10.25s14.9-37.767 24.459-44.842a21.559 21.559 0 0 1 25.478 34.572z" transform="translate(161.29 373.021)"/><path d="m418.761 584.429c8.526 8.271 48.213 16.855 48.213 16.855s-9.8-39.413-18.246-47.7a21.559 21.559 0 1 0 -29.967 30.848z" transform="translate(149.447 290.715)"/><path d="m408.656 636.125c10.6 5.35 50.957 1.646 50.957 1.646s-20.99-34.709-31.593-39.962a21.559 21.559 0 0 0 -19.364 38.391z" transform="translate(137.073 338.502)"/><path d="m404.158 687c9.545 7.055 50.036 10.25 50.036 10.25s-14.9-37.767-24.46-44.842a21.559 21.559 0 1 0 -25.478 34.572z" transform="translate(132.947 387.304)"/><path d="m463.146 528.518c0 11.877-21.559 46.312-21.559 46.312s-21.559-34.435-21.559-46.312a21.559 21.559 0 1 1 43 0z" opacity=".1" transform="translate(157.978 251.356)"/><path d="m481.275 567.646c-6.448 9.976-43.215 27.183-43.215 27.183s.666-40.589 7.114-50.565a21.559 21.559 0 1 1 36.1 23.381z" opacity=".1" transform="translate(175.343 278.002)"/><path d="m484.277 628.43c-10.6 5.35-50.957 1.646-50.957 1.646s21.069-34.71 31.672-40.06a21.559 21.559 0 1 1 19.364 38.394z" opacity=".1" transform="translate(170.793 329.655)"/><path d="m473.456 669.848c-9.545 7.055-50.036 10.25-50.036 10.25s14.9-37.767 24.459-44.842a21.559 21.559 0 0 1 25.478 34.572z" opacity=".1" transform="translate(161.29 373.021)"/><path d="m418.761 584.429c8.526 8.271 48.213 16.855 48.213 16.855s-9.8-39.413-18.246-47.7a21.559 21.559 0 1 0 -29.967 30.848z" opacity=".1" transform="translate(149.447 290.715)"/><path d="m408.656 636.125c10.6 5.35 50.957 1.646 50.957 1.646s-20.99-34.709-31.593-39.962a21.559 21.559 0 0 0 -19.364 38.391z" opacity=".1" transform="translate(137.073 338.502)"/><path d="m404.158 687c9.545 7.055 50.036 10.25 50.036 10.25s-14.9-37.767-24.46-44.842a21.559 21.559 0 1 0 -25.478 34.572z" opacity=".1" transform="translate(132.947 387.304)"/></g><path d="m729.252 850.217s-28.535-96.917 5.348-168.236a153.064 153.064 0 0 0 12.387-96.034 257.431 257.431 0 0 0 -13.6-45.077" fill="none" stroke="#535461" stroke-miterlimit="10" stroke-width="2" transform="translate(444.067 285.433)"/><path d="m757.737 527.66c0 11.877-21.559 46.312-21.559 46.312s-21.558-34.436-21.558-46.312a21.559 21.559 0 0 1 43 0z" fill="#001f40" transform="translate(440.806 253.586)"/><path d="m775.926 568.346c-6.448 9.976-43.215 27.183-43.215 27.183s.666-40.589 7.114-50.565a21.559 21.559 0 1 1 36.1 23.381z" fill="#001f40" transform="translate(458.17 278.673)"/><path d="m778.957 629.149c-10.603 5.351-50.957 1.651-50.957 1.651s21.069-34.71 31.672-40.06a21.559 21.559 0 1 1 19.285 38.413z" fill="#001f40" transform="translate(453.649 330.308)"/><path d="m768.1 670.548c-9.545 7.055-50.036 10.25-50.036 10.25s14.9-37.767 24.459-44.842a21.559 21.559 0 0 1 25.477 34.573z" fill="#001f40" transform="translate(444.108 373.694)"/><path d="m713.422 585.129c8.526 8.271 48.213 16.855 48.213 16.855s-9.8-39.413-18.246-47.7a21.559 21.559 0 1 0 -29.967 30.848z" fill="#001f40" transform="translate(432.284 291.387)"/><path d="m703.333 636.872c10.6 5.351 50.957 1.646 50.957 1.646s-21.068-34.709-31.671-40.06a21.559 21.559 0 0 0 -19.364 38.394z" fill="#001f40" transform="translate(419.853 339.126)"/><path d="m697.3 686.588c9.545 7.056 50.036 10.25 50.036 10.25s-14.9-37.767-24.459-44.842a21.559 21.559 0 0 0 -25.479 34.572z" fill="#001f40" transform="translate(417.287 389.09)"/><path d="m757.737 527.66c0 11.877-21.559 46.312-21.559 46.312s-21.558-34.436-21.558-46.312a21.559 21.559 0 0 1 43 0z" fill="#001f40" opacity=".1" transform="translate(440.806 253.586)"/><path d="m775.926 568.346c-6.448 9.976-43.215 27.183-43.215 27.183s.666-40.589 7.114-50.565a21.559 21.559 0 1 1 36.1 23.381z" fill="#001f40" opacity=".1" transform="translate(458.17 278.673)"/><path d="m778.957 629.149c-10.603 5.351-50.957 1.651-50.957 1.651s21.069-34.71 31.672-40.06a21.559 21.559 0 1 1 19.285 38.413z" fill="#001f40" opacity=".1" transform="translate(453.649 330.308)"/><path d="m768.1 670.548c-9.545 7.055-50.036 10.25-50.036 10.25s14.9-37.767 24.459-44.842a21.559 21.559 0 0 1 25.477 34.573z" fill="#001f40" opacity=".1" transform="translate(444.108 373.694)"/><path d="m713.422 585.129c8.526 8.271 48.213 16.855 48.213 16.855s-9.8-39.413-18.246-47.7a21.559 21.559 0 1 0 -29.967 30.848z" fill="#001f40" opacity=".1" transform="translate(432.284 291.387)"/><path d="m703.333 636.872c10.6 5.351 50.957 1.646 50.957 1.646s-21.068-34.709-31.671-40.06a21.559 21.559 0 0 0 -19.364 38.394z" fill="#001f40" opacity=".1" transform="translate(419.853 339.126)"/><path d="m697.3 686.588c9.545 7.056 50.036 10.25 50.036 10.25s-14.9-37.767-24.459-44.842a21.559 21.559 0 0 0 -25.479 34.572z" fill="#001f40" opacity=".1" transform="translate(417.287 389.09)"/><path d="m856.739 142.992h-12.308a8.623 8.623 0 1 0 0-17.227h-99.8a8.623 8.623 0 0 0 0 17.227h12.308a8.623 8.623 0 0 0 0 17.227h-17.224a8.623 8.623 0 1 0 0 17.227h99.719a8.623 8.623 0 1 0 0-17.227h17.306a8.624 8.624 0 0 0 0-17.227z" fill="#dee3f3" opacity=".5" transform="translate(456.222 -113.026)"/><path d="m547.759 166.616h-9.368a6.566 6.566 0 1 0 0-13.112h-75.891a6.566 6.566 0 0 0 0 13.112h9.368a6.566 6.566 0 1 0 0 13.112h-13.107a6.566 6.566 0 1 0 0 13.112h75.886a6.566 6.566 0 1 0 0-13.112h13.112a6.566 6.566 0 0 0 0-13.112z" fill="#dee3f3" opacity=".5" transform="translate(188.567 -86.399)"/><path d="m178.446 634s34.3 67.322 6.35 104.148 2.548 137.191 2.548 137.191" fill="none" stroke="#001f40" stroke-miterlimit="10" transform="translate(-79.08 374.826)"/><path d="m190.33 634.779c0 12.974-9.525 23.518-9.525 23.518s-9.525-10.524-9.525-23.518 9.52-23.519 9.52-23.519 9.53 10.54 9.53 23.519z" fill="#001f40" transform="translate(-80.733 352.999)"/><path d="m193.33 634s-34.3 67.322-6.35 104.148-2.548 137.191-2.548 137.191" fill="none" stroke="#001f40" stroke-miterlimit="10" transform="translate(-76.188 374.826)"/><path d="m179.67 634.779c0 12.974 9.525 23.518 9.525 23.518s9.525-10.524 9.525-23.518-9.52-23.519-9.52-23.519-9.53 10.54-9.53 23.519z" fill="#001f40" transform="translate(-72.68 352.999)"/><path d="m179.67 634.779c0 12.974 9.525 23.518 9.525 23.518s9.525-10.524 9.525-23.518-9.52-23.519-9.52-23.519-9.53 10.54-9.53 23.519z" opacity=".1" transform="translate(-72.68 352.999)"/><path d="m194.666 634s34.3 67.322 6.35 104.148 2.548 137.191 2.548 137.191" fill="none" stroke="#001f40" stroke-miterlimit="10" transform="translate(-63.511 374.826)"/><path d="m206.5 634.779c0 12.974-9.525 23.518-9.525 23.518s-9.525-10.524-9.525-23.518 9.525-23.519 9.525-23.519 9.525 10.54 9.525 23.519z" fill="#001f40" transform="translate(-65.212 352.999)"/><path d="m205.786 662.3c-9 9.349-23.166 10.329-23.166 10.329s.431-14.19 9.427-23.519 23.166-10.328 23.166-10.328-.49 14.148-9.427 23.518z" fill="#001f40" transform="translate(-69.848 379.415)"/><path d="m206.246 686c-9 9.348-23.166 10.328-23.166 10.328s.431-14.189 9.427-23.518 23.166-10.329 23.166-10.329-.431 14.149-9.427 23.519z" fill="#001f40" transform="translate(-69.407 402.164)"/><path d="m181.068 693.145c8.506 9.8 8.212 23.989 8.212 23.989s-14.091-1.705-22.6-11.5-8.212-23.989-8.212-23.989 14.094 1.701 22.6 11.5z" fill="#001f40" transform="translate(-93.03 420.555)"/><path d="m186.171 639.618c10.819 7.173 14.327 20.931 14.327 20.931s-14.033 2.136-24.851-5.037-14.327-20.932-14.327-20.932 14.092-2.174 24.851 5.038z" fill="#001f40" transform="translate(-90.294 375.088)"/><path d="m186.171 639.618c10.819 7.173 14.327 20.931 14.327 20.931s-14.033 2.136-24.851-5.037-14.327-20.932-14.327-20.932 14.092-2.174 24.851 5.038z" opacity=".1" transform="translate(-90.294 375.088)"/><path d="m209.53 634s-34.3 67.322-6.35 104.148-2.548 137.191-2.548 137.191" fill="none" stroke="#001f40" stroke-miterlimit="10" transform="translate(-60.638 374.826)"/><path d="m195.87 634.779c0 12.974 9.525 23.518 9.525 23.518s9.525-10.524 9.525-23.518-9.52-23.519-9.52-23.519-9.53 10.54-9.53 23.519z" fill="#001f40" transform="translate(-57.13 352.999)"/><path d="m195.87 634.779c0 12.974 9.525 23.518 9.525 23.518s9.525-10.524 9.525-23.518-9.52-23.519-9.52-23.519-9.53 10.54-9.53 23.519z" opacity=".1" transform="translate(-57.13 352.999)"/><path d="m202.069 656.214c-9.113 9.251-9.8 23.519-9.8 23.519s14.17-.8 23.283-10.054 9.8-23.518 9.8-23.518-14.169.803-23.283 10.053z" fill="#001f40" transform="translate(-60.585 386.498)"/><path d="m202.069 656.214c-9.113 9.251-9.8 23.519-9.8 23.519s14.17-.8 23.283-10.054 9.8-23.518 9.8-23.518-14.169.803-23.283 10.053z" opacity=".1" transform="translate(-60.585 386.498)"/><path d="m211.179 689.024c-9.113 9.251-9.8 23.518-9.8 23.518s14.17-.8 23.283-10.054 9.8-23.518 9.8-23.518-14.228.804-23.283 10.054z" fill="#001f40" transform="translate(-51.841 417.992)"/><path d="m193 693.208s20.638-32.534 49.624-33.318" fill="none" stroke="#001f40" stroke-miterlimit="10" transform="translate(-59.885 399.678)"/><path d="m209.074 683.178s-20.638-32.534-49.624-33.318" fill="none" stroke="#001f40" stroke-miterlimit="10" transform="translate(-92.089 390.05)"/><path d="m183.4 706.878s20.638-32.534 49.624-33.318" fill="none" stroke="#001f40" stroke-miterlimit="10" transform="translate(-69.1 412.799)"/><circle cx="181.739" cy="1059.391" fill="#001f40" r="5.35"/><circle cx="67.871" cy="1040.184" fill="#001f40" r="5.35"/><path d="m215.454 712.318s-20.637-32.534-49.624-33.318" fill="none" stroke="#001f40" stroke-miterlimit="10" transform="translate(-85.965 418.021)"/><circle cx="80.375" cy="1097.334" fill="#001f40" r="5.35"/><circle cx="164.316" cy="1086.633" fill="#001f40" r="5.35"/><path d="m345.042 761.086s-49.742-9.956-63.03-23.224-72.947-36.474-79.591-19.893-89.547 72.966-33.161 82.922 132.664 13.269 149.245 6.624 26.537-46.429 26.537-46.429z" fill="#a8a8a8" transform="translate(-101.429 449.902)"/><path d="m169.249 770.954c56.386 9.956 132.664 13.268 149.245 6.624 12.622-5.056 21.4-29.4 24.871-40.608l1.666.353s-9.956 39.805-26.537 46.429-92.859 3.312-149.245-6.624c-16.267-2.881-20.931-9.623-19.168-18.149 1.373 5.488 7.056 9.839 19.168 11.975z" opacity=".2" transform="translate(-101.418 473.665)"/><path d="m1042.059 641.78s16.423 21.559-7.585 53.9-43.8 59.8-35.787 80.022c0 0 36.218-60.227 65.695-61.07s10.118-36.653-22.323-72.852z" fill="#001f40" transform="translate(711.737 382.294)"/><path d="m1041.6 641.78a26.579 26.579 0 0 1 3.352 6.742c28.771 33.788 44.077 65.323 16.443 66.126-25.753.745-56.641 46.782-64.049 58.424a24.977 24.977 0 0 0 .882 2.646s36.219-60.227 65.7-61.07 10.112-36.669-22.328-72.868z" opacity=".1" transform="translate(712.192 382.294)"/><path d="m1037.43 658.093c0 7.565-.843 13.719-1.96 13.719s-1.96-6.135-1.96-13.719 1.058-3.92 2.1-3.92 1.82-3.625 1.82 3.92z" fill="#ffd037" transform="translate(746.901 393.341)"/><path d="m1047.2 662.885c-6.644 3.625-12.425 5.879-12.916 4.88s4.468-4.606 11.112-8.212 4.018-.98 4.528 0 3.903-.294-2.724 3.332z" fill="#ffd037" transform="translate(747.614 397.584)"/><path d="m993.723 641.78s-16.424 21.559 7.585 53.9 43.8 59.8 35.788 80.022c0 0-36.219-60.227-65.7-61.07s-10.109-36.653 22.327-72.852z" fill="#001f40" transform="translate(673.329 382.294)"/><path d="m993.723 641.78a26.6 26.6 0 0 0 -3.351 6.742c-28.771 33.788-44.078 65.323-16.443 66.126 25.753.745 56.64 46.782 64.049 58.424a25.048 25.048 0 0 1 -.882 2.646s-36.219-60.227-65.7-61.07-10.109-36.669 22.327-72.868z" opacity=".1" transform="translate(673.329 382.294)"/><path d="m960.09 658.093c0 7.565.843 13.719 1.96 13.719s1.96-6.135 1.96-13.719-1.059-3.92-2.1-3.92-1.82-3.625-1.82 3.92z" fill="#ffd037" transform="translate(676.427 393.341)"/><path d="m956.724 662.885c6.644 3.625 12.426 5.879 12.915 4.88s-4.469-4.606-11.112-8.212-4.018-.98-4.527 0-3.92-.294 2.724 3.332z" fill="#ffd037" transform="translate(669.308 397.584)"/><path d="m962.76 720.818s45.92-1.411 59.757-11.269 70.556-21.559 74.064-5.879 69.007 78.61 17.169 79.022-120.45-8.076-134.272-16.484-16.718-45.39-16.718-45.39z" fill="#a8a8a8" transform="translate(678.99 434.353)"/><path d="m1114.67 765.134c-51.839.411-120.454-8.075-134.271-16.483-10.524-6.409-14.718-29.4-16.11-40h-1.529s2.9 37.042 16.718 45.449 82.432 16.914 134.271 16.483c14.974-.118 20.128-5.448 19.854-13.327-2.078 4.801-7.703 7.78-18.933 7.878z" opacity=".2" transform="translate(678.99 446.481)"/><path d="m364.238 202.322h-12.308a8.624 8.624 0 1 0 0-17.227h-99.719a8.623 8.623 0 0 0 0 17.227h12.308a8.623 8.623 0 0 0 0 17.227h-17.227a8.624 8.624 0 0 0 0 17.227h99.719a8.623 8.623 0 1 0 0-17.227h17.227a8.623 8.623 0 0 0 0-17.227z" fill="#dee3f3" opacity=".5" transform="translate(-15.654 -56.076)"/></svg>