<svg height="1121.474" viewBox="0 0 1369.973 1121.474" width="1369.973" xmlns="http://www.w3.org/2000/svg" xmlns:xlink="http://www.w3.org/1999/xlink"><linearGradient id="a" gradientUnits="objectBoundingBox" x1=".5" x2=".5" y1="1"><stop offset="0" stop-color="#808080" stop-opacity=".251"/><stop offset=".54" stop-color="#808080" stop-opacity=".122"/><stop offset="1" stop-color="#808080" stop-opacity=".102"/></linearGradient><linearGradient id="b" x1=".5" x2=".5" xlink:href="#a" y1="1.228" y2=".201"/><linearGradient id="c" x1=".5" x2=".5" xlink:href="#a" y1="1" y2="0"/><ellipse cx="235.586" cy="1081.33" fill="#001f40" opacity=".1" rx="235.586" ry="40.143"/><ellipse cx="1134.387" cy="1071.827" fill="#001f40" opacity=".1" rx="235.586" ry="40.143"/><path d="m434.161 31.69c-61.574 3.293-123.79 21.283-171.831 59.954-42.151 33.946-72.55 87.314-65.134 140.937 8.754 63.3 65.228 109.347 86.176 169.729 13.479 38.818 11.378 81.652 2.557 121.809-5.675 25.874-14.4 51.775-31.175 72.282-30.211 36.891-84.731 54.693-99.575 100-16.143 49.276 24.535 97.599 62.751 132.641 30.506 27.963 62.457 55.791 100.9 71.118 28.11 11.217 58.615 15.246 88.853 16.853a592.591 592.591 0 0 0 244.957-39.141c37.359-14.5 73.5-32.875 112.6-41.616 83.325-18.633 169.06 8.232 253.51 20.815a758.211 758.211 0 0 0 218.412.643c45.591-6.505 92.695-18.245 127.029-48.924 34.8-31.148 52.2-79.363 50.276-126.079s-21.631-91.691-50.651-128.368c-37.48-47.371-89.175-81.076-134.15-121.447a580.05 580.05 0 0 1 -115.41-142.663c-17.669-30.787-32.7-63.461-55.59-90.567-35.7-42.245-87.475-67.37-139.21-86.779-119.347-44.708-243.137-53.81-367.569-73.567-38.887-6.198-78.333-9.691-117.726-7.63z" fill="#001f40" opacity=".1" transform="translate(-66.847 -31.097)"/><g opacity=".7" transform="translate(346.071 96.621)"><path d="m0 0h255.611v142.837h-255.611z" fill="#f6f7f9" transform="translate(0 394.754)"/><g fill="#001f40"><circle cx="48.122" cy="458.162" opacity=".2" r="26.611"/><path d="m0 0h115.946v7.295h-115.946z" opacity=".2" transform="translate(107.178 426.625)"/><path d="m0 0h59.071v7.295h-59.071z" opacity=".2" transform="translate(107.178 445.218)"/><path d="m0 0h95.533v7.295h-95.533z" opacity=".2" transform="translate(107.178 463.81)"/><path d="m0 0h115.946v7.295h-115.946z" opacity=".2" transform="translate(107.178 482.403)"/><path d="m0 0h32.085v14.095h-32.085z" opacity=".2" transform="translate(191.052 509.241)"/></g><path d="m0 0h255.611v142.837h-255.611z" fill="#f6f7f9" transform="translate(215.2)"/><circle cx="263.335" cy="63.408" fill="#001f40" opacity=".2" r="26.611"/><path d="m0 0h115.946v7.295h-115.946z" fill="#001f40" opacity=".2" transform="translate(322.392 31.871)"/><path d="m0 0h59.071v7.295h-59.071z" fill="#001f40" opacity=".2" transform="translate(322.392 50.464)"/><path d="m0 0h95.533v7.295h-95.533z" fill="#001f40" opacity=".2" transform="translate(322.392 69.056)"/><path d="m0 0h115.946v7.295h-115.946z" fill="#001f40" opacity=".2" transform="translate(322.392 87.662)"/><path d="m0 0h32.085v14.095h-32.085z" fill="#001f40" opacity=".2" transform="translate(406.252 114.487)"/><path d="m0 0h255.611v142.837h-255.611z" fill="#f6f7f9" transform="translate(300.279 239.816)"/><circle cx="348.4" cy="303.237" fill="#001f40" opacity=".2" r="26.611"/><path d="m0 0h115.946v7.295h-115.946z" fill="#001f40" opacity=".2" transform="translate(407.47 271.7)"/><path d="m0 0h59.071v7.295h-59.071z" fill="#001f40" opacity=".2" transform="translate(407.47 290.293)"/><path d="m0 0h95.533v7.295h-95.533z" fill="#001f40" opacity=".2" transform="translate(407.47 308.885)"/><path d="m0 0h115.946v7.295h-115.946z" fill="#001f40" opacity=".2" transform="translate(407.47 327.478)"/><path d="m0 0h32.085v14.095h-32.085z" fill="#001f40" opacity=".2" transform="translate(491.331 354.316)"/></g><path d="m0 0h429.824v242.868h-429.824z" fill="url(#a)" transform="translate(256.842 181.633)"/><path d="m0 0h423.787v236.831h-423.787z" fill="#f6f7f9" transform="translate(259.881 184.645)"/><circle cx="339.659" cy="289.789" fill="#001f40" opacity=".2" r="44.119"/><path d="m0 0h192.244v12.087h-192.244z" fill="#001f40" opacity=".2" transform="translate(437.601 237.491)"/><path d="m0 0h97.929v12.087h-97.929z" fill="#001f40" opacity=".2" transform="translate(437.601 268.331)"/><path d="m0 0h158.391v12.087h-158.391z" fill="#001f40" opacity=".2" transform="translate(437.601 299.158)"/><path d="m0 0h192.244v12.087h-192.244z" fill="#001f40" opacity=".2" transform="translate(437.601 329.985)"/><path d="m0 0h53.194v23.371h-53.194z" fill="#001f40" transform="translate(576.637 374.479)"/><path d="m0 0h408.822v228.452h-408.822z" fill="url(#a)" transform="translate(558.339 509.727)"/><path d="m0 0h403.173v225.306h-403.173z" fill="#f6f7f9" transform="translate(561.163 511.293)"/><circle cx="637.073" cy="611.323" fill="#001f40" opacity=".2" r="41.977"/><path d="m0 0h182.887v11.498h-182.887z" fill="#001f40" opacity=".2" transform="translate(730.236 561.569)"/><path d="m0 0h93.164v11.498h-93.164z" fill="#001f40" opacity=".2" transform="translate(730.236 590.91)"/><path d="m0 0h150.681v11.498h-150.681z" fill="#001f40" opacity=".2" transform="translate(730.236 620.238)"/><path d="m0 0h182.887v11.498h-182.887z" fill="#001f40" opacity=".2" transform="translate(730.236 649.566)"/><path d="m0 0h50.611v22.233h-50.611z" fill="#001f40" opacity=".5" transform="translate(862.513 691.891)"/><path d="m171.13 319.005.991.214a1.338 1.338 0 0 0 -.991-.214z" fill="url(#b)" opacity=".1" transform="translate(-60.217 66.369)"/><path d="m393.975 497.783c-2.958-19.864-21-66.2-21-66.2-.321-1.339-.669-2.757-1.071-4.123-12.81-44.025-30.532-47.92-30.532-47.92l-63.49-13.54a4.737 4.737 0 0 1 1.338 1.258l-1 .161a24.858 24.858 0 0 1 -5.568-12.047c-.12-.656-.228-1.339-.308-2.035a44.641 44.641 0 0 0 -3.644-67.137c-.656-.522-1.339-1.017-2.035-1.513 3-3.172 3.092-7.6.857-12.047-5.006-10.4-15.875-16.973-27.066-20.172-8.54-2.45-17.8-3.239-26.262-.562-4.832 1.526-9.223 4.109-13.747 6.371-8.433 4.217-17.722 7.55-24.094 14.47-1.486 1.62-2.838 3.681-2.409 5.809.335 1.593 1.579 2.811 2.4 4.23 1.807 3.159 1.339 7.135.12 10.575s-3.065 6.693-3.935 10.173-.522 7.683 2.128 10.2a45.974 45.974 0 0 0 4.016 2.811 20.438 20.438 0 0 1 3.788 4.243l7.523 10.16a103.85 103.85 0 0 1 9.37 14.309c1.861 3.681 3.32 7.63 5.823 10.923a17.162 17.162 0 0 0 2.5 2.677c-.241-.094-.5-.174-.736-.281a11.391 11.391 0 0 0 8.406 3.226h.375a2.289 2.289 0 0 0 1.539-.629v1.339c.134 4.886.12 10.079-.228 14.952l-.589-.294a5.1 5.1 0 0 0 -5.475.576l-58.482 46.85s-12.7 17.4-10.936 47.385l-10.24 45s-12.81 38.189-2.958 65.455 15.567 42.834 15.567 42.834 3.935 30.974 9.852 33.464 8.473 3.908 8.473 3.908l1.178 7.4s.388.71 1.084 1.941c4.31 7.483 20.252 33.906 29.529 31.095a120.234 120.234 0 0 1 1.513 21.7l9.156 61.574s6.4 16.745 6.01 25.513 7.482 21.243 7.482 21.243a40.612 40.612 0 0 0 -3.935 28.632c3.748 16.37 8.473 91.946 8.473 91.946l6.894 18.312-.2 21.417a20.535 20.535 0 0 1 -4.23 9.5c-4.444 4.819-4.15 10.387-14.724 16.96s-17.4 9.049-17.4 17.816a23.124 23.124 0 0 1 -.321 3.614c-.99 6.412-2.9 9.865 16.732 11.739 23.05 2.182 38.417-12.864 38.417-12.864s3.387-6.144 19.356-8.62c0 0 5.448-.294 5.756-5.126.107-1.66.08-4.846-.067-8.353-.254-6.693-.9-14.483-1.74-14.871-1.057-.469-2.931-7.2-3.574-9.638h4.444s4.136-30.974 0-51.052-.388-34.281-.388-34.281l-.79-52.98s-5.582-5.662-1.2-15.969 0-61.36 0-61.36 1.593-18.311 6.117-22.595.228-26.838 0-28.016l8.031 27.039s3.547 53.77 11.043 63.515l2.168 24.335s15.367 22.407 12.408 34.495 3.159 55.711 3.159 55.711v44.614s-6.907 17.923 2.758 24.348l4.163-.161c-1.419 1.339-2.436 3.2-4.016 4.845-1.847 1.9-2.891 9.129-3.48 15.34-.5 5.26-.656 9.785-.656 9.785s4.136 6.572 11.819 7.014 33.1 19.878 33.1 19.878 25.138 0 31.63-1.339l.388-.094a8.58 8.58 0 0 0 4.9-4.015 10.226 10.226 0 0 0 1.191-7.362c-.816-3.842-3.855-8.031-10.615-11.632-16.853-8.9-19.356-17.227-19.356-17.227l-11.052-16.545h1.579s-.977-17.535 11.03-37.212l-.776-86.685s4.912-29.81-3.547-45.979c0 0-.7-17.147 4.966-22.407s-7.536-58.441-7.536-58.441-2.677-28.538-5.943-54.586c13.292 12.609 27.092-32.808 29.448-40.88h.348s-.067-.214-.161-.589a.563.563 0 0 1 .161-.576c0-.067-2.945-10.508-.79-8.379s7.5-5.836 7.5-5.836-.79-43.45 8.473-65.348-4.177-75.162-4.177-75.162zm-39.608 27.641.067-.12c1.339 26.53-.268 83.138-.268 83.138s-1.82 7.255-3.775 15.8l-1.405-53.783-1.338-50.659zm-169.635-18.284s6.693 83.767 0 95.841c-1.914 3.44-3.507 9.557-4.832 16.558-2.209-5.809-6.894-19.449-5.22-26.677 2.168-9.37-4.337-33.906-4.337-34.481s-.589-13.64 4.136-23.679 1.579-14.323 1.579-14.323 3.949-16.358 8.674-13.239z" fill="url(#c)" transform="translate(-75.961 43.092)"/><path d="m190.662 593.619c-5.823 25.647-29.033-13.145-34.321-22.447l-1.071-1.928 2.516-11.792 13.305-5.421a36.736 36.736 0 0 1 5.943 3.882c7.323 5.675 18.125 17.842 13.628 37.706z" fill="#efb7b9" transform="translate(-65.587 145.269)"/><path d="m325.883 553.4-.147.575a3.455 3.455 0 0 1 -.187.629c-2.276 8.031-15.808 53.087-28.873 40.572-14.3-13.734-7.349-45.27-7.349-45.27h.134l30.077-3.079 5.957 6.131z" fill="#efb7b9" transform="translate(-20.772 143.508)"/><path d="m349.721 774.307.763 86.043c-11.779 19.543-10.829 36.944-10.829 36.944l-38.818 1.54c-9.477-6.372-2.677-24.161-2.677-24.161v-44.293s-6.064-43.289-3.172-55.336-12.181-34.227-12.181-34.227l-2.115-24.161c-7.362-9.664-10.842-63.046-10.842-63.046l-7.911-26.771c.2 1.165 4.31 23.666 0 27.8s-6 22.434-6 22.434 4.257 50.664 0 60.9 1.151 16.063 1.151 16.063l.79 52.592s-3.681 14.122.375 34.039 0 50.665 0 50.665h-41.761l.187-21.417-6.76-18.178s-4.645-75.026-8.312-91.263a40.745 40.745 0 0 1 3.855-28.431s-7.724-12.382-7.335-21.083-5.9-25.325-5.9-25.325l-9-61.105a118.53 118.53 0 0 0 -4.444-34.8c-5.234-17.4-12.957-40.224-12.957-40.224l8.727.776 44.065 3.922s107.085-7.2 111.917-1.218a19.982 19.982 0 0 1 2.035 6.238c4.805 21.618 11.164 89.3 11.164 89.3s12.957 52.793 7.389 58.013-4.872 22.233-4.872 22.233c8.3 15.955 3.468 45.537 3.468 45.537z" fill="#444053" transform="translate(-62.012 144.416)"/><path d="m255.616 839.545c-.308 4.792-5.662 5.086-5.662 5.086-15.661 2.463-18.981 8.567-18.981 8.567s-15.086 14.925-37.68 12.823c-19.262-1.847-17.4-5.354-16.411-11.645a22.761 22.761 0 0 0 .308-3.587c0-8.7 6.693-11.177 17.12-17.7s10.146-12.047 14.5-16.826 4.792-14.055 4.792-14.055c4.926-8.567 17.4 1.339 17.4 1.339.576 3.038 19.141 2.677 19.141 2.677s2.463 9.865 3.721 10.441c.83.388 1.459 8.125 1.713 14.724.123 3.351.133 6.523.039 8.156z" fill="#b07473" transform="translate(-58.46 228.788)"/><path d="m255.616 831.326c-.308 4.792-5.662 5.086-5.662 5.086-15.661 2.463-18.981 8.567-18.981 8.567s-15.085 14.921-37.68 12.821c-19.262-1.847-17.4-5.354-16.411-11.646 8.607 2.142 25.071 5.113 34.682-.107 13.386-7.255 22.93-12.328 22.93-12.328l21.055-10.719c.151 3.521.161 6.693.067 8.326z" opacity=".1" transform="translate(-58.46 237.007)"/><path d="m344.057 864.017a8.406 8.406 0 0 1 -4.819 4.016 1.938 1.938 0 0 1 -.375.094c-6.385 1.339-31.041 1.339-31.041 1.339s-24.991-19.356-32.487-19.8-11.605-6.96-11.605-6.96.147-4.5.629-9.718c.589-6.171 1.62-13.385 3.427-15.232 3.346-3.48 4.016-8.259 11.605-5.22 0 0 10.708-18.887 23.344-4.3l13.065 19.827s2.463 8.259 19.008 17.107c6.626 3.547 9.611 7.724 10.4 11.539a10.212 10.212 0 0 1 -1.151 7.308z" fill="#b07473" transform="translate(-28.867 230.137)"/><path d="m344.057 856.358c-1.472 1.245-3.119 2.583-4.819 4.016a1.9 1.9 0 0 1 -.375.094c-6.385 1.338-31.041 1.338-31.041 1.338s-24.991-19.355-32.487-19.8-11.605-6.96-11.605-6.96.147-4.5.629-9.718c7.67 2.3 19.315 6.358 22.434 10.708 4.779 6.693 19.3 15.942 19.3 15.942s27.079-2.6 39.113-2.958a10.213 10.213 0 0 1 -1.149 7.338z" opacity=".1" transform="translate(-28.867 237.796)"/><path d="m263.272 355.832-35.686 37.707s-43.222-3.186-35.672-15.955c3.842-6.492 4.444-20.078 4.109-31.938-.321-11.418-1.5-21.136-1.5-21.136s60.623-30.171 55.978-2.035a46.675 46.675 0 0 0 -.174 16.063c2.639 14.215 12.945 17.294 12.945 17.294z" fill="#efb7b9" transform="translate(-53.48 63.489)"/><path d="m249.609 322.475a46.675 46.675 0 0 0 -.174 16.063 44.494 44.494 0 0 1 -31.724 13.238c-8.245 0-17.067-6.693-23.692-10.642-.321-11.418-.388-16.625-.388-16.625s60.622-30.171 55.978-2.034z" opacity=".1" transform="translate(-52.6 63.489)"/><path d="m267.6 317.517a44.681 44.681 0 1 1 -16.812-34.909 44.681 44.681 0 0 1 16.812 34.909z" fill="#efb7b9" transform="translate(-57.811 50.751)"/><path d="m330.865 558.952c-11.123 26.477-82.683 27.025-82.683 27.025v-28.859l-4.337-.281c1.874 8.259-2.677 28.418-2.677 28.418-56.554 8.031-70.328-24.215-70.328-24.215l1.954-11.03 44.065 3.922s107.085-7.2 111.917-1.218a19.982 19.982 0 0 1 2.088 6.238z" opacity=".1" transform="translate(-60.315 144.585)"/><path d="m248.182 653.469v-28.869l-4.337-.268c1.874 8.259-2.677 28.418-2.677 28.418-42.553 6-60.9-10.709-67.37-19.409a26.305 26.305 0 0 1 -2.958-4.818l17.254-97.166 4.016-143 6.224-25.085 1.446-12.047v-.134l.147.067 4.391 1.887 26.342 11.375 30.077-22.581.442-.335 1.486-1.125 2.476 1.994 6.144 4.926 19.73 127.351s34.214 98.063 40.558 137.644c.254 1.579.469 3.052.629 4.43 4.164 36.076-84.02 36.745-84.02 36.745z" fill="#e1e7ef" transform="translate(-60.315 73.613)"/><g fill="#67647e"><circle cx="173.651" cy="440.791" r="2.543"/><circle cx="174.829" cy="463.988" r="2.543"/><circle cx="177.359" cy="501.561" r="2.543"/><circle cx="181.575" cy="542.012" r="2.543"/><circle cx="184.105" cy="580.014" r="2.543"/><circle cx="186.648" cy="620.479" r="2.543"/><circle cx="185.631" cy="660.515" r="2.543"/></g><path d="m201.536 542.873s-2.836 37.212-8.036 48.027-7.549 41.187-7.549 41.187l-12.047-1.339a26.288 26.288 0 0 1 -2.958-4.819l17.254-97.164 4.016-143 6.224-25.085 1.446-12.047a.348.348 0 0 1 .161-.067 4.886 4.886 0 0 1 4.31.067l.589.294c-.174.5-.348 1-.509 1.526-4.712 14.791-6.479 42.071-6.479 42.071s6.773 49.888 7.536 73.1-3.958 77.249-3.958 77.249z" opacity=".1" transform="translate(-60.278 76.227)"/><path d="m177.035 555.912a8.015 8.015 0 0 1 -.455.9c-4.7 7.938-16.612 12.984-20.239 14.363l-1.071-1.928 2.516-11.792 13.305-5.421a36.733 36.733 0 0 1 5.944 3.878z" opacity=".1" transform="translate(-65.587 145.269)"/><path d="m154.46 413.06-11.016 6.612-10.067 44.668s-12.569 37.908-2.891 64.974 15.313 42.5 15.313 42.5 3.868 30.787 9.664 33.263 8.326 3.869 8.326 3.869l1.151 7.349s15.741-5.354 21.31-14.724-4.1-32.808-4.1-32.808-8.312-19.918-6.184-29.194-4.257-33.651-4.257-34.227-.576-13.546 4.016-23.505 1.553-14.2 1.553-14.2l-2.9-28.431z" fill="#67647e" transform="translate(-75.217 98.219)"/><path d="m309.213 621.334s-29.194 11.03-38.484 1.339-8.312-54.881-8.312-54.881-8.888-83.539-14.51-97.26-2.677-112.747-2.677-112.747-3.8-12.783-7.054-16.17a3.306 3.306 0 0 0 -.7-.576l1.138.241 4.016.87 6.144 4.926 19.73 127.35s34.214 98.063 40.558 137.644z" opacity=".1" transform="translate(-37.754 73.836)"/><path d="m325.466 554.577h-.335c-3.668.468-36.141 4.39-36.261-2.356a20.774 20.774 0 0 1 .134-2.342l30.077-3.079 5.957 6.131c.107.4.2.75.281 1.017z" opacity=".1" transform="translate(-20.355 143.498)"/><path d="m294.4 379.63 21.35 11.123s17.709 45.993 20.614 65.723c0 0 13.145 52.833 4.016 74.558s-8.312 64.866-8.312 64.866-5.22 7.924-7.349 5.8.776 8.313.776 8.313-36.449 4.845-36.623-2.329 8.366-41.388 8.366-41.388 2.316-81.411-.977-94.168-1.861-92.498-1.861-92.498z" fill="#67647e" transform="translate(-20.356 86.901)"/><path d="m249.815 444.41s-12.047 29.381-15.862 31.322.776 9.664.776 9.664 21.859-30.545 15.086-40.986z" opacity=".1" transform="translate(-39.461 108.833)"/><path d="m244.814 367.4c.134-.562-14.323 14.175-18.178 16.37s14.055-.116 18.178-16.37z" opacity=".1" transform="translate(-41.608 82.757)"/><path d="m214.911 442.67s-22.046 14.269-19.155 19.891 19.155-19.891 19.155-19.891z" opacity=".1" transform="translate(-51.968 108.244)"/><path d="m239.93 598.12s18.74 12.047 47.961 15.086z" opacity=".1" transform="translate(-36.925 160.873)"/><path d="m206.27 619.79s17.4 21.845 25.339 22.434-25.339-22.434-25.339-22.434z" opacity=".1" transform="translate(-48.32 168.209)"/><path d="m229.782 683.79c-.776.388-9.865 19.717-19.141 20.306s19.141-20.306 19.141-20.306z" opacity=".1" transform="translate(-47.471 189.877)"/><path d="m284.72 715.564s17.241-3.855 21.069 8.513c0 0-1.151-3.868-21.069-8.513z" opacity=".1" transform="translate(-21.761 200.441)"/><path d="m276.05 768.681s20.881-4.257 25.326 1.553-25.326-1.553-25.326-1.553z" opacity=".1" transform="translate(-24.696 218.108)"/><path d="m237.063 775.67c0 .187-21.27 4.257-20.426 6.96s22.675 2.316 23.452-1.94a4.016 4.016 0 0 0 -3.025-5.02z" opacity=".1" transform="translate(-44.819 220.983)"/><path d="m270.85 789.7s34.936-4.257 32.741 3.092-32.741-3.092-32.741-3.092z" opacity=".1" transform="translate(-26.456 225.319)"/><path d="m134.18 467.81c.2.576 23.01 3.668 26.1 11.016 0 0-22.421-10.441-25.9-10.441" opacity=".1" transform="translate(-72.727 116.755)"/><path d="m162.633 512.45s-18.954 6-17.615 15.085-1.918-4.242 17.615-15.085z" opacity=".1" transform="translate(-69.081 131.869)"/><path d="m151.56 548.841s6.907-9.477 13.479-7.737-13.479 7.737-13.479 7.737z" opacity=".1" transform="translate(-66.843 141.497)"/><path d="m250.779 282.621a11.065 11.065 0 0 1 -2.222 1.66c-5.5 3.186-6.974 8.031-9.611 13.747-2.409 5.18-5.073 10.708-9.959 13.6-6.291 3.788-14.59 2.4-21.136 5.715a16.478 16.478 0 0 0 -8.754 16.17 47.612 47.612 0 0 0 1.874 7.4 53.423 53.423 0 0 1 1.995 16.063 2.081 2.081 0 0 1 0 .5 44.681 44.681 0 1 1 47.867-74.866z" opacity=".1" transform="translate(-57.813 50.737)"/><path d="m255.24 275.738c-4.912-10.32-15.581-16.839-26.557-20.078-8.379-2.423-17.468-3.213-25.781-.549-4.738 1.513-9.062 4.016-13.493 6.318-8.286 4.19-17.4 7.5-23.625 14.376-1.446 1.593-2.784 3.654-2.356 5.769.321 1.579 1.553 2.784 2.342 4.19 1.78 3.132 1.339 7.081.12 10.494s-3 6.6-3.855 10.106-.522 7.617 2.075 10.12a47 47 0 0 0 3.909 2.784 21.061 21.061 0 0 1 3.708 4.217l7.375 10.079a101.736 101.736 0 0 1 9.236 14.216c1.847 3.654 3.266 7.563 5.716 10.829s6.291 5.89 10.361 5.528a1.968 1.968 0 0 0 1.633-.776 2.049 2.049 0 0 0 .214-1.031 52.688 52.688 0 0 0 -1.994-16.063 47.6 47.6 0 0 1 -1.874-7.4 16.491 16.491 0 0 1 8.754-16.17c6.559-3.306 14.858-1.914 21.149-5.7 4.886-2.958 7.549-8.433 9.959-13.613 2.677-5.662 4.109-10.561 9.611-13.747s6.091-8.477 3.373-13.899z" fill="#585268" transform="translate(-63.438 44.181)"/><path d="m216.61 815.58s6.8 8.7 5.06 13.626-5.06-13.626-5.06-13.626z" opacity=".1" transform="translate(-44.82 234.495)"/><path d="m285.68 834.849s1.512-11.672 7.6-11.78 6.385-.629 11.03 1.152 9 4.564 7.616 4.993-8.031-6.692-14.724-3.065a48.778 48.778 0 0 0 -11.525 8.7z" opacity=".1" transform="translate(-21.436 236.979)"/><path d="m205.9 376.268 19.061-13.385s-27.989-16.544-31.322-14.216-5.622 23.211-5.622 23.211z" opacity=".1" transform="translate(-54.499 76.343)"/><path d="m205.823 375.7 19.141-13.707s-27.989-16.531-31.322-14.215-5.622 24.375-5.622 24.375z" fill="#e1e7ef" transform="translate(-54.499 76.042)"/><path d="m205.823 375.7 19.141-13.707s-27.989-16.531-31.322-14.215-5.622 24.375-5.622 24.375z" opacity=".03" transform="translate(-54.499 76.042)"/><path d="m213.349 348.051-.576-.295a4.94 4.94 0 0 0 -5.354.562l-57.4 46.568s-12.475 17.254-10.708 47.037l33.839 47.961s3.868-16.25 8.513-13.158c0 0 6.572 83.151 0 95.145s-9.477 56.849-9.477 56.849l22.233 2.516s2.316-30.359 7.536-41.187 8.031-48.041 8.031-48.041 4.7-54.064 3.922-77.288-7.536-73.085-7.536-73.085 1.891-29.235 6.977-43.584z" fill="#67647e" transform="translate(-71.047 75.928)"/><path d="m243.32 370.278-23.84-8.834s30.372-33.25 34.147-14.8z" opacity=".1" transform="translate(-43.848 73.845)"/><path d="m243.32 369.388-23.84-8.821s30.372-33.263 34.147-14.818z" fill="#e1e7ef" transform="translate(-43.848 73.545)"/><path d="m243.32 369.388-23.84-8.821s30.372-33.263 34.147-14.818z" opacity=".03" transform="translate(-43.848 73.545)"/><path d="m236.72 340.9a1.34 1.34 0 0 1 .977.2z" opacity=".1" transform="translate(-38.011 73.78)"/><path d="m238.45 339.156 63.287 13.653s17.4 3.868 29.97 47.559-17.214 97.246-17.214 97.246l-6.572-5.582 3.293 127.631s-29.207 11.018-38.484 1.337-8.326-54.881-8.326-54.881-8.888-83.566-14.51-97.327-2.677-112.747-2.677-112.747-5.233-17.652-8.767-16.889z" fill="#67647e" transform="translate(-37.426 73.19)"/><path d="m281.891 400.059c-.9.83-1.928 39.447 1.941 68.842a374.967 374.967 0 0 0 10.963 52.98l-5.742-117.793s-4.458-6.588-7.162-4.029z" opacity=".1" transform="translate(-23.001 93.618)"/><path d="m275.9 375.06c1.553.964 8.326 17.013 5.22 23.6s-5.22-23.6-5.22-23.6z" opacity=".1" transform="translate(-24.747 85.354)"/><path d="m246.221 273.784a34.8 34.8 0 0 0 -13.908-14.564 33.022 33.022 0 0 1 10.427 12.248c2.677 5.421 1.927 10.856-3.387 13.934s-6.974 8.031-9.6 13.747c-2.409 5.18-5.087 10.708-9.972 13.6-6.291 3.8-14.577 2.409-21.136 5.7a16.5 16.5 0 0 0 -8.754 16.183 46.144 46.144 0 0 0 1.874 7.4 52.567 52.567 0 0 1 1.981 16.063 2.061 2.061 0 0 1 -.2 1.031 1.968 1.968 0 0 1 -1.633.776 9.371 9.371 0 0 1 -4.765-.884 11.1 11.1 0 0 0 8.246 3.2 1.967 1.967 0 0 0 1.633-.776 2.2 2.2 0 0 0 .214-1.031 53.1 53.1 0 0 0 -1.995-16.063 46.132 46.132 0 0 1 -1.874-7.4 16.491 16.491 0 0 1 8.754-16.17c6.559-3.307 14.845-1.914 21.136-5.7 4.886-2.958 7.563-8.433 9.972-13.613 2.677-5.662 4.1-10.561 9.6-13.747s6.09-8.518 3.387-13.934z" opacity=".1" transform="translate(-54.793 46.136)"/><ellipse cx="1296.031" cy="1019.596" fill="#001f40" opacity=".1" rx="54.881" ry="7.536"/><ellipse cx="865.806" cy="1090.312" fill="#001f40" opacity=".1" rx="39.006" ry="5.354"/><ellipse cx="516.791" cy="1050.624" fill="#001f40" opacity=".1" rx="39.006" ry="5.354"/><path d="m502.99 813.163a15.58 15.58 0 0 0 5.127-7.75c.669-3.065-.643-6.76-3.587-7.884-3.293-1.258-6.813 1.031-9.477 3.333s-5.729 4.939-9.209 4.444a14.055 14.055 0 0 0 4.337-13.131 5.636 5.636 0 0 0 -1.2-2.677c-1.834-1.955-5.154-1.111-7.335.428-6.961 4.886-8.9 14.35-8.942 22.849-.7-3.065-.107-6.264-.134-9.37s-.87-6.693-3.534-8.326a10.7 10.7 0 0 0 -5.354-1.339c-3.119-.121-6.612.2-8.741 2.49-2.677 2.838-1.968 7.6.335 10.708s5.823 5.1 9.062 7.255a20.079 20.079 0 0 1 6.465 6.171 5.564 5.564 0 0 1 .482 1.111h19.615a55.214 55.214 0 0 0 12.087-8.313z" fill="#001f40" transform="translate(35.285 225.28)"/><path d="m1085.709 792.064a15.677 15.677 0 0 0 5.18-7.75c.669-3.065-.643-6.693-3.587-7.884-3.293-1.258-6.813 1.03-9.478 3.333s-5.729 4.94-9.222 4.444a13.989 13.989 0 0 0 4.337-13.131 5.356 5.356 0 0 0 -1.2-2.677c-1.82-1.955-5.141-1.111-7.322.428-6.96 4.885-8.9 14.349-8.941 22.849-.709-3.065-.107-6.264-.134-9.37s-.883-6.693-3.533-8.326a10.711 10.711 0 0 0 -5.354-1.339c-3.132-.121-6.612.2-8.755 2.49-2.676 2.838-1.967 7.6.349 10.709s5.823 5.1 9.063 7.255a20.075 20.075 0 0 1 6.465 6.17 6.433 6.433 0 0 1 .482 1.111h19.609a54.964 54.964 0 0 0 12.041-8.312z" fill="#001f40" transform="translate(232.582 218.136)"/><path d="m755.589 838.814a15.7 15.7 0 0 0 5.14-7.75c.656-3.079-.656-6.693-3.587-7.884-3.293-1.258-6.813 1.017-9.477 3.333s-5.729 4.926-9.222 4.444a14.014 14.014 0 0 0 4.336-13.131 5.493 5.493 0 0 0 -1.2-2.677c-1.834-1.955-5.14-1.111-7.335.428-6.961 4.9-8.9 14.349-8.942 22.863-.7-3.065-.107-6.265-.12-9.37s-.883-6.693-3.534-8.326a10.8 10.8 0 0 0 -5.354-1.339c-3.132-.107-6.612.2-8.754 2.49-2.677 2.851-1.967 7.616.348 10.708s5.823 5.087 9.049 7.255a20.064 20.064 0 0 1 6.532 6.264 6.8 6.8 0 0 1 .482 1.1h19.6a54.527 54.527 0 0 0 12.047-8.406z" fill="#001f40" transform="translate(120.804 233.964)"/><path d="m1099.683 412.73c-17.562-.348-33.062-12.8-41.843-27.9a28.112 28.112 0 0 1 -4.229-11.94 14.063 14.063 0 0 1 .482-2.865 28.113 28.113 0 0 0 1.338-4.364 7.287 7.287 0 0 0 0-1.794v-.08c.428-3.239-1.472-6.358-3.855-8.594s-5.287-3.855-7.737-6.01c-7.549-6.626-9.838-17.254-9.986-27.373v-.536c.081-4.323.428-8.674.388-13.011a54.288 54.288 0 0 0 -.321-7.375c-.723-6.131-3.052-12.368-7.871-16.277-12.569-10.187-33.7.415-46.7-9.223-3.173-2.342-5.729-5.836-9.557-6.693-2.9-.7-5.917.241-8.741 1.178-9.584 3.159-20.266 7.322-24.013 16.638-2.142 5.354-1.54 11.364-3.507 16.745-1.339 3.6-3.708 6.693-5.475 10.12a15.835 15.835 0 0 0 -2.056 8.452 9.719 9.719 0 0 0 .629 4.5 11.327 11.327 0 0 0 3.106 4.431 14.708 14.708 0 0 1 -1.874 2.971c-2.45 3-6.211 5.14-8.754 8.031-4.712 5.461-4.538 12.89-2.209 19.315s6.505 12.275 9.37 18.526c1.245 2.677 2.249 5.756.95 8.46-.9 1.874-2.771 3.293-4.23 4.913a15.473 15.473 0 0 0 -3.828 8.594c-28.685 6.546-28.7 29.582-28.7 29.582l-15.474 39.005s-2.476 6.559-5.354 15.219l-18.332-3.281 12.663 21.337c-2.423 8.687-4.123 16.745-3.561 20.788 0 0-5.689 26.771 4.431 31.443l22.354 10.053a12.33 12.33 0 0 0 3.092 1.339l.91.4a2.369 2.369 0 0 0 2.088 0h.362a2.839 2.839 0 0 0 1.338-.187 2.409 2.409 0 0 0 1.111-1.218.475.475 0 0 0 0-.121l6.693-1.941 5.676 6.693c2.556 1.794 5.06 3.36 7.509 4.765l-8.727 87.274s-1.419 116-5.689 142.409c-1.593 9.785-1.606 16.451-1 20.989l-.161.294c1.058 7.456 3.8 8.928 3.8 8.928v-.107l.161.107a75.7 75.7 0 0 1 4.591-9.839v1.9c-.08 9.852-.388 23.625-1.338 32.58-1.74 15.233 4.43 65.7 4.43 65.7l2.128 45.912a42.461 42.461 0 0 1 -5.221 22.354c-5.046 9.169-11.619 22.06-12.047 27.775a7.5 7.5 0 0 0 0 .937l-11.19 13.024s-4.283 6.6 5.354 9.263c5.18 1.446 14.135 0 21.31-1.7a14.243 14.243 0 0 0 11.056-13.854 49.007 49.007 0 0 1 9.129-17.307l1.807 10.561 12.047 2.985 1.54-28.953a12.678 12.678 0 0 0 .83-5.113c2.369-20.587-5.582-18.74-5.582-18.74a1.337 1.337 0 0 1 .388.723c-.134-.227-.268-.468-.388-.709-4.885-9.638-2.49-25.433-2.49-25.433s6.331-45.886 8.554-58c1.566-8.553.924-36.583.4-52.284a16.878 16.878 0 0 0 -.067-1.887c18.646-.241 41.5-.883 57.558-2.436v1.9l-2.972 108.423a59.614 59.614 0 0 1 -4.136 20.159c0 .12-.107.241-.147.361a87.958 87.958 0 0 0 -6 28.364l-1.338 34.454v.95c-2.4.924-6.171 3.588-6.278 11.311-.161 11.311 19.771 7.536 19.771 7.536 19.931 0 20.078-20.748 20.078-20.748s.642-19.021 1.579-31.751-3-9.919-3-9.919l-.294 36.141v-31.455l.308-4.6v-.134l.067-.977 2.476-37.346s18.352-62.243 21.2-74.183c2.021-8.473 1.178-34.039.509-48.188a14.216 14.216 0 0 0 -.08-1.874c5.675-.509 10.708-.562 12.73-.562h.924s-.95-99.963-3.32-137.684-6.171-72.148-15.674-82.522c-5.729-6.265-13.72-25.62-19.155-39.956a201 201 0 0 0 35.137 11.512c30.064 6.291 25.954-19.811 25.954-19.811l-3.052-49.353h.2a250.724 250.724 0 0 0 -3.32-38.591c-1.58-9.785-4.016-19.9-7.737-28.11 3.266-1.245 6.479-2.677 9.638-4.016 8.165-3.6 17.4-8.714 18.552-17.522h-.4a12.29 12.29 0 0 0 .308-1.874zm-186.354 71.4c.081 5.1-.12 13.934-.415 23.719l-9.544-12.749 9.571-15.527zm131.928 45.121-15.9-5.113a71.784 71.784 0 0 1 9.825-12.154l1.339-1.339-.5.107.777-.7.455-.107-.736.7.87-.174a27.184 27.184 0 0 0 5.421 10.9c5.675 6.318-1.606 7.884-1.606 7.884z" fill="url(#c)" transform="translate(170.059 49.264)"/><path d="m839.827 774.95-1.874 35.258-11.86-2.958-2.5-14.671z" fill="#a27772" transform="translate(278.832 262.342)"/><path d="m839.827 774.95-1.874 35.258-11.86-2.958-2.5-14.671z" opacity=".1" transform="translate(278.832 262.342)"/><path d="m956.51 892.775 18.1 3.748 13.385-11.86v-33.4l.294-4.565v-.134l.067-.964 2.436-37.078s18.1-61.8 20.908-73.621c1.995-8.419 1.165-33.812.509-47.84-.268-5.756-.509-9.6-.509-9.6l-39.942-9.677-.843 30.787-2.915 107.629a59.376 59.376 0 0 1 -4.1 20.011l-.134.361a87.378 87.378 0 0 0 -5.8 28.2l-1.339 34.2v.95z" fill="#cc818c" transform="translate(205.679 184.46)"/><path d="m980.29 800.643v.951l.067-.964z" opacity=".1" transform="translate(213.73 229.434)"/><path d="m956.51 838.64 18.1 3.748 13.385-11.859v-2.839a3.8 3.8 0 0 1 -1.927 3.065l-.187.107a36 36 0 0 1 -20.319 4.016l-7.068-.6a7.413 7.413 0 0 0 -1.86.455v.95z" opacity=".1" transform="translate(205.679 238.595)"/><path d="m987.459 840.786.188-.107a3.788 3.788 0 0 0 1.941-3.319l.294-35.954s3.909-2.771 2.972 9.865-1.566 31.523-1.566 31.523-.147 20.6-19.811 20.6c0 0-19.663 3.735-19.516-7.5s8.125-11.7 8.125-11.7l7.054.616a36.14 36.14 0 0 0 20.319-4.024z" fill="#b07473" transform="translate(204.138 229.609)"/><path d="m886.105 882.166c.469 8.112 24.335 3.427 24.335 3.427l16.063-31.2s13.385-10.307 6.693-19.356a13.758 13.758 0 0 1 -.99-1.539v-.08c-.147-.241-.268-.482-.4-.736-4.819-9.558-2.449-25.232-2.449-25.232s6.237-45.511 8.433-57.558c1.539-8.5.91-36.328.388-51.91-.2-6.465-.388-10.829-.388-10.829l-39.648-10.6v11.819c-.08 9.772-.375 23.452-1.338 32.34-1.714 15.139 4.377 65.228 4.377 65.228l2.1 45.591a42.3 42.3 0 0 1 -5.26 22.127c-4.98 9.1-11.458 21.912-11.914 27.588a5.4 5.4 0 0 0 -.002.92z" fill="#cc818c" transform="translate(181.836 187.426)"/><path d="m886.1 842.47c.469 8.111 24.335 3.426 24.335 3.426l16.065-31.196s13.385-10.307 6.693-19.356a13.793 13.793 0 0 1 -.99-1.539c-.214 4.725-5.354 16.518-5.354 16.518s-13.265 26.543-17.4 32.621-22.555-1.125-23.237-1.339a5.323 5.323 0 0 0 -.112.865z" opacity=".1" transform="translate(181.841 227.122)"/><path d="m934.777 793.181s7.844-1.82 5.515 18.619a13.185 13.185 0 0 1 -6.224 11.686c-5.608 3.533-14.282 11.123-18.659 25.888a14.135 14.135 0 0 1 -10.9 13.773c-7.081 1.646-15.916 3.105-21.029 1.673-9.517-2.677-5.354-9.2-5.354-9.2l10.922-12.957s19.034 7.5 23.251 1.406 17.4-32.621 17.4-32.621 7.461-16.554 5.078-18.267z" fill="#b07473" transform="translate(178.835 226.898)"/><path d="m968.153 670.56-.843 30.787c10.708-1.031 18.258-2.476 19.57-4.5 2.8-4.351 13.024-6.2 21.725-6.947-.268-5.756-.509-9.6-.509-9.6z" opacity=".1" transform="translate(209.335 185.398)"/><path d="m895.06 691.13a14.82 14.82 0 0 1 4.377-5.274c4.217-2.342 3.761 14.979 3.761 14.979s13.988.134 31.911-.094c-.2-6.479-.388-10.829-.388-10.829l-39.648-10.6s.054 4.938-.013 11.818z" opacity=".1" transform="translate(184.875 188.36)"/><path d="m892.749 764.4s4.685-12.676 8.888-15.005 3.761 14.978 3.761 14.978 102.989.937 108.142-7.027 35.111-7.483 35.111-7.483-.937-99.254-3.28-136.707-6.091-71.626-15.447-81.92c-6.064-6.693-14.724-28.23-20-42.606-2.9-7.857-4.819-13.573-4.819-13.573l-98.3 5.622-.8 7.951-10.445 104.411s-1.339 115.116-5.622 141.378 2.811 29.981 2.811 29.981z" fill="#444053" transform="translate(182.675 119.21)"/><g opacity=".1" transform="translate(1071.475 594.337)"><path d="m999.892 757.4c5.14-7.951 35.11-7.483 35.11-7.483s-.937-99.254-3.279-136.707-6.09-71.626-15.447-81.92c-6.063-6.693-14.724-28.23-20-42.606-2.436-6.6-4.176-11.686-4.672-13.144l7.63-.428s1.914 5.716 4.819 13.573c5.354 14.376 13.935 35.941 20 42.606 9.37 10.294 13.1 44.467 15.447 81.92s3.226 136.64 3.226 136.64-29.957-.482-35.1 7.55c-4.4 6.8-80.193 7.108-102.2 7.054 28.221-.136 90.45-.98 94.466-7.055z" transform="translate(-883.09 -475.11)"/><path d="m893.6 680.055c1.9-1.057 2.851 1.874 3.32 5.354a75.843 75.843 0 0 0 -4.431 9.584s-2.677-1.459-3.748-8.861c1.485-2.632 3.212-5.153 4.859-6.077z" transform="translate(-888.74 -405.799)"/></g><path d="m919.337 299.229c-6.8 9.29.08 22.474-7.214 31.5-2.409 2.985-6.118 5.113-8.634 8.031-4.658 5.435-4.47 12.8-2.182 19.182s6.425 12.181 9.263 18.392c1.231 2.677 2.221 5.716.95 8.393-.884 1.861-2.677 3.266-4.177 4.886-4.685 5.234-4.819 12.516-2.3 18.673s7.348 11.5 12.047 16.692c1.874 2.061 4.243 4.324 7.362 4.27a10.375 10.375 0 0 0 4.631-1.526 48.778 48.778 0 0 0 23.517-27.647 49.3 49.3 0 0 0 -2.008-33.932c-4.016-9.464-10.548-18.539-10.6-28.552 0-7.938 4.083-15.514 4.806-23.425.883-9.6-4.806-24.857-16.4-29.047.764 6.199-5.554 9.398-9.061 14.11z" fill="#585268" transform="translate(186.458 54.904)"/><path d="m919.337 299.229c-6.8 9.29.08 22.474-7.214 31.5-2.409 2.985-6.118 5.113-8.634 8.031-4.658 5.435-4.47 12.8-2.182 19.182s6.425 12.181 9.263 18.392c1.231 2.677 2.221 5.716.95 8.393-.884 1.861-2.677 3.266-4.177 4.886-4.685 5.234-4.819 12.516-2.3 18.673s7.348 11.5 12.047 16.692c1.874 2.061 4.243 4.324 7.362 4.27a10.375 10.375 0 0 0 4.631-1.526 48.778 48.778 0 0 0 23.517-27.647 49.3 49.3 0 0 0 -2.008-33.932c-4.016-9.464-10.548-18.539-10.6-28.552 0-7.938 4.083-15.514 4.806-23.425.883-9.6-4.806-24.857-16.4-29.047.764 6.199-5.554 9.398-9.061 14.11z" opacity=".1" transform="translate(186.458 54.904)"/><path d="m989.658 547.78c-13.626.723-26.45 6.573-38.376 13.2s-23.465 14.189-36.3 18.847" opacity=".1" transform="translate(191.618 143.83)"/><path d="m980.62 571.76a56.339 56.339 0 0 0 -35.392 17.2c-3.306 3.507-6.157 7.442-9.611 10.8a42.833 42.833 0 0 1 -18.968 10.709" opacity=".1" transform="translate(192.184 151.948)"/><path d="m986.035 590a61.851 61.851 0 0 0 -28.444 17.147c-2.088 2.249-4.016 4.672-6.077 6.907-11.285 12.046-27.214 18.539-42.594 24.616" opacity=".1" transform="translate(189.567 158.124)"/><path d="m979.334 337.076a280.631 280.631 0 0 0 2.811 32.527c1.258 7.683 3.052 14.523 5.622 17.562 7.482 8.9-36.516 20.841-36.516 20.841l-25.981-20.078s20.6-18.967 11-37.48 43.064-13.372 43.064-13.372z" fill="#cc818c" transform="translate(195.102 72.272)"/><path d="m901.59 488.633h103.925c-2.9-7.858-4.819-13.573-4.819-13.573l-98.3 5.622z" opacity=".1" transform="translate(187.085 119.21)"/><path d="m901.719 524.126h111.1c-3.119-11.164 0-21.511 4.458-29.448a65.049 65.049 0 0 1 11.632-15.1l.763-.682 38.818-8.607 2.088-.455s.308-70.528-24.656-80.206-39.956-22.755-39.956-22.755l-34.321 10.6-25.285-12.783c-8.112 8.741-29.649 5.354-29.649 5.354-35.271 4.016-35.271 30.586-35.271 30.586s20.6 48.068 22.167 48.068-1.888 75.428-1.888 75.428z" fill="#67647e" transform="translate(180.263 81.843)"/><path d="m932.932 453.791s-22.662-5.02-30.372-13.8" opacity=".1" transform="translate(187.413 107.337)"/><path d="m1017.236 430.64-26.236 21.537a43.561 43.561 0 0 0 .87 5.06l.763-.683 38.818-8.607z" opacity=".1" transform="translate(217.356 104.171)"/><path d="m957.44 485.949s5.756 3.24 14.563 7.483h15.1c-3.119-11.164 0-21.511 4.457-29.448l-26.677-8.634c9.102 8.433-7.443 30.599-7.443 30.599z" opacity=".1" transform="translate(205.994 112.537)"/><path d="m904.937 385.18-15.607 8.42-15.3 38.7s-15.916 42.446-14.363 53.689c0 0-5.609 26.517 4.377 31.2l26.048 11.779a2.409 2.409 0 0 0 3.119-3.333c-3.708-7.027-7.777-18-1.339-24.094l-7.5-15.594 27.133-44.28 9.035-15.233z" fill="#67647e" transform="translate(172.36 88.78)"/><path d="m919.041 446.37c1.338 5.515 5.916 13.988 21.015 17.187l16.625 13.573 17.629 8.031 7.175 3.253 3.052-22.006-6.92-3.788-8.031-4.4s-18.191-32.982-47.01-19.048a6.385 6.385 0 0 0 -3.535 7.198z" opacity=".1" transform="translate(192.939 105.896)"/><path d="m919.75 444.965c1.338 5.515 5.916 13.988 21.015 17.187l16.625 13.586 17.629 8.031 7.175 3.253 3.052-22.006-6.921-3.775-8.031-4.417s-18.191-32.969-47.01-19.047a6.384 6.384 0 0 0 -3.534 7.188z" fill="#cc818c" transform="translate(193.18 105.427)"/><circle cx="1145.404" cy="397.649" opacity=".1" r="40.264"/><circle cx="1145.404" cy="396.713" fill="#cc818c" r="40.264"/><path d="m965.647 402.132-12.047-23.532s17.723-7.148 19.008-15.447 16.973 9.718 13.573 15.688-20.534 23.291-20.534 23.291z" opacity=".1" transform="translate(204.694 80.596)"/><path d="m965.647 400.732-12.047-23.532s17.723-7.148 19.008-15.447 16.973 9.731 13.573 15.688-20.534 23.291-20.534 23.291z" fill="#67647e" transform="translate(204.694 80.122)"/><path d="m900.809 437.927 66.928 89.938s-24.656 13.386-58.682-10.615l-14.725-17.468-41.83-70.542z" fill="#f6f8fb" transform="translate(170.465 103.697)"/><path d="m879.163 478.123 6.09-.161s37.212-36.141 46.341-17.856-23.17 35.338-23.17 35.338l-9.824 5.356-12.877 3.748-8.192-11z" fill="#cc818c" transform="translate(178.94 112.399)"/><path d="m890.275 492.731c.562 2.075 1.1 4.364.161 6.292a2.384 2.384 0 0 1 -1.111 1.2 2.675 2.675 0 0 1 -1.338.188 12.784 12.784 0 0 1 -8.393-4.163 37.852 37.852 0 0 1 -5.448-7.871c-1.66-2.878-3.386-6.091-2.784-9.37.656-3.587 3.855-6.077 6.907-8.031 6.171-4.083 6.318.669 7.723 5.916z" opacity=".1" transform="translate(176.809 117.307)"/><path d="m889.575 492.731c.562 2.075 1.1 4.364.161 6.292a2.384 2.384 0 0 1 -1.111 1.2 2.678 2.678 0 0 1 -1.339.188 12.785 12.785 0 0 1 -8.393-4.163 37.888 37.888 0 0 1 -5.448-7.871c-1.66-2.878-3.386-6.091-2.784-9.37.656-3.587 3.855-6.077 6.907-8.031 6.171-4.083 6.318.669 7.723 5.916z" fill="#67647e" transform="translate(176.572 117.307)"/><path d="m809.72 397.631 3.119-5.261-2.73 9.772z" opacity=".1" transform="translate(274.137 132.817)"/><path d="m961 476.928 7.175 3.253 3.052-22.006-6.92-3.775c4.725 5.435.593 15.527-3.307 22.528z" opacity=".1" transform="translate(207.199 112.215)"/><path d="m990.856 453.393s-23.171 1.406-33-4.912" opacity=".1" transform="translate(206.136 110.211)"/><g opacity=".1" transform="translate(1095.475 448.407)"><path d="m982.964 495.522a65.368 65.368 0 0 1 11.646-15.1 32.127 32.127 0 0 1 3.427-1.874l36.141-7.416 2.088-.455s.321-70.528-24.656-80.206a150.8 150.8 0 0 1 -38.939-21.939l2.744-.843s14.978 13.1 39.942 22.755 24.683 80.233 24.683 80.233h-3.748l-37 7.081-2.088 1.994a71.375 71.375 0 0 0 -11.819 15.621 39.2 39.2 0 0 0 -3.092 29.609h-3.829c-3.076-11.162.096-21.509 4.5-29.46z" transform="translate(-884.325 -365.548)"/><path d="m906.67 370.261c.6-.08 1.178-.174 1.793-.241a65.926 65.926 0 0 0 7.643.629 68.869 68.869 0 0 1 -9.436-.388z" transform="translate(-906.67 -364.76)"/><path d="m952.033 378.833-22.863-11.525a12.818 12.818 0 0 0 1.339-1.218l23.853 12.047z" transform="translate(-899.052 -366.09)"/></g><path d="m1029.3 429.24 15.3 18.74 3.119 50.865s4.016 25.9-25.593 19.663-63.983-25.593-63.983-25.593 16.544-22.167 7.5-30.586l42.446 13.734s7.174-1.566 1.552-7.8-6.612-17.481-6.612-17.481z" fill="#67647e" transform="translate(206.23 103.697)"/><path d="m1016.43 469.35 8.433 9.664a12.14 12.14 0 0 1 -8.433-9.665z" opacity=".1" transform="translate(225.965 117.277)"/><path d="m917.44 437.1 13.1 16.853-6.54 1.566z" opacity=".1" transform="translate(310.606 147.961)"/><path d="m908.23 327.715c-1.446-3.52-.348-7.59 1.339-10.976s4.11-6.465 5.354-10.053c1.941-5.354 1.339-11.351 3.453-16.625 3.708-9.236 14.242-13.386 23.693-16.5 2.784-.924 5.756-1.861 8.62-1.178 3.775.91 6.3 4.377 9.37 6.693 12.823 9.557 33.665-.964 46.06 9.156 4.752 3.869 7.054 10.079 7.764 16.156s0 12.248-.067 18.378c-.2 10.708 1.794 22.461 9.838 29.569 2.423 2.142 5.274 3.761 7.63 5.97s4.216 5.354 3.8 8.527a29.021 29.021 0 0 1 -1.339 4.323c-1.606 5.6.777 11.525 3.681 16.571 8.674 14.992 23.947 27.347 41.281 27.695-1.165 8.741-10.24 13.814-18.3 17.4-10.267 4.565-21.055 9.049-32.273 8.473s-22.916-7.75-24.91-18.74c-.683-3.788-.589-8.433-3.882-10.427-1.981-1.2-4.551-.9-6.693-1.807-3.092-1.339-4.631-4.738-5.648-7.951a71.739 71.739 0 0 1 -3.333-20.4c-.134-8.205.964-17.16-3.694-23.92-4.31-6.251-11.967-9.37-16.933-15.179-4.578-5.354-9.571-11.753-17.08-12.77-10.09-1.461-31.587 12.661-37.731-2.385z" opacity=".1" transform="translate(189.106 50.512)"/><path d="m908.23 326.315c-1.446-3.52-.348-7.59 1.339-10.976s4.11-6.465 5.354-10.053c1.941-5.354 1.339-11.351 3.453-16.625 3.708-9.236 14.242-13.385 23.693-16.5 2.784-.924 5.756-1.861 8.62-1.178 3.775.91 6.3 4.377 9.37 6.693 12.823 9.571 33.665-.964 46.06 9.156 4.752 3.882 7.054 10.079 7.764 16.156s0 12.248-.067 18.378c-.2 10.708 1.794 22.461 9.838 29.569 2.423 2.142 5.274 3.761 7.63 5.97s4.216 5.354 3.8 8.527a29.709 29.709 0 0 1 -1.339 4.337c-1.606 5.582.777 11.525 3.681 16.558 8.674 14.992 23.947 27.347 41.281 27.695-1.165 8.741-10.24 13.814-18.3 17.4-10.267 4.578-21.055 9.049-32.273 8.473s-22.916-7.75-24.91-18.807c-.683-3.788-.589-8.433-3.882-10.427-1.981-1.2-4.551-.9-6.693-1.807-3.092-1.339-4.631-4.738-5.648-7.951a71.741 71.741 0 0 1 -3.333-20.4c-.134-8.205.964-17.16-3.694-23.92-4.31-6.251-11.967-9.37-16.933-15.179-4.578-5.354-9.571-11.753-17.08-12.77-10.09-1.328-31.587 12.727-37.731-2.319z" fill="#585268" transform="translate(189.106 50.038)"/><path d="m931.387 398.924 23.077-18.74s-15.795-8.567-17.682-15.875-14.523 3.467-13.239 10.026 7.844 24.589 7.844 24.589z" opacity=".1" transform="translate(194.487 80.886)"/><path d="m932.087 396.824 23.077-18.74s-15.795-8.567-17.682-15.875-14.523 3.467-13.238 10.026 7.843 24.589 7.843 24.589z" fill="#67647e" transform="translate(194.723 80.175)"/><circle cx="1150.785" cy="473.947" opacity=".1" r="1.834"/><circle cx="1150.785" cy="484.147" opacity=".1" r="1.834"/><circle cx="1150.785" cy="494.333" opacity=".1" r="1.834"/><g opacity=".1" transform="translate(1096.924 334.657)"><path d="m915.606 296.8c1.821-5.02 1.432-10.641 3.132-15.688a18.166 18.166 0 0 0 -1.938 3.588c-2.115 5.274-1.526 11.3-3.453 16.638 0 .094-.094.2-.134.308a29.6 29.6 0 0 0 2.393-4.846z" transform="translate(-905.905 -281.11)"/><path d="m1063.075 415.854c-10.266 4.578-21.055 9.049-32.286 8.473s-22.9-7.75-24.9-18.807c-.683-3.788-.589-8.433-3.882-10.427-1.981-1.2-4.551-.9-6.693-1.807-3.1-1.339-4.631-4.739-5.648-7.951a71.723 71.723 0 0 1 -3.333-20.426c-.134-8.205.95-17.16-3.694-23.92-4.31-6.251-11.967-9.37-16.933-15.179-4.591-5.354-9.571-11.753-17.094-12.77-10.307-1.339-31.818 12.716-37.948-2.329a11.82 11.82 0 0 1 .388-8.7c-.442.75-.87 1.5-1.258 2.262-1.74 3.386-2.838 7.456-1.339 10.976 6.144 15.046 27.641.924 37.961 2.329 7.51 1.017 12.5 7.456 17.093 12.77 4.966 5.756 12.61 8.928 16.92 15.193 4.658 6.693 3.574 15.715 3.708 23.907a71.423 71.423 0 0 0 3.32 20.413c1.017 3.2 2.557 6.693 5.649 7.951 2.142.9 4.712.6 6.693 1.807 3.28 1.981 3.2 6.693 3.868 10.414 1.995 11.057 13.694 18.245 24.911 18.82s22.019-3.908 32.272-8.486c7.389-3.279 15.621-7.844 17.83-15.313-3.58 4.911-9.849 8.246-15.605 10.8z" transform="translate(-907.753 -274.034)"/></g></svg>