<svg height="947.88" viewBox="0 0 1175.117 947.88" width="1175.117" xmlns="http://www.w3.org/2000/svg" xmlns:xlink="http://www.w3.org/1999/xlink"><linearGradient id="a" gradientUnits="objectBoundingBox" x2="1" y1=".5" y2=".5"><stop offset="0" stop-color="#808080" stop-opacity=".251"/><stop offset=".54" stop-color="#808080" stop-opacity=".122"/><stop offset="1" stop-color="#808080" stop-opacity=".102"/></linearGradient><linearGradient id="b" x1="12.106" x2="13.106" xlink:href="#a" y1=".5" y2=".5"/><ellipse cx="604.48" cy="473.94" fill="#001f40" opacity=".1" rx="531.042" ry="473.94"/><ellipse cx="195.805" cy="716.375" fill="#001f40" opacity=".1" rx="195.805" ry="30.35"/><ellipse cx="289.917" cy="875.58" fill="#001f40" opacity=".1" rx="76.159" ry="15.733"/><ellipse cx="810.315" cy="815.052" fill="#001f40" opacity=".1" rx="76.159" ry="15.733"/><ellipse cx="551.887" cy="796.598" fill="#001f40" opacity=".1" rx="123.847" ry="20.981"/><ellipse cx="916.802" cy="692.741" fill="#001f40" opacity=".1" rx="258.315" ry="40.459"/><path d="m131.877 594.255a71.879 71.879 0 0 0 3.745 72.163c2.277 3.415 4.371 5.874 6.045 6.523 8.026 3.153 24.1 10.906 24.1 10.906l38.706-15.209s6.284-33.241 12.227-61.781c4.053-19.467 7.969-36.736 9.574-39.764 4.007-7.456 0-88.636 0-88.636s-38.706-2.6-49.35 27.242l-4.656 9.107z" fill="#a8a8a8" transform="translate(-78.338 27.871)"/><path d="m177.664 603.224c23.531 26.969 33.458 3.643 33.458 3.643 4.053-19.467 7.969-36.736 9.574-39.764 4.007-7.457 0-88.636 0-88.636s-38.706-2.6-49.35 27.242l-4.656 9.107c-2.983 23.872-5.932 68.999 10.974 88.408z" fill="#fff" opacity=".1" transform="translate(-72.737 27.872)"/><path d="m180.59 689.585 136.61-15.778 24.373-160.378-18.431-41.654a168.778 168.778 0 0 0 -31.875-48.086c-9.278-9.779-20.491-19.182-32.285-23.906a48.454 48.454 0 0 0 -4.929-1.685 12.761 12.761 0 0 0 -11.384 2.015c-16.848 11.942-22.87 62.715-24.817 87.156a272.756 272.756 0 0 1 -4.064 29.929z" fill="#a8a8a8" transform="translate(-70.495 16.68)"/><path d="m264 511.7-28.46 70.012c14.913-10.906 37.009-70.3 37.009-70.3l19.8 67.712-15.778-71.366a223.2 223.2 0 0 0 2-46.834c-1.252-17.919-18.066-46.674-27.2-61.155a48.477 48.477 0 0 0 -4.929-1.685 12.762 12.762 0 0 0 -11.382 2.016c7.172 14.4 25.1 50.408 30.566 61.109 6.933 13.481-1.626 50.491-1.626 50.491z" fill="#fff" opacity=".1" transform="translate(-62.956 16.679)"/><path d="m280.89 681.644h74.121a22.483 22.483 0 0 0 22.461-23.622c-1.639-31.784-5.795-88.454-15.676-124.428-5.339-19.41-11.543-29.6-17.235-34.619a16.815 16.815 0 0 0 -9.8-4.611 12.865 12.865 0 0 0 -7.969 1.935c-13.763 13.194-29.838 82.625-29.838 82.625z" fill="#a8a8a8" transform="translate(-56.613 30.074)"/><path d="m347.805 608.293c3.051 8.458 4.257 18.214 0 27.72l-16.518 8.162s-44.4-18.818-39-57.387c0 0 1.457-7.969 16.746-7.354a43.34 43.34 0 0 1 38.772 28.859z" fill="#fff" opacity=".1" transform="translate(-55.099 41.85)"/><path d="m328.045 518.676c-.512-13.524 6.83-18.214 12.9-19.706a16.815 16.815 0 0 0 -9.8-4.611 26.024 26.024 0 0 0 -8.549 13.661l-15.486 75.466s21.8-42.144 20.935-64.81z" fill="#fff" opacity=".1" transform="translate(-52.984 30.08)"/><path d="m278.021 568.14 36.7 50.2 6.364 41.438-23.585 11.649-34 7.514a32.7 32.7 0 0 1 -9.984.649l-92.791-8.162 12.625-29.268 43.6-61.212z" fill="#a8a8a8" transform="translate(-73.245 40.291)"/><path d="m262.284 553s25.045 1.719 15.642 44.75-106.156 46.484-106.156 46.484 20.56-36.429 52.184-62.533c3.552-2.926 6.978-5.977 10.246-9.232 7.274-7.274 21.186-20.059 28.084-19.469z" fill="#fff" opacity=".1" transform="translate(-71.716 38.193)"/><path d="m271.07 581.5s33.936 30.885 30.737 78.413" opacity=".1" transform="translate(-57.972 42.14)"/><path d="m326.035 496.06s-35.609 47.358-39.605 120.227" opacity=".1" transform="translate(-55.846 30.315)"/><path d="m217 478.43s17.235 78.265-25.8 137.257" opacity=".1" transform="translate(-69.026 27.875)"/><path d="m490.874 756.544h185.719a10.4 10.4 0 0 0 9.107-15.334l-92.814-172.445a10.394 10.394 0 0 0 -18.306 0l-92.859 172.445a10.405 10.405 0 0 0 9.153 15.334zm104.676-31.511h-23.633v-23.622h23.633zm0-39.377h-23.633v-47.256h23.633z" fill="#464353" transform="translate(-28.989 39.621)"/><path d="m490.874 756.544h185.719a10.4 10.4 0 0 0 9.107-15.334l-92.814-172.445a10.394 10.394 0 0 0 -18.306 0l-92.859 172.445a10.405 10.405 0 0 0 9.153 15.334zm104.676-31.511h-23.633v-23.622h23.633zm0-39.377h-23.633v-47.256h23.633z" opacity=".1" transform="translate(-28.989 39.621)"/><path d="m490.874 761.545h185.719a10.405 10.405 0 0 0 9.107-15.335l-92.814-172.445a10.394 10.394 0 0 0 -18.306 0l-92.859 172.445a10.4 10.4 0 0 0 9.153 15.334zm104.676-31.511h-23.633v-23.622h23.633zm0-39.377h-23.633v-47.257h23.633z" fill="#464353" transform="translate(-28.989 40.313)"/><path d="m443.33 715.483a12.752 12.752 0 0 0 -2.63-1.275c-3.051-1.138-6.307-1.434-9.358-2.527a13.4 13.4 0 0 1 -4.7-2.778c-.228-.228-.444-.455-.649-.694 1.138-.717 2.174-1.434 3.3-2.106a39.117 39.117 0 0 0 -13.729-13.661c1.833-2.7 5.965-2.481 8.379-4.656a7.968 7.968 0 0 0 2.277-4.474c.9-4.474-.216-9.107-1.332-13.513-2.163-8.618-4.349-17.292-7.855-25.443a100.269 100.269 0 0 1 -4.258-10.314c-2.948-9.813-.888-20.491-3.119-30.521-.717-3.222-1.878-6.546-1.07-9.733 1.241-4.941 6.762-7.866 7.969-12.807 4.371-17.588 5.157-35.837 7.639-53.79a69.236 69.236 0 0 0 .922-10.325c0-3.631-.649-7.229-.911-10.849-.706-10.166 1.332-20.321 2.208-30.475a31.875 31.875 0 0 1 4.132 10.189 41.129 41.129 0 0 1 .239 10.109 47.489 47.489 0 0 1 -.717 6.728c-.558 2.641-1.537 5.168-2.186 7.809a24.146 24.146 0 0 0 1.081 15.665c1.548 3.415 4.952 6.58 8.492 5.555 2.448-.706 3.927-3.142 5.02-5.453 3.415-7.24 5.316-15.63 3.017-23.326-1.514-5.123-4.838-9.756-5.146-15.106a39.046 39.046 0 0 1 .5-6.386c1.423-12.363-1.651-24.783-2.334-37.214-.182-3.29.114-7.377-.626-10.872-.091-.421-.194-.842-.319-1.241a2.662 2.662 0 0 1 .82.376 7.422 7.422 0 0 0 -.159-6.364 16.2 16.2 0 0 1 -1.07-2c-.433-1.138-.353-2.459-.888-3.552a15.166 15.166 0 0 0 -1.138-1.651c-1.469-2.129-1.548-4.884-1.582-7.468q-.262-20.218-1.138-40.391c-.307-6.83-.694-13.82-3.085-20.229a30.326 30.326 0 0 0 -10.7-14.2 24.928 24.928 0 0 0 -2.4-1.5 8.333 8.333 0 0 0 .683-3.074 7.346 7.346 0 0 0 0-1l-.068-.569a24.018 24.018 0 0 0 -2.277-6.831 19.193 19.193 0 0 1 -2.174-7.468 11.6 11.6 0 0 1 .08-1.412c.387-3.279 2.095-6.352 2.7-9.631a16.514 16.514 0 0 0 .25-3.085v-1.082a31.033 31.033 0 0 0 -3.654-11.5c-.569-1.138-1.138-2.277-1.776-3.415-.3-2.129-.626-4.258-.956-6.375-.182-1.229-.376-2.459-.638-3.677q-.193-.911-.444-1.776c1.764-1.662.74-4.1-.387-6.352-2.174-4.28-1.719-9.392-2.641-14.1a42.615 42.615 0 0 0 -3.347-9.472 21.108 21.108 0 0 0 -3.631-5.965 22.267 22.267 0 0 0 -4.7-3.415 14.969 14.969 0 0 0 -4.667-2.106c-1.036-.2-2.095-.194-3.119-.433a9.89 9.89 0 0 1 -1.912-.694 13.011 13.011 0 0 0 -4.087-1.491 9.106 9.106 0 0 0 -3.939.751 14.493 14.493 0 0 1 -4.235 1.138h-1.605a3.563 3.563 0 0 0 -2.174.524 8.218 8.218 0 0 0 -.933.956 12.6 12.6 0 0 1 -2.744 1.878 27.037 27.037 0 0 0 -13.274 23.11 11.453 11.453 0 0 1 -.33 3.745c-.33.956-.979 1.787-1.252 2.766a7.764 7.764 0 0 0 -.125 2.6c.091 1.332.228 2.652.376 3.984a8.379 8.379 0 0 0 -1.662 3.677 5.021 5.021 0 0 0 -.1.706v.091c-.125 2.379 1.047 4.554 1.73 6.83a24.271 24.271 0 0 1 -.341 13.4c-.831 2.994-2.015 6.09-2.277 9.107v.2a11.009 11.009 0 0 0 .524 4.554c.376 1.036.933 2 1.275 3.051 1.207 3.711-.546 7.6-2.869 10.86-.364.512-.74 1-1.138 1.48h.057l-.057.057 2.368 1.674c-.694.364-1.389.763-2.095 1.138a21.538 21.538 0 0 0 -7.718 2.857 31.376 31.376 0 0 0 -6.261 4.167 26.556 26.556 0 0 0 -4.941 6.83 85.83 85.83 0 0 0 -4.189 8.834 27.661 27.661 0 0 0 -2.14 7.661c-.979 2.083-1.787 4.326-2.687 6.341-.455 1.036-.9 2.072-1.343 3.108l-39.184-95.945-6.079 2.527.478 1.138-1.264.535 1.719 4.189c-.25.171-.5.342-.74.524l-.319.25-.638.5-.319.262-.649.546-.239.2-.808.74c-.865.785-1.7 1.617-2.5 2.448l-2.083 2.152-.4.421-.694.706-.387.4-.99.99-.068.068-.615.592-.387.364c-.159.159-.33.307-.5.455l-.478.444-.774.66-.228.2-1.059.842a29.68 29.68 0 0 1 -4.554 2.926c-6.227 3.222-12.818 5.92-18.9 9.369a54.417 54.417 0 0 0 -9.358 6.557c-4.019 3.563-7.422 7.969-12.078 10.553l-.512.273c-8.242 4.235-17.953 1.7-27.322 1.514-1.4 0-2.778 0-4.144.091-7.6.592-14.56 3.677-21.288 7.434-4.736 2.652-9.358 5.635-14 8.333-2.937 1.7-5.886 3.54-8.845 5.43-7.513 4.77-15.118 9.779-22.984 13.388-7.309 3.347-14.8 5.476-22.768 5.066h-.1a19 19 0 0 1 -2.277-.194c-.74 5.977 4.041 10.792 7.229 16.052a16.268 16.268 0 0 1 2.7 7.6 13.662 13.662 0 0 1 -.228 3.051c-.638 3.688-2.345 7.309-1.878 11.02a12.762 12.762 0 0 0 2.425 5.988c2.026 2.892 4.838 5.464 6.751 8.481 2.892 4.554 3.643 10.1 4.77 15.46a32.525 32.525 0 0 0 3.745 10.712c2.459 3.962 6.216 6.83 9.745 9.87.649.558 1.286 1.139 1.9 1.708.455.41.9.842 1.321 1.286 4.132 4.224 7.206 10.735 4.713 16.017-.08.182-.171.342-.262.512a4.547 4.547 0 0 0 .626.376c3.176 1.548 7.161-.934 9.768-3.563 1.286-1.286 2.5-2.652 3.688-4.041 3.176-3.529 6.09-7.354 9.107-11.02.82-.99 1.639-1.958 2.482-2.914a42.12 42.12 0 0 1 11.247-9.107 41.313 41.313 0 0 1 6.9-2.8c3.529-1.138 7.172-1.981 10.712-3.1a88.008 88.008 0 0 0 14.1-5.92 216.943 216.943 0 0 0 22.768-14.116l1.138-.74a39.028 39.028 0 0 0 6.773-5.407c.364-.4.717-.808 1.047-1.229 1.776-2.277 2.926-4.975 4.554-7.343a23.622 23.622 0 0 1 6.386-6.159c7.024-4.724 16.347-6.523 24.692-9.107h.091a95.969 95.969 0 0 0 38.9-23.1l6.238 15.277q-.968 2.709-1.833 5.476c-1.389 4.553-2.527 9.244-5.248 13.092a9.768 9.768 0 0 0 -1.981 3.518 11.386 11.386 0 0 1 -.467 2.823c-.387.774-1.2 1.286-1.526 2.083-.478 1.138.148 2.607-.49 3.677a5.779 5.779 0 0 1 -1.082 1.138c-1.628 1.446-2.061 3.723-2.061 5.795a20.294 20.294 0 0 1 -.512 6.284 14.993 14.993 0 0 1 1.469-.763 6.833 6.833 0 0 0 -.125 1.139 12.678 12.678 0 0 0 .4 3.2 25.258 25.258 0 0 0 3.324 6.648 47.238 47.238 0 0 0 3.563 5.123 46.683 46.683 0 0 0 7.536 6.739l11.475 8.857-1.138 4.793c-2.5 10.041-5.032 20.207-5.157 30.566a131.713 131.713 0 0 0 .922 14.674l.99 10c.8 8.048 1.594 16.1 2.47 24.146.558 5.089 1.138 10.246 2.937 15.05 2.709 7.3-.285 15.539.865 23.258.911 6.045 2.709 12.295.9 18.135-.729 2.277-2 4.463-2.937 6.717-2.334 5.6-2.573 11.828-2.766 17.9a76.056 76.056 0 0 0 .581 15.938c.979 5.442 3.142 10.781 2.721 16.3-.592 7.844-6.33 14.549-7.024 22.392-.558 6.25 2.163 12.295 5.089 17.839 2.152 4.087-.854 9.369-1.992 13.866-2.277 8.823 1.5 18.044 6.113 25.865a1.276 1.276 0 0 0 .581.615c.524.193 1.013-.33 1.355-.774a9.3 9.3 0 0 1 .683-.808c0 .353.068.706.091 1.047 0 .74.057 1.48.057 2.277a22.883 22.883 0 0 0 1.548 8.424 14.893 14.893 0 0 0 .638 1.526 7.036 7.036 0 0 0 1.138 1.833 6.956 6.956 0 0 0 4.554 1.912c3.78.41 7.582-.376 11.384-.706 4.007-.342 8.026-.193 12.044-.285a1.741 1.741 0 0 0 .9-.193 1.538 1.538 0 0 0 .512-.82 9.107 9.107 0 0 0 .193-4.485 31.787 31.787 0 0 0 -.854-3.563c-.535-1.878-1.025-3.768-1.491-5.692-.091-.353-.171-.706-.25-1.059l.182.08q3.677-8.265 7.365-16.53c1.241-2.789 2.5-5.806 1.89-8.8-.444-2.14-1.81-3.95-2.778-5.908-2.277-4.622-2.368-10.018-2.4-15.186l-.137-29.28c5.692-7.24 9.21-15.858 11.384-24.851a80.382 80.382 0 0 1 .672 38.706 36.054 36.054 0 0 0 -1.082 5.9c-.444 8.117 5.874 14.993 7.559 22.939a5.168 5.168 0 0 1 .125 1.867 7 7 0 0 1 -.933 2.163c-3.028 5.544-2.7 12.238-2.277 18.545l1.332.216a3.529 3.529 0 0 0 1.412 1.389 6.964 6.964 0 0 0 1.765.729 43.471 43.471 0 0 0 6.637 1.013c3.21.319 6.432.638 9.654.842 1.275.08 2.55.148 3.825.182a38.223 38.223 0 0 1 5.357.377 38.7 38.7 0 0 1 5.685 1.65c8.3 2.778 17.588 4.36 25.625.9a11.545 11.545 0 0 0 4.679-3.313 5.51 5.51 0 0 0 -1.377-8.561zm-110.107-324.525c1.207 2.4 2.413 4.793 3.415 7.286 1.969 4.827 3.165 10.246 1.913 15.277-.364 1.48-2.744 2.618-2.732 4.144a3.428 3.428 0 0 0 -.182.353l-7.437-18.218a64.96 64.96 0 0 1 5.023-8.842zm-8.162 38.706a31.5 31.5 0 0 1 -4.03-6.956c-.137-.307-.285-.6-.421-.911a2.731 2.731 0 0 0 1.081-.808c1.138-1.434.524-3.529.694-5.373a11.612 11.612 0 0 1 1.81-4.554l6.978 17.076q-1.059 2.778-1.981 5.612a39.836 39.836 0 0 1 -4.131-4.086z" fill="url(#a)" transform="translate(-83.458 -6.497)"/><path d="m318.073 272.323c-.125 2.379 1.059 4.554 1.753 6.83a24.17 24.17 0 0 1 -.33 13.365c-1.275 4.554-3.415 9.369-1.787 13.82.376 1.047.945 2 1.286 3.051 1.412 4.326-1.207 8.88-4.075 12.42l11.259 7.889a12.946 12.946 0 0 0 5.692 2.721c2.106.25 4.554-.877 4.986-2.948.148-.706 0-1.446.137-2.163a5.874 5.874 0 0 1 3.153-4.372 10.314 10.314 0 0 1 5.453-1.013c6.91.376 12.784 4.918 19.068 7.832a76.7 76.7 0 0 0 12.83 4.258c2.493.649 5.26 1.241 7.513 0s3.29-4.121 3.119-6.728a22.005 22.005 0 0 0 -2.391-7.411 18.849 18.849 0 0 1 -2.2-7.457c0-3.825 2.095-7.308 2.8-11.065.99-5.339-1.025-10.769-3.484-15.619s-5.442-9.517-6.637-14.8a21.629 21.629 0 0 0 -1.241-4.679 10.659 10.659 0 0 0 -2.277-3.051c-4.224-4.178-10.246-6.159-16.143-6.591s-11.851.535-17.7 1.548a37.012 37.012 0 0 0 -6.569 1.56 41.721 41.721 0 0 0 -8.641 4.679c-2.659 1.845-5.403 4.543-5.574 7.924z" fill="#464353" transform="translate(-51.903 -2.84)"/><g opacity=".1" transform="translate(262.983 268.732)"><path d="m375.17 305.131a5 5 0 0 0 .068 1.013c.353-3.335 2.106-6.466 2.732-9.8a16.2 16.2 0 0 0 .216-4.053 11.12 11.12 0 0 1 -.216 1.776c-.717 3.756-2.845 7.239-2.8 11.064z" transform="translate(-306.547 -266.619)"/><path d="m320.207 281.875a20.388 20.388 0 0 0 -.763-6.83 39.593 39.593 0 0 1 -1.651-5.3c0 .239-.091.467-.1.706-.125 2.379 1.059 4.554 1.753 6.83a19.224 19.224 0 0 1 .761 4.594z" transform="translate(-314.504 -269.74)"/><path d="m388.032 318.994a6.512 6.512 0 0 1 -3.051 5.02c-2.277 1.241-5.02.649-7.514 0a75.726 75.726 0 0 1 -12.83-4.269c-6.284-2.9-12.158-7.445-19.068-7.821a10.313 10.313 0 0 0 -5.453 1.013 5.874 5.874 0 0 0 -3.153 4.371c-.08.717 0 1.457-.137 2.163-.444 2.072-2.88 3.2-4.986 2.948a12.943 12.943 0 0 1 -5.692-2.721l-10.12-7.1c-.376.512-.751 1.013-1.138 1.48l11.259 7.9a12.946 12.946 0 0 0 5.692 2.721c2.106.25 4.554-.877 4.986-2.949.148-.706 0-1.446.137-2.163a5.874 5.874 0 0 1 3.153-4.371 10.315 10.315 0 0 1 5.453-1.013c6.91.376 12.784 4.918 19.068 7.821a75.726 75.726 0 0 0 12.83 4.269c2.493.649 5.259 1.241 7.514 0s3.29-4.121 3.119-6.728c-.012-.195-.046-.377-.069-.571z" transform="translate(-314.89 -263.907)"/><path d="m318.727 303.844a8.826 8.826 0 0 1 .307 1.4 8.255 8.255 0 0 0 -.307-3.677c-.341-1.047-.911-2-1.286-3.051a9.518 9.518 0 0 1 -.524-2.357 10.7 10.7 0 0 0 .524 4.633c.376 1.049.945 2.016 1.286 3.052z" transform="translate(-314.618 -266.083)"/></g><path d="m334.312 685.192a1.49 1.49 0 0 1 -.524.819 1.741 1.741 0 0 1 -.9.194c-4.053.091-8.105 0-12.147.285-3.825.33-7.661 1.138-11.475.706a5.886 5.886 0 0 1 -5.692-3.745 14.879 14.879 0 0 1 -.637-1.525 22.666 22.666 0 0 1 -1.56-8.424v-2.277a17.258 17.258 0 0 0 -.33-2.481 3.769 3.769 0 0 1 .114-2.88c1.616-2.948 5.521-3.541 8.527-3.768a70.418 70.418 0 0 1 20.776 1.526c.535 2.618 1.138 5.214 1.776 7.81q.706 2.857 1.5 5.692a31.864 31.864 0 0 1 .865 3.563 9.107 9.107 0 0 1 -.293 4.505z" fill="#464353" transform="translate(-53.855 53.267)"/><path d="m334.054 682.906a1.491 1.491 0 0 1 -.524.82 1.743 1.743 0 0 1 -.9.194c-4.053.091-8.105 0-12.147.285-3.825.33-7.661 1.138-11.475.706a5.885 5.885 0 0 1 -5.692-3.745 14.911 14.911 0 0 1 -.638-1.526h1.457c4.793 0 9.6-.171 14.389-.171a36.812 36.812 0 0 0 4.337-.239c1.434-.171 2.607-.41 3.916-.569a53.672 53.672 0 0 1 5.9-.239h1.616a9.107 9.107 0 0 1 -.239 4.484z" opacity=".06" transform="translate(-53.597 55.554)"/><path d="m411.841 665.987a11.647 11.647 0 0 1 -4.713 3.313c-8.105 3.415-17.474 1.878-25.842-.9a39.407 39.407 0 0 0 -5.749-1.651 38.723 38.723 0 0 0 -5.385-.376c-1.286 0-2.573-.1-3.859-.182-3.256-.2-6.5-.523-9.733-.842a43.982 43.982 0 0 1 -6.694-1.013 7.117 7.117 0 0 1 -1.787-.729 2.743 2.743 0 0 1 -1.639-2.448c.091-1.446 1.594-2.277 2.914-2.9 11.714-5.066 24.442-7.263 37.078-9.028a14.87 14.87 0 0 0 3.723-1.138c1.423-.569 1.571.364 2.277 1.411a8.777 8.777 0 0 0 1.138 1.343 13.542 13.542 0 0 0 4.736 2.778c3.074 1.138 6.364 1.446 9.437 2.527a12.942 12.942 0 0 1 2.652 1.275 5.487 5.487 0 0 1 1.389 8.561z" fill="#464353" transform="translate(-47.541 51.333)"/><path d="m409.427 664.831a11.645 11.645 0 0 1 -4.713 3.313c-8.106 3.415-17.475 1.878-25.842-.9a39.41 39.41 0 0 0 -5.749-1.651 38.726 38.726 0 0 0 -5.385-.375c-1.286 0-2.573-.1-3.859-.182 1.047-.99 2.117-1.958 3.21-2.892a9.566 9.566 0 0 1 2.7-1.776 7.811 7.811 0 0 1 3.837-.262c6.512.9 12.363 5.464 18.932 5.066a23.291 23.291 0 0 0 8.709-2.812 15.2 15.2 0 0 0 5.692-4.052 6.57 6.57 0 0 0 1.059-2.038 5.487 5.487 0 0 1 1.389 8.561z" opacity=".06" transform="translate(-45.127 52.489)"/><path d="m405.092 501.816c-1.138 2.277-2.6 4.747-5.054 5.453-3.575 1.024-7.013-2.186-8.572-5.555a24 24 0 0 1 -1.138-15.664c.649-2.63 1.639-5.157 2.2-7.8a47.478 47.478 0 0 0 .729-6.728 41.126 41.126 0 0 0 -.239-10.109c-1.833-9.779-10.246-17.076-13.046-26.684-1.412-4.793-1.343-9.893-1.264-14.89a15.305 15.305 0 0 1 .387-3.757 5.868 5.868 0 0 1 .341-.979c1.878-4.167 7.445-4.736 11.316-7.161 2.14-1.332 7-5.624 8.8-1.708a12.888 12.888 0 0 1 .865 2.721c.74 3.483.444 7.57.626 10.86.694 12.431 3.791 24.84 2.356 37.2a38.8 38.8 0 0 0 -.5 6.375c.307 5.35 3.654 9.984 5.191 15.107 2.364 7.712.463 16.103-2.998 23.319z" fill="#fbbebe" transform="translate(-43.08 17.66)"/><path d="m400.412 408.982a3.837 3.837 0 0 0 -2.618 0l-7.707 2.277a47.731 47.731 0 0 0 -7.866 2.858 18.455 18.455 0 0 0 -3.13 1.947 5.88 5.88 0 0 1 .341-.979c1.878-4.167 7.445-4.736 11.316-7.161 2.14-1.332 7-5.624 8.8-1.708a12.874 12.874 0 0 1 .864 2.766z" opacity=".1" transform="translate(-43.022 17.657)"/><path d="m402.768 419.9a3.484 3.484 0 0 0 -3.119-.25l-7.707 2.277a47.715 47.715 0 0 0 -7.866 2.857 18.076 18.076 0 0 0 -3.745 2.436c-3.6-6.25-4.554-13.661-5.214-20.833-.364-4.178-.637-8.367-.8-12.522a56.173 56.173 0 0 1 .182-8.971c.433-3.415 1.423-6.751 2.038-10.143a46.271 46.271 0 0 0 .706-6.011 58.767 58.767 0 0 0 -.6-13.194 81.777 81.777 0 0 0 -3.165-13.661c-.729-2.038-1.605-4.007-2.4-6.011l-.273-.706a82.974 82.974 0 0 1 -3.518-11.282c-.364-1.571-.387-3.222-1.594-4.292a21.426 21.426 0 0 1 3.415-.137h.683a25.534 25.534 0 0 1 13.023 4.554 30.43 30.43 0 0 1 10.786 14.28c2.4 6.409 2.8 13.376 3.108 20.218q.922 20.172 1.138 40.368c0 2.584.114 5.339 1.594 7.468a15.25 15.25 0 0 1 1.142 1.655c.535 1.139.455 2.4.888 3.552a17.961 17.961 0 0 0 1.081 2 7.343 7.343 0 0 1 .217 6.348z" fill="#464353" transform="translate(-44.876 5.871)"/><path d="m332.115 290.448c-1.138-.376-2.277-.774-3.415-1.138l2.368.182a4.78 4.78 0 0 1 1.047.956z" fill="#fbbebe" transform="translate(-49.996 1.7)"/><path d="m379.42 331.392c-.228.774-.455 1.548-.706 2.277a43.513 43.513 0 0 1 -2.106 5.476 25.477 25.477 0 0 1 -5.385 7.809 7.15 7.15 0 0 1 -2.687 1.776 8.542 8.542 0 0 1 -2.641.25q-4.554 0-9.107-.137a32.357 32.357 0 0 1 -7.035-.694 25.122 25.122 0 0 1 -7.172-3.233c-8.5-5.259-15.494-13.274-18.488-22.768-.376-1.207-.638-2.652.193-3.6a4.4 4.4 0 0 1 2.9-.99h.137a18.338 18.338 0 0 0 6.933-2.379 7.126 7.126 0 0 0 3.165-3.233 8.719 8.719 0 0 0 -.1-5.032l-2.527-11.475a11.885 11.885 0 0 0 -2.015-5.111c.74.262 1.48.5 2.277.706 7.035 1.9 14.731.751 21.63 3.244 2.641.968 5.282 2.709 6.079 5.419 1.332 4.554-3.119 9.278-1.844 13.832.854 3.1 4.007 4.884 6.83 6.329l1.9.968 5.271 2.675.729.364.114.057c1.662.842 3.415 1.89 4 3.677a6.83 6.83 0 0 1 -.345 3.793z" fill="#fbbebe" transform="translate(-50.683 1.841)"/><path d="m393.308 354.968a24.58 24.58 0 0 1 -2.095 8.424 34.414 34.414 0 0 0 -3.586 14.8c-.877 15.368-6.716 33.663 1.651 46.572.2.319.41.638.6.968a18.074 18.074 0 0 0 -3.745 2.436c-3.6-6.25-4.554-13.661-5.214-20.833-.364-4.178-.638-8.367-.8-12.522a56.187 56.187 0 0 1 .182-8.971c.433-3.415 1.423-6.751 2.038-10.143a46.3 46.3 0 0 0 .706-6.011 58.782 58.782 0 0 0 -.6-13.194 81.776 81.776 0 0 0 -3.165-13.661c-.729-2.038-1.605-4.007-2.4-6.011l-.273-.706a25.475 25.475 0 0 1 -5.385 7.809 7.151 7.151 0 0 1 -2.687 1.776 8.539 8.539 0 0 1 -2.641.25q-4.554 0-9.107-.137a32.356 32.356 0 0 1 -7.035-.694 25.126 25.126 0 0 1 -7.172-3.233c-8.5-5.259-15.494-13.274-18.488-22.768-.376-1.207-.637-2.652.193-3.6a4.406 4.406 0 0 1 2.9-.99h.137l10.25 12.671a20.488 20.488 0 0 1 2.96 4.428 2.642 2.642 0 0 0 .911 1.355 2.334 2.334 0 0 0 1.138.2h32.057a8.322 8.322 0 0 0 -1.412-4.793c-.3.068-.694.091-.08-.091a32.266 32.266 0 0 0 -3.529-10.553 7.327 7.327 0 0 0 -.353-.66 12.136 12.136 0 0 1 -1.685-3.688 6.148 6.148 0 0 1 3.734 0c1.4.6 2.129 2.117 2.744 3.518.524 1.138 1.047 2.356 1.514 3.552 0 .125.114.262.16.387a25.778 25.778 0 0 1 1.89 7.388c.068.934.3 2.118 1.07 2.425a1.018 1.018 0 0 0 .387.091 4.3 4.3 0 0 1 4.656 1.138 10.245 10.245 0 0 1 2.277 4.485 24.53 24.53 0 0 0 1.617 4.827c1.469 2.8-.774 4.053 1.878 5.772a9.245 9.245 0 0 1 3.119 2.8 8.742 8.742 0 0 1 .683 5.18z" opacity=".1" transform="translate(-50.683 4.995)"/><path d="m330.374 663.66c.535 2.618 1.139 5.214 1.776 7.809l-.068.16c-5.2-2.277-10.53-4.656-16.211-5.157-5.271-.456-11 .968-14.583 4.793a17.27 17.27 0 0 0 -.33-2.482 3.768 3.768 0 0 1 .114-2.88c1.617-2.948 5.521-3.541 8.527-3.768a70.41 70.41 0 0 1 20.776 1.526z" opacity=".1" transform="translate(-53.868 53.273)"/><path d="m366.2 328.37c.535 0 .342 0 .08.091s-.697.091-.08-.091z" opacity=".1" transform="translate(-44.85 7.106)"/><path d="m393.627 650.846a98.894 98.894 0 0 0 -14.253 11.031 14.919 14.919 0 0 1 -4.5 3.29 13.134 13.134 0 0 1 -5.419.558 184.388 184.388 0 0 1 -21.379-2.117 2.743 2.743 0 0 1 -1.639-2.448c.091-1.446 1.594-2.277 2.914-2.9 11.714-5.066 24.442-7.263 37.078-9.028a14.862 14.862 0 0 0 3.723-1.138c1.423-.569 1.571.364 2.277 1.412a8.78 8.78 0 0 0 1.198 1.34z" opacity=".1" transform="translate(-47.541 51.333)"/><path d="m317.828 317.258c1.674 1.491 3.586 2.7 5.282 4.144 4.554 3.859 7.422 9.255 10.246 14.515a9.5 9.5 0 0 1 -5.225.353 37.474 37.474 0 0 0 .444 15.22 14.115 14.115 0 0 0 -5.089 6.318 42.245 42.245 0 0 0 -1.662 7.969q-2.459 17.771-4.941 35.541a5.51 5.51 0 0 1 -1.138 3.2 6.137 6.137 0 0 0 -.865.854 4.724 4.724 0 0 0 -.4 2.448c-.068.831-.615 1.822-1.446 1.708a1.8 1.8 0 0 1 -1.013-.66 23.228 23.228 0 0 1 -2.277-2.823c-6.717 12.887-9.95 26.775-13.5 40.869-2.539 10.041-5.077 20.2-5.2 30.555a131.671 131.671 0 0 0 .922 14.663l1 9.995c.808 8.037 1.617 16.086 2.493 24.123.569 5.1 1.138 10.246 2.971 15.05 2.732 7.3-.3 15.528.865 23.246.911 6.045 2.721 12.295.9 18.123-.729 2.334-2 4.463-2.96 6.717-2.345 5.6-2.584 11.828-2.789 17.9a75.136 75.136 0 0 0 .592 15.938c.979 5.453 3.176 10.792 2.744 16.3-.6 7.844-6.386 14.549-7.092 22.381-.558 6.25 2.186 12.283 5.134 17.827 2.174 4.087-.854 9.369-2 13.866-2.277 8.811 1.514 18.032 6.159 25.853a1.24 1.24 0 0 0 .592.615c.535.193 1.013-.33 1.366-.774 3.495-4.485 9.688-6.181 15.369-5.692s11 2.835 16.211 5.157l7.379-16.457c1.252-2.789 2.527-5.806 1.9-8.8-.444-2.14-1.822-3.95-2.8-5.908-2.277-4.622-2.391-10.007-2.414-15.186l-.136-29.257c5.76-7.24 9.278-15.847 11.5-24.84a79.686 79.686 0 0 1 .683 38.706 35.128 35.128 0 0 0 -1.138 5.9c-.444 8.117 5.92 14.981 7.616 22.927a4.934 4.934 0 0 1 .137 1.867 7.036 7.036 0 0 1 -.945 2.163c-3.051 5.533-2.721 12.238-2.277 18.545a184.806 184.806 0 0 0 24.147 2.583 13.57 13.57 0 0 0 5.419-.558 14.961 14.961 0 0 0 4.5-3.3 99.28 99.28 0 0 1 16.928-12.807 39.409 39.409 0 0 0 -13.832-13.661c1.833-2.7 6.011-2.482 8.447-4.645a7.969 7.969 0 0 0 2.277-4.485c.911-4.463-.216-9.107-1.344-13.49-2.186-8.629-4.383-17.292-7.969-25.443a97.818 97.818 0 0 1 -4.28-10.3c-2.983-9.813-.9-20.491-3.153-30.521-.729-3.21-1.9-6.523-1.082-9.722 1.252-4.929 6.83-7.855 8.06-12.8 4.406-17.588 5.191-35.814 7.7-53.767a69.072 69.072 0 0 0 .9-10.371c0-3.631-.649-7.229-.911-10.849-1.025-14.492 3.609-28.95 2.425-43.43a54.642 54.642 0 0 0 -8.568-25.051c-8.367-12.921-2.527-31.2-1.651-46.572a34.241 34.241 0 0 1 3.575-14.8 24.284 24.284 0 0 0 2.106-8.424 8.709 8.709 0 0 0 -.638-5.316 8.983 8.983 0 0 0 -3.108-2.8c-2.653-1.73-.41-2.983-1.879-5.783a24.294 24.294 0 0 1 -1.616-4.827 10.154 10.154 0 0 0 -2.277-4.474 4.3 4.3 0 0 0 -4.656-1.138c-1.081 0-1.377-1.434-1.469-2.516-.307-3.962-1.947-7.684-3.552-11.327-.615-1.4-1.343-2.914-2.743-3.518a6.274 6.274 0 0 0 -3.745 0 12.1 12.1 0 0 0 1.7 3.7 32.151 32.151 0 0 1 3.87 11.2c-1.138.341 1.138 0 0 0a7.969 7.969 0 0 1 1.493 4.895h-32.051a2.278 2.278 0 0 1 -1.138-.2 2.732 2.732 0 0 1 -.922-1.355 19.727 19.727 0 0 0 -2.96-4.417l-11.27-13.9a2.848 2.848 0 0 0 -.968-.876 2.616 2.616 0 0 0 -1.423 0c-3.654.525-6.352 2.048-9.54 3.906z" fill="#001f40" transform="translate(-55.267 5.013)"/><path d="m351.217 482.21a10.861 10.861 0 0 1 5.544 1.435 5.589 5.589 0 0 1 2.755 4.8c-.125 2.151-1.776 3.859-2.971 5.692a15.265 15.265 0 0 0 -1.753 3.6 1.445 1.445 0 0 0 -.091.922c.137.433.6.649 1 .843a8.549 8.549 0 0 1 5.02 7.468c-.1 4.44-4.44 8.037-4.2 12.522a25.768 25.768 0 0 0 .478 2.778 21.22 21.22 0 0 1 -1.537 11.259c-1.377 3.575-3.256 6.933-4.736 10.473-4 9.62-4.861 20.275-4.554 30.737.239 7.1-2.277 13.866-4.553 20.628a296.532 296.532 0 0 0 1.025-40.983c-.159-3.711-.626-7.218-.455-10.94.273-5.908 3.575-11.282 4.417-17.076.478-3.313.159-6.682.239-10.029.159-6.83 2.015-13.57 2.14-20.423.16-4.838-.285-9.824 2.232-13.706z" opacity=".1" transform="translate(-48.208 28.398)"/><path d="m310.478 319.278a31.214 31.214 0 0 0 -6.307 4.167 26.863 26.863 0 0 0 -4.986 6.83 87.261 87.261 0 0 0 -4.223 8.834c-1.605 3.916-2.937 8.254-1.833 12.34 1 3.7 3.837 6.58 5.795 9.87s3.108 7.149 4.611 10.758c2 4.815 4.747 9.3 6.728 14.128s3.176 10.246 1.924 15.266c-.364 1.48-2.766 2.63-2.766 4.144 0 2.5 3.62 5.225 6.022 5.954 2.766.854 5.783-.421 8.049-2.277 4.155-3.29 6.682-8.219 8.549-13.183 3.005-7.969 4.61-16.427 6.056-24.829 1.047-6.17 2.026-12.352 2.584-18.567.512-5.6.672-11.384-.808-16.757a28.461 28.461 0 0 0 -7.775-12.932c-2.96-2.846-7.809-6.671-12.113-6.773-3.405-.013-6.592 1.422-9.507 3.027z" fill="#464353" transform="translate(-54.975 5.429)"/><path d="m345.533 445.744a5.442 5.442 0 0 1 -2.539 3.791 14.947 14.947 0 0 1 -4.337 1.776c-3.051.888-6.284 1.708-9.369.922a18.808 18.808 0 0 1 -6.58-3.745l-34.471-26.388a46.556 46.556 0 0 1 -7.593-6.739 48.546 48.546 0 0 1 -3.6-5.111 25.045 25.045 0 0 1 -3.344-6.65 12.172 12.172 0 0 1 -.41-3.2 6.024 6.024 0 0 1 .729-2.926c.831-1.389 2.607-1.673 4.064-2.06a42.645 42.645 0 0 1 14.993-1.138 2.038 2.038 0 0 1 2.026 1.378c.763 1.4 1.423 2.857 2.106 4.314a31.2 31.2 0 0 0 4.064 6.956 58.679 58.679 0 0 0 5.066 4.884c3.643 3.415 6.625 7.513 10.507 10.656 4.5 3.631 9.961 5.806 15.084 8.481s10.177 6.147 12.75 11.327a6.637 6.637 0 0 1 .854 3.472z" fill="#fbbebe" transform="translate(-57.665 16.197)"/><path d="m378.654 281.167a28.186 28.186 0 1 1 -.785-6.6 28.188 28.188 0 0 1 .785 6.6z" opacity=".1" transform="translate(-50.885 -3.328)"/><path d="m378.654 280.167a28.186 28.186 0 1 1 -.785-6.6 28.188 28.188 0 0 1 .785 6.6z" fill="#fbbebe" transform="translate(-50.885 -3.466)"/><path d="m297.208 399.923c-1.3.831-3.222.558-4.827.193-6.33-1.412-13.319-2.425-19.091.285a6.022 6.022 0 0 1 .729-2.926c.831-1.389 2.607-1.673 4.064-2.061a42.645 42.645 0 0 1 14.993-1.138 2.038 2.038 0 0 1 2.026 1.378c.763 1.355 1.423 2.812 2.106 4.269z" opacity=".1" transform="translate(-57.665 16.198)"/><path d="m285.476 369.155c-1.4 4.554-2.55 9.232-5.294 13.092a9.677 9.677 0 0 0 -2 3.506 10.926 10.926 0 0 1 -.467 2.823c-.387.774-1.207 1.286-1.537 2.083-.49 1.139.148 2.607-.5 3.677a5.462 5.462 0 0 1 -1.082 1.139c-1.548 1.434-1.935 3.722-1.969 5.84s.171 4.281-.524 6.273c6.011-3.586 13.661-2.516 20.491-.99 1.9.421 4.258.74 5.487-.786s.524-3.529.694-5.362c.228-2.391 1.867-4.371 2.88-6.546 1.138-2.448 1.525-5.18 2.4-7.73 1.81-5.362 5.692-9.733 8.185-14.8a14.216 14.216 0 0 0 1.616-5.624 16.779 16.779 0 0 0 -1.947-7.3 99.822 99.822 0 0 0 -8.424-15.038c-1.446-2.129-3.939-6.068-6.182-2.664-1.821 2.744-2.96 6.239-4.3 9.244a169.215 169.215 0 0 0 -7.527 19.163z" fill="#464353" transform="translate(-57.83 8.635)"/><path d="m381.9 336.582a23.007 23.007 0 0 1 -18.419-7.274 2.824 2.824 0 0 1 -.82-1.332 2.675 2.675 0 0 1 .524-1.867c1.366-2.106 3.722-3.495 4.815-5.76s.717-4.872.82-7.354c.182-4.451 1.935-8.857 2.083-13.24a13.843 13.843 0 0 0 -.25-3.347 20.975 20.975 0 0 1 -.956-5.043c.148-3.336 3.153-5.931 3.654-9.221.649-4.189-2.823-7.832-6.318-10.246a37.641 37.641 0 0 0 -8.606-4.451 28.017 28.017 0 0 0 -5.783-1.4 22.538 22.538 0 0 0 -10.894 1.218 17.792 17.792 0 0 0 -4.053 2.163 5.485 5.485 0 0 0 -1.81 1.878 6.112 6.112 0 0 0 -.478 2.721c-.068 4.656.455 9.608-1.764 13.661-1.138 2.174-3.074 3.939-4.019 6.238a10.365 10.365 0 0 0 -.717 2.994 30.132 30.132 0 0 0 -.171 3.21c-.068 6 0 12.329 3.051 17.531a45.713 45.713 0 0 1 2.926 4.906 5.589 5.589 0 0 1 -.285 5.453 6.2 6.2 0 0 1 -2.277 1.708 18.215 18.215 0 0 1 -14.56.524 18.454 18.454 0 0 0 4.3-20.582 12.145 12.145 0 0 1 -1.571-4.553 11.557 11.557 0 0 1 1.138-4.167 22.768 22.768 0 0 0 .694-13.342c-.694-2.709-1.9-5.328-2.117-8.117a24.544 24.544 0 0 1 .273-6.307 20.492 20.492 0 0 1 14.036-16.154c.581-.193 1.138-.376 1.776-.535a37.872 37.872 0 0 1 8.413-.9c6.318-.2 12.727-.387 18.818 1.264a25.25 25.25 0 0 1 9.745 5.009 17.589 17.589 0 0 1 4.713 6.227 21.636 21.636 0 0 1 1.332 4.3c.262 1.218.455 2.448.649 3.677 1.378 8.754 2.755 17.679 1.286 26.422-.581 3.415-1.594 6.83-2.049 10.314-1.104 8.03.889 16.01 2.871 23.774z" fill="#464353" transform="translate(-51.534 -2.984)"/><circle cx="289.917" cy="342.727" fill="#fff" r="2.117"/><circle cx="325.651" cy="341.725" fill="#fff" r="2.117"/><path d="m339.1 241.966-4.554-8.595a8.323 8.323 0 0 1 .945-.956 3.608 3.608 0 0 1 2.2-.524z" opacity=".1" transform="translate(-49.186 -6.249)"/><path d="m350.564 231.722-5.157 7.627-2.937-8.367a9.314 9.314 0 0 1 3.973-.751 13.206 13.206 0 0 1 4.121 1.491z" opacity=".1" transform="translate(-48.09 -6.477)"/><g opacity=".1" transform="translate(266.056 260.571)"><path d="m334.427 317.422a6.2 6.2 0 0 1 -2.277 1.708 18.3 18.3 0 0 1 -12.944 1.081 17.71 17.71 0 0 1 -1.616 1.719 18.215 18.215 0 0 0 14.56-.524 6.2 6.2 0 0 0 2.277-1.708 4.906 4.906 0 0 0 .729-3.939 4.041 4.041 0 0 1 -.729 1.663z" transform="translate(-317.59 -255.21)"/><path d="m321.8 285.124a22.417 22.417 0 0 1 .649 4.554 22.685 22.685 0 0 0 -.649-6.83c-.694-2.709-1.9-5.328-2.117-8.117a6.821 6.821 0 0 0 -.057-1.07 25.374 25.374 0 0 0 .057 3.347c.217 2.792 1.417 5.406 2.117 8.116z" transform="translate(-317.313 -261.037)"/><path d="m373.573 297.917a49.8 49.8 0 0 0 .615-9.107 47.436 47.436 0 0 1 -.615 6.83c-.581 3.415-1.594 6.831-2.049 10.314a35.939 35.939 0 0 0 -.262 5.635 33.6 33.6 0 0 1 .262-3.358c.455-3.483 1.469-6.864 2.049-10.314z" transform="translate(-310.164 -258.94)"/><path d="m321.521 301.528a18.721 18.721 0 0 1 -1.434-3.518 5.142 5.142 0 0 0 -.137 1.252 12.149 12.149 0 0 0 1.571 4.553 17.2 17.2 0 0 1 1.423 6.034 17.645 17.645 0 0 0 -1.423-8.321z" transform="translate(-317.263 -257.667)"/><path d="m364.32 292.1a14.9 14.9 0 0 1 .216 1.571v-.5a13.825 13.825 0 0 0 -.251-3.347c-.25-1.2-.66-2.379-.854-3.586a5.033 5.033 0 0 0 -.1.82 20.981 20.981 0 0 0 .989 5.042z" transform="translate(-311.259 -259.296)"/><path d="m358 318.361a5.986 5.986 0 0 1 -.49-.581 2.354 2.354 0 0 0 -.33 1.525 2.821 2.821 0 0 0 .82 1.332 23.007 23.007 0 0 0 18.419 7.274c-.193-.751-.387-1.491-.569-2.277a22.973 22.973 0 0 1 -17.85-7.273z" transform="translate(-312.113 -254.931)"/><path d="m371.164 279a.489.489 0 0 1 0-.125c.649-4.189-2.823-7.832-6.318-10.246a37.647 37.647 0 0 0 -8.606-4.451 28.02 28.02 0 0 0 -5.783-1.4 22.542 22.542 0 0 0 -10.895 1.218 17.8 17.8 0 0 0 -4.053 2.163 5.488 5.488 0 0 0 -1.81 1.878 6.111 6.111 0 0 0 -.478 2.721v2.277a6.113 6.113 0 0 1 .478-2.721 5.487 5.487 0 0 1 1.81-1.878 17.792 17.792 0 0 1 4.053-2.163 22.539 22.539 0 0 1 10.895-1.218 28.012 28.012 0 0 1 5.783 1.4 37.641 37.641 0 0 1 8.606 4.451c2.903 1.955 5.76 4.778 6.318 8.094z" transform="translate(-315.428 -262.572)"/><path d="m332.286 282.881c-1.138 2.174-3.074 3.939-4.019 6.238a10.371 10.371 0 0 0 -.717 2.994 30.13 30.13 0 0 0 -.171 3.21v2.277a30.187 30.187 0 0 1 .171-3.215 10.368 10.368 0 0 1 .716-2.989c.945-2.277 2.835-4.064 4.019-6.239 1.833-3.415 1.8-7.343 1.765-11.247a18.989 18.989 0 0 1 -1.764 8.971z" transform="translate(-316.235 -261.002)"/></g><path d="m378.743 272.96a3.317 3.317 0 0 1 -.547.6 5.217 5.217 0 0 1 -1.332.8c-3.313 1.434-3.176-3.244-4.906-4.85a5.885 5.885 0 0 0 -3.848-1.138q-5-.25-10.007-.444c-5.567-.2-11.122-.307-16.678-.182q-4 .068-7.969.33c-3.074.2-6.375.6-8.993 2.061a9.526 9.526 0 0 0 -2.4 1.878c-.626.683-1.286 1.548-2.152 1.708a20.491 20.491 0 0 1 14.036-16.154 28.176 28.176 0 0 1 38.706 4.838 17.587 17.587 0 0 1 4.713 6.227 21.622 21.622 0 0 1 1.377 4.326z" opacity=".1" transform="translate(-51.213 -3.465)"/><path d="m377.006 275.1c-3.313 1.434-3.176-3.244-4.907-4.85a5.885 5.885 0 0 0 -3.848-1.138 303.414 303.414 0 0 0 -34.653-.3c-4.109.273-8.618.888-11.384 3.939-.706.774-1.446 1.776-2.5 1.742-.353-2.277-.6-4.645-.774-6.978a7.761 7.761 0 0 1 .137-2.618c.284-.979.933-1.81 1.264-2.766a11.091 11.091 0 0 0 .342-3.734 26.98 26.98 0 0 1 13.274-22.95 12.064 12.064 0 0 0 2.766-1.867 8.316 8.316 0 0 1 .945-.956 3.609 3.609 0 0 1 2.2-.524h1.616a14.7 14.7 0 0 0 4.269-1.138 9.312 9.312 0 0 1 3.973-.751 13.2 13.2 0 0 1 4.121 1.491 9.983 9.983 0 0 0 1.924.694c1.036.239 2.106.228 3.142.433a15.335 15.335 0 0 1 4.713 2.095 22.489 22.489 0 0 1 4.736 3.415 20.955 20.955 0 0 1 3.666 5.965 42.726 42.726 0 0 1 3.415 9.471c.922 4.713.467 9.813 2.652 14.094 1.325 2.687 2.543 5.669-1.089 7.231z" fill="#fed253" transform="translate(-51.355 -6.48)"/><path d="m319.25 267.8s23.6-21.47 58.742-3.666c0 .005-39.674-9.023-58.742 3.666z" opacity=".1" transform="translate(-51.304 -2.761)"/><path d="m94.265 376.112c-3.21-5.26-8.037-10.075-7.286-16.04 8.834 1.013 17.213-1.138 25.307-4.884s15.607-8.606 23.189-13.376c2.983-1.878 5.954-3.723 8.914-5.43 4.69-2.687 9.346-5.692 14.116-8.322 6.83-3.757 13.8-6.83 21.47-7.422a39.14 39.14 0 0 1 4.178-.1c9.449.182 19.239 2.721 27.549-1.514l.512-.273c4.713-2.584 8.14-6.978 12.181-10.542a54.409 54.409 0 0 1 9.437-6.557c6.136-3.415 12.784-6.147 19.057-9.369a28.884 28.884 0 0 0 4.554-2.914l1.07-.854.239-.2c.262-.216.524-.432.774-.66l.49-.433.5-.455.387-.364.626-.592.068-.08.99-.979.4-.4.694-.717.41-.41c.694-.717 1.389-1.446 2.095-2.151s1.662-1.662 2.516-2.448l.82-.729.239-.2.66-.547.307-.262.649-.5.319-.251c.319-.239.649-.467.979-.694a7.13 7.13 0 0 1 .956-.558l-2.129-5.157 6.125-2.527 84.473 204.959-6.136 2.527-48.316-117.256-.341.342a96.994 96.994 0 0 1 -39.947 23.77h-.091c-8.413 2.539-17.827 4.337-24.908 9.05a23.907 23.907 0 0 0 -6.432 6.159c-1.662 2.368-2.823 5.066-4.554 7.343-.33.421-.694.831-1.059 1.218a39.583 39.583 0 0 1 -6.83 5.419l-1.081.74a221.369 221.369 0 0 1 -22.882 14.1 90.278 90.278 0 0 1 -14.223 5.928c-3.563 1.139-7.24 1.969-10.8 3.1a42.294 42.294 0 0 0 -6.956 2.8c-6.034 3.153-10.667 8.094-15.05 13.365-3.836 4.622-7.479 9.517-11.691 13.729-2.641 2.618-6.66 5.1-9.847 3.563l-.649-.376c.1-.171.182-.341.273-.524 2.516-5.271-.581-11.782-4.747-16.006-.433-.444-.877-.877-1.332-1.286s-1.275-1.138-1.924-1.708c-3.563-3.062-7.354-5.908-9.824-9.859a32.161 32.161 0 0 1 -3.779-10.712c-1.138-5.362-1.9-10.883-4.815-15.448-1.913-3.017-4.759-5.59-6.83-8.481a12.92 12.92 0 0 1 -2.5-5.851c-.467-3.7 1.252-7.32 1.9-11.008a13.74 13.74 0 0 0 .239-3.051 16.154 16.154 0 0 0 -2.703-7.635z" fill="url(#b)" transform="translate(-83.462 -1.361)"/><path d="m0 0h6.523v217.97h-6.523z" fill="#d6d8e1" transform="matrix(-.92454603 .38107038 -.38107038 -.92454603 276.380192 469.079248)"/><path d="m105.909 410.34c2.857 4.5 3.62 9.916 4.724 15.186a31.989 31.989 0 0 0 3.723 10.542c2.436 3.882 6.159 6.682 9.654 9.688.637.558 1.275 1.138 1.89 1.685.444.4.888.831 1.309 1.252 4.1 4.155 7.138 10.564 4.667 15.744a4.341 4.341 0 0 1 -.262.512 5.208 5.208 0 0 0 .626.364c3.142 1.525 7.092-.911 9.688-3.495 4.144-4.144 7.73-8.948 11.5-13.49 4.3-5.191 8.868-10.052 14.8-13.149a40.978 40.978 0 0 1 6.83-2.755c3.495-1.138 7.115-1.947 10.621-3.04a89.41 89.41 0 0 0 13.98-5.817 219.192 219.192 0 0 0 22.54-13.877l1.07-.729a39.108 39.108 0 0 0 6.717-5.316c.364-.387.717-.786 1.047-1.207 1.753-2.277 2.9-4.884 4.554-7.218a23.52 23.52 0 0 1 6.33-6.056c6.967-4.633 16.211-6.409 24.487-8.9h.091a95.559 95.559 0 0 0 39.275-23.371 6.4 6.4 0 0 0 1.967-2.893c.353-1.605-.512-3.2-1.343-4.61-.968-1.662-1.913-3.324-2.846-5.009a223.694 223.694 0 0 1 -11.225-23.6c-.717-1.776-1.412-3.54-2.083-5.328q-2.584-6.83-4.713-13.854c-.467-1.548-.922-3.108-1.355-4.667-.08-.3-.171-.615-.25-.956-1.89-7.593-4.417-25.364-12.2-20.047a45.048 45.048 0 0 0 -6.432 5.59c-1.514 1.537-2.994 3.119-4.554 4.645a46 46 0 0 1 -4.019 3.518 29.518 29.518 0 0 1 -4.554 2.869c-6.182 3.165-12.716 5.817-18.738 9.21a53.266 53.266 0 0 0 -9.289 6.443c-3.973 3.506-7.343 7.832-11.976 10.371l-.5.273c-8.174 4.155-17.793 1.662-27.094 1.48a40.914 40.914 0 0 0 -4.1.1c-7.548.569-14.446 3.6-21.117 7.3-4.69 2.6-9.267 5.533-13.877 8.185-2.914 1.673-5.829 3.484-8.766 5.339-7.445 4.69-14.993 9.608-22.768 13.16-7.969 3.62-16.2 5.783-24.885 4.793-.74 5.863 4 10.6 7.161 15.767a15.654 15.654 0 0 1 2.675 7.479 13.216 13.216 0 0 1 -.216 2.994c-.637 3.631-2.277 7.183-1.867 10.838a12.579 12.579 0 0 0 2.448 5.726c1.976 2.832 4.765 5.371 6.655 8.331z" fill="#f86d70" transform="translate(-83.175 -.287)"/><path d="m307.2 414.71s9.972 8.7 20.081 13.331 3.415 21.254 3.415 21.254-10.712 2.459-18.214-7.969-5.282-26.616-5.282-26.616z" fill="#fbbebe" transform="translate(-53.015 19.056)"/><path d="m788.484 544.784s-26.411 34.756-48.325 35.04-34.778 14.64-24.373 23.611 123.79-5.123 123.79-5.123 1.07-42.713-8.754-48.951-42.338-4.577-42.338-4.577z" fill="#444176" transform="translate(3.07 37.031)"/><path d="m1030 582.431s4.041 27.527-8.447 46.3 22.563 26.013 22.563 26.013 25.466 7.092 27.322-18.066 1.252-44.4-1.138-46.447-4.383-16.2-4.383-16.2z" fill="#444176" transform="translate(45.525 41.106)"/><path d="m677.45 662.771s-.922-89.034 87.179-125.224l20.457-38.922 9.813-23.906a58.171 58.171 0 0 1 41.085-34.676l15.869-3.563 4.906-20.673a58.15 58.15 0 0 1 46.458-43.874 162.705 162.705 0 0 1 29.257-2.732 25.181 25.181 0 0 1 21.39 12.523s83.468-.922 87.168 44.523c0 0 8.356 41.723 20.411 49.145 0 0 20.4-4.633 40.8 25.045l22.257 76.043s58.423 54.712 40.8 104.733c0 0-24.112 34.312-146.524 11.122 0 0-130.757 39.844-200.359-14.8-.01.065-115.922 22.325-140.967-14.764z" fill="#a8a8a8" transform="translate(-1.728 12.757)"/><g fill="none" stroke="#000" stroke-miterlimit="10"><path d="m728.77 628.024s18.556-25.967 17.622-44.523 4.371-63.75 4.371-63.75" opacity=".1" transform="translate(5.375 33.594)"/><path d="m788.24 564.153s18.544-34.312 16.689-52.856c0 0 19.478-35.29 34.311-32.467" opacity=".1" transform="translate(13.606 27.908)"/><path d="m877.85 472.278s51-18.544 53.79-33.378" opacity=".1" transform="translate(26.008 22.404)"/><path d="m894.14 509.422s53.79-24.111 53.79-30.612h26.878s38.956 51.012 34.323 73.268" opacity=".1" transform="translate(28.263 27.928)"/><path d="m970.063 538.33s-51.934-3.711-70.49 11.134-51.934 22.256-51.934 22.256-19.478 41.734-26.9 49.145-19.478 33.389-19.478 33.389" opacity=".1" transform="translate(15.408 36.108)"/><path d="m949.54 581.46s5.556 19.467 12.978 30.6 18.544 51 18.544 51" opacity=".1" transform="translate(35.93 42.135)"/><path d="m1026.11 631.15s11.771 32.752 22.119 33.071" opacity=".1" transform="translate(46.528 49.012)"/><path d="m958.38 507.66s30.577 8.265 43.362 28.289 51.832 38.182 51.832 38.182" opacity=".1" transform="translate(37.154 31.92)"/><path d="m969.9 421s0 42.656 12.056 42.656 38.956 4.633 38.956 4.633" opacity=".1" transform="translate(38.748 19.926)"/><path d="m920.292 376.5s-3.085 73.689-18.852 92.768" opacity=".1" transform="translate(29.273 13.767)"/></g><g opacity=".05" transform="translate(735.01 381.069)"><path d="m1093.28 575.7-22.256-76.045c-20.4-29.678-40.8-25.045-40.8-25.045-12.056-7.422-20.4-49.156-20.4-49.156-3.711-45.445-87.179-44.512-87.179-44.512a25.182 25.182 0 0 0 -21.436-12.522c-3.939 0-7.969.125-12 .455q3.415.341 6.546.968l6.489 11.134s83.456-.933 87.168 44.512c0 0 8.356 41.734 20.411 49.156 0 0 20.4-4.645 40.8 25.045l22.256 76.045s58.423 54.712 40.8 104.733c0 0-11.9 16.928-61.383 18.977 66.722 2.448 81.783-18.977 81.783-18.977 17.621-50.056-40.799-104.768-40.799-104.768z" transform="translate(-707.43 -368.42)"/><path d="m788.943 639.29a433.051 433.051 0 0 1 -59.413 6.5c23.235.888 47.4-1.628 62.977-3.768-1.207-.922-2.391-1.81-3.564-2.732z" transform="translate(-729.53 -330.931)"/><path d="m968.326 652.33a380.9 380.9 0 0 1 -87.566 13.843c42.747 1.548 83.24-7.365 99.929-11.646-4.03-.672-8.117-1.434-12.363-2.197z" transform="translate(-708.599 -329.126)"/></g><path d="m306.73 781.066s25.512-.785 33.2-6.261 39.229-12.01 41.142-3.233 38.33 43.658 9.528 43.9-66.9-4.485-74.577-9.164-9.293-25.242-9.293-25.242z" fill="#a8a8a8" transform="translate(-53.037 67.853)"/><path d="m391.12 810.729c-28.8.239-66.915-4.485-74.588-9.107-5.84-3.563-8.174-16.336-8.948-22.222h-.854s1.617 20.571 9.289 25.238 45.786 9.392 74.577 9.164c8.322-.068 11.191-3.028 11.031-7.411-1.15 2.642-4.327 4.292-10.507 4.338z" opacity=".2" transform="translate(-53.037 69.53)"/><path d="m867.407 726.777s-30.042-6.011-38.045-14.025-44.056-22.017-48.063-12.01-54.063 44.056-20.025 50.09 80.1 7.969 90.116 4.007 16.017-28.062 16.017-28.062z" fill="#a8a8a8" transform="translate(8.241 58.163)"/><path d="m761.273 743.5c34.05 6 80.1 7.969 90.116 4 7.616-3.051 12.921-17.7 15.016-24.521l1 .216s-6.011 24.02-16.018 28.028-56.066 2-90.116-4.007c-9.824-1.73-12.636-5.806-11.577-10.951.844 3.382 4.27 5.967 11.579 7.235z" opacity=".2" transform="translate(8.242 61.72)"/><path d="m609.248 149.748h-7.148a5.009 5.009 0 0 0 0-10.018h-57.924a5.009 5.009 0 1 0 0 10.018h7.149a5.009 5.009 0 0 0 0 10.007h-10.006a5.009 5.009 0 0 0 0 10.018h57.922a5.009 5.009 0 1 0 0-10.018h10.007a5.009 5.009 0 1 0 0-10.007z" fill="#001f40" opacity=".1" transform="translate(-21.262 -19.002)"/><path d="m806.874 304.557h-7.149a5.009 5.009 0 0 0 0-10.007h-57.979a5.009 5.009 0 1 0 0 10.006h7.154a5.009 5.009 0 0 0 0 10.007h-10.011a5.009 5.009 0 1 0 0 10.018h57.911a5.009 5.009 0 0 0 0-10.018h10.075a5.009 5.009 0 1 0 0-10.007z" fill="#001f40" opacity=".1" transform="translate(6.082 2.425)"/><path d="m514.04 275.917h-7.149a5.009 5.009 0 1 0 0-10.006h-57.933a5.009 5.009 0 1 0 0 10.006h7.149a5.009 5.009 0 1 0 0 10.007h-10.018a5.009 5.009 0 1 0 0 10.018h57.922a5.009 5.009 0 1 0 0-10.018h10.007a5.009 5.009 0 1 0 0-10.007z" fill="#001f40" opacity=".1" transform="translate(-34.442 -1.539)"/></svg>