<svg id="Componente_35_1" data-name="Componente 35 – 1" xmlns="http://www.w3.org/2000/svg" xmlns:xlink="http://www.w3.org/1999/xlink" width="240.363" height="240.036" viewBox="0 0 240.363 240.036">
  <defs>
    <clipPath id="clip-path">
      <rect id="Retângulo_3538" data-name="Retângulo 3538" width="240.363" height="240.036" fill="none"/>
    </clipPath>
  </defs>
  <g id="Grupo_16917" data-name="Grupo 16917" clip-path="url(#clip-path)">
    <path id="Caminho_14384" data-name="Caminho 14384" d="M240.363,120.017A120.181,120.181,0,1,1,120.181,0,120.1,120.1,0,0,1,240.363,120.017" fill="#e8af2e"/>
    <path id="Caminho_14385" data-name="Caminho 14385" d="M232.647,134A98.465,98.465,0,1,1,134.183,35.67,98.4,98.4,0,0,1,232.647,134" transform="translate(-14.002 -13.984)" fill="#f9ca35"/>
    <path id="Caminho_14386" data-name="Caminho 14386" d="M183.884,137.047q-.907-10.82-20.021-10.883-19.187-.072-19.232,10.151c-.009,4.171,2.028,7.206,6.147,9.089q6.178,2.86,24.85,6.483,18.678,3.647,27.4,12.059c5.816,5.6,8.734,12.889,8.692,21.846q-.052,15.673-14.125,24.164-14.036,8.49-32.166,8.425-43.751-.159-49.758-33.653l24.156-1.863q2.614,17.573,25.819,17.65,21.749.078,21.79-14.64a10.562,10.562,0,0,0-5.247-9.722q-5.255-3.215-24.732-7.076-19.45-3.877-28.091-11.7a25.174,25.174,0,0,1-8.581-19.462q.048-12.478,11.191-21.091t32.372-8.526q42.041.143,43.974,27.959Z" transform="translate(-45.346 -42.459)" fill="#e8af2e"/>
    <path id="Caminho_14387" data-name="Caminho 14387" d="M201.5,98.591,178.511,98.5l.059-20.89,23.01.074Z" transform="translate(-69.984 -30.428)" fill="#e8af2e"/>
    <path id="Caminho_14388" data-name="Caminho 14388" d="M200.813,303.692,177.8,303.6l.058-20.892,23,.082Z" transform="translate(-69.707 -110.835)" fill="#e8af2e"/>
    <path id="Caminho_14389" data-name="Caminho 14389" d="M189.155,35.43a4.706,4.706,0,0,0,4.7,4.687h1.476a4.693,4.693,0,0,0,4.7-4.687V16.836a4.681,4.681,0,0,0-4.7-4.68H193.86a4.694,4.694,0,0,0-4.7,4.68Z" transform="translate(-74.157 -4.766)" fill="#5f3813"/>
    <path id="Caminho_14390" data-name="Caminho 14390" d="M33.909,200.379a4.706,4.706,0,0,0,4.694-4.7v-1.474a4.694,4.694,0,0,0-4.694-4.69H15.291a4.681,4.681,0,0,0-4.687,4.69v1.474a4.694,4.694,0,0,0,4.687,4.7Z" transform="translate(-4.157 -74.299)" fill="#5f3813"/>
    <path id="Caminho_14391" data-name="Caminho 14391" d="M199.083,344.388a4.706,4.706,0,0,0-4.7-4.687H192.9a4.694,4.694,0,0,0-4.7,4.687v18.593a4.682,4.682,0,0,0,4.7,4.681h1.475a4.693,4.693,0,0,0,4.7-4.681Z" transform="translate(-73.785 -133.177)" fill="#5f3813"/>
    <path id="Caminho_14392" data-name="Caminho 14392" d="M343.288,190.465a4.706,4.706,0,0,0-4.693,4.7v1.474a4.7,4.7,0,0,0,4.693,4.691h18.619a4.682,4.682,0,0,0,4.687-4.691v-1.474a4.693,4.693,0,0,0-4.687-4.7Z" transform="translate(-132.744 -74.67)" fill="#5f3813"/>
    <path id="Caminho_14393" data-name="Caminho 14393" d="M112.695,58.046a2.425,2.425,0,0,0,3.3.88l.658-.379a2.415,2.415,0,0,0,.886-3.3L112.75,46.96a2.414,2.414,0,0,0-3.3-.882l-.657.38a2.413,2.413,0,0,0-.891,3.3Z" transform="translate(-42.175 -17.937)" fill="#a5701c"/>
    <path id="Caminho_14394" data-name="Caminho 14394" d="M54.234,118.127a2.426,2.426,0,0,0,3.3-.888l.379-.657a2.411,2.411,0,0,0-.884-3.3l-8.3-4.788a2.415,2.415,0,0,0-3.3.887l-.381.657a2.415,2.415,0,0,0,.88,3.3Z" transform="translate(-17.535 -42.409)" fill="#a5701c"/>
    <path id="Caminho_14395" data-name="Caminho 14395" d="M56.557,277.116a2.416,2.416,0,0,0,.882-3.3l-.379-.658a2.419,2.419,0,0,0-3.3-.885l-8.3,4.786a2.406,2.406,0,0,0-.88,3.3l.38.657a2.421,2.421,0,0,0,3.3.89Z" transform="translate(-17.347 -106.616)" fill="#a5701c"/>
    <path id="Caminho_14396" data-name="Caminho 14396" d="M116.722,333.421a2.417,2.417,0,0,0-.889-3.3l-.657-.379a2.418,2.418,0,0,0-3.3.882l-4.793,8.291a2.4,2.4,0,0,0,.888,3.293l.658.38a2.421,2.421,0,0,0,3.3-.879Z" transform="translate(-41.853 -129.146)" fill="#a5701c"/>
    <path id="Caminho_14397" data-name="Caminho 14397" d="M275.927,331.1a2.425,2.425,0,0,0-3.305-.88l-.659.379a2.413,2.413,0,0,0-.885,3.3l4.793,8.291a2.413,2.413,0,0,0,3.3.88l.66-.381a2.415,2.415,0,0,0,.891-3.3Z" transform="translate(-106.147 -129.333)" fill="#a5701c"/>
    <path id="Caminho_14398" data-name="Caminho 14398" d="M332.306,273.094a2.425,2.425,0,0,0-3.3.886l-.381.658a2.414,2.414,0,0,0,.885,3.3l8.3,4.787a2.415,2.415,0,0,0,3.3-.886l.38-.658a2.413,2.413,0,0,0-.88-3.3Z" transform="translate(-128.707 -106.938)" fill="#a5701c"/>
    <path id="Caminho_14399" data-name="Caminho 14399" d="M329.982,114.1a2.419,2.419,0,0,0-.882,3.3l.38.657a2.419,2.419,0,0,0,3.3.885l8.3-4.787a2.406,2.406,0,0,0,.881-3.295l-.38-.658a2.421,2.421,0,0,0-3.3-.889Z" transform="translate(-128.894 -42.731)" fill="#a5701c"/>
    <path id="Caminho_14400" data-name="Caminho 14400" d="M271.9,55.724a2.419,2.419,0,0,0,.889,3.3l.658.38a2.417,2.417,0,0,0,3.3-.883l4.794-8.291a2.406,2.406,0,0,0-.887-3.293l-.66-.38a2.417,2.417,0,0,0-3.3.878Z" transform="translate(-106.47 -18.124)" fill="#a5701c"/>
    <path id="Caminho_14401" data-name="Caminho 14401" d="M39.482,67.524c0-8.418,3.726-21.218,6.5-23.993C48.706,40.813,61.577,37.038,70,37.038c-8.419,0-20.812-3.291-24.012-6.49-3.357-3.353-6.5-15.572-6.5-23.989,0,8.627-3.254,20.735-6.922,24.394-3.786,3.783-15.383,6.085-23.6,6.085,8.425,0,20.857,3.332,24.017,6.493,3.208,3.2,6.5,15.575,6.5,23.993" transform="translate(-3.513 -2.571)" fill="#ffe591"/>
    <path id="Caminho_14402" data-name="Caminho 14402" d="M85.671,100.608c0-3,1.328-7.553,2.314-8.541.971-.967,5.548-2.311,8.548-2.316-3,.005-7.41-1.17-8.548-2.308-1.193-1.189-2.314-5.542-2.314-8.539,0,3.071-1.158,7.382-2.464,8.686-1.347,1.345-5.475,2.16-8.4,2.16,3,0,7.427,1.192,8.55,2.316,1.144,1.137,2.316,5.542,2.316,8.541" transform="translate(-29.326 -30.934)" fill="#ffe591"/>
    <path id="Caminho_14403" data-name="Caminho 14403" d="M17.546,132.934c0-4.158,1.839-10.484,3.209-11.851,1.347-1.345,7.707-3.211,11.867-3.211-4.16,0-10.283-1.624-11.867-3.206-1.657-1.656-3.209-7.69-3.209-11.85,0,4.264-1.606,10.247-3.42,12.054-1.87,1.87-7.6,3-11.659,3,4.16,0,10.3,1.645,11.864,3.211,1.585,1.582,3.215,7.693,3.215,11.851" transform="translate(-0.967 -40.308)" fill="#ffe591"/>
    <path id="Caminho_14404" data-name="Caminho 14404" d="M179.129,173.1s.137-.387.429-1.077.733-1.689,1.347-2.91a77.417,77.417,0,0,1,5.712-9.477c.634-.937,1.342-1.865,2.055-2.847.744-.95,1.487-1.958,2.307-2.939a65.608,65.608,0,0,1,5.364-5.961q1.5-1.448,3.133-2.849c1.091-.93,2.229-1.837,3.367-2.761,2.293-1.831,4.613-3.7,6.844-5.659l6.684-5.819c2.191-1.933,4.406-3.775,6.534-5.576s4.177-3.548,6.153-5.173l5.551-4.595c1.716-1.426,3.318-2.7,4.722-3.853s2.638-2.141,3.661-2.951l3.212-2.548a.606.606,0,0,1,.852.852l-2.552,3.209c-.812,1.022-1.806,2.252-2.955,3.657s-2.43,3-3.858,4.718l-4.6,5.545c-1.627,1.973-3.384,4.013-5.179,6.146s-3.648,4.338-5.584,6.528l-5.827,6.677c-1.961,2.229-3.833,4.546-5.667,6.837-.925,1.137-1.834,2.274-2.765,3.364s-1.886,2.132-2.853,3.129a65.568,65.568,0,0,1-5.968,5.357c-.981.819-1.99,1.561-2.941,2.3-.983.711-1.912,1.418-2.85,2.051a77.283,77.283,0,0,1-9.484,5.7c-1.221.612-2.211,1.062-2.911,1.343s-1.077.428-1.077.428a.668.668,0,0,1-.851-.852" transform="matrix(-0.966, 0.259, -0.259, -0.966, 349.313, 220.755)" fill="#5f3813"/>
    <path id="Caminho_14405" data-name="Caminho 14405" d="M131.223,132.078s.93.671,2.533,1.869c.807.595,1.776,1.327,2.881,2.172s2.366,1.787,3.712,2.843l4.355,3.4c1.55,1.2,3.155,2.5,4.831,3.825,1.66,1.343,3.383,2.722,5.1,4.156s3.46,2.894,5.2,4.354,3.564,2.841,5.371,4.187c.895.681,1.792,1.347,2.645,2.039s1.66,1.41,2.428,2.144a39.972,39.972,0,0,1,4.035,4.623c1.186,1.566,2.249,3.105,3.161,4.6a48.112,48.112,0,0,1,3.923,7.689c.4,1,.678,1.824.844,2.409s.252.9.252.9a.711.711,0,0,1-.533.852.722.722,0,0,1-.319,0s-.325-.074-.9-.251-1.406-.446-2.411-.841a48.075,48.075,0,0,1-7.694-3.913c-1.493-.91-3.033-1.97-4.6-3.155a39.932,39.932,0,0,1-4.628-4.028q-1.1-1.149-2.147-2.425c-.694-.852-1.361-1.748-2.043-2.642-1.348-1.8-2.727-3.629-4.194-5.365s-2.939-3.467-4.361-5.2-2.818-3.438-4.163-5.1c-1.328-1.675-2.627-3.278-3.832-4.826l-3.406-4.351c-1.057-1.344-2-2.606-2.848-3.709s-1.581-2.072-2.176-2.878c-1.2-1.6-1.873-2.531-1.873-2.531a.61.61,0,0,1,.851-.852" transform="matrix(-0.966, 0.259, -0.259, -0.966, 333.457, 235.552)" fill="#5f3813"/>
  </g>
</svg>
