<svg xmlns="http://www.w3.org/2000/svg" xmlns:xlink="http://www.w3.org/1999/xlink" width="357" height="499.933" viewBox="0 0 357 499.933">
  <defs>
    <filter id="Subtração_1-2" x="0" y="226.525" width="357" height="233" filterUnits="userSpaceOnUse">
      <feOffset dy="3" input="SourceAlpha"/>
      <feGaussianBlur stdDeviation="3" result="blur"/>
      <feFlood flood-opacity="0.161"/>
      <feComposite operator="in" in2="blur"/>
      <feComposite in="SourceGraphic"/>
    </filter>
    <filter id="Exclusão_2-2" x="223" y="261.525" width="88" height="67" filterUnits="userSpaceOnUse">
      <feOffset dy="3" input="SourceAlpha"/>
      <feGaussianBlur stdDeviation="3" result="blur-2"/>
      <feFlood flood-opacity="0.161"/>
      <feComposite operator="in" in2="blur-2"/>
      <feComposite in="SourceGraphic"/>
    </filter>
  </defs>
  <g id="Componente_30_1" data-name="Componente 30 – 1" transform="translate(9)">
    <g id="Componente_28_1" data-name="Componente 28 – 1">
      <g id="Grupo_16408" data-name="Grupo 16408" transform="translate(-246.938 -509.973)">
        <g id="Grupo_16381" data-name="Grupo 16381">
          <g id="Grupo_16395" data-name="Grupo 16395">
            <g transform="matrix(1, 0, 0, 1, 237.94, 509.97)" filter="url(#Subtração_1-2)">
              <path id="Subtração_1-2-2" data-name="Subtração 1-2" d="M567.938,957.5h-303a17.985,17.985,0,0,1-18-17.97V760.5a17.984,17.984,0,0,1,17.97-18h303.03a17.985,17.985,0,0,1,18,17.97V939.5a17.985,17.985,0,0,1-17.97,18ZM473.075,771.586a9.009,9.009,0,0,0-9,9v43.97a9.01,9.01,0,0,0,9,9h63.981a9.011,9.011,0,0,0,9-9v-43.97a9.01,9.01,0,0,0-9-9Z" transform="translate(-237.94 -509.97)" fill="#fff"/>
            </g>
          </g>
          <g id="Grupo_16380" data-name="Grupo 16380">
            <rect id="Retângulo_3382" data-name="Retângulo 3382" width="3" height="26" transform="translate(294.941 868.494)" fill="#707070"/>
            <rect id="Retângulo_3433" data-name="Retângulo 3433" width="3" height="26" transform="translate(417.941 868.494)" fill="#707070"/>
            <rect id="Retângulo_3407" data-name="Retângulo 3407" width="3" height="26" transform="translate(355.941 868.494)" fill="#707070"/>
            <rect id="Retângulo_3420" data-name="Retângulo 3420" width="4" height="26" transform="translate(479.941 868.494)" fill="#707070"/>
            <rect id="Retângulo_3393" data-name="Retângulo 3393" width="3" height="26" transform="translate(345.941 868.494)" fill="#707070"/>
            <rect id="Retângulo_3423" data-name="Retângulo 3423" width="2" height="26" transform="translate(468.941 868.494)" fill="#707070"/>
            <rect id="Retângulo_3395" data-name="Retângulo 3395" width="2" height="26" transform="translate(406.941 868.494)" fill="#707070"/>
            <rect id="Retângulo_3408" data-name="Retângulo 3408" width="4" height="26" transform="translate(530.941 868.494)" fill="#707070"/>
            <rect id="Retângulo_3385" data-name="Retângulo 3385" width="3" height="26" transform="translate(305.941 868.494)" fill="#707070"/>
            <rect id="Retângulo_3430" data-name="Retângulo 3430" width="5" height="26" transform="translate(429.941 868.494)" fill="#707070"/>
            <rect id="Retângulo_3404" data-name="Retângulo 3404" width="5" height="26" transform="translate(367.941 868.494)" fill="#707070"/>
            <rect id="Retângulo_3417" data-name="Retângulo 3417" width="5" height="26" transform="translate(496.941 868.494)" fill="#707070"/>
            <rect id="Retângulo_3386" data-name="Retângulo 3386" width="5" height="26" transform="translate(316.941 868.494)" fill="#707070"/>
            <rect id="Retângulo_3426" data-name="Retângulo 3426" width="5" height="26" transform="translate(443.941 868.494)" fill="#707070"/>
            <rect id="Retângulo_3396" data-name="Retângulo 3396" width="3" height="26" transform="translate(381.941 868.494)" fill="#707070"/>
            <rect id="Retângulo_3413" data-name="Retângulo 3413" width="4" height="26" transform="translate(508.941 868.494)" fill="#707070"/>
            <rect id="Retângulo_3391" data-name="Retângulo 3391" width="6" height="26" transform="translate(332.941 868.494)" fill="#707070"/>
            <rect id="Retângulo_3424" data-name="Retângulo 3424" width="5" height="26" transform="translate(462.941 868.494)" fill="#707070"/>
            <rect id="Retângulo_3397" data-name="Retângulo 3397" width="5" height="26" transform="translate(400.941 868.494)" fill="#707070"/>
            <rect id="Retângulo_3409" data-name="Retângulo 3409" width="4" height="26" transform="translate(525.941 868.494)" fill="#707070"/>
            <rect id="Retângulo_3383" data-name="Retângulo 3383" width="2" height="26" transform="translate(298.941 868.494)" fill="#707070"/>
            <rect id="Retângulo_3432" data-name="Retângulo 3432" width="1" height="26" transform="translate(424.941 868.494)" fill="#707070"/>
            <rect id="Retângulo_3405" data-name="Retângulo 3405" width="3" height="26" transform="translate(360.941 868.494)" fill="#707070"/>
            <rect id="Retângulo_3418" data-name="Retângulo 3418" width="2" height="26" transform="translate(484.941 868.494)" fill="#707070"/>
            <rect id="Retângulo_3392" data-name="Retângulo 3392" width="1" height="26" transform="translate(349.941 868.494)" fill="#707070"/>
            <rect id="Retângulo_3421" data-name="Retângulo 3421" width="1" height="26" transform="translate(473.941 868.494)" fill="#707070"/>
            <rect id="Retângulo_3398" data-name="Retângulo 3398" width="2" height="26" transform="translate(411.941 868.494)" fill="#707070"/>
            <rect id="Retângulo_3410" data-name="Retângulo 3410" width="1" height="26" transform="translate(535.941 868.494)" fill="#707070"/>
            <rect id="Retângulo_3388" data-name="Retângulo 3388" width="1" height="26" transform="translate(311.941 868.494)" fill="#707070"/>
            <rect id="Retângulo_3429" data-name="Retângulo 3429" width="3" height="26" transform="translate(436.941 868.494)" fill="#707070"/>
            <rect id="Retângulo_3402" data-name="Retângulo 3402" width="1" height="26" transform="translate(374.941 868.494)" fill="#707070"/>
            <rect id="Retângulo_3415" data-name="Retângulo 3415" width="1" height="26" transform="translate(502.941 868.494)" fill="#707070"/>
            <rect id="Retângulo_3389" data-name="Retângulo 3389" width="2" height="26" transform="translate(322.941 868.494)" fill="#707070"/>
            <rect id="Retângulo_3427" data-name="Retângulo 3427" width="1" height="26" transform="translate(450.941 868.494)" fill="#707070"/>
            <rect id="Retângulo_3399" data-name="Retângulo 3399" width="1" height="26" transform="translate(388.941 868.494)" fill="#707070"/>
            <rect id="Retângulo_3414" data-name="Retângulo 3414" width="3" height="26" transform="translate(513.941 868.494)" fill="#707070"/>
            <rect id="Retângulo_3384" data-name="Retângulo 3384" width="2" height="26" transform="translate(301.941 868.494)" fill="#707070"/>
            <rect id="Retângulo_3431" data-name="Retângulo 3431" width="1" height="26" transform="translate(426.941 868.494)" fill="#707070"/>
            <rect id="Retângulo_3406" data-name="Retângulo 3406" width="1" height="26" transform="translate(364.941 868.494)" fill="#707070"/>
            <rect id="Retângulo_3419" data-name="Retângulo 3419" width="1" height="26" transform="translate(487.941 868.494)" fill="#707070"/>
            <rect id="Retângulo_3394" data-name="Retângulo 3394" width="3" height="26" transform="translate(351.941 868.494)" fill="#707070"/>
            <rect id="Retângulo_3422" data-name="Retângulo 3422" width="1" height="26" transform="translate(477.941 868.494)" fill="#707070"/>
            <rect id="Retângulo_3400" data-name="Retângulo 3400" width="1" height="26" transform="translate(415.941 868.494)" fill="#707070"/>
            <rect id="Retângulo_3411" data-name="Retângulo 3411" width="1" height="26" transform="translate(538.941 868.494)" fill="#707070"/>
            <rect id="Retângulo_3387" data-name="Retângulo 3387" width="2" height="26" transform="translate(313.941 868.494)" fill="#707070"/>
            <rect id="Retângulo_3428" data-name="Retângulo 3428" width="1" height="26" transform="translate(440.941 868.494)" fill="#707070"/>
            <rect id="Retângulo_3403" data-name="Retângulo 3403" width="2" height="26" transform="translate(377.941 868.494)" fill="#707070"/>
            <rect id="Retângulo_3416" data-name="Retângulo 3416" width="2" height="26" transform="translate(505.941 868.494)" fill="#707070"/>
            <rect id="Retângulo_3390" data-name="Retângulo 3390" width="6" height="26" transform="translate(325.941 868.494)" fill="#707070"/>
            <rect id="Retângulo_3425" data-name="Retângulo 3425" width="6" height="26" transform="translate(453.941 868.494)" fill="#707070"/>
            <rect id="Retângulo_3401" data-name="Retângulo 3401" width="6" height="26" transform="translate(391.941 868.494)" fill="#707070"/>
            <rect id="Retângulo_3412" data-name="Retângulo 3412" width="5" height="26" transform="translate(517.941 868.494)" fill="#707070"/>
          </g>
          <g id="Lorem_ipsum_dolor_si" data-name="Lorem ipsum dolor si" style="mix-blend-mode: normal;isolation: isolate">
            <text id="XXXXXXXXXXXXXXX_" data-name="XXXXXXXXXXXXXXX " transform="translate(306.941 921.495)" fill="#bababa" font-size="15" font-family="Ubuntu-Regular, Ubuntu" letter-spacing="0.019em" style="mix-blend-mode: normal;isolation: isolate"><tspan x="0" y="0">XXXXXXXXXXXXXXX </tspan></text>
            <text id="XXXXX" transform="translate(460.958 921.495)" fill="#f27d00" font-size="18" font-family="Ubuntu-Bold, Ubuntu" font-weight="700" letter-spacing="0.019em" style="mix-blend-mode: normal;isolation: isolate"><tspan x="0" y="0">XXXXX</tspan></text>
          </g>
          <g id="Grupo_16396" data-name="Grupo 16396">
            <g transform="matrix(1, 0, 0, 1, 237.94, 509.97)" filter="url(#Exclusão_2-2)">
              <path id="Exclusão_2-2-2" data-name="Exclusão 2-2" d="M535.938,826.5h-62a4,4,0,0,1-4-4V792.24L486.984,777.5h48.954a4,4,0,0,1,4,4v41A4,4,0,0,1,535.938,826.5Zm-30.871-35.18-7.129,6.426v10.934a4,4,0,0,0,4,4h21.273a4,4,0,0,0,4-4v-13.36a4,4,0,0,0-4-4Z" transform="translate(-237.94 -509.97)" fill="#fff"/>
            </g>
          </g>
          <g id="Interseção_2" data-name="Interseção 2" opacity="0.111">
            <path id="Caminho_13831" data-name="Caminho 13831" d="M493.941,817.495a4,4,0,0,1-4-4V795.123l10.714-9.628h29.286a4,4,0,0,1,4,4v24a4,4,0,0,1-4,4Z" fill="none"/>
            <path id="Caminho_13832" data-name="Caminho 13832" d="M529.941,816.495a3,3,0,0,0,3-3v-24a3,3,0,0,0-3-3h-28.9l-10.1,9.074v17.926a3,3,0,0,0,3,3h36m0,1h-36a4,4,0,0,1-4-4V795.123l10.714-9.628h29.286a4,4,0,0,1,4,4v24A4,4,0,0,1,529.941,817.495Z" fill="#707070"/>
          </g>
        </g>
      </g>
      <g id="Grupo_16499" data-name="Grupo 16499" transform="translate(-271.335 -556.574)">
        <g id="Grupo_16406" data-name="Grupo 16406" transform="translate(294.645 556.574)">
          <path id="Caminho_13833" data-name="Caminho 13833" d="M430.78,709.221c2.969,10.391,1.872,21.8,4.369,32.133-1.419,1.259-2.815,2.554-4.169,3.913l-.121,5.507h-4.416C425.965,737.473,432.35,723.348,430.78,709.221Z" transform="translate(-261.345 -517.999)" fill="#be6200"/>
          <path id="Caminho_13834" data-name="Caminho 13834" d="M313.027,701.263c6.948-12.318,15.537-19.986,26.257-23.145,13.067-3.853,22.806-7.263,29.888-11.215,16.58,13.795,43.532,18.616,61.594,4.285,9.115,3.6,20.97,4.545,29.668,10.585,12.644,8.779,22.98,29.713,31.711,54.63A68.926,68.926,0,0,0,463.8,752.048c-2.5-10.335-1.4-21.742-4.369-32.133,1.57,14.127-4.815,28.252-4.337,41.554H353.2c1.352-19.323,11.983-39.676,4.408-56.718C350.411,684.948,329.752,692.074,313.027,701.263Z" transform="translate(-290 -528.693)" fill="#f27d00"/>
          <path id="Caminho_13835" data-name="Caminho 13835" d="M316.665,696.182c16.725-9.19,37.384-16.315,44.585,3.488,7.575,17.042-3.057,37.394-4.408,56.718H298.63C303,730.174,308.771,710.177,316.665,696.182Z" transform="translate(-293.638 -523.612)" fill="#be6200"/>
          <path id="Caminho_13836" data-name="Caminho 13836" d="M361.03,639.124c-3.623-23.625-5.76-45.8,3.416-56.958,8.1-28.208,48.25-31.578,37.044-17.517,26.167-7.163,40.352,1.506,26.213,8.128,24.541,2.517,33.185,18.357,15.691,18.827,15.48,15.628,11.849,29.029-.882,21.355-1.684,10.693-5.459,18.847-11.972,28.016Z" transform="translate(-278.653 -556.574)" fill="#272626"/>
          <g id="Grupo_16397" data-name="Grupo 16397" transform="translate(79.172 43.609)">
            <path id="Caminho_13837" data-name="Caminho 13837" d="M414.377,600.419c2.219,7.222-4.824,5.233-17.855-2.715,3.427,5.365-2.15,6.4-21.141,1l-4.739,7.872a49.612,49.612,0,0,1,3.237-11.034c10.029.53,30.878,13.068,15.189-4.158,11.812,5.01,29.778,19.462,20.658,2.5,10.787,6.555,21.782,18.665,15.091,2.343,6.487,4.5,6.817,7.392,9.941,7.534,0,0-.061,1.986-.209,5.175l-6.317-6.657C431.517,610.3,424.724,607.3,414.377,600.419Z" transform="translate(-354.612 -591.386)" fill="#ff985f"/>
            <path id="Caminho_13838" data-name="Caminho 13838" d="M410.854,669.092a33.083,33.083,0,0,0,3.4,1.543c-10.268,8.151-23.411,10.092-35.889,7.725C390.463,679.135,401.84,676.958,410.854,669.092Z" transform="translate(-352.66 -571.749)" fill="#ff985f"/>
            <path id="Caminho_13839" data-name="Caminho 13839" d="M373.164,639.577c-18.355,1.508-18.575-22.858-.387-18.093a80.764,80.764,0,0,1,1.1-16.181l4.739-7.872c18.991,5.4,24.568,4.364,21.141-1,13.031,7.947,20.073,9.936,17.855,2.715,10.346,6.885,17.14,9.883,13.856,1.857l6.317,6.657c-.476,10.279-1.865,33.2-5.121,43.649C427.91,666.555,405.9,664.72,405.9,664.72c-1.238,12.993,3.256,19.114,10.141,22.734-9.013,7.866-20.39,10.043-32.488,9.269a57.49,57.49,0,0,1-25.706-12.011C373.636,675.93,376.253,664.488,373.164,639.577Z" transform="translate(-357.846 -590.111)" fill="#ffb48b"/>
          </g>
          <path id="Caminho_13840" data-name="Caminho 13840" d="M399.548,651.984h0a30.555,30.555,0,0,0,.9,12.06l0,.048c-12.057-1.828-16.979-8.149-17.473-17.261C386.5,649.188,391.488,651.079,399.548,651.984Z" transform="translate(-272.322 -533.766)" fill="#ff985f"/>
          <path id="Caminho_13841" data-name="Caminho 13841" d="M429.963,744.292l.121-5.507c1.354-1.359,2.75-2.654,4.169-3.913a34.359,34.359,0,0,0,3.736,9.42Z" transform="translate(-260.449 -511.517)" fill="#ff985f"/>
          <path id="Caminho_13842" data-name="Caminho 13842" d="M469.719,747.448h-32.6a34.359,34.359,0,0,1-3.736-9.42,68.926,68.926,0,0,1,28.341-15.644C464.557,730.411,467.208,738.86,469.719,747.448Z" transform="translate(-259.583 -514.673)" fill="#ffb48b"/>
          <g id="Grupo_16398" data-name="Grupo 16398" transform="translate(211.334 111.992)">
            <path id="Caminho_13844" data-name="Caminho 13844" d="M465.748,759.195c6.215-15.664,20.023-50.7,21.4-56.265,1.789-7.2,0-11.555,4.3-20.438s17.943-15.55,20.567-29.678c2.1-11.342,11.633-7.07,12.1,1.88.581,11.185-11.624,21.089-4.065,24.078a122.609,122.609,0,0,0,20.93,5.749c8.374,1.516,9.152,12.581,1.558,16.3q1.96,8.215-7.872,9.653c2.589,6.237.124,9.017-5.326,9.755,1.472,8.238-6.9,8.506-17.138,7.184l-5.64,21.354C496.633,763.809,481.387,772.74,465.748,759.195Z" transform="translate(-462.74 -645.974)" fill="#ffb48b"/>
            <path id="Caminho_13845" data-name="Caminho 13845" d="M507.175,728.027l-4.753,18H463.347s1.179-2.949,3.008-7.563C481.994,752.005,497.24,743.073,507.175,728.027Z" transform="translate(-463.347 -625.239)" fill="#ff985f"/>
          </g>
          <g id="Grupo_16399" data-name="Grupo 16399" transform="translate(253 152.539)">
            <path id="Caminho_13846" data-name="Caminho 13846" d="M532.4,679.454a70.988,70.988,0,0,0-19.454-.753c-7.223,1.047-7.836,7.737-4.8,10.015-7.687.928-8.045,8.542-3.407,10.743-6.76.127-7.645,7.467-3.645,10.054-5.635.431-6.8,8.262,1.454,9.438" transform="translate(-496.608 -678.341)" fill="none" stroke="#ce7f54" stroke-linecap="round" stroke-linejoin="round" stroke-width="1.081"/>
          </g>
          <g id="Grupo_16400" data-name="Grupo 16400" transform="translate(264.411 162.801)">
            <path id="Caminho_13847" data-name="Caminho 13847" d="M505.717,686.533c1.536,1.155,15.518,1.91,23.557,3.238" transform="translate(-505.717 -686.533)" fill="none" stroke="#ce7f54" stroke-linecap="round" stroke-linejoin="round" stroke-width="1.081"/>
          </g>
          <g id="Grupo_16401" data-name="Grupo 16401" transform="translate(260.82 173.689)">
            <path id="Caminho_13848" data-name="Caminho 13848" d="M502.85,695.225l18.513,2.034" transform="translate(-502.85 -695.225)" fill="none" stroke="#ce7f54" stroke-linecap="round" stroke-linejoin="round" stroke-width="1.081"/>
          </g>
          <g id="Grupo_16402" data-name="Grupo 16402" transform="translate(257.014 183.707)">
            <path id="Caminho_13849" data-name="Caminho 13849" d="M499.812,703.222l15.878,1.839" transform="translate(-499.812 -703.222)" fill="none" stroke="#ce7f54" stroke-linecap="round" stroke-linejoin="round" stroke-width="1.081"/>
          </g>
          <g id="Grupo_16405" data-name="Grupo 16405" transform="translate(0 152.551)">
            <g id="Grupo_16403" data-name="Grupo 16403" transform="translate(0 45.823)">
              <path id="Caminho_13850" data-name="Caminho 13850" d="M416.336,742.26c4.68-1.56,9.36-.862,14.04.453-15.64,1.937-109.83,53.952-128.8,32.758-3.712-4.148-5.79-10.014-6.612-16.876C318.62,800.527,379.822,752.4,416.336,742.26Z" transform="translate(-294.563 -708.249)" fill="#ff985f"/>
              <path id="Caminho_13851" data-name="Caminho 13851" d="M416.418,748.941C379.9,759.083,318.7,807.208,295.051,765.276c-1.566-13.082,1.52-29.851,7.152-45.7,19.124-10.369,36.164-2.71,45.976,16.405-2.494,4.328-3.683,7.477-1.691,7.5,5.26.059,53.329-10.927,65.906-14.336s22.769,1.129,27.11,4.4,9.112,15.788,9.112,15.788h-17.3a6.679,6.679,0,0,0-.854.063C425.778,748.079,421.1,747.381,416.418,748.941Z" transform="translate(-294.645 -714.93)" fill="#ffb48b"/>
            </g>
            <g id="Grupo_16404" data-name="Grupo 16404" transform="translate(7.558)">
              <path id="Caminho_13852" data-name="Caminho 13852" d="M346.654,745.222c4.078-7.1,11.651-17.374,14.42-22.246,11.64-20.491-8.758-58.582-32.846-39.364-10.3,8.214-20.764,26.019-27.55,45.2C319.806,718.45,336.847,726.109,346.654,745.222Z" transform="translate(-300.678 -678.351)" fill="#f27d00"/>
            </g>
          </g>
        </g>
      </g>
    </g>
    <g id="Componente_29_1" data-name="Componente 29 – 1" transform="translate(227.287 427.116)">
      <g id="Grupo_16394" data-name="Grupo 16394" transform="translate(0.675 249.698) rotate(-137)">
        <path id="Caminho_13829" data-name="Caminho 13829" d="M199.2,164.2a40.544,40.544,0,0,0,6.981,23.135,55.222,55.222,0,0,0,16.884,16.449A14.432,14.432,0,0,0,225.794,205a1.943,1.943,0,0,0,1.282.079c.424-.162,1-.558,1.066-.952.061-.344-.4-.985-.774-1.222-2.144-1.37-4.448-2.46-6.476-4.014a53.113,53.113,0,0,1-13.82-15.182,38.334,38.334,0,0,1-5.42-21.3c.131-3.285,1.029-6.525,1.49-9.8a22.468,22.468,0,0,0,.067-3.606c-.005-.229-.322-.64-.478-.63a.86.86,0,0,0-.626.536c-1.076,4.74-2.892,9.291-2.908,14.3C199.2,163.545,199.2,163.874,199.2,164.2Z" transform="translate(-98.951)" fill="#ff7d00"/>
        <path id="Caminho_13830" data-name="Caminho 13830" d="M118.695,557.2a18.137,18.137,0,0,1-6.607,2.005c-3.644.442-7.294.833-10.935,1.305-.326.042-.607.519-.91.794.279.3.552.851.838.859,5.463.168,10.91.036,16.185-1.854a36.556,36.556,0,0,0,3.44-1.536c1.11-.533,1.214-1.455.251-2.32-1.618-1.454-3.3-2.825-4.886-4.315-1.813-1.7-3.526-3.53-5.345-5.218a23.725,23.725,0,0,0-2.975-2.216c-.1-.066-.686.424-.66.566a2.5,2.5,0,0,0,.556,1.257c3.21,3.192,6.447,6.349,9.684,9.506C117.732,556.427,118.175,556.762,118.695,557.2Z" transform="translate(17.669 -350.689)" fill="#ff7d00"/>
      </g>
    </g>
  </g>
</svg>
