<svg id="Componente_55_1" data-name="Componente 55 – 1" xmlns="http://www.w3.org/2000/svg" xmlns:xlink="http://www.w3.org/1999/xlink" width="208" height="193.771" viewBox="0 0 208 193.771">
  <defs>
    <clipPath id="clip-path">
      <rect id="Retângulo_3575" data-name="Retângulo 3575" width="208" height="193.771" fill="none"/>
    </clipPath>
  </defs>
  <g id="Grupo_17042" data-name="Grupo 17042" clip-path="url(#clip-path)">
    <path id="Caminho_15898" data-name="Caminho 15898" d="M176.459,91.582q-20.069-36.04-40.2-72.046c-6.3-11.291-15.8-18.253-28.715-19.362C92-1.162,79.916,5.22,72.11,18.8,64.284,32.411,56.878,46.263,49.232,59.98c-14.122,25.336-28.186,50.7-42.482,75.942-4.9,8.656-7.9,17.5-6.333,27.59,2.637,16.987,17.909,30.213,35.11,30.213h68.351c22.951,0,45.9.134,68.853-.053,12.786-.1,22.714-5.991,29.464-16.732,7.962-12.671,7.433-25.61.25-38.512-8.687-15.6-17.3-31.246-25.985-46.847m-4.983,82.441c-1.171.029-2.341.084-3.512.084q-46.5.007-92.991,0c-1,0-2.007-.053-3.01-.08-12.232.013-24.468.242-36.693-.025-11.336-.247-19.014-12.617-14-22.784,4.576-9.272,9.909-18.17,14.928-27.223Q51.788,95.884,67.4,67.784C74.81,54.445,82.133,41.053,89.725,27.816a16.41,16.41,0,0,1,28.521.237c8.42,15.069,16.712,30.209,25.1,45.294,3.246,5.833,6.621,11.594,9.913,17.4a4.011,4.011,0,0,1,.243,1.22h0c2.626,3.535,4.462,7.534,6.6,11.349,8.675,15.453,17.361,30.9,25.894,46.432a16.294,16.294,0,0,1-14.529,24.273" transform="translate(0 0)" fill="#fe7c00"/>
    <path id="Caminho_15899" data-name="Caminho 15899" d="M340.123,452.167c.008-.014.016-.025.024-.039h-.057c.012.013.023.026.034.039" transform="translate(-227.012 -301.799)" fill="#fe7c00"/>
    <path id="Caminho_15900" data-name="Caminho 15900" d="M130.585,194.11c2.607-2.814,5.28-4.121,9.125-3.76a105.614,105.614,0,0,0,10.759.057c.768-.007,1.686.322,2.211-.606-.011-.013-.021-.026-.034-.038-5.657.023-11.313.088-16.97.049-2.568-.018-3.592-1.136-3.619-3.71-.032-3,.067-6.011-.036-9.012a3.665,3.665,0,0,1,2.122-3.852c2.163-.964,4.435-.3,6.652-.416,3.747-.2,7.9,1.052,11.145-.461,3.142-1.466,5.39-4.876,7.991-7.472q15.623-15.59,31.215-31.21a7.363,7.363,0,0,0,1.93-2.278h0a4.02,4.02,0,0,0-.243-1.219c-3.292-5.808-6.667-11.569-9.913-17.4-8.392-15.085-16.685-30.225-25.1-45.294a16.41,16.41,0,0,0-28.522-.237c-7.592,13.237-14.915,26.629-22.329,39.969Q91.351,135.31,75.774,163.427c-5.019,9.053-10.352,17.951-14.928,27.223-5.018,10.167,2.659,22.537,14,22.784,12.225.266,24.461.038,36.692.025l.492-.419c6.208-6.29,12.556-12.451,18.56-18.93m2.26-83.146c3.6-.031,7.2-.007,10.8-.007,3.348,0,6.7-.008,10.044,0,3.581.011,5.3,1.747,5,5.258-.663,7.66-1.413,15.312-2.129,22.967-.747,7.988-1.518,15.974-2.23,23.965-.264,2.958-1.608,4.379-4.6,4.418q-6.276.081-12.555,0c-3.087-.044-4.243-1.32-4.531-4.447q-1.91-20.72-3.886-41.434c-.187-2-.384-3.993-.465-5.995-.118-2.914,1.622-4.7,4.559-4.726" transform="translate(-39.569 -39.432)" fill="#fefefe"/>
    <path id="Caminho_15901" data-name="Caminho 15901" d="M306.349,287.951c-2.142-3.815-3.978-7.814-6.6-11.349.324,1.223-.609,1.844-1.289,2.526q-18.881,18.929-37.793,37.828a5.636,5.636,0,0,1-2.329,1.458c2.254.133,3.179,1.233,3.214,3.663.042,2.929-.069,5.862.039,8.788a3.982,3.982,0,0,1-2.215,4.1c-.008.014-.016.025-.024.039.309.364.1.693-.458.958a5.6,5.6,0,0,1-2.472.313c-3.937.014-7.877.1-11.81-.029a6.906,6.906,0,0,0-5.558,2.273c-5.736,5.871-11.579,11.637-17.391,17.434a15.266,15.266,0,0,1-2.4,2.2c-.059.031-.119.06-.178.089q47.869,0,95.737.016c.968,0,2.018-.341,2.9.4a16.294,16.294,0,0,0,14.529-24.273c-8.532-15.532-17.218-30.979-25.894-46.432" transform="translate(-146.237 -184.634)" fill="#f4f4f6"/>
    <path id="Caminho_15902" data-name="Caminho 15902" d="M341.444,278.879q-15.6,15.615-31.215,31.21c-2.6,2.6-4.848,6.007-7.991,7.472-3.243,1.513-7.4.26-11.144.461-2.217.119-4.49-.548-6.653.416,5.692-.018,11.385-.066,17.077-.039.154,0,.3.006.446.014a5.641,5.641,0,0,0,2.329-1.458q18.884-18.926,37.793-37.828c.68-.681,1.613-1.3,1.289-2.526h0a7.354,7.354,0,0,1-1.93,2.278" transform="translate(-189.866 -184.633)" fill="#f4f4f6"/>
    <path id="Caminho_15903" data-name="Caminho 15903" d="M256.362,452.851a105.623,105.623,0,0,1-10.759-.057c-3.844-.36-6.517.947-9.125,3.76-6,6.479-12.351,12.64-18.559,18.93h.386c.059-.03.119-.059.177-.089a15.252,15.252,0,0,0,2.4-2.2c5.812-5.8,11.656-11.562,17.391-17.434a6.906,6.906,0,0,1,5.558-2.273c3.933.125,7.873.043,11.81.029a5.6,5.6,0,0,0,2.472-.313c.554-.265.767-.594.458-.958-.525.928-1.443.6-2.211.606" transform="translate(-145.462 -301.877)" fill="#f4f4f6"/>
    <path id="Caminho_15904" data-name="Caminho 15904" d="M312.963,522.572q-46.662-.015-93.324-.02a6.372,6.372,0,0,1-2.5-.142c-.23.115-.463.226-.7.328h0c1,.028,2.007.081,3.01.081q46.5.007,92.99,0c1.171,0,2.342-.055,3.512-.084a9.092,9.092,0,0,0-2.987-.163" transform="translate(-144.473 -348.712)" fill="#f4fcfd"/>
    <path id="Caminho_15905" data-name="Caminho 15905" d="M216.93,522.139l-.492.419c.237-.1.469-.214.7-.328a2.077,2.077,0,0,1-.207-.09" transform="translate(-144.474 -348.531)" fill="#f4fcfd"/>
    <path id="Caminho_15906" data-name="Caminho 15906" d="M314.457,522.03q-47.869-.029-95.736-.016l-.179.09a6.375,6.375,0,0,0,2.5.142q46.662.021,93.324.02a9.1,9.1,0,0,1,2.987.162c-.88-.74-1.93-.4-2.9-.4" transform="translate(-145.878 -348.406)" fill="#f4fcfd"/>
    <path id="Caminho_15907" data-name="Caminho 15907" d="M218.125,522.229l.179-.09h-.386a2.15,2.15,0,0,0,.207.09" transform="translate(-145.462 -348.531)" fill="#f4fcfd"/>
    <path id="Caminho_15908" data-name="Caminho 15908" d="M267.276,225.825q1.94,20.717,3.886,41.434c.288,3.127,1.444,4.4,4.531,4.447q6.277.089,12.555,0c2.993-.038,4.337-1.46,4.6-4.418.712-7.991,1.483-15.977,2.23-23.965.716-7.655,1.466-15.308,2.129-22.968.3-3.511-1.415-5.246-5-5.257-3.348-.01-6.7,0-10.044,0-3.6,0-7.2-.023-10.8.008-2.938.025-4.678,1.812-4.559,4.725.081,2,.278,4,.465,5.995" transform="translate(-178.095 -143.573)"/>
    <path id="Caminho_15909" data-name="Caminho 15909" d="M301.591,406.993c.021-2.008-1.456-2.636-3.246-2.657-4.42-.053-8.84.014-13.26-.039a5.457,5.457,0,0,1-2.631-.314,2.235,2.235,0,0,0-.64.483,3.765,3.765,0,0,0-1.2,2.685c-.092,3.1-.145,6.2.013,9.295.108,2.108,1.043,2.851,3.592,2.922,4.1.115,8.211.018,12.316.046a9.4,9.4,0,0,1,3.478.323,1.679,1.679,0,0,1,.319.254h.057c2.162-4.166,1.161-8.64,1.206-13" transform="translate(-187.251 -269.662)"/>
    <path id="Caminho_15910" data-name="Caminho 15910" d="M294.878,418.377c-4.105-.028-8.212.069-12.316-.046-2.549-.072-3.484-.814-3.592-2.922-.158-3.094-.106-6.2-.013-9.3a3.765,3.765,0,0,1,1.2-2.685.514.514,0,1,0,.01-1,3.665,3.665,0,0,0-2.122,3.852c.1,3,0,6.008.036,9.013.027,2.574,1.051,3.692,3.619,3.71,5.656.038,11.313-.026,16.97-.05a1.678,1.678,0,0,0-.319-.254,9.386,9.386,0,0,0-3.478-.323" transform="translate(-185.597 -268.624)"/>
    <path id="Caminho_15911" data-name="Caminho 15911" d="M288.748,402.612a5.31,5.31,0,0,0-2.414.286,5.458,5.458,0,0,0,2.631.314c4.42.053,8.84-.014,13.26.039,1.79.022,3.266.65,3.246,2.657-.045,4.358.955,8.833-1.206,13a3.982,3.982,0,0,0,2.215-4.1c-.108-2.926,0-5.859-.039-8.788-.035-2.43-.96-3.53-3.214-3.663a6.1,6.1,0,0,1-1.925.268c-4.184-.051-8.369-.023-12.554-.013" transform="translate(-191.13 -268.575)"/>
    <path id="Caminho_15912" data-name="Caminho 15912" d="M284.441,402.335a2.215,2.215,0,0,0,.63.517,5.3,5.3,0,0,1,2.414-.286c4.185-.01,8.37-.038,12.554.013a6.092,6.092,0,0,0,1.925-.268c-.143-.009-.291-.014-.446-.014-5.692-.027-11.385.021-17.077.039" transform="translate(-189.866 -268.53)"/>
  </g>
</svg>
