<svg id="Componente_24_1" data-name="Componente 24 – 1" xmlns="http://www.w3.org/2000/svg" width="251.806" height="251.806" viewBox="0 0 251.806 251.806">
  <ellipse id="Elipse_1157" data-name="Elipse 1157" cx="125.903" cy="125.903" rx="125.903" ry="125.903" fill="#ffcea1"/>
  <path id="Caminho_13720" data-name="Caminho 13720" d="M1196.483,537.373H1023.661a4.735,4.735,0,0,0-4.735,4.735v85.243a126.342,126.342,0,0,0,21.042,27.2h156.515a4.735,4.735,0,0,0,4.735-4.735v-107.7A4.735,4.735,0,0,0,1196.483,537.373Z" transform="translate(-1002.191 -438.758)"/>
  <rect id="Retângulo_3268" data-name="Retângulo 3268" width="182.293" height="117.174" rx="2.348" transform="translate(10.067 91.196)" fill="#f27d00"/>
  <rect id="Retângulo_3269" data-name="Retângulo 3269" width="182.293" height="1.885" transform="translate(10.067 110.598)" fill="#f4f4f4"/>
  <rect id="Retângulo_3270" data-name="Retângulo 3270" width="182.293" height="8.827" transform="translate(10.067 115.843)" fill="#f4f4f4"/>
  <g id="Grupo_16314" data-name="Grupo 16314" transform="translate(21.297 132.941)">
    <g id="Grupo_16313" data-name="Grupo 16313" transform="translate(126.839 35.614)">
      <circle id="Elipse_1158" data-name="Elipse 1158" cx="12.718" cy="12.718" r="12.718" transform="translate(0 24.756) rotate(-76.717)" fill="#f4f4f4"/>
    </g>
    <rect id="Retângulo_3271" data-name="Retângulo 3271" width="33.979" height="4.316" fill="#f4f4f4"/>
    <rect id="Retângulo_3272" data-name="Retângulo 3272" width="33.979" height="4.316" transform="translate(41.951)" fill="#f4f4f4"/>
    <rect id="Retângulo_3273" data-name="Retângulo 3273" width="33.979" height="4.316" transform="translate(83.902)" fill="#f4f4f4"/>
    <rect id="Retângulo_3274" data-name="Retângulo 3274" width="33.979" height="4.316" transform="translate(125.853)" fill="#f4f4f4"/>
    <rect id="Retângulo_3275" data-name="Retângulo 3275" width="94.398" height="4.391" transform="translate(0 48.718)" fill="#f4f4f4"/>
  </g>
  <g id="Grupo_16315" data-name="Grupo 16315" transform="translate(85.717 49.211)">
    <ellipse id="Elipse_1159" data-name="Elipse 1159" cx="23.633" cy="25.092" rx="23.633" ry="25.092" transform="translate(0 0)" fill="#f4f4f4"/>
    <path id="Caminho_13721" data-name="Caminho 13721" d="M1123.005,491.859a23.446,23.446,0,0,1,23.144-23.271c-.164,0-.324-.024-.489-.024a23.3,23.3,0,1,0,0,46.59c.165,0,.325-.021.489-.025A23.444,23.444,0,0,1,1123.005,491.859Z" transform="translate(-1119.678 -466.767)" fill="#e0e0e0"/>
    <path id="Caminho_13722" data-name="Caminho 13722" d="M1157.847,465.966c-.7,0-1.384.048-2.067.111,12.082,1.115,21.566,11.865,21.566,24.982s-9.484,23.867-21.566,24.982c.682.062,1.369.111,2.067.111,13.053,0,23.634-11.234,23.634-25.092S1170.9,465.966,1157.847,465.966Z" transform="translate(-1130.079 -465.966)" fill="#e0e0e0"/>
    <text id="_" data-name="$" transform="translate(16.773 34.53)" font-size="28" font-family="Montserrat-Black, Montserrat" font-weight="800"><tspan x="0" y="0">$</tspan></text>
  </g>
  <g id="Grupo_16316" data-name="Grupo 16316" transform="translate(65.645 10.731)">
    <path id="Caminho_13723" data-name="Caminho 13723" d="M1091.758,421.724l-1.227,5.141c-1.037,4.348,9.694,10.633,23.97,14.039s26.688,2.644,27.726-1.7l1.227-5.141Z" transform="translate(-1089.88 -413.853)" fill="#e0e0e0"/>
    <ellipse id="Elipse_1160" data-name="Elipse 1160" cx="8.092" cy="26.574" rx="8.092" ry="26.574" transform="translate(0 15.743) rotate(-76.579)" fill="#f4f4f4"/>
    <path id="Caminho_13724" data-name="Caminho 13724" d="M1120.1,420.707c-13.064-3.117-24.492-2.369-26.2,1.6a2.675,2.675,0,0,1,.037-.461c1.037-4.348,12.846-5.255,26.377-2.026s23.657,9.37,22.62,13.717a2.733,2.733,0,0,1-.176.428C1143.019,429.652,1133.159,423.824,1120.1,420.707Z" transform="translate(-1090.937 -412.67)" fill="#e0e0e0"/>
    <text id="_2" data-name="$" transform="matrix(-0.113, 0.994, -0.994, -0.113, 18.236, 10.354)" font-size="29" font-family="Montserrat-Black, Montserrat" font-weight="800"><tspan x="0" y="0">$</tspan></text>
  </g>
  <g id="Grupo_16318" data-name="Grupo 16318" transform="translate(29.333 28.843)">
    <g id="Grupo_16317" data-name="Grupo 16317" transform="translate(4.509 7.614)">
      <path id="Caminho_13725" data-name="Caminho 13725" d="M1077.826,491.122c-9.311,4.775-21.744-.882-27.771-12.634s-3.365-25.15,5.945-29.925a15.138,15.138,0,0,1,2.583-1.008l-.015-.023a20.715,20.715,0,0,0-10.77,7.738c-.179.223-.335.466-.5.7-.062.091-.127.173-.189.266a18.058,18.058,0,0,0-1.7,3.079c-.048.1-.1.2-.15.3l0,.037c-2.511,6.111-2.158,14.059,1.6,21.389,5.076,9.9,14.69,15.442,23.161,14.1l.041.019s7.681-.512,13.385-8.977A15.547,15.547,0,0,1,1077.826,491.122Z" transform="translate(-1043.651 -447.532)" fill="#e0e0e0"/>
      <path id="Caminho_13726" data-name="Caminho 13726" d="M1101.708,502.248c.154-.241.313-.464.464-.718l-.012-.017Q1101.943,501.888,1101.708,502.248Z" transform="translate(-1061.541 -464.166)" fill="#e0e0e0"/>
    </g>
    <ellipse id="Elipse_1161" data-name="Elipse 1161" cx="18.945" cy="23.915" rx="18.945" ry="23.915" transform="translate(0 17.29) rotate(-27.15)" fill="#f4f4f4"/>
    <path id="Caminho_13727" data-name="Caminho 13727" d="M1087.281,462.975c-5.547-10.815-17.391-15.814-26.456-11.166-.152.077-.288.175-.436.257,9-4.254,20.538.735,25.992,11.37s2.773,22.914-5.935,27.742c.154-.072.312-.125.464-.2C1089.975,486.326,1092.827,473.791,1087.281,462.975Z" transform="translate(-1044.3 -440.7)" fill="#e0e0e0"/>
    <text id="_3" data-name="$" transform="matrix(0.935, -0.355, 0.355, 0.935, 24.031, 40.356)" font-size="26" font-family="Montserrat-Black, Montserrat" font-weight="800"><tspan x="0" y="0">$</tspan></text>
  </g>
  <path id="Caminho_13728" data-name="Caminho 13728" d="M1282.732,483.365l5.078-5.837,4.234,5.837,5.078-5.837,4.234,5.837V464.79a126.089,126.089,0,0,0-83.8-65.3v83.871l5.078-5.837,4.234,5.837,5.078-5.837,4.234,5.837,5.078-5.837,4.234,5.837,5.078-5.837,4.234,5.837,5.077-5.837,4.234,5.837,5.078-5.837,4.233,5.837,5.078-5.837Z" transform="translate(-1063.397 -396.272)" fill="#f27d00"/>
  <rect id="Retângulo_3276" data-name="Retângulo 3276" width="61.455" height="2.423" transform="translate(164.848 62.558)" fill="#f4f4f4"/>
  <rect id="Retângulo_3277" data-name="Retângulo 3277" width="61.455" height="2.423" transform="translate(164.848 54.96)" fill="#f4f4f4"/>
  <path id="Caminho_13729" data-name="Caminho 13729" d="M1292.374,463.292h-59.367v2.424h61.262Q1293.338,464.491,1292.374,463.292Z" transform="translate(-1068.159 -415.931)" fill="#f4f4f4"/>
  <path id="Caminho_13730" data-name="Caminho 13730" d="M1288,454.734c-.727-.815-1.454-1.628-2.2-2.424h-52.792v2.424H1288Z" transform="translate(-1068.159 -412.547)" fill="#f4f4f4"/>
  <path id="Caminho_13731" data-name="Caminho 13731" d="M1278.014,441.327h-45.007v2.424h47.631Q1279.342,442.522,1278.014,441.327Z" transform="translate(-1068.159 -409.162)" fill="#f4f4f4"/>
  <path id="Caminho_13732" data-name="Caminho 13732" d="M1268.654,430.345h-35.647v2.423H1271.9C1270.836,431.934,1269.74,431.145,1268.654,430.345Z" transform="translate(-1068.159 -405.778)" fill="#f4f4f4"/>
  <path id="Caminho_13733" data-name="Caminho 13733" d="M1257.063,419.362h-24.056v2.424h28.116C1259.792,420.946,1258.428,420.153,1257.063,419.362Z" transform="translate(-1068.159 -402.394)" fill="#f4f4f4"/>
  <g id="Grupo_16319" data-name="Grupo 16319" transform="translate(205.146 86.9)">
    <circle id="Elipse_1162" data-name="Elipse 1162" cx="13.817" cy="13.817" r="13.817" transform="translate(0 19.54) rotate(-45)" fill="#f4f4f4"/>
    <path id="Caminho_13734" data-name="Caminho 13734" d="M1311.618,547.659l3.312,3.588,7.589-7.589" transform="translate(-1297.528 -527.595)" fill="none" stroke="#000" stroke-width="0.75"/>
  </g>
</svg>
