<svg id="Componente_25_1" data-name="Componente 25 – 1" xmlns="http://www.w3.org/2000/svg" width="254.594" height="254.594" viewBox="0 0 254.594 254.594">
  <circle id="Elipse_1163" data-name="Elipse 1163" cx="127.297" cy="127.297" r="127.297" fill="#ffcea1"/>
  <rect id="Retângulo_3278" data-name="Retângulo 3278" width="137.285" height="163.395" rx="4.915" transform="translate(42.834 64.338)" fill="#f4f4f4"/>
  <path id="Caminho_13735" data-name="Caminho 13735" d="M1850.446,617.02V502.9a17.093,17.093,0,0,0-34.185,0V617.02Z" transform="translate(-1636.143 -421.469)" fill="#f4f4f4"/>
  <path id="Caminho_13736" data-name="Caminho 13736" d="M1825.056,485.807h-36.525l18.262,26.067Z" transform="translate(-1627.845 -421.469)" fill="#f4f4f4"/>
  <path id="Caminho_13737" data-name="Caminho 13737" d="M1865.043,633.44h20.271s1.938,27.756-20.271,27.756Z" transform="translate(-1650.74 -465.645)" fill="#e0e0e0"/>
  <path id="Caminho_13738" data-name="Caminho 13738" d="M1849.94,498.838a17.083,17.083,0,0,0-33.679,4.062V617.02h4.294V517.975c0-13.565,6.546-17.732,8.948-18.806C1834,496.876,1841.2,496.029,1849.94,498.838Z" transform="translate(-1636.143 -421.469)"/>
  <path id="Caminho_13739" data-name="Caminho 13739" d="M1787.214,667.327l-3.088-1.816v37.464h10.9a11.619,11.619,0,0,0,11.619-11.619C1785.067,691.32,1787.214,667.327,1787.214,667.327Z" transform="translate(-1626.527 -475.242)"/>
  <path id="Caminho_13740" data-name="Caminho 13740" d="M1679.573,582.934c-9.151-.972-12.413-9.117-9.829-18.941,3.22-12.241-9.151-18.765-18.3-14.952-7.365,3.068-14.914.338-20.337-3.951-3.245-2.566-7.691-2.059-10.749-1.24V596.52c6.258,0,12.349-3.374,13.8-9.173,2.711-10.84,14.335-10.317,18.542-2.672,4.591,8.343,14.006,9.277,24.5,9.738C1687.877,594.882,1688.724,583.906,1679.573,582.934Z" transform="translate(-1577.523 -438.638)" fill="#f27d00"/>
  <path id="Caminho_13741" data-name="Caminho 13741" d="M1786.821,562.6c-8.172,1.355-3.841,10.846-11.26,13.557s-13.181,8.135-9.114,16.608-9.151,7.732-10.846,19.287,18.641,14.347,27.114,2.105c5.168-7.466,11.333-7.868,15.365-6.28V567.34S1794.992,561.239,1786.821,562.6Z" transform="translate(-1617.961 -444.388)" fill="#e0e0e0"/>
  <path id="Caminho_13742" data-name="Caminho 13742" d="M1635.664,657.744h67.181c3.953-5.711,3.477-12.268.477-14.114-4.406-2.712-6.1,1.355-12.879,2.711s-6.1-3.39-10.847-4.806-5.762,2.095-15.252,5.483-12.2-5.084-20.676-7.073-14.913,3.854-12.54,11.479C1631.8,653.575,1633.654,655.811,1635.664,657.744Z" transform="translate(-1580.598 -467.475)" fill="#e0e0e0"/>
  <path id="Caminho_13743" data-name="Caminho 13743" d="M1745.75,593.827s4.545-.837,4.419-4.9,3.166-13.557-2.208-14.913-10.805,3.39-10.237,6.779S1739.649,594.889,1745.75,593.827Z" transform="translate(-1612.63 -447.791)" fill="#e0e0e0"/>
  <path id="Caminho_13744" data-name="Caminho 13744" d="M1652.829,613.493c-.208.31-3.413,4.547-.875,7.284s3.6,1.693,4.759,4.472,1.378,3.835,2.623,3.748,3.426-1.266,5.067.9,3.82,3.805,5.043,3.027.859-2.32-.763-4.449,2.676-5.041-.214-8.645-5.948-1.01-7.472-3.826S1655.165,610,1652.829,613.493Z" transform="translate(-1586.687 -459.217)" fill="#e0e0e0"/>
  <path id="Caminho_13745" data-name="Caminho 13745" d="M1773.1,485.807h-38.7a6.729,6.729,0,0,0-.064,3.867c1.8,6.609,2.222,13.557-4.68,15.76s-7.581,5.931-6.9,10.168-4.011,14.235-9.8,19.489,1.328,10,9.8,0,16.777-2.711,23.217-7.287,19.488-8.982,22.369-20.167c1.762-6.837,9.339-11.331,14.972-15.65A11.571,11.571,0,0,0,1773.1,485.807Z" transform="translate(-1604.599 -421.469)" fill="#e0e0e0"/>
  <path id="Caminho_13746" data-name="Caminho 13746" d="M1635.92,485.807a11.655,11.655,0,0,0-2.382.249c.581,2.4,1.813,5.194,4.45,6.273,4.971,2.034,5.794,6.779,14.081,5.2s6.481-3.842,14.615-4.519c6.658-.555,13.7-2.366,15.945-7.2Z" transform="translate(-1581.467 -421.469)" fill="#e0e0e0"/>
  <path id="Caminho_13747" data-name="Caminho 13747" d="M1640.908,726.48h71.222V712.545h-90.576A127.69,127.69,0,0,0,1640.908,726.48Z" transform="translate(-1577.881 -489.315)"/>
  <path id="Caminho_13748" data-name="Caminho 13748" d="M1727.812,665.511H1596s-3,34.134,28.663,37.464h114.405s-10.544,0-11.259-11.26Z" transform="translate(-1570.212 -475.242)" fill="#f4f4f4"/>
  <g id="Grupo_16321" data-name="Grupo 16321" transform="translate(23.055 3.698)">
    <path id="Caminho_13749" data-name="Caminho 13749" d="M1663.245,408.893l-71.112-9.618,50.334,16.184Z" transform="translate(-1592.132 -399.275)" fill="#f27d00"/>
    <path id="Caminho_13750" data-name="Caminho 13750" d="M1642.467,415.459l-3.368,27.807-12.616-18.38-34.351-25.612Z" transform="translate(-1592.132 -399.275)" fill="#723600"/>
    <path id="Caminho_13751" data-name="Caminho 13751" d="M1592.132,399.275l24.187,47.3,10.164-21.689Z" transform="translate(-1592.132 -399.275)" fill="#f27d00"/>
    <path id="Caminho_13752" data-name="Caminho 13752" d="M1651.937,454.2l-16.9-9.238,4.284-9.142Z" transform="translate(-1604.971 -410.211)" fill="#ffdfc2"/>
  </g>
  <ellipse id="Elipse_1164" data-name="Elipse 1164" cx="5.116" cy="1.653" rx="5.116" ry="1.653" transform="translate(62.435 117.82)"/>
  <path id="Caminho_13753" data-name="Caminho 13753" d="M1868.819,650.655V633.44h-3.776V661.2c6.2,0,10.512-2.165,13.516-5.281C1868.579,658.069,1868.819,650.655,1868.819,650.655Z" transform="translate(-1650.74 -465.645)"/>
  <g id="Grupo_16322" data-name="Grupo 16322" transform="translate(58.611 89.712)">
    <path id="Caminho_13754" data-name="Caminho 13754" d="M1660.751,530.976v-.02h0a8.938,8.938,0,1,0-17.876,0h0s0,.048.008.132c.01.629,1.121,11.943,8.933,19.669C1659.477,543.765,1660.749,531.652,1660.751,530.976Z" transform="translate(-1642.871 -522.017)" fill="#272626"/>
    <path id="Caminho_13755" data-name="Caminho 13755" d="M1657.376,534.1a3.05,3.05,0,1,1-3.051-3.05A3.05,3.05,0,0,1,1657.376,534.1Z" transform="translate(-1645.386 -524.718)" fill="#f4f4f4"/>
  </g>
</svg>
