<svg id="Componente_14_1" data-name="Componente 14 – 1" xmlns="http://www.w3.org/2000/svg" xmlns:xlink="http://www.w3.org/1999/xlink" width="26.944" height="27.012" viewBox="0 0 26.944 27.012">
  <defs>
    <clipPath id="clip-path">
      <rect id="Retângulo_3447" data-name="Retângulo 3447" width="26.944" height="27.012" fill="#f27d00"/>
    </clipPath>
  </defs>
  <g id="Grupo_16738" data-name="Grupo 16738" clip-path="url(#clip-path)">
    <path id="Caminho_14090" data-name="Caminho 14090" d="M0,121.842a.9.9,0,0,0,.086-.111c1.052-1.668,2.1-3.338,3.159-5a.723.723,0,0,1,.35-.281q4.817-1.608,9.641-3.194a.732.732,0,0,1,.428-.008q4.837,1.589,9.667,3.2a.607.607,0,0,1,.3.222q1.635,2.575,3.254,5.16c.016.025.029.05.046.082a.077.077,0,0,1-.043.109l-1.748.586c-.367.123-.731.254-1.1.36-.177.05-.226.131-.225.312.008,1.771,0,3.542.01,5.312a.3.3,0,0,1-.246.353q-4.932,1.625-9.861,3.258a.952.952,0,0,1-.508,0c-3.266-1.075-6.528-2.163-9.795-3.235a.392.392,0,0,1-.324-.458c.013-1.744,0-3.489.011-5.233a.271.271,0,0,0-.224-.314c-.945-.3-1.886-.624-2.828-.939L0,121.842m14.264,1.543v6.86a.076.076,0,0,0,.088.076l.027-.006q3.841-1.272,7.682-2.543c.151-.05.176-.13.175-.269,0-1.03,0-2.06,0-3.09v-.739a.077.077,0,0,0-.1-.073l-6.2,2.053a.077.077,0,0,1-.089-.032L14.4,123.345a.076.076,0,0,0-.141.04m-1.606,0a.076.076,0,0,0-.139-.043l-.026.04c-.441.7-.887,1.4-1.318,2.1-.1.162-.187.178-.358.121q-2.536-.852-5.078-1.688c-.312-.1-.625-.2-.954-.31a.077.077,0,0,0-.1.073c0,1.287,0,2.538,0,3.788a.288.288,0,0,0,.241.329q3.169,1.039,6.333,2.093c.43.142.861.282,1.306.427a.076.076,0,0,0,.1-.072Zm7.626-6.128a.076.076,0,0,0,0-.144Q16.943,116,13.6,114.9a.559.559,0,0,0-.326.013q-3.281,1.081-6.559,2.172c-.026.009-.052.019-.079.03a.077.077,0,0,0,.005.143c2.271.753,4.486,1.489,6.7,2.216a.621.621,0,0,0,.354-.036q2.331-.764,4.659-1.539c.63-.209,1.26-.421,1.927-.644m-3.674,6.507,7.868-2.608a.077.077,0,0,0,.041-.113l-1.8-2.857a.076.076,0,0,0-.089-.032l-7.868,2.608a.077.077,0,0,0-.04.113l1.8,2.857a.076.076,0,0,0,.089.032m-14.169-2.61,7.868,2.608a.076.076,0,0,0,.089-.032l1.8-2.859a.076.076,0,0,0-.041-.113l-7.867-2.607a.077.077,0,0,0-.089.032l-1.8,2.857a.077.077,0,0,0,.041.113" transform="translate(0 -105.223)" fill="#f27d00"/>
    <path id="Caminho_14091" data-name="Caminho 14091" d="M180.928.076V5.2a.076.076,0,0,1-.076.076h-1.433a.076.076,0,0,1-.076-.076V.076A.076.076,0,0,1,179.418,0h1.433a.076.076,0,0,1,.076.076" transform="translate(-166.677)" fill="#f27d00"/>
    <path id="Caminho_14092" data-name="Caminho 14092" d="M74.184,24.228l1.24-.716a.076.076,0,0,1,.1.028L78.1,27.993a.076.076,0,0,1-.028.1l-1.24.716a.076.076,0,0,1-.1-.027l-2.572-4.452a.077.077,0,0,1,.028-.105" transform="translate(-68.909 -21.842)" fill="#f27d00"/>
    <path id="Caminho_14093" data-name="Caminho 14093" d="M253.562,23.488l1.239.717a.077.077,0,0,1,.028.1l-2.569,4.451a.077.077,0,0,1-.1.028l-1.241-.714a.077.077,0,0,1-.028-.1l2.571-4.454a.077.077,0,0,1,.105-.028" transform="translate(-233.159 -21.82)" fill="#f27d00"/>
  </g>
</svg>
