<svg id="Componente_23_1" data-name="Componente 23 – 1" xmlns="http://www.w3.org/2000/svg" width="248.829" height="280.19" viewBox="0 0 248.829 280.19">
  <g id="Grupo_16310" data-name="Grupo 16310">
    <g id="Grupo_16279" data-name="Grupo 16279" transform="translate(0 18.552)">
      <circle id="Elipse_1154" data-name="Elipse 1154" cx="124.414" cy="124.414" r="124.414" fill="#ffcea1"/>
    </g>
    <g id="Grupo_16280" data-name="Grupo 16280" transform="translate(81.072 21.987)">
      <path id="Caminho_13689" data-name="Caminho 13689" d="M615.06,398.811H559.115a16.4,16.4,0,0,0-16.4,16.4V583.625a16.4,16.4,0,0,0,16.4,16.4h80.72a16.4,16.4,0,0,0,16.4-16.4V417.062A123.759,123.759,0,0,0,615.06,398.811Z" transform="translate(-542.716 -398.811)"/>
    </g>
    <g id="Grupo_16284" data-name="Grupo 16284" transform="translate(75.869 16.586)">
      <g id="Grupo_16281" data-name="Grupo 16281">
        <rect id="Retângulo_3257" data-name="Retângulo 3257" width="113.518" height="201.214" rx="5.42" fill="#f27d00"/>
      </g>
      <g id="Grupo_16282" data-name="Grupo 16282" transform="translate(4.849 4.062)">
        <path id="Caminho_13690" data-name="Caminho 13690" d="M636.406,396.862H621.98v3.614a3.633,3.633,0,0,1-3.633,3.634H569.874a3.633,3.633,0,0,1-3.633-3.634v-3.614H551.815a9.615,9.615,0,0,0-9.615,9.615V557.3a9.615,9.615,0,0,0,9.615,9.615h84.591a9.615,9.615,0,0,0,9.615-9.615V406.477A9.615,9.615,0,0,0,636.406,396.862Z" transform="translate(-542.2 -396.862)" fill="#f4f4f4"/>
      </g>
      <g id="Grupo_16283" data-name="Grupo 16283" transform="translate(45.757 176.924)">
        <circle id="Elipse_1155" data-name="Elipse 1155" cx="9.225" cy="9.225" r="9.225" transform="matrix(0.216, -0.976, 0.976, 0.216, 0, 18.014)" fill="#f4f4f4"/>
      </g>
    </g>
    <g id="Grupo_16290" data-name="Grupo 16290" transform="translate(33.779 0)">
      <g id="Grupo_16285" data-name="Grupo 16285">
        <circle id="Elipse_1156" data-name="Elipse 1156" cx="29.156" cy="29.156" r="29.156" transform="translate(0 5.578) rotate(-5.489)" fill="#606060"/>
      </g>
      <g id="Grupo_16286" data-name="Grupo 16286" transform="translate(49.929 46.258)">
        <path id="Caminho_13691" data-name="Caminho 13691" d="M546.553,441.728l9.85,1.822-3.536-9.406Z" transform="translate(-546.553 -434.144)" fill="#606060"/>
      </g>
      <g id="Grupo_16287" data-name="Grupo 16287" transform="translate(12.138 29.716)">
        <path id="Caminho_13692" data-name="Caminho 13692" d="M495.729,412.159a2.1,2.1,0,1,1-2.1-2.1A2.1,2.1,0,0,1,495.729,412.159Z" transform="translate(-491.537 -410.063)" fill="#f4f4f4"/>
      </g>
      <g id="Grupo_16288" data-name="Grupo 16288" transform="translate(29.716 29.716)">
        <path id="Caminho_13693" data-name="Caminho 13693" d="M521.318,412.159a2.1,2.1,0,1,1-2.1-2.1A2.1,2.1,0,0,1,521.318,412.159Z" transform="translate(-517.127 -410.063)" fill="#f4f4f4"/>
      </g>
      <g id="Grupo_16289" data-name="Grupo 16289" transform="translate(47.294 29.716)">
        <path id="Caminho_13694" data-name="Caminho 13694" d="M546.908,412.159a2.1,2.1,0,1,1-2.1-2.1A2.1,2.1,0,0,1,546.908,412.159Z" transform="translate(-542.716 -410.063)" fill="#f4f4f4"/>
      </g>
    </g>
    <g id="Grupo_16295" data-name="Grupo 16295" transform="translate(2.345 149.586)">
      <g id="Grupo_16293" data-name="Grupo 16293">
        <g id="Grupo_16291" data-name="Grupo 16291">
          <path id="Caminho_13695" data-name="Caminho 13695" d="M459.6,584.6c-5.831-.242-9.231.729-16.276,5.345-5.476,3.588-12.4,9.067-15.221,11.338v24.03c7.077,1.873,16.577-1.109,30.952,1.256,14.394,2.369,24.415-2.733,24.415-2.733,3.5-2.637,1.458-7.47,1.458-7.47a8.947,8.947,0,0,0,0-7.835c3.248-.4,2.733-6.377,2.368-8.563s-5.648-1.822-5.648-1.822c3.461-.547,3.948-4.694,3.948-4.694H504.79c8.989-.868,8.989-8.885,8.989-8.885S465.434,584.846,459.6,584.6Z" transform="translate(-428.106 -584.568)" fill="#f27d00"/>
        </g>
        <g id="Grupo_16292" data-name="Grupo 16292" transform="translate(17.501 3.361)">
          <path id="Caminho_13696" data-name="Caminho 13696" d="M459.025,613.278l-.018-1.325c12.444-.174,15.636-11.94,15.765-12.441l.13-.5h13.052a6.53,6.53,0,0,0,4.606-2.287,9.391,9.391,0,0,0,1.722-5.868c-3.439-.03-20.129-.155-25.955.005-6.317.176-14,4.6-14.08,4.648l-.665-1.146c.326-.189,8.057-4.642,14.709-4.826,6.5-.179,26.423,0,26.626,0l.587,0,.065.584c.02.18.461,4.425-1.976,7.428a7.839,7.839,0,0,1-5.576,2.781l-12.114,0C475.107,602.753,470.986,613.111,459.025,613.278Z" transform="translate(-453.583 -589.461)"/>
        </g>
      </g>
      <g id="Grupo_16294" data-name="Grupo 16294" transform="translate(23.935 13.488)">
        <path id="Caminho_13697" data-name="Caminho 13697" d="M462.95,617.189s8.26,1.094,13.119-1.943S482.2,606.5,482.2,606.5h8.685s3.349.072,4.071-2.147a22.239,22.239,0,0,0-4.755-.059H478.348S477.557,615.32,462.95,617.189Z" transform="translate(-462.95 -604.204)"/>
      </g>
    </g>
    <g id="Grupo_16296" data-name="Grupo 16296" transform="translate(151.966 22.138)">
      <path id="Caminho_13698" data-name="Caminho 13698" d="M648.241,400.191a1.159,1.159,0,1,1-1.159-1.16A1.159,1.159,0,0,1,648.241,400.191Z" transform="translate(-645.923 -399.031)"/>
    </g>
    <g id="Grupo_16297" data-name="Grupo 16297" transform="translate(121.599 142.812)">
      <rect id="Retângulo_3258" data-name="Retângulo 3258" width="24.845" height="1.491"/>
    </g>
    <g id="Grupo_16298" data-name="Grupo 16298" transform="translate(106.029 149.839)">
      <rect id="Retângulo_3259" data-name="Retângulo 3259" width="55.983" height="1.491"/>
    </g>
    <g id="Grupo_16299" data-name="Grupo 16299" transform="translate(106.029 156.866)">
      <rect id="Retângulo_3260" data-name="Retângulo 3260" width="55.983" height="1.491"/>
    </g>
    <g id="Grupo_16300" data-name="Grupo 16300" transform="translate(106.029 163.893)">
      <rect id="Retângulo_3261" data-name="Retângulo 3261" width="55.983" height="1.491"/>
    </g>
    <g id="Grupo_16301" data-name="Grupo 16301" transform="translate(39.4 72.821)">
      <rect id="Retângulo_3262" data-name="Retângulo 3262" width="21.201" height="21.201"/>
    </g>
    <g id="Grupo_16302" data-name="Grupo 16302" transform="translate(39.4 105.676)">
      <rect id="Retângulo_3263" data-name="Retângulo 3263" width="21.201" height="21.201"/>
    </g>
    <g id="Grupo_16303" data-name="Grupo 16303" transform="translate(37.412 70.833)">
      <rect id="Retângulo_3264" data-name="Retângulo 3264" width="21.201" height="21.201" fill="#f4f4f4"/>
    </g>
    <g id="Grupo_16304" data-name="Grupo 16304" transform="translate(37.412 103.689)">
      <rect id="Retângulo_3265" data-name="Retângulo 3265" width="21.201" height="21.201" fill="#f4f4f4"/>
    </g>
    <g id="Grupo_16305" data-name="Grupo 16305" transform="translate(42.88 77.929)">
      <path id="Caminho_13699" data-name="Caminho 13699" d="M490.233,487.748l-3.117-3.377.973-.9,2.183,2.363,5.585-5.585.937.937Z" transform="translate(-487.116 -480.25)"/>
    </g>
    <g id="Grupo_16306" data-name="Grupo 16306" transform="translate(42.88 110.784)">
      <path id="Caminho_13700" data-name="Caminho 13700" d="M490.233,535.579l-3.117-3.377.973-.9,2.183,2.363,5.585-5.585.937.937Z" transform="translate(-487.116 -528.081)"/>
    </g>
    <g id="Grupo_16307" data-name="Grupo 16307" transform="translate(131.303 223.2)">
      <rect id="Retângulo_3266" data-name="Retângulo 3266" width="2.65" height="56.99"/>
    </g>
    <g id="Grupo_16308" data-name="Grupo 16308" transform="translate(129.442 217.8)">
      <rect id="Retângulo_3267" data-name="Retângulo 3267" width="6.372" height="8.615"/>
    </g>
    <g id="Grupo_16309" data-name="Grupo 16309" transform="translate(75.869 53.991)">
      <path id="Caminho_13701" data-name="Caminho 13701" d="M543.791,445.4s-3.476,8.613-8.65,10.352v-5.243S541.176,447.971,543.791,445.4Z" transform="translate(-535.141 -445.403)"/>
    </g>
  </g>
  <g id="Grupo_16311" data-name="Grupo 16311" transform="translate(109.703 54.414)">
    <path id="Caminho_13702" data-name="Caminho 13702" d="M588.762,525.02a1.742,1.742,0,0,1-.85-1.716c.025-1.32,0-2.641.01-3.961.009-1.146.451-1.588,1.6-1.6.953-.012,1.909-.039,2.86.011.553.029.737-.172.873-.691q4.851-18.537,9.74-37.066c.508-1.933,1-3.871,1.532-5.8a.773.773,0,0,0-.275-.937,8.39,8.39,0,0,1-2.284-9.775,8.467,8.467,0,0,1,16.092,1.743,8.218,8.218,0,0,1-2.765,7.987.837.837,0,0,0-.335.983q5.65,21.391,11.25,42.795c.145.555.339.811.971.764.949-.069,1.906-.032,2.859-.014,1.063.021,1.51.466,1.523,1.526.016,1.345-.014,2.69.012,4.034a1.744,1.744,0,0,1-.85,1.716Z" transform="translate(-585.497 -449.885)"/>
    <path id="Caminho_13703" data-name="Caminho 13703" d="M597.752,447.278a2.678,2.678,0,0,0,0,.439c.1.611-.161.767-.755.793a10.845,10.845,0,0,0-10.089,9.672c-.1,1.18-.1,1.18-1.257,1.18-1.348,0-1.348,0-1.185-1.344a13.338,13.338,0,0,1,10.156-11.608,19.236,19.236,0,0,1,2.381-.374c.62-.082.853.113.749.73A3.1,3.1,0,0,0,597.752,447.278Z" transform="translate(-584.397 -446.018)"/>
    <path id="Caminho_13704" data-name="Caminho 13704" d="M647.656,459.374c-1.187,0-1.187,0-1.282-1.152a10.846,10.846,0,0,0-10.063-9.7c-.642-.027-.9-.205-.78-.841a.379.379,0,0,0,0-.073c0-1.677,0-1.677,1.66-1.454a13.286,13.286,0,0,1,11.427,10.69c.117.6.135,1.21.228,1.811.085.554-.076.825-.678.719A3.03,3.03,0,0,0,647.656,459.374Z" transform="translate(-600.397 -446.029)"/>
    <path id="Caminho_13705" data-name="Caminho 13705" d="M599.957,454.352a4.159,4.159,0,0,0,0,.585c.072.492-.159.605-.615.639a5.913,5.913,0,0,0-5.379,5.355c-.044.477-.17.722-.695.648a6.231,6.231,0,0,0-.878-.008c-1.04,0-1.04,0-.871-1.064a8.463,8.463,0,0,1,7.348-7.347c1.085-.176,1.085-.176,1.085.9Z" transform="translate(-586.602 -448.228)"/>
    <path id="Caminho_13706" data-name="Caminho 13706" d="M642.877,461.585a2.421,2.421,0,0,0-.353,0c-.737.131-.977-.159-1.032-.918a5.92,5.92,0,0,0-5.188-5.063c-.651-.039-.886-.238-.774-.86a.8.8,0,0,0,0-.146c0-1.614,0-1.614,1.576-1.361a8.628,8.628,0,0,1,6.907,7.628C644.1,462.073,643.24,461.4,642.877,461.585Z" transform="translate(-600.397 -448.241)"/>
    <path id="Caminho_13707" data-name="Caminho 13707" d="M602.173,461.369c0,.269,0,.538,0,.806,0,.142.043.355-.114.39a1.371,1.371,0,0,0-1.116,1.108c-.041.166-.247.117-.389.119-.416,0-.831,0-1.247,0-.888,0-.9-.007-.649-.9a3.6,3.6,0,0,1,2.744-2.657c.606-.162.872-.036.776.624A3.542,3.542,0,0,0,602.173,461.369Z" transform="translate(-588.818 -450.449)" fill="#010101"/>
    <path id="Caminho_13708" data-name="Caminho 13708" d="M635.532,461.517c0-1.533.157-1.645,1.416-1.092a3.647,3.647,0,0,1,2.2,2.821c.077.4-.025.587-.472.54a7.089,7.089,0,0,0-1.026,0c-.49.021-.988.091-1.085-.609a.465.465,0,0,0-.275-.322C635.385,462.658,635.5,461.982,635.532,461.517Z" transform="translate(-600.399 -450.434)" fill="#010101"/>
    <path id="Caminho_13709" data-name="Caminho 13709" d="M613.264,537.81c-4.473,0-8.946-.009-13.42.011-.591,0-.748-.086-.568-.721.611-2.158,1.155-4.334,1.713-6.506a1.384,1.384,0,0,1,.649-.9q5.581-3.5,11.134-7.042a.813.813,0,0,1,1.03.017q5.523,3.524,11.073,7a1.462,1.462,0,0,1,.7.949c.554,2.173,1.111,4.346,1.71,6.508.155.559.07.7-.528.7C622.26,537.8,617.762,537.81,613.264,537.81Z" transform="translate(-589.033 -469.955)" fill="#fefefe"/>
    <path id="Caminho_13710" data-name="Caminho 13710" d="M624.037,506.953c.073.2-.141.273-.3.374q-3.683,2.328-7.362,4.658a.531.531,0,0,1-.661-.021q-3.646-2.315-7.307-4.609c-.271-.169-.387-.343-.267-.647a.818.818,0,0,0,.053-.213,4.319,4.319,0,0,1,2.164-3.242c1.8-1.211,3.5-2.581,5.226-3.9a.632.632,0,0,1,.929-.023c2.152,1.649,4.328,3.267,6.5,4.885a1.269,1.269,0,0,1,.513.762C623.682,505.616,623.855,506.251,624.037,506.953Z" transform="translate(-591.815 -462.649)" fill="#fefefe"/>
    <path id="Caminho_13711" data-name="Caminho 13711" d="M610.754,550.733q-9.308,0-18.616.01c-.511,0-.779-.066-.69-.658.085-.569-.249-1.339.136-1.672.326-.282,1.068-.093,1.626-.093q18.1,0,36.206-.02c.7,0,.824.211.806.843-.043,1.588-.014,1.59-1.585,1.59Z" transform="translate(-586.588 -478.028)" fill="#fefefe"/>
    <path id="Caminho_13712" data-name="Caminho 13712" d="M622.975,468.055a6.035,6.035,0,1,1-12.07-.14,6.035,6.035,0,1,1,12.07.14Z" transform="translate(-592.696 -450.998)" fill="#fefefe"/>
    <path id="Caminho_13713" data-name="Caminho 13713" d="M617.783,490.724c-.112-.08-.229-.161-.342-.245-1.189-.892-2.372-1.793-3.57-2.673a.511.511,0,0,1-.235-.657c.408-1.451.782-2.913,1.151-4.375.08-.317.153-.436.529-.317a8.093,8.093,0,0,0,4.961,0c.321-.1.411-.039.49.273q.574,2.264,1.2,4.514a.388.388,0,0,1-.161.491c-1.252.93-2.5,1.868-3.746,2.8C617.978,490.594,617.9,490.645,617.783,490.724Z" transform="translate(-593.539 -457.412)" fill="#fefefe"/>
    <path id="Caminho_13714" data-name="Caminho 13714" d="M631.945,524.019,623,518.371l6.393-4.048Z" transform="translate(-596.483 -467.404)" fill="#fefefe"/>
    <path id="Caminho_13715" data-name="Caminho 13715" d="M603.36,524.022l2.555-9.7,6.391,4.044Z" transform="translate(-590.334 -467.404)" fill="#fefefe"/>
    <path id="Caminho_13716" data-name="Caminho 13716" d="M611.881,493.578l2.9,2.171-4.323,3.244Z" transform="translate(-592.556 -460.909)" fill="#fdfdfd"/>
    <path id="Caminho_13717" data-name="Caminho 13717" d="M622.628,495.753l2.9-2.171c.476,1.81.931,3.538,1.423,5.408Z" transform="translate(-596.366 -460.91)" fill="#fdfdfd"/>
    <path id="Caminho_13718" data-name="Caminho 13718" d="M618,472.684a3.617,3.617,0,1,1,3.669-3.6A3.645,3.645,0,0,1,618,472.684Z" transform="translate(-593.787 -452.103)"/>
    <path id="Caminho_13719" data-name="Caminho 13719" d="M620.339,470.163a1.19,1.19,0,1,1-2.378-.012,1.189,1.189,0,0,1,2.378.012Z" transform="translate(-594.905 -453.205)" fill="#fcfcfc"/>
  </g>
</svg>
