<svg height="1615.436" viewBox="0 0 1933.269 1615.436" width="1933.269" xmlns="http://www.w3.org/2000/svg" xmlns:xlink="http://www.w3.org/1999/xlink"><linearGradient id="a" gradientUnits="objectBoundingBox" x1=".5" x2=".5" y1="1"><stop offset="0" stop-color="#808080" stop-opacity=".251"/><stop offset=".54" stop-color="#808080" stop-opacity=".122"/><stop offset="1" stop-color="#808080" stop-opacity=".102"/></linearGradient><path d="m691.378 274.311c65.678-58.374 168.565-70.382 262.293-65.717 294.453 14.627 560.111 156.787 789.957 317.4 83.212 58.2 165.142 120.917 219.157 201.069 109.961 163.137 77.341 389.137-75.545 523.537-52.026 45.717-115.085 80.783-179.731 111.854-115.1 55.238-239.31 99.6-369.959 112.217-93.173 9.006-187.379 1.7-280.094-10.86-258.775-35.111-512.789-112.811-725.694-245.491-93.362-58.22-181.375-130.63-219.883-224.836s-13.939-213.5 81.414-269.253c39.426-23.059 86.577-33.461 132.733-43.25 67.954-14.4 137-28.681 198.3-57.858 63.326-30.229 138.316-88.68 125.793-155.582-13.519-71.874-24.267-134.856 41.259-193.23z" fill="#001f40" opacity=".1" transform="translate(-94.46 136.767)"/><path d="m416.431 797.774s-87.954-5.3-77.629 56.366c0 0-2.046 10.9 7.82 15.851 0 0 .153-4.57 9.025-3.021a41.754 41.754 0 0 0 9.56.459 19.98 19.98 0 0 0 11.7-4.837s24.722-10.21 34.417-50.631c0 0 7.132-8.834 6.845-11.09l-14.855 6.329s5.067 10.726 1.09 19.617c0 0-.478-19.12-3.346-18.757-.573 0-7.648 3.709-7.648 3.709s8.738 18.662 2.141 32.218c0 0 2.5-22.944-4.876-30.879l-10.574 6.1s10.191 19.292 3.27 35.009c0 0 1.778-24.13-5.468-33.518l-9.56 7.4s9.56 18.986 3.824 32.027c0 0-.765-28.069-5.736-30.191 0 0-8.279 7.3-9.56 10.306 0 0 6.577 13.786 2.5 21.032 0 0-2.5-18.719-4.551-18.8 0 0-8.26 12.39-9.12 20.879 0 0 .363-12.639 7.113-22.065 0 0-7.973 1.357-12.639 6.539 0 0 1.281-8.757 14.684-9.56 0 0 6.826-9.407 8.642-9.98 0 0-13.384-1.109-21.4 2.466 0 0 7.113-8.26 23.843-4.512l9.35-7.648s-17.533-2.409-24.971.249c0 0 8.547-7.3 27.495-1.912l10.183-6.076s-14.952-3.231-23.862-2.065c0 0 9.407-5.067 26.768.421l7.361-3.25s-10.956-2.142-14.168-2.486-3.365-1.224-3.365-1.224a37.953 37.953 0 0 1 20.573 2.295s15.449-5.794 15.124-6.77z" fill="#001f40" transform="translate(127.619 674.845)"/><ellipse cx="483.496" cy="1550.209" fill="#001f40" opacity=".1" rx="62.275" ry="10.535"/><path d="m488.425 712.781s-49.617-3-43.766 31.759a8.489 8.489 0 0 0 4.4 8.948s0-2.581 5.086-1.7a24.131 24.131 0 0 0 5.392.248 11.226 11.226 0 0 0 6.6-2.715s13.939-5.737 19.369-28.566c0 0 4.015-4.971 3.824-6.233l-8.375 3.575s2.849 6.023.612 11.052c0 0-.287-10.841-1.912-10.593-.325 0-4.34 2.1-4.34 2.1s4.914 10.516 1.2 18.165c0 0 1.415-12.964-2.753-17.4l-5.889 3.441s5.736 10.86 1.912 19.732c0 0 .994-13.614-3.1-18.91l-5.335 4.168s5.411 10.707 2.1 18.069c0 0-.421-15.832-3.27-17.037a32.393 32.393 0 0 0 -5.373 5.736s3.69 7.763 1.4 11.874c0 0-1.4-10.554-2.562-10.593 0 0-4.646 6.979-5.124 11.759a25.41 25.41 0 0 1 4-12.447 14.016 14.016 0 0 0 -7.113 3.709s.708-4.952 8.26-5.392c0 0 3.824-5.3 4.876-5.621 0 0-7.5-.612-12.065 1.4 0 0 4.015-4.665 13.384-2.543l5.277-4.3s-9.885-1.358-14.073.134c0 0 4.818-4.111 15.488-1.109l5.736-3.442a51.618 51.618 0 0 0 -13.391-1.149s5.3-2.868 15.143.229l4.092-1.912s-6.176-1.224-7.973-1.415-1.912-.688-1.912-.688a21.421 21.421 0 0 1 11.606 1.3s8.703-3.155 8.569-3.633z" fill="#001f40" transform="translate(224.495 597.373)"/><ellipse cx="678.734" cy="1353.901" fill="#ff7d00" opacity=".1" rx="35.105" ry="5.927"/><path d="m339.654 728.557s-59.9-3.595-52.849 38.375a10.248 10.248 0 0 0 5.315 10.784s.115-3.117 6.157-2.065a27.621 27.621 0 0 0 6.5.325 13.384 13.384 0 0 0 7.954-3.289s16.845-6.96 23.384-34.417c0 0 4.857-6 4.665-7.648l-10.115 4.321s3.461 7.285.746 13.384c0 0-.344-13.078-2.275-12.772-.4 0-5.258 2.524-5.258 2.524s5.946 12.715 1.453 21.931c0 0 1.7-15.64-3.308-21.032l-7.113 4.149s6.941 13.136 2.237 23.843c0 0 1.2-16.425-3.729-22.83l-6.444 5.029s6.52 12.944 2.543 21.816c0 0-.535-19.12-3.958-20.554 0 0-5.641 4.971-6.5 7.017 0 0 4.474 9.388 1.7 14.34 0 0-1.7-12.734-3.1-12.792 0 0-5.621 8.432-6.2 14.226a30.6 30.6 0 0 1 4.837-15.067 16.809 16.809 0 0 0 -8.6 4.455s.879-5.965 10-6.5c0 0 4.627-6.386 5.889-6.788 0 0-9.082-.746-14.57 1.683 0 0 4.838-5.621 16.214-3.078l6.367-5.067s-11.931-1.644-17 .172c0 0 5.832-4.99 18.719-1.358l6.941-4.149s-10.191-2.18-16.252-1.4c0 0 6.405-3.442 18.279.287l4.952-2.218s-7.457-1.472-9.56-1.7-2.314-.841-2.314-.841a25.907 25.907 0 0 1 14.015 1.568s10.45-3.995 10.278-4.664z" fill="#001f40" transform="translate(80.439 611.75)"/><ellipse cx="378.812" cy="1393.136" fill="#001f40" opacity=".1" rx="42.39" ry="7.17"/><path d="m596.563 220.81c-15.832 6.138-33.709 14.493-37.82 30.956a37.875 37.875 0 0 0 .995 19.12 63.1 63.1 0 0 0 30.4 37.782c18.183 9.77 40.764 10.306 57.361 22.466a49.407 49.407 0 0 1 19.274 31.013c.9 5.2.975 10.612 2.887 15.545 5.105 13.212 21.166 18.356 35.315 19.12 6.807.4 14.264.421 19.465 4.837a28.072 28.072 0 0 1 5.239 6.73c11.013 17.571 22.409 36.329 22.524 57.112 0 16.291-6.883 31.778-14.933 45.889-10.5 18.413-23.4 36.5-25.812 57.552-2.83 24.856 9.56 48.833 11.166 73.747a87.953 87.953 0 0 1 -29.445 70.879" fill="none" stroke="#444053" stroke-miterlimit="10" transform="translate(328.268 148.738)"/><path d="m682.845 174.71c12.161 88.565 10.1 199.941-69.426 210.859s-206.365-82.769-218.602-171.318 42.447-169.2 121.969-180.114 153.899 52.026 166.059 140.573z" fill="#ff7d00" transform="translate(177.914 -22.636)"/><path d="m546.292 264.076s-13 5.889-14.971-6.769a22.985 22.985 0 0 1 -.229-3.4 34.017 34.017 0 0 0 -2.161-11.472 41.465 41.465 0 0 0 -1.644-3.824 54.725 54.725 0 0 0 -10.956-15.162l30.593-23.365s-5.392 18.853-.248 23.384a3.977 3.977 0 0 0 2.715.956 7.65 7.65 0 0 0 2.715-.516c1.052-.363 2.008-.65 2.887-.88 10.344-2.639 9.56 3.958 9.56 3.958 8.163 14.298-18.261 37.09-18.261 37.09z" fill="#ff7d00" transform="translate(290.299 129.832)"/><path d="m544.145 213.179-20.421 18.069a41.422 41.422 0 0 0 -1.644-3.824c5.526-4.054 14-10.822 19.35-15.143a3.977 3.977 0 0 0 2.715.9z" fill="#444053" transform="translate(295.544 140.958)"/><path d="m539.141 253.483s-13 5.889-14.971-6.769a42.808 42.808 0 0 0 14.187-8.642c5.449-5.526 10.727-18.011 9.446-25.755 10.344-2.639 9.56 3.958 9.56 3.958 8.203 14.417-18.222 37.208-18.222 37.208z" fill="#ff7d00" transform="translate(297.45 140.424)"/><path d="m539.141 253.483s-13 5.889-14.971-6.769a42.808 42.808 0 0 0 14.187-8.642c5.449-5.526 10.727-18.011 9.446-25.755 10.344-2.639 9.56 3.958 9.56 3.958 8.203 14.417-18.222 37.208-18.222 37.208z" opacity=".1" transform="translate(297.45 140.424)"/><path d="m444.185 58.47s-38.546 19.484-32.83 49.942c0 0 6.616-6.271 13.384-7.763a21.969 21.969 0 0 0 9.407-3.977s-3.307-16.825 10.039-38.202z" fill="#fff" opacity=".1" transform="translate(194.032 .679)"/><path d="m734.793 396.717a110.513 110.513 0 0 1 -8.987 30.076c-1.166 2.677-2.447 5.392-3.824 8.069-36 69.1-136.06 136.6-210.783 126.462-69.77-9.464-123.651-57.495-138.164-116.309-.707-2.868-1.338-5.736-1.912-8.719a132.52 132.52 0 0 1 -.8-40.726c8.757-64.321 63.1-112.428 130.515-122.045a163.947 163.947 0 0 1 17.954-1.644c2.906-.134 5.851-.172 8.814-.134a175.653 175.653 0 0 1 22.638 1.606c4.149.574 8.394 1.166 12.639 1.912a10.405 10.405 0 0 1 1.071.172 479.081 479.081 0 0 1 76.156 17.744c7.648 2.543 15.048 5.258 22.161 8.356 4.952 2.084 9.77 4.321 14.417 6.692 20.86 10.593 37.935 23.843 48.241 40.382 1.032 1.644 1.912 3.308 2.868 5.048l.4.8a66.92 66.92 0 0 1 6.75 22.161 76.768 76.768 0 0 1 -.153 20.1z" fill="#ff7d00" transform="translate(156.042 195.181)"/><path d="m734.793 396.717a110.513 110.513 0 0 1 -8.987 30.076c-1.166 2.677-2.447 5.392-3.824 8.069-36 69.1-136.06 136.6-210.783 126.462-69.77-9.464-123.651-57.495-138.164-116.309-.707-2.868-1.338-5.736-1.912-8.719a132.52 132.52 0 0 1 -.8-40.726c8.757-64.321 63.1-112.428 130.515-122.045a163.947 163.947 0 0 1 17.954-1.644c2.906-.134 5.851-.172 8.814-.134a175.653 175.653 0 0 1 22.638 1.606c4.149.574 8.394 1.166 12.639 1.912a10.405 10.405 0 0 1 1.071.172 479.081 479.081 0 0 1 76.156 17.744c7.648 2.543 15.048 5.258 22.161 8.356 4.952 2.084 9.77 4.321 14.417 6.692 20.86 10.593 37.935 23.843 48.241 40.382 1.032 1.644 1.912 3.308 2.868 5.048l.4.8a66.92 66.92 0 0 1 6.75 22.161 76.768 76.768 0 0 1 -.153 20.1z" opacity=".1" transform="translate(156.042 195.181)"/><path d="m601.161 344.5a17.2 17.2 0 0 1 -3.346-.669 33.383 33.383 0 0 0 -11.663-.975 31.784 31.784 0 0 0 -4.245.535 51.192 51.192 0 0 0 -12.046 3.709 48.774 48.774 0 0 0 -5.449 2.753l-9.885-24.608-.134-.363-4.283-10.669a72.264 72.264 0 0 0 9.732 4.876c4.7 1.912 9.923 3.384 12.7 1.606a4.187 4.187 0 0 0 1.644-2.371 7.3 7.3 0 0 0 .23-2.773c0-1.109-.1-2.1-.1-3.04.268-10.631 6.444-8.164 6.444-8.164 7.094-1.74 13.977 3.48 19.426 9.771.8.956 1.568 1.912 2.276 2.83a94.484 94.484 0 0 1 9.254 14.952s2.184 14.153-10.555 12.6z" fill="#ff7d00" transform="translate(321.108 224.622)"/><path d="m575.494 336.05a31.785 31.785 0 0 0 -4.245.535c-1.912-5.411-5.354-13.384-8.031-19.522-.172-.459-.363-.861-.535-1.3s-.573-1.3-.8-1.912a4.187 4.187 0 0 0 1.644-2.371l1.8 3.709.708 1.472z" fill="#444053" transform="translate(331.843 231.432)"/><path d="m589.588 344.5a42.947 42.947 0 0 0 -4.551-15.984 34.038 34.038 0 0 0 -6.52-7.648 27.04 27.04 0 0 0 -2.333-1.912 29.522 29.522 0 0 0 -13.384-6.443c.268-10.631 6.444-8.164 6.444-8.164 7.094-1.74 13.977 3.48 19.426 9.77.8.956 1.568 1.912 2.276 2.83a94.51 94.51 0 0 1 9.254 14.951s2.122 14.153-10.612 12.6z" fill="#ff7d00" transform="translate(332.682 224.622)"/><path d="m589.588 344.5a42.947 42.947 0 0 0 -4.551-15.984 34.038 34.038 0 0 0 -6.52-7.648 27.04 27.04 0 0 0 -2.333-1.912 29.522 29.522 0 0 0 -13.384-6.443c.268-10.631 6.444-8.164 6.444-8.164 7.094-1.74 13.977 3.48 19.426 9.77.8.956 1.568 1.912 2.276 2.83a94.51 94.51 0 0 1 9.254 14.951s2.122 14.153-10.612 12.6z" opacity=".1" transform="translate(332.682 224.622)"/><path d="m385.84 371.67s8.432 42.371 39.311 45.009c0 0-4.264-8.05-3.824-14.895a21.756 21.756 0 0 0 -1.3-10.153s-17.17-1.357-34.187-19.961z" fill="#fff" opacity=".1" transform="translate(171.288 286.328)"/><path d="m750.726 245.172c-15.545 35.506-35.6 73.25-59.369 102.026-18.222 22.16-38.68 38.948-60.937 45.334a68.47 68.47 0 0 1 -29.6 1.912 74.564 74.564 0 0 1 -19.35-5.736c-43.422-19.025-81.873-77.724-98.718-139.579-11.644-42.887-12.944-87.15 1.74-120.688 35.873-81.757 124.534-122.005 198.147-89.807s103.938 124.666 68.087 206.538z" fill="#ff7d00" transform="translate(251.466 -27.535)"/><path d="m750.726 245.172c-15.545 35.506-35.6 73.25-59.369 102.026-18.222 22.16-38.68 38.948-60.937 45.334a68.47 68.47 0 0 1 -29.6 1.912 74.564 74.564 0 0 1 -19.35-5.736c-43.422-19.025-81.873-77.724-98.718-139.579-11.644-42.887-12.944-87.15 1.74-120.688 35.873-81.757 124.534-122.005 198.147-89.807s103.938 124.666 68.087 206.538z" opacity=".1" transform="translate(251.466 -27.535)"/><path d="m581.721 246.418c-.574 16.52-35.01 22.2-35.01 22.2s-14.168-1.8-9.2-13.595a21.673 21.673 0 0 1 1.552-3.023 34.19 34.19 0 0 0 4.206-10.994c.268-1.4.5-2.772.631-4.149a56.074 56.074 0 0 0 -.268-12.658 46.9 46.9 0 0 0 -1.166-5.985l38.241-4.015a80.617 80.617 0 0 0 -7.476 8.088c-3.155 4.015-5.889 8.623-4.952 11.74a3.824 3.824 0 0 0 1.912 2.237 7.131 7.131 0 0 0 2.581.994 25.518 25.518 0 0 1 2.906.746c10.115 3.137 6.043 8.414 6.043 8.414z" fill="#ff7d00" transform="translate(308.656 142.71)"/><path d="m566.828 226.807-26.768 4.742c.268-1.4.5-2.772.631-4.149 6.788-.593 17.552-1.912 24.378-2.83a3.824 3.824 0 0 0 1.759 2.237z" fill="#444053" transform="translate(311.942 152.167)"/><path d="m581.721 235.063c-.574 16.52-35.01 22.2-35.01 22.2s-14.168-1.8-9.2-13.595a42.731 42.731 0 0 0 16.615 0c7.5-1.912 18.528-9.732 21.472-17.017 10.195 3.135 6.123 8.412 6.123 8.412z" fill="#ff7d00" transform="translate(308.656 154.064)"/><path d="m581.721 235.063c-.574 16.52-35.01 22.2-35.01 22.2s-14.168-1.8-9.2-13.595a42.731 42.731 0 0 0 16.615 0c7.5-1.912 18.528-9.732 21.472-17.017 10.195 3.135 6.123 8.412 6.123 8.412z" opacity=".1" transform="translate(308.656 154.064)"/><path d="m570.512 39.214s-43.039-3.514-54.072 25.468c0 0 8.91-1.912 15.411.306a21.587 21.587 0 0 0 10.115 1.53s5.984-16.118 28.546-27.304z" fill="#fff" opacity=".1" transform="translate(290.4 -17.006)"/><g opacity=".1" transform="translate(385.734 412.496)"><path d="m331.573 341.055c-.344 6.826 3.939 14.857 3.939 14.857-30.86-2.62-39.311-44.971-39.311-44.971 17.017 18.585 34.072 19.962 34.072 19.962a21.682 21.682 0 0 1 1.3 10.152z" transform="translate(-296.2 -181.556)"/><path d="m474.813 284.25-14.283-35.64a72.284 72.284 0 0 0 9.732 4.876 68.049 68.049 0 0 1 10 28.011 51 51 0 0 0 -5.449 2.753z" transform="translate(-146.326 -238.403)"/><path d="m563.921 275.405c-.134 1.7-.306 3.48-.535 5.239a110.322 110.322 0 0 1 -9.025 30.057c-1.166 2.677-2.466 5.392-3.824 8.088-30.86 59.273-108.795 117.341-177.552 126.194a132.122 132.122 0 0 1 -2.677-49.445c8.757-64.321 63.1-112.428 130.516-122.045a178.011 178.011 0 0 1 49.407-.172c4.512.708 9.101 1.338 13.69 2.084z" transform="translate(-229.698 -217.359)"/><path d="m511.531 283.765a17.418 17.418 0 0 1 -3.365-.669 33.309 33.309 0 0 0 -11.644-.975 31.024 31.024 0 0 0 -4.245.535 55.308 55.308 0 0 0 -17.514 6.463l-14.283-35.64a72.277 72.277 0 0 0 9.732 4.876c4.685 1.912 9.9 3.384 12.677 1.606a4.3 4.3 0 0 0 1.664-2.371 7.745 7.745 0 0 0 .21-2.772v-3.018c.268-10.631 6.424-8.183 6.424-8.183 16.042-3.939 30.956 27.552 30.956 27.552s2.103 14.126-10.612 12.596z" transform="translate(-146.371 -243.272)"/><path d="m485.833 275.291a31.04 31.04 0 0 0 -4.245.535c-2.371-6.386-6.654-16.348-9.388-22.7a4.3 4.3 0 0 0 1.663-2.371z" transform="translate(-135.682 -236.442)"/><path d="m499.985 283.765a43.479 43.479 0 0 0 -4.57-15.985c-3.824-6.711-14.474-15.143-22.275-15.985.268-10.631 6.424-8.183 6.424-8.183 16.042-3.939 30.956 27.552 30.956 27.552s2.18 14.131-10.535 12.601z" transform="translate(-134.825 -243.272)"/><path d="m499.985 283.765a43.479 43.479 0 0 0 -4.57-15.985c-3.824-6.711-14.474-15.143-22.275-15.985.268-10.631 6.424-8.183 6.424-8.183 16.042-3.939 30.956 27.552 30.956 27.552s2.18 14.131-10.535 12.601z" opacity=".1" transform="translate(-134.825 -243.272)"/><path d="m335.512 355.911c-30.86-2.62-39.311-44.971-39.311-44.971 17.017 18.585 34.072 19.962 34.072 19.962a21.682 21.682 0 0 1 1.3 10.153c-.344 6.826 3.939 14.856 3.939 14.856z" opacity=".1" transform="translate(-296.2 -181.556)"/></g><path d="m645.2 331.3c-.172 1.166-.363 2.333-.535 3.537a114.859 114.859 0 0 1 -8.509 26.539c-.363.8-.727 1.644-1.128 2.447-.841 1.912-1.778 3.824-2.772 5.621-31.166 59.808-110.229 118.374-179.425 126.5a122.869 122.869 0 0 1 -31.357 0c-88.565-12.027-151.605-86.252-140.84-165.754 8.757-64.321 63.1-112.428 130.534-122.045 2.084-.306 4.187-.574 6.329-.8a178.835 178.835 0 0 1 43.059.631c29.617 3.977 61.281 10.229 89.866 19.751q9.044 3.021 17.629 6.463c1.53.593 3.04 1.262 4.512 1.912 2.773 1.166 5.507 2.428 8.184 3.671 2.142.975 4.188 2.008 6.252 3.04 20.86 10.593 37.915 23.843 48.241 40.382a67.972 67.972 0 0 1 10 27.992 76.92 76.92 0 0 1 -.04 20.113z" fill="#ffc58d" transform="translate(74.242 135.536)"/><path d="m511.531 279.1a17.414 17.414 0 0 1 -3.365-.669 33.786 33.786 0 0 0 -11.644-.994 34.4 34.4 0 0 0 -4.245.554 52.335 52.335 0 0 0 -12.065 3.69 52.966 52.966 0 0 0 -5.449 2.773l-14.283-35.64a74.854 74.854 0 0 0 9.732 4.876c4.685 1.912 9.9 3.384 12.677 1.606a4.3 4.3 0 0 0 1.664-2.371 7.745 7.745 0 0 0 .21-2.773v-3.04c.268-10.631 6.424-8.164 6.424-8.164 16.042-3.948 30.956 27.552 30.956 27.552s2.103 14.106-10.612 12.6z" fill="#ff7d00" transform="translate(239.362 164.965)"/><path d="m485.833 270.6a34.431 34.431 0 0 0 -4.245.555c-2.371-6.405-6.654-16.348-9.388-22.7a4.3 4.3 0 0 0 1.663-2.371z" fill="#444053" transform="translate(250.051 171.794)"/><path d="m499.985 279.1a43.383 43.383 0 0 0 -4.57-15.985c-3.824-6.711-14.474-15.143-22.275-16 .268-10.631 6.424-8.164 6.424-8.164 16.042-3.939 30.956 27.552 30.956 27.552s2.18 14.103-10.535 12.597z" fill="#ff7d00" transform="translate(250.909 164.965)"/><path d="m499.985 279.1a43.383 43.383 0 0 0 -4.57-15.985c-3.824-6.711-14.474-15.143-22.275-16 .268-10.631 6.424-8.164 6.424-8.164 16.042-3.939 30.956 27.552 30.956 27.552s2.18 14.103-10.535 12.597z" opacity=".1" transform="translate(250.909 164.965)"/><path d="m296.19 306.26s8.451 42.352 39.331 45.009c0 0-4.283-8.05-3.92-14.895a21.758 21.758 0 0 0 -1.3-10.153s-17.075-1.338-34.111-19.961z" fill="#fff" opacity=".1" transform="translate(89.524 226.671)"/><g opacity=".1" transform="translate(419.967 132.456)"><path d="m336.161 136.217a21.95 21.95 0 0 1 -7.648 6.826c-5.851 3.576-10.1 11.625-10.1 11.625-15.3-26.979 15.01-57.858 15.01-57.858-5.751 24.57 2.738 39.407 2.738 39.407z" transform="translate(-314.104 -96.81)"/><path d="m509.738 236.039q7.457 3.155 14.436 6.711a133.825 133.825 0 0 1 -17.858 3.308c-48.241 5.736-110.019-9.35-157.9-37.935a177.825 177.825 0 0 1 49.388-.172c29.617 3.977 61.281 10.229 89.866 19.751 7.556 2.544 14.975 5.259 22.068 8.337z" transform="translate(-282.807 3.061)"/><path d="m479.991 208.1a68.564 68.564 0 0 1 -17.438 24.072 44.341 44.341 0 0 0 -5.354-2.944l21.357-31.988a74.971 74.971 0 0 0 1.435 10.86z" transform="translate(-183.596 -5.214)"/><path d="m498.662 258.119s-10.4 9.79-16.348-1.549a23.651 23.651 0 0 1 -1.338-3.174 34.285 34.285 0 0 0 -5.736-10.191c-.9-1.109-1.912-2.18-2.811-3.174a51.457 51.457 0 0 0 -9.885-7.859 44.331 44.331 0 0 0 -5.354-2.944l21.358-31.988a74.955 74.955 0 0 0 1.472 10.86c1.033 5.009 2.811 10.1 5.851 11.472a4.265 4.265 0 0 0 2.849 0 7.3 7.3 0 0 0 2.428-1.358c.88-.669 1.683-1.281 2.448-1.778 8.929-5.736 10.363.669 10.363.669 12.313 10.957-5.297 41.014-5.297 41.014z" transform="translate(-183.605 -5.214)"/><path d="m481.441 208.88-13.48 23.709c-.9-1.109-1.912-2.18-2.811-3.174 3.92-5.583 9.732-14.742 13.384-20.535a4.265 4.265 0 0 0 2.907 0z" transform="translate(-176.346 5.402)"/><path d="m486.678 250.137s-10.4 9.79-16.348-1.549a43.386 43.386 0 0 0 10.631-12.788c3.365-6.96 4.34-20.5.631-27.419 8.929-5.736 10.363.669 10.363.669 12.333 11.03-5.277 41.087-5.277 41.087z" transform="translate(-171.621 2.767)"/><path d="m486.678 250.137s-10.4 9.79-16.348-1.549a43.386 43.386 0 0 0 10.631-12.788c3.365-6.96 4.34-20.5.631-27.419 8.929-5.736 10.363.669 10.363.669 12.333 11.03-5.277 41.087-5.277 41.087z" opacity=".1" transform="translate(-171.621 2.767)"/><path d="m336.161 136.217a21.95 21.95 0 0 1 -7.648 6.826c-5.851 3.576-10.1 11.625-10.1 11.625-15.3-26.979 15.01-57.858 15.01-57.858-5.751 24.57 2.738 39.407 2.738 39.407z" opacity=".1" transform="translate(-314.104 -96.81)"/></g><path d="m619.455 334.258a68.4 68.4 0 0 1 -17.438 24.073 75.7 75.7 0 0 1 -16.749 11.262 106.155 106.155 0 0 1 -27.055 9.025c-3.824.8-7.648 1.377-11.7 1.912a2.1 2.1 0 0 0 -.765.1c-46 5.315-104.168-8.317-150.8-34.417-31.759-17.725-58.145-41.185-71.778-68.374-40.019-79.923-14.34-173.842 57.361-209.807s162.37-.344 202.37 79.655c13.384 26.768 26.137 56.367 34.417 85.353.765 2.639 1.472 5.22 2.141 7.82 9.059 34.622 11.241 67.853-.004 93.398z" fill="#ff7d00" transform="translate(96.908 -3.39)"/><path d="m619.455 334.258a68.4 68.4 0 0 1 -17.438 24.073 75.7 75.7 0 0 1 -16.749 11.262 106.155 106.155 0 0 1 -27.055 9.025c-3.824.8-7.648 1.377-11.7 1.912a2.1 2.1 0 0 0 -.765.1c-46 5.315-104.168-8.317-150.8-34.417-31.759-17.725-58.145-41.185-71.778-68.374-40.019-79.923-14.34-173.842 57.361-209.807s162.37-.344 202.37 79.655c13.384 26.768 26.137 56.367 34.417 85.353.765 2.639 1.472 5.22 2.141 7.82 9.059 34.622 11.241 67.853-.004 93.398z" opacity=".1" transform="translate(96.908 -3.39)"/><path d="m498.662 255.789s-10.4 9.771-16.348-1.568a22.654 22.654 0 0 1 -1.339-3.174 34.531 34.531 0 0 0 -5.736-10.191 40.842 40.842 0 0 0 -2.811-3.155 51.629 51.629 0 0 0 -9.885-7.878 48 48 0 0 0 -5.354-2.944l21.358-31.969a74.832 74.832 0 0 0 1.472 10.841c1.032 5.01 2.811 10.1 5.851 11.472a4.149 4.149 0 0 0 2.849 0 7.646 7.646 0 0 0 2.428-1.338c.88-.669 1.683-1.3 2.448-1.8 8.929-5.736 10.363.669 10.363.669 12.314 10.921-5.296 41.035-5.296 41.035z" fill="#ff7d00" transform="translate(236.362 125.116)"/><path d="m481.441 206.54-13.48 23.709a40.755 40.755 0 0 0 -2.811-3.155c3.92-5.583 9.732-14.742 13.384-20.554a4.149 4.149 0 0 0 2.907 0z" fill="#444053" transform="translate(243.622 135.723)"/><path d="m486.678 247.816s-10.4 9.771-16.348-1.568a43.269 43.269 0 0 0 10.631-12.772c3.365-6.979 4.34-20.5.631-27.438 8.929-5.736 10.363.669 10.363.669 12.333 10.993-5.277 41.109-5.277 41.109z" fill="#ff7d00" transform="translate(248.346 133.089)"/><path d="m486.678 247.816s-10.4 9.771-16.348-1.568a43.269 43.269 0 0 0 10.631-12.772c3.365-6.979 4.34-20.5.631-27.438 8.929-5.736 10.363.669 10.363.669 12.333 10.993-5.277 41.109-5.277 41.109z" opacity=".1" transform="translate(248.346 133.089)"/><path d="m333.39 94.47s-30.21 30.879-14.971 57.877c0 0 4.226-8.088 10.1-11.644a21.815 21.815 0 0 0 7.648-6.807s-8.532-14.856-2.777-39.426z" fill="#fff" opacity=".1" transform="translate(105.881 33.512)"/><path d="m941.7 308.146c-10 79.655-90 135.1-178.718 124.034-43.059-5.392-90.478-15.411-126.71-33.441-21.032-10.459-38.241-23.556-48.68-40.038a68.526 68.526 0 0 1 -10.363-27.858 77.531 77.531 0 0 1 0-20.191c2.409-19.254 11.472-39.617 25.048-59.273 42.581-61.548 129.713-116.041 196.939-107.571 88.657 11.126 152.5 84.701 142.484 164.338z" fill="#cb6502" transform="translate(345.235 77.712)"/><path d="m617.044 275.292a75.575 75.575 0 0 0 -9.828-4.838c-4.742-1.912-9.962-3.289-12.7-1.472a3.825 3.825 0 0 0 -1.644 2.428 8.3 8.3 0 0 0 -.229 2.715c0 1.109.134 2.141.134 3.04-.134 10.669-6.348 8.26-6.348 8.26-15.985 4.111-31.224-27.285-31.224-27.285s-2.314-14.073 10.421-12.7a22.529 22.529 0 0 1 3.346.631 33.194 33.194 0 0 0 11.7.9 34.248 34.248 0 0 0 4.206-.593 54.284 54.284 0 0 0 11.969-3.824 48.192 48.192 0 0 0 5.488-2.868z" fill="#ff7d00" transform="translate(325.608 165.957)"/><path d="m582.293 265.78a3.825 3.825 0 0 0 -1.644 2.428l-12.2-24.436a34.265 34.265 0 0 0 4.206-.593c2.445 6.406 6.827 16.33 9.638 22.601z" fill="#444053" transform="translate(337.835 169.14)"/><path d="m592.78 274.466c-.134 10.669-6.348 8.26-6.348 8.26-15.985 4.111-31.224-27.285-31.224-27.285s-2.313-14.073 10.421-12.7a42.6 42.6 0 0 0 4.723 15.908c3.9 6.696 14.608 15.051 22.428 15.817z" fill="#ff7d00" transform="translate(325.608 168.657)"/><path d="m592.78 274.466c-.134 10.669-6.348 8.26-6.348 8.26-15.985 4.111-31.224-27.285-31.224-27.285s-2.313-14.073 10.421-12.7a42.6 42.6 0 0 0 4.723 15.908c3.9 6.696 14.608 15.051 22.428 15.817z" opacity=".1" transform="translate(325.608 168.657)"/><path d="m770.07 215.627s-8.87-42.275-39.77-44.627c0 0 4.34 8.011 4.053 14.876a21.822 21.822 0 0 0 1.415 10.134s17.075 1.185 34.302 19.617z" fill="#fff" opacity=".1" transform="translate(485.447 103.31)"/><path d="m655.9 347.029c-21.032-10.459-38.241-23.556-48.681-40.038-4.742-1.912-9.962-3.289-12.7-1.472a3.825 3.825 0 0 0 -1.644 2.428 8.3 8.3 0 0 0 -.229 2.715c0 1.109.134 2.142.134 3.04-.134 10.669-6.348 8.26-6.348 8.26-15.985 4.111-31.224-27.285-31.224-27.285s-2.314-14.073 10.421-12.7a22.545 22.545 0 0 1 3.346.631 33.193 33.193 0 0 0 11.7.9 34.248 34.248 0 0 0 4.206-.593 54.284 54.284 0 0 0 11.969-3.824 77.542 77.542 0 0 1 0-20.191c2.409-19.254 11.472-39.617 25.048-59.273 22.794 49.085 40.92 104.744 34.002 147.402z" opacity=".1" transform="translate(325.608 129.421)"/><path d="m709.346 453.046a104.2 104.2 0 0 1 -12.428 4.837 117.933 117.933 0 0 1 -11.778 3.078l-2.639.535c-3.442.631-7.017 1.166-10.631 1.568-2.734.344-5.488.574-8.317.746-52.963 3.442-119.387-16.29-166.156-50.153a176.457 176.457 0 0 1 -34.531-32.294 120.687 120.687 0 0 1 -13.576-21.032 176.957 176.957 0 0 1 -18.623-68.831c-.134-2.543-.229-5.01-.229-7.514-.746-55.449 25.965-107.074 74.015-132.294 9.025 34.7 11.166 67.935 0 93.479 1.032 5.009 2.811 10.1 5.851 11.472a4.15 4.15 0 0 0 2.849 0 7.649 7.649 0 0 0 2.428-1.338c.88-.669 1.683-1.3 2.447-1.8 8.929-5.736 10.363.669 10.363.669 12.333 11.032-5.277 41.109-5.277 41.109s-10.4 9.771-16.348-1.568a22.677 22.677 0 0 1 -1.338-3.174 34.532 34.532 0 0 0 -5.736-10.191 40.782 40.782 0 0 0 -2.811-3.155 51.616 51.616 0 0 0 -9.881-7.877 75.694 75.694 0 0 1 -16.75 11.262 106.153 106.153 0 0 1 -27.055 9.025c2.141.975 4.187 2.008 6.252 3.04 20.86 10.593 37.916 23.843 48.24 40.382 4.685 1.912 9.9 3.384 12.677 1.606a4.3 4.3 0 0 0 1.663-2.371 7.745 7.745 0 0 0 .21-2.772v-3.04c.268-10.631 6.425-8.164 6.425-8.164 16.042-3.939 30.956 27.552 30.956 27.552s2.18 14.111-10.535 12.6a17.414 17.414 0 0 1 -3.365-.669 33.786 33.786 0 0 0 -11.644-.994 34.4 34.4 0 0 0 -4.245.555 52.326 52.326 0 0 0 -12.065 3.69 76.915 76.915 0 0 1 -.134 20.191c-.172 1.166-.363 2.333-.535 3.537a10.373 10.373 0 0 1 1.071.172 479.062 479.062 0 0 1 76.156 17.744c7.648 2.543 15.048 5.258 22.161 8.356 4.952 2.084 9.77 4.321 14.417 6.692 20.86 10.593 37.935 23.843 48.241 40.382 4.7 1.912 9.923 3.384 12.7 1.606a4.186 4.186 0 0 0 1.644-2.371 7.3 7.3 0 0 0 .229-2.772c0-1.109-.1-2.1-.1-3.04.268-10.631 6.443-8.164 6.443-8.164 6.956-1.818 13.843 3.383 19.289 9.693z" opacity=".1" transform="translate(211.948 85.698)"/><g opacity=".1" transform="translate(674.554 208.705)"><path d="m469.311 216.588a21.91 21.91 0 0 1 -7.648 6.788c-5.851 3.576-10.1 11.663-10.1 11.663-15.3-26.979 15.01-57.839 15.01-57.839-5.752 24.57 2.738 39.388 2.738 39.388z" transform="translate(-447.254 -99.74)"/><path d="m678.671 230.362c2.811 5.621 5.622 11.472 8.356 17.208-18.222 22.16-38.68 38.948-60.937 45.334-3.155 4.015-5.889 8.623-4.952 11.74a3.825 3.825 0 0 0 1.912 2.237 7.133 7.133 0 0 0 2.581.994 25.5 25.5 0 0 1 2.906.746c10.191 3.136 6.119 8.413 6.119 8.413-.573 16.52-35.009 22.2-35.009 22.2s-14.168-1.8-9.2-13.595a21.677 21.677 0 0 1 1.553-3.021 34.176 34.176 0 0 0 4.207-10.994c.268-1.4.5-2.773.631-4.149a56.08 56.08 0 0 0 -.268-12.658 74.567 74.567 0 0 1 -19.35-5.736c-43.42-19.025-81.875-77.725-98.72-139.581 71.3-33.936 160.515 1.761 200.171 80.862z" transform="translate(-418.757 -136.688)"/><path d="m613.113 288.433a68.7 68.7 0 0 1 -17.419 24.13 46.623 46.623 0 0 0 -5.354-2.964l21.36-31.969a79.433 79.433 0 0 0 1.413 10.803z" transform="translate(-316.755 -8.145)"/><path d="m631.782 338.509s-10.4 9.77-16.348-1.568a20.582 20.582 0 0 1 -1.339-3.174 33.5 33.5 0 0 0 -5.736-10.172 32.532 32.532 0 0 0 -2.81-3.174 52.221 52.221 0 0 0 -9.885-7.858 46.6 46.6 0 0 0 -5.354-2.964l21.358-31.969a79.433 79.433 0 0 0 1.415 10.8c1.071 5.009 2.868 10.134 5.908 11.472a3.938 3.938 0 0 0 2.849 0 7.323 7.323 0 0 0 2.409-1.338 28.483 28.483 0 0 1 2.466-1.778c8.929-5.851 10.363.669 10.363.669 12.39 10.997-5.296 41.054-5.296 41.054z" transform="translate(-316.783 -8.145)"/><path d="m614.62 289.269-13.52 23.69a40.139 40.139 0 0 0 -2.792-3.136c3.92-5.622 9.751-14.761 13.384-20.574a3.938 3.938 0 0 0 2.928.02z" transform="translate(-309.487 2.453)"/><path d="m619.8 330.509s-10.4 9.771-16.348-1.568a42.657 42.657 0 0 0 10.612-12.715c3.384-6.979 4.34-20.5.65-27.438 8.929-5.736 10.382.669 10.382.669 12.388 10.976-5.296 41.052-5.296 41.052z" transform="translate(-304.799 -.145)"/><path d="m619.8 330.509s-10.4 9.771-16.348-1.568a42.657 42.657 0 0 0 10.612-12.715c3.384-6.979 4.34-20.5.65-27.438 8.929-5.736 10.382.669 10.382.669 12.388 10.976-5.296 41.052-5.296 41.052z" opacity=".1" transform="translate(-304.799 -.145)"/><path d="m469.311 216.588a21.91 21.91 0 0 1 -7.648 6.788c-5.851 3.576-10.1 11.663-10.1 11.663-15.3-26.979 15.01-57.839 15.01-57.839-5.752 24.57 2.738 39.388 2.738 39.388z" opacity=".1" transform="translate(-447.254 -99.74)"/></g><path d="m713.812 235c40.057 79.9 74.015 186.022 2.275 221.987s-222.044-11.816-262.1-91.778-14.36-173.84 57.36-209.809 162.408-.3 202.465 79.6z" fill="#ffa54e" transform="translate(216.201 76.306)"/><path d="m629.49 343.189s-10.4 9.751-16.348-1.587a26.6 26.6 0 0 1 -1.319-3.155 33.744 33.744 0 0 0 -5.737-10.21 37.472 37.472 0 0 0 -2.81-3.155 54.875 54.875 0 0 0 -15.3-10.822l21.376-31.95s.975 19.56 7.3 22.2a3.939 3.939 0 0 0 2.887 0 7.991 7.991 0 0 0 2.409-1.357c.88-.688 1.7-1.281 2.447-1.778 8.929-5.832 10.382.65 10.382.65 12.362 11.069-5.287 41.164-5.287 41.164z" fill="#ff7d00" transform="translate(355.647 204.828)"/><path d="m612.28 293.958-13.5 23.69a37.529 37.529 0 0 0 -2.811-3.155c3.824-5.6 9.751-14.761 13.384-20.573a3.939 3.939 0 0 0 2.927.038z" fill="#444053" transform="translate(362.934 215.417)"/><path d="m617.488 335.239s-10.4 9.751-16.348-1.587a42.977 42.977 0 0 0 10.65-12.772c3.365-6.979 4.34-20.5.631-27.419 8.929-5.832 10.382.65 10.382.65 12.333 11.032-5.315 41.128-5.315 41.128z" fill="#ff7d00" transform="translate(367.649 212.779)"/><path d="m617.488 335.239s-10.4 9.751-16.348-1.587a42.977 42.977 0 0 0 10.65-12.772c3.365-6.979 4.34-20.5.631-27.419 8.929-5.832 10.382.65 10.382.65 12.333 11.032-5.315 41.128-5.315 41.128z" opacity=".1" transform="translate(367.649 212.779)"/><path d="m464.19 181.86s-30.21 30.879-14.971 57.877c0 0 4.245-8.069 10.1-11.644a21.813 21.813 0 0 0 7.648-6.807s-8.513-14.856-2.777-39.426z" fill="#fff" opacity=".1" transform="translate(225.175 113.214)"/><path d="m604.8 301.85c-12.294 8.661-13.1 29.426-1.511 39.044 14.283 11.836 35.622 4.417 54.073 6.406s34.646 14.072 46.367 28.547a121.107 121.107 0 0 1 24.171 99.061c-3.614 17.61-11.167 34.245-14.589 51.893-4.092 21.147-2.084 42.983.5 64.378 1.912 15.946 4.283 32.294 12.065 46.348 12.371 22.313 36.481 35.468 60.516 43.977s49.464 13.767 71.854 25.985a129.062 129.062 0 0 1 62.275 80.152 12.849 12.849 0 0 1 .191 8.031c-1.052 2.524-4.417 4.206-6.615 2.6" fill="none" stroke="#444053" stroke-miterlimit="10" transform="translate(362.113 222.649)"/><path d="m566.637 321.42c-1.166 5.488 2.83 11.2 8.107 13.1a18.814 18.814 0 0 0 16.023-2.486c5.736-3.652 10.88-9.79 17.725-9.56 4.971.134 9.159 3.729 12.256 7.648s5.583 8.356 9.445 11.472a28.68 28.68 0 0 0 11.319 5.162 32.314 32.314 0 0 0 14.857.708c10.554-2.314 18.3-11.721 28.68-14.723 13.729-3.958 27.916 4.149 38.91 13.27 13.174 10.918 25.029 24.264 30.5 40.478 3.633 10.727 4.321 22.161 5.736 33.384s3.938 22.715 10.516 31.912 18.183 15.64 29.216 13.155" fill="none" stroke="#444053" stroke-miterlimit="10" transform="translate(335.995 240.498)"/><path d="m1411.414 392.478s-60.516-34.034-65.583-37.495 0-8.3 0-8.3c-9.694-6.233-29.808 6.577-29.808 6.577s7.323 1.816 14.244 4.015c-25.124-6.558-67.151-18.853-88.565-32.677-16.616-10.727-31.147-7.648-41.223-2.294l-.229-.631c-2.562-7.973-2.141-16.692-5.239-24.493-3.824-9.56-13.059-16.31-23.193-18.317-5.736-1.147-6.75-.555-10.153-4.914-4.053-5.2-7.247-7.094-14-8.547-7.648-1.625-15.3-3.25-23.174-2.715s-15.755 3.556-20.4 9.56c-2.6 3.422-4.034 7.552-6.577 11.013-12.237 16.577-41.415 9.044-57 22.734-9.56 8.451-11.109 22.294-13.25 34.723s-7.189 26.443-19.426 30.592c-5.832 1.912-12.2 1.243-18.355 1.663s-12.964 2.562-15.66 7.954a14.169 14.169 0 0 0 -1.262 6.922 3.643 3.643 0 0 0 0 .459v.249a80.915 80.915 0 0 0 1.472 10.554v-.4c.688 4.646.708 8.948-2.639 12.084-6.807 6.424-21.568.555-25.812 8.8a7.378 7.378 0 0 0 -.746 3.824 13.116 13.116 0 0 0 4.226 9.407c3.231 3.25 7.361 5.736 10.019 9.388a15.3 15.3 0 0 1 2.371 5.086 4.96 4.96 0 0 1 .115-.516 16.1 16.1 0 0 1 -.344 8.719c-22.39-.9-55.449-2.964-62.2-7.457-10.325-6.922-58.738-18.623-58.738-18.623l-.554-.344-1.587-.918-1.491-.822-.287-.153c-.574-.306-1.186-.631-1.912-.956h-.134l-1.912-.956-.344-.153-2.218-.975-.383-.172c-.707-.287-1.434-.574-2.18-.841l-.249-.1c-.784-.287-1.587-.535-2.371-.784l-.42-.115a25.018 25.018 0 0 0 -4.761-.9h-2.409l-.593.1a5.746 5.746 0 0 0 -.612.115 7.12 7.12 0 0 0 -1.128.382 4.3 4.3 0 0 0 -1.759 2.084l-3.442-1.319-59.939-23.157a107.906 107.906 0 0 1 -10.421-6.233 124.686 124.686 0 0 0 -32.7-12.2l-.421-.287v.191c-13.193-2.371-24.4 0-20.459 16.616 8.3 35.028 53.938 30.879 53.938 30.879l64.684 27.572 4.245 1.816c-.382 19.35 1.53 39.751 6.367 42.447a23.829 23.829 0 0 0 2.428 1.2l.516.248c.784.344 1.568.65 2.333.9h.172c.765.268 1.51.478 2.218.669h.325c.765.21 1.53.363 2.237.5a33.755 33.755 0 0 0 7.342.573h.841l-.363-23.174a16.4 16.4 0 0 1 2.161.994 48.462 48.462 0 0 1 6.75 4.551c5.736 4.493 43.786 8.986 43.786 8.986s36.329 13.48 38.451 16.271 106.08 5.87 106.08 5.87-14.225 31.816 25.277 63.652c0 0 6.75 41.491 2.486 52.906-2.677 7.17-3.27 20.344-3.327 29.139-12.983 4.589-43.977 16.271-51.854 26.023-10.128 12.453-18.14 12.453-18.14 12.453s-10.153 19.12-22.428 23.862-51.8 25.946-55.544 31.644-36.845 24.856-36.845 24.856-34.187 26.979-40.593 36.826-51.261 28.547-51.261 28.547-12.275 17.208-8.547 35.277-30.248 8.3-.707 38.91c6.94 7.189 19.484 14.837 35.1 23.059-1.109.669-2.218 1.262-3.308 1.8a30.331 30.331 0 0 1 -5.449 2.122c-17.629 4.666-67.82 85.066-67.82 85.066s-30.727 38.585-54.493 52.638c-.8.478-1.606.918-2.39 1.339-1.912-4.512-9.273-8.967-16.769-12.409a88.889 88.889 0 0 0 -26.768-7.285c-6.061-.726-13.786-2.466-18.7-6.6a48.708 48.708 0 0 0 -14.952-8.623c-7.419-2.333-13.537-.4-10.516 13.652a114.892 114.892 0 0 0 16.023 39.254s32.944 28.872 35.965 39.082 16.73 21.625 18.871 20.229c.688-.459 4.283-2.639 8.815-5.736 9.254-6.138 22.447-15.793 23.212-21.319a37.949 37.949 0 0 0 -3.824.306c.306-.573.669-1.243 1.109-2.027 4.34-7.648 15.143-24.99 27.858-30.956l50.745-48.642s53.938-28.011 63.1-48.757c3.824-8.661 17.208-21.3 31.664-33.078l3.174-2.581c42.982 21.185 88.432 45.889 108.814 75.086 29.312 42.065 95.468 57.571 126.481 62.638.191 2.409.344 4.722.44 6.883a120.293 120.293 0 0 1 -1.434 26.979c-1.606 9.331-1.185 81.969-1.185 81.969s3.327 37.342-6.291 49.273c-4.933 6.138-8.757 20.765-11.3 33.518-.153.765-.287 1.53-.44 2.294-4.455 2.027-8.031 6.444-9.981 14.359 0 0-8.184 5.354-6.214 26.615.478 5.143.631 9.56.86 13.384.746 12.065 2.065 17.8 15.162 17.667 17.208-.172 53.212-17.8 53.212-17.8a56.488 56.488 0 0 0 -.382-10.822 43.23 43.23 0 0 0 -6.9-19.426l.134-.363.4-.937c.344-.842.669-1.778.975-2.734l.115-.249a23.43 23.43 0 0 0 1.224-6.788v-24.3s1.071-35.277 9.56-53.958c6.883-15.048 25.2-85.334 26.463-121.031a76.7 76.7 0 0 0 -.191-10.038 5.086 5.086 0 0 0 3.633-4.857c-.536-13.5-11.2-7.266-5.87-33.728s9.082-59.139 18.68-74.7a267.907 267.907 0 0 0 17.629-35.793s20.287-68.489 28.833-85.086 41.128-124.512-10.669-174.836l-2.83-10.956a.6.6 0 0 1 .172-.363c.306-.669 1.147-2.543 2.237-5.143.918-2.141 1.912-4.8 3.059-7.648.612-1.644 1.2-3.365 1.8-5.105.861-2.581 1.625-5.22 2.218-7.648l.287-1.262c16.558 3.824 26.558-7.992 30.592-14.206 2.237-1.281 3.155-2.5 2.027-3.575-6.405-6.233-.688-19.713-.688-19.713l.325-58.8s7.476-1.4 9.273-22.141a53.707 53.707 0 0 1 14.856-32.944c16.023-17.61 60.5-36.73 60.5-36.73 32.007-10.478 79.77-56.29 79.77-56.29 25.617-21.112-3.216-30.673-3.216-30.673zm-70.133 23.728c-9.962 2.065-32.39 13.193-32.39 13.193s-13.5 3.4-25.64 7.973-27.764-2.372-27.764-2.372c-8.184-10.994-35.946 4.78-42.371 8.585-4.857 2.887-8.91 1.912-13.537-2.122a45.027 45.027 0 0 1 -4.608-4.8 18.127 18.127 0 0 0 -4.742-3.939 42.164 42.164 0 0 1 7.8-9.885c6.75-6.577 14.742-11.874 21.549-18.413s12.6-14.78 13.212-24.053v-1.2a31.642 31.642 0 0 0 -4.149-16.577 136.287 136.287 0 0 0 17.055 2.581c16.271.994 36.329 9.159 48.3 14.8l2.467 1.166-1.32.459.478.612-.478.153.115.153.956 1.243.134.153c.459.593 1.032 1.319 1.721 2.161l.21.249c.708.86 1.51 1.8 2.39 2.792l.229.268c.9 1.013 1.912 2.065 2.887 3.117l.268.268c.918.937 1.912 1.912 2.849 2.792a52.821 52.821 0 0 0 4.13 3.461l.153.1a31.537 31.537 0 0 0 3.48 2.256l.344.191a16.042 16.042 0 0 0 1.663.765c9.56 3.824 14.589-5.181 14.589-5.181a19.841 19.841 0 0 1 3.958 1.568c9.771 4.864 14.895 15.706 6.061 17.484z" fill="url(#a)" transform="translate(349.99 186.839)"/><path d="m1066.984 337.009v10.65l-44.742 12.409s-4.092-2.314-10.458-5.354c-11.74-5.641-31.186-13.843-47.055-14.837-24.455-1.587-104.837-25.774-80.65-31.224s22.294 0 22.294 0 23.5-29.962 54.474-9.407c23.518 15.64 72.562 29.312 94.78 34.99 7.036 1.702 11.357 2.773 11.357 2.773z" fill="#efb7b9" transform="translate(621.609 213.704)"/><path d="m976.843 266.114c-7.419-1.625-14.99-3.27-22.562-2.734s-15.3 3.576-19.9 9.675c-2.524 3.423-3.92 7.648-6.405 11.032-11.912 16.635-40.363 9.082-55.544 22.81-9.369 8.47-10.8 22.352-12.887 34.818s-7.017 26.52-18.948 30.688c-5.736 1.912-11.893 1.243-17.878 1.644s-12.619 2.581-15.3 7.973c-4.531 9.331 5.2 22.753-2.256 29.981-6.654 6.424-21.032.535-25.162 8.815-2.027 4.053.249 9.005 3.385 12.275s7.17 5.736 9.771 9.407a16.08 16.08 0 0 1 -12.639 25.3c-5.258.172-11.2-2.084-15.411 1.109a10.918 10.918 0 0 0 -3.48 9.1 22.562 22.562 0 0 0 23.1 21.032c8.929-.574 16.462-6.463 23.824-11.472s16.252-9.713 24.857-7.438a40.571 40.571 0 0 1 11.161 5.871 114.029 114.029 0 0 0 33.843 14.531c10.555 2.619 22.562 3.461 31.53-2.7 10.153-6.96 13.958-21.2 24.856-26.769 11.472-5.832 25.067.325 36.883 5.449s27.285 8.585 36.176-.727c9.56-10.038 4.034-26.921 8.987-39.885a37.572 37.572 0 0 1 8.948-12.849c6.577-6.616 14.359-11.931 21.032-18.47s12.294-14.818 12.868-24.13c.727-11.2-5.908-21.491-13.059-30.153s-15.3-17.036-18.643-27.763c-2.485-7.992-2.084-16.73-5.1-24.55a30.783 30.783 0 0 0 -22.6-18.375c-5.736-1.147-6.577-.554-9.9-4.952a19.655 19.655 0 0 0 -13.547-8.543z" fill="#925978" transform="translate(513.969 187.469)"/><g opacity=".1" transform="translate(1275.682 562.893)"><path d="m785.313 327.2c-1.052 4.589.306 9.847 1.052 14.78 1.147-4.302-.306-9.58-1.052-14.78z" transform="translate(-740.411 -317.123)"/><path d="m784.752 368.042a15.3 15.3 0 0 1 2.294 5.105 16.462 16.462 0 0 0 -2.294-13.384c-2.6-3.709-6.616-6.138-9.77-9.407a16.247 16.247 0 0 1 -3.059-4.436 4.449 4.449 0 0 0 -.325.5c-2.027 4.054.249 9.006 3.385 12.275s7.168 5.638 9.769 9.347z" transform="translate(-753.272 -300.05)"/><path d="m1046.853 343.67c-6.635 6.558-14.417 11.855-21.032 18.47a37.725 37.725 0 0 0 -8.948 12.868c-4.952 12.964.592 29.828-8.987 39.866-8.891 9.312-24.359 5.851-36.176.727s-25.411-11.281-36.883-5.449c-10.956 5.582-14.761 19.848-24.857 26.768-8.968 6.157-21.032 5.316-31.53 2.7a114.017 114.017 0 0 1 -33.84-14.536 40.572 40.572 0 0 0 -11.166-5.87c-8.643-2.275-17.514 2.39-24.857 7.457s-14.895 10.937-23.824 11.472c-10.306.669-20.229-7.285-22.581-17.208a15.024 15.024 0 0 0 -.516 4.417 22.581 22.581 0 0 0 23.1 21.032c8.929-.574 16.462-6.463 23.823-11.472s16.252-9.713 24.857-7.438a40.516 40.516 0 0 1 11.166 5.851 113.581 113.581 0 0 0 33.843 14.551c10.554 2.6 22.562 3.442 31.53-2.7 10.153-6.96 13.958-21.2 24.856-26.769 11.472-5.851 25.067.306 36.883 5.43s27.285 8.585 36.176-.726c9.56-10.019 4.034-26.9 8.987-39.866a37.9 37.9 0 0 1 8.948-12.868c6.577-6.6 14.359-11.912 21.032-18.451s12.294-14.837 12.868-24.13a26.091 26.091 0 0 0 -.287-5.87c-1.323 8.374-6.486 15.774-12.585 21.744z" transform="translate(-761.646 -321.93)"/></g><path d="m932.6 465.6 17 1.377s-12.811 28.929-40.153 14.646 23.153-16.023 23.153-16.023z" fill="#4c4981" transform="translate(641.428 371.995)"/><path d="m932.6 465.6 17 1.377s-12.811 28.929-40.153 14.646 23.153-16.023 23.153-16.023z" opacity=".1" transform="translate(641.428 371.995)"/><path d="m865.661 635.715s-21.376 14.838-40.975 31.339c-14.034 11.816-27.151 24.493-30.841 33.174-8.929 20.822-61.472 49.006-61.472 49.006l-49.445 48.929c-12.371 5.985-22.944 23.327-27.132 31.052-1.281 2.352-1.912 3.824-1.912 3.824h-22.37l-13.514-13.539s-7.285-32.772 15.6-35.373a32.288 32.288 0 0 0 12.467-4.971c23.174-14.092 53.1-52.792 53.1-52.792s48.91-80.65 66.08-85.334a28.67 28.67 0 0 0 5.316-2.122c16.973-8.566 39.437-34.818 39.437-34.818z" fill="#efb7b9" transform="translate(382.017 498.302)"/><path d="m920.8 752.942c-1.224 35.793-19.12 106.29-25.774 121.376-8.337 18.738-9.369 54.129-9.369 54.129v24.453a28.282 28.282 0 0 1 -2.256 9.828 48.558 48.558 0 0 1 -2.428 5.258l-45.889-7.8s1.224-10.459 3.556-22.581c2.486-12.811 6.214-27.476 11.014-33.614 9.369-11.969 6.118-49.445 6.118-49.445s-.4-72.849 1.166-82.218a123.587 123.587 0 0 0 1.4-27.055c-.21-4.856-.65-10.382-1.4-16.654-2.6-21.854 0-54.111 0-54.111l52.562 2.6 8.833 57.246c2.119 3.33 2.788 9.926 2.467 18.588z" fill="#efb7b9" transform="translate(581.01 562.528)"/><path d="m655.8 745.657c-1.281 2.352-1.912 3.824-1.912 3.824h-22.374l-13.514-13.537s-7.285-32.772 15.6-35.373a32.284 32.284 0 0 0 12.467-4.971c3.155 9.56-6.9 19.369-6.9 19.369s-4.168 3.977-1.052 19.426c2.022 10.478 11.735 11.511 17.685 11.262z" opacity=".1" transform="translate(382.017 581.762)"/><path d="m686.824 763.837c-.746 5.545-13.614 15.3-22.619 21.376-4.417 3.04-7.916 5.22-8.585 5.736-2.084 1.4-15.449-10.058-18.394-20.287s-35.048-39.2-35.048-39.2a117.191 117.191 0 0 1 -15.6-39.368c-2.944-14.092 3.021-16.042 10.229-13.709a47.427 47.427 0 0 1 14.57 8.662c4.8 4.149 12.333 5.889 18.241 6.615a85.013 85.013 0 0 1 26.042 7.3c7.3 3.461 14.55 7.916 16.329 12.447 3.824 9.9-6.654 20.134-6.654 20.134s-4.168 3.977-1.052 19.427 22.617 10.351 22.541 10.867z" fill="#444053" transform="translate(353.666 565.303)"/><path d="m664.205 785.213c-4.417 3.04-7.916 5.22-8.585 5.736-2.084 1.4-15.449-10.058-18.394-20.287s-35.048-39.2-35.048-39.2a117.191 117.191 0 0 1 -15.6-39.368c-2.944-14.092 3.021-16.042 10.229-13.709 2.6 11.128 8.336 32.7 15.621 43.365 8.661 12.642 42.58 52.641 51.777 63.463z" opacity=".1" transform="translate(353.666 565.303)"/><path d="m882.881 837.027.516.784a48.513 48.513 0 0 1 -2.428 5.258l-45.889-7.8s1.224-10.459 3.556-22.581c16.807-7.189 45.736 20.038 45.736 20.038z" opacity=".1" transform="translate(581.01 687.447)"/><path d="m896.108 868.476s-35.028 17.687-51.835 17.859c-12.772.134-14.053-5.621-14.78-17.706-.21-3.824-.383-8.355-.841-13.518-1.912-21.319 6.061-26.769 6.061-26.769 9.2-38.508 55.889 5.43 55.889 5.43l-1.587 4.3a44.161 44.161 0 0 1 6.73 19.484 57.5 57.5 0 0 1 .363 10.917z" fill="#444053" transform="translate(574.877 688.406)"/><path d="m895.565 846.961s-35.029 17.687-51.835 17.859c-12.772.134-14.053-5.621-14.78-17.706a39.156 39.156 0 0 0 31.07 4.7 119.308 119.308 0 0 0 35.182-15.7 57.552 57.552 0 0 1 .363 10.847z" opacity=".1" transform="translate(575.419 709.922)"/><path d="m946.138 392.288-6.038 64.742-1.243 13.384-26.138 6.826-26.94 7.055-31.224-6.922s-12.007-27.246-7.916-49.426a31.662 31.662 0 0 1 11.472-19.981 28.333 28.333 0 0 0 5.182-5.2 24.748 24.748 0 0 0 3.92-7.5 29 29 0 0 0 1.262-10.306c-.727-17.208-13.843-34.225-13.843-34.225s60.363-29.828 57.246-15.3c-2.027 9.445 8.929 24 16.864 33.04 4.321 4.914 7.648 8.222 7.648 8.222z" fill="#efb7b9" transform="translate(590.773 249.648)"/><circle cx="1469.608" cy="570.388" opacity=".1" r="55.334"/><circle cx="1469.608" cy="568.304" fill="#efb7b9" r="55.334"/><path d="m991.246 571c-1.033 12.447-10.44 33.021-10.44 33.021l-74.168 28.853-62.16-49.961v-.344c.994-5.583 13.059-75.87-4.226-90.554-18.05-15.3-18.413-64.856-18.413-64.856s23.25-35.1 27.839-43.422 39.388-18.948 39.388-18.948c-1.491 2.62-2.792 5.124-3.919 7.5a67.818 67.818 0 0 0 -6.31 19.694c-1.53 10.784 1.4 17.113 3.346 20.019a21.927 21.927 0 0 1 2.543 4.876c9.388 25.43 36.195 18.183 46.73 14.168a41.906 41.906 0 0 0 4.34-1.912l26.233-2.562 16.443-1.587s9.371 130.015 12.487 140.129a15.548 15.548 0 0 1 .287 5.886z" fill="#444053" transform="translate(568.935 280.053)"/><path d="m869.987 368.74v.1a79.658 79.658 0 0 0 -3.212 7.648h-28.375a80.527 80.527 0 0 1 14.895-7.648z" fill="#925978" transform="translate(584.038 283.655)"/><path d="m869.515 375.46a51.9 51.9 0 0 0 -1.453 6.941 2.312 2.312 0 0 1 -.1.8h-34.412c1.912-3.117 3.633-5.832 4.7-7.744z" fill="#fff" transform="translate(579.615 289.784)"/><path d="m872.519 389.878h-43.269c1.683-2.6 3.384-5.239 4.971-7.648h37.323a30.278 30.278 0 0 0 .975 7.648z" fill="#fff" transform="translate(575.693 295.959)"/><path d="m882.5 396.648h-57.65c1.53-2.294 3.25-4.952 5.086-7.648h48.738c.249.44.5.86.746 1.224a21.4 21.4 0 0 1 2.543 4.857c.137.419.344.955.537 1.567z" fill="#fff" transform="translate(571.68 302.133)"/><path d="m821.88 399.129v4.245h74a24.207 24.207 0 0 1 -7.935-7.744h-63.751z" fill="#fff" transform="translate(568.971 308.18)"/><path d="m927.093 402.726h-48.413l.841-.306c2.7-1.052 4.34-1.912 4.34-1.912l26.233-2.562 16.444-1.606s.173 2.371.555 6.386z" fill="#925978" transform="translate(620.775 308.827)"/><g fill="#fff"><path d="m979.574 410.048h-156.787c-.306-2.83-.535-5.43-.707-7.648h156.787c.306 2.218.497 4.818.707 7.648z" transform="translate(569.154 314.354)"/><path d="m979.96 416.778h-155.926c-.478-2.658-.9-5.239-1.224-7.648h156.5c.19 2.37.363 4.952.65 7.648z" transform="translate(569.82 320.492)"/><path d="m979.747 423.544h-153.785c-.746-2.543-1.415-5.143-1.912-7.744h155.181c.114 2.524.325 5.105.516 7.744z" transform="translate(570.951 326.576)"/><path d="m979.008 430.218h-149.578a62.114 62.114 0 0 1 -3.48-7.648h152.465c.192 2.467.402 5.048.593 7.648z" transform="translate(572.683 332.75)"/><path d="m976.813 436.985h-140.381a15.155 15.155 0 0 0 -3.1-3.671 26.77 26.77 0 0 1 -3.824-4.053h146.692c.173 2.58.383 5.239.613 7.724z" transform="translate(575.93 338.851)"/><path d="m973.424 443.648h-136.978a49.085 49.085 0 0 0 -2.046-7.648h138.374c.21 2.524.439 5.124.65 7.648z" transform="translate(580.39 344.999)"/></g><path d="m973.164 450.388h-136.615c-.153-2.658-.344-5.239-.669-7.648h136.634c.21 2.543.421 5.124.65 7.648z" fill="#925978" transform="translate(581.74 351.146)"/><path d="m973.956 457.118h-137.666v-7.648h136.882c.228 2.581.555 5.162.784 7.648z" fill="#925978" transform="translate(582.114 357.284)"/><path d="m975.578 463.838h-139.578c.191-2.524.325-5.124.459-7.648h138.26c.267 2.658.535 5.239.859 7.648z" fill="#925978" transform="translate(581.849 363.413)"/><path d="m977.559 470.558h-142.179c.268-2.467.516-5.048.765-7.648h140.455c.366 2.945.672 5.545.959 7.648z" fill="#925978" transform="translate(581.284 369.541)"/><path d="m979.682 475.51a11.564 11.564 0 0 1 -.21 1.778h-144.952c.344-2.275.688-4.895 1.013-7.648h143.728a1.225 1.225 0 0 1 0 .134 15.451 15.451 0 0 1 .421 5.736z" fill="#fff" transform="translate(580.499 375.679)"/><path d="m979.281 476.32c-.593 2.5-1.338 5.163-2.161 7.744h-140l-3.441-2.773v-.363c.115-.669.382-2.256.764-4.608z" fill="#fff" transform="translate(579.733 381.772)"/><path d="m970.656 483c-1.032 2.906-2.084 5.564-2.983 7.648h-119.273l-9.56-7.648z" fill="#fff" transform="translate(584.439 387.864)"/><path d="m957.859 489.77-.191.421-18.833 7.3h-82.065l-9.56-7.648z" fill="#fff" transform="translate(592.073 394.039)"/><path d="m823.633 468.95-19.923 7.724h-32.982l-9.618-7.724z" fill="#925978" transform="translate(694.1 427.708)"/><path d="m782.845 475.68-9.025 3.5-4.34-3.5z" fill="#925978" transform="translate(701.734 433.845)"/><path d="m955.96 583.786c-12.065 2.849-23.269 4.933-23.269 4.933l-63.422 5.889-8.738-65.927s12.141-14.57 23.25-20.1c10.478-5.258 21.931-18.566 15.488-49.044-.364-1.74-.784-3.556-1.281-5.43a69.748 69.748 0 0 1 -1.912-10.287c-2.658-24.034 8.872-39.12 12.179-42.887.536-.631.842-.937.842-.937l4.015-49.2a17.938 17.938 0 0 1 2.1 0c4.321 4.914 7.648 8.222 7.648 8.222l9.732 15.621-6.042 64.741 16.45-1.58s9.369 130.018 12.486 140.133a15.555 15.555 0 0 1 .474 5.853z" opacity=".1" transform="translate(604.221 267.269)"/><path d="m1009.057 437.8a54.278 54.278 0 0 0 -14.57 32.944c-1.74 20.8-9.025 22.2-9.025 22.2l-.344 59.005s-5.564 13.537.688 19.77-52.026 17.017-52.026 17.017l-63.422 5.889-8.738-65.925s12.141-14.57 23.231-20.1 23.25-20.134 14.226-54.474c-7.878-30.019 6.5-48.891 10.268-53.174.535-.631.841-.937.841-.937l4.015-49.2s10.9-.765 17.495 7.208a45.537 45.537 0 0 0 4.493 4.838c4.512 4.111 8.451 5.009 13.193 2.122 6.252-3.824 33.307-19.656 41.281-8.623s18.394 81.44 18.394 81.44z" fill="#4c4981" transform="translate(605.216 267.293)"/><path d="m913.425 362.854-6.539 33.594-20.306 4.474c.535-.631.841-.937.841-.937l4.015-49.2s10.9-.765 17.5 7.208a45.506 45.506 0 0 0 4.489 4.861z" fill="#4c4981" transform="translate(627.98 267.266)"/><path d="m913.425 362.854-6.539 33.594-20.306 4.474c.535-.631.841-.937.841-.937l4.015-49.2s10.9-.765 17.5 7.208a45.506 45.506 0 0 0 4.489 4.861z" opacity=".1" transform="translate(627.98 267.266)"/><path d="m1003.931 316.882v10.65l-44.742 12.409s-4.092-2.313-10.459-5.354c4.837-1.721 26.768-9.56 38.087-14.857 4.188-1.912 6.96-3.48 6.96-4.245 0-.421-.439-.88-1.2-1.377 7.032 1.704 11.354 2.774 11.354 2.774z" opacity=".1" transform="translate(684.663 233.831)"/><path d="m1089.282 384.84s-46.539 45.889-77.705 56.463c0 0-43.346 19.12-58.948 36.883l-29.139-71.816 10.746-9.656s15.3 6.864 27.055 2.371 24.971-7.935 24.971-7.935 21.854-11.147 31.568-13.231c8.6-1.912 3.614-12.658-5.832-17.514a20.854 20.854 0 0 0 -3.824-1.568s-4.856 9.025-14.206 5.2a33.513 33.513 0 0 1 -9.56-6.788 107.414 107.414 0 0 1 -11.472-13.289s26.195-9.273 39.043-15.182c4.188-1.912 6.96-3.48 6.96-4.245 0-3.136-25.659-9.713-25.659-9.713s19.6-12.83 29.044-6.6c0 0-4.933 4.857 0 8.336s63.9 37.61 63.9 37.61 28.049 9.527 3.058 30.674z" fill="#4c4981" transform="translate(661.643 226.905)"/><path d="m1015.478 340.971-28.05 7.82a20.855 20.855 0 0 0 -3.824-1.568s-4.856 9.025-14.206 5.2a33.524 33.524 0 0 1 -9.56-6.788 106.983 106.983 0 0 1 -9.407-11.2s26.176-9.273 39.044-15.182z" opacity=".1" transform="translate(686.213 238.519)"/><path d="m1014.406 339.9-29.847 8.336s-4.857 9.025-14.207 5.2-21.032-20.115-21.032-20.115 26.195-9.273 39.043-15.182z" fill="#4c4981" transform="translate(685.201 237.506)"/><path d="m1014.406 339.489-29.847 8.336s-4.857 9.025-14.207 5.2-21.032-20.115-21.032-20.115 26.195-9.273 39.043-15.182z" fill="#fff" opacity=".1" transform="translate(685.201 237.132)"/><path d="m736.619 604 55.755 31.8s-21.374 14.834-40.974 31.336c-20.306-10.172-39.426-19.541-54.149-28.26 16.902-8.566 39.368-34.876 39.368-34.876z" opacity=".1" transform="translate(455.305 498.22)"/><path d="m910.868 752.942c-14.742 1.09-38.241-4.015-38.241-4.015s-9.56-.841-24.11-3.652c-.21-4.856-.65-10.382-1.4-16.654-2.6-21.855 0-54.111 0-54.111l52.562 2.6 8.833 57.246c2.012 3.328 2.681 9.924 2.356 18.586z" opacity=".1" transform="translate(590.938 562.528)"/><path d="m1128.1 692.177c-8.317 16.654-28.088 85.334-28.088 85.334a272.6 272.6 0 0 1 -17.208 35.908c-9.369 15.6-13.021 48.374-18.222 74.913s5.2 20.306 5.736 33.824-49.961 2.6-49.961 2.6-101.472-8.834-139.445-65.009-165.433-95.257-194.248-125.947 4.34-20.822.688-39.025 8.317-35.392 8.317-35.392 43.709-18.738 49.962-28.681 39.56-36.864 39.56-36.864 32.275-19.254 35.908-24.971 42.065-27.055 54.111-31.74 21.778-23.958 21.778-23.958 7.82 0 17.706-12.485 56.195-28.107 56.195-28.107c89.043 48.91 144.072 33.135 144.072 33.135l2.772 11.09c50.439 50.481 18.699 158.721 10.367 175.375z" fill="#444053" transform="translate(434.82 378.361)"/><path d="m976.419 516.805s-67.112 32.275-146.729-44.225c88.967 48.91 144 33.135 144 33.135z" opacity=".1" transform="translate(576.094 378.361)"/><path d="m885.086 524.833s-76.481 148.3-81.7 154.033 76.514-155.066 81.7-154.033z" opacity=".1" transform="translate(551.884 426.012)"/><path d="m891.454 516.4s-52.027 109.789-48.91 123.326c0 0 50.478-105.639 48.91-123.326z" opacity=".1" transform="translate(587.695 418.326)"/><path d="m890.021 528.37s-4.646 58.222 17.686 87.954z" opacity=".1" transform="translate(630.753 429.243)"/><path d="m903.17 528.37s7.189 48.91 14 58.279z" opacity=".1" transform="translate(643.11 429.243)"/><path d="m761.407 488.86-82.217 45.277h32.256z" opacity=".1" transform="translate(619.387 445.866)"/><path d="m933.671 321.615c-3.977 3.442-6.96 8.528-12.046 9.885-3.614.956-7.4-.23-10.994-1.262-9.1-2.619-19.254-4.245-27.8-.134-12.18 5.87-17.208 21.453-29.388 27.419a22.676 22.676 0 0 1 -19.273.382 22.447 22.447 0 0 1 -11.7-12.409c-3.556-9.407-.191-20.4 6.386-28.011s15.908-12.294 25.354-15.736c24.7-8.987 51.415-10.535 77.686-11.988a11.473 11.473 0 0 1 6.272.822c4.34 2.409 13.04 16.348 12.275 21.568-1.017 6.864-16.772 3.804-16.772 9.464z" opacity=".1" transform="translate(568.193 211.508)"/><path d="m933.671 320.541c-3.977 3.461-6.96 8.528-12.046 9.885-3.614.975-7.4-.21-10.994-1.262-9.1-2.619-19.254-4.245-27.8-.134-12.18 5.87-17.208 21.472-29.388 27.419a22.813 22.813 0 0 1 -12.046 2.256 22.186 22.186 0 0 1 -7.228-1.912 22.447 22.447 0 0 1 -11.7-12.409c-3.556-9.407-.191-20.4 6.386-27.992s15.908-12.313 25.354-15.755c24.7-8.987 51.415-10.535 77.686-11.988a11.472 11.472 0 0 1 6.272.841c4.34 2.409 13.04 16.329 12.275 21.549-1.016 7.074-16.771 3.842-16.771 9.502z" fill="#925978" transform="translate(568.193 210.497)"/><path d="m770.14 371.529-3.824 34.589-11.644-5.086-63.1-27.667s-44.474 4.168-52.562-30.975 49.177-6.769 52.294-4.417a117.293 117.293 0 0 0 10.153 6.214l58.413 23.231z" fill="#efb7b9" transform="translate(401.477 243.697)"/><path d="m714.6 351.243-3.824 34.589-11.644-5.086c.42-15.488 2.294-29.923 5.277-33.575z" opacity=".1" transform="translate(457.019 263.983)"/><path d="m919.719 521.521-2.772 71.453-72.428-5.545c.994-5.583 13.059-75.87-4.226-90.554-18.05-15.3-18.413-64.856-18.413-64.856s23.174-35.047 27.763-43.365 39.388-18.948 39.388-18.948a28.981 28.981 0 0 0 1.262-10.306 39.79 39.79 0 0 1 3.69 7.094c1.568 12.772-2.371 22.18-15.181 30.4-1.128.727-2.314 1.434-3.575 2.142-2.046 1.128-4.264 2.256-6.692 3.346l-1.09.5c-21.855 9.713-24.99 23.939-24.99 23.939a52.41 52.41 0 0 0 -5.545 38.011c5.104 21.355 82.809 56.689 82.809 56.689z" opacity=".1" transform="translate(568.971 275.137)"/><path d="m1025.589 533.325-2.772 71.453-81.529-6.233s-1.032-26.769 3.117-38.241-2.409-53.059-2.409-53.059c-38.508-31.931-24.646-63.843-24.646-63.843s-101.338-3.117-103.365-5.889-37.457-16.329-37.457-16.329-37.132-4.493-42.677-9.006a43.456 43.456 0 0 0 -6.577-4.551 17.481 17.481 0 0 0 -2.084-1.013l.344 23.25a5.6 5.6 0 0 1 -.8 0h-.439a32.793 32.793 0 0 1 -16.807-3.977c-9.006-5.2-7.648-75.3 0-78.738a9.294 9.294 0 0 1 4.589-.631c6.252.44 14.531 4.857 18.317 7.036l1.53.918.554.344s47.17 11.74 57.227 18.68 81.261 8.011 81.261 8.011 32.256 3.327 35.736-1.7 50.286-18.547 55.143-12.294 15.87 3.824 15.87 3.824c6.673-10.1 12.581-7.285 16.6-2.543a36.674 36.674 0 0 1 5.526 9.56c1.721 13.9-3.1 23.8-18.757 32.5-2.352 1.3-4.933 2.581-7.782 3.824-21.854 9.713-24.971 23.939-24.971 23.939a52.369 52.369 0 0 0 -5.564 38.011c5.117 21.363 82.822 56.697 82.822 56.697z" fill="#4c4981" transform="translate(458.933 263.333)"/><path d="m711.079 346.44a7 7 0 0 0 -2.5.631c-7.648 3.442-9.006 73.537 0 78.738a32.7 32.7 0 0 0 14.723 4.226h.44a5.614 5.614 0 0 0 .8 0l-.344-23.25a17.463 17.463 0 0 1 2.084 1.013v-1.013a60.039 60.039 0 0 1 4.666-52.313z" opacity=".1" transform="translate(459.927 263.317)"/><path d="m725.189 406.76.344 23.25a32.22 32.22 0 0 1 -18.05-4.13c-9.006-5.2-7.648-75.3 0-78.738 6.023-2.753 18.069 3.614 22.945 6.405a60.017 60.017 0 0 0 -5.239 53.212z" fill="#4c4981" transform="translate(458.933 263.341)"/><path d="m725.189 406.76.344 23.25a32.22 32.22 0 0 1 -18.05-4.13c-9.006-5.2-7.648-75.3 0-78.738 6.023-2.753 18.069 3.614 22.945 6.405a60.017 60.017 0 0 0 -5.239 53.212z" fill="#fff" opacity=".1" transform="translate(458.933 263.341)"/><path d="m853.661 400.195-12.811-9.235 26.042-32.83a36.681 36.681 0 0 1 5.526 9.56c1.721 13.862-3.098 23.767-18.757 32.505z" fill="#4c4981" transform="translate(586.273 273.979)"/><path d="m853.661 399.8-12.811-9.23 26.042-32.83a37 37 0 0 1 5.526 9.56c1.721 13.882-3.098 23.767-18.757 32.5z" opacity=".1" transform="translate(586.273 273.623)"/><path d="m933.67 307.095c-3.977 3.442-6.979 8.509-12.046 9.866-3.614.975-7.4-.21-10.994-1.243-9.12-2.638-19.273-4.264-27.82-.134-12.16 5.87-17.21 21.453-29.387 27.416a22.944 22.944 0 0 1 -12.023 2.24 22.084 22.084 0 0 1 -20.268-20.306 23.139 23.139 0 0 0 1.339 10.191 22.371 22.371 0 0 0 11.7 12.409 22.067 22.067 0 0 0 7.228 1.912 22.753 22.753 0 0 0 12.027-2.256c12.141-5.946 17.208-21.549 29.388-27.419 8.546-4.111 18.7-2.486 27.82.134 3.595 1.052 7.381 2.237 10.994 1.262 5.067-1.358 8.069-6.424 12.046-9.885 0-5.736 15.755-2.524 16.769-9.465a8.482 8.482 0 0 0 -.325-3.1c-2.432 5.51-16.448 3.043-16.448 8.378z" opacity=".1" transform="translate(568.193 219.795)"/><path d="m866.19 389.307s8.642 16.9 1.376 23.92c0 0 5.736-24.627 10.937-24.856" opacity=".1" transform="translate(609.383 301.558)"/><path d="m650.294 325.25s45.353 29.962 16.635 39.464-16.635-39.464-16.635-39.464z" fill="#efb7b9" transform="translate(410.177 243.991)"/></svg>