<svg id="Componente_16_1" data-name="Componente 16 – 1" xmlns="http://www.w3.org/2000/svg" xmlns:xlink="http://www.w3.org/1999/xlink" width="21.019" height="20.762" viewBox="0 0 21.019 20.762">
  <defs>
    <clipPath id="clip-path">
      <rect id="Retângulo_3449" data-name="Retângulo 3449" width="21.019" height="20.762" transform="translate(0 0)" fill="#f27d00"/>
    </clipPath>
  </defs>
  <g id="Grupo_16740" data-name="Grupo 16740" transform="translate(0 0)" clip-path="url(#clip-path)">
    <path id="Caminho_14095" data-name="Caminho 14095" d="M6.243,0c.12.108.236.221.362.322q3.606,2.9,7.213,5.8c.042.033.08.071.138.125L3.223,14.841l-.764-.953c.048-.044.089-.086.135-.123Q4.2,12.481,5.8,11.2a1.054,1.054,0,0,0,.4-.835q0-.507,0-1.024a.629.629,0,0,0-.626-.631H.626A.626.626,0,0,1,0,8.083V4.405a.626.626,0,0,1,.626-.626h4.95A.626.626,0,0,0,6.2,3.153V0Zm5.144,5.753L8.445,3.386a.626.626,0,0,0-1.018.488v.518a.626.626,0,0,1-.626.626H1.87a.625.625,0,0,0-.625.626V6.857a.625.625,0,0,0,.625.626H6.818a.626.626,0,0,1,.626.626v.472A.625.625,0,0,0,8.46,9.07l2.926-2.341a.626.626,0,0,0,0-.976" fill="#f27d00"/>
    <path id="Caminho_14096" data-name="Caminho 14096" d="M17.958,6.154l.77.962L17.422,8.163q-1.187.951-2.373,1.9a.667.667,0,0,0-.218.45c-.006.539,0,1.079,0,1.632a.255.255,0,0,0,.251.256h5.689a.252.252,0,0,1,.252.253v4.418a.254.254,0,0,1-.254.254H15.082a.254.254,0,0,0-.254.253v2.927a.253.253,0,0,1-.411.2L7.311,15.07a.253.253,0,0,1,0-.4Zm1.825,9.7V13.883a.253.253,0,0,0-.253-.253H14.209A.626.626,0,0,1,13.583,13v-.467a.626.626,0,0,0-1.017-.489L9.289,14.67a.254.254,0,0,0,0,.4l3.3,2.613a.626.626,0,0,0,1.015-.49v-.456a.625.625,0,0,1,.626-.625h5.3a.254.254,0,0,0,.253-.254" fill="#f27d00"/>
  </g>
</svg>
