<svg id="Componente_46_1" data-name="Componente 46 – 1" xmlns="http://www.w3.org/2000/svg" xmlns:xlink="http://www.w3.org/1999/xlink" width="366.343" height="256.918" viewBox="0 0 366.343 256.918">
  <defs>
    <clipPath id="clip-path">
      <rect id="Retângulo_3560" data-name="Retângulo 3560" width="366.343" height="256.918" fill="none"/>
    </clipPath>
  </defs>
  <path id="Caminho_15827" data-name="Caminho 15827" d="M9.968,735.489h316.8l44.344,47.351H54.312Z" transform="translate(-7.368 -543.626)" fill="#fff"/>
  <path id="Caminho_15828" data-name="Caminho 15828" d="M5.2,733.422H318.91l42.233,45.1H47.433ZM0,731.167l46.456,49.605H366.343l-46.456-49.605Z" transform="translate(0 -540.432)" fill="#333"/>
  <g id="Grupo_16938" data-name="Grupo 16938">
    <g id="Grupo_16937" data-name="Grupo 16937" clip-path="url(#clip-path)">
      <path id="Caminho_15829" data-name="Caminho 15829" d="M1030.719,595.313V600.2a8.077,8.077,0,0,1-7.76,8.072c-.105,0-.214.007-.32.007h-5.449c-4.885,19.166-23.675,17.663-23.675,17.663v8.268H975.476l-.376-7.892H959.317l9.4-5.261,1.127-4.51-4.134-3.758,5.261-1.5.752-3.758-8.268-6.389h11.274l6.013-6.389-8.268-4.134V583.1l4.885-2.255-13.9-9.395a97.5,97.5,0,0,1,29.312,1.127c2.631-10.147,14.656-14.28,14.656-14.28v18.414c6.013,1.5,10.147,10.522,10.147,10.522h5.073c.105,0,.214,0,.32.008a8.077,8.077,0,0,1,7.76,8.072" transform="translate(-709.065 -412.657)" fill="#bfbfbf"/>
      <path id="Caminho_15830" data-name="Caminho 15830" d="M982.4,630.86H962.16l-.376-7.892H942.755l12.74-7.134.846-3.383-5.133-4.666,6.547-1.87.48-2.4-10.328-7.981H962l4.64-4.931-7.535-3.767V577.9l3.724-1.719-14.757-9.971,3.007-.358a99.133,99.133,0,0,1,28.655.937c3.234-9.861,14.582-13.865,15.08-14.036l1.494-.513V571.4c5.086,1.833,8.66,8.148,9.722,10.228h4.37c.118,0,.241,0,.359.008a9.174,9.174,0,0,1,8.848,9.2v4.885a9.174,9.174,0,0,1-8.844,9.2c-.122,0-.244.008-.363.008h-4.585c-2.78,9.768-9.181,14.061-14.132,15.945a27.289,27.289,0,0,1-9.279,1.746Zm-18.091-2.255h15.836v-8.361l1.217.1a24.6,24.6,0,0,0,9.594-1.6c6.637-2.554,10.977-7.672,12.9-15.213l.217-.849h6.325c.092,0,.188,0,.28-.007a6.925,6.925,0,0,0,6.672-6.946v-4.885a6.926,6.926,0,0,0-6.676-6.946c-.088,0-.184-.007-.276-.007h-5.8l-.3-.657c-.039-.086-3.984-8.547-9.4-9.9l-.854-.213V555.508c-3.19,1.453-10.531,5.524-12.437,12.877l-.273,1.053-1.062-.236a97.493,97.493,0,0,0-25.854-1.417l12.979,8.769-6.046,2.791v6.1l9,4.5-7.385,7.847h-8.459l6.208,4.8L959.7,607.7l-3.975,1.136,3.134,2.85-1.409,5.636-6.05,3.388h12.538Z" transform="translate(-696.824 -408.182)" fill="#333"/>
      <path id="Caminho_15831" data-name="Caminho 15831" d="M1189.105,688.176l-.354-.4a17.909,17.909,0,0,1,0-22.519l.354-.4.536.021a9.174,9.174,0,0,1,8.844,9.2v4.885a9.174,9.174,0,0,1-8.844,9.2Zm.985-21.01a15.781,15.781,0,0,0,0,18.7,6.925,6.925,0,0,0,6.141-6.905v-4.885a6.924,6.924,0,0,0-6.141-6.9" transform="translate(-875.705 -491.416)" fill="#333"/>
      <path id="Caminho_15832" data-name="Caminho 15832" d="M1201.806,700.821c0,1.142-.589,2.067-1.315,2.067s-1.315-.925-1.315-2.067.589-2.067,1.315-2.067,1.315.925,1.315,2.067" transform="translate(-886.353 -516.474)" fill="#333"/>
      <path id="Caminho_15833" data-name="Caminho 15833" d="M1216.212,700.821c0,1.142-.589,2.067-1.315,2.067s-1.315-.925-1.315-2.067.589-2.067,1.315-2.067,1.315.925,1.315,2.067" transform="translate(-897.001 -516.474)" fill="#333"/>
      <path id="Caminho_15834" data-name="Caminho 15834" d="M1111.983,678.923h-.122a10.05,10.05,0,0,1-6.683-3.22l1.688-1.495a7.855,7.855,0,0,0,5.047,2.46,6.79,6.79,0,0,0,4.939-2.484l1.642,1.545a8.907,8.907,0,0,1-6.511,3.194" transform="translate(-816.876 -498.313)" fill="#333"/>
      <path id="Caminho_15835" data-name="Caminho 15835" d="M1141.285,10.977l-.258-6.5a4.657,4.657,0,1,0-8.241,3.154l4.149,5.013Z" transform="translate(-836.491 0.001)" fill="#a8a8a8"/>
      <path id="Caminho_15836" data-name="Caminho 15836" d="M1162.913,59.953l4.149,5.013a4.657,4.657,0,1,1-8.241,3.154l-.258-6.5Z" transform="translate(-856.334 -44.313)" fill="#a8a8a8"/>
      <path id="Caminho_15837" data-name="Caminho 15837" d="M1154.6,39.627l-2.027,4.3a3.479,3.479,0,0,1-4.63,1.664l-4.158-1.959,2.027-4.3a3.479,3.479,0,0,1,4.63-1.664Z" transform="translate(-845.413 -27.595)" fill="#333"/>
      <path id="Caminho_15838" data-name="Caminho 15838" d="M1182.458,37.943a3.161,3.161,0,1,1,1.823-4.082,3.161,3.161,0,0,1-1.823,4.082" transform="translate(-870.825 -23.526)" fill="#333"/>
      <rect id="Retângulo_3552" data-name="Retângulo 3552" width="2.843" height="2.255" transform="translate(311.623 8.749) rotate(-41.497)" fill="#333"/>
      <rect id="Retângulo_3553" data-name="Retângulo 3553" width="2.843" height="2.255" transform="translate(313.136 10.486) rotate(-0.384)" fill="#333"/>
      <path id="Caminho_15839" data-name="Caminho 15839" d="M920.845,201.762c-.213-1.033-.418-2.078-.609-3.107l2.217-.413c.189,1.015.391,2.046.6,3.065Zm-1.548-8.707c-.282-1.9-.525-3.8-.721-5.637l2.242-.238c.193,1.808.431,3.673.709,5.544ZM918.1,181.749c-.115-1.927-.179-3.842-.19-5.693l2.255-.014c.011,1.81.074,3.686.186,5.573Zm2.2-11.27-2.252-.123c.106-1.936.277-3.85.507-5.686l2.237.281c-.224,1.785-.39,3.645-.493,5.529m1.4-10.993-2.207-.461c.4-1.908.878-3.777,1.426-5.555l2.155.664c-.528,1.711-.99,3.511-1.374,5.351m20.66-9.791a24.462,24.462,0,0,1-3.867-.3l.358-2.226a23.031,23.031,0,0,0,5.355.2l.169,2.249c-.675.05-1.352.076-2.014.076m-17.388-.732-2.071-.892a47.229,47.229,0,0,1,2.594-5.151l1.947,1.138a45.077,45.077,0,0,0-2.47,4.9m25.25-.678-.91-2.063a11.979,11.979,0,0,0,4.16-2.98l1.684,1.5a14.218,14.218,0,0,1-4.934,3.544m-17.4-.61a19.738,19.738,0,0,1-4.979-3.281l1.521-1.665a17.44,17.44,0,0,0,4.4,2.9Zm-2.3-8.146-1.772-1.394a38.3,38.3,0,0,1,3.918-4.279l1.54,1.647a36.048,36.048,0,0,0-3.686,4.027m-6.136-.014a40.522,40.522,0,0,1-2.4-5.274l2.116-.779a38.311,38.311,0,0,0,2.263,4.98Zm33.684-.116-2.166-.626a14.314,14.314,0,0,0,.389-1.776,7.587,7.587,0,0,0,.089-1.156,7.163,7.163,0,0,0-.279-1.994l2.166-.627a9.419,9.419,0,0,1,.368,2.621,9.854,9.854,0,0,1-.116,1.5,16.546,16.546,0,0,1-.451,2.058M938.47,132.13l-1.237-1.886a22.618,22.618,0,0,1,4.923-2.542c.169-.049.3-.087.436-.123l.6,2.175-.351.1a21.242,21.242,0,0,0-4.367,2.278m14.789-2.021a8.982,8.982,0,0,0-4.747-1.163h-.057l-.019-2.255h.075a11.183,11.183,0,0,1,5.924,1.5Zm-32.834-1.473a32.482,32.482,0,0,1-.563-5.8l2.255-.014a30.235,30.235,0,0,0,.524,5.4Zm2.143-11.216-2.221-.386a36.038,36.038,0,0,1,1.461-5.616l2.13.738a33.809,33.809,0,0,0-1.369,5.264m3.525-10.293-2.008-1.025a50.338,50.338,0,0,1,2.92-4.968l1.877,1.249a48.139,48.139,0,0,0-2.789,4.745m6.074-9.2-1.751-1.42c1.163-1.434,2.437-2.881,3.786-4.3l1.635,1.553c-1.309,1.379-2.544,2.782-3.67,4.17m7.638-8.076-1.53-1.656c1.356-1.253,2.8-2.516,4.3-3.752l1.436,1.739c-1.465,1.21-2.88,2.444-4.206,3.669m8.6-7.122-1.35-1.806c1.484-1.109,3.043-2.223,4.635-3.309l1.271,1.863c-1.565,1.068-3.1,2.163-4.556,3.253m9.246-6.319-1.2-1.911c1.591-1,3.232-1.983,4.877-2.932l1.126,1.954c-1.621.934-3.238,1.906-4.806,2.889m9.717-5.6-1.051-1.995c3.128-1.648,5.061-2.52,5.142-2.556l.925,2.056c-.019.009-1.957.883-5.016,2.495" transform="translate(-678.462 -48.978)" fill="#333"/>
      <path id="Caminho_15840" data-name="Caminho 15840" d="M437.823,166.638l21.918-.43,9.558-32.774c-11.247-12.263-2.66-18.032-2.66-18.032l3.071-13.779,52.054,9.432c-.559,58.316-24.232,48.441-24.232,48.441l-1.512,13.776,16.718,9.077-9.323,19.9L444.78,191.628Z" transform="translate(-323.611 -75.113)" fill="#fff"/>
      <path id="Caminho_15841" data-name="Caminho 15841" d="M499.887,199.827,439.7,188.921l-7.536-27.072,22.544-.442,9.15-31.374c-4.181-4.7-6.064-9.081-5.6-13.013a9.215,9.215,0,0,1,3.182-5.948l3.219-14.441,54.055,9.8-.009.951c-.247,25.8-4.951,41.9-13.98,47.858a13.435,13.435,0,0,1-10.405,2.032l-1.283,11.686,16.987,9.223Zm-58.392-12.872L498.581,197.3l8.5-18.156-16.45-8.931,1.759-16.026,1.39.58a10.926,10.926,0,0,0,9.751-1.445c5.671-3.775,12.481-14.657,12.909-45.016l-50.05-9.069L463.46,112.4l-.374.251a6.816,6.816,0,0,0-2.589,4.682c-.375,3.325,1.51,7.354,5.451,11.651l.429.468-9.968,34.178-21.293.418Z" transform="translate(-319.429 -71.423)" fill="#333"/>
      <path id="Caminho_15842" data-name="Caminho 15842" d="M559.076,55.2s9.831,9.229,30.131,5.46l-.28,6.806a17.375,17.375,0,0,0,9.208-15.894s.139-7.19-11.333-10.665c0,0-3.12-11.038-14.712-8.717,0,0-7.214-6.427-16.449-.42,0,0-6.945-1.491-9.092,3.938,0,0-11.247-3.435-16.321,6.585,0,0-4.334,12.893,4.294,20.508,0,0,7.884-2.94,9.324,7.1L547.7,71.76l2.045-6.146s6.411-.7,9.334-10.411" transform="translate(-391.105 -21.588)" fill="#333"/>
      <rect id="Retângulo_3554" data-name="Retângulo 3554" width="12.745" height="90.031" transform="translate(39.025 213.865) rotate(-68.656)" fill="#333"/>
      <path id="Caminho_15843" data-name="Caminho 15843" d="M366.9,827.375l12.049,4.586a3.264,3.264,0,0,0,4.211-1.889L394.5,800.279a7.425,7.425,0,0,0,.465-3.2l-1.064-14.25a3.264,3.264,0,0,0-5.562-2.066l-10.484,10.478a7.428,7.428,0,0,0-1.691,2.612l-11.154,29.306a3.264,3.264,0,0,0,1.889,4.211" transform="translate(-269.631 -576.384)" fill="#fff"/>
      <path id="Caminho_15844" data-name="Caminho 15844" d="M376.9,830.1a4.371,4.371,0,0,1-1.557-.287l-12.05-4.586a4.391,4.391,0,0,1-2.542-5.666l11.154-29.306a8.5,8.5,0,0,1,1.948-3.009l10.484-10.478a4.391,4.391,0,0,1,7.483,2.779l1.064,14.25a8.612,8.612,0,0,1-.536,3.681l-11.339,29.793A4.4,4.4,0,0,1,376.9,830.1m10.52-52.369a2.092,2.092,0,0,0-1.49.632L375.45,788.845a6.264,6.264,0,0,0-1.435,2.216l-11.154,29.307a2.136,2.136,0,0,0,1.236,2.756l12.05,4.586a2.139,2.139,0,0,0,2.757-1.237l11.339-29.793a6.348,6.348,0,0,0,.395-2.711l-1.064-14.249a2.088,2.088,0,0,0-1.387-1.844,2.191,2.191,0,0,0-.765-.141" transform="translate(-266.432 -573.186)" fill="#333"/>
      <path id="Caminho_15845" data-name="Caminho 15845" d="M292.459,352.647c-4.806,7.922-22.585,30.055-53.121-11.58a5.669,5.669,0,0,0-4.244-2.3l-25.707-1.5a37.284,37.284,0,0,0-27.5,10.576l-31.458,29.6,29.312,31.567,6.389,32.319h153.7l-4.181-46.241c-1.36-15.042-10.663-24.221-24.714-34.112l-14.673-9.227a2.739,2.739,0,0,0-3.8.892" transform="translate(-111.184 -249.284)" fill="#f27d00"/>
      <path id="Caminho_15846" data-name="Caminho 15846" d="M336.561,439.268H180.7l-6.506-32.914L144.336,374.2l32.274-30.367a38.223,38.223,0,0,1,28.3-10.882l.043,0,25.707,1.5a6.773,6.773,0,0,1,5.088,2.754c12.051,16.431,23.275,24.535,33.35,24.1,9.255-.405,15.186-7.964,17.9-12.434l.964.585-.964-.585a3.866,3.866,0,0,1,5.365-1.262l14.721,9.259c14.524,10.224,23.8,19.634,25.188,34.932Zm-154.01-2.255H334.093L330.023,392c-1.3-14.424-10.232-23.428-24.216-33.275l-14.647-9.211a1.611,1.611,0,0,0-1.236-.206,1.589,1.589,0,0,0-1,.728c-2.945,4.855-9.424,13.066-19.727,13.518-10.882.471-22.743-7.94-35.267-25.016a4.524,4.524,0,0,0-3.4-1.837l-25.686-1.5a36.033,36.033,0,0,0-26.676,10.261l-30.653,28.842,28.768,30.981Z" transform="translate(-106.684 -246.089)" fill="#333"/>
      <path id="Caminho_15847" data-name="Caminho 15847" d="M132.523,478.344l-5.416,5.416c-7.141,7.141-6.421,16.944-2.822,26.776l18.384,49.356-2.255,12.026-2.631-1.127s-4.7,9.207,7.14,8.268c0,0,.188,8.08,8.268,5.637,0,0,2.631,5.261,8.643,2.631,0,0,2.631,6.764,10.522.752,0,0,11.086-15.22,6.952-29.124l-23.487-53.927Z" transform="translate(-89.901 -353.561)" fill="#fff"/>
      <path id="Caminho_15848" data-name="Caminho 15848" d="M163.251,587.021a6,6,0,0,1-1.63-.221,6.321,6.321,0,0,1-3.552-2.743,7.314,7.314,0,0,1-8.648-2.729,7.073,7.073,0,0,1-5.975-.845,7.653,7.653,0,0,1-2.764-4.915c-3.615.113-6.077-.776-7.324-2.641-1.995-2.985.088-7.147.178-7.323l.479-.939,2.307.988,1.938-10.335-18.275-49.063c-4.489-12.26-3.48-21.406,3.081-27.966l6.269-6.27,24.207,27.722,23.6,54.216c4.244,14.274-6.656,29.469-7.122,30.109l-.1.133-.131.1c-2.378,1.811-4.572,2.723-6.545,2.723m-4.036-5.875.426,1.1a4.4,4.4,0,0,0,2.611,2.394c1.6.438,3.681-.262,6.041-2.027,1.039-1.493,10.385-15.426,6.71-27.944l-23.39-53.7-22.391-25.642-4.563,4.564c-5.876,5.876-6.714,14.247-2.56,25.591l18.492,49.643-2.572,13.716-2.869-1.23c-.389,1.176-.693,2.915.086,4.074.87,1.3,3.066,1.842,6.355,1.582l1.188-.094.028,1.192c0,.026.109,2.966,1.97,4.306,1.131.814,2.761.908,4.844.278l.909-.275.425.85c.223.434,2.339,4.221,7.183,2.1Z" transform="translate(-86.655 -348.885)" fill="#333"/>
      <path id="Caminho_15849" data-name="Caminho 15849" d="M210.24,824.16l-1.538-1.648c5.311-4.958,7.162-13.841,7.18-13.931l2.21.448c-.08.393-2.018,9.686-7.852,15.131" transform="translate(-154.259 -597.651)" fill="#333"/>
      <path id="Caminho_15850" data-name="Caminho 15850" d="M240.229,837.351l-1.826-1.323c7.528-10.4,7.677-16.942,7.677-17.007l2.255.005c0,.291-.092,7.257-8.106,18.324" transform="translate(-176.212 -605.368)" fill="#333"/>
      <path id="Caminho_15851" data-name="Caminho 15851" d="M274.833,850.064,273.04,848.7a41.314,41.314,0,0,0,7.3-15.556l2.217.41a42.81,42.81,0,0,1-7.728,16.513" transform="translate(-201.814 -615.804)" fill="#333"/>
      <rect id="Retângulo_3555" data-name="Retângulo 3555" width="26.341" height="2.255" transform="matrix(0.742, -0.671, 0.671, 0.742, 65.731, 151.568)" fill="#333"/>
      <rect id="Retângulo_3556" data-name="Retângulo 3556" width="2.255" height="21.582" transform="matrix(0.993, -0.122, 0.122, 0.993, 257.024, 121.726)" fill="#333"/>
      <rect id="Retângulo_3557" data-name="Retângulo 3557" width="19.092" height="2.255" transform="translate(266.44 145.913) rotate(-53.805)" fill="#333"/>
      <rect id="Retângulo_3558" data-name="Retângulo 3558" width="2.255" height="17.964" transform="translate(156.741 155.406) rotate(-25.403)" fill="#333"/>
      <rect id="Retângulo_3559" data-name="Retângulo 3559" width="2.255" height="17.094" transform="matrix(0.402, -0.916, 0.916, 0.402, 144.998, 173.288)" fill="#333"/>
      <path id="Caminho_15852" data-name="Caminho 15852" d="M534.089,803.559a9.9,9.9,0,0,1-2.592-.337,9.772,9.772,0,0,1-5.963-4.862l1.965-1.105a7.472,7.472,0,0,0,4.587,3.791,8.7,8.7,0,0,0,6.263-.829q.792-.463,1.477-.908a17.93,17.93,0,0,1-1.568-2.936,7.468,7.468,0,0,1,.992-7.15,4.965,4.965,0,0,1,5.183-1.533,4.649,4.649,0,0,1,3.622,3.8c.244,1.6-.2,4.58-4.928,8.245A5.462,5.462,0,0,0,546,801.155c5.071.764,10.792-5.889,10.849-5.956l1.72,1.458c-.266.314-6.587,7.684-12.9,6.728a7.765,7.765,0,0,1-4.414-2.318q-.819.54-1.767,1.1a11.118,11.118,0,0,1-5.4,1.4m8.866-13.793a2.44,2.44,0,0,0-1.976.9,5.261,5.261,0,0,0-.649,4.816,15.7,15.7,0,0,0,1.342,2.527c4.18-3.208,4.263-5.473,4.154-6.185a2.426,2.426,0,0,0-1.9-1.94,4.33,4.33,0,0,0-.971-.12" transform="translate(-388.441 -582.081)" fill="#333"/>
      <path id="Caminho_15853" data-name="Caminho 15853" d="M674.648,712.908l15.408-5.637-2.255-6.013,3.382-7.516-2.631-4.885-7.892,1.127,6.389-9.019-2.255-6.389-15.408,3.382,12.777-12.026-10.9-2.255L663,666.685l9.019-10.9-6.764-.752-3.382-5.261s-34.254,4.7-31.333,35.056a27.381,27.381,0,0,0,6.173,15.1c5.494,6.509,16.129,12.894,35.682,6.594Z" transform="translate(-465.922 -480.271)" fill="#bfbfbf"/>
      <path id="Caminho_15854" data-name="Caminho 15854" d="M670.775,710.917l-2.272-6.438a48.777,48.777,0,0,1-14.174,2.319c-10.847,0-17.609-4.776-21.669-9.587a28.39,28.39,0,0,1-6.434-15.715c-1.564-16.263,7.353-25.281,15.109-29.983a49.772,49.772,0,0,1,17.193-6.3l.712-.1,3.481,5.415,8.306.923-7.705,9.311,4.669-1.7,13.334,2.759-11.384,10.714,12.394-2.721,2.781,7.879-5.212,7.357,6.077-.868,3.267,6.068-3.42,7.6,2.491,6.642Zm-.873-9.248,2.24,6.347,13.27-4.854-2.019-5.383,3.345-7.432-1.994-3.7-9.707,1.387,7.566-10.681-1.729-4.9-18.421,4.043,14.17-13.337-8.462-1.75-11.866,4.315,10.333-12.486-5.222-.58-3.271-5.088a48.735,48.735,0,0,0-15.688,5.91c-10.438,6.352-15.14,15.706-13.976,27.8a26.148,26.148,0,0,0,5.913,14.477c5.254,6.224,15.5,12.362,34.475,6.248Z" transform="translate(-462.732 -476.829)" fill="#333"/>
    </g>
  </g>
</svg>
