<svg id="Componente_15_1" data-name="Componente 15 – 1" xmlns="http://www.w3.org/2000/svg" xmlns:xlink="http://www.w3.org/1999/xlink" width="21.376" height="21.365" viewBox="0 0 21.376 21.365">
  <defs>
    <clipPath id="clip-path">
      <rect id="Retângulo_3448" data-name="Retângulo 3448" width="21.376" height="21.365" fill="#f27d00" stroke="#f27d00" stroke-width="0.5"/>
    </clipPath>
  </defs>
  <g id="Grupo_16739" data-name="Grupo 16739" clip-path="url(#clip-path)">
    <path id="Caminho_14094" data-name="Caminho 14094" d="M10.06,0h1.252c.061.012.121.027.182.036.583.09,1.175.139,1.747.276a10.694,10.694,0,0,1,7.944,12.37,10.385,10.385,0,0,1-3.258,5.851,10.441,10.441,0,0,1-8.713,2.731,10.2,10.2,0,0,1-5.565-2.543,10.46,10.46,0,0,1-3.485-6.2c-.07-.4-.11-.808-.164-1.213V10.06c.013-.074.028-.147.038-.221.051-.385.081-.775.153-1.156a10.435,10.435,0,0,1,2.9-5.5A10.423,10.423,0,0,1,8.844.165C9.247.1,9.654.054,10.06,0M8.142,11.733a4.507,4.507,0,1,1,5.742-6.9,4.543,4.543,0,0,1-.659,6.9A7.4,7.4,0,0,1,17.81,16.84,9.417,9.417,0,1,0,3.481,4.617a9.328,9.328,0,0,0,.08,12.2,7.414,7.414,0,0,1,4.58-5.085m2.716,8.387c.225-.019.629-.038,1.028-.088a9.163,9.163,0,0,0,4.362-1.743c.527-.388.52-.4.363-1.051A6.083,6.083,0,0,0,4.663,17.8a.263.263,0,0,0,.089.2,9.525,9.525,0,0,0,6.106,2.118m-.178-8.874A3.243,3.243,0,1,0,7.438,8.008a3.254,3.254,0,0,0,3.241,3.238" fill="#f27d00" stroke="#f27d00" stroke-width="0.5"/>
  </g>
</svg>
