<svg id="Componente_13_1" data-name="Componente 13 – 1" xmlns="http://www.w3.org/2000/svg" width="20.102" height="19.996" viewBox="0 0 20.102 19.996">
  <path id="Caminho_14085" data-name="Caminho 14085" d="M-350.491,512.713a.335.335,0,0,0-.392-.268l-1.29.247a.335.335,0,0,0-.266.379,8.039,8.039,0,0,1-1.2,5.557,7.167,7.167,0,0,1-1.491,1.713,7.962,7.962,0,0,1-5.442,1.944,8.006,8.006,0,0,1-7.826-8.247,7.679,7.679,0,0,1,2.625-5.707,7.92,7.92,0,0,1,7.223-1.892.335.335,0,0,0,.39-.238l.349-1.271a.331.331,0,0,0-.233-.409,10.011,10.011,0,0,0-11.937,6.832,9.645,9.645,0,0,0,.877,7.874,9.762,9.762,0,0,0,6.429,4.817c.02,0,.04,0,.061,0,.836.023,1.662.17,2.5.184.459.007.918-.015,1.376-.05A10.022,10.022,0,0,0-350.491,512.713Z" transform="translate(370.441 -504.232)" fill="#f27d00"/>
  <path id="Caminho_14086" data-name="Caminho 14086" d="M-333.264,532.662h-1.354a.325.325,0,0,1-.325-.325V531a.324.324,0,0,0-.324-.325h-1.342a.325.325,0,0,1-.325-.325v-1.37a.325.325,0,0,1,.325-.325h.006c.868,0,1.737,0,2.6,0a1.007,1.007,0,0,0,1.057-1,1.013,1.013,0,0,0-1.03-1,3.018,3.018,0,0,1-2.919-2.388,2.982,2.982,0,0,1,1.745-3.367.3.3,0,0,0,.2-.331c-.006-.531,0-1.061,0-1.6a.326.326,0,0,1,.324-.326h1.343a.325.325,0,0,1,.325.325v1.33a.325.325,0,0,0,.324.325h1.36a.325.325,0,0,1,.325.325v1.371a.322.322,0,0,1-.322.321h0c-.858,0-1.716,0-2.573,0a1.014,1.014,0,0,0-1.1.993,1.016,1.016,0,0,0,1.079,1.017A3.014,3.014,0,0,1-331,527.015a2.993,2.993,0,0,1-1.7,3.363.337.337,0,0,0-.243.367c.012.524.008,1.048.006,1.592A.325.325,0,0,1-333.264,532.662Z" transform="translate(344 -515.602)" fill="#f27d00"/>
  <path id="Caminho_14087" data-name="Caminho 14087" d="M-289.685,524.281l.816,1.415a.268.268,0,0,1-.124.38l-1.35.59a.268.268,0,0,1-.339-.112l-.654-1.129a.269.269,0,0,1,.072-.351l1.187-.876A.268.268,0,0,1-289.685,524.281Z" transform="translate(308.011 -519.956)" fill="#f27d00"/>
  <path id="Caminho_14088" data-name="Caminho 14088" d="M-302.965,512.81l-1.088-.751a.26.26,0,0,1-.08-.334l.7-1.315a.26.26,0,0,1,.376-.092l1.364.939a.26.26,0,0,1,.048.384l-.978,1.127A.259.259,0,0,1-302.965,512.81Z" transform="translate(318.111 -509.001)" fill="#f27d00"/>
</svg>
