<svg id="Componente_26_1" data-name="Componente 26 – 1" xmlns="http://www.w3.org/2000/svg" width="354.811" height="313.015" viewBox="0 0 354.811 313.015">
  <g id="Grupo_16626" data-name="Grupo 16626" transform="translate(206.853 27.273)">
    <g id="Grupo_16617" data-name="Grupo 16617">
      <g id="Grupo_16616" data-name="Grupo 16616">
        <ellipse id="Elipse_1249" data-name="Elipse 1249" cx="52.73" cy="34.808" rx="52.73" ry="34.808" fill="#a7a7a7"/>
      </g>
    </g>
    <g id="Grupo_16619" data-name="Grupo 16619" transform="translate(3.255 57.086)">
      <g id="Grupo_16618" data-name="Grupo 16618">
        <path id="Caminho_14050" data-name="Caminho 14050" d="M362.847,137.53c-.861,5.989-4.5,11.2-10.03,15.873,10.618-.295,19.318-4.312,25.959-12.334Z" transform="translate(-352.817 -137.53)" fill="#a7a7a7"/>
      </g>
    </g>
    <g id="Grupo_16621" data-name="Grupo 16621" transform="translate(49.151 31.229)">
      <g id="Grupo_16620" data-name="Grupo 16620">
        <circle id="Elipse_1250" data-name="Elipse 1250" cx="3.579" cy="3.579" r="3.579" fill="#fff"/>
      </g>
    </g>
    <g id="Grupo_16623" data-name="Grupo 16623" transform="translate(69.398 31.229)">
      <g id="Grupo_16622" data-name="Grupo 16622">
        <circle id="Elipse_1251" data-name="Elipse 1251" cx="3.579" cy="3.579" r="3.579" fill="#fff"/>
      </g>
    </g>
    <g id="Grupo_16625" data-name="Grupo 16625" transform="translate(28.903 31.229)">
      <g id="Grupo_16624" data-name="Grupo 16624">
        <circle id="Elipse_1252" data-name="Elipse 1252" cx="3.579" cy="3.579" r="3.579" fill="#fff"/>
      </g>
    </g>
  </g>
  <g id="Grupo_16723" data-name="Grupo 16723">
    <g id="Grupo_16643" data-name="Grupo 16643" transform="translate(174.191 93.271)">
      <g id="Grupo_16639" data-name="Grupo 16639" transform="translate(128.872)">
        <g id="Grupo_16628" data-name="Grupo 16628">
          <g id="Grupo_16627" data-name="Grupo 16627">
            <path id="Caminho_14051" data-name="Caminho 14051" d="M345.713,237.9l9.3-18.937s-3.788-4.3-5.164-6.2-4.379-19.163-4.133-20.659c1.829-11.1,1.142-14.7-.079-22.789-.9-5.964,5.283-5.811,7.977.775,1.162,2.84,1.227,9.618,1.549,11.943s2.733,7.919,3.744,7.037,6.435-10.717,8.931-15.818,10.236-22.585,12.473-28.314,6.762-1.758,5.275,5.492-7.849,25.1-7.849,25.1c1.777-2.627,8.608-1.721,8.349,4.3,2.755-2.5,8.35,2.582,5.813,7.681,2.451-2,5.45.753,5.4,4.519-.034,2.417-.012,8.072-1.8,11.756-.588,1.213-5.463,3.064-5.463,3.064s-7.022,13.256-8.929,14.4a23.142,23.142,0,0,1-6.465,2.694l-8.607,20.382Z" transform="translate(-345.546 -142.21)" fill="#fcb289"/>
          </g>
        </g>
        <g id="Grupo_16630" data-name="Grupo 16630" transform="translate(24.126 32.516)">
          <g id="Grupo_16629" data-name="Grupo 16629">
            <path id="Caminho_14052" data-name="Caminho 14052" d="M371.757,192.662a5.355,5.355,0,0,1-4.83-2.934c-1.329-2.553-.128-5.284.751-7.279.834-1.9,5.789-11.38,6-11.783a.812.812,0,0,1,1.439.751c-.051.1-5.139,9.834-5.946,11.674-.794,1.8-1.772,4.025-.805,5.886a3.716,3.716,0,0,0,3.391,2.062h.022a5.964,5.964,0,0,0,5.059-3.552c1.473-2.9,5.118-12.341,5.154-12.434a.812.812,0,0,1,1.516.583c-.15.391-3.711,9.616-5.222,12.588a7.561,7.561,0,0,1-6.5,4.438Z" transform="translate(-366.335 -170.228)" fill="#cc8e82"/>
          </g>
        </g>
        <g id="Grupo_16632" data-name="Grupo 16632" transform="translate(31.001 44.504)">
          <g id="Grupo_16631" data-name="Grupo 16631">
            <path id="Caminho_14053" data-name="Caminho 14053" d="M378.641,195.336c-.138,0-.28-.007-.42-.019-2.446-.2-4.708-2.212-5.906-5.244a.812.812,0,0,1,1.511-.6c.968,2.456,2.7,4.073,4.528,4.223,1.491.146,2.941-.789,4.012-2.58,1.089-1.809,4.458-9.978,4.492-10.06a.812.812,0,0,1,1.5.619c-.142.341-3.453,8.363-4.6,10.276C382.444,194.147,380.639,195.336,378.641,195.336Z" transform="translate(-372.259 -180.559)" fill="#cc8e82"/>
          </g>
        </g>
        <g id="Grupo_16634" data-name="Grupo 16634" transform="translate(38.814 56.861)">
          <g id="Grupo_16633" data-name="Grupo 16633">
            <path id="Caminho_14054" data-name="Caminho 14054" d="M384.66,199.811a5.328,5.328,0,0,1-4.253-2.163,6.917,6.917,0,0,1-1.215-5.83.812.812,0,1,1,1.575.4,5.246,5.246,0,0,0,.924,4.433,3.728,3.728,0,0,0,2.97,1.535.812.812,0,0,1,0,1.625Z" transform="translate(-378.991 -191.206)" fill="#cc8e82"/>
          </g>
        </g>
        <g id="Grupo_16636" data-name="Grupo 16636" transform="translate(17.121 52.486)">
          <g id="Grupo_16635" data-name="Grupo 16635">
            <path id="Caminho_14055" data-name="Caminho 14055" d="M364.048,206.119a.829.829,0,0,1-.218-.029.813.813,0,0,1-.564-1c2.007-7.186,1.116-12.507-2.723-16.261a.811.811,0,0,1,1.134-1.161c4.244,4.149,5.3,10.158,3.154,17.858A.815.815,0,0,1,364.048,206.119Z" transform="translate(-360.298 -187.437)" fill="#cc8e82"/>
          </g>
        </g>
        <g id="Grupo_16638" data-name="Grupo 16638" transform="translate(25.931 59.604)">
          <g id="Grupo_16637" data-name="Grupo 16637">
            <path id="Caminho_14056" data-name="Caminho 14056" d="M368.7,203.893a.813.813,0,0,1-.6-1.364l8.021-8.7a.811.811,0,0,1,1.192,1.1l-8.02,8.7A.813.813,0,0,1,368.7,203.893Z" transform="translate(-367.89 -193.57)" fill="#cc8e82"/>
          </g>
        </g>
      </g>
      <g id="Grupo_16642" data-name="Grupo 16642" transform="translate(0 73.139)">
        <g id="Grupo_16641" data-name="Grupo 16641">
          <g id="Grupo_16640" data-name="Grupo 16640">
            <path id="Caminho_14057" data-name="Caminho 14057" d="M243.754,206.476c20.372,9.3,82.569,66.409,82.569,66.409l38.621-67.224c1.158-3.523,32.327,15.732,31.774,19.5,0,0-37.392,85.729-56.235,101.387-16.268,13.518-95.185-54.457-95.185-54.457S222.062,196.579,243.754,206.476Z" transform="translate(-234.498 -205.233)" fill="#f27d00"/>
          </g>
        </g>
      </g>
    </g>
    <g id="Grupo_16657" data-name="Grupo 16657" transform="translate(33.502 72.213)">
      <g id="Grupo_16651" data-name="Grupo 16651" transform="translate(0 84.75)">
        <g id="Grupo_16645" data-name="Grupo 16645">
          <g id="Grupo_16644" data-name="Grupo 16644">
            <path id="Caminho_14058" data-name="Caminho 14058" d="M276.777,352.348H124.527c-2.377-26.75-5.569-59.046-8.925-84.258-.162-1.235-.326-2.47-.465-3.658-1.841-14.214-2.819-25.864-.559-35.325l.885-3.123c.071-.209.139-.419.209-.629a29.661,29.661,0,0,1,1.911-4.287,16.948,16.948,0,0,1,.956-1.655c.255-.419.536-.839.815-1.235,6.781-9.553,20.157-15.868,44.762-19.6a162.482,162.482,0,0,1,21.577-1.468c12.862-.162,26.493.583,36.839,1.375,10.206.768,17.243,1.561,17.243,1.561,15.566,4.753,25.142,6.268,30.525,13.818,5.894,8.3,6.8,23.3,6.314,45.017-.467,20.389-.257,55.76.07,86.447C276.73,347.711,276.755,350.041,276.777,352.348Z" transform="translate(-113.267 -197.093)" fill="#f27d00"/>
          </g>
        </g>
        <g id="Grupo_16648" data-name="Grupo 16648" transform="translate(0.196 23.977)">
          <g id="Grupo_16647" data-name="Grupo 16647">
            <g id="Grupo_16646" data-name="Grupo 16646">
              <path id="Caminho_14059" data-name="Caminho 14059" d="M152.648,349.032H124.5c-2.377-26.75-5.569-59.046-8.925-84.258-.162-1.235-.326-2.47-.465-3.658-2.329-18.572-2.819-32.9,2.446-43.364,4.007,28.893,19.293,54.944,28.264,82.487q2.272,6.815,3.891,13.817c.28,9.437.885,19.131,2.1,28.777C152.041,344.908,152.321,346.981,152.648,349.032Z" transform="translate(-113.436 -217.753)" fill="#be612f"/>
            </g>
          </g>
        </g>
        <g id="Grupo_16650" data-name="Grupo 16650" transform="translate(162.279 60.999)">
          <g id="Grupo_16649" data-name="Grupo 16649">
            <path id="Caminho_14060" data-name="Caminho 14060" d="M254.332,343.682a.8.8,0,0,1-.8-.79c-.023-2.3-.045-3.6-.094-5.978-.429-40.554-.453-69.649-.07-86.481a.8.8,0,1,1,1.592.037c-.384,16.813-.36,45.89.071,86.42.048,2.371.071,3.676.093,5.988a.8.8,0,0,1-.789.8Z" transform="translate(-253.102 -249.655)" fill="#be612f"/>
          </g>
        </g>
      </g>
      <g id="Grupo_16656" data-name="Grupo 16656" transform="translate(50.853)">
        <g id="Grupo_16653" data-name="Grupo 16653" transform="translate(0 80.001)">
          <g id="Grupo_16652" data-name="Grupo 16652">
            <path id="Caminho_14061" data-name="Caminho 14061" d="M218.9,193l13.834,7.715L226.346,229s-19.848-14.7-22.574-14.473-22.855,16.8-22.855,16.8l-23.83-32.085L172.447,193Z" transform="translate(-157.087 -193)" fill="#f1f2f2"/>
          </g>
        </g>
        <g id="Grupo_16655" data-name="Grupo 16655" transform="translate(14.112)">
          <g id="Grupo_16654" data-name="Grupo 16654">
            <path id="Caminho_14062" data-name="Caminho 14062" d="M169.247,124.732c2.742,30.731,8.075,65.858,4.586,75.919-1.249,3.6-3.338,3.413-3.338,3.413,18.363,14.451,31.324,21.525,31.324,21.525s11.721-13.532,15.131-21.525a5.551,5.551,0,0,1-4.228-2.3c-8.957-13.368-2.327-54.509-.39-77.7Z" transform="translate(-169.247 -124.064)" fill="#fcb289"/>
          </g>
        </g>
      </g>
    </g>
    <g id="Grupo_16670" data-name="Grupo 16670" transform="translate(0 167.531)">
      <g id="Grupo_16665" data-name="Grupo 16665" transform="translate(186.248 134.333)">
        <g id="Grupo_16662" data-name="Grupo 16662" transform="translate(14.563)">
          <g id="Grupo_16659" data-name="Grupo 16659" transform="translate(0.185)">
            <g id="Grupo_16658" data-name="Grupo 16658">
              <path id="Caminho_14063" data-name="Caminho 14063" d="M286.257,332.307H262.35A6.76,6.76,0,0,1,258.714,330c-1.723-2.284-1.374-5.569.49-8.039,2.61-.21,17.244,3.193,23.069,6.245C283.017,328.626,284.23,330.023,286.257,332.307Z" transform="translate(-257.595 -321.952)" fill="#fcb289"/>
            </g>
          </g>
          <g id="Grupo_16661" data-name="Grupo 16661" transform="translate(0 6.068)">
            <g id="Grupo_16660" data-name="Grupo 16660">
              <path id="Caminho_14064" data-name="Caminho 14064" d="M267.105,331.468h-9.669a7.332,7.332,0,0,1,1.3-2.307,9.245,9.245,0,0,1,2.355-1.98s1.491,1.048,3.681,2.632C265.5,330.3,266.267,330.885,267.105,331.468Z" transform="translate(-257.436 -327.181)" fill="#fcb289"/>
            </g>
          </g>
        </g>
        <g id="Grupo_16664" data-name="Grupo 16664" transform="translate(0 0.009)">
          <g id="Grupo_16663" data-name="Grupo 16663">
            <path id="Caminho_14065" data-name="Caminho 14065" d="M267,330.978l-.233,1.328H244.887c4.263-2.68,15.8-10.369,16.356-10.346l5.546,8.691Z" transform="translate(-244.887 -321.96)" fill="#fcb289"/>
          </g>
        </g>
      </g>
      <g id="Grupo_16667" data-name="Grupo 16667">
        <g id="Grupo_16666" data-name="Grupo 16666">
          <path id="Caminho_14066" data-name="Caminho 14066" d="M194.847,350.887H84.4c.256-1.445.583-2.936.955-4.451l33.857-118.79.885-3.123c.071-.209.139-.419.209-.629q.413-1.142.9-2.241c.283-.65.6-1.279.937-1.9.027-.049.048-.1.074-.151a16.948,16.948,0,0,1,.956-1.655c.255-.419.536-.839.815-1.235a25.756,25.756,0,0,1,45.414,22.7l-18.921,62.68-11.975,39.681,17.965,2.913Z" transform="translate(-84.399 -206.199)" fill="#f27d00"/>
        </g>
      </g>
      <g id="Grupo_16669" data-name="Grupo 16669" transform="translate(53.309 134.778)">
        <g id="Grupo_16668" data-name="Grupo 16668">
          <path id="Caminho_14067" data-name="Caminho 14067" d="M187.475,333.042a.8.8,0,0,1-.128-.012L131,323.919a.794.794,0,0,1-.658-.912.779.779,0,0,1,.912-.658L187.6,331.46a.8.8,0,0,1-.128,1.582Z" transform="translate(-130.335 -322.336)" fill="#be612f"/>
        </g>
      </g>
    </g>
    <g id="Grupo_16722" data-name="Grupo 16722" transform="translate(71.604)">
      <g id="Grupo_16699" data-name="Grupo 16699">
        <path id="Caminho_13836" data-name="Caminho 13836" d="M170.41,142.248c-6.845-9.337-10.665-17.523-12-28.06-14.7,6.732-18.083-6.565.12-20.9-19.633-1.5-9.1-16.448,18.608-17.442-15.545-7.308.844-14.922,29.876-6.371-11.865-14.394,33.08-8.711,40.719,19.306,9.737,11.437,2.876,31.265-2.418,54.11Z" transform="translate(-146.099 -61.839)" fill="#272626"/>
        <g id="Grupo_16672" data-name="Grupo 16672" transform="translate(5.863 11.73)">
          <g id="Grupo_16671" data-name="Grupo 16671">
            <path id="Caminho_14068" data-name="Caminho 14068" d="M249.957,134.157c-7.478,33.584-80.167,34.748-88.03,21.84-20.168-33.109-13.645-77.876,33.41-83.523C221.19,69.372,262.309,78.692,249.957,134.157Z" transform="translate(-151.151 -71.946)" fill="#272626"/>
          </g>
        </g>
        <g id="Grupo_16698" data-name="Grupo 16698" transform="translate(14.916 49.42)">
          <g id="Grupo_16674" data-name="Grupo 16674" transform="translate(13.197)">
            <g id="Grupo_16673" data-name="Grupo 16673">
              <path id="Caminho_14069" data-name="Caminho 14069" d="M171.233,157.711c4.062,19.635,20.807,36.7,37.782,39s36.907-14.6,38.206-34.531-1.665-51.705-1.665-51.705-64.474-12.744-71.139-1.249-3.183,35.071-3.183,35.071Z" transform="translate(-170.324 -104.423)" fill="#fcb289"/>
            </g>
          </g>
          <g id="Grupo_16676" data-name="Grupo 16676" transform="translate(28.882 79.248)">
            <g id="Grupo_16675" data-name="Grupo 16675">
              <path id="Caminho_14070" data-name="Caminho 14070" d="M204.085,185.93a.907.907,0,0,1-.136-.009,31.5,31.5,0,0,1-19.925-11.771.894.894,0,1,1,1.416-1.092,29.669,29.669,0,0,0,18.782,11.1.893.893,0,0,1-.137,1.776Z" transform="translate(-183.839 -172.711)" fill="#cc8e82"/>
            </g>
          </g>
          <g id="Grupo_16682" data-name="Grupo 16682" transform="translate(0 38.928)">
            <g id="Grupo_16681" data-name="Grupo 16681">
              <path id="Caminho_14071" data-name="Caminho 14071" d="M158.952,148.822c0,6,7.619,15.425,13.614,15.425s8.1-9.43,8.1-15.425a10.855,10.855,0,0,0-21.711,0Z" transform="translate(-158.952 -137.967)" fill="#fcb289"/>
            </g>
          </g>
          <g id="Grupo_16697" data-name="Grupo 16697" transform="translate(5.284 45.338)">
            <g id="Grupo_16696" data-name="Grupo 16696">
              <path id="Caminho_14076" data-name="Caminho 14076" d="M173.916,157.321a.9.9,0,0,1-.205-.026.892.892,0,0,1-.664-1.073,9.438,9.438,0,0,0-2.877-9.594,5.047,5.047,0,0,0-5.384-.926.894.894,0,1,1-.774-1.611,6.8,6.8,0,0,1,7.278,1.147,11.265,11.265,0,0,1,3.5,11.394A.9.9,0,0,1,173.916,157.321Z" transform="translate(-163.505 -143.491)" fill="#cc8e82"/>
            </g>
          </g>
        </g>
      </g>
      <g id="Grupo_16719" data-name="Grupo 16719" transform="translate(6.647 75.142)">
        <g id="Grupo_16718" data-name="Grupo 16718">
          <g id="Grupo_16706" data-name="Grupo 16706">
            <g id="Grupo_16701" data-name="Grupo 16701" transform="translate(1.772)">
              <g id="Grupo_16700" data-name="Grupo 16700">
                <ellipse id="Elipse_1257" data-name="Elipse 1257" cx="15.853" cy="19.168" rx="15.853" ry="19.168" transform="matrix(0.996, -0.089, 0.089, 0.996, 0, 2.81)" fill="#d6d6d6"/>
              </g>
            </g>
            <g id="Grupo_16703" data-name="Grupo 16703" transform="translate(0 2.905)">
              <g id="Grupo_16702" data-name="Grupo 16702">
                <ellipse id="Elipse_1258" data-name="Elipse 1258" cx="12.764" cy="16.977" rx="12.764" ry="16.977" transform="matrix(0.996, -0.089, 0.089, 0.996, 0, 2.262)" fill="#a7a7a7"/>
              </g>
            </g>
            <g id="Grupo_16705" data-name="Grupo 16705" transform="translate(2.427 9.952)">
              <g id="Grupo_16704" data-name="Grupo 16704">
                <path id="Caminho_14077" data-name="Caminho 14077" d="M153.974,147.2c.551,6.189,5.03,10.848,10,10.406s8.272-5.794,7.721-11.983-4.742-10.875-9.716-10.432S153.424,141.012,153.974,147.2Z" transform="translate(-153.918 -135.164)" fill="#58595b"/>
              </g>
            </g>
          </g>
          <g id="Grupo_16708" data-name="Grupo 16708" transform="translate(0 2.905)">
            <g id="Grupo_16707" data-name="Grupo 16707">
              <ellipse id="Elipse_1259" data-name="Elipse 1259" cx="12.764" cy="16.977" rx="12.764" ry="16.977" transform="matrix(0.996, -0.089, 0.089, 0.996, 0, 2.262)" fill="#a7a7a7"/>
            </g>
          </g>
          <g id="Grupo_16710" data-name="Grupo 16710" transform="translate(2.427 9.952)">
            <g id="Grupo_16709" data-name="Grupo 16709">
              <path id="Caminho_14078" data-name="Caminho 14078" d="M153.974,147.2c.551,6.189,5.03,10.848,10,10.406s8.272-5.794,7.721-11.983-4.742-10.875-9.716-10.432S153.424,141.012,153.974,147.2Z" transform="translate(-153.918 -135.164)" fill="#58595b"/>
            </g>
          </g>
          <g id="Grupo_16717" data-name="Grupo 16717" transform="translate(19.367 31.127)">
            <g id="Grupo_16712" data-name="Grupo 16712">
              <g id="Grupo_16711" data-name="Grupo 16711">
                <circle id="Elipse_1260" data-name="Elipse 1260" cx="1.635" cy="1.635" r="1.635" fill="#76a8e4"/>
              </g>
            </g>
            <g id="Grupo_16714" data-name="Grupo 16714" transform="translate(0.722 0.722)">
              <g id="Grupo_16713" data-name="Grupo 16713">
                <path id="Caminho_14079" data-name="Caminho 14079" d="M202.674,177.077a.993.993,0,0,1-.23-.028c-13.924-3.094-25.06-10.269-33.1-21.326a1.063,1.063,0,1,1,1.72-1.251c7.73,10.623,18.443,17.521,31.844,20.5a1.064,1.064,0,0,1-.231,2.1Z" transform="translate(-169.137 -154.033)" fill="#58595b"/>
              </g>
            </g>
            <g id="Grupo_16716" data-name="Grupo 16716" transform="translate(25.936 16.801)">
              <g id="Grupo_16715" data-name="Grupo 16715">
                <rect id="Retângulo_3442" data-name="Retângulo 3442" width="15.134" height="8.82" rx="3.8" transform="matrix(0.978, 0.21, -0.21, 0.978, 1.852, 0)" fill="#58595b"/>
              </g>
            </g>
          </g>
        </g>
      </g>
      <g id="Grupo_16721" data-name="Grupo 16721" transform="translate(11.66 6.315)">
        <g id="Grupo_16720" data-name="Grupo 16720">
          <path id="Caminho_14080" data-name="Caminho 14080" d="M163.143,160.684l4.6-.742c-14.432-56.779-7.3-86.8,44.617-91.338C169.614,60.185,142.65,92.042,163.143,160.684Z" transform="translate(-156.147 -67.28)" fill="#a7a7a7"/>
        </g>
      </g>
    </g>
  </g>
</svg>
