<svg width="44.539" height="44.499" xmlns="http://www.w3.org/2000/svg">

 <g>
  <title>Layer 1</title>
  <g id="svg_1">
   <path id="svg_2" fill="#ff7d00" d="m44.48901,0.00002l-20.593,0a0.987,0.987 0 0 0 -0.142,0.707q-0.005,3.214 0,6.428c0,0.8 0,0.8 -0.823,0.8l-6.254,0c-1.023,0 -1.09,0.066 -1.09,1.076q0,14.05 0,28.1c0,0.966 0.036,1 1,1l18.936,0q4.126,0 8.252,0c0.76,0 0.76,-0.005 0.76,-0.773q0,-18.415 0,-36.83a1.084,1.084 0 0 0 -0.046,-0.508zm-23.384,13.644c0.03,-0.606 0.021,-1.215 0,-1.822c-0.008,-0.254 0.077,-0.306 0.317,-0.306q8.68,0.01 17.361,0c0.281,0 0.333,0.088 0.326,0.343c-0.018,0.622 -0.025,1.245 0,1.866c0.014,0.315 -0.09,0.373 -0.385,0.372c-2.879,-0.012 -5.758,-0.007 -8.637,-0.007c-2.85,0 -5.7,-0.008 -8.55,0.01c-0.37,0 -0.448,-0.107 -0.432,-0.456zm0,5.609c0.031,-0.635 0.021,-1.274 0,-1.91c-0.007,-0.254 0.081,-0.307 0.319,-0.307q8.684,0.009 17.368,0c0.242,0 0.323,0.061 0.316,0.311c-0.017,0.651 -0.023,1.3 0,1.954c0.012,0.3 -0.1,0.346 -0.365,0.345c-2.88,-0.009 -5.76,-0.005 -8.641,-0.005s-5.731,-0.005 -8.6,0.007c-0.305,0.001 -0.413,-0.058 -0.397,-0.395zm18.01,3.721c-0.033,0.62 -0.019,1.244 0,1.866c0.006,0.246 -0.033,0.351 -0.322,0.351q-8.681,-0.014 -17.362,0c-0.242,0 -0.325,-0.058 -0.318,-0.31c0.017,-0.651 0.025,-1.3 0,-1.953c-0.013,-0.309 0.108,-0.342 0.369,-0.341q4.319,0.012 8.638,0.005c2.865,0 5.729,0.005 8.594,-0.007c0.3,-0.003 0.419,0.046 0.401,0.387l0,0.002z" class="a"/>
   <path id="svg_3" fill="#ff7d00" d="m28.29301,40.55102c-4.895,0.013 -9.79,0 -14.684,0.019c-0.414,0 -0.489,-0.125 -0.487,-0.5c0.016,-2.65 0,-5.3 0.016,-7.951c0,-0.316 -0.062,-0.408 -0.4,-0.406c-2.317,0.017 -4.634,0 -6.951,0.018c-0.352,0 -0.43,-0.1 -0.415,-0.43a16.854,16.854 0 0 0 0,-1.694c-0.02,-0.375 0.062,-0.506 0.478,-0.5c2.3,0.024 4.605,0.005 6.908,0.019c0.307,0 0.387,-0.077 0.377,-0.38c-0.024,-0.694 -0.028,-1.391 0,-2.085c0.015,-0.375 -0.062,-0.509 -0.481,-0.5c-2.3,0.024 -4.6,0 -6.908,0.019c-0.311,0 -0.387,-0.083 -0.374,-0.383c0.025,-0.593 0.028,-1.188 0,-1.781c-0.016,-0.34 0.081,-0.432 0.425,-0.43c2.317,0.016 4.634,0 6.951,0.015c0.295,0 0.4,-0.059 0.387,-0.373c-0.025,-0.723 -0.024,-1.448 0,-2.172c0.011,-0.33 -0.067,-0.439 -0.421,-0.436c-2.3,0.018 -4.605,0 -6.907,0.016c-0.318,0 -0.457,-0.048 -0.435,-0.412a16.008,16.008 0 0 0 0,-1.737c-0.016,-0.332 0.069,-0.431 0.418,-0.428c2.317,0.017 4.634,0 6.951,0.016c0.291,0 0.394,-0.053 0.393,-0.372q-0.018,-5.409 0,-10.818c0,-0.275 -0.058,-0.367 -0.352,-0.363c-1.39,0.017 -2.781,0.021 -4.171,0c-0.38,-0.006 -0.51,0.071 -0.506,0.486c0.022,2.4 0,4.808 0.022,7.212c0,0.4 -0.115,0.469 -0.484,0.468c-2.548,-0.011 -5.1,0 -7.645,0.007l0,29.805l18.462,0c3.3,0 6.6,-0.005 9.906,0.009c0.329,0 0.405,-0.083 0.4,-0.4c-0.022,-1.028 -0.031,-2.057 0,-3.084c0.018,-0.414 -0.106,-0.475 -0.473,-0.474z" class="a"/>
   <path id="svg_4" fill="#ff7d00" d="m20.87401,5.56202c0.362,0 0.419,-0.117 0.417,-0.439c-0.013,-1.707 0,-3.415 0,-5.123l-0.087,0c-0.024,0.138 -0.148,0.2 -0.234,0.285q-2.437,2.445 -4.879,4.886c-0.1,0.1 -0.246,0.184 -0.277,0.381c1.707,0 3.383,-0.012 5.06,0.01z" class="a"/>
   <path id="svg_5" fill="#ff7d00" d="m5.12001,12.08602c0.375,0 0.445,-0.11 0.44,-0.458c-0.021,-1.417 -0.009,-2.835 -0.009,-4.253l0,-0.771a0.722,0.722 0 0 0 -0.377,0.282q-2.428,2.421 -4.852,4.845c-0.1,0.1 -0.167,0.233 -0.322,0.261l0,0.087c1.707,-0.002 3.414,-0.015 5.12,0.007z" class="a"/>
  </g>
 </g>
</svg>