<svg id="Componente_13_1" data-name="Componente 13 – 1" xmlns="http://www.w3.org/2000/svg" width="17.009" height="25.413" viewBox="0 0 17.009 25.413">
  <path id="Caminho_9326" data-name="Caminho 9326" d="M625.549,1082.4q-2.474-2.471-4.945-4.945a1.293,1.293,0,0,0-.307-.239H608.869a.689.689,0,0,0-.085.484c0,2.183,0,20.977,0,23.16h1.767c0-1.708,0-20.028,0-21.736,0-.178.038-.232.226-.232q4.034.01,8.067,0c.217,0,.23.081.23.256-.006,1.513,0,3.025-.009,4.538,0,.207.045.261.257.259,1.513-.01,3.025,0,4.538-.011.209,0,.259.048.258.258q-.012,4.118-.005,8.235c0,2.717,0,5.434.006,8.151,0,.233-.055.287-.287.286-2.245-.006-12.8-.006-15.047,0v1.765c2.737,0,13.787,0,16.524,0a.69.69,0,0,0,.485-.085V1082.7A1.3,1.3,0,0,0,625.549,1082.4Zm-4.668-.139c-.147,0-.136-.079-.136-.176,0-.641,0-1.282,0-1.878l2.056,2.051C622.194,1082.256,621.537,1082.252,620.881,1082.259Z" transform="translate(-608.779 -1077.214)" fill="#ff7d00"/>
  <path id="Caminho_9327" data-name="Caminho 9327" d="M725.81,1237.994a.735.735,0,0,1,.95.409c.112.416.355.409.666.384.093-.008.187,0,.28,0h.532c.368,0,.384-.019.309-.4a2.526,2.526,0,0,0-1.5-1.92c-.1-.044-.167-.076-.169-.211,0-.275.128-.664-.053-.8s-.555-.036-.844-.038H725.9c-.222.005-.521-.074-.646.039-.149.133-.045.438-.043.667a.335.335,0,0,1-.228.372,2.52,2.52,0,0,0,1.009,4.8.846.846,0,0,1,.866,1.01.856.856,0,0,1-.792.669.828.828,0,0,1-.813-.634.231.231,0,0,0-.278-.209c-.373.014-.746,0-1.119,0s-.384.02-.31.4a2.529,2.529,0,0,0,1.5,1.919c.1.045.166.078.168.212,0,.275-.128.664.054.8s.555.035.844.038h.112c.213-.005.5.07.619-.038.142-.129.03-.42.047-.641a.141.141,0,0,0,0-.028.311.311,0,0,1,.224-.37,2.517,2.517,0,0,0,.7-4.091,2.462,2.462,0,0,0-1.734-.717.861.861,0,0,1-.861-.759A.843.843,0,0,1,725.81,1237.994Z" transform="translate(-714.92 -1223.546)" fill="#ff7d00"/>
  <path id="Caminho_9328" data-name="Caminho 9328" d="M685.531,1192.568c.182,0,.236-.045.229-.229-.014-.41-.014-.822,0-1.232.006-.184-.047-.231-.229-.229-.747.011-1.494,0-2.24,0-1.932,0-3.865,0-5.8-.005-.209,0-.268.047-.258.258.019.391.019.785,0,1.176-.01.211.05.26.258.258,1.335-.011,2.67-.005,4.005-.005S684.186,1192.56,685.531,1192.568Z" transform="translate(-672.108 -1182.368)" fill="#ff7d00"/>
  <path id="Caminho_9329" data-name="Caminho 9329" d="M659.755,1146.2c.174,0,.22-.043.214-.215-.013-.429-.011-.859,0-1.288,0-.149-.042-.185-.187-.185q-2.394.008-4.789,0c-.148,0-.189.04-.185.186.009.429.013.859,0,1.288-.006.176.044.216.216.214.784-.01,1.568,0,2.352,0S658.962,1146.191,659.755,1146.2Z" transform="translate(-651.36 -1139.474)" fill="#ff7d00"/>
</svg>
