<svg width="44" height="43.973" xmlns="http://www.w3.org/2000/svg">

 <g>
  <title>Layer 1</title>
  <g id="svg_1">
   <path id="svg_2" fill="#ff7d00" d="m43.33496,24.23901q-9.944,4.969 -19.884,9.943c-1.551,0.776 -1.426,0.759 -2.968,-0.012q-9.959,-4.985 -19.924,-9.959c-0.173,-0.086 -0.337,-0.231 -0.558,-0.155l0,18.974a1.759,1.759 0 0 0 0.944,0.944l42.07,0c0.749,-0.191 0.985,-0.5 0.986,-1.318q0,-9.013 0,-18.026c-0.001,-0.722 -0.002,-0.723 -0.666,-0.391z" class="a"/>
   <path id="svg_3" fill="#ff7d00" d="m8.69796,25.14501a0.586,0.586 0 0 0 0.381,0.615q6.29,3.127 12.566,6.279a0.69,0.69 0 0 0 0.7,-0.009q6.269,-3.148 12.549,-6.273a0.59,0.59 0 0 0 0.364,-0.629c-0.012,-3.191 -0.008,-6.382 -0.008,-9.573q0,-7 0,-13.994c0,-1.048 -0.486,-1.546 -1.5,-1.546l-11.762,0c-3.906,0 -7.813,0.022 -11.719,-0.015a1.452,1.452 0 0 0 -1.576,1.578q0.028,11.783 0.005,23.567zm12.336,-19.244a0.39,0.39 0 0 0 0.26,-0.42c-0.016,-0.328 -0.011,-0.658 0,-0.987a1.3,1.3 0 0 1 1.2,-1.279a1.285,1.285 0 0 1 1.323,1.046a3.94,3.94 0 0 1 0.034,0.983c-0.006,0.23 0.07,0.291 0.291,0.284a3.256,3.256 0 0 1 0.854,0.035a1.273,1.273 0 0 1 -0.245,2.523c-0.357,0.009 -0.715,0 -1.073,0s-0.715,-0.006 -1.073,0a1.035,1.035 0 0 0 -0.049,2.06a3.493,3.493 0 0 1 3.326,2.489a3.605,3.605 0 0 1 -1.768,4.336a0.394,0.394 0 0 0 -0.261,0.421c0.017,0.328 0.013,0.658 0,0.987a1.285,1.285 0 1 1 -2.562,-0.027c0,-0.313 0.106,-0.712 -0.045,-0.918c-0.163,-0.223 -0.585,-0.053 -0.892,-0.081a1.287,1.287 0 0 1 0.082,-2.572c0.686,-0.012 1.373,0 2.06,0a0.9,0.9 0 0 0 0.981,-0.988a0.925,0.925 0 0 0 -0.945,-1.071a3.427,3.427 0 0 1 -3.346,-2.78a3.507,3.507 0 0 1 1.849,-4.041l-0.001,0zm-3.69,17.724q2.616,0 5.232,0q2.594,0 5.188,0a1.289,1.289 0 1 1 0.006,2.564q-5.21,0.006 -10.42,0a1.287,1.287 0 1 1 -0.006,-2.563l0,-0.001z" class="a"/>
   <path id="svg_4" fill="#ff7d00" d="m6.17396,19.96802c0,-0.29 -0.12,-0.212 -0.283,-0.13c-1.41,0.707 -2.822,1.409 -4.317,2.154l4.6,2.3c-0.002,-1.499 -0.006,-2.911 0,-4.324z" class="a"/>
   <path id="svg_5" fill="#ff7d00" d="m38.05595,24.16501c1.417,-0.714 2.838,-1.419 4.341,-2.169c-1.5,-0.749 -2.923,-1.454 -4.34,-2.167c-0.2,-0.1 -0.274,-0.1 -0.273,0.153q0.009,2.013 0,4.026c0,0.243 0.07,0.257 0.272,0.157z" class="a"/>
  </g>
 </g>
</svg>