<svg id="Componente_16_1" data-name="Componente 16 – 1" xmlns="http://www.w3.org/2000/svg" width="20.254" height="23.157" viewBox="0 0 20.254 23.157">
  <path id="Caminho_9306" data-name="Caminho 9306" d="M587.28,228.377a.791.791,0,0,0-.6.394,9.62,9.62,0,0,1-9.162,3.676c-.116-.017-.168-.057-.163-.185.01-.294,0-.588,0-.881a2.767,2.767,0,0,0-.057-.65,1.1,1.1,0,0,0-1.259-.9,1.611,1.611,0,0,0-.9.518q-1.906,1.9-3.8,3.805a2.13,2.13,0,0,0-.638,1.867,2.285,2.285,0,0,0,.7,1.329q1.556,1.56,3.118,3.116a4.49,4.49,0,0,0,1.438,1.159h.5a1.313,1.313,0,0,0,.9-1.367c.006-.316.011-.633,0-.949,0-.132.029-.184.167-.195a11.726,11.726,0,0,0,1.183-.155,11.158,11.158,0,0,0,5.243-2.441,11.342,11.342,0,0,0,4.063-7.355A.685.685,0,0,0,587.28,228.377Zm-2.371,5.121a10.041,10.041,0,0,1-4.372,3.513,10.206,10.206,0,0,1-3.793.773.687.687,0,0,0-.743.744c0,.48,0,.96-.049,1.477a1.834,1.834,0,0,0-.133-.167q-1.709-1.712-3.42-3.421a.841.841,0,0,1,.007-1.4q1.694-1.695,3.387-3.39a2.361,2.361,0,0,0,.154-.188l.053.036c0,.466,0,.932,0,1.4a.728.728,0,0,0,.665.794,10.736,10.736,0,0,0,2.755.261,10.881,10.881,0,0,0,6.3-2.262.713.713,0,0,1,.279-.179A9.286,9.286,0,0,1,584.909,233.5Z" transform="translate(-567.768 -218.47)" fill="#ff7d00"/>
  <path id="Caminho_9307" data-name="Caminho 9307" d="M516.957,18.977c.108.014.16.053.153.172-.009.173,0,.346,0,.583a4.766,4.766,0,0,0,.031.749,1.154,1.154,0,0,0,2.014.75c1.375-1.3,2.687-2.661,4.024-4a2.1,2.1,0,0,0,.631-1.566,2.254,2.254,0,0,0-.727-1.6q-1.723-1.713-3.438-3.434c-.171-.17-.34-.343-.525-.5a1.13,1.13,0,0,0-1.947.641,5.487,5.487,0,0,0-.059,1.327c0,.145-.044.2-.184.206a10.377,10.377,0,0,0-1.139.147,11.048,11.048,0,0,0-5.036,2.26,11.328,11.328,0,0,0-4.276,7.474.752.752,0,0,0,.133.6.718.718,0,0,0,1.165-.1A9.477,9.477,0,0,1,516.957,18.977Zm-8.249.819a.353.353,0,0,1-.22.122c.1-.217.176-.422.274-.618a10.072,10.072,0,0,1,8.973-5.659.7.7,0,0,0,.751-.764c0-.471,0-.941,0-1.412l.072-.048a.86.86,0,0,0,.1.169q1.707,1.712,3.418,3.42a.846.846,0,0,1,0,1.4q-1.7,1.7-3.4,3.4a1.3,1.3,0,0,0-.128.178l-.063-.049c0-.444,0-.888,0-1.333a.748.748,0,0,0-.7-.853,10.435,10.435,0,0,0-2.732-.257A10.9,10.9,0,0,0,508.707,19.8Z" transform="translate(-506.464 -9.789)" fill="#ff7d00"/>
</svg>
