<svg id="Componente_22_1" data-name="Componente 22 – 1" xmlns="http://www.w3.org/2000/svg" width="269.51" height="246.664" viewBox="0 0 269.51 246.664">
  <g id="Grupo_7696" data-name="Grupo 7696" transform="translate(91.796 43.264)">
    <path id="Caminho_9408" data-name="Caminho 9408" d="M1454.708,923.954l-9.563,1.661c-4.231,3.569-8.041,11.334-5.776,16.385l19.429,36.033a15.553,15.553,0,0,0,11.605,8.973l42.22,3.875,2.482-19.245-37.6-7.065Z" transform="translate(-1438.693 -923.954)" fill="#ff7d00"/>
  </g>
  <g id="Grupo_7692" data-name="Grupo 7692" transform="translate(166.033 93.543)">
    <path id="Caminho_9409" data-name="Caminho 9409" d="M2428.089,1592.818l9.152,2.112,6.087,10.628s1.659,3.675-2.8,2.422c0,0,.461,4.817-3.04,2.627.291,1.373-.021,3.914-2.785,2.242l-3.008-4.973-5.446-.783Z" transform="translate(-2426.248 -1592.818)" fill="#fdd8a9"/>
  </g>
  <g id="Grupo_7693" data-name="Grupo 7693" transform="translate(173.339 104.809)">
    <path id="Caminho_9410" data-name="Caminho 9410" d="M2527.375,1749.595a.381.381,0,0,1-.33-.19l-3.551-6.141a.381.381,0,0,1,.659-.381l3.551,6.141a.381.381,0,0,1-.329.572Z" transform="translate(-2523.442 -1742.692)" fill="#142448"/>
  </g>
  <g id="Grupo_7694" data-name="Grupo 7694" transform="translate(175.295 95.423)">
    <path id="Caminho_9417" data-name="Caminho 9417" d="M2549.971,1617.826l7.115,1.344a1.909,1.909,0,0,1,1.542,2.1h0a1.909,1.909,0,0,1-2.118,1.674l-7.041-.824Z" transform="translate(-2549.469 -1617.826)" fill="#fdd8a9"/>
  </g>
  <g id="Grupo_7695" data-name="Grupo 7695" transform="translate(170.842 99.568)">
    <path id="Caminho_9418" data-name="Caminho 9418" d="M2490.608,1680.463a.381.381,0,0,1-.134-.737c3.41-1.282,5.827-6.494,5.851-6.546a.381.381,0,0,1,.391-.22l2.478.29a.381.381,0,0,1-.089.757l-2.207-.258c-.546,1.109-2.861,5.453-6.156,6.691A.378.378,0,0,1,2490.608,1680.463Z" transform="translate(-2490.227 -1672.957)" fill="#142448"/>
  </g>
  <g id="Grupo_7588" data-name="Grupo 7588" transform="translate(479.196 1284.438) rotate(-135)">
    <g id="Grupo_7587" data-name="Grupo 7587" transform="translate(965.32 581.721)">
      <g id="Grupo_7585" data-name="Grupo 7585" transform="translate(0 0)">
        <path id="Caminho_9289" data-name="Caminho 9289" d="M1203.1,559.977l-9.062-4,7.217-16.33,5.224,2.309a4.2,4.2,0,0,1,2.142,5.534Z" transform="translate(-1191.779 -539.642)" fill="#fbc343"/>
        <rect id="Retângulo_3100" data-name="Retângulo 3100" width="6.126" height="9.908" transform="translate(3.303 13.957) rotate(-66.158)" fill="#6f3428" opacity="0.3"/>
        <path id="Caminho_9290" data-name="Caminho 9290" d="M1263.807,625.192l-2.141-.943-76.058-33.614,4.7-10.636,75.75,33.474,2.448,1.084A12.354,12.354,0,0,1,1263.807,625.192Z" transform="translate(-1185.608 -569.201)" fill="#fbc343"/>
        <path id="Caminho_9291" data-name="Caminho 9291" d="M1472,716.819l-2.14-.943a60.745,60.745,0,0,1,4.395-10.777l2.448,1.084A12.354,12.354,0,0,1,1472,716.819Z" transform="translate(-1393.8 -660.827)" fill="#bb9132"/>
        <g id="Grupo_7584" data-name="Grupo 7584" transform="translate(77.323 34.328)">
          <path id="Caminho_9292" data-name="Caminho 9292" d="M1485.927,715.284c-8.274-3.657-12.471-13.2-11.083-23.3a30.066,30.066,0,0,1,6.389-14.753c6.531-8.065,16.566-11.519,24.96-7.809,10.458,4.622,14.408,18.63,8.809,31.3S1496.385,719.905,1485.927,715.284Z" transform="translate(-1474.583 -667.936)" fill="#fbc343"/>
          <ellipse id="Elipse_1004" data-name="Elipse 1004" cx="15.364" cy="12.692" rx="15.364" ry="12.692" transform="translate(3.66 33.337) rotate(-66.158)" fill="#fff"/>
          <path id="Caminho_9293" data-name="Caminho 9293" d="M1528.24,733.452a9.97,9.97,0,0,1-1.246-.658c6.141,1.8,13.292-2.169,16.486-9.4s1.317-15.2-4.146-18.527a9.957,9.957,0,0,1,1.326.479c6.41,2.833,8.824,11.419,5.392,19.185S1534.65,736.285,1528.24,733.452Z" transform="translate(-1512.969 -694.987)" fill="#bb9132"/>
        </g>
      </g>
    </g>
  </g>
  <g id="Grupo_7691" data-name="Grupo 7691" transform="translate(-217.544 -348.426)">
    <g id="Grupo_7645" data-name="Grupo 7645" transform="translate(260.857 353.7)">
      <path id="Caminho_9403" data-name="Caminho 9403" d="M842.89,418.574a16.947,16.947,0,0,1-16.371,7.079c-11.065-1.467-25.978-4.025-31.27,8.559s3.777,25.9,19.127,23.173,31.963-2.416,35.122-29.674Z" transform="translate(-793.731 -418.574)" fill="#272626"/>
    </g>
    <g id="Grupo_7646" data-name="Grupo 7646" transform="translate(279.724 428.581)">
      <path id="Caminho_9404" data-name="Caminho 9404" d="M1044.717,1414.7l31,77.479-1.73,73.786h29.833l.391-82.482a13.8,13.8,0,0,0-.252-4.843L1076.8,1414.7Z" transform="translate(-1044.717 -1414.705)" fill="#272626"/>
    </g>
    <g id="Grupo_7647" data-name="Grupo 7647" transform="translate(314.07 579.845)">
      <path id="Caminho_9405" data-name="Caminho 9405" d="M1501.612,3426.956v14.865h21.781a1.349,1.349,0,0,0,1.053-2.192l-4.192-5.24v-7.432Z" transform="translate(-1501.612 -3426.956)" fill="#ff7d00"/>
    </g>
    <g id="Grupo_7648" data-name="Grupo 7648" transform="translate(232.038 568.677)">
      <path id="Caminho_9406" data-name="Caminho 9406" d="M416.25,3278.379l-5.892,13.647,20,8.633a1.349,1.349,0,0,0,1.836-1.595l-1.772-6.473,2.946-6.823Z" transform="translate(-410.358 -3278.379)" fill="#ff7d00"/>
    </g>
    <g id="Grupo_7649" data-name="Grupo 7649" transform="translate(232.776 427.191)">
      <path id="Caminho_9407" data-name="Caminho 9407" d="M491.317,1401.627l-10.9,70.513-29.2,76.73-31.042-10.946,31.042-73.22,7.9-68.489Z" transform="translate(-420.171 -1396.216)" fill="#272626"/>
    </g>
    <g id="Grupo_7653" data-name="Grupo 7653" transform="translate(270.656 379.847)">
      <path id="Caminho_9411" data-name="Caminho 9411" d="M953.643,767.213l-.678-.2c-7.207-2.1-14.625,1.44-16.719,7.968l-12.158,37.9,45.747,13.3-.056-13.267,10.064-26.294c1.747-6.007-2.169-12.427-8.746-14.34Z" transform="translate(-924.088 -766.413)" fill="#ff7d00"/>
    </g>
    <g id="Grupo_7654" data-name="Grupo 7654" transform="translate(304.165 368.297)">
      <path id="Caminho_9412" data-name="Caminho 9412" d="M1374.106,612.763l-3.952,13.59a7.775,7.775,0,0,0,5.3,9.637h0a7.775,7.775,0,0,0,9.637-5.3l2.737-9.412Z" transform="translate(-1369.844 -612.763)" fill="#fdd8a9"/>
    </g>
    <g id="Grupo_7655" data-name="Grupo 7655" transform="translate(306.987 350.066)">
      <path id="Caminho_9413" data-name="Caminho 9413" d="M1407.387,381.932l2.108-6.843c3.151-4.031,5.146-5.1,7.529-4.8l9.637,2.8L1425.2,378.1Z" transform="translate(-1407.387 -370.239)" fill="#272626"/>
    </g>
    <g id="Grupo_7656" data-name="Grupo 7656" transform="translate(321.667 355.675)">
      <circle id="Elipse_1173" data-name="Elipse 1173" cx="5.064" cy="5.064" r="5.064" transform="translate(0 7.162) rotate(-45)" fill="#272626"/>
    </g>
    <g id="Grupo_7657" data-name="Grupo 7657" transform="translate(307.16 356.115)">
      <path id="Caminho_9414" data-name="Caminho 9414" d="M1417.452,474.317h0a10.758,10.758,0,0,1-7.326-13.333l2.987-10.273,20.659,6.007-2.987,10.273A10.757,10.757,0,0,1,1417.452,474.317Z" transform="translate(-1409.696 -450.71)" fill="#fdd8a9"/>
    </g>
    <g id="Grupo_7658" data-name="Grupo 7658" transform="translate(307.021 354.518)">
      <ellipse id="Elipse_1174" data-name="Elipse 1174" cx="5.636" cy="3.041" rx="5.636" ry="3.041" transform="translate(0 10.824) rotate(-73.787)" fill="#272626"/>
    </g>
    <g id="Grupo_7659" data-name="Grupo 7659" transform="translate(307.646 348.515)">
      <circle id="Elipse_1175" data-name="Elipse 1175" cx="5.725" cy="5.725" r="5.725" transform="translate(0 8.096) rotate(-45)" fill="#272626"/>
    </g>
    <g id="Grupo_7660" data-name="Grupo 7660" transform="translate(304.419 359.902)">
      <ellipse id="Elipse_1176" data-name="Elipse 1176" cx="3.765" cy="3.775" rx="3.765" ry="3.775" transform="translate(0 7.231) rotate(-73.798)" fill="#fdd8a9"/>
    </g>
    <g id="Grupo_7661" data-name="Grupo 7661" transform="translate(312.47 378.669)">
      <path id="Caminho_9415" data-name="Caminho 9415" d="M1489.193,751.662a12.521,12.521,0,0,1-8.868-.924,10.69,10.69,0,0,0,8.333,2.764Z" transform="translate(-1480.325 -750.738)" fill="#142448"/>
    </g>
    <g id="Grupo_7662" data-name="Grupo 7662" transform="translate(217.544 594.301)">
      <path id="Caminho_9416" data-name="Caminho 9416" d="M378.113,3620.05h0c-53.143-.037-107.038-.037-160.188,0h0a.381.381,0,0,1,0-.762c53.15-.037,107.046-.037,160.189,0a.381.381,0,0,1,0,.762Z" transform="translate(-217.544 -3619.261)" fill="#142448"/>
    </g>
    <g id="Grupo_7665" data-name="Grupo 7665" transform="translate(315.967 404.844)">
      <path id="Caminho_9419" data-name="Caminho 9419" d="M1527.227,1120.83a.381.381,0,0,1-.359-.509l7.521-21.132a.381.381,0,1,1,.718.255l-7.521,21.133A.381.381,0,0,1,1527.227,1120.83Z" transform="translate(-1526.846 -1098.935)" fill="#142448"/>
    </g>
    <g id="Grupo_7666" data-name="Grupo 7666" transform="translate(275.523 447.994)">
      <path id="Caminho_9420" data-name="Caminho 9420" d="M1011.054,1698.979a.38.38,0,0,1-.288-.132l-21.846-25.26a.381.381,0,0,1,.576-.5l21.846,25.26a.381.381,0,0,1-.288.63Z" transform="translate(-988.827 -1672.957)" fill="#142448"/>
    </g>
    <g id="Grupo_7667" data-name="Grupo 7667" transform="translate(312.832 449.968)">
      <path id="Caminho_9421" data-name="Caminho 9421" d="M1505.028,1829.481a.381.381,0,0,1-.381-.38l-.138-85.167-19.329-44.177a.381.381,0,0,1,.7-.305l19.361,44.25a.38.38,0,0,1,.032.152l.138,85.246a.381.381,0,0,1-.38.381Z" transform="translate(-1485.148 -1699.223)" fill="#fff"/>
    </g>
    <g id="Grupo_7668" data-name="Grupo 7668" transform="translate(244.729 477.697)">
      <path id="Caminho_9422" data-name="Caminho 9422" d="M579.562,2162.55a.381.381,0,0,1-.351-.528l31.518-75.276L609.4,2068.5a.381.381,0,0,1,.76-.055l1.336,18.339a.381.381,0,0,1-.029.175l-31.553,75.36A.381.381,0,0,1,579.562,2162.55Z" transform="translate(-579.181 -2068.09)" fill="#fff"/>
    </g>
    <g id="Grupo_7669" data-name="Grupo 7669" transform="translate(248.719 378.938)">
      <path id="Caminho_9423" data-name="Caminho 9423" d="M688.626,762.942l-6.108-6.836a12.407,12.407,0,0,0-14.856,1.516l-30.428,28.2a15.553,15.553,0,0,0-4.784,13.868l9.85,41.238,19.257-2.174-5.578-39.516Z" transform="translate(-632.254 -754.314)" fill="#ff7d00"/>
    </g>
    <g id="Grupo_7670" data-name="Grupo 7670" transform="translate(258.243 463.706)">
      <path id="Caminho_9424" data-name="Caminho 9424" d="M776.085,1881.974l.786,7.9-8.119,9.171s-2.95,2.749-3.192-1.879c0,0-4.415,1.98-3.462-2.039-1.208.716-3.715,1.234-3.016-1.92l3.748-4.442-.966-5.212Z" transform="translate(-758.962 -1881.974)" fill="#fdd8a9"/>
    </g>
    <g id="Grupo_7671" data-name="Grupo 7671" transform="translate(260.999 471.795)">
      <path id="Caminho_9425" data-name="Caminho 9425" d="M796,1995.02a.381.381,0,0,1-.286-.632l4.111-4.682a.381.381,0,1,1,.572.5l-4.111,4.682A.38.38,0,0,1,796,1995.02Z" transform="translate(-795.62 -1989.577)" fill="#142448"/>
    </g>
    <g id="Grupo_7672" data-name="Grupo 7672" transform="translate(264.461 473.91)">
      <path id="Caminho_9426" data-name="Caminho 9426" d="M842.054,2023.088a.381.381,0,0,1-.28-.639l4.242-4.6a.381.381,0,0,1,.56.516l-4.242,4.6A.38.38,0,0,1,842.054,2023.088Z" transform="translate(-841.673 -2017.721)" fill="#142448"/>
    </g>
    <g id="Grupo_7673" data-name="Grupo 7673" transform="translate(267.08 405.188)">
      <path id="Caminho_9427" data-name="Caminho 9427" d="M882.322,1125.685a.379.379,0,0,1-.136-.025l-5.421-2.083a.381.381,0,1,1,.273-.711l5.2,2,22.485-21.236a.381.381,0,0,1,.523.554l-22.659,21.4A.381.381,0,0,1,882.322,1125.685Z" transform="translate(-876.52 -1103.523)" fill="#142448"/>
    </g>
    <g id="Grupo_7674" data-name="Grupo 7674" transform="translate(316.643 348.426)">
      <circle id="Elipse_1177" data-name="Elipse 1177" cx="5.936" cy="5.936" r="5.936" transform="translate(0 8.394) rotate(-45)" fill="#272626"/>
    </g>
    <g id="Grupo_7675" data-name="Grupo 7675" transform="translate(324.659 351.53)">
      <circle id="Elipse_1178" data-name="Elipse 1178" cx="5.24" cy="5.24" r="5.24" transform="translate(0 7.41) rotate(-45)" fill="#272626"/>
    </g>
    <g id="Grupo_7676" data-name="Grupo 7676" transform="translate(309.143 421.866)">
      <path id="Caminho_9428" data-name="Caminho 9428" d="M1443.273,1330.249a.378.378,0,0,1-.2-.055l-6.824-4.11a.381.381,0,0,1,.393-.652l6.824,4.11a.381.381,0,0,1-.2.707Z" transform="translate(-1436.069 -1325.377)" fill="#142448"/>
    </g>
    <g id="Grupo_7677" data-name="Grupo 7677" transform="translate(300.159 447.134)">
      <path id="Caminho_9429" data-name="Caminho 9429" d="M1335.858,1666.508a.386.386,0,0,1-.084-.009l-18.922-4.232a.381.381,0,1,1,.166-.743l18.922,4.232a.381.381,0,0,1-.083.753Z" transform="translate(-1316.554 -1661.514)" fill="#fff"/>
    </g>
    <g id="Grupo_7678" data-name="Grupo 7678" transform="translate(275.904 427.848)">
      <path id="Caminho_9430" data-name="Caminho 9430" d="M993.894,1404.958l42.386,16-1.886-4.226Z" transform="translate(-993.894 -1404.958)" fill="#142448"/>
    </g>
    <g id="Grupo_7679" data-name="Grupo 7679" transform="translate(371.3 508.364)">
      <rect id="Retângulo_3121" data-name="Retângulo 3121" width="83.079" height="8.388" rx="4.194" transform="translate(0.381 0.381)" fill="#fff"/>
      <path id="Caminho_9431" data-name="Caminho 9431" d="M2343,2485.205h-76.28a3.785,3.785,0,0,1-3.781-3.78v-1.588a3.785,3.785,0,0,1,3.781-3.781H2343a3.785,3.785,0,0,1,3.781,3.781v1.588A3.785,3.785,0,0,1,2343,2485.205Zm-76.28-8.387a3.022,3.022,0,0,0-3.019,3.019v1.588a3.022,3.022,0,0,0,3.019,3.019H2343a3.022,3.022,0,0,0,3.019-3.019v-1.588a3.022,3.022,0,0,0-3.019-3.019Z" transform="translate(-2262.935 -2476.056)" fill="#142448"/>
    </g>
    <g id="Grupo_7680" data-name="Grupo 7680" transform="translate(449.406 447.554)">
      <path id="Caminho_9432" data-name="Caminho 9432" d="M3307.412,1728.264,3336.093,1674a3.4,3.4,0,0,1,4.594-1.417l1.4.742a3.4,3.4,0,0,1,1.417,4.594l-28.681,54.263a3.4,3.4,0,0,1-4.594,1.417l-1.4-.742A3.4,3.4,0,0,1,3307.412,1728.264Z" transform="translate(-3306.637 -1671.807)" fill="#fff"/>
      <path id="Caminho_9433" data-name="Caminho 9433" d="M3307.146,1729.677a3.763,3.763,0,0,1-1.762-.44l-1.4-.742a3.785,3.785,0,0,1-1.576-5.109l.337.178-.337-.178,28.681-54.263a3.781,3.781,0,0,1,5.109-1.576l1.4.742a3.78,3.78,0,0,1,1.576,5.109l-28.681,54.263a3.756,3.756,0,0,1-2.228,1.846A3.8,3.8,0,0,1,3307.146,1729.677Zm27.285-61.808a3.031,3.031,0,0,0-.894.135,3,3,0,0,0-1.779,1.474l-28.681,54.263a3.022,3.022,0,0,0,1.258,4.08l1.4.742a3.019,3.019,0,0,0,4.08-1.258l28.681-54.263a3.019,3.019,0,0,0-1.258-4.08l-1.4-.742A3,3,0,0,0,3334.431,1667.869Z" transform="translate(-3301.967 -1667.107)" fill="#142448"/>
    </g>
    <g id="Grupo_7681" data-name="Grupo 7681" transform="translate(463.241 464.559)">
      <path id="Caminho_9434" data-name="Caminho 9434" d="M3488.216,1931.015a2.436,2.436,0,0,1-1.141-.284l-.855-.452a.381.381,0,1,1,.356-.673l.855.452a1.691,1.691,0,0,0,2.283-.7l17.462-33.037a1.691,1.691,0,0,0-.7-2.282.381.381,0,1,1,.356-.673,2.454,2.454,0,0,1,1.021,3.312l-17.462,33.037A2.453,2.453,0,0,1,3488.216,1931.015Z" transform="translate(-3486.017 -1893.317)" fill="#142448"/>
    </g>
    <g id="Grupo_7682" data-name="Grupo 7682" transform="translate(378.457 516.752)">
      <path id="Caminho_9435" data-name="Caminho 9435" d="M2428.025,2670.25h-58.395l-6.424-77.549h68.766Z" transform="translate(-2362.825 -2592.32)" fill="#fff"/>
      <path id="Caminho_9436" data-name="Caminho 9436" d="M2423.339,2665.945h-58.395a.381.381,0,0,1-.379-.35l-6.425-77.549a.381.381,0,0,1,.38-.412h68.766a.381.381,0,0,1,.38.4l-3.947,77.549A.381.381,0,0,1,2423.339,2665.945Zm-58.044-.762h57.682l3.908-76.788h-67.951Z" transform="translate(-2358.139 -2587.634)" fill="#142448"/>
    </g>
    <g id="Grupo_7683" data-name="Grupo 7683" transform="translate(418.605 594.301)">
      <path id="Caminho_9437" data-name="Caminho 9437" d="M2932.928,3620.02H2892.6a.381.381,0,0,1,0-.762h40.323a.381.381,0,0,1,0,.762Z" transform="translate(-2892.224 -3619.258)" fill="#142448"/>
    </g>
    <g id="Grupo_7688" data-name="Grupo 7688" transform="translate(386.872 532.598)">
      <g id="Grupo_7684" data-name="Grupo 7684">
        <path id="Caminho_9438" data-name="Caminho 9438" d="M2477.792,2860.9a.381.381,0,0,1-.381-.381v-58.038a3.284,3.284,0,1,0-6.567,0v58.038a.381.381,0,1,1-.761,0v-58.038a4.045,4.045,0,1,1,8.091,0v58.038A.381.381,0,0,1,2477.792,2860.9Z" transform="translate(-2470.082 -2798.437)" fill="#142448"/>
      </g>
      <g id="Grupo_7685" data-name="Grupo 7685" transform="translate(15.015)">
        <path id="Caminho_9439" data-name="Caminho 9439" d="M2677.54,2860.9a.381.381,0,0,1-.381-.381v-58.038a3.284,3.284,0,1,0-6.567,0v58.038a.381.381,0,0,1-.762,0v-58.038a4.045,4.045,0,0,1,8.091,0v58.038A.381.381,0,0,1,2677.54,2860.9Z" transform="translate(-2669.83 -2798.437)" fill="#142448"/>
      </g>
      <g id="Grupo_7686" data-name="Grupo 7686" transform="translate(30.031)">
        <path id="Caminho_9440" data-name="Caminho 9440" d="M2877.288,2860.929a.381.381,0,0,1-.381-.381v-58.066a3.284,3.284,0,1,0-6.567,0v58.038a.381.381,0,0,1-.762,0v-58.038a4.045,4.045,0,0,1,8.091,0v58.066A.381.381,0,0,1,2877.288,2860.929Z" transform="translate(-2869.578 -2798.437)" fill="#142448"/>
      </g>
      <g id="Grupo_7687" data-name="Grupo 7687" transform="translate(44.607)">
        <path id="Caminho_9441" data-name="Caminho 9441" d="M3071.188,2860.929a.381.381,0,0,1-.381-.381v-58.066a3.284,3.284,0,1,0-6.567,0v58.066a.381.381,0,0,1-.762,0v-58.066a4.045,4.045,0,0,1,8.091,0v58.066A.381.381,0,0,1,3071.188,2860.929Z" transform="translate(-3063.478 -2798.437)" fill="#142448"/>
      </g>
    </g>
    <g id="Grupo_7689" data-name="Grupo 7689" transform="translate(383.598 523.618)">
      <path id="Caminho_9442" data-name="Caminho 9442" d="M2490.191,2679.74h-63.275a.381.381,0,0,1,0-.761h63.275a.381.381,0,1,1,0,.761Z" transform="translate(-2426.536 -2678.978)" fill="#142448"/>
    </g>
    <g id="Grupo_7690" data-name="Grupo 7690" transform="translate(346.021 431.925)">
      <path id="Caminho_9443" data-name="Caminho 9443" d="M1927.033,1463.5a.381.381,0,0,1-.341-.55l1.755-3.543a.381.381,0,0,1,.682.338l-1.755,3.542A.381.381,0,0,1,1927.033,1463.5Z" transform="translate(-1926.652 -1459.199)" fill="#142448"/>
    </g>
  </g>
</svg>
