<svg id="Componente_17_1" data-name="Componente 17 – 1" xmlns="http://www.w3.org/2000/svg" width="21.105" height="21.103" viewBox="0 0 21.105 21.103">
  <path id="Caminho_9308" data-name="Caminho 9308" d="M29.27,675.353l-.082.033V668.1a6.248,6.248,0,0,1,.156.851,7.929,7.929,0,0,0,.868,2.322.411.411,0,0,1,.038.343q-.5,1.778-.984,3.559C29.251,675.232,29.18,675.3,29.27,675.353Z" transform="translate(-29.188 -659.263)" fill="#fff"/>
  <path id="Caminho_9309" data-name="Caminho 9309" d="M395.289,944.13l.033.082h-6.211c.3-.054.595-.1.89-.164a6.108,6.108,0,0,0,1.8-.682.453.453,0,0,1,.38-.042q1.462.411,2.927.81C395.168,944.148,395.231,944.22,395.289,944.13Z" transform="translate(-374.262 -923.108)" fill="#fff"/>
  <path id="Caminho_9310" data-name="Caminho 9310" d="M29.188,638.171a.238.238,0,0,1,0,.288Z" transform="translate(-29.188 -630.568)" fill="#1a1b1e"/>
  <path id="Caminho_9311" data-name="Caminho 9311" d="M364.185,964.313a.185.185,0,0,1,.247,0Z" transform="translate(-350.365 -943.209)" fill="#18191c"/>
  <g id="Grupo_7592" data-name="Grupo 7592">
    <path id="Caminho_9312" data-name="Caminho 9312" d="M49.411,471.815a.358.358,0,0,1,.028-.3,6.71,6.71,0,0,0,.791-4.292,6.6,6.6,0,0,0-2.5-4.416,6.283,6.283,0,0,0-2.2-1.178.286.286,0,0,1-.226-.275c-.025-.2-.034-.409-.069-.612a8.04,8.04,0,0,0-4.479-6.08,6.769,6.769,0,0,0-2.979-.772,9.8,9.8,0,0,0-1.906.069,7.886,7.886,0,0,0-6.688,7.232v.288a.422.422,0,0,1,0,.288v.947a.088.088,0,0,1,.021.056,5.528,5.528,0,0,0,.673,2.563A1.883,1.883,0,0,1,30,466.947c-.284.873-.5,1.767-.739,2.655-.031.117-.1.249-.01.374a.066.066,0,0,0,.019-.006c1.26-.349,2.521-.7,3.779-1.05a.238.238,0,0,1,.206.036,7.988,7.988,0,0,0,3.438,1.033c.153.011.2.067.241.2a6.783,6.783,0,0,0,5.358,4.7,1.88,1.88,0,0,1,.469.089h.247a.314.314,0,0,1,.247,0h.782a1.164,1.164,0,0,1,.363-.026,6.066,6.066,0,0,0,2.291-.733.6.6,0,0,1,.487-.052c.88.257,1.766.5,2.652.734.129.035.269.108.4,0a.7.7,0,0,0-.052-.321C49.925,473.665,49.674,472.738,49.411,471.815Zm-15.879-4.15a.456.456,0,0,0-.415-.059c-.7.2-1.4.389-2.122.587.2-.734.4-1.449.6-2.161a.374.374,0,0,0-.052-.34,6.709,6.709,0,0,1-1.115-3.94,6.8,6.8,0,1,1,8.1,6.886A6.7,6.7,0,0,1,33.532,467.665Zm14.49,4.007c.147.488.274.983.416,1.5-.528-.145-1.035-.275-1.536-.425a.4.4,0,0,0-.378.061,5.464,5.464,0,0,1-3.212.935,5.6,5.6,0,0,1-5.081-3.593c-.058-.155-.04-.208.129-.231a7.767,7.767,0,0,0,4.084-1.842,8.014,8.014,0,0,0,2.734-4.843c.061-.35.065-.357.388-.213a5.481,5.481,0,0,1,3.368,4.306,5.358,5.358,0,0,1-.849,3.91A.468.468,0,0,0,48.022,471.672Z" transform="translate(-29.188 -453.88)" fill="#ff7d00"/>
    <path id="Caminho_9314" data-name="Caminho 9314" d="M38.4,819.483c-.046-.134-.089-.19-.241-.2a7.988,7.988,0,0,1-3.438-1.033.238.238,0,0,0-.206-.036c-1.259.354-2.519.7-3.779,1.05a.07.07,0,0,1-.019.006l.008.011a2.8,2.8,0,0,0,.776-.178q1.427-.388,2.851-.789a.54.54,0,0,1,.45.044,7.306,7.306,0,0,0,1.3.571,8.054,8.054,0,0,0,1.986.406.306.306,0,0,1,.3.254,6.652,6.652,0,0,0,1.937,2.976,6.876,6.876,0,0,0,2.352,1.394,5.815,5.815,0,0,0,1.559.317,1.885,1.885,0,0,0-.469-.089A6.783,6.783,0,0,1,38.4,819.483Z" transform="translate(-30.649 -803.172)" fill="#ff7d00"/>
    <path id="Caminho_9315" data-name="Caminho 9315" d="M169,546.456a2.475,2.475,0,0,0-4.925.178c-.011.121.022.152.139.15.315-.007.631-.008.946,0,.13,0,.168-.031.179-.166a1.228,1.228,0,0,1,1.33-1.063,1.234,1.234,0,0,1,.693,2.146c-.3.28-.589.578-.913.828-.41.316-.674.671-.527,1.117,0,.3.01.511,0,.716-.009.142.044.171.174.167.3-.009.6-.014.9,0,.165.008.193-.054.185-.2-.012-.212,0-.425-.005-.637a.27.27,0,0,1,.1-.23q.452-.4.9-.817A2.481,2.481,0,0,0,169,546.456Z" transform="translate(-158.505 -540.578)" fill="#ff7d00"/>
    <path id="Caminho_9316" data-name="Caminho 9316" d="M209.485,724.351c-.123-.134-.411-.036-.627-.041-.19,0-.446-.066-.554.03-.126.112-.033.373-.038.568s-.071.477.033.593c.12.134.4.022.572.041h.076c.183,0,.43.062.534-.031.121-.108.034-.359.037-.548C209.523,724.753,209.592,724.468,209.485,724.351Z" transform="translate(-200.851 -713.124)" fill="#ff7d00"/>
  </g>
</svg>
