<svg id="Componente_14_1" data-name="Componente 14 – 1" xmlns="http://www.w3.org/2000/svg" width="20.95" height="20.947" viewBox="0 0 20.95 20.947">
  <path id="Caminho_9317" data-name="Caminho 9317" d="M57.566,17.631a6.285,6.285,0,0,1-.268.929,3.241,3.241,0,0,1-.667.992c-1.123,1.123-2.225,2.27-3.39,3.348a3.153,3.153,0,0,1-3.634.545,12.861,12.861,0,0,1-1.518-.783.819.819,0,0,1,.335-1.526.921.921,0,0,1,.579.155,12.916,12.916,0,0,0,1.284.659,1.607,1.607,0,0,0,1.9-.3q1.639-1.6,3.249-3.23a1.582,1.582,0,0,0,.333-1.842,10.209,10.209,0,0,0-1.989-3.2,9.56,9.56,0,0,0-3.409-2.252,1.675,1.675,0,0,0-2.075.4l-2.973,2.956a1.65,1.65,0,0,0-.361,2.128c.2.411.412.81.635,1.206a.844.844,0,0,1-.161,1.158q-3.521,3.522-7.045,7.041a.425.425,0,0,0-.138.337c.007.688.006,1.377,0,2.066,0,.121.011.179.16.176.552-.01,1.1-.009,1.657,0,.135,0,.154-.046.152-.163-.006-.436,0-.873,0-1.309a.8.8,0,0,1,.806-.82c.443-.007.886-.008,1.329,0,.127,0,.161-.031.158-.157-.008-.436-.005-.873,0-1.309a.8.8,0,0,1,.821-.826q1.145-.008,2.291,0a.8.8,0,0,1,.815.832.809.809,0,0,1-.828.8c-.436,0-.873.006-1.309,0-.126,0-.16.03-.157.157.009.436.006.873,0,1.309a.807.807,0,0,1-.823.827c-.423,0-.845.007-1.268,0-.15,0-.21.024-.2.194.014.415.006.832,0,1.247a.811.811,0,0,1-.86.853q-1.759,0-3.518,0a.809.809,0,0,1-.858-.854c0-1.159,0-2.318,0-3.477a.983.983,0,0,1,.311-.745q1.681-1.674,3.356-3.354Q42,20.08,43.729,18.362c.136-.134.173-.224.068-.4a6.076,6.076,0,0,1-.479-1.009,3.205,3.205,0,0,1,.783-3.562c1.022-1.05,2.072-2.074,3.115-3.1A3.162,3.162,0,0,1,49.21,9.32a6.836,6.836,0,0,1,.687-.014,2.373,2.373,0,0,1,1.03.211,12.146,12.146,0,0,1,3.138,1.808,10.484,10.484,0,0,1,2.467,2.938,13.1,13.1,0,0,1,.889,1.881,2,2,0,0,1,.125.78,2.088,2.088,0,0,0,.021.46Z" transform="translate(-36.616 -9.285)" fill="#ff7d00"/>
  <path id="Caminho_9319" data-name="Caminho 9319" d="M283.053,8.944a.033.033,0,0,0,.007.037l-.754,0c0-.012.007-.023.011-.035Z" transform="translate(-269.713 -8.944)" fill="#ff7d00"/>
  <path id="Caminho_9320" data-name="Caminho 9320" d="M444.457,157.127l.034.014v.491A1.148,1.148,0,0,1,444.457,157.127Z" transform="translate(-423.541 -149.531)" fill="#ff7d00"/>
  <path id="Caminho_9321" data-name="Caminho 9321" d="M302.972,97.779a1.309,1.309,0,1,1,1.32-1.291A1.3,1.3,0,0,1,302.972,97.779Z" transform="translate(-288.089 -90.742)" fill="#ff7d00"/>
</svg>
