<svg id="Componente_15_1" data-name="Componente 15 – 1" xmlns="http://www.w3.org/2000/svg" width="21.117" height="19.911" viewBox="0 0 21.117 19.911">
  <g id="Grupo_7595" data-name="Grupo 7595" transform="translate(1.204)">
    <path id="Caminho_9322" data-name="Caminho 9322" d="M1142.245,624.112a5.969,5.969,0,0,1-.254.883,3.08,3.08,0,0,1-.634.943c-1.068,1.068-2.115,2.157-3.222,3.182a3,3,0,0,1-3.454.518,12.248,12.248,0,0,1-1.443-.744.778.778,0,0,1,.319-1.451.876.876,0,0,1,.55.148,12.279,12.279,0,0,0,1.221.627,1.528,1.528,0,0,0,1.807-.288q1.557-1.522,3.088-3.07a1.5,1.5,0,0,0,.317-1.751,9.7,9.7,0,0,0-1.89-3.042,9.089,9.089,0,0,0-3.241-2.141,1.592,1.592,0,0,0-1.973.385l-2.826,2.81a1.569,1.569,0,0,0-.343,2.023c.186.39.392.77.6,1.146a.8.8,0,0,1-.153,1.1q-3.347,3.348-6.7,6.692a.4.4,0,0,0-.131.32c.007.654.005,1.309,0,1.964,0,.115.011.17.152.168.525-.01,1.05-.009,1.575,0,.129,0,.146-.043.145-.155-.006-.415,0-.829,0-1.244a.759.759,0,0,1,.766-.779c.421-.006.843-.007,1.264,0,.12,0,.153-.029.15-.15-.008-.415-.005-.829,0-1.244a.759.759,0,0,1,.78-.785q1.089-.008,2.177,0a.76.76,0,0,1,.774.791.769.769,0,0,1-.787.763c-.415,0-.83.006-1.244,0-.12,0-.152.028-.15.149.008.415.005.829,0,1.244a.768.768,0,0,1-.782.787c-.4,0-.8.007-1.205,0-.143,0-.2.022-.194.184.014.395.006.79,0,1.186a.771.771,0,0,1-.817.811q-1.672,0-3.344,0a.769.769,0,0,1-.816-.812c0-1.1,0-2.2,0-3.3a.935.935,0,0,1,.3-.708q1.6-1.591,3.19-3.188c1.091-1.091,2.179-2.184,3.275-3.268.129-.128.165-.213.064-.383a5.769,5.769,0,0,1-.455-.959,3.047,3.047,0,0,1,.744-3.386c.972-1,1.97-1.971,2.961-2.95a3.005,3.005,0,0,1,1.9-.916,6.488,6.488,0,0,1,.653-.013,2.253,2.253,0,0,1,.979.2,11.542,11.542,0,0,1,2.983,1.718,9.968,9.968,0,0,1,2.345,2.793,12.467,12.467,0,0,1,.844,1.788,1.9,1.9,0,0,1,.119.741,1.983,1.983,0,0,0,.02.438Z" transform="translate(-1122.331 -616.179)" fill="#ff7d00"/>
    <path id="Caminho_9323" data-name="Caminho 9323" d="M1368.731,615.837a.032.032,0,0,0,.006.035l-.716,0c0-.011.006-.022.01-.033Z" transform="translate(-1356.05 -615.837)" fill="#ff7d00"/>
    <path id="Caminho_9324" data-name="Caminho 9324" d="M1530.171,764.02l.032.013v.467A1.089,1.089,0,0,1,1530.171,764.02Z" transform="translate(-1510.29 -756.8)" fill="#ff7d00"/>
    <path id="Caminho_9325" data-name="Caminho 9325" d="M1388.623,704.541a1.244,1.244,0,1,1,1.255-1.227A1.237,1.237,0,0,1,1388.623,704.541Z" transform="translate(-1374.476 -697.852)" fill="#ff7d00"/>
  </g>
  <rect id="Retângulo_3104" data-name="Retângulo 3104" width="2.619" height="6.377" transform="translate(1.879 4.031)" fill="#ff7d00"/>
  <rect id="Retângulo_3105" data-name="Retângulo 3105" width="2.619" height="6.377" transform="translate(6.377 5.911) rotate(90)" fill="#ff7d00"/>
</svg>
