<svg id="Componente_21_1" data-name="Componente 21 – 1" xmlns="http://www.w3.org/2000/svg" width="231.667" height="392.062" viewBox="0 0 231.667 392.062">
  <g id="Grupo_7583" data-name="Grupo 7583" transform="translate(0 99.49)">
    <path id="Caminho_9259" data-name="Caminho 9259" d="M990.527,909.574s-11.5,6.712-9.9,11.5l6.895,1.288Z" transform="translate(-973.306 -834.241)" fill="#102048"/>
    <g id="Grupo_7579" data-name="Grupo 7579" transform="translate(0 60.97)">
      <g id="Grupo_7578" data-name="Grupo 7578">
        <path id="Caminho_9260" data-name="Caminho 9260" d="M974.9,881.465l-6.5,4.194c-1.447.283-4.978-1.8-7-5.991l-.008,0a5.688,5.688,0,0,1-1.136-.9,2.315,2.315,0,0,1-.649-2.063,2.18,2.18,0,0,1,1.19-1.588c.073-1.613.494-2.795,1.981-2.685-.018-1.493.8-2.473,3.465-2.328-.224-2.141.868-2.659,2.66-2.316a6.607,6.607,0,0,1,3.423,1.893c.27.274.527.552.769.83a7.727,7.727,0,0,1,.857,1.21,8.624,8.624,0,0,1,1.193,4.893Z" transform="translate(-959.564 -867.689)" fill="#f9b384"/>
        <g id="Grupo_7572" data-name="Grupo 7572" transform="translate(6.592 1.952)">
          <path id="Caminho_9261" data-name="Caminho 9261" d="M984.553,878.8l-1.725-1.875a3.571,3.571,0,0,1-2.868.251,2.114,2.114,0,0,1-1.127-1.2l-.046-.145,2.312-1.955a4.986,4.986,0,0,1,3.223-.409l-.1.446a4.661,4.661,0,0,0-2.841.319l-2.058,1.741a1.668,1.668,0,0,0,.826.784,3.27,3.27,0,0,0,2.637-.319l.151-.07,1.949,2.119Z" transform="translate(-978.787 -873.381)" fill="#e28b6d"/>
        </g>
        <g id="Grupo_7573" data-name="Grupo 7573" transform="translate(1.764 11.148)">
          <path id="Caminho_9262" data-name="Caminho 9262" d="M966.077,901.485a4.689,4.689,0,0,1-1.368-.237l.135-.436c1.374.424,2.188.247,2.813-.613l.369.268A2.262,2.262,0,0,1,966.077,901.485Z" transform="translate(-964.709 -900.199)" fill="#e28b6d"/>
        </g>
        <g id="Grupo_7574" data-name="Grupo 7574" transform="translate(4.191 5.168)">
          <path id="Caminho_9263" data-name="Caminho 9263" d="M976.391,888.51a4.025,4.025,0,0,1-2.132-.968,9.519,9.519,0,0,1-2.473-2.844l.4-.219a9.232,9.232,0,0,0,2.336,2.69c1.479,1.044,1.983,1.037,2.617.62a.314.314,0,0,0,.144-.227c.079-.481-.5-1.352-.709-1.619a19.115,19.115,0,0,1-1.834-3.023l.427-.161a19.226,19.226,0,0,0,1.771,2.91c.09.115.921,1.2.795,1.967a.773.773,0,0,1-.344.535A1.778,1.778,0,0,1,976.391,888.51Z" transform="translate(-971.786 -882.759)" fill="#e28b6d"/>
        </g>
        <g id="Grupo_7575" data-name="Grupo 7575" transform="translate(2.604 9.437)">
          <path id="Caminho_9264" data-name="Caminho 9264" d="M967.158,895.208" transform="translate(-967.158 -895.208)" fill="none" stroke="#ae5140" stroke-width="0.898"/>
        </g>
        <g id="Grupo_7576" data-name="Grupo 7576" transform="translate(2.451 9.238)">
          <path id="Caminho_9265" data-name="Caminho 9265" d="M969.683,896.886a3.443,3.443,0,0,1-2.887-1.772c-.037-.055-.064-.1-.082-.117l.266-.366c.065.038.1.093.194.228.447.66,1.807,2.668,4.737.811l.244.385A4.749,4.749,0,0,1,969.683,896.886Z" transform="translate(-966.713 -894.63)" fill="#e28b6d"/>
        </g>
        <g id="Grupo_7577" data-name="Grupo 7577" transform="translate(9.916 6.08)">
          <path id="Caminho_9266" data-name="Caminho 9266" d="M989.188,889.372a2.492,2.492,0,0,1-.707-.116l.132-.437a1.144,1.144,0,0,0,1.174-.121c.646-.627.325-2.494.146-3.161l.441-.118c.029.108.7,2.665-.269,3.606A1.263,1.263,0,0,1,989.188,889.372Z" transform="translate(-988.481 -885.42)" fill="#e28b6d"/>
        </g>
      </g>
      <path id="Caminho_9267" data-name="Caminho 9267" d="M991.214,909.043l-8.1,7.527-2.16-3.729-2.615-4.526-1.2-2.075-.754-1.3,9.464-4.912.214.369,1.74,2.923.017.017Z" transform="translate(-970.615 -888.936)" fill="#f9b384"/>
    </g>
    <path id="Caminho_9268" data-name="Caminho 9268" d="M1185.72,830.624l-2.735,22.409-15.9-.694.969-6.172,1.012-6.438.223-1.423Z" transform="translate(-1095.922 -782.364)" fill="#f9b384"/>
    <path id="Caminho_9269" data-name="Caminho 9269" d="M1181.275,856.449s-2.649,5.392-11.367,6.687l1.012-6.438Z" transform="translate(-1097.779 -799.333)" fill="#102048"/>
    <path id="Caminho_9270" data-name="Caminho 9270" d="M1368.533,707.461c.421-7.525,1.644-13.924,4.822-17.574l13.716,5.894c-2.179,7.008-5.531,12.979-9.108,18.753Z" transform="translate(-1228.293 -689.887)" fill="#f9b384"/>
    <path id="Caminho_9271" data-name="Caminho 9271" d="M1349.837,1212.913l18.431-.214,3,30.862c-4.36-4.07-7.954-9.9-10.93-17.146l-12.431-4.286Z" transform="translate(-1214.741 -1033.421)" fill="#ee6f57"/>
    <path id="Caminho_9272" data-name="Caminho 9272" d="M1129.822,1434.076,1137,1455.61l-21.778,15.847c.8-5.911,3.484-12.212,7.677-18.828l-3.685-12.622Z" transform="translate(-1061.842 -1178.886)" fill="#ee6f57"/>
    <path id="Caminho_9273" data-name="Caminho 9273" d="M1078.326,1108.551l14.574,61.3-21.432,7.715-19.52-52.637a44.089,44.089,0,0,1-1.757-24.689l13.133-60.7,3-13.716,22.289,5.144,3.823,28.659.463,3.489-7.27,22.666Z" transform="translate(-1018.456 -910.628)" fill="#1f3c88"/>
    <path id="Caminho_9274" data-name="Caminho 9274" d="M1155.911,1116.915l-8.894,27.647c-5.144-16.683,1.608-36.863,1.608-36.863l6.824,5.727Z" transform="translate(-1081.467 -964.427)" fill="#102048" opacity="0.6"/>
    <path id="Caminho_9275" data-name="Caminho 9275" d="M1154.164,1039.683l17.146,52.865,29.147-1.429-2.572,26-32.806,3.859a14.921,14.921,0,0,1-15.378-8.759l-35.543-79.971,37.72-1.429Z" transform="translate(-1061.146 -913.913)" fill="#1f3c88"/>
    <path id="Caminho_9276" data-name="Caminho 9276" d="M1159,778.886c4.552-2.66,6.8-6.73,6.532-11.21a12.692,12.692,0,0,0-10.64-11.64c-4.58-.729-9.872.3-15.614,2.451-10.688-8.2-21.226,12.043-3.236,17.237Z" transform="translate(-1069.146 -733.201)" fill="#102048"/>
    <path id="Caminho_9277" data-name="Caminho 9277" d="M1177.062,799.133s-3.095,12.233-15.74,12.019c-5.667-.094-7.827-3.506-8.487-7.244a21.378,21.378,0,0,1,.009-6.5,25.762,25.762,0,0,1,.643-3.206l-.506-7.15,7.578-4.355,15.431,3.146Z" transform="translate(-1086.398 -750.873)" fill="#f9b384"/>
    <path id="Caminho_9278" data-name="Caminho 9278" d="M1171.513,788.928c1-3-.143-6.5-4.143-7.93-5.3,3.216-13.288,2.715-19.575-.357l-.929-2.286,4.858-4.644,13.145-1.429,10.073,3.858.286,6-.857,5Z" transform="translate(-1082.638 -744.029)" fill="#102048"/>
    <path id="Caminho_9279" data-name="Caminho 9279" d="M1099.83,1036.378c14.915,4.774,29.279,5.085,42.923-.44l3.412-11.557-45.125,1.981Z" transform="translate(-1051.731 -909.68)" fill="#102048" opacity="0.6"/>
    <path id="Caminho_9280" data-name="Caminho 9280" d="M1146.129,906.719l-3.644,33.219A72.686,72.686,0,0,1,1128.2,942.3a45.75,45.75,0,0,1-7.39-.171,31.9,31.9,0,0,1-12.019-3.643,29.185,29.185,0,0,1-3.386-2.186l6.67-26.8v-.026l2.409-9.687,1.423-5.709,11.247-11.35c3.215,2.9,9.541,3.309,15.868.634l.463,3.5Z" transform="translate(-1055.397 -816.598)" fill="#fff"/>
    <path id="Caminho_9281" data-name="Caminho 9281" d="M1189.809,914.637l-3.643,33.219a72.692,72.692,0,0,1-14.282,2.358c.887-10.93,2.722-36.3,13.1-54.437l2.182-1Z" transform="translate(-1099.077 -824.516)" fill="#1f3c88" opacity="0.3"/>
    <g id="Grupo_7580" data-name="Grupo 7580" transform="translate(69.407 70.297)" opacity="0.3">
      <path id="Caminho_9282" data-name="Caminho 9282" d="M1161.97,894.887a8.783,8.783,0,0,0,3.739,3.734,10.413,10.413,0,0,0,5.06,1.01,17.533,17.533,0,0,0,5.21-1.023,29.6,29.6,0,0,0,4.958-2.328,15.234,15.234,0,0,1-4.58,3.257,14.3,14.3,0,0,1-5.55,1.379,9.819,9.819,0,0,1-5.6-1.431A7.3,7.3,0,0,1,1161.97,894.887Z" transform="translate(-1161.97 -894.887)" fill="#1f3c88"/>
    </g>
    <path id="Caminho_9283" data-name="Caminho 9283" d="M1127.3,945.8a31.9,31.9,0,0,1-12.019-3.643c.8-6.284,2.323-20.215,3.283-28.984v-.026c.5-4.526.832-7.681.832-7.681l1.577-2.006,11.925-15.139C1133.946,909.807,1131.511,933.245,1127.3,945.8Z" transform="translate(-1061.885 -820.278)" fill="#1f3c88" opacity="0.3"/>
    <path id="Caminho_9284" data-name="Caminho 9284" d="M1045.366,882.724c-.532,18.509-7.321,56.5-13.605,69.928-6.532-.137-18.611-1.2-22.932-3.069l14.359-39.649a215.64,215.64,0,0,1-19.323,12.5c-3.883,2.16-9.456,1.5-11.9-2.212l-11.033-16.794a17.341,17.341,0,0,0,2.486-1.552c3.361-2.495,5.624-6,7.407-9.944l11.145,13.288L1021,889.488a16.562,16.562,0,0,1,7.407-3.506Z" transform="translate(-973.605 -816.598)" fill="#708cd5"/>
    <path id="Caminho_9285" data-name="Caminho 9285" d="M1193.987,784.949c-8.894,14.788-11.573,44.948-10.733,67.477,13.073,1.786,23.361-7.287,23.361-7.287l2.464-36.434,23.59-22.317a44.52,44.52,0,0,0,7.688-10.281l18.551-34.163-13.288-9.037L1223.9,767.342,1210.683,781.1a13.641,13.641,0,0,1-10.63,4.167Z" transform="translate(-1106.452 -718.156)" fill="#708cd5"/>
    <path id="Caminho_9286" data-name="Caminho 9286" d="M1221.764,816.45a5.867,5.867,0,0,1-5.5,4.786c-2.295,0-2.271-1.941-2.271-4.687s1.834-5.1,4.129-5.1S1222.242,813.264,1221.764,816.45Z" transform="translate(-1126.746 -769.764)" fill="#f9b384"/>
    <g id="Grupo_7581" data-name="Grupo 7581" transform="translate(46.608 84.408)">
      <rect id="Retângulo_3098" data-name="Retângulo 3098" width="17.114" height="0.857" transform="translate(0 16.183) rotate(-71.016)" fill="#1f3c88"/>
    </g>
    <g id="Grupo_7582" data-name="Grupo 7582" transform="translate(101.56 79.8)">
      <rect id="Retângulo_3099" data-name="Retângulo 3099" width="19.347" height="0.856" transform="matrix(0.077, -0.997, 0.997, 0.077, 0, 19.289)" fill="#1f3c88"/>
    </g>
    <path id="Caminho_9287" data-name="Caminho 9287" d="M991.582,909.574c-.009.009-.009.026-.017.034a25.036,25.036,0,0,1-6.867,9.507l-2.615-4.526,9.464-5Z" transform="translate(-974.361 -834.241)" fill="#e28b6d" opacity="0.6"/>
    <path id="Caminho_9288" data-name="Caminho 9288" d="M1221.089,819.4a2.805,2.805,0,0,1-.353-1.613,2.517,2.517,0,0,1,.713-1.6,1.85,1.85,0,0,1,1.747-.541,2.1,2.1,0,0,1,1.322,1.074l-.26.212a2.4,2.4,0,0,0-1.188-.544,1.281,1.281,0,0,0-1.022.406,2.347,2.347,0,0,0-.6,1.1,3.932,3.932,0,0,0-.047,1.39Z" transform="translate(-1131.171 -772.489)" fill="#102048"/>
  </g>
  <g id="Grupo_7587" data-name="Grupo 7587" transform="translate(77.513)">
    <g id="Grupo_7585" data-name="Grupo 7585" transform="translate(0 47.97)">
      <path id="Caminho_9289" data-name="Caminho 9289" d="M1205.647,565.7l-11.614-5.132,9.249-20.927,6.695,2.959a5.38,5.38,0,0,1,2.745,7.092Z" transform="translate(-1191.144 -539.642)" fill="#fbc343"/>
      <rect id="Retângulo_3100" data-name="Retângulo 3100" width="7.85" height="12.697" transform="translate(4.233 17.887) rotate(-66.158)" fill="#6f3428" opacity="0.3"/>
      <path id="Caminho_9290" data-name="Caminho 9290" d="M1285.824,637.917l-2.743-1.209-97.472-43.078L1191.635,580l97.078,42.9,3.138,1.389A15.832,15.832,0,0,1,1285.824,637.917Z" transform="translate(-1185.608 -566.16)" fill="#fbc343"/>
      <path id="Caminho_9291" data-name="Caminho 9291" d="M1472.6,720.119l-2.743-1.209a77.867,77.867,0,0,1,5.632-13.811l3.138,1.389A15.832,15.832,0,0,1,1472.6,720.119Z" transform="translate(-1372.386 -648.362)" fill="#bb9132"/>
      <g id="Grupo_7584" data-name="Grupo 7584" transform="translate(99.093 43.993)">
        <path id="Caminho_9292" data-name="Caminho 9292" d="M1489.121,728.615c-10.6-4.687-15.982-16.913-14.2-29.856a38.532,38.532,0,0,1,8.188-18.907c8.37-10.335,21.23-14.762,31.988-10.008,13.4,5.923,18.465,23.875,11.289,40.113S1502.524,734.537,1489.121,728.615Z" transform="translate(-1474.583 -667.936)" fill="#fbc343"/>
        <ellipse id="Elipse_1004" data-name="Elipse 1004" cx="19.69" cy="16.266" rx="19.69" ry="16.266" transform="translate(4.69 42.723) rotate(-66.158)" fill="#fff"/>
        <path id="Caminho_9293" data-name="Caminho 9293" d="M1528.59,741.5a12.767,12.767,0,0,1-1.6-.844c7.87,2.3,17.035-2.78,21.128-12.043s1.688-19.474-5.313-23.743a12.763,12.763,0,0,1,1.7.613c8.215,3.63,11.309,14.634,6.91,24.587S1536.805,745.13,1528.59,741.5Z" transform="translate(-1509.021 -692.205)" fill="#bb9132"/>
      </g>
    </g>
    <g id="Grupo_7586" data-name="Grupo 7586" transform="translate(59.119)">
      <rect id="Retângulo_3101" data-name="Retângulo 3101" width="6.001" height="38.909" rx="3" transform="translate(0 0.275) rotate(-2.626)" fill="#fbc343"/>
      <rect id="Retângulo_3102" data-name="Retângulo 3102" width="38.909" height="6.001" rx="3" transform="matrix(0.82, -0.573, 0.573, 0.82, 38.721, 51.85)" fill="#fbc343"/>
      <path id="Caminho_9294" data-name="Caminho 9294" d="M1426.737,446.986h0a3.009,3.009,0,0,1-1.7-3.889l15.231-38.841a3.009,3.009,0,0,1,3.889-1.7h0a3.009,3.009,0,0,1,1.7,3.889l-15.231,38.841A3.009,3.009,0,0,1,1426.737,446.986Z" transform="translate(-1401.919 -401.46)" fill="#fbc343"/>
    </g>
  </g>
</svg>
