<svg width="55.046" height="50.919" xmlns="http://www.w3.org/2000/svg">

 <g>
  <title>Layer 1</title>
  <g id="svg_1">
   <path id="svg_2" fill="#ff7d00" d="m32.42999,9.68999l-0.033,-0.174l-0.027,0.032c0.018,0.046 0.04,0.094 0.06,0.142z" class="a"/>
   <path id="svg_3" fill="#ff7d00" d="m54.959,31.44398a2.38,2.38 0 0 0 -2.142,-1.812a2.863,2.863 0 0 0 -1.942,0.613q-9.015,5.945 -18.033,11.884a0.878,0.878 0 0 1 -1.11,0.021c-1.821,-1.16 -3.673,-2.272 -5.5,-3.428a2.155,2.155 0 0 0 -1.3,-0.356c-1.36,0.053 -2.721,0.076 -4.081,0.109a1.939,1.939 0 0 1 -0.481,-0.016a0.428,0.428 0 0 1 -0.375,-0.453a0.413,0.413 0 0 1 0.39,-0.379a2.628,2.628 0 0 1 0.375,-0.011q7.815,-0.165 15.63,-0.332a2.215,2.215 0 0 0 1.771,-0.86a2.162,2.162 0 0 0 0.311,-2.362a2.393,2.393 0 0 0 -2.13,-1.386c-2.026,-0.213 -4.05,-0.448 -6.074,-0.68c-2.042,-0.234 -4.082,-0.478 -6.124,-0.713c-2.326,-0.267 -4.657,-0.5 -6.978,-0.8a13.118,13.118 0 0 0 -6.14,0.511c-3.693,1.3 -7.353,2.691 -11.027,4.044l0,12.361a13.764,13.764 0 0 1 2.388,-1.89a10.606,10.606 0 0 1 7.97,-0.608q8.817,2.84 17.607,5.763a4.079,4.079 0 0 0 3.939,-0.6q9.871,-7.17 19.76,-14.315c0.8,-0.577 1.6,-1.144 2.383,-1.739a2.381,2.381 0 0 0 0.913,-2.566z" class="a"/>
   <path id="svg_4" fill="#ff7d00" d="m39.47499,34.49999a8.972,8.972 0 0 1 -0.269,2.421l9.271,-6.092a3.012,3.012 0 0 0 -3.921,-1.023l-6.3,2.616a3.929,3.929 0 0 1 1.219,2.078z" class="a"/>
   <path id="svg_5" fill="#ff7d00" d="m32.01499,41.33799a0.4,0.4 0 0 0 0.518,-0.018q2.362,-1.567 4.733,-3.12l-0.023,-0.094l-9.892,0.21c1.55,1.081 3.112,2.044 4.664,3.022z" class="a"/>
   <path id="svg_6" fill="#ff7d00" d="m29.98799,27.08699a13.545,13.545 0 1 0 -13.546,-13.544a13.532,13.532 0 0 0 13.546,13.544zm-1.931,-21.172a0.487,0.487 0 0 0 0.325,-0.525c-0.02,-0.41 -0.013,-0.823 0,-1.234a1.627,1.627 0 0 1 1.5,-1.6a1.608,1.608 0 0 1 1.655,1.308a4.926,4.926 0 0 1 0.043,1.229c-0.007,0.288 0.088,0.363 0.363,0.355a4.086,4.086 0 0 1 1.068,0.043a1.593,1.593 0 0 1 -0.306,3.156c-0.447,0.011 -0.895,0 -1.342,0s-0.895,-0.008 -1.342,0a1.3,1.3 0 0 0 -0.061,2.576a4.369,4.369 0 0 1 4.16,3.113a4.509,4.509 0 0 1 -2.212,5.423a0.493,0.493 0 0 0 -0.327,0.526c0.021,0.41 0.016,0.823 0,1.234a1.607,1.607 0 1 1 -3.205,-0.033c0,-0.392 0.133,-0.89 -0.056,-1.148c-0.2,-0.278 -0.731,-0.066 -1.116,-0.1a1.61,1.61 0 0 1 -1.543,-1.662a1.594,1.594 0 0 1 1.646,-1.555c0.859,-0.015 1.718,0 2.576,0a1.129,1.129 0 0 0 1.227,-1.236a1.156,1.156 0 0 0 -1.182,-1.339a4.286,4.286 0 0 1 -4.185,-3.478a4.387,4.387 0 0 1 2.313,-5.051l0.001,-0.002zm4.373,3.773c-0.019,-0.048 -0.039,-0.1 -0.061,-0.142l0.027,-0.032l0.034,0.174z" class="a"/>
   <path id="svg_7" fill="#ff7d00" d="m30.215,21.22299l0.026,-0.015a0.383,0.383 0 0 1 -0.064,-0.04l0.038,0.055z" class="a"/>
   <path id="svg_8" fill="#ff7d00" d="m33.01299,15.15199l-0.087,0.086l0,0c0,0.074 0,0.05 0.012,0.092l0.075,-0.178z" class="a"/>
   <path id="svg_9" fill="#ff7d00" d="m29.226,19.62899c0.064,-0.071 0.129,-0.14 0.2,-0.209l-0.039,-0.006c-0.056,0.072 -0.109,0.143 -0.161,0.215z" class="a"/>
   <path id="svg_10" fill="#ff7d00" d="m30.44599,7.19999c-0.013,0.03 -0.026,0.06 -0.04,0.09l0.167,-0.056l-0.127,-0.034z" class="a"/>
   <path id="svg_11" fill="#ff7d00" d="m30.372,8.06699l-0.011,0l0.007,0l0.004,0z" class="a"/>
   <path id="svg_12" fill="#ff7d00" d="m28.038,12.48399l0,0c0,0.063 -0.009,0.125 -0.014,0.187a1.284,1.284 0 0 1 0.136,-0.068c-0.042,-0.041 -0.082,-0.081 -0.122,-0.119z" class="a"/>
  </g>
 </g>
</svg>