<svg xmlns="http://www.w3.org/2000/svg" width="66.838" height="66.844" viewBox="0 0 66.838 66.844">
    <path fill="#f17b00" stroke="#f17b00" d="M64.569 28.639l-.005-.005L37.705 1.775a6.061 6.061 0 0 0-8.573 0L2.287 28.62l-.027.028a6.059 6.059 0 0 0 4.034 10.327c.062.006.125.009.187.009h1.07v19.765a7.1 7.1 0 0 0 7.095 7.094h10.508a1.929 1.929 0 0 0 1.929-1.929v-15.5a3.241 3.241 0 0 1 3.237-3.237h6.2a3.24 3.24 0 0 1 3.237 3.237v15.5a1.929 1.929 0 0 0 1.929 1.929h10.506a7.1 7.1 0 0 0 7.095-7.094V38.984h.993a6.063 6.063 0 0 0 4.29-10.345zm-2.731 5.841a2.19 2.19 0 0 1-1.558.646h-2.922a1.929 1.929 0 0 0-1.929 1.929V58.75a3.24 3.24 0 0 1-3.237 3.236h-8.579V48.418a7.1 7.1 0 0 0-7.095-7.095h-6.2a7.1 7.1 0 0 0-7.1 7.095v13.568h-8.572a3.24 3.24 0 0 1-3.237-3.236V37.055a1.929 1.929 0 0 0-1.929-1.929H6.518A2.2 2.2 0 0 1 5 31.363L31.861 4.5a2.2 2.2 0 0 1 3.116 0l26.852 26.855.013.012a2.208 2.208 0 0 1 0 3.113zm0 0" transform="translate(0 .501)"/>
</svg>
