<svg xmlns="http://www.w3.org/2000/svg" width="66.887" height="65.838" viewBox="0 0 66.887 65.838">
    <path fill="#001f40" d="M55.477 47.017a11.429 11.429 0 0 0-11.24 9.443h-.826a6.7 6.7 0 0 0-6.689 6.689 2.757 2.757 0 0 1-2.754 2.751h-7.344a2.757 2.757 0 0 1-2.754-2.754v-3.075a6.174 6.174 0 0 0 4.2-5.84v-3.114A21.941 21.941 0 0 0 43.8 30.1V18.77a10.608 10.608 0 0 0-6.3-9.668V5.967A1.967 1.967 0 0 0 35.542 4h-4.2a6.164 6.164 0 0 0 0 12.328h4.2a1.967 1.967 0 0 0 1.967-1.967V13.7a6.657 6.657 0 0 1 2.361 5.07V30.1a17.968 17.968 0 1 1-35.935 0V18.77A6.657 6.657 0 0 1 6.3 13.7v.664a1.967 1.967 0 0 0 1.967 1.967h4.2A6.164 6.164 0 1 0 12.459 4h-4.2A1.967 1.967 0 0 0 6.3 5.967V9.1A10.608 10.608 0 0 0 0 18.77V30.1a21.9 21.9 0 0 0 15.738 21.025v3.106a6.174 6.174 0 0 0 4.2 5.84v3.078a6.7 6.7 0 0 0 6.689 6.689h7.344a6.7 6.7 0 0 0 6.689-6.689 2.757 2.757 0 0 1 2.754-2.754h.826a11.41 11.41 0 1 0 11.24-13.377zm-21.9-34.624h-2.23a2.23 2.23 0 1 1 0-4.459h2.23zM10.23 7.935h2.23a2.23 2.23 0 1 1 0 4.459h-2.23zM21.9 56.46a2.232 2.232 0 0 1-2.23-2.23V52h4.459v2.23a2.232 2.232 0 0 1-2.229 2.23zm33.577 9.44a7.476 7.476 0 1 1 7.476-7.476 7.484 7.484 0 0 1-7.476 7.476z" transform="translate(0 -4)"/>
    <path fill="#ff7d00" d="M411.906 405.587a1.966 1.966 0 1 0-1.356 2.266 1.967 1.967 0 0 0 1.356-2.266z" transform="translate(-354.501 -351.543)"/>
</svg>
