<svg height="59.151" viewBox="0 0 65.838 59.151" width="65.838" xmlns="http://www.w3.org/2000/svg"><path d="m247.286 100a1.286 1.286 0 1 0 1.286 1.286 1.286 1.286 0 0 0 -1.286-1.286zm0 0" fill="#001f40" transform="translate(-214.367 -87.141)"/><path d="m81.286 262.572a1.286 1.286 0 1 0 -1.286-1.286 1.286 1.286 0 0 0 1.286 1.286zm0 0" fill="#ff7d00" transform="translate(-69.713 -226.567)"/><path d="m43.206 0c-11.577 0-21.078 7.981-21.813 18.035-11.025.553-21.393 8.503-21.393 19.256a17.968 17.968 0 0 0 5.015 12.3 7.82 7.82 0 0 1 -2.066 7.368 1.286 1.286 0 0 0 .909 2.2 14.184 14.184 0 0 0 9.828-3.972 29.3 29.3 0 0 0 8.946 1.4c11.575 0 21.076-7.98 21.812-18.031a28.915 28.915 0 0 0 7.708-1.372 14.184 14.184 0 0 0 9.828 3.972 1.286 1.286 0 0 0 .909-2.2 7.82 7.82 0 0 1 -2.066-7.368 17.968 17.968 0 0 0 5.015-12.3c0-11.173-11.167-19.288-22.632-19.288zm-20.574 54.007a26 26 0 0 1 -8.81-1.517 1.286 1.286 0 0 0 -1.425.326 11.6 11.6 0 0 1 -5.771 3.425 10.4 10.4 0 0 0 .784-7.654 1.283 1.283 0 0 0 -.314-.543 15.453 15.453 0 0 1 -4.524-10.753c0-9.062 9.186-16.717 20.06-16.717 10.268 0 19.288 7.14 19.288 16.717 0 9.218-8.653 16.717-19.288 16.717zm36.11-23.966a1.289 1.289 0 0 0 -.314.543 10.4 10.4 0 0 0 .784 7.654 11.6 11.6 0 0 1 -5.771-3.425 1.287 1.287 0 0 0 -1.425-.326 25.331 25.331 0 0 1 -7.576 1.485 18.406 18.406 0 0 0 -6.948-12.827h16.773a1.286 1.286 0 1 0 0-2.572h-20.724a23.982 23.982 0 0 0 -9.57-2.534c.739-8.639 9.084-15.468 19.235-15.468 10.874 0 20.06 7.655 20.06 16.717a15.453 15.453 0 0 1 -4.524 10.753zm0 0" fill="#001f40"/><path d="m137.488 260h-16.2a1.286 1.286 0 1 0 0 2.572h16.2a1.286 1.286 0 0 0 0-2.572zm0 0" fill="#ff7d00" transform="translate(-104.569 -226.567)"/><path d="m102.632 320h-21.346a1.286 1.286 0 0 0 0 2.572h21.346a1.286 1.286 0 1 0 0-2.572zm0 0" fill="#ff7d00" transform="translate(-69.713 -278.851)"/><path d="m303.488 100h-16.2a1.286 1.286 0 0 0 0 2.572h16.2a1.286 1.286 0 1 0 0-2.572zm0 0" fill="#001f40" transform="translate(-249.223 -87.141)"/></svg>