<svg xmlns="http://www.w3.org/2000/svg" width="20.186" height="26.882" viewBox="0 0 20.186 26.882">
  <g id="business-and-finance_1_" data-name="business-and-finance (1)" transform="translate(0.05 0.05)">
    <g id="Grupo_6116" data-name="Grupo 6116">
      <g id="Grupo_6115" data-name="Grupo 6115" transform="translate(0)">
        <path id="Caminho_7300" data-name="Caminho 7300" d="M83.923,5.743,78.343.163A.558.558,0,0,0,77.949,0H66.232A2.234,2.234,0,0,0,64,2.232V24.55a2.234,2.234,0,0,0,2.232,2.232H81.855a2.234,2.234,0,0,0,2.232-2.232V6.138A.557.557,0,0,0,83.923,5.743ZM78.507,1.9,82.182,5.58H79.623a1.117,1.117,0,0,1-1.116-1.116ZM82.971,24.55a1.117,1.117,0,0,1-1.116,1.116H66.232a1.117,1.117,0,0,1-1.116-1.116V2.232a1.117,1.117,0,0,1,1.116-1.116H77.391V4.464A2.234,2.234,0,0,0,79.623,6.7h3.348Z" transform="translate(-64)" fill="#272626" stroke="#272626" stroke-width="0.1"/>
        <path id="Caminho_7301" data-name="Caminho 7301" d="M140.833,298.667H128.558a.558.558,0,1,0,0,1.116h12.275a.558.558,0,1,0,0-1.116Z" transform="translate(-124.652 -283.044)" fill="#f27d00"/>
        <path id="Caminho_7302" data-name="Caminho 7302" d="M140.833,234.667H128.558a.558.558,0,1,0,0,1.116h12.275a.558.558,0,1,0,0-1.116Z" transform="translate(-124.652 -222.392)" fill="#f27d00"/>
        <path id="Caminho_7303" data-name="Caminho 7303" d="M140.833,362.667H128.558a.558.558,0,1,0,0,1.116h12.275a.558.558,0,1,0,0-1.116Z" transform="translate(-124.652 -343.696)" fill="#f27d00"/>
        <path id="Caminho_7304" data-name="Caminho 7304" d="M135.253,426.667h-6.7a.558.558,0,0,0,0,1.116h6.7a.558.558,0,0,0,0-1.116Z" transform="translate(-124.652 -404.349)" fill="#f27d00"/>
        <path id="Caminho_7305" data-name="Caminho 7305" d="M234.667,171.224a.558.558,0,0,0,.558.558h6.7a.558.558,0,1,0,0-1.116h-6.7A.558.558,0,0,0,234.667,171.224Z" transform="translate(-225.74 -161.739)" fill="#f27d00"/>
        <path id="Caminho_7306" data-name="Caminho 7306" d="M129.674,79.687h-1.116a.558.558,0,0,0,0,1.116h.558a.558.558,0,1,0,1.116,0v-.1a1.67,1.67,0,0,0-.558-3.245.558.558,0,1,1,0-1.116h1.116a.558.558,0,0,0,0-1.116h-.558a.558.558,0,1,0-1.116,0v.1a1.67,1.67,0,0,0,.558,3.245.558.558,0,0,1,0,1.116Z" transform="translate(-124.652 -70.759)" fill="#ff7d00"/>
      </g>
    </g>
  </g>
</svg>
