<svg height="70.803" viewBox="0 0 70.782 70.803" width="70.782" xmlns="http://www.w3.org/2000/svg"><path d="m191.689 435.109a4.619 4.619 0 1 1 -4.619 4.619 4.619 4.619 0 0 1 4.619-4.619zm0 6.928a2.309 2.309 0 1 0 -2.309-2.309 2.309 2.309 0 0 0 2.309 2.309zm0 0" fill="#001f40" transform="translate(-140.132 -402.065)"/><path d="m21.456 18.6a12.7 12.7 0 1 1 22.5 0 23.627 23.627 0 0 1 2.873.443 10.433 10.433 0 0 1 8.971-5.165 1.154 1.154 0 0 1 1.155 1.154v9.014a23.021 23.021 0 0 1 7.592 12.925h3.953a1.155 1.155 0 0 1 1.155 1.155v9.237a1.155 1.155 0 0 1 -1.155 1.155h-4.546a23.225 23.225 0 0 1 -10.463 13.073v6.558a1.155 1.155 0 0 1 -1.155 1.151h-10.392a1.155 1.155 0 0 1 -1.155-1.154v-3.462h-16.166v3.464a1.154 1.154 0 0 1 -1.154 1.152h-10.392a1.155 1.155 0 0 1 -1.155-1.154v-6.555a23.074 23.074 0 0 1 -11.431-17.863 4.562 4.562 0 0 1 -.116-.983v-1.154a23.115 23.115 0 0 1 21.081-22.991zm11.25-16.269a10.392 10.392 0 1 0 10.394 10.392 10.392 10.392 0 0 0 -10.394-10.392zm-29.943 40.982a2.309 2.309 0 0 0 4.54-.568v-1.154h2.309v1.154a4.619 4.619 0 0 1 -4.618 4.619 4.561 4.561 0 0 1 -1.573-.3 20.785 20.785 0 0 0 10.204 12.836 1.155 1.155 0 0 1 .606 1.017v6.081h8.083v-3.469a1.154 1.154 0 0 1 1.155-1.154h18.475a1.154 1.154 0 0 1 1.156 1.154v3.464h8.083v-6.08a1.156 1.156 0 0 1 .606-1.017 20.874 20.874 0 0 0 10.187-12.836 1.153 1.153 0 0 1 1.114-.85h4.257v-6.929h-3.764a1.155 1.155 0 0 1 -1.141-.974 20.726 20.726 0 0 0 -7.372-12.826 1.155 1.155 0 0 1 -.425-.895v-8.313a8.127 8.127 0 0 0 -6.165 4.589 1.155 1.155 0 0 1 -1.335.63 20.946 20.946 0 0 0 -4.666-.666 12.819 12.819 0 0 1 -2.5 2.29h4.273v2.309h-23.092v-2.309h4.266a12.844 12.844 0 0 1 -2.486-2.283 20.8 20.8 0 0 0 -20.255 20.758c0 .577.032 1.154.078 1.722zm0 0" fill="#001f40" stroke="#001f40" stroke-linejoin="bevel" stroke-width="1.5" transform="translate(.375 .75)"/><g fill="#ff7d00"><path d="m404.875 80.388v-2.31a6.936 6.936 0 0 1 6.928 6.929h-2.31a4.619 4.619 0 0 0 -4.618-4.619zm0 0" transform="translate(-371.794 -71.533)"/><path d="m505.151 178.358a6.936 6.936 0 0 1 -6.928-6.928h2.309a4.619 4.619 0 0 0 4.619 4.618zm0 0" transform="translate(-472.07 -157.956)"/><path d="m707.425 10.91a1.154 1.154 0 0 1 -2.277 0 4.466 4.466 0 0 0 -3.67-3.669 1.155 1.155 0 0 1 0-2.278 4.466 4.466 0 0 0 3.67-3.669 1.154 1.154 0 0 1 2.277 0 4.468 4.468 0 0 0 3.67 3.669 1.155 1.155 0 0 1 0 2.278 4.468 4.468 0 0 0 -3.67 3.669zm-1.138-6.457a6.769 6.769 0 0 1 -1.65 1.647 6.763 6.763 0 0 1 1.649 1.649 6.787 6.787 0 0 1 1.65-1.649 6.794 6.794 0 0 1 -1.65-1.647zm0 0" transform="translate(-693.99 .443)"/></g></svg>