<svg height="65.838" viewBox="0 0 61.725 65.838" width="61.725" xmlns="http://www.w3.org/2000/svg"><g fill="#001f40"><path d="m27.138 329.455a2.061 2.061 0 0 0 -2.2.3l-8.228 7.045a2.06 2.06 0 0 0 -.72 1.564v12.336a2.058 2.058 0 0 0 2.057 2.057h8.23a2.058 2.058 0 0 0 2.058-2.057v-19.377a2.057 2.057 0 0 0 -1.197-1.868zm-2.918 19.192h-4.115v-9.341l4.115-3.518z" transform="translate(-15.99 -286.924)"/><path d="m156.047 220.8a1.82 1.82 0 0 0 -.111-.193c-.037-.049-.053-.111-.095-.16a2.025 2.025 0 0 0 -.687-.514s-.008-.012-.016-.017c-.025-.012-.058 0-.082-.012a1.98 1.98 0 0 0 -.926-.136 1.583 1.583 0 0 0 -.239.029 2.044 2.044 0 0 0 -.951.424l-8.23 7.037a2.082 2.082 0 0 0 -.535.708 2.135 2.135 0 0 0 -.185.856v26.46a2.058 2.058 0 0 0 2.058 2.058h8.23a2.058 2.058 0 0 0 2.057-2.058v-33.5a2.032 2.032 0 0 0 -.288-.982zm-3.827 32.422h-4.115v-23.451l4.115-3.518z" transform="translate(-127.53 -191.505)"/><path d="m283.138 109.935a2.064 2.064 0 0 0 -2.2.3l-8.23 7.037a2.06 2.06 0 0 0 -.72 1.564v40.574a2.058 2.058 0 0 0 2.058 2.057h8.23a2.058 2.058 0 0 0 2.058-2.057v-47.61a2.057 2.057 0 0 0 -1.196-1.865zm-2.918 47.421h-4.115v-37.566l4.115-3.518z" transform="translate(-239.07 -95.633)"/></g><path d="m411.138.187a2.07 2.07 0 0 0 -2.2.3l-8.23 7.037a2.06 2.06 0 0 0 -.72 1.564v54.692a2.058 2.058 0 0 0 2.058 2.058h8.23a2.058 2.058 0 0 0 2.058-2.058v-61.725a2.057 2.057 0 0 0 -1.196-1.868zm-2.918 61.536h-4.115v-51.685l4.115-3.518z" fill="#ff7d00" transform="translate(-350.61)"/></svg>