<svg id="Componente_61_2" data-name="Componente 61 – 2" xmlns="http://www.w3.org/2000/svg" width="24.935" height="17.533" viewBox="0 0 24.935 17.533">
  <path id="Caminho_9296" data-name="Caminho 9296" d="M2245.155,369.57a2.919,2.919,0,0,0-3.011-3.008c-.933,0-1.866,0-2.8,0h-16.068a2.913,2.913,0,0,0-3.005,2.41c-.007.033-.011.063-.048.074V381.61c.037.011.041.041.048.074a2.912,2.912,0,0,0,2.981,2.409q9.446,0,18.892,0a2.917,2.917,0,0,0,3.011-3.007Q2245.159,375.328,2245.155,369.57ZM2243.694,381a1.486,1.486,0,0,1-1.632,1.628h-18.72a1.492,1.492,0,0,1-1.659-1.649q0-5.66,0-11.32a1.489,1.489,0,0,1,1.644-1.64h18.721a1.489,1.489,0,0,1,1.647,1.637Q2243.695,375.332,2243.694,381Z" transform="translate(-2220.222 -366.561)" fill="#ff7d00"/>
  <path id="Caminho_9298" data-name="Caminho 9298" d="M2287.13,533.527c.008-.125-.058-.186-.589-.185q-8.986.008-17.972,0c-.421,0-.529.035-.521.15a6.116,6.116,0,0,1-.005,1.119c-.019.16.148.2.706.2,2.923-.008,5.848,0,8.771,0q4.471,0,8.943,0c.521,0,.691-.034.673-.188A6.255,6.255,0,0,1,2287.13,533.527Z" transform="translate(-2265.122 -523.166)" fill="#272727"/>
  <path id="Caminho_9299" data-name="Caminho 9299" d="M2510.927,533.335c-2.923.008-5.847,0-8.771,0q-4.471,0-8.943,0c-.526,0-.686.037-.67.189a6.114,6.114,0,0,1,.006,1.094c-.009.127.067.185.594.184q8.984-.008,17.972,0c.425,0,.524-.038.518-.151a6.116,6.116,0,0,1,0-1.119C2511.658,533.37,2511.478,533.334,2510.927,533.335Z" transform="translate(-2489.624 -521.017)" fill="#272727"/>
  <path id="Caminho_9300" data-name="Caminho 9300" d="M2387.822,533.512c0-.128-.047-.163-.224-.162q-3.5.006-7,0c-.173,0-.231.03-.227.16.012.365.018.731,0,1.1-.009.171.057.215.294.213,1.144-.009,2.288,0,3.433,0s2.312,0,3.467,0c.2,0,.269-.032.262-.185C2387.807,534.259,2387.811,533.885,2387.822,533.512Z" transform="translate(-2377.414 -525.317)" fill="#272727"/>
  <path id="Caminho_14058" data-name="Caminho 14058" d="M2382.819,533.512c0-.128-.015-.163-.073-.162q-1.152.006-2.3,0c-.057,0-.076.03-.075.16,0,.365.006.731,0,1.1,0,.171.019.215.1.213.376-.009.753,0,1.13,0s.76,0,1.141,0c.067,0,.088-.032.086-.185C2382.814,534.259,2382.816,533.885,2382.819,533.512Z" transform="translate(-2377.414 -530.431)" fill="#272727"/>
  <path id="Caminho_9301" data-name="Caminho 9301" d="M2538.712,415.743c0,.122.042.147.154.146q1.142-.006,2.284,0c.123,0,.146-.043.144-.153-.006-.389-.007-.778,0-1.166,0-.12-.037-.149-.151-.147-.373.007-.745,0-1.118,0s-.761,0-1.142,0c-.113,0-.176.01-.172.153C2538.722,414.965,2538.72,415.354,2538.712,415.743Z" transform="translate(-2519.28 -411.503)" fill="#ff7d00"/>
</svg>
