<svg height="65.838" viewBox="0 0 57.865 65.838" width="57.865" xmlns="http://www.w3.org/2000/svg"><g fill="#001f40"><path d="m138.359 0a17.36 17.36 0 1 0 17.36 17.36 17.379 17.379 0 0 0 -17.36-17.36zm0 30.861a13.5 13.5 0 1 1 13.5-13.5 13.517 13.517 0 0 1 -13.5 13.5z" transform="translate(-109.427)"/><path d="m65.312 301h-10.759a27.881 27.881 0 0 0 -23.553 12.918v14.215h57.865v-14.215a27.888 27.888 0 0 0 -23.553-12.918zm19.7 23.275h-50.154v-9.175a24.009 24.009 0 0 1 19.7-10.24h10.754a24.009 24.009 0 0 1 19.7 10.24z" transform="translate(-31 -262.295)"/></g></svg>