<svg height="51.978" viewBox="0 0 69.304 51.978" width="69.304" xmlns="http://www.w3.org/2000/svg"><path d="m61.363 94.646h-53.422a7.948 7.948 0 0 1 -7.941-7.946v-36.1a7.947 7.947 0 0 1 7.941-7.941h37.94a2.166 2.166 0 0 1 0 4.332h-37.94a3.614 3.614 0 0 0 -3.61 3.609v36.1a3.615 3.615 0 0 0 3.61 3.61h53.422a3.615 3.615 0 0 0 3.61-3.61v-36.1a3.614 3.614 0 0 0 -3.61-3.6h-17.326a2.166 2.166 0 0 1 0-4.332h17.326a7.947 7.947 0 0 1 7.937 7.941v36.091a7.948 7.948 0 0 1 -7.937 7.946zm0 0" fill="#001f40" transform="translate(0 -42.668)"/><path d="m113.887 163.771a7.219 7.219 0 1 1 7.219-7.219 7.229 7.229 0 0 1 -7.219 7.219zm0-10.107a2.888 2.888 0 1 0 2.888 2.888 2.892 2.892 0 0 0 -2.888-2.888zm0 0" fill="#ff7d00" transform="translate(-92.229 -134.894)"/><path d="m87.823 288.883a2.167 2.167 0 0 1 -2.166-2.166v-1.444a3.615 3.615 0 0 0 -3.61-3.61h-10.106a3.615 3.615 0 0 0 -3.61 3.61v1.444a2.166 2.166 0 1 1 -4.331 0v-1.444a7.948 7.948 0 0 1 7.941-7.941h10.107a7.948 7.948 0 0 1 7.941 7.941v1.444a2.167 2.167 0 0 1 -2.166 2.166zm0 0" fill="#ff7d00" transform="translate(-55.337 -245.568)"/><g fill="#001f40"><path d="m316.716 164.332h-15.882a2.166 2.166 0 1 1 0-4.331h15.882a2.166 2.166 0 0 1 0 4.331zm0 0" transform="translate(-258.24 -144.118)"/><path d="m316.716 249.663h-15.882a2.166 2.166 0 1 1 0-4.331h15.882a2.166 2.166 0 0 1 0 4.331zm0 0" transform="translate(-258.24 -217.899)"/><path d="m316.716 335h-15.882a2.166 2.166 0 1 1 0-4.332h15.882a2.166 2.166 0 0 1 0 4.332zm0 0" transform="translate(-258.24 -291.684)"/></g></svg>