<svg xmlns="http://www.w3.org/2000/svg" width="25.431" height="25.597" viewBox="0 0 25.431 25.597">
  <g id="surface1" transform="translate(0.25 0.408)">
    <path id="Caminho_8703" data-name="Caminho 8703" d="M188.732,435.109a1.662,1.662,0,1,1-1.662,1.662A1.662,1.662,0,0,1,188.732,435.109Zm0,2.493a.831.831,0,1,0-.831-.831A.831.831,0,0,0,188.732,437.6Zm0,0" transform="translate(-170.449 -423.488)" fill="#272727"/>
    <path id="Caminho_8704" data-name="Caminho 8704" d="M7.961,6.693a4.571,4.571,0,1,1,8.1,0,8.5,8.5,0,0,1,1.034.159A3.754,3.754,0,0,1,20.32,4.994a.415.415,0,0,1,.416.415V8.653A8.284,8.284,0,0,1,23.468,13.3h1.423a.416.416,0,0,1,.416.416v3.324a.415.415,0,0,1-.416.415H23.254a8.358,8.358,0,0,1-3.765,4.7v2.36a.416.416,0,0,1-.415.415h-3.74a.416.416,0,0,1-.416-.415V23.277H9.1v1.247a.415.415,0,0,1-.415.415H4.946a.415.415,0,0,1-.416-.415v-2.36A8.3,8.3,0,0,1,.417,15.736a1.642,1.642,0,0,1-.042-.354v-.415A8.318,8.318,0,0,1,7.961,6.693ZM12.01.839a3.74,3.74,0,1,0,3.74,3.74A3.74,3.74,0,0,0,12.01.839ZM1.234,15.586a.831.831,0,0,0,1.634-.2v-.415H3.7v.415a1.662,1.662,0,0,1-1.662,1.662,1.641,1.641,0,0,1-.566-.106,7.48,7.48,0,0,0,3.672,4.616.416.416,0,0,1,.218.366v2.188H8.27V22.861a.415.415,0,0,1,.416-.415h6.648a.415.415,0,0,1,.415.415v1.247h2.909V21.92a.416.416,0,0,1,.218-.366,7.512,7.512,0,0,0,3.666-4.619.415.415,0,0,1,.4-.306h1.532V14.135H23.121a.416.416,0,0,1-.41-.35,7.459,7.459,0,0,0-2.653-4.616.416.416,0,0,1-.153-.322V5.856a2.925,2.925,0,0,0-2.218,1.651.416.416,0,0,1-.48.227,7.537,7.537,0,0,0-1.679-.24,4.613,4.613,0,0,1-.9.824h1.538v.831H7.854V8.318H9.39A4.622,4.622,0,0,1,8.5,7.5a7.484,7.484,0,0,0-7.289,7.47C1.206,15.174,1.218,15.382,1.234,15.586Zm0,0" transform="translate(-0.375 0)" fill="#ff7d00" stroke="#ff7d00" stroke-width="0.5"/>
    <path id="Caminho_8705" data-name="Caminho 8705" d="M404.875,78.909v-.831a2.5,2.5,0,0,1,2.493,2.493h-.831A1.662,1.662,0,0,0,404.875,78.909Zm0,0" transform="translate(-393.24 -75.993)" fill="#272727"/>
    <path id="Caminho_8706" data-name="Caminho 8706" d="M500.716,173.923a2.5,2.5,0,0,1-2.493-2.493h.831a1.662,1.662,0,0,0,1.662,1.662Zm0,0" transform="translate(-489.082 -166.851)" fill="#272727"/>
    <path id="Caminho_8707" data-name="Caminho 8707" d="M703,4.139a.415.415,0,0,1-.819,0,1.607,1.607,0,0,0-1.321-1.32.416.416,0,0,1,0-.82,1.607,1.607,0,0,0,1.321-1.32.415.415,0,0,1,.819,0A1.608,1.608,0,0,0,704.323,2a.416.416,0,0,1,0,.82A1.608,1.608,0,0,0,703,4.139Zm-.41-2.324a2.429,2.429,0,0,1-.593.594.593.593,0,0,0,1.187,0A2.447,2.447,0,0,1,702.592,1.815Zm0,0" transform="translate(-698.437 -0.323)" fill="#272727"/>
  </g>
</svg>
