<svg height="45.757" viewBox="0 0 69.696 45.757" width="69.696" xmlns="http://www.w3.org/2000/svg"><path d="m67.86 114.824-12.766-25.532a2.134 2.134 0 0 0 -2.855-.953l-8.511 4.255a2.134 2.134 0 0 0 -1.072 1.243 2.113 2.113 0 0 0 .136 1.638l.6 1.153h-5.092a2.143 2.143 0 0 0 -1.506.621l-1.983 1.987-3.945-2.315a2.12 2.12 0 0 0 -1.077-.294h-5.089l.6-1.149a2.122 2.122 0 0 0 -.936-2.881l-8.511-4.255a2.129 2.129 0 0 0 -2.855.949l-12.772 25.533a2.129 2.129 0 0 0 .911 2.834l8.063 4.255a2.111 2.111 0 0 0 1.626.149 2.149 2.149 0 0 0 1.255-1.051l.685-1.323 14.86 11a10.75 10.75 0 0 0 6.374 2.076 10.6 10.6 0 0 0 6.438-2.153l14.685-11.277.877 1.677a2.137 2.137 0 0 0 1.255 1.051 2.191 2.191 0 0 0 .638.1 2.126 2.126 0 0 0 .991-.247l8.068-4.255a2.133 2.133 0 0 0 .908-2.836zm-58.566 2.328-4.332-2.285 10.885-21.767 4.677 2.341-1.273 2.459-.026.047zm28.57 10.081a6.46 6.46 0 0 1 -7.7.026l-15.408-11.4 7.744-14.976h6.711l2.489 1.464-7.672 7.668a2.131 2.131 0 0 0 -.132 2.864l1.664 2a6.38 6.38 0 0 0 7.855 1.592l4.647-2.426 8.345 6.625zm12.017-9.233-10.26-8.149a2.136 2.136 0 0 0 -2.306-.217l-5.894 3.072a2.138 2.138 0 0 1 -2.591-.545l-.421-.511 10.77-10.77h6.409l7.557 14.62zm8.911-.851-9.937-19.206-.026-.047-1.272-2.455 4.681-2.34 10.885 21.766z" fill="#001f40" transform="translate(1.613 -87.008)"/><g fill="none" transform="matrix(.89100652 .4539905 -.4539905 .89100652 15.094451 -.000117)"><path d="m2.733.1 9.78-.1a2.412 2.412 0 0 1 2.422 2.469l-.265 28.168a2.528 2.528 0 0 1 -2.47 2.517l-9.78.1a2.412 2.412 0 0 1 -2.42-2.472l.265-28.168a2.528 2.528 0 0 1 2.468-2.514z"/><path d="m9.91 5.026-4.668.046-.218 23.153 4.669-.047zm2.627-5.026c1.34 0 2.41 1.1 2.398 2.469l-.265 28.168c-.013 1.376-1.118 2.503-2.468 2.517l-9.78.097h-.025c-1.339 0-2.41-1.1-2.397-2.469l.265-28.168c.013-1.377 1.118-2.504 2.468-2.517l9.78-.097z" fill="#ff7d00"/></g></svg>