<svg id="Componente_60_1" data-name="Componente 60 – 1" xmlns="http://www.w3.org/2000/svg" xmlns:xlink="http://www.w3.org/1999/xlink" width="193.501" height="288.106" viewBox="0 0 193.501 288.106">
  <defs>
    <clipPath id="clip-path">
      <rect id="Retângulo_3349" data-name="Retângulo 3349" width="193.501" height="288.106" fill="none"/>
    </clipPath>
    <clipPath id="clip-path-3">
      <rect id="Retângulo_3246" data-name="Retângulo 3246" width="6.895" height="6.901" fill="none"/>
    </clipPath>
    <clipPath id="clip-path-4">
      <rect id="Retângulo_3264" data-name="Retângulo 3264" width="138.248" height="222.297" fill="none"/>
    </clipPath>
    <clipPath id="clip-path-5">
      <rect id="Retângulo_3347" data-name="Retângulo 3347" width="121.749" height="121.738" fill="none"/>
    </clipPath>
  </defs>
  <g id="Grupo_8710" data-name="Grupo 8710" clip-path="url(#clip-path)">
    <g id="Grupo_8709" data-name="Grupo 8709" transform="translate(0 -0.001)">
      <g id="Grupo_8708" data-name="Grupo 8708" clip-path="url(#clip-path)">
        <path id="Caminho_13837" data-name="Caminho 13837" d="M88.794,342.724a11.777,11.777,0,0,1-11.776-11.778V95.427A11.774,11.774,0,0,1,88.794,83.651H234.525A11.774,11.774,0,0,1,246.3,95.427V330.946a11.777,11.777,0,0,1-11.773,11.778Z" transform="translate(-55.895 -60.708)" fill="#181818"/>
        <rect id="Retângulo_3245" data-name="Retângulo 3245" width="146.29" height="236.921" transform="translate(32.948 34.519)" fill="#e5e5e4"/>
        <g id="Grupo_8701" data-name="Grupo 8701" transform="translate(102.813 107.876)" opacity="0.4">
          <g id="Grupo_8700" data-name="Grupo 8700">
            <g id="Grupo_8699" data-name="Grupo 8699" clip-path="url(#clip-path-3)">
              <path id="Caminho_13838" data-name="Caminho 13838" d="M381.772,396.783a3.447,3.447,0,1,1-3.445-3.448,3.449,3.449,0,0,1,3.445,3.448" transform="translate(-374.877 -393.335)" fill="#050605"/>
            </g>
          </g>
        </g>
        <g id="Grupo_8704" data-name="Grupo 8704" transform="translate(36.917 43.612)" opacity="0.5">
          <g id="Grupo_8703" data-name="Grupo 8703">
            <g id="Grupo_8702" data-name="Grupo 8702" clip-path="url(#clip-path-4)">
              <rect id="Retângulo_3247" data-name="Retângulo 3247" width="137.765" height="42.326" transform="translate(0 25.97)" fill="#c1c1c0"/>
              <rect id="Retângulo_3248" data-name="Retângulo 3248" width="103.427" height="7.053" transform="translate(0 77.926)" fill="#c1c1c0"/>
              <rect id="Retângulo_3249" data-name="Retângulo 3249" width="121.699" height="3.624" transform="translate(0 108.878)" fill="#c1c1c0"/>
              <rect id="Retângulo_3250" data-name="Retângulo 3250" width="74.808" height="3.667" transform="translate(0 116.783)" fill="#c1c1c0"/>
              <rect id="Retângulo_3251" data-name="Retângulo 3251" width="33.517" height="3.667" transform="translate(80.894 116.783)" fill="#c1c1c0"/>
              <rect id="Retângulo_3252" data-name="Retângulo 3252" width="121.699" height="3.623" transform="translate(0 88.367)" fill="#c1c1c0"/>
              <rect id="Retângulo_3253" data-name="Retângulo 3253" width="74.808" height="3.668" transform="translate(0 96.27)" fill="#c1c1c0"/>
              <rect id="Retângulo_3254" data-name="Retângulo 3254" width="33.517" height="3.668" transform="translate(80.894 96.27)" fill="#c1c1c0"/>
              <rect id="Retângulo_3255" data-name="Retângulo 3255" width="137.605" height="42.326" transform="translate(0 127.818)" fill="#c1c1c0"/>
              <rect id="Retângulo_3256" data-name="Retângulo 3256" width="116.945" height="7.053" transform="translate(0 179.773)" fill="#c1c1c0"/>
              <rect id="Retângulo_3257" data-name="Retângulo 3257" width="137.605" height="3.624" transform="translate(0 210.725)" fill="#c1c1c0"/>
              <rect id="Retângulo_3258" data-name="Retângulo 3258" width="84.585" height="3.667" transform="translate(0 218.63)" fill="#c1c1c0"/>
              <rect id="Retângulo_3259" data-name="Retângulo 3259" width="37.897" height="3.667" transform="translate(91.466 218.63)" fill="#c1c1c0"/>
              <rect id="Retângulo_3260" data-name="Retângulo 3260" width="137.605" height="3.623" transform="translate(0 190.215)" fill="#c1c1c0"/>
              <rect id="Retângulo_3261" data-name="Retângulo 3261" width="84.585" height="3.668" transform="translate(0 198.118)" fill="#c1c1c0"/>
              <rect id="Retângulo_3262" data-name="Retângulo 3262" width="37.897" height="3.668" transform="translate(91.466 198.118)" fill="#c1c1c0"/>
              <rect id="Retângulo_3263" data-name="Retângulo 3263" width="138.036" height="16.962" transform="translate(0.212)" fill="#c1c1c0"/>
            </g>
          </g>
        </g>
        <rect id="Retângulo_3265" data-name="Retângulo 3265" width="66.153" height="23.01" transform="translate(104.605 0)" fill="#1c1c1c"/>
        <path id="Caminho_13839" data-name="Caminho 13839" d="M227.549,53.662v48.769H273.1a16.386,16.386,0,0,1,11.037,4.159,13.554,13.554,0,0,1,4.57,10.032,13.551,13.551,0,0,0,4.56,10.041A16.391,16.391,0,0,0,304.3,130.8c8.616,0,15.6-6.345,15.6-14.183V53.662Z" transform="translate(-165.142 -38.944)" fill="#3e3e3e"/>
        <path id="Caminho_13840" data-name="Caminho 13840" d="M336.719,245.689v14.183h46.806a16.405,16.405,0,0,1-11.036-4.142,13.576,13.576,0,0,1-4.569-10.041,13.525,13.525,0,0,0-4.561-10.032,16.747,16.747,0,0,0-22.076,0,13.539,13.539,0,0,0-4.563,10.032" transform="translate(-244.371 -168.012)" fill="#1c1c1c"/>
        <path id="Caminho_13841" data-name="Caminho 13841" d="M4.56,235.642A16.383,16.383,0,0,1,15.6,231.483h92.353a16.384,16.384,0,0,0-11.044,4.159,13.541,13.541,0,0,0-4.563,10.032v56.749l-9.23,8.506-9.234-8.506-9.235,8.506-9.237-8.506-9.224,8.506-9.241-8.506-9.236,8.506-9.237-8.506L9.24,310.928,0,302.422V245.673a13.524,13.524,0,0,1,4.56-10.032" transform="translate(0 -167.996)" fill="#3e3e3e"/>
        <path id="Caminho_13842" data-name="Caminho 13842" d="M0,245.673H92.348a13.539,13.539,0,0,1,4.563-10.032,16.383,16.383,0,0,1,11.044-4.159H15.6A16.383,16.383,0,0,0,4.56,235.641,13.524,13.524,0,0,0,0,245.673" transform="translate(0 -167.996)" fill="#3e3e3e"/>
        <path id="Caminho_13843" data-name="Caminho 13843" d="M243.524.734h92.351c-8.822,0-15.971,6.5-15.971,14.516H227.55C227.55,7.235,234.7.734,243.524.734" transform="translate(-165.143 -0.532)" fill="#3e3e3e"/>
        <rect id="Retângulo_3266" data-name="Retângulo 3266" width="22.69" height="1.48" transform="translate(71.579 37.28)" fill="#ededed"/>
        <rect id="Retângulo_3267" data-name="Retângulo 3267" width="32.142" height="1.483" transform="translate(71.579 41.727)" fill="#ededed"/>
        <rect id="Retângulo_3268" data-name="Retângulo 3268" width="32.142" height="1.485" transform="translate(71.579 46.5)" fill="#ededed"/>
        <rect id="Retângulo_3269" data-name="Retângulo 3269" width="32.142" height="1.48" transform="translate(71.579 50.95)" fill="#ededed"/>
        <rect id="Retângulo_3270" data-name="Retângulo 3270" width="23.39" height="1.481" transform="translate(71.579 55.877)" fill="#ededed"/>
        <rect id="Retângulo_3271" data-name="Retângulo 3271" width="18.05" height="1.482" transform="translate(85.928 14.926)" fill="#ededed"/>
        <rect id="Retângulo_3272" data-name="Retângulo 3272" width="18.05" height="1.483" transform="translate(85.928 19.377)" fill="#ededed"/>
        <rect id="Retângulo_3273" data-name="Retângulo 3273" width="25.388" height="1.485" transform="translate(78.59 24.149)" fill="#ededed"/>
        <rect id="Retângulo_3274" data-name="Retângulo 3274" width="18.05" height="1.482" transform="translate(85.928 28.599)" fill="#ededed"/>
        <rect id="Retângulo_3275" data-name="Retângulo 3275" width="32.138" height="1.483" transform="translate(109.9 25.662)" fill="#ededed"/>
        <rect id="Retângulo_3276" data-name="Retângulo 3276" width="32.138" height="1.483" transform="translate(109.9 30.114)" fill="#ededed"/>
        <rect id="Retângulo_3277" data-name="Retângulo 3277" width="32.138" height="1.486" transform="translate(109.9 34.885)" fill="#ededed"/>
        <rect id="Retângulo_3278" data-name="Retângulo 3278" width="32.138" height="1.482" transform="translate(109.9 39.336)" fill="#ededed"/>
        <rect id="Retângulo_3279" data-name="Retângulo 3279" width="32.286" height="5.797" transform="translate(110.467 14.926)" fill="#ededed"/>
        <rect id="Retângulo_3280" data-name="Retângulo 3280" width="17.152" height="1.481" transform="translate(125.511 45.713)" fill="#ededed"/>
        <rect id="Retângulo_3281" data-name="Retângulo 3281" width="17.152" height="1.483" transform="translate(125.511 50.162)" fill="#ededed"/>
        <rect id="Retângulo_3282" data-name="Retângulo 3282" width="17.152" height="1.483" transform="translate(125.511 54.935)" fill="#ededed"/>
        <rect id="Retângulo_3283" data-name="Retângulo 3283" width="17.152" height="1.479" transform="translate(125.511 59.387)" fill="#ededed"/>
        <rect id="Retângulo_3284" data-name="Retângulo 3284" width="12.634" height="1.481" transform="translate(109.681 45.082)" fill="#ededed"/>
        <rect id="Retângulo_3285" data-name="Retângulo 3285" width="12.634" height="1.484" transform="translate(109.681 49.53)" fill="#ededed"/>
        <rect id="Retângulo_3286" data-name="Retângulo 3286" width="12.634" height="1.483" transform="translate(109.681 54.305)" fill="#ededed"/>
        <rect id="Retângulo_3287" data-name="Retângulo 3287" width="12.634" height="1.481" transform="translate(109.681 58.753)" fill="#ededed"/>
        <rect id="Retângulo_3288" data-name="Retângulo 3288" width="9.109" height="1.767" transform="translate(73.949 77.381)" fill="#ededed"/>
        <rect id="Retângulo_3289" data-name="Retângulo 3289" width="18.531" height="1.767" transform="translate(51.773 77.381)" fill="#ededed"/>
        <rect id="Retângulo_3290" data-name="Retângulo 3290" width="18.224" height="1.769" transform="translate(57.852 84.458)" fill="#ededed"/>
        <rect id="Retângulo_3291" data-name="Retângulo 3291" width="18.684" height="1.769" transform="translate(35.521 84.458)" fill="#ededed"/>
        <rect id="Retângulo_3292" data-name="Retângulo 3292" width="17.314" height="1.771" transform="translate(58.762 91.534)" fill="#ededed"/>
        <rect id="Retângulo_3293" data-name="Retângulo 3293" width="14.278" height="1.771" transform="translate(40.838 91.534)" fill="#ededed"/>
        <rect id="Retângulo_3294" data-name="Retângulo 3294" width="9.109" height="1.771" transform="translate(28.084 91.534)" fill="#ededed"/>
        <rect id="Retângulo_3295" data-name="Retângulo 3295" width="11.843" height="1.771" transform="translate(12.592 91.534)" fill="#ededed"/>
        <rect id="Retângulo_3296" data-name="Retângulo 3296" width="10.937" height="1.769" transform="translate(65.139 98.614)" fill="#ededed"/>
        <rect id="Retângulo_3297" data-name="Retângulo 3297" width="26.125" height="1.769" transform="translate(35.369 98.614)" fill="#ededed"/>
        <rect id="Retângulo_3298" data-name="Retângulo 3298" width="8.202" height="1.769" transform="translate(23.525 98.614)" fill="#ededed"/>
        <rect id="Retângulo_3299" data-name="Retângulo 3299" width="10.023" height="1.769" transform="translate(9.857 98.614)" fill="#ededed"/>
        <rect id="Retângulo_3300" data-name="Retângulo 3300" width="20.96" height="1.77" transform="translate(55.116 112.768)" fill="#ededed"/>
        <rect id="Retângulo_3301" data-name="Retângulo 3301" width="23.543" height="1.77" transform="translate(52.532 119.847)" fill="#ededed"/>
        <rect id="Retângulo_3302" data-name="Retângulo 3302" width="16.404" height="1.77" transform="translate(32.488 119.847)" fill="#ededed"/>
        <rect id="Retângulo_3303" data-name="Retângulo 3303" width="11.389" height="1.77" transform="translate(17.454 119.847)" fill="#ededed"/>
        <rect id="Retângulo_3304" data-name="Retângulo 3304" width="13.974" height="1.77" transform="translate(69.085 105.691)" fill="#ededed"/>
        <rect id="Retângulo_3305" data-name="Retângulo 3305" width="8.509" height="1.77" transform="translate(56.939 105.691)" fill="#ededed"/>
        <rect id="Retângulo_3306" data-name="Retângulo 3306" width="20.959" height="1.77" transform="translate(32.508 106.044)" fill="#ededed"/>
        <rect id="Retângulo_3307" data-name="Retângulo 3307" width="23.537" height="1.769" transform="translate(29.929 113.122)" fill="#ededed"/>
        <rect id="Retângulo_3308" data-name="Retângulo 3308" width="6.476" height="1.769" transform="translate(23.611 106.044)" fill="#ededed"/>
        <path id="Caminho_13844" data-name="Caminho 13844" d="M462.893,458.968V369.344a3.507,3.507,0,0,0-3.506-3.508H374.7a3.508,3.508,0,0,0-3.507,3.508v89.625Z" transform="translate(-269.392 -265.502)" fill="#d3d1cf"/>
        <path id="Caminho_13845" data-name="Caminho 13845" d="M381.853,482.8V404.78a.587.587,0,0,1,.584-.584h84.684a.587.587,0,0,1,.584.584V482.8Z" transform="translate(-277.127 -293.341)" fill="#3e3e3e"/>
        <path id="Caminho_13846" data-name="Caminho 13846" d="M619.853,380.336a2.175,2.175,0,1,1-2.177-2.172,2.175,2.175,0,0,1,2.177,2.172" transform="translate(-446.695 -274.449)" fill="#e9373d"/>
        <path id="Caminho_13847" data-name="Caminho 13847" d="M639.772,380.336a2.173,2.173,0,1,1-2.172-2.172,2.175,2.175,0,0,1,2.172,2.172" transform="translate(-461.156 -274.449)" fill="#f89623"/>
        <path id="Caminho_13848" data-name="Caminho 13848" d="M658.717,380.529a2.173,2.173,0,1,1-2.171-2.173,2.174,2.174,0,0,1,2.171,2.173" transform="translate(-474.905 -274.587)" fill="#83bc52"/>
        <path id="Caminho_13849" data-name="Caminho 13849" d="M615.613,380.549a2.17,2.17,0,0,1,4.062-1.067,2.173,2.173,0,1,0-3.89,1.922,2.137,2.137,0,0,1-.173-.855" transform="translate(-446.695 -274.45)" fill="#ed5f63"/>
        <path id="Caminho_13850" data-name="Caminho 13850" d="M635.531,380.549a2.174,2.174,0,0,1,4.068-1.067,2.174,2.174,0,0,0-4.173.855,2.139,2.139,0,0,0,.281,1.067,2.154,2.154,0,0,1-.176-.855" transform="translate(-461.156 -274.45)" fill="#ffa543"/>
        <path id="Caminho_13851" data-name="Caminho 13851" d="M654.478,380.741a2.172,2.172,0,0,1,4.065-1.067,2.174,2.174,0,1,0-3.893,1.922,2.161,2.161,0,0,1-.173-.855" transform="translate(-474.905 -274.587)" fill="#a4cc7e"/>
        <rect id="Retângulo_3309" data-name="Retângulo 3309" width="7.783" height="1.509" transform="translate(108 114.87)" fill="#fff"/>
        <rect id="Retângulo_3310" data-name="Retângulo 3310" width="15.83" height="1.509" transform="translate(118.898 114.87)" fill="#fff"/>
        <rect id="Retângulo_3311" data-name="Retângulo 3311" width="9.085" height="1.511" transform="translate(108 169.285)" fill="#fff"/>
        <rect id="Retângulo_3312" data-name="Retângulo 3312" width="18.683" height="1.511" transform="translate(120.195 169.285)" fill="#fff"/>
        <rect id="Retângulo_3313" data-name="Retângulo 3313" width="10.635" height="1.513" transform="translate(113.969 175.33)" fill="#fff"/>
        <rect id="Retângulo_3314" data-name="Retângulo 3314" width="7.007" height="1.513" transform="translate(127.72 175.33)" fill="#fff"/>
        <rect id="Retângulo_3315" data-name="Retângulo 3315" width="15.567" height="1.511" transform="translate(113.969 120.915)" fill="#fff"/>
        <rect id="Retângulo_3316" data-name="Retângulo 3316" width="15.962" height="1.511" transform="translate(132.649 120.915)" fill="#fff"/>
        <rect id="Retângulo_3317" data-name="Retângulo 3317" width="14.79" height="1.512" transform="translate(113.969 126.961)" fill="#fff"/>
        <rect id="Retângulo_3318" data-name="Retângulo 3318" width="12.196" height="1.512" transform="translate(131.873 126.961)" fill="#fff"/>
        <rect id="Retângulo_3319" data-name="Retângulo 3319" width="7.781" height="1.512" transform="translate(147.185 126.961)" fill="#fff"/>
        <rect id="Retângulo_3320" data-name="Retângulo 3320" width="10.118" height="1.512" transform="translate(158.082 126.961)" fill="#fff"/>
        <rect id="Retângulo_3321" data-name="Retângulo 3321" width="9.341" height="1.512" transform="translate(113.969 133.008)" fill="#fff"/>
        <rect id="Retângulo_3322" data-name="Retângulo 3322" width="22.317" height="1.512" transform="translate(126.425 133.008)" fill="#fff"/>
        <rect id="Retângulo_3323" data-name="Retângulo 3323" width="7.008" height="1.512" transform="translate(151.852 133.008)" fill="#fff"/>
        <rect id="Retângulo_3324" data-name="Retângulo 3324" width="8.563" height="1.512" transform="translate(161.972 133.008)" fill="#fff"/>
        <rect id="Retângulo_3325" data-name="Retângulo 3325" width="17.904" height="1.513" transform="translate(113.969 145.1)" fill="#fff"/>
        <rect id="Retângulo_3326" data-name="Retângulo 3326" width="20.109" height="1.511" transform="translate(113.969 151.147)" fill="#fff"/>
        <rect id="Retângulo_3327" data-name="Retângulo 3327" width="14.014" height="1.511" transform="translate(137.191 151.147)" fill="#fff"/>
        <rect id="Retângulo_3328" data-name="Retângulo 3328" width="9.733" height="1.511" transform="translate(154.315 151.147)" fill="#fff"/>
        <rect id="Retângulo_3329" data-name="Retângulo 3329" width="11.289" height="1.512" transform="translate(113.969 157.193)" fill="#fff"/>
        <rect id="Retângulo_3330" data-name="Retângulo 3330" width="24.004" height="1.512" transform="translate(129.729 157.193)" fill="#fff"/>
        <rect id="Retângulo_3331" data-name="Retângulo 3331" width="11.938" height="1.511" transform="translate(108 139.056)" fill="#fff"/>
        <rect id="Retângulo_3332" data-name="Retângulo 3332" width="7.269" height="1.511" transform="translate(123.047 139.056)" fill="#fff"/>
        <rect id="Retângulo_3333" data-name="Retângulo 3333" width="9.341" height="1.512" transform="translate(113.969 163.239)" fill="#fff"/>
        <rect id="Retângulo_3334" data-name="Retângulo 3334" width="6.658" height="1.513" transform="translate(138.045 175.33)" fill="#fff"/>
        <rect id="Retângulo_3335" data-name="Retângulo 3335" width="9.085" height="1.512" transform="translate(127.312 163.54)" fill="#fff"/>
        <rect id="Retângulo_3336" data-name="Retângulo 3336" width="7.678" height="1.512" transform="translate(139.506 163.54)" fill="#fff"/>
        <rect id="Retângulo_3337" data-name="Retângulo 3337" width="17.906" height="1.513" transform="translate(133.281 139.355)" fill="#fff"/>
        <rect id="Retângulo_3338" data-name="Retângulo 3338" width="20.108" height="1.513" transform="translate(133.282 145.401)" fill="#fff"/>
        <rect id="Retângulo_3339" data-name="Retângulo 3339" width="5.535" height="1.513" transform="translate(153.251 139.355)" fill="#fff"/>
        <rect id="Retângulo_3340" data-name="Retângulo 3340" width="9.343" height="1.511" transform="translate(146.404 169.285)" fill="#fff"/>
        <rect id="Retângulo_3341" data-name="Retângulo 3341" width="10.637" height="1.514" transform="translate(147.772 175.38)" fill="#fff"/>
        <rect id="Retângulo_3342" data-name="Retângulo 3342" width="7.005" height="1.514" transform="translate(161.523 175.38)" fill="#fff"/>
        <rect id="Retângulo_3343" data-name="Retângulo 3343" width="6.659" height="1.514" transform="translate(171.848 175.38)" fill="#fff"/>
        <rect id="Retângulo_3344" data-name="Retângulo 3344" width="7.007" height="1.511" transform="translate(107.965 180.039)" fill="#fff"/>
        <rect id="Retângulo_3345" data-name="Retângulo 3345" width="6.661" height="1.511" transform="translate(118.291 180.039)" fill="#fff"/>
        <rect id="Retângulo_3346" data-name="Retângulo 3346" width="10.637" height="1.512" transform="translate(128.017 180.089)" fill="#fff"/>
        <g id="Grupo_8707" data-name="Grupo 8707" transform="translate(29.363 166.369)" opacity="0.1">
          <g id="Grupo_8706" data-name="Grupo 8706">
            <g id="Grupo_8705" data-name="Grupo 8705" clip-path="url(#clip-path-5)">
              <path id="Caminho_13852" data-name="Caminho 13852" d="M167.94,606.611a60.869,60.869,0,1,0,60.872,60.866,60.932,60.932,0,0,0-60.872-60.866" transform="translate(-107.063 -606.611)" fill="#111112"/>
            </g>
          </g>
        </g>
        <path id="Caminho_13853" data-name="Caminho 13853" d="M240.492,664.385A55.578,55.578,0,1,1,184.919,608.8a55.576,55.576,0,0,1,55.572,55.583" transform="translate(-93.864 -441.832)" fill="#ededed"/>
        <path id="Caminho_13854" data-name="Caminho 13854" d="M170.915,711.277a60.869,60.869,0,1,1,60.872-60.871,60.939,60.939,0,0,1-60.872,60.871m0-111.16A50.289,50.289,0,1,0,221.2,650.406a50.342,50.342,0,0,0-50.286-50.288" transform="translate(-79.859 -427.853)" fill="#eb401b"/>
        <path id="Caminho_13855" data-name="Caminho 13855" d="M186.695,744.705l-7.483-7.491,78.563-78.566,7.489,7.493Z" transform="translate(-130.061 -478.008)" fill="#eb401b"/>
      </g>
    </g>
  </g>
</svg>
