<svg id="Componente_61_1" data-name="Componente 61 – 1" xmlns="http://www.w3.org/2000/svg" xmlns:xlink="http://www.w3.org/1999/xlink" width="304.735" height="239.468" viewBox="0 0 304.735 239.468">
  <defs>
    <clipPath id="clip-path">
      <rect id="Retângulo_3358" data-name="Retângulo 3358" width="304.735" height="239.468" fill="none"/>
    </clipPath>
    <clipPath id="clip-path-2">
      <rect id="Retângulo_3351" data-name="Retângulo 3351" width="304.735" height="239.469" fill="none"/>
    </clipPath>
    <clipPath id="clip-path-3">
      <rect id="Retângulo_3350" data-name="Retângulo 3350" width="46.697" height="43.064" fill="none"/>
    </clipPath>
    <clipPath id="clip-path-4">
      <path id="Retângulo_3355" data-name="Retângulo 3355" d="M23,0H171.845a23,23,0,0,1,23,23V82.894a23,23,0,0,1-23,23H23a23,23,0,0,1-23-23V23A23,23,0,0,1,23,0Z" fill="none"/>
    </clipPath>
    <clipPath id="clip-path-5">
      <rect id="Retângulo_3354" data-name="Retângulo 3354" width="220.687" height="228.485" fill="none"/>
    </clipPath>
    <clipPath id="clip-path-7">
      <rect id="Retângulo_3356" data-name="Retângulo 3356" width="31.709" height="37.677" fill="none"/>
    </clipPath>
  </defs>
  <g id="Grupo_8726" data-name="Grupo 8726" clip-path="url(#clip-path)">
    <g id="Grupo_8715" data-name="Grupo 8715" transform="translate(0 -0.001)">
      <g id="Grupo_8714" data-name="Grupo 8714" clip-path="url(#clip-path-2)">
        <path id="Caminho_13856" data-name="Caminho 13856" d="M353.964,1717.68c-42.994,0-77.847,3.879-77.847,8.665s34.853,8.665,77.847,8.665,77.847-3.879,77.847-8.665-34.853-8.665-77.847-8.665" transform="translate(-240.408 -1495.541)" fill="#e8e8e8"/>
        <path id="Caminho_13857" data-name="Caminho 13857" d="M1240.613,1477.749l-2.22,15.044-4.133,28.02h50.829l-6.707-42.711Z" transform="translate(-1074.639 -1286.639)" fill="#4c4c4c"/>
        <g id="Grupo_8713" data-name="Grupo 8713" transform="translate(163.754 191.11)" opacity="0.5">
          <g id="Grupo_8712" data-name="Grupo 8712">
            <g id="Grupo_8711" data-name="Grupo 8711" clip-path="url(#clip-path-3)">
              <path id="Caminho_13858" data-name="Caminho 13858" d="M1268.441,1477.749l-2.22,15.044a69.9,69.9,0,0,1,27.526,19.982,80.513,80.513,0,0,1,5.849,8.038h13.322l-6.707-42.711Z" transform="translate(-1266.221 -1477.749)"/>
            </g>
          </g>
        </g>
        <path id="Caminho_13859" data-name="Caminho 13859" d="M1060.977,1769.8H955.789a8.142,8.142,0,0,0-8.119,8.119,8.051,8.051,0,0,0,.388,2.471h120.65a8.051,8.051,0,0,0,.388-2.471,8.142,8.142,0,0,0-8.119-8.119" transform="translate(-825.113 -1540.918)" fill="#4c4c4c"/>
        <path id="Caminho_13860" data-name="Caminho 13860" d="M776.26,388.709H593.415a16.993,16.993,0,0,0-16.942,16.942V510.841a28.68,28.68,0,0,0,.212,3.53,29.752,29.752,0,0,0,29.437,26.122H763.553a29.488,29.488,0,0,0,19.784-7.616,29.966,29.966,0,0,0,5.779-7.059,29.488,29.488,0,0,0,4.089-14.977V405.651a16.789,16.789,0,0,0-.305-3.195,17.009,17.009,0,0,0-16.64-13.748" transform="translate(-501.921 -338.439)" fill="#757575"/>
        <path id="Caminho_13861" data-name="Caminho 13861" d="M607.553,1386.5H764.983a29.489,29.489,0,0,0,19.784-7.616,29.966,29.966,0,0,0,5.779-7.059,29.432,29.432,0,0,0,3.877-11.447H578.116a29.752,29.752,0,0,0,29.437,26.122" transform="translate(-503.351 -1184.448)" fill="#4c4c4c"/>
        <path id="Caminho_13862" data-name="Caminho 13862" d="M855.683,465.135h-188.9a2.983,2.983,0,0,0-2.974,2.974v99.946a2.983,2.983,0,0,0,2.974,2.974h188.9a2.983,2.983,0,0,0,2.975-2.974V468.109a2.983,2.983,0,0,0-2.975-2.974" transform="translate(-577.964 -404.981)" fill="#e8e8e8"/>
      </g>
    </g>
    <g id="Grupo_8720" data-name="Grupo 8720" transform="translate(85.847 60.154)">
      <g id="Grupo_8719" data-name="Grupo 8719" clip-path="url(#clip-path-4)">
        <g id="Grupo_8718" data-name="Grupo 8718" transform="translate(-1.8 -60.154)" opacity="0.5">
          <g id="Grupo_8717" data-name="Grupo 8717">
            <g id="Grupo_8716" data-name="Grupo 8716" clip-path="url(#clip-path-5)">
              <rect id="Retângulo_3352" data-name="Retângulo 3352" width="228.026" height="40.946" transform="translate(0 174.832) rotate(-50.06)" fill="#fff"/>
              <rect id="Retângulo_3353" data-name="Retângulo 3353" width="222.379" height="17.649" transform="matrix(0.642, -0.767, 0.767, 0.642, 64.393, 217.154)" fill="#fff"/>
            </g>
          </g>
        </g>
      </g>
    </g>
    <g id="Grupo_8725" data-name="Grupo 8725" transform="translate(0 -0.001)">
      <g id="Grupo_8724" data-name="Grupo 8724" clip-path="url(#clip-path-2)">
        <path id="Caminho_13863" data-name="Caminho 13863" d="M1372.614,1407.514a6.612,6.612,0,1,0,6.612,6.612,6.62,6.62,0,0,0-6.612-6.612m0,12.707a6.1,6.1,0,1,1,6.095-6.095,6.1,6.1,0,0,1-6.095,6.095" transform="translate(-1189.343 -1225.487)" fill="#fff"/>
        <g id="Grupo_8723" data-name="Grupo 8723" transform="translate(259.574 163.578)" opacity="0.3">
          <g id="Grupo_8722" data-name="Grupo 8722">
            <g id="Grupo_8721" data-name="Grupo 8721" clip-path="url(#clip-path-7)">
              <path id="Caminho_13864" data-name="Caminho 13864" d="M2217.844,1277.208a58.484,58.484,0,0,0,.2,11.447,29.491,29.491,0,0,0,4.089-14.977v-8.824a27.5,27.5,0,0,0-1.971,3.461,27.042,27.042,0,0,0-2.315,8.893" transform="translate(-2190.421 -1264.854)"/>
              <path id="Caminho_13865" data-name="Caminho 13865" d="M2014.551,1334.24a32.472,32.472,0,0,0-7.4-3.882c.009,1.292.024,2.587.057,3.882a56.107,56.107,0,0,0,1.591,13.188c1.271,4.735,3.682,9.267,7.233,12.135a29.65,29.65,0,0,0,12.961-6.817,59.387,59.387,0,0,0-3.167-6.162,39.265,39.265,0,0,0-11.271-12.345" transform="translate(-2007.148 -1321.886)"/>
            </g>
          </g>
        </g>
        <path id="Caminho_13866" data-name="Caminho 13866" d="M748.234,522.764,705.5,690.7l-.11.434,166.8-46.956.431-.121L748.555,523.077ZM706.108,690.392,748.514,523.76l123.1,120.04Z" transform="translate(-614.162 -455.157)" fill="#fff"/>
        <path id="Caminho_13867" data-name="Caminho 13867" d="M796.951,603.1l166.373-46.834L839.577,435.6Z" transform="translate(-693.885 -379.265)" fill="#ffa95c"/>
        <path id="Caminho_13868" data-name="Caminho 13868" d="M872.348,682.388l142.935-40.236L908.97,538.485Z" transform="translate(-759.532 -468.845)" fill="#f27d00"/>
        <path id="Caminho_13869" data-name="Caminho 13869" d="M1234.427,915.656a6.15,6.15,0,0,0,4.244-3.241,7.26,7.26,0,0,0,.431-5.127l-7.255-30.83a9.51,9.51,0,0,0-3.211-5.254c-1.523-1.2-3.688-1.418-6.4-.692s-4.45,2.094-5.147,3.984a9.074,9.074,0,0,0,.007,6.013l.018-.306,9.176,30.516a8.412,8.412,0,0,0,2.935,4.225,5.821,5.821,0,0,0,5.2.711" transform="translate(-1059.246 -757.572)" fill="#ffa95c"/>
        <path id="Caminho_13870" data-name="Caminho 13870" d="M1327.088,1253.6a8.491,8.491,0,0,0-6.4-.692,8.174,8.174,0,0,0-5.2,3.8,8.325,8.325,0,0,0-.641,6.586,8.034,8.034,0,0,0,3.847,5.384,8.447,8.447,0,0,0,6.349.5,8.775,8.775,0,0,0,5.248-3.61,7.813,7.813,0,0,0,.828-6.636,8.093,8.093,0,0,0-4.034-5.334" transform="translate(-1144.474 -1090.589)" fill="#ffa95c"/>
        <path id="Caminho_13871" data-name="Caminho 13871" d="M1270.672,903.181a8.257,8.257,0,0,0,2.131-.3,6.422,6.422,0,0,0,4.41-3.379,7.479,7.479,0,0,0,.449-5.3l-7.257-30.838a9.738,9.738,0,0,0-3.3-5.39c-1.584-1.243-3.813-1.492-6.626-.738-2.754.738-4.595,2.171-5.323,4.145a9.27,9.27,0,0,0,0,6.18l.423,1.343.015-.252,8.756,29.122a8.639,8.639,0,0,0,3.026,4.353,5.352,5.352,0,0,0,3.293,1.055m-5.826-5.562-9.595-31.911a8.2,8.2,0,0,1,.389-4.148c.677-1.835,2.349-3.121,4.971-3.824,2.647-.709,4.724-.492,6.173.645a9.236,9.236,0,0,1,3.119,5.11l7.257,30.838a6.979,6.979,0,0,1-.414,4.948,5.929,5.929,0,0,1-4.077,3.1,5.559,5.559,0,0,1-4.98-.668,8.127,8.127,0,0,1-2.843-4.093" transform="translate(-1092.373 -746.003)" fill="#fff"/>
        <path id="Caminho_13872" data-name="Caminho 13872" d="M1365.525,1240.338h0a8.724,8.724,0,0,0-6.589-.714,8.408,8.408,0,0,0-5.354,3.918,8.551,8.551,0,0,0-.667,6.782,8.256,8.256,0,0,0,3.975,5.545,7.845,7.845,0,0,0,3.755.915,10.755,10.755,0,0,0,2.783-.389,9.033,9.033,0,0,0,5.4-3.717,8.113,8.113,0,0,0,.863-6.846,8.4,8.4,0,0,0-4.162-5.495m2.868,12.055a8.531,8.531,0,0,1-5.1,3.5,8.21,8.21,0,0,1-6.16-.482,7.768,7.768,0,0,1-3.719-5.223,8.059,8.059,0,0,1,.615-6.39,7.91,7.91,0,0,1,5.04-3.677,9.041,9.041,0,0,1,2.344-.32,8.063,8.063,0,0,1,3.866.99,7.8,7.8,0,0,1,3.907,5.173,7.522,7.522,0,0,1-.794,6.426" transform="translate(-1177.606 -1079.015)" fill="#fff"/>
        <path id="Caminho_13873" data-name="Caminho 13873" d="M769.795,643.722,753.3,634.2a1.1,1.1,0,0,0-1.5.4l-1.442,2.5a1.1,1.1,0,0,0,.4,1.5l16.491,9.521a1.1,1.1,0,0,0,1.5-.4l1.441-2.5a1.1,1.1,0,0,0-.4-1.5" transform="translate(-653.195 -552.056)" fill="#f27d00"/>
        <path id="Caminho_13874" data-name="Caminho 13874" d="M1371.358,350.677l-2.16-1.909a1.1,1.1,0,0,0-1.55.1l-12.612,14.267a1.1,1.1,0,0,0,.1,1.55l2.16,1.909a1.1,1.1,0,0,0,1.55-.1l12.612-14.266a1.1,1.1,0,0,0-.1-1.55" transform="translate(-1179.558 -303.424)" fill="#f27d00"/>
        <path id="Caminho_13875" data-name="Caminho 13875" d="M1025.97,204.58a1.1,1.1,0,0,0-1.419-.629l-2.69,1.037a1.1,1.1,0,0,0-.629,1.419l6.853,17.766a1.1,1.1,0,0,0,1.419.629l2.69-1.037a1.1,1.1,0,0,0,.629-1.419Z" transform="translate(-889.097 -177.511)" fill="#f27d00"/>
        <path id="Caminho_13876" data-name="Caminho 13876" d="M0,431.607l82.124,23.35-20.841-82.8Zm1-.253,60-58.2,20.4,81.059Z" transform="translate(0 -324.03)" fill="#fff"/>
        <path id="Caminho_13877" data-name="Caminho 13877" d="M64.146,419.669l81.262,23.1-20.622-81.927Z" transform="translate(-55.85 -314.179)" fill="#ffa95c"/>
        <path id="Caminho_13878" data-name="Caminho 13878" d="M115.915,461.635l69.814,19.85L168.012,411.1Z" transform="translate(-100.924 -357.933)" fill="#f27d00"/>
        <path id="Caminho_13879" data-name="Caminho 13879" d="M385.594,761.11a4,4,0,0,0-3.136.251,4.068,4.068,0,0,0-1.953,2.578,3.926,3.926,0,0,0,.223,3.227A4.128,4.128,0,0,0,383.242,769a4.289,4.289,0,0,0,3.109-.159,3.819,3.819,0,0,0,2.044-2.551,3.957,3.957,0,0,0-.314-3.254,4.151,4.151,0,0,0-2.487-1.927" transform="translate(-331.091 -662.501)" fill="#ffa95c"/>
        <path id="Caminho_13880" data-name="Caminho 13880" d="M417.806,575.823a3.373,3.373,0,0,0-3.163.341,4.434,4.434,0,0,0-1.537,2.505l.086-.123L409.2,593.6a4.112,4.112,0,0,0,.14,2.511,2.845,2.845,0,0,0,1.984,1.628,3.006,3.006,0,0,0,2.6-.262,3.549,3.549,0,0,0,1.492-2.024l4.874-14.694a4.649,4.649,0,0,0,.009-3.01,3.46,3.46,0,0,0-2.487-1.927" transform="translate(-356.164 -501.158)" fill="#ffa95c"/>
        <path id="Caminho_13881" data-name="Caminho 13881" d="M406.125,766.723a4.393,4.393,0,0,0-2.637-2.045,4.237,4.237,0,0,0-3.333.271,4.3,4.3,0,0,0-2.078,2.732,4.159,4.159,0,0,0,.248,3.431,4.383,4.383,0,0,0,2.664,1.953,5.156,5.156,0,0,0,1.476.226,4.28,4.28,0,0,0,1.816-.4,4.092,4.092,0,0,0,2.184-2.712,4.236,4.236,0,0,0-.338-3.457Zm-.158,3.31a3.551,3.551,0,0,1-1.9,2.39,4.041,4.041,0,0,1-2.927.146,3.885,3.885,0,0,1-2.365-1.718,3.673,3.673,0,0,1-.2-3.023A3.813,3.813,0,0,1,400.4,765.4a3.489,3.489,0,0,1,1.683-.424,4.4,4.4,0,0,1,1.256.194,3.891,3.891,0,0,1,2.338,1.809,3.689,3.689,0,0,1,.29,3.05" transform="translate(-346.379 -665.597)" fill="#fff"/>
        <path id="Caminho_13882" data-name="Caminho 13882" d="M435.705,579.414a3.642,3.642,0,0,0-3.4.385,4.659,4.659,0,0,0-1.628,2.646l-.343,1.366.055-.078-3.62,13.647a4.351,4.351,0,0,0,.151,2.667,3.081,3.081,0,0,0,2.15,1.781,4.094,4.094,0,0,0,1.17.183,2.973,2.973,0,0,0,1.641-.476,3.78,3.78,0,0,0,1.6-2.16l4.877-14.7a4.888,4.888,0,0,0,0-3.173,3.694,3.694,0,0,0-2.656-2.085m2.159,5.1-4.877,14.7A3.283,3.283,0,0,1,431.6,601.1a2.738,2.738,0,0,1-2.383.232,2.593,2.593,0,0,1-1.817-1.475,3.839,3.839,0,0,1-.131-2.35l4.174-15.733a3.879,3.879,0,0,1,1.181-1.567,3.116,3.116,0,0,1,2.929-.3,3.218,3.218,0,0,1,2.319,1.769,4.386,4.386,0,0,1-.012,2.839" transform="translate(-371.459 -504.277)" fill="#fff"/>
        <path id="Caminho_13883" data-name="Caminho 13883" d="M320.051,351.793a.538.538,0,0,0-.727-.217l-1.239.67a.538.538,0,0,0-.217.727l4.428,8.187a.538.538,0,0,0,.727.217l1.24-.67a.538.538,0,0,0,.217-.727Z" transform="translate(-276.703 -306.052)" fill="#f27d00"/>
        <path id="Caminho_13884" data-name="Caminho 13884" d="M629.276,409.923a.538.538,0,0,0-.67-.357l-8.9,2.71a.538.538,0,0,0-.357.67l.41,1.348a.538.538,0,0,0,.67.357l8.9-2.71a.538.538,0,0,0,.357-.67Z" transform="translate(-539.228 -356.578)" fill="#f27d00"/>
        <path id="Caminho_13885" data-name="Caminho 13885" d="M536.808,242.457l-1.4-.116a.538.538,0,0,0-.579.491l-.768,9.276a.538.538,0,0,0,.49.579l1.4.116a.538.538,0,0,0,.579-.491l.768-9.276a.538.538,0,0,0-.49-.579" transform="translate(-464.988 -210.998)" fill="#f27d00"/>
      </g>
    </g>
  </g>
</svg>
