<svg height="932.388" viewBox="0 0 1227.833 932.388" width="1227.833" xmlns="http://www.w3.org/2000/svg"><path d="m808.608 183.911c-78.714-2.372-153.682-24.325-225.27-48.406s-142.492-50.705-219.321-63.451c-49.415-8.2-105.933-9.353-145.74 13.573-38.323 22.05-50.7 60.13-57.357 95.462-5.011 26.575-7.954 54.548 5.765 79.432 9.535 17.283 26.441 31.8 38.141 48.345 40.707 57.588 11.931 128.592-32.169 184.866-20.676 26.38-44.7 51.531-60.665 79.614s-23.352 60.24-9.377 88.87c13.841 28.387 46.837 49.707 82.582 64.7 72.6 30.406 158.109 39.175 241.555 44.113 184.66 10.946 370.292 6.2 555.438 1.459 68.522-1.751 137.336-3.527 204.74-12.7 37.435-5.084 76.075-13.159 103.257-32.668 34.492-24.762 43.042-66.686 19.922-97.736-38.773-52.067-145.947-65.007-173.081-120.893-14.911-30.758.4-65.019 22.087-93.552 46.508-61.2 124.456-114.9 128.555-184.866 2.822-48.041-34.65-96.155-92.591-118.886-60.726-23.838-144.95-20.834-189.731 18.608-46.159 40.567-127.232 56.195-196.74 54.116z" fill="#001f40" opacity=".1" transform="translate(-95.226 -66.687)"/><path d="m343.321 706.653c-10.338-1.046-21.138-2.165-30.929.572s-17.9 10.727-15 18.365c6.495 17.027 44.611 5.169 62.186 16.808 6.276 4.16 8.72 10.7 13.622 15.811 7.93 8.295 21.564 12.162 34.723 14.291 79.055 12.783 169.177-20.116 238.466 11.566 22.439 10.265 40.135 26.6 64.74 33.446 32.595 9.073 68.291-.62 102.017-6.835a498.99 498.99 0 0 1 127.57-6.689c31.537 2.433 73.484 3.247 83.579-19.654 6.495-14.729-7.249-31.123-25.492-38.092s-39.6-6.75-59.972-6.081c-39.321 1.411-78.653 4.257-117.974 2.87-76.038-2.7-147.869-32.838-221.912-33.836-86.228-1.046-168.992 6.19-255.624-2.542z" fill="#001f40" opacity=".1" transform="translate(-51.64 71.444)"/><path d="m271.614 395.379c-12.162 12.3-12.9 31.147-12.9 31.147s18.839-1.07 30.953-13.379 12.912-31.147 12.912-31.147-18.851 1.107-30.965 13.379z" fill="#001f40" opacity=".1" transform="translate(-59.876 1.492)"/><path d="m309.783 149.18c4.293 16.723 20.043 27.122 20.043 27.122s8.793-16.7 4.5-33.422-20.043-27.11-20.043-27.11-8.842 16.699-4.5 33.41z" fill="#001f40" opacity=".1" transform="translate(-49.092 -56.073)"/><path d="m896.706 183.441c-12.162 12.3-12.917 31.148-12.917 31.148s18.852-1.07 30.965-13.378 12.9-31.16 12.9-31.16-18.834 1.154-30.948 13.39z" fill="#001f40" opacity=".1" transform="translate(75.283 -44.337)"/><path d="m589.642 328.089c-1.411 17.2 10.058 32.181 10.058 32.181s13.78-12.9 15.191-30.114-10.059-32.156-10.059-32.156-13.78 12.88-15.19 30.089z" fill="#001f40" opacity=".1" transform="translate(11.654 -16.671)"/><path d="m917.7 526.4c-1.411 17.2 10.058 32.181 10.058 32.181s13.78-12.9 15.191-30.1-10.057-32.181-10.057-32.181-13.78 12.9-15.192 30.1z" fill="#001f40" opacity=".1" transform="translate(82.59 26.207)"/><path d="m0 0h35.271v37.095h-35.271z" fill="#ff7590" transform="translate(758.942 245.231)"/><path d="m696.654 630.077c-3.1 15.507-7.7 27.56-16.212 34.662s-20.469 26.149-20.469 26.149c-.207 25.334-6.9 33.033-6.9 33.033l-6.9 1.824h-17.02s-3.041-8.513-3.649-13.573c-.207-1.691 1-4.524 2.676-7.565a94.763 94.763 0 0 0 11.129-36.037l.791-7.48c-1.435-46.423 17.027-61.492 24.774-65.786a7.589 7.589 0 0 0 3.856-5.887l1.37-13.267 45.8 2.25s-.973 4.038.766 13.378c.353 1.934.827 4.086 1.459 6.482 3.656 13.975-21.277 30.796-21.471 31.817z" fill="#8e5362" transform="translate(19.429 43.473)"/><path d="m759.874 597.187a118.1 118.1 0 0 1 -6.483 19.837 50.94 50.94 0 0 0 -3.892 18.049v.62a157.091 157.091 0 0 1 -11.274 53.587c-6.726 16.833-15.641 38.737-18.316 43.346-4.451 7.7-1.824 20.676-1.824 20.676l-25.785-1.824.45-43.383c-2.688-30.977 7.212-59.6 12.576-72.524a47.527 47.527 0 0 0 3.649-16.285l1.216-28.776.377-8.513s45.584-6.483 49.427 3.855c1.059 2.737.805 6.811-.121 11.335z" fill="#8e5362" transform="translate(33.877 44.304)"/><path d="m708.992 591.778-47.992-2.359 1.375-13.269 45.852 2.25s-1.011 4.026.765 13.378z" opacity=".1" transform="translate(27.11 43.473)"/><path d="m756.7 597.187-49.7-6.677.377-8.514s45.584-6.483 49.427 3.855c1.071 2.738.815 6.812-.104 11.336z" opacity=".1" transform="translate(37.056 44.304)"/><path d="m796.756 541.071-19.856 87.167-58.78-7.905v-30l-5.084 30.831-70.541-3.454 3.649-67.5a250.367 250.367 0 0 0 7.905-41.145c1.374-15.252 8.6-52.869 12.089-70.541 1.216-5.826 1.9-9.5 1.9-9.5s120.82 25.127 128.725 34.249c1.35 1.557 2.238 4.865 2.785 9.255 2.645 21.305-2.792 68.543-2.792 68.543z" fill="#bdd2e8" transform="translate(23.107 11.659)"/><path d="m653.33 529.446s47.554-24.933 59.145-19.666z" opacity=".1" transform="translate(25.451 28.964)"/><path d="m674.66 458.82s39.527 30 40.743 38.1z" opacity=".1" transform="translate(30.063 18.102)"/><path d="m665.83 543.834s28.581-1.216 37.7 6.081z" opacity=".1" transform="translate(28.154 36.469)"/><path d="m708.917 517.44s13.585 44.465 7.7 56.628-11.956-2.846-11.956-2.846z" opacity=".1" transform="translate(36.549 30.778)"/><path d="m694.469 708s-13.379 2.031-10.946 34.456 6.081 38.116 10.946 38.518 28.581 6.288 27.365-5.68-2.432-38.505-.815-42.568 4.415-14.753-1.715-17.392l-1.326 6.251s-12.978-11.967-20.678-3.247a33.693 33.693 0 0 0 -1.593-6.239c-.764-1.899-2.442-2.883-1.238-4.099z" fill="#494457" transform="translate(31.916 71.982)"/><path d="m912.466 390.252s-3.065 1.715-7.565 3.855c-6.945 3.308-17.295 7.662-24.957 8.307-12.624 1.07-16.577 2.286-31.014-8.051-11.08-7.93-29.627-18.985-37.7-23.7l-3.515-2.08-.353-.207v-.146l6.7-18.414 23.716-12.616 5.887 5.047 17.525 15.02s2.737 4.4 7.151 4.1 27.973 1.666 27.973 1.666l4.451.73 9.377 1.557z" fill="#8e5362" transform="translate(58.757 -8.194)"/><path d="m896.706 385.523s-3.065 1.715-7.565 3.855c-4.755-2.432-10.666-6.993-8.392-14.5 2.056-6.75 2.615-12.016 4.305-15.811l9.377 1.557z" opacity=".1" transform="translate(74.517 -3.466)"/><path d="m893.3 353.961s26.453-7.6 24.482 24.325-22.354 14.449-22.354 14.449-17.331-4.561-13.683-16.577 2.595-19.303 11.555-22.197z" fill="#8e5362" transform="translate(74.733 -4.741)"/><path d="m683.416 305.029-27.56 11.578-.426.182-.3-.146-1.715-.863c-7.127-3.551-31.622-15.7-47.031-22.914-18.243-8.514-15.41-17.027-15.41-17.027l-2.627-89.186-4.67-16.018s-3.3-54.292 23.108-67.9 9.328 78.641 9.328 78.641l2.043 19.168a205.259 205.259 0 0 0 7.237 36.207 56.248 56.248 0 0 1 2.141 11.931c.815 12.965 6.9 12.1 6.9 12.1a84.662 84.662 0 0 1 27.406 9.318 68.574 68.574 0 0 1 9.073 5.741z" fill="#8e5362" transform="translate(10.361 -59.189)"/><path d="m750.512 314.776-23.522-2.432s6.933-10.314 9.985-20.347a34.6 34.6 0 0 0 1.034-4.2c.705-3.977.523-7.662-1.289-10.326-6.884-10.131 40.95-24.324 40.95-24.324a116.824 116.824 0 0 0 -.523 16.881 85.4 85.4 0 0 0 1.216 11.688c1.447 7.869 4.33 15.276 9.827 19.07 15.021 10.341-37.678 13.99-37.678 13.99z" fill="#8e5362" transform="translate(41.379 -26.368)"/><path d="m750.512 309.7-23.522-2.433s6.933-10.314 9.985-20.347c2.712 3.855 3.649 3.77 7.455 4.536 0 0 23.741 3.515 33.957-14.814 1.447 7.869 4.33 15.276 9.827 19.07 14.997 10.336-37.702 13.988-37.702 13.988z" opacity=".1" transform="translate(41.379 -21.289)"/><path d="m811.266 370.658a13.013 13.013 0 0 0 .1 2.165l-3.648-4.245-.3-.353 6.7-18.414 23.71-12.611 5.887 5.047c-8.429 3.223-32.073 13.453-32.449 28.411z" opacity=".1" transform="translate(58.767 -8.194)"/><path d="m671.068 275.036-27.56 11.578h-.73l-2.128.146s.158-.353.413-1.01c2.3-5.583 12.965-32.838 8.356-45.681a68.57 68.57 0 0 1 9.073 5.741z" opacity=".1" transform="translate(22.709 -29.197)"/><path d="m795.338 472.49c-10.727-.961-118.047-10.885-128.056-26.684a55.5 55.5 0 0 0 -5.352-7.3c1.216-5.826 1.9-9.5 1.9-9.5s120.82 25.127 128.725 34.249c1.345 1.536 2.236 4.832 2.783 9.235z" opacity=".1" transform="translate(27.31 11.657)"/><path d="m762.665 300.848s24 3.551 34.14-15.093c0 0 16.942 13.914 27.073 15.106s57.163 60.4 57.163 60.4-37.7 12.162-35.271 31.622l-17.842-20.683s-8.915-.414-16.614 24.325c0 0-9.328 14.181-8.112 59.182s-2.834 55.545-2.834 55.545-118.387-10.128-128.92-26.752-12.162-8.514-12.162-8.514-1.63-31.622 9.316-57.163 8.513-98.916 8.513-98.916 1.216-36.085-34.456-32.838c0 0 15-34.869 8.112-48.248 0 0 20.518 5.57 35.137 5.741a60.106 60.106 0 0 1 25.881 6.081c4.391 2.153 8.441 4.865 10.739 8.1 6.884 9.73 18.243 5.278 18.243 5.278a184.14 184.14 0 0 0 10.581 25.942c.474.888.949 1.764 1.435 2.6a39.859 39.859 0 0 0 2.165 3.43c2.921 4.173 3.748 4.064 7.713 4.855z" fill="#f17b00" transform="translate(23.144 -29.467)"/><path d="m775.531 270a41.664 41.664 0 0 1 -4.306 5.169 42.434 42.434 0 0 1 -30.406 12.819 43.68 43.68 0 0 1 -4.39-.219c.705-3.977.523-7.662-1.289-10.326-6.884-10.131 40.95-24.324 40.95-24.324a116.848 116.848 0 0 0 -.559 16.881z" opacity=".1" transform="translate(42.995 -26.374)"/><path d="m789.8 253.388a42.41 42.41 0 1 1 -12.422-30.147 42.568 42.568 0 0 1 12.422 30.147z" fill="#8e5362" transform="translate(36.549 -35.522)"/><path d="m792 325.829.876 28.484s12.71-10.241 13.111-19.97-13.987-8.514-13.987-8.514z" opacity=".1" transform="translate(55.436 -10.663)"/><path d="m707.66 349.24s33.446 45.913 52.906 50.571-45.609-35.684-52.906-50.571z" opacity=".1" transform="translate(37.199 -5.591)"/><path d="m736.83 353.17s18.645 21.065 32.023 23.692z" opacity=".1" transform="translate(43.506 -4.741)"/><path d="m682.83 396.82s34.054 33.446 53.514 35.477z" opacity=".1" transform="translate(31.83 4.696)"/><path d="m787.547 253.389a42.41 42.41 0 0 1 -12.162 29.749l-4.67-2.907a12.916 12.916 0 0 1 -4.549-3.953c-1.545-2.578-1.095-5.814-.973-8.818.255-6.361-1.5-13.245-6.47-17.222-8.064-6.458-20.992-2.882-29.189-9.219a28.772 28.772 0 0 1 -5.169-5.753l-7.687-10.3c-.462-.608-1.022-1.216-1.618-1.934a42.568 42.568 0 0 1 72.414 30.406z" opacity=".1" transform="translate(38.799 -35.522)"/><path d="m720.078 203.732c3.807-2.907 8.453-4.439 12.734-6.58s8.063-4.865 12.345-6.689 9.231-2.895 13.671-1.374c9.523 3.272 13.123 16.577 22.914 18.912 1.654.389 3.356.426 5.023.681a22.865 22.865 0 0 1 15.385 10.764 35.829 35.829 0 0 1 4.865 18.5 29.639 29.639 0 0 1 -1.545 10.618c-2.894 7.942-10.155 13.378-15.057 20.25a38.507 38.507 0 0 0 -7.042 22.488l-11.87-7.382a12.794 12.794 0 0 1 -4.549-3.953c-1.545-2.578-1.095-5.814-.973-8.818.255-6.361-1.5-13.245-6.458-17.222-8.075-6.458-21-2.882-29.189-9.219a28.777 28.777 0 0 1 -5.169-5.753l-7.686-10.3c-1.666-2.238-4.865-5.023-5.595-7.747-1.618-5.865 3.918-13.88 8.196-17.176z" fill="#362133" transform="translate(38.049 -40.377)"/><path d="m772.83 279.621a12.794 12.794 0 0 1 -4.549-3.953c-1.545-2.578-1.095-5.814-.973-8.818.255-6.361-1.5-13.245-6.47-17.222-8.064-6.458-20.992-2.882-29.189-9.219a28.775 28.775 0 0 1 -5.169-5.753l-7.687-10.3c-1.678-2.238-4.865-5.023-5.595-7.747-1.326-4.695 2.031-10.812 5.619-14.729-4.026 3.722-8.441 10.788-6.945 16.054.778 2.724 3.928 5.509 5.595 7.747l7.686 10.3a28.784 28.784 0 0 0 5.169 5.753c8.161 6.337 21.089 2.761 29.189 9.219 4.962 3.977 6.714 10.861 6.458 17.222-.121 3-.572 6.239.973 8.818a12.8 12.8 0 0 0 4.549 3.953l11.87 7.382a20.184 20.184 0 0 1 .073-2.1z" opacity=".1" transform="translate(38.046 -37.454)"/><path d="m628.8 682.94s-11.846 2.432-9.414 34.918 6.081 38.117 10.946 38.518 28.581 6.288 27.365-5.68-2.433-38.506-.815-42.568 8.039-14.972 1.909-17.611l-4.95 6.47s-12.977-11.968-20.676-3.247c.003 0-7.197-7.966-4.365-10.8z" fill="#494457" transform="translate(18.041 66.563)"/><path d="m633.23 699.5c2.566 1.216 4.962 2.7 7.516 3.916a16.868 16.868 0 0 0 8.161 1.922 5.691 5.691 0 0 0 3.332-1.155" opacity=".1" transform="translate(21.105 70.144)"/><path d="m697.33 725.62c1.52 1.4 2.7 3.186 4.415 4.342 2.432 1.63 5.546 1.727 8.513 1.764a3.455 3.455 0 0 0 1.459-.183 3.55 3.55 0 0 0 1.3-1.216l1.593-2.055" opacity=".1" transform="translate(34.965 75.792)"/><path d="m533.112 289.463s-5.473-51.884 15.811-39.114 6.629 35.465 6.629 35.465l-5 16.018z" fill="#ffc1c7" transform="translate(-.68 -27.411)"/><path d="m561 157.312 12.162-11.943s23.315-67.1 46.423-49.865-29.285 60.811-29.285 60.811l-13.889 16.212z" fill="#ffc1c7" transform="translate(5.487 -61.068)"/><path d="m414.768 365.155-.608 13.78s11.153 19.46 15.811 20.883 4.257-41.157 4.257-41.157z" fill="#b45c01" transform="translate(-26.264 -3.554)"/><path d="m334.76 284.87.827 50.79h56.542l-4.257-29.591z" fill="#ffc1c7" transform="translate(72.389 61.6)"/><path d="m441.946 455.82 2.639 16.212 33.045 73.387s15 23.108 2.834 42.568-24.726 49.865-26.757 68.3-18.036 36.487-18.036 36.487l34.869 14.8s2.432-28.982 12.162-42.568 40.938-73.375 40.938-73.375 9.937-8.927 7.711-35.477-2.031-45.207-2.031-45.207l-3.442-42.361z" fill="#575988" transform="translate(-21.613 17.454)"/><path d="m441.946 455.82 2.639 16.212 33.045 73.387s15 23.108 2.834 42.568-24.726 49.865-26.757 68.3-18.036 36.487-18.036 36.487l34.869 14.8s2.432-28.982 12.162-42.568 40.938-73.375 40.938-73.375 9.937-8.927 7.711-35.477-2.031-45.207-2.031-45.207l-3.442-42.361z" opacity=".1" transform="translate(-21.613 17.454)"/><path d="m443.039 648.82s-37.3 11.347-24.933 30 52.5 54.122 68.717 52.906 9.73-13.184 9.73-13.184l-13.585-13.378s-2.432-28.375-1.411-36.681-11.554-12.162-13.184-7.3-25.334-12.363-25.334-12.363z" fill="#c4747b" transform="translate(-25.953 59.185)"/><path d="m465.345 375.58-29.566 3.272a10.606 10.606 0 0 0 -9.438 10.812c.316 11.822.523 30.625-1.131 34.054-2.433 5.072-9.924 41.157 22.5 65.676l43.99 13.987-70.541 5.072 2.238 39.126 10.946-6.081 133.785 6.081s37.91-3.855 12.162-45-80.466-81.487-80.466-81.487l-.608-32.035-4.062-9.316z" fill="#575988" transform="translate(-24.75 .104)"/><path d="m487.66 480.714a37.994 37.994 0 0 1 30.406 0z" opacity=".1" transform="translate(-10.371 22.15)"/><path d="m431.785 485.054s-43.577-6.276-43.784 2.031 6.081 89.186 26.964 83.713 11.955-32.23 11.955-32.23l15.616-15s1.618-8.307-8.72-7.5z" fill="#c4747b" transform="translate(-31.921 23.284)"/><path d="m484.844 302.546 17.222 19.666s7.5 9.328 16.419-4.865 25.541-39.527 25.541-39.527 18.45 16.212 23.315 12.977-44.794 67.513-44.794 67.513-15.811 23.3-39.333-4.257l-6.884-3.247z" fill="#e27504" transform="translate(-12.821 -21.034)"/><circle cx="419.336" cy="165.716" fill="#ffc1c7" r="35.879"/><path d="m446.073 235.29s-30.831 14.595-27.183 40.135 4.257 57.771 4.257 57.771 14 20.676-4.561 60.2c0 0-11.858 20.068-3.953 34.662 0 0 8.769-23.108 31.439-6.081s59.169 24.933 59.169 24.933-18.852-82.7-7.3-94.258c0 0 20.068-29.8 1.824-48.649s-9.122-36.487-9.122-36.487l58.59-31.416s12.357.195 28.983-25.747a446.768 446.768 0 0 1 35.477-47.433s-12.576-18.851-24.325-20.274c0 0-4.67 4.865-7.905 18.049-1.727 6.993-13.464 18.681-24.081 28.107-7.541 6.689-14.814 13.634-22.075 20.676-5.376 5.169-17.343 12.564-43.444 16.747-42.957 6.851-45.79 9.065-45.79 9.065z" opacity=".1" transform="translate(-26.749 -50.262)"/><path d="m446.073 233.29s-30.831 14.595-27.183 40.136 4.257 57.771 4.257 57.771 14 20.676-4.561 60.2c0 0-11.858 20.068-3.953 34.662 0 0 8.769-23.108 31.439-6.081s59.169 24.933 59.169 24.933-18.852-82.7-7.3-94.257c0 0 20.068-29.8 1.824-48.649s-9.122-36.487-9.122-36.487l58.59-31.418s12.357.195 28.983-25.747a446.751 446.751 0 0 1 35.477-47.433s-12.576-18.851-24.325-20.274c0 0-4.67 4.865-7.905 18.049-1.727 6.993-13.464 18.681-24.081 28.107-7.541 6.689-14.814 13.634-22.075 20.676-5.376 5.169-17.343 12.564-43.444 16.747-42.957 6.851-45.79 9.065-45.79 9.065z" fill="#f17b00" transform="translate(-26.749 -50.694)"/><path d="m461.83 342.49s23.911 35.271 24.519 41.352c.012 0-3.637-37.91-24.519-41.352z" opacity=".1" transform="translate(-15.956 -7.051)"/><path d="m436 244.82s16.674 20.068 40.768 3.247a51.677 51.677 0 0 1 -40.768-3.247z" opacity=".1" transform="translate(-21.541 -28.17)"/><path d="m469.206 176.327a10.763 10.763 0 0 0 -2.627-4.865c-5.5-6.9-11.469-13.975-19.654-17.246a27.17 27.17 0 0 0 -31 8.83c-2.943 3.965-4.695 8.684-7.236 12.928-4.695 7.857-11.955 13.914-19.764 18.706-4.707 2.882-9.669 5.376-14.108 8.647-16.139 11.883-23.595 33.848-19.533 53.514 1.788 8.611 5.57 17.1 4.549 25.845-.791 6.787-4.4 12.868-8.064 18.633s-7.565 11.6-9.024 18.243.073 14.51 5.583 18.535c2.031 1.484 4.476 2.432 6.215 4.208a20.206 20.206 0 0 1 2.858 4.549 44.721 44.721 0 0 0 27.766 21.892c5.23 1.374 12.248.876 14.157-4.184a10.944 10.944 0 0 1 .985-2.566c1.727-2.432 5.534-1.07 8.21.328a50.826 50.826 0 0 0 19.618 5.631 16.358 16.358 0 0 0 8.039-.961 14.849 14.849 0 0 0 5.412-4.682c6.4-8.331 8.234-19.216 9.328-29.664.718-6.8 1.216-13.719-.085-20.433-2.068-10.776-8.623-20.846-7.65-31.768 1.034-11.676 10.508-21.223 11.955-32.838a25.042 25.042 0 0 0 -4.269-17.258 24.678 24.678 0 0 1 -3.247-5.084 5.047 5.047 0 0 1 .973-5.583 8.514 8.514 0 0 1 2.53-1.216c7.82-3 11.992-10.837 12.551-18.852.219-3.041 0-5.838.839-8.805 1.336-4.584 5.387-9.595 4.693-14.484z" opacity=".1" transform="translate(-41.819 -48.133)"/><path d="m467.206 176.327a10.763 10.763 0 0 0 -2.627-4.865c-5.5-6.9-11.469-13.974-19.654-17.246a27.17 27.17 0 0 0 -31 8.83c-2.943 3.965-4.695 8.684-7.237 12.928-4.695 7.857-11.955 13.914-19.764 18.706-4.707 2.882-9.669 5.376-14.108 8.647-16.139 11.883-23.595 33.848-19.533 53.514 1.788 8.611 5.57 17.1 4.549 25.845-.791 6.787-4.4 12.868-8.064 18.633s-7.565 11.6-9.024 18.243.073 14.51 5.582 18.535c2.031 1.484 4.476 2.432 6.215 4.208a20.207 20.207 0 0 1 2.858 4.549 44.72 44.72 0 0 0 27.766 21.892c5.23 1.374 12.247.876 14.157-4.184a10.946 10.946 0 0 1 .985-2.566c1.727-2.432 5.534-1.07 8.21.328a50.825 50.825 0 0 0 19.618 5.631 16.358 16.358 0 0 0 8.039-.961 14.85 14.85 0 0 0 5.412-4.682c6.4-8.331 8.234-19.216 9.328-29.664.718-6.8 1.216-13.719-.085-20.433-2.068-10.776-8.623-20.846-7.65-31.768 1.034-11.676 10.508-21.223 11.956-32.838a25.042 25.042 0 0 0 -4.269-17.258 24.674 24.674 0 0 1 -3.247-5.084 5.047 5.047 0 0 1 .973-5.582 8.516 8.516 0 0 1 2.53-1.216c7.82-3 11.992-10.837 12.551-18.852.219-3.041 0-5.838.839-8.805 1.337-4.585 5.388-9.596 4.694-14.485z" fill="#bb7684" transform="translate(-42.251 -48.133)"/><g opacity=".1" transform="translate(344.051 104.322)"><path d="m386.49 324.94a11.471 11.471 0 0 0 -1 2.566c-1.131 3.016-4.086 4.4-7.382 4.743 4.585.462 9.487-.645 11.031-4.743a11.464 11.464 0 0 1 1-2.566 3.042 3.042 0 0 1 1.216-1.034c-1.849-.535-3.746-.506-4.865 1.034z" transform="translate(-378.11 -115.459)"/><path d="m451.906 176.322a10.5 10.5 0 0 0 -2.627-4.865c-5.5-6.9-11.469-13.974-19.654-17.246a25.54 25.54 0 0 0 -11.189-1.678 24.834 24.834 0 0 1 7.541 1.678c8.185 3.272 14.157 10.35 19.654 17.246a10.494 10.494 0 0 1 2.627 4.865c.693 4.865-3.345 9.912-4.682 14.412-.888 2.968-.632 5.753-.839 8.805-.572 8-4.731 15.811-12.564 18.851a8.515 8.515 0 0 0 -2.53 1.216 5.047 5.047 0 0 0 -.961 5.595 24.616 24.616 0 0 0 3.235 5.084 25.018 25.018 0 0 1 4.281 17.246c-1.46 11.639-10.946 21.174-11.968 32.838-.973 10.946 5.595 20.992 7.65 31.756 1.289 6.714.8 13.634.085 20.433-1.095 10.447-2.919 21.345-9.329 29.664a14.8 14.8 0 0 1 -5.4 4.682 12.089 12.089 0 0 1 -3.977.985 15.726 15.726 0 0 0 7.626-.985 14.8 14.8 0 0 0 5.436-4.6c6.41-8.319 8.234-19.216 9.328-29.664.718-6.8 1.216-13.719-.085-20.433-2.055-10.764-8.623-20.846-7.65-31.756 1.046-11.688 10.508-21.223 11.968-32.838a25.018 25.018 0 0 0 -4.281-17.246 24.615 24.615 0 0 1 -3.235-5.084 5.047 5.047 0 0 1 .961-5.595 8.515 8.515 0 0 1 2.53-1.216c7.833-3.016 11.992-10.849 12.563-18.851.207-3.053 0-5.838.839-8.805 1.303-4.582 5.341-9.593 4.647-14.494z" transform="translate(-370.942 -152.462)"/></g><path d="m406.82 525a16.431 16.431 0 0 0 16.82 4.646" opacity=".1" transform="translate(-27.851 32.413)"/><path d="m472.392 696a10.327 10.327 0 0 1 -8.392 2.116" opacity=".1" transform="translate(-15.487 69.387)"/><g fill="#001f40"><ellipse cx="127.892" cy="797.605" opacity=".1" rx="32.753" ry="5.534"/><ellipse cx="1024.591" cy="907.796" rx="32.753" ry="5.534"/><ellipse cx="1024.591" cy="801.279" opacity=".1" rx="32.753" ry="5.534"/><ellipse cx="220.762" cy="848.991" opacity=".1" rx="32.753" ry="5.534"/><ellipse cx="1128.176" cy="848.991" rx="48.904" ry="8.27"/><ellipse cx="425.028" cy="913.731" opacity=".1" rx="110.385" ry="18.657"/><path d="m1047.49 757.627a14.266 14.266 0 0 0 4.67-7.042c.6-2.8-.6-6.142-3.259-7.164-2.992-1.143-6.191.924-8.611 3.028s-5.206 4.476-8.38 4.038a12.734 12.734 0 0 0 3.94-11.931 5 5 0 0 0 -1.095-2.432c-1.666-1.776-4.67-1.009-6.665.389-6.324 4.451-8.088 13.038-8.124 20.773-.633-2.785-.1-5.692-.11-8.513s-.8-6.081-3.211-7.577a9.815 9.815 0 0 0 -4.865-1.216c-2.846-.1-6.008.182-7.954 2.262-2.433 2.591-1.788 6.92.316 9.73s5.291 4.622 8.222 6.592a18.247 18.247 0 0 1 5.887 5.607 6.183 6.183 0 0 1 .438 1h17.818a49.552 49.552 0 0 0 10.983-7.541z" transform="translate(100.9 77.84)"/><path d="m962.332 806.217a14.242 14.242 0 0 0 4.658-7.042c.6-2.8-.584-6.081-3.26-7.163-2.992-1.143-6.191.924-8.611 3.028s-5.205 4.476-8.38 4.038a12.735 12.735 0 0 0 3.941-11.931 4.865 4.865 0 0 0 -1.095-2.432c-1.654-1.776-4.67-1.009-6.652.389-6.324 4.451-8.088 13.038-8.125 20.773-.645-2.785-.11-5.692-.122-8.513s-.8-6.081-3.211-7.577a9.731 9.731 0 0 0 -4.865-1.155c-2.846-.1-6.008.182-7.954 2.262-2.432 2.591-1.788 6.92.316 9.73s5.29 4.622 8.234 6.592a18.245 18.245 0 0 1 5.875 5.607 6.2 6.2 0 0 1 .438 1h17.818a49.868 49.868 0 0 0 10.995-7.606z" transform="translate(82.484 88.347)"/></g><path d="m308.436 744.933s-17.088-58.026 3.211-100.728a91.655 91.655 0 0 0 7.443-57.527 153.928 153.928 0 0 0 -8.136-26.988" fill="none" stroke="#535461" stroke-miterlimit="10" stroke-width="2" transform="translate(-50.578 39.913)"/><path d="m324.239 539.86c0 7.115-12.88 27.73-12.88 27.73s-12.868-20.615-12.868-27.73a12.88 12.88 0 1 1 25.747 0z" fill="#001f40" transform="translate(-51.276 32.755)"/><path d="m341.761 573.372c-3.868 5.96-25.881 16.273-25.881 16.273s.4-24.325 4.269-30.272a12.88 12.88 0 0 1 21.612 14z" fill="#001f40" transform="translate(-47.514 38.638)"/><path d="m341.834 629.534c-6.349 3.211-30.564 1-30.564 1s12.612-20.785 18.961-23.984a12.88 12.88 0 0 1 11.6 22.987z" fill="#001f40" transform="translate(-48.511 49.781)"/><path d="m331.716 671.078c-5.716 4.221-29.956 6.081-29.956 6.081s8.927-22.622 14.595-26.854a12.88 12.88 0 0 1 15.312 20.676z" fill="#001f40" transform="translate(-50.568 59.039)"/><path d="m294.308 588.3c5.108 4.95 28.861 10.082 28.861 10.082s-5.814-23.607-10.946-28.557a12.88 12.88 0 0 0 -17.94 18.475z" fill="#001f40" transform="translate(-52.978 41.367)"/><path d="m283.83 637.714c6.349 3.2 30.552.985 30.552.985s-12.612-20.785-18.961-23.984a12.878 12.878 0 1 0 -11.592 23z" fill="#001f40" transform="translate(-55.977 51.513)"/><path d="m279.15 686.526c5.716 4.232 29.956 6.081 29.956 6.081s-8.927-22.622-14.595-26.842a12.88 12.88 0 0 0 -15.311 20.676z" fill="#001f40" transform="translate(-56.465 62.382)"/><path d="m274 712.608s20.81-4.135 26.368-9.645 30.515-15.142 33.288-8.258 37.46 30.3 13.877 34.432-55.5 5.51-62.429 2.761-11.104-19.29-11.104-19.29z" fill="#a8a8a8" transform="translate(-56.57 68.591)"/><path d="m347.569 722.97c-23.583 4.135-55.5 5.51-62.429 2.749-5.291-2.092-8.964-12.162-10.411-16.869l-.73.182s4.16 16.529 11.1 19.29 38.846 1.374 62.429-2.761c6.811-1.216 8.757-3.989 8.027-7.541-.542 2.275-2.914 4.063-7.986 4.95z" opacity=".2" transform="translate(-56.57 72.166)"/><path d="m946.44 659.91s6.689 8.745-3.077 21.892-17.818 24.325-14.595 32.558c0 0 14.741-24.507 26.757-24.848s4.087-14.898-9.085-29.602z" fill="#001f40" transform="translate(84.852 61.584)"/><path d="m946.37 659.91a10.935 10.935 0 0 1 1.375 2.748c11.7 13.743 17.927 26.575 6.677 26.891-10.472.3-23.035 19.034-26.052 23.765a11.212 11.212 0 0 0 .352 1.083s14.741-24.507 26.757-24.848 4.063-14.935-9.109-29.639z" opacity=".1" transform="translate(84.923 61.584)"/><path d="m953.665 669.424c0 3.077-.353 5.57-.778 5.57s-.766-2.432-.766-5.57.426-1.63.851-1.63.693-1.447.693 1.63z" fill="#ffd037" transform="translate(90.057 63.21)"/><path d="m957.826 672.464c-2.7 1.472-5.06 2.359-5.254 1.983s1.812-1.861 4.512-3.332 1.642-.4 1.849 0 1.593-.123-1.107 1.349z" fill="#ffd037" transform="translate(90.152 63.844)"/><path d="m916.829 659.91s-6.689 8.745 3.077 21.892 17.818 24.325 14.595 32.558c0 0-14.729-24.507-26.757-24.848s-4.111-14.898 9.085-29.602z" fill="#001f40" transform="translate(79.179 61.584)"/><path d="m916.834 659.91a10.945 10.945 0 0 0 -1.374 2.748c-11.7 13.743-17.927 26.575-6.677 26.891 10.472.3 23.035 19.034 26.052 23.765a8.736 8.736 0 0 1 -.365 1.083s-14.729-24.507-26.757-24.848-4.075-14.935 9.121-29.639z" opacity=".1" transform="translate(79.175 61.584)"/><path d="m903.94 669.424c0 3.077.353 5.57.778 5.57s.766-2.432.766-5.57-.426-1.63-.851-1.63-.693-1.447-.693 1.63z" fill="#ffd037" transform="translate(79.639 63.21)"/><path d="m900.733 672.464c2.7 1.472 5.047 2.359 5.254 1.983s-1.812-1.861-4.512-3.332-1.642-.4-1.849 0-1.593-.123 1.107 1.349z" fill="#ffd037" transform="translate(78.59 63.844)"/><path d="m905.69 705.567s18.681-.584 24.325-4.585 28.739-8.793 30.138-2.432 28.071 31.975 6.981 32.145-49-3.284-54.62-6.7-6.824-18.428-6.824-18.428z" fill="#a8a8a8" transform="translate(80.018 69.27)"/><path d="m967.5 726.724c-21.089.17-49-3.284-54.621-6.7-4.281-2.6-6-11.956-6.556-16.273h-.632s1.216 15.069 6.811 18.487 33.531 6.872 54.621 6.7c6.081 0 8.185-2.214 8.076-5.412-.853 1.958-3.176 3.162-7.699 3.198z" opacity=".2" transform="translate(80.018 71.063)"/></svg>