<svg height="1071.11" viewBox="0 0 1417.455 1071.11" width="1417.455" xmlns="http://www.w3.org/2000/svg" xmlns:xlink="http://www.w3.org/1999/xlink"><linearGradient id="a" gradientUnits="objectBoundingBox" x1=".5" x2=".5" y1="1"><stop offset="0" stop-color="#808080" stop-opacity=".251"/><stop offset=".54" stop-color="#808080" stop-opacity=".122"/><stop offset="1" stop-color="#808080" stop-opacity=".102"/></linearGradient><linearGradient id="b" x1=".5" x2=".5" xlink:href="#a" y2="0"/><linearGradient id="c" x1="1.096" x2="1.096" xlink:href="#a" y2="0"/><path d="m43.44 426.65c22.426 87.4 69.908 162.952 144.948 199.569 156.012 76.112 507.643 36.854 770.118-8.2 135.8-23.311 255.086-87.587 341.789-178.164z" fill="#808080" opacity=".1" transform="translate(-28.124 79.817)"/><path d="m1412.72 115.226h-144.014c-6.852 0-12.459-5.108-12.459-11.35s5.594-11.35 12.459-11.35h24.918c-6.852 0-12.459-5.108-12.459-11.35s5.594-11.338 12.459-11.338h-17.779c-6.852 0-12.459-5.108-12.459-11.35s5.594-11.35 12.459-11.35h75.165c-16.683-7.077-36.131-12.1-58.632-14.727-204.963-24.009-278.148-8.136-304 8.2a301.645 301.645 0 0 1 -105.341 42.1c-126.459 23.784-362.956 52.4-577.314-9.17-106.537-30.589-185.714 21.178-233.183 107.531h1365.186c-1.782-25.117-7.114-48.316-16.907-68.612a13.057 13.057 0 0 1 -8.099 2.766z" fill="#808080" opacity=".1" transform="translate(-20.968 -20.144)"/><path d="m34.241 280.23a528.188 528.188 0 0 0 5.594 152.486l1264.442 42.161a539.672 539.672 0 0 0 87.849-122.1zm500.068 108.78h-24.918c6.84 0 12.459 5.108 12.459 11.35s-5.607 11.34-12.459 11.34h-143.952c-6.84 0-12.459-5.1-12.459-11.338s5.607-11.35 12.459-11.35h24.918c-6.84 0-12.459-5.108-12.459-11.35s5.607-11.35 12.459-11.35h-17.8c-6.84 0-12.459-5.1-12.459-11.338s5.607-11.35 12.459-11.35h144.01c6.852 0 12.459 5.108 12.459 11.35s-5.594 11.338-12.459 11.338h17.742c6.852 0 12.459 5.108 12.459 11.35s-5.568 11.348-12.459 11.348z" fill="#808080" opacity=".1" transform="translate(-31.147 43.812)"/><path d="m1447.319 149.94-1380.46 30.612c-16.82 39.358-27.946 83.848-33.079 129.972h1389.344a497.111 497.111 0 0 0 20.059-82.84c4.136-27.111 5.793-53.324 4.136-77.744zm-1133.248 100.308h-24.918c6.84 0 12.459 5.108 12.459 11.35s-5.607 11.35-12.459 11.35h-144c-6.84 0-12.459-5.108-12.459-11.35s5.607-11.35 12.459-11.35h24.918c-6.84 0-12.459-5.1-12.459-11.338s5.607-11.35 12.459-11.35h-17.8c-6.84 0-12.459-5.108-12.459-11.35s5.607-11.35 12.459-11.35h144.008c6.852 0 12.459 5.108 12.459 11.35s-5.594 11.35-12.459 11.35h17.792c6.84 0 12.459 5.108 12.459 11.35s-5.619 11.338-12.459 11.338z" fill="#808080" opacity=".1" transform="translate(-30.5 11.773)"/><ellipse cx="827.72" cy="934.347" fill="#ff7d00" opacity=".1" rx="93.729" ry="21.043"/><ellipse cx="1045.516" cy="1001.178" fill="#ff7d00" opacity=".1" rx="169.094" ry="13.879"/><ellipse cx="366.586" cy="980.134" fill="#ff7d00" opacity=".1" rx="169.094" ry="21.043"/><ellipse cx="624.401" cy="874.793" fill="#ff7d00" opacity=".1" rx="127.232" ry="21.043"/><ellipse cx="659.922" cy="1050.066" fill="#ff7d00" opacity=".1" rx="101.853" ry="21.043"/><path d="m657.079 365.017c-2.691-18.115-19.15-60.389-19.15-60.389q-.43-1.869-.972-3.738c-11.674-40.118-27.833-43.607-27.833-43.607l-57.884-12.459a4.487 4.487 0 0 1 1.246 1.159 8.035 8.035 0 0 0 -.909.137 22.676 22.676 0 0 1 -5.071-10.964c-.112-.6-.212-1.246-.286-1.856a40.716 40.716 0 0 0 -3.314-61.211c-.61-.473-1.246-.934-1.856-1.37 2.729-2.9 2.816-6.94.772-10.976-4.56-9.469-14.477-15.462-24.669-18.39-7.787-2.23-16.2-2.953-23.946-.511-4.4 1.4-8.41 3.738-12.534 5.818-7.687 3.837-16.2 6.877-21.94 13.194-1.346 1.47-2.591 3.351-2.193 5.3.3 1.445 1.445 2.567 2.18 3.85 1.657 2.878 1.246 6.5.112 9.643s-2.791 6.055-3.576 9.27-.486 7 1.931 9.307a41 41 0 0 0 3.613 2.492 18.951 18.951 0 0 1 3.451 3.875q3.439 4.61 6.852 9.257a95.359 95.359 0 0 1 8.584 13.045c1.707 3.364 3.027 6.952 5.307 9.967a14.781 14.781 0 0 0 2.28 2.392l-.673-.262a10.378 10.378 0 0 0 7.612 3.1h.349a2.093 2.093 0 0 0 1.4-.573v1.246c.137 4.448.112 9.182-.2 13.63l-.536-.274a4.672 4.672 0 0 0 -4.984.523l-53.289 42.758s-11.587 15.848-9.967 43.208l-9.344 41.028s-11.674 34.811-2.691 59.666 14.191 39.071 14.191 39.071 3.588 28.245 8.983 30.55 7.725 3.551 7.725 3.551l1.071 6.753s.361.66 1 1.769c3.925 6.828 18.464 30.923 26.912 28.344a108.017 108.017 0 0 1 1.37 19.8l8.36 56.128s5.831 15.262 5.47 23.261 6.8 19.4 6.8 19.4a37.066 37.066 0 0 0 -3.588 26.1c3.414 14.951 7.725 83.824 7.725 83.824l6.229 16.7-.174 19.573a18.688 18.688 0 0 1 -3.862 8.721c-4.037 4.386-3.738 9.456-13.468 15.449s-15.9 8.26-15.9 16.2a20.831 20.831 0 0 1 -.3 3.3c-.9 5.831-2.641 9 15.25 10.69 21.018 1.993 35.035-11.711 35.035-11.711s3.09-5.607 17.642-7.874c0 0 4.984-.262 5.245-4.66.1-1.52.075-4.423 0-7.625-.237-6.093-.822-13.207-1.595-13.555-.972-.436-2.666-6.566-3.252-8.784h4.049s3.738-28.245 0-46.534-.361-31.26-.361-31.26l-.723-48.3s-4.984-5.333-1.071-14.752 0-55.941 0-55.941 1.445-16.7 5.569-20.607.2-24.457 0-25.529l7.352 24.646s3.227 49.014 10.067 57.885l1.969 22.2s14 20.433 11.313 31.434 2.878 50.8 2.878 50.8v40.679s-6.292 16.334 2.492 22.2l3.738-.149c-1.246 1.159-2.205 2.9-3.663 4.41-1.682 1.732-2.641 8.323-3.177 13.991-.449 4.8-.6 8.921-.6 8.921s3.738 5.98 10.777 6.391 30.238 18.053 30.238 18.053 22.912 0 28.843-1.246l.349-.087a7.787 7.787 0 0 0 4.473-3.65 9.344 9.344 0 0 0 1.071-6.715c-.735-3.5-3.513-7.338-9.668-10.6-15.312-8.073-17.592-15.636-17.592-15.636l-10.054-15.088h1.433s-.885-15.985 10.054-33.926l-.71-79.028s4.485-27.173-3.227-41.925c0 0-.635-15.624 4.523-20.42s-6.865-53.275-6.865-53.275-2.492-26.027-5.42-49.774c12.123 11.5 24.694-29.9 26.812-37.265h.311l-.137-.536c.087-.349.137-.523.137-.523s-2.691-9.569-.723-7.625 6.828-5.332 6.828-5.332-.723-39.607 7.725-59.567-3.751-68.58-3.751-68.58zm-36.131 25.2.062-.112c1.246 24.183-.237 75.788-.237 75.788s-1.67 6.616-3.451 14.4l-1.246-49.026-1.246-46.186zm-154.629-16.67s6.1 76.361 0 87.375c-1.732 3.14-3.19 8.721-4.4 15.088-2.018-5.3-6.292-17.729-4.759-24.32 1.981-8.522-3.95-30.911-3.95-31.434s-.536-12.459 3.738-21.579 1.47-13.07 1.47-13.07 3.59-14.946 7.901-12.056z" fill="url(#a)" transform="translate(62.396 9.16)"/><path d="m473.819 472.85c-5.32 23.386-26.475-11.973-31.3-20.458-.623-1.109-.972-1.757-.972-1.757l2.292-10.752 12.123-4.984a33.861 33.861 0 0 1 5.432 3.538c6.644 5.222 16.524 16.298 12.425 34.413z" fill="#d38884" transform="translate(69.773 81.845)"/><path d="m606.061 435.833a1.634 1.634 0 0 1 -.137.523 2.65 2.65 0 0 1 -.162.561c-2.081 7.3-14.415 48.4-26.326 36.991-13.032-12.459-6.7-41.264-6.7-41.264h.087l27.41-2.8 5.432 5.582z" fill="#d38884" transform="translate(101.653 80.601)"/><path d="m619.541 637.48.7 78.492c-10.752 17.816-9.868 33.639-9.868 33.639l-35.433 1.4c-8.647-5.818-2.492-22.028-2.492-22.028v-40.42s-5.47-39.483-2.828-50.422-11.1-31.148-11.1-31.148l-1.944-22.04c-6.7-8.808-9.88-57.461-9.88-57.461l-7.196-24.569c.2 1.059 3.937 21.567 0 25.342s-5.47 20.445-5.47 20.445 3.875 46.2 0 55.53 1.047 14.639 1.047 14.639l.71 47.955s-3.352 12.87.349 31.023 0 46.2 0 46.2h-38.008l.174-19.573-6.155-16.57s-4.236-68.4-7.588-83.214a37.177 37.177 0 0 1 3.513-25.915s-7.039-11.275-6.69-19.212-5.432-23.074-5.432-23.074l-8.2-55.7a108.219 108.219 0 0 0 -4.062-31.733c-4.759-15.873-11.811-36.679-11.811-36.679l7.961.71 40.168 3.576s97.666-6.566 102.039-1.109a18.329 18.329 0 0 1 1.844 5.694c4.385 19.7 10.179 81.407 10.179 81.407s11.811 48.129 6.74 52.889-4.448 20.258-4.448 20.258c7.604 14.632 3.181 41.668 3.181 41.668z" fill="#444053" transform="translate(72.313 81.226)"/><path d="m534.451 713.8c-.274 4.373-5.146 4.635-5.146 4.635-14.278 2.243-17.318 7.8-17.318 7.8s-13.7 13.618-34.374 11.637c-17.567-1.694-15.86-4.822-14.951-10.615a21.959 21.959 0 0 0 .286-3.264c0-7.936 6.08-10.192 15.6-16.2s9.257-10.976 13.219-15.337 4.373-12.82 4.373-12.82c4.485-7.812 15.86 1.246 15.86 1.246.536 2.766 17.443 2.38 17.443 2.38s2.243 9 3.4 9.519c.76.349 1.333 7.4 1.557 13.456.126 3.177.151 6.055.051 7.563z" fill="#b07473" transform="translate(74.836 141.246)"/><path d="m534.451 707.918c-.274 4.373-5.146 4.635-5.146 4.635-14.278 2.243-17.318 7.8-17.318 7.8s-13.7 13.618-34.374 11.637c-17.567-1.694-15.86-4.822-14.951-10.615 7.849 1.944 22.85 4.66 31.609-.1 12.172-6.6 20.906-11.213 20.906-11.213l19.237-9.681c.112 3.151.137 6.029.037 7.537z" opacity=".1" transform="translate(74.836 147.128)"/><path d="m621 736.339a7.6 7.6 0 0 1 -4.386 3.626l-.336.087c-5.818 1.246-28.307 1.246-28.307 1.246s-22.738-17.58-29.615-17.978-10.578-6.354-10.578-6.354.137-4.087.573-8.846c.536-5.631 1.47-12.172 3.127-13.892 3.04-3.177 3.738-7.475 10.578-4.759 0 0 9.768-17.218 21.28-3.912l11.911 18.066s2.243 7.475 17.331 15.586c6.03 3.239 8.721 7.052 9.481 10.528a9.283 9.283 0 0 1 -1.059 6.602z" fill="#b07473" transform="translate(95.895 142.242)"/><path d="m621 730.89c-1.346 1.134-2.828 2.355-4.386 3.626l-.336.087c-5.818 1.246-28.307 1.246-28.307 1.246s-22.738-17.58-29.615-17.978-10.578-6.354-10.578-6.354.137-4.087.573-8.846c7 2.093 17.6 5.794 20.445 9.78 4.361 6.068 17.6 14.54 17.6 14.54s24.694-2.38 35.658-2.7a9.283 9.283 0 0 1 -1.054 6.599z" opacity=".1" transform="translate(95.895 147.691)"/><path d="m542.418 239.692-32.518 34.374s-39.408-2.9-32.531-14.54c3.5-5.931 4.049-18.34 3.738-29.129-.287-10.4-1.358-19.262-1.358-19.262s55.268-27.51 51.082-1.856a42.221 42.221 0 0 0 -.149 14.639c2.354 12.958 11.736 15.774 11.736 15.774z" fill="#d38884" transform="translate(78.382 23.674)"/><path d="m530.152 209.279a42.223 42.223 0 0 0 -.152 14.639 40.566 40.566 0 0 1 -28.93 12.073c-7.475 0-15.561-6.142-21.6-9.693-.287-10.416-.349-15.163-.349-15.163s55.267-27.509 51.031-1.856z" opacity=".1" transform="translate(79.011 23.674)"/><path d="m545.5 202.206a40.729 40.729 0 1 1 -15.325-31.82 40.729 40.729 0 0 1 15.325 31.82z" fill="#d38884" transform="translate(75.302 14.614)"/><path d="m602.675 441.116c-10.142 24.133-75.377 24.631-75.377 24.631v-26.313l-3.95-.262c1.707 7.538-2.392 25.915-2.392 25.915-51.555 7.276-64.127-22.1-64.127-22.1l1.794-10.054 40.168 3.576s97.666-6.566 102.039-1.109a18.328 18.328 0 0 1 1.845 5.716z" opacity=".1" transform="translate(73.53 81.361)"/><path d="m527.3 513.066v-26.313l-3.95-.249c1.707 7.475-2.392 25.915-2.392 25.915-38.8 5.47-55.517-9.805-61.411-17.7a24.107 24.107 0 0 1 -2.716-4.386l15.748-88.584 3.738-130.371 5.643-22.878 1.308-10.976v-.124h.137l4.012 1.719 24.008 10.381 27.275-20.6.4-.287 1.358-1.034 2.255 1.807 5.607 4.5 17.98 116.104s31.148 89.394 36.978 125.475c.237 1.445.424 2.791.573 4.049 3.849 32.942-76.551 33.552-76.551 33.552z" fill="#ff7d00" transform="translate(73.53 30.865)"/><g fill="#67647e"><circle cx="587.87" cy="282.927" r="2.317"/><circle cx="588.941" cy="304.082" r="2.317"/><circle cx="591.259" cy="338.332" r="2.317"/><circle cx="595.084" cy="375.223" r="2.317"/><circle cx="597.401" cy="409.86" r="2.317"/><circle cx="599.719" cy="446.75" r="2.317"/><circle cx="598.797" cy="483.242" r="2.317"/></g><path d="m484.815 412.762s-2.591 33.926-7.351 43.793-6.877 37.552-6.877 37.552l-11.051-1.246a24.111 24.111 0 0 1 -2.716-4.386l15.748-88.584 3.738-130.371 5.656-22.887 1.308-10.976.149-.062a4.461 4.461 0 0 1 3.937.062l.523.274q-.237.673-.449 1.383c-4.311 13.493-5.918 38.361-5.918 38.361s6.229 45.488 6.877 66.643-3.574 70.444-3.574 70.444z" opacity=".1" transform="translate(73.528 32.73)"/><path d="m461.4 438.476a6.383 6.383 0 0 1 -.424.822c-4.286 7.239-15.15 11.836-18.452 13.094-.623-1.109-.972-1.757-.972-1.757l2.292-10.752 12.123-4.984a33.868 33.868 0 0 1 5.433 3.577z" opacity=".1" transform="translate(69.773 81.845)"/><path d="m438.883 298.81-10.055 5.99-9.157 40.729s-11.462 34.549-2.654 59.23 13.929 38.81 13.929 38.81 3.526 28.033 8.821 30.325 7.575 3.526 7.575 3.526l1.059 6.7s14.353-4.871 19.424-13.456-3.738-29.9-3.738-29.9-7.575-18.165-5.631-26.625-3.887-30.674-3.887-31.148-.523-12.347 3.738-21.43 1.42-12.957 1.42-12.957l-2.654-25.915z" fill="#67647e" transform="translate(62.921 48.381)"/><path d="m587.48 483.812s-26.625 10.042-35.085 1.246-7.588-50.073-7.588-50.073-8.1-76.162-13.219-88.671-2.488-102.787-2.488-102.787-3.439-11.674-6.441-14.727a3.263 3.263 0 0 0 -.635-.511l1.034.224 3.613.772 5.607 4.5 17.974 116.105s31.148 89.394 36.978 125.475z" opacity=".1" transform="translate(89.56 31.04)"/><path d="m605.763 436.9h-.3c-3.351.436-32.929 4.012-33.054-2.143a18.029 18.029 0 0 1 .112-2.13l27.41-2.8 5.432 5.582c.1.361.174.673.249.922z" opacity=".1" transform="translate(101.952 80.596)"/><path d="m577.382 266.07 19.436 10.142s16.2 41.937 18.788 59.915c0 0 12 48.167 3.738 67.976s-7.575 59.131-7.575 59.131-4.759 7.226-6.7 5.3.71 7.575.71 7.575-33.228 4.411-33.365-2.118 7.625-37.726 7.625-37.726 2.118-74.218-.885-85.855-1.772-84.34-1.772-84.34z" fill="#67647e" transform="translate(101.951 40.33)"/><path d="m532.982 329.52s-10.939 26.787-14.465 28.556.71 8.809.71 8.809 19.922-27.846 13.755-37.365z" opacity=".1" transform="translate(88.354 55.932)"/><path d="m527.978 254.1c.125-.511-13.045 12.92-16.571 14.951s12.871-.122 16.571-14.951z" opacity=".1" transform="translate(86.83 37.383)"/><path d="m498.67 327.82s-20.1 12.995-17.443 18.14 17.443-18.14 17.443-18.14z" opacity=".1" transform="translate(79.47 55.514)"/><path d="m524.47 480.07s17.106 11 43.719 13.7z" opacity=".1" transform="translate(90.163 92.953)"/><path d="m491.5 501.3s15.86 19.934 23.1 20.445-23.1-20.445-23.1-20.445z" opacity=".1" transform="translate(82.055 98.174)"/><path d="m513.107 564c-.71.349-9 17.978-17.443 18.514s17.443-18.514 17.443-18.514z" opacity=".1" transform="translate(82.663 113.591)"/><path d="m568.33 595.1s15.723-3.526 19.224 7.75c0-.035-1.054-3.561-19.224-7.75z" opacity=".1" transform="translate(100.948 121.112)"/><path d="m559.84 647.031s19.05-3.887 23.1 1.408-23.1-1.408-23.1-1.408z" opacity=".1" transform="translate(98.861 133.672)"/><path d="m520.282 654c0 .174-19.386 3.887-18.689 6.354s20.682 2.118 21.392-1.769a3.738 3.738 0 0 0 -2.7-4.585z" opacity=".1" transform="translate(84.533 135.723)"/><path d="m554.75 667.641s31.858-3.887 29.9 2.816-29.9-2.816-29.9-2.816z" opacity=".1" transform="translate(97.609 138.801)"/><path d="m420.89 352.44c.174.523 20.981 3.351 23.8 10.054 0 0-20.445-9.531-23.672-9.531" opacity=".1" transform="translate(64.692 61.568)"/><path d="m447.56 396.16s-17.281 5.47-16.047 13.7-1.757-3.808 16.047-13.7z" opacity=".1" transform="translate(67.288 72.319)"/><path d="m437.92 431.27s6.292-8.634 12.285-7.052-12.285 7.052-12.285 7.052z" opacity=".1" transform="translate(68.879 79.172)"/><path d="m530.161 170.387a9.8 9.8 0 0 1 -2.018 1.508c-4.984 2.9-6.354 7.376-8.721 12.534-2.205 4.722-4.635 9.718-9.083 12.4-5.744 3.464-13.306 2.193-19.274 5.208a14.951 14.951 0 0 0 -7.974 14.739 42.518 42.518 0 0 0 1.695 6.753 48.152 48.152 0 0 1 1.819 14.664 2.489 2.489 0 0 1 0 .436 40.716 40.716 0 1 1 43.607-68.238z" opacity=".1" transform="translate(75.314 14.612)"/><path d="m533.116 162.791c-4.473-9.394-14.2-15.35-24.208-18.252-7.637-2.205-15.935-2.928-23.51-.5-4.323 1.37-8.248 3.738-12.3 5.769-7.55 3.812-15.848 6.828-21.529 13.094-1.333 1.458-2.492 3.327-2.155 5.258.287 1.433 1.408 2.492 2.13 3.812 1.632 2.866 1.246 6.466.112 9.581s-2.741 6.005-3.513 9.207-.473 6.952 1.894 9.232a34.532 34.532 0 0 0 3.563 2.492 18.752 18.752 0 0 1 3.376 3.837l6.728 9.195a93.256 93.256 0 0 1 8.422 12.945c1.67 3.339 2.965 6.9 5.208 9.88s5.731 5.37 9.444 5.046a1.831 1.831 0 0 0 1.5-.71 1.968 1.968 0 0 0 .187-.934 47.819 47.819 0 0 0 -1.782-14.614 42.17 42.17 0 0 1 -1.694-6.753 15.013 15.013 0 0 1 7.974-14.739c5.98-3.015 13.543-1.744 19.274-5.2 4.46-2.691 6.89-7.687 9.083-12.459 2.4-5.158 3.738-9.631 8.721-12.534s5.554-7.707 3.075-12.653z" fill="#585268" transform="translate(71.301 9.949)"/><path d="m501.63 693.06s6.229 7.936 4.61 12.459-4.61-12.459-4.61-12.459z" opacity=".1" transform="translate(84.546 145.328)"/><path d="m569.28 711.147s1.383-10.64 6.927-10.74 5.818-.573 10.055 1.059 8.21 4.161 6.94 4.535-7.288-6.08-13.468-2.778a44.5 44.5 0 0 0 -10.453 7.924z" opacity=".1" transform="translate(101.182 147.1)"/><path d="m489.917 260.89 17.443-12.222s-25.517-15.076-28.56-12.958-5.133 21.18-5.133 21.18z" opacity=".1" transform="translate(77.671 32.814)"/><path d="m489.857 260.307 17.443-12.459s-25.516-15.075-28.556-12.957-5.133 22.227-5.133 22.227z" fill="#e1e7ef" transform="translate(77.656 32.613)"/><path d="m489.857 260.307 17.443-12.459s-25.516-15.075-28.556-12.957-5.133 22.227-5.133 22.227z" fill="#ff7d00" transform="translate(77.656 32.613)"/><path d="m493.41 235.079-.523-.262a4.523 4.523 0 0 0 -4.9.511l-52.328 42.448s-11.375 15.736-9.793 42.884l30.861 43.719s3.526-14.8 7.75-11.986c0 0 5.993 75.813 0 86.74s-8.634 51.83-8.634 51.83l20.271 2.292s2.118-27.684 6.877-37.552 7.351-43.793 7.351-43.793 4.286-49.288 3.576-70.443-6.877-66.643-6.877-66.643 1.734-26.663 6.369-39.745z" fill="#67647e" transform="translate(65.879 32.523)"/><path d="m526.181 254.937-21.741-8.049s27.684-30.325 31.148-13.506z" opacity=".1" transform="translate(85.238 31.043)"/><path d="m526.181 254.087-21.741-8.049s27.684-30.325 31.148-13.506z" fill="#e1e7ef" transform="translate(85.238 30.834)"/><path d="m526.181 254.087-21.741-8.049s27.684-30.325 31.148-13.506z" fill="#ff7d00" transform="translate(85.238 30.834)"/><path d="m521.32 228.123a1.246 1.246 0 0 1 .9.2z" opacity=".1" transform="translate(89.388 30.995)"/><path d="m523 226.434 57.685 12.459s15.873 3.526 27.335 43.37-15.7 88.658-15.7 88.658l-5.993-5.1 3 116.355s-26.625 10.042-35.085 1.246-7.575-50.11-7.575-50.11-8.111-76.15-13.231-88.671-2.492-102.774-2.492-102.774-4.705-16.13-7.944-15.433z" fill="#67647e" transform="translate(89.801 30.578)"/><path d="m565.509 286.043c-.81.748-1.757 35.957 1.769 62.756a342 342 0 0 0 9.967 48.3l-5.233-107.359s-4.036-5.989-6.503-3.697z" opacity=".1" transform="translate(100.069 45.113)"/><path d="m559.7 261.6c1.408.885 7.588 15.512 4.759 21.5s-4.759-21.5-4.759-21.5z" opacity=".1" transform="translate(98.826 39.23)"/><path d="m526.625 161.411a31.845 31.845 0 0 0 -12.683-13.281 30.164 30.164 0 0 1 9.506 11.213c2.492 4.984 1.757 9.967-3.09 12.7s-6.354 7.376-8.721 12.534c-2.205 4.722-4.635 9.718-9.1 12.459-5.731 3.464-13.294 2.18-19.274 5.2a15.051 15.051 0 0 0 -7.974 14.751 42.364 42.364 0 0 0 1.707 6.74 48.192 48.192 0 0 1 1.819 14.664 1.967 1.967 0 0 1 -.2.934 1.782 1.782 0 0 1 -1.483.71 8.584 8.584 0 0 1 -4.348-.81 10.117 10.117 0 0 0 7.475 2.928 1.47 1.47 0 0 0 1.669-1.645 47.8 47.8 0 0 0 -1.807-14.664 40.925 40.925 0 0 1 -1.707-6.753 15.013 15.013 0 0 1 7.974-14.739c5.98-3.015 13.543-1.744 19.274-5.2 4.46-2.691 6.89-7.687 9.083-12.459 2.4-5.158 3.738-9.631 8.721-12.534s5.651-7.801 3.159-12.748z" opacity=".1" transform="translate(77.455 11.328)"/><path d="m848.8 312.219c-17.169-.336-32.319-12.459-40.9-27.273a27.409 27.409 0 0 1 -4.136-11.674 13.474 13.474 0 0 1 .473-2.791 28.972 28.972 0 0 0 1.246-4.273 7.473 7.473 0 0 0 0-1.744v-.1c.411-3.152-1.445-6.23-3.738-8.385s-5.171-3.738-7.563-5.881c-7.376-6.479-9.618-16.87-9.755-26.762v-.523c.087-4.236.424-8.485.386-12.721a53.478 53.478 0 0 0 -.311-7.2c-.71-5.993-2.99-12.1-7.7-15.923-12.285-9.967-32.942.411-45.662-9.008-3.09-2.3-5.594-5.706-9.344-6.6-2.828-.685-5.769.237-8.534 1.159-9.369 3.09-19.822 7.151-23.485 16.2-2.093 5.2-1.508 11.126-3.426 16.384-1.246 3.526-3.626 6.553-5.357 9.892a15.486 15.486 0 0 0 -1.993 8.26 9.32 9.32 0 0 0 .61 4.4 11.213 11.213 0 0 0 3.052 4.373 14.52 14.52 0 0 1 -1.819 2.915c-2.392 2.928-6.067 4.984-8.559 7.9-4.61 5.345-4.435 12.609-2.168 18.888s6.367 12 9.195 18.115c1.246 2.654 2.193 5.619.934 8.26-.885 1.831-2.716 3.227-4.136 4.809a15.112 15.112 0 0 0 -3.738 8.348c-28.045 6.4-28.07 28.942-28.07 28.942l-15.15 38.1s-2.43 6.416-5.283 14.889l-17.929-3.214 12.46 20.846c-2.355 8.5-4.024 16.371-3.476 20.333 0 0-5.569 26.164 4.336 30.736l21.853 9.83a12.946 12.946 0 0 0 3.028 1.358l.885.4a2.342 2.342 0 0 0 2.043 0h.3a2.941 2.941 0 0 0 1.246-.187 2.492 2.492 0 0 0 1.1-1.184.373.373 0 0 1 0-.125l6.541-1.894 5.544 6.566c2.492 1.757 4.984 3.277 7.338 4.647l-8.584 85.245s-1.383 113.377-5.569 139.217c-1.545 9.569-1.557 16.1-.972 20.532l-.162.274c1.034 7.289 3.738 8.721 3.738 8.721v-.1a.807.807 0 0 0 .162.1 73.4 73.4 0 0 1 4.485-9.618v1.869c-.087 9.618-.386 23.087-1.383 31.845-1.694 14.951 4.336 64.226 4.336 64.226l2.081 44.853a41.465 41.465 0 0 1 -5.108 21.853c-4.983 8.958-11.35 21.567-11.811 27.161a5.615 5.615 0 0 0 0 .91l-10.69 12.858s-4.174 6.454 5.258 9.058c5.071 1.408 13.817 0 20.844-1.657a13.929 13.929 0 0 0 10.8-13.555 47.966 47.966 0 0 1 8.821-16.932l1.757 10.328 11.761 2.915 1.498-28.31a12.459 12.459 0 0 0 .81-4.984c2.317-20.134-5.457-18.327-5.457-18.327a1.084 1.084 0 0 1 .374.7l-.374-.685c-4.772-9.419-2.492-24.918-2.492-24.918s6.229-44.852 8.36-56.7c1.532-8.372.9-35.782.386-51.082a18.231 18.231 0 0 0 -.062-1.856c18.24-.237 40.592-.847 56.277-2.367v1.844l-2.891 105.964a58.169 58.169 0 0 1 -4.062 19.71 1.077 1.077 0 0 1 -.137.361 85.965 85.965 0 0 0 -5.744 27.771l-1.346 33.639v.934c-2.342.9-6.043 3.5-6.142 11.051-.162 11.064 19.336 7.376 19.336 7.376 19.486 0 19.648-20.283 19.648-20.283s.61-18.6 1.545-31.048-2.94-9.706-2.94-9.706l-.3 35.409v-30.76l.3-4.5v-1.084l2.454-36.517s17.953-60.85 20.732-72.524c1.981-8.3 1.159-33.291.511-47.108a10.977 10.977 0 0 0 -.1-1.831c5.569-.5 10.49-.548 12.459-.548h.909s-.922-97.729-3.252-134.557-6.03-70.531-15.312-80.672c-5.607-6.13-13.418-25.055-18.689-39.071a195.459 195.459 0 0 0 34.35 11.213c29.391 6.155 25.367-19.361 25.367-19.361l-2.978-48.254h.2a246.032 246.032 0 0 0 -3.239-37.726c-1.557-9.569-3.937-19.461-7.575-27.41 3.19-1.246 6.342-2.579 9.431-3.95 7.986-3.526 16.982-8.522 18.128-17.131h-.385a11.111 11.111 0 0 0 .3-1.894zm-182.185 69.77c.062 4.984-.125 13.63-.424 23.186l-9.332-12.459 9.357-15.175zm128.926 44.156-15.549-4.984a69.769 69.769 0 0 1 9.606-11.886l1.346-1.246-.486.1.747-.685.448-.1-.71.685.847-.174a26.524 26.524 0 0 0 5.3 10.653c5.582 6.092-1.532 7.637-1.532 7.637z" fill="url(#b)" transform="translate(110.197 16.981)"/><path d="m654.28 715.66-1.819 34.487-11.6-2.9-2.441-14.347z" fill="#a27772" transform="translate(157.005 175.978)"/><path d="m654.28 715.66-1.819 34.487-11.6-2.9-2.441-14.347z" opacity=".1" transform="translate(157.005 175.978)"/><path d="m716.48 810.576 17.692 3.663 13.119-11.587v-32.652l.3-4.46v-1.087l2.442-36.293s17.7-60.414 20.458-72.013c1.944-8.223 1.134-33.041.486-46.759-.262-5.619-.486-9.382-.486-9.382l-39.059-9.456-.822 30.026-2.853 105.2a58.3 58.3 0 0 1 -4 19.573l-.137.361a85.618 85.618 0 0 0 -5.669 27.559l-1.321 33.452v.922z" fill="#cc818c" transform="translate(137.378 120.121)"/><path d="m741.45 730.155v.922-.947z" opacity=".1" transform="translate(143.519 154.444)"/><path d="m716.48 769.262 17.692 3.663 13.119-11.587v-2.778a3.738 3.738 0 0 1 -1.881 2.99l-.187.112a35.259 35.259 0 0 1 -19.86 3.925l-6.9-.585a6.464 6.464 0 0 0 -1.831.449v.922z" opacity=".1" transform="translate(137.378 161.434)"/><path d="m746.4 769.426.187-.1a3.738 3.738 0 0 0 1.906-3.239l.286-35.147s3.813-2.729 2.891 9.631-1.52 30.824-1.52 30.824-.149 20.134-19.374 20.134c0 0-19.224 3.663-19.075-7.326s7.936-11.437 7.936-11.437l6.9.6a35.173 35.173 0 0 0 19.863-3.94z" fill="#b07473" transform="translate(136.203 154.58)"/><path d="m642.52 800.829c.448 7.936 23.8 3.351 23.8 3.351l15.711-30.5s13.119-10.079 6.553-18.925a14.119 14.119 0 0 1 -.959-1.508l-.062-.075c-.137-.224-.262-.461-.386-.71-4.71-9.344-2.392-24.669-2.392-24.669s6.092-44.553 8.235-56.3c1.508-8.3.885-35.521.386-50.746-.2-6.329-.386-10.578-.386-10.578l-38.76-10.378v11.562c-.087 9.556-.386 22.925-1.37 31.621-1.67 14.789 4.273 63.765 4.273 63.765l2.056 44.566a41.277 41.277 0 0 1 -4.987 21.695c-4.859 8.9-11.213 21.43-11.649 26.974a5.454 5.454 0 0 0 -.062.86z" fill="#cc818c" transform="translate(119.192 122.392)"/><path d="m642.522 770.541c.448 7.936 23.8 3.351 23.8 3.351l15.711-30.5s13.119-10.079 6.553-18.925a14.118 14.118 0 0 1 -.959-1.508c-.212 4.622-5.283 16.2-5.283 16.2s-12.97 25.952-17.094 31.9-22.04-1.109-22.713-1.358a5.454 5.454 0 0 0 -.013.847z" opacity=".1" transform="translate(119.19 152.68)"/><path d="m689.46 722.308s7.675-1.782 5.382 18.2a12.87 12.87 0 0 1 -6.068 11.425c-5.494 3.451-13.967 10.877-18.253 25.317a13.8 13.8 0 0 1 -10.652 13.456c-6.927 1.62-15.561 3.04-20.557 1.645-9.307-2.591-5.183-9-5.183-9l10.677-12.671s18.614 7.326 22.725 1.37 17.094-31.883 17.094-31.883 7.115-16.177 4.835-17.859z" fill="#b07473" transform="translate(116.905 152.51)"/><path d="m728.642 593.52-.822 30.026c10.4-1.009 17.854-2.417 19.125-4.4 2.753-4.261 12.746-6.055 21.243-6.79-.262-5.619-.486-9.382-.486-9.382z" opacity=".1" transform="translate(140.167 120.85)"/><path d="m651.94 614.282a14.252 14.252 0 0 1 4.273-5.158c4.111-2.28 3.663 14.652 3.663 14.652s13.7.125 31.21-.1c-.2-6.329-.386-10.59-.386-10.59l-38.76-10.366s.075 4.809 0 11.562z" opacity=".1" transform="translate(121.508 123.113)"/><path d="m649.187 671.052s4.585-12.459 8.721-14.677 3.663 14.639 3.663 14.639 100.694.922 105.727-6.865 34.325-7.326 34.325-7.326-.909-97.031-3.2-133.636-5.943-70.032-15.1-80.1c-5.918-6.516-14.34-27.6-19.548-41.651-2.828-7.675-4.71-13.269-4.71-13.269l-96.109 5.482-.785 7.787-10.206 102.064s-1.37 112.592-5.494 138.22 2.716 29.332 2.716 29.332z" fill="#444053" transform="translate(119.838 70.354)"/><g opacity=".1" transform="translate(765.1 458.525)"><path d="m755.122 664.15c4.984-7.774 34.325-7.326 34.325-7.326s-.909-97.031-3.2-133.635-5.943-70.032-15.1-80.1c-5.943-6.541-14.34-27.6-19.548-41.651-2.38-6.454-4.087-11.425-4.56-12.845l7.475-.424s1.881 5.594 4.722 13.269c5.208 14.054 13.618 35.134 19.536 41.651 9.157 10.067 12.82 43.482 15.1 80.1s3.214 133.635 3.214 133.635-29.291-.448-34.337 7.326c-4.3 6.641-78.392 6.952-99.9 6.89 27.598-.063 88.385-.885 92.273-6.89z" transform="translate(-640.91 -388.17)"/><path d="m650.062 603.482c1.856-1.034 2.778 1.831 3.239 5.308a71.87 71.87 0 0 0 -4.323 9.369s-2.654-1.433-3.738-8.721c1.52-2.604 3.202-5.059 4.822-5.956z" transform="translate(-645.24 -335.277)"/></g><path d="m676.013 202.457c-6.653 9.07.075 21.965-7.064 30.786-2.355 2.915-5.98 4.984-8.435 7.849-4.548 5.308-4.373 12.521-2.143 18.751s6.229 11.911 9.07 17.991c1.246 2.629 2.168 5.582.922 8.2-.872 1.819-2.679 3.2-4.087 4.772-4.585 5.121-4.71 12.235-2.243 18.265s7.176 11.213 11.824 16.321c1.831 2.006 4.149 4.224 7.2 4.161a9.967 9.967 0 0 0 4.523-1.483 46.1 46.1 0 0 0 20.983-60.17c-3.862-9.257-10.3-18.128-10.366-27.908 0-7.762 3.987-15.175 4.7-22.9.86-9.394-4.7-24.308-16.035-28.407.744 6.035-5.473 9.115-8.849 13.772z" fill="#585268" transform="translate(122.714 21.301)"/><path d="m676.013 202.457c-6.653 9.07.075 21.965-7.064 30.786-2.355 2.915-5.98 4.984-8.435 7.849-4.548 5.308-4.373 12.521-2.143 18.751s6.229 11.911 9.07 17.991c1.246 2.629 2.168 5.582.922 8.2-.872 1.819-2.679 3.2-4.087 4.772-4.585 5.121-4.71 12.235-2.243 18.265s7.176 11.213 11.824 16.321c1.831 2.006 4.149 4.224 7.2 4.161a9.967 9.967 0 0 0 4.523-1.483 46.1 46.1 0 0 0 20.983-60.17c-3.862-9.257-10.3-18.128-10.366-27.908 0-7.762 3.987-15.175 4.7-22.9.86-9.394-4.7-24.308-16.035-28.407.744 6.035-5.473 9.115-8.849 13.772z" opacity=".1" transform="translate(122.714 21.301)"/><path d="m745.86 464.55c-13.319.7-25.852 6.429-37.514 12.908s-22.95 13.817-35.5 18.414" opacity=".1" transform="translate(126.65 89.136)"/><path d="m737.149 489.74a54.907 54.907 0 0 0 -34.574 16.82c-3.239 3.426-6.03 7.264-9.407 10.553a41.788 41.788 0 0 1 -18.539 10.5" opacity=".1" transform="translate(127.087 95.331)"/><path d="m741.88 508.91a60.451 60.451 0 0 0 -27.809 16.77c-2.043 2.205-3.9 4.56-5.943 6.765-11.026 11.836-26.6 18.115-41.638 24.058" opacity=".1" transform="translate(125.085 100.045)"/><path d="m736.524 243.187a273.381 273.381 0 0 0 2.741 31.8c1.246 7.475 2.99 14.2 5.494 17.181 7.326 8.721-35.7 20.371-35.7 20.371l-25.4-19.685s20.134-18.539 10.752-36.617 42.113-13.05 42.113-13.05z" fill="#cc818c" transform="translate(129.308 34.545)"/><path d="m658.79 401.439h101.6c-2.828-7.675-4.71-13.269-4.71-13.269l-96.109 5.482z" opacity=".1" transform="translate(123.193 70.354)"/><path d="m657.455 428.115h108.63c-3.052-10.927 0-21.031 4.348-28.805a63.664 63.664 0 0 1 11.375-14.752l.748-.685 37.925-8.4 2.043-.448s.311-68.961-24.108-78.43-39.059-22.264-39.059-22.264l-33.552 10.369-24.719-12.46c-7.936 8.534-28.992 5.183-28.992 5.183-34.474 3.962-34.474 29.9-34.474 29.9s20.134 46.983 21.666 46.983-1.831 73.809-1.831 73.809z" fill="#ff7d00" transform="translate(117.987 41.847)"/><path d="m689.5 364.823s-22.152-4.909-29.69-13.493" opacity=".1" transform="translate(123.443 61.296)"/><path d="m778.36 341.51-25.69 21.056a43.754 43.754 0 0 0 .847 4.984l.747-.685 37.925-8.4z" opacity=".1" transform="translate(146.278 58.881)"/><path d="m717.46 397.372s5.619 3.165 14.228 7.326h14.764c-3.052-10.927 0-21.031 4.348-28.805l-26.027-8.422c8.859 8.234-7.313 29.901-7.313 29.901z" opacity=".1" transform="translate(137.62 65.264)"/><path d="m658.895 293.76-15.25 8.24-14.951 37.838s-15.561 41.489-14.041 52.477c0 0-5.482 25.94 4.273 30.512l25.416 11.512a2.367 2.367 0 0 0 3.053-3.264c-3.626-6.865-7.612-17.6-1.246-23.51l-7.326-15.25 26.477-43.337 8.846-14.951z" fill="#ff7d00" transform="translate(111.961 47.138)"/><path d="m677.129 357.285c1.321 5.382 5.781 13.7 20.545 16.807l16.2 13.269 17.231 7.812 7.027 3.177 2.978-21.517-6.765-3.738-7.887-4.311s-17.792-32.232-45.961-18.689a6.229 6.229 0 0 0 -3.364 7.189z" opacity=".1" transform="translate(127.653 60.174)"/><path d="m677.864 355.8c1.321 5.395 5.769 13.7 20.532 16.807l16.2 13.269 17.243 7.812 7.014 3.177 2.978-21.517-6.765-3.738-7.824-4.273s-17.8-32.232-45.974-18.626a6.23 6.23 0 0 0 -3.4 7.089z" fill="#cc818c" transform="translate(127.84 59.828)"/><circle cx="837.45" cy="266.282" opacity=".1" r="39.358"/><circle cx="837.45" cy="265.372" fill="#cc818c" r="39.358"/><path d="m725.216 308.576-11.836-23s17.318-7 18.576-15.113 16.6 9.506 13.281 15.35-20.021 22.763-20.021 22.763z" opacity=".1" transform="translate(136.617 40.894)"/><path d="m725.216 307.106-11.836-23s17.318-7 18.576-15.113 16.6 9.519 13.281 15.35-20.021 22.763-20.021 22.763z" fill="#ff7d00" transform="translate(136.617 40.533)"/><path d="m654.445 348.547 65.4 87.923s-24.111 13.12-57.314-10.37l-14.34-17.094-40.941-69.006z" fill="#f6f8fb" transform="translate(110.519 58.509)"/><path d="m635.1 389.7 5.955-.162s36.38-35.309 45.313-17.443-22.663 34.561-22.663 34.561l-9.605 5.184-12.521 3.738-8.011-10.752z" fill="#cc818c" transform="translate(116.991 65.161)"/><path d="m645.512 405.044c.548 2.031 1.071 4.273.15 6.155a2.492 2.492 0 0 1 -1.084 1.184 2.778 2.778 0 0 1 -1.246.174 12.522 12.522 0 0 1 -8.211-4.062 37.5 37.5 0 0 1 -5.32-7.7c-1.62-2.828-3.3-5.955-2.729-9.17.648-3.5 3.738-5.931 6.765-7.9 6.03-3.987 6.23.66 7.55 5.793s2.742 10.343 4.125 15.526z" opacity=".1" transform="translate(115.365 68.892)"/><path d="m644.783 405.044c.536 2.031 1.071 4.273.15 6.155a2.492 2.492 0 0 1 -1.084 1.184 2.8 2.8 0 0 1 -1.246.174 12.459 12.459 0 0 1 -8.211-4.062 37.069 37.069 0 0 1 -5.332-7.7c-1.62-2.828-3.3-5.955-2.716-9.17.635-3.5 3.738-5.931 6.753-7.9 6.043-3.987 6.229.66 7.563 5.793s2.727 10.343 4.123 15.526z" fill="#ff7d00" transform="translate(115.184 68.892)"/><path d="m623.85 318.956 3.04-5.146-2.654 9.556z" opacity=".1" transform="translate(153.423 77.162)"/><path d="m721.19 388.507 7.015 3.177 2.978-21.517-6.765-3.738c4.671 5.358.582 15.263-3.228 22.078z" opacity=".1" transform="translate(138.537 65.008)"/><path d="m750.159 365.047s-22.65 1.383-32.269-4.8" opacity=".1" transform="translate(137.725 63.489)"/><g opacity=".1" transform="translate(788.635 315.882)"><path d="m743.522 400.367a63.766 63.766 0 0 1 11.378-14.767 30.369 30.369 0 0 1 3.352-1.819l35.309-7.251 2.043-.449s.312-68.961-24.1-78.43a146.671 146.671 0 0 1 -38.075-21.442l2.679-.822s14.639 12.808 39.059 22.264 24.1 78.43 24.1 78.43h-3.667l-36.131 6.919s-1.557 1.508-2.031 1.944a70.022 70.022 0 0 0 -11.549 15.275 38.3 38.3 0 0 0 -3.028 28.955h-3.738c-3.014-10.929.1-21.033 4.399-28.807z" transform="translate(-647.089 -273.259)"/><path d="m664.13 278.047c.586-.087 1.146-.174 1.757-.237a63.172 63.172 0 0 0 7.475.611 67.947 67.947 0 0 1 -9.232-.374z" transform="translate(-664.13 -272.664)"/><path d="m710.112 286.176-22.352-11.312a11.821 11.821 0 0 0 1.246-1.184l23.323 11.8z" transform="translate(-658.319 -273.68)"/></g><path d="m787.724 340 14.951 18.315 3.052 49.736s3.962 25.317-25.018 19.212-62.519-24.963-62.519-24.963 16.2-21.666 7.326-29.9l41.5 13.431s7.014-1.533 1.52-7.625-6.466-17.094-6.466-17.094z" fill="#ff7d00" transform="translate(137.799 58.509)"/><path d="m779.42 382.17 8.235 9.456a11.873 11.873 0 0 1 -8.235-9.456z" opacity=".1" transform="translate(152.856 68.88)"/><path d="m736.99 360.8 12.82 16.471-6.4 1.532z" opacity=".1" transform="translate(181.245 88.716)"/><path d="m665.708 229.363c-1.408-3.451-.324-7.475 1.37-10.727s4.024-6.329 5.3-9.83c1.881-5.208 1.308-11.1 3.364-16.2 3.626-9.033 13.929-13.07 23.161-16.2 2.729-.91 5.631-1.819 8.422-1.146 3.738.885 6.167 4.273 9.22 6.553 12.534 9.344 32.917-.947 45.039 8.946 4.635 3.738 6.89 9.855 7.588 15.8s0 11.973-.075 17.966c-.2 10.491 1.769 21.965 9.618 28.917 2.367 2.093 5.158 3.663 7.475 5.831s4.136 5.2 3.738 8.335a28.891 28.891 0 0 1 -1.246 4.236c-1.557 5.47.772 11.213 3.613 16.2 8.472 14.664 23.411 26.75 40.342 27.086-1.134 8.547-9.967 13.506-17.879 17.007-9.967 4.473-20.582 8.858-31.559 8.3s-22.426-7.588-24.345-18.4c-.66-3.738-.573-8.235-3.738-10.179-1.944-1.184-4.46-.885-6.553-1.769-3.028-1.246-4.523-4.647-5.519-7.774a69.974 69.974 0 0 1 -3.252-19.934c-.137-8.024.922-16.782-3.626-23.386-4.211-6.117-11.687-9.22-16.546-14.839-4.485-5.208-9.357-11.487-16.708-12.459-10.168-1.437-31.199 12.38-37.204-2.334z" opacity=".1" transform="translate(124.734 17.944)"/><path d="m665.708 227.893c-1.408-3.451-.324-7.475 1.37-10.727s4.024-6.329 5.3-9.83c1.881-5.208 1.308-11.1 3.364-16.2 3.626-9.045 13.929-13.082 23.161-16.2 2.729-.91 5.631-1.819 8.422-1.146 3.738.885 6.167 4.273 9.22 6.553 12.534 9.344 32.917-.947 45.039 8.946 4.635 3.738 6.89 9.855 7.588 15.811s0 11.961-.075 17.953c-.2 10.491 1.769 21.965 9.618 28.917 2.367 2.093 5.158 3.663 7.475 5.831s4.136 5.2 3.738 8.335a28.888 28.888 0 0 1 -1.246 4.236c-1.557 5.47.772 11.213 3.613 16.2 8.5 14.614 23.373 26.737 40.3 27.073-1.134 8.547-9.967 13.506-17.879 17.019-9.967 4.46-20.582 8.846-31.559 8.285s-22.426-7.588-24.345-18.4c-.66-3.738-.573-8.235-3.738-10.179-1.944-1.184-4.46-.885-6.553-1.769-3.028-1.246-4.523-4.647-5.519-7.774a69.9 69.9 0 0 1 -3.252-19.934c-.137-8.024.922-16.782-3.626-23.386-4.211-6.117-11.687-9.22-16.546-14.839-4.485-5.208-9.357-11.487-16.708-12.459-10.126-1.419-31.157 12.423-37.162-2.316z" fill="#585268" transform="translate(124.734 17.582)"/><path d="m689.532 305.5 22.568-18.317s-15.449-8.372-17.293-15.512-14.2 3.389-12.945 9.793 7.67 24.036 7.67 24.036z" opacity=".1" transform="translate(128.843 41.12)"/><path d="m690.228 303.285 22.563-18.3s-15.449-8.372-17.218-15.512-14.2 3.389-12.945 9.793 7.6 24.019 7.6 24.019z" fill="#ff7d00" transform="translate(129.032 40.579)"/><circle cx="842.708" cy="340.886" opacity=".1" r="1.794"/><circle cx="842.708" cy="350.853" opacity=".1" r="1.794"/><circle cx="842.708" cy="360.808" opacity=".1" r="1.794"/><g opacity=".1" transform="translate(790.078 204.71)"><path d="m673.352 199.775c1.782-4.9 1.4-10.391 3.065-15.325a16.741 16.741 0 0 0 -1.906 3.513c-2.068 5.146-1.483 11.039-3.376 16.2l-.125.3a28.467 28.467 0 0 0 2.342-4.685z" transform="translate(-663.881 -184.45)"/><path d="m817.1 317.694c-9.967 4.46-20.582 8.846-31.559 8.285s-22.426-7.588-24.345-18.39c-.66-3.738-.573-8.248-3.738-10.191-1.944-1.184-4.46-.885-6.553-1.769-3.028-1.246-4.523-4.647-5.519-7.774a69.9 69.9 0 0 1 -3.252-19.934c-.137-8.011.934-16.77-3.613-23.386-4.224-6.117-11.7-9.207-16.558-14.839-4.485-5.2-9.357-11.487-16.708-12.459-10.079-1.371-31.148 12.459-37.1-2.268a11.587 11.587 0 0 1 .386-8.51c-.436.735-.86 1.47-1.246 2.218-1.694 3.314-2.766 7.289-1.358 10.74 5.993 14.7 27.024.885 37.1 2.268 7.351 1 12.222 7.289 16.708 12.459 4.859 5.632 12.334 8.721 16.546 14.851 4.56 6.6 3.488 15.362 3.625 23.373a69.9 69.9 0 0 0 3.252 19.934c1 3.14 2.492 6.5 5.519 7.774 2.093.885 4.61.6 6.553 1.769 3.214 1.944 3.127 6.491 3.738 10.191 1.944 10.8 13.381 17.829 24.345 18.39s21.529-3.812 31.559-8.285c7.226-3.214 15.275-7.662 17.443-14.951-3.46 4.736-9.59 8-15.225 10.504z" transform="translate(-665.288 -179.038)"/></g><path d="m1011 379.805c-26.376-15.175-36.343-18.913-36.393-18.913l-.548-.386a21.941 21.941 0 0 1 -6.641-8.4 17.52 17.52 0 0 1 0-1.807.772.772 0 0 0 0 .174c.411-8.036 6.13-15.35 11.55-21.729l13.867-16.309a16.072 16.072 0 0 0 3.576-5.656 13.052 13.052 0 0 0 .374-3.476v-1.42c-.075-4.049-.187-8.111-.336-12.16-.125-3.538-1.034-8-4.572-8.721-1.844-.374-4.286.287-5.258-1.246a3.028 3.028 0 0 1 -.237-2.106.719.719 0 0 0 0 .174v-.2a46.931 46.931 0 0 0 1.308-8.335 11.36 11.36 0 0 0 -.573-4.224c-2.043-5.868-9.108-8.285-15.349-9.394s-13.244-2.056-17.156-6.94a50.743 50.743 0 0 0 -3.414-4.7 13.468 13.468 0 0 0 -6.379-3.152 36.131 36.131 0 0 0 -23.211 2.018c-3.015 1.346-6.042 3.165-9.357 2.965s-6.379-2.591-9.768-3.165c-5.482-.934-10.727 3.09-13.431 7.862a19.225 19.225 0 0 0 -2.492 9.27v.548a13.556 13.556 0 0 0 3.563 9.469c2.367 2.492 5.88 4.136 6.865 7.363.4 1.308.3 2.729.66 4.062a3.636 3.636 0 0 0 .15.486l-.175.237a41.115 41.115 0 0 0 -8.721 25.342 42.061 42.061 0 0 0 29.553 39.869v1.246c0 4.984-1.433 10.179-5.731 13.954l-37.365 14.926s-22.526-2.679-30.649 30.238a56.129 56.129 0 0 0 -1.4 16.7c.3 4.984-.386 13.7-6.23 25.005-9.232 18.091-7.127 59.617 11.761 63.728 17.829 3.887 24.806 2.268 25.541 2.081v.723c-.3 7.8-3.127 75-13.406 83.127-2.841 2.255-2.317 3.738 0 4.8 0 0 0 .436-.062 1.246-.312 4.984-1.894 23.672-8.721 34.287-7.986 12.334-7.151 83.476-7.151 83.476l-5.442 41.935s3.351 25.9 0 30.425c-3 4.024-6.99 99.847-7.824 120.628h-.349a10.117 10.117 0 0 0 -8.073 4.984c-4.41 7.164-19.86 20.408-19.86 20.408-3.352 4.759-15.748 9.319-22.3 11.462a13.849 13.849 0 0 0 -2.492 1.1 13.294 13.294 0 0 0 -5.631 5.931 6.367 6.367 0 0 0 -.6 4.984c1.67 4.1 36.517 6.989 45.338 2.865 6.927-3.227 34.387-7.475 45.787-9.145a9.394 9.394 0 0 0 8.148-8.148 5.371 5.371 0 0 0 -1.047-4.074c-2.18-2.7-3.289-10.092-3.738-14.951a10.108 10.108 0 0 0 2.567-1.52 109.454 109.454 0 0 1 6.229-43.993c8.4-22.2 10.914-63.317 8.821-90.042 0 0 25.6-110.188 45.762-120.466.311.4 10.092 12.945 11.338 51.8 1.247 39.475 15.524 65.375 15.524 65.375s-6.3 67.017 0 92.1l-8.235 39.557c-.61-.511-1-.909-1-.909s.249 1.1.586 2.853l-.174.847.361.075c.934 4.984 2.317 13.568 1.744 18.689-.324 2.878-1.134 6.828-1.682 10.7-.872 6.093-1.109 12 2.093 13.294 5.258 2.118 36.131 4.984 41.364-1.794a9.706 9.706 0 0 0 1.52-10.154 10.279 10.279 0 0 0 -1.52-2.592s-8.2-13.393-5.881-22.837a6.953 6.953 0 0 0 -.984-5.42c.361-4.635 2.23-26.089 7.064-44.3 5.258-19.785 16.334-63.167 8.186-91.686q-.461-1.682-1.047-3.289a123.142 123.142 0 0 1 -4.622-48.1 98.042 98.042 0 0 1 0-41.937c5.046-23.024 8.572-45.637 8.572-45.637s2.778-30.425.349-49.076a12.243 12.243 0 0 0 -.162-1.246l1.321-.3s-7.139-31.658-9.656-51.8c-.6-4.759-1.37-10.777-2.218-17.206a43.911 43.911 0 0 0 6.84-1.707c22.663-7.812 29.8-78.492 29.8-78.492v-22.441s7.63-34.474-18.819-49.687zm-168.9 546.005c-.7-.349-1.109-.586-1.109-.586z" fill="url(#b)" transform="translate(151.083 33.88)"/><path d="m985.248 719.367c9.83 28.27-1.645 74.156-6.977 94.689s-6.965 45.077-6.965 45.077c-20.894 3.277-36.056-.822-36.056-.822l8.609-42.2c-6.155-24.993 0-91.786 0-91.786s-13.929-25.814-15.159-65.147c-1.246-38.71-10.752-51.232-11.051-51.618-19.66 10.241-44.653 120.055-44.653 120.055 2.043 26.625-.424 67.6-8.609 89.705a110.885 110.885 0 0 0 -6.142 43.831c-2.865 2.492-6.852 2.841-11.213 2.143-11.7-1.894-25.728-11.973-25.728-11.973s4.5-119.607 7.787-124.142 0-30.325 0-30.325l5.32-41.788s-.822-70.892 6.965-83.176c6.728-10.615 8.273-29.279 8.572-34.175v-1.246l11.861-14.2s114.723-8.609 123.344 0c2.106 2.106 3.414 6.915 4.186 12.957 2.367 18.589-.349 48.9-.349 48.9s-3.439 22.538-8.36 45.475a99.822 99.822 0 0 0 0 41.8 125.127 125.127 0 0 0 4.618 47.966z" fill="#65617d" transform="translate(163.154 102.388)"/><path d="m955.668 833.91c-5.121 6.765-35.234 3.9-40.367 1.794-3.127-1.246-2.891-7.189-2.043-13.256.536-3.85 1.321-7.787 1.645-10.652.81-7.376-2.492-22.339-2.492-22.339s6.753 7.176 8.385 0c.723-3.14 3.239-4.747 5.856-5.557a15.3 15.3 0 0 1 10.64.66c5.32 2.317 14.191 7.239 12.609 13.892-2.255 9.407 5.731 22.763 5.731 22.763a10.365 10.365 0 0 1 1.5 2.567 9.83 9.83 0 0 1 -1.458 10.129z" fill="#a27772" transform="translate(185.558 167.505)"/><path d="m955.609 826.172c-5.121 6.765-35.234 3.9-40.367 1.794-3.127-1.246-2.891-7.189-2.043-13.256 3.239 1.52 8.721 2.778 17.9 1.931a50.5 50.5 0 0 1 6.441-.2 149.814 149.814 0 0 0 19.561-.4 9.83 9.83 0 0 1 -1.492 10.131z" opacity=".1" transform="translate(185.617 175.242)"/><path d="m867.9 711.547c2.043 26.625-.424 67.6-8.609 89.705a110.885 110.885 0 0 0 -6.142 43.831c-2.866 2.492-6.853 2.841-11.213 2.143 2.492-17.281 13.007-91.736 19.748-150.567 7.687-66.992 43.607-113.078 43.607-113.078l7.164 7.887c-19.555 10.265-44.555 120.079-44.555 120.079z" opacity=".1" transform="translate(168.23 118.406)"/><path d="m953.741 350.353-4.984 24.582-24.507 41.177-30.213-12.912s-41.115-43.021-15.262-49.163a22.875 22.875 0 0 0 8.572-3.812c5.071-3.825 6.666-9.382 6.691-14.826a45.452 45.452 0 0 0 -4.161-17.617l52.851-16.6a84.836 84.836 0 0 0 -3.738 21.4c-.411 14.4 4.984 21.492 9.332 24.918a15.874 15.874 0 0 0 5.419 2.853z" fill="#fbbebe" transform="translate(175.188 48.966)"/><path d="m938.8 301.19a84.831 84.831 0 0 0 -3.738 21.4 40.213 40.213 0 0 1 -3.077 3.277 41.813 41.813 0 0 1 -41.785 9.533 45.45 45.45 0 0 0 -4.2-17.617z" opacity=".1" transform="translate(179.064 48.966)"/><path d="m949.75 304.008a41.6 41.6 0 1 1 -12.187-29.608 41.8 41.8 0 0 1 12.187 29.606z" fill="#fbbebe" transform="translate(174.183 39.383)"/><path d="m953.741 341.218-4.984 24.582-24.507 41.177-30.213-12.908s-41.115-43.021-15.262-49.163a22.874 22.874 0 0 0 8.572-3.812c-4.66 12.808 14.577 39.458 14.577 39.458 2.243 3.3 7.376 1.246 7.376 1.246 12.4-1.881 35.209-37.527 38.935-43.457a15.872 15.872 0 0 0 5.506 2.877z" opacity=".1" transform="translate(175.188 58.101)"/><path d="m983.771 535.252c-7.276 1.657-47.531 10.565-62.794 8.335-16.795-2.492-49.45-4.087-49.45-4.087s-20.794 1.121-27.2-1.807v-1.246l11.861-14.2s114.723-8.609 123.344 0c2.159 2.153 3.468 6.963 4.239 13.005z" opacity=".1" transform="translate(168.817 102.383)"/><path d="m913.907 381.708s-21.616-29.9-13.468-41.613l-36.517 14.951s-21.978-2.666-29.9 30.138a57.078 57.078 0 0 0 -1.358 16.645c.3 4.984-.374 13.7-6.018 24.918-9.008 18.028-6.965 59.417 11.475 63.541s24.98 2.043 24.98 2.043-2.492 74.978-13.107 83.588 27.161 6.553 27.161 6.553 32.655 1.645 49.462 4.1 63.915-8.609 63.915-8.609-6.965-31.546-9.432-51.618-8.21-62.831-8.21-62.831l41.787-56.614s7.376-34.212-18.439-49.375-35.521-18.875-35.521-18.875-25.94 42.236-39.458 44.279c.024 0-5.109 2.071-7.352-1.221z" fill="#ff7d00" transform="translate(163.192 58.177)"/><path d="m858.555 382.74s-.4 13.53 2.056 18.85 11.475 34.885 11.475 34.885h-20.5s11.064-11.886 10.254-17.63-3.285-36.105-3.285-36.105z" opacity=".1" transform="translate(170.602 69.019)"/><path d="m918.748 475.964s-45.248-11.064-49.463-20.483-15.835-30.512-15.835-30.512l4.772-6.429 22 17.268s26.164 20.894 38.523 22.95.003 17.206.003 17.206z" fill="#fbbebe" transform="translate(171.06 77.823)"/><path d="m918.748 475.964s-45.248-11.064-49.463-20.483-15.835-30.512-15.835-30.512l4.772-6.429 22 17.268s26.164 20.894 38.523 22.95.003 17.206.003 17.206z" opacity=".05" transform="translate(171.06 77.823)"/><path d="m953.394 421.934v24.544h-3.937a114.732 114.732 0 0 0 -55.737 14.439l-7.381 4.083-1.981 1.109-12.708-28.651 11.886-10.652h.61c2.9.287 15.474 1.333 20.807-.461 5.058-1.719 11.338-7.164 26.239-3.364 7.338 1.881 13.618 10.1 20.732 7.538z" fill="#fbbebe" transform="translate(175.536 78.591)"/><path d="m986.609 391.5 8.186 9.22v22.339s-6.965 70.468-29.079 78.255-61.622-4.51-61.622-4.51-10.2-27.036-5.432-28.656 42.174-11.512 42.174-11.512-.525-41.342 7.664-53.636c0 0-5.32-38.511 13.119-39.333s24.99 27.833 24.99 27.833z" opacity=".1" transform="translate(181.865 64.324)"/><path d="m987.608 391.5 8.2 9.22v22.339s-6.965 70.468-29.092 78.255-61.622-4.51-61.622-4.51-10.2-27.036-5.42-28.656 42.174-11.512 42.174-11.512-.536-41.339 7.662-53.636c0 0-5.333-38.511 13.107-39.333s24.991 27.833 24.991 27.833z" fill="#ff7d00" transform="translate(182.112 64.324)"/><path d="m936.6 321.779a16.47 16.47 0 0 0 -.934-7.986c-1.159-2.492-3.862-4.373-6.5-3.738-3.5.822-4.984 5.382-8.447 6.479-2.9.922-6.068-1.134-7.475-3.837s-1.42-5.881-1.42-8.921v-10.267c0-3.738-.125-7.75-2.417-10.677-2.853-3.638-9.568-5.233-14.054-5.083a11.923 11.923 0 0 0 -8.024 3.227c-2.392 2.043-5.171 3.538-8.435 3a7.263 7.263 0 0 1 -5.881-5.083v-.125a41.788 41.788 0 1 1 62.121 55.467 112.672 112.672 0 0 0 1.47-12.459z" opacity=".1" transform="translate(175.87 39.353)"/><path d="m881.029 287.774a7.326 7.326 0 0 1 -5.893-5.1c-.336-1.321-.249-2.729-.635-4.037-.959-3.227-4.4-4.9-6.7-7.351-4.61-4.9-4.311-12.945-1.047-18.838 2.641-4.747 7.75-8.721 13.107-7.824 3.314.573 6.229 2.928 9.544 3.152s6.229-1.607 9.133-2.953a34.411 34.411 0 0 1 22.7-2.018 13.082 13.082 0 0 1 6.23 3.152 54.474 54.474 0 0 1 3.326 4.672c3.813 4.859 10.652 5.818 16.745 6.915s12.982 3.513 14.951 9.369c1.333 3.887 0 8.1-.723 12.135a3.663 3.663 0 0 0 .162 2.492c.959 1.57 3.339.91 5.133 1.246 3.451.735 4.336 5.183 4.473 8.721q.212 6.055.324 12.123a15.438 15.438 0 0 1 -.361 4.485 15.834 15.834 0 0 1 -3.476 5.644l-13.53 16.259c-6.005 7.2-12.372 15.6-11.213 24.918-2.841 1.246-6.229-1.184-7.151-4.161s-.187-6.23.448-9.232a113.17 113.17 0 0 0 2.168-16.01 16.42 16.42 0 0 0 -.934-7.974c-1.159-2.492-3.862-4.373-6.5-3.738-3.513.822-4.984 5.382-8.447 6.479-2.9.922-6.068-1.134-7.475-3.837s-1.42-5.868-1.42-8.908v-10.275c0-3.738-.125-7.75-2.417-10.677-2.853-3.638-9.568-5.233-14.054-5.083a11.923 11.923 0 0 0 -8.011 3.227c-2.414 2.053-5.193 3.563-8.457 3.027z" fill="#7c5c5c" transform="translate(173.732 34.349)"/><path d="m885.3 381.92 12.833 52.714s10.117-.062-12.833-52.714z" opacity=".1" transform="translate(178.892 68.818)"/><path d="m922.811 374.85s-16.795 27.51-10.241 55.966l3.127.224s-5.582-13.169 7.114-56.19z" opacity=".1" transform="translate(185.224 67.079)"/><path d="m929 500.109s20.632-6.828 22.127 9.008c.05 0-3.837-10.852-22.127-9.008z" opacity=".1" transform="translate(189.638 97.521)"/><path d="m888.151 426.81s-4.1 28.656 3.277 40.155c0 0-14.951 6.142-36.056 4.921l-2.492-45.076z" opacity=".1" transform="translate(170.919 79.856)"/><path d="m886.339 463.989-1.981 1.109-12.708-28.656 11.886-10.652h.61c-.187 1.42-3.501 26.052 2.193 38.199z" opacity=".1" transform="translate(175.536 79.605)"/><path d="m890.49 425.83s-4.1 28.656 3.277 40.143c0 0-14.951 6.155-36.056 4.921l-14.341-45.064z" fill="#ff7d00" transform="translate(168.581 79.615)"/><path d="m871.926 816.674a9.282 9.282 0 0 1 -7.961 8.123c-11.126 1.657-37.925 5.893-44.691 9.12-8.609 4.1-42.61 1.246-44.254-2.866a6.5 6.5 0 0 1 .586-4.984 13.132 13.132 0 0 1 5.494-5.905 14.576 14.576 0 0 1 2.492-1.1c6.4-2.13 18.5-6.665 21.766-11.425 0 0 15.088-13.194 19.386-20.321a9.842 9.842 0 0 1 7.874-4.909c3.588-.162 7.588 1.645 9.232 9.506 0 0 19.648 11.213 24.918 1.383 0 0 .822 15.1 4.087 19.237a5.481 5.481 0 0 1 1.071 4.141z" fill="#a27772" transform="translate(151.711 167.298)"/><path d="m871.926 810.726a9.282 9.282 0 0 1 -7.961 8.123c-11.126 1.657-37.925 5.893-44.691 9.12-8.609 4.1-42.61 1.246-44.254-2.865a6.5 6.5 0 0 1 .586-4.984 13.133 13.133 0 0 1 5.494-5.906c5.544 3.738 17.854 7.276 44.927 3.052 25.828-4.037 38.623-7.986 44.853-10.677a5.482 5.482 0 0 1 1.047 4.136z" opacity=".1" transform="translate(151.711 173.246)"/><g opacity=".1" transform="translate(1038.009 295.473)"><path d="m942.5 274.026v-.2c.586-3.065 1.47-6.229 1.246-9.307a61.422 61.422 0 0 1 -1.246 7.481 4.536 4.536 0 0 0 0 2.026z" transform="translate(-845.079 -255.525)"/><path d="m937.8 314.151a11.85 11.85 0 0 1 1.009 4.685 14.129 14.129 0 0 0 -1.009-6.529c-1.146-2.492-3.85-4.373-6.491-3.738-3.513.822-4.984 5.382-8.46 6.479-2.891.922-6.055-1.134-7.475-3.837s-1.42-5.881-1.42-8.921v-10.267c0-3.738-.125-7.75-2.417-10.677-2.866-3.65-9.569-5.233-14.054-5.1a11.936 11.936 0 0 0 -8.024 3.239c-2.4 2.043-5.171 3.538-8.447 3a7.3 7.3 0 0 1 -5.881-5.083c-.336-1.321-.249-2.741-.635-4.049-.959-3.214-4.4-4.9-6.7-7.338a13.418 13.418 0 0 1 -3.451-8.721 13.967 13.967 0 0 0 3.451 10.5c2.3 2.492 5.744 4.124 6.7 7.338.386 1.246.3 2.729.635 4.049a7.3 7.3 0 0 0 5.881 5.083c3.277.536 6.043-.959 8.447-3a11.936 11.936 0 0 1 8.024-3.239c4.485-.137 11.213 1.445 14.054 5.1 2.292 2.928 2.4 6.952 2.417 10.677v10.266c0 3.04 0 6.23 1.42 8.908s4.547 4.772 7.475 3.85c3.439-1.1 4.984-5.656 8.46-6.479 2.641-.57 5.344 1.399 6.491 3.804z" transform="translate(-864.285 -257.3)"/><path d="m955.9 294.4a15.749 15.749 0 0 1 -3.488 5.632l-13.531 16.259c-5.694 6.84-11.712 14.764-11.213 23.5.411-8.011 5.993-15.3 11.213-21.654l13.531-16.259a15.747 15.747 0 0 0 3.489-5.631 15.549 15.549 0 0 0 .361-4.5 11.837 11.837 0 0 1 -.362 2.654z" transform="translate(-848.707 -248.829)"/><path d="m922.089 328.543a9.589 9.589 0 0 1 -.411-2.193 11.048 11.048 0 0 0 .411 4.037c.922 2.965 4.3 5.42 7.151 4.149a17.509 17.509 0 0 1 -.149-1.794c-2.841 1.133-6.13-1.284-7.002-4.199z" transform="translate(-850.182 -240.32)"/></g><path d="m812.69 789.36s4.286 7.475 19.81.9" opacity=".1" transform="translate(161.037 169.008)"/><path d="m918 790.82s13.381 15.761 30.25 5.171" opacity=".1" transform="translate(186.933 169.368)"/><path d="m951.188 641.23s-9.456 5.906-9.755 9.282 4.884-2.492 4.884-2.492z" opacity=".1" transform="translate(192.692 132.583)"/><path d="m955.611 677.59a19.771 19.771 0 0 1 -11.649 4.548c-7.077.311-6.479 9.531-1.856 6.765s13.505-11.313 13.505-11.313z" opacity=".1" transform="translate(192.006 141.524)"/><path d="m955.323 682.34s-4.535 22.289-8.223 17.991" opacity=".1" transform="translate(194.088 142.692)"/><path d="m253.174 960.648s28.469 7.812 42.174-2.579 19.652-7.052 19.652-7.052 32.68-1.807 35.371-9.531-12.538-35.786-12.538-35.786c-1.084-2.492-2.666-5.656-3.376-5.656l.149-11.836 4.734-49.525c10.927-28.02.2-64.226.2-64.226l-1.956-8.983a22.726 22.726 0 0 1 1.856-14.951l19.847-39.869a59.666 59.666 0 0 1 3.738-7.65c1.246-2.28 2.9-5.1 4.984-8.472.61-.972 1.246-1.981 1.944-3.04 2.4-3.738 5.32-7.974 8.846-12.858 8.784-12.172 13.406-27.41 15.8-38.623l1.059 3.513h.237l.287.062h.473l.511.087h.187l6.1 77.694c.374 30.3 11.5 47.07 11.5 47.07l-1.532 66.893c2.093 16.109-2.492 37.589-4.6 46.161l-4.809 10.852a13.044 13.044 0 0 0 -7.089 9.867c-.947 8.011-9.382 25.279-9.382 25.279-3.264 4.136-10.353 15.312-10.353 15.312s-3.339 10.79-1.271 14.826 19.361 3.626 19.361 3.626c19.748 4.373 34.885-6.23 33.926-13.531s3.077-9.157 3.077-9.157c7.849-2.492 7.089-7.812 7.089-7.812a48.889 48.889 0 0 0 -5.943-31.82l-1.246 2.878a43.818 43.818 0 0 1 2.367-16.982l-.723.5-.224.137h-.075c1.246-10.927 12.721-31.148 12.721-31.148 21.081-36.978 13.418-87.089 13.418-87.089l-3.264-15.624-.187-5.893a196.693 196.693 0 0 1 3.186-41.982c1.134-6.13 2.3-13.53 3.2-21.691 1.894-17.243 8-35.035 10.814-42.572l.835-.15h.1c1.146-.2 2.3-.4 3.476-.623h.224s.673-3.638 1.246-9.83c.336-3.95.61-8.958.61-14.714a165.546 165.546 0 0 0 -7.862-51.219l.635-.91s1.508-2.043 4.261-5.582c5.058-6.429 12.932-16.2 22.638-27.211 17.38-19.822 12.272-39.869 12.272-39.869s-12.584-46.111-18.19-73.795c-3.2-15.773-9.207-26.5-13.8-32.83a65.341 65.341 0 0 0 1.741-13.304c.374-8.2.087-16.745-3.6-24.108s-11.537-13.182-19.735-12.2a7.55 7.55 0 0 1 -3.538 0 5.382 5.382 0 0 1 -2.33-2.031c-4.8-6.616-5.108-15.512-3.613-23.535s4.56-15.7 5.931-23.747.748-16.982-4.373-23.361c-6.018-7.475-16.508-9.581-24.333-15.2-5.494-3.95-9.618-9.618-15.412-13.119s-11.213-2.168-17.5-.847c-10.578 2.23-20.632 3.252-30.637 7.8a81.594 81.594 0 0 0 -26.7 19.424 25.342 25.342 0 0 0 -5.96 9.394c-2.492 8.235 2.38 17.007 1.358 25.529-.723 6.043-4.286 11.3-7.114 16.7s-4.984 11.8-2.766 17.443c3.489 8.821 14.864 10.69 23.136 15.387a7.064 7.064 0 0 1 2.741 2.38c2.043 3.563-2.13 7.264-4.759 10.428a15.711 15.711 0 0 0 -3.115 6.329 22.576 22.576 0 0 0 -13.543 16.346c-2.8 12.546 1.508 28.382 5.308 38.847-4.149 23.311 1.246 32.506 5.22 36.032a20 20 0 0 1 6.927 13.63v.436c.262 4.236.71 8.46 1.308 12.671-.137-.984-.274-2.031-.349-2.492-3.252 6.018-9.444 21.392-12.932 47.257a142.034 142.034 0 0 1 -3.152 16.458 90 90 0 0 0 -2.641 29.428l.623 8.385a2.641 2.641 0 0 1 -1.694-.561l4.373 8.011v13.518a49.837 49.837 0 0 1 -3.314 17.829c-.311.822-.648 1.645-1.009 2.492a14.5 14.5 0 0 0 -1.47 7.338c-9.407 14.415-30.973 95.2-30.973 95.2-11.7 26.488.959 43.607.959 43.607s6.13 73.745 7.276 77.557 3.688 48.765 3.688 48.765v3.576a8.385 8.385 0 0 0 -2.13-.61c-10.254-.573-13.032 15.624-13.032 15.624l-20.981 20.034s-9.581-1.62-23.672 8.958 9.103 20.216 9.103 20.216zm209.5-426.211-.062-.224-.573.336-.237.137-.112.075-9.668-34.125a56.663 56.663 0 0 1 -.71-28.07l7.475-32.742v-7.874l23.759 63.317c1.519 8.533-12.597 29.203-19.874 39.17z" fill="url(#c)" transform="translate(20.094 31.434)"/><path d="m442.086 557s-9.594 23.336-12.035 45.725c-.885 8.073-2.031 15.374-3.152 21.43a195.827 195.827 0 0 0 -3.065 41.451l.187 5.818 3.115 15.412s7.475 49.5-13.169 85.967c0 0-12.235 21.841-12.609 32.182l-8.285 3.2-16.745-4.7s8.086-28.992 5.457-49.313l1.508-66.033s-10.877-16.521-11.251-46.422l-6.391-82.055z" fill="#fdc2cc" transform="translate(51.109 111.871)"/><path d="m386.969 547.62s-2.056 31.995-17.879 54.047-19.19 31.621-19.19 31.621l-19.486 39.4a22.563 22.563 0 0 0 -1.832 14.739l1.919 8.871s10.54 35.757-.187 63.429l-5.083 53.449h-29.723s-2.492-44.416-3.576-48.179-7.151-76.6-7.151-76.6-12.459-16.944-.947-43.1c0 0 25.977-97.866 32.929-96.171s70.206-1.506 70.206-1.506z" fill="#fdc2cc" transform="translate(29.788 109.564)"/><path d="m318.95 696.356-1.906-8.871a22.426 22.426 0 0 1 1.819-14.8l19.486-39.433s3.376-9.594 19.187-31.621c15.188-21.18 17.692-51.531 17.866-53.86l3.028-.15s-2.056 31.995-17.879 54.047-19.187 31.621-19.187 31.621l-19.486 39.4a22.563 22.563 0 0 0 -1.832 14.739l1.919 8.871s10.54 35.757-.187 63.429l-5.078 53.444h-3.02l5.083-53.449c10.727-27.672.187-63.367.187-63.367z" opacity=".1" transform="translate(38.329 109.563)"/><path d="m393.324 805.022c.374-10.341 12.609-32.182 12.609-32.182 20.707-36.5 13.169-85.967 13.169-85.967l-3.19-15.424-.187-5.818a195.83 195.83 0 0 1 3.065-41.451c1.109-6.055 2.255-13.356 3.14-21.43 2.355-21.554 11.338-43.98 12-45.625l3.09-.125s-9.594 23.336-12.035 45.725c-.885 8.073-2.031 15.374-3.152 21.43a195.827 195.827 0 0 0 -3.065 41.451l.187 5.818 3.115 15.412s7.475 49.5-13.169 85.967c0 0-12.235 21.841-12.609 32.182l-8.285 3.2-1.744-.486z" opacity=".1" transform="translate(56.176 111.871)"/><path d="m387.987 756.727a14.4 14.4 0 0 0 13.7-1.694 44.23 44.23 0 0 0 -1.121 24.843c3.389 13.555-31.621-10.914-31.621-10.914l7.475-17.081s2.908 5.406 11.567 4.846z" fill="#d39999" transform="translate(51.92 159.792)"/><path d="m390.586 757.494a13.991 13.991 0 0 0 11.126-2.494 44.23 44.23 0 0 0 -1.121 24.843c3.389 13.555-31.621-10.914-31.621-10.914l7.475-17.081s2.168 4.161 8.534 4.809c1.932.226 3.776.488 5.607.837z" opacity=".1" transform="translate(51.925 159.785)"/><path d="m289.32 498.268h14.627v-82.99l-10.977-1.968z" fill="#fdc2cc" transform="translate(71.161 101.629)"/><path d="m289.32 498.268h14.627v-82.99l-10.977-1.968z" opacity=".05" transform="translate(71.161 101.629)"/><path d="m384.74 761.2s9.22-.573 13.356 7.712l5.083 3.949 2.492-5.831a48.591 48.591 0 0 1 5.756 31.434s.748 5.258-6.965 7.712c0 0-3.95 1.881-3.015 9.033s-13.917 17.692-33.3 13.356c0 0-16.944.386-19.012-3.576s1.321-14.49 1.321-14.49 6.965-11.039 10.154-15.113c0 0 8.285-17.069 9.232-24.918s10.002-13.6 14.898-9.268z" fill="#7e5659" transform="translate(46.882 161.718)"/><path d="m322.516 768.934.15-11.7s-16.832 4.847-30.462-.635c0 0 1.146 11.761-.748 13.369s6.3 16.745 6.3 16.745l9.157 9.593 15.748-5.731 4.273-13.456s-3.296-8.185-4.418-8.185z" fill="#d39999" transform="translate(32.794 160.953)"/><path d="m322.516 768.934.15-11.7s-16.832 4.847-30.462-.635c0 0 1.146 11.761-.748 13.369s6.3 16.745 6.3 16.745l9.157 9.593 15.748-5.731 4.273-13.456s-3.296-8.185-4.418-8.185z" opacity=".1" transform="translate(32.794 160.953)"/><path d="m302.63 763.1s8.946 1.034 7.812 12.459.473 0 .473 0 9.506 3.85 12.9 9.22 9.506-4.8 9.967-7.712 4.273-4.124 4.273-4.124 14.945 27.724 12.305 35.349-34.736 9.382-34.736 9.382-5.843-3.289-19.3 6.965-41.4 2.492-41.4 2.492-22.775-9.506-8.933-19.934 23.236-8.846 23.236-8.846l20.607-19.86s2.729-15.961 12.796-15.391z" fill="#7e5659" transform="translate(20.586 162.549)"/><path d="m393.8 237.532c5.694 3.451 9.743 9.058 15.138 12.957 7.675 5.544 17.978 7.612 23.884 15.013 4.984 6.3 5.631 15.113 4.286 23.062s-4.361 15.536-5.818 23.46-1.159 16.708 3.551 23.236a5.27 5.27 0 0 0 2.28 2.006 7.475 7.475 0 0 0 3.476 0c8.048-.972 15.773 4.784 19.386 12.048s3.9 15.711 3.526 23.809c-.311 6.641-1.059 13.418-3.974 19.4-4.984 10.167-15.349 16.446-25.578 21.255a198.117 198.117 0 0 1 -20.42 8.248c-4.784 1.62-9.83 3.077-14.8 2.23-8.509-1.47-14.54-9.207-22.613-12.235-6.616-2.492-13.954-1.595-20.993-.972-6.005.523-12.87.511-17.007-3.875-5.308-5.631-2.915-14.714-.2-21.965a15.636 15.636 0 0 1 -11.064-25.566c2.567-3.127 6.666-6.778 4.66-10.3a6.827 6.827 0 0 0 -2.69-2.343c-8.111-4.635-19.287-6.491-22.7-15.188-2.193-5.594-.075-11.923 2.7-17.243s6.23-10.528 6.99-16.483c1-8.422-3.738-17.081-1.333-25.2a25.267 25.267 0 0 1 5.843-9.294 80.187 80.187 0 0 1 26.17-19.183c9.83-4.5 19.685-5.507 30.076-7.7 6.224-1.32 11.384-2.715 17.224.823z" fill="#865a61" transform="translate(36.248 32.761)"/><path d="m337.978 337.763s-23.834-1.246-28.344 19.075 9.78 49.425 9.78 49.425z" fill="#fdc2cc" transform="translate(37.118 57.956)"/><path d="m337.978 337.763s-23.834-1.246-28.344 19.075 9.78 49.425 9.78 49.425z" opacity=".05" transform="translate(37.118 57.956)"/><path d="m320 407.963 9.033 7.151 42.149 1.886 26.318-18.07 26.762-45.924c-16.359-4.174-22.974-15.474-25.441-26.039a57.012 57.012 0 0 1 -.523-21.753s-42.914-22.214-37.644 12.458a47.1 47.1 0 0 1 .4 12.883c-2.492 20.308-22.2 16.483-22.2 16.483l-7.566 11.662-8.659 28.656z" fill="#fdc2cc" transform="translate(39.883 48.232)"/><path d="m352.749 317.624a47.1 47.1 0 0 1 .4 12.883 38.038 38.038 0 0 0 37.763-3.538 57.012 57.012 0 0 1 -.523-21.753s-42.911-22.216-37.64 12.408z" opacity=".1" transform="translate(47.826 48.23)"/><circle cx="416.784" cy="342.656" fill="#fdc2cc" r="38.013"/><path d="m351.856 391.211c.922 0 1.831.137 2.741.224 4.984.5 25.8 1.62 37.664-12.546 13.269-15.848 30.936-35.421 31.658-36.218l17.981 5.429s-14.228-5.058-23.672 21.4a27.41 27.41 0 0 0 9.257 31.534 28.481 28.481 0 0 0 11.761 4.984.062.062 0 0 1 0 .062v11.62l-7.351 32.393a56.152 56.152 0 0 0 .7 27.721l11.205 39.632c-1.694 1.171-71.266 48.491-117.738 15.811.174-1.42 5.918-47.93 1.931-70.693a157.19 157.19 0 0 1 -2.081-17.592v-.436a19.835 19.835 0 0 0 -6.812-13.456c-4.186-3.738-9.855-13.7-4.249-40.043a96.756 96.756 0 0 1 6.229-18.975l15.586-35.222 14.365.287v.1c-1.246 1.545-17.9 22.352-19.71 35.757-1.766 12.745-3.947 16.657 20.535 18.227z" fill="#ff7d00" transform="translate(38.04 57.732)"/><path d="m439.836 352.187s14.054 12.048 19.573 39.4 17.816 72.773 17.816 72.773 4.984 19.822-12.048 39.4-28.357 34.885-28.357 34.885l-11.213 16.521a14.066 14.066 0 0 1 -8.073 5.706c-5.108 1.346-12.957 2.317-19.76-1.408a11.512 11.512 0 0 1 -4.984-14.54l2.492-5.768s-23.082 14.544-25.092 6.507 26.849-16.06 26.849-16.06 23.834-4.012 28.656-15.3c0 0 25.591-32.879 23.585-44.167l-24.719-66.245s-30.911-4.087-20.37-38.81 35.645-12.894 35.645-12.894z" fill="#fdc2cc" transform="translate(52.201 59.841)"/><path d="m307.482 569.873s56.464 11.288 69.771 9.78l1.433 4.772s21.43 4.8 69.883-2.891q4.747-.747 9.855-1.682l1.134-.2s.66-3.588 1.184-9.706c1.159-13.892 1.57-40.791-8.21-68.325l-8.148-25.092s-50.359 30.188-83.7 27.41c-2.978-.249-5.931-.486-8.908-.586-6.84-.262-17.443 0-24.332-5.519l-14.452 2.492v41.115a49.262 49.262 0 0 1 -3.264 17.592c-.311.822-.635 1.632-1 2.492a13.083 13.083 0 0 0 -1.246 8.348z" fill="#65617d" transform="translate(36.752 92.083)"/><path d="m364.58 553.192v12.8s24.669 5.519 80.872-4.772c0 0 .66-3.588 1.184-9.706-17.244 2.762-64.8 9.415-82.056 1.678z" opacity=".1" transform="translate(50.845 110.52)"/><path d="m307.48 553.58s56.464 11.288 69.771 9.78l1.433 4.772v-12.8c-6.429 2.666-52.328-8.4-68.961-12.546-.311.822-.635 1.632-1 2.492a13.082 13.082 0 0 0 -1.246 8.3z" opacity=".1" transform="translate(36.754 108.376)"/><path d="m417.31 541.584 4.186 25.965q4.747-.747 9.855-1.682c-1.308-7.588-4.161-24.918-3.376-27.8l-5.27-4.51z" fill="#65617d" transform="translate(63.812 106.106)"/><path d="m417.78 541.134 4.186 25.977q4.747-.76 9.855-1.682c-1.308-7.588-4.161-24.918-3.376-27.8l-5.27-4.523z" opacity=".1" transform="translate(63.927 105.996)"/><g opacity=".05" transform="translate(361.764 568.575)"><path d="m354.153 499.725c-2.965-.249-5.931-.486-8.908-.586-6.653-.249-16.807 0-23.734-5.1l2.417-.424c6.927 5.494 17.443 5.258 24.332 5.519 2.978.1 5.931.336 8.908.586.972.087 1.969.137 2.978.162a55.893 55.893 0 0 1 -5.993-.162z" transform="translate(-321.51 -472.29)"/><path d="m427.685 581.542q4.747-.747 9.855-1.67l1.146-.212s.66-3.588 1.171-9.706c1.171-13.892 1.582-40.791-8.21-68.325l-7.675-23.672c1.632-.922 2.492-1.458 2.492-1.458l8.148 25.093c9.78 27.534 9.369 54.434 8.211 68.325-.523 6.117-1.184 9.706-1.184 9.706l-1.134.212q-5.1.922-9.855 1.67c-22.638 3.588-39.358 4.46-50.771 4.361a320.2 320.2 0 0 0 47.806-4.324z" transform="translate(-307.157 -476.5)"/><path d="m361.32 559.3v.137h-1.62q.922-.062 1.62-.137z" transform="translate(-312.119 -456.139)"/></g><ellipse cx="488.135" cy="648.151" fill="#d39999" rx="2.13" ry="4.386"/><path d="m314.971 478.3c3.439-25.541 9.506-40.716 12.708-46.659.125.81.448 3.439.6 4.249.648 3.738.075 8.447.274 13.194l-3.19 57.76 4.273 18.066c4.012 14.3-10.852 3-10.852 3-3.077 6.778-8.721 6.03-8.721 6.03l-.772-10.366a89.531 89.531 0 0 1 2.591-29.067 138.507 138.507 0 0 0 3.09-16.209z" fill="#fdc2cc" transform="translate(37.188 81.044)"/><path d="m314.971 478.3c3.439-25.541 9.506-40.716 12.708-46.659.125.81.448 3.439.6 4.249.648 3.738.075 8.447.274 13.194l-3.19 57.76 4.273 18.066c4.012 14.3-10.852 3-10.852 3-3.077 6.778-8.721 6.03-8.721 6.03l-.772-10.366a89.531 89.531 0 0 1 2.591-29.067 138.507 138.507 0 0 0 3.09-16.209z" opacity=".05" transform="translate(37.188 81.044)"/><path d="m442.577 499.151c-2.7 3.5-4.186 5.507-4.186 5.507l-11.213 16.508a14 14 0 0 1 -8.073 5.706c-5.108 1.346-12.957 2.33-19.76-1.408a11.487 11.487 0 0 1 -4.984-14.527l2.492-5.781s-23.087 14.552-25.093 6.529 26.849-16.06 26.849-16.06 23.834-4.012 28.656-15.312c0 0 2.081-2.666 4.984-6.753" fill="#fdc2cc" transform="translate(52.586 91.352)"/><path d="m425.186 519.915s-27.3-2.654-35.944-18.265l-3.962 12.9s28.656 19.785 35.2 17.218z" fill="#65617d" transform="translate(55.936 98.259)"/><path d="m424.4 519.817s-27.285-2.654-35.944-18.277l-3.946 12.86s28.656 19.785 35.184 17.218z" opacity=".1" transform="translate(55.747 98.232)"/><path d="m319.837 510.46s-9.556 3.389-11.437 1.508l4.3 7.911 8.123-6.23z" fill="#65617d" transform="translate(37.031 100.426)"/><path d="m319.837 510.46s-9.556 3.389-11.437 1.508l4.3 7.911 8.123-6.23z" opacity=".1" transform="translate(37.031 100.426)"/><path d="m334.195 535.978v-16.508l-3.925 16.907z" opacity=".1" transform="translate(81.231 127.734)"/><path d="m412.67 286.116c-2.3 3.239-6.3 4.884-10.241 5.395s-7.924.075-11.9 0c-6.23-.1-12.858.86-17.953 4.523-3.252 2.33-5.694 5.607-8.235 8.721-7.7 9.407-18.39 18.215-30.525 17.231a7.912 7.912 0 0 1 -5.669-2.393 9.1 9.1 0 0 1 -1.445-5.158 117.911 117.911 0 0 1 .735-23.249 49.014 49.014 0 0 1 3.513-13.867 47.343 47.343 0 0 1 8.447-12.06 51.668 51.668 0 0 1 14.739-11.811 26.438 26.438 0 0 1 18.439-2.38c7.264 1.981 12.92 7.662 19.847 10.59 7.913 3.327 28.919 12.211 20.248 24.458z" opacity=".1" transform="translate(41.465 36.468)"/><path d="m412.67 284.908c-2.3 3.239-6.3 4.884-10.241 5.395s-7.924.075-11.9 0c-6.229-.112-12.858.847-17.953 4.51-3.252 2.33-5.694 5.607-8.235 8.721-7.7 9.407-18.39 18.215-30.525 17.231a7.862 7.862 0 0 1 -5.669-2.392 9.058 9.058 0 0 1 -1.445-5.158 117.907 117.907 0 0 1 .735-23.249 49.013 49.013 0 0 1 3.513-13.867 47.022 47.022 0 0 1 8.447-12.048 51.494 51.494 0 0 1 14.739-11.824 26.438 26.438 0 0 1 18.439-2.38c7.264 1.981 12.92 7.662 19.847 10.59 7.913 3.341 28.919 12.199 20.248 24.471z" fill="#865a61" transform="translate(41.465 36.169)"/><path d="m292.521 473.47-.1 4.548-1.022-4.348z" fill="#fdc2cc" transform="translate(71.672 116.423)"/><path d="m292.521 473.47-.1 4.548-1.022-4.348z" opacity=".05" transform="translate(71.672 116.423)"/><path d="m401.907 362.492c-10.553 34.723 20.209 38.8 20.209 38.8l24.719 66.245c2.006 11.288-23.6 44.167-23.6 44.167-1.782 4.211-6.23 7.413-11.089 9.78a17.368 17.368 0 0 0 6.578-7.226s25.591-32.867 23.585-44.155l-24.719-66.257s-30.749-4.074-20.209-38.8c3.526-11.6 8.721-16.882 13.979-18.776-3.622 2.915-6.949 7.961-9.453 16.222z" opacity=".05" transform="translate(58.37 60.051)"/><g opacity=".1" transform="translate(350.635 394.56)"><path d="m401 384.61a25.962 25.962 0 0 0 4.984 4.722 28.32 28.32 0 0 0 11.761 4.984v1.308a28.233 28.233 0 0 1 -10.665-4.724 25.852 25.852 0 0 1 -6.08-6.29z" transform="translate(-290.834 -325.081)"/><path d="m325.158 426.637v.436a160.921 160.921 0 0 0 2.143 17.654c3.738 21.479-1.159 64.127-1.856 70.02-.4-.262-.8-.511-1.246-.8.187-1.42 5.93-47.93 1.944-70.68a157.876 157.876 0 0 1 -2.081-17.592v-.436a19.225 19.225 0 0 0 -3.351-9.531 19.374 19.374 0 0 1 4.448 10.927z" transform="translate(-310.578 -317.433)"/><path d="m350.095 338.537-12.185-.237a.062.062 0 0 0 -.062 0l-15.574 35.209a97.073 97.073 0 0 0 -6.229 18.975c-4.535 21.3-1.682 31.92 1.782 37.165-3.9-4.6-7.924-15.075-2.9-38.623a96.044 96.044 0 0 1 6.167-18.988l15.686-35.209 14.365.287v.087c-.116.15-.502.624-1.05 1.334z" transform="translate(-312.577 -336.83)"/><path d="m416.39 345.87.212.062z" transform="translate(-287.05 -334.607)"/><path d="m433.542 346.733-12.21-3.675h-.062c-.723.8-18.377 20.37-31.646 36.218-11.861 14.166-32.655 13.057-37.664 12.559-.91-.1-1.831-.174-2.741-.237-13.618-.872-18.975-2.492-20.769-5.93 2.554 2.492 8.173 3.738 19.635 4.435.922 0 1.831.137 2.741.224 4.984.5 25.8 1.607 37.664-12.546 13.269-15.86 30.936-35.433 31.658-36.231l17.767 5.382a11.1 11.1 0 0 0 -4.373-.2z" transform="translate(-308.674 -335.669)"/></g><path d="m300.82 778.159s-17.193 4.7-20.52-2.679" opacity=".1" transform="translate(30.121 165.595)"/><path d="m389.224 775.356s-19.934 5.144-24.544-2.816" opacity=".1" transform="translate(50.87 164.873)"/><path d="m641.7 772.75c.286-2.492.7-4.984 1.146-7.475 1.969-10.765-1.034-21.031-2.492-25.267-.461-1.308-.8-2.043-.8-2.043-7.936-2.168-39.221 22.1-50.621 31.247-3.95 0-8.235.174-12.92.486-2.043.149-4.087.2-6.13.162h-7.475c-10.578-8.522-43.32-34.15-51.468-31.932 0 0-.336.735-.8 2.043-1.52 4.236-4.523 14.5-2.554 25.267.448 2.492.86 4.984 1.146 7.475.61 5.469 2.9 15.972 11.213 23.062 1.782 12.957 8.447 29.989 13.58 40.33a28.884 28.884 0 0 0 1.744 5.694c-2.118 8.173-4.56 18.838-3.862 22.426 0 0-11.064-2.679-12.185 10.64v.411c-4 1.831-9 6.03-3.376 14.826a5.768 5.768 0 0 0 2.891 2.355c1 .349 1.969.349 1.869-1.047l6.915 7.787s12.534 1.445 12.683-5.831l.735.112c1.682.249 3.439.461 5.245.648l.872 2.878s-9.407-.2-6.84 5.594c0 0 2.367 2.193 3.177 1.4 0 0-1.246 3.8 3.663 3.8 0 0 5.27 2.791 7.326.8s6.317-4.984 6.715-6.229c.112-.336.162-3.289.187-7.376h.81c10.5.249 21.654-.087 31.8-.635h.822c0 4.423.062 7.687.174 8.036.411 1.246 4.685 4.2 6.728 6.229s7.313-.8 7.313-.8c4.884 0 3.663-3.8 3.663-3.8.822.8 3.19-1.4 3.19-1.4 2.567-5.793-6.853-5.594-6.853-5.594l1.121-3.738 5.2-.436.822-.075c-.5 7.911 12.671 6.391 12.671 6.391l6.927-7.787c-.112 1.4.86 1.4 1.856 1.047a5.719 5.719 0 0 0 2.8-2.38c8.485-13.269-7.189-16.084-7.189-16.084a7.684 7.684 0 0 0 -1.483-.237 2.556 2.556 0 0 1 .062-.685 27.339 27.339 0 0 0 .1-5.258c-.585-2.4-4.448-6.229-9.332-6.79-3.19-.4-3.252-15.051-2.928-25.2a28.986 28.986 0 0 0 .5-5.781 30.5 30.5 0 0 0 -1.246-9.257c6.229-10.565 11.213-21.641 11.774-24.918 8.208-7.156 10.5-17.622 11.114-23.091z" fill="url(#b)" transform="translate(85.852 156.328)"/><path d="m626.848 855.922c-.5 6.9-1.831 17.978-1.831 17.978s-5.544.673-14.116 1.445l-5.818.5c-4.46.361-9.469.71-14.764 1.009-9.78.536-20.52.872-30.649.623-5.058-.112-9.967-.374-14.515-.822-2.031-.2-4-.436-5.868-.71-11.612-1.732-19.934-5.046-20.645-10.864a33.633 33.633 0 0 1 -.262-7.475c1.084-13.082 11.736-10.441 11.736-10.441-.685-3.613 1.894-14.839 3.987-22.962 1.321-5.121 2.492-9.008 2.492-9.008l74.9-4.984h.249a3.663 3.663 0 0 1 3.663 3.85c-.448 8.983-1.084 29.553 2.591 30.014 4.71.586 8.435 4.311 9.008 6.666a27.953 27.953 0 0 1 -.158 5.181z" fill="#ff7d00" transform="translate(88.641 174.135)"/><path d="m565.55 774.5s-28.245 34-41.85 24.582c-.324-.224-.635-.448-.934-.685-9.145-6.927-11.55-18.09-12.185-23.759-.274-2.492-.673-4.9-1.109-7.326-1.881-10.578 1-20.645 2.492-24.806.448-1.246.76-2.006.76-2.006 9.406-2.62 52.826 34 52.826 34z" fill="#ff7d00" transform="translate(86.323 156.96)"/><path d="m550.387 777.214s-8.9 6.23-21.442 16.471a45.31 45.31 0 0 1 -6.229 4.286c-9.145-6.927-11.549-18.09-12.185-23.759-.274-2.492-.673-4.9-1.109-7.326-1.881-10.578 1-20.645 2.492-24.806 17.592 1.22 38.473 35.134 38.473 35.134z" fill="#ff7d00" transform="translate(86.31 157.383)"/><path d="m550.387 777.214s-8.9 6.23-21.442 16.471a45.31 45.31 0 0 1 -6.229 4.286c-9.145-6.927-11.549-18.09-12.185-23.759-.274-2.492-.673-4.9-1.109-7.326-1.881-10.578 1-20.645 2.492-24.806 17.592 1.22 38.473 35.134 38.473 35.134z" fill="#fff" opacity=".5" transform="translate(86.31 157.383)"/><path d="m538.773 771.291s-4.747 3.351-11.45 8.8a24.108 24.108 0 0 1 -3.289 2.28c-4.871-3.738-6.229-9.656-6.5-12.671-.137-1.321-.349-2.616-.586-3.925a27.235 27.235 0 0 1 1.383-13.232c9.303.645 20.442 18.748 20.442 18.748z" opacity=".1" transform="translate(88.245 159.954)"/><path d="m569.05 774.5s28.245 34 41.85 24.582c.311-.224.635-.448.934-.685 9.145-6.927 11.549-18.09 12.185-23.759.274-2.492.673-4.9 1.1-7.326 1.894-10.578-1-20.645-2.492-24.806-.448-1.246-.772-2.006-.772-2.006-9.385-2.62-52.805 34-52.805 34z" fill="#ff7d00" transform="translate(101.125 156.96)"/><path d="m581.22 777.214s8.908 6.23 21.454 16.471a45.293 45.293 0 0 0 6.167 4.286c9.145-6.927 11.549-18.09 12.185-23.759.274-2.492.673-4.9 1.1-7.326 1.894-10.578-1-20.645-2.492-24.806-17.508 1.22-38.414 35.134-38.414 35.134z" fill="#ff7d00" transform="translate(104.118 157.383)"/><path d="m581.22 777.214s8.908 6.23 21.454 16.471a45.293 45.293 0 0 0 6.167 4.286c9.145-6.927 11.549-18.09 12.185-23.759.274-2.492.673-4.9 1.1-7.326 1.894-10.578-1-20.645-2.492-24.806-17.508 1.22-38.414 35.134-38.414 35.134z" fill="#fff" opacity=".5" transform="translate(104.118 157.383)"/><path d="m589.05 771.254s4.722 3.339 11.375 8.721a22.811 22.811 0 0 0 3.277 2.268c4.847-3.675 6.13-9.593 6.466-12.6.137-1.246.349-2.6.586-3.9a27.286 27.286 0 0 0 -1.308-13.157c-9.32.677-20.396 18.668-20.396 18.668z" opacity=".1" transform="translate(106.043 159.966)"/><path d="m608.321 810.23c-3.563 5.631-7.351 10.715-10.814 13.78-11.213 9.967-59.629 6.005-62.769 5.494-.66-.112-2.031-2.068-3.738-5.245 1.321-5.121 2.492-9.008 2.492-9.008z" opacity=".1" transform="translate(91.768 174.14)"/><path d="m573.053 765.567c-1.969.137-3.937.187-5.918.15-10.1-.174-44.142.274-47.917 14.016-4.448 16.2 15.437 59.567 18.564 60.09s51.531 4.448 62.781-5.494 25.89-41.115 25.1-43.943c.004-.001 13.958-29.429-52.61-24.819z" fill="#ff7d00" transform="translate(88.712 163.037)"/><path d="m569.269 786.593s-24.918-3.837-36.6 20.682a29.9 29.9 0 0 0 2.205 30.138c3.887 5.469 9.593 9.544 17.53 6.229 17.638-7.263 16.865-57.049 16.865-57.049z" opacity=".1" transform="translate(91.424 168.274)"/><path d="m568.639 785.333s-24.918-3.837-36.6 20.682a29.9 29.9 0 0 0 2.205 30.138c3.887 5.469 9.594 9.544 17.53 6.229 17.638-7.263 16.865-57.049 16.865-57.049z" opacity=".1" transform="translate(91.269 167.965)"/><path d="m568.639 785.963s-24.918-3.837-36.6 20.682a29.9 29.9 0 0 0 2.205 30.138c3.887 5.469 9.594 9.544 17.53 6.229 17.638-7.263 16.865-57.049 16.865-57.049z" fill="#ff7d00" transform="translate(91.269 168.12)"/><path d="m568.639 785.963s-24.918-3.837-36.6 20.682a29.9 29.9 0 0 0 2.205 30.138c3.887 5.469 9.594 9.544 17.53 6.229 17.638-7.263 16.865-57.049 16.865-57.049z" fill="#fff" opacity=".5" transform="translate(91.269 168.12)"/><path d="m539.712 803.13s-3.4 3.14-2.093 3.925 2.093-3.925 2.093-3.925z" fill="#3f2b3b" transform="translate(93.323 172.394)"/><path d="m542.379 806.35s-1.856 4.1-.536 4.548 2.106-2.94 2.106-2.94z" fill="#3f2b3b" transform="translate(94.319 173.186)"/><path d="m535.75 811.32s-1.819 4.834 0 4.834 0-4.834 0-4.834z" fill="#3f2b3b" transform="translate(92.738 174.409)"/><path d="m533.78 821.71s3.638 9.294 13.107 8.634" fill="none" stroke="#3f2b3b" stroke-miterlimit="10" transform="translate(92.452 176.964)"/><path d="m540.61 823.91s3.738 3.663 7.837 1.047" fill="none" stroke="#3f2b3b" stroke-miterlimit="10" transform="translate(94.131 177.505)"/><path d="m564 786.593s24.918-3.837 36.6 20.682a29.9 29.9 0 0 1 -2.205 30.138c-3.875 5.469-9.594 9.544-17.53 6.229-17.686-7.263-16.865-57.049-16.865-57.049z" opacity=".1" transform="translate(99.882 168.274)"/><path d="m564.591 785.333s24.918-3.837 36.6 20.682a29.9 29.9 0 0 1 -2.205 30.138c-3.875 5.469-9.594 9.544-17.53 6.229-17.6-7.263-16.865-57.049-16.865-57.049z" opacity=".1" transform="translate(100.028 167.965)"/><path d="m564.591 785.963s24.918-3.837 36.6 20.682a29.9 29.9 0 0 1 -2.205 30.138c-3.875 5.469-9.594 9.544-17.53 6.229-17.6-7.263-16.865-57.049-16.865-57.049z" fill="#ff7d00" transform="translate(100.028 168.12)"/><path d="m564.591 785.963s24.918-3.837 36.6 20.682a29.9 29.9 0 0 1 -2.205 30.138c-3.875 5.469-9.594 9.544-17.53 6.229-17.6-7.263-16.865-57.049-16.865-57.049z" fill="#fff" opacity=".5" transform="translate(100.028 168.12)"/><path d="m586.16 803.13s3.4 3.14 2.093 3.925-2.093-3.925-2.093-3.925z" fill="#3f2b3b" transform="translate(105.332 172.394)"/><path d="m583.53 806.35s1.856 4.1.536 4.548-2.106-2.94-2.106-2.94z" fill="#3f2b3b" transform="translate(104.299 173.186)"/><path d="m589.978 811.32s1.807 4.834 0 4.834 0-4.834 0-4.834z" fill="#3f2b3b" transform="translate(106.074 174.409)"/><path d="m594.207 821.71s-3.638 9.29-13.107 8.634" fill="none" stroke="#3f2b3b" stroke-miterlimit="10" transform="translate(104.088 176.964)"/><path d="m586.349 823.91s-3.738 3.663-7.849 1.047" fill="none" stroke="#3f2b3b" stroke-miterlimit="10" transform="translate(103.449 177.505)"/><path d="m553.2 843.4c.66-.125 13.082-5.494 25.89 0z" fill="#3f2b3b" transform="translate(97.227 181.689)"/><path d="m539.286 866.99c-11.612-1.732-19.934-5.046-20.645-10.864a33.633 33.633 0 0 1 -.262-7.475 16.766 16.766 0 0 1 4.435-1.62c2.106-.585 4.71-.187 10.2 1.383s5.1 8.036 6.229 16.471a6.966 6.966 0 0 1 .037 2.105z" opacity=".1" transform="translate(88.641 183.127)"/><path d="m523.136 847.679s-15.1 2.766-6.927 15.8a5.568 5.568 0 0 0 2.791 2.3c.959.337 1.881.337 1.782-1.034l6.678 7.65s13.331 1.57 12.16-6.865-.785-14.951-6.229-16.471-8.125-1.966-10.255-1.38z" fill="#ff7d00" transform="translate(87.535 183.289)"/><path d="m524.18 854.67s3.2 7.313 7.65 1.171" fill="none" stroke="#3f2b3b" stroke-miterlimit="10" transform="translate(90.091 185.068)"/><path d="m518.28 857s1.657 6.927 7.936 1.769" fill="none" stroke="#3f2b3b" stroke-miterlimit="10" transform="translate(88.641 185.641)"/><path d="m608.575 846.925c-.5 6.9-1.831 17.978-1.831 17.978s-5.544.673-14.116 1.445a7.237 7.237 0 0 1 0-1.445c1.171-8.435.785-14.951 6.23-16.471 5.107-1.383 7.711-1.894 9.717-1.507z" opacity=".1" transform="translate(106.913 183.133)"/><path d="m609.786 847.679s15.113 2.766 6.94 15.8a5.619 5.619 0 0 1 -2.791 2.3c-.959.337-1.894.337-1.794-1.034l-6.666 7.65s-13.344 1.57-12.16-6.865.785-14.951 6.229-16.471 8.148-1.966 10.242-1.38z" fill="#ff7d00" transform="translate(107.074 183.289)"/><path d="m605.15 854.67s-3.214 7.313-7.65 1.171" fill="none" stroke="#3f2b3b" stroke-miterlimit="10" transform="translate(108.121 185.068)"/><path d="m611.109 857s-1.67 6.927-7.949 1.769" fill="none" stroke="#3f2b3b" stroke-miterlimit="10" transform="translate(109.513 185.641)"/><path d="m555.339 869.767c-5.058-.112-9.967-.374-14.515-.822l-4.524-15.226a9.881 9.881 0 0 1 -.411-2.778 9.693 9.693 0 0 1 19.374-.062c.051 5.93.1 13.443.076 18.888z" opacity=".1" transform="translate(92.971 181.845)"/><path d="m535.923 853.784 5.333 17.966s-9.07-.2-6.591 5.494c0 0 2.28 2.155 3.065 1.37 0 0-1.184 3.738 3.526 3.738 0 0 5.083 2.753 7.052.785s6.093-4.909 6.491-6.08c.249-.772.174-15.8.087-26.164a9.668 9.668 0 0 0 -9.681-9.594 9.681 9.681 0 0 0 -9.282 12.484z" fill="#ff7d00" transform="translate(92.564 181.781)"/><path d="m541.859 869.47s-3.962 3.738-1.869 5.943" fill="none" stroke="#3f2b3b" stroke-miterlimit="10" transform="translate(93.83 188.708)"/><path d="m540.723 867.56s-3.663 1.246-3.663 4.6" fill="none" stroke="#3f2b3b" stroke-miterlimit="10" transform="translate(93.258 188.238)"/><path d="m595.536 851.007a9.854 9.854 0 0 1 -.4 2.778l-4.222 14.415c-4.46.361-9.469.71-14.764 1.009 0-5.382 0-12.546.087-18.265a9.681 9.681 0 0 1 19.361.062z" opacity=".1" transform="translate(102.871 181.779)"/><path d="m595.756 853.784-5.333 17.966s9.083-.2 6.6 5.494c0 0-2.28 2.155-3.065 1.37 0 0 1.171 3.738-3.538 3.738 0 0-5.083 2.753-7.052.785s-6.08-4.909-6.479-6.08c-.249-.772-.174-15.8-.087-26.164a9.668 9.668 0 0 1 9.681-9.594 9.681 9.681 0 0 1 9.27 12.484z" fill="#ff7d00" transform="translate(103.012 181.781)"/><path d="m586.23 869.47s3.962 3.738 1.869 5.943" fill="none" stroke="#3f2b3b" stroke-miterlimit="10" transform="translate(105.35 188.708)"/><path d="m587.63 867.56s3.663 1.246 3.663 4.6" fill="none" stroke="#3f2b3b" stroke-miterlimit="10" transform="translate(105.694 188.238)"/><path d="m564.579 782.771s-18.452-.586-19.037 13.7 28.83 8.235 28.83 8.235 12.359-1.657 10.2-10.341-6.649-10.809-19.993-11.594z" opacity=".1" transform="translate(95.342 167.387)"/><path d="m564.579 781.511s-18.452-.586-19.037 13.7 28.83 8.235 28.83 8.235 12.359-1.657 10.2-10.341-6.649-10.805-19.993-11.594z" opacity=".1" transform="translate(95.342 167.078)"/><path d="m564.579 782.141s-18.452-.586-19.037 13.7 28.83 8.235 28.83 8.235 12.359-1.657 10.2-10.341-6.649-10.809-19.993-11.594z" fill="#3f2b3b" transform="translate(95.342 167.232)"/><path d="m527.78 839.92s6.229 2.218 7.475 6.466" opacity=".1" transform="translate(90.977 181.441)"/><path d="m599.095 837.4s-4.423 1.856-4.111 9.606" opacity=".1" transform="translate(107.498 180.822)"/><ellipse cx="2.888" cy="4.788" fill="#ff7d00" rx="2.888" ry="4.788" transform="matrix(.86700983 -.49829103 .49829103 .86700983 616.488137 1051.037813)"/><ellipse cx="4.772" cy="2.878" fill="#ff7d00" rx="4.772" ry="2.878" transform="matrix(.5 -.8660254 .8660254 .5 704.178458 1052.162866)"/><ellipse cx="2.888" cy="4.788" fill="#fff" opacity=".5" rx="2.888" ry="4.788" transform="matrix(.86700983 -.49829103 .49829103 .86700983 616.488137 1051.037813)"/><ellipse cx="4.772" cy="2.878" fill="#fff" opacity=".5" rx="4.772" ry="2.878" transform="matrix(.5 -.8660254 .8660254 .5 704.178458 1052.162866)"/><ellipse cx="239.977" cy="892.136" fill="#ff7d00" opacity=".1" rx="33.552" ry="5.669"/><ellipse cx="107.799" cy="972.534" fill="#ff7d00" opacity=".1" rx="33.552" ry="5.669"/><ellipse cx="72.864" cy="900.608" fill="#ff7d00" rx="50.098" ry="8.472"/><path d="m73.975 736.437a14.491 14.491 0 0 1 -4.784-7.2c-.61-2.865.61-6.292 3.339-7.338 3.065-1.171 6.342.947 8.821 3.09s5.332 4.6 8.584 4.149a13.069 13.069 0 0 1 -4.035-12.238 4.984 4.984 0 0 1 1.121-2.492c1.694-1.819 4.784-1.034 6.828.4 6.466 4.56 8.285 13.356 8.31 21.28.66-2.865.112-5.831.125-8.721s.822-6.229 3.289-7.749a9.968 9.968 0 0 1 4.984-1.246c2.915-.1 6.155.187 8.148 2.317 2.492 2.641 1.831 7.089-.324 9.967s-5.42 4.734-8.422 6.753a18.588 18.588 0 0 0 -6.03 5.744 5.878 5.878 0 0 0 -.449 1.022h-18.2a50.382 50.382 0 0 1 -11.3-7.737z" fill="#ff7d00" transform="translate(-21.83 150.317)"/><ellipse cx="1283.085" cy="939.555" fill="#ff7d00" opacity=".1" rx="33.552" ry="5.669"/><path d="m1042.91 755.151s19.137-.586 24.918-4.7 29.428-9.008 30.861-2.417 28.768 32.755 7.152 32.929-50.2-3.364-55.954-6.877-6.977-18.935-6.977-18.935z" fill="#a8a8a8" transform="translate(217.649 158.053)"/><path d="m1106.214 776.648c-21.6.174-50.2-3.364-55.953-6.877-4.386-2.666-6.13-12.247-6.715-16.67h-.635s1.246 15.437 6.964 18.938 34.349 7.052 55.954 6.877c6.229 0 8.4-2.268 8.273-5.557-.861 2.041-3.241 3.289-7.888 3.289z" opacity=".2" transform="translate(217.649 160.091)"/></svg>