<svg height="1310.248" viewBox="0 0 1935.832 1310.248" width="1935.832" xmlns="http://www.w3.org/2000/svg"><path d="m278.4 402.415c-18.559 18.763-19.691 47.53-19.691 47.53s28.748-1.633 47.233-20.415 19.711-47.53 19.711-47.53-28.767 1.689-47.253 20.415z" fill="#001f40" opacity=".1" transform="translate(99.21 356.029)"/><path d="m310.414 166.752c6.551 25.519 30.586 41.387 30.586 41.387s13.418-25.482 6.867-51-30.585-41.368-30.585-41.368-13.493 25.481-6.868 50.981z" fill="#001f40" opacity=".1" transform="translate(141.9 128.159)"/><path d="m903.5 190.484c-18.559 18.763-19.71 47.53-19.71 47.53s28.767-1.633 47.252-20.415 19.691-47.548 19.691-47.548-28.748 1.762-47.233 20.433z" fill="#001f40" opacity=".1" transform="translate(634.223 174.618)"/><path d="m589.7 343.915c-2.153 26.243 15.348 49.107 15.348 49.107s21.028-19.691 23.18-45.952-15.343-49.07-15.343-49.07-21.027 19.654-23.185 45.915z" fill="#001f40" opacity=".1" transform="translate(382.357 284.132)"/><path d="m917.765 542.234c-2.153 26.243 15.348 49.108 15.348 49.108s21.028-19.691 23.18-45.934-15.348-49.108-15.348-49.108-21.028 19.691-23.18 45.934z" fill="#001f40" opacity=".1" transform="translate(663.148 453.86)"/><path d="m1231.773 262.636c-124.1-4.314-242.3-44.372-355.165-88.207s-224.659-92.406-345.866-115.629c-77.833-14.936-166.942-17.045-229.721 24.7-60.4 40.268-79.923 109.587-90.412 173.959-7.9 48.456-12.541 99.424 9.089 144.774 15.033 31.486 41.687 57.948 60.134 88.207 64.18 104.928 18.811 234.323-50.719 336.777-32.6 48.054-70.469 93.959-95.647 145.081s-36.817 109.779-14.784 161.955c21.822 51.773 73.844 90.584 130.2 117.928 114.458 55.493 249.279 71.39 380.841 80.383 291.139 19.923 583.812 11.294 875.718 2.665 108.034-3.2 216.528-6.443 322.8-23.145 59.022-9.281 119.942-24.007 162.779-59.443 54.4-45.12 67.88-121.534 31.428-178.1-61.131-94.9-230.1-118.484-272.884-220.325-23.509-56.05.633-118.5 34.822-170.488 73.326-111.543 196.221-209.376 202.683-336.872 4.448-87.555-54.63-175.244-145.982-216.682-95.743-43.432-228.532-37.967-299.135 33.921-72.77 73.862-200.593 102.338-310.179 98.541z" fill="#001f40" opacity=".1" transform="translate(-107.036 -49.017)"/><path d="m836.555 436.467s-60.141-12.181-52.529 13.7 57.858 9.135 57.858 9.135z" fill="#ffb8b8" transform="translate(448.386 334.055)"/><path d="m954.948 332.248a5.642 5.642 0 0 1 9.358 3.224l2.056 11.939s9.293 47.755 1.336 78.09-13.6 70.293-35.106 74.55c-18.4 3.643-88.359-2.126-108.164-3.866a5.637 5.637 0 0 1 -5.142-5.743l.371-17.425a5.646 5.646 0 0 1 5.046-5.494l80.1-8.542a5.634 5.634 0 0 0 4.991-4.822c1.905-13.627 8.066-55.875 14.186-78.087 4.943-17.949 21.185-34.896 30.968-43.824z" fill="#575a89" transform="translate(459.741 301.556)"/><path d="m0 0h552.746v2.632h-552.746z" fill="#3f3d56" transform="translate(1185.21 1213.722)"/><path d="m850.822 614.608v36.542l20.554 4.566 13.7-6.851-1.523-28.928z" fill="#ffb8b8" transform="translate(511.823 528.514)"/><path d="m943.086 614.608v36.542l20.555 4.566 13.7-6.851-1.522-28.928z" fill="#ffb8b8" transform="translate(540.984 528.514)"/><path d="m924.663 493.3s-27.406 55.574-26.645 98.967a595.172 595.172 0 0 1 -3.806 78.413l-13.7 130.18 44.155 2.284 20.554-140.076 39.587-108.1 15.222 128.652 3.807 129.419h38.063s17.51-122.567 7.613-149.973c0 0 22.839-153.781 4.568-161.393s-129.418-8.373-129.418-8.373z" fill="#2f2e41" transform="translate(479.091 352.922)"/><path d="m912.652 743.425s-7.613-28.168-18.271-13.7-41.11 38.825-41.11 38.825-45.676 24.359-3.805 30.45 46.438-7.613 46.438-7.613 6.851-3.807 12.942-1.523 32.735 1.523 34.258-7.613-8.374-59.381-11.419-50.245-19.033 11.419-19.033 11.419z" fill="#2f2e41" transform="translate(463.695 426.341)"/><path d="m1008.417 740.768s0-8.374-14.464-9.135-16.749 9.135-16.749 9.135-3.806 3.806-4.568 15.226 0 41.11 0 41.11-6.851 22.838 24.364 18.27 19.793-28.168 19.793-28.168z" fill="#2f2e41" transform="translate(508.007 428.238)"/><path d="m960 277.532-3.8 42.632-6.851 15.987 18.271 25.884 44.916-41.871s-8.374-22.839-3.045-35.781z" fill="#ffb8b8" transform="translate(500.848 284.726)"/><path d="m1074.27 342.388-.35 3.753-13.363 142.414s-.525 6.623-1.5 15.454c-1.644 14.936-4.568 36.184-8.4 42.4-6.09 9.9-1.522 18.271-1.522 18.271-35.019 20.555-138.554-9.135-138.554-9.135l23.6-94.4s-21.312-98.206-19.027-107.341 50.246-41.867 50.246-41.867l1.416 3.807c20.44 27.406 41.216 3.806 47.306-1.523l12.18-10.658z" fill="#575a89" transform="translate(488.597 292.954)"/><path d="m1117.647 577.186c-72.58 9.846-141.821 13.451-205.891 7.388a496.748 496.748 0 0 1 -67.536-11.6c-40.739-9.643-90.746-9.643-145.687-4.509a418.156 418.156 0 0 0 -98.066 20.8c-42.577 14.738-89.22 13.462-138.671 1.124a252.919 252.919 0 0 1 -58.225-23.184c-36.153-19.428-78.94-12.394-125.572 9.979v-173.718c43.536-18.96 85.948-22.021 127.013-6.038a268.315 268.315 0 0 0 46.248 13.8 364.537 364.537 0 0 0 171.814-7.759c75.5-25.582 154.478-17.63 234.458 0 89.106 18.821 175.953 19.931 260.114 0z" fill="#001f40" transform="translate(288.661 319.364)"/><path d="m0 0h552.746v2.632h-552.746z" fill="#3f3d56" transform="translate(242.91 1213.722)"/><path d="m0 0h47.995v47.995h-47.995z" fill="#ff6584" transform="matrix(-.8660254 .5 -.5 -.8660254 968.576832 375.82062)"/><path d="m0 0h47.995v47.995h-47.995z" fill="#3f3d56" transform="matrix(-.8660254 .5 -.5 -.8660254 814.59788 585.073156)"/><path d="m0 0h47.995v47.995h-47.995z" fill="#b9b5cc" transform="matrix(-.8660254 .5 -.5 -.8660254 1237.051746 529.800984)"/><path d="m191.145 438.421 25.133 116.354-76.329 171.273 44.68 19.549 85.636-196.407-54.744-172.49-32.579 8.378z" fill="#2f2e41" transform="translate(287.143 453.321)"/><path d="m193.875 513.638s9.308 16.755 29.787 30.718 63.3 106.115 63.3 106.115l-46.544 186.167 64.227 17.686 35.372-218.747-72.606-163.827z" fill="#2f2e41" transform="translate(262.073 346.112)"/><path d="m177.745 741.488s-9.308 10.239-5.585 17.686 5.585 26.994 5.585 26.994h8.378v-22.34l26.994 25.132s62.366 5.585 61.435 0-37.233-18.617-37.233-18.617l-17.686-26.994z" fill="#2f2e41" transform="translate(254.932 431.366)"/><path d="m239.986 743.349s-9.308 10.239-5.585 17.686 5.585 26.994 5.585 26.994h8.378v-22.34l26.994 25.133s62.366 5.585 61.435 0-37.233-18.622-37.233-18.622l-17.686-26.994z" fill="#2f2e41" transform="translate(274.604 431.954)"/><circle cx="492.25" cy="569.329" fill="#a0616a" r="35.372"/><path d="m208.7 284.319s-2.792 35.372-20.478 48.4-17.686 24.2-17.686 24.2l71.672 32.581-16.754-35.371s-4.654-1.862 2.792-11.17 13.963-31.649 13.963-31.649z" fill="#a0616a" transform="translate(254.696 286.871)"/><path d="m286.716 521.97a200.484 200.484 0 0 1 -66.091 38.365l-16.895 5.865s-35.724-43.355-17.685-77.517a53.517 53.517 0 0 1 15.5-18.375l-.372-1.629-9.057-39.514-.81-3.537-26.994-6.516s-.084.028-.242.065c-2.02.531-15.712 3.044-5.343-28.921 6.9-21.27 11.9-41.521 14.717-53.9a13.138 13.138 0 0 1 16.247-9.791c8.644 2.37 19.382 6.871 25.817 15.287 12.1 15.824 14.545-.7 14.545-.7s33.858 37.933 32 54.688a66.589 66.589 0 0 0 .41 13.478v.019c.223 1.992.493 4.068.8 6.19 2.308 15.675 6.776 33.892 8.415 40.3.121.456.223.856.307 1.191l.307 1.192z" fill="#575a89" transform="translate(249.749 300.08)"/><path d="m236.961 455.534-7.447 25.133s-28.558-7.279-45.285-11.412a53.516 53.516 0 0 1 15.5-18.375l-.372-1.629-9.057-39.514-.81-3.537-26.994-6.516s-.084.028-.242.065l-1.62-12.166s46.542 2.793 49.334 13.963-2.792 22.34-5.585 24.2 0 0 5.585 2.792-1.862 0-5.585 5.585.931.931 1.862 3.723 0-.931-.931 3.723 3.723.931 4.654.931 26.993 13.034 26.993 13.034z" opacity=".2" transform="translate(251.566 319.51)"/><path d="m212.936 437.935 60.5 15.824s32.579-33.51 50.265-23.271-31.645 33.512-31.645 33.512l-17.686 3.724-64.227-7.447z" fill="#a0616a" transform="translate(267.214 332.455)"/><path d="m160.633 384.754 3.723 27.925s-2.793 0 0 6.516 0 19.548 0 19.548-5.585.931-.931 3.723 9.308 10.239 7.447 13.032-5.585 6.516 2.793 8.377 55.85 13.963 55.85 13.963l7.447-25.133s-26.063-13.032-26.994-13.032-5.585 3.723-4.654-.931 1.862-.931.931-3.724-5.585 1.862-1.862-3.723 11.17-2.793 5.585-5.585-8.378-.931-5.585-2.793 8.377-13.031 5.585-24.2-49.335-13.963-49.335-13.963z" fill="#575a89" transform="translate(251.567 318.615)"/><path d="m228.081 338.128 2.8-4.46a9.311 9.311 0 0 0 -2.925-12.839l-21.366-13.441a9.311 9.311 0 0 0 -12.839 2.925l-2.805 4.46a9.3 9.3 0 0 0 -7.915 4.345l-6.9 10.974a9.311 9.311 0 0 0 2.925 12.839l28.8 18.112a9.311 9.311 0 0 0 12.839-2.925l6.9-10.974a9.3 9.3 0 0 0 .488-9.016z" fill="#575a89" transform="translate(256.012 293.711)"/><path d="m237.693 294.926c1.979-2.89 1.111-6.906 2.528-10.109 2.224-5.03 8.782-6.063 14.272-6.394a42.067 42.067 0 0 1 10.931.294 10.5 10.5 0 0 1 7.448 5.68c.771 1.645.69-3.453.329-10a31.616 31.616 0 0 0 -23.554-28.863l-.229-.059c-6.633-1.7-13.484-3-20.3-2.365s-13.667 3.405-18.04 8.674c-2 2.409-3.44 5.271-5.66 7.477-3.9 3.877-9.574 5.185-14.8 6.9a44.131 44.131 0 0 0 -16.258 8.862 23.921 23.921 0 0 0 -8.148 16.246c-.285 7.249 4.147 14.844 11.545 16.454a8.348 8.348 0 0 1 3.527 1.625c6.964 5.675-1.272 11.24-1.366 17.436-.078 5.171 5.595 8.679 10.753 9.045a20.813 20.813 0 0 0 21.122-15.961c.881-4.224.385-8.6-.017-12.891-.461-4.917 10.378-16.207 3.2-7.913a12.141 12.141 0 0 0 -2.8 5.55c-1.325 6.732 4.772 9.155 8.561 13a16.08 16.08 0 0 1 3.49 16.641 18.538 18.538 0 0 0 3.935-23.322c-1.2-1.947-2.773-3.653-3.911-5.639-1.775-3.1-2.124-9.754 3.047-9.446 3.686.213 7.45 3.381 10.395-.922z" fill="#2f2e41" transform="translate(253.325 273.794)"/><circle cx="1486.734" cy="543.988" fill="#ffb8b8" r="38.826"/><path d="m1063.612 337.154-13.352 142.414s-.525 6.623-1.5 15.454c-28.342 6.775-106.6 11.952-106.6 11.952l-3.807-27.406 86.787-23.6s-10.658-59.38 1.523-83.742a188.3 188.3 0 0 0 7.992-18.214 26.425 26.425 0 0 1 28.96-16.858z" opacity=".2" transform="translate(497.372 303.464)"/><path d="m957.492 443.081s-60.141-12.181-52.529 13.7 57.858 9.135 57.858 9.135z" fill="#ffb8b8" transform="translate(486.61 336.145)"/><path d="m1041.519 330.172 23.6 3.806s16.748 45.677 13.7 76.89-2.284 71.561-22.839 79.174-112.671 13.7-112.671 13.7l-3.806-27.406 86.787-23.6s-10.658-59.38 1.522-83.742 13.707-38.822 13.707-38.822z" fill="#575a89" transform="translate(497.739 301.364)"/><path d="m954.5 240.053-7.462-2.988s15.6-17.178 37.312-15.684l-6.106-6.722s14.925-5.975 28.493 9.709c7.132 8.245 15.385 17.937 20.529 28.854h7.992l-3.335 7.344 11.674 7.344-11.982-1.319a41.034 41.034 0 0 1 .325 12.182 15.762 15.762 0 0 1 -5.772 10.311s-9.255-19.156-9.255-22.144v7.469s-7.463-6.722-7.463-11.2l-4.07 5.228h-27.141l4.07-6.722-15.6 2.241 6.106-8.216-24.158 33.926s-13.835-38.411 5.843-49.613z" fill="#2f2e41" transform="translate(499.136 264.501)"/><circle cx="986.485" cy="812.323" fill="#ff7d00" r="142.135"/><path d="m682.238 489.784c0 8.722-32.024 30.6-69.093 30.6s-65.145-21.878-65.145-30.6 28.076 2.961 65.145 2.961 69.093-11.684 69.093-2.961z" fill="#fff" transform="translate(373.998 350.789)"/><circle cx="1037.812" cy="771.525" fill="#a25103" r="15.793"/><circle cx="935.158" cy="771.525" fill="#a25103" r="15.793"/><circle cx="944.371" cy="763.628" fill="#fff" r="7.896"/><circle cx="1024.65" cy="763.628" fill="#fff" r="7.896"/><circle cx="989.118" cy="622.81" fill="#ff7d00" r="56.591"/><path d="m597.6 329.033c19.985 11.9 20.7 47.552 20.7 47.552s-31.686 16.364-51.671 4.466-20.7-47.552-20.7-47.552 31.686-16.363 51.671-4.466z" fill="#001f40" transform="translate(373.344 299.634)"/><path d="m651.465 375.684c-18.061 14.654-51.775 3.028-51.775 3.028s-4.43-35.385 13.632-50.04 51.775-3.028 51.775-3.028 4.431 35.386-13.632 50.04z" fill="#001f40" transform="translate(390.184 298.55)"/><path d="m307.793 727.232s-15.455-52.481 2.9-91.1a82.9 82.9 0 0 0 6.732-52.03 139.206 139.206 0 0 0 -7.359-24.409" fill="none" stroke="#535461" stroke-miterlimit="10" stroke-width="2" transform="translate(83.669 490.818)"/><path d="m307.793 727.232s-15.455-52.481 2.9-91.1a82.9 82.9 0 0 0 6.732-52.03 139.206 139.206 0 0 0 -7.359-24.409" fill="none" stroke="#535461" stroke-miterlimit="10" stroke-width="2" transform="translate(1269.885 567.573)"/><g fill="#001f40"><path d="m321.777 538.592c0 6.435-11.649 25.08-11.649 25.08s-11.638-18.645-11.638-25.08a11.649 11.649 0 1 1 23.287 0z" transform="translate(83.347 487.507)"/><path d="m321.777 538.592c0 6.435-11.649 25.08-11.649 25.08s-11.638-18.645-11.638-25.08a11.649 11.649 0 1 1 23.287 0z" transform="translate(1269.563 564.262)"/><path d="m339.288 571.5c-3.5 5.39-23.408 14.718-23.408 14.718s.363-22 3.861-27.379a11.649 11.649 0 0 1 19.547 12.661z" transform="translate(85.087 490.227)"/><path d="m339.288 571.5c-3.5 5.39-23.408 14.718-23.408 14.718s.363-22 3.861-27.379a11.649 11.649 0 0 1 19.547 12.661z" transform="translate(1271.303 566.983)"/><path d="m338.913 627.221c-5.742 2.9-27.643.9-27.643.9s11.407-18.8 17.149-21.692a11.649 11.649 0 0 1 10.494 20.79z" transform="translate(84.625 495.381)"/><path d="m338.913 627.221c-5.742 2.9-27.643.9-27.643.9s11.407-18.8 17.149-21.692a11.649 11.649 0 0 1 10.494 20.79z" transform="translate(1270.84 572.136)"/><path d="m328.853 668.886c-5.17 3.817-27.093 5.5-27.093 5.5s8.074-20.46 13.2-24.288a11.649 11.649 0 0 1 13.849 18.7z" transform="translate(83.674 499.663)"/><path d="m328.853 668.886c-5.17 3.817-27.093 5.5-27.093 5.5s8.074-20.46 13.2-24.288a11.649 11.649 0 0 1 13.849 18.7z" transform="translate(1269.89 576.418)"/><path d="m293.954 586.21c4.62 4.477 26.1 9.119 26.1 9.119s-5.258-21.351-9.9-25.828a11.649 11.649 0 0 0 -16.225 16.709z" transform="translate(82.56 491.49)"/><path d="m293.954 586.21c4.62 4.477 26.1 9.119 26.1 9.119s-5.258-21.351-9.9-25.828a11.649 11.649 0 0 0 -16.225 16.709z" transform="translate(1268.776 568.245)"/><path d="m283.153 635.385c5.742 2.893 27.632.891 27.632.891s-11.407-18.8-17.149-21.692a11.648 11.648 0 1 0 -10.484 20.8z" transform="translate(81.173 496.182)"/><path d="m283.153 635.385c5.742 2.893 27.632.891 27.632.891s-11.407-18.8-17.149-21.692a11.648 11.648 0 1 0 -10.484 20.8z" transform="translate(1267.389 572.937)"/><path d="m278.7 684.335c5.17 3.828 27.093 5.5 27.093 5.5s-8.074-20.46-13.2-24.277a11.649 11.649 0 0 0 -13.849 18.7z" transform="translate(80.946 501.209)"/><path d="m278.7 684.335c5.17 3.828 27.093 5.5 27.093 5.5s-8.074-20.46-13.2-24.277a11.649 11.649 0 0 0 -13.849 18.7z" transform="translate(1267.161 577.964)"/></g><path d="m274 710.668s18.821-3.74 23.848-8.723 27.6-13.7 30.107-7.469 33.88 27.4 12.551 31.141-50.193 4.983-56.463 2.5-10.043-17.449-10.043-17.449z" fill="#a8a8a8" transform="translate(80.899 504.081)"/><path d="m274 710.668s18.821-3.74 23.848-8.723 27.6-13.7 30.107-7.469 33.88 27.4 12.551 31.141-50.193 4.983-56.463 2.5-10.043-17.449-10.043-17.449z" fill="#a8a8a8" transform="translate(1267.114 580.836)"/><path d="m340.539 721.621c-21.329 3.74-50.193 4.983-56.463 2.486-4.785-1.892-8.107-11-9.416-15.257l-.66.165s3.762 14.949 10.043 17.446 35.134 1.243 56.463-2.5c6.16-1.1 7.92-3.608 7.26-6.82-.495 2.059-2.64 3.677-7.227 4.48z" opacity=".2" transform="translate(80.899 505.734)"/><path d="m340.539 721.621c-21.329 3.74-50.193 4.983-56.463 2.486-4.785-1.892-8.107-11-9.416-15.257l-.66.165s3.762 14.949 10.043 17.446 35.134 1.243 56.463-2.5c6.16-1.1 7.92-3.608 7.26-6.82-.495 2.059-2.64 3.677-7.227 4.48z" opacity=".2" transform="translate(1267.114 582.49)"/></svg>