<svg id="Componente_33_1" data-name="Componente 33 – 1" xmlns="http://www.w3.org/2000/svg" xmlns:xlink="http://www.w3.org/1999/xlink" width="247.875" height="331.194" viewBox="0 0 247.875 331.194">
  <defs>
    <linearGradient id="linear-gradient" x1="-39.433" y1="23.987" x2="-39.419" y2="23.943" gradientUnits="objectBoundingBox">
      <stop offset="0" stop-color="#fff"/>
      <stop offset="1" stop-color="#fff" stop-opacity="0"/>
    </linearGradient>
  </defs>
  <path id="Caminho_8991" data-name="Caminho 8991" d="M289.154,133.671l-45.666-23.746s-15.336-16.889-24.966-24.517-12.6-2.024-12.6-2.024l-4.049,6.747,9.785,13.608,26.428,22.38,47.222,18.5a7.488,7.488,0,1,0,3.842-10.944Z" transform="translate(-113.09 -23.744)" fill="#9f616a"/>
  <path id="Caminho_8992" data-name="Caminho 8992" d="M141.759,118.562l-2.7-16.54-7.634-1.909s-6.059-1.866-7.475,10.338-.318,34.99-.318,34.99l-15.5,49.083a7.5,7.5,0,1,0,10.455,5.022L138.9,153.074Z" transform="translate(-84.478 -29.172)" fill="#9f616a"/>
  <path id="Caminho_8993" data-name="Caminho 8993" d="M246.544,438.047h9.989l4.753-38.531H246.542Z" transform="translate(-126.119 -116.536)" fill="#9f616a"/>
  <path id="Caminho_8994" data-name="Caminho 8994" d="M242.947,449.31h19.674a12.539,12.539,0,0,1,12.538,12.537v.408H242.948Z" transform="translate(-125.07 -131.061)" fill="#2f2e41"/>
  <path id="Caminho_8995" data-name="Caminho 8995" d="M92.715,438.047h9.99l4.752-38.531H92.714Z" transform="translate(-81.248 -116.536)" fill="#9f616a"/>
  <path id="Caminho_8996" data-name="Caminho 8996" d="M89.119,449.31h19.674a12.539,12.539,0,0,1,12.538,12.537v.408H89.12Z" transform="translate(-80.199 -131.061)" fill="#2f2e41"/>
  <path id="Caminho_8997" data-name="Caminho 8997" d="M137.311,78.66,120.741,92.8l13.6,43.032,3.068,9.609s-18.735,17.273-30.327,65.527S76.526,323.342,76.526,323.342L116.554,334.8l32.565-109.154,38.3,85.634,4.423,25.329,34.088-10.052-8.041-63.522-40.2-109.958,4.176-29.148s6.271-14.549-4.624-29.952L173.824,79.5l-12.242-3.015Z" transform="translate(-76.526 -22.311)" fill="#2f2e41"/>
  <path id="Caminho_8998" data-name="Caminho 8998" d="M181.326,48.659h-44.8a3.48,3.48,0,0,1-3.476-3.476V25.874a25.874,25.874,0,1,1,51.748,0V45.184A3.48,3.48,0,0,1,181.326,48.659Z" transform="translate(-93.015)" fill="#2f2e41"/>
  <circle id="Elipse_1172" data-name="Elipse 1172" cx="18.97" cy="18.97" r="18.97" transform="translate(52.259 10.269)" fill="#9f616a"/>
  <path id="Caminho_8999" data-name="Caminho 8999" d="M196.306,30.668H168.913l-.28-3.933-1.4,3.933H163.01l-.557-7.795-2.784,7.795h-8.161v-.386A20.491,20.491,0,0,1,171.976,9.814h3.862a20.49,20.49,0,0,1,20.467,20.468Z" transform="translate(-98.398 -2.863)" fill="#2f2e41"/>
  <path id="Caminho_9000" data-name="Caminho 9000" d="M167.251,58.655a3.519,3.519,0,0,1-.616-.054l-20.058-3.539V21.912h22.08l-.547.637c-7.605,8.87-1.876,23.253,2.217,31.037a3.425,3.425,0,0,1-.272,3.636A3.461,3.461,0,0,1,167.251,58.655Z" transform="translate(-96.96 -6.392)" fill="#2f2e41"/>
  <path id="Caminho_9001" data-name="Caminho 9001" d="M315.581,270.066,139.793,332.217a17.4,17.4,0,0,1-22.181-10.593l-30.2-85.411a17.4,17.4,0,0,1,10.593-22.181L273.8,151.881a17.4,17.4,0,0,1,22.181,10.593l30.2,85.411A17.4,17.4,0,0,1,315.581,270.066Z" transform="translate(-79.412 -44.013)" fill="#fff"/>
  <path id="Caminho_9002" data-name="Caminho 9002" d="M339.266,287.83l.159.452a16.6,16.6,0,0,1-10.12,21.181L152.638,371.926a16.6,16.6,0,0,1-21.18-10.115l-.159-.452Z" transform="translate(-92.503 -83.958)" fill="#f2f2f2"/>
  <path id="Caminho_9003" data-name="Caminho 9003" d="M133.186,263.883c-11.652,7.667-26.586,1.9-31.809-6.508l.832-.473C112.129,250.718,126.861,254.163,133.186,263.883Z" transform="translate(-83.775 -74.032)" fill="#f17b00"/>
  <path id="Caminho_9004" data-name="Caminho 9004" d="M344.585,280.969a9.54,9.54,0,0,1-7.633-.137c-5-2.486-7.35-9.856-9.236-15.778-.549-1.723-1.067-3.35-1.6-4.68l-.008-.021a10.605,10.605,0,0,1,6.427-13.466l23.645-8.36a9.53,9.53,0,0,1,7.626.137c5,2.483,7.35,9.85,9.238,15.77.55,1.726,1.07,3.357,1.6,4.689a10.612,10.612,0,0,1-6.424,13.488ZM327.1,260c.54,1.361,1.062,3,1.616,4.739,1.826,5.732,4.1,12.867,8.7,15.154a8.424,8.424,0,0,0,6.814.088l23.638-8.357a9.553,9.553,0,0,0,5.79-12.127c-.535-1.346-1.061-2.994-1.617-4.738-1.827-5.731-4.1-12.863-8.7-15.146a8.416,8.416,0,0,0-6.805-.087l-23.643,8.359A9.55,9.55,0,0,0,327.1,260Z" transform="translate(-149.156 -69.366)" fill="#3f3d56"/>
  <path id="Caminho_9005" data-name="Caminho 9005" d="M127.819,266.407a23.5,23.5,0,0,1-12.919.71c-6.261-1.375-11.945-5.114-14.831-9.757l-.289-.465,1.3-.739c10.069-6.271,25.168-2.871,31.685,7.142l.286.439-.438.288A22.1,22.1,0,0,1,127.819,266.407Zm-26.557-9.142c2.824,4.2,8.08,7.553,13.864,8.823a21.959,21.959,0,0,0,16.461-2.656c-6.375-9.221-20.5-12.281-29.959-6.376Z" transform="translate(-83.309 -73.796)" fill="#3f3d56"/>
  <path id="Caminho_9006" data-name="Caminho 9006" d="M142.884,346.045a8.744,8.744,0,0,1-8.89-1.476,10.937,10.937,0,0,1-3.577-10.108,8.772,8.772,0,0,1,6.162-6.8l31.5-11.139a8.79,8.79,0,0,1,9.061,1.426,10.935,10.935,0,0,1,3.573,10.108,8.81,8.81,0,0,1-6.163,6.792l-31.5,11.14Zm-6.11-17.339a7.742,7.742,0,0,0-5.322,5.953,9.85,9.85,0,0,0,3.223,9.106,7.749,7.749,0,0,0,8.015,1.23l31.52-11.144a7.763,7.763,0,0,0,5.472-6,9.85,9.85,0,0,0-3.219-9.106,7.782,7.782,0,0,0-8.022-1.239L136.92,328.656l-.145.05Z" transform="translate(-92.198 -92.131)" fill="#3f3d56"/>
  <path id="Caminho_9007" data-name="Caminho 9007" d="M347.2,261.159l-9.931,3.511a2.634,2.634,0,0,1-1.756-4.966l9.931-3.511a2.634,2.634,0,0,1,1.756,4.966Z" transform="translate(-151.557 -74.686)" fill="#f17b00"/>
  <path id="Caminho_9008" data-name="Caminho 9008" d="M351.163,272.376l-9.932,3.511a2.633,2.633,0,1,1-1.755-4.965l9.931-3.512a2.634,2.634,0,0,1,1.756,4.966Z" transform="translate(-152.714 -77.958)" fill="#f17b00"/>
  <path id="Caminho_9009" data-name="Caminho 9009" d="M355.129,283.593,345.2,287.1a2.633,2.633,0,0,1-1.755-4.966l9.931-3.512a2.634,2.634,0,0,1,1.756,4.966Z" transform="translate(-153.871 -81.229)" fill="#f17b00"/>
  <path id="Caminho_9010" data-name="Caminho 9010" d="M371.734,252.483l-9.932,3.512a2.634,2.634,0,0,1-1.756-4.966h0l9.932-3.512a2.634,2.634,0,0,1,1.756,4.966Z" transform="translate(-158.715 -72.155)" fill="#f17b00"/>
  <path id="Caminho_9011" data-name="Caminho 9011" d="M375.7,263.7l-9.932,3.512a2.634,2.634,0,0,1-1.756-4.966h0l9.932-3.511A2.633,2.633,0,1,1,375.7,263.7Z" transform="translate(-159.872 -75.427)" fill="#f17b00"/>
  <path id="Caminho_9012" data-name="Caminho 9012" d="M379.667,274.918l-9.932,3.511a2.634,2.634,0,1,1-1.756-4.966l9.932-3.511a2.634,2.634,0,0,1,1.756,4.966Z" transform="translate(-161.029 -78.699)" fill="#f17b00"/>
  <rect id="Retângulo_3072" data-name="Retângulo 3072" width="220.583" height="1.053" transform="matrix(0.943, -0.333, 0.333, 0.943, 15.173, 210.582)" fill="#3f3d56"/>
  <path id="Caminho_9013" data-name="Caminho 9013" d="M315.581,270.066,139.793,332.217a17.4,17.4,0,0,1-22.181-10.593l-30.2-85.411a17.4,17.4,0,0,1,10.593-22.181L273.8,151.881a17.4,17.4,0,0,1,22.181,10.593l30.2,85.411A17.4,17.4,0,0,1,315.581,270.066ZM98.359,215.025a16.346,16.346,0,0,0-9.951,20.837l30.2,85.411a16.346,16.346,0,0,0,20.836,9.951L315.23,269.073a16.346,16.346,0,0,0,9.951-20.837l-30.2-85.411a16.345,16.345,0,0,0-20.836-9.951Z" transform="translate(-79.412 -44.013)" fill="#3f3d56"/>
  <g id="Grupo_2" data-name="Grupo 2" transform="translate(105.918 120.724)">
    <g id="Grupo_6106" data-name="Grupo 6106">
      <path id="Caminho_7283" data-name="Caminho 7283" d="M234.873,216.616a11.3,11.3,0,0,1,2.683-7.04c2.771-3.357,6.826-4.723,9.995-3.663a11.321,11.321,0,0,0-.883-.866c-4.161-3.651-10.081-3.579-13.223.16-2.61,3.1-2.483,7.762.017,11.344a.86.86,0,0,0,1.411.066Z" transform="translate(-227.66 -179.75)" fill="#100d0c"/>
      <path id="Caminho_7284" data-name="Caminho 7284" d="M243.217,210.676a11.188,11.188,0,0,1,6.949,2.846c3.337,2.879,4.741,7.034,3.752,10.248a10.9,10.9,0,0,0,.839-.887c3.517-4.184,3.352-10.222-.366-13.484a8.9,8.9,0,0,0-11.128-.161.894.894,0,0,0-.229,1.244A.876.876,0,0,0,243.217,210.676Z" transform="translate(-230.967 -181.212)" fill="#ff7d00"/>
      <path id="Caminho_7285" data-name="Caminho 7285" d="M247.825,219.688a11.305,11.305,0,0,1-2.682,7.04c-2.772,3.357-6.827,4.723-9.995,3.663a11.445,11.445,0,0,0,.883.866c4.161,3.651,10.081,3.579,13.223-.16,2.61-3.1,2.483-7.762-.017-11.344a.86.86,0,0,0-1.185-.272A.85.85,0,0,0,247.825,219.688Z" transform="translate(-228.713 -184.708)" fill="#100d0c"/>
      <path id="Caminho_7286" data-name="Caminho 7286" d="M240.136,224.884a11.192,11.192,0,0,1-6.949-2.846c-3.337-2.879-4.742-7.035-3.752-10.248a11.153,11.153,0,0,0-.839.888c-3.516,4.184-3.352,10.222.366,13.484a8.9,8.9,0,0,0,11.129.161.9.9,0,0,0,.227-1.245A.914.914,0,0,0,240.136,224.884Z" transform="translate(-226.063 -182.502)" fill="#ff7d00"/>
      <path id="Caminho_7287" data-name="Caminho 7287" d="M243.217,210.676a11.188,11.188,0,0,1,6.949,2.846c3.337,2.879,4.741,7.034,3.752,10.248a10.9,10.9,0,0,0,.839-.887c3.517-4.184,3.352-10.222-.366-13.484a8.9,8.9,0,0,0-11.128-.161.894.894,0,0,0-.229,1.244A.876.876,0,0,0,243.217,210.676Z" transform="translate(-230.967 -181.212)" fill="#ff7d00"/>
      <g id="Grupo_6106-2" data-name="Grupo 6106-2" transform="translate(27.548)">
        <rect id="Retângulo_2405" data-name="Retângulo 2405" width="4.378" height="20.209" transform="translate(37.045 6.964) rotate(-19.695)" fill="#100d0c"/>
        <path id="Caminho_7289" data-name="Caminho 7289" d="M362.722,177.89a14.141,14.141,0,0,0-1.334-2.808,6.247,6.247,0,0,0-1.737-1.853,4.485,4.485,0,0,0-2.212-.767,6.72,6.72,0,0,0-2.758.453,5.755,5.755,0,0,0-3.764,3.562,9.248,9.248,0,0,0,.417,6.162,9.133,9.133,0,0,0,3.614,5.017,6.364,6.364,0,0,0,5.618.2,9.773,9.773,0,0,0,2.626-1.368,10.06,10.06,0,0,0,1.549-1.38l-1.571-2.891q-.708.527-1.568,1.157a7.788,7.788,0,0,1-1.973,1.026,4.621,4.621,0,0,1-1.238.29,1.592,1.592,0,0,1-.918-.189,2.189,2.189,0,0,1-.718-.721,7.343,7.343,0,0,1-.654-1.325l7.32-2.62Zm-4.1.614-3.488,1.249a6.917,6.917,0,0,1-.479-2.671,1.825,1.825,0,0,1,2.643-1.114,4.407,4.407,0,0,1,1.111,1.939Z" transform="translate(-289.926 -171.028)" fill="#100d0c"/>
        <rect id="Retângulo_2406" data-name="Retângulo 2406" width="4.378" height="15.308" transform="translate(44.206 9.607) rotate(-19.695)" fill="#100d0c"/>
        <path id="Caminho_7290" data-name="Caminho 7290" d="M328.694,175.41a2.617,2.617,0,0,0-3.179,1.138,2.191,2.191,0,0,0-.082,1.879,2.141,2.141,0,0,0,1.251,1.385,2.658,2.658,0,0,0,3.178-1.138,2.14,2.14,0,0,0,.089-1.865A2.187,2.187,0,0,0,328.694,175.41Z" transform="translate(-282.546 -171.842)" fill="#100d0c"/>
        <path id="Caminho_7291" data-name="Caminho 7291" d="M340.584,175.222a1.031,1.031,0,0,1,.031-1,2.188,2.188,0,0,1,1.028-.627l1.744-.624-.654-2.493a5.87,5.87,0,0,0-1.356,0,8.007,8.007,0,0,0-2.023.472,4.278,4.278,0,0,0-2.861,2.5,6.223,6.223,0,0,0,.287,4.13l.086.239-1.559.558.987,2.757,1.559-.558,4.061,11.346,4.123-1.475-4.061-11.345,2.933-1.05-.987-2.757-2.932,1.05Z" transform="translate(-285.477 -170.441)" fill="#100d0c"/>
        <path id="Caminho_7292" data-name="Caminho 7292" d="M277.564,211.607a6.033,6.033,0,0,1-1.9,1.068,3.94,3.94,0,0,1-1.3.241,2.129,2.129,0,0,1-1.229-.4,4.436,4.436,0,0,1-1.157-1.274,11.643,11.643,0,0,1-1.1-2.354l-.54-1.509a11.467,11.467,0,0,1-.611-2.289,3.251,3.251,0,0,1,.09-1.5,1.938,1.938,0,0,1,.708-.939,4.915,4.915,0,0,1,1.21-.613,9.515,9.515,0,0,1,2.141-.514q1.034-.115,2.337-.135l-.866-3.75a10.208,10.208,0,0,0-2.216.016,11.514,11.514,0,0,0-2.706.64,9.3,9.3,0,0,0-3.406,1.98,6.555,6.555,0,0,0-1.725,2.72,7.808,7.808,0,0,0-.285,3.282,17.438,17.438,0,0,0,2.524,7.053,8.318,8.318,0,0,0,2.309,2.412,6.59,6.59,0,0,0,3.031,1.1,8.667,8.667,0,0,0,3.83-.583,10.128,10.128,0,0,0,2.722-1.434,13.653,13.653,0,0,0,1.847-1.631l-2.068-3.112Q278.353,210.937,277.564,211.607Z" transform="translate(-264.956 -178.362)" fill="#100d0c"/>
        <path id="Caminho_7293" data-name="Caminho 7293" d="M308.914,188.837a5.18,5.18,0,0,0-1.983,1.23l-.9,2.339-1.868-1.5-2.888,1.034,5.159,14.413,4.122-1.475L306.629,193.9a11.175,11.175,0,0,1,.946-.659,4.707,4.707,0,0,1,.879-.421q1.368-.49,1.747.566l3.685,10.294,4.122-1.475-3.568-9.969a6.172,6.172,0,0,0-2.184-3.175A3.56,3.56,0,0,0,308.914,188.837Z" transform="translate(-275.55 -175.716)" fill="#100d0c"/>
        <path id="Caminho_7294" data-name="Caminho 7294" d="M288.737,196.5a5.87,5.87,0,0,0-3.882,3.6,11.328,11.328,0,0,0,3.99,11.147A6.62,6.62,0,0,0,298,207.975a9.438,9.438,0,0,0-.432-6.2,9.088,9.088,0,0,0-3.559-4.945A5.887,5.887,0,0,0,288.737,196.5Zm4.7,7.225a19.676,19.676,0,0,1,.642,2.085,4.4,4.4,0,0,1,.144,1.359,1.249,1.249,0,0,1-.364.82,2.758,2.758,0,0,1-1.809.647,1.257,1.257,0,0,1-.793-.422,4.634,4.634,0,0,1-.761-1.168,20.374,20.374,0,0,1-.84-2.06l-.225-.625q-.446-1.248-.645-2.051a3.921,3.921,0,0,1-.142-1.314,1.189,1.189,0,0,1,.374-.791,2.646,2.646,0,0,1,.871-.48,2.538,2.538,0,0,1,.965-.177,1.253,1.253,0,0,1,.8.39,3.877,3.877,0,0,1,.747,1.128q.361.76.828,2.064Z" transform="translate(-270.659 -177.907)" fill="#100d0c"/>
      </g>
      <path id="Caminho_7295" data-name="Caminho 7295" d="M240.136,224.884a11.192,11.192,0,0,1-6.949-2.846c-3.337-2.879-4.742-7.035-3.752-10.248a11.153,11.153,0,0,0-.839.888c-3.516,4.184-3.352,10.222.366,13.484a8.9,8.9,0,0,0,11.129.161.9.9,0,0,0,.227-1.245A.914.914,0,0,0,240.136,224.884Z" transform="translate(-226.063 -182.502)" fill="url(#linear-gradient)"/>
    </g>
  </g>
</svg>
