<svg id="Componente_32_1" data-name="Componente 32 – 1" xmlns="http://www.w3.org/2000/svg" xmlns:xlink="http://www.w3.org/1999/xlink" width="375.442" height="332.997" viewBox="0 0 375.442 332.997">
  <defs>
    <linearGradient id="linear-gradient" x1="-117.544" y1="19.967" x2="-117.494" y2="20.029" gradientUnits="objectBoundingBox">
      <stop offset="0" stop-color="#fff"/>
      <stop offset="1" stop-color="#fff" stop-opacity="0"/>
    </linearGradient>
    <linearGradient id="linear-gradient-2" x1="-116.368" y1="20.161" x2="-116.335" y2="20.083" xlink:href="#linear-gradient"/>
  </defs>
  <rect id="Retângulo_3058" data-name="Retângulo 3058" width="201" height="310" transform="translate(1.018 22.997)" fill="#f2f2f2"/>
  <path id="Caminho_8963" data-name="Caminho 8963" d="M1591.939,323.65H1368.025V-9.326h223.914Zm-222.949-.965h221.984V-8.361H1368.99Z" transform="translate(-1368.025 9.326)" fill="#3f3d56"/>
  <path id="Caminho_8964" data-name="Caminho 8964" d="M1952.947,60.523s-1.1-3.97-2.756-4.962v4.962s-6.617-.992-11.3,3.97l4.411.992s-6.479,2.15-7.857,11.413l2.757-1.323,7.443,15.878,4.686-8.6,9.373,9.593-2.205-5.292,3.584,1.654-2.481-4.3,11.027,4.962-.827-2.646,4.041,6.77s13.879-14.378-1.284-29.595C1971.556,64,1964.664,56.719,1952.947,60.523Z" transform="translate(-1661.622 -24.248)" fill="#2f2e41"/>
  <path id="Caminho_8965" data-name="Caminho 8965" d="M1969.08,132s4.109,15.617,2.877,17.671,11.918,13.151,11.918,13.151l12.74-2.466.822-17.671s-11.507-9.863-9.041-17.261Z" transform="translate(-1679.027 -60.398)" fill="#ffb9b9"/>
  <path id="Caminho_8966" data-name="Caminho 8966" d="M1969.08,132s4.109,15.617,2.877,17.671,11.918,13.151,11.918,13.151l12.74-2.466.822-17.671s-11.507-9.863-9.041-17.261Z" transform="translate(-1679.027 -60.398)" opacity="0.1" style="mix-blend-mode: normal;isolation: isolate"/>
  <path id="Caminho_8967" data-name="Caminho 8967" d="M1945.074,343.438s-3.287,20.548-.822,37.4,3.7,29.179,2.466,31.644-2.466,2.055-1.644,4.931,2.466,1.644.822,4.521-1.233,7.809-1.233,9.041-2.055,27.946,0,30.822,2.876,2.466,2.876,2.466l2.466,14.795L1963.156,477l-2.055-13.562s4.932-2.466,2.877-4.11-3.287-1.644-2.055-1.644,3.288-.411,1.644-1.233-.411-23.014-.411-23.014,2.877-40.685,14.384-39.452,20.548,25.069,20.548,25.069l3.288,10.685s1.233,20.137,2.055,21.781.411,2.055,0,2.877-3.288-1.233-.411,2.055,2.877,4.521,2.877,4.521l1.85,21.575,13.356-8.425v-12.74s2.466-4.11,1.644-7.4-.822-18.9,0-21.781.411-3.7-.411-4.931-2.877-.411-1.233-3.288,2.876-10.274.411-15.617-16.027-57.946-21.781-60.823S1945.074,343.438,1945.074,343.438Z" transform="translate(-1665.706 -173.204)" fill="#2f2e41"/>
  <path id="Caminho_8968" data-name="Caminho 8968" d="M1968.269,605.158s-9.452-1.644-9.863.822a28.121,28.121,0,0,0,0,6.164s-3.288.411-2.877,3.288.822,10.685.822,10.685-5.137,12.124-2.261,15c.029.029,5.675-.206,8.92-.206h11.834s1.644-5.753,0-6.576-5.343-8.219-4.931-9.863,0-13.562,0-13.562l-1.816.1Z" transform="translate(-1670.818 -308.347)" fill="#3f3d56"/>
  <path id="Caminho_8969" data-name="Caminho 8969" d="M2077.016,613.13l-4.931,3.7s2.055,6.986.822,8.219-3.9,15.411-1.438,16.233,17.671-.411,17.671-.411,17.055.616,17.466-.206a5.7,5.7,0,0,0-3.7-7.4c-4.932-1.644-7.808-1.233-9.452-6.164a122.016,122.016,0,0,0-5.343-12.329l-.822-9.042s-4.932.822-5.753.822-4.932,2.055-4.521,3.7A5.6,5.6,0,0,1,2077.016,613.13Z" transform="translate(-1731.482 -308.922)" fill="#3f3d56"/>
  <circle id="Elipse_1165" data-name="Elipse 1165" cx="17.055" cy="17.055" r="17.055" transform="translate(279.984 42.63)" fill="#ffb9b9"/>
  <path id="Caminho_8970" data-name="Caminho 8970" d="M1977.028,163.093l6.164-10.775s14.384-.732,15.206.912,7.808,83.015,7.808,83.015,3.288,4.521,1.233,7.4l-2.055,2.877v5.754s-10.274,8.219-24.247,6.575-31.644-9.041-31.644-9.041l3.7-23.014-.411-67.809,8.28-4.036s9.391,6.5,11.035,8.556S1977.028,163.093,1977.028,163.093Z" transform="translate(-1668.892 -74.229)" fill="#3f3d56"/>
  <path id="Caminho_8971" data-name="Caminho 8971" d="M1947.662,163.143l-1.849-10.891-25.274,17.877,13.973,41.1s-8.63,15.617-6.986,21.37a99.5,99.5,0,0,1,2.466,14.384s22.192,5.753,21.781,2.877,0-15.617,0-15.617,7.185-53.222,3.592-61.337S1947.662,163.143,1947.662,163.143Z" transform="translate(-1653.91 -74.279)" fill="#d0cde1"/>
  <path id="Caminho_8972" data-name="Caminho 8972" d="M2019.4,155.586l-3.9-7.6c0-.238,27.739,3.6,28.973,5.959l-3.288,63.288s.411,9.041,2.466,11.507,1.644,6.576.822,6.986-14.384,4.521-14.384,4.521-13.151-22.6-11.918-49.727S2019.4,155.586,2019.4,155.586Z" transform="translate(-1703.042 -72.064)" fill="#d0cde1"/>
  <path id="Caminho_8973" data-name="Caminho 8973" d="M2064.43,160.2l4.352-.927a9.2,9.2,0,0,1,3.867,4.214c1.233,2.877,15.617,33.7,15.617,35.754s.411,17.26-8.63,17.26-16.027-38.63-16.027-38.63Z" transform="translate(-1727.938 -77.912)" fill="#d0cde1"/>
  <path id="Caminho_8974" data-name="Caminho 8974" d="M1937.571,374.269l7.4,11.1,4.11-13.973-2.877-4.11Z" transform="translate(-1662.723 -185.542)" fill="#ffb9b9"/>
  <path id="Caminho_8975" data-name="Caminho 8975" d="M1914.543,189.708l-3.7-.411-9.042,48.493,15.617,48.494,13.562-10.274-9.452-32.466,3.287-25.069Z" transform="translate(-1644.216 -93.447)" fill="#d0cde1"/>
  <path id="Caminho_8976" data-name="Caminho 8976" d="M1985.675,89.116c-2.258-8.231-9.32-14.239-17.688-14.239a18.01,18.01,0,0,0-14.749,7.942l4.22,8.087,4.207-6.937,8.415,7.737-1.98-4.269,3.218,1.334L1969.09,85.3l9.9,4-.743-2.134,4.7,6.136A18.5,18.5,0,0,0,1985.675,89.116Z" transform="translate(-1670.83 -34.243)" fill="#2f2e41"/>
  <path id="Caminho_8977" data-name="Caminho 8977" d="M2059.777,199.412l11.073,9.654-5.73-12.531Z" transform="translate(-1725.956 -97.192)" opacity="0.1" style="mix-blend-mode: normal;isolation: isolate"/>
  <path id="Caminho_8978" data-name="Caminho 8978" d="M2026.5,158.5l-.385-.153,2.083-5.231a1.212,1.212,0,0,0-.677-1.574h0l-11.81-4.7a1.211,1.211,0,0,0-1.574.677h0l-9.686,24.331a1.211,1.211,0,0,0,.677,1.574l11.811,4.7a1.211,1.211,0,0,0,1.573-.677h0l5-12.551.385.153Z" transform="translate(-1697.282 -71.433)" fill="#2f2e41"/>
  <circle id="Elipse_1166" data-name="Elipse 1166" cx="2.073" cy="2.073" r="2.073" transform="translate(319.63 82.001)" fill="#f17b00"/>
  <path id="Caminho_8979" data-name="Caminho 8979" d="M2034.635,184.612s-5.343-16.438-11.918-13.562,2.466,20.137,2.466,20.137l5.754,3.7Z" transform="translate(-1705.54 -83.831)" fill="#ffb9b9"/>
  <path id="Caminho_8980" data-name="Caminho 8980" d="M2066.882,218.713l-28.767-22.6-10.274,15.205s27.123,28.768,33.288,23.014S2066.882,218.713,2066.882,218.713Z" transform="translate(-1709.432 -96.972)" fill="#d0cde1"/>
  <ellipse id="Elipse_1167" data-name="Elipse 1167" cx="2" cy="2.5" rx="2" ry="2.5" transform="translate(4.018 2.997)" fill="#3f3d56"/>
  <ellipse id="Elipse_1168" data-name="Elipse 1168" cx="1" cy="2.5" rx="1" ry="2.5" transform="translate(10.018 2.997)" fill="#3f3d56"/>
  <ellipse id="Elipse_1169" data-name="Elipse 1169" cx="2" cy="2.5" rx="2" ry="2.5" transform="translate(14.018 2.997)" fill="#3f3d56"/>
  <ellipse id="Elipse_1170" data-name="Elipse 1170" cx="1" cy="2.5" rx="1" ry="2.5" transform="translate(20.018 2.997)" fill="#3f3d56"/>
  <ellipse id="Elipse_1171" data-name="Elipse 1171" cx="1.5" cy="2.5" rx="1.5" ry="2.5" transform="translate(26.018 2.997)" fill="#3f3d56"/>
  <rect id="Retângulo_3059" data-name="Retângulo 3059" width="22" height="3" transform="translate(100.018 3.997)" fill="#3f3d56"/>
  <rect id="Retângulo_3060" data-name="Retângulo 3060" width="15" height="3" transform="translate(9.018 13.997)" fill="#3f3d56"/>
  <rect id="Retângulo_3061" data-name="Retângulo 3061" width="15" height="1" transform="translate(9.018 17.997)" fill="#3f3d56"/>
  <rect id="Retângulo_3062" data-name="Retângulo 3062" width="15" height="2" transform="translate(9.018 19.997)" fill="#3f3d56"/>
  <rect id="Retângulo_3063" data-name="Retângulo 3063" width="171" height="121" transform="translate(31.018 102.997)" fill="#272626"/>
  <rect id="Retângulo_3064" data-name="Retângulo 3064" width="65" height="13" transform="translate(42.018 122.997)" fill="#f2f2f2"/>
  <rect id="Retângulo_3065" data-name="Retângulo 3065" width="21" height="15" transform="translate(164.018 201.997)" fill="#f2f2f2"/>
  <rect id="Retângulo_3066" data-name="Retângulo 3066" width="65" height="15" transform="translate(42.018 148.997)" fill="#f2f2f2"/>
  <rect id="Retângulo_3067" data-name="Retângulo 3067" width="65" height="13" transform="translate(42.018 174.997)" fill="#f2f2f2"/>
  <path id="Caminho_8981" data-name="Caminho 8981" d="M1706.934,259.253v-1.638a4.727,4.727,0,0,1-2.482-.714l.39-1.087a4.327,4.327,0,0,0,2.336.7c1.152,0,1.931-.665,1.931-1.59,0-.892-.633-1.444-1.833-1.93-1.655-.649-2.677-1.4-2.677-2.807a2.661,2.661,0,0,1,2.45-2.612v-1.638h1.006v1.574a4.329,4.329,0,0,1,2.109.567l-.406,1.071a3.924,3.924,0,0,0-2.044-.552c-1.249,0-1.719.747-1.719,1.4,0,.844.6,1.266,2.012,1.85,1.671.681,2.514,1.525,2.514,2.969a2.822,2.822,0,0,1-2.563,2.758v1.687Z" transform="translate(-1542.101 -122.752)" fill="#f17b00"/>
  <path id="Caminho_8982" data-name="Caminho 8982" d="M1723.934,259.253v-1.638a4.727,4.727,0,0,1-2.482-.714l.39-1.087a4.327,4.327,0,0,0,2.336.7c1.152,0,1.931-.665,1.931-1.59,0-.892-.633-1.444-1.833-1.93-1.654-.649-2.677-1.4-2.677-2.807a2.661,2.661,0,0,1,2.45-2.612v-1.638h1.006v1.574a4.329,4.329,0,0,1,2.109.567l-.406,1.071a3.923,3.923,0,0,0-2.044-.552c-1.249,0-1.719.747-1.719,1.4,0,.844.6,1.266,2.012,1.85,1.671.681,2.514,1.525,2.514,2.969a2.822,2.822,0,0,1-2.563,2.758v1.687Z" transform="translate(-1550.897 -122.752)" fill="#f17b00"/>
  <path id="Caminho_8983" data-name="Caminho 8983" d="M1740.934,259.253v-1.638a4.727,4.727,0,0,1-2.482-.714l.389-1.087a4.327,4.327,0,0,0,2.336.7c1.152,0,1.931-.665,1.931-1.59,0-.892-.633-1.444-1.833-1.93-1.654-.649-2.677-1.4-2.677-2.807a2.661,2.661,0,0,1,2.45-2.612v-1.638h1.006v1.574a4.329,4.329,0,0,1,2.109.567l-.406,1.071a3.924,3.924,0,0,0-2.044-.552c-1.249,0-1.72.747-1.72,1.4,0,.844.6,1.266,2.012,1.85,1.671.681,2.514,1.525,2.514,2.969a2.822,2.822,0,0,1-2.563,2.758v1.687Z" transform="translate(-1559.694 -122.752)" fill="#f17b00"/>
  <path id="Caminho_8984" data-name="Caminho 8984" d="M1706.934,312.253v-1.638a4.727,4.727,0,0,1-2.482-.714l.39-1.087a4.327,4.327,0,0,0,2.336.7c1.152,0,1.931-.665,1.931-1.59,0-.892-.633-1.444-1.833-1.93-1.655-.649-2.677-1.4-2.677-2.807a2.661,2.661,0,0,1,2.45-2.612v-1.638h1.006v1.574a4.329,4.329,0,0,1,2.109.568l-.406,1.071a3.923,3.923,0,0,0-2.044-.552c-1.249,0-1.719.746-1.719,1.4,0,.844.6,1.266,2.012,1.85,1.671.681,2.514,1.525,2.514,2.969a2.822,2.822,0,0,1-2.563,2.758v1.687Z" transform="translate(-1542.101 -150.176)" fill="#f17b00"/>
  <path id="Caminho_8985" data-name="Caminho 8985" d="M1723.934,312.253v-1.638a4.727,4.727,0,0,1-2.482-.714l.39-1.087a4.327,4.327,0,0,0,2.336.7c1.152,0,1.931-.665,1.931-1.59,0-.892-.633-1.444-1.833-1.93-1.654-.649-2.677-1.4-2.677-2.807a2.661,2.661,0,0,1,2.45-2.612v-1.638h1.006v1.574a4.329,4.329,0,0,1,2.109.568l-.406,1.071a3.923,3.923,0,0,0-2.044-.552c-1.249,0-1.719.746-1.719,1.4,0,.844.6,1.266,2.012,1.85,1.671.681,2.514,1.525,2.514,2.969a2.822,2.822,0,0,1-2.563,2.758v1.687Z" transform="translate(-1550.897 -150.176)" fill="#f17b00"/>
  <path id="Caminho_8986" data-name="Caminho 8986" d="M1740.934,312.253v-1.638a4.727,4.727,0,0,1-2.482-.714l.389-1.087a4.328,4.328,0,0,0,2.336.7c1.152,0,1.931-.665,1.931-1.59,0-.892-.633-1.444-1.833-1.93-1.654-.649-2.677-1.4-2.677-2.807a2.661,2.661,0,0,1,2.45-2.612v-1.638h1.006v1.574a4.329,4.329,0,0,1,2.109.568l-.406,1.071a3.923,3.923,0,0,0-2.044-.552c-1.249,0-1.72.746-1.72,1.4,0,.844.6,1.266,2.012,1.85,1.671.681,2.514,1.525,2.514,2.969a2.822,2.822,0,0,1-2.563,2.758v1.687Z" transform="translate(-1559.694 -150.176)" fill="#f17b00"/>
  <path id="Caminho_8987" data-name="Caminho 8987" d="M1706.934,365.253v-1.638a4.726,4.726,0,0,1-2.482-.714l.39-1.087a4.328,4.328,0,0,0,2.336.7c1.152,0,1.931-.665,1.931-1.59,0-.892-.633-1.444-1.833-1.93-1.655-.649-2.677-1.4-2.677-2.807a2.661,2.661,0,0,1,2.45-2.612v-1.638h1.006v1.574a4.33,4.33,0,0,1,2.109.568l-.406,1.071a3.925,3.925,0,0,0-2.044-.552c-1.249,0-1.719.747-1.719,1.4,0,.844.6,1.266,2.012,1.85,1.671.681,2.514,1.525,2.514,2.969a2.821,2.821,0,0,1-2.563,2.758v1.687Z" transform="translate(-1542.101 -177.6)" fill="#f17b00"/>
  <path id="Caminho_8988" data-name="Caminho 8988" d="M1723.934,365.253v-1.638a4.726,4.726,0,0,1-2.482-.714l.39-1.087a4.327,4.327,0,0,0,2.336.7c1.152,0,1.931-.665,1.931-1.59,0-.892-.633-1.444-1.833-1.93-1.654-.649-2.677-1.4-2.677-2.807a2.661,2.661,0,0,1,2.45-2.612v-1.638h1.006v1.574a4.329,4.329,0,0,1,2.109.568l-.406,1.071a3.924,3.924,0,0,0-2.044-.552c-1.249,0-1.719.747-1.719,1.4,0,.844.6,1.266,2.012,1.85,1.671.681,2.514,1.525,2.514,2.969a2.821,2.821,0,0,1-2.563,2.758v1.687Z" transform="translate(-1550.897 -177.6)" fill="#f17b00"/>
  <path id="Caminho_8989" data-name="Caminho 8989" d="M1740.934,365.253v-1.638a4.726,4.726,0,0,1-2.482-.714l.389-1.087a4.328,4.328,0,0,0,2.336.7c1.152,0,1.931-.665,1.931-1.59,0-.892-.633-1.444-1.833-1.93-1.654-.649-2.677-1.4-2.677-2.807a2.661,2.661,0,0,1,2.45-2.612v-1.638h1.006v1.574a4.33,4.33,0,0,1,2.109.568l-.406,1.071a3.925,3.925,0,0,0-2.044-.552c-1.249,0-1.72.747-1.72,1.4,0,.844.6,1.266,2.012,1.85,1.671.681,2.514,1.525,2.514,2.969a2.821,2.821,0,0,1-2.563,2.758v1.687Z" transform="translate(-1559.694 -177.6)" fill="#f17b00"/>
  <path id="Caminho_8990" data-name="Caminho 8990" d="M1718.676,424.6l-3.208-4.277.76-.57,2.613,3.485,10.289-8.418.6.735Z" transform="translate(-1547.802 -210.137)" fill="#3f3d56"/>
  <rect id="Retângulo_3068" data-name="Retângulo 3068" width="2.413" height="2.413" transform="translate(203.764 4.433)" fill="#f17b00"/>
  <rect id="Retângulo_3069" data-name="Retângulo 3069" width="2.413" height="2.413" transform="translate(207.625 4.433)" fill="#f17b00"/>
  <rect id="Retângulo_3070" data-name="Retângulo 3070" width="2.413" height="2.413" transform="translate(211.485 4.433)" fill="#f17b00"/>
  <rect id="Retângulo_3071" data-name="Retângulo 3071" width="2.413" height="2.413" transform="translate(215.346 4.433)" fill="#f2f2f2"/>
  <g id="Grupo_2" data-name="Grupo 2" transform="translate(42.467 198.632)">
    <g id="Grupo_6106" data-name="Grupo 6106" transform="translate(0)">
      <path id="Caminho_7283" data-name="Caminho 7283" d="M1464.332,409.844a6.951,6.951,0,0,1,3.011-3.519c2.3-1.368,4.93-1.319,6.544-.049a6.946,6.946,0,0,0-.332-.686c-1.652-2.976-5.093-4.16-7.686-2.646a5.743,5.743,0,0,0-2.338,6.568.527.527,0,0,0,.8.332Z" transform="translate(-1459.786 -402.285)" fill="#fff"/>
      <path id="Caminho_7284" data-name="Caminho 7284" d="M1474.578,410.058a6.88,6.88,0,0,1,3.434,3.087c1.335,2.357,1.286,5.053.048,6.708a6.819,6.819,0,0,0,.669-.34c2.9-1.694,4.057-5.221,2.581-7.88a5.474,5.474,0,0,0-6.407-2.4.549.549,0,0,0-.392.671A.537.537,0,0,0,1474.578,410.058Z" transform="translate(-1465.581 -405.74)" fill="#ff7d00"/>
      <path id="Caminho_7285" data-name="Caminho 7285" d="M1470.284,420.706a6.95,6.95,0,0,1-3.011,3.518c-2.3,1.369-4.93,1.32-6.544.05a7.091,7.091,0,0,0,.332.686c1.652,2.976,5.093,4.16,7.686,2.646a5.743,5.743,0,0,0,2.339-6.568.528.528,0,0,0-.8-.332Z" transform="translate(-1458.459 -411.773)" fill="#fff"/>
      <path id="Caminho_7286" data-name="Caminho 7286" d="M1463.4,417.008a6.877,6.877,0,0,1-3.434-3.087c-1.335-2.357-1.287-5.054-.048-6.708a6.808,6.808,0,0,0-.669.34c-2.9,1.693-4.057,5.221-2.581,7.88a5.473,5.473,0,0,0,6.407,2.4.55.55,0,0,0,.392-.671A.562.562,0,0,0,1463.4,417.008Z" transform="translate(-1456.025 -404.835)" fill="#ff7d00"/>
      <path id="Caminho_7287" data-name="Caminho 7287" d="M1474.578,410.058a6.88,6.88,0,0,1,3.434,3.087c1.335,2.357,1.286,5.053.048,6.708a6.819,6.819,0,0,0,.669-.34c2.9-1.694,4.057-5.221,2.581-7.88a5.474,5.474,0,0,0-6.407-2.4.549.549,0,0,0-.392.671A.537.537,0,0,0,1474.578,410.058Z" transform="translate(-1465.581 -405.74)" fill="url(#linear-gradient)"/>
      <g id="Grupo_6106-2" data-name="Grupo 6106-2" transform="translate(17.957 1.68)">
        <rect id="Retângulo_2405" data-name="Retângulo 2405" width="2.691" height="12.423" transform="translate(25.995 0.461)" fill="#fff"/>
        <path id="Caminho_7289" data-name="Caminho 7289" d="M1581.89,417.069a8.663,8.663,0,0,0-.19-1.9,3.83,3.83,0,0,0-.621-1.432,2.752,2.752,0,0,0-1.121-.9,4.123,4.123,0,0,0-1.69-.309,3.535,3.535,0,0,0-2.916,1.282,5.679,5.679,0,0,0-1.035,3.653,5.619,5.619,0,0,0,1.053,3.653,3.91,3.91,0,0,0,3.209,1.283,6.014,6.014,0,0,0,1.8-.248,6.222,6.222,0,0,0,1.182-.478l-.311-2q-.519.159-1.147.345a4.779,4.779,0,0,1-1.355.185,2.841,2.841,0,0,1-.776-.088.977.977,0,0,1-.492-.3,1.346,1.346,0,0,1-.267-.566,4.478,4.478,0,0,1-.1-.9h4.779Zm-2.5-.5h-2.277a4.252,4.252,0,0,1,.276-1.645,1.123,1.123,0,0,1,1.76-.1,2.705,2.705,0,0,1,.242,1.353Z" transform="translate(-1535.182 -409.262)" fill="#fff"/>
        <rect id="Retângulo_2406" data-name="Retângulo 2406" width="2.691" height="9.41" transform="translate(29.593 3.474)" fill="#fff"/>
        <path id="Caminho_7290" data-name="Caminho 7290" d="M1556.781,406.146a1.608,1.608,0,0,0-2.076,0,1.346,1.346,0,0,0-.438,1.07,1.316,1.316,0,0,0,.438,1.061,1.635,1.635,0,0,0,2.076,0,1.315,1.315,0,0,0,.438-1.061A1.344,1.344,0,0,0,1556.781,406.146Z" transform="translate(-1524.813 -405.766)" fill="#fff"/>
        <path id="Caminho_7291" data-name="Caminho 7291" d="M1565.724,408.927a.636.636,0,0,1,.225-.569,1.346,1.346,0,0,1,.725-.146h1.138l.138-1.578a3.6,3.6,0,0,0-.785-.283,4.931,4.931,0,0,0-1.269-.146,2.631,2.631,0,0,0-2.175.857,3.827,3.827,0,0,0-.69,2.449v.156h-1.018v1.8h1.018v7.409h2.692v-7.409h1.915v-1.8h-1.915Z" transform="translate(-1528.824 -405.988)" fill="#fff"/>
        <path id="Caminho_7292" data-name="Caminho 7292" d="M1499.643,417.91a3.7,3.7,0,0,1-1.319.225,2.421,2.421,0,0,1-.8-.13,1.31,1.31,0,0,1-.63-.483,2.722,2.722,0,0,1-.405-.977,7.157,7.157,0,0,1-.146-1.59v-.985a7.065,7.065,0,0,1,.121-1.451,1.992,1.992,0,0,1,.365-.846,1.189,1.189,0,0,1,.6-.4,3.036,3.036,0,0,1,.828-.1,5.869,5.869,0,0,1,1.346.146q.622.146,1.381.406l.276-2.35a6.284,6.284,0,0,0-1.286-.449,7.066,7.066,0,0,0-1.7-.19,5.722,5.722,0,0,0-2.382.438,4.037,4.037,0,0,0-1.562,1.218,4.806,4.806,0,0,0-.845,1.841,10.715,10.715,0,0,0,0,4.6,5.1,5.1,0,0,0,.837,1.874,4.047,4.047,0,0,0,1.527,1.261,5.323,5.323,0,0,0,2.338.457,6.234,6.234,0,0,0,1.873-.267,8.384,8.384,0,0,0,1.406-.561l-.552-2.229Q1500.238,417.684,1499.643,417.91Z" transform="translate(-1493.236 -407.302)" fill="#fff"/>
        <path id="Caminho_7293" data-name="Caminho 7293" d="M1534.616,412.519a3.189,3.189,0,0,0-1.4.3l-1,1.169-.772-1.26h-1.886v9.41h2.692v-7.16a6.793,6.793,0,0,1,.684-.185,2.87,2.87,0,0,1,.6-.062q.895,0,.894.69v6.722h2.691v-6.509a3.793,3.793,0,0,0-.607-2.29A2.186,2.186,0,0,0,1534.616,412.519Z" transform="translate(-1512.027 -409.257)" fill="#fff"/>
        <path id="Caminho_7294" data-name="Caminho 7294" d="M1515.057,412.518a3.608,3.608,0,0,0-3,1.282,6.964,6.964,0,0,0,0,7.279,4.069,4.069,0,0,0,5.75.228c.079-.073.155-.149.228-.228a5.8,5.8,0,0,0,1.036-3.68,5.588,5.588,0,0,0-1.036-3.6A3.615,3.615,0,0,0,1515.057,412.518Zm1.225,5.156a11.886,11.886,0,0,1-.061,1.34,2.687,2.687,0,0,1-.2.816.765.765,0,0,1-.38.4,1.7,1.7,0,0,1-1.181,0,.772.772,0,0,1-.371-.409,2.829,2.829,0,0,1-.2-.833,12.546,12.546,0,0,1-.06-1.366v-.409q0-.815.051-1.321a2.422,2.422,0,0,1,.19-.79.73.73,0,0,1,.38-.381,1.627,1.627,0,0,1,.6-.1,1.564,1.564,0,0,1,.595.1.771.771,0,0,1,.38.391,2.376,2.376,0,0,1,.2.807q.052.511.052,1.366Z" transform="translate(-1502.446 -409.256)" fill="#fff"/>
      </g>
      <path id="Caminho_7295" data-name="Caminho 7295" d="M1463.4,417.008a6.877,6.877,0,0,1-3.434-3.087c-1.335-2.357-1.287-5.054-.048-6.708a6.808,6.808,0,0,0-.669.34c-2.9,1.693-4.057,5.221-2.581,7.88a5.473,5.473,0,0,0,6.407,2.4.55.55,0,0,0,.392-.671A.562.562,0,0,0,1463.4,417.008Z" transform="translate(-1456.025 -404.835)" fill="url(#linear-gradient-2)"/>
    </g>
  </g>
</svg>
