<svg width="338.162" height="328" xmlns="http://www.w3.org/2000/svg" xmlns:xlink="http://www.w3.org/1999/xlink" data-name="Componente 31 – 1" viewBox="0 0 338.162 328">
 <defs>
  <linearGradient gradientUnits="objectBoundingBox" y2="0.351" x2="0.48" y1="1.266" x1="-0.03" id="linear-gradient">
   <stop stop-color="#fff" offset="0"/>
   <stop stop-opacity="0" stop-color="#fff" offset="1"/>
  </linearGradient>
  <linearGradient xlink:href="#linear-gradient" y2="0.729" x2="0.494" y1="-0.43" x1="0.166" id="linear-gradient-2"/>
 </defs>
 <g>
  <title>Layer 1</title>
  <g data-name="Grupo 7536" id="Grupo_7536">
   <path fill="#272626" d="m189.39,12.859l0,286.129a12.863,12.863 0 0 1 -12.859,12.85l-116.159,0a12.836,12.836 0 0 1 -12.859,-12.814l0,-286.165a12.857,12.857 0 0 1 12.856,-12.859l17.385,0l0,2.229a10.589,10.589 0 0 0 10.585,10.59l59.08,0a10.5,10.5 0 0 0 6.277,-2.066a9.8,9.8 0 0 0 1.042,-0.874a10.558,10.558 0 0 0 3.267,-7.65l0,-2.229l18.527,0a12.855,12.855 0 0 1 12.859,12.851l-0.001,0.008z" data-name="Caminho 8935" id="Caminho_8935"/>
   <rect x="64.49599" y="103.14701" fill="#f17b00" height="82.104" width="107.912" data-name="Retângulo 3054" id="Retângulo_3054"/>
   <path fill="#3f3d56" d="m40.40301,112.745c-5.019,8.195 -3.293,18.388 -3.293,18.388s9.865,-3.093 14.885,-11.288s3.293,-18.389 3.293,-18.389s-9.866,3.094 -14.885,11.289z" data-name="Caminho 8940" id="Caminho_8940"/>
   <path fill="#f17b00" d="m52.648,186.31701l-52.648,-4.387l0,-77.217l52.648,-2.632l0,84.236z" data-name="Caminho 8942" id="Caminho_8942"/>
   <path fill="#f17b00" d="m184.25701,186.31701l52.648,-4.387l0,-77.217l-52.648,-2.632l0,84.236z" data-name="Caminho 8943" id="Caminho_8943"/>
   <path fill="#fff" d="m224.90199,133.96401a7.025,7.025 0 0 0 -9.157,-1.468a10.5,10.5 0 0 1 -4.065,1.466a36.57,36.57 0 0 1 1.652,-11.263l0.185,-0.6l-2.455,0l-0.07,0.325q-0.411,1.9 -0.645,3.851a11.627,11.627 0 0 0 -0.514,-1.635a12,12 0 0 0 -5.869,-6.136l-0.339,-0.147l-0.109,0.431c-0.053,0.214 -1.3,5.293 0.426,9.6a11.885,11.885 0 0 0 4.942,5.646a10.721,10.721 0 0 1 -4.8,-1.62a4.668,4.668 0 0 0 -5.931,0.631a24.433,24.433 0 0 0 -7.212,17.657c0,8.973 4.61,17.191 11.744,20.935a4.357,4.357 0 0 0 2.031,0.508a4.577,4.577 0 0 0 2.749,-0.95a6,6 0 0 1 7.286,-0.019a4.411,4.411 0 0 0 4.784,0.424c7.093,-3.759 11.676,-11.962 11.676,-20.9a24.469,24.469 0 0 0 -6.309,-16.736zm-13.3,-10.983l0.9,0a37.594,37.594 0 0 0 -1.526,10.7l-0.161,0a40.192,40.192 0 0 1 0.785,-10.7l0.002,0zm-7.03,5.006a16.345,16.345 0 0 1 -0.481,-8.475a11.339,11.339 0 0 1 5.12,5.525a16.343,16.343 0 0 1 0.481,8.474a11.362,11.362 0 0 1 -5.12,-5.524zm14.692,42.8a3.83,3.83 0 0 1 -4.157,-0.372a6.575,6.575 0 0 0 -8,0.021a3.83,3.83 0 0 1 -4.153,0.386c-6.873,-3.607 -11.313,-11.5 -11.313,-20.12a23.462,23.462 0 0 1 6.936,-16.954a4.238,4.238 0 0 1 2.936,-1.236a4.115,4.115 0 0 1 2.25,0.686a11.789,11.789 0 0 0 12.3,0.092a6.436,6.436 0 0 1 8.39,1.347a23.492,23.492 0 0 1 6.062,16.064c0,8.58 -4.415,16.464 -11.247,20.085l-0.004,0.001z" data-name="Caminho 8944" id="Caminho_8944"/>
   <path fill="#fff" d="m26.181,125.621l0,-1.036l0.412,0l0,-3.229a1.307,1.307 0 0 0 -0.7,-1.164a6.28,6.28 0 0 0 -5.819,0a1.315,1.315 0 0 0 -0.751,1.19l0,3.2l0.412,0l0,0.938a7.194,7.194 0 0 0 -5.254,6.959l0,6.986l0.784,0.262l-0.784,0.523l0,2.1l0.784,0.262l-0.784,0.52l0,2.1l0.784,0.261l-0.784,0.523l0,15.99a4.709,4.709 0 0 0 4.7,4.7l6.935,0a4.7,4.7 0 0 0 4.694,-4.694l0,-16l-0.785,-0.523l0.785,-0.261l0,-2.1l-0.785,-0.523l0.785,-0.262l0,-2.1l-0.785,-0.523l0.785,-0.262l0,-7.347a6.907,6.907 0 0 0 -4.629,-6.49zm-5.732,-4.625a5.375,5.375 0 0 1 5.038,-0.021a0.431,0.431 0 0 1 0.223,0.381l0,1.728l-5.5,0l0,-1.7a0.43,0.43 0 0 1 0.238,-0.388l0.001,0zm9.484,17.833l-1.893,0.631l1.893,1.262l0,0.991l-1.893,0.631l1.893,1.262l0,0.991l-1.893,0.631l1.893,1.263l0,15.527a3.815,3.815 0 0 1 -3.811,3.811l-6.935,0a3.825,3.825 0 0 1 -3.821,-3.821l0,-15.518l1.893,-1.263l-1.893,-0.631l0,-0.991l1.893,-1.262l-1.893,-0.631l0,-0.991l1.893,-1.262l-1.893,-0.631l0,-6.35a6.317,6.317 0 0 1 4.911,-6.183l0.342,-0.079l0,-1.631l4.679,0l0,1.691l0.318,0.092a6.017,6.017 0 0 1 4.317,5.75l0,6.711z" data-name="Caminho 8945" id="Caminho_8945"/>
   <circle fill="#f17b00" r="12.801" cy="209.97101" cx="118.45199" data-name="Elipse 1162" id="Elipse_1162"/>
   <path fill="#fff" d="m126.515,208.707l-6.8,0l0,-6.8l-2.528,0l0,6.8l-6.8,0l0,2.528l6.8,0l0,6.8l2.528,0l0,-6.8l6.8,0l0,-2.528z" data-name="Caminho 8946" id="Caminho_8946"/>
   <path fill="#fff" d="m158.82701,210.41201l-6.621,-3.09l0,1.766l-15.451,0l0,2.648l15.45,0l0,1.766l6.622,-3.09z" data-name="Caminho 8947" id="Caminho_8947"/>
   <path fill="#fff" d="m78.078,210.41201l6.621,-3.09l0,1.766l15.45,0l0,2.648l-15.45,0l0,1.766l-6.621,-3.09z" data-name="Caminho 8948" id="Caminho_8948"/>
   <rect x="76.076" y="41.789" fill="#fff" height="0.883" width="84.753" data-name="Retângulo 3056" id="Retângulo_3056"/>
   <rect x="76.281" y="282.80502" fill="#fff" height="0.883" width="84.753" data-name="Retângulo 3057" id="Retângulo_3057"/>
   <path stroke-width="2" stroke="#fff" fill="none" d="m141.167,133.51101l-11.968,0l0,-12.487a5.313,5.313 0 0 0 -5.3,-5.3l-13.513,0a5.313,5.313 0 0 0 -5.3,5.3l0,12.487l-11.96,0a5.313,5.313 0 0 0 -5.3,5.3l0,12.468a5.313,5.313 0 0 0 5.3,5.3l11.963,0l0,12.482a5.313,5.313 0 0 0 5.3,5.3l13.516,0a5.313,5.313 0 0 0 5.3,-5.3l0,-12.488l11.962,0a5.313,5.313 0 0 0 5.3,-5.3l0,-12.465a5.313,5.313 0 0 0 -5.3,-5.297z" data-name="Caminho 8949" id="Caminho_8949"/>
  </g>
  <g data-name="Grupo 7537" id="Grupo_7537">
   <path fill="#a0616a" d="m250.81699,163.86801l-2.3,8.736s-8.276,18.391 0,19.311s8.736,-23.908 8.736,-23.908l-6.436,-4.139z" data-name="Caminho 8950" id="Caminho_8950"/>
   <path fill="#d0cde1" d="m265.06999,100.879l-16.553,65.288s6.437,1.839 9.655,4.138l6.898,-69.426z" data-name="Caminho 8951" id="Caminho_8951"/>
   <path fill="#2f2e41" d="m317.02699,150.53401l4.6,71.265s11.035,28.046 10.575,54.713c0,0 -4.138,10.575 -0.92,12.414s5.058,3.218 3.219,4.6s-3.219,4.6 -1.839,5.517s1.839,2.3 1.379,2.3l-13.798,0s2.759,-6.9 -1.379,-8.736s-1.839,-6.437 -1.839,-6.437l-30.8,-90.116l-24.368,82.76s4.138,2.759 0.92,4.138s-4.6,-1.379 -3.218,1.379s-0.46,4.138 -0.46,4.6s-13.793,-1.379 -13.793,-1.379s6.9,-5.977 3.678,-7.356s-4.6,-2.759 -3.678,-3.678s4.6,-9.655 4.6,-9.655s1.839,-33.1 2.3,-34.483s0,-7.816 0,-11.035s-0.46,-16.092 0.92,-19.311s2.759,-42.759 10.115,-47.357s53.786,-4.143 53.786,-4.143z" data-name="Caminho 8952" id="Caminho_8952"/>
   <path fill="#2f2e41" d="m258.63299,286.62801s9.2,18.851 2.759,21.15s-14.713,0.46 -16.552,3.218s-22.069,5.977 -22.529,-0.92s22.069,-19.77 22.069,-19.77l2.935,-4.726l11.318,1.048z" data-name="Caminho 8953" id="Caminho_8953"/>
   <path fill="#2f2e41" d="m333.11699,300.42101s9.2,18.851 2.759,21.15s-14.713,0.46 -16.552,3.218s-22.069,5.977 -22.529,-0.92s22.069,-19.77 22.069,-19.77l2.935,-4.726l11.318,1.048z" data-name="Caminho 8954" id="Caminho_8954"/>
   <circle fill="#a0616a" r="15.173" cy="48.695" cx="290.58798" data-name="Elipse 1163" id="Elipse_1163"/>
   <path fill="#a0616a" d="m300.93299,56.74l-1.839,13.333l-13.793,10.575l-3.68,-5.054l0,-17.475l19.312,-1.379z" data-name="Caminho 8955" id="Caminho_8955"/>
   <path fill="#3f3d56" d="m279.32299,73.752s14.253,1.379 21.609,-3.678l14.713,86.9s-51.955,4.138 -54.254,1.379l0,-27.125l9.2,-44.138l8.732,-13.338z" data-name="Caminho 8956" id="Caminho_8956"/>
   <path fill="#d0cde1" d="m299.666,65.919l4.944,4.155s20.23,3.218 18.851,8.736l-5.517,65.288l1.842,22.069s-15.632,-4.138 -27.587,0s-2.457,-88.922 -2.457,-88.922s10.957,-9.963 9.924,-11.326z" data-name="Caminho 8957" id="Caminho_8957"/>
   <path fill="#d0cde1" d="m281.62199,70.95201s-14.713,10.616 -16.552,17.513s-7.817,79.541 -7.817,79.541s2.759,-1.379 4.138,0.92s22.53,-94.338 20.231,-97.974z" data-name="Caminho 8958" id="Caminho_8958"/>
   <path fill="#a0616a" d="m322.08199,167.08601l-3.3,10.755s-0.842,20.05 -11.876,17.291s3.225,-26.21 3.225,-26.21l3.218,-5.058l8.733,3.222z" data-name="Caminho 8959" id="Caminho_8959"/>
   <path fill="#2f2e41" d="m275.42199,48.033a7.251,7.251 0 0 1 -1.011,-5.117a15.52,15.52 0 0 0 0.442,-4.612a45.611,45.611 0 0 1 2.653,-6.7c1.326,-2.4 0.695,-3.412 4.864,-4.17s2.464,-6.191 13.456,-0.316a3.223,3.223 0 0 0 3.348,1.263c2.274,-0.442 3.1,2.717 3.1,2.717s1.516,-0.885 2.085,0.379s4.623,-0.758 4.623,7.77s-4.613,16.146 -4.613,16.146s0.338,-14.346 -7.179,-15.8s-15.6,-5.686 -17.562,-0.252a41.419,41.419 0 0 1 -4.206,8.692z" data-name="Caminho 8960" id="Caminho_8960"/>
   <ellipse fill="#a0616a" ry="1.977" rx="1.483" cy="49.46701" cx="304.53" data-name="Elipse 1164" id="Elipse_1164"/>
   <path fill="#d0cde1" d="m319.78299,75.591s7.356,-1.839 9.655,10.575s5.058,47.817 5.058,47.817l-11.035,37.242s-11.035,-5.977 -13.333,-5.058l8.683,-32.332l-7.3,-32.956s6.433,-25.288 8.272,-25.288z" data-name="Caminho 8961" id="Caminho_8961"/>
   <path opacity="0.15" d="m309.08699,101.508l9.655,32.184l-9.655,32.644l5.517,-32.644l-5.517,-32.184z" data-name="Caminho 8962" id="Caminho_8962"/>
  </g>
  <g data-name="Grupo 2" id="Grupo_2">
   <g data-name="Grupo 6106" id="Grupo_6106">
    <path fill="#fff" d="m80.42299,61.219a9.51,9.51 0 0 1 4.121,-4.816c3.147,-1.873 6.747,-1.806 8.956,-0.068a9.677,9.677 0 0 0 -0.454,-0.939c-2.261,-4.072 -6.971,-5.693 -10.52,-3.622c-2.947,1.72 -4.167,5.445 -3.2,8.99a0.723,0.723 0 0 0 1.097,0.455z" data-name="Caminho 7283" id="Caminho_7283"/>
    <path fill="#ff7d00" d="m86.51299,56.784a9.413,9.413 0 0 1 4.7,4.225c1.827,3.226 1.761,6.916 0.066,9.181a9.249,9.249 0 0 0 0.916,-0.465c3.971,-2.318 5.553,-7.146 3.533,-10.785a7.491,7.491 0 0 0 -8.769,-3.283a0.752,0.752 0 0 0 -0.446,1.127z" data-name="Caminho 7284" id="Caminho_7284"/>
    <path fill="#fff" d="m90.384,63.099a9.51,9.51 0 0 1 -4.121,4.816c-3.147,1.873 -6.747,1.806 -8.956,0.068a9.64,9.64 0 0 0 0.454,0.939c2.261,4.072 6.97,5.693 10.52,3.622c2.947,-1.72 4.167,-5.445 3.2,-8.99a0.723,0.723 0 0 0 -1.097,-0.455z" data-name="Caminho 7285" id="Caminho_7285"/>
    <path fill="#ff7d00" d="m84.29401,67.53397a9.414,9.414 0 0 1 -4.7,-4.225c-1.827,-3.226 -1.761,-6.916 -0.066,-9.181a9.213,9.213 0 0 0 -0.916,0.465c-3.971,2.317 -5.553,7.146 -3.533,10.785a7.491,7.491 0 0 0 8.769,3.283a0.752,0.752 0 0 0 0.446,-1.127z" data-name="Caminho 7286" id="Caminho_7286"/>
    <path fill="url(#linear-gradient)" d="m86.51299,56.784a9.413,9.413 0 0 1 4.7,4.225c1.827,3.226 1.761,6.916 0.066,9.181a9.249,9.249 0 0 0 0.916,-0.465c3.971,-2.318 5.553,-7.146 3.533,-10.785a7.491,7.491 0 0 0 -8.769,-3.283a0.752,0.752 0 0 0 -0.446,1.127z" data-name="Caminho 7287" id="Caminho_7287"/>
    <g data-name="Grupo 6106" id="Grupo_6106-2">
     <rect x="134.354" y="53.803" fill="#fff" height="17.003" width="3.683" data-name="Retângulo 2405" id="Retângulo_2405"/>
     <path fill="#fff" d="m162.70202,63.858a11.891,11.891 0 0 0 -0.26,-2.6a5.26,5.26 0 0 0 -0.85,-1.96a3.772,3.772 0 0 0 -1.535,-1.234a5.65,5.65 0 0 0 -2.314,-0.423a4.838,4.838 0 0 0 -3.991,1.754a7.778,7.778 0 0 0 -1.417,5a7.693,7.693 0 0 0 1.441,5a5.352,5.352 0 0 0 4.392,1.755a8.233,8.233 0 0 0 2.468,-0.339a8.5,8.5 0 0 0 1.618,-0.654l-0.425,-2.735q-0.71,0.217 -1.57,0.472a6.557,6.557 0 0 1 -1.854,0.254a3.9,3.9 0 0 1 -1.062,-0.121a1.338,1.338 0 0 1 -0.673,-0.411a1.845,1.845 0 0 1 -0.366,-0.774a6.165,6.165 0 0 1 -0.142,-1.236l6.541,0l-0.001,-1.748zm-3.423,-0.678l-3.117,0a5.812,5.812 0 0 1 0.378,-2.251a1.535,1.535 0 0 1 2.409,-0.133a3.7,3.7 0 0 1 0.331,1.852l-0.001,0.532z" data-name="Caminho 7289" id="Caminho_7289"/>
     <rect x="139.278" y="57.927" fill="#fff" height="12.879" width="3.683" data-name="Retângulo 2406" id="Retângulo_2406"/>
     <path fill="#fff" d="m142.52798,53.69301a2.2,2.2 0 0 0 -2.841,0a1.841,1.841 0 0 0 -0.6,1.465a1.8,1.8 0 0 0 0.6,1.452a2.238,2.238 0 0 0 2.841,0a1.8,1.8 0 0 0 0.6,-1.452a1.839,1.839 0 0 0 -0.6,-1.465z" data-name="Caminho 7290" id="Caminho_7290"/>
     <path fill="#fff" d="m149.27999,57.19503a0.87,0.87 0 0 1 0.307,-0.779a1.845,1.845 0 0 1 0.992,-0.2l1.558,0l0.189,-2.16a4.923,4.923 0 0 0 -1.074,-0.387a6.742,6.742 0 0 0 -1.736,-0.2a3.6,3.6 0 0 0 -2.976,1.172a5.234,5.234 0 0 0 -0.944,3.352l0,0.214l-1.393,0l0,2.464l1.393,0l0,10.14l3.684,0l0,-10.14l2.621,0l0,-2.464l-2.621,0l0,-1.012z" data-name="Caminho 7291" id="Caminho_7291"/>
     <path fill="#fff" d="m107.54598,67.692a5.066,5.066 0 0 1 -1.806,0.308a3.3,3.3 0 0 1 -1.1,-0.178a1.79,1.79 0 0 1 -0.862,-0.661a3.72,3.72 0 0 1 -0.555,-1.337a9.774,9.774 0 0 1 -0.2,-2.175l0,-1.348a9.679,9.679 0 0 1 0.165,-1.986a2.732,2.732 0 0 1 0.5,-1.159a1.628,1.628 0 0 1 0.827,-0.543a4.127,4.127 0 0 1 1.133,-0.142a8.009,8.009 0 0 1 1.842,0.2q0.851,0.2 1.89,0.556l0.378,-3.216a8.6,8.6 0 0 0 -1.76,-0.615a9.689,9.689 0 0 0 -2.326,-0.26a7.822,7.822 0 0 0 -3.259,0.6a5.516,5.516 0 0 0 -2.138,1.667a6.569,6.569 0 0 0 -1.156,2.519a14.662,14.662 0 0 0 0,6.3a6.989,6.989 0 0 0 1.145,2.565a5.54,5.54 0 0 0 2.09,1.727a7.289,7.289 0 0 0 3.2,0.626a8.523,8.523 0 0 0 2.563,-0.366a11.47,11.47 0 0 0 1.924,-0.768l-0.755,-3.051q-0.925,0.428 -1.74,0.737z" data-name="Caminho 7292" id="Caminho_7292"/>
     <path fill="#fff" d="m129.69298,57.637a4.36,4.36 0 0 0 -1.919,0.411l-1.374,1.6l-1.056,-1.724l-2.581,0l0,12.879l3.684,0l0,-9.8a9.362,9.362 0 0 1 0.936,-0.254a3.945,3.945 0 0 1 0.815,-0.085q1.224,0 1.224,0.944l0,9.2l3.683,0l0,-8.909a5.191,5.191 0 0 0 -0.83,-3.134a2.994,2.994 0 0 0 -2.582,-1.128z" data-name="Caminho 7293" id="Caminho_7293"/>
     <path fill="#fff" d="m116.038,57.637a4.938,4.938 0 0 0 -4.1,1.755a9.531,9.531 0 0 0 0,9.962a5.569,5.569 0 0 0 8.182,0a7.938,7.938 0 0 0 1.417,-5.036a7.65,7.65 0 0 0 -1.417,-4.926a4.948,4.948 0 0 0 -4.082,-1.755zm1.677,7.057a16.46,16.46 0 0 1 -0.083,1.834a3.69,3.69 0 0 1 -0.272,1.117a1.05,1.05 0 0 1 -0.52,0.547a2.321,2.321 0 0 1 -1.617,0a1.06,1.06 0 0 1 -0.508,-0.559a3.9,3.9 0 0 1 -0.272,-1.141a17.261,17.261 0 0 1 -0.082,-1.87l0,-0.559q0,-1.116 0.07,-1.808a3.305,3.305 0 0 1 0.26,-1.081a1,1 0 0 1 0.52,-0.522a2.231,2.231 0 0 1 0.826,-0.133a2.135,2.135 0 0 1 0.814,0.133a1.056,1.056 0 0 1 0.52,0.535a3.262,3.262 0 0 1 0.272,1.105q0.071,0.7 0.071,1.87l0.001,0.532z" data-name="Caminho 7294" id="Caminho_7294"/>
    </g>
    <path fill="url(#linear-gradient-2)" d="m84.29401,67.53397a9.414,9.414 0 0 1 -4.7,-4.225c-1.827,-3.226 -1.761,-6.916 -0.066,-9.181a9.213,9.213 0 0 0 -0.916,0.465c-3.971,2.317 -5.553,7.146 -3.533,10.785a7.491,7.491 0 0 0 8.769,3.283a0.752,0.752 0 0 0 0.446,-1.127z" data-name="Caminho 7295" id="Caminho_7295"/>
   </g>
  </g>
 </g>
</svg>