<svg id="Componente_34_1" data-name="Componente 34 – 1" xmlns="http://www.w3.org/2000/svg" width="322.607" height="322.738" viewBox="0 0 322.607 322.738">
  <g id="Grupo_7541" data-name="Grupo 7541" transform="translate(145.636)">
    <path id="Caminho_9014" data-name="Caminho 9014" d="M348.467,76.688h-1.773V28.114A28.114,28.114,0,0,0,318.58,0H215.669a28.114,28.114,0,0,0-28.114,28.114V294.6a28.114,28.114,0,0,0,28.114,28.114H318.58A28.114,28.114,0,0,0,346.694,294.6V111.264h1.773Z" transform="translate(-179.306)" fill="#e6e6e6"/>
    <path id="Caminho_9015" data-name="Caminho 9015" d="M350.448,37.49V303.58a21,21,0,0,1-21,21H226.047a21,21,0,0,1-21-21V37.49a21,21,0,0,1,21-21h12.544a9.98,9.98,0,0,0,9.236,13.742h58.957a9.98,9.98,0,0,0,9.236-13.742h13.431A21,21,0,0,1,350.448,37.49Z" transform="translate(-189.044 -9.18)" fill="#fff"/>
    <path id="Caminho_9016" data-name="Caminho 9016" d="M278.476,148.719H262.6a4.941,4.941,0,0,1-4.935-4.935V127.9a4.941,4.941,0,0,1,4.935-4.935h15.88a4.941,4.941,0,0,1,4.935,4.935v15.88A4.941,4.941,0,0,1,278.476,148.719Z" transform="translate(-218.326 -68.442)" fill="#ff7d00"/>
    <path id="Caminho_9017" data-name="Caminho 9017" d="M360.78,148.719H344.9a4.94,4.94,0,0,1-4.935-4.935V127.9a4.94,4.94,0,0,1,4.935-4.935h15.88a4.94,4.94,0,0,1,4.935,4.935v15.88A4.94,4.94,0,0,1,360.78,148.719Z" transform="translate(-264.135 -68.442)" fill="#ff7d00"/>
    <path id="Caminho_9018" data-name="Caminho 9018" d="M443.084,148.719H427.2a4.941,4.941,0,0,1-4.935-4.935V127.9a4.941,4.941,0,0,1,4.935-4.935h15.88a4.941,4.941,0,0,1,4.935,4.935v15.88A4.941,4.941,0,0,1,443.084,148.719Z" transform="translate(-309.943 -68.442)" fill="#e6e6e6"/>
    <path id="Caminho_9019" data-name="Caminho 9019" d="M278.476,240.227H262.6a4.94,4.94,0,0,1-4.935-4.935v-15.88a4.94,4.94,0,0,1,4.935-4.935h15.88a4.941,4.941,0,0,1,4.935,4.935v15.88A4.94,4.94,0,0,1,278.476,240.227Z" transform="translate(-218.326 -119.375)" fill="#e6e6e6"/>
    <path id="Caminho_9020" data-name="Caminho 9020" d="M360.78,240.227H344.9a4.94,4.94,0,0,1-4.935-4.935v-15.88a4.94,4.94,0,0,1,4.935-4.935h15.88a4.94,4.94,0,0,1,4.935,4.935v15.88A4.94,4.94,0,0,1,360.78,240.227Z" transform="translate(-264.135 -119.375)" fill="#e6e6e6"/>
    <path id="Caminho_9021" data-name="Caminho 9021" d="M443.084,240.227H427.2a4.94,4.94,0,0,1-4.935-4.935v-15.88a4.94,4.94,0,0,1,4.935-4.935h15.88a4.94,4.94,0,0,1,4.935,4.935v15.88A4.94,4.94,0,0,1,443.084,240.227Z" transform="translate(-309.943 -119.375)" fill="#e6e6e6"/>
    <path id="Caminho_9022" data-name="Caminho 9022" d="M278.476,331.719H262.6a4.941,4.941,0,0,1-4.935-4.935V310.9a4.941,4.941,0,0,1,4.935-4.935h15.88a4.941,4.941,0,0,1,4.935,4.935v15.88A4.941,4.941,0,0,1,278.476,331.719Z" transform="translate(-218.326 -170.297)" fill="#e6e6e6"/>
    <path id="Caminho_9023" data-name="Caminho 9023" d="M360.78,331.719H344.9a4.94,4.94,0,0,1-4.935-4.935V310.9a4.94,4.94,0,0,1,4.935-4.935h15.88a4.94,4.94,0,0,1,4.935,4.935v15.88A4.94,4.94,0,0,1,360.78,331.719Z" transform="translate(-264.135 -170.297)" fill="#e6e6e6"/>
    <path id="Caminho_9024" data-name="Caminho 9024" d="M443.084,331.719H427.2a4.941,4.941,0,0,1-4.935-4.935V310.9a4.941,4.941,0,0,1,4.935-4.935h15.88a4.941,4.941,0,0,1,4.935,4.935v15.88A4.941,4.941,0,0,1,443.084,331.719Z" transform="translate(-309.943 -170.297)" fill="#e6e6e6"/>
    <path id="Caminho_9025" data-name="Caminho 9025" d="M278.476,423.227H262.6a4.94,4.94,0,0,1-4.935-4.935v-15.88a4.94,4.94,0,0,1,4.935-4.935h15.88a4.941,4.941,0,0,1,4.935,4.935v15.88A4.941,4.941,0,0,1,278.476,423.227Z" transform="translate(-218.326 -221.229)" fill="#e6e6e6"/>
    <path id="Caminho_9026" data-name="Caminho 9026" d="M360.78,423.227H344.9a4.94,4.94,0,0,1-4.935-4.935v-15.88a4.94,4.94,0,0,1,4.935-4.935h15.88a4.94,4.94,0,0,1,4.935,4.935v15.88A4.94,4.94,0,0,1,360.78,423.227Z" transform="translate(-264.135 -221.229)" fill="#e6e6e6"/>
    <path id="Caminho_9027" data-name="Caminho 9027" d="M443.084,423.227H427.2a4.941,4.941,0,0,1-4.935-4.935v-15.88a4.94,4.94,0,0,1,4.935-4.935h15.88a4.94,4.94,0,0,1,4.935,4.935v15.88A4.941,4.941,0,0,1,443.084,423.227Z" transform="translate(-309.943 -221.229)" fill="#e6e6e6"/>
    <path id="Caminho_9028" data-name="Caminho 9028" d="M383.536,412.059h-15.88A5.162,5.162,0,0,1,362.5,406.9v-15.88a5.162,5.162,0,0,1,5.156-5.156h15.88a5.163,5.163,0,0,1,5.157,5.156V406.9A5.163,5.163,0,0,1,383.536,412.059Z" transform="translate(-276.677 -214.766)" fill="#ff7d00"/>
    <path id="Caminho_9029" data-name="Caminho 9029" d="M232.1,486.685a4.586,4.586,0,0,0,1.64-6.838l3.429-33.527h-7.411l-2.725,32.738a4.611,4.611,0,0,0,5.067,7.628Z" transform="translate(-200.372 -248.414)" fill="#ffb8b8"/>
    <ellipse id="Elipse_1173" data-name="Elipse 1173" cx="10.485" cy="10.485" rx="10.485" ry="10.485" transform="translate(28.044 158.434)" fill="#ffb8b8"/>
    <path id="Caminho_9030" data-name="Caminho 9030" d="M248.211,446.4a1.917,1.917,0,0,1-1.848-1.408c-.84-3.052-3.025-8.212-6.5-15.337a12.7,12.7,0,0,1,7.215-17.541h0a12.7,12.7,0,0,1,16.2,7.746q.061.171.116.344c2.69,8.432,2.56,17.465,2.379,20.957a1.926,1.926,0,0,1-1.509,1.778l-15.648,3.417A1.919,1.919,0,0,1,248.211,446.4Z" transform="translate(-207.709 -228.971)" fill="#ccc"/>
    <path id="Caminho_9031" data-name="Caminho 9031" d="M294.465,689.546H299.7l2.49-20.186h-7.724Z" transform="translate(-238.809 -372.553)" fill="#ffb8b8"/>
    <path id="Caminho_9032" data-name="Caminho 9032" d="M308.385,717.865H291.937v-6.355H302.03a6.355,6.355,0,0,1,6.355,6.355Z" transform="translate(-237.403 -396.014)" fill="#2f2e41"/>
    <path id="Caminho_9033" data-name="Caminho 9033" d="M176.447,677.384l4.586,2.521,11.908-16.489-6.769-3.721Z" transform="translate(-173.123 -367.174)" fill="#ffb8b8"/>
    <path id="Caminho_9034" data-name="Caminho 9034" d="M183.364,708.907l-14.413-7.924h0l3.061-5.569h0l8.845,4.862a6.355,6.355,0,0,1,2.507,8.63Z" transform="translate(-168.951 -387.055)" fill="#2f2e41"/>
    <path id="Caminho_9035" data-name="Caminho 9035" d="M234.584,570.369a1.921,1.921,0,0,1-1.9-1.673l-6.545-50.435a1.067,1.067,0,0,0-1.993-.378L196.866,567.37a1.932,1.932,0,0,1-2.366.868l-5.946-2.265a1.921,1.921,0,0,1-1.111-2.479c0-.014.01-.027.016-.041l18.9-46.418a1.484,1.484,0,0,0,.1-.368c2.559-19.809,9.071-29.882,11.006-32.5a1.486,1.486,0,0,0,.212-1.354l-.266-.8a1.919,1.919,0,0,1,.369-1.868c6.971-7.941,19.123-3.608,19.245-3.563l.061.023.038.052c13.625,18.686,8.587,79.376,7.439,91.352a1.916,1.916,0,0,1-1.765,1.729l-8.057.62C234.683,570.367,234.634,570.369,234.584,570.369Z" transform="translate(-179.173 -264.581)" fill="#2f2e41"/>
    <path id="Caminho_9036" data-name="Caminho 9036" d="M313.059,404.071a4.486,4.486,0,0,0-.1.7L294.619,415.35l-4.457-2.566L285.41,419l7.449,5.309a3.414,3.414,0,0,0,4.1-.1l18.91-14.917a4.48,4.48,0,1,0-2.807-5.226Z" transform="translate(-233.77 -222.974)" fill="#ffb8b8"/>
    <path id="Caminho_9037" data-name="Caminho 9037" d="M282.715,424.1l-5.927,7.681a1.921,1.921,0,0,1-2.694.348,1.888,1.888,0,0,1-.21-.188l-6.709-6.967a5.335,5.335,0,0,1,6.543-8.428l8.415,4.706a1.923,1.923,0,0,1,.583,2.85Z" transform="translate(-222.479 -231.225)" fill="#ccc"/>
    <path id="Caminho_9038" data-name="Caminho 9038" d="M239.024,442.8l-9.547-1.724a1.92,1.92,0,0,1-1.479-2.5l3.1-9.164a5.335,5.335,0,0,1,10.494,1.927l-.3,9.637a1.92,1.92,0,0,1-2.261,1.829Z" transform="translate(-201.759 -236.573)" fill="#ccc"/>
    <path id="Caminho_9039" data-name="Caminho 9039" d="M212.222,359.27c2.695,1.844,6.233,3.74,8.985,1.776a5.01,5.01,0,0,0,1.644-5.774c-1.318-3.769-4.939-5.428-8.4-6.7-4.5-1.654-9.4-2.969-14.049-1.785s-8.754,5.683-7.915,10.4c.674,3.8,4.256,6.956,3.748,10.779-.512,3.847-4.838,5.872-8.658,6.56s-8.094.908-10.839,3.652c-3.5,3.5-2.627,9.756.668,13.451s8.267,5.37,13.085,6.509c6.384,1.509,13.288,2.3,19.352-.2s10.781-9.244,9.024-15.564c-.742-2.67-2.489-4.926-4.178-7.122s-3.4-4.494-4.044-7.188a7.472,7.472,0,0,1,1.35-6.538,1.894,1.894,0,0,0,.254-2.214Z" transform="translate(-172.034 -192.763)" fill="#2f2e41"/>
    <path id="Caminho_9040" data-name="Caminho 9040" d="M489.93,690.139h-5.436l-2.586-20.968h8.023Z" transform="translate(-343.137 -372.449)" fill="#ffb8b8"/>
    <path id="Caminho_9041" data-name="Caminho 9041" d="M470.7,712.956h10.484v6.6H464.1A6.6,6.6,0,0,1,470.7,712.956Z" transform="translate(-333.223 -396.819)" fill="#2f2e41"/>
    <path id="Caminho_9042" data-name="Caminho 9042" d="M535.93,690.139h-5.436l-2.586-20.968h8.023Z" transform="translate(-368.74 -372.449)" fill="#ffb8b8"/>
    <path id="Caminho_9043" data-name="Caminho 9043" d="M516.7,712.956h10.484v6.6H510.1A6.6,6.6,0,0,1,516.7,712.956Z" transform="translate(-358.826 -396.819)" fill="#2f2e41"/>
    <path id="Caminho_9044" data-name="Caminho 9044" d="M538.862,502.764a4.761,4.761,0,0,1-.914-7.247l-3.58-50.8,10.311,1,.283,49.745a4.789,4.789,0,0,1-6.1,7.3Z" transform="translate(-372.336 -247.523)" fill="#ffb8b8"/>
    <path id="Caminho_9045" data-name="Caminho 9045" d="M489,611.266l-5.984-.285a1.994,1.994,0,0,1-1.9-1.979L480.7,548.45a1.994,1.994,0,0,1,2.282-1.989l23.942,3.476a1.984,1.984,0,0,1,1.709,1.96L511.709,608a2,2,0,0,1-1.981,2.01h-6.466a1.986,1.986,0,0,1-1.971-1.685l-3.981-25.3a1.552,1.552,0,0,0-3.074.057l-3.16,26.429a2,2,0,0,1-1.981,1.759Z" transform="translate(-342.463 -304.139)" fill="#2f2e41"/>
    <path id="Caminho_9046" data-name="Caminho 9046" d="M492.388,481.481a30.11,30.11,0,0,0-11.387-3.9,1.96,1.96,0,0,1-1.354-.742,1.987,1.987,0,0,1-.413-1.509l5.737-42.59a14.729,14.729,0,0,1,8.586-11.51,14.324,14.324,0,0,1,13.922,1.091q.295.2.579.4a14.712,14.712,0,0,1,5.6,15.33c-3.518,14.391-4.726,37.984-4.933,42.568a1.98,1.98,0,0,1-1.294,1.776,19.991,19.991,0,0,1-6.752,1.2A16.907,16.907,0,0,1,492.388,481.481Z" transform="translate(-341.638 -233.72)" fill="#ff7d00"/>
    <path id="Caminho_9047" data-name="Caminho 9047" d="M537.638,456.854a1.988,1.988,0,0,1-.824-1.508l-.755-13.691a5.5,5.5,0,0,1,10.8-1.741l3.319,12.241a2,2,0,0,1-1.4,2.448l-9.441,2.559A1.988,1.988,0,0,1,537.638,456.854Z" transform="translate(-373.272 -242.589)" fill="#ff7d00"/>
    <ellipse id="Elipse_1174" data-name="Elipse 1174" cx="10.891" cy="10.891" rx="10.891" ry="10.891" transform="translate(144.657 159.945)" fill="#ffb8b8"/>
    <path id="Caminho_9048" data-name="Caminho 9048" d="M419.209,429.016a4.63,4.63,0,0,1,.106.727l19.048,10.989,4.63-2.665,4.936,6.462-9.9,7.059-21.731-17.143a4.654,4.654,0,1,1,2.75-5.98A4.582,4.582,0,0,1,419.209,429.016Z" transform="translate(-303.127 -236.784)" fill="#ffb8b8"/>
    <path id="Caminho_9049" data-name="Caminho 9049" d="M475.457,441.614a1.987,1.987,0,0,1,.573-1.62l9.694-9.7a5.5,5.5,0,0,1,8.5,6.881l-6.9,10.638a2,2,0,0,1-2.76.587l-8.205-5.325A1.987,1.987,0,0,1,475.457,441.614Z" transform="translate(-339.54 -238.599)" fill="#ff7d00"/>
    <path id="Caminho_9050" data-name="Caminho 9050" d="M511.7,374.167a3.518,3.518,0,0,1-6.07-1.954,3.556,3.556,0,0,1,0-.69c.137-1.309.893-2.5.712-3.881a2.04,2.04,0,0,0-.372-.953c-1.619-2.168-5.419.97-6.948-.993-.937-1.2.164-3.1-.555-4.443-.949-1.775-3.76-.9-5.522-1.872-1.961-1.082-1.844-4.091-.553-5.921a9.315,9.315,0,0,1,7.061-3.594,18.939,18.939,0,0,1,7.978,1.557c2.891,1.127,5.759,2.684,7.538,5.227,2.164,3.092,2.372,7.249,1.29,10.864C515.61,369.713,513.363,372.4,511.7,374.167Z" transform="translate(-348.45 -194.715)" fill="#2f2e41"/>
    <g id="Grupo_6106" data-name="Grupo 6106" transform="translate(90.16 175.164)">
      <path id="Caminho_7283" data-name="Caminho 7283" d="M381.856,403.122a7.434,7.434,0,0,1,3.222-3.765c2.461-1.465,5.275-1.412,7-.053a7.609,7.609,0,0,0-.355-.734c-1.768-3.184-5.451-4.452-8.226-2.832a6.146,6.146,0,0,0-2.5,7.03.565.565,0,0,0,.858.356Z" transform="translate(-376.991 -395.033)" fill="#fff"/>
      <path id="Caminho_7284" data-name="Caminho 7284" d="M393.879,403.983a7.361,7.361,0,0,1,3.675,3.3c1.428,2.523,1.377,5.407.051,7.178a7.2,7.2,0,0,0,.716-.364c3.105-1.812,4.342-5.588,2.763-8.433a5.857,5.857,0,0,0-6.857-2.567.588.588,0,0,0-.419.718A.6.6,0,0,0,393.879,403.983Z" transform="translate(-384.251 -399.361)" fill="#272626"/>
      <path id="Caminho_7285" data-name="Caminho 7285" d="M387.983,416.479a7.437,7.437,0,0,1-3.222,3.766c-2.461,1.465-5.276,1.412-7,.053a7.583,7.583,0,0,0,.355.734c1.768,3.184,5.45,4.451,8.225,2.832a6.146,6.146,0,0,0,2.5-7.029.565.565,0,0,0-.672-.433A.571.571,0,0,0,387.983,416.479Z" transform="translate(-375.329 -406.919)" fill="#fff"/>
      <path id="Caminho_7286" data-name="Caminho 7286" d="M380.172,411.254a7.361,7.361,0,0,1-3.675-3.3c-1.429-2.523-1.377-5.408-.051-7.179a7.186,7.186,0,0,0-.717.364c-3.1,1.812-4.342,5.588-2.763,8.433a5.857,5.857,0,0,0,6.857,2.567.588.588,0,0,0,.419-.718A.594.594,0,0,0,380.172,411.254Z" transform="translate(-372.28 -398.227)" fill="#272626"/>
    </g>
  </g>
  <g id="Grupo_7543" data-name="Grupo 7543" transform="translate(39.905 9.955)">
    <path id="Caminho_9095" data-name="Caminho 9095" d="M818.388,445.856h16.921c1.68.518,2.239,1.275,2.242,3.084q.012,7.126,0,14.251c0,.251-.007.5.006.753.03.567.178.719.73.754.251.016.5.007.753.007q7.068,0,14.135,0a3.976,3.976,0,0,1,2.395.721,2.005,2.005,0,0,1,.885,1.727q.008,8.313,0,16.626a2.175,2.175,0,0,1-1.32,2.011,4.2,4.2,0,0,1-2.014.444q-7.126,0-14.251,0c-1.3,0-1.321.018-1.322,1.332q0,7.3,0,14.6a3.108,3.108,0,0,1-1.338,2.677,2.768,2.768,0,0,1-1.7.467c-5.117.009-10.234.019-15.352,0a2.885,2.885,0,0,1-3.017-3.1c-.019-4.75-.005-9.5-.007-14.251,0-.251,0-.5,0-.753-.013-.839-.136-.969-.986-.97q-7.3-.01-14.6,0a4.028,4.028,0,0,1-2.112-.509,2.3,2.3,0,0,1-1.286-1.872.883.883,0,0,0-.1-.445v-.232a.891.891,0,0,0,.056-.508q0-7.2,0-14.4a.891.891,0,0,0-.056-.508v-.232c.168-.466.093-1,.407-1.427a3.393,3.393,0,0,1,2.678-1.384c.577-.037,1.157-.012,1.736-.012h12.963a6.528,6.528,0,0,0,.752-.02.542.542,0,0,0,.524-.521,6.447,6.447,0,0,0,.02-.752q0-7.263,0-14.526a3.27,3.27,0,0,1,.352-1.675A2.488,2.488,0,0,1,818.388,445.856Z" transform="translate(-797.063 -445.856)" fill="#ff7d00"/>
  </g>
  <g id="Grupo_7545" data-name="Grupo 7545" transform="translate(99.303 173.882)">
    <path id="Caminho_9095-2" data-name="Caminho 9095" d="M805.586,445.856h6.763a1.074,1.074,0,0,1,.9,1.232q0,2.848,0,5.7c0,.1,0,.2,0,.3.012.227.071.287.292.3.1.006.2,0,.3,0h5.65a1.589,1.589,0,0,1,.957.288.8.8,0,0,1,.354.69q0,3.323,0,6.645a.869.869,0,0,1-.528.8,1.68,1.68,0,0,1-.8.177h-5.7c-.521,0-.528.007-.528.533q0,2.917,0,5.835a1.242,1.242,0,0,1-.535,1.07,1.107,1.107,0,0,1-.679.187c-2.045,0-4.091.008-6.136,0a1.153,1.153,0,0,1-1.206-1.237c-.008-1.9,0-3.8,0-5.7,0-.1,0-.2,0-.3-.005-.335-.054-.387-.394-.388q-2.917,0-5.835,0a1.609,1.609,0,0,1-.844-.2.917.917,0,0,1-.514-.748.353.353,0,0,0-.038-.178v-.093a.356.356,0,0,0,.022-.2q0-2.877,0-5.755a.356.356,0,0,0-.022-.2v-.093c.067-.186.037-.4.163-.571a1.356,1.356,0,0,1,1.07-.553c.231-.015.462,0,.694,0h5.181a2.609,2.609,0,0,0,.3-.008.217.217,0,0,0,.21-.208,2.584,2.584,0,0,0,.008-.3q0-2.9,0-5.806a1.306,1.306,0,0,1,.141-.669A1,1,0,0,1,805.586,445.856Z" transform="translate(-797.063 -445.856)" fill="#ff7d00"/>
  </g>
  <g id="Grupo_7544" data-name="Grupo 7544" transform="matrix(0.951, -0.309, 0.309, 0.951, 0, 118.858)">
    <path id="Caminho_9096" data-name="Caminho 9096" d="M94.221,42.492H4.241A4.689,4.689,0,0,1,.466,39.876a5.426,5.426,0,0,1-.447-2.622Q-.018,19.15.005,1.045A1.188,1.188,0,0,1,.161.213,4.266,4.266,0,0,1,2.15.025Q30.66.014,59.171.019q18.686,0,37.372.006a4.011,4.011,0,0,1,1.893.19c.218.287.116.62.116.93q.009,17.942,0,35.885c0,1.662-.2,3.231-1.593,4.447A6.183,6.183,0,0,1,94.221,42.492Z" transform="translate(0 20.356)" fill="#ff7d00"/>
    <path id="Caminho_9097" data-name="Caminho 9097" d="M98.194.59V13.807c-.446.036-.891.1-1.337.1q-47.76.008-95.52,0c-.446,0-.891-.067-1.337-.1V.589A1,1,0,0,1,.938.032C1.484,0,2.029,0,2.575,0Q49.1,0,95.621,0c.546,0,1.091,0,1.637.032A1,1,0,0,1,98.194.59Z" transform="translate(0.23 6.884)" fill="#3a556a"/>
    <path id="Caminho_9098" data-name="Caminho 9098" d="M13.594,16.712q-5.2,0-10.4,0c-2.179,0-3.185-1.005-3.188-3.178q-.01-5.2,0-10.4C.011,1.063,1.017.015,3.063.011q10.545-.022,21.09,0c2.018,0,3.018,1.03,3.023,3.036q.014,5.346,0,10.693a2.675,2.675,0,0,1-2.988,2.968C20.657,16.721,17.125,16.712,13.594,16.712Z" transform="translate(10.031 36.487)" fill="#fbd362"/>
    <path id="Caminho_9099" data-name="Caminho 9099" d="M11.429,4.093c-3.465,0-6.93-.017-10.394.014C.331,4.113.017,3.929.1,3.192.21,2.217-.323.971.336.326.95-.275,2.173.14,3.126.137,9.35.12,15.573.144,21.8.111c.87,0,1.244.224,1.135,1.127s.388,2.088-.234,2.685c-.57.548-1.716.156-2.607.163C17.2,4.106,14.316,4.093,11.429,4.093Z" transform="translate(44.059 42.739)" fill="#e0e5e8"/>
    <path id="Caminho_9100" data-name="Caminho 9100" d="M3.462,3.967c-.93,0-1.86-.019-2.789.007C.174,3.987-.013,3.8,0,3.3Q.039,2,0,.7C-.012.227.134,0,.648,0c1.86.016,3.719.013,5.579,0,.482,0,.7.182.689.681-.02.865-.028,1.733,0,2.6.02.575-.257.706-.763.693C5.259,3.95,4.36,3.967,3.462,3.967Z" transform="translate(70.897 42.864)" fill="#dfe5e8"/>
    <path id="Caminho_9101" data-name="Caminho 9101" d="M3.42,3.971c-.9,0-1.8-.022-2.7.008C.179,4-.019,3.791,0,3.25c.031-.834.031-1.671,0-2.5C-.018.216.159-.006.711,0c1.83.021,3.66.017,5.49,0,.529,0,.762.188.727.735-.064,1.021.4,2.3-.175,3s-1.874.148-2.852.235C3.742,3.983,3.58,3.971,3.42,3.971Z" transform="translate(81.693 42.861)" fill="#dfe5e8"/>
    <path id="Caminho_9102" data-name="Caminho 9102" d="M64.018,0c2.917.013,5.833.034,8.75.037Q82.385.045,92,.039c4.155,0,6.219,2.053,6.22,6.186,0,.417-.009.833-.013,1.25-.446-.034-.892-.1-1.338-.1q-47.759-.007-95.519,0c-.446,0-.892.064-1.338.1C.01,6.864-.007,6.255,0,5.647A5.333,5.333,0,0,1,5.641.045C10.128.021,14.614.044,19.1.037Q26.646.027,34.191,0" transform="translate(0.215 0)" fill="#ff7d00"/>
  </g>
</svg>
