<svg height="1284.37" viewBox="0 0 1673.744 1284.37" width="1673.744" xmlns="http://www.w3.org/2000/svg"><path d="m916.7 56.961c-80.331 20.868-151.187 76.582-221.617 149.673a120.174 120.174 0 0 1 -157.447 181.5c-82.728 98.827-173.059 203.3-283.307 289.65-280.707 219.857 296.557 620.823 662.371 620.823s662.371-277.953 662.371-620.823-309.841-712.403-662.371-620.823z" fill="#f2f2f2" transform="translate(-5.577 -42.8)"/><circle cx="605.407" cy="247.917" fill="#ff6584" r="85.659"/><ellipse cx="1424.719" cy="1122.339" fill="#3f3d56" rx="227.763" ry="29.557"/><ellipse cx="618.835" cy="1254.813" fill="#3f3d56" rx="227.763" ry="29.557"/><path d="m980.71 699.156s12.238 42.155 20.4 53.034 14.958 28.557 10.879 31.277-12.239 35.356-1.36 36.716 35.356-35.356 36.716-47.594 6.8-55.754 6.8-55.754 9.519-38.076-5.439-40.8-38.076-4.08-38.076-4.08z" fill="#2f2e41" transform="translate(456.573 320.271)"/><path d="m955.147 717.658s-17.678 46.235-21.757 48.954-19.038 27.2 10.879 27.2 46.235-8.159 46.235-8.159l9.519-10.879s0-28.557-2.72-32.636 0-24.477 0-24.477z" fill="#2f2e41" transform="translate(425.022 346.643)"/><path d="m871.607 456.7s-21.758 146.863-2.72 194.458 38.076 61.193 38.076 61.193l144.143 134.629s44.875-23.117 40.8-38.076c0 0-9.519-5.439-10.879-9.519s-19.038-5.439-19.038-5.439-8.159-9.519-8.159-14.958-70.716-101.988-93.83-108.788c0 0-12.238-14.958-10.879-17.678s-4.08-12.239-4.08-12.239l13.6-53.034 85.67-13.6s35.356-125.106 5.439-134.625-178.143 17.676-178.143 17.676z" fill="#2f2e41" transform="translate(387.536 184.686)"/><path d="m1005.432 509.854 2.72 21.758s0 57.113-2.72 62.553-4.08 13.6 0 19.038 10.879 19.038 8.159 24.477 5.439 159.1-5.439 169.98-6.8 24.477-5.44 25.837-1.36 6.8-1.36 6.8-55.754 9.519-51.674 0 4.079-14.958 6.8-17.678 0-6.8 0-6.8 4.079-43.515 0-46.234-16.318-133.266-16.318-134.626-4.08-4.079-4.08-9.519 0-23.117-6.8-25.837-5.439-69.352-5.439-69.352z" fill="#2f2e41" transform="translate(423.691 226.725)"/><path d="m938.7 202.027s5.44 40.8 21.758 48.954 27.2 12.239 27.2 12.239l-13.6 47.6-5.439 40.8h-62.557l-34-27.2 10.879-44.875 5.439-8.159s6.8-29.917 1.36-39.435 48.96-29.924 48.96-29.924z" fill="#ffb9b9" transform="translate(393.877 49.086)"/><path d="m927.921 281.89 9.519 17.678s6.8-24.477 16.318-28.557 32.636-10.879 32.636-16.318-1.36-19.038 4.08-19.038 58.473 16.318 66.632 21.757 9.519 10.879 9.519 10.879l-14.958 156.382s21.758 73.432 14.958 101.988-12.238 32.636-28.557 36.716-6.8-9.519-54.394 4.08-77.511 9.519-88.39 9.519-17.678 5.439-20.4 6.8-1.36-6.8 8.159-19.038 5.439-32.636 5.439-32.636-10.879-35.356-4.079-48.955 16.318-31.277 8.159-36.716-19.035-46.231-19.035-46.231l-29.916-106.071 61.189-42.155s-2.72 19.038 6.8 23.117 16.321 6.799 16.321 6.799z" fill="#575a89" transform="translate(377.456 68.492)"/><path d="m856.746 271.87h-8.16s-13.6 23.117-13.6 39.435 6.8 108.788 6.8 108.788l39.436 40.8 9.519-31.277 2.72-69.352z" fill="#575a89" transform="translate(372.48 89.39)"/><path d="m878.514 364.687s-44.874-12.239-43.514 6.8 8.159 42.155 29.916 47.595 28.557-24.482 28.557-24.482 2.719-27.194-14.959-29.913z" fill="#575a89" transform="translate(372.47 140.718)"/><path d="m976.467 402.934s-2.72 62.553-19.038 69.352l39.435 9.519s19.038-65.272 16.318-67.992-36.715-10.879-36.715-10.879z" fill="#ffb9b9" transform="translate(443.138 165.024)"/><path d="m3.589 0h25.484a3.589 3.589 0 0 1 3.589 3.589v64.855a4.384 4.384 0 0 1 -4.384 4.384h-23.894a4.384 4.384 0 0 1 -4.384-4.384v-64.855a3.589 3.589 0 0 1 3.589-3.589z" fill="#2f2e41" transform="matrix(.9163767 -.40031705 .40031705 .9163767 1183.079949 442.064109)"/><path d="m3.589 0h25.484a3.589 3.589 0 0 1 3.589 3.589v64.855a4.384 4.384 0 0 1 -4.384 4.384h-23.894a4.384 4.384 0 0 1 -4.384-4.384v-64.855a3.589 3.589 0 0 1 3.589-3.589z" opacity=".1" transform="matrix(.9163767 -.40031705 .40031705 .9163767 1183.079949 442.064109)"/><path d="m3.59 0h22.219a3.589 3.589 0 0 1 3.591 3.59v61.544a4.384 4.384 0 0 1 -4.384 4.384h-20.632a4.384 4.384 0 0 1 -4.384-4.384v-61.545a3.589 3.589 0 0 1 3.589-3.589z" fill="#2f2e41" transform="matrix(.9163767 -.40031705 .40031705 .9163767 1184.404054 445.096791)"/><ellipse cx="6.532" cy="6.621" fill="#f2f2f2" rx="6.532" ry="6.621" transform="matrix(.9163767 -.40031705 .40031705 .9163767 1195.131183 458.199139)"/><path d="m989.651 272.717 8.839-12.917s32.636 50.314 29.917 84.31-5.439 35.356-5.439 40.8-6.8 5.439 0 12.239 16.318 16.318 10.879 21.758-9.519 5.439-8.16 12.239a89.865 89.865 0 0 1 1.36 14.958s-11.559 22.438-15.638 22.438-42.835 36.036-42.835 31.956 4.079-32.636 4.079-36.716 1.36-17.678 4.08-21.758 2.72-2.72 0-6.8-2.72 0-2.72-4.08 1.36-9.519-2.719-10.879-8.159 0-5.44-6.8 0-12.239-1.359-12.239-8.159-1.36-4.08-5.439-8.159-82.951-8.159-82.951 2.044-19.721 37.395-40.119z" opacity=".1" transform="translate(440.153 82.424)"/><path d="m980.433 249.452 23.117 10.879s32.636 50.314 29.917 84.311-5.439 35.356-5.439 40.8-6.8 5.439 0 12.239 16.318 16.318 10.879 21.757-9.519 5.439-8.159 12.239a89.929 89.929 0 0 1 1.359 14.958s-12.238 65.273-16.318 65.273-42.155-6.8-42.155-10.879 4.079-32.636 4.079-36.716 1.36-17.678 4.08-21.757 2.719-2.72 0-6.8-2.72 0-2.72-4.08 1.36-9.519-2.719-10.879-8.159 0-5.44-6.8 0-12.239-1.36-12.239-8.159-1.36-4.08-5.439-8.159-82.951-8.159-82.951-12.238-43.52 23.118-63.916z" fill="#575a89" transform="translate(441.891 76.454)"/><path d="m847.886 388.915a5.7 5.7 0 0 1 -6.556-2.958c-6.249-12.494-23.18-49.141-7.4-50.269 14.561-1.04 27.531 27.353 32.826 40.764a6.478 6.478 0 0 1 -4.379 8.648z" fill="#ffb9b9" transform="translate(368.095 126.202)"/><circle cx="1294.498" cy="238.874" fill="#ffb9b9" r="50.314"/><path d="m891.624 191.993a99.123 99.123 0 0 1 -19.343 4.566c-4.955.773-10.754 1.169-14.237-2.44-3.418-3.542-2.864-9.449-.533-13.784s6.066-7.733 8.867-11.78c4.406-6.365 7.007-14.8 14.052-18.008a25.85 25.85 0 0 1 9.145-1.708c18.283-1.166 37.313-2.216 54.245 4.78a39.925 39.925 0 0 1 16.373 11.65 43.459 43.459 0 0 1 6.545 12.69 82.816 82.816 0 0 1 -14.9 79.524c-6.17-5.559-3.487-18.405-11.294-21.238-2.561-.929-5.457-.283-8.081-1.018-8.246-2.312-7.832-15.056-14.7-20.176a13.1 13.1 0 0 1 -3.909-3.212 7.989 7.989 0 0 1 -.761-4.051c-.051-4.774 2.192-16.9-2.362-20.173-4.631-3.333-14.653 2.769-19.107 4.378z" fill="#2f2e41" transform="translate(384.387 17.905)"/><path d="m499.815 59h414.77v217.636h-29.964v80.431l-80.431-80.431h-304.375z" fill="#001f40" transform="translate(288.43 34.047)"/><path d="m719.133 234.43-7.319-6.6c-25.989-23.862-43.148-39.349-43.148-58.642a27.445 27.445 0 0 1 27.756-27.925 29.854 29.854 0 0 1 22.71 10.663 29.854 29.854 0 0 1 22.71-10.663 27.446 27.446 0 0 1 27.758 27.924c0 19.293-17.158 34.78-43.148 58.642z" fill="#fff" transform="translate(276.498 14.019)"/><path d="m0 438.987 398.99-113.319 59.46 209.357-28.824 8.187 21.974 77.37-99.346-55.4-292.794 83.161z" fill="#ff7d00" transform="translate(0 187.934)"/><path d="m247.486 534.665-8.844-4.352c-31.52-15.854-52.257-26.064-57.527-44.623a27.446 27.446 0 0 1 19.071-34.446 29.855 29.855 0 0 1 24.759 4.052 29.853 29.853 0 0 1 18.933-16.462 27.446 27.446 0 0 1 34.33 19.279c5.271 18.559-7 38.145-25.485 68.2z" fill="#fff" transform="translate(-5.534 185.088)"/><path d="m378.429 363.751s-13.486 40.459-5.994 49.45-44.954-26.973-44.954-26.973l28.471-32.967z" fill="#a0616a" transform="translate(79.611 136.36)"/><circle cx="427.284" cy="432.766" fill="#2f2e41" r="67.279"/><path d="m456.5 616.381-34.464 26.973-19.48-31.467 34.464-23.977z" fill="#a0616a" transform="translate(232.304 339.267)"/><path d="m496.719 779.155 8.991 43.456 25.474 34.465s68.93 20.979 22.477 31.468-56.942-7.492-56.942-7.492l-32.966-28.472v38.96h-20.979l-4.5-55.444s-3-16.483 10.49-34.465l3-26.973z" fill="#2f2e41" transform="translate(143.386 379.537)"/><path d="m384.2 441.337 11.987 68.929s127.371-13.486 136.362 11.988 11.988 32.966 11.988 32.966l-25.474 8.991-11.988-22.477a28.461 28.461 0 0 0 -22.477 1.5c-11.988 5.994-116.881 20.979-124.374 1.5s-28.471-91.407-28.471-91.407l31.468-25.474z" fill="#a0616a" transform="translate(82.078 179.402)"/><path d="m384.2 441.337 11.987 68.929s127.371-13.486 136.362 11.988 11.988 32.966 11.988 32.966l-25.474 8.991-11.988-22.477a28.461 28.461 0 0 0 -22.477 1.5c-11.988 5.994-116.881 20.979-124.374 1.5s-28.471-91.407-28.471-91.407l31.468-25.474z" opacity=".1" transform="translate(82.078 179.402)"/><path d="m409.669 571 10.489 35.963 26.973 137.86s3 101.9 7.492 113.884 4.5 13.486 0 17.982-13.486 19.48 0 28.471 61.438 19.48 62.936 8.991 1.5-26.973 0-34.465 4.5-124.374 4.5-124.374l-17.986-178.32-61.437-28.471z" fill="#2f2e41" transform="translate(127.04 249.039)"/><path d="m409.669 571 10.489 35.963 26.973 137.86s3 101.9 7.492 113.884 4.5 13.486 0 17.982-13.486 19.48 0 28.471 61.438 19.48 62.936 8.991 1.5-26.973 0-34.465 4.5-124.374 4.5-124.374l-17.986-178.32-61.437-28.471z" opacity=".1" transform="translate(127.04 249.039)"/><path d="m487.263 473.458 32.967 62.936s188.809 83.915 172.325 118.38-107.891 98.9-107.891 98.9-4.5 25.474-17.982 17.982-46.452-46.456-43.456-50.949 13.486-14.985 17.982-13.486 56.942-38.961 56.942-38.961l-89.909-22.477s-107.89-3-113.884-53.945 0-59.939 0-59.939l-7.492-16.483 61.435-37.462z" fill="#2f2e41" transform="translate(113.88 205.722)"/><path d="m523.846 631.185-31.467 28.471s-26.973-11.988-43.456-7.492-44.954 7.492-44.954 7.492l4.5 25.474 38.232-7.054-30.74 43.017s0 67.431 19.48 67.431 13.486-40.459 13.486-40.459l59.939-46.453s29.97-11.988 32.966-11.988-17.986-58.439-17.986-58.439z" fill="#2f2e41" transform="translate(123.75 296.742)"/><circle cx="452.046" cy="461.15" fill="#a0616a" r="50.948"/><path d="m325.9 361.363s23.975-5.994 31.468 0 8.991 19.48 19.48 20.979 19.48 1.5 20.979 3 35.964 43.456 35.964 43.456 20.979 11.988 25.474 28.471 49.45 71.927 55.444 77.921-38.961 35.963-53.945 46.453-58.441 14.985-71.927-8.991-86.911-179.82-62.937-211.289z" fill="#575a89" transform="translate(75.945 139.497)"/><path d="m379.452 427.084 11.988 68.93s127.371-13.487 136.36 11.986 11.988 32.966 11.988 32.966l-25.474 8.991-11.988-22.477a28.461 28.461 0 0 0 -22.477 1.5c-11.988 5.994-116.881 20.979-124.374 1.5s-28.475-91.408-28.475-91.408l31.473-25.472z" fill="#a0616a" transform="translate(79.337 171.178)"/><path d="m358.79 366.6s36.128 76.112 33.131 97.09-13.486 5.994-13.486 5.994-13.486-20.979-19.48-8.991-13.486 28.471-19.48 26.973-38.961-112.388-20.975-122.878 40.29 1.812 40.29 1.812z" fill="#575a89" transform="translate(71.362 140.567)"/><circle cx="354.398" cy="344.184" fill="#2f2e41" r="67.279"/><path d="m268.3 319.389a67.283 67.283 0 0 0 103.9-35.327 67.283 67.283 0 1 1 -131.243-27.59 67.257 67.257 0 0 0 27.343 62.917z" fill="#2f2e41" transform="translate(28.065 80.505)"/><circle cx="409.344" cy="443.979" fill="#2f2e41" r="49.338"/><ellipse cx="450.831" cy="425.479" fill="#2f2e41" rx="43.731" ry="34.2"/><ellipse cx="452.795" cy="466.396" fill="#a0616a" rx="9.74" ry="17.233"/><path d="m441.635 504.044s26.527-15.219 31.452-11.4 7.113 15.756 7.113 15.756l-30.659 12.034-8.991-16.484z" fill="#2f2e41" transform="translate(144.86 216.437)"/><g fill="#3f3d56"><path d="m0 183.087v-183.087" stroke="#3f3d56" stroke-miterlimit="10" stroke-width="2" transform="translate(460.084 1056.745)"/><circle cx="460.084" cy="1056.745" r="25.891"/><path d="m390.18 810.416s-3.7-79.552-79.523-70.305" transform="translate(69.903 359.168)"/><path d="m0 183.087v-183.087" stroke="#3f3d56" stroke-miterlimit="10" stroke-width="2" transform="translate(1248.621 921.117)"/><circle cx="1248.621" cy="921.116" r="25.891"/><path d="m890.181 724.416s-3.7-79.552-79.523-70.305" transform="translate(358.44 309.54)"/><path d="m0 366.176v-366.176" stroke="#3f3d56" stroke-miterlimit="10" stroke-width="2" transform="translate(1568.335 742.215)"/><circle cx="1568.335" cy="742.215" r="25.891"/><path d="m1063.81 606.287s3.7-79.552 79.523-70.305" transform="translate(504.528 241.371)"/></g><path d="m1064.213 797.372s-16.644-146.381 79.523-153.778" fill="none" stroke="#3f3d56" stroke-miterlimit="10" stroke-width="2" transform="translate(504.125 303.902)"/><circle cx="1647.852" cy="947.494" fill="#3f3d56" r="25.891"/></svg>