<svg height="59.549" viewBox="0 0 90.59 59.549" width="90.59" xmlns="http://www.w3.org/2000/svg"><path d="m88.7 123.027-16.684-33.374a2.789 2.789 0 0 0 -3.732-1.246l-11.125 5.562a2.79 2.79 0 0 0 -1.4 1.624 2.762 2.762 0 0 0 .178 2.141l.779 1.507h-6.655a2.8 2.8 0 0 0 -1.969.812l-2.592 2.6-5.156-3.026a2.771 2.771 0 0 0 -1.407-.384h-6.653l.779-1.5a2.773 2.773 0 0 0 -1.224-3.766l-11.125-5.564a2.782 2.782 0 0 0 -3.732 1.24l-16.687 33.374a2.783 2.783 0 0 0 1.19 3.7l10.546 5.562a2.759 2.759 0 0 0 2.125.195 2.809 2.809 0 0 0 1.641-1.374l.9-1.73 19.424 14.373a14.052 14.052 0 0 0 8.332 2.72 13.857 13.857 0 0 0 8.416-2.815l19.2-14.74 1.135 2.192a2.793 2.793 0 0 0 1.641 1.374 2.865 2.865 0 0 0 .834.128 2.779 2.779 0 0 0 1.3-.323l10.546-5.562a2.788 2.788 0 0 0 1.175-3.7zm-76.552 3.043-5.662-2.987 14.228-28.452 6.113 3.059-1.663 3.21-.033.061zm37.345 13.177a8.444 8.444 0 0 1 -10.068.033l-20.141-14.9 10.124-19.58h8.772l3.254 1.913-10.029 10.028a2.785 2.785 0 0 0 -.172 3.744l2.175 2.62a8.339 8.339 0 0 0 10.268 2.08l6.074-3.171 10.908 8.66zm15.707-12.065-13.409-10.652a2.792 2.792 0 0 0 -3.015-.284l-7.7 4.016a2.8 2.8 0 0 1 -3.387-.712l-.551-.668 14.075-14.082h8.377l9.879 19.1zm11.648-1.112-12.987-25.109-.033-.061-1.663-3.21 6.119-3.059 14.228 28.451z" fill="#001f40" transform="translate(1.595 -86.929)"/><g fill="none" transform="matrix(.89100652 .4539905 -.4539905 .89100652 19.731615 -.000092)"><path d="m3.336.127 11.937-.127a3.058 3.058 0 0 1 2.956 3.227l-.323 36.82a3.2 3.2 0 0 1 -3.013 3.29l-11.937.127a3.058 3.058 0 0 1 -2.956-3.227l.323-36.82a3.2 3.2 0 0 1 3.013-3.29z"/><path d="m12.204 6.033-5.904.063-.275 31.334 5.904-.063.275-31.335m3.099-6.032c1.634 0 2.942 1.438 2.926 3.227l-.323 36.82c-.016 1.8-1.365 3.272-3.013 3.29l-11.937.126h-.03c-1.634 0-2.942-1.438-2.926-3.226l.323-36.82c.017-1.8 1.365-3.273 3.013-3.29l11.937-.127z" fill="#ff7d00"/></g></svg>