<svg xmlns="http://www.w3.org/2000/svg" width="488.329" height="618.89" viewBox="0 0 488.329 618.89">
  <g id="Grupo_8096" data-name="Grupo 8096" transform="translate(97.852 -95.919)">
    <g id="Grupo_7620" data-name="Grupo 7620" transform="translate(-97.852 97.191)">
      <path id="Caminho_9358" data-name="Caminho 9358" d="M143.046,111.4s.126-6.285,5.648-7.354,11.407-.558,13.127-7.99,10.024-10.017,13.057-4.455,9.207,11.187,14.8,6.583,11.533-6.843,15.367-2.051,9.962,12.773,15.925,9.356,14.1,2.246,14.833,5.012Z" transform="translate(-59.831 -51.903)" fill="#cbcbcb" stroke="#c6c6c6" stroke-width="1" opacity="0.45"/>
      <path id="Caminho_9359" data-name="Caminho 9359" d="M627.315,229.477s.175-5.526,5.042-6.408,10.037-.373,11.626-6.891,8.918-8.706,11.527-3.784,7.982,9.932,12.948,5.941,10.211-5.9,13.534-1.646,8.629,11.336,13.907,8.391,12.377,2.12,12.992,4.559Z" transform="translate(-221.205 -66.639)" fill="#cbcbcb" stroke="#c6c6c6" stroke-width="1" opacity="0.45"/>
      <g id="Grupo_7619" data-name="Grupo 7619" transform="translate(0 0)">
        <g id="Grupo_7612" data-name="Grupo 7612" transform="translate(158.317 135.362)" opacity="0.4">
          <line id="Linha_125" data-name="Linha 125" x2="7.143" transform="translate(0 3.571)" fill="none" stroke="#c6c6c6" stroke-linecap="round" stroke-linejoin="round" stroke-width="2.502"/>
          <line id="Linha_126" data-name="Linha 126" y1="7.143" transform="translate(3.571)" fill="none" stroke="#c6c6c6" stroke-linecap="round" stroke-linejoin="round" stroke-width="2.502"/>
        </g>
        <g id="Grupo_7613" data-name="Grupo 7613" transform="translate(414.757 100.8)" opacity="0.3">
          <line id="Linha_127" data-name="Linha 127" x2="8.506" transform="translate(0 4.253)" fill="none" stroke="#c6c6c6" stroke-linecap="round" stroke-linejoin="round" stroke-width="2.98"/>
          <line id="Linha_128" data-name="Linha 128" y1="8.506" transform="translate(4.253)" fill="none" stroke="#c6c6c6" stroke-linecap="round" stroke-linejoin="round" stroke-width="2.98"/>
        </g>
        <g id="Grupo_7614" data-name="Grupo 7614" transform="translate(96.277 12.685)" opacity="0.4">
          <line id="Linha_129" data-name="Linha 129" x2="10.081" transform="translate(0 5.04)" fill="none" stroke="#c6c6c6" stroke-linecap="round" stroke-linejoin="round" stroke-width="2.063"/>
          <line id="Linha_130" data-name="Linha 130" y1="10.081" transform="translate(5.04)" fill="none" stroke="#c6c6c6" stroke-linecap="round" stroke-linejoin="round" stroke-width="2.063"/>
        </g>
        <g id="Grupo_7615" data-name="Grupo 7615" transform="translate(251.852 9.196)" opacity="0.3">
          <line id="Linha_131" data-name="Linha 131" x2="8.506" transform="translate(0 4.253)" fill="none" stroke="#c6c6c6" stroke-linecap="round" stroke-linejoin="round" stroke-width="2.98"/>
          <line id="Linha_132" data-name="Linha 132" y1="8.505" transform="translate(4.253)" fill="none" stroke="#c6c6c6" stroke-linecap="round" stroke-linejoin="round" stroke-width="2.98"/>
        </g>
        <g id="Grupo_7617" data-name="Grupo 7617" transform="translate(289.774 106.42)">
          <line id="Linha_135" data-name="Linha 135" x2="5.993" transform="translate(0 2.996)" fill="none" stroke="#c6c6c6" stroke-linecap="round" stroke-linejoin="round" stroke-width="2.099"/>
          <line id="Linha_136" data-name="Linha 136" y1="5.993" transform="translate(2.996)" fill="none" stroke="#c6c6c6" stroke-linecap="round" stroke-linejoin="round" stroke-width="2.099"/>
        </g>
        <g id="Grupo_7618" data-name="Grupo 7618" transform="translate(372.502 30.824)" opacity="0.3">
          <line id="Linha_137" data-name="Linha 137" x2="4.253" transform="translate(0 2.126)" fill="none" stroke="#c6c6c6" stroke-linecap="round" stroke-linejoin="round" stroke-width="1.49"/>
          <line id="Linha_138" data-name="Linha 138" y1="4.253" transform="translate(2.126)" fill="none" stroke="#c6c6c6" stroke-linecap="round" stroke-linejoin="round" stroke-width="1.49"/>
        </g>
        <path id="Caminho_9361" data-name="Caminho 9361" d="M479.472,51.75a4.932,4.932,0,1,1-4.932-4.932A4.932,4.932,0,0,1,479.472,51.75Z" transform="translate(-165.86 -46.818)" fill="#cbcbcb" stroke="#c6c6c6" stroke-linecap="round" stroke-linejoin="round" stroke-width="2.543" opacity="0.7"/>
        <path id="Caminho_9362" data-name="Caminho 9362" d="M702.791,321.325a2.466,2.466,0,1,1-2.465-2.466A2.466,2.466,0,0,1,702.791,321.325Z" transform="translate(-229.789 -79.92)" fill="#cbcbcb" stroke="#c6c6c6" stroke-linecap="round" stroke-linejoin="round" stroke-width="1.272"/>
        <path id="Caminho_9363" data-name="Caminho 9363" d="M289.582,123.368a4.932,4.932,0,1,1-4.933-4.932A4.933,4.933,0,0,1,289.582,123.368Z" transform="translate(-111.917 -55.533)" fill="#cbcbcb" stroke="#c6c6c6" stroke-linecap="round" stroke-linejoin="round" stroke-width="2.543" opacity="0.7"/>
        <path id="Caminho_9364" data-name="Caminho 9364" d="M671.582,88.317a4.932,4.932,0,1,1-4.932-4.932A4.932,4.932,0,0,1,671.582,88.317Z" transform="translate(-225.391 -51.268)" fill="#cbcbcb" stroke="#c6c6c6" stroke-linecap="round" stroke-linejoin="round" stroke-width="2.543" opacity="0.7"/>
        <path id="Caminho_9365" data-name="Caminho 9365" d="M613.967,262.922a5.38,5.38,0,1,1-5.38-5.38A5.38,5.38,0,0,1,613.967,262.922Z" transform="translate(-218.272 -72.459)" fill="#cbcbcb" stroke="#c6c6c6" stroke-linecap="round" stroke-linejoin="round" stroke-width="0.645"/>
        <path id="Caminho_9366" data-name="Caminho 9366" d="M696.692,184.688a3.9,3.9,0,1,1-3.9-3.9A3.9,3.9,0,0,1,696.692,184.688Z" transform="translate(-228.698 -63.12)" fill="#cbcbcb" stroke="#c6c6c6" stroke-linecap="round" stroke-linejoin="round" stroke-width="0.745"/>
        <path id="Caminho_9368" data-name="Caminho 9368" d="M182,171" transform="translate(-83.778 -61.929)" fill="#cbcbcb" stroke="#c6c6c6" stroke-linecap="round" stroke-linejoin="round" stroke-width="1" opacity="0.7"/>
        <path id="Caminho_9369" data-name="Caminho 9369" d="M410,98" transform="translate(-147.916 -53.046)" fill="#cbcbcb" stroke="#c6c6c6" stroke-linecap="round" stroke-linejoin="round" stroke-width="1" opacity="0.7"/>
        <path id="Caminho_9370" data-name="Caminho 9370" d="M675.333,271.667" transform="translate(-227.048 -74.178)" fill="#cbcbcb" stroke="#c6c6c6" stroke-linecap="round" stroke-linejoin="round" stroke-width="1" opacity="0.7"/>
        <path id="Caminho_9371" data-name="Caminho 9371" d="M80,124.333" transform="translate(-49.551 -56.25)" fill="#cbcbcb" stroke="#c6c6c6" stroke-linecap="round" stroke-linejoin="round" stroke-width="1" opacity="0.7"/>
        <path id="Caminho_9372" data-name="Caminho 9372" d="M296.667,53" transform="translate(-116.035 -47.57)" fill="#cbcbcb" stroke="#c6c6c6" stroke-linecap="round" stroke-linejoin="round" stroke-width="1" opacity="0.7"/>
        <path id="Caminho_9373" data-name="Caminho 9373" d="M45.333,303" transform="translate(-45.333 -77.991)" fill="#cbcbcb" stroke="#c6c6c6" stroke-linecap="round" stroke-linejoin="round" stroke-width="1" opacity="0.7"/>
        <path id="Caminho_9374" data-name="Caminho 9374" d="M404,297" transform="translate(-146.228 -77.26)" fill="#cbcbcb" stroke="#c6c6c6" stroke-linecap="round" stroke-linejoin="round" stroke-width="1" opacity="0.7"/>
        <path id="Caminho_9375" data-name="Caminho 9375" d="M309.333,371" transform="translate(-119.598 -86.265)" fill="#cbcbcb" stroke="#c6c6c6" stroke-linecap="round" stroke-linejoin="round" stroke-width="1" opacity="0.7"/>
        <path id="Caminho_9376" data-name="Caminho 9376" d="M499.333,335" transform="translate(-173.046 -81.884)" fill="#cbcbcb" stroke="#c6c6c6" stroke-linecap="round" stroke-linejoin="round" stroke-width="1" opacity="0.7"/>
        <path id="Caminho_9377" data-name="Caminho 9377" d="M490.667,107" transform="translate(-170.608 -54.141)" fill="#cbcbcb" stroke="#c6c6c6" stroke-linecap="round" stroke-linejoin="round" stroke-width="1" opacity="0.7"/>
      </g>
    </g>
    <g id="Grupo_7621" data-name="Grupo 7621" transform="translate(-97.852 430.074)">
      <path id="Caminho_9358-2" data-name="Caminho 9358" d="M143.046,111.4s.126-6.285,5.648-7.354,11.407-.558,13.127-7.99,10.024-10.017,13.057-4.455,9.207,11.187,14.8,6.583,11.533-6.843,15.367-2.051,9.962,12.773,15.925,9.356,14.1,2.246,14.833,5.012Z" transform="translate(-59.831 -51.903)" fill="#c6c6c6" stroke="#c6c6c6" stroke-width="1" opacity="0.45"/>
      <path id="Caminho_9359-2" data-name="Caminho 9359" d="M627.315,229.477s.175-5.526,5.042-6.408,10.037-.373,11.626-6.891,8.918-8.706,11.527-3.784,7.982,9.932,12.948,5.941,10.211-5.9,13.534-1.646,8.629,11.336,13.907,8.391,12.377,2.12,12.992,4.559Z" transform="translate(-221.205 -66.639)" fill="#c6c6c6" stroke="#c6c6c6" stroke-width="1" opacity="0.45"/>
      <path id="Caminho_9360" data-name="Caminho 9360" d="M55.189,268.006s0-5.417,4.74-6.433,9.819-.677,11.173-7.11,8.464-8.8,11.173-4.063,8.126,9.481,12.866,5.417,9.819-6.095,13.2-2.032,8.8,10.834,13.882,7.787,12.189,1.693,12.866,4.063Z" transform="translate(-46.532 -71.286)" fill="#c6c6c6" stroke="#c6c6c6" stroke-width="1" opacity="0.45"/>
      <g id="Grupo_7619-2" data-name="Grupo 7619" transform="translate(0 0)">
        <g id="Grupo_7612-2" data-name="Grupo 7612" transform="translate(158.317 135.362)" opacity="0.4">
          <line id="Linha_125-2" data-name="Linha 125" x2="7.143" transform="translate(0 3.571)" fill="none" stroke="#c6c6c6" stroke-linecap="round" stroke-linejoin="round" stroke-width="2.502"/>
          <line id="Linha_126-2" data-name="Linha 126" y1="7.143" transform="translate(3.571)" fill="none" stroke="#c6c6c6" stroke-linecap="round" stroke-linejoin="round" stroke-width="2.502"/>
        </g>
        <g id="Grupo_7613-2" data-name="Grupo 7613" transform="translate(414.757 100.8)" opacity="0.3">
          <line id="Linha_127-2" data-name="Linha 127" x2="8.506" transform="translate(0 4.253)" fill="none" stroke="#c6c6c6" stroke-linecap="round" stroke-linejoin="round" stroke-width="2.98"/>
          <line id="Linha_128-2" data-name="Linha 128" y1="8.506" transform="translate(4.253)" fill="none" stroke="#c6c6c6" stroke-linecap="round" stroke-linejoin="round" stroke-width="2.98"/>
        </g>
        <g id="Grupo_7614-2" data-name="Grupo 7614" transform="translate(96.277 12.685)" opacity="0.4">
          <line id="Linha_129-2" data-name="Linha 129" x2="10.081" transform="translate(0 5.04)" fill="none" stroke="#c6c6c6" stroke-linecap="round" stroke-linejoin="round" stroke-width="2.063"/>
          <line id="Linha_130-2" data-name="Linha 130" y1="10.081" transform="translate(5.04)" fill="none" stroke="#c6c6c6" stroke-linecap="round" stroke-linejoin="round" stroke-width="2.063"/>
        </g>
        <g id="Grupo_7615-2" data-name="Grupo 7615" transform="translate(251.852 9.196)" opacity="0.3">
          <line id="Linha_131-2" data-name="Linha 131" x2="8.506" transform="translate(0 4.253)" fill="none" stroke="#c6c6c6" stroke-linecap="round" stroke-linejoin="round" stroke-width="2.98"/>
          <line id="Linha_132-2" data-name="Linha 132" y1="8.505" transform="translate(4.253)" fill="none" stroke="#c6c6c6" stroke-linecap="round" stroke-linejoin="round" stroke-width="2.98"/>
        </g>
        <g id="Grupo_7616" data-name="Grupo 7616" transform="translate(64.927 227.8)">
          <line id="Linha_133" data-name="Linha 133" x2="5.993" transform="translate(0 2.996)" fill="none" stroke="#c6c6c6" stroke-linecap="round" stroke-linejoin="round" stroke-width="2.099"/>
          <line id="Linha_134" data-name="Linha 134" y1="5.993" transform="translate(2.996)" fill="none" stroke="#c6c6c6" stroke-linecap="round" stroke-linejoin="round" stroke-width="2.099"/>
        </g>
        <g id="Grupo_7617-2" data-name="Grupo 7617" transform="translate(289.774 106.42)">
          <line id="Linha_135-2" data-name="Linha 135" x2="5.993" transform="translate(0 2.996)" fill="none" stroke="#c6c6c6" stroke-linecap="round" stroke-linejoin="round" stroke-width="2.099"/>
          <line id="Linha_136-2" data-name="Linha 136" y1="5.993" transform="translate(2.996)" fill="none" stroke="#c6c6c6" stroke-linecap="round" stroke-linejoin="round" stroke-width="2.099"/>
        </g>
        <g id="Grupo_7618-2" data-name="Grupo 7618" transform="translate(372.502 30.824)" opacity="0.3">
          <line id="Linha_137-2" data-name="Linha 137" x2="4.253" transform="translate(0 2.126)" fill="none" stroke="#c6c6c6" stroke-linecap="round" stroke-linejoin="round" stroke-width="1.49"/>
          <line id="Linha_138-2" data-name="Linha 138" y1="4.253" transform="translate(2.126)" fill="none" stroke="#c6c6c6" stroke-linecap="round" stroke-linejoin="round" stroke-width="1.49"/>
        </g>
        <path id="Caminho_9361-2" data-name="Caminho 9361" d="M479.472,51.75a4.932,4.932,0,1,1-4.932-4.932A4.932,4.932,0,0,1,479.472,51.75Z" transform="translate(-165.86 -46.818)" fill="#c6c6c6" stroke="#c6c6c6" stroke-linecap="round" stroke-linejoin="round" stroke-width="2.543" opacity="0.7"/>
        <path id="Caminho_9362-2" data-name="Caminho 9362" d="M702.791,321.325a2.466,2.466,0,1,1-2.465-2.466A2.466,2.466,0,0,1,702.791,321.325Z" transform="translate(-229.789 -79.92)" fill="#c6c6c6" stroke="#c6c6c6" stroke-linecap="round" stroke-linejoin="round" stroke-width="1.272"/>
        <path id="Caminho_9363-2" data-name="Caminho 9363" d="M289.582,123.368a4.932,4.932,0,1,1-4.933-4.932A4.933,4.933,0,0,1,289.582,123.368Z" transform="translate(-111.917 -55.533)" fill="#c6c6c6" stroke="#c6c6c6" stroke-linecap="round" stroke-linejoin="round" stroke-width="2.543" opacity="0.7"/>
        <path id="Caminho_9364-2" data-name="Caminho 9364" d="M671.582,88.317a4.932,4.932,0,1,1-4.932-4.932A4.932,4.932,0,0,1,671.582,88.317Z" transform="translate(-225.391 -51.268)" fill="#c6c6c6" stroke="#c6c6c6" stroke-linecap="round" stroke-linejoin="round" stroke-width="2.543" opacity="0.7"/>
        <path id="Caminho_9365-2" data-name="Caminho 9365" d="M613.967,262.922a5.38,5.38,0,1,1-5.38-5.38A5.38,5.38,0,0,1,613.967,262.922Z" transform="translate(-218.272 -72.459)" fill="#c6c6c6" stroke="#c6c6c6" stroke-linecap="round" stroke-linejoin="round" stroke-width="0.645"/>
        <path id="Caminho_9366-2" data-name="Caminho 9366" d="M696.692,184.688a3.9,3.9,0,1,1-3.9-3.9A3.9,3.9,0,0,1,696.692,184.688Z" transform="translate(-228.698 -63.12)" fill="#c6c6c6" stroke="#c6c6c6" stroke-linecap="round" stroke-linejoin="round" stroke-width="0.745"/>
        <path id="Caminho_9367" data-name="Caminho 9367" d="M104.516,189.808a3.9,3.9,0,1,1-3.9-3.9A3.9,3.9,0,0,1,104.516,189.808Z" transform="translate(-51.586 -63.743)" fill="#c6c6c6" stroke="#c6c6c6" stroke-linecap="round" stroke-linejoin="round" stroke-width="0.745"/>
        <path id="Caminho_9368-2" data-name="Caminho 9368" d="M182,171" transform="translate(-83.778 -61.929)" fill="#c6c6c6" stroke="#c6c6c6" stroke-linecap="round" stroke-linejoin="round" stroke-width="1" opacity="0.7"/>
        <path id="Caminho_9369-2" data-name="Caminho 9369" d="M410,98" transform="translate(-147.916 -53.046)" fill="#c6c6c6" stroke="#c6c6c6" stroke-linecap="round" stroke-linejoin="round" stroke-width="1" opacity="0.7"/>
        <path id="Caminho_9370-2" data-name="Caminho 9370" d="M675.333,271.667" transform="translate(-227.048 -74.178)" fill="#c6c6c6" stroke="#c6c6c6" stroke-linecap="round" stroke-linejoin="round" stroke-width="1" opacity="0.7"/>
        <path id="Caminho_9371-2" data-name="Caminho 9371" d="M80,124.333" transform="translate(-49.551 -56.25)" fill="#c6c6c6" stroke="#c6c6c6" stroke-linecap="round" stroke-linejoin="round" stroke-width="1" opacity="0.7"/>
        <path id="Caminho_9372-2" data-name="Caminho 9372" d="M296.667,53" transform="translate(-116.035 -47.57)" fill="#c6c6c6" stroke="#c6c6c6" stroke-linecap="round" stroke-linejoin="round" stroke-width="1" opacity="0.7"/>
        <path id="Caminho_9373-2" data-name="Caminho 9373" d="M45.333,303" transform="translate(-45.333 -77.991)" fill="#c6c6c6" stroke="#c6c6c6" stroke-linecap="round" stroke-linejoin="round" stroke-width="1" opacity="0.7"/>
        <path id="Caminho_9374-2" data-name="Caminho 9374" d="M404,297" transform="translate(-146.228 -77.26)" fill="#c6c6c6" stroke="#c6c6c6" stroke-linecap="round" stroke-linejoin="round" stroke-width="1" opacity="0.7"/>
        <path id="Caminho_9375-2" data-name="Caminho 9375" d="M309.333,371" transform="translate(-119.598 -86.265)" fill="#c6c6c6" stroke="#c6c6c6" stroke-linecap="round" stroke-linejoin="round" stroke-width="1" opacity="0.7"/>
        <path id="Caminho_9376-2" data-name="Caminho 9376" d="M499.333,335" transform="translate(-173.046 -81.884)" fill="#c6c6c6" stroke="#c6c6c6" stroke-linecap="round" stroke-linejoin="round" stroke-width="1" opacity="0.7"/>
        <path id="Caminho_9377-2" data-name="Caminho 9377" d="M490.667,107" transform="translate(-170.608 -54.141)" fill="#c6c6c6" stroke="#c6c6c6" stroke-linecap="round" stroke-linejoin="round" stroke-width="1" opacity="0.7"/>
      </g>
    </g>
  </g>
</svg>
