<svg xmlns="http://www.w3.org/2000/svg" xmlns:xlink="http://www.w3.org/1999/xlink" width="44.032" height="45.287" viewBox="0 0 44.032 45.287">
  <defs>
    <clipPath id="clip-path">
      <path id="Caminho_9350" data-name="Caminho 9350" d="M13.722.85l3.7-.85,9.343,40.628-3.689.877C13.248,43.765,3.19,36.5.609,25.269S3.9,3.109,13.722.85Z" fill="none"/>
    </clipPath>
  </defs>
  <g id="Grupo_7611" data-name="Grupo 7611" transform="translate(-0.041 2.88) rotate(-4)">
    <path id="Caminho_9349" data-name="Caminho 9349" d="M13.722.85l3.7-.85,9.343,40.628-3.689.877C13.248,43.765,3.19,36.5.609,25.269S3.9,3.109,13.722.85Z" transform="translate(0 0.594)" fill="#edbb3c"/>
    <g id="Grupo_7604" data-name="Grupo 7604" transform="translate(0 0.594)">
      <g id="Grupo_7603" data-name="Grupo 7603" transform="translate(0 0)" clip-path="url(#clip-path)">
        <g id="Grupo_7602" data-name="Grupo 7602" transform="translate(-7.279 -0.44)">
          <rect id="Retângulo_3106" data-name="Retângulo 3106" width="24.825" height="1.036" transform="matrix(0.975, -0.224, 0.224, 0.975, 9.36, 46.264)" fill="#d0a027"/>
          <rect id="Retângulo_3107" data-name="Retângulo 3107" width="24.825" height="1.036" transform="matrix(0.975, -0.224, 0.224, 0.975, 8.758, 43.647)" fill="#d0a027"/>
          <rect id="Retângulo_3108" data-name="Retângulo 3108" width="24.825" height="1.036" transform="matrix(0.975, -0.224, 0.224, 0.975, 8.071, 40.659)" fill="#d0a027"/>
          <rect id="Retângulo_3109" data-name="Retângulo 3109" width="24.825" height="1.036" transform="matrix(0.975, -0.224, 0.224, 0.975, 7.213, 36.93)" fill="#d0a027"/>
          <rect id="Retângulo_3110" data-name="Retângulo 3110" width="24.825" height="1.036" transform="translate(6.271 32.832) rotate(-12.951)" fill="#d0a027"/>
          <rect id="Retângulo_3111" data-name="Retângulo 3111" width="24.825" height="1.036" transform="translate(5.243 28.363) rotate(-12.952)" fill="#d0a027"/>
          <rect id="Retângulo_3112" data-name="Retângulo 3112" width="24.825" height="1.036" transform="matrix(0.975, -0.224, 0.224, 0.975, 0, 5.564)" fill="#d0a027"/>
          <rect id="Retângulo_3113" data-name="Retângulo 3113" width="24.825" height="1.036" transform="translate(0.602 8.183) rotate(-12.958)" fill="#d0a027"/>
          <rect id="Retângulo_3114" data-name="Retângulo 3114" width="24.825" height="1.036" transform="matrix(0.975, -0.224, 0.224, 0.975, 1.289, 11.169)" fill="#d0a027"/>
          <rect id="Retângulo_3115" data-name="Retângulo 3115" width="24.825" height="1.036" transform="matrix(0.975, -0.224, 0.224, 0.975, 2.146, 14.897)" fill="#d0a027"/>
          <rect id="Retângulo_3116" data-name="Retângulo 3116" width="24.825" height="1.036" transform="matrix(0.975, -0.224, 0.224, 0.975, 3.089, 18.996)" fill="#d0a027"/>
          <rect id="Retângulo_3117" data-name="Retângulo 3117" width="24.825" height="1.036" transform="translate(4.117 23.466) rotate(-12.955)" fill="#d0a027"/>
        </g>
      </g>
    </g>
    <path id="Caminho_9351" data-name="Caminho 9351" d="M.609,24.83c2.582,11.227,12.639,18.5,22.463,16.237S38.766,27.876,36.185,16.648,23.546-1.848,13.722.412-1.973,13.6.609,24.83Z" transform="translate(4.488 0)" fill="#f2d25e"/>
    <path id="Caminho_9352" data-name="Caminho 9352" d="M32.36,17.462C29.778,6.235,19.721-1.035,9.9,1.224A16.776,16.776,0,0,0,0,7.97,16.912,16.912,0,0,1,10.447.412c9.824-2.259,19.881,5.01,22.463,16.237a21.979,21.979,0,0,1-3.216,17.673A22.138,22.138,0,0,0,32.36,17.462Z" transform="translate(7.762 0)" fill="#f5e378"/>
    <path id="Caminho_9353" data-name="Caminho 9353" d="M17.4,31.913c7.317-1.683,11.639-10.144,9.634-18.862S17.442-1.389,10.125.294-1.514,10.438.491,19.155,10.079,33.6,17.4,31.913Z" transform="translate(9.043 5.087)" fill="#f5e378"/>
    <path id="Caminho_9354" data-name="Caminho 9354" d="M17.4,31.914c7.318-1.683,11.64-10.145,9.635-18.862S17.442-1.389,10.125.294-1.514,10.438.491,19.155,10.08,33.6,17.4,31.914Z" transform="translate(9.124 4.636)" fill="#ebae39"/>
    <path id="Caminho_9355" data-name="Caminho 9355" d="M5.423,31.057c7.317-1.683,11.639-10.144,9.634-18.862C13.7,6.315,9.813,1.8,5.179,0,10.5,1.3,15.156,6.158,16.662,12.705c2,8.718-2.317,17.179-9.635,18.862A11.9,11.9,0,0,1,0,31,11.692,11.692,0,0,0,5.423,31.057Z" transform="translate(19.492 4.982)" fill="#cc8420"/>
    <g id="Grupo_7608" data-name="Grupo 7608" transform="translate(15.662 10.049)">
      <g id="Grupo_7605" data-name="Grupo 7605" transform="translate(0 0.377)">
        <path id="Caminho_9356" data-name="Caminho 9356" d="M6.705,1.979a7,7,0,0,1,1.9.133,6.489,6.489,0,0,1,1.6.559,4.851,4.851,0,0,1,1.2.853,2.706,2.706,0,0,1,.681,1.022.462.462,0,0,1-.038.365.43.43,0,0,1-.259.228l-2.73.838a1.106,1.106,0,0,1-.495.06A1.477,1.477,0,0,1,8.114,5.9c-.052-.03-.141-.077-.261-.148a1.955,1.955,0,0,0-.479-.182,2.633,2.633,0,0,0-.708-.078,3.292,3.292,0,0,0-.951.167,5.919,5.919,0,0,0-.744.284,2.989,2.989,0,0,0-.6.366,1.2,1.2,0,0,0-.358.464A.8.8,0,0,0,4,7.349a.74.74,0,0,0,.359.457,1.848,1.848,0,0,0,.786.182,8.983,8.983,0,0,0,1.344-.036c.549-.048,1.228-.111,2.038-.193a11.2,11.2,0,0,1,2.181-.032,4.923,4.923,0,0,1,1.7.446,3.517,3.517,0,0,1,1.241.989,4.92,4.92,0,0,1,.8,1.611,4,4,0,0,1,.16,1.706,4.287,4.287,0,0,1-.539,1.581A5.418,5.418,0,0,1,12.9,15.448a8.159,8.159,0,0,1-1.711,1.119l.454,1.48a.554.554,0,0,1-.042.445.566.566,0,0,1-.347.289l-2.729.84a.6.6,0,0,1-.736-.39l-.474-1.542a7.52,7.52,0,0,1-2-.1,6.62,6.62,0,0,1-1.675-.547,4.287,4.287,0,0,1-1.246-.905,3.254,3.254,0,0,1-.728-1.179A.46.46,0,0,1,1.7,14.59a.431.431,0,0,1,.26-.226l2.731-.84a1.191,1.191,0,0,1,.479-.067,1.42,1.42,0,0,1,.4.115c.071.039.183.1.333.2a2.861,2.861,0,0,0,.566.247,2.827,2.827,0,0,0,.813.126,3.459,3.459,0,0,0,1.1-.178,6.3,6.3,0,0,0,1.77-.806.938.938,0,0,0,.474-1.091.669.669,0,0,0-.433-.439,2.905,2.905,0,0,0-.931-.137,13.429,13.429,0,0,0-1.491.083q-.9.1-2.118.192A6.054,6.054,0,0,1,2.046,11.2,4.24,4.24,0,0,1,.176,8.638,3.914,3.914,0,0,1,.014,7.147a4.267,4.267,0,0,1,.4-1.48,5.136,5.136,0,0,1,.948-1.362,6.8,6.8,0,0,1,1.48-1.163L2.368,1.6a.561.561,0,0,1,.045-.445A.561.561,0,0,1,2.759.865L5.489.026a.58.58,0,0,1,.447.045.567.567,0,0,1,.287.343Z" transform="translate(0 0)" fill="#cc8420"/>
      </g>
      <g id="Grupo_7607" data-name="Grupo 7607" transform="translate(0.422 0)">
        <g id="Grupo_7606" data-name="Grupo 7606" transform="translate(0)">
          <path id="Caminho_9357" data-name="Caminho 9357" d="M6.706,1.979a7,7,0,0,1,1.9.133,6.466,6.466,0,0,1,1.6.559,4.828,4.828,0,0,1,1.2.853,2.706,2.706,0,0,1,.681,1.022.466.466,0,0,1-.038.366.432.432,0,0,1-.259.228l-2.73.838a1.115,1.115,0,0,1-.495.06A1.49,1.49,0,0,1,8.114,5.9c-.052-.03-.141-.077-.261-.148a1.926,1.926,0,0,0-.479-.182,2.651,2.651,0,0,0-.708-.079,3.331,3.331,0,0,0-.951.167,5.991,5.991,0,0,0-.744.284,2.974,2.974,0,0,0-.6.366,1.192,1.192,0,0,0-.358.464A.794.794,0,0,0,4,7.35a.735.735,0,0,0,.359.457,1.844,1.844,0,0,0,.786.183,8.994,8.994,0,0,0,1.344-.037q.823-.071,2.038-.192a11.168,11.168,0,0,1,2.181-.032,4.931,4.931,0,0,1,1.7.445,3.521,3.521,0,0,1,1.241.989,4.927,4.927,0,0,1,.8,1.611,3.991,3.991,0,0,1,.16,1.706,4.271,4.271,0,0,1-.539,1.581A5.417,5.417,0,0,1,12.9,15.448a8.169,8.169,0,0,1-1.711,1.119l.453,1.48a.554.554,0,0,1-.042.446.567.567,0,0,1-.346.289l-2.729.839a.6.6,0,0,1-.736-.39l-.474-1.543a7.537,7.537,0,0,1-2-.1,6.6,6.6,0,0,1-1.675-.548,4.291,4.291,0,0,1-1.247-.9,3.249,3.249,0,0,1-.727-1.18.458.458,0,0,1,.036-.364.43.43,0,0,1,.26-.227l2.73-.84a1.2,1.2,0,0,1,.48-.067,1.443,1.443,0,0,1,.4.115c.071.039.182.1.332.2a2.8,2.8,0,0,0,1.379.373,3.477,3.477,0,0,0,1.1-.179,6.291,6.291,0,0,0,1.769-.805.938.938,0,0,0,.474-1.091.669.669,0,0,0-.433-.438,2.906,2.906,0,0,0-.931-.137,13.433,13.433,0,0,0-1.491.083q-.9.1-2.118.192A6.054,6.054,0,0,1,2.046,11.2,4.24,4.24,0,0,1,.176,8.639,3.919,3.919,0,0,1,.013,7.147a4.276,4.276,0,0,1,.4-1.479,5.127,5.127,0,0,1,.947-1.362,6.773,6.773,0,0,1,1.48-1.163L2.368,1.6a.559.559,0,0,1,.045-.445A.558.558,0,0,1,2.759.865l2.73-.84a.58.58,0,0,1,.448.046.568.568,0,0,1,.287.343Z" fill="#f2d25e"/>
        </g>
      </g>
    </g>
  </g>
</svg>
