<svg id="Grupo_7609" data-name="Grupo 7609" xmlns="http://www.w3.org/2000/svg" xmlns:xlink="http://www.w3.org/1999/xlink" width="74.814" height="77.043" viewBox="0 0 74.814 77.043">
  <defs>
    <clipPath id="clip-path">
      <path id="Caminho_9350" data-name="Caminho 9350" d="M602.913,368.866l6.7-1.54,16.933,73.631-6.686,1.59c-17.8,4.095-36.031-9.08-40.71-29.426S585.107,372.96,602.913,368.866Z" transform="translate(-578.044 -367.326)" fill="none"/>
    </clipPath>
  </defs>
  <path id="Caminho_9349" data-name="Caminho 9349" d="M602.913,368.866l6.7-1.54,16.933,73.631-6.686,1.59c-17.8,4.095-36.031-9.08-40.71-29.426S585.107,372.96,602.913,368.866Z" transform="translate(-578.044 -366.25)" fill="#edbb3c"/>
  <g id="Grupo_7604" data-name="Grupo 7604" transform="translate(0 1.076)">
    <g id="Grupo_7603" data-name="Grupo 7603" clip-path="url(#clip-path)">
      <g id="Grupo_7602" data-name="Grupo 7602" transform="translate(-13.191 -0.797)">
        <rect id="Retângulo_3106" data-name="Retângulo 3106" width="44.991" height="1.878" transform="matrix(0.975, -0.224, 0.224, 0.975, 16.963, 83.845)" fill="#d0a027"/>
        <rect id="Retângulo_3107" data-name="Retângulo 3107" width="44.991" height="1.878" transform="matrix(0.975, -0.224, 0.224, 0.975, 15.872, 79.101)" fill="#d0a027"/>
        <rect id="Retângulo_3108" data-name="Retângulo 3108" width="44.991" height="1.878" transform="matrix(0.975, -0.224, 0.224, 0.975, 14.627, 73.686)" fill="#d0a027"/>
        <rect id="Retângulo_3109" data-name="Retângulo 3109" width="44.991" height="1.877" transform="matrix(0.975, -0.224, 0.224, 0.975, 13.073, 66.929)" fill="#d0a027"/>
        <rect id="Retângulo_3110" data-name="Retângulo 3110" width="44.991" height="1.878" transform="translate(11.365 59.502) rotate(-12.951)" fill="#d0a027"/>
        <rect id="Retângulo_3111" data-name="Retângulo 3111" width="44.991" height="1.877" transform="translate(9.502 51.403) rotate(-12.952)" fill="#d0a027"/>
        <rect id="Retângulo_3112" data-name="Retângulo 3112" width="44.991" height="1.878" transform="matrix(0.975, -0.224, 0.224, 0.975, 0, 10.084)" fill="#d0a027"/>
        <rect id="Retângulo_3113" data-name="Retângulo 3113" width="44.991" height="1.878" transform="translate(1.091 14.83) rotate(-12.958)" fill="#d0a027"/>
        <rect id="Retângulo_3114" data-name="Retângulo 3114" width="44.991" height="1.877" transform="matrix(0.975, -0.224, 0.224, 0.975, 2.336, 20.242)" fill="#d0a027"/>
        <rect id="Retângulo_3115" data-name="Retângulo 3115" width="44.991" height="1.878" transform="matrix(0.975, -0.224, 0.224, 0.975, 3.89, 26.998)" fill="#d0a027"/>
        <rect id="Retângulo_3116" data-name="Retângulo 3116" width="44.991" height="1.878" transform="matrix(0.975, -0.224, 0.224, 0.975, 5.598, 34.427)" fill="#d0a027"/>
        <rect id="Retângulo_3117" data-name="Retângulo 3117" width="44.991" height="1.878" transform="translate(7.461 42.529) rotate(-12.955)" fill="#d0a027"/>
      </g>
    </g>
  </g>
  <path id="Caminho_9351" data-name="Caminho 9351" d="M588.407,411.1c4.679,20.346,22.906,33.522,40.71,29.427s28.443-23.908,23.765-44.255-22.906-33.521-40.71-29.426S583.727,390.755,588.407,411.1Z" transform="translate(-579.171 -366.101)" fill="#f2d25e"/>
  <path id="Caminho_9352" data-name="Caminho 9352" d="M652.708,397.747C648.028,377.4,629.8,364.226,612,368.32a30.4,30.4,0,0,0-17.937,12.226,30.651,30.651,0,0,1,18.933-13.7c17.8-4.095,36.031,9.08,40.71,29.426,2.728,11.863.242,23.538-5.828,32.029A40.12,40.12,0,0,0,652.708,397.747Z" transform="translate(-579.993 -366.101)" fill="#f5e378"/>
  <path id="Caminho_9353" data-name="Caminho 9353" d="M628.231,434.433c13.261-3.05,21.094-18.384,17.46-34.183s-17.378-26.171-30.639-23.122-21.094,18.384-17.46,34.183S614.969,437.483,628.231,434.433Z" transform="translate(-580.314 -367.378)" fill="#f5e378"/>
  <path id="Caminho_9354" data-name="Caminho 9354" d="M628.4,433.5c13.262-3.05,21.095-18.385,17.461-34.184S628.48,373.149,615.219,376.2s-21.094,18.385-17.46,34.183S615.137,436.554,628.4,433.5Z" transform="translate(-580.335 -367.265)" fill="#ebae39"/>
  <path id="Caminho_9355" data-name="Caminho 9355" d="M628.092,432.665c13.261-3.049,21.093-18.384,17.46-34.184-2.451-10.655-9.5-18.835-17.9-22.1,9.648,2.356,18.081,11.16,20.811,23.026,3.634,15.8-4.2,31.134-17.461,34.184a21.562,21.562,0,0,1-12.737-1.021A21.189,21.189,0,0,0,628.092,432.665Z" transform="translate(-582.938 -367.352)" fill="#cc8420"/>
  <g id="Grupo_7608" data-name="Grupo 7608" transform="translate(28.384 18.211)">
    <g id="Grupo_7605" data-name="Grupo 7605" transform="translate(0 0.684)">
      <path id="Caminho_9356" data-name="Caminho 9356" d="M622.512,391.2a12.687,12.687,0,0,1,3.443.242,11.76,11.76,0,0,1,2.894,1.013A8.79,8.79,0,0,1,631.016,394a4.9,4.9,0,0,1,1.234,1.852.838.838,0,0,1-.069.662.779.779,0,0,1-.47.414l-4.948,1.519a2.006,2.006,0,0,1-.9.109,2.679,2.679,0,0,1-.8-.248c-.095-.054-.256-.14-.473-.269a3.537,3.537,0,0,0-.869-.33,4.773,4.773,0,0,0-1.283-.142,5.967,5.967,0,0,0-1.724.3,10.73,10.73,0,0,0-1.348.514,5.42,5.42,0,0,0-1.079.664,2.179,2.179,0,0,0-.648.841,1.443,1.443,0,0,0-.034,1.043,1.34,1.34,0,0,0,.651.829,3.347,3.347,0,0,0,1.424.33,16.274,16.274,0,0,0,2.436-.066c1-.087,2.226-.2,3.694-.35a20.294,20.294,0,0,1,3.953-.057,8.92,8.92,0,0,1,3.081.808,6.372,6.372,0,0,1,2.249,1.792,8.914,8.914,0,0,1,1.451,2.92,7.243,7.243,0,0,1,.29,3.092,7.768,7.768,0,0,1-.978,2.865,9.823,9.823,0,0,1-2.119,2.513,14.791,14.791,0,0,1-3.1,2.027l.822,2.682a1,1,0,0,1-.076.807,1.027,1.027,0,0,1-.628.524l-4.946,1.522a1.085,1.085,0,0,1-1.334-.707l-.859-2.795a13.631,13.631,0,0,1-3.631-.184,12,12,0,0,1-3.036-.992,7.773,7.773,0,0,1-2.259-1.641,5.9,5.9,0,0,1-1.319-2.137.833.833,0,0,1,.067-.661.781.781,0,0,1,.471-.41l4.948-1.523a2.158,2.158,0,0,1,.869-.121,2.574,2.574,0,0,1,.732.208c.129.071.331.187.6.354a5.192,5.192,0,0,0,1.026.448,5.126,5.126,0,0,0,1.474.227,6.269,6.269,0,0,0,1.992-.323,11.421,11.421,0,0,0,3.208-1.461,1.7,1.7,0,0,0,.86-1.977,1.212,1.212,0,0,0-.785-.795,5.269,5.269,0,0,0-1.687-.248,24.328,24.328,0,0,0-2.7.15q-1.623.173-3.838.349a10.972,10.972,0,0,1-6.538-1.025,7.685,7.685,0,0,1-3.389-4.641,7.1,7.1,0,0,1-.294-2.7,7.73,7.73,0,0,1,.728-2.681,9.308,9.308,0,0,1,1.718-2.468,12.327,12.327,0,0,1,2.682-2.107l-.861-2.8a1.078,1.078,0,0,1,.709-1.332l4.947-1.521a1.051,1.051,0,0,1,.811.082,1.027,1.027,0,0,1,.521.622Z" transform="translate(-610.36 -387.614)" fill="#cc8420"/>
    </g>
    <g id="Grupo_7607" data-name="Grupo 7607" transform="translate(0.765)">
      <g id="Grupo_7606" data-name="Grupo 7606">
        <path id="Caminho_9357" data-name="Caminho 9357" d="M623.384,390.422a12.678,12.678,0,0,1,3.442.242,11.722,11.722,0,0,1,2.894,1.013,8.75,8.75,0,0,1,2.167,1.547,4.9,4.9,0,0,1,1.235,1.852.843.843,0,0,1-.069.663.783.783,0,0,1-.469.414l-4.948,1.519a2.021,2.021,0,0,1-.9.109,2.7,2.7,0,0,1-.8-.248c-.095-.054-.255-.14-.473-.269a3.49,3.49,0,0,0-.869-.33,4.8,4.8,0,0,0-1.283-.143,6.036,6.036,0,0,0-1.724.3,10.858,10.858,0,0,0-1.348.515,5.386,5.386,0,0,0-1.079.664,2.161,2.161,0,0,0-.648.841,1.439,1.439,0,0,0-.034,1.043,1.332,1.332,0,0,0,.651.828,3.34,3.34,0,0,0,1.424.331,16.306,16.306,0,0,0,2.436-.067q1.491-.129,3.693-.349a20.231,20.231,0,0,1,3.953-.057,8.934,8.934,0,0,1,3.081.807,6.379,6.379,0,0,1,2.248,1.792,8.928,8.928,0,0,1,1.451,2.92,7.234,7.234,0,0,1,.29,3.093,7.744,7.744,0,0,1-.978,2.865,9.819,9.819,0,0,1-2.119,2.512,14.809,14.809,0,0,1-3.1,2.028l.821,2.681a1,1,0,0,1-.076.808,1.027,1.027,0,0,1-.627.524l-4.947,1.521a1.082,1.082,0,0,1-1.333-.706l-.86-2.8a13.663,13.663,0,0,1-3.63-.184,11.958,11.958,0,0,1-3.035-.993,7.773,7.773,0,0,1-2.26-1.64,5.885,5.885,0,0,1-1.318-2.138.831.831,0,0,1,.066-.66.779.779,0,0,1,.472-.411l4.948-1.522a2.166,2.166,0,0,1,.87-.122,2.616,2.616,0,0,1,.732.208c.128.071.33.187.6.354a5.082,5.082,0,0,0,2.5.676,6.3,6.3,0,0,0,1.993-.324,11.4,11.4,0,0,0,3.207-1.46,1.7,1.7,0,0,0,.86-1.978,1.213,1.213,0,0,0-.784-.794,5.268,5.268,0,0,0-1.687-.249,24.354,24.354,0,0,0-2.7.151q-1.623.173-3.838.349a10.971,10.971,0,0,1-6.538-1.025,7.684,7.684,0,0,1-3.389-4.641,7.1,7.1,0,0,1-.3-2.7,7.751,7.751,0,0,1,.729-2.681,9.293,9.293,0,0,1,1.717-2.468,12.274,12.274,0,0,1,2.682-2.107l-.861-2.8a1.079,1.079,0,0,1,.709-1.332l4.947-1.522a1.05,1.05,0,0,1,.812.083,1.03,1.03,0,0,1,.521.622Z" transform="translate(-611.231 -386.835)" fill="#f2d25e"/>
      </g>
    </g>
  </g>
</svg>
