<svg xmlns="http://www.w3.org/2000/svg" width="24.5" height="24.5" viewBox="0 0 24.5 24.5">
  <g id="kitchen" transform="translate(0.25 0.25)">
    <circle id="Elipse_998" data-name="Elipse 998" cx="0.469" cy="0.469" r="0.469" transform="translate(18.704 16.115)" fill="#272626" stroke="#272626" stroke-width="0.5"/>
    <path id="Caminho_8911" data-name="Caminho 8911" d="M23.637,4.505a4.61,4.61,0,0,0-4.25-2.817h0a4.593,4.593,0,0,0-2.195.555A6.32,6.32,0,0,0,8.275,1.5,6.378,6.378,0,0,0,7.29,2.544a4.6,4.6,0,0,0-2.676-.856h0a4.614,4.614,0,0,0-1.931,8.8A4.58,4.58,0,0,0,4.4,10.91l.907,12.655A.469.469,0,0,0,5.776,24h12.9a.469.469,0,0,0,.467-.436l.347-4.841a.47.47,0,0,0-.434-.5h-.034a.471.471,0,0,0-.467.435h0l-.178,2.484h-2.8l.108-1.552a.469.469,0,1,0-.935-.065l-.113,1.618H9.8l-.113-1.618a.469.469,0,1,0-.935.065l.108,1.552H6.074l-.737-10.29a4.94,4.94,0,0,0,1.4-.475A.469.469,0,0,0,6.3,9.542a3.847,3.847,0,0,1-1.492.428c-.068,0-.133.005-.2.005A3.675,3.675,0,1,1,6.789,3.341a5.678,5.678,0,0,0-.395.86.469.469,0,1,0,.884.312A12.04,12.04,0,0,1,7.834,3.4,5.386,5.386,0,0,1,16.671,3.1a10.6,10.6,0,0,1,.757,1.375.469.469,0,1,0,.882-.319,6.006,6.006,0,0,0-.564-1.139,3.675,3.675,0,1,1,1.841,6.958h-.228a3.535,3.535,0,0,1-1.784-.489.469.469,0,0,0-.463.816,4.543,4.543,0,0,0,2,.6l-.254,3.542a.47.47,0,0,0,.434.5h.034a.47.47,0,0,0,.467-.436l.261-3.644a4.616,4.616,0,0,0,3.586-6.361ZM18.309,22.078l-.07.983H6.212l-.07-.983Z" transform="translate(0)" fill="#272626" stroke="#272626" stroke-width="0.5"/>
  </g>
</svg>
