<svg xmlns="http://www.w3.org/2000/svg" width="23.229" height="23.455" viewBox="0 0 23.229 23.455">
  <path id="shopping-cart" d="M22.673,4.451a2.279,2.279,0,0,0-1.745-.77H4.233L4.065,2.42A2.548,2.548,0,0,0,1.914,0H.687a.687.687,0,0,0,0,1.374H1.914c.22,0,.687.466.789,1.228L4.67,17.355a2.779,2.779,0,0,0,.941,1.714,2.84,2.84,0,0,0,1.319.656,2.528,2.528,0,1,0,4.47.05H15a2.527,2.527,0,1,0,4.5,0h1.8a.687.687,0,0,0,0-1.374H7.434a1.475,1.475,0,0,1-1.4-1.228L5.888,16.1H19.456a2.853,2.853,0,0,0,2.764-2.42l.986-7.392a2.28,2.28,0,0,0-.533-1.832ZM10.3,20.928a1.153,1.153,0,1,1-1.153-1.153A1.154,1.154,0,0,1,10.3,20.928Zm8.1,0a1.153,1.153,0,1,1-1.153-1.153A1.154,1.154,0,0,1,18.4,20.928ZM21.639,5.356a.924.924,0,0,1,.2.745l-.413,3.1H16.755l.276-4.146h3.9a.924.924,0,0,1,.711.3Zm-9.759,9.365L11.6,10.575h3.682l-.276,4.146ZM11.512,9.2l-.276-4.146h4.418L15.378,9.2ZM9.859,5.054,10.135,9.2H4.969L4.416,5.054Zm-4.707,5.52h5.075l.276,4.146h-4.8Zm14.3,4.146H16.387l.276-4.146h4.584l-.389,2.918a1.475,1.475,0,0,1-1.4,1.228Zm0,0" transform="translate(0)" fill="#272626"/>
</svg>
