<svg xmlns="http://www.w3.org/2000/svg" width="18.205" height="18.204" viewBox="0 0 18.205 18.204">
  <g id="Grupo_8091" data-name="Grupo 8091" transform="translate(-40.669 -550.536)">
    <path id="commerce-and-shopping_1_" data-name="commerce-and-shopping (1)" d="M39.967,263.352v6.233a1.477,1.477,0,0,1-1.475,1.475H25.509a1.477,1.477,0,0,1-1.475-1.475v-6.233a.3.3,0,1,1,.59,0v6.233a.886.886,0,0,0,.885.885H38.492a.886.886,0,0,0,.885-.885v-6.233a.3.3,0,1,1,.59,0Zm-13.425,5.422H37.459a.3.3,0,0,0,0-.59H26.542a.3.3,0,0,0,0,.59Z" transform="translate(17.771 297.429)" fill="#272626" stroke="#272626" stroke-width="0.5"/>
    <path id="commerce-and-shopping_1_2" data-name="commerce-and-shopping (1)" d="M1.919,4.779a.3.3,0,0,0,.3.3c16.176,0,15.259.029,15.376-.062A.294.294,0,0,0,17.7,4.82c.016-.119.125.18-1.939-4.584a.3.3,0,0,0-.271-.178H2.214a.3.3,0,0,0-.271.178L.026,4.662A10.026,10.026,0,0,0,0,6.61,2.433,2.433,0,0,0,4.574,7.769a2.435,2.435,0,0,0,4.279,0,2.435,2.435,0,0,0,4.278,0,2.434,2.434,0,0,0,4.573-1.161.3.3,0,1,0-.59,0,1.844,1.844,0,0,1-3.688,0,.3.3,0,1,0-.59,0,1.844,1.844,0,0,1-3.688,0,.3.3,0,1,0-.59,0A1.844,1.844,0,1,1,4.87,6.594a.3.3,0,0,0-.59,0,1.844,1.844,0,1,1-3.688.015V4.84L2.408.648H15.3l1.662,3.836H2.214a.3.3,0,0,0-.3.3Z" transform="translate(40.919 550.728)" fill="#ff7d00" stroke="#ff7d00" stroke-width="0.5"/>
  </g>
</svg>
