<svg id="pawprint" xmlns="http://www.w3.org/2000/svg" width="26.921" height="23.529" viewBox="0 0 26.921 23.529">
  <path id="Caminho_4928" data-name="Caminho 4928" d="M79.072,184.968a6.555,6.555,0,0,0-11.038,0l-2.919,4.554a4.149,4.149,0,0,0,5.163,6.037l.054-.024a8.156,8.156,0,0,1,6.5.024,4.126,4.126,0,0,0,1.665.352,4.178,4.178,0,0,0,.929-.105,4.15,4.15,0,0,0,2.57-6.285Zm1.38,8.464a2.556,2.556,0,0,1-2.989.683,9.737,9.737,0,0,0-7.819,0l-.035.016a2.571,2.571,0,0,1-3.165-3.756l2.919-4.554a4.977,4.977,0,0,1,8.381,0l2.919,4.554a2.557,2.557,0,0,1-.21,3.059Zm0,0" transform="translate(-61.07 -172.383)" fill="#ff7d00"/>
  <path id="Caminho_4929" data-name="Caminho 4929" d="M4.831,106.274A3.183,3.183,0,0,0,6.689,104.3a4.112,4.112,0,0,0-.073-2.835,4.114,4.114,0,0,0-1.847-2.152,3.183,3.183,0,0,0-2.7-.217A3.644,3.644,0,0,0,.287,103.9a3.844,3.844,0,0,0,3.457,2.57,3.014,3.014,0,0,0,1.087-.2ZM1.76,103.338a2.081,2.081,0,0,1,.878-2.766,1.464,1.464,0,0,1,.528-.1,1.78,1.78,0,0,1,.849.228,2.535,2.535,0,0,1,1.128,1.332A2.533,2.533,0,0,1,5.2,103.78a1.632,1.632,0,0,1-.935,1.021h0a2.08,2.08,0,0,1-2.5-1.463Zm0,0" transform="translate(0 -93.695)" fill="#272626"/>
  <path id="Caminho_4930" data-name="Caminho 4930" d="M128.368,9.012a4.262,4.262,0,0,0,3.954-4.505,3.988,3.988,0,1,0-7.908,0A4.262,4.262,0,0,0,128.368,9.012Zm0-7.434a2.7,2.7,0,0,1,2.376,2.928,2.428,2.428,0,1,1-4.752,0,2.7,2.7,0,0,1,2.376-2.928Zm0,0" transform="translate(-117.872 0)" fill="#272626"/>
  <path id="Caminho_4931" data-name="Caminho 4931" d="M286.576,48.256h0a3.223,3.223,0,0,0,1.018.165,4.1,4.1,0,0,0,3.731-2.936,4.419,4.419,0,0,0-.063-3.048,3.343,3.343,0,0,0-4.956-1.647,4.419,4.419,0,0,0-1.875,2.4,3.909,3.909,0,0,0,2.144,5.063Zm-.647-4.565a2.842,2.842,0,0,1,1.195-1.552,1.768,1.768,0,0,1,2.675.889,2.841,2.841,0,0,1,.028,1.958,2.1,2.1,0,1,1-3.9-1.3Zm0,0" transform="translate(-269.251 -38.138)" fill="#272626"/>
  <path id="Caminho_4932" data-name="Caminho 4932" d="M382.579,171.653h0a3.875,3.875,0,0,0-4.575,6.18,3.091,3.091,0,0,0,1.857.6,4,4,0,0,0,3.157-1.672A3.645,3.645,0,0,0,382.579,171.653Zm-.83,4.168a1.859,1.859,0,1,1-2.916-2.156,2.422,2.422,0,0,1,1.879-1.038,1.541,1.541,0,0,1,.928.295A2.082,2.082,0,0,1,381.749,175.821Zm0,0" transform="translate(-356.926 -162.06)" fill="#272626"/>
</svg>
