<svg xmlns="http://www.w3.org/2000/svg" enable-background="new 0 0 24 24" viewBox="0 0 24 24" id="gas-station">
  <g id="Layer_2">
    <path fill="#d3d3d3" d="M16,21H6V8c0-1.6569,1.3431-3,3-3h4c1.6569,0,3,1.3431,3,3V21z"></path>
    <path fill="#FF7D01" d="M20.707,6.293l-2-2c-0.3906-0.3906-1.0234-0.3906-1.4141,0s-0.3906,1.0234,0,1.4141L19,7.4141V17.5
			c0,0.2759-0.2246,0.5-0.5,0.5S18,17.7759,18,17.5v-4.8125c0-1.7978-1.2949-3.2943-3-3.618V7c0-2.2056-1.7939-4-4-4H7
			C4.7939,3,3,4.7944,3,7v12c-0.5527,0-1,0.4478-1,1s0.4473,1,1,1h1h10h1c0.5527,0,1-0.4478,1-1s-0.4473-1-1-1v-7.8502
			c0.588,0.264,1,0.8524,1,1.5377V17.5c0,1.3784,1.1211,2.5,2.5,2.5s2.5-1.1216,2.5-2.5V7C21,6.7349,20.8945,6.4805,20.707,6.293z
			 M5,19V7c0-1.103,0.8975-2,2-2h4c1.1025,0,2,0.897,2,2v12H5z"></path>
    <path fill="#FF7D01" d="M10,7H8C7.4473,7,7,7.4478,7,8s0.4473,1,1,1h2c0.5527,0,1-0.4478,1-1S10.5527,7,10,7z"></path>
  </g>
</svg>
