<svg id="key" xmlns="http://www.w3.org/2000/svg" width="18.802" height="18.798" viewBox="0 0 18.802 18.798">
  <g id="Grupo_6734" data-name="Grupo 6734" transform="translate(12.192 3.966)">
    <g id="Grupo_6733" data-name="Grupo 6733">
      <circle id="Elipse_1015" data-name="Elipse 1015" cx="1.175" cy="1.175" r="1.175" fill="#ff7d00"/>
    </g>
  </g>
  <g id="Grupo_6736" data-name="Grupo 6736" transform="translate(0 0)">
    <g id="Grupo_6735" data-name="Grupo 6735" transform="translate(0 0)">
      <path id="Caminho_8999" data-name="Caminho 8999" d="M18.6,6.158a10.715,10.715,0,0,0-2.31-3.633A10.468,10.468,0,0,0,12.683.261,2.953,2.953,0,0,0,9.551.925L6.667,3.8a2.939,2.939,0,0,0-.613,3.258c.151.341.316.674.492,1l-6.33,6.33A.734.734,0,0,0,0,14.9V18.13a.734.734,0,0,0,.734.734H3.966A.734.734,0,0,0,4.7,18.13V16.808H6.023a.734.734,0,0,0,.734-.734V14.752H8.079a.734.734,0,1,0,0-1.469H6.023a.734.734,0,0,0-.734.734v1.322H3.966a.734.734,0,0,0-.734.734V17.4H1.469V15.2L7.982,8.69a.734.734,0,0,0,.109-.9A11.886,11.886,0,0,1,7.4,6.457,1.462,1.462,0,0,1,7.7,4.837l2.884-2.871a1.482,1.482,0,0,1,1.572-.333,8.992,8.992,0,0,1,3.094,1.934A9.241,9.241,0,0,1,17.232,6.7,1.458,1.458,0,0,1,16.9,8.263l-2.919,2.905a1.479,1.479,0,0,1-1.616.315,9.534,9.534,0,0,1-1.322-.674.734.734,0,0,0-.768,1.252,11.008,11.008,0,0,0,1.526.779,2.944,2.944,0,0,0,3.217-.63L17.939,9.3A2.927,2.927,0,0,0,18.6,6.158Z" transform="translate(0 -0.067)" fill="#272626"/>
    </g>
  </g>
</svg>
