<svg height="100.163" viewBox="0 0 66.515 100.163" width="66.515" xmlns="http://www.w3.org/2000/svg"><path d="m191.432 110a9.293 9.293 0 0 0 -7.825 4.361 9.293 9.293 0 0 0 -7.825-4.361c-5.674 0-9.782 4.746-9.782 10.533 0 6.348 4.886 10.511 12.281 16.812 1.289 1.1 2.622 2.234 4.037 3.472a1.956 1.956 0 0 0 2.576 0c1.415-1.238 2.748-2.374 4.037-3.472 7.4-6.3 12.281-10.464 12.281-16.812.002-5.788-4.112-10.533-9.78-10.533zm-5.037 24.367c-.9.769-1.826 1.556-2.788 2.386-.961-.83-1.885-1.617-2.788-2.386-6.8-5.795-10.906-9.292-10.906-13.834 0-3.774 2.523-6.62 5.869-6.62 4.357 0 5.878 5.193 5.941 5.416a1.956 1.956 0 0 0 3.771-.007c.015-.054 1.534-5.408 5.939-5.408 3.346 0 5.869 2.846 5.869 6.62-.002 4.54-4.102 8.038-10.907 13.833z" fill="#ff7d00" transform="translate(-150.349 -88.481)"/><circle cx="55.168" cy="10.955" fill="#ff7d00" r="1.956"/><path d="m109.464 77.544c-6.364 1.156-15.639 4.421-15.639 10.881 0 6.692 10.933 11.738 25.432 11.738s25.432-5.046 25.432-11.738c0-6.469-9.3-9.725-15.639-10.882 7.889-10.161 23.464-31.493 23.464-44.286a33.275 33.275 0 0 0 -4.261-16.3 1.956 1.956 0 0 0 -3.409 1.92 29.355 29.355 0 0 1 3.756 14.38c0 8.535-8.993 24.745-24.673 44.473-1.939 2.44-3.576 4.418-4.671 5.721-1.016-1.209-2.5-3-4.254-5.2-.13-.328-25.091-30.274-25.091-45a29.355 29.355 0 0 1 43.27-25.832 1.956 1.956 0 0 0 1.859-3.443 33.268 33.268 0 0 0 -49.04 29.281c0 12.814 15.621 34.186 23.464 44.287zm9.793 10.882a1.956 1.956 0 0 0 1.475-.671c.024-.028 2.289-2.63 5.543-6.692 9.1 1.235 14.5 4.655 14.5 7.363 0 5.567-15.006 7.825-21.519 7.825-8.862 0-21.519-2.98-21.519-7.825 0-2.713 5.4-6.126 14.5-7.362 3.254 4.061 5.518 6.663 5.542 6.69a1.956 1.956 0 0 0 1.478.671z" fill="#001f40" transform="translate(-86)"/></svg>