<svg height="76.706" viewBox="0 0 76.189 76.706" width="76.189" xmlns="http://www.w3.org/2000/svg"><g fill="currentColor"><path d="m77.064 41.35a9.6 9.6 0 0 0 -13.567 0l-4.777 4.777a11.7 11.7 0 0 0 .245-2.27v-18.678a11.771 11.771 0 0 0 -11.506-11.756v-2.45a3.822 3.822 0 0 0 1.918-3.3v-5.755a1.918 1.918 0 0 0 -1.918-1.918h-15.341a1.918 1.918 0 0 0 -1.918 1.918v5.753a3.822 3.822 0 0 0 1.918 3.3v2.451a11.77 11.77 0 0 0 -11.506 11.755v18.678c0 .157.019.3.025.456a9.589 9.589 0 0 0 -3.86 1.712v-1.917a1.918 1.918 0 0 0 -1.918-1.918h-11.505a1.918 1.918 0 0 0 -1.918 1.918v30.682a1.918 1.918 0 0 0 1.918 1.918h11.506a1.918 1.918 0 0 0 1.918-1.918v-1.918h30.682a1.918 1.918 0 0 0 1.356-.562l28.248-28.246a1.918 1.918 0 0 0 0-2.712zm-64.122 31.52h-7.671v-26.847h7.671zm21.094-69.035h11.506v3.835h-11.506zm-9.588 40.022v-18.678a7.929 7.929 0 0 1 7.92-7.92h1.668a1.918 1.918 0 0 0 1.918-1.918v-3.835h7.671v3.835a1.918 1.918 0 0 0 1.918 1.918h1.667a7.929 7.929 0 0 1 7.92 7.92v18.677a7.828 7.828 0 0 1 -3.417 6.5c-.06-.027-.127-.036-.192-.061a6.11 6.11 0 0 0 -.742-.244c-.107-.027-.211-.06-.318-.081a5.713 5.713 0 0 0 -1.084-.115h-10.388a9.571 9.571 0 0 0 -8.789-5.749h-5.752zm22.217 25.178h-29.888v-15.341a5.125 5.125 0 0 1 .173-1.363.3.3 0 0 1 .017-.081 5.728 5.728 0 0 1 5.563-4.309h7.67a5.728 5.728 0 0 1 5.561 4.309 1.917 1.917 0 0 0 1.86 1.444h11.756a1.954 1.954 0 0 1 1.181.416 1.81 1.81 0 0 1 .641.947c0 .023.021.04.027.061a1.546 1.546 0 0 1 .069.493 1.876 1.876 0 0 1 -.587 1.365 1.836 1.836 0 0 1 -1.331.552h-21.094v3.835h21.094a5.785 5.785 0 0 0 5.753-5.753c0-.148-.023-.291-.035-.437l11.123-11.111a5.9 5.9 0 0 1 6.555-1.124z" transform="translate(-1.436)"/><path d="m0 0h3.835v3.835h-3.835z" transform="translate(5.753 49.859)"/><path d="m187.444 135.671v-1.918a3.835 3.835 0 0 0 -3.835-3.835h-1.918v-1.918h-3.835v1.918h-1.918a3.835 3.835 0 0 0 -3.835 3.835v3.835a3.835 3.835 0 0 0 3.835 3.835h7.671v3.835h-7.671v-1.918h-3.838v1.918a3.835 3.835 0 0 0 3.835 3.835h1.918v1.918h3.835v-1.918h1.918a3.835 3.835 0 0 0 3.835-3.835v-3.835a3.835 3.835 0 0 0 -3.835-3.835h-7.671v-3.835h7.671v1.918h3.835z" transform="translate(-141.421 -104.988)"/></g></svg>