<svg height="76" viewBox="0 0 59 76" width="59" xmlns="http://www.w3.org/2000/svg"><g fill="#388e3c"><path d="m107.518 27.143h-2.682v-2.714a24.138 24.138 0 1 0 -48.273 0v2.714h-2.681a2.7 2.7 0 0 0 -2.682 2.714v43.429a2.7 2.7 0 0 0 2.682 2.714h53.636a2.7 2.7 0 0 0 2.682-2.714v-43.429a2.7 2.7 0 0 0 -2.682-2.714zm-45.591-2.714a18.774 18.774 0 1 1 37.545 0v2.714h-37.545zm42.909 46.143h-48.272v-38h48.273z" transform="translate(-51.2)"/><path d="m203.384 261.425a8.031 8.031 0 0 0 -15.628 2.684 8.118 8.118 0 0 0 5.36 7.678v5.928a2.682 2.682 0 1 0 5.363 0v-5.928a8.149 8.149 0 0 0 4.905-10.362zm-7.586 5.432a2.715 2.715 0 1 1 2.682-2.714 2.7 2.7 0 0 1 -2.68 2.714z" transform="translate(-166.298 -215.286)"/></g></svg>