<svg height="72.16" viewBox="0 0 72.179 72.16" width="72.179" xmlns="http://www.w3.org/2000/svg"><circle cx="51.314" cy="19.736" fill="#ff7d00" r="4.511"/><path d="m71.4 23.45a41.133 41.133 0 0 0 -8.869-13.95 40.183 40.183 0 0 0 -13.843-8.689 11.335 11.335 0 0 0 -12.024 2.549l-11.072 11.02a11.282 11.282 0 0 0 -2.354 12.507c.581 1.307 1.213 2.586 1.888 3.821l-24.3 24.3a2.82 2.82 0 0 0 -.826 1.992v12.408a2.819 2.819 0 0 0 2.819 2.819h12.406a2.819 2.819 0 0 0 2.819-2.819v-5.075h5.076a2.819 2.819 0 0 0 2.819-2.819v-5.076h5.075a2.819 2.819 0 1 0 0-5.639h-7.894a2.819 2.819 0 0 0 -2.82 2.82v5.075h-5.075a2.819 2.819 0 0 0 -2.819 2.819v5.075h-6.767v-8.418l25-25a2.82 2.82 0 0 0 .417-3.456 45.629 45.629 0 0 1 -2.665-5.114 5.612 5.612 0 0 1 1.179-6.22l11.072-11.023a5.688 5.688 0 0 1 6.033-1.278 34.519 34.519 0 0 1 11.878 7.421 35.473 35.473 0 0 1 7.6 12.011 5.6 5.6 0 0 1 -1.264 6.018l-11.207 11.153a5.678 5.678 0 0 1 -6.205 1.21 36.6 36.6 0 0 1 -5.077-2.592 2.82 2.82 0 0 0 -2.95 4.806 42.259 42.259 0 0 0 5.859 2.99 11.3 11.3 0 0 0 12.351-2.417l11.206-11.153a11.235 11.235 0 0 0 2.534-12.076z" fill="#001f40" transform="translate(0 -.067)"/></svg>