<svg height="76.798" viewBox="0 0 60.324 76.798" width="60.324" xmlns="http://www.w3.org/2000/svg"><g fill="#ff7d00"><path d="m108.848 27.441h-46.614v-2.741a19.194 19.194 0 0 1 36.992-7.2 2.742 2.742 0 0 0 5.084-2.057 24.678 24.678 0 0 0 -47.56 9.257v2.742h-2.742a2.742 2.742 0 0 0 -2.742 2.742v43.871a2.742 2.742 0 0 0 2.742 2.745h54.84a2.742 2.742 0 0 0 2.742-2.742v-43.875a2.742 2.742 0 0 0 -2.742-2.742zm-2.742 43.872h-49.356v-38.388h49.356z" transform="translate(-51.266 .001)"/><path d="m203.771 261.393a8.226 8.226 0 1 0 -10.5 10.5v5.989a2.742 2.742 0 0 0 5.484 0v-5.989a8.227 8.227 0 0 0 5.016-10.5zm-7.756 5.518a2.742 2.742 0 1 1 2.742-2.742 2.742 2.742 0 0 1 -2.742 2.742z" transform="translate(-165.853 -214.792)"/></g></svg>