<svg xmlns="http://www.w3.org/2000/svg" width="24.81" height="22.387" viewBox="0 0 24.81 22.387">
  <g id="Grupo_8095" data-name="Grupo 8095" transform="translate(-210.612 -547.81)">
    <g id="Grupo_6720" data-name="Grupo 6720" transform="translate(210.612 547.81)">
      <path id="Caminho_8995" data-name="Caminho 8995" d="M24.083,25H.727a.727.727,0,0,0,0,1.454H2.471V46.66a.727.727,0,0,0,1.009.67L7.8,45.511l4.322,1.82a.727.727,0,0,0,.564,0l4.321-1.82,4.321,1.82a.727.727,0,0,0,1.009-.67V26.454h1.744a.727.727,0,1,0,0-1.454Zm-3.2,20.565-3.594-1.513a.727.727,0,0,0-.564,0l-4.321,1.82-4.322-1.82a.727.727,0,0,0-.564,0L3.925,45.566V26.454h16.96Z" transform="translate(0 -25)" fill="#272626"/>
    </g>
    <g id="Grupo_6722" data-name="Grupo 6722" transform="translate(219.319 551.686)">
      <path id="Caminho_8996" data-name="Caminho 8996" d="M174,105h-7.269a.727.727,0,1,0,0,1.454H174A.727.727,0,0,0,174,105Z" transform="translate(-166 -105)" fill="#ff7d00"/>
    </g>
    <g id="Grupo_6724" data-name="Grupo 6724" transform="translate(219.319 557.501)">
      <path id="Caminho_8997" data-name="Caminho 8997" d="M218.511,225h-6.784a.727.727,0,0,0,0,1.454h6.784a.727.727,0,1,0,0-1.454Z" transform="translate(-211 -225)" fill="#ff7d00"/>
    </g>
    <g id="Grupo_6726" data-name="Grupo 6726" transform="translate(216.83 557.412)">
      <circle id="Elipse_1013" data-name="Elipse 1013" cx="0.78" cy="0.78" r="0.78" fill="#272626"/>
    </g>
    <g id="Grupo_6728" data-name="Grupo 6728" transform="translate(219.319 561.378)">
      <path id="Caminho_8998" data-name="Caminho 8998" d="M218.511,305h-6.784a.727.727,0,0,0,0,1.454h6.784a.727.727,0,1,0,0-1.454Z" transform="translate(-211 -305)" fill="#ff7d00"/>
    </g>
    <g id="Grupo_6730" data-name="Grupo 6730" transform="translate(216.83 561.311)">
      <circle id="Elipse_1014" data-name="Elipse 1014" cx="0.78" cy="0.78" r="0.78" fill="#272626"/>
    </g>
  </g>
</svg>
