<svg xmlns="http://www.w3.org/2000/svg" width="19.162" height="13.474" viewBox="0 0 19.162 13.474">
  <g id="Grupo_8092" data-name="Grupo 8092" transform="translate(-40.919 -639.263)">
    <path id="Caminho_9296" data-name="Caminho 9296" d="M2239.382,368.874a2.244,2.244,0,0,0-2.314-2.311c-.717,0-1.434,0-2.151,0h-12.348a2.239,2.239,0,0,0-2.309,1.852c-.006.025-.009.048-.037.057v9.655c.029.009.032.032.037.057a2.238,2.238,0,0,0,2.291,1.852q7.259,0,14.518,0a2.242,2.242,0,0,0,2.314-2.311Q2239.386,373.3,2239.382,368.874Zm-1.122,8.787a1.141,1.141,0,0,1-1.254,1.251H2222.62a1.147,1.147,0,0,1-1.275-1.267q0-4.35,0-8.7a1.144,1.144,0,0,1,1.263-1.26h14.386a1.144,1.144,0,0,1,1.266,1.258Q2238.26,373.3,2238.26,377.661Z" transform="translate(-2179.303 272.702)" fill="#272626"/>
    <path id="Caminho_9297" data-name="Caminho 9297" d="M2272.936,414.394q-2.367.007-4.734,0c-.134,0-.161.035-.161.164q.008,2.086,0,4.172c0,.134.036.162.165.161.786-.006,1.571,0,2.357,0s1.584,0,2.376,0c.134,0,.161-.036.161-.164q-.008-2.086,0-4.172C2273.1,414.422,2273.064,414.394,2272.936,414.394Zm-1.094,3.374c-.418-.006-.836,0-1.254,0s-.86,0-1.291,0c-.108,0-.133-.032-.132-.135q.007-.991,0-1.983c0-.108.032-.133.135-.132q1.273.006,2.544,0c.108,0,.133.032.132.135q-.007.991,0,1.983C2271.977,417.744,2271.945,417.769,2271.841,417.768Z" transform="translate(-2224.88 227.112)" fill="#ff7d00"/>
    <path id="Caminho_9298" data-name="Caminho 9298" d="M2272.191,533.484c0-.1-.013-.143-.128-.143q-1.954.006-3.907,0c-.092,0-.115.027-.113.116.005.286.009.573,0,.86,0,.123.032.154.153.152.635-.006,1.271,0,1.906,0s1.3,0,1.944,0c.114,0,.15-.026.146-.144C2272.183,534.045,2272.186,533.765,2272.191,533.484Z" transform="translate(-2224.88 113.741)" fill="#ff7d00"/>
    <path id="Caminho_9299" data-name="Caminho 9299" d="M2496.539,533.335c-.635.006-1.271,0-1.906,0s-1.3,0-1.944,0c-.115,0-.149.028-.146.145.009.28.006.561,0,.841,0,.1.015.142.129.142q1.953-.006,3.907,0c.092,0,.114-.029.113-.116-.005-.286-.009-.573,0-.86C2496.7,533.362,2496.658,533.334,2496.539,533.335Z" transform="translate(-2438.855 113.747)" fill="#ff7d00"/>
    <path id="Caminho_9300" data-name="Caminho 9300" d="M2384.51,533.475c0-.1-.026-.125-.124-.125q-1.946,0-3.891,0c-.1,0-.128.023-.126.123.007.281.01.561,0,.842,0,.131.032.165.163.163.636-.007,1.272,0,1.908,0s1.284,0,1.926,0c.113,0,.149-.024.146-.143C2384.5,534.048,2384.5,533.761,2384.51,533.475Z" transform="translate(-2331.939 113.733)" fill="#ff7d00"/>
    <path id="Caminho_9301" data-name="Caminho 9301" d="M2538.712,415.437c0,.094.032.113.118.113q.877,0,1.755,0c.095,0,.112-.033.111-.118,0-.3-.005-.6,0-.9,0-.092-.028-.114-.116-.113-.286.005-.573,0-.859,0s-.585,0-.878,0c-.087,0-.135.008-.132.117C2538.719,414.84,2538.718,415.139,2538.712,415.437Z" transform="translate(-2482.859 227.084)" fill="#ff7d00"/>
  </g>
</svg>
