<svg id="Grupo_16389" data-name="Grupo 16389" xmlns="http://www.w3.org/2000/svg" xmlns:xlink="http://www.w3.org/1999/xlink" width="15.012" height="15.013" viewBox="0 0 15.012 15.013">
  <defs>
    <clipPath id="clip-path">
      <rect id="Retângulo_3383" data-name="Retângulo 3383" width="15.012" height="15.013" fill="none"/>
    </clipPath>
  </defs>
  <g id="Grupo_16388" data-name="Grupo 16388" clip-path="url(#clip-path)">
    <path id="Caminho_13814" data-name="Caminho 13814" d="M0,7.035V6.889c.032-.2.029-.41.047-.614A5.326,5.326,0,0,1,.4,4.876a7.373,7.373,0,0,1,1.38-2.331A7.5,7.5,0,0,1,3.928.827,7.647,7.647,0,0,1,5.871.105,7.172,7.172,0,0,1,6.805.014c.038,0,.078.013.113-.014h.117c.02.021.046.013.069.015S7.179.027,7.211,0H7.8c.032.027.071.009.107.015s.05.006.069-.015h.117c.218.03.439.03.658.048a5.159,5.159,0,0,1,1.327.329,7.706,7.706,0,0,1,2.139,1.19.547.547,0,0,1,.135.132.474.474,0,0,0,.091.2,5.336,5.336,0,0,1,.932,1.63,7.743,7.743,0,0,1,.512,2.334A7.312,7.312,0,0,1,13.5,8.785a7.406,7.406,0,0,1-1.482,2.537,7.7,7.7,0,0,1-2.4,1.835,7.2,7.2,0,0,1-2.508.712,7.593,7.593,0,0,1-4.372-.864,3.191,3.191,0,0,1-.822-.554.413.413,0,0,0-.208-.1,2.72,2.72,0,0,1-.449-.573A7.457,7.457,0,0,1,.087,9.05a6.674,6.674,0,0,1-.072-.832c0-.033.011-.069-.014-.1V7.973c.021-.02.013-.046.015-.069S.027,7.83,0,7.8V7.211C.027,7.179.009,7.14.015,7.1S.021,7.055,0,7.035" fill="#e14c4b"/>
    <path id="Caminho_13815" data-name="Caminho 13815" d="M171.42,0a.14.14,0,0,1-.119.025q-.031-.015,0-.025Z" transform="translate(-164.208)" fill="#ea8483"/>
    <path id="Caminho_13816" data-name="Caminho 13816" d="M188.845.025A.14.14,0,0,1,188.726,0h.117q.033.01,0,.025" transform="translate(-180.928)" fill="#ea8483"/>
    <path id="Caminho_13817" data-name="Caminho 13817" d="M.025,171.3a.141.141,0,0,1-.025.119V171.3q.01-.033.025,0" transform="translate(0 -164.208)" fill="#ea8483"/>
    <path id="Caminho_13818" data-name="Caminho 13818" d="M0,188.726a.141.141,0,0,1,.025.119q-.015.031-.025,0Z" transform="translate(0 -180.928)" fill="#ea8483"/>
    <path id="Caminho_13819" data-name="Caminho 13819" d="M170.338,0c0,.008,0,.017,0,.025-.023,0-.046,0-.057-.025Z" transform="translate(-163.244)" fill="#efa1a1"/>
    <path id="Caminho_13820" data-name="Caminho 13820" d="M191.566.025q0-.013,0-.025h.059c-.011.026-.034.026-.057.025" transform="translate(-183.649)" fill="#efa1a1"/>
    <path id="Caminho_13821" data-name="Caminho 13821" d="M.025,170.337l-.025,0v-.059c.026.011.026.033.025.057" transform="translate(0 -163.245)" fill="#efa1a1"/>
    <path id="Caminho_13822" data-name="Caminho 13822" d="M0,191.564l.025,0c0,.023,0,.046-.025.057Z" transform="translate(0 -183.649)" fill="#efa1a1"/>
    <path id="Caminho_13823" data-name="Caminho 13823" d="M100.934,94.4a.805.805,0,0,1-.266.567c-.74.738-1.477,1.479-2.221,2.214-.093.092-.1.141,0,.237.744.735,1.48,1.476,2.221,2.214a.75.75,0,0,1,.24.769.722.722,0,0,1-1.128.391,1.607,1.607,0,0,1-.175-.156q-1.1-1.1-2.195-2.2c-.085-.086-.129-.089-.216,0-.739.746-1.484,1.487-2.225,2.231a.75.75,0,0,1-.769.24.722.722,0,0,1-.391-1.128,1.6,1.6,0,0,1,.156-.175q1.1-1.1,2.2-2.195c.086-.085.089-.129,0-.216-.746-.739-1.487-1.484-2.231-2.225a.75.75,0,0,1-.24-.769.722.722,0,0,1,1.128-.391,1.6,1.6,0,0,1,.175.156q1.1,1.1,2.195,2.2c.085.086.129.089.216,0,.739-.746,1.484-1.487,2.225-2.231a.753.753,0,0,1,.783-.236.719.719,0,0,1,.519.7" transform="translate(-89.795 -89.795)" fill="#fefefe"/>
    <path id="Caminho_13824" data-name="Caminho 13824" d="M52.243,41.679a6.72,6.72,0,0,1,1.378,1.468,7.16,7.16,0,0,1,1.246,3.059,7.362,7.362,0,0,1-1.5,5.885,7.192,7.192,0,0,1-4.493,2.74,7.35,7.35,0,0,1-6.308-1.673,5.6,5.6,0,0,1-.881-.917,4.7,4.7,0,0,1,.6.395,7.479,7.479,0,0,0,3.166,1.1,7.424,7.424,0,0,0,5.8-1.828,7.528,7.528,0,0,0,1.787-2.332,7.3,7.3,0,0,0,.741-2.753,7.544,7.544,0,0,0-.851-4.072,6.027,6.027,0,0,0-.547-.866.492.492,0,0,1-.129-.21" transform="translate(-39.958 -39.957)" fill="#d0403f"/>
  </g>
</svg>
