<svg id="Componente_32_1" data-name="Componente 32 – 1" xmlns="http://www.w3.org/2000/svg" width="189" height="102.503" viewBox="0 0 189 102.503">
  <path id="Caminho_9766" data-name="Caminho 9766" d="M1485.23,480.158h45.607a3.505,3.505,0,0,0,3.495-3.495h0a3.505,3.505,0,0,0-3.495-3.495h-12.7a3.495,3.495,0,1,1,0-6.99h3.6a3.495,3.495,0,0,0,0-6.99H1486.73a3.495,3.495,0,0,0,0,6.99h7.036a3.495,3.495,0,0,1,0,6.99h-12.393a3.505,3.505,0,0,0-3.495,3.495h0a3.472,3.472,0,0,0,.678,2.061h3.625A3.96,3.96,0,0,1,1485.23,480.158Z" transform="translate(-1395.428 -459.189)" fill="#ffbe88" opacity="0.24"/>
  <path id="Caminho_9767" data-name="Caminho 9767" d="M1229.6,610.3h0a3.505,3.505,0,0,0-3.495-3.495h-8.984a3.505,3.505,0,0,0-3.495,3.495h0a3.471,3.471,0,0,0,.678,2.061h14.618A3.472,3.472,0,0,0,1229.6,610.3Z" transform="translate(-1156.197 -592.825)" fill="#ffbe88" opacity="0.24"/>
  <path id="Caminho_9768" data-name="Caminho 9768" d="M2042.217,466.179h8.984a3.495,3.495,0,0,0,0-6.99h-8.984a3.495,3.495,0,0,0,0,6.99Z" transform="translate(-1903.159 -459.189)" fill="#ffbe88" opacity="0.24"/>
  <path id="Caminho_9769" data-name="Caminho 9769" d="M858.994,1354.659H850.01a3.495,3.495,0,0,0,0,6.99h8.984a3.495,3.495,0,1,0,0-6.99Z" transform="translate(-823.857 -1269.856)" fill="#ffbe88" opacity="0.24"/>
  <path id="Caminho_9770" data-name="Caminho 9770" d="M2438.823,1354.659h-8.984a3.495,3.495,0,0,0,0,6.99h8.984a3.495,3.495,0,0,0,0-6.99Z" transform="translate(-2254.072 -1269.856)" fill="#ffbe88" opacity="0.24"/>
  <path id="Caminho_9771" data-name="Caminho 9771" d="M1046.994,1051.775a3.505,3.505,0,0,0-3.495,3.495h0a3.505,3.505,0,0,0,3.495,3.495h1.7v-6.99Z" transform="translate(-1002.186 -995.656)" fill="#ffbe88" opacity="0.24"/>
  <path id="Caminho_9772" data-name="Caminho 9772" d="M2287.652,1201.637l-1.75,4.744h3.306a3.5,3.5,0,0,0,3.494-3.495h0a3.5,3.5,0,0,0-3.494-3.495h-1.189A5.967,5.967,0,0,1,2287.652,1201.637Z" transform="translate(-2126.931 -1129.292)" fill="#ffbe88" opacity="0.24"/>
  <path id="Caminho_9773" data-name="Caminho 9773" d="M2063.543,1055.27h0a3.5,3.5,0,0,0-3.495-3.495h-37.381l18.947,6.99h18.434A3.5,3.5,0,0,0,2063.543,1055.27Z" transform="translate(-1888.625 -995.656)" fill="#ffbe88" opacity="0.24"/>
  <path id="Caminho_9774" data-name="Caminho 9774" d="M973.913,1199.391a3.505,3.505,0,0,0-3.495,3.495h0a3.505,3.505,0,0,0,3.495,3.495h8.617v-6.99Z" transform="translate(-936.026 -1129.292)" fill="#ffbe88" opacity="0.24"/>
  <path id="Caminho_9775" data-name="Caminho 9775" d="M1094.546,926.414a3.465,3.465,0,0,0,.357,1.533v-3.065A3.465,3.465,0,0,0,1094.546,926.414Z" transform="translate(-1048.399 -880.78)" fill="#ffbe88"/>
  <path id="Caminho_9776" data-name="Caminho 9776" d="M967.577,756.543a3.505,3.505,0,0,0-3.495,3.495h0a3.505,3.505,0,0,0,3.495,3.495h9.217v-6.99Z" transform="translate(-930.29 -728.383)" fill="#ffbe88" opacity="0.24"/>
  <path id="Caminho_9777" data-name="Caminho 9777" d="M1565.477,804.347a6,6,0,0,1,.336-1.429l9.022-24.456a5.989,5.989,0,0,1,7.692-3.546l7.039,2.6h37.315a3.495,3.495,0,0,0,0-6.99h-16.529a3.495,3.495,0,0,1,0-6.99H1635a3.505,3.505,0,0,0,3.495-3.495h0a3.505,3.505,0,0,0-3.495-3.495h-69.812v47.8Z" transform="translate(-1474.471 -728.383)" fill="#ffbe88" opacity="0.24"/>
  <path id="Caminho_9778" data-name="Caminho 9778" d="M629.361,627.742a4.487,4.487,0,0,0-4.322-3.5,6.84,6.84,0,0,0-12.826,1.977l-.1,0a4.866,4.866,0,0,0-4.839,5.357h24.926A4,4,0,0,0,629.361,627.742Z" transform="translate(-607.254 -605.247)" fill="#ffbe88"/>
  <path id="Caminho_9779" data-name="Caminho 9779" d="M2253.635,495.817h33.05a5.3,5.3,0,0,0-3.771-5.076,5.951,5.951,0,0,0-5.731-4.645,9.07,9.07,0,0,0-17.008,2.621c-.043,0-.085,0-.128,0a6.452,6.452,0,0,0-6.416,7.1Z" transform="translate(-2097.685 -479.09)" fill="#ffbe88"/>
  <path id="Caminho_9780" data-name="Caminho 9780" d="M1137.426,747.555a11.078,11.078,0,0,1-12.445-2.913,1.851,1.851,0,0,1-1.379.619h-6.366a1.857,1.857,0,1,1,0-3.713h5.793a10.989,10.989,0,0,1-.655-2.162h-20.3a.683.683,0,0,1-.683-.683V675.736a.683.683,0,0,1,.683-.683h36.68a.683.683,0,0,1,.683.683V721.9h3.084V669.442a3.971,3.971,0,0,0-3.966-3.966h-36.282a3.97,3.97,0,0,0-3.966,3.966v75.035a3.97,3.97,0,0,0,3.966,3.966h36.282a3.948,3.948,0,0,0,1.075-.149h-1.407A.806.806,0,0,1,1137.426,747.555Zm-20.953-77.784a.329.329,0,0,1,.329-.329h7.234a.329.329,0,0,1,.329.329v.768a.329.329,0,0,1-.329.329H1116.8a.329.329,0,0,1-.329-.329Zm-8.606.384a1.526,1.526,0,0,1,1.521-1.521h0a1.521,1.521,0,1,1,0,3.043h0A1.526,1.526,0,0,1,1107.867,670.155Zm19.036,0a.951.951,0,1,1,.951.951A.954.954,0,0,1,1126.9,670.155Z" transform="translate(-1051.808 -645.94)" fill="#ff7d00"/>
  <line id="Linha_139" data-name="Linha 139" y2="47.804" transform="translate(90.718 28.16)" fill="none" stroke="#ff7d00" stroke-linecap="round" stroke-linejoin="round"/>
  <line id="Linha_140" data-name="Linha 140" y1="4.658" transform="translate(90.718 23.502)" fill="none" stroke="#ff7d00" stroke-linecap="round" stroke-linejoin="round"/>
  <path id="Caminho_9781" data-name="Caminho 9781" d="M1157.568,836.144a11.095,11.095,0,0,1,12.354-12.514.812.812,0,0,1,.13-.012h1.981a.8.8,0,0,1-.03-.214v-3.329a.806.806,0,0,1,.805-.8h1.319V773.1a.075.075,0,0,0-.075-.075h-36.68a.075.075,0,0,0-.075.075v62.967a.075.075,0,0,0,.075.075Zm-12.948-35.609a11.093,11.093,0,1,1,21.814,2.848h.632a1.867,1.867,0,0,1,1.867,1.867h0a1.867,1.867,0,0,1-1.867,1.867h-22.708a1.867,1.867,0,0,1-1.867-1.867h0a1.867,1.867,0,0,1,1.867-1.867h.632A11.064,11.064,0,0,1,1144.62,800.536Z" transform="translate(-1087.102 -743.306)" fill="#fff"/>
  <path id="Caminho_9782" data-name="Caminho 9782" d="M1278.534,1470.613a1.862,1.862,0,0,0,1.857,1.856h6.366a1.85,1.85,0,0,0,1.379-.619,11.111,11.111,0,0,1-1.952-3.094h-5.793A1.862,1.862,0,0,0,1278.534,1470.613Z" transform="translate(-1214.963 -1373.148)" fill="#fff"/>
  <path id="Caminho_9783" data-name="Caminho 9783" d="M1200.731,701.861a1.521,1.521,0,1,0,0-3.043h0a1.521,1.521,0,0,0,0,3.043Z" transform="translate(-1143.151 -676.125)" fill="#fff"/>
  <path id="Caminho_9784" data-name="Caminho 9784" d="M1402.122,705.794a.951.951,0,1,0-.951.951A.954.954,0,0,0,1402.122,705.794Z" transform="translate(-1325.124 -681.579)" fill="#fff"/>
  <rect id="Retângulo_3236" data-name="Retângulo 3236" width="7.892" height="1.426" rx="0.713" transform="translate(64.665 23.502)" fill="#fff"/>
  <path id="Caminho_9785" data-name="Caminho 9785" d="M1192.145,962.175h0a1.867,1.867,0,0,0,1.867,1.867h22.708a1.867,1.867,0,0,0,1.867-1.867h0a1.867,1.867,0,0,0-1.867-1.867h-.632a11.093,11.093,0,1,0-21.443,0h-.632A1.867,1.867,0,0,0,1192.145,962.175Zm19.732,1.2h-6.263v-.983a4.7,4.7,0,0,0,1.785-.384,2.951,2.951,0,0,0,1.3-1.076,2.794,2.794,0,0,0,.444-1.55,2.627,2.627,0,0,0-.256-1.216,2.27,2.27,0,0,0-.713-.82,4.428,4.428,0,0,0-1.109-.551,14.447,14.447,0,0,0-1.456-.415q-.642-.162-.921-.246a2.883,2.883,0,0,1-.551-.234,1.306,1.306,0,0,1-.428-.357.8.8,0,0,1-.156-.493.952.952,0,0,1,.457-.788,2.022,2.022,0,0,1,1.2-.327,1.82,1.82,0,0,1,1.167.3,2.454,2.454,0,0,1,.622.84,2.228,2.228,0,0,0,.373.541.7.7,0,0,0,.5.165.776.776,0,0,0,.606-.276.912.912,0,0,0,.243-.619,1.742,1.742,0,0,0-.195-.772,2.411,2.411,0,0,0-.616-.756,3.2,3.2,0,0,0-1.06-.577,4.43,4.43,0,0,0-1.243-.211v-1.394a.526.526,0,0,0-1.051,0v1.434a4.462,4.462,0,0,0-1.126.282,2.7,2.7,0,0,0-1.239.937,2.367,2.367,0,0,0-.428,1.394,2.273,2.273,0,0,0,.405,1.378,2.772,2.772,0,0,0,1.1.875,8.951,8.951,0,0,0,1.715.561q.765.175,1.222.331a1.862,1.862,0,0,1,.746.451,1.054,1.054,0,0,1,.288.768,1.2,1.2,0,0,1-.535,1,2.267,2.267,0,0,1-1.391.4,2.191,2.191,0,0,1-1.005-.2,1.587,1.587,0,0,1-.593-.5,3.855,3.855,0,0,1-.392-.759,1.528,1.528,0,0,0-.36-.577.732.732,0,0,0-.516-.194.842.842,0,0,0-.862.849,2.317,2.317,0,0,0,.405,1.242,3.094,3.094,0,0,0,1.054,1.021,4,4,0,0,0,1.516.481v1.029h-7.783a10.43,10.43,0,1,1,17.172,0Z" transform="translate(-1136.755 -900.23)" fill="#272626"/>
  <path id="Caminho_9786" data-name="Caminho 9786" d="M1242.476,963.8a10.43,10.43,0,1,0-19.016,5.914h2.075a8.8,8.8,0,1,1,13.023,0h2.074A10.37,10.37,0,0,0,1242.476,963.8Z" transform="translate(-1163.435 -906.567)" fill="#fff"/>
  <path id="Caminho_9787" data-name="Caminho 9787" d="M1256.458,979.412a8.8,8.8,0,1,0-15.308,5.914h5.709V984.3a4,4,0,0,1-1.516-.481,3.093,3.093,0,0,1-1.054-1.021,2.318,2.318,0,0,1-.405-1.242.842.842,0,0,1,.863-.849.732.732,0,0,1,.516.195,1.53,1.53,0,0,1,.36.577,3.868,3.868,0,0,0,.392.759,1.591,1.591,0,0,0,.593.5,2.193,2.193,0,0,0,1.005.2,2.268,2.268,0,0,0,1.391-.4,1.2,1.2,0,0,0,.535-1,1.052,1.052,0,0,0-.289-.768,1.86,1.86,0,0,0-.746-.451q-.457-.156-1.222-.331a8.949,8.949,0,0,1-1.715-.561,2.772,2.772,0,0,1-1.1-.875,2.272,2.272,0,0,1-.405-1.378,2.367,2.367,0,0,1,.428-1.394,2.7,2.7,0,0,1,1.239-.937,4.459,4.459,0,0,1,1.126-.282v-1.434a.526.526,0,0,1,1.051,0v1.394a4.432,4.432,0,0,1,1.243.211,3.2,3.2,0,0,1,1.06.577,2.413,2.413,0,0,1,.616.755,1.743,1.743,0,0,1,.195.772.911.911,0,0,1-.243.619.775.775,0,0,1-.606.276.7.7,0,0,1-.5-.165,2.226,2.226,0,0,1-.373-.542,2.456,2.456,0,0,0-.623-.84,1.82,1.82,0,0,0-1.167-.3,2.022,2.022,0,0,0-1.2.327.952.952,0,0,0-.457.788.8.8,0,0,0,.156.493,1.308,1.308,0,0,0,.428.357,2.876,2.876,0,0,0,.551.233q.279.084.921.246a14.455,14.455,0,0,1,1.456.415,4.426,4.426,0,0,1,1.109.551,2.269,2.269,0,0,1,.713.82,2.628,2.628,0,0,1,.256,1.216,2.794,2.794,0,0,1-.444,1.55,2.951,2.951,0,0,1-1.3,1.077,4.7,4.7,0,0,1-1.784.384v.983h6.263A8.764,8.764,0,0,0,1256.458,979.412Z" transform="translate(-1179.05 -922.183)" fill="#f4c458"/>
  <path id="Caminho_9788" data-name="Caminho 9788" d="M1963.944,1116.379a1.175,1.175,0,0,0,.105-.59.494.494,0,0,0-.054-.1.489.489,0,0,0-.68-.123,1.857,1.857,0,0,0-.36.631l.931.343Z" transform="translate(-1834.567 -1053.325)" fill="#272626"/>
  <path id="Caminho_9789" data-name="Caminho 9789" d="M1828.456,1067.619a.68.68,0,0,0-.228-.129.711.711,0,0,0-.261-.051.32.32,0,0,0-.213.1,1.054,1.054,0,0,0-.2.294q-.1.2-.22.532l-.062.167a5.5,5.5,0,0,0-.182.567,1.24,1.24,0,0,0-.044.371.338.338,0,0,0,.09.223.739.739,0,0,0,.483.178.334.334,0,0,0,.215-.106,1.179,1.179,0,0,0,.2-.3,5.23,5.23,0,0,0,.227-.539l.058-.159q.129-.348.185-.566a1.038,1.038,0,0,0,.041-.36A.337.337,0,0,0,1828.456,1067.619Z" transform="translate(-1711.531 -1009.835)" fill="#272626"/>
  <path id="Caminho_9790" data-name="Caminho 9790" d="M1592.323,949.591l-7.039-2.6a5.989,5.989,0,0,0-7.692,3.546L1568.571,975a6,6,0,0,0-.336,1.429h15.134a.806.806,0,0,1,.8.8v3.329a.806.806,0,0,1-.8.8h-1.981a.8.8,0,0,1,.03.214v3.329a.8.8,0,0,1-.013.142h1.018a.806.806,0,0,1,.805.805v.932l38.008,14.022a5.989,5.989,0,0,0,7.692-3.546l7.272-19.712,1.75-4.744a5.99,5.99,0,0,0-3.546-7.692l-4.186-1.544-18.947-6.99Zm24.462,45.958h0l-2.455-.906a1.622,1.622,0,0,1-.96-2.083l.351-.953a1.622,1.622,0,0,1,2.083-.96l2.455.906h0l2.727,1.006a1.622,1.622,0,0,1,.96,2.083l-.351.953a1.622,1.622,0,0,1-2.083.96Zm-9.082-32.1a3.782,3.782,0,0,1-.209.806l-.192.519-1.953-.721a1.947,1.947,0,0,0-.094.385.586.586,0,0,0,.024.272.425.425,0,0,0,.156.2,1.241,1.241,0,0,0,.3.154,2.09,2.09,0,0,0,.582.128l.521.032-.175.864a2.708,2.708,0,0,1-.555.017,2.623,2.623,0,0,1-.774-.171,1.7,1.7,0,0,1-1.119-1.007,2.448,2.448,0,0,1,.121-1.652,2.474,2.474,0,0,1,.974-1.337,1.539,1.539,0,0,1,1.385-.084,1.8,1.8,0,0,1,.645.381,1.2,1.2,0,0,1,.322.538A1.677,1.677,0,0,1,1607.7,963.448Zm-10.163-3.949a1.258,1.258,0,0,0-.253-.064,2.986,2.986,0,0,0-.307-.028l-1.08,2.928-1.1-.406,1.419-3.846.771.284.126.63.586-.326a1.389,1.389,0,0,1,.619.089.953.953,0,0,1,.646.621,1.651,1.651,0,0,1-.1,1.027l-.982,2.661-1.1-.406,1.014-2.747Q1597.906,959.634,1597.541,959.5Zm-3.37,1.7q-.063.032-.128.059a1.773,1.773,0,0,1-2.316-.96,3.034,3.034,0,0,1,1.1-2.975,1.8,1.8,0,0,1,2.444.9,2.435,2.435,0,0,1-.12,1.627A2.526,2.526,0,0,1,1594.171,961.2Zm5.965-3.075,1.1.406-1.874,5.078-1.1-.406Zm1.016,1.774,1.1.406-1.419,3.846-1.1-.406Zm.249-.848a.586.586,0,0,1,.34-.372.7.7,0,0,1,.848.313.586.586,0,0,1,.017.5.572.572,0,0,1-.339.368.712.712,0,0,1-.848-.313A.573.573,0,0,1,1601.4,959.055Zm1.336,2.362-.417-.154.271-.736.416.154.024-.064a1.665,1.665,0,0,1,.651-.9,1.144,1.144,0,0,1,1.018-.022,2.149,2.149,0,0,1,.5.251,1.572,1.572,0,0,1,.278.234l-.294.625-.466-.172a.588.588,0,0,0-.319-.048.277.277,0,0,0-.177.2l-.111.3.782.289-.271.736-.783-.289-1.117,3.028-1.1-.406ZM1592.079,957q-.271-.22-.5-.374a2.553,2.553,0,0,0-.528-.263,1.313,1.313,0,0,0-.354-.082.517.517,0,0,0-.307.071.867.867,0,0,0-.276.292,3.065,3.065,0,0,0-.268.575l-.148.4a3.109,3.109,0,0,0-.18.672,1.189,1.189,0,0,0,.019.46.571.571,0,0,0,.185.292,1.053,1.053,0,0,0,.308.174,1.619,1.619,0,0,0,.573.107q.277,0,.6-.028l-.111.994a3.654,3.654,0,0,1-.659.018,2.71,2.71,0,0,1-.806-.173,2.32,2.32,0,0,1-.886-.539,1.763,1.763,0,0,1-.434-.746,2.226,2.226,0,0,1-.059-.893,4.667,4.667,0,0,1,.694-1.882,2.094,2.094,0,0,1,.623-.625,1.758,1.758,0,0,1,.822-.262,2.493,2.493,0,0,1,1.039.179,3.084,3.084,0,0,1,.666.334,2.749,2.749,0,0,1,.458.378Zm-4.455-2.943a3.119,3.119,0,0,1,.032.331,2.563,2.563,0,0,0-2.682-.966,3.027,3.027,0,0,0-1.761.984.23.23,0,0,1-.279-.257,2.5,2.5,0,0,1,1.947-2.332A2.477,2.477,0,0,1,1587.624,954.053Zm-4.888.882a3,3,0,0,0,.937,1.779.248.248,0,0,1,0,.072.239.239,0,0,1-.261.215,2.384,2.384,0,0,1-2.257-1.946,2.6,2.6,0,0,1,2.243-2.832,2.926,2.926,0,0,1,.325-.038A2.74,2.74,0,0,0,1582.736,954.935Zm-1.167,1.474a3.189,3.189,0,0,1-.032-.33,2.564,2.564,0,0,0,2.682.966,3.029,3.029,0,0,0,1.761-.984.226.226,0,0,1,.083,0,.23.23,0,0,1,.2.26,2.5,2.5,0,0,1-1.947,2.332A2.477,2.477,0,0,1,1581.569,956.409Zm4.888-.882a3,3,0,0,0-.937-1.779.245.245,0,0,1,0-.072.239.239,0,0,1,.26-.216,2.385,2.385,0,0,1,2.257,1.947,2.6,2.6,0,0,1-2.243,2.832,2.944,2.944,0,0,1-.325.038A2.741,2.741,0,0,0,1586.457,955.527Zm-6.517,8.885h0a1.885,1.885,0,0,1,2.421-1.116l43.679,16.114a1.885,1.885,0,0,1,1.116,2.421h0a1.885,1.885,0,0,1-2.421,1.116l-43.679-16.114A1.885,1.885,0,0,1,1579.94,964.412Zm-1.2,8.688a1.885,1.885,0,1,1,1.3-3.537l43.679,16.114a1.885,1.885,0,1,1-1.3,3.537Z" transform="translate(-1477.228 -900.461)" fill="#272626"/>
  <path id="Caminho_9791" data-name="Caminho 9791" d="M1579.907,1359.533a.142.142,0,0,0-.142-.142H1565.3q.292.444.542.916h3.371a.331.331,0,0,1,0,.663h-3.048a11.021,11.021,0,0,1,.679,2.034h12.922a.142.142,0,0,0,.142-.142Z" transform="translate(-1474.571 -1274.14)" fill="#f4c458"/>
  <path id="Caminho_9792" data-name="Caminho 9792" d="M1187.293,822.891a.806.806,0,0,0-.805-.8h-1.018a.78.78,0,0,0,.013-.142v-3.329a.807.807,0,0,0-.03-.214h1.981a.806.806,0,0,0,.805-.8v-3.329a.806.806,0,0,0-.805-.8h-18.507V767.294a.683.683,0,0,0-.683-.683h-36.68a.683.683,0,0,0-.682.683v62.967a.683.683,0,0,0,.682.683h20.3a10.993,10.993,0,0,0,.655,2.162,11.09,11.09,0,0,0,14.4,6.007.806.806,0,0,0,.8.738h20.434a.806.806,0,0,0,.805-.8v-3.329a.806.806,0,0,0-.805-.8h-2.812a.815.815,0,0,0,.013-.142v-3.329a.815.815,0,0,0-.013-.142h4.521a.806.806,0,0,0,.8-.8v-3.329a.806.806,0,0,0-.8-.8h-2.576a.79.79,0,0,0,.013-.142v-3.329Zm2.7,4.276v3.329a.142.142,0,0,1-.142.142H1173.7a11.142,11.142,0,0,0,.148-1.806c0-.113,0-.225-.005-.337h5.666a.331.331,0,0,0,0-.663H1173.8q-.036-.408-.1-.807h16.16A.142.142,0,0,1,1190,827.166Zm-1.708,8.551v.763h-10.359a.331.331,0,0,0,0,.663h10.359v1.9a.142.142,0,0,1-.142.142h-20.434a.142.142,0,0,1-.142-.142v-.226a11.164,11.164,0,0,0,3.979-3.244h16.6A.142.142,0,0,1,1188.29,835.718Zm-35.969-6.887a10.43,10.43,0,1,1,10.43,10.43A10.442,10.442,0,0,1,1152.321,828.83Zm-20.83,1.431V767.294a.075.075,0,0,1,.075-.075h36.68a.075.075,0,0,1,.075.075v46.168H1167a.806.806,0,0,0-.805.8V817.6a.792.792,0,0,0,.03.214h-1.982a.807.807,0,0,0-.131.012,11.094,11.094,0,0,0-12.354,12.514h-20.2A.075.075,0,0,1,1131.491,830.261Zm55.945-16.136a.142.142,0,0,1,.142.142V817.6a.142.142,0,0,1-.142.142H1167a.142.142,0,0,1-.142-.142V815.7h10.023a.331.331,0,0,0,0-.663H1166.86v-.773a.142.142,0,0,1,.142-.142Zm-2.614,7.819a.142.142,0,0,1-.142.142h-13.128a11.2,11.2,0,0,0-2.028-2.035h4.6a.331.331,0,0,0,0-.663h-5.559a11.072,11.072,0,0,0-1.845-.915h17.958a.142.142,0,0,1,.142.142Zm-.135,9.5V832.5h-10.224a.331.331,0,1,0,0,.663h10.224v1.6a.142.142,0,0,1-.142.142h-12.521a11.036,11.036,0,0,0,1.544-3.613h10.977A.142.142,0,0,1,1184.686,831.442Zm1.8-5.081h-12.922a11,11,0,0,0-.679-2.034h3.048a.331.331,0,0,0,0-.663h-3.371q-.249-.472-.541-.916h14.465a.142.142,0,0,1,.142.142v3.329A.142.142,0,0,1,1186.488,826.361Z" transform="translate(-1081.294 -737.497)" fill="#272626"/>
  <path id="Caminho_9793" data-name="Caminho 9793" d="M1527.274,1314.242h-17.958a11.059,11.059,0,0,1,1.845.915h5.559a.331.331,0,1,1,0,.663h-4.6a11.192,11.192,0,0,1,2.028,2.034h13.128a.142.142,0,0,0,.142-.142v-3.329A.142.142,0,0,0,1527.274,1314.242Z" transform="translate(-1423.889 -1233.267)" fill="#f4c458"/>
  <path id="Caminho_9794" data-name="Caminho 9794" d="M1510.919,1268.33a.142.142,0,0,0-.142.142v.773H1520.8a.331.331,0,0,1,0,.663h-10.023v1.892a.142.142,0,0,0,.142.142h20.434a.142.142,0,0,0,.142-.142v-3.329a.142.142,0,0,0-.142-.142Z" transform="translate(-1425.212 -1191.703)" fill="#f4c458"/>
  <path id="Caminho_9795" data-name="Caminho 9795" d="M1595.757,1404.539h-12.792q.066.4.1.807h5.705a.331.331,0,1,1,0,.663h-5.666c0,.112.006.224.006.337a11.143,11.143,0,0,1-.148,1.807h16.16a.142.142,0,0,0,.142-.142v-3.329a.142.142,0,0,0-.142-.142Z" transform="translate(-1490.563 -1315.012)" fill="#f4c458"/>
  <path id="Caminho_9796" data-name="Caminho 9796" d="M1565.3,1453.3h12.521a.142.142,0,0,0,.142-.142v-1.6h-10.224a.332.332,0,0,1,0-.663h10.224v-1.061a.142.142,0,0,0-.142-.142h-10.977A11.036,11.036,0,0,1,1565.3,1453.3Z" transform="translate(-1474.57 -1355.886)" fill="#f4c458"/>
  <path id="Caminho_9797" data-name="Caminho 9797" d="M1522.277,1494.837a11.166,11.166,0,0,1-3.979,3.244v.226a.142.142,0,0,0,.142.142h20.434a.142.142,0,0,0,.142-.142v-1.9h-10.359a.331.331,0,0,1,0-.663h10.359v-.763a.142.142,0,0,0-.142-.142h-16.6Z" transform="translate(-1432.02 -1396.759)" fill="#f4c458"/>
  <path id="Caminho_9798" data-name="Caminho 9798" d="M1367.686,1334.339a10.43,10.43,0,1,0-10.43-10.43A10.442,10.442,0,0,0,1367.686,1334.339Zm-8.8-10.43a8.8,8.8,0,1,1,8.8,8.8A8.8,8.8,0,0,1,1358.89,1323.909Z" transform="translate(-1286.229 -1232.576)" fill="#fff"/>
  <path id="Caminho_9799" data-name="Caminho 9799" d="M1383.3,1348.321a8.8,8.8,0,1,0-8.8-8.8A8.8,8.8,0,0,0,1383.3,1348.321Zm-3.534-7.254a.828.828,0,0,1,.619-.25.733.733,0,0,1,.516.195,1.532,1.532,0,0,1,.36.577,3.861,3.861,0,0,0,.392.759,1.591,1.591,0,0,0,.593.5,2.192,2.192,0,0,0,1.005.2,2.267,2.267,0,0,0,1.391-.4,1.2,1.2,0,0,0,.535-1,1.053,1.053,0,0,0-.289-.768,1.863,1.863,0,0,0-.746-.451q-.457-.156-1.222-.331a8.965,8.965,0,0,1-1.715-.561,2.772,2.772,0,0,1-1.1-.875,2.274,2.274,0,0,1-.405-1.378,2.367,2.367,0,0,1,.428-1.394,2.7,2.7,0,0,1,1.238-.937,4.467,4.467,0,0,1,1.127-.281v-1.434a.525.525,0,1,1,1.051,0v1.394a4.435,4.435,0,0,1,1.243.211,3.2,3.2,0,0,1,1.06.577,2.415,2.415,0,0,1,.616.755,1.743,1.743,0,0,1,.194.772.912.912,0,0,1-.243.619.775.775,0,0,1-.606.276.7.7,0,0,1-.5-.165,2.228,2.228,0,0,1-.373-.542,2.452,2.452,0,0,0-.623-.84,1.82,1.82,0,0,0-1.167-.3,2.02,2.02,0,0,0-1.2.328.952.952,0,0,0-.457.788.8.8,0,0,0,.156.493,1.311,1.311,0,0,0,.428.357,2.877,2.877,0,0,0,.551.233q.279.084.921.247a14.424,14.424,0,0,1,1.456.415,4.426,4.426,0,0,1,1.109.551,2.268,2.268,0,0,1,.713.82,2.626,2.626,0,0,1,.256,1.216,2.793,2.793,0,0,1-.444,1.55,2.95,2.95,0,0,1-1.3,1.076,4.692,4.692,0,0,1-1.785.384v1.634a.525.525,0,1,1-1.051,0v-1.68a4,4,0,0,1-1.516-.481,3.1,3.1,0,0,1-1.054-1.021,2.318,2.318,0,0,1-.405-1.242A.829.829,0,0,1,1379.767,1341.067Z" transform="translate(-1301.845 -1248.191)" fill="#f4c458"/>
  <path id="Caminho_9800" data-name="Caminho 9800" d="M1427.91,1361.926a3.091,3.091,0,0,0,1.054,1.021,4,4,0,0,0,1.516.481v1.68a.525.525,0,1,0,1.051,0v-1.634a4.7,4.7,0,0,0,1.785-.384,2.951,2.951,0,0,0,1.3-1.077,2.792,2.792,0,0,0,.444-1.55,2.626,2.626,0,0,0-.256-1.216,2.269,2.269,0,0,0-.713-.82,4.428,4.428,0,0,0-1.109-.551,14.382,14.382,0,0,0-1.456-.415q-.642-.162-.921-.247a2.865,2.865,0,0,1-.551-.233,1.309,1.309,0,0,1-.428-.357.8.8,0,0,1-.156-.493.952.952,0,0,1,.457-.788,2.02,2.02,0,0,1,1.2-.328,1.82,1.82,0,0,1,1.167.3,2.456,2.456,0,0,1,.623.84,2.224,2.224,0,0,0,.373.541.7.7,0,0,0,.5.165.776.776,0,0,0,.606-.276.913.913,0,0,0,.243-.62,1.745,1.745,0,0,0-.194-.772,2.417,2.417,0,0,0-.616-.755,3.2,3.2,0,0,0-1.06-.577,4.439,4.439,0,0,0-1.243-.211v-1.394a.525.525,0,1,0-1.051,0v1.433a4.46,4.46,0,0,0-1.127.282,2.7,2.7,0,0,0-1.239.937,2.367,2.367,0,0,0-.428,1.394,2.272,2.272,0,0,0,.405,1.378,2.773,2.773,0,0,0,1.1.875,8.966,8.966,0,0,0,1.715.561q.765.175,1.222.331a1.862,1.862,0,0,1,.746.451,1.053,1.053,0,0,1,.288.768,1.2,1.2,0,0,1-.535,1,2.269,2.269,0,0,1-1.391.4,2.193,2.193,0,0,1-1.005-.2,1.591,1.591,0,0,1-.593-.5,3.853,3.853,0,0,1-.392-.759,1.532,1.532,0,0,0-.36-.577.732.732,0,0,0-.516-.195.842.842,0,0,0-.863.849A2.319,2.319,0,0,0,1427.91,1361.926Z" transform="translate(-1349.826 -1267.209)" fill="#272626"/>
  <path id="Caminho_9801" data-name="Caminho 9801" d="M1725.375,1001.115a2.5,2.5,0,0,0-1.947,2.332.23.23,0,0,0,.2.26.227.227,0,0,0,.083,0,3.027,3.027,0,0,1,1.761-.984,2.563,2.563,0,0,1,2.682.966,3.091,3.091,0,0,0-.032-.331A2.477,2.477,0,0,0,1725.375,1001.115Z" transform="translate(-1617.722 -949.765)" fill="#fff"/>
  <path id="Caminho_9802" data-name="Caminho 9802" d="M1711.477,1048.816a2.5,2.5,0,0,0,1.947-2.332.23.23,0,0,0-.278-.257,3.029,3.029,0,0,1-1.762.984,2.564,2.564,0,0,1-2.681-.966,3.035,3.035,0,0,0,.032.331A2.477,2.477,0,0,0,1711.477,1048.816Z" transform="translate(-1604.393 -990.628)" fill="#fff"/>
  <path id="Caminho_9803" data-name="Caminho 9803" d="M1752.744,1020.757a2.385,2.385,0,0,0-2.257-1.947.239.239,0,0,0-.26.216.244.244,0,0,0,0,.072,3,3,0,0,1,.937,1.779,2.741,2.741,0,0,1-.992,2.749,2.973,2.973,0,0,0,.325-.038A2.6,2.6,0,0,0,1752.744,1020.757Z" transform="translate(-1641.939 -965.812)" fill="#fff"/>
  <rect id="Retângulo_3237" data-name="Retângulo 3237" width="5.412" height="1.172" transform="translate(121.035 62.745) rotate(-69.751)" fill="#fff"/>
  <path id="Caminho_9804" data-name="Caminho 9804" d="M1950.431,1106.6a1.8,1.8,0,0,0-.644-.381,1.54,1.54,0,0,0-1.385.084,2.474,2.474,0,0,0-.974,1.337,2.447,2.447,0,0,0-.121,1.652,1.7,1.7,0,0,0,1.119,1.007,2.618,2.618,0,0,0,.774.171,2.7,2.7,0,0,0,.555-.017l.174-.864-.521-.032a2.088,2.088,0,0,1-.582-.129,1.243,1.243,0,0,1-.3-.154.426.426,0,0,1-.156-.2.587.587,0,0,1-.024-.272,1.963,1.963,0,0,1,.094-.385l1.953.721.192-.519a3.776,3.776,0,0,0,.209-.806,1.672,1.672,0,0,0-.038-.679A1.2,1.2,0,0,0,1950.431,1106.6Zm-1.728,1.1a1.853,1.853,0,0,1,.36-.631.489.489,0,0,1,.734.226,1.179,1.179,0,0,1-.105.589l-.058.159Z" transform="translate(-1820.315 -1044.827)" fill="#fff"/>
  <rect id="Retângulo_3238" data-name="Retângulo 3238" width="4.1" height="1.172" transform="translate(122.505 63.287) rotate(-69.751)" fill="#fff"/>
  <path id="Caminho_9805" data-name="Caminho 9805" d="M1918.855,1074.758a.572.572,0,0,0,.339-.368.586.586,0,0,0-.017-.5.7.7,0,0,0-.848-.313.586.586,0,0,0-.34.372.573.573,0,0,0,.019.5A.712.712,0,0,0,1918.855,1074.758Z" transform="translate(-1793.815 -1015.352)" fill="#fff"/>
  <path id="Caminho_9806" data-name="Caminho 9806" d="M1922.982,1085.775l.783.289.271-.736-.783-.289.111-.3a.276.276,0,0,1,.177-.2.589.589,0,0,1,.319.048l.465.172.294-.624a1.566,1.566,0,0,0-.278-.234,2.145,2.145,0,0,0-.5-.251,1.143,1.143,0,0,0-1.018.022,1.664,1.664,0,0,0-.651.9l-.024.064-.416-.153-.271.736.417.154-1.117,3.028,1.1.406Z" transform="translate(-1796.373 -1024.413)" fill="#fff"/>
  <path id="Caminho_9807" data-name="Caminho 9807" d="M1782.5,1037.21a2.487,2.487,0,0,0-1.039-.178,1.754,1.754,0,0,0-.822.262,2.09,2.09,0,0,0-.623.625,4.67,4.67,0,0,0-.694,1.882,2.227,2.227,0,0,0,.059.893,1.764,1.764,0,0,0,.434.746,2.318,2.318,0,0,0,.886.539,2.71,2.71,0,0,0,.806.173,3.673,3.673,0,0,0,.659-.017l.111-.995q-.322.025-.6.027a1.615,1.615,0,0,1-.573-.107,1.054,1.054,0,0,1-.308-.174.57.57,0,0,1-.185-.293,1.184,1.184,0,0,1-.019-.46,3.1,3.1,0,0,1,.18-.672l.148-.4a3.071,3.071,0,0,1,.268-.575.869.869,0,0,1,.276-.292.518.518,0,0,1,.307-.071,1.309,1.309,0,0,1,.354.082,2.549,2.549,0,0,1,.528.263q.232.154.5.374l.467-.919a2.736,2.736,0,0,0-.458-.377A3.076,3.076,0,0,0,1782.5,1037.21Z" transform="translate(-1668.303 -982.307)" fill="#fff"/>
  <path id="Caminho_9808" data-name="Caminho 9808" d="M1850.746,1072.218l1.1.406.982-2.661a1.651,1.651,0,0,0,.1-1.027.953.953,0,0,0-.647-.621,1.389,1.389,0,0,0-.619-.089l-.587.326-.126-.63-.771-.284-1.419,3.846,1.1.406,1.08-2.928a3.013,3.013,0,0,1,.307.028,1.262,1.262,0,0,1,.252.064q.365.135.262.417Z" transform="translate(-1731.185 -1010.016)" fill="#fff"/>
  <path id="Caminho_9809" data-name="Caminho 9809" d="M1819.023,1058.577a1.8,1.8,0,0,0-2.444-.9,3.034,3.034,0,0,0-1.1,2.975,1.773,1.773,0,0,0,2.316.96q.065-.027.128-.059a2.525,2.525,0,0,0,.978-1.348A2.435,2.435,0,0,0,1819.023,1058.577Zm-1.061.593q-.057.218-.185.566l-.058.159a5.281,5.281,0,0,1-.227.538,1.18,1.18,0,0,1-.2.3.335.335,0,0,1-.215.106.738.738,0,0,1-.483-.178.336.336,0,0,1-.09-.223,1.239,1.239,0,0,1,.044-.371,5.524,5.524,0,0,1,.182-.567l.062-.167q.123-.333.22-.532a1.052,1.052,0,0,1,.2-.294.319.319,0,0,1,.213-.1.711.711,0,0,1,.261.051.681.681,0,0,1,.228.13.336.336,0,0,1,.1.217A1.038,1.038,0,0,1,1817.962,1059.17Z" transform="translate(-1700.982 -1000.81)" fill="#fff"/>
  <path id="Caminho_9810" data-name="Caminho 9810" d="M1704.464,1008.233a2.384,2.384,0,0,0,2.256,1.946.239.239,0,0,0,.257-.288,3,3,0,0,1-.937-1.779,2.74,2.74,0,0,1,.992-2.749,2.935,2.935,0,0,0-.325.038A2.6,2.6,0,0,0,1704.464,1008.233Z" transform="translate(-1600.532 -953.639)" fill="#fff"/>
  <path id="Caminho_9811" data-name="Caminho 9811" d="M1713.517,1206.277a1.885,1.885,0,0,0-1.116-2.421l-43.679-16.114a1.885,1.885,0,1,0-1.3,3.537l43.679,16.114A1.885,1.885,0,0,0,1713.517,1206.277Z" transform="translate(-1565.901 -1118.641)" fill="#a5a5a5"/>
  <path id="Caminho_9812" data-name="Caminho 9812" d="M1691.831,1125.1l43.679,16.114a1.885,1.885,0,0,0,2.421-1.116h0a1.885,1.885,0,0,0-1.116-2.421l-43.679-16.114a1.885,1.885,0,0,0-2.421,1.116h0A1.885,1.885,0,0,0,1691.831,1125.1Z" transform="translate(-1588.003 -1058.729)" fill="#a5a5a5"/>
  <path id="Caminho_9813" data-name="Caminho 9813" d="M2046.328,1413.355l.351-.953a1.622,1.622,0,0,1,2.083-.96l-2.455-.905a1.622,1.622,0,0,0-2.083.96l-.351.953a1.622,1.622,0,0,0,.96,2.083l2.455.906A1.622,1.622,0,0,1,2046.328,1413.355Z" transform="translate(-1907.732 -1320.351)" fill="#fff"/>
  <path id="Caminho_9814" data-name="Caminho 9814" d="M2075.566,1424.14l.352-.953a1.622,1.622,0,0,0-.96-2.083l-2.727-1.006h0a1.622,1.622,0,0,0-2.083.96l-.352.953a1.622,1.622,0,0,0,.96,2.083h0l2.727,1.006A1.622,1.622,0,0,0,2075.566,1424.14Z" transform="translate(-1931.199 -1329.008)" fill="#f4c458"/>
</svg>
