<svg height="880.866" viewBox="0 0 1125.976 880.866" width="1125.976" xmlns="http://www.w3.org/2000/svg" xmlns:xlink="http://www.w3.org/1999/xlink"><linearGradient id="a" gradientUnits="objectBoundingBox" x2="1" y1=".5" y2=".5"><stop offset="0" stop-color="#808080" stop-opacity=".251"/><stop offset=".54" stop-color="#808080" stop-opacity=".122"/><stop offset="1" stop-color="#808080" stop-opacity=".102"/></linearGradient><ellipse cx="394.995" cy="826.584" fill="#001f40" opacity=".1" rx="196.448" ry="37.215"/><path d="m749.428 179.246c-72.184-2.5-140.933-25.8-206.582-51.292s-130.672-53.723-201.127-67.226c-45.316-8.686-97.145-9.924-133.65 14.34-35.144 23.416-46.5 63.725-52.6 101.157-4.6 28.166-7.294 57.815 5.287 84.186 8.744 18.309 24.247 33.7 34.977 51.237 37.33 61.016 10.941 136.259-29.5 195.837-18.961 27.943-40.988 54.638-55.633 84.354s-21.414 63.881-8.6 94.278c12.692 30.107 42.951 52.675 75.731 68.565 66.574 32.281 144.993 41.513 221.516 46.754 169.341 11.574 339.574 6.568 509.361 1.539 62.838-1.851 125.943-3.735 187.755-13.447 34.33-5.4 69.764-13.961 94.692-34.633 31.631-26.237 39.472-70.661 18.269-103.555-35.557-55.2-133.84-68.9-158.723-128.119-13.674-32.6.368-68.91 20.254-99.139 42.65-64.863 114.132-121.764 117.891-195.892 2.588-50.913-31.776-101.9-84.91-126-55.688-25.256-132.925-22.078-173.992 19.725-42.326 42.992-116.674 59.55-180.416 57.331z" fill="#001f40" opacity=".1" transform="translate(-95.226 -55.033)"/><path d="m666.431 447.33-34.169-23.03 17.238-25.642-90.248-7.192-32.432 25.067-40.595-22.747-33.857 4.07-.4-8.92a251.674 251.674 0 0 0 -2.8-27.765c.145-2.788.245-5.988.234-9.467 0-14.663-1.986-34.1-10.709-47.055l2.008-18.041-16.287-19.235a123.025 123.025 0 0 1 8.924-15.009c.558-.8 1.115-1.583 1.718-2.342 21.139-1.528 37.817-18.9 37.817-40.142a25.671 25.671 0 0 0 -.112-2.933 10.658 10.658 0 0 0 -.123-1.182c2.064 1.115 4.15 2.23 6.236 3.345.391.557.837 1.115 1.328 1.773l.1.123.625.769.2.234c.223.268.457.524.692.792l.156.178c.591.658 1.216 1.327 1.885 1.985a1.991 1.991 0 0 1 .223.212l.837.78.234.212c.714.636 1.473 1.249 2.231 1.829l.245.178.959.658.312.2c.368.223.747.457 1.116.669l.134.078c.435.234.881.457 1.328.669l.223.089q.569.245 1.115.468l.346.123c.391.134.77.256 1.171.368l.245.067c.491.123.982.223 1.484.3h.056a12.141 12.141 0 0 0 1.428.145h.324a12.286 12.286 0 0 0 1.283 0h.279a13.2 13.2 0 0 0 1.6-.19 17.608 17.608 0 0 0 7.028-2.52 6.136 6.136 0 0 0 1.428-1.327c2.231-2.922-.223-6.122-.223-6.122-.87-2.074-6.515-3.535-6.515-3.535s-17.851-7.444-17.851-13.376-4.462-36.707-50.523-43.744c0 0-29.964-1.684-38.386 14.351l-.178 1.873c-2.477 1.55-4.529 4.661-6.972 5.575a11.4 11.4 0 0 0 -3.023 1.115v-.209a2.877 2.877 0 0 0 -.681.881 8.919 8.919 0 0 0 -.926 3.345 12.594 12.594 0 0 1 -1.461 4.048 8.989 8.989 0 0 1 -.669 1.026l-.19.3a8.146 8.146 0 0 0 3.793-.613 18.869 18.869 0 0 1 -1.116 4.46 3.7 3.7 0 0 0 3.432-2.053v-.094l.145-.2a9.4 9.4 0 0 0 .692-1.617l-.123.134c.223-.725.424-1.461.669-2.174a3.414 3.414 0 0 1 .547-1.115 2.7 2.7 0 0 1 2.309-.769l-.457 9.667h.2a13.189 13.189 0 0 1 -.982 2.029c-1.584 2.565-4.462 4.315-5.522 7.125a10.48 10.48 0 0 0 -.513 4.215c0 .836.1 1.684.167 2.52v-.067c.156 2.23.2 4.349-1 6.144-.826 1.227-2.153 2.152-2.61 3.546a3.457 3.457 0 0 0 -.167 1.2 13.527 13.527 0 0 0 .758 3.579.155.155 0 0 0 0-.067 5.441 5.441 0 0 1 .19 2.632c-.5 2.23-3.213 4.092-3.079 6.222a2.394 2.394 0 0 0 .123.825 4.517 4.517 0 0 0 2.521 2.23 9.821 9.821 0 0 0 5.667 1.249 7.452 7.452 0 0 0 2.12-.725c-.781 1.8-1.584 3.568-2.4 5.252-.123.268-.257.535-.391.8 0 0-6.894-4.605-10.81 4.784a20.827 20.827 0 0 0 -2.421 6.289 14.959 14.959 0 0 1 -.825 2.587 16.653 16.653 0 0 1 -7.452 6.69c-7.987 3.657-40.249 43.877-40.818 54.292a60.726 60.726 0 0 1 -2.053 12.02 71.5 71.5 0 0 0 -1.919 28.423 54.346 54.346 0 0 0 1.975 9.08c3.425 10.4 5.712 29.817 5.712 29.817l3.7 33.7a95.855 95.855 0 0 0 .6 13.927c-3.782 4.315-18.964 22.3-13.163 27.2 4.462 3.858 12.271 3.222 16.655 2.431-3.693 9.132-9.5 25.011-10.274 35.916-1.116 16.135 1.908 37.51 6.693 45.717s20.738 29.259 20.738 29.259-.747 28.88 4.953 39.372 8 32.258 8 32.258 5.321 18.376 2.655 25.133 4.942 12.377-3.046 16.871-18.206 105.774-18.206 105.774-4.117 66.379 0 69.758a4.188 4.188 0 0 0 .7.413v22.3s-2.856 4.683 8.757 5.631c7.954.635 30.5 2.074 43.874 2.91l10.364.647s24.542 4.884 35.385 0 30.064-4.772 27.208-17.673a36.688 36.688 0 0 0 -1.517-5.163c-3.135-8.006-8.456-8.92-18.261-11.15-.569-.123-1.116-.234-1.618-.324-10.33-1.795-13.721 3.011-19.511-3.245-5.031-5.408-21.05-11.463-26.505-13.38.134-.4.3-.792.435-1.2a8.168 8.168 0 0 1 -4.139-2.018l14.781.937 8.8.546s20.861 4.159 30.12 0 25.546-4.048 23.114-15.009a31.4 31.4 0 0 0 -1.283-4.393c-2.666-6.8-7.2-7.549-15.528-9.433-.48-.1-.926-.2-1.372-.279-8.779-1.528-11.657 2.553-16.577-2.754-4.217-4.527-17.525-9.6-22.311-11.329 0-2.475-3.347-6-5.455-9.534-2.477-4.126 2.1-18.566 2.1-18.566l2.61-59.912a11.584 11.584 0 0 1 3.123-.892s11.8-11.262 9.136-23.26a77.067 77.067 0 0 1 -.848-10.961c3.882-3.6 9.226-8.92 10.743-12.2 2.477-5.341 0-31.221 0-31.221v-98.975l19.745 2 17.916 1.84 5.455.558 17.916 1.806 41.185 4.15 37.1-7.025 16.053-3.033 33.009-6.244v-80.73zm-271.759-267.511-2.3-.245c.761.033 1.564.178 2.3.245z" fill="url(#a)" transform="translate(-69.544 -43.928)"/><path d="m567.522 467.966c-11.156 15.964-51.259 7.508-51.259 7.508l-31.079-29.082-4.184-3.938 7.017-14.9s2.231.613 6.057 1.707c20.091 5.83 82.863 25.285 73.448 38.705z" fill="#efb7b9" transform="translate(-50.741 -12.157)"/><path d="m494.052 429.257c-1.372 4.774-5.132 11.925-8.869 17.135l-4.183-3.938 7.017-14.9s2.253.609 6.035 1.703z" opacity=".1" transform="translate(-50.735 -12.151)"/><path d="m399.977 278.469s-28.647 12.706-27.242 43.908a514.478 514.478 0 0 0 6.559 59.972s-5.857 46.953 18.529 59.057 46.953 22.054 46.953 22.054 38.152 4.105 42.893 5.8 19.556-24.23 16.823-28.268-37.75-12.505-42.212-19.243-14.781-10.9-14.781-10.9-10.653-6.449-11.379-12.269 2.086-10.163 2.8-12.717 2.521-27.219 2.521-27.219 12.026-87.795-41.464-80.175z" fill="#dce6f2" transform="translate(-63.234 -29.391)"/><path d="m417.8 370.39s-39.3 6.582-35.5 20.337c.007 0 14.275-14.848 35.5-20.337z" opacity=".1" transform="translate(-62.148 -18.732)"/><path d="m416.227 375.38s-21.608 17.637-17.38 18.54 17.38-18.54 17.38-18.54z" opacity=".1" transform="translate(-60.273 -18.157)"/><path d="m424.031 380.89s-5.79 11.858-2.231 11.055 2.231-11.055 2.231-11.055z" opacity=".1" transform="translate(-57.695 -17.521)"/><path d="m507.869 447.668-2.387-.68c.681-2.231.87-4.038.312-4.875-2.733-4.038-37.728-12.494-42.179-19.243s-14.781-10.9-14.781-10.9-10.653-6.448-11.379-12.271 2.086-10.163 2.8-12.717 2.521-27.23 2.521-27.23 11.992-87.782-41.5-80.163c0 0-28.647 12.717-27.253 43.919a513 513 0 0 0 6.577 59.972s-5.857 46.953 18.529 59.057 46.953 22.054 46.953 22.054 38.141 4.094 42.893 5.8c1.8.647 5.042-2.688 8.221-7.273l1.804 1.682 31.079 29.071s40.1 8.467 51.259-7.5c9.427-13.425-53.338-32.88-73.469-38.703z" opacity=".1" transform="translate(-63.091 -29.267)"/><path d="m383.065 174.1a9.481 9.481 0 0 0 -3.09 1.194c-1.115.926-1.115 2.51-1.394 3.893a12.806 12.806 0 0 1 -2.231 5.332 8.02 8.02 0 0 0 3.715-.614 19.13 19.13 0 0 1 -1.115 4.462 3.614 3.614 0 0 0 3.346-2.041 21.461 21.461 0 0 0 1.395-3.916 3.223 3.223 0 0 1 .536-1.116c1.026-1.216 2.934-.669 4.518-.513a7.419 7.419 0 0 0 6.783-3.257c1.684-2.555 1.785-9.092-2.231-9.783-4.197-.687-6.807 5.092-10.232 6.359z" fill="#965d7b" transform="translate(-62.804 -42.016)"/><g opacity=".1" transform="translate(313.713 132.992)"><path d="m379.683 175.912c.1-.547.167-1.116.29-1.662-1.06.926-1.116 2.5-1.394 3.893a12.273 12.273 0 0 1 -.658 2.354 12.781 12.781 0 0 0 1.763-4.585z" transform="translate(-376.336 -174.25)"/><path d="m380.2 184.462a18.56 18.56 0 0 0 1.119-4.462 7.988 7.988 0 0 1 -3.536.614 12.912 12.912 0 0 1 -1.283 2.231 7.943 7.943 0 0 0 3.7-.6 18.561 18.561 0 0 1 -1.115 4.462 3.626 3.626 0 0 0 3.347-2.042 8.321 8.321 0 0 0 .669-1.6 3.346 3.346 0 0 1 -2.9 1.394z" transform="translate(-376.5 -173.586)"/><path d="m389.152 177.483c-1.584-.156-3.5-.7-4.529.513a3.445 3.445 0 0 0 -.536 1.116c-.1.29-.19.591-.268.892 1.06-.837 2.778-.391 4.217-.245a7.452 7.452 0 0 0 6.782-3.257 6.179 6.179 0 0 0 .747-1.751 7.429 7.429 0 0 1 -6.413 2.732z" transform="translate(-375.654 -174.192)"/></g><path d="m317.837 201 17.012 20.459-2.22 20.649-20.56-32.184z" fill="#dce6f2" transform="translate(35.995 23.132)"/><path d="m334.838 221.459-2.086 19.422-.134 1.227-18.552-29.049-2-3.135.58-.9 5.18-8.024 1.149 1.383z" opacity=".1" transform="translate(35.995 23.132)"/><path d="m442.929 234.314c-5.756 1.651-11.256 7.318-16.042 14.2a121.223 121.223 0 0 0 -8.657 14.881c-1.573 3.146-2.956 6.169-4.105 8.8l-.8 1.874c-1.941 4.585-3.023 7.653-3.023 7.653s-44.064-33.132-37.092-35.363c2.343-.747 5.422-5.767 8.467-12.093l.379-.8c1.93-4.061 3.826-8.59 5.511-12.851 3.447-8.757 6-16.365 6-16.365s66.933 25.044 49.362 30.064z" fill="#efb7b9" transform="translate(-63.256 -37.861)"/><path d="m459.26 202.58s10.174 18.406 23.839 15.9 8.043-9.884 8.043-9.884z" fill="#444053" transform="translate(-53.243 -38.048)"/><path d="m450.078 778.229c-9.014 4.116-29.395 0-29.395 0l-8.59-.536c-11.156-.714-29.83-1.918-36.434-2.454-9.638-.792-7.273-4.741-7.273-4.741v-23.861l46.764-11.847s18.485 6.325 23.549 11.847c4.808 5.266 7.619 1.216 16.2 2.733.424.078.87.167 1.339.279 8.143 1.863 12.561 2.6 15.171 9.348a31.345 31.345 0 0 1 1.261 4.351c2.408 10.865-13.589 10.787-22.592 14.881z" fill="#a36468" transform="translate(-63.757 23.176)"/><path d="m471.407 757.487a35 35 0 0 1 -5.265 2.7c-6.136 2.8-11.97 6.213-18.172 8.857s-12.885 4.529-19.6 4.027c-3.514-.257-7.106-1.115-10.464-.112a24.158 24.158 0 0 0 -5.812 3.224c-11.156-.714-29.83-1.918-36.434-2.454-9.638-.792-7.273-4.741-7.273-4.741v-2.788c.346 0 .736-.1 1.182-.134a21.059 21.059 0 0 1 6.8 1.015c4.841 1.317 9.661 2.611 14.5 3.9a11.456 11.456 0 0 1 5.578-7.117 17.783 17.783 0 0 1 8.991-2.064c7.508.1 14.614 3.659 22.11 4.016a12.179 12.179 0 0 0 6.124-1.026c1.026-.513 1.93-1.261 2.934-1.83a21.419 21.419 0 0 1 5.053-1.707 111.272 111.272 0 0 0 14.446-4.663c1.339-.524 2.9-1.473 2.722-2.9-.234-1.9-3.213-2.119-3.994-3.86a2.231 2.231 0 0 1 .089-1.974c.424.078.87.167 1.339.279 8.118 1.865 12.539 2.603 15.146 9.352z" opacity=".1" transform="translate(-63.757 24.686)"/><path d="m443.036 825.826c-10.6 4.842-34.582 0-34.582 0l-10.1-.592c-13.074-.837-35.1-2.231-42.871-2.889-11.345-.937-8.556-5.578-8.556-5.578v-28.122l55.03-13.945s21.753 7.441 27.71 13.945c5.656 6.191 8.924 1.428 19.065 3.213.5.089 1.026.2 1.573.323 9.582 2.231 14.781 3.068 17.849 11.01a35.8 35.8 0 0 1 1.484 5.121c2.77 12.788-16.005 12.688-26.602 17.514z" fill="#a36468" transform="translate(-66.238 27.787)"/><path d="m468.136 801.408a41.548 41.548 0 0 1 -6.191 3.179c-7.218 3.291-14.089 7.307-21.385 10.419s-15.16 5.321-23.069 4.741c-4.128-.3-8.355-1.339-12.271-.134a28.427 28.427 0 0 0 -6.861 3.838c-13.074-.837-35.1-2.231-42.871-2.889-11.345-.937-8.556-5.578-8.556-5.578v-3.284a14 14 0 0 1 1.395-.156 24.472 24.472 0 0 1 8.01 1.194l17.057 4.6a13.5 13.5 0 0 1 6.615-8.377 20.82 20.82 0 0 1 10.587-2.432c8.835.123 17.191 4.306 26.015 4.73a14.4 14.4 0 0 0 7.184-1.193c1.216-.614 2.231-1.495 3.458-2.153a24.26 24.26 0 0 1 5.947-2.013 133.5 133.5 0 0 0 16.912-5.489c1.573-.625 3.414-1.74 3.2-3.413-.279-2.231-3.782-2.5-4.708-4.551a2.689 2.689 0 0 1 .112-2.321c.5.09 1.026.2 1.573.324 9.581 2.15 14.779 3.016 17.847 10.958z" opacity=".1" transform="translate(-66.238 29.571)"/><path d="m415.337 647.54-2.979 70.09s-4.462 14.313-2.041 18.406 6.5 8.177 5.02 10.6-19.332 28.592-25.1 18.552-11.457-53.546-11.457-53.546l5.32-53.742z" fill="#444053" transform="translate(-62.525 13.095)"/><path d="m424.863 491 8.277 11.066v96.249s2.421 25.657 0 30.956-14.692 15.9-14.692 15.9l-10.318-52.991 2.231-56.056z" fill="#444053" transform="translate(-59.139 -4.882)"/><path d="m415.337 647.54-2.979 70.09s-4.462 14.313-2.041 18.406 6.5 8.177 5.02 10.6-19.332 28.592-25.1 18.552-11.457-53.546-11.457-53.546l5.32-53.742z" opacity=".1" transform="translate(-62.525 13.095)"/><path d="m424.863 491 8.277 11.066v96.249s2.421 25.657 0 30.956-14.692 15.9-14.692 15.9l-10.318-52.991 2.231-56.056z" opacity=".1" transform="translate(-59.139 -4.882)"/><path d="m442.515 456.973v52.063l-9.292 40.528s-2.979 97.8-.379 109.692-8.924 23.058-8.924 23.058-6.693.748-6.693 5.946-11.156 20.08-11.156 20.08l.368 29s4.841 54.294-2.6 64.7 2.6 11.9 2.6 11.9c-9.293 30.488-53.915 23.427-57.942 20.08s0-69.164 0-69.164 9.973-100.391 17.781-104.856.379-10.04 2.979-16.733-2.6-24.91-2.6-24.91-2.231-21.575-7.809-31.983-4.841-39.044-4.841-39.044-15.618-20.827-20.258-29-7.63-29.372-6.515-45.369c.759-10.81 6.437-26.55 10.04-35.608 1.729-4.339 2.979-7.151 2.979-7.151l1.06.279 60.931 15.952z" fill="#444053" transform="translate(-68.5 -12.018)"/><path d="m441.366 234.322c-5.756 1.651-11.256 7.318-16.042 14.2h-1.249a39.847 39.847 0 0 1 -34.582-20 39.25 39.25 0 0 1 -3.5-7.976c3.447-8.757 6-16.365 6-16.365s66.943 25.119 49.373 30.141z" opacity=".1" transform="translate(-61.695 -37.866)"/><path d="m464.142 210.334a39.881 39.881 0 1 1 -74.608-19.544 38.976 38.976 0 0 1 4.217-6.091 40.357 40.357 0 0 1 9.17-8.054 39.881 39.881 0 0 1 61.166 30.767c.021.981.055 1.951.055 2.922z" fill="#efb7b9" transform="translate(-61.882 -41.7)"/><path d="m432.008 298.868-.134 1.227-18.552-29c-1.941 4.585-3.023 7.653-3.023 7.653s-44.064-33.176-37.092-35.407c2.343-.747 5.422-5.767 8.467-12.093l.379-.8c3.235 9.638 22.032 28.9 29.852 36.623.9.893 1.651 1.629 2.231 2.164l1.194 1.116.625.625c2.845 2.924 14.845 15.866 16.053 27.892z" opacity=".1" transform="translate(-63.255 -34.846)"/><path d="m451.879 397.315-2.03 65.338-.357 11.635s-24.051-2.231-46.5-4.685c-18.072-1.974-35.106-4.105-37.728-5.355-3.347-1.573-10.52-2.789-16.175-3.559-4.373-.591-7.809-.9-7.809-.9s-1.283.379-3.257.736c-4.306.781-11.87 1.417-16.276-2.41-5.634-4.9 9.17-22.69 12.862-26.963l.814-.926-1.395-12.885-3.625-33.411s-2.231-19.243-5.578-29.562a54.5 54.5 0 0 1 -1.93-8.98 71.933 71.933 0 0 1 1.874-28.179 61.451 61.451 0 0 0 2.008-11.925c.558-10.319 32.072-50.2 39.881-53.825a16.555 16.555 0 0 0 7.987-7.965 15.211 15.211 0 0 0 1.216-3.469c3.347-14.5 11.814-8.746 11.814-8.746 2.041 11.345 33.645 41.376 33.645 41.376l.625.625c3.135 3.213 17.1 18.295 16.109 31.168a37.78 37.78 0 0 0 2.108 14.1 238.448 238.448 0 0 1 10.988 62.471z" fill="#dce6f2" transform="translate(-69.252 -34.901)"/><path d="m399.647 310.45s-7.809 18.964-13.665 22.032 16.454 6.47 13.665-22.032z" opacity=".1" transform="translate(-61.806 -25.632)"/><path d="m405.229 342.2s-17.849 2.231-17.849 5.578 17.849-5.578 17.849-5.578z" opacity=".1" transform="translate(-61.532 -21.974)"/><path d="m423.658 361.7s-25.937 55.22-33.188 56.893 33.188-56.893 33.188-56.893z" opacity=".1" transform="translate(-61.277 -19.737)"/><path d="m415.344 275.227-21.452 9.326-25.892-39.111a15.224 15.224 0 0 0 1.216-3.469c3.346-14.5 11.813-8.746 11.813-8.746 2.041 11.345 33.645 41.376 33.645 41.376z" opacity=".1" transform="translate(-63.769 -34.653)"/><path d="m416.344 273.227-21.452 9.326-25.892-39.111a15.211 15.211 0 0 0 1.216-3.469c3.347-14.5 11.814-8.746 11.814-8.746 2.042 11.345 33.645 41.376 33.645 41.376z" fill="#dce6f2" transform="translate(-63.653 -34.884)"/><path d="m448.292 467.16s-24.051-2.231-46.5-4.685l40.271 10.542v12.271c-1.762 1.6-3.291 2.421-4.284 2-4.641-1.952-42.513-8.088-42.513-8.088s-22-11.155-45.738-24.542a18.308 18.308 0 0 1 -1.673-1.049 26.369 26.369 0 0 1 -7.028-7.039c-4.384-6.347-6.526-14.5-7.452-22.5a97.285 97.285 0 0 1 -.58-13.81 113.218 113.218 0 0 1 1.428-15.607 513.221 513.221 0 0 1 -3.347-60.24c.279-31.235 29.562-42.391 29.562-42.391 53.825-4.741 37.137 82.272 37.137 82.272s-3.112 24.542-3.96 27.052-3.893 6.693-3.481 12.55 10.7 12.862 10.7 12.862 10.04 4.708 14.179 11.68c3.012 5.143 22.578 12.115 33.634 17.09z" opacity=".1" transform="translate(-68.053 -27.8)"/><path d="m460.145 186.106a12.629 12.629 0 0 1 -1.116 5.332 32.971 32.971 0 0 1 -1.986 3.971 18.294 18.294 0 0 1 -4.886 6.069c-2.577 1.841-5.834 2.354-8.924 3.1s-6.3 1.941-8.065 4.574a16 16 0 0 0 -1.885 5.466 11.756 11.756 0 0 1 -2.231 5.288 4.384 4.384 0 0 1 -5.221 1.249 5.277 5.277 0 0 1 -2.019-2.6c-1.272-2.867-1.6-6.046-2.108-9.136s-1.238-6.269-3.135-8.757-5.254-4.127-8.233-3.157a7.932 7.932 0 0 0 -4.462 4.328 24.81 24.81 0 0 0 -1.684 6.158q-2.075 11.356-4.9 22.579a2.074 2.074 0 0 1 -.368.848 1.606 1.606 0 0 1 -1.116.469c-2.5.335-4.9-1.417-7.418-1.227a4.26 4.26 0 0 0 -.77.123 39.858 39.858 0 0 1 4.027-45.514l.2-.056a12.025 12.025 0 0 0 4.462-2.811 47.083 47.083 0 0 0 4.462-5.165l.892-1.116a50.88 50.88 0 0 1 8.7-8.266 8.923 8.923 0 0 1 2.967-1.606 8.787 8.787 0 0 1 2.811-.089 70.921 70.921 0 0 0 11.613.435 74.491 74.491 0 0 1 8.155-.826c7.061.2 13.085 5.187 17.547 10.653 2.404 2.801 4.546 6.025 4.691 9.684z" opacity=".1" transform="translate(-61.889 -42.238)"/><path d="m385.522 192.5c-1.551 2.543-4.351 4.273-5.4 7.061-1.539 4.049 1.06 9.092-1.328 12.706-.792 1.216-2.1 2.12-2.543 3.514-.759 2.354 1.316 4.864.781 7.285s-3.726 4.462-2.878 6.827a4.462 4.462 0 0 0 2.454 2.231 9.594 9.594 0 0 0 5.578 1.238c3.046-.5 5.31-3.492 8.4-3.715 2.51-.178 4.908 1.562 7.407 1.238a1.673 1.673 0 0 0 1.115-.48 1.929 1.929 0 0 0 .368-.848q2.811-11.211 4.909-22.579a24.316 24.316 0 0 1 1.673-6.158 8 8 0 0 1 4.462-4.328c2.979-.959 6.325.669 8.233 3.157s2.633 5.667 3.146 8.757.837 6.269 2.1 9.136a5.333 5.333 0 0 0 2.03 2.61c1.673.971 3.927.2 5.21-1.249a11.636 11.636 0 0 0 2.231-5.3 15.933 15.933 0 0 1 1.885-5.455c1.762-2.633 4.986-3.826 8.065-4.574s6.325-1.272 8.924-3.112a18.362 18.362 0 0 0 4.886-6.057c1.651-2.878 3.19-6 3.057-9.315-.145-3.614-2.287-6.838-4.574-9.649-4.462-5.466-10.5-10.453-17.559-10.642a69.377 69.377 0 0 0 -8.155.826 69.8 69.8 0 0 1 -11.613-.446 9.124 9.124 0 0 0 -2.811.1 8.414 8.414 0 0 0 -2.956 1.606 50.91 50.91 0 0 0 -8.712 8.255 63.94 63.94 0 0 1 -5.377 6.247 12.1 12.1 0 0 1 -4.462 2.822c-1.116.312-2.231.089-3.291.435-3.292 1.039-3.726 5.334-5.255 7.856z" fill="#965d7b" transform="translate(-63.078 -42.35)"/><path d="m483.1 218.465c-8.924 1.64-16.32-5.578-20.414-10.843a43.773 43.773 0 0 1 -3.425-5.042l30.633 5.779 1.238.234s5.633 7.373-8.032 9.872z" opacity=".1" transform="translate(-53.243 -38.048)"/><g opacity=".1" transform="translate(310.88 141.58)"><path d="m376.818 214.614a9.294 9.294 0 0 0 -.647-4.284c0 .112-.1.223-.134.335-.48 1.495.167 3.045.58 4.6a3.362 3.362 0 0 0 .201-.651z" transform="translate(-373.743 -178.727)"/><path d="m379.107 197.8a24.794 24.794 0 0 0 .089 4.629 24.857 24.857 0 0 0 -.089-4.629z" transform="translate(-373.377 -180.174)"/><path d="m457.168 189.2a18.3 18.3 0 0 1 -4.886 6.069c-2.577 1.841-5.823 2.354-8.924 3.1s-6.3 1.941-8.065 4.574a16.074 16.074 0 0 0 -1.885 5.466 11.679 11.679 0 0 1 -2.231 5.3c-1.283 1.45-3.536 2.231-5.21 1.249a5.332 5.332 0 0 1 -2.03-2.61c-1.261-2.867-1.6-6.035-2.1-9.136s-1.249-6.269-3.146-8.757-5.254-4.128-8.233-3.157a7.965 7.965 0 0 0 -4.458 4.323 24.326 24.326 0 0 0 -1.673 6.158q-2.086 11.367-4.908 22.579a1.928 1.928 0 0 1 -.368.848 1.673 1.673 0 0 1 -1.116.48c-2.5.323-4.9-1.417-7.407-1.238-3.09.223-5.355 3.213-8.4 3.7a9.427 9.427 0 0 1 -5.578-1.238 5.969 5.969 0 0 1 -2.042-1.45 3.012 3.012 0 0 0 -.413 2.6 4.35 4.35 0 0 0 2.454 2.231 9.426 9.426 0 0 0 5.578 1.238c3.045-.491 5.31-3.481 8.4-3.7 2.51-.178 4.909 1.562 7.407 1.238a1.673 1.673 0 0 0 1.116-.48 1.93 1.93 0 0 0 .368-.848q2.811-11.156 4.908-22.579a24.321 24.321 0 0 1 1.674-6.16 7.965 7.965 0 0 1 4.462-4.328c2.979-.971 6.325.669 8.233 3.157s2.633 5.667 3.146 8.757.837 6.269 2.1 9.136a5.332 5.332 0 0 0 2.03 2.61c1.673.97 3.927.2 5.21-1.249a11.681 11.681 0 0 0 2.231-5.3 16.076 16.076 0 0 1 1.885-5.466c1.763-2.633 4.987-3.815 8.066-4.574s6.325-1.261 8.924-3.1a18.3 18.3 0 0 0 4.886-6.069c1.651-2.867 3.19-5.99 3.057-9.3a11.941 11.941 0 0 0 -.134-1.272 21.919 21.919 0 0 1 -2.928 7.198z" transform="translate(-373.963 -182)"/></g><path d="m458.535 190.867a39.41 39.41 0 0 1 4.964 16.566c-9.94-5.578-19.288-11.7-24.007-13.833-8.222-3.715-38.966-3.157-50.523-2.811a38.973 38.973 0 0 1 4.217-6.091 40.362 40.362 0 0 1 9.2-8.054 39.9 39.9 0 0 1 56.2 14.2z" opacity=".1" transform="translate(-61.352 -41.699)"/><path d="m485.888 213.735c-5.366 1.651-14.123-1.539-23.2-6.113a43.773 43.773 0 0 1 -3.425-5.042l30.633 5.779c2.027 1.383 2.54 3.357-4.008 5.376z" opacity=".1" transform="translate(-53.243 -37.984)"/><path d="m426.561 154.085s-29.283-1.673-37.516 14.223l-1.328 14.092-2.231-.245-.446 9.583s44.756-1.952 54.941 2.644 41.833 27.755 54.517 23.85-1.116-7.53-1.116-7.53-17.458-7.4-17.458-13.2-4.324-36.445-49.363-43.417z" fill="#444053" transform="translate(-61.808 -43.594)"/><path d="m371.63 622.28s18.685 18.128 26.773 16.733c-.003 0-22.869-1.952-26.773-16.733z" opacity=".1" transform="translate(-63.349 10.266)"/><path d="m368.13 629.81s1.673 9.326 6.136 8.411-6.136-8.411-6.136-8.411z" opacity=".1" transform="translate(-63.752 11.135)"/><path d="m396.717 769.53s-26.528 20.638-22.054 21.2 22.054-21.2 22.054-21.2z" opacity=".1" transform="translate(-63.057 27.19)"/><path d="m330.96 348.778 85.9-13.978v81.323l-81.613-4.273z" fill="#001f40" transform="translate(38.169 38.525)"/><path d="m330.96 348.778 85.9-13.978v81.323l-81.613-4.273z" opacity=".05" transform="translate(38.169 38.525)"/><path d="m407.96 334.8 103.01 7.708-5.7 70.77-97.309 2.845z" fill="#001f40" transform="translate(47.047 38.525)"/><path d="m407.96 334.8 103.01 7.708-5.7 70.77-97.309 2.845z" opacity=".1" transform="translate(47.047 38.525)"/><path d="m439.63 312.55-31.67 24.821 103.01 7.708 16.834-25.4z" fill="#001f40" transform="translate(47.045 35.974)"/><path d="m303.08 324.005 77.33-9.415 39.669 22.545-85.9 13.978z" fill="#001f40" transform="translate(34.952 36.207)"/><path d="m435.688 354.47v111.186l-40.238-4.128-17.5-1.785-5.332-.558-17.492-1.8-24.163-2.477v-107.578l85.886 5.846z" fill="#001f40" transform="translate(38.168 39.959)"/><path d="m509.019 341.71v108.431l-32.25 6.191-15.685 3.012-36.244 6.961v-111.186z" fill="#001f40" transform="translate(48.995 39.311)"/><path d="m509.019 341.71v108.431l-32.25 6.191-15.685 3.012-36.244 6.961v-111.186z" opacity=".05" transform="translate(48.995 39.311)"/><path d="m303.08 370.734 31.1-23.4 104.728 7.14-15.417 25.97z" fill="#001f40" transform="translate(34.95 39.976)"/><path d="m303.08 370.734 31.1-23.4 104.728 7.14-15.417 25.97z" fill="#fff" opacity=".1" transform="translate(34.95 39.976)"/><path d="m509.019 341.71-84.179 13.409 27.4 24.542 90.17-15.127z" fill="#001f40" transform="translate(48.992 39.329)"/><path d="m509.019 341.71-84.179 13.409 27.4 24.542 90.17-15.127z" fill="#fff" opacity=".1" transform="translate(48.992 39.329)"/><path d="m473.015 446.932-15.685 3.012v-23.17l14.692-3.7z" fill="#fff" opacity=".1" transform="translate(52.748 48.696)"/><path d="m390.583 435.96v15.328l-17.5-1.785v-13.543z" fill="#fff" opacity=".1" transform="translate(43.031 50.182)"/><path d="m370.112 440.29v8.155l-17.492-1.8v-6.355z" fill="#fff" opacity=".1" transform="translate(40.672 50.682)"/><path d="m519.436 488.322c-11.992 15.339-51.594 4.741-51.594 4.741l-29.428-30.7-3.994-4.163 7.809-14.5s2.231.736 5.957 2.03c19.723 6.894 81.345 29.685 71.25 42.592z" opacity=".1" transform="translate(-56.112 -10.299)"/><path d="m518.436 486.322c-11.992 15.339-51.594 4.741-51.594 4.741l-29.428-30.7-3.994-4.163 7.809-14.5s2.231.736 5.957 2.03c19.723 6.895 81.345 29.685 71.25 42.592z" fill="#efb7b9" transform="translate(-56.227 -10.529)"/><path d="m447.146 443.73c-1.629 4.685-5.767 11.624-9.772 16.633l-3.994-4.163 7.809-14.5s2.242.736 5.957 2.03z" opacity=".1" transform="translate(-56.227 -10.522)"/><path d="m361.442 288.02s-29.283 11.156-29.562 42.391a513.227 513.227 0 0 0 3.347 60.24s-8.367 46.574 15.339 59.961 45.734 24.541 45.734 24.541 37.873 6.135 42.525 8.088 20.816-23.148 18.306-27.331-36.992-14.5-41.086-21.474-14.179-11.669-14.179-11.669-10.285-7.017-10.7-12.874 2.621-10.04 3.48-12.55 3.971-27.052 3.971-27.052 16.65-87.068-37.175-82.271z" fill="#dce6f2" transform="translate(-67.939 -28.261)"/><path d="m374.182 380.7s-39.6 4.462-36.534 18.406c0 0 15.052-14.067 36.534-18.406z" opacity=".1" transform="translate(-67.288 -17.544)"/><path d="m372.333 385.7s-22.478 16.454-18.351 17.57 18.351-17.57 18.351-17.57z" opacity=".1" transform="translate(-65.442 -16.968)"/><path d="m379.784 391.7s-6.414 11.535-2.789 10.932 2.789-10.932 2.789-10.932z" opacity=".1" transform="translate(-62.857 -16.276)"/><g fill="#001f40"><path d="m752.92 167.426s-42.391-2.555-37.438 27.186c0 0-.993 5.254 3.77 7.641 0 0 .078-2.231 4.351-1.461a19.532 19.532 0 0 0 4.607.223 9.56 9.56 0 0 0 5.645-2.331s11.925-4.92 16.566-24.419c0 0 3.436-4.261 3.346-5.355l-7.161 3.068s2.443 5.165.513 9.46c0 0-.223-9.27-1.606-9.058-.279 0-3.714 1.8-3.714 1.8s4.205 8.991 1.026 15.54c0 0 1.2-11.089-2.343-14.893l-5.042 2.945s4.92 9.293 1.584 16.878c0 0 .859-11.635-2.644-16.164l-4.574 3.559s4.63 9.17 1.807 15.461c0 0-.368-13.543-2.8-14.569 0 0-3.994 3.525-4.6 4.975 0 0 3.157 6.693 1.194 10.163 0 0-1.2-9.025-2.231-9.069 0 0-3.983 5.979-4.4 10.04a21.708 21.708 0 0 1 3.425-10.642 11.951 11.951 0 0 0 -6.091 3.157s.614-4.228 7.073-4.6c0 0 3.346-4.54 4.172-4.819 0 0-6.425-.535-10.319 1.194 0 0 3.425-3.982 11.5-2.231l4.462-3.681s-8.456-1.116-12.048.123c0 0 4.128-3.525 13.264-.959l4.908-2.934s-7.207-1.562-11.5-.993c0 0 4.529-2.443 12.941.2l3.514-1.573s-5.288-1.037-6.827-1.2-1.629-.591-1.629-.591a18.25 18.25 0 0 1 9.917 1.115s7.537-2.718 7.382-3.186z" transform="translate(-23.741 -42.053)"/><path d="m868.379 300.766s-42.391-2.554-37.438 27.186c0 0-.993 5.254 3.771 7.641 0 0 .078-2.231 4.362-1.461a19.54 19.54 0 0 0 4.607.223 9.548 9.548 0 0 0 5.578-2.32s11.941-4.935 16.577-24.435c0 0 3.425-4.25 3.291-5.344l-7.162 3.057s2.443 5.165.525 9.46c0 0-.235-9.27-1.607-9.058-.279 0-3.726 1.8-3.726 1.8s4.217 9 1.037 15.54c0 0 1.2-11.089-2.354-14.892l-4.987 2.911s4.919 9.292 1.584 16.878c0 0 .859-11.635-2.644-16.164l-4.563 3.57s4.618 9.159 1.807 15.45c0 0-.368-13.543-2.8-14.569 0 0-3.994 3.525-4.607 4.975 0 0 3.168 6.693 1.2 10.163 0 0-1.2-9.025-2.231-9.07 0 0-3.982 5.979-4.4 10.04a21.777 21.777 0 0 1 3.436-10.642 12 12 0 0 0 -6.1 3.157s.625-4.228 7.084-4.6c0 0 3.291-4.54 4.172-4.819 0 0-6.426-.535-10.319 1.194 0 0 3.424-3.982 11.49-2.175l4.462-3.681s-8.468-1.116-12.048.123c0 0 4.128-3.525 13.264-.959l4.909-2.934s-7.218-1.551-11.512-.993c0 0 4.54-2.443 12.951.2l3.514-1.573s-5.288-1.037-6.838-1.2-1.629-.591-1.629-.591a18.284 18.284 0 0 1 9.928 1.116s7.55-2.736 7.416-3.204z" opacity=".1" transform="translate(-10.427 -26.754)"/><path d="m636.607 281.433s9.761-41.376-20.4-41.521c0 0-5.009-1.874-8.166 2.41 0 0 2.153.457.691 4.54a19.828 19.828 0 0 0 -1 4.462 9.58 9.58 0 0 0 1.327 5.946s2.822 12.606 21.2 20.5c0 0 3.614 4.105 4.707 4.15l-1.785-7.575s-5.511 1.528-9.415-1.116c0 0 9.181 1.35 9.192 0 0-.279-1.115-3.971-1.115-3.971s-9.583 2.61-15.5-1.64c0 0 10.721 3.079 15.082.234l-2.008-5.488s-10.04 3.268-16.912-1.316c0 0 11.323 2.834 16.388.156l-2.733-5.109s-9.817 2.99-15.54-.859c0 0 13.386 1.941 14.837-.268 0 0-2.789-4.54-4.116-5.388 0 0-7.095 1.986-10.218-.547 0 0 9.092.346 9.3-.614 0 0-5.209-4.942-9.181-6.057a21.862 21.862 0 0 1 9.917 5.2 12.035 12.035 0 0 0 -2.075-6.548s4.061 1.339 3.347 7.809c0 0 3.9 4.016 4.027 4.931 0 0 1.618-6.236.58-10.375 0 0 3.346 4.061.19 11.7l2.855 5.076s2.588-8.143 1.93-11.892c0 0 2.778 4.663-1.316 13.23l2.064 5.343s2.755-6.849 2.934-11.155c0 0 1.64 4.886-2.41 12.728l.959 3.726s1.919-5.031 2.343-6.526.859-1.506.859-1.506a18.274 18.274 0 0 1 -2.778 9.594s1.459 7.792 1.939 7.736z" opacity=".1" transform="translate(-36.127 -33.8)"/><path d="m555.385 290.84s-34.047-25.468-46.217 2.119c0 0-3.715 3.849-1.049 8.456 0 0 1.272-1.8 4.462 1.182a19.527 19.527 0 0 0 3.726 2.722 9.572 9.572 0 0 0 5.99 1.116s12.673 2.443 27.264-11.289c0 0 5.209-1.673 5.7-2.655l-7.686-1.35s-.8 5.656-4.763 8.188c0 0 4.9-7.876 3.625-8.445-.257-.123-4.094-.558-4.094-.558s-1.428 9.839-7.675 13.554c0 0 7.106-8.6 6.225-13.732l-5.834-.312s-.993 10.475-7.954 14.982c0 0 7.106-9.248 6.693-14.96l-5.778.469s-1.171 10.185-6.983 13.889c0 0 7.128-11.512 5.667-13.7 0 0-5.276.747-6.582 1.618 0 0-1.015 7.3-4.585 9.148 0 0 3.96-8.2 3.157-8.768 0 0-6.615 2.8-9.214 5.99a21.789 21.789 0 0 1 8.72-7.004 12.015 12.015 0 0 0 -6.827-.714s2.834-3.19 8.434.056c0 0 5.243-1.975 6.136-1.729 0 0-5.076-3.983-9.281-4.674 0 0 5.064-1.45 10.809 4.462l5.79-.591s-6.437-5.578-10.129-6.515c0 0 5.388-.68 11.6 6.481l5.712.257s-5.165-5.266-9.058-7.162c0 0 5.12.446 10.7 7.284l3.8.614s-3.848-3.771-5.053-4.752-1.037-1.395-1.037-1.395a18.329 18.329 0 0 1 7.686 6.381s7.758 1.797 7.903 1.337z" opacity=".1" transform="translate(-47.721 -29.123)"/><path d="m657 78.73s-34.047-25.479-46.217 2.12c0 0-3.715 3.849-1.049 8.456 0 0 1.272-1.8 4.462 1.182a19.83 19.83 0 0 0 3.737 2.711 9.559 9.559 0 0 0 5.99 1.116s12.673 2.443 27.264-11.3c0 0 5.21-1.662 5.689-2.655l-7.686-1.328s-.792 5.656-4.763 8.188c0 0 4.908-7.876 3.637-8.445-.257-.123-4.094-.558-4.094-.558s-1.473 9.861-7.72 13.554c0 0 7.095-8.6 6.225-13.732l-5.834-.312s-1 10.475-7.954 14.971c0 0 7.106-9.248 6.693-14.96l-5.767.469s-1.182 10.2-6.995 13.9c0 0 7.14-11.512 5.678-13.7 0 0-5.277.747-6.582 1.618 0 0-1.015 7.3-4.585 9.147 0 0 3.96-8.2 3.157-8.779 0 0-6.615 2.811-9.214 6a21.685 21.685 0 0 1 8.724-7.006 11.936 11.936 0 0 0 -6.838-.714s2.845-3.19 8.445.056c0 0 5.243-1.986 6.135-1.729 0 0-5.076-3.982-9.281-4.685 0 0 5.053-1.439 10.8 4.462l5.79-.591s-6.426-5.578-10.129-6.526c0 0 5.388-.669 11.613 6.492l5.712.245s-5.165-5.265-9.069-7.151c0 0 5.132.446 10.709 7.285l3.793.614s-3.86-3.726-5.065-4.685-1.037-1.383-1.037-1.383a18.292 18.292 0 0 1 7.686 6.381s7.746 1.696 7.94 1.272z" opacity=".1" transform="translate(-36.003 -53.534)"/><path d="m773.274 109.465s-13.609-40.283-39.274-24.453c0 0-5.243 1.116-5.656 6.37 0 0 2.063-.759 2.979 3.48a20.083 20.083 0 0 0 1.528 4.362 9.66 9.66 0 0 0 4.284 4.34s9.058 9.2 28.87 6.158c0 0 5.232 1.584 6.191 1.037l-5.577-5.477s-3.86 4.206-8.568 4.038c0 0 8.512-3.7 7.809-4.9-.145-.234-3.057-2.767-3.057-2.767s-6.76 7.285-14.011 6.8c0 0 10.72-3.057 12.907-7.809l-4.618-3.559s-6.76 8.054-15.049 7.809c0 0 11.156-3.581 13.978-8.534l-5.02-2.889s-6.693 7.731-13.632 7.485c0 0 12.405-5.433 12.438-8.065 0 0-4.763-2.376-6.336-2.4 0 0-4.975 5.433-8.925 4.942 0 0 7.9-4.518 7.564-5.444 0 0-7.028-1.439-10.988-.279a21.742 21.742 0 0 1 11.156-.837 12.033 12.033 0 0 0 -5.232-4.462s4.15-1.015 6.928 4.83c0 0 5.444 1.35 6.024 2.053 0 0-1.919-6.147-4.987-9.114 0 0 4.987 1.685 6.348 9.839l5.109 2.789s-2.108-8.266-4.652-11.155c0 0 4.83 2.5 5.879 11.925l4.574 3.447s-1.272-7.273-3.414-11.044c0 0 3.971 3.28 4.685 12.081l2.778 2.655s-1.027-5.288-1.45-6.783-.078-1.6-.078-1.6a18.4 18.4 0 0 1 2.711 9.616s5.394 5.805 5.784 5.515z" opacity=".1" transform="translate(-22.213 -51.995)"/><path d="m693.039 108.358s-42.279-4.708-38.788 25.289c0 0-1.26 5.2 3.347 7.809 0 0 .19-2.231 4.462-1.227a20.528 20.528 0 0 0 4.6.457 9.6 9.6 0 0 0 5.745-2.041s12.171-4.317 17.849-23.56c0 0 3.637-4.072 3.559-5.176l-7.307 2.7s2.231 5.277 0 9.471c0 0 .234-9.27-1.116-9.125-.279 0-3.8 1.606-3.8 1.606s3.748 9.2.245 15.618c0 0 1.762-11.022-1.6-14.993l-5.187 2.677s4.462 9.538.725 16.945c0 0 1.45-11.579-1.818-16.276l-4.741 3.347s4.15 9.382 1.015 15.528c0 0 .323-13.543-2.053-14.692 0 0-4.172 3.347-4.853 4.73 0 0 2.822 6.8.692 10.207 0 0-.748-9.069-1.729-9.159 0 0-4.284 5.767-4.908 9.839a21.715 21.715 0 0 1 3.971-10.464 12 12 0 0 0 -6.247 2.845s.826-4.183 7.3-4.228c0 0 3.514-4.362 4.462-4.6 0 0-6.392-.859-10.375.669 0 0 3.625-3.815 11.591-1.6l4.7-3.447s-8.49-1.718-12.081-.6c0 0 4.306-3.347 13.3-.279l5.053-2.688s-7.128-1.919-11.446-1.573c0 0 4.652-2.231 12.918.859l3.592-1.394s-5.232-1.305-6.771-1.551-1.6-.669-1.6-.669a18.35 18.35 0 0 1 9.862 1.606s7.51-2.392 7.432-2.86z" opacity=".1" transform="translate(-30.78 -48.902)"/><path d="m1024.636 402.528s-42.257-4.708-38.765 25.256c0 0-1.261 5.2 3.346 7.809 0 0 .19-2.231 4.462-1.238a19.3 19.3 0 0 0 4.6.458 9.518 9.518 0 0 0 5.745-2.041s12.171-4.317 17.793-23.549c0 0 3.636-4.083 3.558-5.176l-7.307 2.688s2.231 5.288 0 9.482c0 0 .234-9.281-1.115-9.125-.279 0-3.8 1.6-3.8 1.6s3.749 9.2.246 15.618c0 0 1.762-11.01-1.6-14.993l-5.19 2.683s4.462 9.538.736 16.945c0 0 1.439-11.579-1.829-16.287l-4.741 3.342s4.15 9.382 1.015 15.517c0 0 .323-13.543-2.052-14.681 0 0-4.161 3.347-4.853 4.73 0 0 2.833 6.8.692 10.207 0 0-.748-9.069-1.729-9.159 0 0-4.284 5.767-4.908 9.839a21.717 21.717 0 0 1 3.971-10.464 11.9 11.9 0 0 0 -6.247 2.844s.825-4.194 7.3-4.239c0 0 3.525-4.362 4.462-4.585 0 0-6.392-.87-10.375.658 0 0 3.625-3.8 11.6-1.584l4.685-3.447s-8.389-1.584-12.037-.491c0 0 4.306-3.347 13.3-.29l5.053-2.677s-7.128-1.919-11.445-1.573c0 0 4.652-2.231 12.918.859l3.592-1.406s-5.232-1.305-6.771-1.539-1.6-.669-1.6-.669a18.285 18.285 0 0 1 9.862 1.6s7.54-2.442 7.428-2.922z" opacity=".1" transform="translate(7.445 -15.065)"/><path d="m1082.546 437.908s-42.256-4.7-38.765 25.256c0 0-1.25 5.2 3.347 7.809 0 0 .189-2.231 4.462-1.227a19.684 19.684 0 0 0 4.585.446 9.636 9.636 0 0 0 5.722-2.03s12.159-4.317 17.782-23.56c0 0 3.648-4.072 3.559-5.176l-7.307 2.688s2.231 5.288 0 9.482c0 0 .234-9.27-1.115-9.125-.279 0-3.8 1.6-3.8 1.6s3.748 9.2.246 15.618c0 0 1.762-11.01-1.6-14.982l-5.187 2.677s4.462 9.538.736 16.945c0 0 1.439-11.579-1.83-16.276l-4.741 3.347s4.15 9.382 1.027 15.528c0 0 .312-13.554-2.064-14.692 0 0-4.161 3.347-4.853 4.73 0 0 2.834 6.8.692 10.207 0 0-.748-9.069-1.729-9.159 0 0-4.284 5.767-4.9 9.839a21.771 21.771 0 0 1 3.96-10.464 12 12 0 0 0 -6.248 2.845s.837-4.194 7.307-4.228c0 0 3.514-4.362 4.462-4.6 0 0-6.392-.859-10.375.669 0 0 3.625-3.815 11.6-1.6l4.685-3.447s-8.389-1.584-12.037-.491c0 0 4.306-3.347 13.3-.279l5.054-2.688s-7.129-1.919-11.446-1.573c0 0 4.652-2.231 12.918.859l3.592-1.395s-5.232-1.305-6.76-1.551-1.607-.669-1.607-.669a18.352 18.352 0 0 1 9.862 1.606s7.578-2.46 7.466-2.939z" opacity=".1" transform="translate(14.136 -10.992)"/><path d="m954.935 140.98s-34.046-25.468-46.217 2.119c0 0-3.715 3.849-1.049 8.456 0 0 1.272-1.8 4.462 1.183a19.544 19.544 0 0 0 3.726 2.722 9.583 9.583 0 0 0 5.99 1.116s12.673 2.443 27.275-11.289c0 0 5.2-1.673 5.689-2.655l-7.664-1.383s-.8 5.656-4.763 8.188c0 0 4.9-7.876 3.625-8.445-.256-.123-4.083-.558-4.083-.558s-1.439 9.839-7.686 13.554c0 0 7.106-8.6 6.225-13.732l-5.834-.312s-.993 10.475-7.954 14.982c0 0 7.117-9.248 6.693-14.959l-5.778.469s-1.115 10.185-6.983 13.889c0 0 7.139-11.512 5.667-13.7 0 0-5.277.747-6.582 1.618 0 0-1 7.3-4.574 9.147 0 0 3.949-8.2 3.146-8.768 0 0-6.615 2.8-9.214 5.99a21.789 21.789 0 0 1 8.724-7.006 12.014 12.014 0 0 0 -6.827-.714s2.845-3.19 8.445.056c0 0 5.232-1.974 6.124-1.729 0 0-5.076-3.983-9.281-4.674 0 0 5.065-1.45 10.81 4.462l5.79-.591s-6.426-5.578-10.129-6.515c0 0 5.388-.68 11.6 6.481l5.722.257s-5.176-5.265-9.069-7.162c0 0 5.132.446 10.7 7.285l3.8.614s-3.849-3.771-5.054-4.752-1.026-1.305-1.026-1.305a18.341 18.341 0 0 1 7.675 6.381s7.735 1.737 7.879 1.28z" opacity=".1" transform="translate(-1.679 -46.34)"/><path d="m978.085 307.732s-11.735-40.863-38.129-26.193c0 0-5.288.814-5.946 6.1 0 0 2.1-.658 2.822 3.614a19.751 19.751 0 0 0 1.339 4.462 9.579 9.579 0 0 0 4.083 4.552s8.635 9.594 28.558 7.452c0 0 5.154 1.807 6.135 1.316l-5.277-5.734s-4.049 4.038-8.735 3.659c0 0 8.656-3.347 7.987-4.54-.134-.245-2.923-2.911-2.923-2.911s-7.073 6.983-14.3 6.169c0 0 10.854-2.566 13.242-7.184l-4.462-3.77s-7.117 7.742-15.383 7.139c0 0 11.244-3.09 14.345-7.9l-4.886-3.112s-7.084 7.418-13.956 6.861c0 0 12.639-4.875 12.8-7.5 0 0-4.663-2.588-6.236-2.677 0 0-5.21 5.2-9.17 4.529 0 0 8.1-4.161 7.809-5.1 0 0-6.961-1.751-10.966-.781a21.763 21.763 0 0 1 11.155-.324 11.973 11.973 0 0 0 -5.02-4.685s4.194-.837 6.693 5.131c0 0 5.366 1.584 5.924 2.32 0 0-1.64-6.236-4.574-9.326 0 0 4.908 1.9 5.9 10.107l4.976 3.023s-1.74-8.367-4.15-11.312c0 0 4.708 2.711 5.344 12.171l4.462 3.648s-.949-7.318-2.912-11.156c0 0 3.826 3.458 4.138 12.271l2.655 2.789s-.781-5.332-1.115-6.849 0-1.729 0-1.729a18.283 18.283 0 0 1 2.288 9.738s5.083 6 5.485 5.732z" opacity=".1" transform="translate(1.476 -29.326)"/><path d="m744.076 389.432s-22.791-35.9-43.953-14.413c0 0-4.842 2.231-3.994 7.53 0 0 1.841-1.227 3.737 2.677a19.11 19.11 0 0 0 2.521 3.86 9.528 9.528 0 0 0 5.188 3.213s10.988 6.783 29.506-.892c0 0 5.455.29 6.258-.457l-6.693-4.016s-2.755 5.02-7.362 5.968c0 0 7.385-5.578 6.392-6.6-.19-.2-3.626-1.963-3.626-1.963s-4.83 8.679-11.992 9.939c0 0 9.694-5.522 10.7-10.631l-5.344-2.354s-4.652 9.426-12.751 11.156c0 0 9.928-6.124 11.546-11.613l-5.578-1.606s-4.708 9.114-11.457 10.509c0 0 10.754-8.233 10.163-10.8 0 0-5.2-1.171-6.693-.814 0 0-3.536 6.459-7.53 6.928 0 0 6.6-6.27 6.057-7.095 0 0-7.173.279-10.743 2.343a21.711 21.711 0 0 1 10.642-3.458 11.97 11.97 0 0 0 -6.124-3.09s3.781-1.974 7.809 3.046c0 0 5.578 0 6.348.558 0 0-3.347-5.578-7.017-7.664 0 0 5.243.447 8.5 8.043l5.634 1.495s-4.027-7.53-7.162-9.683c0 0 5.277 1.272 8.545 10.185l5.265 2.231s-2.967-6.749-5.946-9.906c0 0 4.641 2.231 7.418 10.609l3.347 1.93s-2.231-4.9-3.023-6.247-.48-1.662-.48-1.662a18.289 18.289 0 0 1 4.92 8.69s6.671 4.434 6.972 4.054z" opacity=".1" transform="translate(-25.94 -18.988)"/><path d="m878.32 225.106s-21.675-36.579-43.506-15.763c0 0-4.908 2.12-4.217 7.407 0 0 1.863-1.183 3.648 2.778a19.286 19.286 0 0 0 2.4 3.949 9.472 9.472 0 0 0 5.087 3.347s10.765 7.117 29.518 0c0 0 5.444.457 6.269-.268l-6.548-4.217s-2.9 4.919-7.541 5.734c0 0 7.552-5.388 6.6-6.4-.2-.212-3.57-2.086-3.57-2.086s-5.1 8.534-12.271 9.571c0 0 9.862-5.221 11.01-10.285l-5.266-2.477s-4.942 9.293-13.1 10.776c0 0 10.118-5.812 11.9-11.245l-5.511-1.785s-5 8.924-11.78 10.152c0 0 11-7.9 10.486-10.475 0 0-5.154-1.339-6.694-1.026 0 0-3.737 6.348-7.741 6.693 0 0 6.793-6.046 6.28-6.894 0 0-7.184.056-10.81 2.008a21.777 21.777 0 0 1 10.743-3.124 11.992 11.992 0 0 0 -6.035-3.28s3.849-1.863 7.809 3.28c0 0 5.577.19 6.325.759 0 0-3.157-5.578-6.771-7.876 0 0 5.221.6 8.244 8.3l5.578 1.673s-3.782-7.653-6.861-9.906c0 0 5.243 1.439 8.232 10.442l5.187 2.421s-2.755-6.838-5.577-10.04c0 0 4.563 2.376 7.095 10.832l3.269 2.03s-2.1-4.964-2.834-6.336-.424-1.673-.424-1.673a18.329 18.329 0 0 1 4.652 8.835s6.405 4.537 6.725 4.169z" transform="translate(-10.429 -38.008)"/><path d="m754.162 295.6s1.115-42.5-28.413-36.512c0 0-5.288-.814-7.519 4.027 0 0 2.231 0 1.606 4.295a19.6 19.6 0 0 0 -.067 4.618 9.538 9.538 0 0 0 2.51 5.578s5.321 11.758 24.966 15.752c0 0 4.362 3.291 5.455 3.112l-3.346-7.05s-5.076 2.61-9.438.837c0 0 9.259-.547 9-1.908 0-.279-1.919-3.67-1.919-3.67s-8.857 4.518-15.495 1.551c0 0 11.155.837 14.8-2.833l-3.113-4.942s-9.125 5.221-16.823 2.142c0 0 11.657.469 16.075-3.179l-3.714-4.462s-9 4.931-15.384 2.32c0 0 13.521-.814 14.5-3.28 0 0-3.659-3.871-5.132-4.462 0 0-6.537 3.347-10.107 1.539 0 0 8.925-1.495 8.98-2.488 0 0-6.1-3.782-10.219-4.061a21.718 21.718 0 0 1 10.765 3.079 11.989 11.989 0 0 0 -3.347-5.99s4.251.48 4.83 6.916c0 0 4.652 3.146 4.953 4.016 0 0 .323-6.437-1.54-10.274 0 0 4.105 3.291 2.566 11.412l3.827 4.4s.87-8.5-.525-12.037c0 0 3.659 4 1.406 13.219l3.091 4.808s1.316-7.262.614-11.535c0 0 2.588 4.462.223 12.951l1.7 3.458s.859-5.321.971-6.872.535-1.651.535-1.651a18.311 18.311 0 0 1 -.77 9.962s3.007 7.361 3.498 7.214z" transform="translate(-23.378 -31.612)"/><ellipse cx="779.586" cy="798.728" opacity=".1" rx="30.042" ry="5.076"/><ellipse cx="670.095" cy="875.791" opacity=".1" rx="30.042" ry="5.076"/><ellipse cx="103.907" cy="836.311" opacity=".1" rx="30.042" ry="5.076"/><ellipse cx="897.91" cy="870.715" opacity=".1" rx="30.042" ry="5.076"/><ellipse cx="929.15" cy="806.314" rx="44.856" ry="7.586"/><path d="m949.3 769.14a12.952 12.952 0 0 0 4.273-6.448c.558-2.566-.536-5.633-2.979-6.571-2.744-1.048-5.678.848-7.909 2.767s-4.763 4.116-7.675 3.715a11.713 11.713 0 0 0 3.614-10.943 4.584 4.584 0 0 0 -1-2.231c-1.528-1.629-4.284-.926-6.113.357-5.8 4.083-7.418 11.958-7.452 19.053-.581-2.555-.09-5.221-.1-7.809s-.736-5.578-2.957-6.938a8.822 8.822 0 0 0 -4.462-1.116c-2.611-.089-5.522.167-7.3 2.075-2.231 2.365-1.639 6.348.279 8.925s4.852 4.239 7.552 6.046a16.875 16.875 0 0 1 5.4 5.143 5.244 5.244 0 0 1 .39.915h16.354a45.109 45.109 0 0 0 10.085-6.94z" transform="translate(-1.552 24.758)"/></g><path d="m170.29 784.829s17.124-.524 22.311-4.206 26.36-8.065 27.643-2.164 25.747 29.328 6.4 29.484-44.945-3.012-50.1-6.158-6.254-16.956-6.254-16.956z" fill="#a8a8a8" transform="translate(-86.552 27.888)"/><path d="m226.971 804.934c-19.344.156-44.945-3.012-50.1-6.158-3.927-2.387-5.488-10.966-6.013-14.926h-.569s1.116 13.822 6.236 16.956 30.756 6.314 50.1 6.158c5.578 0 7.508-2.031 7.407-4.976-.781 1.797-2.911 2.912-7.061 2.946z" opacity=".2" transform="translate(-86.552 28.845)"/></svg>