<svg height="1355.034" viewBox="0 0 1655.285 1355.034" width="1655.285" xmlns="http://www.w3.org/2000/svg" xmlns:xlink="http://www.w3.org/1999/xlink"><linearGradient id="a" gradientUnits="objectBoundingBox" x1=".5" x2=".5" y1="1"><stop offset="0" stop-color="#808080" stop-opacity=".251"/><stop offset=".54" stop-color="#808080" stop-opacity=".122"/><stop offset="1" stop-color="#808080" stop-opacity=".102"/></linearGradient><linearGradient id="b" x1=".5" x2=".5" xlink:href="#a" y1="1.228" y2=".201"/><linearGradient id="c" x1=".5" x2=".5" xlink:href="#a" y1="1" y2="0"/><ellipse cx="284.649" cy="1306.53" fill="#001f40" opacity=".1" rx="284.649" ry="48.504"/><ellipse cx="1370.635" cy="1295.047" fill="#001f40" opacity=".1" rx="284.649" ry="48.504"/><path d="m493.018 31.814c-74.4 3.979-149.57 25.715-207.616 72.44-50.93 41.015-87.659 105.5-78.7 170.288 10.577 76.483 78.812 132.119 104.123 205.077 16.286 46.9 13.747 98.657 3.089 147.177-6.857 31.263-17.4 62.558-37.667 87.336-36.5 44.574-102.377 66.084-120.313 120.831-19.505 59.534 29.646 117.919 75.82 160.261 36.859 33.786 75.464 67.41 121.914 85.929 33.964 13.553 70.823 18.421 107.358 20.362a716.006 716.006 0 0 0 295.974-47.292c45.139-17.516 88.807-39.722 136.049-50.283 100.679-22.513 204.268 9.947 306.305 25.149a916.12 916.12 0 0 0 263.9.776c55.086-7.86 112-22.044 153.484-59.113 42.05-37.635 63.076-95.891 60.747-152.336s-26.136-110.787-61.2-155.1c-45.285-57.238-107.747-97.963-162.085-146.741a700.85 700.85 0 0 1 -139.45-172.375c-21.349-37.2-39.511-76.678-67.167-109.428-43.134-51.043-105.692-81.4-168.2-104.851-144.204-54.021-293.774-65.021-444.121-88.889-46.983-7.488-94.646-11.709-142.244-9.218z" fill="#001f40" opacity=".1" transform="translate(-49.207 -31.097)"/><g opacity=".7" transform="translate(418.145 116.744)"><path d="m0 0h308.845v172.585h-308.845z" fill="#f6f7f9" transform="translate(0 476.966)"/><g fill="#001f40"><circle cx="58.142" cy="553.578" opacity=".2" r="32.152"/><path d="m0 0h140.093v8.814h-140.093z" opacity=".2" transform="translate(129.499 515.474)"/><path d="m0 0h71.373v8.814h-71.373z" opacity=".2" transform="translate(129.499 537.939)"/><path d="m0 0h115.429v8.814h-115.429z" opacity=".2" transform="translate(129.499 560.404)"/><path d="m0 0h140.093v8.814h-140.093z" opacity=".2" transform="translate(129.499 582.868)"/><path d="m0 0h38.767v17.03h-38.767z" opacity=".2" transform="translate(230.841 615.296)"/></g><path d="m0 0h308.845v172.585h-308.845z" fill="#f6f7f9" transform="translate(260.018)"/><circle cx="318.176" cy="76.612" fill="#001f40" opacity=".2" r="32.152"/><path d="m0 0h140.093v8.814h-140.093z" fill="#001f40" opacity=".2" transform="translate(389.533 38.509)"/><path d="m0 0h71.373v8.814h-71.373z" fill="#001f40" opacity=".2" transform="translate(389.533 60.973)"/><path d="m0 0h115.429v8.814h-115.429z" fill="#001f40" opacity=".2" transform="translate(389.533 83.438)"/><path d="m0 0h140.093v8.814h-140.093z" fill="#001f40" opacity=".2" transform="translate(389.533 105.919)"/><path d="m0 0h38.767v17.03h-38.767z" fill="#001f40" opacity=".2" transform="translate(490.859 138.33)"/><path d="m0 0h308.845v172.585h-308.845z" fill="#f6f7f9" transform="translate(362.815 289.76)"/><circle cx="420.957" cy="366.389" fill="#001f40" opacity=".2" r="32.152"/><path d="m0 0h140.093v8.814h-140.093z" fill="#001f40" opacity=".2" transform="translate(492.33 328.285)"/><path d="m0 0h71.373v8.814h-71.373z" fill="#001f40" opacity=".2" transform="translate(492.33 350.75)"/><path d="m0 0h115.429v8.814h-115.429z" fill="#001f40" opacity=".2" transform="translate(492.33 373.214)"/><path d="m0 0h140.093v8.814h-140.093z" fill="#001f40" opacity=".2" transform="translate(492.33 395.679)"/><path d="m0 0h38.767v17.03h-38.767z" fill="#001f40" opacity=".2" transform="translate(593.656 428.106)"/></g><path d="m0 0h519.34v293.448h-519.34z" fill="url(#a)" transform="translate(310.332 219.46)"/><path d="m0 0h512.046v286.154h-512.046z" fill="#f6f7f9" transform="translate(314.004 223.099)"/><circle cx="410.397" cy="350.14" fill="#001f40" opacity=".2" r="53.307"/><path d="m0 0h232.28v14.604h-232.28z" fill="#001f40" opacity=".2" transform="translate(528.736 286.951)"/><path d="m0 0h118.324v14.604h-118.324z" fill="#001f40" opacity=".2" transform="translate(528.736 324.214)"/><path d="m0 0h191.378v14.604h-191.378z" fill="#001f40" opacity=".2" transform="translate(528.736 361.461)"/><path d="m0 0h232.28v14.604h-232.28z" fill="#001f40" opacity=".2" transform="translate(528.736 398.708)"/><path d="m0 0h64.273v28.239h-64.273z" fill="#ff7d00" transform="translate(696.729 452.469)"/><path d="m0 0h493.964v276.029h-493.964z" fill="url(#a)" transform="translate(674.619 615.883)"/><path d="m0 0h487.139v272.228h-487.139z" fill="#f6f7f9" transform="translate(678.031 617.775)"/><circle cx="769.75" cy="738.638" fill="#001f40" opacity=".2" r="50.719"/><path d="m0 0h220.975v13.893h-220.975z" fill="#001f40" opacity=".2" transform="translate(882.316 678.522)"/><path d="m0 0h112.566v13.893h-112.566z" fill="#001f40" opacity=".2" transform="translate(882.316 713.974)"/><path d="m0 0h182.062v13.893h-182.062z" fill="#001f40" opacity=".2" transform="translate(882.316 749.41)"/><path d="m0 0h220.975v13.893h-220.975z" fill="#001f40" opacity=".2" transform="translate(882.316 784.845)"/><path d="m0 0h61.151v26.864h-61.151z" fill="#001f40" opacity=".5" transform="translate(1042.141 835.985)"/><path d="m171.13 319.009 1.2.259a1.617 1.617 0 0 0 -1.2-.259z" fill="url(#b)" opacity=".1" transform="translate(-37.118 146.624)"/><path d="m450.07 549.339c-3.574-24-25.376-79.993-25.376-79.993-.388-1.617-.809-3.332-1.294-4.981-15.478-53.194-36.891-57.9-36.891-57.9l-76.709-16.352a5.724 5.724 0 0 1 1.617 1.52l-1.213.194a30.034 30.034 0 0 1 -6.728-14.556c-.146-.792-.275-1.617-.372-2.458a53.938 53.938 0 0 0 -4.4-81.125c-.793-.631-1.617-1.229-2.458-1.828 3.623-3.833 3.736-9.187 1.035-14.556-6.049-12.567-19.182-20.508-32.7-24.373-10.319-2.96-21.51-3.914-31.732-.679-5.839 1.844-11.143 4.965-16.61 7.7-10.189 5.095-21.413 9.122-29.112 17.483-1.8 1.957-3.429 4.448-2.911 7.019.4 1.925 1.908 3.4 2.9 5.111 2.183 3.817 1.617 8.62.146 12.777s-3.7 8.086-4.755 12.292-.631 9.283 2.572 12.324a55.583 55.583 0 0 0 4.852 3.4 24.694 24.694 0 0 1 4.577 5.127l9.089 12.276a125.476 125.476 0 0 1 11.321 17.289c2.248 4.448 4.011 9.219 7.035 13.2a20.739 20.739 0 0 0 3.024 3.235c-.291-.113-.6-.21-.89-.34a13.763 13.763 0 0 0 10.157 3.9h.453a2.765 2.765 0 0 0 1.86-.76v1.617c.162 5.9.146 12.178-.275 18.065l-.712-.356a6.162 6.162 0 0 0 -6.615.7l-70.667 56.589s-15.348 21.025-13.214 57.253l-12.374 54.378s-15.478 46.142-3.574 79.087 18.809 51.754 18.809 51.754 4.755 37.425 11.9 40.433 10.238 4.723 10.238 4.723l1.423 8.944s.469.857 1.31 2.345c5.208 9.041 24.47 40.967 35.678 37.57a145.282 145.282 0 0 1 1.828 26.217l11.068 74.396s7.731 20.232 7.262 30.826 9.041 25.667 9.041 25.667a49.07 49.07 0 0 0 -4.755 34.594c4.528 19.78 10.238 111.094 10.238 111.094l8.329 22.125-.243 25.877a24.813 24.813 0 0 1 -5.111 11.483c-5.37 5.822-5.014 12.551-17.791 20.491s-21.025 10.934-21.025 21.527a27.938 27.938 0 0 1 -.388 4.367c-1.2 7.747-3.51 11.92 20.217 14.184 27.85 2.636 46.417-15.542 46.417-15.542s4.092-7.424 23.387-10.416c0 0 6.583-.355 6.954-6.194.129-2.006.1-5.855-.081-10.092-.307-8.087-1.084-17.5-2.1-17.969-1.278-.566-3.542-8.7-4.318-11.645h5.37s5-37.425 0-61.685-.469-41.42-.469-41.42l-.954-64.014s-6.744-6.841-1.456-19.295 0-74.139 0-74.139 1.925-22.125 7.391-27.3.275-32.427 0-33.851l9.7 32.67s4.286 64.968 13.343 76.742l2.62 29.4s18.567 27.074 14.993 41.679 3.817 67.313 3.817 67.313v53.906s-8.345 21.656 3.332 29.419l5.03-.194c-1.714 1.617-2.944 3.865-4.852 5.855-2.232 2.3-3.493 11.03-4.2 18.535-.6 6.355-.793 11.822-.793 11.822s5 7.941 14.281 8.475 40 24.018 40 24.018 30.373 0 38.218-1.617l.469-.113a10.366 10.366 0 0 0 5.919-4.852 12.357 12.357 0 0 0 1.439-8.9c-.986-4.642-4.658-9.7-12.825-14.055-20.362-10.755-23.387-20.815-23.387-20.815l-13.343-19.99h1.908s-1.181-21.187 13.327-44.961l-.938-104.738s5.936-36.018-4.286-55.555c0 0-.841-20.718 6-27.074s-9.106-70.612-9.106-70.612-3.235-34.481-7.181-65.954c16.06 15.235 32.735-39.641 35.581-49.393h.42s-.081-.259-.194-.712a.679.679 0 0 1 .194-.7c0-.081-3.558-12.7-.954-10.125s9.057-7.051 9.057-7.051-.954-52.5 10.238-78.958-5.052-90.799-5.052-90.799zm-47.857 33.4.081-.146c1.617 32.055-.324 100.452-.324 100.452s-2.2 8.766-4.561 19.084l-1.7-64.984-1.617-61.2zm-204.964-22.095s8.087 101.212 0 115.8c-2.313 4.156-4.237 11.548-5.839 20.006-2.669-7.019-8.329-23.5-6.308-32.233 2.62-11.321-5.24-40.967-5.24-41.662s-.712-16.48 5-28.611 1.908-17.305 1.908-17.305 4.77-19.764 10.479-15.995z" fill="url(#c)" transform="translate(-65.826 104.18)"/><path d="m198.032 602.28c-7.035 30.988-35.08-15.883-41.468-27.123l-1.294-2.329 3.04-14.249 16.076-6.55a44.414 44.414 0 0 1 7.181 4.69c8.847 6.859 21.899 21.56 16.465 45.561z" fill="#efb7b9" transform="translate(-46.908 290.489)"/><path d="m333.848 554.771-.178.7a4.192 4.192 0 0 1 -.226.761c-2.75 9.7-19.1 64.143-34.886 49.021-17.273-16.594-8.879-54.7-8.879-54.7h.162l36.341-3.72 7.2 7.408z" fill="#efb7b9" transform="translate(34.807 287.279)"/><path d="m388.018 821.124.922 103.962c-14.232 23.613-13.084 44.638-13.084 44.638l-46.9 1.861c-11.451-7.7-3.235-29.193-3.235-29.193v-53.518s-7.326-52.3-3.833-66.86-14.718-41.355-14.718-41.355l-2.555-29.193c-8.9-11.677-13.1-76.176-13.1-76.176l-9.558-32.346c.243 1.407 5.208 28.594 0 33.591s-7.246 27.107-7.246 27.107 5.143 61.216 0 73.588 1.391 19.408 1.391 19.408l.954 63.545s-4.448 17.063.453 41.128 0 61.216 0 61.216h-50.463l.226-25.877-8.172-21.964s-5.612-90.651-10.044-110.27a49.232 49.232 0 0 1 4.658-34.352s-9.332-14.96-8.863-25.473-7.133-30.6-7.133-30.6l-10.868-73.831a143.214 143.214 0 0 0 -5.37-42.051c-6.324-21.026-15.656-48.6-15.656-48.6l10.545.938 53.242 4.739s129.386-8.7 135.225-1.472a24.145 24.145 0 0 1 2.458 7.537c5.806 26.12 13.488 107.892 13.488 107.892s15.656 63.787 8.928 70.095-5.887 26.864-5.887 26.864c10.034 19.279 4.195 55.022 4.195 55.022z" fill="#444053" transform="translate(-40.391 288.934)"/><path d="m272.131 848.046c-.372 5.79-6.841 6.146-6.841 6.146-18.923 2.976-22.934 10.351-22.934 10.351s-18.227 18.034-45.528 15.494c-23.273-2.237-21.028-6.469-19.828-14.071a27.5 27.5 0 0 0 .372-4.334c0-10.513 8.086-13.5 20.685-21.381s12.259-14.556 17.516-20.33 5.79-16.982 5.79-16.982c5.952-10.351 21.025 1.617 21.025 1.617.7 3.671 23.128 3.235 23.128 3.235s2.976 11.919 4.5 12.615c1 .469 1.763 9.817 2.07 17.79.142 4.044.158 7.877.045 9.85z" fill="#b07473" transform="translate(-33.914 442.78)"/><path d="m272.131 833.06c-.372 5.79-6.841 6.146-6.841 6.146-18.923 2.976-22.934 10.351-22.934 10.351s-18.227 18.033-45.528 15.494c-23.273-2.232-21.025-6.469-19.828-14.07 10.4 2.588 30.293 6.178 41.9-.13 16.173-8.766 27.7-14.9 27.7-14.9l25.45-12.951c.178 4.254.194 8.086.081 10.06z" opacity=".1" transform="translate(-33.914 457.766)"/><path d="m360.786 876.785a10.158 10.158 0 0 1 -5.822 4.852 2.352 2.352 0 0 1 -.453.113c-7.711 1.618-37.511 1.618-37.511 1.618s-30.2-23.387-39.253-23.92-14.022-8.41-14.022-8.41.178-5.434.76-11.742c.712-7.456 1.957-16.173 4.14-18.4 4.043-4.205 4.852-9.979 14.022-6.308 0 0 12.939-22.821 28.206-5.191l15.785 23.953s2.976 9.979 22.966 20.67c8.006 4.286 11.612 9.332 12.567 13.941a12.338 12.338 0 0 1 -1.385 8.824z" fill="#b07473" transform="translate(20.047 445.239)"/><path d="m360.786 862.82c-1.779 1.5-3.768 3.121-5.822 4.852a2.354 2.354 0 0 1 -.453.114c-7.711 1.614-37.511 1.614-37.511 1.614s-30.2-23.387-39.253-23.921-14.022-8.41-14.022-8.41.178-5.434.76-11.742c9.267 2.782 23.338 7.682 27.106 12.938 5.774 8.087 23.322 19.262 23.322 19.262s32.718-3.137 47.258-3.574a12.339 12.339 0 0 1 -1.385 8.867z" opacity=".1" transform="translate(20.047 459.204)"/><path d="m278.318 365.277-43.118 45.56s-52.223-3.849-43.1-19.278c4.642-7.844 5.37-24.26 4.965-38.589-.388-13.8-1.811-25.538-1.811-25.538s73.249-36.454 67.637-2.458a56.4 56.4 0 0 0 -.21 19.408c3.184 17.175 15.637 20.895 15.637 20.895z" fill="#efb7b9" transform="translate(-24.834 141.372)"/><path d="m261.267 324.973a56.4 56.4 0 0 0 -.21 19.408 53.76 53.76 0 0 1 -38.331 16c-9.963 0-20.621-8.087-28.627-12.858-.388-13.8-.469-20.087-.469-20.087s73.249-36.459 67.637-2.463z" opacity=".1" transform="translate(-23.229 141.372)"/><path d="m286.214 326.819a53.986 53.986 0 1 1 -20.314-42.179 53.986 53.986 0 0 1 20.314 42.179z" fill="#efb7b9" transform="translate(-32.73 118.145)"/><path d="m364.191 560.814c-13.44 31.991-99.9 32.654-99.9 32.654v-34.868l-5.24-.34c2.264 9.979-3.235 34.336-3.235 34.336-68.332 9.7-84.974-29.258-84.974-29.258l2.358-13.328 53.242 4.739s129.386-8.7 135.225-1.472a24.143 24.143 0 0 1 2.523 7.537z" opacity=".1" transform="translate(-37.297 289.242)"/><path d="m264.289 718.673v-34.886l-5.24-.324c2.264 9.979-3.235 34.336-3.235 34.336-51.415 7.246-73.588-12.939-81.4-23.451a31.785 31.785 0 0 1 -3.574-5.822l20.847-117.4 4.852-172.779 7.521-30.309 1.747-14.556v-.162l.178.081 5.3 2.28 31.829 13.747 36.341-27.284.534-.4 1.8-1.359 2.992 2.41 7.424 5.952 23.839 153.873s41.339 118.485 49 166.31c.307 1.908.566 3.687.76 5.353 5.035 43.581-101.515 44.39-101.515 44.39z" fill="#e1e7ef" transform="translate(-37.297 159.832)"/><g fill="#67647e"><circle cx="209.815" cy="532.591" r="3.073"/><circle cx="211.239" cy="560.619" r="3.073"/><circle cx="214.296" cy="606.017" r="3.073"/><circle cx="219.391" cy="654.893" r="3.073"/><circle cx="222.448" cy="700.809" r="3.073"/><circle cx="225.52" cy="749.701" r="3.073"/><circle cx="224.292" cy="798.075" r="3.073"/></g><path d="m207.906 583.437s-3.429 44.962-9.7 58.03-9.122 49.765-9.122 49.765l-14.556-1.617a31.762 31.762 0 0 1 -3.574-5.822l20.846-117.403 4.852-172.779 7.518-30.311 1.747-14.556a.42.42 0 0 1 .194-.081 5.9 5.9 0 0 1 5.208.081l.712.356c-.21.6-.42 1.213-.615 1.844-5.693 17.871-7.828 50.833-7.828 50.833s8.184 60.278 9.106 88.323-4.788 93.337-4.788 93.337z" opacity=".1" transform="translate(-37.229 164.598)"/><path d="m181.568 556.72a9.653 9.653 0 0 1 -.55 1.084c-5.677 9.591-20.071 15.688-24.454 17.354l-1.294-2.329 3.04-14.249 16.076-6.55a44.407 44.407 0 0 1 7.182 4.69z" opacity=".1" transform="translate(-46.908 290.489)"/><path d="m160.215 413.06-13.311 7.99-12.162 53.97s-15.187 45.8-3.493 78.505 18.5 51.35 18.5 51.35 4.674 37.2 11.677 40.191 10.06 4.674 10.06 4.674l1.391 8.879s19.02-6.469 25.748-17.791-4.949-39.641-4.949-39.641-10.044-24.066-7.472-35.274-5.143-40.66-5.143-41.355-.7-16.367 4.852-28.4 1.877-17.158 1.877-17.158l-3.51-34.352z" fill="#67647e" transform="translate(-64.469 204.699)"/><path d="m324.152 679.708s-35.274 13.327-46.5 1.618-10.044-66.31-10.044-66.31-10.736-100.938-17.529-117.516-3.235-136.228-3.235-136.228-4.593-15.445-8.523-19.537a3.993 3.993 0 0 0 -.841-.7l1.375.291 4.852 1.052 7.423 5.952 23.84 153.876s41.339 118.485 49 166.31z" opacity=".1" transform="translate(3.842 160.239)"/><path d="m333.088 556.2h-.4c-4.432.566-43.668 5.3-43.813-2.847a25.175 25.175 0 0 1 .162-2.83l36.341-3.72 7.2 7.408c.129.485.242.906.34 1.229z" opacity=".1" transform="translate(35.566 287.261)"/><path d="m295.551 379.63 25.8 13.44s21.4 55.572 24.907 79.411c0 0 15.882 63.836 4.852 90.085s-10.044 78.376-10.044 78.376-6.308 9.575-8.879 7 .938 10.044.938 10.044-44.04 5.855-44.25-2.814 10.108-50.008 10.108-50.008 2.8-98.366-1.181-113.779-2.251-111.755-2.251-111.755z" fill="#67647e" transform="translate(35.564 184.062)"/><path d="m253.434 444.41s-14.556 35.5-19.165 37.845.938 11.677.938 11.677 26.411-36.907 18.227-49.522z" opacity=".1" transform="translate(.729 224.053)"/><path d="m248.712 367.407c.162-.679-17.305 17.127-21.963 19.78s16.982-.146 21.963-19.78z" opacity=".1" transform="translate(-3.186 176.505)"/><path d="m218.954 442.67s-26.637 17.241-23.144 24.034 23.144-24.034 23.144-24.034z" opacity=".1" transform="translate(-22.078 222.978)"/><path d="m239.93 598.12s22.643 14.556 57.949 18.228z" opacity=".1" transform="translate(5.354 318.942)"/><path d="m206.27 619.79s21.03 26.395 30.616 27.11-30.616-27.11-30.616-27.11z" opacity=".1" transform="translate(-15.426 332.319)"/><path d="m234.156 683.79c-.938.469-11.92 23.823-23.128 24.535s23.128-24.535 23.128-24.535z" opacity=".1" transform="translate(-13.877 371.828)"/><path d="m284.72 715.682s20.831-4.658 25.457 10.286c0 0-1.391-4.674-25.457-10.286z" opacity=".1" transform="translate(33.004 391.092)"/><path d="m276.05 768.994s25.23-5.144 30.6 1.876-30.6-1.876-30.6-1.876z" opacity=".1" transform="translate(27.652 423.305)"/><path d="m241.322 775.67c0 .226-25.7 5.143-24.68 8.41s27.4 2.8 28.336-2.345a4.852 4.852 0 0 0 -3.655-6.065z" opacity=".1" transform="translate(-9.041 428.548)"/><path d="m270.85 789.955s42.212-5.143 39.56 3.736-39.56-3.736-39.56-3.736z" opacity=".1" transform="translate(24.441 436.452)"/><path d="m134.18 467.81c.243.7 27.8 4.431 31.538 13.311 0 0-27.09-12.615-31.3-12.615" opacity=".1" transform="translate(-59.928 238.498)"/><path d="m166.315 512.45s-22.9 7.246-21.284 18.227-2.312-5.126 21.284-18.227z" opacity=".1" transform="translate(-53.281 266.056)"/><path d="m151.56 550.5s8.345-11.451 16.287-9.348-16.287 9.348-16.287 9.348z" opacity=".1" transform="translate(-49.199 283.612)"/><path d="m265.888 284.664a13.364 13.364 0 0 1 -2.685 2.005c-6.647 3.849-8.426 9.7-11.613 16.61-2.911 6.259-6.13 12.939-12.033 16.432-7.6 4.577-17.629 2.895-25.537 6.906a19.909 19.909 0 0 0 -10.577 19.537 57.531 57.531 0 0 0 2.264 8.944 64.55 64.55 0 0 1 2.41 19.408 2.509 2.509 0 0 1 0 .6 53.986 53.986 0 1 1 57.836-90.457z" opacity=".1" transform="translate(-32.734 118.12)"/><path d="m274.739 280.381c-5.935-12.469-18.826-20.346-32.088-24.26-10.124-2.927-21.106-3.882-31.15-.663-5.725 1.828-10.949 4.852-16.3 7.634-10.011 5.062-21.025 9.057-28.546 17.37-1.747 1.925-3.364 4.415-2.846 6.971.388 1.908 1.876 3.364 2.83 5.062 2.151 3.785 1.617 8.556.146 12.68s-3.623 7.973-4.658 12.211-.631 9.2 2.507 12.227a56.8 56.8 0 0 0 4.723 3.364 25.451 25.451 0 0 1 4.48 5.095l8.911 12.178a122.931 122.931 0 0 1 11.16 17.176c2.232 4.415 3.946 9.138 6.906 13.084s7.6 7.116 12.518 6.68a2.378 2.378 0 0 0 1.973-.938 2.476 2.476 0 0 0 .259-1.245 63.667 63.667 0 0 0 -2.41-19.408 57.521 57.521 0 0 1 -2.264-8.944 19.925 19.925 0 0 1 10.577-19.537c7.925-3.995 17.952-2.313 25.554-6.89 5.9-3.574 9.122-10.189 12.033-16.448 3.235-6.841 4.965-12.761 11.612-16.61s7.356-10.239 4.073-16.789z" fill="#585268" transform="translate(-42.992 106.165)"/><path d="m216.61 815.58s8.216 10.513 6.113 16.464-6.113-16.464-6.113-16.464z" opacity=".1" transform="translate(-9.043 453.186)"/><path d="m285.68 837.333s1.828-14.1 9.186-14.233 7.715-.76 13.327 1.391 10.869 5.515 9.2 6.033-9.7-8.086-17.791-3.7a58.943 58.943 0 0 0 -13.925 10.512z" opacity=".1" transform="translate(33.596 457.714)"/><path d="m209.627 382.063 23.031-16.173s-33.818-19.99-37.845-17.176-6.793 28.044-6.793 28.044z" opacity=".1" transform="translate(-26.691 164.809)"/><path d="m209.53 381.56 23.128-16.56s-33.818-19.974-37.845-17.176-6.793 29.452-6.793 29.452z" fill="#e1e7ef" transform="translate(-26.691 164.261)"/><path d="m209.53 381.56 23.128-16.56s-33.818-19.974-37.845-17.176-6.793 29.452-6.793 29.452z" opacity=".03" transform="translate(-26.691 164.261)"/><path d="m228.8 348.225-.7-.356a5.968 5.968 0 0 0 -6.469.679l-69.351 56.267s-15.074 20.847-12.939 56.833l40.894 57.952s4.674-19.635 10.286-15.9c0 0 7.941 100.468 0 114.959s-11.451 68.688-11.451 68.688l26.864 3.04s2.8-36.681 9.106-49.765 9.7-58.046 9.7-58.046 5.677-65.324 4.739-93.384-9.106-88.306-9.106-88.306 2.285-35.323 8.427-52.661z" fill="#67647e" transform="translate(-56.865 164.053)"/><path d="m248.285 376.362-28.8-10.674s36.7-40.175 41.258-17.888z" opacity=".1" transform="translate(-7.271 160.256)"/><path d="m248.285 375.471-28.8-10.658s36.7-40.19 41.258-17.9z" fill="#e1e7ef" transform="translate(-7.271 159.707)"/><path d="m248.285 375.471-28.8-10.658s36.7-40.19 41.258-17.9z" opacity=".03" transform="translate(-7.271 159.707)"/><path d="m236.72 340.9a1.62 1.62 0 0 1 1.181.243z" opacity=".1" transform="translate(3.373 160.137)"/><path d="m238.45 339.161 76.467 16.5s21.025 4.674 36.212 57.464-20.8 117.5-20.8 117.5l-7.941-6.744 3.979 154.212s-35.29 13.311-46.5 1.618-10.06-66.31-10.06-66.31-10.739-100.97-17.532-117.6-3.234-136.227-3.234-136.227-6.321-21.335-10.591-20.413z" fill="#67647e" transform="translate(4.439 159.061)"/><path d="m282.065 400.182c-1.084 1-2.329 47.663 2.345 83.179a453.069 453.069 0 0 0 13.246 64.014l-6.939-142.325s-5.386-7.957-8.652-4.868z" opacity=".1" transform="translate(30.742 196.31)"/><path d="m275.9 375.06c1.876 1.165 10.06 20.556 6.307 28.514s-6.307-28.514-6.307-28.514z" opacity=".1" transform="translate(27.559 181.241)"/><path d="m258.523 276.816a42.048 42.048 0 0 0 -16.8-17.6 39.9 39.9 0 0 1 12.6 14.8c3.235 6.55 2.329 13.117-4.092 16.836s-8.426 9.7-11.6 16.61c-2.911 6.259-6.146 12.939-12.049 16.432-7.6 4.593-17.613 2.911-25.538 6.89a19.942 19.942 0 0 0 -10.577 19.554 55.733 55.733 0 0 0 2.264 8.944 63.516 63.516 0 0 1 2.394 19.408 2.491 2.491 0 0 1 -.243 1.245 2.379 2.379 0 0 1 -1.973.938 11.324 11.324 0 0 1 -5.758-1.068 13.406 13.406 0 0 0 9.963 3.865 2.377 2.377 0 0 0 1.973-.938 2.653 2.653 0 0 0 .259-1.245 64.164 64.164 0 0 0 -2.41-19.408 55.741 55.741 0 0 1 -2.264-8.944 19.926 19.926 0 0 1 10.576-19.535c7.925-3.995 17.936-2.313 25.537-6.89 5.9-3.574 9.138-10.189 12.049-16.448 3.235-6.841 4.949-12.761 11.6-16.61s7.356-10.285 4.089-16.836z" opacity=".1" transform="translate(-27.229 109.729)"/><ellipse cx="1565.943" cy="1231.939" fill="#001f40" opacity=".1" rx="66.31" ry="9.106"/><ellipse cx="1046.119" cy="1317.382" fill="#001f40" opacity=".1" rx="47.129" ry="6.469"/><ellipse cx="624.418" cy="1269.428" fill="#001f40" opacity=".1" rx="47.129" ry="6.469"/><path d="m513.355 818.329a18.824 18.824 0 0 0 6.194-9.365c.809-3.7-.776-8.167-4.334-9.526-3.979-1.52-8.232 1.246-11.451 4.027s-6.922 5.968-11.127 5.37a16.982 16.982 0 0 0 5.24-15.866 6.812 6.812 0 0 0 -1.455-3.235c-2.216-2.362-6.227-1.342-8.863.517-8.41 5.9-10.755 17.338-10.8 27.608-.841-3.7-.129-7.569-.162-11.321s-1.051-8.087-4.27-10.06a12.935 12.935 0 0 0 -6.469-1.617c-3.768-.146-7.99.243-10.561 3.008-3.235 3.429-2.378 9.186.4 12.939s7.035 6.162 10.949 8.766a24.258 24.258 0 0 1 7.812 7.456 6.721 6.721 0 0 1 .582 1.343h23.71a66.715 66.715 0 0 0 14.6-10.044z" fill="#001f40" transform="translate(137.02 436.382)"/><path d="m1096.066 797.229a18.943 18.943 0 0 0 6.259-9.364c.809-3.7-.776-8.087-4.334-9.526-3.979-1.52-8.232 1.245-11.451 4.027s-6.922 5.968-11.144 5.369a16.9 16.9 0 0 0 5.24-15.866 6.468 6.468 0 0 0 -1.455-3.234c-2.2-2.362-6.211-1.343-8.847.517-8.41 5.9-10.755 17.337-10.8 27.608-.857-3.7-.129-7.569-.162-11.322s-1.067-8.086-4.269-10.06a12.941 12.941 0 0 0 -6.47-1.617c-3.784-.146-7.989.243-10.578 3.008-3.234 3.429-2.377 9.187.421 12.939s7.035 6.162 10.949 8.766a24.259 24.259 0 0 1 7.812 7.455 7.79 7.79 0 0 1 .582 1.343h23.694a66.436 66.436 0 0 0 14.553-10.043z" fill="#001f40" transform="translate(496.773 423.356)"/><path d="m765.954 843.979a18.967 18.967 0 0 0 6.21-9.364c.793-3.72-.792-8.086-4.334-9.526-3.978-1.52-8.232 1.229-11.45 4.027s-6.922 5.952-11.143 5.37a16.932 16.932 0 0 0 5.24-15.866 6.638 6.638 0 0 0 -1.455-3.235c-2.216-2.362-6.211-1.343-8.863.517-8.41 5.92-10.755 17.338-10.8 27.624-.841-3.7-.129-7.57-.145-11.322s-1.067-8.087-4.27-10.06a13.051 13.051 0 0 0 -6.469-1.617c-3.784-.129-7.989.243-10.577 3.009-3.234 3.444-2.377 9.2.421 12.938s7.036 6.146 10.933 8.766a24.255 24.255 0 0 1 7.893 7.569 8.217 8.217 0 0 1 .583 1.326h23.672a65.888 65.888 0 0 0 14.556-10.157z" fill="#001f40" transform="translate(292.957 452.216)"/><path d="m1151.411 442.776c-21.219-.42-39.948-15.461-50.558-33.7a33.979 33.979 0 0 1 -5.111-14.427 17.019 17.019 0 0 1 .582-3.461 33.917 33.917 0 0 0 1.617-5.273 8.781 8.781 0 0 0 0-2.167v-.1c.518-3.914-1.779-7.682-4.657-10.383s-6.388-4.658-9.348-7.262c-9.122-8.006-11.887-20.847-12.065-33.074v-.647c.1-5.224.518-10.48.469-15.72a65.617 65.617 0 0 0 -.388-8.912c-.873-7.407-3.687-14.944-9.51-19.667-15.187-12.308-40.724.5-56.429-11.143-3.833-2.83-6.922-7.052-11.548-8.087-3.51-.841-7.149.291-10.561 1.423-11.58 3.817-24.487 8.847-29.014 20.1-2.588 6.469-1.86 13.731-4.238 20.233-1.617 4.351-4.48 8.087-6.615 12.227a19.131 19.131 0 0 0 -2.475 10.205 11.74 11.74 0 0 0 .76 5.435 13.684 13.684 0 0 0 3.753 5.354 17.806 17.806 0 0 1 -2.265 3.59c-2.96 3.623-7.5 6.211-10.578 9.7-5.693 6.6-5.482 15.575-2.668 23.338s7.86 14.831 11.321 22.384c1.5 3.235 2.718 6.954 1.148 10.221-1.083 2.265-3.348 3.979-5.111 5.936a18.7 18.7 0 0 0 -4.625 10.383c-34.659 7.909-34.676 35.743-34.676 35.743l-18.7 47.129s-2.992 7.925-6.469 18.389l-22.152-3.957 15.3 25.78c-2.927 10.5-4.981 20.233-4.3 25.117 0 0-6.873 32.347 5.354 37.991l27.006 12.146a14.915 14.915 0 0 0 3.736 1.617l1.1.485a2.864 2.864 0 0 0 2.523 0h.437a3.433 3.433 0 0 0 1.618-.227 2.913 2.913 0 0 0 1.342-1.472.582.582 0 0 0 0-.146l8.087-2.345 6.858 8.087c3.089 2.167 6.113 4.059 9.073 5.758l-10.545 105.45s-1.715 140.157-6.874 172.067c-1.924 11.823-1.941 19.877-1.213 25.36l-.194.356c1.278 9.009 4.594 10.788 4.594 10.788v-.13l.195.13a91.432 91.432 0 0 1 5.547-11.887v2.3c-.1 11.9-.469 28.546-1.617 39.366-2.1 18.405 5.353 79.378 5.353 79.378l2.571 55.474a51.3 51.3 0 0 1 -6.308 27.009c-6.1 11.079-14.039 26.654-14.556 33.56a8.937 8.937 0 0 0 0 1.132l-13.521 15.737s-5.176 7.974 6.469 11.192c6.259 1.747 17.079 0 25.748-2.054a17.208 17.208 0 0 0 13.359-16.739 59.22 59.22 0 0 1 11.03-20.912l2.183 12.761 14.556 3.607 1.86-34.983a15.319 15.319 0 0 0 1-6.178c2.863-24.875-6.745-22.643-6.745-22.643a1.614 1.614 0 0 1 .469.873c-.162-.275-.324-.566-.469-.857-5.9-11.645-3.008-30.729-3.008-30.729s7.65-55.442 10.334-70.079c1.893-10.335 1.116-44.2.485-63.172a20.446 20.446 0 0 0 -.08-2.281c22.529-.291 50.137-1.067 69.545-2.943v2.3l-3.59 131a72.029 72.029 0 0 1 -5 24.357c0 .146-.129.291-.177.437a106.267 106.267 0 0 0 -7.246 34.271l-1.618 41.63v1.148c-2.895 1.116-7.456 4.335-7.585 13.667-.194 13.666 23.888 9.105 23.888 9.105 24.082 0 24.26-25.069 24.26-25.069s.776-22.982 1.909-38.363-3.623-11.984-3.623-11.984l-.356 43.668v-38.008l.372-5.563v-.162l.082-1.181 2.992-45.123s22.173-75.206 25.618-89.632c2.442-10.238 1.424-41.128.615-58.224a17.2 17.2 0 0 0 -.1-2.264c6.857-.615 12.939-.679 15.381-.679h1.116s-1.148-120.782-4.011-166.358-7.456-87.174-18.939-99.708c-6.922-7.569-16.578-30.955-23.144-48.277a242.864 242.864 0 0 0 42.455 13.909c36.325 7.6 31.359-23.937 31.359-23.937l-3.687-59.631h.243a302.872 302.872 0 0 0 -4.011-46.628c-1.908-11.822-4.852-24.049-9.348-33.964 3.946-1.5 7.828-3.234 11.645-4.852 9.866-4.35 21.026-10.529 22.417-21.171h-.486a14.865 14.865 0 0 0 .372-2.264zm-225.164 86.268c.1 6.162-.146 16.836-.5 28.659l-11.532-15.4 11.564-18.761zm159.405 54.52-19.214-6.178a86.767 86.767 0 0 1 11.871-14.685l1.618-1.617-.6.13.938-.841.55-.129-.89.841 1.052-.21a32.841 32.841 0 0 0 6.55 13.165c6.857 7.634-1.941 9.526-1.941 9.526z" fill="url(#c)" transform="translate(382.77 115.434)"/><path d="m843.208 774.95-2.264 42.6-14.329-3.575-3.025-17.725z" fill="#a27772" transform="translate(508.424 478.37)"/><path d="m843.208 774.95-2.264 42.6-14.329-3.575-3.025-17.725z" opacity=".1" transform="translate(508.424 478.37)"/><path d="m956.51 939.63 21.866 4.528 16.174-14.329v-40.352l.355-5.515v-.162l.081-1.164 2.943-44.8s21.866-74.671 25.262-88.953c2.41-10.173 1.407-40.854.615-57.8-.324-6.955-.615-11.6-.615-11.6l-48.26-11.693-1.019 37.2-3.525 130.033a71.751 71.751 0 0 1 -4.949 24.179l-.161.437a105.57 105.57 0 0 0 -7 34.077l-1.617 41.323v1.148z" fill="#cc818c" transform="translate(447.717 361.951)"/><path d="m980.29 800.646v1.149l.081-1.164z" opacity=".1" transform="translate(462.398 443.956)"/><path d="m956.51 840.92 21.866 4.529 16.174-14.33v-3.429a4.6 4.6 0 0 1 -2.33 3.7l-.226.129a43.494 43.494 0 0 1 -24.551 4.852l-8.54-.728a8.96 8.96 0 0 0 -2.248.55v1.148z" opacity=".1" transform="translate(447.717 460.661)"/><path d="m994.852 849.04.226-.129a4.578 4.578 0 0 0 2.346-4.011l.355-43.442s4.723-3.347 3.591 11.92-1.893 38.088-1.893 38.088-.178 24.891-23.937 24.891c0 0-23.758 4.512-23.581-9.057s9.817-14.135 9.817-14.135l8.523.744a43.666 43.666 0 0 0 24.553-4.869z" fill="#b07473" transform="translate(444.908 444.276)"/><path d="m886.109 924.987c.566 9.8 29.4 4.141 29.4 4.141l19.407-37.7s16.173-12.453 8.087-23.386a16.521 16.521 0 0 1 -1.2-1.86v-.1c-.178-.292-.324-.583-.485-.89-5.823-11.548-2.96-30.487-2.96-30.487s7.537-54.989 10.189-69.545c1.86-10.27 1.1-43.894.469-62.72-.242-7.812-.469-13.084-.469-13.084l-47.899-12.806v14.281c-.1 11.807-.453 28.336-1.616 39.074-2.071 18.292 5.288 78.813 5.288 78.813l2.539 55.086a51.1 51.1 0 0 1 -6.356 26.735c-6.017 11-13.844 26.475-14.395 33.333a6.5 6.5 0 0 0 .001 1.115z" fill="#cc818c" transform="translate(404.242 367.358)"/><path d="m886.1 852.606c.566 9.8 29.4 4.14 29.4 4.14l19.408-37.7s16.176-12.453 8.092-23.386a16.783 16.783 0 0 1 -1.2-1.86c-.259 5.709-6.469 19.958-6.469 19.958s-16.027 32.071-21.025 39.414-27.252-1.358-28.077-1.617a6.476 6.476 0 0 0 -.129 1.051z" opacity=".1" transform="translate(404.252 439.74)"/><path d="m946.763 793.189s9.478-2.2 6.663 22.5a15.931 15.931 0 0 1 -7.52 14.12c-6.777 4.269-17.257 13.44-22.545 31.279a17.079 17.079 0 0 1 -13.161 16.638c-8.555 1.99-19.23 3.752-25.408 2.022-11.5-3.235-6.469-11.111-6.469-11.111l13.2-15.656s23 9.057 28.093 1.7 21.026-39.415 21.026-39.415 9-20.007 6.121-22.077z" fill="#b07473" transform="translate(398.771 439.332)"/><path d="m968.328 670.56-1.018 37.2c12.938-1.245 22.06-2.992 23.645-5.434 3.381-5.257 15.737-7.489 26.249-8.394-.323-6.955-.614-11.6-.614-11.6z" opacity=".1" transform="translate(454.385 363.661)"/><path d="m895.06 693.591a17.9 17.9 0 0 1 5.288-6.372c5.095-2.83 4.544 18.1 4.544 18.1s16.9.162 38.557-.113c-.243-7.828-.469-13.084-.469-13.084l-47.904-12.812s.064 5.968-.016 14.281z" opacity=".1" transform="translate(409.783 369.062)"/><path d="m893.62 824.661s5.661-15.316 10.739-18.13 4.545 18.1 4.545 18.1 124.437 1.132 130.664-8.491 42.422-9.041 42.422-9.041-1.132-119.925-3.962-165.177-7.359-86.543-18.664-98.981c-7.326-8.087-17.791-34.109-24.162-51.479-3.51-9.494-5.823-16.4-5.823-16.4l-118.779 6.791-.97 9.607-12.613 126.151s-1.617 139.089-6.793 170.822 3.396 36.228 3.396 36.228z" fill="#444053" transform="translate(405.771 242.973)"/><g opacity=".1" transform="translate(1294.621 718.114)"><path d="m1019.565 816.188c6.211-9.607 42.422-9.041 42.422-9.041s-1.132-119.925-3.962-165.177-7.359-86.543-18.664-98.98c-7.327-8.087-17.79-34.11-24.163-51.48-2.943-7.973-5.046-14.119-5.645-15.882l9.219-.517s2.313 6.906 5.822 16.4c6.47 17.37 16.836 43.426 24.163 51.48 11.322 12.437 15.834 53.727 18.665 98.98s3.9 165.1 3.9 165.1-36.2-.582-42.406 9.122c-5.321 8.216-96.894 8.588-123.483 8.524 34.09-.168 109.28-1.186 114.132-8.529z" transform="translate(-878.437 -475.11)"/><path d="m894.611 680.1c2.3-1.277 3.445 2.264 4.011 6.469a91.557 91.557 0 0 0 -5.354 11.58s-3.236-1.763-4.529-10.707c1.796-3.185 3.883-6.225 5.872-7.342z" transform="translate(-888.74 -348.727)"/></g><path d="m923.419 302.167c-8.216 11.224.1 27.155-8.717 38.056-2.911 3.607-7.392 6.178-10.432 9.7-5.628 6.567-5.4 15.462-2.636 23.177s7.763 14.718 11.193 22.222c1.487 3.235 2.684 6.906 1.148 10.141-1.068 2.248-3.235 3.946-5.047 5.9-5.661 6.324-5.822 15.122-2.781 22.562s8.879 13.893 14.556 20.168c2.264 2.491 5.127 5.224 8.895 5.16a12.537 12.537 0 0 0 5.6-1.844 58.935 58.935 0 0 0 28.417-33.4 59.566 59.566 0 0 0 -2.426-41c-4.852-11.435-12.744-22.4-12.809-34.5 0-9.591 4.933-18.745 5.806-28.3 1.067-11.6-5.806-30.034-19.812-35.1.916 7.499-6.718 11.365-10.955 17.058z" fill="#585268" transform="translate(412.67 125.719)"/><path d="m923.419 302.167c-8.216 11.224.1 27.155-8.717 38.056-2.911 3.607-7.392 6.178-10.432 9.7-5.628 6.567-5.4 15.462-2.636 23.177s7.763 14.718 11.193 22.222c1.487 3.235 2.684 6.906 1.148 10.141-1.068 2.248-3.235 3.946-5.047 5.9-5.661 6.324-5.822 15.122-2.781 22.562s8.879 13.893 14.556 20.168c2.264 2.491 5.127 5.224 8.895 5.16a12.537 12.537 0 0 0 5.6-1.844 58.935 58.935 0 0 0 28.417-33.4 59.566 59.566 0 0 0 -2.426-41c-4.852-11.435-12.744-22.4-12.809-34.5 0-9.591 4.933-18.745 5.806-28.3 1.067-11.6-5.806-30.034-19.812-35.1.916 7.499-6.718 11.365-10.955 17.058z" opacity=".1" transform="translate(412.67 125.719)"/><path d="m1005.21 547.78c-16.464.874-31.958 7.941-46.368 15.947s-28.352 17.144-43.862 22.773" opacity=".1" transform="translate(422.08 287.865)"/><path d="m993.943 571.76a68.074 68.074 0 0 0 -42.762 20.783c-3.995 4.238-7.44 8.992-11.613 13.052a51.755 51.755 0 0 1 -22.918 12.939" opacity=".1" transform="translate(423.111 302.669)"/><path d="m1002.095 590a74.729 74.729 0 0 0 -34.368 20.718c-2.523 2.717-4.852 5.645-7.343 8.345-13.634 14.556-32.88 22.4-51.464 29.743" opacity=".1" transform="translate(418.34 313.929)"/><path d="m990.594 337.212a339.072 339.072 0 0 0 3.4 39.3c1.52 9.283 3.687 17.548 6.792 21.219 9.041 10.755-44.121 25.182-44.121 25.182l-31.392-24.26s24.891-22.917 13.294-45.285 52.027-16.156 52.027-16.156z" fill="#cc818c" transform="translate(428.432 157.388)"/><path d="m901.59 491.46h125.569c-3.51-9.494-5.823-16.4-5.823-16.4l-118.776 6.793z" opacity=".1" transform="translate(413.814 242.974)"/><path d="m905.942 557.33h134.238c-3.768-13.489 0-25.991 5.386-35.581a78.588 78.588 0 0 1 14.054-18.249l.922-.825 46.9-10.4 2.523-.55s.372-85.217-29.791-96.91-48.277-27.495-48.277-27.495l-41.469 12.809-30.547-15.439c-9.8 10.561-35.824 6.469-35.824 6.469-42.616 4.852-42.616 36.956-42.616 36.956s24.89 58.078 26.783 58.078-2.282 91.137-2.282 91.137z" fill="#67647e" transform="translate(401.375 174.839)"/><path d="m939.258 456.664s-27.382-6.065-36.7-16.674" opacity=".1" transform="translate(414.412 221.324)"/><path d="m1022.7 430.64-31.7 26.023a52.733 52.733 0 0 0 1.052 6.113l.921-.825 46.9-10.4z" opacity=".1" transform="translate(469.01 215.552)"/><path d="m957.44 492.322s6.955 3.914 17.6 9.041h18.24c-3.769-13.488 0-25.99 5.386-35.581l-32.233-10.432c10.997 10.189-8.993 36.972-8.993 36.972z" opacity=".1" transform="translate(448.293 230.806)"/><path d="m914.692 385.18-18.858 10.173-18.486 46.757s-19.23 51.285-17.354 64.871c0 0-6.777 32.039 5.289 37.7l31.473 14.233a2.911 2.911 0 0 0 3.769-4.027c-4.48-8.491-9.4-21.753-1.617-29.112l-9.057-18.842 32.783-53.5 10.917-18.405z" fill="#67647e" transform="translate(386.965 187.488)"/><path d="m919.073 448.585c1.617 6.663 7.148 16.9 25.392 20.766l20.087 16.4 21.3 9.7 8.669 3.93 3.687-26.589-8.361-4.577-9.7-5.321s-21.979-39.851-56.8-23.014a7.715 7.715 0 0 0 -4.274 8.705z" opacity=".1" transform="translate(424.488 218.697)"/><path d="m919.782 447.176c1.617 6.663 7.148 16.9 25.392 20.767l20.087 16.416 21.3 9.7 8.669 3.93 3.688-26.589-8.362-4.561-9.7-5.337s-21.979-39.835-56.8-23.014a7.714 7.714 0 0 0 -4.274 8.688z" fill="#cc818c" transform="translate(424.928 217.841)"/><circle cx="1383.946" cy="480.464" opacity=".1" r="48.649"/><circle cx="1383.946" cy="479.332" fill="#cc818c" r="48.649"/><path d="m968.156 410.7-14.556-28.436s21.414-8.637 22.967-18.664 20.508 11.742 16.4 18.955-24.811 28.145-24.811 28.145z" opacity=".1" transform="translate(445.922 172.565)"/><path d="m968.156 409.3-14.556-28.436s21.414-8.637 22.967-18.664 20.508 11.758 16.4 18.955-24.811 28.145-24.811 28.145z" fill="#67647e" transform="translate(445.922 171.701)"/><path d="m910.87 439.736 80.866 108.664s-29.791 16.173-70.9-12.825l-17.791-21.106-50.545-85.229z" fill="#f6f8fb" transform="translate(383.51 214.687)"/><path d="m879.5 482.951 7.359-.194s44.961-43.668 55.991-21.575-28 42.7-28 42.7l-11.871 6.469-15.559 4.528-9.9-13.294z" fill="#cc818c" transform="translate(398.961 230.554)"/><path d="m894.239 497.581c.679 2.507 1.326 5.273.194 7.6a2.881 2.881 0 0 1 -1.342 1.456 3.234 3.234 0 0 1 -1.617.226 15.446 15.446 0 0 1 -10.141-5.03 45.748 45.748 0 0 1 -6.583-9.51c-2.006-3.477-4.092-7.359-3.364-11.321.793-4.334 4.658-7.343 8.346-9.7 7.456-4.933 7.634.808 9.332 7.149z" opacity=".1" transform="translate(395.078 239.504)"/><path d="m893.539 497.581c.679 2.507 1.326 5.273.194 7.6a2.883 2.883 0 0 1 -1.343 1.456 3.236 3.236 0 0 1 -1.618.226 15.447 15.447 0 0 1 -10.14-5.03 45.775 45.775 0 0 1 -6.582-9.51c-2.006-3.477-4.092-7.359-3.364-11.321.792-4.334 4.658-7.343 8.345-9.7 7.456-4.933 7.634.808 9.332 7.149z" fill="#67647e" transform="translate(394.645 239.504)"/><path d="m809.72 398.726 3.768-6.356-3.3 11.807z" opacity=".1" transform="translate(499.861 242.193)"/><path d="m961 481.619 8.669 3.93 3.688-26.589-8.362-4.561c5.705 6.567.712 18.762-3.995 27.22z" opacity=".1" transform="translate(450.49 230.22)"/><path d="m997.727 454.416s-28 1.7-39.867-5.936" opacity=".1" transform="translate(448.551 226.565)"/><g opacity=".1" transform="translate(1323.621 541.793)"><path d="m985.107 522.145a78.99 78.99 0 0 1 14.07-18.243 38.916 38.916 0 0 1 4.141-2.264l43.667-8.96 2.524-.55s.388-85.217-29.792-96.91a182.21 182.21 0 0 1 -47.048-26.508l3.316-1.019s18.1 15.834 48.261 27.495 29.823 96.943 29.823 96.943h-4.529l-44.7 8.556-2.523 2.41a86.218 86.218 0 0 0 -14.281 18.874 47.372 47.372 0 0 0 -3.736 35.775h-4.625c-3.722-13.491.111-25.993 5.432-35.599z" transform="translate(-865.926 -365.102)"/><path d="m906.67 370.311c.728-.1 1.423-.21 2.167-.291a79.63 79.63 0 0 0 9.235.76 83.218 83.218 0 0 1 -11.402-.469z" transform="translate(-906.67 -363.664)"/><path d="m956.793 381.487-27.623-13.925a15.557 15.557 0 0 0 1.617-1.472l28.821 14.556z" transform="translate(-892.78 -366.09)"/></g><path d="m1044.117 429.24 18.486 22.643 3.768 61.458s4.852 31.3-30.923 23.759-77.308-30.923-77.308-30.923 19.99-26.783 9.057-36.956l51.285 16.594s8.669-1.892 1.876-9.429-7.99-21.122-7.99-21.122z" fill="#67647e" transform="translate(448.725 214.687)"/><path d="m1016.43 469.35 10.189 11.677a14.67 14.67 0 0 1 -10.189-11.677z" opacity=".1" transform="translate(484.707 239.448)"/><path d="m917.44 437.1 15.834 20.362-7.909 1.892z" opacity=".1" transform="translate(566.359 269.806)"/><path d="m908.369 339.288c-1.747-4.254-.42-9.17 1.618-13.262s4.965-7.812 6.469-12.146c2.345-6.469 1.617-13.715 4.173-20.087 4.48-11.16 17.208-16.173 28.627-19.942 3.364-1.116 6.954-2.248 10.416-1.423 4.561 1.1 7.617 5.289 11.321 8.087 15.494 11.548 40.676-1.165 55.652 11.062 5.742 4.674 8.523 12.179 9.38 19.521s0 14.8-.081 22.206c-.243 12.938 2.167 27.139 11.887 35.727 2.927 2.588 6.372 4.545 9.219 7.213s5.095 6.469 4.594 10.3a35.027 35.027 0 0 1 -1.617 5.224c-1.941 6.76.938 13.925 4.448 20.023 10.48 18.114 28.934 33.042 49.878 33.462-1.407 10.561-12.372 16.691-22.109 21.025-12.4 5.515-25.44 10.933-38.994 10.238s-27.689-9.365-30.1-22.643c-.825-4.577-.711-10.189-4.69-12.6-2.394-1.456-5.5-1.084-8.087-2.183-3.736-1.617-5.6-5.725-6.825-9.607a86.672 86.672 0 0 1 -4.027-24.648c-.161-9.914 1.165-20.734-4.463-28.9-5.208-7.553-14.459-11.321-20.459-18.341-5.531-6.469-11.564-14.2-20.637-15.429-12.195-1.765-38.169 15.302-45.593-2.877z" opacity=".1" transform="translate(417.498 117.708)"/><path d="m908.369 337.888c-1.747-4.253-.42-9.17 1.618-13.262s4.965-7.812 6.469-12.146c2.345-6.469 1.617-13.715 4.173-20.087 4.48-11.16 17.208-16.173 28.627-19.942 3.364-1.116 6.954-2.248 10.416-1.423 4.561 1.1 7.617 5.289 11.321 8.087 15.494 11.564 40.676-1.165 55.652 11.062 5.742 4.69 8.523 12.178 9.38 19.521s0 14.8-.081 22.206c-.243 12.939 2.167 27.139 11.887 35.727 2.927 2.588 6.372 4.545 9.219 7.213s5.095 6.469 4.594 10.3a35.85 35.85 0 0 1 -1.617 5.24c-1.941 6.744.938 13.925 4.448 20.006 10.48 18.114 28.934 33.042 49.878 33.463-1.407 10.561-12.372 16.691-22.109 21.025-12.4 5.531-25.44 10.933-38.994 10.238s-27.689-9.364-30.1-22.724c-.825-4.577-.711-10.189-4.69-12.6-2.394-1.456-5.5-1.084-8.087-2.183-3.736-1.617-5.6-5.725-6.825-9.607a86.674 86.674 0 0 1 -4.027-24.648c-.161-9.914 1.165-20.734-4.463-28.9-5.208-7.553-14.459-11.321-20.459-18.34-5.531-6.469-11.564-14.2-20.637-15.43-12.195-1.599-38.169 15.383-45.593-2.796z" fill="#585268" transform="translate(417.498 116.844)"/><path d="m933.04 406.642 27.883-22.642s-19.084-10.351-21.365-19.181-17.548 4.189-16 12.114 9.482 29.709 9.482 29.709z" opacity=".1" transform="translate(427.311 173.094)"/><path d="m933.74 404.542 27.882-22.642s-19.084-10.351-21.365-19.181-17.548 4.188-16 12.114 9.483 29.709 9.483 29.709z" fill="#67647e" transform="translate(427.742 171.797)"/><circle cx="1390.448" cy="572.653" opacity=".1" r="2.216"/><circle cx="1390.448" cy="584.976" opacity=".1" r="2.216"/><circle cx="1390.448" cy="597.284" opacity=".1" r="2.216"/><g opacity=".1" transform="translate(1325.371 404.353)"><path d="m916.105 300.065c2.2-6.065 1.73-12.858 3.784-18.955a21.962 21.962 0 0 0 -2.345 4.334c-2.556 6.372-1.844 13.65-4.173 20.1 0 .113-.114.243-.162.372a35.751 35.751 0 0 0 2.896-5.851z" transform="translate(-904.383 -281.11)"/><path d="m1095.423 439.563c-12.4 5.531-25.44 10.933-39.01 10.238s-27.672-9.364-30.082-22.723c-.825-4.577-.712-10.189-4.691-12.6-2.394-1.455-5.5-1.083-8.087-2.183-3.752-1.617-5.6-5.725-6.825-9.607a86.658 86.658 0 0 1 -4.027-24.68c-.162-9.914 1.148-20.734-4.464-28.9-5.208-7.553-14.459-11.321-20.459-18.34-5.547-6.469-11.564-14.2-20.654-15.429-12.453-1.617-38.444 15.365-45.851-2.814a14.28 14.28 0 0 1 .469-10.513c-.534.906-1.052 1.811-1.521 2.733-2.1 4.092-3.428 9.009-1.617 13.262 7.424 18.179 33.4 1.116 45.867 2.814 9.073 1.229 15.106 9.008 20.653 15.429 6 6.955 15.235 10.788 20.443 18.357 5.628 8.087 4.318 18.987 4.479 28.885a86.319 86.319 0 0 0 4.011 24.664c1.229 3.865 3.089 8.087 6.825 9.607 2.588 1.083 5.693.728 8.087 2.183 3.962 2.394 3.866 8.087 4.674 12.583 2.41 13.359 16.546 22.044 30.1 22.739s26.6-4.722 38.993-10.254c8.928-3.962 18.875-9.478 21.543-18.5-4.332 5.933-11.902 9.96-18.856 13.049z" transform="translate(-907.753 -268.208)"/></g></svg>