<svg id="freepik--Wallet--inject-17" xmlns="http://www.w3.org/2000/svg" width="203.935" height="218.82" viewBox="0 0 203.935 218.82">
  <rect id="Retângulo_3384" data-name="Retângulo 3384" width="151.999" height="73.209" transform="translate(4.01 17.685) rotate(-6.66)" fill="#f27d00"/>
  <rect id="Retângulo_3385" data-name="Retângulo 3385" width="151.999" height="73.209" transform="translate(4.01 17.685) rotate(-6.66)" opacity="0.1"/>
  <path id="Caminho_13831" data-name="Caminho 13831" d="M327.392,132l-4.568.538L181,149.144l-4.582.531.538,4.575,7.429,63.564.538,4.582,4.568-.538,141.83-16.578,4.568-.531h0L327.406,132Zm3.4,68.691-141.83,16.585-7.421-63.564,141.816-16.564Z" transform="translate(-172.405 -132)" opacity="0.1"/>
  <ellipse id="Elipse_1383" data-name="Elipse 1383" cx="21.287" cy="24.828" rx="21.287" ry="24.828" transform="translate(59.828 23.925) rotate(-6.66)" opacity="0.1"/>
  <path id="Caminho_13832" data-name="Caminho 13832" d="M234.527,198.573a5.7,5.7,0,1,1-6.324-5A5.7,5.7,0,0,1,234.527,198.573Z" transform="translate(-186.047 -149.958)" opacity="0.1"/>
  <path id="Caminho_13833" data-name="Caminho 13833" d="M349.917,185.091a5.7,5.7,0,1,1-6.331-5.007A5.7,5.7,0,0,1,349.917,185.091Z" transform="translate(-219.722 -146.021)" opacity="0.1"/>
  <path id="Caminho_13834" data-name="Caminho 13834" d="M203.762,247.051l-10.12,1.176-1.183-10.105A10.183,10.183,0,0,1,203.762,247.051Z" transform="translate(-177.086 -162.95)" opacity="0.1"/>
  <path id="Caminho_13835" data-name="Caminho 13835" d="M389.025,214.74l1.183,10.1L380.1,226.021A10.183,10.183,0,0,1,389.025,214.74Z" transform="translate(-231.828 -156.147)" opacity="0.1"/>
  <path id="Caminho_13836" data-name="Caminho 13836" d="M369.63,140.443l10.112-1.183,1.183,10.105a10.176,10.176,0,0,1-11.3-8.923Z" transform="translate(-228.792 -134.119)" opacity="0.1"/>
  <path id="Caminho_13837" data-name="Caminho 13837" d="M184.823,172.288l-1.183-10.12L193.745,161A10.183,10.183,0,0,1,184.823,172.288Z" transform="translate(-174.512 -140.463)" opacity="0.1"/>
  <path id="Caminho_13838" data-name="Caminho 13838" d="M282.824,170.767a1.034,1.034,0,0,1,1.14.9l.2,1.7a13.936,13.936,0,0,1,7.917,2.089,1.2,1.2,0,0,1,.708.914,1.091,1.091,0,0,1-.977,1.19,1.048,1.048,0,0,1-.8-.205,12.152,12.152,0,0,0-6.706-2.018l1.416,11.9c6.621.6,9.624,2.712,10.112,6.876.524,4.511-2.882,8.144-8.179,8.93l.382,3.321A1.027,1.027,0,0,1,286,206.6l-.389-3.357a16.046,16.046,0,0,1-10.049-3.01,1.1,1.1,0,0,1-.574-.836,1.119,1.119,0,0,1,.942-1.19,1.1,1.1,0,0,1,.8.212,13.788,13.788,0,0,0,8.739,2.9L284.049,189.2c-6.543-.659-9.447-2.691-9.95-6.94s2.833-8.009,8.03-8.739l-.184-1.622A1.034,1.034,0,0,1,282.824,170.767Zm.949,16.288-1.353-11.614c-4.114.574-6.55,3.357-6.189,6.416.34,2.868,1.9,4.5,7.542,5.177Zm2.181,2.372,1.367,11.734c4.249-.581,6.72-3.371,6.338-6.6-.34-2.953-2.039-4.568-7.7-5.155Z" transform="translate(-200.897 -143.312)" fill="#f27d00"/>
  <rect id="Retângulo_3386" data-name="Retângulo 3386" width="56.1" height="28.468" transform="translate(147.835 120.344)" fill="#f27d00"/>
  <circle id="Elipse_1384" data-name="Elipse 1384" cx="6.366" cy="6.366" r="6.366" transform="matrix(0.229, -0.973, 0.973, 0.229, 183.654, 139.314)" fill="#ebebeb"/>
  <circle id="Elipse_1385" data-name="Elipse 1385" cx="3.484" cy="3.484" r="3.484" transform="translate(187.832 131.094)" fill="#dbdbdb"/>
  <rect id="Retângulo_3387" data-name="Retângulo 3387" width="169.802" height="126.781" transform="translate(0.219 70.058)" fill="#f27d00"/>
  <rect id="Retângulo_3388" data-name="Retângulo 3388" width="169.802" height="126.781" transform="translate(0.219 70.058)" opacity="0.1"/>
  <path id="Caminho_13839" data-name="Caminho 13839" d="M311.236,138.166l16.939,76.552a7.938,7.938,0,0,1-6.026,9.454l-121.421,26.91a7.924,7.924,0,0,1-9.454-6.041l-16.946-76.58a7.386,7.386,0,0,1,5.616-8.8L302.455,132.55a7.393,7.393,0,0,1,8.781,5.616Z" transform="translate(-171.743 -132.111)" fill="#455a64"/>
  <rect id="Retângulo_3389" data-name="Retângulo 3389" width="26.322" height="18.193" rx="4.2" transform="matrix(0.976, -0.216, 0.216, 0.976, 15.406, 39.736)" fill="#f27d00"/>
  <path id="Caminho_13840" data-name="Caminho 13840" d="M342.978,163.573l-11.621,2.571a4.957,4.957,0,0,1-5.948-3.8h0A4.957,4.957,0,0,1,329.2,156.4l11.628-2.571a4.957,4.957,0,0,1,5.949,3.8h0a4.993,4.993,0,0,1-3.8,5.949Z" transform="translate(-215.85 -138.334)" fill="#fff"/>
  <path id="Caminho_13841" data-name="Caminho 13841" d="M201.215,236.033l-.914.85a.262.262,0,0,1-.12.071.276.276,0,0,1-.255-.078.255.255,0,0,1,0-.375l1.246-1.19a.276.276,0,0,1,.368,0,.3.3,0,0,1,.078.184l1.515,6.848a.262.262,0,0,1-.2.312.276.276,0,0,1-.319-.2Z" transform="translate(-179.241 -162.13)" fill="#f8f8f8"/>
  <path id="Caminho_13842" data-name="Caminho 13842" d="M206.508,241.332l2.783-3.909a1.966,1.966,0,0,0-3.208-2.273l-.283.411a.265.265,0,0,1-.439-.3l.29-.425a2.556,2.556,0,0,1,1.508-.991,2.5,2.5,0,0,1,2.571,3.881l-2.386,3.35,3.541-.779a.269.269,0,0,1,.312.212.262.262,0,0,1-.2.312l-4.136.906h-.042a.248.248,0,0,1-.212-.035A.283.283,0,0,1,206.508,241.332Z" transform="translate(-180.838 -161.707)" fill="#f8f8f8"/>
  <path id="Caminho_13843" data-name="Caminho 13843" d="M218.611,231.67l-1.487,2.408a2.585,2.585,0,0,1,2.209,3.98,2.606,2.606,0,0,1-1.629,1.14,2.521,2.521,0,0,1-1.94-.354.262.262,0,0,1-.085-.368.269.269,0,0,1,.375-.085,2.068,2.068,0,0,0,2.833-.623,2.025,2.025,0,0,0,.276-1.551,2.047,2.047,0,0,0-2.436-1.544.283.283,0,0,1-.234-.064h0a.269.269,0,0,1-.085-.382l1.416-2.316-2.833.63a.272.272,0,1,1-.12-.531l3.484-.772a.276.276,0,0,1,.326.212.226.226,0,0,1,0,.12.411.411,0,0,1-.071.1Z" transform="translate(-183.565 -160.96)" fill="#f8f8f8"/>
  <path id="Caminho_13844" data-name="Caminho 13844" d="M228.985,235.146l-4.036.892h0a.22.22,0,0,1-.177,0,.248.248,0,0,1-.106-.354l3.123-6.324h0a.255.255,0,0,1,.354-.113.347.347,0,0,1,.113.113v.071l1.133,5.113.5-.113a.269.269,0,0,1,.326.2.262.262,0,0,1-.212.312l-.5.113.283,1.282a.269.269,0,0,1-.524.113Zm-.113-.51-.963-4.362-2.564,5.162Z" transform="translate(-186.474 -160.371)" fill="#f8f8f8"/>
  <path id="Caminho_13845" data-name="Caminho 13845" d="M243.772,232.678a.255.255,0,0,1-.078-.368.269.269,0,0,1,.382-.085,2.044,2.044,0,0,0,3.08-2.174,2,2,0,0,0-2.422-1.551,2.025,2.025,0,0,0-1.289.9.262.262,0,0,1-.368.085.206.206,0,0,1-.085-.071h0a.241.241,0,0,1,0-.085.149.149,0,0,0,0-.057l-.3-3.08a.248.248,0,0,1,.064-.212.241.241,0,0,1,.156-.106l3.477-.765a.272.272,0,1,1,.113.531l-3.243.708.22,2.28a2.585,2.585,0,0,1,3.93,3.293,2.677,2.677,0,0,1-1.629,1.133A2.6,2.6,0,0,1,243.772,232.678Z" transform="translate(-191.744 -159.171)" fill="#f8f8f8"/>
  <path id="Caminho_13846" data-name="Caminho 13846" d="M252.563,225.482a3.1,3.1,0,0,1,2.245-2.2.269.269,0,0,1,.326.191.29.29,0,0,1-.2.333,2.571,2.571,0,0,0-1.87,1.834,4.957,4.957,0,0,0-.205,1.608,2.507,2.507,0,1,1-.241,1.841,3.536,3.536,0,0,1-.127-.489A6.225,6.225,0,0,1,252.563,225.482Zm.567,3.449a.481.481,0,0,0,.057.135.155.155,0,0,1,0,.078,2.011,2.011,0,1,0-.071-.255Z" transform="translate(-194.558 -158.639)" fill="#f8f8f8"/>
  <path id="Caminho_13847" data-name="Caminho 13847" d="M263.095,228.757l1.3-7.145-3.59.814a.262.262,0,0,1-.113-.51l3.944-.871a.29.29,0,0,1,.156,0,.3.3,0,0,1,.177.127c0,.035.035.05.043.085a.269.269,0,0,1,0,.149l-1.367,7.492a.276.276,0,0,1-.2.212.205.205,0,0,1-.113,0,.29.29,0,0,1-.241-.354Z" transform="translate(-196.946 -157.984)" fill="#f8f8f8"/>
  <path id="Caminho_13848" data-name="Caminho 13848" d="M271.788,219.6a1.586,1.586,0,0,1,1.537,2.6,2.471,2.471,0,1,1-1.848.411,1.622,1.622,0,0,1-.892-1.119,1.579,1.579,0,0,1,1.2-1.891Zm1.537,6.947a1.94,1.94,0,1,0-1.476-.256,1.954,1.954,0,0,0,1.476.256Zm-.963-4.348a1.076,1.076,0,0,0,.807-1.282,1.063,1.063,0,0,0-2.075.46,1.076,1.076,0,0,0,1.268.821Z" transform="translate(-199.839 -157.555)" fill="#f8f8f8"/>
  <path id="Caminho_13849" data-name="Caminho 13849" d="M290.239,215.454a2.514,2.514,0,0,1,2.932,1.636s0,0,0,.042c.057.205.113.411.163.637a6.331,6.331,0,0,1-.057,3.13,3.137,3.137,0,0,1-2.252,2.2h0a.248.248,0,0,1-.319-.184.269.269,0,0,1,.191-.333,2.592,2.592,0,0,0,1.877-1.834,4.844,4.844,0,0,0,.2-1.608,2.521,2.521,0,1,1-2.755-3.682Zm2.493,2.018a1.99,1.99,0,1,0-.269,1.5,1.99,1.99,0,0,0,.269-1.5Z" transform="translate(-205.041 -156.337)" fill="#f8f8f8"/>
  <path id="Caminho_13850" data-name="Caminho 13850" d="M298.323,217.589a4.865,4.865,0,0,1,.135-2.762,2.167,2.167,0,0,1,3.732-.829,5.013,5.013,0,0,1,1.3,2.45,4.914,4.914,0,0,1-.156,2.762,2.124,2.124,0,0,1-3.725.821A4.773,4.773,0,0,1,298.323,217.589Zm.524-.113a4.369,4.369,0,0,0,1.14,2.174,1.622,1.622,0,0,0,2.833-.63,4.6,4.6,0,0,0-1.027-4.624,1.622,1.622,0,0,0-2.833.63A4.32,4.32,0,0,0,298.847,217.475Z" transform="translate(-207.941 -155.71)" fill="#f8f8f8"/>
  <path id="Caminho_13851" data-name="Caminho 13851" d="M309.046,212.171l-.914.85a.262.262,0,0,1-.12.071.276.276,0,0,1-.255-.078.262.262,0,0,1,0-.375l1.246-1.19a.262.262,0,0,1,.368,0,.3.3,0,0,1,.078.184l1.516,6.848a.262.262,0,0,1-.2.312.269.269,0,0,1-.312-.2Z" transform="translate(-210.711 -155.165)" fill="#f8f8f8"/>
  <path id="Caminho_13852" data-name="Caminho 13852" d="M314.379,217.472l2.783-3.916a1.955,1.955,0,0,0,.326-1.565,1.966,1.966,0,0,0-2.337-1.48,1.962,1.962,0,0,0-1.19.772l-.29.411a.26.26,0,1,1-.432-.29l.283-.425a2.556,2.556,0,0,1,1.508-.991,2.5,2.5,0,0,1,2.571,3.881l-2.386,3.35,3.541-.779a.269.269,0,0,1,.312.212.262.262,0,0,1-.2.312l-4.15.921h-.042a.248.248,0,0,1-.212,0,.283.283,0,0,1-.085-.411Z" transform="translate(-212.319 -154.744)" fill="#f8f8f8"/>
  <path id="Caminho_13853" data-name="Caminho 13853" d="M335.453,205.819l-1.487,2.408a2.59,2.59,0,0,1,.574,5.12,2.521,2.521,0,0,1-1.94-.354.262.262,0,0,1-.085-.368.269.269,0,0,1,.375-.085,2.047,2.047,0,1,0,.659-3.718.276.276,0,0,1-.234-.064h0a.283.283,0,0,1-.085-.382l1.416-2.323-2.833.637a.276.276,0,0,1-.326-.212.269.269,0,0,1,.205-.326l3.484-.765a.269.269,0,0,1,.326.205.227.227,0,0,1,0,.12.412.412,0,0,1-.05.106Z" transform="translate(-217.658 -153.415)" fill="#f8f8f8"/>
  <path id="Caminho_13854" data-name="Caminho 13854" d="M345.822,209.3l-4.037.892h-.035a.241.241,0,0,1-.17,0,.255.255,0,0,1-.113-.354l3.13-6.324h0a.255.255,0,0,1,.354-.106.326.326,0,0,1,.113.106.241.241,0,0,0,0,.043h0l1.133,5.113.5-.113a.265.265,0,0,1,.113.517l-.5.106.276,1.282a.262.262,0,0,1-.205.312.255.255,0,0,1-.312-.2Zm-.113-.517-.97-4.362-2.556,5.148Z" transform="translate(-220.563 -152.83)" fill="#f8f8f8"/>
  <path id="Caminho_13855" data-name="Caminho 13855" d="M351.6,208.818a.269.269,0,0,1-.078-.375.283.283,0,0,1,.382-.085,2.032,2.032,0,0,0,1.53.269,2.054,2.054,0,0,0,1.551-2.436,2.032,2.032,0,0,0-3.7-.651.269.269,0,0,1-.375.085.284.284,0,0,1-.085-.071h0a.241.241,0,0,1,0-.085.149.149,0,0,0,0-.057l-.3-3.08a.293.293,0,0,1,.22-.319l3.477-.765a.272.272,0,1,1,.113.531l-3.243.708.22,2.273a2.585,2.585,0,0,1,1.2-.616,2.507,2.507,0,0,1,1.94.34,2.479,2.479,0,0,1,1.126,1.629,2.556,2.556,0,0,1-.333,1.947,2.677,2.677,0,0,1-1.629,1.133,2.6,2.6,0,0,1-2-.375Z" transform="translate(-223.213 -152.208)" fill="#f8f8f8"/>
  <path id="Caminho_13856" data-name="Caminho 13856" d="M360.394,201.622a3.1,3.1,0,0,1,2.252-2.2.262.262,0,0,1,.319.184.29.29,0,0,1-.2.34,2.571,2.571,0,0,0-1.87,1.827,5.028,5.028,0,0,0-.205,1.615,2.493,2.493,0,0,1,1.657-1.253,2.521,2.521,0,1,1-1.9,3.095,3.541,3.541,0,0,1-.127-.489A6.309,6.309,0,0,1,360.394,201.622Zm.574,3.449a.383.383,0,0,0,.05.135.157.157,0,0,1,0,.078,2.011,2.011,0,1,0-.071-.255Z" transform="translate(-226.028 -151.676)" fill="#f8f8f8"/>
  <rect id="Retângulo_3390" data-name="Retângulo 3390" width="66.588" height="3.272" transform="matrix(0.976, -0.216, 0.216, 0.976, 27.232, 93.177)" fill="#a6a6a6"/>
  <rect id="Retângulo_3391" data-name="Retângulo 3391" width="47.142" height="3.272" transform="matrix(0.976, -0.216, 0.216, 0.976, 28.8, 100.269)" fill="#a6a6a6"/>
  <rect id="Retângulo_3392" data-name="Retângulo 3392" width="33.205" height="3.272" transform="matrix(0.976, -0.216, 0.216, 0.976, 71.587, 27.299)" fill="#a6a6a6"/>
  <rect id="Retângulo_3393" data-name="Retângulo 3393" width="148.231" height="43.389" transform="translate(11.005 85.666)" fill="#f27d00"/>
  <rect id="Retângulo_3394" data-name="Retângulo 3394" width="148.231" height="43.389" transform="translate(11.005 85.666)" opacity="0.3"/>
  <path id="Caminho_13857" data-name="Caminho 13857" d="M332.025,248.393l.205,78.407a7.945,7.945,0,0,1-7.91,7.96l-124.359.319a7.924,7.924,0,0,1-7.946-7.917l-.205-78.372a7.379,7.379,0,0,1,7.365-7.4L324.618,241a7.386,7.386,0,0,1,7.407,7.393Z" transform="translate(-176.896 -163.811)" fill="#dbdbdb"/>
  <path id="Caminho_13858" data-name="Caminho 13858" d="M355.5,343.63a7.3,7.3,0,1,1-7.322-7.28,7.3,7.3,0,0,1,7.322,7.28Z" transform="translate(-220.407 -191.638)" fill="#a6a6a6"/>
  <path id="Caminho_13859" data-name="Caminho 13859" d="M368.192,343.59a7.3,7.3,0,1,1-7.322-7.28,7.3,7.3,0,0,1,7.322,7.28Z" transform="translate(-224.111 -191.626)" fill="#f27d00"/>
  <rect id="Retângulo_3395" data-name="Retângulo 3395" width="26.322" height="18.193" rx="4.2" transform="translate(26.713 90.994) rotate(-0.15)" fill="#f27d00"/>
  <path id="Caminho_13860" data-name="Caminho 13860" d="M360.031,270.067l-11.911.035a4.957,4.957,0,0,1-5-4.957h0a4.957,4.957,0,0,1,4.957-5l11.911-.035a4.957,4.957,0,0,1,5,4.957h0a4.957,4.957,0,0,1-4.957,5Z" transform="translate(-221.055 -169.388)" fill="#fff"/>
  <path id="Caminho_13861" data-name="Caminho 13861" d="M206.622,309.3l-1.076.637a.276.276,0,0,1-.127.042.262.262,0,0,1-.234-.127.255.255,0,0,1,.1-.361l1.473-.9a.269.269,0,0,1,.354.1.276.276,0,0,1,.035.2V315.9a.262.262,0,0,1-.262.262.269.269,0,0,1-.262-.262Z" transform="translate(-180.788 -183.527)" fill="#f8f8f8"/>
  <path id="Caminho_13862" data-name="Caminho 13862" d="M210.608,315.669l3.541-3.229a1.965,1.965,0,0,0-2.648-2.9l-.368.34a.255.255,0,0,1-.375,0,.248.248,0,0,1,0-.368l.368-.347a2.535,2.535,0,0,1,1.685-.651,2.436,2.436,0,0,1,1.834.814A2.408,2.408,0,0,1,215.3,311a2.507,2.507,0,0,1-.807,1.855l-3.052,2.762h3.668a.269.269,0,0,1,0,.538H210.82a.241.241,0,0,1-.2-.078.283.283,0,0,1-.014-.4Z" transform="translate(-182.36 -183.513)" fill="#f8f8f8"/>
  <path id="Caminho_13863" data-name="Caminho 13863" d="M224.417,308.939l-1.969,2.025a2.586,2.586,0,0,1,1.31,4.362,2.6,2.6,0,0,1-1.834.765,2.55,2.55,0,0,1-1.82-.758.255.255,0,0,1,0-.382.269.269,0,0,1,.382,0,2.054,2.054,0,0,0,1.416.588,2.125,2.125,0,0,0,1.416-.595,2.043,2.043,0,0,0-1.452-3.484.3.3,0,0,1-.22-.113h0a.269.269,0,0,1,0-.389L223.539,309h-2.925a.276.276,0,0,1,0-.545h3.541a.269.269,0,0,1,.269.269.205.205,0,0,1,0,.12.29.29,0,0,1-.007.1Z" transform="translate(-185.128 -183.496)" fill="#f8f8f8"/>
  <path id="Caminho_13864" data-name="Caminho 13864" d="M233.487,314.514h-4.136a.227.227,0,0,1-.163-.057.248.248,0,0,1-.035-.368l4.4-5.509h0a.255.255,0,0,1,.368-.035.326.326,0,0,1,.092.135v5.311h.517a.262.262,0,0,1,0,.524h-.517v1.31a.269.269,0,0,1-.531,0Zm0-.524v-4.468l-3.6,4.476Z" transform="translate(-187.775 -183.505)" fill="#f8f8f8"/>
  <path id="Caminho_13865" data-name="Caminho 13865" d="M248.764,315.314a.269.269,0,0,1,0-.382.283.283,0,0,1,.4,0,2.054,2.054,0,0,0,1.416.588,2.018,2.018,0,0,0,1.416-.609,1.976,1.976,0,0,0,.595-1.416,2.032,2.032,0,0,0-3.477-1.416.269.269,0,0,1-.382,0,.2.2,0,0,1-.071-.085h0a.191.191,0,0,1,0-.092.217.217,0,0,0,0-.05l.361-3.081a.234.234,0,0,1,.106-.2.269.269,0,0,1,.177-.064h3.541a.276.276,0,1,1,0,.545h-3.236l-.269,2.266a2.567,2.567,0,0,1,3.874,2.231,2.542,2.542,0,0,1-.708,1.834,2.7,2.7,0,0,1-1.834.758,2.585,2.585,0,0,1-1.9-.829Z" transform="translate(-193.485 -183.512)" fill="#f8f8f8"/>
  <path id="Caminho_13866" data-name="Caminho 13866" d="M258.765,310.044a3.109,3.109,0,0,1,2.67-1.664.269.269,0,0,1,.276.248.29.29,0,0,1-.262.29,2.571,2.571,0,0,0-2.224,1.416,4.907,4.907,0,0,0-.538,1.53,2.507,2.507,0,1,1-.63,1.742,3.827,3.827,0,0,1,0-.5,6.331,6.331,0,0,1,.708-3.066Zm-.177,3.491a.742.742,0,0,0,0,.142.242.242,0,0,1,0,.078,2.011,2.011,0,1,0,0-.262Z" transform="translate(-196.228 -183.475)" fill="#f8f8f8"/>
  <path id="Caminho_13867" data-name="Caminho 13867" d="M268.662,315.625l2.833-6.706h-3.682a.269.269,0,0,1-.262-.262.262.262,0,0,1,.255-.262h4.036a.255.255,0,0,1,.163,0,.3.3,0,0,1,.149.163.434.434,0,0,1,0,.092.255.255,0,0,1-.042.142l-2.939,7.032a.269.269,0,0,1-.241.163.191.191,0,0,1-.106,0A.29.29,0,0,1,268.662,315.625Z" transform="translate(-199 -183.476)" fill="#f8f8f8"/>
  <path id="Caminho_13868" data-name="Caminho 13868" d="M278.724,308.32a1.593,1.593,0,0,1,1.6,1.579,1.622,1.622,0,0,1-.652,1.289,2.471,2.471,0,1,1-1.884,0,1.615,1.615,0,0,1-.637-1.289,1.572,1.572,0,0,1,1.572-1.579Zm0,7.082a1.439,1.439,0,1,0,.021.028Zm0-4.447a1.091,1.091,0,0,0,1.069-1.084,1.062,1.062,0,1,0-1.069,1.084Z" transform="translate(-201.542 -183.458)" fill="#f8f8f8"/>
  <path id="Caminho_13869" data-name="Caminho 13869" d="M297.871,308.258a2.514,2.514,0,0,1,2.514,2.217.134.134,0,0,0,0,.057v.659a6.289,6.289,0,0,1-.708,3.045,3.158,3.158,0,0,1-2.67,1.664h0a.262.262,0,0,1-.276-.255.283.283,0,0,1,.262-.283,2.585,2.585,0,0,0,2.224-1.416,4.682,4.682,0,0,0,.538-1.53,2.486,2.486,0,0,1-1.891.843,2.514,2.514,0,0,1,0-5.028Zm2,2.507a1.983,1.983,0,1,0-.583,1.412,2,2,0,0,0,.583-1.412Z" transform="translate(-207.114 -183.431)" fill="#f8f8f8"/>
  <path id="Caminho_13870" data-name="Caminho 13870" d="M305.229,312.077a4.886,4.886,0,0,1,.708-2.677,2.167,2.167,0,0,1,3.817,0,5.155,5.155,0,0,1,0,5.332,2.124,2.124,0,0,1-3.817,0A4.8,4.8,0,0,1,305.229,312.077Zm.538,0a4.341,4.341,0,0,0,.644,2.365,1.622,1.622,0,0,0,2.925,0,4.575,4.575,0,0,0,0-4.73,1.622,1.622,0,0,0-2.918,0,4.248,4.248,0,0,0-.644,2.358Z" transform="translate(-209.996 -183.44)" fill="#f8f8f8"/>
  <path id="Caminho_13871" data-name="Caminho 13871" d="M317.06,309.013l-1.076.63a.283.283,0,0,1-.127.05.269.269,0,0,1-.234-.135.248.248,0,0,1,.1-.361l1.466-.9a.276.276,0,0,1,.361.1.283.283,0,0,1,.035.2v7.011a.262.262,0,1,1-.524,0Z" transform="translate(-213.018 -183.442)" fill="#f8f8f8"/>
  <path id="Caminho_13872" data-name="Caminho 13872" d="M321.037,315.379l3.541-3.222a1.962,1.962,0,0,0-1.317-3.413,2.011,2.011,0,0,0-1.331.5l-.368.34a.255.255,0,0,1-.375,0,.248.248,0,0,1,0-.368l.368-.354a2.55,2.55,0,0,1,1.685-.644,2.5,2.5,0,0,1,1.685,4.334l-3.052,2.769h3.612a.269.269,0,0,1,0,.538h-4.291a.241.241,0,0,1-.2-.078A.29.29,0,0,1,321.037,315.379Z" transform="translate(-214.579 -183.429)" fill="#f8f8f8"/>
  <path id="Caminho_13873" data-name="Caminho 13873" d="M344.09,308.629l-1.969,2.032a2.586,2.586,0,0,1,1.31,4.362,2.571,2.571,0,0,1-3.654,0,.269.269,0,0,1,0-.382.262.262,0,0,1,.382,0,2.033,2.033,0,0,0,1.416.581,2.082,2.082,0,0,0,1.416-.588,2.054,2.054,0,0,0-1.416-3.491.255.255,0,0,1-.22-.106h0a.276.276,0,0,1,0-.389l1.891-1.962h-2.918a.273.273,0,1,1-.007-.545h3.541a.269.269,0,0,1,.276.269.205.205,0,0,1,0,.12A.156.156,0,0,1,344.09,308.629Z" transform="translate(-220.056 -183.405)" fill="#f8f8f8"/>
  <path id="Caminho_13874" data-name="Caminho 13874" d="M353.175,314.206h-4.164a.2.2,0,0,1-.163-.05.248.248,0,0,1-.035-.368l4.4-5.509h0a.248.248,0,0,1,.368-.035.39.39,0,0,1,.085.135v5.311h.51a.262.262,0,1,1,0,.524h-.51v1.31a.262.262,0,0,1-.269.262.269.269,0,0,1-.262-.262Zm0-.524v-4.469l-3.633,4.5Z" transform="translate(-222.697 -183.416)" fill="#f8f8f8"/>
  <path id="Caminho_13875" data-name="Caminho 13875" d="M359.217,315.012a.269.269,0,0,1,0-.382.283.283,0,0,1,.4,0,2.032,2.032,0,0,0,2.875,0,2.016,2.016,0,1,0-2.854-2.847.255.255,0,0,1-.382,0,.163.163,0,0,1-.071-.085h0a.078.078,0,0,1,0-.035.163.163,0,0,1,0-.085v-.057l.361-3.081a.227.227,0,0,1,.106-.191.234.234,0,0,1,.177-.071h3.541a.276.276,0,1,1,0,.545h-3.321L359.777,311a2.571,2.571,0,0,1,3.874,2.224,2.542,2.542,0,0,1-.744,1.834,2.634,2.634,0,0,1-1.834.758A2.585,2.585,0,0,1,359.217,315.012Z" transform="translate(-225.729 -183.416)" fill="#f8f8f8"/>
  <path id="Caminho_13876" data-name="Caminho 13876" d="M369.2,309.761a3.1,3.1,0,0,1,2.67-1.671.269.269,0,0,1,.269.255.276.276,0,0,1-.255.283,2.585,2.585,0,0,0-2.224,1.416,5.1,5.1,0,0,0-.545,1.53,2.514,2.514,0,1,1-.623,1.749,3.866,3.866,0,0,1,0-.5,6.324,6.324,0,0,1,.708-3.059Zm-.177,3.484a.747.747,0,0,0,0,.142.242.242,0,0,1,0,.078,2.011,2.011,0,1,0,0-.262Z" transform="translate(-228.458 -183.391)" fill="#f8f8f8"/>
  <rect id="Retângulo_3396" data-name="Retângulo 3396" width="66.588" height="3.272" transform="translate(26.864 145.72) rotate(-0.15)" fill="#a6a6a6"/>
  <rect id="Retângulo_3397" data-name="Retângulo 3397" width="47.142" height="3.272" transform="translate(26.876 152.992) rotate(-0.15)" fill="#a6a6a6"/>
  <rect id="Retângulo_3398" data-name="Retângulo 3398" width="33.205" height="3.272" transform="translate(84.251 90.836) rotate(-0.15)" fill="#a6a6a6"/>
  <rect id="Retângulo_3399" data-name="Retângulo 3399" width="148.231" height="72.65" transform="translate(11.005 99.574)" fill="#f27d00"/>
  <rect id="Retângulo_3400" data-name="Retângulo 3400" width="148.231" height="72.65" transform="translate(11.005 99.574)" opacity="0.2"/>
  <rect id="Retângulo_3401" data-name="Retângulo 3401" width="148.231" height="72.65" transform="translate(11.005 112.484)" fill="#f27d00"/>
  <rect id="Retângulo_3402" data-name="Retângulo 3402" width="148.231" height="72.65" transform="translate(11.005 112.484)" opacity="0.3"/>
  <rect id="Retângulo_3403" data-name="Retângulo 3403" width="148.231" height="59.344" transform="translate(11.005 125.797)" fill="#f27d00"/>
  <rect id="Retângulo_3404" data-name="Retângulo 3404" width="148.231" height="59.344" transform="translate(11.005 125.797)" opacity="0.2"/>
  <path id="Caminho_13877" data-name="Caminho 13877" d="M325.5,379.713,171.06,357.76V231l4.957,3.668a16.55,16.55,0,0,0,8.137,3.18L325.5,252.953Z" transform="translate(-170.84 -160.893)" fill="#f27d00"/>
  <rect id="Retângulo_3405" data-name="Retângulo 3405" width="0.708" height="1.416" transform="translate(0 76.072) rotate(-51.97)" fill="#fff"/>
  <path id="Caminho_13878" data-name="Caminho 13878" d="M316.558,261.747l-2.833-.319.078-.708,2.833.319Zm-5-.559-2.833-.319.078-.708,2.833.319Zm-5-.559-2.833-.319.078-.708,2.833.326Zm-5-.559-2.833-.319.078-.708,2.833.319Zm-5-.559-2.833-.319.078-.708,2.833.319Zm-4.957-.559-2.833-.319.078-.708,2.833.319Zm-5-.552-2.833-.326.078-.708,2.833.319Zm-5-.559-2.833-.319.078-.708,2.833.319Zm-5-.559-2.833-.319.078-.708,2.833.319Zm-4.992-.559-2.833-.319.078-.708,2.833.319Zm-5-.559-2.833-.319.085-.708,2.833.319Zm-5-.559-2.833-.319.078-.708,2.833.319Zm-5-.559-2.833-.319.078-.708,2.833.319Zm-5-.552-2.833-.326.078-.708,2.833.319Zm-5.021-.531-2.833-.319.078-.708,2.833.319Zm-5-.559-2.833-.319.078-.708,2.833.319Zm-5-.559-2.833-.319.078-.708,2.833.326Zm-5-.559-2.833-.319.078-.708,2.833.319Zm-4.971-.588-2.833-.319.078-.708,2.833.319Zm-4.993-.559-2.833-.319.085-.708,2.833.319Zm-5-.552-2.833-.326.078-.708,2.833.319Zm-5-.559L208.8,249.7l.078-.708,2.833.319Zm-5-.559-2.833-.319.078-.708,2.833.319Zm-4.957-.559-2.833-.319.078-.708,2.833.326Zm-5-.559-2.833-.319.078-.708,2.833.319Zm-5-.559-2.833-.319.078-.708,2.833.319Zm-5-.559-1.7-.184c-.4-.05-.786-.106-1.176-.177l.127-.708c.375.064.751.12,1.126.163l1.7.191Zm-5.007-.892a17.754,17.754,0,0,1-2.705-1.133l.333-.63a16.287,16.287,0,0,0,2.592,1.083Zm-4.617-2.287c-.234-.17-.467-.34-.708-.517l-1.593-1.246.432-.559,1.593,1.246c.22.17.446.333.673.5Z" transform="translate(-171.917 -164.021)" fill="#fff"/>
  <path id="Caminho_13879" data-name="Caminho 13879" d="M379.836,271.266h-.708v-1.1l-1.1-.127.078-.7,1.728.191Z" transform="translate(-231.243 -172.082)" fill="#fff"/>
  <path id="Caminho_13880" data-name="Caminho 13880" d="M380.288,383.311h-.708v-2.868h.708Zm0-5.021h-.708v-2.868h.708Zm0-5.014h-.708v-2.868h.708Zm0-5.014h-.708v-2.868h.708Zm0-5.021h-.708v-2.833h.708Zm0-5.014h-.708V355.36h.708Zm0-5.014h-.708v-2.868h.708Zm0-5.021h-.708v-2.833h.708Zm0-5.014h-.708v-2.868h.708Zm0-5.014h-.708V335.3h.708Zm0-5.014h-.708v-2.875h.708Zm0-5.021h-.708V325.3h.708Zm0-5.014h-.708V320.25h.708Zm0-5.014h-.708v-2.868h.708Zm0-5.021h-.708v-2.833h.708Zm0-5.014h-.708V305.2h.708Zm0-5.014h-.708v-2.868h.708Zm0-5.021h-.708V295.2h.708Zm0-5.014h-.708v-2.868h.708Zm0-5.014h-.708v-2.868h.708Zm0-5.014h-.708v-2.868h.708Zm0-5.021h-.708V275.14h.708Z" transform="translate(-231.696 -173.774)" fill="#fff"/>
  <path id="Caminho_13881" data-name="Caminho 13881" d="M379.833,432.747l-1.813-.269.106-.7,1,.149V430.92h.708Z" transform="translate(-231.24 -219.238)" fill="#fff"/>
  <path id="Caminho_13882" data-name="Caminho 13882" d="M316.631,424.044l-2.833-.418.1-.708,2.833.418Zm-4.957-.708-2.833-.418.106-.708,2.833.418Zm-4.957-.708-2.833-.418.106-.708,2.833.418Zm-4.957-.708-2.833-.418.106-.708,2.833.418Zm-4.957-.708-2.833-.418.1-.708,2.833.418Zm-4.957-.708-2.833-.418.1-.708,2.833.418Zm-4.957-.708-2.833-.418.106-.708,2.833.418Zm-4.957-.708-2.833-.418.106-.708,2.833.418Zm-4.957-.708-2.833-.418.106-.708,2.833.418Zm-4.957-.708-2.833-.418.106-.708,2.833.425Zm-4.957-.708-2.833-.418.1-.708,2.833.418Zm-4.957-.708-2.833-.418.106-.708,2.833.418Zm-4.957-.708-2.833-.418.106-.708,2.833.418Zm-4.957-.708-2.833-.418.106-.708,2.833.425Zm-4.957-.708-2.833-.418.106-.708,2.833.418Zm-4.957-.708L239.442,413l.1-.708,2.833.425Zm-4.957-.708-2.833-.418.1-.708,2.833.418Zm-4.957-.708-2.833-.418.106-.708,2.833.418ZM227.4,411.3l-2.833-.418.106-.708,2.833.418Zm-4.957-.708-2.833-.418.106-.708,2.833.425Zm-4.957-.708-2.833-.418.1-.708,2.833.418Zm-4.957-.708-2.833-.418.106-.708,2.833.425Zm-4.957-.708-2.833-.418.106-.708,2.833.418Zm-4.957-.708-2.833-.418.106-.708,2.833.425Zm-4.957-.708-2.833-.418.106-.708,2.833.418Zm-4.957-.708-2.833-.418.1-.708,2.833.425Zm-4.957-.708-2.833-.418.106-.708,2.833.418Zm-4.957-.708-2.833-.418.106-.708,2.833.425Zm-4.957-.708L175,403.8l.106-.708,2.833.418Z" transform="translate(-171.99 -211.116)" fill="#fff"/>
  <rect id="Retângulo_3406" data-name="Retângulo 3406" width="0.708" height="1.416" transform="translate(0.166 191.452) rotate(-81.55)" fill="#fff"/>
  <ellipse id="Elipse_1386" data-name="Elipse 1386" cx="6.154" cy="7.011" rx="6.154" ry="7.011" transform="translate(128.594 147.672)" fill="#ebebeb"/>
  <path id="Caminho_13883" data-name="Caminho 13883" d="M362.708,349.088a2.889,2.889,0,1,1-2.868-3.258,3.08,3.08,0,0,1,2.868,3.258Z" transform="translate(-225.092 -194.405)" fill="#dbdbdb"/>
</svg>
