<svg id="Componente_36_1" data-name="Componente 36 – 1" xmlns="http://www.w3.org/2000/svg" xmlns:xlink="http://www.w3.org/1999/xlink" width="247.548" height="269.715" viewBox="0 0 247.548 269.715">
  <defs>
    <linearGradient id="linear-gradient" x1="0.99" y1="0.419" x2="0.33" y2="0.529" gradientUnits="objectBoundingBox">
      <stop offset="0" stop-color="#fff"/>
      <stop offset="1" stop-color="#dbeaff"/>
    </linearGradient>
    <linearGradient id="linear-gradient-2" x1="-51.113" y1="-40.163" x2="-50.148" y2="-40.163" xlink:href="#linear-gradient"/>
  </defs>
  <path id="Caminho_9656" data-name="Caminho 9656" d="M318.08,303.535s-63.986,21.731-53.121,91.755,41.048,196.789,190.752,170.228-53.121-160.57-30.182-182.3S440.016,280.6,318.08,303.535Z" transform="translate(-263.717 -299.48)" fill="url(#linear-gradient)"/>
  <path id="Caminho_9657" data-name="Caminho 9657" d="M487.05,338.889s-12.578.434-16.915,14.746a35.983,35.983,0,0,0-.938,4.06c-1.394-2.827-4.584-5.852-11.928-4.35-12.722,2.6-7.228,39.611-13.3,51.466s-14.457,10.7-14.457,10.7,24.287,4.626,31.8-4.337,2.891-20.818,2.891-20.818l4.626,4.915a42.444,42.444,0,0,0,2.8-14.315c2.481,5.466,6.434,9.446,11.941,9.979,13.445,1.3,18.649-21.685,18.649-21.685l26.456,13.011S554.706,311.132,487.05,338.889Z" transform="translate(-371.074 -320.836)" fill="#f7941e"/>
  <g id="Grupo_8058" data-name="Grupo 8058" transform="translate(0.207 76.626)">
    <path id="Caminho_9658" data-name="Caminho 9658" d="M353.475,672.269c10.4-15.593-11.88-9.653-11.88-9.653s24.5-15.593,17.82-25.245-26.73,8.168-26.73,8.168,17.078-28.958,7.426-37.126-20.791,17.821-20.791,17.821c0-9.653-18.563-11.138-18.563-11.138l6.683-5.94c6.682-5.941-7.425-11.138-7.425-11.138s18.563,2.97,26.73-4.455-26.73-16.335-26.73-16.335,23.018,0,26.73-8.168-36.383-10.4-36.383-10.4,18.563.743,21.533-9.653-32.671-5.2-32.671-5.2,23.76-11.88,21.533-23.76c-1.387-7.4-21.481-.4-36.452,5.932.187,3.251.495,6.586,1.035,10.073,7.047,45.411,22.233,114.673,72.86,150.517A48.165,48.165,0,0,0,353.475,672.269Z" transform="translate(-264.304 -516.875)" fill="#333"/>
    <path id="Caminho_9659" data-name="Caminho 9659" d="M784.195,718.425c-11.88-14.108-43.808-12.623-28.216,1.485,12.291,11.12,28.725,36.989,35.138,47.453.944,1.434,1.865,2.92,2.73,4.523,0,0-1.007-1.711-2.73-4.523-20.925-31.793-59.39-23.052-37.365-8.843,23.018,14.85,38.611,49.006,38.611,49.006a25.654,25.654,0,0,0-20.79-8.911c-8.547.475-.7,17.643,6.073,29.965,69.719-15.969,48.95-59.273,16.912-99.811A112.077,112.077,0,0,1,784.195,718.425Z" transform="translate(-576.964 -640.995)" fill="#ddd"/>
  </g>
  <path id="Caminho_9660" data-name="Caminho 9660" d="M540.479,363.822s-1.157,6.072-17.059,5.783-27.178.867-26.889,13.01c0,0-15.035-2.024-11.854,12.722,0,0-4.337-2.891-4.337-6.361,0,0-8.674,8.963-8.1,20.528.494,9.882-.134,25.2-19.606,27.306,7.774.561,18.969.254,23.653-5.332,7.518-8.963,2.891-20.818,2.891-20.818l4.626,4.915a42.45,42.45,0,0,0,2.8-14.316c2.481,5.466,6.434,9.446,11.941,9.979C512,412.54,517.2,389.555,517.2,389.555l26.456,13.011s4.914-13.446,4.913-26.364C547.236,371.267,544.81,366.443,540.479,363.822Z" transform="translate(-386.049 -341.143)" fill="#231f20" opacity="0.56" style="mix-blend-mode: overlay;isolation: isolate"/>
  <path id="Caminho_9661" data-name="Caminho 9661" d="M648.81,588.328l23.131,73.495c4.138,9.5,24.955,1.745,20.817-7.751l-20.528-71.623C669.54,573.3,646.12,579.175,648.81,588.328Z" transform="translate(-512.936 -479.737)" fill="#fed4d5"/>
  <path id="Caminho_9662" data-name="Caminho 9662" d="M728.257,657.561c.474-.759,25.751-70.747,25.751-70.747,1.731-6.254,12.3-3.525,10.567,2.728l-18.918,72.9C742.522,672.961,725.121,668.076,728.257,657.561Z" transform="translate(-564.276 -483.242)" fill="#fed4d5"/>
  <path id="Caminho_9663" data-name="Caminho 9663" d="M695.871,633.3a139.993,139.993,0,0,1-11.9,24.189,29.815,29.815,0,0,1-5.676-9.834c-2.424-7.433,1.055-21.794,3.766-30.892l-9.834-34.312c-2.689-9.153-26.109-3.273-23.42,5.879l23.131,73.495c2.151,4.937,8.775,5.158,14.088,2.945a8.02,8.02,0,0,0,8.29-5.826l13.371-51.531A247.015,247.015,0,0,0,695.871,633.3Z" transform="translate(-512.936 -479.737)" fill="#231f20" opacity="0.56" style="mix-blend-mode: overlay;isolation: isolate"/>
  <path id="Caminho_9664" data-name="Caminho 9664" d="M563.681,572.812c-1.057-.83-15.721-2.125-17-2.549s-30.168.425-30.168.425-19.97-.85-29.318,11.473,22.094,44.189,23.369,71.382-20.6,55.774-21.874,72.77c0,0,36.515,25.926,102.13,15.8,0,0-31.393-103.863-25.019-110.237s12.746-13.6,11.472-22.094S569.63,577.485,563.681,572.812Z" transform="translate(-407.306 -474.742)" fill="#686868"/>
  <path id="Caminho_9665" data-name="Caminho 9665" d="M518.1,594.765c9.813-18.358,34.856-17.311,48.186-15.406-1.454-3.018-2.966-5.38-4.452-6.548-1.057-.83-15.721-2.125-17-2.549s-30.168.425-30.168.425-19.97-.85-29.318,11.473,22.095,44.189,23.369,71.382-19.378,55.673-20.653,72.669c0,0,30.922,16.7,55.014,16.334C516.454,717.943,506.507,616.457,518.1,594.765Z" transform="translate(-406.111 -474.742)" fill="#231f20" opacity="0.56" style="mix-blend-mode: overlay;isolation: isolate"/>
  <path id="Caminho_9666" data-name="Caminho 9666" d="M610.042,507.006c0,1.7-5.1,10.2-1.7,19.545s10.2,10.2,10.2,10.2,12.322,24.219-5.948,19.121-33.567-31.018-33.567-31.018,7.648-3.824,9.348-9.348-1.7-16.146-1.7-16.146Z" transform="translate(-467.887 -428.906)" fill="#fed4d5"/>
  <path id="Caminho_9667" data-name="Caminho 9667" d="M613.373,386.018c1-.892,9.348,43.765-4.249,50.988s-40.79-9.348-41.64-11.047.85-7.223.85-7.223-5.524-.425-5.1-7.648,6.374-11.472,9.773-8.073l3.4,3.4s-7.223-14.871,2.974-17S605.724,392.816,613.373,386.018Z" transform="translate(-457.648 -355.507)" fill="#fed4d5"/>
  <path id="Caminho_9668" data-name="Caminho 9668" d="M831.247,641.9c-3.974.032-10.856-.041-14.076-.08a2.246,2.246,0,0,0-2.2,1.693l-8.44,32.46a2.262,2.262,0,0,0,2.278,2.83l14.1-.557a2.262,2.262,0,0,0,2.1-1.681l8.443-31.824A2.257,2.257,0,0,0,831.247,641.9Z" transform="translate(-615.155 -521.154)" fill="#686868"/>
  <path id="Caminho_9669" data-name="Caminho 9669" d="M490.64,607.111l23.131,73.495c4.138,9.5,24.956,1.746,20.818-7.75l-20.529-71.624C511.37,592.078,487.95,597.958,490.64,607.111Z" transform="translate(-410.517 -491.9)" fill="#fed4d5"/>
  <path id="Caminho_9670" data-name="Caminho 9670" d="M564.108,780.16c.964,0,79.33-15.613,79.33-15.613,6.7-1.843,10.234,8.565,3.533,10.409l-77.4,22.552C558.172,800.415,552.712,783.067,564.108,780.16Z" transform="translate(-454.155 -600.483)" fill="#fed4d5"/>
  <path id="Caminho_9671" data-name="Caminho 9671" d="M788.3,717.708c1.485,0,0-11.881,2.475-14.356s4.455-9.9,5.94-5.94a14.82,14.82,0,0,1,.495,7.92s7.92-17.325,13.366-13.86-1.524,36.379-23.532,35.515S788.3,717.708,788.3,717.708Z" transform="translate(-596.456 -553.009)" fill="#fed4d5"/>
  <path id="Caminho_9672" data-name="Caminho 9672" d="M852.253,668.193a1.482,1.482,0,1,1-.772-2.24A1.71,1.71,0,0,1,852.253,668.193Z" transform="translate(-642.979 -536.747)" fill="url(#linear-gradient-2)"/>
  <path id="Caminho_9673" data-name="Caminho 9673" d="M801.189,534.678l2.475-4.951s4.95-15.1,1.733-17.572-9.405-3.713-9.405-3.713.247-14.85-1.98-14.85-1.732,14.6-1.732,14.6-4.207,4.455-3.96,9.405,3.96,11.138,3.96,11.138l-.495,7.177S799.209,536.411,801.189,534.678Z" transform="translate(-603.404 -425.173)" fill="#fed4d5"/>
  <path id="Caminho_9674" data-name="Caminho 9674" d="M624.637,630.417a2.77,2.77,0,0,0-1.547-.408c4.51,17.044-16.292,30.647-16.292,30.647-14.85,5.495-76.049,26.654-83.864,24.244-6.446-16.034-22.3-56.534-23.288-69.333-.758-9.862,3.239-15.761,6.5-18.831-7.532-.275-17.293,4.338-15.5,10.429l23.131,73.495a6.686,6.686,0,0,0,.77,1.312c1.179,4.559,5.468,8.518,11.389,7.008l77.4-22.552a5.368,5.368,0,0,0,1.521-.692C623.891,662.992,629.759,633.677,624.637,630.417Z" transform="translate(-410.516 -491.953)" fill="#231f20" opacity="0.56" style="mix-blend-mode: overlay;isolation: isolate"/>
  <path id="Caminho_9675" data-name="Caminho 9675" d="M428.814,898.908S463.341,877,457.4,876.633,428.814,898.908,428.814,898.908Z" transform="translate(-370.622 -673.199)" fill="#231f20" opacity="0.56" style="mix-blend-mode: overlay;isolation: isolate"/>
  <path id="Caminho_9676" data-name="Caminho 9676" d="M288.77,611.132s37.077-9.387,32.164-11.644S288.77,611.132,288.77,611.132Z" transform="translate(-279.939 -493.583)" fill="#231f20" opacity="0.56" style="mix-blend-mode: overlay;isolation: isolate"/>
  <path id="Caminho_9677" data-name="Caminho 9677" d="M275.132,551.7s32.53-11.109,28.4-13.069S275.132,551.7,275.132,551.7Z" transform="translate(-271.108 -454.219)" fill="#231f20" opacity="0.56" style="mix-blend-mode: overlay;isolation: isolate"/>
  <path id="Caminho_9678" data-name="Caminho 9678" d="M411.961,832.336s25.617-45.293,18.934-42.323S411.961,832.336,411.961,832.336Z" transform="translate(-359.709 -617.023)" fill="#231f20" opacity="0.56" style="mix-blend-mode: overlay;isolation: isolate"/>
  <path id="Caminho_9679" data-name="Caminho 9679" d="M460.413,952.021s21.533-7.8,15.593-9.282S460.413,952.021,460.413,952.021Z" transform="translate(-391.083 -715.917)" fill="#231f20" opacity="0.56" style="mix-blend-mode: overlay;isolation: isolate"/>
  <path id="Caminho_9680" data-name="Caminho 9680" d="M364.563,828.386s17.449-3.341,11.88-4.826S364.563,828.386,364.563,828.386Z" transform="translate(-329.018 -638.689)" fill="#231f20" opacity="0.56" style="mix-blend-mode: overlay;isolation: isolate"/>
  <path id="Caminho_9681" data-name="Caminho 9681" d="M322.431,763.317s24.132,3.341,17.078,0S322.431,763.317,322.431,763.317Z" transform="translate(-301.736 -598.865)" fill="#231f20" opacity="0.56" style="mix-blend-mode: overlay;isolation: isolate"/>
  <path id="Caminho_9682" data-name="Caminho 9682" d="M307.685,703.9s44.551,4.084,38.611,6.682S307.685,703.9,307.685,703.9Z" transform="translate(-292.187 -561.354)" fill="#231f20" opacity="0.56" style="mix-blend-mode: overlay;isolation: isolate"/>
  <path id="Caminho_9683" data-name="Caminho 9683" d="M295.046,652.289s44.551,4.084,38.611,6.683S295.046,652.289,295.046,652.289Z" transform="translate(-284.003 -527.933)" fill="#231f20" opacity="0.56" style="mix-blend-mode: overlay;isolation: isolate"/>
  <path id="Caminho_9684" data-name="Caminho 9684" d="M826.581,885.242S804.306,834.38,775.348,830.3C775.348,830.3,808.39,856.655,826.581,885.242Z" transform="translate(-595.012 -643.198)" fill="#231f20" opacity="0.56" style="mix-blend-mode: overlay;isolation: isolate"/>
  <path id="Caminho_9685" data-name="Caminho 9685" d="M838.911,994.745s-19.306-22.647-17.449-16.707S838.911,994.745,838.911,994.745Z" transform="translate(-624.791 -738.222)" fill="#231f20" opacity="0.56" style="mix-blend-mode: overlay;isolation: isolate"/>
  <path id="Caminho_9686" data-name="Caminho 9686" d="M884.781,839.871s-30.072-66.826-30.443-57.545S884.781,839.871,884.781,839.871Z" transform="translate(-646.159 -611.563)" fill="#231f20" opacity="0.56" style="mix-blend-mode: overlay;isolation: isolate"/>
</svg>
