<svg id="Componente_34_2" data-name="Componente 34 – 2" xmlns="http://www.w3.org/2000/svg" xmlns:xlink="http://www.w3.org/1999/xlink" width="237.925" height="288.886" viewBox="0 0 237.925 288.886">
  <defs>
    <linearGradient id="linear-gradient" y1="0.5" x2="1" y2="0.5" gradientUnits="objectBoundingBox">
      <stop offset="0" stop-color="#fff"/>
      <stop offset="1" stop-color="#dbeaff"/>
    </linearGradient>
  </defs>
  <path id="Caminho_9596" data-name="Caminho 9596" d="M298.4,637.476c2.643-.732,168.218-25.146,188.162-110.122s-61.565-89.312-74.571-95.381S404.183,357.4,372.1,352.2,247.237,399.022,254.174,490.935,226.427,657.419,298.4,637.476Z" transform="translate(-251.758 -351.842)" fill="url(#linear-gradient)"/>
  <path id="Caminho_9597" data-name="Caminho 9597" d="M293.814,1016.848a226.2,226.2,0,0,1,9.4-21.767c6.229.317,24.922.567,24.019-7.932-1.084-10.188-15.392-7.8-15.392-7.8s-6.5-10.405-12.139-4.336c-5,5.386.057,16.893,1.263,19.424-6.419,7.241-14.893,18.408-14.487,26.533,0,0-8.5-26-3.576-52.573,5.112-.625,28.979-4.018,31.106-13.111,2.385-10.189-22.111-6.5-22.111-6.5s-7.587-12.356-14.741-8.454c-6.1,3.328,1.653,21.427,4.074,26.7a79.689,79.689,0,0,0-3.857,44.838s-14.794-14.879-13.145-43.046c3.271-2.292,10-8.12,7.727-13.533-2.818-6.72-7.587-3.685-7.587-3.685s-3.9-5.2-7.37-2.818c-2.513,1.728,1.567,11.967,4.009,17.49a65.09,65.09,0,0,0-9.223,19.328c-.389,33.861,6.738,51.84,46.619,40.789.317-.088,3-.521,7.467-1.353,1.952-2.87,4.042-7.279,2.071-11.22,0,0-7.032-.049-11.544,2.6-1.187,3-4.517,5.145-4.715,4.553C291.092,1019.188,292.093,1017.859,293.814,1016.848Z" transform="translate(-251.767 -740.752)" fill="#ddd"/>
  <path id="Caminho_9598" data-name="Caminho 9598" d="M350.538,995.111s25.362-10.08,20.485-9.592S350.538,995.111,350.538,995.111Z" transform="translate(-317.123 -771.15)" opacity="0.51" style="mix-blend-mode: overlay;isolation: isolate"/>
  <path id="Caminho_9599" data-name="Caminho 9599" d="M417.825,1077.85s19.347-5.04,16.583-2.439S417.825,1077.85,417.825,1077.85Z" transform="translate(-361.649 -830.153)" opacity="0.51" style="mix-blend-mode: overlay;isolation: isolate"/>
  <path id="Caminho_9600" data-name="Caminho 9600" d="M340.749,976.307s-2.6-14.47-4.227-12.681S340.749,976.307,340.749,976.307Z" transform="translate(-307.66 -756.573)" opacity="0.51" style="mix-blend-mode: overlay;isolation: isolate"/>
  <path id="Caminho_9601" data-name="Caminho 9601" d="M514.624,1059.177c-5.2-7.8-55.928,2.6-55.928,2.6l-3.252,5.2a124.87,124.87,0,0,0-5.339,32.677c17.494-3.749,44.023-10.4,70.958-20.992C520.1,1073.265,518.081,1064.364,514.624,1059.177Z" transform="translate(-383.009 -817.983)" fill="#ddd"/>
  <path id="Caminho_9602" data-name="Caminho 9602" d="M575.221,1066.646a12.326,12.326,0,0,1-7.582,13.4c-9.429,4.227-12.356,4.227-12.356,4.227l8.315,4.27c8.749-2.737,17.878-5.881,27.065-9.494-.967-5.4-2.982-14.3-6.44-19.489-1.031-1.546-3.865-2.369-7.722-2.708Z" transform="translate(-452.608 -818.362)" opacity="0.51" style="mix-blend-mode: overlay;isolation: isolate"/>
  <path id="Caminho_9603" data-name="Caminho 9603" d="M344.208,814.655c-1.274.419-32.729,9.857-36.323,6.269s-9.374-16.773-6.492-20.956,45.589-15.607,48.152-12.577S368.93,806.511,344.208,814.655Z" transform="translate(-284.087 -639.721)" fill="#fed4d5"/>
  <path id="Caminho_9604" data-name="Caminho 9604" d="M364.381,787.391c-1.129-1.335-10.054.137-19.931,2.559,1.067,4.38,1.537,9.794-.407,14.878-2.605,6.813-13.233,12.758-21.01,16.321,4.757,2.918,34.767-6.084,36.01-6.494C383.767,806.511,366.945,790.421,364.381,787.391Z" transform="translate(-298.923 -639.722)" opacity="0.72" style="mix-blend-mode: overlay;isolation: isolate"/>
  <path id="Caminho_9605" data-name="Caminho 9605" d="M306.011,704.113c.115-1.167,3.347-70.347,3.347-70.347l-9-1.951-15.771,70.18C282.521,722.943,303.939,725.06,306.011,704.113Z" transform="translate(-273.392 -537.107)" fill="#fed4d5"/>
  <path id="Caminho_9606" data-name="Caminho 9606" d="M421.882,725.19l-43.788,22.544,15.174,35.118,26.013-15.608S438.791,720.421,421.882,725.19Z" transform="translate(-335.358 -598.67)" fill="#686868"/>
  <path id="Caminho_9607" data-name="Caminho 9607" d="M521.319,691.653s27.521,6.367,33.157,15.906S522.393,789.5,521.96,804.241s2.168,20.377,2.168,20.377l-66.767,1.734s-5.2-98.85,11.706-118.36c0,0-1.734-3.468,12.573-9.1S521.319,691.653,521.319,691.653Z" transform="translate(-387.311 -576.704)" fill="#686868"/>
  <path id="Caminho_9608" data-name="Caminho 9608" d="M497.369,469.544s-3.577,3.577-9.755,0-6.828-8.454-6.828-8.454l9.1-.65-4.227-5.853s12.682,0,22.111-1.951,26.013-13.982,35.768,1.3c0,0,4.552-4.552,12.682,2.6s-2.6,50.076-18.534,45.523-14.307-28.94-14.307-28.94S500.946,476.7,497.369,469.544Z" transform="translate(-403.312 -414.343)" fill="#f7941e"/>
  <path id="Caminho_9609" data-name="Caminho 9609" d="M551.906,498.333c-3.74-1.951-5.853-7.642-5.853-7.642s-2.927,5.2-6.666,2.6-3.251-9.918-3.739-9.918-30.24,8.942-42.271-4.877c0,0-1.951,6.991,1.138,10.4,0,0-6.1,1.146-12.391-4.989a14.1,14.1,0,0,0,6.376,6.94c6.178,3.577,9.755,0,9.755,0,3.577,7.153,26.013,3.577,26.013,3.577s-1.626,24.388,14.307,28.94c10.274,2.936,18.375-13.866,20.661-28.091C557.343,497.179,554.3,499.579,551.906,498.333Z" transform="translate(-404.196 -435.654)" opacity="0.5" style="mix-blend-mode: overlay;isolation: isolate"/>
  <path id="Caminho_9610" data-name="Caminho 9610" d="M580.14,614.758s-4.564,19.623,6.845,26.012c0,0-10.952,19.622-21.9,12.777s-9.127-8.671-9.127-8.671,5.477-1.825,6.845-6.389,2.282-17.8,2.282-17.8Z" transform="translate(-452.977 -525.82)" fill="#fed4d5"/>
  <path id="Caminho_9611" data-name="Caminho 9611" d="M597.547,614.758l-15.059,5.933s-.122,1.766-.343,4.221c.361.168.724.34,1.1.548l1.389,4.176s3.163,8.613,9.775,11.106c4.8,1.81-1.987,9.888-6.071,14.187,8.689-.977,16.053-14.159,16.053-14.159C592.983,634.381,597.547,614.758,597.547,614.758Z" transform="translate(-470.383 -525.82)" opacity="0.72" style="mix-blend-mode: overlay;isolation: isolate"/>
  <path id="Caminho_9612" data-name="Caminho 9612" d="M521.436,505.49s-10.04,44.264,5.02,52.022,41.983-16.428,41.983-16.428l-3.651-7.3s7.3,3.651,8.214-6.389-2.282-15.059-6.845-11.409-5.02,7.758-5.02,7.758-10.039-5.019-3.194-16.428C557.943,507.315,527.368,514.616,521.436,505.49Z" transform="translate(-428.041 -453.515)" fill="#fed4d5"/>
  <path id="Caminho_9613" data-name="Caminho 9613" d="M571.779,852.971c.363-12.368,26.965-65.315,32.193-87.677-14.282,6.357-37.346,25.617-49.1,86.81,0,0-13.006,9.1-22.978,8.238,0,0,19.943,9.1,28.615,6.5l-.764,6.872,14.2-.369S571.345,867.712,571.779,852.971Z" transform="translate(-437.13 -625.434)" opacity="0.51" style="mix-blend-mode: overlay;isolation: isolate"/>
  <path id="Caminho_9614" data-name="Caminho 9614" d="M714.957,870.308c.3,1.306,6.829,33.492,2.927,36.743s-17.559,7.8-21.461,4.552-11.381-46.823-8.129-49.1S709.1,844.945,714.957,870.308Z" transform="translate(-540.097 -685.367)" fill="#fed4d5"/>
  <path id="Caminho_9615" data-name="Caminho 9615" d="M596.073,958.3c-1.151-.221-69.748-9.755-69.748-9.755l-2.764,8.78,68.447,22.111C612.679,983.41,616.744,962.274,596.073,958.3Z" transform="translate(-431.617 -746.695)" fill="#fed4d5"/>
  <path id="Caminho_9616" data-name="Caminho 9616" d="M617.571,870.31c-3.1-13.452-9.5-15.469-15.31-14.058,3.028,10.083,8.1,28.6,9.9,44.794-1.407,2.626-6.382,6.4-23.742,4.49-25.58-2.818-45.09-11.923-47.257-9.1a8.192,8.192,0,0,0-.832,1.4l62.776,20.28c12.559,2.415,18.937-4.423,17.4-11.057C624.4,903.8,617.872,871.616,617.571,870.31Z" transform="translate(-442.71 -685.369)" opacity="0.51" style="mix-blend-mode: overlay;isolation: isolate"/>
  <path id="Caminho_9617" data-name="Caminho 9617" d="M676.9,722.574s4.444-.867,10.839,5.419,16.15,58.313,17.125,58.963-42.6,8.129-42.6,8.129S646.009,722.9,676.9,722.574Z" transform="translate(-520.573 -597.138)" fill="#686868"/>
  <path id="Caminho_9618" data-name="Caminho 9618" d="M615.487,546.894c-3.9,2.439-2.926,10.568-2.926,10.568a5.711,5.711,0,0,0-3.9,5.528c0,4.39-8.129,15.608-15.77,19.347a31.043,31.043,0,0,0-3.38,1.955c13.039-4.483,26.145-16.247,26.145-16.247l-3.651-7.3s7.3,3.651,8.214-6.389a28.329,28.329,0,0,0-.142-7.116A3.623,3.623,0,0,0,615.487,546.894Z" transform="translate(-475.256 -480.476)" opacity="0.72" style="mix-blend-mode: overlay;isolation: isolate"/>
  <g id="Grupo_8048" data-name="Grupo 8048" transform="translate(55.632 174.313)">
    <path id="Caminho_9619" data-name="Caminho 9619" d="M416.217,867.142c0,.737,1.228,32.437,1.228,32.437-.087,4.1,11.462,4.343,11.55.245l5.9-18.921Z" transform="translate(-416.217 -867.142)" fill="#ff9c78"/>
    <path id="Caminho_9620" data-name="Caminho 9620" d="M426.851,959.719l-1.966,1.229-1.72-1.966s-2.039-.4-3.5-.77c.04,1.023.063,1.63.063,1.63-.087,4.1,11.462,4.343,11.55.245l.068-.219Z" transform="translate(-418.497 -927.405)" opacity="0.72" style="mix-blend-mode: overlay;isolation: isolate"/>
  </g>
  <g id="Grupo_8049" data-name="Grupo 8049" transform="translate(98.636 182.054)">
    <path id="Caminho_9621" data-name="Caminho 9621" d="M560.051,894.2s-1.691,20.848-1.72,21.625c-.119,3.2-13.388,2.708-13.27-.492l-1.72-16.955,14.99-8.355Z" transform="translate(-543.342 -890.025)" fill="#ff9c78"/>
    <path id="Caminho_9622" data-name="Caminho 9622" d="M559.406,960.39l-.86,1.721-1.6-1.352a78.948,78.948,0,0,1-8.826.094l.1,1.012c-.118,3.2,13.151,3.691,13.27.492,0-.135.061-.885.148-2.016Z" transform="translate(-546.505 -936.554)" opacity="0.72" style="mix-blend-mode: overlay;isolation: isolate"/>
  </g>
  <path id="Caminho_9623" data-name="Caminho 9623" d="M447.183,781.229A33.583,33.583,0,1,1,413.6,747.645,33.583,33.583,0,0,1,447.183,781.229Z" transform="translate(-336.63 -613.755)" fill="#ffbea6"/>
  <path id="Caminho_9624" data-name="Caminho 9624" d="M469.6,939.495l-.407-.406L467,936.894a11.343,11.343,0,0,0-7.316-.813c-3.9.975-10.243-.325-9.918,1.138s-15.933-4.39-15.608-2.439,3.089,5.365,10.73,10.567,19.185,3.9,19.185,3.9,5.528,1.138,7.154.162,2.114-8.129,2.114-8.129Z" transform="translate(-372.453 -737.321)" fill="#fed4d5"/>
  <circle id="Elipse_1016" data-name="Elipse 1016" cx="23.918" cy="23.918" r="23.918" transform="translate(80.005 172.879) rotate(-45)" fill="#ffbea6"/>
  <path id="Caminho_9625" data-name="Caminho 9625" d="M618.966,861.467c.737-.491,12.286.737,12.286.737l-1.474,17.2-24.328,4.423Z" transform="translate(-485.806 -688.997)" fill="#ffbea6"/>
  <path id="Caminho_9626" data-name="Caminho 9626" d="M575.615,804.674s-6.553-5.406-8.519-3.276-1.638,9.993-1.638,9.993S573.485,811.227,575.615,804.674Z" transform="translate(-459.328 -648.996)" opacity="0.72" style="mix-blend-mode: overlay;isolation: isolate"/>
  <path id="Caminho_9627" data-name="Caminho 9627" d="M636.607,858.637c0,1.12-.633,2.027-1.413,2.027s-1.413-.907-1.413-2.027.633-2.027,1.413-2.027S636.607,857.517,636.607,858.637Z" transform="translate(-504.552 -685.86)" fill="#262262"/>
  <g id="Grupo_8050" data-name="Grupo 8050" transform="translate(85.734 186.477)">
    <path id="Caminho_9628" data-name="Caminho 9628" d="M521.914,907.278s-1.691,20.848-1.72,21.625c-.118,3.2-13.388,2.707-13.27-.492l-1.72-16.955,14.99-8.355Z" transform="translate(-505.204 -903.101)" fill="#ffbea6"/>
    <path id="Caminho_9629" data-name="Caminho 9629" d="M521.269,973.466l-.86,1.72-1.6-1.352a79.049,79.049,0,0,1-8.826.094l.1,1.012c-.118,3.2,13.151,3.691,13.269.492.005-.135.061-.885.149-2.016Z" transform="translate(-508.368 -949.63)" opacity="0.72" style="mix-blend-mode: overlay;isolation: isolate"/>
  </g>
  <g id="Grupo_8051" data-name="Grupo 8051" transform="translate(44.943 177.384)">
    <path id="Caminho_9630" data-name="Caminho 9630" d="M384.616,876.222c0,.737,1.229,32.437,1.229,32.437-.087,4.1,11.462,4.343,11.55.246l5.9-18.922Z" transform="translate(-384.616 -876.222)" fill="#ffbea6"/>
    <path id="Caminho_9631" data-name="Caminho 9631" d="M395.251,968.8l-1.966,1.229-1.72-1.966s-2.039-.4-3.5-.77c.04,1.023.063,1.63.063,1.63-.087,4.1,11.462,4.343,11.55.246l.068-.219Z" transform="translate(-386.896 -936.487)" opacity="0.72" style="mix-blend-mode: overlay;isolation: isolate"/>
  </g>
  <g id="Grupo_8052" data-name="Grupo 8052" transform="translate(56.819 137.277)">
    <path id="Caminho_9632" data-name="Caminho 9632" d="M460.188,771.472a2.927,2.927,0,0,1-1.776-.6c-.217-.163-18.84-13.911-34.024-3.064a2.949,2.949,0,0,1-3.428-4.8c18.753-13.393,40.111,2.479,41.011,3.162a2.949,2.949,0,0,1-1.784,5.3Z" transform="translate(-419.726 -757.658)" fill="#ff9c78"/>
  </g>
  <g id="Grupo_8053" data-name="Grupo 8053" transform="translate(41.413 91.122)">
    <path id="Caminho_9633" data-name="Caminho 9633" d="M410.451,641.921a16.041,16.041,0,1,1-16.041-16.042A16.041,16.041,0,0,1,410.451,641.921Z" transform="translate(-376.952 -624.301)" fill="#f9ed32"/>
    <circle id="Elipse_1017" data-name="Elipse 1017" cx="12.72" cy="12.72" r="12.72" transform="matrix(0.532, -0.847, 0.847, 0.532, 0, 21.537)" fill="#f7941e"/>
    <path id="Caminho_9634" data-name="Caminho 9634" d="M418.478,649a6.116,6.116,0,0,0-1.176-.987c-.11-.07-.262-.147-.4-.221v-3.7a5.7,5.7,0,0,1,.465.686,5.247,5.247,0,0,1,.477,1.268,2.076,2.076,0,0,0,.132.484.759.759,0,0,0,.182.245.744.744,0,0,0,.465.163.679.679,0,0,0,.534-.231.865.865,0,0,0,.208-.6v-4.147a1.467,1.467,0,0,0-.158-.773.546.546,0,0,0-.5-.245.593.593,0,0,0-.49.277l-.276.363a.4.4,0,0,1-.353.165,1.182,1.182,0,0,1-.415-.1c-.1-.044-.179-.07-.276-.109v-3.15h-1.68v2.629a7.024,7.024,0,0,0-.922-.136v1.382a4.469,4.469,0,0,1,.922.367v4.355c-.393-.174-.739-.329-1.03-.462v-8.135h-1.68v2.565a6.55,6.55,0,0,0-2.851,1.007,5.056,5.056,0,0,0-1.646,1.954,5.969,5.969,0,0,0-.59,2.647,5.248,5.248,0,0,0,2.363,4.487,7.642,7.642,0,0,0,1.1.678c.31.157.89.422,1.626.749v4.7a3.448,3.448,0,0,1-1.569-.82,6.478,6.478,0,0,1-1.276-1.595,8.257,8.257,0,0,1-.835-2.024,1.44,1.44,0,0,0-.271-.6.521.521,0,0,0-.433-.158.658.658,0,0,0-.5.257.914.914,0,0,0-.2.6V657.4q0,1.082.7,1.083a.64.64,0,0,0,.49-.277,2.442,2.442,0,0,1,.4-.408.7.7,0,0,1,.378-.082,1,1,0,0,1,.339.063c.117.041.331.135.641.277a5.463,5.463,0,0,0,2.135.572V661.2h1.68v-2.631a6.685,6.685,0,0,0,1.03-.144V661.2h1.68v-3.4c.012-.006.026-.008.038-.014a5.706,5.706,0,0,0,3.016-5.078A5.194,5.194,0,0,0,418.478,649Zm-6.423-3.878a1.837,1.837,0,0,1-.34-1.1,1.57,1.57,0,0,1,.409-1.1,1.938,1.938,0,0,1,.393-.3v2.975A2.47,2.47,0,0,1,412.056,645.118Zm3.136,11.363a2.853,2.853,0,0,1-.993.539V653.26a4.648,4.648,0,0,1,.723.462,2.268,2.268,0,0,1,.307.375v2.33C415.212,656.442,415.208,656.465,415.191,656.481Z" transform="translate(-396.183 -632.576)" fill="#fff200"/>
  </g>
  <path id="Caminho_9635" data-name="Caminho 9635" d="M460.851,774.345c-2.334-1.72-17.324-13.146-36-1.843-.9.547-1.726,1.037-2.456,1.585a2.949,2.949,0,0,0,3.76.283c15.184-10.847,33.806,2.9,34.024,3.064a2.873,2.873,0,0,0,1.375.533C461.947,776.739,462.069,775.243,460.851,774.345Z" transform="translate(-364.673 -626.94)" opacity="0.72" style="mix-blend-mode: overlay;isolation: isolate"/>
  <path id="Caminho_9636" data-name="Caminho 9636" d="M331.489,608.61s20.426-14.145,28.555-11.543S375.652,610.4,373.05,612.35s-6.828-2.927-6.828-2.927-6.178,7.154-10.73,7.154-11.056-3.252-12.031-2.276-2.6,5.853-4.878,4.878S331.489,608.61,331.489,608.61Z" transform="translate(-304.518 -513.902)" fill="#fed4d5"/>
  <g id="Grupo_8054" data-name="Grupo 8054" transform="translate(174.246 67.988)">
    <path id="Caminho_9637" data-name="Caminho 9637" d="M804.917,584.345a20.593,20.593,0,1,1-6.539-28.38A20.594,20.594,0,0,1,804.917,584.345Z" transform="translate(-766.861 -552.828)" fill="#f9ed32"/>
    <path id="Caminho_9638" data-name="Caminho 9638" d="M810.068,590.329a16.329,16.329,0,1,1-5.185-22.5A16.328,16.328,0,0,1,810.068,590.329Z" transform="translate(-775.484 -561.106)" fill="#f7941e"/>
    <path id="Caminho_9639" data-name="Caminho 9639" d="M810.3,589.061a7.9,7.9,0,0,0-.607-1.875c-.071-.15-.186-.339-.28-.51l2.52-4.028a7.354,7.354,0,0,1,.038,1.063,6.765,6.765,0,0,1-.344,1.706,2.633,2.633,0,0,0-.186.617.966.966,0,0,0,.031.391.954.954,0,0,0,.4.494.873.873,0,0,0,.739.111,1.107,1.107,0,0,0,.634-.509l2.823-4.514a1.877,1.877,0,0,0,.355-.948.7.7,0,0,0-.373-.6.761.761,0,0,0-.722-.032l-.548.207a.511.511,0,0,1-.5-.06,1.519,1.519,0,0,1-.383-.392c-.083-.118-.148-.2-.226-.306l2.145-3.429-1.829-1.144-1.79,2.862a8.915,8.915,0,0,0-.911-.776l-.941,1.5a5.751,5.751,0,0,1,.753,1.028l-2.965,4.739c-.31-.457-.581-.862-.806-1.2l5.538-8.853-1.828-1.144-1.747,2.792a8.408,8.408,0,0,0-3.789-.845,6.5,6.5,0,0,0-3.122,1.006,7.658,7.658,0,0,0-2.445,2.479,6.735,6.735,0,0,0-.482,6.492,9.81,9.81,0,0,0,.735,1.487c.23.382.681,1.064,1.26,1.921l-3.2,5.112a4.425,4.425,0,0,1-1.149-1.96,8.3,8.3,0,0,1-.3-2.6,10.583,10.583,0,0,1,.469-2.772,1.861,1.861,0,0,0,.111-.833.67.67,0,0,0-.365-.467.845.845,0,0,0-.721-.063,1.17,1.17,0,0,0-.626.514l-3.115,4.979q-.737,1.178.029,1.657a.822.822,0,0,0,.723.032,3.1,3.1,0,0,1,.715-.171.894.894,0,0,1,.466.168,1.289,1.289,0,0,1,.327.3c.1.125.268.372.509.738a7.013,7.013,0,0,0,1.934,2.075l-1.749,2.8,1.829,1.144,1.791-2.864a8.5,8.5,0,0,0,1.219.545l-1.889,3.02,1.829,1.144,2.317-3.7c.016,0,.034.008.05.01a7.325,7.325,0,0,0,6.74-3.473A6.67,6.67,0,0,0,810.3,589.061Zm-4.351-8.593a2.361,2.361,0,0,1,.379-1.428,2.02,2.02,0,0,1,1.2-.92,2.538,2.538,0,0,1,.635-.063l-2.026,3.239A3.188,3.188,0,0,1,805.95,580.468Zm-4.323,14.5a3.672,3.672,0,0,1-1.448-.09l2.559-4.092a5.97,5.97,0,0,1,.472.995,2.905,2.905,0,0,1,.079.616l-1.586,2.535C801.676,594.942,801.655,594.964,801.627,594.97Z" transform="translate(-783.622 -566.476)" fill="#fff200"/>
  </g>
  <g id="Grupo_8055" data-name="Grupo 8055" transform="translate(131.435 0.681)">
    <path id="Caminho_9640" data-name="Caminho 9640" d="M669.078,360.14a16.041,16.041,0,1,1-22.49-2.976A16.041,16.041,0,0,1,669.078,360.14Z" transform="translate(-640.303 -353.855)" fill="#f9ed32"/>
    <path id="Caminho_9641" data-name="Caminho 9641" d="M672.984,368.323a12.72,12.72,0,1,1-17.833-2.359A12.72,12.72,0,0,1,672.984,368.323Z" transform="translate(-646.831 -360.131)" fill="#f7941e"/>
    <path id="Caminho_9642" data-name="Caminho 9642" d="M674.42,375.157a6.15,6.15,0,0,0-1.534-.069c-.129.011-.3.043-.448.065l-2.251-2.938a5.744,5.744,0,0,1,.786.262,5.3,5.3,0,0,1,1.15.716,2.014,2.014,0,0,0,.4.3.685.685,0,0,0,.763-.07.68.68,0,0,0,.282-.509.861.861,0,0,0-.2-.6l-2.522-3.292a1.461,1.461,0,0,0-.595-.518.545.545,0,0,0-.543.108.591.591,0,0,0-.221.518l0,.456a.4.4,0,0,1-.179.345,1.188,1.188,0,0,1-.391.173c-.109.028-.185.053-.285.081l-1.916-2.5-1.333,1.022,1.6,2.087a6.914,6.914,0,0,0-.815.453l.841,1.1a4.477,4.477,0,0,1,.955-.269l2.649,3.456c-.418.1-.787.188-1.1.259l-4.948-6.457-1.334,1.022,1.561,2.036a6.544,6.544,0,0,0-1.65,2.534,5.05,5.05,0,0,0-.118,2.552,5.965,5.965,0,0,0,1.141,2.46,5.246,5.246,0,0,0,4.6,2.124,7.649,7.649,0,0,0,1.285-.131c.341-.064.962-.206,1.745-.395l2.856,3.728a3.443,3.443,0,0,1-1.743.3,6.473,6.473,0,0,1-1.983-.489,8.275,8.275,0,0,1-1.894-1.1,1.455,1.455,0,0,0-.577-.309.522.522,0,0,0-.44.139.66.66,0,0,0-.243.509.91.91,0,0,0,.2.6l2.782,3.631q.658.859,1.217.431a.641.641,0,0,0,.221-.519,2.387,2.387,0,0,1,.07-.568.7.7,0,0,1,.25-.294,1.012,1.012,0,0,1,.308-.157c.118-.038.344-.094.678-.169a5.47,5.47,0,0,0,2.042-.845l1.563,2.039,1.333-1.022-1.6-2.089a6.724,6.724,0,0,0,.73-.74l1.688,2.2L680.6,385.8l-2.07-2.7c.005-.012.016-.022.021-.034a5.709,5.709,0,0,0-.694-5.865A5.2,5.2,0,0,0,674.42,375.157Zm-7.457.829a1.84,1.84,0,0,1-.938-.666,1.573,1.573,0,0,1-.345-1.123,1.961,1.961,0,0,1,.127-.48l1.81,2.362A2.5,2.5,0,0,1,666.963,375.986Zm9.4,7.112a2.86,2.86,0,0,1-.461,1.032l-2.286-2.984a4.615,4.615,0,0,1,.854-.073,2.249,2.249,0,0,1,.471.11l1.417,1.849C676.357,383.054,676.367,383.075,676.363,383.1Z" transform="translate(-655.267 -363.009)" fill="#fff200"/>
  </g>
  <g id="Grupo_8056" data-name="Grupo 8056" transform="translate(163.528 51.102)">
    <path id="Caminho_9643" data-name="Caminho 9643" d="M748.193,519.394a8.784,8.784,0,1,1,3.465-11.93A8.784,8.784,0,0,1,748.193,519.394Z" transform="translate(-735.174 -502.91)" fill="#f9ed32"/>
    <path id="Caminho_9644" data-name="Caminho 9644" d="M751.054,521.411a6.966,6.966,0,1,1,2.747-9.46A6.965,6.965,0,0,1,751.054,521.411Z" transform="translate(-738.851 -506.504)" fill="#f7941e"/>
    <path id="Caminho_9645" data-name="Caminho 9645" d="M752.091,522.363a3.368,3.368,0,0,0,.164-.825c0-.071,0-.165,0-.248l1.776-.976a3.183,3.183,0,0,1-.207.4,2.915,2.915,0,0,1-.483.564,1.111,1.111,0,0,0-.2.191.375.375,0,0,0-.025.418.371.371,0,0,0,.252.195.47.47,0,0,0,.342-.058l1.99-1.094a.8.8,0,0,0,.329-.28.3.3,0,0,0-.014-.3.325.325,0,0,0-.262-.162l-.247-.037a.219.219,0,0,1-.172-.125.655.655,0,0,1-.061-.226c-.006-.061-.014-.1-.02-.161l1.512-.831-.443-.806-1.261.694a3.833,3.833,0,0,0-.178-.479l-.663.365a2.468,2.468,0,0,1,.067.54l-2.089,1.149c-.021-.234-.037-.441-.05-.616l3.9-2.146-.443-.806-1.231.677a3.58,3.58,0,0,0-1.235-1.1,2.766,2.766,0,0,0-1.372-.274,3.269,3.269,0,0,0-1.426.415,2.873,2.873,0,0,0-1.529,2.318,4.2,4.2,0,0,0-.036.706c.006.19.032.538.07.978l-2.254,1.239a1.891,1.891,0,0,1-.021-.969,3.549,3.549,0,0,1,.429-1.033,4.54,4.54,0,0,1,.751-.935.785.785,0,0,0,.214-.287.286.286,0,0,0-.039-.25.362.362,0,0,0-.255-.173.5.5,0,0,0-.341.061l-2.2,1.207q-.519.286-.334.623a.35.35,0,0,0,.263.162,1.31,1.31,0,0,1,.3.085.373.373,0,0,1,.139.159.548.548,0,0,1,.06.179q.016.1.036.381a2.981,2.981,0,0,0,.289,1.175l-1.233.678.443.806,1.262-.694a3.666,3.666,0,0,0,.34.456l-1.331.733.444.806,1.633-.9c.006,0,.011.01.017.014a3.124,3.124,0,0,0,3.232.108A2.845,2.845,0,0,0,752.091,522.363Zm.166-4.106a1.007,1.007,0,0,1,.438-.453.859.859,0,0,1,.637-.094,1.037,1.037,0,0,1,.249.108l-1.427.785A1.344,1.344,0,0,1,752.257,518.257Zm-4.625,4.5a1.571,1.571,0,0,1-.521-.335l1.8-.992a2.548,2.548,0,0,1-.031.469,1.257,1.257,0,0,1-.1.246l-1.118.614C747.656,522.76,747.644,522.764,747.632,522.761Z" transform="translate(-741.453 -511.571)" fill="#fff200"/>
  </g>
  <path id="Caminho_9646" data-name="Caminho 9646" d="M726.611,787.829c-7.479,7.479-15.608,7.479-15.608,7.479l15.058,4.964c7.9-1.476,14.261-2.761,13.882-3.013-.975-.651-10.73-52.677-17.125-58.963-.07-.069-.137-.125-.207-.193C725.607,750.065,732.715,781.725,726.611,787.829Z" transform="translate(-555.652 -607.441)" opacity="0.51" style="mix-blend-mode: overlay;isolation: isolate"/>
  <path id="Caminho_9647" data-name="Caminho 9647" d="M760.628,746.609a48.031,48.031,0,0,0-22.56-12.421s.65,25.363,9.1,40.32c0,0-8.455-3.9-15.608-3.9,0,0-3.252,8.454,0,16.258,0,0-9.755-12.356-27.964-20.81,0,0,1.951,28.615,10.406,37.719,0,0-16.259-6.5-27.964,1.951,0,0,3.9,15.608,11.706,20.811,0,0-26.663.65-35.768,13.657,0,0,14.957,7.154,16.909,7.154,0,0-8.082,6.577-10.441,15.265,40.642-17.053,80.417-43.279,89.564-82.249C761.076,767.3,761.737,756.157,760.628,746.609Z" transform="translate(-523.212 -604.85)" fill="#686868"/>
  <path id="Caminho_9648" data-name="Caminho 9648" d="M723.714,1037.387c-1.3,0-38.369-1.625-37.719,2.927S723.714,1037.387,723.714,1037.387Z" transform="translate(-539.098 -805.298)" opacity="0.51" style="mix-blend-mode: overlay;isolation: isolate"/>
  <path id="Caminho_9649" data-name="Caminho 9649" d="M787.685,976.734c0-.325-20.16-19.835-22.111-17.884S787.685,976.734,787.685,976.734Z" transform="translate(-591.688 -753.424)" opacity="0.51" style="mix-blend-mode: overlay;isolation: isolate"/>
  <path id="Caminho_9650" data-name="Caminho 9650" d="M834.654,905.806s-22.762-36.418-23.737-29.915S834.654,905.806,834.654,905.806Z" transform="translate(-621.749 -698.104)" opacity="0.51" style="mix-blend-mode: overlay;isolation: isolate"/>
  <path id="Caminho_9651" data-name="Caminho 9651" d="M893.049,881.941c-.325-.976-10.08-23.737-11.056-18.534S893.049,881.941,893.049,881.941Z" transform="translate(-668.764 -689.847)" opacity="0.51" style="mix-blend-mode: overlay;isolation: isolate"/>
  <path id="Caminho_9652" data-name="Caminho 9652" d="M919.926,791.824s-6.178-25.363-8.779-21.786S919.926,791.824,919.926,791.824Z" transform="translate(-687.836 -628.344)" opacity="0.51" style="mix-blend-mode: overlay;isolation: isolate"/>
  <path id="Caminho_9653" data-name="Caminho 9653" d="M280.665,987.931s-1.788-10.568-3.252-8.617S280.665,987.931,280.665,987.931Z" transform="translate(-268.548 -766.897)" opacity="0.51" style="mix-blend-mode: overlay;isolation: isolate"/>
  <path id="Caminho_9654" data-name="Caminho 9654" d="M289.98,1000.579s3.251-7.316,4.227-5.2S289.98,1000.579,289.98,1000.579Z" transform="translate(-277.05 -777.431)" opacity="0.51" style="mix-blend-mode: overlay;isolation: isolate"/>
  <path id="Caminho_9655" data-name="Caminho 9655" d="M397.589,1062.2s-.975-14.958-2.6-12.356S397.589,1062.2,397.589,1062.2Z" transform="translate(-346.291 -813.525)" opacity="0.51" style="mix-blend-mode: overlay;isolation: isolate"/>
</svg>
