<svg id="Componente_35_1" data-name="Componente 35 – 1" xmlns="http://www.w3.org/2000/svg" xmlns:xlink="http://www.w3.org/1999/xlink" width="237.922" height="278.537" viewBox="0 0 237.922 278.537">
  <defs>
    <linearGradient id="linear-gradient" y1="0.5" x2="1" y2="0.5" gradientUnits="objectBoundingBox">
      <stop offset="0" stop-color="#fff"/>
      <stop offset="1" stop-color="#dbeaff"/>
    </linearGradient>
  </defs>
  <path id="Caminho_9545" data-name="Caminho 9545" d="M420.025,529s129.931-20.859,154.266,41.717-43.455,86.91-13.906,142.533-201.632,132.1-213.8,64.313,78.219-118.2,43.455-137.318S300.957,547.688,420.025,529Z" transform="translate(-341.751 -525.665)" fill="url(#linear-gradient)"/>
  <g id="Grupo_8043" data-name="Grupo 8043" transform="translate(3.698 68.976)">
    <path id="Caminho_9546" data-name="Caminho 9546" d="M406.988,984.578c-2.607-19.555,7.17-35.85,7.17-35.85s-25.421-.652-28.68,29.984c0,0-7.17-48.887,21.51-60.62,0,0-26.073-12.385-38.458,13.037,0,0,5.214-44.324,37.154-53.45,0,0-5.393-5.377-15.472-5.59-16.258,25.551-51.52,62.21-43.626,106.189,3.971,22.127,31.281,28.877,65.238,26A89.879,89.879,0,0,1,406.988,984.578Z" transform="translate(-345.449 -795.352)" fill="#ddd"/>
    <path id="Caminho_9547" data-name="Caminho 9547" d="M773.613,711.5c-3.921-7.029-12.481-18.348-27.942-21-22.814-3.911-28.681,5.866-12.385,26.073s12.385,27.376,12.385,27.376-11.081-26.725-31.288-24.117,25.421,74.96,25.421,74.96-50.191-44.976-54.754-26.725S729.375,831.3,729.375,831.3s-41.065-18.251-34.547-.652a50.8,50.8,0,0,0,20.859,25.422l-1.092,10.2c31.92-17.334,52.522-38.9,42.375-58C735.838,768.485,764.477,744.7,773.613,711.5Z" transform="translate(-542.034 -689.652)" fill="#333"/>
  </g>
  <path id="Caminho_9548" data-name="Caminho 9548" d="M599.9,581.314s17.6-48.52-18.688-49.389c0,0-6.518-5.649-18.686-.652s-25.2,17.817-23.465,29.115,8.039,20.424,8.691,20.424,35.634-9.126,42.8-4.563S599.9,581.314,599.9,581.314Z" transform="translate(-453.836 -527.719)" fill="#f7941e"/>
  <path id="Caminho_9549" data-name="Caminho 9549" d="M601.819,562.9c-.827.852-1.377,2.321-.226,4.787a7.566,7.566,0,0,1-.978,8.311,9.061,9.061,0,0,0-7.5-6.518c-6.355-1.14-8.311,8.311-8.311,8.311-4.4-2.444-2.444-13.036-2.444-13.036-7.17,6.844-28.68,7.5-28.68,7.5,1.629,2.118,7.333,2.607,7.333,2.607-12.385,3.911-17.436-1.3-20.044.163-.953.536-1.314,2.861-1.394,5.59,1.884,10.97,7.927,19.722,8.564,19.722s35.634-9.126,42.8-4.563,9.346,5.065,9.346,5.065S608.746,577.491,601.819,562.9Z" transform="translate(-454.226 -547.237)" opacity="0.51" style="mix-blend-mode: overlay;isolation: isolate"/>
  <path id="Caminho_9550" data-name="Caminho 9550" d="M427.434,931.352c-.776-.108-68.007,7.822-68.66,14.992s.435,15.427,7.6,17.816,62.358-4.128,68.442-10.212S435.256,932.438,427.434,931.352Z" transform="translate(-349.378 -760.712)" fill="#01b2b8"/>
  <path id="Caminho_9551" data-name="Caminho 9551" d="M536.1,760.37l-4.346,1.521s-5.649,1.086-7.17,8.691-18.251,59.534-15.644,69.311,13.688,13.254,18.9,10.43S536.1,760.37,536.1,760.37Z" transform="translate(-436.314 -661.649)" fill="#686868"/>
  <path id="Caminho_9552" data-name="Caminho 9552" d="M598.442,1047.265a52.414,52.414,0,0,0-5.866-14.666l-60.946,2.281s-2.933,10.1-4.889,19.555c-1.21,5.848-2.17,26.786-2.726,41.907,25.411-3.24,53.578-11.3,78.122-22C601.072,1067.017,599.841,1053.325,598.442,1047.265Z" transform="translate(-445.208 -819.373)" fill="#ddd"/>
  <g id="Grupo_8044" data-name="Grupo 8044" transform="translate(84.139 213.226)" opacity="0.51" style="mix-blend-mode: overlay;isolation: isolate">
    <path id="Caminho_9553" data-name="Caminho 9553" d="M645.5,1037.752s3.826,2.668.132,5.71-13.037,4.345-12.385,4.78,12.82,3.693,14.775,8.908c1.417,3.78.1,17.229-.738,24.363,6.186-2.223,12.261-4.615,18.121-7.168-1.065-7.329-2.3-21.021-3.695-27.081a52.415,52.415,0,0,0-5.866-14.666l-15.581.583Z" transform="translate(-592.616 -1032.599)"/>
    <path id="Caminho_9554" data-name="Caminho 9554" d="M562.2,1147.792c-.812-5.22-2.694-13.072-6.824-14.781-6.3-2.607-18.686-.652-18.686-.652s12.6,5.649,12.385,10.429c-.1,2.133-2.574,5.691-5.287,8.98C549.867,1150.669,556.022,1149.347,562.2,1147.792Z" transform="translate(-536.694 -1089.99)"/>
  </g>
  <path id="Caminho_9555" data-name="Caminho 9555" d="M541.083,758.317c-.649.064-10.477,26.579-11.954,49.213s-7.249,21.675-7.249,21.675-.489,10.528,10.143,14.282S541.083,758.317,541.083,758.317Z" transform="translate(-443.969 -660.459)" opacity="0.51" style="mix-blend-mode: overlay;isolation: isolate"/>
  <path id="Caminho_9556" data-name="Caminho 9556" d="M601.274,727.124s27.585,6.383,33.234,15.943-32.157,82.13-32.591,96.906,2.172,20.424,2.172,20.424l-66.921,1.738s3.875-97.615,10.393-118.31c0,0-.4-3.8,13.941-9.448S601.274,727.124,601.274,727.124Z" transform="translate(-452.829 -642.387)" fill="#686868"/>
  <path id="Caminho_9557" data-name="Caminho 9557" d="M639.716,665.141s-4.573,19.668,6.861,26.071c0,0-10.977,19.668-21.954,12.807s-9.148-8.69-9.148-8.69,5.489-1.83,6.861-6.4,2.287-17.838,2.287-17.838Z" transform="translate(-498.132 -606.475)" fill="#fed4d5"/>
  <path id="Caminho_9558" data-name="Caminho 9558" d="M549.434,597.3s5.971,45.1,22.825,47.151S606,614.4,606,614.4l-5.973-5.592s8.133.89,5.5-8.864-7.386-13.361-10.4-8.341-2.018,9.039-2.018,9.039-11.183-1.224-8.72-14.329C584.384,586.31,558.187,603.814,549.434,597.3Z" transform="translate(-459.936 -560.802)" fill="#fed4d5"/>
  <path id="Caminho_9559" data-name="Caminho 9559" d="M636.035,874.365c.364-12.4,27.027-65.465,32.268-87.879-14.315,6.371-37.432,25.677-49.215,87.01,0,0-13.037,9.125-23.031,8.256,0,0,19.99,9.125,28.68,6.518l-.765,6.888,14.236-.37S635.6,889.14,636.035,874.365Z" transform="translate(-486.948 -676.78)" opacity="0.51" style="mix-blend-mode: overlay;isolation: isolate"/>
  <g id="Grupo_8045" data-name="Grupo 8045" transform="translate(0 141.959)">
    <path id="Caminho_9560" data-name="Caminho 9560" d="M397.252,868.6l-3.476-3.259-3.042.652,1.955-1.738-3.259-1.086-29.55,10.647H348.365l-9.125,3.476s2.172,5.215,2.824,5.215,35.851-2.173,35.851-2.173Z" transform="translate(-338.153 -863.166)" fill="#fff"/>
    <path id="Caminho_9561" data-name="Caminho 9561" d="M388.313,880.111c1.3,0,40.413-9.126,40.848-7.822s19.555,69.963,19.555,69.963l-45.193,5.214Z" transform="translate(-366.585 -868.378)" fill="#fff200"/>
    <path id="Caminho_9562" data-name="Caminho 9562" d="M366.616,893.234l9.126-2.173,15.209,67.355H382.7Z" transform="translate(-354.015 -879.328)" fill="#ffce00"/>
    <path id="Caminho_9563" data-name="Caminho 9563" d="M336.656,896.227h12.6l16.079,65.183L351.866,958.8Z" transform="translate(-336.656 -882.321)" fill="#f7941e"/>
  </g>
  <path id="Caminho_9564" data-name="Caminho 9564" d="M697.321,742.41c-1.078.734-12.547,79.452-7.121,87.766,6.983,10.7,15.947,18.969,26.937,2.659,8.775-13.024,10.3-68.987,9.44-73.769S713.856,731.144,697.321,742.41Z" transform="translate(-540.653 -649.472)" fill="#686868"/>
  <path id="Caminho_9565" data-name="Caminho 9565" d="M481.552,945.832s-5.867-9.559-7.17-10.212-6.953-2.39-7.822-.651,2.39,4.563,2.39,4.563-18.251-2.39-22.162,2.824-4.563,14.34,1.3,17.165,42.151,1.3,42.151,1.3.652-18.468,0-18.251S481.552,945.832,481.552,945.832Z" transform="translate(-398.715 -762.373)" fill="#fed4d5"/>
  <path id="Caminho_9566" data-name="Caminho 9566" d="M614.364,919.946s-67.146,3.783-74.529,12.959-5.515,20.392,1.582,24.447,77.641-3.893,83.853-14.636S627.922,919.581,614.364,919.946Z" transform="translate(-451.643 -754.1)" fill="#686868"/>
  <path id="Caminho_9567" data-name="Caminho 9567" d="M538.186,948.646l0,18.251a4.4,4.4,0,0,1-4.4,4.4h0a4.4,4.4,0,0,1-4.4-4.4l0-18.251a4.4,4.4,0,0,1,4.4-4.4h0A4.4,4.4,0,0,1,538.186,948.646Z" transform="translate(-448.32 -768.184)" fill="#01b2b8"/>
  <path id="Caminho_9568" data-name="Caminho 9568" d="M447.982,955.082c-3.748-4.4.978-12.548,5.541-13.851s21.348.326,19.229-1.793-4.888-1.466-4.4-3.422a4.28,4.28,0,0,1,1.011-1.725c-1.311-.132-2.452-.01-2.8.692-.869,1.738,2.39,4.562,2.39,4.562s-18.251-2.39-22.162,2.825-4.563,14.34,1.3,17.165,42.151,1.3,42.151,1.3.1-2.71.177-6.038C479.241,955.874,451.034,958.663,447.982,955.082Z" transform="translate(-398.716 -762.388)" opacity="0.51" style="mix-blend-mode: overlay;isolation: isolate"/>
  <path id="Caminho_9569" data-name="Caminho 9569" d="M637.581,764.656c-.469-2.611-4.225-10.687-10.224-15.655,1.4,14.732,6.519,79.261-9.43,93.865a18.646,18.646,0,0,1-6.131,3.808c-11.469,3.145-61.659,10.749-68.395,4.666-2.959-2.673-4.366-9.079-5.014-15.422-5.6,8.735-3.532,18.639,3.044,22.4,7.1,4.055,77.641-3.893,83.853-14.636a22.986,22.986,0,0,0,1.624-3.521c.408-.546.818-1.117,1.232-1.732C636.916,825.4,638.441,769.438,637.581,764.656Z" transform="translate(-451.656 -655.062)" opacity="0.51" style="mix-blend-mode: overlay;isolation: isolate"/>
  <path id="Caminho_9570" data-name="Caminho 9570" d="M538.186,948.646l0,18.251a4.4,4.4,0,0,1-4.4,4.4h0a4.4,4.4,0,0,1-4.4-4.4l0-18.251a4.4,4.4,0,0,1,4.4-4.4h0A4.4,4.4,0,0,1,538.186,948.646Z" transform="translate(-448.32 -768.184)" fill="#333"/>
  <path id="Caminho_9571" data-name="Caminho 9571" d="M589.151,652.112c-4.764,1.375-11.507,2.558-17.536.822-7.626-2.2-12.708-25.678-15.022-39.165-2.862.315-5.375,0-7.159-1.33,0,0,5.97,45.1,22.825,47.151,4.253.517,8.5-1.158,12.488-3.927a26.042,26.042,0,0,1-.608,2.727c-1.372,4.574-6.861,6.4-6.861,6.4s-1.83,1.829,9.148,8.69c.082.052.165.088.248.137C595.482,667.65,589.151,652.112,589.151,652.112Z" transform="translate(-459.937 -575.941)" opacity="0.51" style="mix-blend-mode: overlay;isolation: isolate"/>
  <path id="Caminho_9572" data-name="Caminho 9572" d="M798.467,980.765s-23.14-33.9-24.769-29.332S798.467,980.765,798.467,980.765Z" transform="translate(-589.828 -772.102)" fill="#fff"/>
  <path id="Caminho_9573" data-name="Caminho 9573" d="M805.487,846.08s-10.1-27.051-11.733-20.859S805.487,846.08,805.487,846.08Z" transform="translate(-601.41 -698.688)" fill="#fff"/>
  <path id="Caminho_9574" data-name="Caminho 9574" d="M846.946,761.374s-3.911-27.7-7.5-23.14S846.946,761.374,846.946,761.374Z" transform="translate(-627.552 -648.529)" fill="#fff"/>
  <path id="Caminho_9575" data-name="Caminho 9575" d="M808.539,732.018s-6.844-17.6-9.778-13.363S808.539,732.018,808.539,732.018Z" transform="translate(-604.137 -637.099)" opacity="0.51" style="mix-blend-mode: overlay;isolation: isolate"/>
  <path id="Caminho_9576" data-name="Caminho 9576" d="M860.665,734.912s1.63-19.881-1.629-16.622S860.665,734.912,860.665,734.912Z" transform="translate(-638.664 -637.06)" opacity="0.51" style="mix-blend-mode: overlay;isolation: isolate"/>
  <path id="Caminho_9577" data-name="Caminho 9577" d="M818.215,827.433s0-16.3-2.933-14.992S818.215,827.433,818.215,827.433Z" transform="translate(-613.487 -691.775)" opacity="0.51" style="mix-blend-mode: overlay;isolation: isolate"/>
  <path id="Caminho_9578" data-name="Caminho 9578" d="M792.985,866.538s-8.474-8.474-10.1-5.866S792.985,866.538,792.985,866.538Z" transform="translate(-595.101 -719.473)" opacity="0.51" style="mix-blend-mode: overlay;isolation: isolate"/>
  <path id="Caminho_9579" data-name="Caminho 9579" d="M793.99,796.843s-2.281-14.992-4.562-11.407S793.99,796.843,793.99,796.843Z" transform="translate(-598.714 -675.851)" opacity="0.51" style="mix-blend-mode: overlay;isolation: isolate"/>
  <path id="Caminho_9580" data-name="Caminho 9580" d="M827.34,957.768s.326-23.792-2.933-20.207S827.34,957.768,827.34,957.768Z" transform="translate(-618.701 -764.097)" opacity="0.51" style="mix-blend-mode: overlay;isolation: isolate"/>
  <path id="Caminho_9581" data-name="Caminho 9581" d="M791.984,942.69s-9.777-18.9-11.407-15.318S791.984,942.69,791.984,942.69Z" transform="translate(-593.774 -758.144)" opacity="0.51" style="mix-blend-mode: overlay;isolation: isolate"/>
  <path id="Caminho_9582" data-name="Caminho 9582" d="M788.888,997.551c-1.3,0-17.274-11.081-15.97-7.17S788.888,997.551,788.888,997.551Z" transform="translate(-589.374 -794.428)" fill="#fff"/>
  <path id="Caminho_9583" data-name="Caminho 9583" d="M760.287,1038.235s-38.458-22.162-35.525-16.3S760.287,1038.235,760.287,1038.235Z" transform="translate(-561.425 -812.624)" fill="#fff"/>
  <path id="Caminho_9584" data-name="Caminho 9584" d="M767.9,1061.245c.326-.326-19.229-4.236-18.9-.978S767.9,1061.245,767.9,1061.245Z" transform="translate(-575.556 -834.657)" fill="#fff"/>
  <path id="Caminho_9585" data-name="Caminho 9585" d="M804.2,1036.4s-7.822-10.1-8.8-7.5S804.2,1036.4,804.2,1036.4Z" transform="translate(-602.403 -816.985)" opacity="0.51" style="mix-blend-mode: overlay;isolation: isolate"/>
  <path id="Caminho_9586" data-name="Caminho 9586" d="M733.687,1044.867s-7.821-3.911-8.8-1.63S733.687,1044.867,733.687,1044.867Z" transform="translate(-561.55 -825.123)" opacity="0.51" style="mix-blend-mode: overlay;isolation: isolate"/>
  <path id="Caminho_9587" data-name="Caminho 9587" d="M469.324,1116.194s-7.822-38.132,4.888-45.628C474.213,1070.566,454.332,1071.543,469.324,1116.194Z" transform="translate(-410.28 -841.371)" fill="url(#linear-gradient)"/>
  <path id="Caminho_9588" data-name="Caminho 9588" d="M448.027,1150.5s-10.429-18.251-9.777-13.037S448.027,1150.5,448.027,1150.5Z" transform="translate(-395.501 -879.586)" opacity="0.51" style="mix-blend-mode: overlay;isolation: isolate"/>
  <path id="Caminho_9589" data-name="Caminho 9589" d="M453.324,1117.46s-2.933-11.733-4.563-8.8S453.324,1117.46,453.324,1117.46Z" transform="translate(-401.45 -863.169)" opacity="0.51" style="mix-blend-mode: overlay;isolation: isolate"/>
  <path id="Caminho_9590" data-name="Caminho 9590" d="M478.482,1112.111s4.563-16.3,1.955-13.363S478.482,1112.111,478.482,1112.111Z" transform="translate(-418.786 -857.494)" fill="url(#linear-gradient)"/>
  <path id="Caminho_9591" data-name="Caminho 9591" d="M392.455,1101.233s-7.5-32.266,3.585-40.74C396.04,1060.493,376.486,1067.337,392.455,1101.233Z" transform="translate(-365.35 -835.534)" fill="url(#linear-gradient)"/>
  <path id="Caminho_9592" data-name="Caminho 9592" d="M405.746,1098.037s5.541-25.1,7.822-18.251S405.746,1098.037,405.746,1098.037Z" transform="translate(-376.686 -846.027)" opacity="0.51" style="mix-blend-mode: overlay;isolation: isolate"/>
  <g id="Grupo_8046" data-name="Grupo 8046" transform="translate(1.839 65.41)">
    <path id="Caminho_9593" data-name="Caminho 9593" d="M389.77,695.8a25.606,25.606,0,1,1-34.117-12.143A25.607,25.607,0,0,1,389.77,695.8Z" transform="translate(-341.028 -681.175)" fill="#f9ed32"/>
    <path id="Caminho_9594" data-name="Caminho 9594" d="M392.432,704.972a20.3,20.3,0,1,1-27.052-9.628A20.3,20.3,0,0,1,392.432,704.972Z" transform="translate(-348.418 -688.243)" fill="#f7941e"/>
    <path id="Caminho_9595" data-name="Caminho 9595" d="M390.983,710.483a9.814,9.814,0,0,0-2.371-.619c-.2-.026-.479-.032-.721-.048l-2.535-5.337a9.17,9.17,0,0,1,1.14.672,8.4,8.4,0,0,1,1.558,1.5,3.262,3.262,0,0,0,.522.607,1.205,1.205,0,0,0,.43.229,1.188,1.188,0,0,0,.783-.083,1.085,1.085,0,0,0,.61-.7,1.377,1.377,0,0,0-.11-1.005l-2.84-5.979a2.332,2.332,0,0,0-.757-1.006.87.87,0,0,0-.883-.014.947.947,0,0,0-.517.735l-.15.713a.635.635,0,0,1-.395.479,1.884,1.884,0,0,1-.667.139c-.18.008-.306.022-.472.032l-2.157-4.543-2.423,1.15,1.8,3.791a11.03,11.03,0,0,0-1.423.435l.947,1.993a7.14,7.14,0,0,1,1.582-.1l2.982,6.279c-.686.018-1.291.032-1.8.039l-5.571-11.729-2.422,1.15,1.757,3.7a10.454,10.454,0,0,0-3.421,3.4,8.078,8.078,0,0,0-1.036,3.945,9.514,9.514,0,0,0,.962,4.221,8.376,8.376,0,0,0,6.48,4.851,12.2,12.2,0,0,0,2.05.225c.554.015,1.571,0,2.856-.034l3.217,6.772a5.5,5.5,0,0,1-2.823-.108,10.329,10.329,0,0,1-2.932-1.426,13.168,13.168,0,0,1-2.591-2.347,2.311,2.311,0,0,0-.8-.674.833.833,0,0,0-.734.07,1.051,1.051,0,0,0-.549.713,1.458,1.458,0,0,0,.12,1l3.133,6.6q.741,1.561,1.756,1.079a1.021,1.021,0,0,0,.518-.736,3.884,3.884,0,0,1,.3-.864,1.107,1.107,0,0,1,.488-.376,1.6,1.6,0,0,1,.533-.143c.2-.02.568-.032,1.114-.039a8.715,8.715,0,0,0,3.469-.638l1.759,3.7,2.422-1.151-1.8-3.794a10.563,10.563,0,0,0,1.387-.912l1.9,4,2.422-1.151-2.331-4.907c.013-.016.032-.03.044-.046a9.108,9.108,0,0,0,.872-9.386A8.292,8.292,0,0,0,390.983,710.483Zm-11.917-1.192a2.939,2.939,0,0,1-1.243-1.352,2.513,2.513,0,0,1-.165-1.868,3.15,3.15,0,0,1,.359-.708l2.038,4.291A3.963,3.963,0,0,1,379.067,709.292Zm12.3,14.236a4.563,4.563,0,0,1-1.063,1.457l-2.575-5.421a7.357,7.357,0,0,1,1.358.171,3.594,3.594,0,0,1,.7.329l1.6,3.359C391.374,723.457,391.383,723.493,391.371,723.528Z" transform="translate(-359.217 -689.914)" fill="#fff200"/>
  </g>
</svg>
