<svg id="EmptyWoman" xmlns="http://www.w3.org/2000/svg" width="805.469" height="744.777" viewBox="0 0 805.469 744.777">
  <g id="Character--inject-2">
    <path id="Caminho_14068" data-name="Caminho 14068" d="M163.958,92.3a62.191,62.191,0,0,1,14.055,40.019c-.2,8.2-1.562,17.374,3.123,24.011,3.709,5.076,10.346,7.613,13.274,13.079,3.514,6.637.586,15.031,2.733,22.254,3.123,10.151,15.031,14.446,22.059,22.449a28.459,28.459,0,0,1,5.856,25.963A28.83,28.83,0,0,1,206.71,259.4a19.441,19.441,0,0,1-14.446-.2c-4.685-2.343-7.809-7.223-10.151-12.1-4.685-9.37-46.07-60.321-48.413-70.472" transform="translate(3.574 -79.207)" fill="#263238"/>
    <path id="Caminho_14069" data-name="Caminho 14069" d="M172.554,86.4c-16.984-2.733-33.186,8.394-40.214,24.011s-7.418,33.186-7.808,50.365-1.757,34.943-10.542,49.779c-5.466,9.37-14.055,17.569-15.422,28.306-1.171,9.565,3.709,19.326,2.147,28.892-1.366,8.394-7.809,15.617-7.613,24.011.39,10.151,10.737,17.764,20.888,18.155s19.716-5.076,27.72-11.322a106.9,106.9,0,0,0,30.453-38.652" transform="translate(-35.085 -85.217)" fill="#263238"/>
    <path id="Caminho_14070" data-name="Caminho 14070" d="M119.717,124.383a32.06,32.06,0,0,1,27.72-35.724,1.76,1.76,0,0,0,.976-.2c16.984-1.562,32.21,11.127,34.748,27.915,2.147,14.836,4.1,29.868,4.1,35.334-.2,16.4-9.761,22.84-13.665,24.792-1.367.586-.2,2.147-1.562,2.343l-2.733-1.171m0,.2,3.709,18.936c1.757,12.3-5.271,23.426-17.569,25.182s-33.772-85.113-35.724-97.411Z" transform="translate(-9.969 -82.984)" fill="#ffbe9d"/>
    <path id="Caminho_14071" data-name="Caminho 14071" d="M157.182,136.009S146.641,138.352,132,132.3c0,0,6.247,13.47,26.159,8.785Z" transform="translate(1.955 -41.122)" fill="#eb996e"/>
    <path id="Caminho_14072" data-name="Caminho 14072" d="M172.994,105.909a24.761,24.761,0,0,0-10.737-15.031,27.432,27.432,0,0,0-15.031-5.271,20.836,20.836,0,0,0-14.641,5.271,14.587,14.587,0,0,0-4.49,10.737l.39-2.733a10.257,10.257,0,0,0,0,6.832h0a27.658,27.658,0,0,0,1.562,3.514,15.244,15.244,0,0,0,7.223,8,10.583,10.583,0,0,0,4.88,1.171,5.837,5.837,0,0,0,4.49-2.147,9.827,9.827,0,0,0,.976-7.028,18.971,18.971,0,0,0,5.271,5.856,5.909,5.909,0,0,0,7.418-.781c1.562-1.952.976-5.076,0-7.418a15.634,15.634,0,0,0,6.052,5.271,4.808,4.808,0,0,0,4.295.39,4.474,4.474,0,0,0,2.343-2.928A11.819,11.819,0,0,0,172.994,105.909Z" transform="translate(-1.949 -85.593)" fill="#263238"/>
    <path id="Caminho_14073" data-name="Caminho 14073" d="M156.559,109.959c-.2,0-.2-2.343-.976-5.856a23.127,23.127,0,0,0-6.637-12.3,17.928,17.928,0,0,0-6.832-3.709,13.6,13.6,0,0,0-6.247-.2,14.98,14.98,0,0,0-5.466,2.343l1.171-1.171a9.706,9.706,0,0,1,4.1-1.757,12.757,12.757,0,0,1,6.637,0,14.577,14.577,0,0,1,7.223,3.9,21.985,21.985,0,0,1,6.832,12.884,32.037,32.037,0,0,1,.39,4.49C156.754,108.983,156.559,109.373,156.559,109.959Z" transform="translate(0.432 -84.373)" fill="#455a64"/>
    <path id="Caminho_14074" data-name="Caminho 14074" d="M304.072,254.713l-75.157-29.672s-38.457-50.365-37.676-51.341L164.3,203.177l39.238,53.1,90.969,21.278,15.617-4.295C306.61,256.665,304.072,254.713,304.072,254.713Z" transform="translate(32.709 -1.704)" fill="#ffbe9d"/>
    <path id="Caminho_14075" data-name="Caminho 14075" d="M203.158,143.5l-10.151-3.9-44.118,5.661v7.809l-1.366.2a87.1,87.1,0,0,0-26.939,10.541A46.3,46.3,0,0,0,99.11,210.853c1.757,11.127,5.271,24.792,11.908,32.6,12.884,15.031,24.6-3.514,24.6-3.514s8,18.35,7.613,27.135c-.39,7.223-3.514,22.449-4.685,27.135a1.52,1.52,0,0,0,1.171,1.757h0l93.117,17.179.39-22.84-2.928-93.7-4.1-36.31C226,159.9,226.193,142.528,203.158,143.5Z" transform="translate(-29.966 -34.172)" fill="#f27d00"/>
    <path id="Caminho_14076" data-name="Caminho 14076" d="M163.1,146.9l35.529,51.341-28.7,34.748Z" transform="translate(31.566 -27.221)" fill="#f27d00"/>
    <path id="Caminho_14077" data-name="Caminho 14077" d="M172.237,242.856a18.941,18.941,0,0,1-.2-3.319c0-2.343,0-5.271-.2-8.98-.2-9.956-.976-19.717-2.147-29.672-1.562-11.518-3.709-21.864-5.466-29.282l-2.147-8.785a9.119,9.119,0,0,1-.586-3.319,19.192,19.192,0,0,1,.976,3.123c.586,1.952,1.366,5.076,2.343,8.785a209.683,209.683,0,0,1,5.661,29.282,216.153,216.153,0,0,1,1.757,29.672c0,3.9-.2,6.832-.2,8.98A7.378,7.378,0,0,1,172.237,242.856Z" transform="translate(30.043 -15.224)" fill="#263238"/>
    <path id="Caminho_14078" data-name="Caminho 14078" d="M144.956,162.3c0,.2-2.733.2-7.028.39a119.6,119.6,0,0,0-16.788,2.147,118.04,118.04,0,0,0-16.2,4.685c-4.1,1.562-6.442,2.538-6.637,2.538a6.849,6.849,0,0,1,1.562-.976c1.171-.586,2.733-1.366,4.685-2.147a92.49,92.49,0,0,1,33.186-6.832,40.939,40.939,0,0,1,5.271.2A6.508,6.508,0,0,1,144.956,162.3Z" transform="translate(-30.132 -12.749)" fill="#fafafa"/>
    <path id="Caminho_14079" data-name="Caminho 14079" d="M179.444,174.3a16.71,16.71,0,0,1-4.49.976,102.062,102.062,0,0,1-21.864.781,16.64,16.64,0,0,1-4.49-.586,17.283,17.283,0,0,1,4.49,0h10.932a81.659,81.659,0,0,0,10.932-.781A16.745,16.745,0,0,1,179.444,174.3Z" transform="translate(17.76 -1.133)" fill="#fafafa"/>
    <path id="Caminho_14080" data-name="Caminho 14080" d="M180.8,162.406a25.458,25.458,0,0,1-7.613,6.052,30.612,30.612,0,0,1-8.98,3.9c-.2-.2,3.9-1.952,8.394-4.88S180.6,162.21,180.8,162.406Z" transform="translate(32.61 -12.469)" fill="#fafafa"/>
    <path id="Caminho_14081" data-name="Caminho 14081" d="M176.254,150.2A37.966,37.966,0,0,1,154,159.574c0-.39,5.466-1.171,11.518-3.709S175.864,150.009,176.254,150.2Z" transform="translate(22.902 -24.083)" fill="#fafafa"/>
    <path id="Caminho_14082" data-name="Caminho 14082" d="M191.531,194.6a7.913,7.913,0,0,1-1.757.976,40.436,40.436,0,0,1-5.271,2.147,95.371,95.371,0,0,1-18.155,4.685,86.275,86.275,0,0,1-18.74.976c-2.343-.2-4.295-.2-5.661-.39a8.3,8.3,0,0,1-2.147-.39c0-.2,2.928,0,7.809.2a109.847,109.847,0,0,0,36.5-5.661C188.8,195.576,191.531,194.6,191.531,194.6Z" transform="translate(9.382 18.195)" fill="#fafafa"/>
    <path id="Caminho_14083" data-name="Caminho 14083" d="M211.45,208.2a2.137,2.137,0,0,1-.781.39l-2.538,1.171c-2.147.976-5.271,2.343-9.37,3.9a124.3,124.3,0,0,1-14.251,4.49,171.945,171.945,0,0,1-36.114,5.661c-5.661.2-10.737.2-15.031,0s-7.613-.586-9.956-.781l-2.733-.39a1.76,1.76,0,0,1-.976-.2h.976l2.733.2c2.343.2,5.856.39,9.956.586s9.37,0,14.836-.2a165.2,165.2,0,0,0,18.155-1.952,176.383,176.383,0,0,0,17.764-3.709c5.271-1.367,10.151-2.928,14.251-4.295s7.223-2.538,9.37-3.514l2.538-.976C210.864,208.4,211.06,208.2,211.45,208.2Z" transform="translate(-9.756 31.144)" fill="#fafafa"/>
    <path id="Caminho_14084" data-name="Caminho 14084" d="M93.872,420.8,83.331,468.432,64,503.765a5.108,5.108,0,0,0,1.952,6.832l.2.2h0a5.156,5.156,0,0,0,4.49-.2c8.98-5.076,41.776-24.4,42.361-27.915.586-4.1,14.446-49.584,14.446-49.584Z" transform="translate(-63.38 233.567)" fill="#f27d00"/>
    <g id="Grupo_17053" data-name="Grupo 17053" transform="translate(2.967 713.126)" opacity="0.6">
      <path id="Caminho_14085" data-name="Caminho 14085" d="M64.9,482.134,112.532,450.9l-.586,1.952a6.662,6.662,0,0,1-2.928,4.295c-3.9,2.733-14.836,10.346-39.628,24.792A5.117,5.117,0,0,1,64.9,482.134Z" transform="translate(-64.9 -450.9)" fill="#fff"/>
    </g>
    <g id="Grupo_17054" data-name="Grupo 17054" transform="translate(42.885 695.246)" opacity="0.6">
      <path id="Caminho_14086" data-name="Caminho 14086" d="M87.206,441.856a3.174,3.174,0,0,0-1.757,3.709,2.848,2.848,0,1,0,5.271-2.147,2.925,2.925,0,0,0-3.9-1.367" transform="translate(-85.349 -441.741)" fill="#fff"/>
    </g>
    <path id="Caminho_14087" data-name="Caminho 14087" d="M77.289,461.162a15.748,15.748,0,0,0-3.319-4.685,12.878,12.878,0,0,0-5.271-2.343c0-.2.586-.39,1.757-.2a7.772,7.772,0,0,1,4.1,1.757,8.418,8.418,0,0,1,2.538,3.709A3.106,3.106,0,0,1,77.289,461.162Z" transform="translate(-58.315 265.043)" fill="#263238"/>
    <path id="Caminho_14088" data-name="Caminho 14088" d="M74.5,462.915c-.2.2-1.366-1.757-3.709-3.123-1.366-.586-2.928-1.171-4.49-1.757a5.882,5.882,0,0,1,5.076.781C73.913,460.377,74.889,462.915,74.5,462.915Z" transform="translate(-60.6 268.756)" fill="#263238"/>
    <path id="Caminho_14089" data-name="Caminho 14089" d="M83.2,458.294a67.29,67.29,0,0,0-5.466-5.076A42.134,42.134,0,0,0,71.1,449.9a10.551,10.551,0,0,1,7.223,2.538A9.727,9.727,0,0,1,83.2,458.294Z" transform="translate(-56.03 261.274)" fill="#263238"/>
    <path id="Caminho_14090" data-name="Caminho 14090" d="M85.5,448.815c-.2.2-2.538-1.562-5.856-2.343S73.4,445.692,73.4,445.3a12.284,12.284,0,0,1,12.1,3.514Z" transform="translate(-53.84 256.502)" fill="#263238"/>
    <path id="Caminho_14091" data-name="Caminho 14091" d="M87.489,441.812a24.045,24.045,0,0,0-6.052-2.733,18.95,18.95,0,0,0-6.637,0c0-.2.586-.586,1.757-.976a10.594,10.594,0,0,1,9.565,1.952C87.294,441.031,87.684,441.812,87.489,441.812Z" transform="translate(-52.507 249.645)" fill="#263238"/>
    <path id="Caminho_14092" data-name="Caminho 14092" d="M81.684,441.516a5.7,5.7,0,0,1,.39-1.757,11.935,11.935,0,0,1,2.538-4.295,6.383,6.383,0,0,1,2.928-2.147,1.963,1.963,0,0,1,2.147.976,3.265,3.265,0,0,1,.2,2.343,7.037,7.037,0,0,1-7.613,4.88,8.146,8.146,0,0,1-6.832-6.052,3.2,3.2,0,0,1,.39-2.343,2.433,2.433,0,0,1,2.343-.586,7.948,7.948,0,0,1,2.733,2.343,19.671,19.671,0,0,1,2.343,4.49,5.7,5.7,0,0,1,.39,1.757,21.646,21.646,0,0,0-3.319-5.856,7.371,7.371,0,0,0-2.343-1.952,1.2,1.2,0,0,0-1.171.2,2.074,2.074,0,0,0-.2,1.562,7.138,7.138,0,0,0,5.856,5.076,5.967,5.967,0,0,0,6.442-4.1,2.138,2.138,0,0,0,0-1.562,1.391,1.391,0,0,0-1.171-.586,3.833,3.833,0,0,0-2.538,1.757A18.024,18.024,0,0,0,81.684,441.516Z" transform="translate(-51.973 244.671)" fill="#263238"/>
    <g id="Grupo_17055" data-name="Grupo 17055" transform="translate(26.978 654.367)" opacity="0.3">
      <path id="Caminho_14093" data-name="Caminho 14093" d="M79.347,425.876,77.2,436.807l34.553,5.856,2.733-9.565L80.714,420.8Z" transform="translate(-77.2 -420.8)"/>
    </g>
    <path id="Caminho_14094" data-name="Caminho 14094" d="M177.138,430.562l-2.928,38.066s37.871,15.617,37.871,22.84L137.9,488.54,139.852,429Z" transform="translate(7.573 241.374)" fill="#f27d00"/>
    <g id="Grupo_17056" data-name="Grupo 17056" transform="translate(156.904 705.804)" opacity="0.6">
      <path id="Caminho_14095" data-name="Caminho 14095" d="M145.989,447.249a2.8,2.8,0,0,0,1.171,5.466A3.211,3.211,0,0,0,149.5,449.2a3.093,3.093,0,0,0-3.709-1.952" transform="translate(-143.756 -447.149)" fill="#fff"/>
    </g>
    <g id="Grupo_17057" data-name="Grupo 17057" transform="translate(145.668 723.862)" opacity="0.6">
      <path id="Caminho_14096" data-name="Caminho 14096" d="M138,462.452l.39-6.052,71.057,4.88s3.319,1.562,2.733,3.9Z" transform="translate(-138 -456.4)" fill="#fff"/>
    </g>
    <path id="Caminho_14097" data-name="Caminho 14097" d="M160.587,449.427c0,.39-1.757.39-3.709,1.562s-2.733,2.538-3.123,2.343.2-2.147,2.538-3.514S160.587,449.037,160.587,449.427Z" transform="translate(22.562 260.38)" fill="#263238"/>
    <path id="Caminho_14098" data-name="Caminho 14098" d="M163.609,451.082c0,.39-1.562.976-2.733,2.343s-1.757,3.123-2.147,3.123-.586-2.147,1.171-3.9S163.609,450.692,163.609,451.082Z" transform="translate(27.153 262.239)" fill="#263238"/>
    <path id="Caminho_14099" data-name="Caminho 14099" d="M163.4,458.8c-.39,0-.781-1.757.2-3.709s2.733-2.733,2.928-2.343-.976,1.367-1.757,2.928S163.794,458.8,163.4,458.8Z" transform="translate(31.458 263.892)" fill="#263238"/>
    <path id="Caminho_14100" data-name="Caminho 14100" d="M160.817,445.367c-.2.39-1.757-.2-3.9-.2s-3.709.586-3.9.39,1.366-1.562,3.9-1.562S161.012,444.976,160.817,445.367Z" transform="translate(21.942 255.656)" fill="#263238"/>
    <g id="Grupo_17058" data-name="Grupo 17058" transform="translate(147.229 676.621)" opacity="0.3">
      <path id="Caminho_14101" data-name="Caminho 14101" d="M175.7,435.128l-.39,6.832L138.8,440.2l.2-8Z" transform="translate(-138.8 -432.2)"/>
    </g>
    <path id="Caminho_14102" data-name="Caminho 14102" d="M162.675,443.842a6.043,6.043,0,0,1-3.709-.2,13.252,13.252,0,0,1-3.9-1.367c-.781-.39-1.366-.781-2.147-1.171a5.177,5.177,0,0,1-1.171-.976A1.76,1.76,0,0,1,153.3,437.4c.39,0,.976.2,1.366.2a11.943,11.943,0,0,1,2.343.976,12.823,12.823,0,0,1,3.319,2.343,8.247,8.247,0,0,1,2.147,3.123,32.074,32.074,0,0,0-2.733-2.343,18.537,18.537,0,0,0-3.319-1.952c-.781-.2-1.367-.586-2.147-.781a2.64,2.64,0,0,0-1.757,0c-.39.2,0,.2,0,.391.2.2.586.39.781.586.586.391,1.366.781,1.952,1.171a27.645,27.645,0,0,0,3.514,1.562A24.256,24.256,0,0,1,162.675,443.842Z" transform="translate(20.474 249.372)" fill="#263238"/>
    <path id="Caminho_14103" data-name="Caminho 14103" d="M157.406,446.713a6.1,6.1,0,0,1-.781-3.709,14.862,14.862,0,0,1,.586-4.1,7.217,7.217,0,0,1,.976-2.147A2.735,2.735,0,0,1,160.529,435a1.636,1.636,0,0,1,1.562,1.171c.2.39.2.976.39,1.367a5.571,5.571,0,0,1,0,2.538,6.6,6.6,0,0,1-1.757,3.709,5.344,5.344,0,0,1-3.123,2.147,8.964,8.964,0,0,0,2.343-2.733,7.017,7.017,0,0,0,1.366-3.514,4.01,4.01,0,0,0,0-2.147c-.2-.781-.39-1.367-.586-1.367a3.3,3.3,0,0,0-1.366,1.171,9.118,9.118,0,0,0-.976,1.952A11.415,11.415,0,0,0,157.6,443C157.21,445.346,157.6,446.713,157.406,446.713Z" transform="translate(25.353 247.087)" fill="#263238"/>
    <path id="Caminho_14104" data-name="Caminho 14104" d="M161.07,221.871s-11.713.586-19.521,40.6S74.2,627.133,74.2,627.133l43.142.39,81.4-308.632-5.466,318.2,43.923,3.319s32.991-351.969,33.186-372.466c.39-25.573-14.251-51.341-14.251-51.341Z" transform="translate(-53.078 39.142)" fill="#263238"/>
    <path id="Caminho_14105" data-name="Caminho 14105" d="M159.291,217.5c.2,0-4.295,23.035-9.956,51.146C143.479,296.756,138.6,319.6,138.4,319.6s4.1-23.035,9.956-51.146C154.02,240.34,159.1,217.5,159.291,217.5Z" transform="translate(8.045 39.999)" fill="#455a64"/>
    <path id="Caminho_14106" data-name="Caminho 14106" d="M154.219,220.572c0-.2,1.171-.39,2.538.781a3.854,3.854,0,0,1,1.171,2.733,3.472,3.472,0,0,1-2.147,2.928,3.62,3.62,0,0,1-3.709-.39,3.854,3.854,0,0,1-1.171-2.733,2.537,2.537,0,0,1,1.171-2.343,5.2,5.2,0,0,0-.586,2.343,3.135,3.135,0,0,0,.976,2.147,2.831,2.831,0,0,0,3.9-.781,2.775,2.775,0,0,0,.39-1.171,2.936,2.936,0,0,0-.781-2.147C155.195,220.572,154.023,220.767,154.219,220.572Z" transform="translate(19.95 42.783)" fill="#455a64"/>
    <path id="Caminho_14107" data-name="Caminho 14107" d="M153.794,228.794c0-.2,1.171,0,1.952,1.562a3.13,3.13,0,0,1-.2,2.928,3.255,3.255,0,0,1-4.685.976A5.262,5.262,0,0,1,149.5,232.7a3.185,3.185,0,0,1,.39-2.928c.976-1.562,2.147-1.366,2.147-1.366a3.338,3.338,0,0,0-1.562,1.562,3.992,3.992,0,0,0,0,2.147,2.571,2.571,0,0,0,3.514,1.171,1.524,1.524,0,0,0,.781-.781,2.686,2.686,0,0,0,.2-2.147C154.575,229.38,153.794,228.989,153.794,228.794Z" transform="translate(18.423 50.373)" fill="#455a64"/>
    <path id="Caminho_14108" data-name="Caminho 14108" d="M150.2,220.7a3.767,3.767,0,0,1-.586,1.952,23.958,23.958,0,0,1-2.343,5.076,37.8,37.8,0,0,1-30.063,19.717,27.437,27.437,0,0,1-5.661,0,6.936,6.936,0,0,1-1.952-.39c0-.2,2.928.2,7.613-.39a39.74,39.74,0,0,0,29.477-19.326C149.228,223.438,150.009,220.509,150.2,220.7Z" transform="translate(-19.373 43.041)" fill="#455a64"/>
    <path id="Caminho_14109" data-name="Caminho 14109" d="M180.27,251.79a5.4,5.4,0,0,1-1.366-.781,20.892,20.892,0,0,1-3.123-2.733,33.663,33.663,0,0,1-9.565-24.792,14.861,14.861,0,0,1,.586-4.1c.2-.976.39-1.562.39-1.366s-.2,2.147-.2,5.466a35.826,35.826,0,0,0,9.37,24.206C178.708,250.228,180.465,251.595,180.27,251.79Z" transform="translate(34.503 40.457)" fill="#455a64"/>
    <path id="Caminho_14110" data-name="Caminho 14110" d="M270.8,259.984c.586-1.562.39-.976-9.956-7.809,0,0,14.836,9.761,13.275,5.076a17.87,17.87,0,0,0-4.88-4.49c3.9,2.343,6.247,2.538,6.832,1.562,1.171-1.562-7.418-7.809-11.322-10.542a79.115,79.115,0,0,0,11.518,7.028c2.343.781,1.171-2.147-.39-4.1s-14.251-14.055-17.569-17.764a3.026,3.026,0,0,1-.39-4.1l.39-.39c6.052-3.9,8.785-10.151,8.589-12.1a2.528,2.528,0,0,0-2.538-1.952,2.025,2.025,0,0,0-1.562,1.171,32.435,32.435,0,0,1-5.271,5.076,18.322,18.322,0,0,1-5.076,2.733c-2.147.781-12.689.2-15.031-.976l-7.223,24.4s26.159,12.3,31.039,14.641C267.681,260.374,270.414,261.351,270.8,259.984Z" transform="translate(95.454 33.239)" fill="#ffbe9d"/>
    <path id="Caminho_14111" data-name="Caminho 14111" d="M243.5,230.024c-.2.2,3.123,2.733,7.613,5.661s8,4.88,8.2,4.49-3.123-2.733-7.613-5.661S243.7,229.634,243.5,230.024Z" transform="translate(108.113 51.876)" fill="#eb996e"/>
    <path id="Caminho_14112" data-name="Caminho 14112" d="M244.8,227.506c-.2.2,3.319,3.123,7.809,6.442s8.2,5.661,8.394,5.466-3.319-3.123-7.809-6.442S245,227.31,244.8,227.506Z" transform="translate(109.351 49.515)" fill="#eb996e"/>
    <path id="Caminho_14113" data-name="Caminho 14113" d="M246.1,225.121c-.2.2,3.123,3.123,7.223,6.247s7.809,5.466,8,5.076-3.123-3.123-7.223-6.247S246.3,224.73,246.1,225.121Z" transform="translate(110.589 47.214)" fill="#eb996e"/>
    <path id="Caminho_14114" data-name="Caminho 14114" d="M119.517,231.5l19.131.976a92.757,92.757,0,0,0,5.466,15.617c15.422-26.744,27.33-62.663,30.453-77.109-.39-1.366-.976-2.928-1.562-4.88a23.16,23.16,0,0,1,.2-8.2c.586-3.123,1.366-7.613,1.757-9.565.781-6.052,1.757-7.028,3.9-6.442,2.928.976-1.171,17.179,1.171,17.374,1.367.2,2.733-5.466,3.319-9.956s2.538-18.545,4.1-19.521c2.147-1.366,4.1.781,3.514,5.271s-1.171,18.35,1.171,18.35,4.295-23.035,4.295-23.035-.39-5.076,2.343-4.88c5.076.2,1.171,24.6.781,26.939-.39,1.562,2.343,1.952,2.538.2s1.366-23.23,6.637-23.035c3.9.2-3.123,20.107-.781,24.792s3.709-15.812,7.418-15.422c1.366.2,2.343.39-.2,11.908a275.8,275.8,0,0,1-8.98,27.135c-5.856,32.015-32.015,134.5-72.814,115.761C110.537,283.235,99.8,231.308,99.8,231.308Z" transform="translate(-28.704 -47.599)" fill="#ffbe9d"/>
    <path id="Caminho_14115" data-name="Caminho 14115" d="M170.838,178.958c0-.2.2-.39.2-.781a13.462,13.462,0,0,1,.781-1.952c.586-1.757,1.562-4.49,2.733-7.809s2.538-7.418,3.9-12.3a45.816,45.816,0,0,0,1.757-7.809c.2-1.366.586-2.928.781-4.295v-2.147c0-.781-.2-1.366-.781-1.366s-.976.39-1.562.976a10.461,10.461,0,0,0-.976,2.147,35.608,35.608,0,0,0-1.366,4.88,48.886,48.886,0,0,1-1.366,5.076,6.845,6.845,0,0,1-1.171,2.733c-.2.2-.39.2-.586.39a1.173,1.173,0,0,1-.781-.2,2.694,2.694,0,0,1-.586-.781,3.678,3.678,0,0,1-.39-1.562,59.588,59.588,0,0,1,1.171-11.713c.39-1.952.781-3.9.976-5.856a14.773,14.773,0,0,0,.2-2.928c0-.976-.2-2.147-.586-2.343s-1.366.39-1.952,1.171a6.845,6.845,0,0,0-1.171,2.733,58.4,58.4,0,0,0-1.562,6.247c-.39,2.147-.586,4.295-.976,6.637-.2,1.171-.2,2.147-.39,3.319l-.2,1.757a2.506,2.506,0,0,1-.781,1.952,2,2,0,0,1-3.123-1.171v-.976l.586-3.514c.39-2.343.586-4.685.781-7.028s.39-4.685.39-7.028a21.618,21.618,0,0,0-.781-7.028c-.2-.586-.39-1.171-.976-1.366a1.294,1.294,0,0,0-1.366.39,6.4,6.4,0,0,0-.781,3.709h0c-.39,4.685-.976,9.175-1.562,13.47-.39,2.147-.781,4.49-1.171,6.637a13.45,13.45,0,0,1-.586,1.562,4.609,4.609,0,0,1-1.171,1.757c-.586.2-1.171.2-1.366-.39-.2-.2-.39-.586-.586-.781a5.7,5.7,0,0,1-.39-1.757,71.036,71.036,0,0,1-.2-12.884,59.113,59.113,0,0,0,.39-6.052,2.7,2.7,0,0,0-1.171-2.147,1.76,1.76,0,0,0-.976-.2c-.2,0-.39.2-.586.2-.2.2-.2,0-.2.39a25.185,25.185,0,0,0-1.562,5.466,57.216,57.216,0,0,0-.976,5.661c-.2,1.952-.586,3.709-.781,5.466a45.683,45.683,0,0,1-2.147,10.346l-.586,1.171a2.214,2.214,0,0,1-1.171,1.171,1.491,1.491,0,0,1-.976-.39c-.2-.2-.2-.39-.39-.781,0-.39-.2-.781-.2-1.366,0-3.319.39-6.442.586-9.37a15.8,15.8,0,0,0,0-4.295c0-.586-.2-1.367-.586-1.562a2.138,2.138,0,0,0-1.562,0,5.027,5.027,0,0,0-1.366,3.123l-.586,3.514c-.781,4.685-1.757,8.589-2.147,11.908a15.821,15.821,0,0,0,0,4.295c.2,1.171.781,2.147.976,3.123a12.131,12.131,0,0,0,.586,1.952c0,.2.2.39.2.586a.717.717,0,0,1-.2-.586l-.586-1.952a20.131,20.131,0,0,1-.976-3.123,17.267,17.267,0,0,1,0-4.49c.39-3.319,1.171-7.223,1.952-11.908.2-1.171.39-2.343.586-3.709.2-.586.39-1.366.586-1.952a2.843,2.843,0,0,1,1.171-1.757,2.489,2.489,0,0,1,2.343,0,2.783,2.783,0,0,1,1.171,2.343,17.281,17.281,0,0,1,0,4.49c-.2,2.928-.586,6.052-.586,9.175a2.476,2.476,0,0,0,.2,1.171c0,.39.2.586.2.39s.39-.39.586-.586l.586-1.171a19.822,19.822,0,0,0,1.171-4.88c.39-1.757.39-3.514.781-5.271s.39-3.709.781-5.466.586-3.709.976-5.661a26.918,26.918,0,0,1,1.562-5.661,1.524,1.524,0,0,1,.781-.781c.2-.2.586-.2.781-.39a2.4,2.4,0,0,1,1.952.39A3.707,3.707,0,0,1,156,132.5a8.4,8.4,0,0,1,0,3.123,15.78,15.78,0,0,0-.2,3.123,53.509,53.509,0,0,0,.2,12.494,2.822,2.822,0,0,0,.39,1.366c0,.2.2.39.2.586h.2v0l.586-1.171a3.677,3.677,0,0,0,.39-1.562c.586-2.147.781-4.295,1.171-6.442.586-4.295,1.171-8.98,1.562-13.47v.2a7.856,7.856,0,0,1,.976-4.685,2.414,2.414,0,0,1,2.733-.781,3.928,3.928,0,0,1,1.757,2.147,23.417,23.417,0,0,1,.781,7.418c0,2.343-.2,4.88-.39,7.223s-.586,4.685-.781,7.028l-.586,3.514c-.2.781-.2.781,0,.976a.871.871,0,0,0,.976,0c.2-.2.2-.586.39-1.171l.2-1.757.39-3.319c.2-2.147.586-4.49.976-6.637s.976-4.295,1.562-6.442a21.7,21.7,0,0,1,1.366-3.123,8.489,8.489,0,0,1,1.171-1.366,2.4,2.4,0,0,1,1.952-.39,2.843,2.843,0,0,1,1.171,1.757c0,.586.2,1.171.2,1.757,0,1.171-.2,2.147-.2,3.123-.2,1.952-.586,4.1-.976,6.052a54.351,54.351,0,0,0-1.171,11.322,2.775,2.775,0,0,0,.39,1.171c0,.2.2.2.2.39h0v-.2a11.945,11.945,0,0,0,.976-2.343c.586-1.757.976-3.514,1.367-5.076a35.691,35.691,0,0,1,1.562-4.88,11.942,11.942,0,0,1,.976-2.343,2.353,2.353,0,0,1,.976-.976c.2-.2.39-.2.781-.39h.781a1.237,1.237,0,0,1,1.171.976,2.894,2.894,0,0,1,.2,1.366,9.5,9.5,0,0,1-.2,2.343,28,28,0,0,1-.781,4.295,76,76,0,0,1-1.952,7.809q-2.343,7.32-4.1,12.3t-2.928,7.613c-.39.781-.586,1.562-.781,1.952A5.2,5.2,0,0,1,170.838,178.958Z" transform="translate(6.454 -47.957)" fill="#eb996e"/>
    <path id="Caminho_14116" data-name="Caminho 14116" d="M99.7,189.484c3.709,13.079,10.932,33.381,18.74,54.66a3.716,3.716,0,0,0,6.832.2L144.4,203.93s-4.685-33.186-4.295-32.015-39.433,4.295-39.433,4.295Z" transform="translate(-28.799 -3.433)" fill="#f27d00"/>
    <path id="Caminho_14117" data-name="Caminho 14117" d="M140.285,177.6c0,.2-2.343.781-6.247,2.343a95.543,95.543,0,0,0-14.251,6.832,85.152,85.152,0,0,0-12.689,9.37c-3.123,2.733-4.685,4.49-4.88,4.295s.39-.586,1.171-1.367c.976-1.171,2.147-2.343,3.319-3.514A68.588,68.588,0,0,1,119.4,185.8a64.612,64.612,0,0,1,14.446-6.637,42.387,42.387,0,0,1,4.685-1.366A5.4,5.4,0,0,1,140.285,177.6Z" transform="translate(-26.437 2.009)" fill="#fafafa"/>
    <path id="Caminho_14118" data-name="Caminho 14118" d="M132.1,198.6a20.723,20.723,0,0,1-3.123-4.1,60.547,60.547,0,0,1-5.856-11.127,66.6,66.6,0,0,1-3.709-12.1,16.213,16.213,0,0,1-.586-5.271,38.518,38.518,0,0,1,1.366,5.076,84.917,84.917,0,0,0,3.9,11.908,87.524,87.524,0,0,0,5.661,11.322C130.343,195.477,131.319,197.039,132.1,198.6Z" transform="translate(-10.638 -9.036)" fill="#263238"/>
    <path id="Caminho_14119" data-name="Caminho 14119" d="M146.439,92.978a43.385,43.385,0,0,0-3.709,36.7c1.952,5.466,5.076,10.737,4.49,16.4s-5.076,11.322-3.514,16.984c.976,3.319,3.709,5.856,4.88,9.175,1.171,3.9,0,8-.781,12.1-1.562,10.151,1.757,20.5,2.538,30.844s-1.952,22.449-11.127,26.939c-2.733,1.366-6.442,1.757-8.785-.39-2.928-2.733-2.147-7.418-1.366-11.322,8-39.043-16.984-77.109-11.127-116.737.976-6.247,4.49-16.984,8.98-21.473s17.179-3.9,21.473.781" transform="translate(-12.289 -82.228)" fill="#263238"/>
    <path id="Caminho_14120" data-name="Caminho 14120" d="M112.4,207.656a40.876,40.876,0,0,0,2.928-4.1,37.076,37.076,0,0,0,5.076-12.884,38.83,38.83,0,0,0,.586-9.565,105.98,105.98,0,0,1-.39-11.127,33.108,33.108,0,0,1,1.171-6.052,30.261,30.261,0,0,1,2.733-5.661c2.147-3.709,4.88-7.223,7.418-10.737a28.962,28.962,0,0,0,5.271-11.713,40.721,40.721,0,0,0-.586-11.908,42.777,42.777,0,0,1-.781-11.127,39.659,39.659,0,0,1,1.952-9.565,38.871,38.871,0,0,1,6.832-12.1,18.088,18.088,0,0,1,2.733-2.733,3.427,3.427,0,0,1,.976-.781A43.808,43.808,0,0,0,145,91.5a37.432,37.432,0,0,0-8.2,21.473,41.482,41.482,0,0,0,.976,10.932,37.373,37.373,0,0,1,.781,12.3,32.253,32.253,0,0,1-5.466,12.1c-2.538,3.709-5.271,7.223-7.418,10.737a34.239,34.239,0,0,0-2.538,5.466,29.206,29.206,0,0,0-1.171,5.661,100.494,100.494,0,0,0,.39,10.932,31.236,31.236,0,0,1-.781,9.565,37.793,37.793,0,0,1-5.466,12.884c-.781.976-1.562,2.147-2.343,2.928A6.229,6.229,0,0,1,112.4,207.656Z" transform="translate(-16.707 -83.682)" fill="#455a64"/>
    <path id="Caminho_14121" data-name="Caminho 14121" d="M102.9,210.679c.2-.39.39-.976.586-1.366.39-.976,1.171-2.147,1.952-3.709,1.562-3.123,4.1-7.809,6.442-13.665a63.63,63.63,0,0,0,4.88-21.669c0-2.147-.2-4.295-.39-6.442-.39-2.147-.781-4.295-1.171-6.637a18.019,18.019,0,0,1,.2-7.223,11.8,11.8,0,0,1,3.9-6.247c3.709-3.319,8.2-5.466,10.346-9.37a35.194,35.194,0,0,0,3.514-12.494,48.653,48.653,0,0,1,2.733-11.713A41.849,41.849,0,0,1,151.7,90.233a33.951,33.951,0,0,1,3.514-2.147,9.517,9.517,0,0,1,1.366-.586s-1.757.976-4.685,2.928a45.872,45.872,0,0,0-10.542,10.737,40.687,40.687,0,0,0-4.685,9.175,48.292,48.292,0,0,0-2.538,11.713c-.586,4.1-.976,8.785-3.514,12.884s-7.028,6.442-10.541,9.761a11.646,11.646,0,0,0-3.709,5.856,19.951,19.951,0,0,0-.2,6.832c.39,2.343.781,4.49,1.171,6.637a24.823,24.823,0,0,1,.39,6.637,56.01,56.01,0,0,1-5.076,21.864,127.431,127.431,0,0,1-6.832,13.665l-2.147,3.123A3.147,3.147,0,0,1,102.9,210.679Z" transform="translate(-25.752 -83.778)" fill="#455a64"/>
  </g>
  <g id="Plant--inject-2" transform="translate(666.301 349.054)">
    <path id="Caminho_14122" data-name="Caminho 14122" d="M449.73,593.919a1.48,1.48,0,0,1,.39-.781,12.835,12.835,0,0,1,1.171-2.343,59.76,59.76,0,0,0,3.319-9.37c2.147-8.394,2.928-21.278-.2-36.5a173.794,173.794,0,0,0-6.832-24.4c-2.928-8.785-6.247-17.96-8.98-27.915a104.727,104.727,0,0,1-4.295-32.015c.39-11.322,3.709-22.645,7.418-33.967s7.418-22.254,8.589-33.381a52.71,52.71,0,0,0-6.052-30.844c-4.88-8.98-10.932-16.788-15.617-24.6a86.526,86.526,0,0,1-9.37-23.816,89.441,89.441,0,0,1-.586-36.7,57.88,57.88,0,0,1,3.9-12.884c0,.2-.2.586-.2.781l-.781,2.538c-.586,2.147-1.562,5.466-2.343,9.761a88.474,88.474,0,0,0,.976,36.5,84.1,84.1,0,0,0,9.37,23.426c4.685,7.809,10.737,15.617,15.812,24.6a50.429,50.429,0,0,1,6.247,31.429c-1.171,11.322-4.88,22.449-8.589,33.577s-7.028,22.449-7.418,33.577a109.767,109.767,0,0,0,4.295,31.82c2.733,9.956,5.856,19.131,8.785,27.915a207.41,207.41,0,0,1,6.637,24.6c3.123,15.422,2.147,28.306,0,36.7a38.61,38.61,0,0,1-3.514,9.37l-1.171,2.343A2.087,2.087,0,0,0,449.73,593.919Z" transform="translate(-392.923 -264.4)" fill="#263238"/>
    <path id="Caminho_14123" data-name="Caminho 14123" d="M427.372,329.18s-9.37-29.868,7.418-47.437a.944.944,0,0,1,1.367,0c.2.2.2.391.39.586C437.327,287.209,438.5,302.24,427.372,329.18Z" transform="translate(-385.596 -248.166)" fill="#f27d00"/>
    <path id="Caminho_14124" data-name="Caminho 14124" d="M431.819,286.7a26.025,26.025,0,0,1-.586,5.466c-.586,3.9-1.367,8.2-2.147,13.274s-1.562,9.37-2.147,13.274a53.49,53.49,0,0,1-.976,5.466,17.147,17.147,0,0,1,.2-5.466c.39-3.514.976-8,1.757-13.274s1.757-9.761,2.538-13.079A24.057,24.057,0,0,1,431.819,286.7Z" transform="translate(-384.578 -243.168)" fill="#263238"/>
    <path id="Caminho_14125" data-name="Caminho 14125" d="M431.7,360.793s5.661-30.844,28.7-38.457a1.008,1.008,0,0,1,1.367.586v.586C460.2,328.387,454.15,342.247,431.7,360.793Z" transform="translate(-378.993 -209.308)" fill="#f27d00"/>
    <path id="Caminho_14126" data-name="Caminho 14126" d="M454.245,326.4c-.976,1.562-1.952,3.123-3.123,4.685l-8,10.737-8,10.737a24.185,24.185,0,0,1-3.514,4.295,24,24,0,0,1,2.733-4.88c1.952-2.928,4.685-6.832,7.809-10.932s6.052-7.809,8.394-10.542A18.578,18.578,0,0,1,454.245,326.4Z" transform="translate(-379.088 -205.368)" fill="#263238"/>
    <path id="Caminho_14127" data-name="Caminho 14127" d="M428.617,403.6s-3.514-31.039,16.4-45.094a.942.942,0,0,1,1.367.2.717.717,0,0,1,.2.586C446.576,364.36,444.819,379.392,428.617,403.6Z" transform="translate(-382.156 -175.004)" fill="#f27d00"/>
    <path id="Caminho_14128" data-name="Caminho 14128" d="M441.284,363.3a27.845,27.845,0,0,1-1.757,5.271l-4.685,12.494c-1.757,4.685-3.319,8.98-4.49,12.494a39.117,39.117,0,0,1-1.952,5.076,27.348,27.348,0,0,1,1.171-5.466c.976-3.319,2.343-7.809,4.295-12.689s3.514-9.37,4.88-12.494C439.527,366.423,440.308,364.862,441.284,363.3Z" transform="translate(-382.135 -170.235)" fill="#263238"/>
    <path id="Caminho_14129" data-name="Caminho 14129" d="M437.44,443.112S435.1,411.878,455.4,398.6a.942.942,0,0,1,1.367.2.717.717,0,0,1,.2.586C456.766,404.655,454.424,419.492,437.44,443.112Z" transform="translate(-373.606 -136.823)" fill="#f27d00"/>
    <path id="Caminho_14130" data-name="Caminho 14130" d="M451.451,403.3a19.266,19.266,0,0,1-1.952,5.271c-1.367,3.514-3.123,7.809-5.076,12.3s-3.514,8.785-5.076,12.3a39.615,39.615,0,0,1-2.147,5.076,28.007,28.007,0,0,1,1.367-5.466c.976-3.319,2.733-7.613,4.685-12.494s3.9-9.175,5.466-12.3C449.5,406.423,450.474,404.862,451.451,403.3Z" transform="translate(-373.756 -132.149)" fill="#263238"/>
    <path id="Caminho_14131" data-name="Caminho 14131" d="M433.006,311.728s-27.72-14.446-28.306-38.652a.922.922,0,0,1,.976-.976.717.717,0,0,1,.586.2C410.361,275.028,421.879,284.789,433.006,311.728Z" transform="translate(-404.7 -257.069)" fill="#f27d00"/>
    <path id="Caminho_14132" data-name="Caminho 14132" d="M407.6,276.9a24.18,24.18,0,0,1,3.514,4.295c2.343,3.123,4.88,6.832,7.809,10.737l7.809,10.737a23.165,23.165,0,0,1,3.123,4.49,26.086,26.086,0,0,1-3.9-4.1c-2.147-2.538-5.076-6.442-8.2-10.541s-5.661-8.2-7.613-10.932C409.357,280.219,408.381,278.462,407.6,276.9Z" transform="translate(-401.939 -252.498)" fill="#263238"/>
    <path id="Caminho_14133" data-name="Caminho 14133" d="M449.448,343.866s-28.5-12.689-30.648-36.9a1.237,1.237,0,0,1,.976-1.171.717.717,0,0,1,.586.2C424.656,308.533,436.564,317.708,449.448,343.866Z" transform="translate(-391.275 -224.982)" fill="#f27d00"/>
    <path id="Caminho_14134" data-name="Caminho 14134" d="M422,310.5a25.113,25.113,0,0,1,3.709,4.1l8.394,10.346,8.589,10.346a37.409,37.409,0,0,1,3.514,4.295,19.456,19.456,0,0,1-4.1-3.9c-2.343-2.538-5.466-6.052-8.785-10.151s-6.247-7.809-8.2-10.542A23.164,23.164,0,0,1,422,310.5Z" transform="translate(-388.228 -220.507)" fill="#263238"/>
    <path id="Caminho_14135" data-name="Caminho 14135" d="M432.243,385.172s-19.521-24.4-10.346-46.851a1.008,1.008,0,0,1,1.367-.586.42.42,0,0,1,.39.39C426.386,342.421,432.828,355.891,432.243,385.172Z" transform="translate(-390.662 -194.645)" fill="#f27d00"/>
    <path id="Caminho_14136" data-name="Caminho 14136" d="M421.7,343.1a24.908,24.908,0,0,1,1.367,5.466c.781,3.709,1.757,8.2,2.928,13.079s1.952,9.37,2.928,13.079a16.937,16.937,0,0,1,.976,5.466,28.824,28.824,0,0,1-1.952-5.271,131.516,131.516,0,0,1-3.123-13.079c-.976-5.271-1.952-9.761-2.538-13.079A29.356,29.356,0,0,1,421.7,343.1Z" transform="translate(-388.514 -189.468)" fill="#263238"/>
    <path id="Caminho_14137" data-name="Caminho 14137" d="M450.663,423.952s-28.306-13.274-30.063-37.481a1.093,1.093,0,0,1,.976-1.171.717.717,0,0,1,.586.2C426.456,388.228,438.364,397.6,450.663,423.952Z" transform="translate(-389.561 -149.288)" fill="#f27d00"/>
    <path id="Caminho_14138" data-name="Caminho 14138" d="M423.8,390.1c1.367,1.367,2.538,2.733,3.709,4.1l8.2,10.541,8.394,10.542a38.116,38.116,0,0,1,3.319,4.49,36.863,36.863,0,0,1-3.9-3.9c-2.343-2.538-5.466-6.052-8.589-10.151s-6.052-7.809-8-10.737A28.807,28.807,0,0,1,423.8,390.1Z" transform="translate(-386.514 -144.718)" fill="#263238"/>
    <path id="Caminho_14139" data-name="Caminho 14139" d="M491.369,342.1v2.733c0,1.952-.2,4.49-.391,7.613-.39,6.637-.976,16.008-1.562,27.135h0C487.465,390.9,481.609,403.4,473.8,415.7c-5.661,8.98-11.713,17.179-16.788,24.792a173.685,173.685,0,0,0-12.494,20.888,102.241,102.241,0,0,0-5.856,15.227c-.39,1.952-.976,3.319-1.171,4.295a4.6,4.6,0,0,1-.39,1.562,4.3,4.3,0,0,1,.2-1.562,30.544,30.544,0,0,1,.976-4.295,78.984,78.984,0,0,1,5.661-15.617A192.924,192.924,0,0,1,456.426,439.9c5.076-7.613,10.932-15.812,16.593-24.792,7.809-12.1,13.47-24.4,15.617-35.724h0c.781-11.127,1.367-20.5,1.952-27.135q.293-4.685.586-7.613c0-.781.2-1.367.2-1.952Q491.369,342.393,491.369,342.1Z" transform="translate(-373.851 -190.42)" fill="#263238"/>
    <path id="Caminho_14140" data-name="Caminho 14140" d="M459.373,402.026s11.908-28.891-3.123-47.827a.965.965,0,0,0-1.367-.2c-.2.2-.39.391-.39.586C453.126,359.47,450.588,374.306,459.373,402.026Z" transform="translate(-358.643 -179.288)" fill="#f27d00"/>
    <path id="Caminho_14141" data-name="Caminho 14141" d="M455.1,359.2a26.808,26.808,0,0,1,.976,5.466c.39,3.319.976,8,1.171,13.274s.586,9.956.586,13.47a16.84,16.84,0,0,1-.39,5.466,17.244,17.244,0,0,1-.39-5.466c-.2-3.9-.586-8.394-.976-13.274s-.586-9.565-.976-13.274C455.1,362.909,455.1,360.957,455.1,359.2Z" transform="translate(-356.713 -174.138)" fill="#263238"/>
    <g id="Grupo_17059" data-name="Grupo 17059" transform="translate(94.43 174.503)" opacity="0.3">
      <path id="Caminho_14142" data-name="Caminho 14142" d="M459.373,402.026s11.908-28.891-3.123-47.827a.965.965,0,0,0-1.367-.2c-.2.2-.39.391-.39.586C453.126,359.47,450.588,374.306,459.373,402.026Z" transform="translate(-453.073 -353.791)"/>
    </g>
    <path id="Caminho_14143" data-name="Caminho 14143" d="M441.777,437.48s9.565-29.868-7.028-47.437a.944.944,0,0,0-1.367,0c-.2.2-.2.39-.39.586C432.016,395.509,430.845,410.54,441.777,437.48Z" transform="translate(-378.333 -145.051)" fill="#f27d00"/>
    <path id="Caminho_14144" data-name="Caminho 14144" d="M434.5,395a24.91,24.91,0,0,1,1.367,5.466c.781,3.319,1.562,8,2.343,13.079s1.367,9.761,1.562,13.274a27.407,27.407,0,0,1,0,5.661,53.519,53.519,0,0,1-.976-5.466c-.586-3.9-1.171-8.2-1.952-13.274s-1.367-9.37-1.952-13.274A47.988,47.988,0,0,1,434.5,395Z" transform="translate(-376.327 -140.052)" fill="#263238"/>
    <g id="Grupo_17060" data-name="Grupo 17060" transform="translate(54.06 244.699)" opacity="0.3">
      <path id="Caminho_14145" data-name="Caminho 14145" d="M441.777,437.48s9.565-29.868-7.028-47.437a.944.944,0,0,0-1.367,0c-.2.2-.2.39-.39.586C432.016,395.509,430.845,410.54,441.777,437.48Z" transform="translate(-432.393 -389.75)"/>
    </g>
    <path id="Caminho_14146" data-name="Caminho 14146" d="M464.1,381.347s25.573-17.96,23.035-41.971a1.093,1.093,0,0,0-1.171-.976c-.2,0-.39.2-.586.2C481.669,342.109,471.713,353.236,464.1,381.347Z" transform="translate(-348.144 -193.943)" fill="#f27d00"/>
    <g id="Grupo_17061" data-name="Grupo 17061" transform="translate(115.956 144.457)" opacity="0.3">
      <path id="Caminho_14147" data-name="Caminho 14147" d="M464.1,381.347s25.573-17.96,23.035-41.971a1.093,1.093,0,0,0-1.171-.976c-.2,0-.39.2-.586.2C481.669,342.109,471.713,353.236,464.1,381.347Z" transform="translate(-464.1 -338.4)"/>
    </g>
    <path id="Caminho_14148" data-name="Caminho 14148" d="M482.355,343.5a23.322,23.322,0,0,1-2.147,5.076c-1.562,3.123-3.514,7.223-6.052,11.908s-4.88,8.785-6.637,11.518a24.243,24.243,0,0,1-3.319,4.49,38.353,38.353,0,0,1,2.538-4.88c1.757-3.319,3.9-7.418,6.442-11.713l6.442-11.713C480.4,346.623,481.379,345.062,482.355,343.5Z" transform="translate(-348.048 -189.087)" fill="#263238"/>
    <path id="Caminho_14149" data-name="Caminho 14149" d="M442.5,413.192s30.844-4.88,39.238-27.525a1.008,1.008,0,0,0-.586-1.367h-.586C475.686,385.667,461.631,391.328,442.5,413.192Z" transform="translate(-368.71 -150.24)" fill="#f27d00"/>
    <g id="Grupo_17062" data-name="Grupo 17062" transform="translate(73.79 234.06)" opacity="0.3">
      <path id="Caminho_14150" data-name="Caminho 14150" d="M442.5,413.192s30.844-4.88,39.238-27.525a1.008,1.008,0,0,0-.586-1.367h-.586C475.686,385.667,461.631,391.328,442.5,413.192Z" transform="translate(-442.5 -384.3)"/>
    </g>
    <path id="Caminho_14151" data-name="Caminho 14151" d="M473.444,388a37,37,0,0,1-4.1,3.709c-2.733,2.147-6.442,5.076-10.737,8s-8.2,5.661-11.127,7.418a23.188,23.188,0,0,1-4.88,2.538,38.114,38.114,0,0,1,4.49-3.319l10.932-7.613,10.932-7.809C470.32,389.952,471.882,388.976,473.444,388Z" transform="translate(-368.614 -146.717)" fill="#263238"/>
    <path id="Caminho_14152" data-name="Caminho 14152" d="M431.78,428.2l-8.98,60.906h56.221L471.6,428.2Z" transform="translate(-387.466 -108.441)" fill="#455a64"/>
    <path id="Caminho_14153" data-name="Caminho 14153" d="M471.089,438.221c0,.39-10.151.586-22.645.586s-22.645-.2-22.645-.586a219.273,219.273,0,0,1,22.645-.586A219.273,219.273,0,0,1,471.089,438.221Z" transform="translate(-384.61 -99.527)" fill="#263238"/>
    <path id="Caminho_14154" data-name="Caminho 14154" d="M472.451,440.686c0,.391-10.541.586-23.426.586s-23.426-.2-23.426-.586,10.541-.586,23.426-.586S472.451,440.3,472.451,440.686Z" transform="translate(-384.801 -97.111)" fill="#263238"/>
  </g>
  <g id="Boxes--inject-2" transform="translate(270.604 79.123)">
    <path id="Caminho_14155" data-name="Caminho 14155" d="M392.446,126.857h-6.052a49.053,49.053,0,0,0-16.593,3.9,51.207,51.207,0,0,0-21.083,16.4,47.028,47.028,0,0,0-7.418,15.031,50.4,50.4,0,0,0,5.076,38.262,41.581,41.581,0,0,0,6.637,8.785,34.91,34.91,0,0,0,8.98,7.028A21.16,21.16,0,0,0,373.315,219a15.354,15.354,0,0,0,10.932-4.49,14.992,14.992,0,0,0,4.295-11.322,20.217,20.217,0,0,0-3.9-11.908c-5.076-7.028-13.274-11.908-22.059-14.446a53.385,53.385,0,0,0-27.72-.39,52.358,52.358,0,0,0-13.274,5.271,46.94,46.94,0,0,0-11.518,8.98,29.156,29.156,0,0,0-2.343,2.733l-2.147,2.928a52.405,52.405,0,0,0-3.514,6.442,51.542,51.542,0,0,0-4.295,14.446,55.6,55.6,0,0,0,3.9,29.282A44.662,44.662,0,0,0,320.412,268a31.952,31.952,0,0,0,13.274,4.1,24.29,24.29,0,0,0,13.274-3.123,21.774,21.774,0,0,0,8.98-9.761,18.292,18.292,0,0,0,.391-12.884,24.707,24.707,0,0,0-7.418-10.346,32.975,32.975,0,0,0-10.737-6.247,42.968,42.968,0,0,0-23.816-.39,45.153,45.153,0,0,0-19.521,10.932,44.281,44.281,0,0,0-11.127,17.374,49.546,49.546,0,0,0,.586,35.138,54.56,54.56,0,0,0,16.008,21.473,58.912,58.912,0,0,0,14.836,8.589c1.757.781,3.319,1.171,4.295,1.562l1.366.39a14.334,14.334,0,0,0-1.562-.39,36.426,36.426,0,0,1-4.295-1.366,56.972,56.972,0,0,1-15.031-8.394,52.982,52.982,0,0,1-16.4-21.669,50.6,50.6,0,0,1-.586-35.529,45.431,45.431,0,0,1,11.322-17.569,47.392,47.392,0,0,1,19.716-11.127,42.555,42.555,0,0,1,24.206.39,31.944,31.944,0,0,1,11.127,6.442,27.754,27.754,0,0,1,7.613,10.737,18.852,18.852,0,0,1-.2,13.47,22.465,22.465,0,0,1-9.37,10.151,25.8,25.8,0,0,1-13.665,3.319,32.786,32.786,0,0,1-13.665-4.1A46.762,46.762,0,0,1,300.7,247.3a55.906,55.906,0,0,1-4.1-29.868,54.87,54.87,0,0,1,4.295-14.641,44.28,44.28,0,0,1,3.709-6.637l2.343-3.123c.781-.976,1.757-1.952,2.538-2.928a52.835,52.835,0,0,1,11.713-9.175,68.883,68.883,0,0,1,13.665-5.466,55.655,55.655,0,0,1,28.306.39c8.98,2.733,17.179,7.613,22.449,14.836a20.823,20.823,0,0,1,4.1,12.494,16.66,16.66,0,0,1-4.685,11.908,17.892,17.892,0,0,1-11.518,4.685A24.246,24.246,0,0,1,361.8,216.85a36.6,36.6,0,0,1-9.175-7.223A49.688,49.688,0,0,1,340.715,161.6a44.67,44.67,0,0,1,7.613-15.227,49.617,49.617,0,0,1,21.473-16.4,48.858,48.858,0,0,1,16.788-3.709,17.285,17.285,0,0,1,4.49,0Z" transform="translate(-127.737 -126.125)" fill="#263238"/>
    <rect id="Retângulo_3370" data-name="Retângulo 3370" width="273.688" height="211.025" transform="translate(56.221 196.14)" fill="#f27d00"/>
    <path id="Caminho_14156" data-name="Caminho 14156" d="M230.8,226.6l50.365,47.241h269.2L504.488,226.6Z" transform="translate(-174.579 -30.46)" fill="#f27d00"/>
    <path id="Caminho_14157" data-name="Caminho 14157" d="M230.8,226.79l273.688-.39h.2l.2.2,45.484,46.656.391.39.781.781h-1.171l-269-.2h-.2L230.8,226.79l50.755,46.851h-.2l269-.2-.39.781-.391-.39L504.1,227.181l.39.2Z" transform="translate(-174.579 -30.65)" fill="#263238"/>
    <path id="Caminho_14158" data-name="Caminho 14158" d="M231.1,227.8l48.413,61.3H504.2V272.7H280.879Z" transform="translate(-174.293 -29.317)" opacity="0.5"/>
    <path id="Caminho_14159" data-name="Caminho 14159" d="M343.586,414.479c-.2,0-.586-36.7-.586-81.989s.2-81.989.586-81.989.586,36.7.586,81.989S343.976,414.479,343.586,414.479Z" transform="translate(-67.75 -7.704)" fill="#263238"/>
    <rect id="Retângulo_3371" data-name="Retângulo 3371" width="24.206" height="27.33" transform="translate(294.771 358.948)" fill="#f5f5f5"/>
    <path id="Caminho_14160" data-name="Caminho 14160" d="M258.221,226.6,202,273.841h56.221Z" transform="translate(-202 -30.46)" fill="#f27d00"/>
    <g id="Grupo_17063" data-name="Grupo 17063" transform="translate(0 196.14)" opacity="0.4">
      <path id="Caminho_14161" data-name="Caminho 14161" d="M258.221,226.6,202,273.841h56.221Z" transform="translate(-202 -226.6)"/>
    </g>
    <rect id="Retângulo_3372" data-name="Retângulo 3372" width="314.683" height="242.65" transform="translate(23.23 407.165)" fill="#f27d00"/>
    <rect id="Retângulo_3373" data-name="Retângulo 3373" width="314.683" height="242.65" transform="translate(23.23 407.165)" opacity="0.3"/>
    <path id="Caminho_14162" data-name="Caminho 14162" d="M334.986,576.073c-.2,0-.586-54.074-.586-120.837s.2-120.837.586-120.837.586,54.074.586,120.837S335.376,576.073,334.986,576.073Z" transform="translate(-75.938 72.18)" fill="#263238"/>
    <rect id="Retângulo_3374" data-name="Retângulo 3374" width="24.206" height="27.33" transform="translate(287.158 594.765)" fill="#f5f5f5"/>
    <rect id="Retângulo_3375" data-name="Retângulo 3375" width="35.724" height="51.731" transform="translate(119.275 407.946)" fill="#263238"/>
    <rect id="Retângulo_3376" data-name="Retângulo 3376" width="35.724" height="51.731" transform="translate(119.275 597.498)" fill="#263238"/>
    <path id="Caminho_14163" data-name="Caminho 14163" d="M525.66,334.89h-12.1l-33.381.2-110.3.2-110.3-.2-33.381-.2h0l33.381-.2,110.3-.2,110.3.2,33.381.2h12.1Z" transform="translate(-190.479 72.275)" fill="#263238"/>
  </g>
</svg>
