<svg id="Componente_36_2" data-name="Componente 36 – 2" xmlns="http://www.w3.org/2000/svg" width="702" height="728.978" viewBox="0 0 702 728.978">
  <g id="freepik--Window--inject-2" transform="translate(34.775)">
    <rect id="Retângulo_3358" data-name="Retângulo 3358" width="616.239" height="463.05" transform="translate(1.073 1.217)" fill="#fff"/>
    <path id="Caminho_13953" data-name="Caminho 13953" d="M712.661,593.318v-8.5c0-5.571,0-13.823-.1-24.613,0-21.539-.124-53.188-.227-93.584-.1-80.669-.268-196.328-.454-336.291l.887.887L96.588,131.4h0l1.073-1.073V593.38l-.97-.97,444.771.474,126.326.268,33.526.124h.165l-33.34.124-126.1.268-445.411.475H95.453v-.97c0-138.911,0-296.555-.1-463.05V129.05h1.135l616.177.206h.908v.867c-.186,140.293-.33,256.118-.454,336.91-.1,40.314-.165,71.88-.227,93.378v30.638A10.294,10.294,0,0,1,712.661,593.318Z" transform="translate(-95.35 -129.05)" fill="#263238"/>
    <path id="Caminho_13954" data-name="Caminho 13954" d="M703.858,159.012a12.557,12.557,0,0,1-1.547.1h-4.58l-17.578.186c-15.247.124-37.343.186-64.618.165-54.591,0-129.978-.392-213.246-1.073L189.043,156.68l-64.638-.516-17.557-.206-4.58-.124a6.785,6.785,0,0,1-1.547,0,6.784,6.784,0,0,1,1.547-.1h4.58l17.557-.186c15.267-.124,37.343-.186,64.638-.186,54.57,0,129.978.413,213.267,1.093l213.225,1.712,64.638.5,17.557.227h4.58a7.385,7.385,0,0,1,1.547.124Z" transform="translate(-89.641 -101.079)" fill="#263238"/>
    <path id="Caminho_13955" data-name="Caminho 13955" d="M122.865,144.732a7.262,7.262,0,1,1-7.242-7.242,7.262,7.262,0,0,1,7.242,7.242Z" transform="translate(-81.54 -120.077)" fill="#263238"/>
    <path id="Caminho_13956" data-name="Caminho 13956" d="M136.934,144.732a7.262,7.262,0,1,1-7.262-7.242A7.262,7.262,0,0,1,136.934,144.732Z" transform="translate(-66.582 -120.077)" fill="#263238"/>
    <ellipse id="Elipse_1321" data-name="Elipse 1321" cx="7.262" cy="7.262" rx="7.262" ry="7.262" transform="translate(84.857 17.475)" fill="#263238"/>
    <rect id="Retângulo_3359" data-name="Retângulo 3359" width="126.635" height="94.801" transform="translate(108.48 326.718)" fill="#ebebeb"/>
    <rect id="Retângulo_3360" data-name="Retângulo 3360" width="126.635" height="94.801" transform="translate(247.556 326.718)" fill="#ebebeb"/>
    <rect id="Retângulo_3361" data-name="Retângulo 3361" width="126.635" height="94.801" transform="translate(409.636 326.718)" fill="#ebebeb"/>
  </g>
  <g id="freepik--search-bar--inject-2" transform="translate(121.905 188.901)">
    <path id="Caminho_13957" data-name="Caminho 13957" d="M538.511,305.822h-358.3a42.356,42.356,0,0,1-42.356-42.356h0a42.356,42.356,0,0,1,42.356-42.356h358.3a42.356,42.356,0,0,1,42.356,42.356h0A42.356,42.356,0,0,1,538.511,305.822Z" transform="translate(-137.296 -220.078)" fill="#fff"/>
    <path id="Caminho_13958" data-name="Caminho 13958" d="M538.8,306.354l2.517-.186a19.013,19.013,0,0,0,3.095-.309,33.946,33.946,0,0,0,4.229-.8l2.517-.66c.866-.289,1.754-.64,2.7-.99l1.444-.536,1.465-.722a25.212,25.212,0,0,0,3.033-1.589,41.534,41.534,0,0,0,12.276-10.77,32.327,32.327,0,0,0,2.7-3.941,34.609,34.609,0,0,0,2.332-4.436,47.612,47.612,0,0,0,1.9-4.91c.227-.866.454-1.733.681-2.641l.351-1.341.206-1.382.433-2.827.124-2.888V262.45a16.418,16.418,0,0,0-.186-3.033,44.812,44.812,0,0,0-3.28-12.214,42.728,42.728,0,0,0-18.692-20.239,41.778,41.778,0,0,0-14.442-4.6c-5.2-.578-10.667-.289-16.216-.351l-347.412.165a46.979,46.979,0,0,0-12.379,1.836,45.82,45.82,0,0,0-11.182,5.385,45.161,45.161,0,0,0-9.037,8.253,43.472,43.472,0,0,0-6.189,10.543A44.107,44.107,0,0,0,138.9,260a45.16,45.16,0,0,0,.619,12.028,41.83,41.83,0,0,0,30.988,32.453,44.515,44.515,0,0,0,5.694,1.032c1.939,0,3.837.268,5.8.227h56.736l156.2.124,105.22.165,28.636.1H500.154l-105.22.186-156.2.1H182c-1.939,0-3.941-.145-5.9-.227a46.8,46.8,0,0,1-5.839-1.052,42.624,42.624,0,0,1-20.631-11.842,44.4,44.4,0,0,1-7.138-9.862,45.387,45.387,0,0,1-4.126-11.553,46.6,46.6,0,0,1-.619-12.379,42.874,42.874,0,0,1,30.06-36.992,47.456,47.456,0,0,1,12.647-1.9l347.412.144c5.55,0,10.976-.206,16.3.413a41.8,41.8,0,0,1,14.751,4.7A43.326,43.326,0,0,1,577.831,246.5a44.951,44.951,0,0,1,3.28,12.379c.1,1.032.1,2.063.165,3.074v2.992c0,.99-.1,2.063-.144,2.95s-.309,1.919-.454,2.847l-.206,1.4-.351,1.362c-.247.908-.474,1.795-.7,2.661-.681,1.692-1.135,3.425-1.939,4.972a36.934,36.934,0,0,1-2.393,4.477,34.261,34.261,0,0,1-2.744,3.941,41.837,41.837,0,0,1-12.379,10.811,30.9,30.9,0,0,1-3.074,1.568l-1.485.7-1.444.536c-.97.351-1.857.7-2.744.97l-2.517.64a30.937,30.937,0,0,1-4.271.763,21.114,21.114,0,0,1-3.095.268Z" transform="translate(-137.581 -220.61)" fill="#263238"/>
    <circle id="Elipse_1322" data-name="Elipse 1322" cx="18.857" cy="18.857" r="18.857" transform="translate(358.306 41.078) rotate(-45)" fill="#fff"/>
    <path id="Caminho_13959" data-name="Caminho 13959" d="M334.429,270.647A19.889,19.889,0,1,1,354.3,250.779,19.889,19.889,0,0,1,334.429,270.647Zm0-37.693a17.825,17.825,0,1,0,17.8,17.825,17.825,17.825,0,0,0-17.8-17.825Z" transform="translate(50.529 -209.702)" fill="#263238"/>
    <rect id="Retângulo_3362" data-name="Retângulo 3362" width="2.063" height="18.878" transform="matrix(0.534, -0.846, 0.846, 0.534, 399.611, 53.095)" fill="#263238"/>
  </g>
  <g id="freepik--Folders--inject-2" transform="translate(364.934 488.086)">
    <path id="Caminho_13960" data-name="Caminho 13960" d="M264.584,498.242a10.728,10.728,0,0,1-9.1-12.131l13.266-92.3a8.913,8.913,0,0,1,10.316-7.2l8.665,1.258a9.284,9.284,0,0,0,8.954-3.755l2.414-3.528a9.284,9.284,0,0,1,8.954-3.755l41.263,5.921a9.325,9.325,0,0,1,7.221,5.3l1.568,3.507a9.325,9.325,0,0,0,7.2,5.3l52.507,7.551a8.892,8.892,0,0,1,7.861,9.8L412.1,508.6a10.707,10.707,0,0,1-12.131,9.078Z" transform="translate(-255.378 -353.832)" fill="#455a64"/>
    <g id="Grupo_17030" data-name="Grupo 17030" transform="translate(0 22.885)" opacity="0.3">
      <path id="Caminho_13961" data-name="Caminho 13961" d="M264.584,498.242a10.728,10.728,0,0,1-9.1-12.131l13.266-92.3a8.913,8.913,0,0,1,10.316-7.2l8.665,1.258a9.284,9.284,0,0,0,8.954-3.755l2.414-3.528a9.284,9.284,0,0,1,8.954-3.755l41.263,5.921a9.325,9.325,0,0,1,7.221,5.3l1.568,3.507a9.325,9.325,0,0,0,7.2,5.3l52.507,7.551a8.892,8.892,0,0,1,7.861,9.8L412.1,508.6a10.707,10.707,0,0,1-12.131,9.078Z" transform="translate(-255.378 -376.717)"/>
    </g>
    <path id="Caminho_13962" data-name="Caminho 13962" d="M359.993,398.046l-33.382-4.89-2.187-6a11.657,11.657,0,0,0-9.367-7.386l-32.639-4.683a10.316,10.316,0,0,0-11.946,8.253l-.536,3.817L255.5,487.359a11.739,11.739,0,0,0,10.316,12.915L398.491,519.5a11.719,11.719,0,0,0,13.555-9.47l13.617-94.657a7.7,7.7,0,0,0-6.54-8.748Z" transform="translate(-255.325 -355.74)" fill="#455a64"/>
    <rect id="Retângulo_3363" data-name="Retângulo 3363" width="79.74" height="33.547" transform="translate(52.554 72.142) rotate(8.18)" fill="#fff"/>
    <path id="Caminho_13963" data-name="Caminho 13963" d="M340.109,416.389c0,.289-12.214-1.217-27.192-3.363s-27.089-4.126-27.027-4.436,12.214,1.217,27.192,3.363S340.151,416.1,340.109,416.389Z" transform="translate(-222.939 -319.989)" fill="#263238"/>
    <path id="Caminho_13964" data-name="Caminho 13964" d="M339.63,419.819c0,.289-12.214-1.217-27.192-3.363s-27.089-4.126-27.048-4.436,12.214,1.217,27.192,3.363S339.671,419.53,339.63,419.819Z" transform="translate(-223.47 -316.342)" fill="#263238"/>
    <path id="Caminho_13965" data-name="Caminho 13965" d="M392.053,468.908a7.056,7.056,0,0,1-9.1-4.126l-21.869-57.149a5.818,5.818,0,0,1,3.611-7.407l5.364-2.063A6.19,6.19,0,0,0,374,393.15l.248-2.785a6.065,6.065,0,0,1,3.941-5.013l25.5-9.779a6.19,6.19,0,0,1,5.839.743l2.063,1.506a6.189,6.189,0,0,0,5.818.743l32.515-12.379a5.859,5.859,0,0,1,7.654,3.115l22.364,58.449a7.036,7.036,0,0,1-4.126,9.1Z" transform="translate(-143.336 -365.513)" fill="#f27d00"/>
    <g id="Grupo_17031" data-name="Grupo 17031" transform="translate(217.428 0.216)" opacity="0.3">
      <path id="Caminho_13966" data-name="Caminho 13966" d="M392.053,468.908a7.056,7.056,0,0,1-9.1-4.126l-21.869-57.149a5.818,5.818,0,0,1,3.611-7.407l5.364-2.063A6.19,6.19,0,0,0,374,393.15l.248-2.785a6.065,6.065,0,0,1,3.941-5.013l25.5-9.779a6.19,6.19,0,0,1,5.839.743l2.063,1.506a6.189,6.189,0,0,0,5.818.743l32.515-12.379a5.859,5.859,0,0,1,7.654,3.115l22.364,58.449a7.036,7.036,0,0,1-4.126,9.1Z" transform="translate(-360.765 -365.729)"/>
    </g>
    <path id="Caminho_13967" data-name="Caminho 13967" d="M415.635,379.954,395,387.835l-3.177-2.744a7.572,7.572,0,0,0-7.716-1.238l-20.219,7.737a6.767,6.767,0,0,0-4.126,8.6l.908,2.352L384.42,464.6a7.737,7.737,0,0,0,10.068,4.126l82.133-31.442a7.7,7.7,0,0,0,4.766-9.779L458.94,368.875a5.075,5.075,0,0,0-6.561-2.909Z" transform="translate(-144.802 -365.625)" fill="#f27d00"/>
    <rect id="Retângulo_3364" data-name="Retângulo 3364" width="52.342" height="22.014" transform="translate(250.473 48.047) rotate(-20.95)" fill="#fff"/>
    <path id="Caminho_13968" data-name="Caminho 13968" d="M415.808,385.67A147.492,147.492,0,0,1,399.2,392.6a147.362,147.362,0,0,1-16.98,5.921,157.231,157.231,0,0,1,16.505-6.932,152.251,152.251,0,0,1,17.083-5.921Z" transform="translate(-120.527 -344.314)" fill="#263238"/>
    <path id="Caminho_13969" data-name="Caminho 13969" d="M416.65,387.8a155.5,155.5,0,0,1-16.505,6.911A151.162,151.162,0,0,1,383,400.591a147.477,147.477,0,0,1,16.608-6.932A148.851,148.851,0,0,1,416.65,387.8Z" transform="translate(-119.697 -342.049)" fill="#263238"/>
  </g>
  <g id="freepik--Character--inject-2" transform="translate(0 37.018)">
    <path id="Caminho_13970" data-name="Caminho 13970" d="M117.349,448.64l-1.259,60,78.977,1.857c-.268-7.138-40.747-22.426-40.747-22.426l2.476-38.395Z" transform="translate(71.263 178.805)" fill="#455a64"/>
    <g id="Grupo_17032" data-name="Grupo 17032" transform="translate(198.892 662.915)" opacity="0.6">
      <path id="Caminho_13971" data-name="Caminho 13971" d="M124.028,465.993a3.053,3.053,0,0,0-2.311,3.425,3.1,3.1,0,0,0,3.569,2.208,2.909,2.909,0,1,0-1.547-5.55" transform="translate(-121.683 -465.832)" fill="#fff"/>
    </g>
    <g id="Grupo_17033" data-name="Grupo 17033" transform="translate(187.353 681.396)" opacity="0.6">
      <path id="Caminho_13972" data-name="Caminho 13972" d="M116.09,480.835l.392-6.045,75.573,4.126s3.466,1.527,3.012,3.858Z" transform="translate(-116.09 -474.79)" fill="#fff"/>
    </g>
    <path id="Caminho_13973" data-name="Caminho 13973" d="M139,467.761c0,.371-1.939.5-3.879,1.63s-2.971,2.62-3.322,2.476.268-2.249,2.641-3.569S139.1,467.431,139,467.761Z" transform="translate(87.864 198.76)" fill="#263238"/>
    <path id="Caminho_13974" data-name="Caminho 13974" d="M141.927,469.334c0,.351-1.609.929-2.971,2.434s-1.774,3.136-2.063,3.115-.578-2.063,1.135-3.941S141.927,468.983,141.927,469.334Z" transform="translate(93.146 200.633)" fill="#263238"/>
    <path id="Caminho_13975" data-name="Caminho 13975" d="M141.6,477.043c-.351,0-.846-1.754.186-3.734s2.868-2.723,3.033-2.414-.99,1.341-1.816,2.971S141.974,477.022,141.6,477.043Z" transform="translate(97.927 202.393)" fill="#263238"/>
    <path id="Caminho_13976" data-name="Caminho 13976" d="M139.263,464.023c-.165.33-1.939-.206-4.126-.124s-3.9.7-4.126.392,1.485-1.589,4.126-1.651S139.49,463.755,139.263,464.023Z" transform="translate(87.104 193.688)" fill="#263238"/>
    <path id="Caminho_13977" data-name="Caminho 13977" d="M140.358,462.222a7.84,7.84,0,0,1-3.961-.1,18.931,18.931,0,0,1-4.126-1.3,19.557,19.557,0,0,1-2.228-1.2,4.886,4.886,0,0,1-1.176-.908,1.506,1.506,0,0,1-.124-1.939,2.064,2.064,0,0,1,1.712-.8,5.75,5.75,0,0,1,1.465.227,14.44,14.44,0,0,1,2.455.867,13.554,13.554,0,0,1,3.569,2.352c1.795,1.63,2.393,3.012,2.249,3.074s-1.032-1.032-2.868-2.414a16.316,16.316,0,0,0-3.466-1.96,17.235,17.235,0,0,0-2.269-.7c-.825-.227-1.527-.247-1.754,0s0,.186,0,.433a3.881,3.881,0,0,0,.846.66,23.7,23.7,0,0,0,2.063,1.176,20.836,20.836,0,0,0,3.8,1.465,26.818,26.818,0,0,1,3.817,1.073Z" transform="translate(84.399 186.597)" fill="#263238"/>
    <path id="Caminho_13978" data-name="Caminho 13978" d="M134.5,465.352a5.757,5.757,0,0,1-.949-3.631,11.389,11.389,0,0,1,.64-4.126,12.373,12.373,0,0,1,1.073-2.249,3.322,3.322,0,0,1,2.579-1.836,1.9,1.9,0,0,1,1.63,1.093,4.249,4.249,0,0,1,.351,1.382,7.86,7.86,0,0,1,0,2.517,8.54,8.54,0,0,1-1.774,3.817c-1.609,1.9-3.219,2.29-3.26,2.166a16.278,16.278,0,0,0,2.476-2.682,8.459,8.459,0,0,0,1.341-3.487,6.952,6.952,0,0,0,0-2.166c0-.784-.392-1.444-.7-1.362a2.808,2.808,0,0,0-1.424,1.2,12.38,12.38,0,0,0-1.032,2.063,12.584,12.584,0,0,0-.866,3.713A29.751,29.751,0,0,0,134.5,465.352Z" transform="translate(89.806 183.983)" fill="#263238"/>
    <path id="Caminho_13979" data-name="Caminho 13979" d="M132.012,453.516,124.4,513.037,46,503.3c1.32-7.015,43.594-16.2,43.594-16.2l3.177-38.354Z" transform="translate(-3.253 178.922)" fill="#455a64"/>
    <g id="Grupo_17034" data-name="Grupo 17034" transform="translate(106.962 665.665)" opacity="0.6">
      <path id="Caminho_13980" data-name="Caminho 13980" d="M81.221,467.32a3.053,3.053,0,0,1,1.795,3.734,3.115,3.115,0,0,1-3.858,1.651,3.2,3.2,0,0,1-1.877-3.961,3.28,3.28,0,0,1,4.126-1.3" transform="translate(-77.125 -467.165)" fill="#fff"/>
    </g>
    <g id="Grupo_17035" data-name="Grupo 17035" transform="translate(42.747 678.859)" opacity="0.6">
      <path id="Caminho_13981" data-name="Caminho 13981" d="M124.4,486.661l.516-6.045L49.569,473.56S46,474.468,46,476.923Z" transform="translate(-46 -473.56)" fill="#fff"/>
    </g>
    <path id="Caminho_13982" data-name="Caminho 13982" d="M66.58,467.19c0,.371,1.857.763,3.61,2.166s2.558,3.033,2.93,2.93,0-2.249-2.063-3.9S66.539,466.839,66.58,467.19Z" transform="translate(18.626 198.3)" fill="#263238"/>
    <path id="Caminho_13983" data-name="Caminho 13983" d="M62.415,468.185c-.144.351,1.444,1.176,2.558,2.868s1.3,3.342,1.671,3.384.887-2.063-.536-4.126S62.456,467.9,62.415,468.185Z" transform="translate(14.189 199.491)" fill="#263238"/>
    <path id="Caminho_13984" data-name="Caminho 13984" d="M60.792,475.773c.33.124,1.073-1.609.33-3.714s-2.434-3.115-2.62-2.847.784,1.486,1.362,3.219S60.4,475.69,60.792,475.773Z" transform="translate(10.014 200.631)" fill="#263238"/>
    <path id="Caminho_13985" data-name="Caminho 13985" d="M67.435,463.357c.124.351,1.939,0,4.126.474s3.755,1.258,3.982.97-1.217-1.774-3.755-2.228S67.27,463.048,67.435,463.357Z" transform="translate(19.525 193.488)" fill="#263238"/>
    <path id="Caminho_13986" data-name="Caminho 13986" d="M68.85,461.21a7.838,7.838,0,0,0,3.92.454,17.226,17.226,0,0,0,4.25-.681,16.636,16.636,0,0,0,2.393-.846,4.91,4.91,0,0,0,1.3-.722,1.527,1.527,0,0,0,.413-1.9,2.187,2.187,0,0,0-1.589-1.052,5.842,5.842,0,0,0-1.485,0,13.5,13.5,0,0,0-2.538.5,13.72,13.72,0,0,0-3.9,1.8c-2.063,1.362-2.785,2.641-2.661,2.723s1.176-.887,3.177-1.96A15.1,15.1,0,0,1,78.2,457.7c.867-.1,1.568,0,1.733.351s0,.206-.144.413a3.632,3.632,0,0,1-.949.516,17.437,17.437,0,0,1-2.208.867,23.173,23.173,0,0,1-3.961.908,25.312,25.312,0,0,0-3.817.454Z" transform="translate(21.04 187.073)" fill="#263238"/>
    <path id="Caminho_13987" data-name="Caminho 13987" d="M71.211,465.268a5.778,5.778,0,0,0,1.465-3.466,11.6,11.6,0,0,0,0-4.126,11.079,11.079,0,0,0-.722-2.373,3.259,3.259,0,0,0-2.269-2.187,1.877,1.877,0,0,0-1.774.825,5.344,5.344,0,0,0-.557,1.32,7.531,7.531,0,0,0-.309,2.5,8.252,8.252,0,0,0,1.2,4.126c1.3,2.063,2.847,2.744,2.909,2.62a16.859,16.859,0,0,1-2.063-3.012,8.521,8.521,0,0,1-.8-3.652,6.911,6.911,0,0,1,.33-2.063c.206-.784.6-1.382.908-1.259a2.838,2.838,0,0,1,1.217,1.382,13.27,13.27,0,0,1,.743,2.063,13.967,13.967,0,0,1,.309,3.8C71.583,463.927,71.088,465.268,71.211,465.268Z" transform="translate(19.112 183.551)" fill="#263238"/>
    <path id="Caminho_13988" data-name="Caminho 13988" d="M233.472,294.31l-122.942,3.941S81.542,491.732,82.347,505.2L64.48,645.5l51.991,1.836s8.253-45.533,13.885-76.687c3.8-20.631,10.728-51.125,12.606-68.434s32.288-138.23,32.288-138.23S173,504.276,173.063,510.052s-6.024,137.116-6.024,137.116h51.578c2.661-23.706,9-118.568,10.316-137.735,2.476-34.619,10.316-132.412,11.368-157.4S233.472,294.31,233.472,294.31Z" transform="translate(16.394 14.731)" fill="#263238"/>
    <path id="Caminho_13989" data-name="Caminho 13989" d="M142.682,299.309a22.693,22.693,0,0,1,0-8.809A21.6,21.6,0,0,1,142.682,299.309Z" transform="translate(99.075 10.681)" fill="#455a64"/>
    <path id="Caminho_13990" data-name="Caminho 13990" d="M145.225,301.641a16.711,16.711,0,0,1,.928-11.141,42.371,42.371,0,0,1-.536,5.57,41.583,41.583,0,0,1-.392,5.57Z" transform="translate(101.649 10.681)" fill="#455a64"/>
    <path id="Caminho_13991" data-name="Caminho 13991" d="M124.9,291.492a4.89,4.89,0,0,0-2.6,1.465,3.57,3.57,0,0,0-.846,2.909,3.363,3.363,0,0,0,5.88,1.114,3.652,3.652,0,0,0,.289-3.012,4.663,4.663,0,0,0-1.9-2.311,2.382,2.382,0,0,1,.866.227,3.694,3.694,0,0,1,1.609,1.857,3.992,3.992,0,1,1-6.375-1.217,3.8,3.8,0,0,1,2.187-1.135C124.59,291.327,124.9,291.451,124.9,291.492Z" transform="translate(76.049 11.608)" fill="#455a64"/>
    <path id="Caminho_13992" data-name="Caminho 13992" d="M108.606,400.427A109.464,109.464,0,0,1,95.443,395.5,110.358,110.358,0,0,1,82.61,389.74a112.476,112.476,0,0,1,13.183,4.931,112.34,112.34,0,0,1,12.812,5.756Z" transform="translate(35.669 116.186)" fill="#455a64"/>
    <path id="Caminho_13993" data-name="Caminho 13993" d="M102.29,162.76c.392-7.159,4.807-11.574,10.976-15.226a22.323,22.323,0,0,1,20.631-.928c4.333,2.063,8.129,5.571,12.874,6.189,7.84,1.011,15.247-6.189,22.921-4.436a10.192,10.192,0,0,1-.743,19.971c5.137.743,8.026,7.242,6.189,12.049s-7.262,7.634-12.379,7.737a28.513,28.513,0,0,1-14.648-4.6c-4.477-2.6-8.665-5.735-13.348-7.964a22.2,22.2,0,0,0-15.04-2.208c-6.788,1.795-11.595,8.253-13.348,14.978s-1.011,13.967,0,20.9,2.393,13.926,1.733,20.92a2.579,2.579,0,0,1-.99,2.063c-1.032.578-2.228-.392-2.992-1.3a102.786,102.786,0,0,1-19.352-35.073C82.4,188.4,81.1,181.163,83.928,173.9s12.379-14.174,18.444-11.223" transform="translate(35.362 -144.518)" fill="#263238"/>
    <path id="Caminho_13994" data-name="Caminho 13994" d="M89.227,192.374l11.45,70.7c2.063,13.2,10.728,25.975,31.442,21.642h0c17.7-5.116,16.381-17.846,14.071-33.547h0s19.476-5.055,17.722-24.861c-.825-9.573-4.126-29.132-7.407-46.792A36.992,36.992,0,0,0,116.4,149.378l-1.919.186C94.034,152.926,85.39,172.031,89.227,192.374Z" transform="translate(41.76 -139.553)" fill="#ffbe9d"/>
    <path id="Caminho_13995" data-name="Caminho 13995" d="M130.031,201.2a48.03,48.03,0,0,1-26.491-5.013s7.757,14.69,27.3,10.935Z" transform="translate(57.92 -89.584)" fill="#eb996e"/>
    <path id="Caminho_14003" data-name="Caminho 14003" d="M96.627,177.278c-.351-.124-13.988-2.661-12.193,10.811S99.392,197,99.35,196.609,96.627,177.278,96.627,177.278Z" transform="translate(37.435 -109.974)" fill="#ffbe9d"/>
    <path id="Caminho_14004" data-name="Caminho 14004" d="M92.718,189.654a5.522,5.522,0,0,1-.578.433,2.434,2.434,0,0,1-1.754.268A5.88,5.88,0,0,1,87,185.487a7.634,7.634,0,0,1,.206-3.445,2.7,2.7,0,0,1,1.527-2.063,1.176,1.176,0,0,1,1.465.454c.248.351.186.64.268.64s.248-.268,0-.8a1.444,1.444,0,0,0-.64-.763,1.815,1.815,0,0,0-1.341-.186,3.342,3.342,0,0,0-2.063,2.414,8.067,8.067,0,0,0-.309,3.879,6.189,6.189,0,0,0,4.126,5.364,2.538,2.538,0,0,0,2.063-.66C92.738,189.984,92.759,189.675,92.718,189.654Z" transform="translate(39.281 -107.579)" fill="#eb996e"/>
    <path id="Caminho_14005" data-name="Caminho 14005" d="M156,162.942a25.769,25.769,0,0,0-9.264-8.727,44.336,44.336,0,0,0-26.449-6.581,36.064,36.064,0,0,0-24.2,12.049,38,38,0,0,0-8.48,20.157,56.015,56.015,0,0,0,2.063,21.931,16.67,16.67,0,0,0,4.56,8.438c1.547,1.32,4.126,2.063,5.509.66a5.426,5.426,0,0,0,1.258-3.28c1.547-10.687,2.992-22.179-1.836-31.834a31.3,31.3,0,0,1,8.438-9.49,16.092,16.092,0,0,1,12.111-2.909c6.189,1.238,10.522,6.726,15.742,10.316a28.657,28.657,0,0,0,25.934,3.157Z" transform="translate(40.658 -141.316)" fill="#263238"/>
    <path id="Caminho_14008" data-name="Caminho 14008" d="M136.74,179.6l3.2-.867,49.784,48.381,40.4,4.869s-.413-12.193-15.577-27.749c-13.617-13.906-45.286-30.411-56.014-38.952a16.505,16.505,0,0,0-4.642-2.765Z" transform="translate(93.216 -125.38)" fill="#ffbe9d"/>
    <path id="Caminho_14009" data-name="Caminho 14009" d="M161.342,163.318l-5.1-1.444-12.007-5.694-13.658,5.1s.309,4.663,3.9,3.384l-14.318,4.725s1.176,3.4,1.816,3.631-8.4.97-8.4.97,0,4.6,8.562,4.518,11.884-1.547,11.884-1.547l6.87,1.836-.268,4.126-9.367-.144.433,5.24a110.5,110.5,0,0,0,12.049,1.857s14.442.206,18.362-1.692,8.913-4.6,8.913-4.6l7.489-14.277Z" transform="translate(68.594 -132.12)" fill="#ffbe9d"/>
    <path id="Caminho_14010" data-name="Caminho 14010" d="M138.188,163.1c0,.124-.8-.268-2.063-.846a33,33,0,0,1-4.848-2.579h.619l-.557.351a13.906,13.906,0,0,1-5.632,2.063,7.844,7.844,0,0,1-2.476,0,30.951,30.951,0,0,0,7.551-2.888l.516-.33.31-.206.309.227c1.671,1.155,3.425,2.063,4.58,2.785S138.291,162.993,138.188,163.1Z" transform="translate(78.853 -129.483)" fill="#eb996e"/>
    <path id="Caminho_14011" data-name="Caminho 14011" d="M138.886,166.488a3.376,3.376,0,0,1-2.311-.268c-1.382-.6-2.93-2.063-4.89-2.888h.5a20.626,20.626,0,0,1-2.765,1.568,19.578,19.578,0,0,1-7.716,1.9,7.056,7.056,0,0,1-3.26-.351,35.071,35.071,0,0,0,10.522-2.517,21.08,21.08,0,0,0,2.641-1.465l.268-.144h.227c2.228,1.135,3.528,2.641,4.745,3.26S138.886,166.323,138.886,166.488Z" transform="translate(73.761 -125.592)" fill="#eb996e"/>
    <path id="Caminho_14012" data-name="Caminho 14012" d="M143.193,167c0,.165-1.052-.144-2.682-.124a11.2,11.2,0,0,0-5.942,1.795,10.171,10.171,0,0,0-2.95,2.909l-.124.186h-.186a15.864,15.864,0,0,1-4.89.6,15.556,15.556,0,0,1,4.7-1.506l-.309.206a9.78,9.78,0,0,1,3.157-3.322,10.316,10.316,0,0,1,6.561-1.651C142.306,166.3,143.255,166.9,143.193,167Z" transform="translate(82.245 -121.626)" fill="#eb996e"/>
    <path id="Caminho_14013" data-name="Caminho 14013" d="M178.507,169.26l-17.165-5.942-5.1-1.444-12.007-5.694-13.658,5.1s.309,4.663,3.9,3.384l-14.318,4.725s1.176,3.4,1.816,3.631-8.4.97-8.4.97,0,4.6,8.562,4.518,11.884-1.547,11.884-1.547l6.87,1.836-.268,4.126-8.913-.392.928,5.777a93.812,93.812,0,0,0,11.1,1.568s14.442.206,18.362-1.692,8.913-4.6,8.913-4.6" transform="translate(68.594 -132.12)" fill="none"/>
    <path id="Caminho_14014" data-name="Caminho 14014" d="M171.252,183.675a1.691,1.691,0,0,1-.413.268l-1.3.743-4.993,2.7a16.073,16.073,0,0,1-3.776,1.692,36.075,36.075,0,0,1-4.848.784c-3.507.351-7.51.5-11.946.5h0l-5.385-.557a34.684,34.684,0,0,1-5.9-1.011h-.206v-.268c-.289-1.795-.6-3.755-.928-5.756l-.1-.578h.578l8.913.371-.536.454c0-1.258.186-2.661.268-4.126l.392.536-6.891-1.836h.351a36.248,36.248,0,0,1-10.316,1.568,24.181,24.181,0,0,1-5.426-.268,6.974,6.974,0,0,1-4.89-2.971,4.127,4.127,0,0,1-.536-1.774v-.475h.516c2.063-.186,4.271-.371,6.354-.6l1.527-.206h.33v.1a.433.433,0,0,0-.124.454c0,.186.371.433.289.351a1.135,1.135,0,0,1-.33-.206,3.281,3.281,0,0,1-.557-.784,23.925,23.925,0,0,1-1.238-2.93l-.186-.516.516-.165,14.442-4.7.33.949a3.837,3.837,0,0,1-1.816.206,2.723,2.723,0,0,1-1.609-.928,5.632,5.632,0,0,1-1.155-3.115v-.351l.371-.144L144.7,156.05h.33l11.987,5.756h0l5.013,1.444L166.4,164.8l6.932,2.517,4.353,1.609a7.777,7.777,0,0,1,1.485.619,14.45,14.45,0,0,1-1.547-.433l-4.415-1.424-6.994-2.331-4.374-1.465-5.034-1.362h0L144.761,156.9h.351l-13.658,5.137.33-.5a4.684,4.684,0,0,0,.928,2.538,2.063,2.063,0,0,0,2.311.413l.33.97-14.3,4.745.33-.681a18.238,18.238,0,0,0,1.176,2.765,2.493,2.493,0,0,0,.33.516h0a.681.681,0,0,0-.124.248h0c.206-.536,0-.144.144-.248h.144a.557.557,0,0,1,.186.309.537.537,0,0,1-.144.5c-.165.165-.124.1-.165.124h-.619l-1.589.206c-2.063.248-4.126.433-6.375.619l.475-.516a3.218,3.218,0,0,0,.392,1.217,5.942,5.942,0,0,0,4.126,2.455,22.962,22.962,0,0,0,5.2.248,35.588,35.588,0,0,0,9.924-1.444h.351l6.87,1.857h.413v.413c0,1.424-.186,2.826-.268,4.126v.5h-.5l-8.892-.413.5-.557c.309,2.063.619,3.982.887,5.777l-.248-.33a38.42,38.42,0,0,0,5.612.97l5.344.6h0c4.394,0,8.376,0,11.863-.33a34.833,34.833,0,0,0,4.787-.66,16.506,16.506,0,0,0,3.714-1.568l5.075-2.517,1.341-.619C171.087,183.717,171.231,183.655,171.252,183.675Z" transform="translate(68.36 -132.258)" fill="#eb996e"/>
    <path id="Caminho_14015" data-name="Caminho 14015" d="M139.313,161.917a15.886,15.886,0,0,1-5.3,5.385,16.2,16.2,0,0,1-6.829,3.26c-.124-.289,2.888-1.754,6.189-4.126S139.066,161.71,139.313,161.917Z" transform="translate(83.051 -126.035)" fill="#eb996e"/>
    <path id="Caminho_14016" data-name="Caminho 14016" d="M231.981,197.193l-39.963-3.363L144.9,211.759l-10.316,6.313,14.69,50.382s73.84-43.512,76.976-47.225a26.821,26.821,0,0,0,5.736-24.036Z" transform="translate(90.92 -92.093)" fill="#f27d00"/>
    <path id="Caminho_14017" data-name="Caminho 14017" d="M85.471,225.615,71.73,234.136l31.731,124.923L97.7,431.083c8.253,7.138,28.884,13.266,68.084,11.038s65.36-19.29,65.36-19.29l-3.755-74.087-8.933-83.6-10.006-57.17-30.2,2.187-11.781-6.973-5.282,2.641L154.421,224.6,136.8,211.854,116.17,201.93l-7.53,14.05Z" transform="translate(24.102 -83.481)" fill="#f27d00"/>
    <path id="Caminho_14018" data-name="Caminho 14018" d="M138,211.91a16.507,16.507,0,0,1,1.073,2.765c.66,1.816,1.485,4.456,2.476,7.757a253.974,253.974,0,0,1,6.189,26.119A255.213,255.213,0,0,1,151,275.166c.227,3.425.33,6.189.351,8.108a14.09,14.09,0,0,1,0,2.992,18.758,18.758,0,0,1-.351-2.971c-.186-2.063-.413-4.807-.7-8.067-.64-6.808-1.733-16.216-3.569-26.491s-4.023-19.476-5.777-26.1c-.846-3.157-1.568-5.8-2.063-7.84A13.656,13.656,0,0,1,138,211.91Z" transform="translate(94.556 -72.871)" fill="#263238"/>
    <path id="Caminho_14019" data-name="Caminho 14019" d="M129.514,216.419a8.254,8.254,0,0,1-2.847-1.052,18.135,18.135,0,0,1-6.189-5.344l.743-.206a69.94,69.94,0,0,1-3.693,18.053l-.227.66-.578-.392-1.444-1.011c-7.118-4.89-13.514-9.367-18.114-12.668l-5.405-3.941a10.9,10.9,0,0,1-1.9-1.568,10.585,10.585,0,0,1,2.063,1.217l5.591,3.672c4.725,3.115,11.182,7.51,18.279,12.379l1.465.99-.825.268a75.572,75.572,0,0,0,3.879-17.764V208.6l.64.908a19.25,19.25,0,0,0,5.8,5.426C128.544,215.945,129.555,216.316,129.514,216.419Z" transform="translate(43.377 -76.39)" fill="#263238"/>
    <path id="Caminho_14020" data-name="Caminho 14020" d="M133.178,207.513a65.8,65.8,0,0,1-6.705,7.613l-.371.392-.371-.413a46.245,46.245,0,0,0-4.477-4.56c-.867-.743-1.712-1.444-2.558-2.063l-1.259-.928a1.423,1.423,0,0,0-.289-.041l-.186.309-1.919,4.91a22.3,22.3,0,0,1-2.063,4.436,21.062,21.062,0,0,1,1.32-4.7c.536-1.547,1.114-3.219,1.712-4.993a1.465,1.465,0,0,1,.722-.887,1.32,1.32,0,0,1,1.2.186l1.32.949c.887.64,1.774,1.362,2.641,2.063a38.538,38.538,0,0,1,4.539,4.725h-.743a66.021,66.021,0,0,1,7.489-6.994Z" transform="translate(67.956 -78.605)" fill="#263238"/>
    <path id="Caminho_14021" data-name="Caminho 14021" d="M154.689,316.489A85.455,85.455,0,1,1,134.45,477.971h0A85.455,85.455,0,0,1,154.772,316.51Zm30.473,162.328a79.658,79.658,0,1,0-48.381-6.045A79.658,79.658,0,0,0,185.162,478.817Z" transform="translate(38.275 36.744)" fill="#455a64"/>
    <path id="Caminho_14022" data-name="Caminho 14022" d="M172.82,492.624a89.994,89.994,0,1,1,30.823-5.488,89.994,89.994,0,0,1-30.823,5.488Zm.186-165.278a75.635,75.635,0,1,0,13.906,149.969h0a75.638,75.638,0,0,0-13.906-149.969Z" transform="translate(35.763 34.202)" fill="#455a64"/>
    <path id="Caminho_14023" data-name="Caminho 14023" d="M26.084,319.773l.763-1.857c1.609-3.982,5.158-6.313,7.922-5.178l124.9,50.815c.619.248.825,1.176.475,2.063l-5.323,13.08c-.371.887-1.155,1.4-1.774,1.155l-124.9-50.918C25.383,327.8,24.454,323.672,26.084,319.773Z" transform="translate(-25.281 34.018)" fill="#455a64"/>
    <path id="Caminho_14024" data-name="Caminho 14024" d="M109.357,250.9l-15.02,49.7,7.53,101.3L79.71,404.683s-25.377-86.2-22.86-101.8S69.724,241.86,69.724,241.86Z" transform="translate(8.096 -41.03)" fill="#ffbe9d"/>
    <path id="Caminho_14025" data-name="Caminho 14025" d="M91.936,319.08,102.252,336.7l6.437,16.505-9.635-3.776s-4.126,19.93-5.8,20.446-6.313-1.093-5.839-4.91a6.313,6.313,0,0,1-5.261,1.733c-2.93-.6-3.631-2.5-3.3-6.189,0,0-3.4,2.765-5.447,1.052a6.19,6.19,0,0,1-1.836-4.745s-4.436.371-5.055-1.919a38.208,38.208,0,0,1-.248-11.388c.516-2.517,2.661-12.75,2.661-12.75l.99-8.253Z" transform="translate(17.966 41.065)" fill="#ffbe9d"/>
    <path id="Caminho_14026" data-name="Caminho 14026" d="M78.516,335.75a19.022,19.022,0,0,0-1.547,5.653,19.291,19.291,0,0,0-.64,5.839,18.774,18.774,0,0,0,1.547-5.653,19.29,19.29,0,0,0,.64-5.839Z" transform="translate(28.972 58.788)" fill="#eb996e"/>
    <path id="Caminho_14027" data-name="Caminho 14027" d="M73.984,334.64a11.822,11.822,0,0,0-1.382,4.5,12.379,12.379,0,0,0-.475,4.7,12.626,12.626,0,0,0,1.382-4.518,12.77,12.77,0,0,0,.475-4.683Z" transform="translate(24.468 57.608)" fill="#eb996e"/>
    <path id="Caminho_14028" data-name="Caminho 14028" d="M70.067,333.61a12.008,12.008,0,0,0-.7,3.9c-.351,2.063-.908,3.817-.64,3.92a6.355,6.355,0,0,0,1.547-3.776,7.324,7.324,0,0,0-.206-4.044Z" transform="translate(20.833 56.513)" fill="#eb996e"/>
    <path id="Caminho_14029" data-name="Caminho 14029" d="M83.733,331a21.355,21.355,0,0,0-1.65,5.529A22.7,22.7,0,0,0,81.01,342.2a15.206,15.206,0,0,0,1.96-5.447A15.784,15.784,0,0,0,83.733,331Z" transform="translate(33.968 53.738)" fill="#eb996e"/>
    <path id="Caminho_14030" data-name="Caminho 14030" d="M58.863,363.642c0-1.692-6.932-25.294-4.828-37.529s27.275-94.9,30.658-100.8a25.768,25.768,0,0,1,10.749-9.119,41.139,41.139,0,0,1,20.033,25.15c5.055,18.135,5.055,40.891,5.055,40.891l-20.239,50.2L102.7,360.94Z" transform="translate(4.867 -68.321)" fill="#f27d00"/>
    <path id="Caminho_14031" data-name="Caminho 14031" d="M95.437,278.922c-.206,0,.186-3.714,0-9.655a84.878,84.878,0,0,0-1.011-10.316,83.865,83.865,0,0,0-7.675-24.242,85.729,85.729,0,0,0-5.158-9.057c-3.26-4.993-5.694-7.778-5.55-7.9a11.966,11.966,0,0,1,1.816,1.877,56.526,56.526,0,0,1,4.291,5.529,76.748,76.748,0,0,1,5.405,9.037,79.678,79.678,0,0,1,7.778,24.551,79.349,79.349,0,0,1,.784,10.522,56.03,56.03,0,0,1-.351,7.077,13.6,13.6,0,0,1-.33,2.579Z" transform="translate(28.681 -66.662)" fill="#263238"/>
    <path id="Caminho_14032" data-name="Caminho 14032" d="M93.868,252.49a37.136,37.136,0,0,1-2.063,6.189c-1.465,3.817-3.672,9-6.189,14.648L79.1,287.77a46.56,46.56,0,0,1-2.806,5.962,37.14,37.14,0,0,1,2.063-6.189c1.465-3.817,3.672-9,6.189-14.648l6.52-14.442a46.565,46.565,0,0,1,2.806-5.962Z" transform="translate(28.95 -29.729)" fill="#263238"/>
    <path id="Caminho_14033" data-name="Caminho 14033" d="M91.64,278.092a94.3,94.3,0,0,0-13.864-6.024,93.147,93.147,0,0,0-14.9-2.62,14.13,14.13,0,0,1,4.5-.248,44.5,44.5,0,0,1,10.708,1.836,43.517,43.517,0,0,1,9.944,4.395A14.072,14.072,0,0,1,91.64,278.092Z" transform="translate(14.693 -12.047)" fill="#263238"/>
    <path id="Caminho_14034" data-name="Caminho 14034" d="M178.475,342.381c.186.227-16.072,14.442-36.332,31.793s-36.827,31.195-37.013,30.947,16.072-14.442,36.332-31.772S178.29,342.154,178.475,342.381Z" transform="translate(59.61 65.835)" fill="#fff"/>
    <path id="Caminho_14035" data-name="Caminho 14035" d="M182.715,342.382c.206.227-13.493,12.379-30.6,27.007s-31.091,26.429-31.3,26.2,13.514-12.379,30.6-27.006S182.53,342.155,182.715,342.382Z" transform="translate(76.29 65.835)" fill="#fff"/>
    <path id="Caminho_14036" data-name="Caminho 14036" d="M249.605,398.456a10.362,10.362,0,0,0-.124-1.3c-.124-.866-.124-2.187-.248-3.858a17.341,17.341,0,0,0-.165-2.827c-.165-1.032-.33-2.166-.516-3.4s-.392-2.538-.619-3.941-.7-2.847-1.052-4.415a78.047,78.047,0,0,0-9-21.518,80.749,80.749,0,0,0-20.528-22.9l-3.487-2.6c-1.238-.8-2.517-1.527-3.8-2.311a37.07,37.07,0,0,0-3.941-2.29l-4.126-2.063-2.063-1.011-2.249-.8-4.539-1.65c-1.547-.516-3.157-.846-4.745-1.279a42.1,42.1,0,0,0-4.89-1.114,74.757,74.757,0,0,0-10.192-1.176c-1.733,0-3.487-.227-5.261-.206l-5.323.289a14.76,14.76,0,0,0-2.7.165l-2.682.413c-1.795.309-3.631.516-5.426.887a87.99,87.99,0,0,0-21.25,7.778c-1.712.928-3.342,2.063-5.034,2.992-.825.536-1.692.99-2.476,1.568l-2.373,1.795a73.427,73.427,0,0,0-17.165,17.165l-1.857,2.476-1.63,2.661-1.609,2.662a20.624,20.624,0,0,0-1.506,2.744l-2.723,5.674c-.743,2.063-1.465,3.982-2.187,5.983a79.781,79.781,0,0,0,0,50.836c.743,2.063,1.465,3.982,2.187,5.963s1.836,3.8,2.744,5.694l.681,1.4.825,1.341,1.609,2.661,1.63,2.661,1.857,2.476a92.831,92.831,0,0,0,7.861,9.263,94.889,94.889,0,0,0,9.14,7.778l2.373,1.774c.8.6,1.671,1.032,2.5,1.568,1.692.99,3.322,2.063,5.013,2.992a82.746,82.746,0,0,0,10.522,4.621,84.989,84.989,0,0,0,10.749,3.157c1.795.371,3.631.578,5.426.887l2.682.413c.908.124,1.795.1,2.7.165l5.323.289c1.774,0,3.528-.144,5.261-.206A74.8,74.8,0,0,0,183.4,477.6a38.235,38.235,0,0,0,4.89-1.114c1.589-.433,3.218-.763,4.745-1.258l4.539-1.671,2.249-.8,2.063-1.011,4.126-2.063c1.4-.64,2.641-1.547,3.941-2.29s2.558-1.506,3.8-2.311l3.487-2.6a80.46,80.46,0,0,0,20.528-22.9,78.049,78.049,0,0,0,9.119-21.374c.351-1.568.887-2.991,1.052-4.415s.433-2.723.619-3.941.413-2.352.516-3.384.124-2.063.165-2.847q.186-2.476.248-3.837a5.549,5.549,0,0,1,.124-1.32v1.32c0,.866,0,2.187-.144,3.858q0,1.279-.124,2.847a28.8,28.8,0,0,1-.454,3.4l-.578,3.961a45.58,45.58,0,0,1-1.032,4.457,76.336,76.336,0,0,1-8.871,21.725,80.9,80.9,0,0,1-20.631,23.19l-3.507,2.641c-1.238.8-2.538,1.568-3.817,2.352a41.58,41.58,0,0,1-3.961,2.331l-4.229,2.063-2.063,1.011-2.269.846-4.58,1.671c-1.547.536-3.177.867-4.807,1.3a35.662,35.662,0,0,1-4.931,1.135,73.1,73.1,0,0,1-10.316,1.217c-1.774,0-3.528.248-5.323.227l-5.405-.268a15.2,15.2,0,0,1-2.723-.165l-2.723-.413c-1.816-.309-3.652-.516-5.488-.887a84.58,84.58,0,0,1-10.873-3.177,80.784,80.784,0,0,1-10.666-4.663c-1.712-.928-3.363-2.063-5.075-3.012-.846-.536-1.733-.99-2.538-1.589L120.143,464a89.762,89.762,0,0,1-9.263-7.861,88.017,88.017,0,0,1-8-9.449l-1.9-2.5-1.63-2.7-1.651-2.7-.825-1.341L96.17,436l-2.847-5.756L91.094,424.2a80.916,80.916,0,0,1,0-51.578l2.228-6c.928-1.919,1.857-3.837,2.765-5.756a24.361,24.361,0,0,1,1.527-2.785l1.651-2.7,1.65-2.682,1.877-2.5a93.044,93.044,0,0,1,8-9.449,89.754,89.754,0,0,1,9.264-7.861l2.414-1.795a28.881,28.881,0,0,1,2.517-1.609c1.712-.99,3.363-2.063,5.075-3.012a83.572,83.572,0,0,1,10.666-4.663,84.581,84.581,0,0,1,10.873-3.177c1.836-.371,3.672-.578,5.488-.887l2.723-.413c.908-.1,1.816-.1,2.723-.165l5.405-.268c1.774,0,3.549.165,5.3.227a73.041,73.041,0,0,1,10.316,1.217,43.849,43.849,0,0,1,4.931,1.135c1.609.433,3.239.784,4.807,1.3l4.58,1.671,2.249.846,2.063,1.032,4.126,2.063A44.5,44.5,0,0,1,210.3,328.7c1.279.784,2.579,1.547,3.817,2.352l3.507,2.641a80.9,80.9,0,0,1,20.631,23.19,76.334,76.334,0,0,1,8.872,21.725c.351,1.568.866,3.033,1.032,4.456s.392,2.744.578,3.961.371,2.373.454,3.4,0,2.063.124,2.847a28.142,28.142,0,0,0,.144,3.858A9.6,9.6,0,0,1,249.605,398.456Z" transform="translate(40.203 38.748)" fill="#263238"/>
    <path id="Caminho_14037" data-name="Caminho 14037" d="M151.24,419.2a28.644,28.644,0,0,1,2.063-2.765,76.087,76.087,0,0,0,5.158-7.737,71.2,71.2,0,0,0,6.189-59.047,84.6,84.6,0,0,0-3.445-8.645,22.693,22.693,0,0,1-1.424-3.115,5.535,5.535,0,0,1,.516.722c.309.5.763,1.217,1.279,2.208a62.765,62.765,0,0,1,3.775,8.583,68.909,68.909,0,0,1-6.189,59.687,65.275,65.275,0,0,1-5.488,7.613c-.7.846-1.32,1.465-1.712,1.9S151.281,419.219,151.24,419.2Z" transform="translate(108.632 61.063)" fill="#263238"/>
    <path id="Caminho_14038" data-name="Caminho 14038" d="M150.924,380.944c.144.268-.5.908-1.424,1.444s-1.816.743-1.96.5.5-.908,1.424-1.444S150.78,380.7,150.924,380.944Z" transform="translate(104.677 106.724)" fill="#263238"/>
    <path id="Caminho_14039" data-name="Caminho 14039" d="M101.124,422.667a4.128,4.128,0,0,1-.5-.97c-.289-.64-.743-1.589-1.217-2.868a75,75,0,0,1-3.28-11.017,79.472,79.472,0,0,1,19.1-70.683,71.476,71.476,0,0,1,8.376-7.881c1.032-.867,1.919-1.444,2.5-1.877s.887-.619.928-.578-1.114,1.011-3.157,2.785a84.912,84.912,0,0,0-8.088,8.046,81.205,81.205,0,0,0-18.9,70.064,86.651,86.651,0,0,0,2.971,11C100.67,421.243,101.207,422.646,101.124,422.667Z" transform="translate(48.102 49.259)" fill="#fff"/>
    <path id="Caminho_14040" data-name="Caminho 14040" d="M125.785,324.427a22.366,22.366,0,0,1-9.635.8,11.059,11.059,0,0,1,4.766-.949A11.306,11.306,0,0,1,125.785,324.427Z" transform="translate(71.326 46.385)" fill="#fff"/>
  </g>
</svg>
