<svg height="1598" viewBox="0 0 1440 1598" width="1440" xmlns="http://www.w3.org/2000/svg" xmlns:xlink="http://www.w3.org/1999/xlink"><clipPath id="a"><path d="m0 0h1440v1598h-1440z" transform="translate(0 -.4)"/></clipPath><g clip-path="url(#a)" transform="translate(0 .4)"><ellipse cx="264.453" cy="43.648" fill="#3f3d56" rx="264.453" ry="43.648" transform="translate(1065.966 1379.585)"/><path d="m1190.467 810.963c-.519 93.773-56.448 126.2-125.209 125.821q-2.4-.013-4.768-.08-4.78-.129-9.458-.488c-62.032-4.738-110.065-39.424-109.583-126.632.5-90.25 116.476-203.506 125.174-211.879.008 0 .008 0 .015-.008.331-.319.5-.479.5-.479s123.842 119.982 123.329 213.745z" fill="#001f40" transform="translate(363.634 451.571)"/><path d="m1031.621 922.416 45.89-63.374-46.043 70.358-.162 7.305q-4.78-.13-9.458-.488l5.425-93.784-.034-.726.084-.137.516-8.862-45.381-71.04 45.549 64.4.1 1.88 4.1-70.858-38.776-73.365 39.325 60.911 4.673-146.931.018-.489v.481l-1.283 115.885 39.259-45.727-39.488 55.706-1.383 63.46 36.766-60.7-36.963 70.034-.768 35.287 53.336-84.486-53.606 96.8z" fill="#3f3d56" transform="translate(392.82 451.57)"/><circle cx="83.35" cy="83.35" fill="#2f2e41" r="83.35" transform="translate(1222.171 382.829)"/><circle cx="56.601" cy="56.601" fill="#ffb8b8" r="56.601" transform="translate(1236.514 438.697)"/><path d="m917.338 293.516s24.476 56.6 12.238 62.72-18.357 33.655-18.357 33.655l32.125 67.309 44.363 27.536h26.006s26.006-116.262 16.827-130.029-42.833-21.417-42.833-21.417-7.648-18.357-4.589-35.185-65.78-4.589-65.78-4.589z" fill="#ffb8b8" transform="translate(342.122 232.376)"/><path d="m936.3 410.214-39.774-32.125s-71.9-50.482-62.72-13.768 50.478 39.779 50.478 39.779l68.839 55.071z" fill="#ffb8b8" transform="translate(286.45 276.303)"/><path d="m894.949 487.06s-18.357 76.488 0 180.511l7.649 41.3s0 32.125 7.649 44.363c0 0 19.887 182.041 30.6 182.041s44.363-6.119 47.422-10.708-59.669-445.156-59.669-445.156z" fill="#2f2e41" transform="translate(324.737 367.731)"/><path d="m894.949 487.06s-18.357 76.488 0 180.511l7.649 41.3s0 32.125 7.649 44.363c0 0 19.887 182.041 30.6 182.041s44.363-6.119 47.422-10.708-59.669-445.156-59.669-445.156z" opacity=".1" transform="translate(324.737 367.731)"/><path d="m942.264 738.6-23.7 87.819s-47.394 27.879-18.121 33.455 58.546-5.576 58.546-5.576l13.94-40.425 13.939-8.364v43.212h4.182l9.758-57.152s-1.394-29.273-9.758-32.061-12.546-18.121-12.546-18.121z" fill="#2f2e41" transform="translate(327.661 552.19)"/><path d="m942.264 738.6-23.7 87.819s-47.394 27.879-18.121 33.455 58.546-5.576 58.546-5.576l13.94-40.425 13.939-8.364v43.212h4.182l9.758-57.152s-1.394-29.273-9.758-32.061-12.546-18.121-12.546-18.121z" opacity=".1" transform="translate(327.661 552.19)"/><path d="m887.983 500.136s12.238 45.893 16.827 53.542c0 0 6.119 130.029 26.006 174.392l21.417 56.6s35.185 166.744 26 185.1c0 0 47.422 10.708 50.482 0 0 0-1.53-88.726 3.06-100.964s12.238-79.547-24.476-128.5v-148.383s58.131-48.952 24.476-111.672-143.792 19.885-143.792 19.885z" fill="#2f2e41" transform="translate(325.586 351.595)"/><path d="m966.83 751.1-26.006 96.375s-52.011 30.6-19.887 36.714 64.25-6.119 64.25-6.119l15.3-44.363 15.3-9.178v47.422h4.589l10.708-62.72s-1.53-32.125-10.708-35.185-13.768-19.887-13.768-19.887z" fill="#2f2e41" transform="translate(341.582 561.086)"/><path d="m969.439 321.7s-38.512 22.133-38.512 23.663 4.589 26.006 4.589 26.006-47.422 47.422-15.3 88.726c0 0 10.708 7.649 10.708 32.125v24.476s-90.256 56.6-67.309 74.958 47.422 15.3 55.071 26.006 52.012-9.179 61.191-12.238 10.708-6.119 18.357 4.589 50.482-7.648 50.482-7.648 27.536-7.649 33.655-7.649a21.162 21.162 0 0 0 10.708-3.059l-65.78-67.309 32.89-83.372s-97.139-60.426-97.139-77.253 6.389-42.021 6.389-42.021z" fill="#ff7d00" transform="translate(305.587 255.491)"/><path d="m1002.07 323.9s-19.887 27.536-4.589 65.78 39.774 82.607 39.774 82.607l-38.245 12.241h-35.184s-73.428-12.238-65.779 15.3 59.66 15.3 59.66 15.3h30.593s68.839 7.649 78.018-4.589c0 0 24.476-1.53 13.768-50.482s-41.972-132.757-41.972-132.757z" fill="#ffb8b8" transform="translate(332.35 257.061)"/><ellipse cx="53.381" cy="27.159" fill="#2f2e41" rx="53.381" ry="27.159" transform="translate(1228.728 415.608)"/><ellipse cx="7.649" cy="16.827" fill="#ffb8b8" rx="7.649" ry="16.827" transform="translate(1341.303 474.647)"/><circle cx="45.893" cy="45.893" fill="#2f2e41" r="45.893" transform="translate(1296.94 346.147)"/><g fill="#001f40"><circle cx="188.284" cy="188.284" opacity=".3" r="188.284" transform="translate(176.753 224.207)"/><circle cx="111.259" cy="111.259" opacity=".3" r="111.259" transform="translate(-110.808 825.003)"/><circle cx="227.652" cy="227.652" opacity=".3" r="227.652" transform="translate(486.565 708.61)"/><path d="m156.772 321.038-3.348-.714q1.076-5.045 2.242-10.056l3.335.776q-1.159 4.98-2.229 9.994z" transform="translate(-197.179 247.357)"/><path d="m1231.687 471.914c-1.755-6.522-3.661-13.109-5.66-19.576l3.27-1.011c2.013 6.507 3.93 13.135 5.7 19.7zm-1070.714-1.5-3.3-.9c1.792-6.583 3.734-13.229 5.774-19.753l3.268 1.021c-2.028 6.484-3.958 13.089-5.739 19.631zm1058.682-37.4c-2.242-6.392-4.624-12.812-7.084-19.079l3.186-1.25c2.476 6.306 4.874 12.766 7.128 19.2zm-1046.483-1.63-3.228-1.142c2.28-6.44 4.71-12.92 7.222-19.26l3.183 1.26c-2.5 6.3-4.911 12.742-7.175 19.14zm1031.611-36.254c-2.695-6.187-5.546-12.416-8.475-18.514l3.086-1.483c2.947 6.136 5.817 12.4 8.528 18.63zm-1016.555-1.741-3.134-1.379c2.748-6.247 5.649-12.526 8.624-18.663l3.081 1.493c-2.955 6.1-5.839 12.34-8.569 18.548zm998.923-34.969c-3.156-5.992-6.461-12-9.822-17.848l2.969-1.705c3.382 5.887 6.708 11.929 9.882 17.958zm-981.1-1.8-3.024-1.606c3.2-6.028 6.56-12.074 9.977-17.968l2.962 1.717c-3.394 5.861-6.732 11.87-9.914 17.861zm960.8-33.531c-3.579-5.734-7.318-11.483-11.109-17.087l2.835-1.919c3.816 5.639 7.577 11.423 11.179 17.192zm-940.326-1.8-2.9-1.824c3.631-5.766 7.422-11.546 11.266-17.179l2.828 1.929c-3.822 5.6-7.589 11.343-11.2 17.074zm917.482-31.952c-3.973-5.436-8.124-10.9-12.336-16.232l2.688-2.121c4.237 5.368 8.413 10.863 12.413 16.333zm-894.466-1.77-2.755-2.033c4.051-5.492 8.254-10.976 12.493-16.3l2.678 2.131c-4.214 5.293-8.392 10.744-12.418 16.2zm869.2-30.235c-4.383-5.154-8.923-10.3-13.495-15.292l2.524-2.312c4.6 5.023 9.169 10.2 13.578 15.386zm-843.786-1.7-2.6-2.228c4.431-5.168 9.023-10.329 13.648-15.339l2.516 2.322c-4.6 4.981-9.161 10.109-13.565 15.246zm816.245-28.383c-4.759-4.83-9.665-9.631-14.583-14.269l2.35-2.491c4.946 4.668 9.882 9.5 14.67 14.358zm-788.567-1.6-2.429-2.412c4.807-4.841 9.763-9.651 14.728-14.3l2.338 2.5c-4.936 4.616-9.86 9.4-14.638 14.208zm758.885-26.4c-5.093-4.466-10.339-8.9-15.589-13.17l2.16-2.654c5.284 4.3 10.561 8.757 15.686 13.25zm-729.1-1.474-2.247-2.583c5.144-4.472 10.436-8.906 15.729-13.179l2.15 2.664c-5.261 4.245-10.521 8.653-15.634 13.1zm697.445-24.288c-5.4-4.074-10.954-8.11-16.517-12l1.959-2.807c5.6 3.911 11.191 7.972 16.62 12.069zm-665.713-1.323-2.051-2.741c5.459-4.085 11.06-8.119 16.645-11.988l1.949 2.815c-5.55 3.844-11.117 7.85-16.543 11.914zm632.25-22.054c-5.693-3.673-11.535-7.292-17.361-10.754l1.748-2.944c5.862 3.484 11.739 7.125 17.468 10.821zm-598.74-1.159-1.845-2.883c5.736-3.67 11.615-7.28 17.473-10.732l1.738 2.95c-5.822 3.429-11.666 7.018-17.366 10.666zm563.628-19.7c-5.936-3.239-12.03-6.419-18.111-9.449l1.528-3.064c6.118 3.05 12.251 6.248 18.223 9.508zm-528.52-.98-1.628-3.012c5.984-3.234 12.11-6.4 18.206-9.413l1.516 3.069c-6.06 2.993-12.148 6.141-18.095 9.356zm491.955-17.246c-6.163-2.793-12.476-5.513-18.767-8.085l1.3-3.169c6.329 2.588 12.684 5.326 18.885 8.137zm-455.436-.79-1.4-3.122c6.195-2.78 12.534-5.486 18.842-8.042l1.285 3.173c-6.27 2.541-12.57 5.23-18.726 7.992zm417.613-14.686c-6.379-2.336-12.881-4.582-19.327-6.675l1.058-3.256c6.486 2.107 13.028 4.367 19.446 6.717zm-379.881-.6-1.167-3.218c6.392-2.319 12.91-4.547 19.373-6.624l1.047 3.26c-6.422 2.064-12.9 4.278-19.253 6.583zm340.981-12.029c-6.518-1.852-13.154-3.6-19.724-5.211l.812-3.325c6.61 1.616 13.288 3.38 19.847 5.243zm-302.2-.437-.926-3.3c6.551-1.84 13.233-3.584 19.861-5.184l.8 3.328c-6.581 1.594-13.222 3.327-19.735 5.156zm262.572-9.25c-6.626-1.363-13.372-2.62-20.051-3.733l.565-3.377c6.719 1.124 13.508 2.389 20.178 3.76zm-222.918-.322-.679-3.355c6.683-1.353 13.475-2.6 20.189-3.7l.555 3.378c-6.673 1.1-13.424 2.334-20.067 3.678zm182.689-6.411c-6.726-.872-13.548-1.628-20.275-2.251l.315-3.408c6.769.626 13.632 1.387 20.4 2.264zm-142.432-.2-.43-3.4c6.746-.855 13.611-1.6 20.406-2.206l.306 3.41c-6.754.605-13.578 1.343-20.283 2.193zm101.811-3.555c-6.746-.377-13.6-.634-20.385-.766l.067-3.423c6.821.133 13.722.392 20.509.771zm-61.181-.088-.18-3.418c6.8-.36 13.7-.6 20.515-.712l.057 3.423c-6.776.107-13.633.35-20.392.703z" transform="translate(-194.157 68.197)"/><path d="m790.266 322.144q-1.053-5.017-2.193-10l3.337-.766q1.151 5.015 2.206 10.064z" transform="translate(254.483 248.147)"/><path d="m793.449 452.528-3.36-.664q.99-5.015 1.892-10.062l3.37.6q-.906 5.08-1.902 10.126z" transform="translate(255.917 340.967)"/><path d="m698.208 889.952q-5.581 0-11.136-.109l.067-3.423c6.767.132 13.581.14 20.356.031l.055 3.424q-4.661.075-9.342.077zm29.81-.781-.18-3.42c6.771-.356 13.6-.841 20.3-1.439l.3 3.41c-6.738.602-13.607 1.09-20.42 1.449zm-61.406-.1c-6.795-.379-13.665-.888-20.419-1.511l.314-3.41c6.714.62 13.542 1.126 20.3 1.5zm102.188-3.541-.43-3.4c6.738-.852 13.515-1.835 20.141-2.922l.553 3.38c-6.667 1.092-13.485 2.079-20.265 2.938zm-142.96-.23c-6.764-.877-13.579-1.887-20.256-3l.565-3.377c6.635 1.108 13.408 2.113 20.13 2.984zm183.368-6.39-.677-3.356c6.643-1.341 13.328-2.82 19.871-4.395l.8 3.33c-6.582 1.583-13.309 3.071-19.993 4.422zm-223.756-.36c-6.678-1.371-13.4-2.88-19.98-4.486l.813-3.326c6.538 1.6 13.219 3.1 19.856 4.459zm263.568-9.22-.923-3.3c6.493-1.819 13.051-3.786 19.492-5.851l1.045 3.26c-6.479 2.079-13.077 4.059-19.612 5.887zm-303.351-.486c-6.543-1.856-13.153-3.863-19.647-5.968l1.055-3.256c6.454 2.091 13.023 4.087 19.526 5.931zm342.3-11.989-1.165-3.219c6.326-2.288 12.706-4.729 18.963-7.256l1.282 3.174c-6.294 2.543-12.713 5-19.078 7.3zm-381.349-.667c-6.4-2.338-12.838-4.829-19.141-7.4l1.294-3.169c6.263 2.557 12.664 5.033 19.022 7.356zm419.229-14.633-1.4-3.126c6.161-2.756 12.348-5.661 18.389-8.637l1.511 3.072c-6.076 2.991-12.3 5.915-18.5 8.691zm-457.22-.873c-6.2-2.8-12.438-5.762-18.532-8.791l1.524-3.066c6.055 3.011 12.253 5.951 18.418 8.737zm493.9-17.187-1.625-3.012c5.951-3.206 11.91-6.559 17.711-9.968l1.735 2.952c-5.837 3.428-11.833 6.8-17.819 10.028zm-530.629-1.069c-5.981-3.253-11.978-6.661-17.827-10.128l1.746-2.945c5.813 3.447 11.774 6.833 17.718 10.066zm565.893-19.636-1.84-2.885c5.668-3.614 11.366-7.4 16.939-11.245l1.946 2.818c-5.6 3.87-11.34 7.676-17.042 11.311zm-601.156-1.267c-5.717-3.679-11.446-7.515-17.029-11.405l1.956-2.808c5.55 3.865 11.244 7.678 16.925 11.335zm634.825-21.976-2.046-2.745c5.4-4.027 10.812-8.217 16.08-12.455l2.146 2.668c-5.3 4.264-10.743 8.48-16.178 12.532zm-668.449-1.447c-5.422-4.079-10.853-8.323-16.143-12.615l2.156-2.658c5.258 4.266 10.656 8.483 16.044 12.538zm700.342-24.2-2.24-2.588c5.1-4.419 10.193-8.995 15.134-13.6l2.334 2.5c-4.967 4.635-10.09 9.238-15.225 13.684zm-732.155-1.615c-5.125-4.478-10.231-9.107-15.174-13.755l2.345-2.494c4.914 4.62 9.988 9.22 15.082 13.672zm762.111-26.3-2.424-2.417c4.784-4.8 9.53-9.733 14.106-14.67l2.511 2.327c-4.604 4.964-9.38 9.932-14.193 14.757zm-791.943-1.75c-4.77-4.824-9.523-9.81-14.128-14.82l2.521-2.317c4.577 4.979 9.3 9.934 14.042 14.73zm819.784-28.282-2.594-2.233c4.416-5.128 8.793-10.4 13-15.667l2.675 2.14c-4.239 5.3-8.643 10.6-13.085 15.761zm-847.488-1.862c-4.407-5.164-8.782-10.481-13-15.806l2.683-2.126c4.2 5.292 8.545 10.578 12.926 15.709zm873.077-30.133-2.751-2.039c4.04-5.451 8.02-11.029 11.828-16.578l2.822 1.936c-3.829 5.584-7.833 11.2-11.9 16.682zm-898.5-1.943c-4.023-5.473-8-11.094-11.813-16.705l2.832-1.926c3.792 5.578 7.742 11.164 11.739 16.605zm921.68-31.851-2.892-1.832c3.612-5.7 7.173-11.555 10.584-17.406l2.959 1.725c-3.433 5.888-7.017 11.779-10.651 17.513zm-944.684-1.979c-3.607-5.747-7.158-11.641-10.553-17.518l2.964-1.712c3.375 5.84 6.9 11.7 10.49 17.411zm965.335-33.433-3.019-1.615c3.2-5.986 6.322-12.091 9.279-18.145l3.076 1.5c-2.969 6.091-6.108 12.235-9.331 18.256zm-985.791-1.977c-3.177-6-6.284-12.134-9.235-18.237l3.082-1.491c2.933 6.066 6.021 12.164 9.179 18.126zm1003.791-34.875-3.129-1.387c2.738-6.177 5.4-12.5 7.918-18.792l3.179 1.27c-2.532 6.331-5.213 12.693-7.968 18.909zm-1021.579-1.93c-2.729-6.216-5.375-12.562-7.865-18.857l3.183-1.26c2.475 6.258 5.1 12.563 7.816 18.741zm1036.807-36.17-3.223-1.153c2.282-6.384 4.471-12.889 6.511-19.335l3.263 1.033c-2.049 6.484-4.254 13.029-6.551 19.455zm-1051.834-1.818c-2.265-6.407-4.441-12.944-6.467-19.432l3.268-1.02c2.013 6.446 4.176 12.943 6.427 19.311zm1064.211-37.329-3.3-.913c1.792-6.489 3.49-13.122 5.048-19.714l3.333.789c-1.568 6.633-3.277 13.308-5.081 19.838zm-1076.422-1.753c-1.782-6.547-3.467-13.219-5.008-19.831l3.335-.776c1.531 6.571 3.205 13.2 4.976 19.708z" transform="translate(-196.237 352.7)"/><path d="m152.983 451.287q-.978-5.05-1.865-10.132l3.373-.588q.88 5.05 1.854 10.069z" transform="translate(-198.821 340.087)"/><path d="m636.838 453.481-3.183-1.259c1.242-3.141 2.449-6.356 3.589-9.559l3.226 1.148c-1.153 3.24-2.375 6.489-3.632 9.67z" transform="translate(144.588 341.579)"/><path d="m585.722 633.211c-4.1 0-8.238-.083-12.3-.247l.139-3.42c6.737.272 13.623.319 20.382.132l.094 3.423q-4.144.113-8.315.112zm28.889-1.372-.324-3.407c6.741-.642 13.54-1.528 20.21-2.629l.558 3.376c-6.747 1.117-13.624 2.01-20.444 2.659zm-61.746-.4c-6.809-.74-13.674-1.727-20.4-2.932l.6-3.37c6.654 1.19 13.44 2.166 20.172 2.9zm102.4-6.315-.791-3.33c6.591-1.565 13.2-3.375 19.654-5.384l1.018 3.27c-6.526 2.03-13.215 3.863-19.882 5.445zm-142.965-.951c-6.648-1.67-13.315-3.592-19.816-5.712l1.061-3.256c6.427 2.1 13.017 4 19.589 5.648zm182.307-11.307-1.242-3.189c6.3-2.452 12.6-5.158 18.726-8.042l1.459 3.1c-6.2 2.918-12.571 5.656-18.943 8.135zm-221.5-1.476c-6.351-2.569-12.689-5.392-18.838-8.391l1.5-3.076c6.078 2.964 12.343 5.753 18.62 8.294zm258.777-16.079-1.668-2.989c5.914-3.3 11.784-6.849 17.447-10.539l1.869 2.868c-5.72 3.734-11.658 7.32-17.64 10.66zm-295.83-1.978c-5.933-3.417-11.823-7.082-17.505-10.9l1.907-2.842c5.618 3.769 11.44 7.393 17.306 10.772zm330.356-20.524-2.063-2.731c5.411-4.084 10.742-8.4 15.846-12.824l2.243 2.588c-5.153 4.476-10.546 8.839-16.018 12.967zm-364.573-2.439c-5.42-4.2-10.755-8.637-15.855-13.184l2.278-2.554c5.042 4.493 10.315 8.878 15.674 13.033zm395.713-24.56-2.414-2.427c4.8-4.776 9.5-9.775 13.954-14.86l2.574 2.257c-4.51 5.143-9.259 10.2-14.115 15.031zm-426.485-2.852c-4.787-4.889-9.469-10.008-13.913-15.215l2.6-2.223c4.394 5.148 9.022 10.21 13.755 15.044zm453.656-28.136-2.721-2.075c4.1-5.377 8.072-10.969 11.8-16.622l2.858 1.885c-3.773 5.719-7.786 11.375-11.937 16.813zm-480.411-3.208c-4.082-5.5-8.022-11.211-11.71-16.97l2.883-1.845c3.646 5.692 7.541 11.336 11.576 16.776zm503.1-31.195-2.979-1.685c3.328-5.889 6.5-11.972 9.414-18.08l3.089 1.476c-2.952 6.178-6.156 12.331-9.525 18.288zm-525.331-3.5c-3.292-6.011-6.413-12.206-9.276-18.411l3.109-1.434c2.829 6.135 5.915 12.257 9.169 18.2z" transform="translate(-83.752 351.834)"/><path d="m309.569 451.239c-1.211-3.192-2.388-6.461-3.5-9.719l3.241-1.1c1.1 3.22 2.26 6.453 3.458 9.607z" transform="translate(-88.544 339.98)"/><path d="m312.525 324.289-3.176-1.277c1.282-3.19 2.634-6.392 4.017-9.515l3.131 1.386c-1.366 3.088-2.703 6.252-3.972 9.406z" transform="translate(-86.211 249.655)"/><path d="m320.039 370.683-3.026-1.6c3.234-6.115 6.726-12.2 10.381-18.078l2.907 1.807c-3.612 5.814-7.065 11.825-10.262 17.871zm522.676-4.983c-3.308-5.979-6.875-11.924-10.6-17.671l2.872-1.862c3.768 5.813 7.377 11.827 10.723 17.875zm-500.938-30-2.776-2c4.051-5.611 8.35-11.152 12.778-16.469l2.631 2.191c-4.376 5.249-8.628 10.727-12.633 16.278zm478.534-4.565c-4.105-5.465-8.46-10.862-12.938-16.039l2.588-2.24c4.532 5.236 8.934 10.694 13.088 16.223zm-452.174-27.091-2.474-2.367c4.784-5 9.8-9.9 14.922-14.554l2.305 2.532c-5.06 4.605-10.022 9.445-14.753 14.389zm425.224-4.058c-4.824-4.853-9.879-9.6-15.025-14.107l2.257-2.574c5.2 4.559 10.317 9.36 15.2 14.268zm-394.761-23.669-2.125-2.685c5.431-4.3 11.077-8.456 16.782-12.361l1.934 2.825c-5.64 3.861-11.222 7.972-16.591 12.221zm363.778-3.475c-5.443-4.14-11.1-8.146-16.822-11.9l1.879-2.862c5.787 3.8 11.512 7.852 17.016 12.04zm-329.79-19.789-1.733-2.952c5.967-3.5 12.134-6.841 18.33-9.921l1.524 3.066c-6.126 3.044-12.222 6.346-18.121 9.807zm295.359-2.824c-5.972-3.355-12.132-6.537-18.307-9.461l1.464-3.094c6.247 2.957 12.477 6.177 18.519 9.57zm-258.479-15.508-1.307-3.164c6.4-2.641 12.967-5.089 19.531-7.276l1.081 3.248c-6.487 2.164-12.983 4.582-19.3 7.194zm221.251-2.115c-6.378-2.491-12.919-4.786-19.443-6.821l1.02-3.268c6.6 2.058 13.217 4.379 19.669 6.9zm-182.184-10.906-.852-3.315c6.7-1.723 13.547-3.231 20.356-4.483l.618 3.367c-6.729 1.239-13.5 2.73-20.121 4.433zm142.865-1.359c-6.655-1.575-13.453-2.936-20.2-4.044l.555-3.378c6.829 1.121 13.705 2.5 20.438 4.091zm-102.361-6.09-.385-3.4c6.854-.774 13.845-1.32 20.779-1.623l.15 3.42c-6.855.3-13.767.84-20.542 1.606zm61.72-.583c-6.8-.637-13.717-1.046-20.569-1.214l.084-3.422c6.932.17 13.932.583 20.805 1.228z" transform="translate(-80.757 175.31)"/><path d="m633.779 321.28c-1.325-3.128-2.721-6.267-4.147-9.331l3.1-1.444c1.442 3.1 2.855 6.275 4.2 9.438z" transform="translate(141.725 247.526)"/></g><path d="m665.978 384.24a19.421 19.421 0 1 0 13.657 5.69 19.14 19.14 0 0 0 -13.657-5.689z" fill="#3f3d56" transform="translate(153.714 300.001)"/><path d="m620.736 384.24a19.421 19.421 0 1 0 13.657 5.688 19.421 19.421 0 0 0 -13.657-5.688z" fill="#3f3d56" transform="translate(121.517 300.001)"/><path d="m675.815 321.477a97.565 97.565 0 1 0 97.565 97.565 97.565 97.565 0 0 0 -97.565-97.565zm18.96 40.685a9.332 9.332 0 0 1 9.421 9.421 9.48 9.48 0 1 1 -9.421-9.421zm-57.675 113.76a27.655 27.655 0 1 1 27.64-27.645 27.655 27.655 0 0 1 -27.64 27.645zm43.46-55.1v26.663a4.74 4.74 0 0 1 -9.48 0v-19.525c0-3.881-4.74-4.74-18.219-12.5-1.748-1.037-5.48-2.874-5.48-8.028a9.647 9.647 0 0 1 2.755-6.636l21.241-20.471a9.268 9.268 0 0 1 14.664 1.955l8.74 17.8h14.219a4.74 4.74 0 0 1 0 9.48h-17.01c-3.17 0-5.718-6.814-11.258-15.257l-14.487 15.257c5.3 4.147 14.308 7.347 14.308 11.258zm33.98 55.073a27.64 27.64 0 1 1 27.64-27.64 27.64 27.64 0 0 1 -27.64 27.64z" fill="#3f3d56" transform="translate(105.157 255.334)"/><path d="m837.815 321.477a97.565 97.565 0 1 0 97.566 97.565 97.565 97.565 0 0 0 -97.566-97.565zm-25.863 69.747a15.172 15.172 0 1 1 -15.523 15.168 15.333 15.333 0 0 1 15.522-15.168zm82.748 65.738h-10.344v-15.168h-93.081v15.168h-10.339v-75.84h10.339v45.5h41.357v-35.4h41.386a20.454 20.454 0 0 1 20.682 20.236z" fill="#3f3d56" transform="translate(220.448 255.334)"/><path d="m178.891 363.246h-29.033a1.189 1.189 0 0 0 -1.185 1.185v41.475a1.188 1.188 0 0 0 1.185 1.185h29.033a4.754 4.754 0 0 0 4.74-4.74v-34.364a4.754 4.754 0 0 0 -4.74-4.741z" fill="#3f3d56" transform="translate(-200.561 285.06)"/><path d="m165.239 394.063a7.132 7.132 0 1 0 5.606 2.067 7.119 7.119 0 0 0 -5.606-2.067z" fill="#3f3d56" transform="translate(-193.426 306.976)"/><path d="m132.026 394.063a7.132 7.132 0 1 0 5.606 2.067 7.119 7.119 0 0 0 -5.606-2.067z" fill="#3f3d56" transform="translate(-217.063 306.976)"/><path d="m157.177 363.246h-28.977a4.817 4.817 0 0 0 -4.8 4.8v34.247a4.817 4.817 0 0 0 4.8 4.8h28.973a1.188 1.188 0 0 0 1.185-1.185v-41.476a1.188 1.188 0 0 0 -1.181-1.186z" fill="#3f3d56" transform="translate(-218.543 285.06)"/><path d="m186.815 321.477a97.565 97.565 0 1 0 97.565 97.565 97.565 97.565 0 0 0 -97.565-97.565zm47.4 137.263a11.885 11.885 0 0 1 -11.85 11.85h-71.1a11.885 11.885 0 0 1 -11.85-11.85v-81.766a9.508 9.508 0 0 1 9.48-9.48h75.84a9.508 9.508 0 0 1 9.48 9.48z" fill="#3f3d56" transform="translate(-242.85 255.334)"/><path d="m197.17 353.212h-69.322a4.157 4.157 0 1 0 0 8.3h69.322a4.157 4.157 0 1 0 0-8.3z" fill="#3f3d56" transform="translate(-218.544 277.912)"/><path d="m318.343 380.035c-1.955 0-3.555 2.9-3.555 6.518s1.6 6.517 3.555 6.517 3.555-2.9 3.555-6.517-1.598-6.518-3.555-6.518z" fill="#3f3d56" transform="translate(-82.341 297.008)"/><path d="m303.113 380.035c-1.955 0-3.555 2.9-3.555 6.518s1.6 6.517 3.555 6.517 3.555-2.9 3.555-6.517-1.6-6.518-3.555-6.518z" fill="#3f3d56" transform="translate(-93.18 297.008)"/><path d="m349.815 321.477a97.565 97.565 0 1 0 97.565 97.565 97.565 97.565 0 0 0 -97.565-97.565zm-45.623 94.247 5.392-28.677c1.392-7.791 5.006-13.924 11.791-13.924h10.191l.593-2.34a9.474 9.474 0 0 1 9.184-7.139h16.887a9.481 9.481 0 0 1 9.184 7.11l.593 2.37h10.25c6.636 0 10.161 6.014 11.82 13.894v.03l5.422 28.707a1.182 1.182 0 0 1 -1.659 1.3l-7.525-3.466a1.128 1.128 0 0 1 -.681-.859l-4.8-25.359c-.889-3.259-2.133-4.74-4.77-4.74h-52.464c-2.607 0-4.029 1.57-4.77 4.74l-4.8 25.359a1.191 1.191 0 0 1 -.681.859l-7.5 3.436a1.189 1.189 0 0 1 -1.66-1.3zm104.488 18.457-16.2 40.26c-8.147 0-16.8-6.518-16.8-6.518-5.333 2.7-15.731 5.066-23.493 5.51-.829.029-1.629.059-2.37.059s-1.541 0-2.37-.059c-7.762-.444-18.16-2.844-23.493-5.51 0 0-8.651 6.518-16.8 6.518l-16.2-40.26a5.506 5.506 0 0 1 -.385-1.985 5.352 5.352 0 0 1 3.11-4.858l55.133-25.329a2.329 2.329 0 0 1 1.985 0l55.162 25.33a5.352 5.352 0 0 1 3.11 4.858 5.5 5.5 0 0 1 -.385 1.985z" fill="#3f3d56" transform="translate(-126.847 255.334)"/><path d="m512.815 321.477a97.565 97.565 0 1 0 97.565 97.565 97.565 97.565 0 0 0 -97.565-97.565zm44.945 107.075c-1.007 0-4.355-.03-5.333-.089l-19.227-.5a.582.582 0 0 0 -.5.266l-28.857 43.131a4.723 4.723 0 0 1 -4 2.192h-7.021c-1.659 0-2.222-1.659-1.629-3.2l14.842-42.334a.588.588 0 0 0 -.533-.8l-36.054-.8a2.427 2.427 0 0 0 -1.955.919l-11.169 13.539a4.792 4.792 0 0 1 -3.733 1.807h-4.947a1.18 1.18 0 0 1 -1.126-1.57l5.9-20.353a4.828 4.828 0 0 0 0-3.526l-5.9-20.352a1.18 1.18 0 0 1 1.126-1.57h4.977a4.7 4.7 0 0 1 3.733 1.807l10.962 13.331a2.386 2.386 0 0 0 1.955.918l36.261-.533a.58.58 0 0 0 .533-.8l-14.842-42.3c-.592-1.54-.03-3.2 1.63-3.2h7.021a4.761 4.761 0 0 1 4 2.192l28.826 43.161a.549.549 0 0 0 .5.267l19.227-.5c.948-.059 4.325-.089 5.333-.089 13.154 0 21.419 4.266 21.419 9.51s-8.3 9.48-21.419 9.48z" fill="#3f3d56" transform="translate(-10.845 255.334)"/><path d="m163.462 587.693a20.54 20.54 0 1 1 20.538-20.54 20.54 20.54 0 0 1 -20.538 20.54zm0-37.657a17.117 17.117 0 1 0 17.117 17.117 17.117 17.117 0 0 0 -17.117-17.117z" fill="#f0f0f0" transform="translate(-204.653 415.557)"/><path d="m416.462 318.693a20.54 20.54 0 1 1 20.538-20.54 20.54 20.54 0 0 1 -20.54 20.54zm0-37.657a17.117 17.117 0 1 0 17.117 17.117 17.117 17.117 0 0 0 -17.117-17.117z" fill="#f0f0f0" transform="translate(-24.6 224.117)"/><path d="m640.976 650.84-23.048-24.71 24.71-23.049 23.048 24.71zm-19.376-24.583 19.5 20.909 20.908-19.5-19.5-20.908z" fill="#f0f0f0" transform="translate(133.396 455.744)"/></g></svg>