<svg height="1598" viewBox="0 0 1440 1598" width="1440" xmlns="http://www.w3.org/2000/svg" xmlns:xlink="http://www.w3.org/1999/xlink"><linearGradient id="a" gradientUnits="objectBoundingBox" x1=".5" x2=".5" y1="1"><stop offset="0" stop-color="#808080" stop-opacity=".251"/><stop offset=".54" stop-color="#808080" stop-opacity=".122"/><stop offset="1" stop-color="#808080" stop-opacity=".102"/></linearGradient><linearGradient id="b" xlink:href="#a" y2="0"/><linearGradient id="c" x1="16.117" x2="16.117" xlink:href="#a" y2="0"/><clipPath id="d"><path d="m0 0h1440v1598h-1440z" transform="translate(0 -.169)"/></clipPath><g clip-path="url(#d)" transform="translate(0 .169)"><path d="m150.244 940.665c-22.249 3.615-50.153 13.961-49.893 38.008.13 12.2 8.232 22.6 16.112 31.519a598.871 598.871 0 0 0 113.71 100.435c20.061 13.59 41.624 26.587 54.955 47.594s16.687 47.742 17.743 73.18a562.485 562.485 0 0 1 -21.025 178.454c65.319 12.441 138.165 23.343 192.6-15.945 32.595-23.528 54.639-62.946 90.961-79.262 24.251-10.9 51.71-9.938 78.149-8.547q187.725 9.882 374.522 37.082c52.155 7.6 105.311 16.2 156.91 6.378s102.363-41.884 121.386-93.853c2.93-8.01 5.562-16.946 12.126-21.767 5.933-4.3 13.7-4.209 20.914-3.949l435.855 14.981c23.881.816 48.6 1.483 70.455-8.343 21.192-9.511 37.489-27.811 53.175-45.74 35.876-40.9 74.459-91.22 63.91-146.731-8.436-44.5-46.148-75.591-83.544-97.357s-78.65-39.584-106.127-74.385c-41.809-52.971-40.159-128.784-42.755-197.514a1097.187 1097.187 0 0 0 -22.9-185.092c-11.328-53.564-27.106-107.2-56.6-152.442s-74.608-81.468-125.632-88.105c-66.635-8.677-133.623 32.891-198.812 15.24-55.066-14.833-92.963-67.544-138.592-104.069-81.047-64.892-187.394-78.483-287.94-79.725-106.609-1.353-216.036 9.437-311.057 59.5-21.767 11.458-43.052 25.327-58.125 45.573-23.1 31.056-28.7 72.772-43.812 109.075-60.906 146.175-259 177.694-323.294 322.312-22.824 51.3-22.6 111.133-5.97 165.012 17.892 57.977 68.248 90 88.217 140.539-21.49 13.828-59.572 13.699-85.622 17.944z" fill="#001f40" opacity=".1" transform="translate(-513.735 4.675)"/><g opacity=".2" transform="translate(1183.486 360.17)"><path d="m985.15 607.156s8.9-118.234 75.72-182.478a179.662 179.662 0 0 0 53.453-100.287 302.226 302.226 0 0 0 3.708-55.122" fill="none" stroke="#535461" stroke-miterlimit="10" stroke-width="2" transform="translate(-941.538 -194.359)"/><g fill="#001f40"><path d="m1101.841 263.044c-4.932 12.979-42.828 41.921-42.828 41.921s-9.271-46.741-4.376-59.775a25.243 25.243 0 0 1 47.223 17.855z" transform="translate(-883.41 -228.867)"/><path d="m1112.817 315.2c-11.217 8.269-58.737 11.9-58.737 11.9s17.6-44.294 28.812-52.563a25.235 25.235 0 0 1 29.925 40.641z" transform="translate(-882.667 -194.053)"/><path d="m1085.8 383.624c-13.869 1.465-56.716-19.375-56.716-19.375s37.545-29.35 51.395-30.833a25.245 25.245 0 0 1 5.322 50.208z" transform="translate(-904.019 -139.696)"/><path d="m1055.912 428.907c-13.424 3.708-59.182-9.511-59.182-9.511s32.039-35.228 45.462-39.065a25.239 25.239 0 1 1 13.72 48.577z" transform="translate(-931.648 -100.322)"/><path d="m1027.933 308.456c5.914 12.626 45.925 38.509 45.925 38.509s5.692-47.316-.223-59.942a25.239 25.239 0 0 0 -45.7 21.433z" transform="translate(-907.043 -191.606)"/><path d="m994.285 365.235c9.419 10.272 55.344 23.009 55.344 23.009s-8.733-46.852-18.151-57.124a25.241 25.241 0 0 0 -37.211 34.115z" transform="translate(-939.419 -148.525)"/><path d="m965.655 420.752c7.546 11.718 50.672 32.02 50.672 32.02s-.686-47.65-8.232-59.33a25.244 25.244 0 0 0 -42.44 27.348z" transform="translate(-961.628 -98.192)"/></g></g><path d="m164.14 87.83v854.727h1373.5v-854.727z" fill="url(#a)" transform="translate(-274.588 160.268)"/><path d="m0 0h1344.48v65.282h-1344.48z" fill="#f6f7f9" transform="translate(-95.93 257.127)"/><path d="m0 0h1344.48v65.282h-1344.48z" fill="#001f40" opacity=".2" transform="translate(-95.93 257.127)"/><path d="m0 0h1344.48v771.386h-1344.48z" fill="#f6f7f9" transform="translate(-95.93 322.409)"/><circle cx="14.517" cy="14.517" fill="#f6f7f9" r="14.517" transform="translate(-78.205 274.852)"/><circle cx="14.517" cy="14.517" fill="#f6f7f9" r="14.517" transform="translate(-39.529 274.852)"/><circle cx="14.517" cy="14.517" fill="#f6f7f9" r="14.517" transform="translate(-.835 274.852)"/><path d="m0 0h691.587v49.967h-691.587z" fill="#001f40" opacity=".2" transform="translate(-49.189 418.339)"/><path d="m0 0h362.712v49.967h-362.712z" fill="#001f40" opacity=".2" transform="translate(819.721 418.339)"/><g fill="#001f40" opacity=".2" transform="translate(85.417 661.76)"><path d="m0 0h48.354v159.598h-48.354z" transform="translate(0 228.922)"/><path d="m0 0h48.354v274.05h-48.354z" transform="translate(93.501 114.452)"/><path d="m0 0h48.354v388.502h-48.354z" transform="translate(187.002)"/><path d="m0 0h48.354v351.439h-48.354z" transform="translate(280.502 37.081)"/><path d="m0 0h48.354v241.808h-48.354z" transform="translate(374.003 146.694)"/></g><path d="m0 0h362.712v445.737h-362.712z" fill="#001f40" opacity=".2" transform="translate(818.924 577.937)"/><path d="m1215.269 611.339c-2.318-11.792-6.768-23.324-6.879-35.338-.167-19.5 10.216-42.162-3.43-56.568-3.114-3.282-7.286-5.729-9.6-9.567a21.06 21.06 0 0 1 -2.411-10.791c-.222-22.749 12.311-45.851 4.8-67.414a22.913 22.913 0 0 0 -8.6-12c-4.339-2.818-9.27-3.356-14.592-3.263-4.8 0-9.864.538-14.832.63a32.046 32.046 0 0 1 -8.325-1.094c-5.748-1.632-10.624-5.4-16.316-7.25a26.665 26.665 0 0 0 -9.27-1.279c-12.459-.408-23.843 7.88-32.706 15.908a122.163 122.163 0 0 1 -14 10.179c.742-.519-17.3 11.866-10.513 12a23.621 23.621 0 0 1 13.424 4.672 36.266 36.266 0 0 0 1.854 42.05c-2.948-2.892-6.211-6.063-9.548-9.271-9.938-9.771-23.825-22.879-30.351-26.457-10.735-5.766-26.068-18.3-26.068-18.3s-19.931 11.124-13.794 26.569a62.033 62.033 0 0 1 8.547 3.356 16 16 0 0 0 1.168 5.989 66 66 0 0 1 17.706 8.677 30.164 30.164 0 0 1 1.706 2.651c2.651 4.635 10.9 13.071 20.988 22.453 7.083 7.1 16.409 15.593 25.7 23.769-2.8 5.562-5.748 11.124-6.267 16.687a20.573 20.573 0 0 1 -2.095-.964c-13.794-7.416-45.981-6.638-45.981-6.638s-26.833-14.016-32.191-45.735c0 0-5.358-19.19-3.838-24.344h-.092l.685-.148 6.434-11.662a5.154 5.154 0 0 0 -4.227-7.565c-31.371-2.818-32.854 25.957-32.854 25.957h.278l-.093.241c3.838 18.448 6.9 16.965 6.137 31.723l12.255 32.465s.76 11.124 22.991 25.827 47.52 37.638 47.52 37.638-13.4 7.008-8.436 39.1c6.081 39.232-3.059 95.188-3.059 95.188v36.154l1.706-.463c-.223 1.205-.427 2.484-.649 3.875a203.571 203.571 0 0 0 -1.057 54.9c4.6 38.379 22.991 90.849 22.991 90.849s6.9 18.448 8.436 33.206a30.612 30.612 0 0 0 1.965 8.529 67.056 67.056 0 0 1 5.377 25.6 180.29 180.29 0 0 0 11.81 64.726c7.769 19.727 10.661 31.3 11.514 38.045-5.562 7.194-12.719 15.037-18.411 15.816-10.735 1.483-31.426 2.948-17.632 20.654a12.634 12.634 0 0 0 1.595 1.687c-10.476 1.669-21.989 5.34-10.791 19.709 13.794 17.706 95.021 9.586 95.021 9.586s.519-9.845 0-20.654c5.692-.389 9.271-.742 9.271-.742s2.3-42.792-7.657-47.965a21.507 21.507 0 0 0 -5.377 1.3c-1.075-5.914-1.854-13.275-2.41-18.708l3.949-.3v-.3h.241v-64.484s-4.6-39.844-21.451-57.476a35.817 35.817 0 0 1 -5.562-7.417l-.223-.463c.111-5.043.111-11.847 0-19.653l.241-.426c.3-.482.593-.909.872-1.3a16.079 16.079 0 0 1 1.261-1.483l.241-.315s9.271-11.124 40.623-81.171c19.152-42.755 14.091-66.747 7.231-79.113-1.446-5.562-4.468-18.021-8.251-39.362a154.336 154.336 0 0 1 -2.206-27.422 55.147 55.147 0 0 0 14.536 1.632 49.353 49.353 0 0 0 22.248-4.746c-5.006-7.305-10.235-15.871-7.713-24.27 2.855-9.567 14.165-13.961 20.692-21.674 7.858-9.32 8.062-22.632 5.744-34.442z" fill="url(#b)" transform="translate(220.041 283.774)"/><path d="m999.29 428.25s-19.023 10.976-13.164 26.346c0 0 19.764 5.859 27.811 20.487s70.251 67.321 70.251 67.321l45.424-22.675s-15.778-21.062-65.689-35.784c0 0-29.424-31.519-39.677-37.4s-24.956-18.295-24.956-18.295z" fill="#797c9c" transform="translate(241.825 301.591)"/><path d="m1004.29 433.25s-19.023 10.976-13.164 26.346c0 0 19.764 5.859 27.811 20.488s70.251 67.321 70.251 67.321l45.425-22.675s-15.778-21.062-65.69-35.784c0 0-29.424-31.519-39.677-37.4s-24.956-18.296-24.956-18.296z" opacity=".05" transform="translate(246.095 305.862)"/><path d="m128.555 728.643s-106.906 64.5 90.163 163.807c0 0 43.422-80.615-4.58-146.342a64.726 64.726 0 0 0 -83.971-18.393z" fill="#001f40" transform="translate(-514.369 550.301)"/><path d="m115.88 723.67s91.5 69.992 89 165.161" fill="none" stroke="#535461" stroke-miterlimit="10" transform="translate(-500.47 553.901)"/><path d="m172.722 980.634s-33.5-113.821 6.23-197.458a179.66 179.66 0 0 0 14.536-112.709 302.214 302.214 0 0 0 -15.964-52.9" fill="none" stroke="#535461" stroke-miterlimit="10" stroke-width="2" transform="translate(-463.2 463.284)"/><path d="m205.858 600.628c0 13.943-25.234 54.361-25.234 54.361s-25.234-40.418-25.234-54.361a25.243 25.243 0 0 1 50.486 0z" fill="#001f40" transform="translate(-466.726 427.255)"/><path d="m228.477 648.619c-7.583 11.7-50.727 31.909-50.727 31.909s.779-47.65 8.362-59.33a25.238 25.238 0 0 1 42.366 27.44z" fill="#001f40" transform="translate(-447.629 456.542)"/><path d="m231.725 723.894c-12.441 6.285-59.9 1.854-59.9 1.854s24.733-40.79 37.174-47.019a25.24 25.24 0 0 1 22.726 45.071z" fill="#001f40" transform="translate(-452.694 513.203)"/><path d="m218.308 776.5c-11.124 8.288-58.718 12.033-58.718 12.033s17.484-44.331 28.7-52.619a25.24 25.24 0 0 1 30.019 40.586z" fill="#001f40" transform="translate(-463.139 560.128)"/><path d="m152.718 669.326c9.993 9.715 56.586 19.783 56.586 19.783s-11.4-46.352-21.415-55.993a25.259 25.259 0 1 0 -35.227 36.21z" fill="#001f40" transform="translate(-475.586 470.451)"/><path d="m141.3 734.373c12.441 6.285 59.905 1.854 59.905 1.854s-24.733-40.789-37.174-47.019a25.24 25.24 0 0 0 -22.731 45.073z" fill="#001f40" transform="translate(-490.611 522.154)"/><path d="m134.174 796.4c11.124 8.288 58.718 12.033 58.718 12.033s-17.484-44.331-28.7-52.618a25.24 25.24 0 0 0 -30.018 40.585z" fill="#001f40" transform="translate(-493.586 577.124)"/><path d="m205.858 600.628c0 13.943-25.234 54.361-25.234 54.361s-25.234-40.418-25.234-54.361a25.243 25.243 0 0 1 50.486 0z" opacity=".25" transform="translate(-466.726 427.255)"/><path d="m228.477 648.619c-7.583 11.7-50.727 31.909-50.727 31.909s.779-47.65 8.362-59.33a25.238 25.238 0 0 1 42.366 27.44z" opacity=".25" transform="translate(-447.629 456.542)"/><path d="m231.725 723.894c-12.441 6.285-59.9 1.854-59.9 1.854s24.733-40.79 37.174-47.019a25.24 25.24 0 0 1 22.726 45.071z" opacity=".25" transform="translate(-452.694 513.203)"/><path d="m218.308 776.5c-11.124 8.288-58.718 12.033-58.718 12.033s17.484-44.331 28.7-52.619a25.24 25.24 0 0 1 30.019 40.586z" opacity=".25" transform="translate(-463.139 560.128)"/><path d="m152.718 669.326c9.993 9.715 56.586 19.783 56.586 19.783s-11.4-46.352-21.415-55.993a25.259 25.259 0 1 0 -35.227 36.21z" opacity=".25" transform="translate(-475.586 470.451)"/><path d="m141.3 734.373c12.441 6.285 59.905 1.854 59.905 1.854s-24.733-40.789-37.174-47.019a25.24 25.24 0 0 0 -22.731 45.073z" opacity=".25" transform="translate(-490.611 522.154)"/><path d="m134.174 796.4c11.124 8.288 58.718 12.033 58.718 12.033s-17.484-44.331-28.7-52.618a25.24 25.24 0 0 0 -30.018 40.585z" opacity=".25" transform="translate(-493.586 577.124)"/><path d="m214.526 981.8s-33.5-113.747 6.285-197.459a179.659 179.659 0 0 0 14.536-112.709 302.215 302.215 0 0 0 -15.964-52.9" fill="none" stroke="#535461" stroke-miterlimit="10" stroke-width="2" transform="translate(-427.485 464.284)"/><g fill="#001f40"><path d="m247.668 601.829c0 13.943-25.234 54.361-25.234 54.361s-25.234-40.419-25.234-54.361a25.243 25.243 0 1 1 50.486 0z" transform="translate(-431.017 428.28)"/><path d="m270.3 649.779c-7.583 11.7-50.727 31.908-50.727 31.908s.779-47.65 8.362-59.33a25.238 25.238 0 1 1 42.365 27.443z" transform="translate(-411.912 457.533)"/><path d="m273.535 725.051c-12.441 6.285-59.9 1.854-59.9 1.854s24.733-40.79 37.174-47.019a25.281 25.281 0 1 1 22.731 45.165z" transform="translate(-416.985 514.197)"/><path d="m260.118 777.665c-11.124 8.288-58.718 12.035-58.718 12.035s17.484-44.331 28.7-52.619a25.24 25.24 0 0 1 30.017 40.585z" transform="translate(-427.43 561.127)"/><path d="m194.548 670.486c9.993 9.715 56.586 19.783 56.586 19.783s-11.4-46.352-21.414-55.993a25.259 25.259 0 1 0 -35.227 36.21z" transform="translate(-439.86 471.441)"/><path d="m183.114 735.533c12.441 6.286 59.905 1.854 59.905 1.854s-24.733-40.79-37.174-47.019a25.24 25.24 0 0 0 -22.731 45.073z" transform="translate(-454.903 523.145)"/><path d="m175.984 797.565c11.124 8.288 58.716 12.035 58.716 12.035s-17.482-44.333-28.7-52.62a25.24 25.24 0 1 0 -30.017 40.586z" transform="translate(-457.877 578.123)"/><path d="m0 0h1766.93v12.978h-1766.93z" transform="translate(-369.276 1442.12)"/></g><path d="m0 0h374.467v460.18h-374.467z" fill="url(#a)" transform="translate(879.793 717.178)"/><path d="m0 0h362.712v445.737h-362.712z" fill="#001f40" transform="translate(885.671 724.409)"/><path d="m0 0h74.163v74.163h-74.163z" fill="#e8eaf1" transform="translate(910.033 763.53)"/><path d="m0 0h263.278v14.833h-263.278z" fill="#e8eaf1" transform="translate(947.115 882.19)"/><path d="m0 0h263.278v14.833h-263.278z" fill="#e8eaf1" transform="translate(947.115 913.71)"/><path d="m0 0h263.278v14.833h-263.278z" fill="#e8eaf1" transform="translate(947.115 945.229)"/><path d="m0 0h263.278v14.833h-263.278z" fill="#e8eaf1" transform="translate(947.115 976.748)"/><path d="m0 0h263.278v14.833h-263.278z" fill="#e8eaf1" transform="translate(947.115 1008.267)"/><path d="m0 0h263.278v14.833h-263.278z" fill="#e8eaf1" transform="translate(947.115 1039.786)"/><path d="m0 0h263.278v14.833h-263.278z" fill="#e8eaf1" transform="translate(947.115 1071.306)"/><path d="m1069.119 764.89s2.188 32.187 5.859 35.858-32.929 5.859-32.929 5.859l5.117-41.717z" fill="#ffb9b9" transform="translate(290.545 589.106)"/><path d="m1069.119 764.89s2.188 32.187 5.859 35.858-32.929 5.859-32.929 5.859l5.117-41.717z" opacity=".05" transform="translate(290.545 589.106)"/><path d="m1101.441 783.033s-5.118 0-23.417 9.511c0 0-12.44-2.188-17.557-19.764 0 0-15.371 26.346-25.605 27.811s-30 2.93-16.835 20.488 90.739 9.511 90.739 9.511 2.167-42.44-7.325-47.557z" fill="#e4e2f3" transform="translate(266.288 595.844)"/><path d="m1101.441 783.033s-5.118 0-23.417 9.511c0 0-12.44-2.188-17.557-19.764 0 0-15.371 26.346-25.605 27.811s-30 2.93-16.835 20.488 90.739 9.511 90.739 9.511 2.167-42.44-7.325-47.557z" opacity=".05" transform="translate(266.288 595.844)"/><path d="m1072.929 804.038-5.117 13.906-33.652-9.511 1.854-13.794.464-3.338 1.279-9.271s28.534-7.323 28.534-3.708a56.774 56.774 0 0 0 1.853 8.918c1.169 4.505 2.634 9.623 3.709 12.979.631 2.354 1.076 3.819 1.076 3.819z" fill="#ffb9b9" transform="translate(283.806 599.721)"/><path d="m1063.2 768.408a20 20 0 0 0 0 20.395 35.417 35.417 0 0 0 5.266 7.287c16.093 17.558 20.487 57.068 20.487 57.068v63.65l-10.976.834-17.563 1.358-26.345-108.3s-15.371-79.021-8.047-92.926 13.905-100.974 13.905-100.974l6.082-6.285 14.406-14.925h41.717a28.04 28.04 0 0 1 8.12 9.067c7.009 11.588 13.294 35.691-5.914 80.188-30 69.509-38.787 80.485-38.787 80.485a16.894 16.894 0 0 0 -2.355 3.078z" fill="#4c4c78" transform="translate(275.166 444.512)"/><path d="m1063.325 768.238a20.005 20.005 0 0 0 0 20.394 35.427 35.427 0 0 0 5.265 7.287c16.093 17.558 20.488 57.068 20.488 57.068v63.65l-10.976.834-17.558 1.353-26.346-108.3s-15.37-79.02-8.046-92.926 13.906-100.973 13.906-100.973l6.081-6.285 14.406-14.925h41.717a28.042 28.042 0 0 1 8.12 9.066c7.009 11.588 13.294 35.691-5.914 80.189-30 69.509-38.787 80.485-38.787 80.485a16.819 16.819 0 0 0 -2.356 3.083z" opacity=".05" transform="translate(275.277 444.366)"/><path d="m1067.126 787.333-31.686 3.967 1.279-9.271s28.534-7.323 28.534-3.708a56.77 56.77 0 0 0 1.873 9.01z" opacity=".1" transform="translate(284.899 599.721)"/><path d="m1079.967 679.65s1.854 57.606 2.114 93.8v20.395a45.091 45.091 0 0 1 -.594 8.029c-2.188 6.582 2.188 21.21 2.188 21.21a211.2 211.2 0 0 1 13.164 90.738v32.187l-35.116 4.394s5.859-4.394-10.253-46.834a184.953 184.953 0 0 1 -11.291-64.188 68.689 68.689 0 0 0 -5.136-25.4 31.34 31.34 0 0 1 -1.854-8.455c-1.465-14.628-8.047-32.928-8.047-32.928s-17.558-51.914-21.952-90a209.5 209.5 0 0 1 1.02-54.435 135.82 135.82 0 0 1 2.633-13.609s71.53-45.017 98.544-13.906a35.211 35.211 0 0 1 6.1 10.253 67.56 67.56 0 0 1 3.449 11.4c8.398 41.256-34.969 57.349-34.969 57.349z" fill="#4c4c78" transform="translate(256.243 439.472)"/><circle cx="37.322" cy="37.322" fill="#ffb9b9" r="37.322" transform="translate(1296.718 724.001)"/><path d="m1032.873 468.338s15.37 43.163 0 65.857 49.021 15.37 49.021 15.37l24.881-30s-29.276 0-30.74-51.228-43.162.001-43.162.001z" fill="#ffb9b9" transform="translate(280.681 316.384)"/><path d="m1130.161 618.2a96.013 96.013 0 0 1 -16.3 4.079c-9.1 1.409-19.857 1.465-26.142-4.079-3.709-3.282-12.979-3.708-23.937-2.633-23.231 2.225-54.658 10.883-60.665 12.589a135.963 135.963 0 0 1 2.633-13.609s71.53-45.017 98.544-13.905h15.612a28.042 28.042 0 0 1 8.12 9.066c1.356 5.818 2.135 8.492 2.135 8.492z" opacity=".1" transform="translate(257.296 439.464)"/><path d="m1072.929 796.06-5.117 13.906-33.652-9.511 1.854-13.794c5.785 12.793 15.649 14.536 15.649 14.536a119.364 119.364 0 0 1 20.135-8.825c.686 2.228 1.131 3.688 1.131 3.688z" opacity=".1" transform="translate(283.806 607.699)"/><path d="m1096.691 794.483s-5.117 0-23.417 9.512c0 0-12.441-2.188-17.558-19.764 0 0-15.37 26.346-25.6 27.811s-30 2.929-16.835 20.488 90.738 9.511 90.738 9.511 2.181-42.441-7.328-47.558z" fill="#e4e2f3" transform="translate(262.232 605.623)"/><path d="m962.62 461.014s1.428-28.5 31.371-25.716a5.118 5.118 0 0 1 4.042 7.416l-6.133 11.551z" fill="#ffb9b9" transform="translate(222.706 307.448)"/><path d="m1135.434 531.554s-35.858-5.859-45.369-13.164c0 0-7.324 13.906-20.488 6.582s-43.9-6.582-43.9-6.582a66.357 66.357 0 0 1 -30.741-45.369s-5.117-19.023-3.708-24.1c0 0-19.023-19.764-28.534 6.582 3.708 18.3 6.582 16.835 5.859 31.519l11.7 32.187s.723 10.976 21.952 25.6 45.369 37.323 45.369 37.323-12.812 6.953-8.047 38.787c5.822 38.936-2.929 94.391-2.929 94.391v35.858s73.18-21.211 85.6-10.253 42.44 0 42.44 0-3.708-12.441-8.788-42.439.723-59.33.723-59.33 19.023-50.486 27.812-70.974-6.582-48.206-21.953-58.533-21.081-4.1-21.081-4.1 27.011 19.433-5.917 26.015z" fill="#797c9c" transform="translate(222.766 313.166)"/><path d="m1005.15 550.4s5.84-1.409 35.1-5.8 80.486 5.859 80.486 5.859" opacity=".05" transform="translate(259.029 400.023)"/><path d="m1019.464 449.664c16.687.352 29.035 20.933 21.637 35.784-3.244 6.526-9.53 12.274-8.881 19.523.3 3.3 2.058 6.286 2.818 9.511 3.5 14.833-14.24 28.72-10.179 43.367a31.321 31.321 0 0 0 6.341 10.624l30.814 38.824a29.156 29.156 0 0 1 4.6 7.12 30.013 30.013 0 0 1 1.335 11.4c-.149 18.541 1.057 38.435 12 53.471 13.145 18.059 39.937 24.548 59.868 14.48-4.783-7.249-9.771-15.741-7.416-24.1 2.725-9.474 13.516-13.85 19.746-21.489 7.528-9.27 7.713-22.434 5.562-34.133s-6.47-23.139-6.563-35.042c-.148-19.338 9.753-41.809-3.281-56.086-2.986-3.263-6.953-5.673-9.178-9.493a21.571 21.571 0 0 1 -2.3-10.717c-.2-22.545 11.755-45.48 4.58-66.858a22.715 22.715 0 0 0 -8.214-11.9c-10.161-6.842-24.252-.2-36.006-3.708-5.563-1.613-10.142-5.358-15.575-7.194-14.647-4.95-28.2 4.988-38.323 14.517a116.789 116.789 0 0 1 -13.368 10.086c.719-.391-16.506 11.883-10.017 12.013z" opacity=".1" transform="translate(270.005 287.482)"/><path d="m1020.465 449.664c16.687.352 29.034 20.933 21.637 35.784-3.245 6.526-9.53 12.274-8.881 19.523.3 3.3 2.058 6.286 2.818 9.511 3.5 14.833-14.239 28.72-10.179 43.367a31.317 31.317 0 0 0 6.341 10.624l30.814 38.824a29.141 29.141 0 0 1 4.6 7.12 30.014 30.014 0 0 1 1.335 11.4c-.149 18.541 1.056 38.435 12 53.471 13.145 18.059 39.936 24.548 59.868 14.48-4.784-7.249-9.771-15.741-7.417-24.1 2.725-9.474 13.516-13.85 19.746-21.489 7.528-9.27 7.713-22.434 5.562-34.133s-6.47-23.139-6.563-35.042c-.148-19.338 9.753-41.809-3.281-56.086-2.985-3.263-6.953-5.673-9.178-9.493a21.565 21.565 0 0 1 -2.3-10.717c-.2-22.545 11.755-45.48 4.58-66.858a22.717 22.717 0 0 0 -8.214-11.9c-10.159-6.842-24.251-.2-36.006-3.708-5.562-1.613-10.142-5.358-15.575-7.194-14.647-4.95-28.2 4.988-38.323 14.517a116.811 116.811 0 0 1 -13.368 10.086c.719-.391-16.506 11.883-10.016 12.013z" fill="#b36362" transform="translate(270.859 287.482)"/><path d="m801.5 792.827a64.3 64.3 0 0 1 -10.957-13.442c-6.416-10.086-17.15-15.519-24.511-18.226v-3.282h.445l-.2-3.041h.2l-.519-8.047-2.615-40.2s-9.455-26.939 7.231-51.6 1.038-48.317-14.647-57.569c0 0-7.416-39.065-1.038-48.317a269.371 269.371 0 0 0 -26.328-13.4q-.2-.723-.389-1.483c-.167-3.708-.389-7.286-.594-10.92a40 40 0 0 1 1.038-5.562q.306-1.14.668-2.336a40.1 40.1 0 0 0 25.605-37.193 39.378 39.378 0 0 0 -2.485-13.794 17.563 17.563 0 0 0 1.854-4.376 17.855 17.855 0 0 0 -2.484-12.83c-4.153-9.27-14.629-17.743-22.249-20.84-10.883-4.45-27.273-3.393-38.6-2.04-6.359.76-13.627 2.911-15.926 8.788a60.848 60.848 0 0 0 -1.446 6.767c-2.373 8.974-12.664 13.164-19.023 20.024-5.562 6.063-8.084 14.258-9.9 22.249a205.408 205.408 0 0 0 -3.713 69.843c.649 5.377 1.5 10.717 2.41 16.056-3.819 5.377-7.268 14.833-5.692 31.519l-12.552 59.625-5.228 34.949a30.556 30.556 0 0 0 9.419 26.736c8.009 7.861 17.725 21.155 23.714 29.776a70.91 70.91 0 0 0 -3.819 23.695c.13 3.708.334 7.212.593 10.587a94.277 94.277 0 0 0 4.005 20.951c1.465 14.35 4.375 32.705 10.049 44.5l2.1 62.7s-3.133 57.569-9.419 68.879 13.603 106.927 13.603 106.927v13.368l-3.356 9.789-.834-.631c-15.7 19.542 0 26.736 0 26.736s4.265.2 11.125.463a12.626 12.626 0 0 0 6.693 13.924s89 4.116 104.681 0 11.514-18.541 3.133-17.484a38.28 38.28 0 0 1 -12.533-1.65c4.895-5.729.983-13.5-5.247-12.737-8.38 1.02-27.218-6.433-27.218-6.433v.13a14.114 14.114 0 0 0 -1.854-.557 209.962 209.962 0 0 1 -20.71-5.84c-4.042-8.658-13.349-31.946-6.675-50.06 3.022-8.158 4-19.023 4-29.554a337.586 337.586 0 0 1 13.776-93.779l12.552-43.144s17.8-52.433 18.837-66.747l-.148-20.988c14.721 9.475 26.4 6.6 33.874 2.206a8.065 8.065 0 0 0 1.3-13.089zm-139.705-109.057c.352-1.5.649-3.152.909-4.876h7.416a38.2 38.2 0 0 1 3.708 20.228c-5.674-1.854-14.166-6.267-12.033-15.352z" fill="url(#c)" transform="translate(-70.309 297.242)"/><path d="m649.553 790.582-4.023 12.089 13.09 13.09 43.311 10.068 31.223-3.022-2.021-11.125a13.368 13.368 0 0 0 -9.919-9.752c-12.83-3.022-37.3-9.882-42.458-19.449z" fill="#db8b8b" transform="translate(-48.112 604.129)"/><path d="m649.553 790.582-4.023 12.089 13.09 13.09 43.311 10.068 31.223-3.022-2.021-11.125a13.368 13.368 0 0 0 -9.919-9.752c-12.83-3.022-37.3-9.882-42.458-19.449z" opacity=".1" transform="translate(-48.112 604.129)"/><path d="m726.188 811.86-6.044-8.065 6.044-9.27s18.133 7.323 26.179 6.3 12.089 13.09-3.022 17.132-100.732 0-100.732 0-15.111-7.046 0-26.18l13.09 10.068s22.249 12.088 33.243 10.068z" fill="#474463" transform="translate(-51.214 612.072)"/><path d="m742.346 830.382-31.223 3.018-43.273-10.138-13.09-12.978 1.075-3.208 1.5-4.487 1.465-4.389 29.2-8.07a18.1 18.1 0 0 0 5.915 5.933c9.493 6.489 26.532 11.124 36.525 13.516a10.535 10.535 0 0 1 1.242.371 13.314 13.314 0 0 1 8.677 9.382z" fill="#db8b8b" transform="translate(-40.229 610.663)"/><path d="m742.346 822.576-31.223 3.024-43.273-10.144-13.09-12.979 1.075-3.207 12.033 9.27s22.249 12.089 33.243 10.067h31.222l-6.044-8.065 5.432-8.38a13.313 13.313 0 0 1 8.677 9.382z" opacity=".1" transform="translate(-40.229 618.469)"/><path d="m735.418 819.46-6.044-8.065 6.044-9.271s18.133 7.324 26.179 6.3 12.089 13.09-3.022 17.132-100.732 0-100.732 0-15.111-7.045 0-26.179l13.09 10.068s22.249 12.089 33.244 10.068z" fill="#474463" transform="translate(-43.331 618.563)"/><path d="m705.274 519.709s-48.354 5.043-41.29-15.111a36.266 36.266 0 0 0 1.483-17.78 49.307 49.307 0 0 0 -8.547-20.488l45.332 7.045a56.756 56.756 0 0 0 -6.137 14.554c-5.395 21.379 9.159 31.78 9.159 31.78z" fill="#db8b8b" transform="translate(-38.384 334.114)"/><path d="m638.46 619s1 43.311 11.124 64.466l2.021 61.444s-3.022 56.4-9.066 67.488 13.089 104.755 13.089 104.755v16.112s32.187 12.051 41.309-2.039l-9.066-119.866 4.023-166.2z" fill="#474463" transform="translate(-54.15 464.505)"/><path d="m638.46 619s1 43.311 11.124 64.466l2.021 61.444s-3.022 56.4-9.066 67.488 13.089 104.755 13.089 104.755v16.112s32.187 12.051 41.309-2.039l-9.066-119.866 4.023-166.2z" opacity=".1" transform="translate(-54.15 464.505)"/><path d="m632.847 544-6.047 16.112-5.043 34.245a30.3 30.3 0 0 0 9.067 26.18c12.088 12.088 28.2 37.267 28.2 37.267l19.134-57.476s-19.134-3.022-16.112-16.112 2.021-37.267 2.021-37.267z" fill="#cbcdda" transform="translate(-68.672 400.45)"/><path d="m632.847 543-6.047 16.112-5.043 34.245a30.3 30.3 0 0 0 9.067 26.18c12.088 12.088 28.2 37.267 28.2 37.267l19.134-57.476s-19.134-3.022-16.112-16.112 2.021-37.267 2.021-37.267z" opacity=".05" transform="translate(-68.672 399.596)"/><path d="m692.739 796.052c-12.979 20.395-33.021 8.806-36.6 6.507l1.465-4.394 29.2-8.065a18.089 18.089 0 0 0 5.935 5.952z" opacity=".1" transform="translate(-39.05 610.637)"/><path d="m749.656 691.67c-1 14.109-18.133 65.467-18.133 65.467l-12.07 42.273a336.341 336.341 0 0 0 -13.275 91.962c0 10.309-.946 20.951-3.857 28.942-8.065 22.249 8.065 52.377 8.065 52.377-14.11 25.178-38.268 8.065-38.268 8.065v-16.11s-19.134-87.624-14.11-104.755 7.045-63.465 7.045-63.465v-83.6a94.873 94.873 0 0 1 -27.644-60.146c-.241-3.3-.426-6.767-.556-10.364-.816-22.731 14.721-49.374 20.784-58.867 1.464-2.3 2.373-3.578 2.373-3.578l89 35.227h.2v11.069z" fill="#474463" transform="translate(-55.548 431.086)"/><path d="m702.262 473.376a56.789 56.789 0 0 0 -6.137 14.554 39.419 39.419 0 0 1 -30.648-1.112 49.294 49.294 0 0 0 -8.547-20.488z" opacity=".1" transform="translate(-38.375 334.114)"/><circle cx="39.288" cy="39.288" fill="#db8b8b" r="39.288" transform="translate(604.445 744.025)"/><path d="m741.758 626.2h-.426c-42.236 8.677-95.262-35.339-95.262-35.339a52.232 52.232 0 0 0 3.708-7.416c1.465-2.3 2.373-3.578 2.373-3.578l89 35.227.223 3.523z" opacity=".1" transform="translate(-47.651 431.086)"/><path d="m749.231 505.421s-56.4-34.245-74.534-20.154l-25.179 32.224s-16.112 5.043-13.09 37.267l-12.088 58.421 36.266 9.066s21.155 20.154 4.023 49.356c0 0 53.379 44.312 95.689 35.227l-3.115-47.3s-9.066-26.179 7.046-50.356 1-47.335-14.11-56.4c.111.002-6.953-38.285-.908-47.351z" fill="#cbcdda" transform="translate(-66.21 347.383)"/><path d="m698.094 605.4s21.155 4.023 31.222 20.153a62.782 62.782 0 0 0 10.55 13.164 7.991 7.991 0 0 1 -1.242 12.737c-7.991 4.8-21.025 7.769-37.489-5.766-28.22-23.156-3.041-40.288-3.041-40.288z" fill="#db8b8b" transform="translate(-12.051 452.89)"/><path d="m694.6 505.249s-20.153-2.021-25.178 50.356-13.09 64.466-13.09 64.466-5.043 27.2 7.045 43.311 35.223 50.358 35.223 50.358 25.178 7.045 30.221-18.133l-31.221-58.422s-5.043-20.154 7.046-34.244 21.175-107.778-10.046-97.692z" opacity=".1" transform="translate(-39.778 366.707)"/><path d="m695.689 503.619s-20.154-2.021-25.178 50.357-13.09 64.466-13.09 64.466-5.043 27.2 7.045 43.311 35.228 50.357 35.228 50.357 25.178 7.045 30.221-18.133l-31.223-58.422s-5.024-20.135 7.046-34.17 21.173-107.852-10.049-97.766z" fill="#cbcdda" transform="translate(-38.847 365.315)"/><path d="m692.918 523.64s2.021 31.223-7.045 48.354-9.066 39.288 0 51.376" opacity=".1" transform="translate(-19.464 383.061)"/><path d="m718.956 510.892s-8.065-8.065-31.223-9.066-33.243-8.065-33.243-8.065" opacity=".1" transform="translate(-40.459 357.542)"/><path d="m688.03 430.24c-6.118.76-13.108 2.855-15.315 8.6a60.707 60.707 0 0 0 -1.39 6.637c-2.281 8.807-12.181 12.979-18.3 19.616-5.4 5.933-7.769 13.961-9.53 21.8a204.836 204.836 0 0 0 -3.542 68.434c1.965 16.687 5.989 33.151 7.1 49.93s-.927 34.43-10.1 48.521c-3.949 6.063-9.141 11.384-11.94 18.059 5.785 4.691 13.738 5.358 21.192 5.562q12.978.445 25.957 0c4.542-.148 9.27-.445 13.219-2.744a20.389 20.389 0 0 0 6.934-7.416c4.951-8.417 6.211-18.541 5.989-28.275s-1.762-19.449-1.855-29.22c-.093-5.321.315-10.958 3.375-15.315 2.206-3.152 5.562-5.266 8.436-7.806 10.791-9.548 14.48-24.881 14.833-39.288s-2.021-28.831-.8-43.181c.482-5.562 2.577-12.367 8.1-13.46a31.2 31.2 0 0 0 5.265-.667c4.431-1.706 4-7.954 5.266-12.534 1.428-5.136 5.8-9.1 7.045-14.295 2.893-12.181-12.608-26.736-22.768-30.982-10.435-4.349-26.195-3.293-37.171-1.976z" opacity=".1" transform="translate(-65.637 302.308)"/><path d="m687.53 429.153c-6.118.76-13.108 2.855-15.315 8.6a60.722 60.722 0 0 0 -1.39 6.638c-2.281 8.807-12.182 12.978-18.3 19.616-5.4 5.933-7.769 13.961-9.53 21.8a204.84 204.84 0 0 0 -3.542 68.434c1.965 16.687 5.989 33.151 7.1 49.93s-.927 34.43-10.1 48.521c-3.949 6.063-9.141 11.384-11.94 18.059 5.785 4.691 13.738 5.358 21.192 5.562q12.979.445 25.957 0c4.542-.148 9.271-.445 13.219-2.744a20.4 20.4 0 0 0 6.934-7.416c4.95-8.418 6.211-18.541 5.989-28.275s-1.761-19.449-1.854-29.22c-.092-5.321.315-10.957 3.375-15.315 2.206-3.152 5.562-5.266 8.436-7.806 10.791-9.549 14.48-24.882 14.833-39.288s-2.021-28.831-.8-43.181c.482-5.562 2.577-12.367 8.1-13.461a31.155 31.155 0 0 0 5.266-.668c4.431-1.706 4-7.954 5.266-12.533 1.428-5.136 5.8-9.1 7.045-14.3 2.893-12.181-12.608-26.736-22.768-30.981-10.512-4.345-26.271-3.307-37.173-1.972z" fill="#472727" transform="translate(-66.064 301.374)"/></g></svg>