<svg height="1598" viewBox="0 0 1440 1598" width="1440" xmlns="http://www.w3.org/2000/svg" xmlns:xlink="http://www.w3.org/1999/xlink"><clipPath id="a"><path d="m0 0h1440v1598h-1440z" transform="translate(0 -.48)"/></clipPath><clipPath id="b"><path d="m0 0h1087v1356h-1087z" transform="translate(-.161 -.4)"/></clipPath><clipPath id="c"><path d="m0 0h945v1356h-945z" transform="translate(-.241 -.399)"/></clipPath><g clip-path="url(#a)" transform="translate(0 .48)"><g clip-path="url(#b)" transform="translate(380.161 241.919)"><g clip-path="url(#c)" transform="translate(142.08 -.001)"><path d="m192.94 1352.532q11.693-142.238 48.722-296.232a2828.976 2828.976 0 0 1 90.624-302.078q53.579-148.085 119.857-279.666 66.231-131.55 134.474-227.046h-586.617v-247.51h945.213v210.48q-62.4 68.242-137.4 189.043-75.045 120.863-142.266 273.819-67.237 153.02-116.934 328.389-49.7 175.4-61.39 350.8z" fill="#ff7d00" transform="translate(-.161 2.99)"/></g><g fill="none" stroke-width="3"><path d="m189.861 1330.943q11.507-139.968 47.945-291.5a2783.806 2783.806 0 0 1 89.177-297.257q52.724-145.721 117.944-275.2 65.173-129.456 132.326-223.427h-577.253v-243.559h930.126v207.121q-61.4 67.153-135.2 186.025-73.85 118.933-140 269.449-66.166 150.577-115.069 323.147-48.9 172.6-60.41 345.2z" stroke="#fff" transform="translate(89.306 30.548)"/><path d="m189.861 1330.943q11.507-139.968 47.945-291.5a2783.806 2783.806 0 0 1 89.177-297.257q52.724-145.721 117.944-275.2 65.173-129.456 132.326-223.427h-577.253v-243.559h930.126v207.121q-61.4 67.153-135.2 186.025-73.85 118.933-140 269.449-66.166 150.577-115.069 323.147-48.9 172.6-60.41 345.2z" stroke="#001f40" transform="translate(239.627 86.919)"/></g></g><path d="m0 0h1431.368" fill="none" stroke="#3f3d56" stroke-miterlimit="10" stroke-width="2" transform="translate(3.839 1595.766)"/><circle cx="23.785" cy="23.785" fill="none" r="23.785" stroke="#3f3d56" stroke-miterlimit="10" stroke-width="2" transform="translate(846.089 450.666)"/><circle cx="23.785" cy="23.785" fill="none" r="23.785" stroke="#3f3d56" stroke-miterlimit="10" stroke-width="2" transform="translate(1160.409 1142.171)"/><circle cx="23.785" cy="23.785" fill="none" r="23.785" stroke="#3f3d56" stroke-miterlimit="10" stroke-width="2" transform="translate(122.776 510.306)"/><path d="m267.236 182.773h387.849a82.449 82.449 0 0 1 80.43 64.316l195.972 869.245a66.637 66.637 0 0 1 -61.726 81.211l-398.71 19.644a88.034 88.034 0 0 1 -90.96-72.257l-111.167-614.567-8.27 2.363-21.271-116.483 8.513-2.128-31.031-171.548a50.763 50.763 0 0 1 50.371-59.8z" fill="#3f3d56" transform="translate(-142.94 376.244)"/><path d="m589.5 194.4h45.274a56.978 56.978 0 0 1 55.669 44.833l188.107 862.153a35.306 35.306 0 0 1 -32.185 42.756l-397.421 26.046a45.725 45.725 0 0 1 -47.991-37.521l-160.518-891.122a40.049 40.049 0 0 1 39.414-47.145h42.951a18.9 18.9 0 0 1 18.251 13.987 16.686 16.686 0 0 0 16.112 12.348h203.893a28.523 28.523 0 0 0 28.444-26.335z" fill="#fff" transform="translate(-128.41 383.358)"/><path d="m0 0h411.236v2.026h-411.236z" fill="#2f2e41" transform="translate(176.461 800.593)"/><path d="m0 0h415.288v2.026h-415.288z" fill="#2f2e41" transform="translate(188.617 866.431)"/><path d="m217.79 268.029 9.344-12.458-1.62-1.215-8.076 10.768-31.119-25.462-1.281 1.57z" fill="#2f2e41" transform="translate(-15.36 529.356)"/><path d="m251.1 450.26 9.34-12.46-1.62-1.214-8.077 10.766-31.119-25.46-1.281 1.568z" fill="#2f2e41" transform="translate(5.019 640.865)"/><path d="m0 0h430.579v2.026h-430.579z" fill="#2f2e41" transform="matrix(.99977591 -.02116926 .02116926 .99977591 218.983002 1100.414997)"/><path d="m0 0h438.701v2.026h-438.701z" fill="#2f2e41" transform="matrix(1 -.023 .023 1 224.043 1161.181)"/><path d="m414.971 694.414a96.226 96.226 0 1 0 192.451 0c0-1.205-.02-2.4-.071-3.6a96.215 96.215 0 1 0 -192.4 3.6z" opacity=".1" transform="translate(-21.243 629.34)"/><path d="m420.614 716.987c0 1.205.02 2.4.071 3.6a96.237 96.237 0 0 0 183.263-41.074c0-1.205-.02-2.4-.071-3.6a96.237 96.237 0 0 0 -183.263 41.073z" opacity=".1" transform="translate(-17.77 644.245)"/><circle cx="59.318" cy="59.318" fill="#2f2e41" r="59.318" transform="translate(929.069 702.053)"/><path d="m743.056 698.512 11.283 48.357h-27.4l-11.283-54.8z" fill="#9f616a" transform="translate(309.324 806.182)"/><path d="m661.056 696.064v45.136l-27.4 3.224v-48.36z" fill="#9f616a" transform="translate(259.149 808.63)"/><path d="m848.77 452.066s-3.224 69.312-6.448 74.147-32.238 74.147-32.238 74.147l-14.507-45.133s22.567-37.074 19.343-58.028-1.193-46.74-1.193-46.74z" fill="#9f616a" transform="translate(211.67 540.043)"/><circle cx="45.133" cy="45.133" fill="#9f616a" r="45.133" transform="translate(923.429 734.205)"/><path d="m815.382 322.456s-1.612 64.476 9.671 74.147-64.476 1.612-64.476 1.612 16.119-45.133 3.224-54.8 51.581-20.959 51.581-20.959z" fill="#9f616a" transform="translate(190.254 461.718)"/><path d="m794.207 373.614s9.671-17.731 22.567-16.119 54.8 4.836 56.417 8.059 6.447 14.507 9.671 17.731 27.4 8.059 29.014 27.4-58.029 137.015-58.029 137.015 8.059 27.4 6.448 33.85 8.059 25.79 6.448 33.85 24.178 56.416 11.283 119.28v101.55s43.521 175.7 30.626 188.592-56.417 4.836-64.476 0-41.909-248.233-41.909-248.233l-16.119-82.207-1.612 180.533s3.224 151.518-8.059 156.354-54.8 6.448-58.029-3.224c-2.514-7.543-14.833-208.24-20.134-296.212a328.684 328.684 0 0 1 7.1-90.549c6.709-30.429 16.449-66.179 27.544-80.689 20.955-27.4 33.85-114.445 33.85-114.445l-27.4-49.969s16.119-16.119 25.79-16.119 29.009-6.448 29.009-6.448z" fill="#2f2e41" transform="translate(151.788 483.095)"/><path d="m836.517 383.456 8.5 5.786s6.007 103.823 1.171 110.271-38.456 3.3-40.988-2.379 31.317-113.678 31.317-113.678z" fill="#2f2e41" transform="translate(217.475 499.044)"/><path d="m790.654 445.441c4.718 32.732 8.853 61.87-15.272 88.231a452.739 452.739 0 0 1 -81.455 70.556c-2.959 7.838-46.4 65.4-48.609 42.438s12.8-40.96 34.126-60.375 51.166-61.543 68-84.658 9.9-37.53 9.32-56.837 27.27.879 33.89.645z" fill="#9f616a" transform="translate(119.594 531.458)"/><g fill="#2f2e41"><path d="m733.2 781.255s-1.612 18.055-6.448 22.891-17.73 11.283-16.119 29.014 12.086 18.54 12.086 18.54l-.806-4.03 4.835 1.612.806 2.417h45.133s.806-16.925-.806-24.984-1.612-46.745-6.448-45.133-17.733 3.218-20.954 9.668-12.895 4.19-11.279-9.995z" transform="translate(159.606 742.457)"/><path d="m841.645 781.255s1.612 18.055 6.448 22.891 17.731 11.283 16.119 29.014-12.09 18.537-12.09 18.537l.806-4.03-4.836 1.612-.806 2.417h-45.132s-.806-16.925.806-24.984 1.612-46.745 6.448-45.133 17.731 3.224 20.955 9.672 12.894 4.189 11.282-9.996z" transform="translate(215.571 742.457)"/><path d="m753.931 378.456-22.567 4.836s0 35.462-6.448 49.969-17.731 48.357-12.9 49.969 49.969 24.178 53.193 11.283 11.291-116.057-11.278-116.057z" transform="translate(159.826 495.984)"/><circle cx="59.318" cy="59.318" r="59.318" transform="translate(993.33 623.951)"/><path d="m890.259 311.386a59.321 59.321 0 0 1 -91.6-31.147 59.321 59.321 0 1 0 115.713-24.326 59.3 59.3 0 0 1 -24.111 55.472z" transform="translate(213.555 421.001)"/><circle cx="43.5" cy="43.5" r="43.5" transform="translate(960.706 727.757)"/><ellipse cx="38.556" cy="30.153" rx="38.556" ry="30.153" transform="translate(929.071 724.791)"/></g><ellipse cx="7.318" cy="12.947" fill="#a0616a" rx="7.318" ry="12.947" transform="translate(950.024 772.896)"/></g></svg>