<svg height="1598" viewBox="0 0 1440 1598" width="1440" xmlns="http://www.w3.org/2000/svg" xmlns:xlink="http://www.w3.org/1999/xlink"><clipPath id="a"><path d="m0 0h1440v1598h-1440z" transform="translate(0 -.48)"/></clipPath><g clip-path="url(#a)" transform="translate(0 .48)"><g fill="#3f3d56"><path d="m1471.375 983.951q-88.219-13.81-169.642-23.494l20.9-41.806c-7.256-2.418-38.7 21.767-38.7 21.767l26.6-120.926c-36.278 4.837-53.208 128.182-53.208 128.182l-41.115-41.115 20.239 46.55c-166.107-17.454-309.443-22.9-429.931-21.651l17.891-35.782c-7.255-2.418-38.7 21.767-38.7 21.767l26.6-120.926c-36.26 4.836-53.19 128.183-53.19 128.183l-41.119-41.117 21.436 49.3a2413.211 2413.211 0 0 0 -246.736 19.874c17.852-55.616 80.2-109.079 80.2-109.079-47.936 14.913-72.875 39.21-85.783 61.732a971.19 971.19 0 0 1 51.923-336.235s-96.747 217.667-82.24 362.778l1.841 25.777c-84.163 13.13-126.4 26.221-126.4 26.221z" transform="translate(-346.344 618.67)"/><path d="m911.944 650.855a29.022 29.022 0 1 1 29.022-29.022 29.022 29.022 0 0 1 -29.022 29.022zm0-53.207a24.185 24.185 0 1 0 24.185 24.185 24.185 24.185 0 0 0 -24.185-24.185z" transform="translate(434.798 652.198)"/><path d="m1018.753 767.1h-47.744v-47.74h47.744zm-44.072-3.673h40.4v-40.4h-40.4z" transform="translate(559.751 831.711)"/><path d="m341.495 779.759-32.566-34.914 34.914-32.565 32.566 34.914zm-27.375-34.735 27.555 29.543 29.543-27.556-27.557-29.541z" transform="translate(-379.425 821.668)"/><path d="m0 0h2074.677v4.837h-2074.677z" transform="translate(-377.665 1596.12)"/><path d="m1127.905 482.827v158.848a5.553 5.553 0 0 1 -5.538 5.539h-3.942v827.5a86.345 86.345 0 0 1 -86.337 86.342h-517.061a86.324 86.324 0 0 1 -86.317-86.333v-798.487h-2.854a3.912 3.912 0 0 1 -3.918-3.894v-90.4a3.918 3.918 0 0 1 3.919-3.918h2.853v-34.057h-2.878a4.1 4.1 0 0 1 -4.087-4.112v-89.17a4.1 4.1 0 0 1 4.087-4.087h2.878v-46.485h-2.927a3.623 3.623 0 0 1 -3.628-3.628v-48.66a3.643 3.643 0 0 1 3.628-3.652h2.927v-98.531a86.32 86.32 0 0 1 86.314-86.317h517.059a86.341 86.341 0 0 1 86.341 86.318v231.645h3.942a5.553 5.553 0 0 1 5.539 5.539z" transform="translate(-219.393 37.288)"/></g><rect fill="#e6e8ec" height="19.557" rx="2.542" transform="translate(488.908 240.888)" width="96.314"/><circle cx="11.093" cy="11.093" fill="#e6e8ec" r="11.093" transform="translate(599.784 239.573)"/><path d="m1047.27 234.2v1219.158a54.781 54.781 0 0 1 -54.78 54.756h-494.951a54.623 54.623 0 0 1 -25.3-6.167 51.163 51.163 0 0 1 -5.321-3.144 54.824 54.824 0 0 1 -24.161-45.444v-1219.159a54.778 54.778 0 0 1 54.782-54.78h74.077v9.5a45.106 45.106 0 0 0 45.1 45.105h251.728a45.106 45.106 0 0 0 45.106-45.095v-9.5h78.941a54.762 54.762 0 0 1 54.78 54.78z" fill="#fff" transform="translate(-189.583 65.8)"/><path d="m1047.27 701.938v174.52a54.78 54.78 0 0 1 -54.78 54.755h-494.95a54.626 54.626 0 0 1 -25.3-6.167 51.267 51.267 0 0 1 -5.321-3.144 54.825 54.825 0 0 1 -24.161-45.444v-174.448c171.878-154.5 432.6-154.531 604.51-.073z" fill="#001f40" opacity=".3" transform="translate(-189.583 642.7)"/><path d="m1000.545 832.965a54.2 54.2 0 0 1 -25.346 6.216h-494.951a54.623 54.623 0 0 1 -25.3-6.167 295.449 295.449 0 0 1 545.6-.024z" fill="#001f40" opacity=".3" transform="translate(-172.291 734.733)"/><path d="m829.642 792.029a32.8 32.8 0 0 1 -15.338 3.76h-299.504a33.055 33.055 0 0 1 -15.308-3.732 178.784 178.784 0 0 1 330.157-.015z" fill="#001f40" opacity=".3" transform="translate(-109.11 778.596)"/><path d="m601.644 414.039c-83.764 0-158.149-30.051-159.265-30.51l1.842-4.473c1.656.683 167.092 67.475 280.791.156 115.665-68.492 321.436-7.355 323.5-6.729l-1.4 4.629c-2.043-.619-205.8-61.143-319.635 6.261-38.849 23.004-83.538 30.666-125.833 30.666z" fill="#fff" opacity=".3" transform="translate(-190.123 303.181)"/><path d="m710.519 420.725v70.507s5.64 78.967 36.663 118.451c0 0 50.765 71.917 57.816 56.405l-8.684-51.068-29.39-27.9-15.512-87.428-4.23-78.968z" fill="#ffb8b8" transform="translate(190.24 408.09)"/><path d="m703.935 524.941v52.175l-42.3 15.512v-60.637z" fill="#ffb8b8" transform="translate(508.462 941.254)"/><path d="m655.137 522.609 28.2 63.455-39.483 16.922-8.462-62.045z" fill="#ffb8b8" transform="translate(471.243 937.946)"/><path d="m962.039 503.673s56.405 509.058 35.253 510.468-62.046 28.2-62.046 9.871-32.435-256.643-32.435-256.643l-31.022-122.682v169.213l32.433 191.778s-31.023 40.894-53.585 16.922l-47.944-187.544s-63.455-284.849-60.635-307.411c-.001 0 145.242-124.092 219.981-23.972z" fill="#2f2e41" transform="translate(234.849 470.385)"/><path d="m840.7 715.032s11.281-23.972 36.663-8.461l21.152 25.382s54.535 45.162 15.838 54.836c-39.885 9.971-63.782-.636-63.782-.636s-7.051-4.23-12.691-4.23-18.332-9.871-18.332-12.691 4.23-52.79 4.23-52.79a8.892 8.892 0 0 1 9.871 1.41c4.233 4.229 7.051-2.82 7.051-2.82z" fill="#2f2e41" transform="translate(344.904 806.159)"/><path d="m811.264 708.562s26.793-21.152 39.484 2.82c0 0 7.991 2.82 8.931 0s7.991-4.23 7.991 11.281 7.657 54.2.606 55.61-14.1 5.641-12.691 11.281-7.657 6.436-40.09 5.026-33.843-14.1-33.843-14.1 0-18.331 8.461-28.2 21.151-43.718 21.151-43.718z" fill="#2f2e41" transform="translate(291.144 804.169)"/><path d="m820.276 321.605s-7.051 52.175 38.073 70.507-100.12 78.967-114.221 43.714 2.82-46.534 2.82-46.534 14.1-14.1 1.41-52.175z" fill="#ffb8b8" transform="translate(229.957 267.486)"/><circle cx="62.046" cy="62.046" fill="#ffb8b8" r="62.046" transform="translate(943.063 501.662)"/><path d="m855.36 357.755s-42.3 22.562-83.2 5.641-39.482 56.404-39.482 56.404l21.152 55 146.654-14.1-9.871-84.608z" fill="#f2f2f2" transform="translate(221.665 318.766)"/><path d="m869.077 337.8a51.191 51.191 0 0 1 35.123 27.1l67.686 21.152 16.914 23.975-19.738 173.446s36.664 35.253 36.664 55 45.124 87.428 22.562 78.967-63.456-38.073-63.456-38.073-102.94 4.23-135.373 32.433-45.124 19.742-45.124 19.742-33.843-146.654-35.253-169.216-40.894-157.935-40.894-157.935l70.506-39.491 17.958-20.376 49.728 79.6 45.12-54.991s-22.291-17.533-22.423-31.333z" fill="#3f3d56" transform="translate(186.932 290.465)"/><path d="m857.773 412.562 8.461 45.125s38.074 141.013 32.433 188.957c0 0 4.23 107.17-19.742 94.479s-11.281-90.249-11.281-90.249l-33.844-139.602-18.332-81.788z" fill="#ffb8b8" transform="translate(339.114 396.511)"/><path d="m825.827 364.168 14.1 8.461s53.585 111.4 40.894 119.861-67.685 26.792-67.685 26.792z" fill="#3f3d56" transform="translate(335.806 327.863)"/><path d="m585.914 206.424-33.138-.706-7.754 13.4 9.87 136.784 50.765 11.28z" fill="#3f3d56" transform="translate(343.047 488.428)"/><path d="m852.87 310.579 11.184-4.067s-23.384-23.383-55.917-21.35l9.15-9.15s-22.367-8.133-42.7 13.217c-10.689 11.223-23.056 24.416-30.766 39.277h-11.977l5 10-17.5 10 17.957-1.8a50.449 50.449 0 0 0 1.699 25.894l4.067 11.183s16.267-32.534 16.267-36.6v10.167s11.184-9.15 11.184-15.25l6.1 7.117 3.05-11.183 37.617 11.183-6.1-9.15 23.384 3.05-9.15-11.183s26.434 13.217 27.451 24.4 8 25.761 8 25.761l8.461-9.871s13.024-46.393-16.461-61.645z" fill="#2f2e41" transform="translate(202.763 200.655)"/><ellipse cx="4.935" cy="12.691" fill="#ffb8b8" rx="4.935" ry="12.691" transform="translate(1052.348 551.723)"/><path d="m212.893 778.011c30.058 55.745 93.853 79.675 93.853 79.675s15.06-66.45-15-122.194-93.846-79.675-93.846-79.675-15.064 66.449 14.993 122.194z" fill="#3f3d56" transform="translate(-542.281 741.573)"/><path d="m281.6 712.163c54.268 32.649 75.168 97.5 75.168 97.5s-67.085 11.916-121.353-20.734-75.169-97.5-75.169-97.5 67.089-11.916 121.354 20.734z" fill="#001f40" transform="translate(-590.33 789.081)"/><circle cx="26.604" cy="26.604" fill="#fff" r="26.604" transform="translate(529.469 1506.666)"/><text fill="#ff7d00" font-family="Ubuntu-Bold, Ubuntu" font-size="332" font-weight="700" transform="translate(357 888.519)"><tspan x="0" y="0">5</tspan><tspan font-size="156" y="0">Gb</tspan></text></g></svg>