<svg height="91" viewBox="0 0 77 91" width="77" xmlns="http://www.w3.org/2000/svg"><path d="m24.32 90v-1.5a1.5 1.5 0 0 1 .984-1.405l6.864-2.54a16.6 16.6 0 0 0 7.826-5.988l5.723-8.067h-10.944a25.519 25.519 0 0 1 -11.487 7.428l-.96-2.85c10.2-3.355 15.808-11.835 14.288-21.6l-.116-.75a1.485 1.485 0 0 1 .374-1.234l12.387-13.511a3.754 3.754 0 0 0 .9-2.445v-.238a3.779 3.779 0 0 0 -1.129-2.689 3.891 3.891 0 0 0 -5.452 0l-19.706 19.45-2.149-2.121 5.635-5.561v-18.831l-13.681 10.365c-.042.03-.085.06-.129.087a4.482 4.482 0 0 0 -2.034 2.733l-8.156 32.195a10.33 10.33 0 0 0 -.317 2.55v16.522h-3.041v-16.522a13.293 13.293 0 0 1 .409-3.278l8.155-32.191a7.467 7.467 0 0 1 3.319-4.524l15.477-11.724v-17.261a4.53 4.53 0 0 1 4.56-4.5h39.52a4.531 4.531 0 0 1 4.56 4.5v61.5a4.53 4.53 0 0 1 -4.56 4.5h-22.008l-6.943 9.788a19.651 19.651 0 0 1 -9.251 7.077l-5.878 2.174v.461zm47.12-22.5a1.51 1.51 0 0 0 1.52-1.5v-61.5a1.51 1.51 0 0 0 -1.52-1.5h-22.188v26.15a6.8 6.8 0 0 1 3.948 6.15v.234a6.757 6.757 0 0 1 -1.66 4.428l-2.288 2.5v25.038zm-25.228 0v-21.722l-5.932 6.471v15.251zm-9.276 0h.3v-.53q-.145.266-.3.53zm-6.536-63v36.879l6.84-6.75v-31.629h-5.32a1.511 1.511 0 0 0 -1.52 1.5zm9.88 27.129 1.151-1.135a6.939 6.939 0 0 1 4.781-1.994v-25.5h-5.932z" fill="#001f40" stroke="#001f40" stroke-linecap="round" stroke-linejoin="round" transform="translate(.5 .5)"/><g fill="#f17b00"><path d="m19.208 2.955h-17.73a1.478 1.478 0 1 1 0-2.955h17.73a1.478 1.478 0 1 1 0 2.955z" transform="matrix(0 1 -1 0 61.559 9.201)"/><path d="m19.208 2.955h-17.73a1.478 1.478 0 0 1 0-2.955h17.73a1.478 1.478 0 1 1 0 2.955z" transform="matrix(0 1 -1 0 67.469 9.201)"/><path d="m7.388 11.82h-2.955a4.438 4.438 0 0 1 -4.433-4.432v-2.955a4.438 4.438 0 0 1 4.433-4.433h2.955a4.438 4.438 0 0 1 4.432 4.433v2.955a4.438 4.438 0 0 1 -4.432 4.432zm1.477-7.388a1.478 1.478 0 0 0 -1.477-1.477h-2.955a1.478 1.478 0 0 0 -1.478 1.477v2.956a1.478 1.478 0 0 0 1.478 1.477h2.955a1.478 1.478 0 0 0 1.477-1.477z" transform="matrix(0 1 -1 0 67.469 50.573)"/></g></svg>