<svg height="62.152" viewBox="0 0 93.228 62.152" width="93.228" xmlns="http://www.w3.org/2000/svg"><path d="m83.517 85.333h-73.806a9.725 9.725 0 0 0 -9.711 9.711v42.729a9.725 9.725 0 0 0 9.711 9.711h73.806a9.725 9.725 0 0 0 9.711-9.711v-42.729a9.725 9.725 0 0 0 -9.711-9.711zm5.827 52.441a5.834 5.834 0 0 1 -5.827 5.827h-73.806a5.834 5.834 0 0 1 -5.827-5.827v-42.73a5.834 5.834 0 0 1 5.827-5.827h73.806a5.834 5.834 0 0 1 5.827 5.827v42.729z" fill="#001e3c" transform="translate(0 -85.333)"/><path d="m91.286 149.333h-89.344a1.943 1.943 0 0 0 -1.942 1.942v11.653a1.943 1.943 0 0 0 1.942 1.942h89.344a1.943 1.943 0 0 0 1.942-1.942v-11.653a1.943 1.943 0 0 0 -1.942-1.942zm-1.942 11.654h-85.46v-7.769h85.459v7.769z" fill="#001e3c" transform="translate(0 -137.68)"/><g fill="#f17b00"><path d="m89.249 298.667h-23.307a1.942 1.942 0 1 0 0 3.885h23.307a1.942 1.942 0 1 0 0-3.885z" transform="translate(-52.347 -259.822)"/><path d="m89.249 341.333h-23.307a1.942 1.942 0 0 0 0 3.885h23.307a1.942 1.942 0 1 0 0-3.885z" transform="translate(-52.347 -294.719)"/><path d="m372.378 277.333h-3.884a5.834 5.834 0 0 0 -5.827 5.827v3.885a5.834 5.834 0 0 0 5.827 5.827h3.884a5.834 5.834 0 0 0 5.827-5.827v-3.885a5.834 5.834 0 0 0 -5.827-5.827zm1.942 9.711a1.943 1.943 0 0 1 -1.942 1.942h-3.884a1.943 1.943 0 0 1 -1.942-1.942v-3.884a1.943 1.943 0 0 1 1.942-1.942h3.884a1.943 1.943 0 0 1 1.942 1.942z" transform="translate(-296.631 -242.373)"/></g></svg>