<svg height="90.052" viewBox="0 0 67.564 90.052" width="67.564" xmlns="http://www.w3.org/2000/svg"><g fill="#001f40"><path d="m130.915 19.289-18.74-18.74a1.873 1.873 0 0 0 -1.325-.549h-39.35a7.5 7.5 0 0 0 -7.5 7.5v74.96a7.5 7.5 0 0 0 7.5 7.5h52.472a7.5 7.5 0 0 0 7.5-7.5v-61.846a1.873 1.873 0 0 0 -.557-1.325zm-18.191-12.889 12.342 12.34h-8.594a3.752 3.752 0 0 1 -3.748-3.748zm14.992 76.058a3.752 3.752 0 0 1 -3.748 3.748h-52.468a3.752 3.752 0 0 1 -3.748-3.748v-74.958a3.752 3.752 0 0 1 3.748-3.752h37.48v11.244a7.5 7.5 0 0 0 7.5 7.5h11.244z" stroke="#001f40" stroke-width=".1" transform="translate(-63.95 .05)"/><path d="m171.1 298.667h-41.226a1.874 1.874 0 1 0 0 3.748h41.226a1.874 1.874 0 1 0 0-3.748z" transform="translate(-116.706 -246.145)"/><path d="m171.1 234.667h-41.226a1.874 1.874 0 1 0 0 3.748h41.226a1.874 1.874 0 1 0 0-3.748z" transform="translate(-116.706 -193.389)"/><path d="m171.1 362.667h-41.226a1.874 1.874 0 1 0 0 3.748h41.226a1.874 1.874 0 1 0 0-3.748z" transform="translate(-116.706 -298.901)"/><path d="m152.362 426.667h-22.488a1.874 1.874 0 0 0 0 3.748h22.488a1.874 1.874 0 0 0 0-3.748z" transform="translate(-116.706 -351.657)"/><path d="m234.667 172.54a1.873 1.873 0 0 0 1.874 1.874h22.488a1.874 1.874 0 1 0 0-3.748h-22.488a1.873 1.873 0 0 0 -1.874 1.874z" transform="translate(-204.633 -140.632)"/></g><path d="m133.622 91.531h-3.748a1.874 1.874 0 1 0 0 3.748h1.874a1.874 1.874 0 1 0 3.748 0v-.345a5.608 5.608 0 0 0 -1.874-10.9 1.874 1.874 0 1 1 0-3.748h3.748a1.874 1.874 0 1 0 0-3.748h-1.87a1.874 1.874 0 0 0 -3.748 0v.345a5.608 5.608 0 0 0 1.874 10.9 1.874 1.874 0 0 1 0 3.748z" fill="#ff7d00" transform="translate(-116.706 -61.497)"/></svg>