<svg height="66.974" viewBox="0 0 80.369 66.974" width="80.369" xmlns="http://www.w3.org/2000/svg"><path d="m148.092 149.333a20.092 20.092 0 1 0 20.092 20.092 20.114 20.114 0 0 0 -20.092-20.092zm0 36.836a16.743 16.743 0 1 1 16.743-16.743 16.763 16.763 0 0 1 -16.743 16.743z" fill="#ff7d00" transform="translate(-107.908 -132.59)"/><g fill="#001f40"><circle cx="66.974" cy="23.441" r="3.349"/><path d="m73.671 52.713h-10.62a5 5 0 0 1 -3.551-1.472l-6.124-6.121a8.319 8.319 0 0 0 -5.921-2.453h-14.542a8.319 8.319 0 0 0 -5.921 2.453l-6.122 6.121a5 5 0 0 1 -3.553 1.472h-10.617a6.7 6.7 0 0 0 -6.7 6.697v43.533a6.7 6.7 0 0 0 6.7 6.7h66.971a6.7 6.7 0 0 0 6.7-6.7v-43.533a6.7 6.7 0 0 0 -6.7-6.697zm3.349 50.23a3.353 3.353 0 0 1 -3.349 3.349h-66.971a3.353 3.353 0 0 1 -3.349-3.349v-43.533a3.353 3.353 0 0 1 3.349-3.348h10.62a8.319 8.319 0 0 0 5.921-2.453l6.122-6.122a5 5 0 0 1 3.553-1.472h14.54a5 5 0 0 1 3.553 1.472l6.122 6.122a8.319 8.319 0 0 0 5.921 2.453h10.62a3.353 3.353 0 0 1 3.348 3.348z" transform="translate(0 -42.667)"/></g></svg>