<svg width="26.405" height="26.368" xmlns="http://www.w3.org/2000/svg">

 <g>
  <title>Layer 1</title>
  <g id="svg_1">
   <path id="svg_2" stroke="#ff7d00" fill="none" d="m5.73499,18.716a4.81,4.81 0 0 0 -0.663,0.006a0.726,0.726 0 0 1 -0.665,-0.28c-0.833,-0.85 -1.68,-1.685 -2.52,-2.528a3.789,3.789 0 0 1 0,-5.451c0.873,-0.875 1.75,-1.746 2.619,-2.625a0.536,0.536 0 0 1 0.455,-0.183c0.635,0.035 1.272,-0.035 1.906,0.039a2.563,2.563 0 0 1 1.545,0.787q1.807,1.813 3.619,3.621a1.778,1.778 0 0 0 2.652,0q1.813,-1.807 3.619,-3.621a2.661,2.661 0 0 1 1.962,-0.808c0.433,0 0.867,0 1.3,-0.015a0.319,0.319 0 0 1 0.26,0.12c0.926,0.927 1.863,1.842 2.775,2.782a3.78,3.78 0 0 1 -0.01,5.271c-0.908,0.931 -1.838,1.841 -2.755,2.763a0.36,0.36 0 0 1 -0.312,0.122c-0.542,-0.038 -1.087,0.023 -1.63,-0.035a2.555,2.555 0 0 1 -1.579,-0.774q-1.787,-1.794 -3.58,-3.582a1.814,1.814 0 0 0 -2.74,-0.008c-1.148,1.148 -2.309,2.283 -3.439,3.448a2.882,2.882 0 0 1 -2.321,0.953c-0.165,-0.009 -0.328,-0.002 -0.498,-0.002z" class="a"/>
   <path id="svg_3" stroke="#ff7d00" fill="none" d="m5.78401,6.50601a1.832,1.832 0 0 0 0.223,-0.165q2.222,-2.217 4.441,-4.438a3.789,3.789 0 0 1 5.508,0q2.22,2.219 4.438,4.44a0.573,0.573 0 0 1 0.2,0.251a4.943,4.943 0 0 0 -1.345,0.113a3.62,3.62 0 0 0 -1.636,0.935q-1.82,1.817 -3.638,3.637a0.738,0.738 0 0 1 -1.23,0c-1.147,-1.147 -2.3,-2.285 -3.439,-3.445a3.758,3.758 0 0 0 -3.011,-1.244c-0.153,0.008 -0.307,0 -0.461,0l-0.05,-0.084z" class="a"/>
   <path id="svg_4" stroke="#ff7d00" fill="none" d="m20.63301,19.77602c-0.108,0.114 -0.173,0.187 -0.242,0.257l-4.422,4.422a3.791,3.791 0 0 1 -5.55,-0.008q-2.2,-2.2 -4.4,-4.4a0.63,0.63 0 0 1 -0.206,-0.26c0.23,0 0.446,0 0.662,0a3.57,3.57 0 0 0 2.7,-1.122q1.773,-1.769 3.542,-3.541c0.472,-0.472 0.814,-0.47 1.294,0.01c1.148,1.148 2.3,2.287 3.441,3.447a3.714,3.714 0 0 0 2.894,1.2c0.073,-0.007 0.147,-0.005 0.287,-0.005z" class="a"/>
  </g>
 </g>
</svg>