<svg xmlns="http://www.w3.org/2000/svg" width="76.152" height="76.152" viewBox="0 0 76.152 76.152">
    <path fill="#ff7d00" d="M26.864 6.041v17.848a2.974 2.974 0 0 1-2.975 2.975H6.041a2.974 2.974 0 0 1-2.975-2.975V6.041a2.974 2.974 0 0 1 2.975-2.975h17.848a2.974 2.974 0 0 1 2.975 2.975zm-5.949 2.975H9.016v11.9h11.9zM54.38 26.864H36.532a2.974 2.974 0 0 1-2.975-2.975V6.041a2.974 2.974 0 0 1 2.975-2.975H54.38a2.974 2.974 0 0 1 2.975 2.975v17.848a2.974 2.974 0 0 1-2.975 2.975zM51.405 9.016h-11.9v11.9h11.9zM26.864 36.532V54.38a2.974 2.974 0 0 1-2.975 2.975H6.041a2.974 2.974 0 0 1-2.975-2.975V36.532a2.974 2.974 0 0 1 2.975-2.975h17.848a2.974 2.974 0 0 1 2.975 2.975zm-5.949 2.975H9.016v11.9h11.9zM50.55 53.525H40.362a2.974 2.974 0 0 1-2.975-2.975V40.362a2.974 2.974 0 0 1 2.975-2.975H50.55a2.974 2.974 0 0 1 2.975 2.975V50.55a2.974 2.974 0 0 1-2.975 2.975zm-2.975-10.189h-4.239v4.239h4.239zm0 0" transform="translate(8.609 8.609)"/>
    <path fill="#001f40" d="M0 14.279V2.975A2.974 2.974 0 0 1 2.975 0h11.3a2.975 2.975 0 0 1 0 5.949H5.949v8.329a2.975 2.975 0 0 1-5.949 0zM73.177 0h-11.3a2.975 2.975 0 1 0 0 5.949H70.2v8.329a2.975 2.975 0 0 0 5.949 0V2.975A2.974 2.974 0 0 0 73.177 0zm-58.9 70.2H5.949v-8.326a2.975 2.975 0 1 0-5.949 0v11.3a2.974 2.974 0 0 0 2.975 2.975h11.3a2.975 2.975 0 0 0 0-5.949zm58.9-11.3a2.974 2.974 0 0 0-2.977 2.974V70.2h-8.326a2.975 2.975 0 1 0 0 5.949h11.3a2.974 2.974 0 0 0 2.975-2.975v-11.3a2.974 2.974 0 0 0-2.972-2.974z"/>
</svg>
