<svg xmlns="http://www.w3.org/2000/svg" width="58.192" height="89.776" viewBox="0 0 58.192 89.776">
    <path fill="#001f40" d="M46.671 0H11.522A11.312 11.312 0 0 0 0 11.082v67.613a11.313 11.313 0 0 0 11.522 11.081h35.149a11.312 11.312 0 0 0 11.521-11.081V11.082A11.312 11.312 0 0 0 46.671 0zm-8.392 5.26a6.542 6.542 0 0 0-.2 1.6 1.63 1.63 0 0 1-1.659 1.6H21.774a1.629 1.629 0 0 1-1.659-1.6 6.513 6.513 0 0 0-.2-1.6zm14.444 73.434a5.945 5.945 0 0 1-6.052 5.821H11.522a5.944 5.944 0 0 1-6.052-5.821V11.082a5.945 5.945 0 0 1 6.052-5.822h1.465a1.631 1.631 0 0 1 1.659 1.6 7 7 0 0 0 7.129 6.856h14.644a7 7 0 0 0 7.129-6.856 1.632 1.632 0 0 1 1.659-1.6h1.465a5.944 5.944 0 0 1 6.052 5.821zm0 0"/>
    <path fill="#ff7d00" d="M4.554 21.252a19.243 19.243 0 0 1-4.8-.9 28.061 28.061 0 0 1-2.737-1.1l1.744-4.589A21.581 21.581 0 0 0 2.147 15.9a15.142 15.142 0 0 0 4.156.559 6.166 6.166 0 0 0 3.386-.658 2.155 2.155 0 0 0 .911-1.851 2.257 2.257 0 0 0-.365-1.3 3.544 3.544 0 0 0-1.054-.978 10.5 10.5 0 0 0-1.744-.858Q6.379 10.4 5 9.92q-1.338-.479-2.615-1.057A10.592 10.592 0 0 1 .073 7.446a6.378 6.378 0 0 1-1.662-2.055 6.324 6.324 0 0 1-.628-2.933 8.345 8.345 0 0 1 .385-2.533A6.674 6.674 0 0 1-.636-2.29a6.862 6.862 0 0 1 2.109-1.7A10.311 10.311 0 0 1 4.554-5v-4.312h5.109v4.15a23.032 23.032 0 0 1 3.629.6 16.159 16.159 0 0 1 2.413.8l-1.257 4.784a18.925 18.925 0 0 0-3.1-.958 16.773 16.773 0 0 0-3.71-.4 4.745 4.745 0 0 0-2.8.636 2 2 0 0 0-.852 1.68 2.167 2.167 0 0 0 .264 1.1 2.417 2.417 0 0 0 .831.818 9.021 9.021 0 0 0 1.4.7q.831.34 2.007.74a30.2 30.2 0 0 1 3.3 1.4 12.35 12.35 0 0 1 2.639 1.732 6.767 6.767 0 0 1 2.373 5.364 7.968 7.968 0 0 1-.365 2.373 6.117 6.117 0 0 1-1.216 2.173 7.42 7.42 0 0 1-2.21 1.715 10.838 10.838 0 0 1-3.345 1.037V26h-5.11z" transform="translate(23.263 39.863)"/>
</svg>
