<svg id="Componente_46_1" data-name="Componente 46 – 1" xmlns="http://www.w3.org/2000/svg" xmlns:xlink="http://www.w3.org/1999/xlink" width="38.462" height="33.834" viewBox="0 0 38.462 33.834">
  <defs>
    <clipPath id="clip-path">
      <rect id="Retângulo_3231" data-name="Retângulo 3231" width="38.462" height="33.834" fill="none"/>
    </clipPath>
  </defs>
  <g id="Grupo_8661" data-name="Grupo 8661" clip-path="url(#clip-path)">
    <path id="Caminho_13778" data-name="Caminho 13778" d="M7.642,17.827l.092-.128c.029-.049.005-.12.064-.157L8.08,17.1c.079-.111.081-.268.208-.35.484-.789.96-1.584,1.38-2.41a7.263,7.263,0,0,1,.6-1.1c.125-.155.137-.384.328-.495h0c.035-.224.217-.372.3-.572a11.671,11.671,0,0,0,1.058-1.8,4.79,4.79,0,0,1,.681-1.222c.11-.1.1-.276.238-.35.046-.222.306-.32.323-.559a.327.327,0,0,1,.182-.3l0-.005c.076-.078.028-.219.142-.278.468-.718.9-1.459,1.295-2.218.065-.085.022-.234.161-.276q.784-1.347,1.568-2.695c.1-.173.194-.35.291-.525-.017-.047.024-.062.049-.086.293-.344.413-.8.714-1.135.094-.106.2-.205.294-.307a.534.534,0,0,1,.435-.269,2.138,2.138,0,0,1,2.823,1.176c.248.447.514.883.772,1.324a.549.549,0,0,1,.264.436l1.234,2.138c.091.049.078.154.125.227l.79,1.353a5.344,5.344,0,0,1,.684,1.09c.069.076.067.18.105.268v0a1.1,1.1,0,0,1,.209.363l0,0a.7.7,0,0,1,.291.5,10.968,10.968,0,0,0,.732,1.281.737.737,0,0,1,.263.447.046.046,0,0,0,.025.053c.105.035.067.156.129.217h0a1.685,1.685,0,0,1,.495.869l.14.211a1.536,1.536,0,0,1,.221.428l.791,1.357a2.587,2.587,0,0,1,.636,1.085c0,.055,0,.112.061.139a1.038,1.038,0,0,1,.374.638l1.277,2.225a.742.742,0,0,1,.222.36l.21.355a4.168,4.168,0,0,1,.793,1.363q.483.956,1.057,1.861a3.421,3.421,0,0,1,.644,1.075.074.074,0,0,0,.027.063,1.388,1.388,0,0,1,.409.719l2.751,4.786c.1.037.062.157.127.216l.086.149a.955.955,0,0,1,.332.45,9.65,9.65,0,0,1,.784,1.49l.095.282a1.116,1.116,0,0,1,.13.811c-.032.093-.1.17-.129.261a2.2,2.2,0,0,1-1.515,1.512.787.787,0,0,1-.267.1,1.727,1.727,0,0,1-.518-.024c-.154-.005-.309-.016-.464-.016H2.173a2.122,2.122,0,0,1-1.767-.85c-.035-.056-.108-.083-.118-.158L.21,32.644a.062.062,0,0,1-.045-.076,2.507,2.507,0,0,1,.408-2.436c.134-.205.234-.433.35-.65.062-.057.038-.168.129-.206.064-.086.157-.155.162-.275.051-.07.021-.189.133-.223l.1-.2a.97.97,0,0,1,.2-.362c.488-.712.881-1.48,1.313-2.224a.711.711,0,0,0,.047-.2h0a4.243,4.243,0,0,0,.712-1.141.392.392,0,0,1,.191-.3l.026-.068c0-.262.22-.388.342-.575a.04.04,0,0,0,.019-.047.439.439,0,0,1,.142-.236l1.43-2.492c.018-.25.205-.4.336-.591l.181-.347c.012-.074.069-.11.123-.15a15.755,15.755,0,0,0,.865-1.55.259.259,0,0,1,.119-.176.03.03,0,0,0,.025-.038.606.606,0,0,1,.12-.245" transform="translate(0 0)" fill="#fea300"/>
    <path id="Caminho_13779" data-name="Caminho 13779" d="M236.494,142.564c-.094-.947-.191-1.893-.282-2.84-.061-.64-.1-1.282-.174-1.921a2.259,2.259,0,0,1,3.916-1.839,2.2,2.2,0,0,1,.592,1.77c-.184,1.908-.359,3.817-.536,5.725a2.49,2.49,0,0,0,0,.249.244.244,0,0,1,.042.227c-.148.164-.038.382-.115.561l-.013.2c-.044.146,0,.3-.052.448-.052.494-.107.987-.153,1.482a1.183,1.183,0,0,1-.3.739c-.117.026-.153.128-.2.217l-.235.2a1.225,1.225,0,0,1-1.256.067,1.505,1.505,0,0,1-.915-1.383,10.939,10.939,0,0,0-.167-1.622.192.192,0,0,1-.018-.276l-.1-1.439a1.444,1.444,0,0,0-.033-.564" transform="translate(-219.12 -125.531)" fill="#09080e"/>
    <path id="Caminho_13780" data-name="Caminho 13780" d="M236.377,335.7a2.236,2.236,0,0,1,.286-2.674,2.283,2.283,0,1,1,2.088,3.792,2.061,2.061,0,0,1-1.718-.4c-.164-.051-.107-.243-.228-.353s-.019-.39-.159-.556c-.054.088-.085.247-.27.192" transform="translate(-219.158 -308.493)" fill="#09080e"/>
    <path id="Caminho_13781" data-name="Caminho 13781" d="M240.465,373.664c.174-.092.307-.2.044-.481a.617.617,0,0,1,.4.446c.16.4.158.418.4.621-.116.07-.158-.082-.258-.071-.048.091.077.128.075.2a1.555,1.555,0,0,1-.656-.717" transform="translate(-223.246 -346.46)" fill="#100d13"/>
  </g>
</svg>
