<svg height="941.643" viewBox="0 0 1232.5 941.643" width="1232.5" xmlns="http://www.w3.org/2000/svg"><path d="m774.411 53.362c-64.818 15.564-121.991 57.119-178.82 111.638 38.895 32.768 42.413 88.232 7.928 124.978s-94.383 41.359-134.971 10.394c-66.748 73.705-139.638 151.628-228.597 216.028-226.5 163.98 239.286 463.04 534.46 463.04s534.46-207.311 534.46-463.04-250.01-531.343-534.46-463.038z" fill="#dfe0e8" transform="translate(-102.432 -42.8)"/><path d="m992.292 809.509q-51.116-8-98.3-13.613l12.112-24.224c-4.2-1.4-22.422 12.612-22.422 12.612l15.418-70.068c-21.02 2.8-30.83 74.272-30.83 74.272l-23.823-23.823 11.727 26.972c-96.247-10.113-179.3-13.269-249.115-12.545l10.367-20.733c-4.2-1.4-22.422 12.612-22.422 12.612l15.417-70.071c-21.02 2.8-30.83 74.272-30.83 74.272l-23.823-23.823 12.421 28.568a1398.33 1398.33 0 0 0 -142.97 11.514c10.344-32.225 46.468-63.2 46.468-63.2-27.777 8.64-42.227 22.719-49.706 35.769a562.734 562.734 0 0 1 30.086-194.824s-56.055 126.124-47.647 210.203l1.067 14.936c-48.766 7.608-73.237 15.193-73.237 15.193z" fill="#3f3d56" transform="translate(-91.216 132.134)"/><path d="m899.738 626.444a16.816 16.816 0 1 1 16.816-16.816 16.816 16.816 0 0 1 -16.816 16.816zm0-30.83a14.014 14.014 0 1 0 14.014 14.014 14.014 14.014 0 0 0 -14.014-14.014z" fill="#3f3d56" transform="translate(177.804 -93.379)"/><path d="m998.673 747.024h-27.664v-27.664h27.664zm-25.536-2.124h23.408v-23.412h-23.409z" fill="#3f3d56" transform="translate(165.159 192.413)"/><path d="m327.8 751.379-18.869-20.23 20.23-18.869 18.869 20.23zm-15.862-20.126 15.962 17.118 17.121-15.971-15.967-17.117z" fill="#3f3d56" transform="translate(-100.575 189.572)"/><path d="m0 0h1202.129v2.803h-1202.129z" fill="#3f3d56" transform="translate(30.371 937.876)"/><path d="m205 726.62c17.417 32.3 54.381 46.166 54.381 46.166s8.726-38.5-8.69-70.8-54.381-46.166-54.381-46.166-8.727 38.5 8.69 70.8z" fill="#3f3d56" transform="translate(-146.654 166.909)"/><path d="m230.566 702.551c31.444 18.918 43.555 56.494 43.555 56.494s-38.871 6.9-70.316-12.014-43.555-56.494-43.555-56.494 38.871-6.904 70.316 12.014z" fill="#ff7d00" transform="translate(-160.25 180.351)"/><path d="m98.115 599.368-24.062 1.6 3.208-251.844h59.352z" fill="#a0616a" transform="translate(327.736 271.568)"/><path d="m170.115 599.368-24.062 1.6 3.208-251.844 38.386.01z" fill="#a0616a" transform="translate(371.231 271.568)"/><path d="m636.166 800.311c-25.187 11.487-48.861 10.9-71.4 1.22l-12.013-288.354-34.421 285.832c-25.169 6.227-50.61 6.2-76.261 1.3 5.908-42.818 31.129-303.488 28.874-351.3l168.431-8.021z" fill="#2f2e41" transform="translate(-69.156 43.354)"/><path d="m481.553 752.414a24.336 24.336 0 0 1 -24.294-25.774l2.321-39.223c9.347-16.759 20.693-16.827 33.916-1.211l11.194 34.327a24.336 24.336 0 0 1 -23.137 31.881z" transform="translate(-60.006 184.516)"/><path d="m552.553 752.414a24.336 24.336 0 0 1 -24.294-25.774l2.321-39.223c9.347-16.759 20.693-16.827 33.916-1.211l11.194 34.327a24.336 24.336 0 0 1 -23.137 31.881z" transform="translate(-17.115 184.516)"/><circle cx="502.847" cy="126.633" fill="#a0616a" r="46.519"/><path d="m550.463 301.386-75.393-30.478c18.043-8.844 30.293-25.28 40.1-44.915h33.686c-1.605 29.961-2.898 59.217 1.607 75.393z" fill="#a0616a" transform="translate(-49.221 -86.528)"/><path d="m639.828 567-179.659 4.812c2.188-86.267-1.65-175.033-10.657-265.942a46.723 46.723 0 0 1 30.1-48.335l17.446-6.542 70.581 19.249 33.311 25.538a34.1 34.1 0 0 1 13.224 29.432c-5.037 73.647 6.226 155.629 25.654 241.788z" fill="#ff7d00" transform="translate(-64.797 -71.425)"/><path d="m589.463 507.819a18.707 18.707 0 0 1 -19.675-16.611l-3.971-35.759 21.224-5.913 17.524 30.223a18.707 18.707 0 0 1 -15.1 28.06z" fill="#a0616a" transform="translate(5.599 48.515)"/><path d="m622.879 562.523-41.707 1.6-32.082-128.323-8.02-158.807a33.3 33.3 0 0 1 28.91 28.869l14.4 113.9z" fill="#ff7d00" transform="translate(-9.35 -55.719)"/><path d="m83.157 129.628-1.604 105.872 70.58 118.7-62.559-121.91z" opacity=".2" transform="translate(332.266 138.968)"/><path d="m69.277 229.313 41.833 71.887-14.825-.8z" opacity=".2" transform="translate(324.85 199.188)"/><path d="m518.473 397.458a7.37 7.37 0 0 0 -7.361 7.361v456.393a7.37 7.37 0 0 0 7.361 7.361h471.114a7.37 7.37 0 0 0 7.361-7.361v-456.393a7.37 7.37 0 0 0 -7.361-7.361z" fill="#808080" transform="translate(-27.448 17.054)"/><path d="m522.612 843.179h448.94v-434.221h-448.94z" fill="#fff" transform="translate(-20.5 24.001)"/><g fill="#e6e6e6"><path d="m549.585 452.083c-3 0-5.432 4.293-5.432 9.569s2.437 9.57 5.432 9.57h204.755c3 0 5.432-4.293 5.432-9.57s-2.437-9.569-5.432-9.569z" transform="translate(-7.488 50.053)"/><path d="m549.585 488.8c-3 0-5.432 4.293-5.432 9.569s2.437 9.57 5.432 9.57h204.755c3 0 5.432-4.293 5.432-9.57s-2.437-9.569-5.432-9.569z" transform="translate(-7.488 72.231)"/><path d="m549.585 525.083c-3 0-5.432 4.293-5.432 9.569s2.437 9.569 5.432 9.569h204.755c3 0 5.432-4.293 5.432-9.569s-2.437-9.569-5.432-9.569z" transform="translate(-7.488 94.153)"/><path d="m549.585 561.794c-3 0-5.432 4.293-5.432 9.569s2.437 9.57 5.432 9.57h204.755c3 0 5.432-4.293 5.432-9.57s-2.437-9.569-5.432-9.569z" transform="translate(-7.488 116.33)"/><path d="m743.456 452.476a9.569 9.569 0 1 0 0 19.139h38.278a9.569 9.569 0 1 0 0-19.139z" transform="translate(107.131 50.291)"/><path d="m743.456 488.476a9.57 9.57 0 1 0 0 19.139h38.278a9.569 9.569 0 1 0 0-19.139z" transform="translate(107.131 72.038)"/><path d="m743.456 524.476a9.57 9.57 0 0 0 0 19.139h38.278a9.569 9.569 0 1 0 0-19.139z" transform="translate(107.131 93.786)"/><path d="m743.456 560.476a9.57 9.57 0 0 0 0 19.139h38.278a9.569 9.569 0 1 0 0-19.139z" transform="translate(107.131 115.534)"/></g><path d="m737.173 620.84a12.194 12.194 0 0 0 0 24.387h48.774a12.194 12.194 0 0 0 0-24.387z" fill="#ff7d00" transform="translate(101.75 152)"/><path d="m0 0h360.923v3.208h-360.923z" fill="#e6e6e6" transform="translate(537.335 740.202)"/><path d="m534.214 500.859a18.707 18.707 0 0 1 -24.547-7.779l-17.4-31.49 17.324-13.612 27.789 21.173a18.707 18.707 0 0 1 -3.164 31.708z" fill="#a0616a" transform="translate(-38.833 47.573)"/><path d="m558.116 564.98-35.29 19.249-80.206-137.952-9.243-121.312a63.36 63.36 0 0 1 40.549-64l10.4-3.977 6.416 182.867z" fill="#ff7d00" transform="translate(-74.519 -67.801)"/><path d="m580.879 191.789.516 7.757-3.995-10.646a62 62 0 0 0 -34.463-11.817 45.691 45.691 0 0 0 -48.608 57.5l.555 6.664 12.836-17.647a45.114 45.114 0 0 1 43.431-9.741 76.546 76.546 0 0 1 16.07 7 88.3 88.3 0 0 1 20.7 17.176l1.115-7.58c7.496-14.094 3.037-28.401-8.157-38.666z" fill="#2f2e41" transform="translate(-38.56 -116.214)"/></svg>