<svg width="337.556" height="281.97" xmlns="http://www.w3.org/2000/svg">

 <g>
  <title>Layer 1</title>
  <ellipse id="svg_1" fill="#ff7d00" ry="16.574" rx="153.155" cy="265.39601" cx="168.711" class="a"/>
  <path id="svg_2" fill="#a0a0a0" d="m2.2779,24.66501s18.957,-8.388 20.635,-2.013s0,22.144 0,22.144s-9.731,5.536 -5.7,10.737s9.9,15.77 10.9,20.8s6.375,5.369 15.6,6.711s12.75,9.73 13.756,10.9s7.718,-5.2 5.034,1.342s-10.738,9.563 -4.866,18.119a160.208,160.208 0 0 0 12.079,15.6c2.013,2.349 4.361,-10.4 3.691,6.039s-3.523,31.539 4.529,37.746s12.247,10.234 14.931,8.892s0.168,1.174 -3.187,-6.71s-3.523,-9.9 1.174,-14.6s14.764,-10.9 13.086,-16.273s-8.22,-7.046 1.678,-7.885s-0.336,-11.744 2.013,-14.427s6.543,-2.852 6.878,-6.039s3.355,-6.04 -4.7,-7.549s-12.917,0 -13.924,-3.355s1.342,-4.53 -3.02,-6.375s-6.04,0 -7.717,-4.194s-2.013,-7.549 -9.059,-6.04s-11.576,1.845 -12.415,1.678s-5.536,3.691 -5.872,1.845s-2.349,-1.174 -1.678,-5.033s0.167,-2.181 -2.516,-4.362s2.349,-2.181 1.342,-5.033s-4.529,-3.691 -8.221,-1.342s-6.542,3.187 -6.039,-0.168s-4.026,-9.9 4.7,-10.569s9.387,-4.7 13.417,-1.845s11.245,-3.355 13.929,-8.556s1.677,-8.557 9.73,-10.4s11.408,-1.007 12.917,-2.517s1.511,2.684 3.356,-5.033s3.69,-10.4 -2.685,-14.092s-7.213,-6.039 -8.724,-1.51s-2.516,7.717 -5.537,7.885s-1.006,-1.845 -4.864,-1.174s-8.892,-0.335 -8.221,-3.523s-1.174,-4.643 5.536,-5.677s7.214,-6.4 -2.349,-5.9s-10.569,4.194 -15.937,-1.174s-8.724,-8.053 -14.092,-3.859s-1.51,3.02 -9.563,2.349s-19.292,-1.678 -21.809,3.188s3.355,4.865 -4.7,6.375s-6.171,5.96 -3.516,4.877z" class="b"/>
  <ellipse id="svg_3" fill="#aa4f04" ry="12.389" rx="45.333" cy="265.965" cx="168.711" class="c"/>
  <g id="svg_4">
   <circle id="svg_5" stroke-miterlimit="10" stroke-width="3px" stroke="#aa4f04" fill="#fff" r="7.857" cy="106.936" cx="72.627" class="d"/>
   <circle id="svg_6" stroke-miterlimit="10" stroke-width="3px" stroke="#aa4f04" fill="#fff" r="3.929" cy="106.937" cx="72.628" class="d"/>
  </g>
  <g id="svg_7">
   <circle id="svg_8" stroke-miterlimit="10" stroke-width="3px" stroke="#aa4f04" fill="#fff" r="4.913" cy="85.816" cx="36.501" class="d"/>
   <circle id="svg_9" stroke-miterlimit="10" stroke-width="3px" stroke="#aa4f04" fill="#fff" r="2.457" cy="85.817" cx="36.502" class="d"/>
  </g>
  <g id="svg_10">
   <circle id="svg_11" stroke-miterlimit="10" stroke-width="3px" stroke="#aa4f04" fill="#fff" r="5.733" cy="54.95" cx="24.255" class="d"/>
   <circle id="svg_12" stroke-miterlimit="10" stroke-width="3px" stroke="#aa4f04" fill="#fff" r="2.866" cy="54.949" cx="24.254" class="d"/>
  </g>
  <g id="svg_13">
   <circle id="svg_14" stroke-miterlimit="10" stroke-width="3px" stroke="#aa4f04" fill="#fff" r="5.733" cy="50.027" cx="67.538" class="d"/>
   <circle id="svg_15" stroke-miterlimit="10" stroke-width="3px" stroke="#aa4f04" fill="#fff" r="2.866" cy="50.026" cx="67.537" class="d"/>
  </g>
  <path id="svg_16" fill="#a0a0a0" d="m167.52408,54.946s-6.794,2.013 -12.582,3.523s-11.324,-2.013 -11.576,3.02s-2.741,6.459 -5.088,10.932s-3.356,2.8 -1.455,6.934s-1.565,1.79 1.23,7.717s-0.559,9.842 6.375,10.178s9.4,-0.448 12.974,0s2.013,0.111 5.145,1.677s5.033,-2.013 5.592,3.914s3.355,8.612 4.361,11.967s1.566,-0.895 -0.559,7.717s-8.053,5.816 -1.677,9.506s1.23,-1.342 4.249,7.326s-2.8,13.477 4.026,13.589s5.257,4.362 10.625,-1.007s6.6,-6.039 6.823,-10.065s1.566,-0.895 3.354,-4.362s0,-3.914 1.566,-6.822s2.684,-0.447 4.362,-5.145s0,-6.6 -0.112,-10.96s-3.579,-3.579 3.8,-8.836s10.289,-10.513 9.618,-13.756s2.685,-5.144 -2.46,-3.69s-6.375,1.9 -6.375,0.895s3.244,-2.461 4.586,-2.8s11.632,-3.355 11.632,-10.29s-1.23,-7.046 5.368,-5.033s6.264,7.158 8.947,5.48s-0.224,-10.736 4.026,3.8s7.6,25.164 8.835,15.881s-3.8,-11.3 1.455,-14.539s6.039,-1.678 6.821,-4.026s0.671,-4.026 3.355,-1.79s4.7,-0.111 4.362,3.915s4.585,4.362 5.145,5.48s-1.007,3.244 0.671,7.605s10.4,9.171 5.368,7.382s-8.835,-4.026 -8.948,-2.908s3.355,10.513 7.382,12.191s10.848,4.473 12.079,5.257s-3.579,-3.132 -6.71,-7.046s-7.046,-4.585 -4.138,-5.033s6.71,0.185 3.8,-2.983s-1.789,-2.162 -4.25,-5.07s-4.474,-4.7 -2.349,-5.369s3.244,-1.006 4.251,1.119s2.236,4.138 2.236,4.138s3.8,-3.02 4.473,-4.25s1.342,-2.908 -0.111,-4.7s-2.348,-2.013 -3.243,-3.914s-1.677,-2.8 -1.23,-3.467s2.907,-1.342 2.907,-1.342s0.112,1.342 -0.223,1.678s-0.783,1.677 0,1.789s2.908,0.112 3.02,-0.448s-0.671,-2.349 -0.336,-2.8s0.394,-0.112 2.1,-0.783s9.421,-7.158 8.415,-10.4s1.678,-2.46 -2.237,-7.829s-6.6,-5.368 -3.02,-6.71s13.421,-4.7 12.079,-10.177s-0.895,-6.6 -2.909,-7.717s-6.039,-1.566 -6.375,-3.691s-1.007,-4.809 2.013,-4.809s8.948,-6.6 16.888,-4.362s11.967,0 11.184,-2.46s6.487,-2.237 -11.632,-4.921s-28.631,-2.46 -33.552,-3.02s-15.546,0.895 -18.006,-0.783s-1.007,-5.48 -7.381,-4.474s-2.8,1.79 -10.514,0.335s-6.486,-2.013 -10.96,0.559s-9.954,0.335 -11.072,4.585s-1.565,4.921 -3.914,3.355s-6.375,-4.25 -11.185,-1.342s-3.579,1.9 -13.2,-0.895s-6.935,-3.355 -13.98,-1.454s-10.4,2.684 -11.855,5.592s-12.079,7.605 -1.119,7.717s17.56,1.9 15.658,2.46s-5.256,4.139 -10.513,4.25s-12.638,-3.467 -12.862,0.56s-1.9,7.046 -3.355,2.013s-3.691,-14.651 -6.039,-7.941s-4.139,12.414 -1.119,12.414s10.737,-2.8 6.935,-0.335s-12.3,2.908 -6.71,4.921s11.52,1.007 6.263,3.132s-12.3,-0.448 -11.519,3.243s0.895,6.151 5.032,6.151s6.823,-1.454 9.059,-5.145s12.079,-3.69 12.639,-1.9s2.348,3.132 4.138,2.125s0,-4.362 4.921,0.671s7.046,12.974 7.829,5.48s4.25,0.112 6.822,0.336s4.474,0.559 2.125,3.131s2.236,2.8 -4.585,3.02s-11.409,-2.572 -13.757,-1.79s2.013,5.256 -4.474,1.006s0.567,-6.308 -7.653,-6.277z" class="b"/>
  <g id="svg_17">
   <circle id="svg_18" stroke-miterlimit="10" stroke-width="3px" stroke="#aa4f04" fill="#fff" r="5.733" cy="54.95" cx="153.45601" class="d"/>
   <circle id="svg_19" stroke-miterlimit="10" stroke-width="3px" stroke="#aa4f04" fill="#fff" r="2.866" cy="54.949" cx="153.45501" class="d"/>
  </g>
  <g id="svg_20">
   <circle id="svg_21" stroke-miterlimit="10" stroke-width="3px" stroke="#aa4f04" fill="#fff" r="5.733" cy="69.014" cx="289.488" class="d"/>
   <circle id="svg_22" stroke-miterlimit="10" stroke-width="3px" stroke="#aa4f04" fill="#fff" r="2.866" cy="69.013" cx="289.487" class="d"/>
  </g>
  <g id="svg_23">
   <circle id="svg_24" stroke-miterlimit="10" stroke-width="3px" stroke="#aa4f04" fill="#fff" r="5.733" cy="32.225" cx="247.59199" class="d"/>
   <circle id="svg_25" stroke-miterlimit="10" stroke-width="3px" stroke="#aa4f04" fill="#fff" r="2.866" cy="32.224" cx="247.59099" class="d"/>
  </g>
  <g id="svg_26">
   <circle id="svg_27" stroke-miterlimit="10" stroke-width="3px" stroke="#aa4f04" fill="#fff" r="5.733" cy="83.29" cx="281.108" class="d"/>
   <circle id="svg_28" stroke-miterlimit="10" stroke-width="3px" stroke="#aa4f04" fill="#fff" r="2.866" cy="83.289" cx="281.107" class="d"/>
  </g>
  <g id="svg_29">
   <circle id="svg_30" stroke-miterlimit="10" stroke-width="3px" stroke="#aa4f04" fill="#fff" r="5.733" cy="130.68" cx="291.27701" class="d"/>
   <circle id="svg_31" stroke-miterlimit="10" stroke-width="3px" stroke="#aa4f04" fill="#fff" r="2.866" cy="130.679" cx="291.27601" class="d"/>
  </g>
  <g id="svg_32">
   <circle id="svg_33" fill="#fff" r="5.733" cy="156.50599" cx="192.57699" class="e"/>
   <circle id="svg_34" fill="none" stroke-miterlimit="10" stroke-width="3px" stroke="#aa4f04" r="5.733" cy="156.50599" cx="192.57699" class="f"/>
   <g id="svg_35">
    <circle id="svg_36" fill="#fff" r="2.866" cy="156.50499" cx="192.57599" class="e"/>
    <circle id="svg_37" fill="none" stroke-miterlimit="10" stroke-width="3px" stroke="#aa4f04" r="2.866" cy="156.50499" cx="192.57599" class="f"/>
   </g>
  </g>
  <path id="svg_38" fill="#a0a0a0" d="m291.38806,168.55502c-0.112,-0.56 -1.23,-1.566 1.789,-9.787s4.363,-2.74 10.849,-9s2.685,-9.592 6.822,-6.753s5.033,1.832 8.277,-0.516s6.823,-2.685 4.138,0s-4.138,4.585 -0.335,5.368s5.033,0.783 5.592,-2.908s0,-4.138 2.237,-0.559s1.454,3.8 3.02,6.822s4.585,0.783 3.579,8.053s-1.2,12.862 -9.491,15.658s-9.522,5.257 -10.416,2.572s-0.672,-2.572 -1.343,-4.25s3.243,-2.237 -0.671,-1.677s-4.138,0.336 -5.145,-1.454s0.335,-3.467 -4.585,-1.789s-6.375,2.013 -8.5,3.019s-4.838,2.013 -6.109,1.231s0.292,-4.03 0.292,-4.03z" class="b"/>
  <g id="svg_39">
   <circle id="svg_40" stroke-miterlimit="10" stroke-width="3px" stroke="#aa4f04" fill="#fff" r="5.733" cy="167.83999" cx="330.254" class="d"/>
   <circle id="svg_41" stroke-miterlimit="10" stroke-width="3px" stroke="#aa4f04" fill="#fff" r="2.866" cy="167.83899" cx="330.253" class="d"/>
  </g>
  <path id="svg_42" fill="#a0a0a0" d="m211.25401,158.543c-0.615,-0.5 -3.411,2.125 -1.9,-4.865s-0.895,-6.543 1.9,-8.556s5.033,-1.6 5.2,-3.677s3.076,-4.237 2.684,0a22.989,22.989 0 0 1 -3.3,9.773a20.745,20.745 0 0 0 -2.4,5.145c-0.842,2.515 -2.184,2.18 -2.184,2.18z" class="b"/>
  <path id="svg_43" fill="#a0a0a0" d="m104.02606,0.256c-0.335,-0.084 -12.247,-0.168 -12.833,3.271s-0.42,6.123 6.417,3.775s11.7,-5.7 13.882,-2.013s0.252,3.271 -0.587,9.06s-0.923,9.059 3.691,7.8s4.11,-0.167 6.71,-3.69s3.355,-5.536 9.227,-5.62s9.982,0.252 10.4,-3.1s-2.517,-3.747 2.181,-5.648s16.525,-0.475 6.292,-2.656s-17.531,-1.226 -25.5,-1.2s-19.88,0.021 -19.88,0.021z" class="b"/>
  <path id="svg_44" stroke-dasharray="12" stroke-width="2px" stroke-linejoin="round" stroke-linecap="round" stroke="#aa5217" fill="none" d="m192.18505,158.88c-63.163,-29.976 -94.617,4.561 -94.617,5.064" class="g"/>
  <path id="svg_45" stroke-dasharray="12" stroke-width="2px" stroke-linejoin="round" stroke-linecap="round" stroke="#aa5217" fill="none" d="m107.63303,125.80102s17.363,-61.4 83.294,-45.044" class="g"/>
  <path id="svg_46" stroke-dasharray="12" stroke-width="2px" stroke-linejoin="round" stroke-linecap="round" stroke="#aa5217" fill="none" d="m73.4089,108.16499s70.46,-48 118.775,43.846" class="g"/>
  <path id="svg_47" stroke-dasharray="12" stroke-width="2px" stroke-linejoin="round" stroke-linecap="round" stroke="#aa5217" fill="none" d="m109.14305,129.24795s-8.808,-24.95 -32.8,-21.45" class="g"/>
  <path id="svg_48" stroke-dasharray="12" stroke-width="2px" stroke-linejoin="round" stroke-linecap="round" stroke="#aa5217" fill="none" d="m36.50196,86.72999s23.655,-10.691 34.391,18.058" class="g"/>
  <path id="svg_49" stroke-dasharray="12" stroke-width="2px" stroke-linejoin="round" stroke-linecap="round" stroke="#aa5217" fill="none" d="m24.25499,58.045c0.5,0.168 46.973,4.073 47.477,44.061" class="g"/>
  <path id="svg_50" stroke-dasharray="12" stroke-width="2px" stroke-linejoin="round" stroke-linecap="round" stroke="#aa5217" fill="none" d="m26.43595,46.97701s11.576,-21.641 41.1,-3.355" class="g"/>
  <path id="svg_51" stroke-dasharray="12" stroke-width="2px" stroke-linejoin="round" stroke-linecap="round" stroke="#aa5217" fill="none" d="m70.89288,44.96398s25.332,-36.237 80.694,4.865" class="g"/>
  <path id="svg_52" stroke-dasharray="12" stroke-width="2px" stroke-linejoin="round" stroke-linecap="round" stroke="#aa5217" fill="none" d="m289.48697,62.57899c0,-0.671 -5.7,-39.927 -40.1,-28.184c0,0 -38.418,-24.829 -62.24,8.556" class="g"/>
  <path id="svg_53" stroke-dasharray="12" stroke-width="2px" stroke-linejoin="round" stroke-linecap="round" stroke="#aa5217" fill="none" d="m216.34311,68.32302c0.168,-0.671 32.546,-30.533 71.131,1.174" class="g"/>
  <path id="svg_54" stroke-dasharray="12" stroke-width="2px" stroke-linejoin="round" stroke-linecap="round" stroke="#aa5217" fill="none" d="m254.84506,82.54801c0.419,-0.167 9.143,-20.719 27.345,3.1" class="g"/>
  <path id="svg_55" stroke-dasharray="12" stroke-width="2px" stroke-linejoin="round" stroke-linecap="round" stroke="#aa5217" fill="none" d="m291.27608,70.06501s5.257,-15.006 24.046,-7.28" class="g"/>
  <path id="svg_56" stroke-dasharray="12" stroke-width="2px" stroke-linejoin="round" stroke-linecap="round" stroke="#aa5217" fill="none" d="m219.17496,87.50697s59.11,-37.355 71.421,40.823" class="g"/>
  <path id="svg_57" stroke-dasharray="12" stroke-width="2px" stroke-linejoin="round" stroke-linecap="round" stroke="#aa5217" fill="none" d="m330.25396,166.69003s-9.227,-40.766 -37.746,-32.378" class="g"/>
  <path id="svg_58" stroke-dasharray="12" stroke-width="2px" stroke-linejoin="round" stroke-linecap="round" stroke="#aa5217" fill="none" d="m193.5271,77.20997s18.565,-9.9 23.822,7.158" class="g"/>
  <path id="svg_59" stroke-dasharray="12" stroke-width="2px" stroke-linejoin="round" stroke-linecap="round" stroke="#aa5217" fill="none" d="m192.57602,74.83498c0.447,-0.336 6.095,-11.688 22.144,-3.915" class="g"/>
  <path id="svg_60" stroke-dasharray="12" stroke-width="2px" stroke-linejoin="round" stroke-linecap="round" stroke="#aa5217" fill="none" d="m154.942,48.82299s31.372,-56.352 93.108,-18.614" class="g"/>
  <path id="svg_61" fill="#a0a0a0" d="m316.4979,40.01999s-5.177,2.6 -2.421,7.125s6.111,8.257 4.937,8.154s-4.627,-3.623 -6.508,-1.024s-1.88,5.284 0.637,8.3s3.69,2.683 2.18,4.613s5.368,5.955 4.529,0s-3.187,-5.179 -3.187,-7.328s0.167,-1.646 2.348,-2.82s6.04,1.486 2.182,-3.955s-6.372,-2.253 -4.193,-6.111s1.341,-2.013 3.857,-5.536s5.7,-1.174 2.517,-3.523s-6.878,2.105 -6.878,2.105z" class="b"/>
  <g id="svg_62">
   <path id="svg_63" fill="#f0beb4" d="m202.80499,112.89605l23.723,-13.443a5.071,5.071 0 0 1 2.374,-2.876c1.792,-0.876 4.206,-3.928 6.121,-3.661s2.085,6.524 -1.1,8.513a33.693,33.693 0 0 1 -7.583,3.2s-20.988,15.186 -22.665,15.194s-4.23,-5.775 -0.87,-6.927z" class="h"/>
   <path id="svg_64" fill="#272626" d="m171.47504,121.20305s0.736,-7.861 4.9,-8.924c4.532,-1.155 24.793,-0.955 24.793,-0.955s5.5,10.485 2.837,10.151s-29.972,5.743 -32.53,-0.272z" class="i"/>
   <path id="svg_65" fill="#f0beb4" d="m132.49601,112.89605l-23.723,-13.443a5.069,5.069 0 0 0 -2.374,-2.876c-1.792,-0.876 -4.206,-3.928 -6.122,-3.661s-2.085,6.524 1.1,8.513a33.7,33.7 0 0 0 7.583,3.2s20.988,15.186 22.666,15.194s4.23,-5.775 0.87,-6.927z" class="h"/>
   <path id="svg_66" fill="#272626" d="m163.82696,121.20305s-0.736,-7.861 -4.9,-8.924c-4.532,-1.155 -24.793,-0.955 -24.793,-0.955s-5.5,10.485 -2.837,10.151s29.972,5.743 32.53,-0.272z" class="i"/>
   <path id="svg_67" fill="#f0beb4" d="m179.81888,251.25196l0.9,9.2l6.023,-1.221l-1.953,-9.278l-4.97,1.299z" class="h"/>
   <path id="svg_68" fill="#272626" d="m178.99908,266.33098c-1.9,-1.306 0.82,-6.692 0.82,-6.692l6.917,-1.628s11.968,6.219 11.041,7.906s-16.878,1.725 -18.778,0.414z" class="i"/>
   <path id="svg_69" fill="#f0beb4" d="m159.38994,254.50704l-0.814,7.813l-5.453,-0.488l-0.57,-7.325l6.837,0z" class="h"/>
   <path id="svg_70" fill="#272626" d="m146.12791,268.83096s11.946,-0.249 13.267,-1.465s0,-5.616 0,-5.616l-7.163,-1.3l-7.406,7.162s-1.32,1.508 1.302,1.219z" class="i"/>
   <path id="svg_71" fill="#272626" d="m181.2849,166.85005l7.325,85.215l-9.273,0.977s-12.582,-60.554 -12.521,-66.414s2.016,-17.336 2.016,-17.336l12.453,-2.442z" class="i"/>
   <path id="svg_72" fill="#272626" d="m153.20502,169.77896l-3.064,87.412l11.121,0s8.058,-68.612 8.058,-73.495s-2.5,-12.941 -2.5,-12.941l-13.615,-0.976z" class="i"/>
   <path id="svg_73" fill="#f7f7ff" d="m161.50602,111.17998s-4.649,0.334 -7.17,1.882c-3.172,1.949 -1.813,8.043 -2.108,11.547c-0.976,11.6 -5.249,44.317 0,47s21.854,4.4 31.742,-2.93c1.578,-15.251 2.3,-54.331 -7.591,-56.4c-3.915,-0.819 -14.873,-1.099 -14.873,-1.099z" class="j"/>
   <path id="svg_74" fill="#e0ada6" d="m162.56289,97.66899s-0.406,14.895 -1.139,15.79c3.582,1.953 7.081,3.581 8.058,1.872s1.679,-3.137 1.679,-3.137s-3.144,-5.9 -2.086,-9.885s-6.512,-4.64 -6.512,-4.64z" class="k"/>
   <path id="svg_75" fill="#f0beb4" d="m158.23802,87.25101s-2.594,14.394 4.061,17.487s9.531,-2.1 10.019,-3.813s1.709,-14.732 0,-15.464s-11.887,-3.907 -14.08,1.79z" class="h"/>
   <path id="svg_76" fill="#7a80a3" d="m158.45589,98.24998s-1.676,-7.98 -0.315,-9.515s9.921,-1.78 11.347,-1.534s2.723,2.741 2.723,5.483s0.188,3.318 0.645,1.833s0.937,-0.4 0.924,-0.022s-2.264,3.247 -1.243,4.055s2.4,0.13 2.721,-2.694s-0.519,-3.663 -0.972,-7.786s0.686,-5.228 -1.213,-5.718s-12.626,0.135 -15.465,-0.27s-2.316,0.147 -1.637,1.375s0.549,3.254 0.354,5.77a15.959,15.959 0 0 0 0.844,5.4c0.128,0.737 0.916,4.856 1.1,4.239" class="l"/>
   <ellipse id="svg_77" fill="#f0beb4" ry="1.968" rx="1.358" cy="94.006" cx="173.068" class="h"/>
   <ellipse id="svg_78" fill="#f0beb4" ry="1.968" rx="1.358" cy="95.701" cx="157.735" class="h"/>
  </g>
  <g id="svg_79">
   <path id="svg_80" fill="#ffa45a" d="m222.74589,175.81l-1.08,-6.9s-20.315,30.955 -23.97,36.677s-12.11,12.423 -10.922,17.563s17.8,-0.328 17.8,-0.328l18.172,-47.012z" class="m"/>
   <path id="svg_81" fill="#ff7d00" d="m232.11889,180.39203s-1.977,-10.144 -3.918,-10.286s-39.412,48.417 -38.506,51.028s11.637,2.657 15.437,0.48c0.768,-0.44 2.325,-2.383 4.323,-5.2c7.899,-11.154 22.664,-36.022 22.664,-36.022z" class="a"/>
   <path id="svg_82" fill="#ff7d00" d="m246.46997,218.845c-0.073,-1.942 -2.427,-45.526 -5.449,-45.865s-46.439,43.518 -45.889,45.746s19.535,0.164 30.772,0.94a96.613,96.613 0 0 0 20.566,-0.821z" class="a"/>
   <path id="svg_83" stroke="#aa5117" stroke-dasharray="12" stroke-width="2px" stroke-linejoin="round" stroke-linecap="round" fill="none" d="m242.86409,194.58798s-0.188,-17.694 -1.615,-18.237s-40.527,37.226 -41.978,39.918s-1.015,2.931 -1.015,2.931" class="n"/>
   <path id="svg_84" fill="#ffa45a" d="m273.56706,222.41999s0.9,-1.436 -2.342,-1.71s-31,-2.872 -38.977,-2s-27.906,1.075 -27.906,1.075l-0.6,3.306l69.825,-0.671z" class="m"/>
   <path id="svg_85" fill="#ff7d00" d="m218.03501,171.20303s-35.882,46.379 -33.882,51.594s4.984,49.833 9.356,50.843s15.283,1.314 23.669,1.58s52.285,2.377 54.848,-0.108s5.754,-53.074 0.955,-52.966s-64.87,-0.571 -71.047,1.46c-4.32,1.42 -17.152,2.68 -15.206,-2.589s12.294,-14.2 13.631,-16.912s18.64,-30.477 18.64,-30.477l-0.964,-2.425z" class="a"/>
   <path id="svg_86" stroke="#000" stroke-miterlimit="10" fill="#fff" d="m228.20107,170.10703" class="o"/>
   <path id="svg_87" fill="#aa4f04" d="m244.73611,234.16203s33.722,-2.987 34.516,-0.929s0.1,12.247 -0.2,12.724s-33.223,0.845 -34.215,0.452s-8.992,-7.809 -0.101,-12.247z" class="c"/>
   <path id="svg_88" stroke="#aa5117" stroke-dasharray="12" stroke-width="2px" stroke-linejoin="round" stroke-linecap="round" fill="none" d="m194.41396,269.38396s2.745,2.168 10.032,2.18s52.446,0.622 54.612,0.744c5.541,0.314 12.795,-1.7 12.795,-1.7" class="n"/>
   <path id="svg_89" stroke="#aa5117" stroke-dasharray="12" stroke-width="2px" stroke-linejoin="round" stroke-linecap="round" fill="none" d="m188.22108,226.23794s0.762,4.107 14.295,0.069s70.464,-1.212 70.464,-1.212" class="n"/>
   <path id="svg_90" fill="#ffa45a" d="m276.8369,233.83504s-28.941,0.629 -31.471,1.427a5.11,5.11 0 0 0 -3.4,4.3c0.015,0.875 1.321,5.823 6,5.981s29.257,-0.949 29.257,-0.949" class="m"/>
   <circle id="svg_91" fill="#aa4f04" r="4.55" cy="240.04" cx="271.25701" class="c"/>
   <circle id="svg_92" fill="#fff" r="3.218" cy="240.041" cx="271.25801" class="e"/>
  </g>
  <path id="svg_93" stroke-dasharray="12" stroke-width="2px" stroke-linejoin="round" stroke-linecap="round" stroke="#aa5217" fill="none" d="m193.5271,156.12401s24.687,-22.1 28.133,5.939" class="g"/>
  <path id="svg_94" stroke-dasharray="12" stroke-width="2px" stroke-linejoin="round" stroke-linecap="round" stroke="#aa5217" fill="none" d="m195.12701,160.852s13.24,-3.843 13.785,19.326" class="g"/>
  <path id="svg_95" stroke-dasharray="12" stroke-width="2px" stroke-linejoin="round" stroke-linecap="round" stroke="#aa5217" fill="none" d="m193.52803,203.81003c1.251,-2.268 15.5,-33.213 -0.248,-40.525" class="g"/>
 </g>
</svg>