<svg width="319.691" height="301.685" xmlns="http://www.w3.org/2000/svg">

 <g>
  <title>Layer 1</title>
  <g id="svg_1">
   <ellipse id="svg_2" fill="#ff7d00" ry="17.053" rx="157.586" cy="284.632" cx="157.586" class="a"/>
   <ellipse id="svg_3" fill="#aa4f04" ry="4.444" rx="77.071" cy="279.45699" cx="165.534" class="b"/>
   <g id="svg_4">
    <path id="svg_5" fill="#ff7d00" d="m45.166,62.71497a4.121,4.121 0 0 0 -5.807,-0.516a4.12,4.12 0 0 0 -0.52,5.8a4.115,4.115 0 0 0 4.9,1.091l8.587,10.275l17.637,2.809l9.739,11.654l-9.979,3.552l-20.768,-7.716a4.109,4.109 0 0 0 -0.912,-3.214a4.122,4.122 0 0 0 -5.811,-0.52a4.121,4.121 0 0 0 -0.516,5.807a4.121,4.121 0 0 0 5.8,0.52a4.283,4.283 0 0 0 0.608,-0.633l21.583,8.02l11.344,-4.042l0.132,0l6.636,7.942l-0.016,0.014c-0.135,0.12 -0.34,0.3 -0.6,0.519a44.456,44.456 0 0 1 -18.451,9.111a30.788,30.788 0 0 1 -15.079,-0.52c-5.369,-1.575 -10.992,-4.837 -16.559,-10.645c-0.725,-0.752 -1.421,-1.535 -2.09,-2.335c-11.1,-13.278 -14.439,-32.251 -14.981,-47.912a152.386,152.386 0 0 1 0.647,-19.869c0.244,-2.518 0.509,-4.547 0.71,-5.949c0.1,-0.693 0.186,-1.229 0.245,-1.6l46.241,55.335l-14.445,-2.305l-8.075,-9.663a4.119,4.119 0 0 0 -0.2,-5.01z" class="a"/>
    <path id="svg_6" fill="#ff7d00" d="m95.03702,49.53998c0.668,0.8 1.312,1.627 1.93,2.468c4.743,6.5 7.012,12.561 7.7,18.054a31.419,31.419 0 0 1 -4.736,20.488a42.969,42.969 0 0 1 -8.776,10.223c-0.253,0.212 -0.456,0.374 -0.595,0.483l-0.008,0.007l-12.21,-14.612l0.064,-0.255l7.923,-18.516l-5.932,-12.612a4.119,4.119 0 0 0 0.463,-5.756a4.121,4.121 0 0 0 -5.8,-0.519a4.12,4.12 0 0 0 -0.519,5.8a4.117,4.117 0 0 0 3.95,1.4l5.514,11.721l-7.22,16.861l-19.537,-23.379l0.021,-0.306l5.112,-11.823l-4.773,-9.036c0.02,-0.017 0.048,-0.033 0.069,-0.05a4.123,4.123 0 0 0 0.52,-5.811a4.121,4.121 0 0 0 -5.807,-0.516a4.12,4.12 0 0 0 -0.52,5.8a4.111,4.111 0 0 0 3.782,1.425l4.373,8.276l-4.378,10.123l-31.252,-37.4a146.238,146.238 0 0 1 29.549,4.446c14.386,3.732 30.686,10.562 41.093,23.016z" class="a"/>
    <g id="svg_7">
     <path id="svg_8" fill="#f7f7ff" d="m43.94199,63.73801a2.5,2.5 0 0 1 0.574,1.848a2.51,2.51 0 0 1 -0.9,1.712a2.529,2.529 0 0 1 -1.845,0.578a2.512,2.512 0 0 1 -1.712,-0.9a2.521,2.521 0 0 1 -0.578,-1.845a2.528,2.528 0 0 1 0.9,-1.712a2.513,2.513 0 0 1 1.845,-0.578a2.5,2.5 0 0 1 1.716,0.897z" class="c"/>
    </g>
    <g id="svg_9">
     <path id="svg_10" fill="#f7f7ff" d="m56.82996,38.77903a2.509,2.509 0 0 0 0.715,-1.533a2.492,2.492 0 0 0 -0.574,-1.848a2.512,2.512 0 0 0 -1.717,-0.894a2.511,2.511 0 0 0 -1.844,0.578a2.528,2.528 0 0 0 -0.9,1.713a2.528,2.528 0 0 0 0.578,1.844a2.509,2.509 0 0 0 1.712,0.9c0.008,0 1.125,-0.12 1.133,-0.119l0.897,-0.641z" class="c"/>
    </g>
    <g id="svg_11">
     <path id="svg_12" fill="#f7f7ff" d="m79.67596,53.72799a2.526,2.526 0 0 0 0.54,-1.352a2.513,2.513 0 0 0 -0.578,-1.845a2.521,2.521 0 0 0 -1.713,-0.9a2.511,2.511 0 0 0 -1.844,0.578a2.508,2.508 0 0 0 -0.9,1.712a2.517,2.517 0 0 0 0.578,1.845a2.51,2.51 0 0 0 1.712,0.9a2.51,2.51 0 0 0 0.291,0a3.307,3.307 0 0 0 1.914,-0.938z" class="c"/>
    </g>
    <g id="svg_13">
     <path id="svg_14" fill="#f7f7ff" d="m46.813,87.47906a2.5,2.5 0 0 1 0.573,1.606a2.145,2.145 0 0 1 -0.641,1.741l-0.254,0.213a2.53,2.53 0 0 1 -1.845,0.578a2.527,2.527 0 0 1 -1.712,-0.9a2.533,2.533 0 0 1 -0.582,-1.849a2.526,2.526 0 0 1 0.9,-1.712a2.511,2.511 0 0 1 1.844,-0.578a2.513,2.513 0 0 1 1.717,0.901z" class="c"/>
    </g>
    <path id="svg_15" fill="#df9277" d="m57.26403,61.09601z" class="d"/>
    <path id="svg_16" fill="#df9277" d="m78.412,86.39198l0,0z" class="d"/>
   </g>
   <g id="svg_17">
    <g id="svg_18">
     <path id="svg_19" fill="#ff7d00" d="m264.88804,141.61602a3.108,3.108 0 0 0 0.046,-4.4a3.108,3.108 0 0 0 -4.395,-0.048a3.1,3.1 0 0 0 -0.532,3.746l-7.22,7.064l-1.072,13.429l-8.189,8.011l-3.26,-7.295l4.577,-16.073a3.1,3.1 0 0 0 2.364,-0.876a3.109,3.109 0 0 0 0.048,-4.4a3.108,3.108 0 0 0 -4.4,-0.045a3.108,3.108 0 0 0 -0.048,4.394a3.2,3.2 0 0 0 0.512,0.42l-4.757,16.7l3.708,8.292l0.007,0.1l-5.58,5.459l-0.011,-0.012c-0.1,-0.095 -0.244,-0.238 -0.426,-0.424a33.536,33.536 0 0 1 -7.938,-13.332a23.22,23.22 0 0 1 -0.5,-11.37a28.46,28.46 0 0 1 7.028,-13.08c0.522,-0.59 1.071,-1.16 1.632,-1.709c9.33,-9.133 23.4,-12.761 35.146,-14.093a115.019,115.019 0 0 1 14.979,-0.687c1.908,0.035 3.45,0.115 4.515,0.183c0.527,0.034 0.935,0.067 1.216,0.09l-38.883,38.039l0.88,-11l6.791,-6.643a3.107,3.107 0 0 0 3.762,-0.44z" class="a"/>
     <path id="svg_20" fill="#ff7d00" d="m277.73899,178.33796c-0.562,0.55 -1.146,1.083 -1.741,1.6a29.291,29.291 0 0 1 -13.122,6.857a23.7,23.7 0 0 1 -15.686,-2.353a32.417,32.417 0 0 1 -8.206,-6c-0.174,-0.178 -0.308,-0.321 -0.4,-0.418l-0.005,-0.006l10.267,-10.044l0.2,0.033l14.391,4.865l9.134,-5.205a3.106,3.106 0 0 0 4.355,0.008a3.108,3.108 0 0 0 0.049,-4.395a3.108,3.108 0 0 0 -4.395,-0.048a3.105,3.105 0 0 0 -0.822,3.054l-8.489,4.838l-13.106,-4.434l16.428,-16.071l0.232,0l9.193,3.147l6.513,-4.123c0.014,0.014 0.028,0.035 0.042,0.049a3.109,3.109 0 0 0 4.4,0.048a3.108,3.108 0 0 0 0.046,-4.4a3.108,3.108 0 0 0 -4.395,-0.048a3.1,3.1 0 0 0 -0.849,2.928l-5.965,3.777l-7.87,-2.7l26.279,-25.708a110.271,110.271 0 0 1 -1.6,22.483c-1.953,11.044 -6.127,23.705 -14.878,32.266z" class="a"/>
     <g id="svg_21">
      <path id="svg_22" fill="#f7f7ff" d="m264.04696,140.75303a1.879,1.879 0 0 1 -1.356,0.541a1.894,1.894 0 0 1 -1.341,-0.573a1.909,1.909 0 0 1 -0.544,-1.353a1.892,1.892 0 0 1 0.574,-1.341a1.9,1.9 0 0 1 1.353,-0.544a1.9,1.9 0 0 1 1.34,0.574a1.89,1.89 0 0 1 0.544,1.352a1.887,1.887 0 0 1 -0.57,1.344z" class="c"/>
     </g>
     <g id="svg_23">
      <path id="svg_24" fill="#f7f7ff" d="m283.57703,148.97197a1.894,1.894 0 0 0 1.195,0.447a1.884,1.884 0 0 0 1.356,-0.541a1.9,1.9 0 0 0 0.571,-1.344a1.9,1.9 0 0 0 -0.544,-1.353a1.909,1.909 0 0 0 -1.341,-0.574a1.912,1.912 0 0 0 -1.353,0.544a1.9,1.9 0 0 0 -0.573,1.341c0,0.006 0.156,0.839 0.156,0.845l0.533,0.635z" class="c"/>
     </g>
     <g id="svg_25">
      <path id="svg_26" fill="#f7f7ff" d="m273.68105,167.03297a1.905,1.905 0 0 0 1.049,0.326a1.892,1.892 0 0 0 1.352,-0.544a1.9,1.9 0 0 0 0.574,-1.341a1.894,1.894 0 0 0 -0.544,-1.353a1.894,1.894 0 0 0 -1.341,-0.573a1.9,1.9 0 0 0 -1.353,0.544a1.894,1.894 0 0 0 -0.573,1.34a1.722,1.722 0 0 0 0.018,0.219a2.494,2.494 0 0 0 0.818,1.382z" class="c"/>
     </g>
     <g id="svg_27">
      <path id="svg_28" fill="#f7f7ff" d="m246.36505,144.31202a1.887,1.887 0 0 1 -1.174,0.526a1.618,1.618 0 0 1 -1.348,-0.38l-0.175,-0.178a1.907,1.907 0 0 1 -0.544,-1.353a1.907,1.907 0 0 1 0.574,-1.341a1.91,1.91 0 0 1 1.355,-0.547a1.907,1.907 0 0 1 1.341,0.573a1.9,1.9 0 0 1 0.544,1.353a1.9,1.9 0 0 1 -0.573,1.347z" class="c"/>
     </g>
     <path id="svg_29" fill="#df9277" d="m266.81901,150.61598z" class="d"/>
     <path id="svg_30" fill="#df9277" d="m249.04502,168.00703z" class="d"/>
    </g>
   </g>
   <g id="svg_31">
    <path id="svg_32" stroke-miterlimit="10" stroke="#272626" fill="#b2b2b2" d="m182.47594,98.442l96.716,-97.731l39.78,40.418l-96.45,88.877l-40.046,-31.564z" class="e"/>
    <path id="svg_33" stroke="#fff" fill="#fff" stroke-miterlimit="10" d="m198.43505,90.87499c14.2,-14.354 58.272,-58.853 74.664,-75.4a8.839,8.839 0 0 0 12.5,-0.056l19.293,19.128a8.84,8.84 0 0 0 -0.195,12.742l-74.177,69.177a8.84,8.84 0 0 0 -11.8,0.235l-19.943,-17.161a5.929,5.929 0 0 0 -0.342,-8.665z" class="f"/>
    <ellipse id="svg_34" transform="rotate(-50.903 226.487 66.934)" stroke-miterlimit="10" stroke="#272626" fill="#b2b2b2" ry="18.988" rx="18.213" cy="85.922" cx="244.7" class="e"/>
    <ellipse id="svg_35" transform="rotate(-50.903 226.002 86.386)" stroke="#000" fill="#fff" stroke-miterlimit="10" ry="4.22" rx="3.617" cy="90.606" cx="229.619" class="g"/>
    <ellipse id="svg_36" transform="rotate(-50.903 266.746 46.311)" stroke="#000" fill="#fff" stroke-miterlimit="10" ry="4.22" rx="3.617" cy="50.531" cx="270.36299" class="g"/>
    <g id="svg_37">
     <path id="svg_38" fill="#ff7d00" d="m263.05597,74.259l-2.532,-2.057a13.818,13.818 0 0 1 -4.828,3.6l-2.469,-3.334a12.121,12.121 0 0 0 4.768,-3.471c1.234,-1.519 1.493,-3.035 0.427,-3.9c-1.013,-0.823 -2.346,-0.49 -4.615,0.941c-3.277,2.072 -6.191,2.935 -8.776,0.834c-2.345,-1.906 -2.842,-5.053 -1.084,-8.359l-2.532,-2.058l2.122,-2.612l2.346,1.906a12.366,12.366 0 0 1 4.02,-3.15l2.384,3.22a11.4,11.4 0 0 0 -4.025,3.1c-1.408,1.733 -1.116,2.9 -0.37,3.5c0.88,0.715 2.2,0.237 4.891,-1.336c3.7,-2.262 6.2,-2.35 8.6,-0.4c2.372,1.928 3.033,5.253 1.076,8.751l2.719,2.209l-2.122,2.616z" class="a"/>
    </g>
   </g>
   <g id="svg_39">
    <path id="svg_40" stroke-miterlimit="10" stroke="#272626" fill="#b2b2b2" d="m5.43196,255.41899l93,-93.976l38.252,38.865l-92.745,85.462l-38.507,-30.351z" class="e"/>
    <path id="svg_41" stroke="#fff" fill="#fff" stroke-miterlimit="10" d="m20.77806,248.14703c13.651,-13.8 56.034,-56.592 71.8,-72.5a8.5,8.5 0 0 0 12.023,-0.054l18.551,18.392a8.5,8.5 0 0 0 -0.187,12.253l-71.328,66.519a8.5,8.5 0 0 0 -11.342,0.227l-19.177,-16.5a5.7,5.7 0 0 0 -0.34,-8.337z" class="f"/>
    <ellipse id="svg_42" transform="rotate(-50.903 47.752 225.121)" stroke-miterlimit="10" stroke="#272626" fill="#b2b2b2" ry="18.259" rx="17.513" cy="243.38" cx="65.265" class="e"/>
    <ellipse id="svg_43" transform="rotate(-50.903 47.286 243.826)" stroke="#000" fill="#fff" stroke-miterlimit="10" ry="4.057" rx="3.478" cy="247.88301" cx="50.764" class="g"/>
    <ellipse id="svg_44" transform="rotate(-50.903 86.465 205.29)" stroke="#000" fill="#fff" stroke-miterlimit="10" ry="4.057" rx="3.478" cy="209.347" cx="89.943" class="g"/>
    <g id="svg_45">
     <path id="svg_46" fill="#ff7d00" d="m82.91697,232.16502l-2.435,-1.979a13.287,13.287 0 0 1 -4.643,3.462l-2.374,-3.206a11.657,11.657 0 0 0 4.585,-3.338c1.188,-1.461 1.436,-2.919 0.41,-3.752c-0.974,-0.792 -2.255,-0.471 -4.437,0.9c-3.15,1.992 -5.953,2.822 -8.439,0.8c-2.255,-1.833 -2.733,-4.859 -1.042,-8.039l-2.436,-1.978l2.042,-2.512l2.255,1.832a11.91,11.91 0 0 1 3.866,-3.029l2.292,3.1a10.967,10.967 0 0 0 -3.871,2.983c-1.353,1.666 -1.073,2.787 -0.355,3.37c0.846,0.688 2.113,0.228 4.7,-1.284c3.555,-2.175 5.964,-2.26 8.271,-0.386c2.281,1.854 2.917,5.051 1.034,8.415l2.614,2.124l-2.037,2.517z" class="a"/>
    </g>
   </g>
   <g id="svg_47">
    <path id="svg_48" stroke-miterlimit="10" stroke="#272626" fill="#b2b2b2" d="m170.665,258.44999l78.216,-79.036l32.171,32.687l-78,71.876l-32.387,-25.527z" class="e"/>
    <path id="svg_49" stroke="#fff" fill="#fff" stroke-miterlimit="10" d="m183.57105,252.33001c11.48,-11.609 47.126,-47.6 60.383,-60.979a7.148,7.148 0 0 0 10.112,-0.045l15.6,15.469a7.149,7.149 0 0 0 -0.158,10.305l-59.988,55.944a7.149,7.149 0 0 0 -9.539,0.191l-16.128,-13.879a4.794,4.794 0 0 0 -0.282,-7.006z" class="f"/>
    <ellipse id="svg_50" transform="rotate(-50.903 206.257 232.968)" stroke-miterlimit="10" stroke="#272626" fill="#b2b2b2" ry="15.356" rx="14.729" cy="248.324" cx="220.98599" class="e"/>
    <ellipse id="svg_51" transform="rotate(-50.903 205.865 248.699)" stroke="#000" fill="#fff" stroke-miterlimit="10" ry="3.412" rx="2.925" cy="252.11101" cx="208.78999" class="g"/>
    <ellipse id="svg_52" transform="rotate(-50.903 238.816 216.29)" stroke="#000" fill="#fff" stroke-miterlimit="10" ry="3.412" rx="2.925" cy="219.702" cx="241.74099" class="g"/>
    <g id="svg_53">
     <path id="svg_54" fill="#ff7d00" d="m235.83104,238.89196l-2.048,-1.664a11.173,11.173 0 0 1 -3.9,2.911l-2,-2.7a9.8,9.8 0 0 0 3.856,-2.807c1,-1.229 1.207,-2.455 0.345,-3.156c-0.819,-0.665 -1.9,-0.4 -3.732,0.761c-2.65,1.676 -5.007,2.374 -7.1,0.675c-1.9,-1.542 -2.3,-4.086 -0.877,-6.761l-2.048,-1.664l1.717,-2.113l1.9,1.542a10,10 0 0 1 3.251,-2.547l1.928,2.6a9.208,9.208 0 0 0 -3.255,2.509c-1.139,1.4 -0.9,2.344 -0.3,2.835c0.711,0.578 1.777,0.191 3.956,-1.08c2.99,-1.83 5.016,-1.9 6.956,-0.324c1.919,1.558 2.453,4.248 0.87,7.077l2.2,1.786l-1.719,2.12z" class="a"/>
    </g>
   </g>
   <g id="svg_55">
    <path id="svg_56" stroke-miterlimit="10" stroke="#272626" fill="#b2b2b2" d="m66.61906,93.69902l71.844,-72.6l29.55,30.024l-71.646,66.021l-29.748,-23.445z" class="e"/>
    <path id="svg_57" stroke="#fff" fill="#fff" stroke-miterlimit="10" d="m78.47399,88.07798c10.544,-10.663 43.286,-43.718 55.463,-56.011a6.566,6.566 0 0 0 9.288,-0.042l14.33,14.211a6.566,6.566 0 0 0 -0.145,9.465l-55.1,51.386a6.566,6.566 0 0 0 -8.761,0.175l-14.815,-12.748a4.4,4.4 0 0 0 -0.26,-6.436z" class="f"/>
    <ellipse id="svg_58" transform="rotate(-50.903 99.311 70.294)" stroke-miterlimit="10" stroke="#272626" fill="#b2b2b2" ry="14.105" rx="13.529" cy="84.399" cx="112.84" class="e"/>
    <ellipse id="svg_59" transform="rotate(-50.903 98.952 84.744)" stroke="#000" fill="#fff" stroke-miterlimit="10" ry="3.134" rx="2.687" cy="87.878" cx="101.639" class="g"/>
    <ellipse id="svg_60" transform="rotate(-50.903 129.217 54.974)" stroke="#000" fill="#fff" stroke-miterlimit="10" ry="3.134" rx="2.687" cy="58.108" cx="131.904" class="g"/>
    <g id="svg_61">
     <path id="svg_62" fill="#ff7d00" d="m126.476,75.73502l-1.881,-1.528a10.268,10.268 0 0 1 -3.586,2.674l-1.834,-2.477a9,9 0 0 0 3.542,-2.579c0.917,-1.129 1.109,-2.254 0.317,-2.9c-0.752,-0.611 -1.742,-0.364 -3.428,0.7c-2.434,1.54 -4.6,2.181 -6.52,0.62c-1.742,-1.416 -2.111,-3.754 -0.8,-6.21l-1.881,-1.529l1.577,-1.94l1.743,1.416a9.188,9.188 0 0 1 2.986,-2.34l1.771,2.392a8.46,8.46 0 0 0 -2.99,2.3c-1.046,1.287 -0.829,2.153 -0.275,2.6c0.653,0.531 1.632,0.176 3.634,-0.993c2.746,-1.68 4.607,-1.746 6.389,-0.3c1.762,1.432 2.253,3.9 0.8,6.5l2.02,1.641l-1.584,1.953z" class="a"/>
    </g>
   </g>
   <g id="svg_63">
    <path id="svg_64" fill="#272626" d="m163.36097,67.96999l25.033,3.171l50.188,17.634l5.846,99.123s-53.664,59.6 -68.539,62.293l-12.527,3.61l-0.001,-185.831z" class="h"/>
    <path id="svg_65" fill="#ff7d00" d="m161.01401,252.87899c-22.947,-8.979 -69.872,-61.175 -71.858,-62.84l-2.513,-2.107l6.683,-96.463l70.036,-23.5l70.037,23.5l6.683,96.463l-2.514,2.107c-1.986,1.666 -48.912,53.861 -71.858,62.84l-2.347,0.918l-2.349,-0.918z" class="a"/>
    <path id="svg_66" fill="#c45800" d="m233.42905,185.103s-47.839,53.08 -70.071,61.778c-16.65,-6.517 -47.674,-37.941 -62.192,-53.293c-0.266,-0.282 -0.521,-0.558 -0.771,-0.824c-4.407,-4.673 -7.1,-7.66 -7.1,-7.66l6.124,-88.416l63.941,-22.12l63.947,22.12l0.112,1.6l6.01,86.815z" class="i"/>
    <path id="svg_67" fill="#272626" d="m233.43001,185.10401s-47.839,53.081 -70.071,61.778c-16.65,-6.517 -47.674,-37.94 -62.192,-53.293c-0.266,-0.282 -0.521,-0.558 -0.771,-0.824c-3.1,-3.323 -4.928,-5.348 -4.928,-5.348l6.124,-88.416l63.941,-22.12l61.884,21.408l6.013,86.815z" class="h"/>
    <circle id="svg_68" fill="#636363" r="42.162" cy="144.03" cx="163.361" class="j"/>
    <circle id="svg_69" fill="#8e8e8e" r="42.162" cy="143.212" cx="161.066" class="k"/>
    <circle id="svg_70" fill="#fffbf1" r="35.383" cy="144.029" cx="163.361" class="l"/>
    <g id="svg_71">
     <path id="svg_72" fill="#c45800" d="m136.38799,142.863l24.988,24.988l54.012,-54.012l-11.983,-11.983l-42.029,42.029l-13,-13.005l-11.983,11.983l-0.005,0z" class="i"/>
    </g>
    <g id="svg_73">
     <path id="svg_74" fill="#ff7d00" d="m134.58797,142.863l24.988,24.988l54.012,-54.012l-11.983,-11.983l-42.029,42.029l-13.005,-13.005l-11.983,11.983z" class="a"/>
    </g>
   </g>
   <g id="svg_75">
    <path id="svg_76" fill="#f0beb4" d="m73.73799,146.04495l12.966,-22.41a5.215,5.215 0 0 1 0.6,-3.79c1.131,-1.713 1.674,-5.679 3.511,-6.445s5.259,4.691 3.473,8.122a34.689,34.689 0 0 1 -5.05,6.8s-10.662,24.429 -12.145,25.314s-5.731,-4.814 -3.355,-7.591z" class="m"/>
    <path id="svg_77" fill="#272626" d="m43.98101,134.48098s2.939,-3.456 7.29,-2.646s23.508,12.051 23.508,12.051s-1.519,3.816 0.339,6.574s2.141,2.541 2.141,2.541s-4.109,2.961 -6.147,1.09s-28.569,-13.041 -27.131,-19.61z" class="h"/>
    <path id="svg_78" fill="#f0beb4" d="m52.52701,273.34401l0.921,9.463l6.2,-1.256l-2.01,-9.547l-5.111,1.34z" class="m"/>
    <path id="svg_79" fill="#272626" d="m51.68301,288.86605c-1.954,-1.344 0.844,-6.886 0.844,-6.886l7.118,-1.675s12.315,6.4 11.36,8.135s-17.367,1.77 -19.322,0.426z" class="h"/>
    <path id="svg_80" fill="#f0beb4" d="m31.507,276.69406l-0.837,8.04l-5.611,-0.5l-0.586,-7.537l7.034,-0.003z" class="m"/>
    <path id="svg_81" fill="#272626" d="m17.85596,291.43297s12.292,-0.256 13.65,-1.508s0,-5.778 0,-5.778l-7.37,-1.34l-7.62,7.37s-1.353,1.553 1.34,1.256z" class="h"/>
    <path id="svg_82" fill="#272626" d="m54.03395,186.50095l7.537,87.68l-9.541,1.005s-12.946,-62.306 -12.882,-68.336s2.074,-17.837 2.074,-17.837l12.812,-2.512z" class="h"/>
    <path id="svg_83" fill="#272626" d="m25.14201,189.51595l-3.152,89.942l11.443,0s8.291,-70.6 8.291,-75.621s-2.576,-13.316 -2.576,-13.316l-14.006,-1.005z" class="h"/>
    <path id="svg_84" fill="#f7f7ff" d="m33.68397,129.22002s-4.784,0.343 -7.378,1.937c-3.264,2 -1.865,8.275 -2.169,11.881c-1,11.934 -5.4,45.6 0,48.362s22.486,4.522 32.661,-3.015c1.623,-15.692 2.369,-55.9 -7.811,-58.034c-4.031,-0.843 -15.303,-1.131 -15.303,-1.131z" class="c"/>
    <path id="svg_85" fill="#e0ada6" d="m34.77303,115.31904s-0.419,15.325 -1.173,16.246c3.685,2.01 7.286,3.684 8.291,1.926s1.728,-3.228 1.728,-3.228s-3.235,-6.068 -2.147,-10.171s-6.699,-4.773 -6.699,-4.773z" class="n"/>
    <path id="svg_86" fill="#f0beb4" d="m33.59995,104.59899s-1.3,13.65 5.547,16.832s8.438,-1 8.94,-2.763s1.759,-15.157 0,-15.911s-12.225,-4.02 -14.487,1.842z" class="m"/>
    <path id="svg_87" fill="#7a80a3" d="m37.28596,99.19394s11.5,-1.39 14.717,-1.516s-1.516,9.1 -1.516,9.1a44.135,44.135 0 0 0 -7.453,-2.084c-2.905,-0.379 -4.8,0.189 -4.8,2.968s0.947,4.863 0.063,4.927s-1.263,-2.147 -2.084,-3.474s-1.579,-0.14 -1.263,2.772s0.745,4.905 0.253,5.17s-1.39,1.09 -2.021,-0.363s-3.158,-13.287 -1.2,-15.517s5.304,-1.983 5.304,-1.983z" class="o"/>
    <path id="svg_88" fill="#f0beb4" d="m16.408,160.57404c-0.255,0.574 -6.223,4.108 0.716,7.053s30.379,-7.125 30.379,-7.125s3.409,1.855 5.2,0.641c2.771,-1.821 3.108,-6.711 1.509,-8.475c-0.918,-1.014 -1.209,-0.192 -3.855,0.494c-0.565,0.146 -1.457,-3.9 -1.957,-3.694c-1.235,0.5 -1.849,5.371 -2.155,6.124c-1.011,2.483 -22.429,3.456 -23.453,3.6s-6.384,1.382 -6.384,1.382z" class="m"/>
    <path id="svg_89" fill="#272626" d="m28.01603,130.85505a10.2,10.2 0 0 0 -5.306,2.053c-2.763,2.01 -8.622,20.427 -9.5,25.829s2.387,10.552 2.889,10.8a16.738,16.738 0 0 1 7.411,-11.556a30.433,30.433 0 0 0 4.648,-8.083c1.381,-4.097 -0.142,-19.043 -0.142,-19.043z" class="h"/>
   </g>
  </g>
 </g>
</svg>