<svg width="289.609" height="278.086" xmlns="http://www.w3.org/2000/svg">

 <g>
  <title>Layer 1</title>
  <g id="svg_1">
   <g id="svg_2">
    <path id="svg_3" stroke-width="6px" stroke-miterlimit="10" stroke="#ff7d00" fill="none" d="m87.51401,62.11999l0,19.1l-9.933,9.933l0,104.956" class="a"/>
    <circle id="svg_4" stroke-width="6px" stroke-miterlimit="10" stroke="#ff7d00" fill="none" r="5.463" cy="57.879" cx="87.514" class="a"/>
   </g>
   <g id="svg_5">
    <path id="svg_6" stroke-width="6px" stroke-miterlimit="10" stroke="#ff7d00" fill="none" d="m21.67999,169.22799l-7.419,3.913l0,46.492l27.527,15.862l0,22.664" class="a"/>
    <line id="svg_7" x1="39.469" y1="28.405" x2="39.469" stroke-width="6px" stroke-miterlimit="10" stroke="#ff7d00" fill="none" y2="80.301" class="a"/>
    <circle id="svg_8" stroke-width="6px" stroke-miterlimit="10" stroke="#ff7d00" fill="none" r="6.441" cy="21.092" cx="39.469" class="a"/>
   </g>
   <g id="svg_9">
    <path id="svg_10" stroke-width="6px" stroke-miterlimit="10" stroke="#ff7d00" fill="none" d="m137.83102,49.344l0,37.206l15.369,13.659l0,49.854" class="a"/>
    <circle id="svg_11" stroke-width="6px" stroke-miterlimit="10" stroke="#ff7d00" fill="none" r="6.441" cy="42.258" cx="137.831" class="a"/>
   </g>
   <g id="svg_12">
    <path id="svg_13" stroke-width="6px" stroke-miterlimit="10" stroke="#ff7d00" fill="none" d="m233.84897,17.67199l0,45.846l16.671,14.816l0,83.873" class="a"/>
    <circle id="svg_14" stroke-width="6px" stroke-miterlimit="10" stroke="#ff7d00" fill="none" r="6.987" cy="9.987" cx="233.849" class="a"/>
   </g>
   <g id="svg_15">
    <path id="svg_16" stroke-width="6px" stroke-miterlimit="10" stroke="#ff7d00" fill="none" d="m214.05097,36.58101l0,29.366l12.131,10.781l0,61.03" class="a"/>
    <circle id="svg_17" stroke-width="6px" stroke-miterlimit="10" stroke="#ff7d00" fill="none" r="5.084" cy="30.989" cx="214.051" class="a"/>
   </g>
   <path id="svg_18" stroke-width="5px" stroke-miterlimit="10" stroke="#ff7d00" fill="none" d="m56.46899,252.318l0,-30.818l-22.531,-13.061l0,-22.118l11.266,-2.271l0,-12.345" class="b"/>
   <ellipse id="svg_19" fill="#ff7d00" ry="15.67" rx="144.804" cy="262.416" cx="144.804" class="c"/>
   <ellipse id="svg_20" fill="#aa4f04" ry="8.386" rx="57.458" cy="258.44" cx="80.832" class="d"/>
   <g id="svg_21">
    <path id="svg_22" fill="#ff7d00" d="m25.92302,118.76501a3.787,3.787 0 0 0 -5.336,-0.474a3.786,3.786 0 0 0 -0.478,5.332a3.781,3.781 0 0 0 4.5,1l7.891,9.442l16.207,2.582l8.949,10.709l-9.17,3.264l-19.084,-7.091a3.777,3.777 0 0 0 -0.838,-2.953a3.788,3.788 0 0 0 -5.34,-0.478a3.787,3.787 0 0 0 -0.474,5.336a3.786,3.786 0 0 0 5.333,0.477a3.932,3.932 0 0 0 0.558,-0.581l19.832,7.369l10.424,-3.713l0.122,0l6.1,7.3l-0.015,0.012c-0.124,0.11 -0.312,0.274 -0.556,0.478a40.861,40.861 0 0 1 -16.948,8.37a28.293,28.293 0 0 1 -13.857,-0.478c-4.934,-1.447 -10.1,-4.445 -15.216,-9.782c-0.666,-0.691 -1.306,-1.41 -1.92,-2.145c-10.2,-12.2 -13.268,-29.635 -13.766,-44.027a140.049,140.049 0 0 1 0.594,-18.257c0.224,-2.314 0.468,-4.179 0.652,-5.466c0.092,-0.637 0.17,-1.129 0.225,-1.467l42.49,50.846l-13.273,-2.118l-7.421,-8.88a3.785,3.785 0 0 0 -0.185,-4.607z" class="c"/>
    <path id="svg_23" fill="#ff7d00" d="m71.74905,106.658c0.614,0.735 1.205,1.495 1.774,2.267c4.358,5.977 6.444,11.542 7.077,16.589a28.87,28.87 0 0 1 -4.352,18.826a39.478,39.478 0 0 1 -8.065,9.394c-0.233,0.194 -0.419,0.344 -0.546,0.444l-0.007,0.006l-11.22,-13.427l0.059,-0.234l7.28,-17.014l-5.451,-11.589a3.785,3.785 0 0 0 0.425,-5.289a3.786,3.786 0 0 0 -5.333,-0.477a3.785,3.785 0 0 0 -0.477,5.332a3.781,3.781 0 0 0 3.63,1.289l5.067,10.771l-6.634,15.494l-17.953,-21.483l0.02,-0.282l4.7,-10.864l-4.386,-8.3c0.019,-0.016 0.044,-0.031 0.063,-0.046a3.788,3.788 0 0 0 0.478,-5.34a3.787,3.787 0 0 0 -5.336,-0.474a3.786,3.786 0 0 0 -0.477,5.333a3.777,3.777 0 0 0 3.475,1.31l4.018,7.6l-4.023,9.3l-28.717,-34.365a134.394,134.394 0 0 1 27.152,4.085c13.22,3.425 28.196,9.7 37.759,21.144z" class="c"/>
    <path id="svg_24" fill="#fff" d="m24.79802,119.70401a2.292,2.292 0 0 1 0.528,1.7a2.307,2.307 0 0 1 -0.824,1.574a2.321,2.321 0 0 1 -1.7,0.531a2.307,2.307 0 0 1 -1.573,-0.824a2.316,2.316 0 0 1 -0.531,-1.7a2.324,2.324 0 0 1 0.824,-1.573a2.3,2.3 0 0 1 1.7,-0.531a2.3,2.3 0 0 1 1.576,0.823z" class="e"/>
    <path id="svg_25" fill="#fff" d="m36.64098,96.76901a2.3,2.3 0 0 0 0.657,-1.408a2.291,2.291 0 0 0 -0.528,-1.7a2.309,2.309 0 0 0 -1.577,-0.821a2.308,2.308 0 0 0 -1.695,0.531a2.324,2.324 0 0 0 -0.824,1.573a2.324,2.324 0 0 0 0.531,1.7a2.308,2.308 0 0 0 1.573,0.824c0.007,0 1.034,-0.11 1.041,-0.109l0.822,-0.59z" class="e"/>
    <path id="svg_26" fill="#fff" d="m57.63401,110.50901a2.317,2.317 0 0 0 0.5,-1.242a2.308,2.308 0 0 0 -0.531,-1.7a2.315,2.315 0 0 0 -1.574,-0.824a2.306,2.306 0 0 0 -1.695,0.531a2.306,2.306 0 0 0 -0.824,1.573a2.314,2.314 0 0 0 0.532,1.7a2.307,2.307 0 0 0 1.573,0.824a2.329,2.329 0 0 0 0.267,0a3.038,3.038 0 0 0 1.752,-0.862z" class="e"/>
    <path id="svg_27" fill="#fff" d="m27.43802,141.51799a2.3,2.3 0 0 1 0.527,1.476a1.971,1.971 0 0 1 -0.59,1.6l-0.234,0.2a2.324,2.324 0 0 1 -1.7,0.531a2.323,2.323 0 0 1 -1.573,-0.824a2.328,2.328 0 0 1 -0.534,-1.7a2.322,2.322 0 0 1 0.824,-1.573a2.3,2.3 0 0 1 1.695,-0.531a2.31,2.31 0 0 1 1.585,0.821z" class="e"/>
    <path id="svg_28" fill="#df9277" d="m37.03998,117.278z" class="f"/>
    <path id="svg_29" fill="#df9277" d="m56.46899,140.52201l0,0z" class="f"/>
   </g>
   <g id="svg_30">
    <path id="svg_31" fill="#ffa45a" d="m93.162,123.27999l-2.983,-8.542s-18.7,44.2 -22.025,52.348s-12.55,18.661 -9.838,24.938s22.62,-4.563 22.62,-4.563l12.226,-64.181z" class="g"/>
    <path id="svg_32" fill="#aa4f04" d="m106.17902,126.942s-4.881,-12.474 -7.39,-12.2s-38.982,70.913 -37.219,74.032s15.457,0.678 19.8,-2.983c0.876,-0.74 2.411,-3.58 4.3,-7.642c7.469,-16.06 20.509,-51.207 20.509,-51.207z" class="d"/>
    <path id="svg_33" fill="#ff7d00" d="m133.43201,172.63101c-0.546,-2.46 -13.694,-57.486 -17.627,-57.215s-49.083,66.3 -47.863,69.015s24.948,-4.339 39.456,-5.966a125.2,125.2 0 0 0 26.034,-5.834z" class="c"/>
    <path id="svg_34" stroke-width="2px" stroke="#aa4f04" stroke-miterlimit="10" fill="none" d="m123.18601,142.537s-4.359,-22.518 -6.306,-22.878s-43.009,56.9 -44.232,60.673s-0.612,3.974 -0.612,3.974" class="h"/>
    <g id="svg_35">
     <path id="svg_36" stroke="#272626" fill="#b2b2b2" stroke-miterlimit="10" d="m98.50301,181.28401l59.654,-100.539l41.139,25.148l-61.258,93.181l-39.535,-17.79z" class="i"/>
     <path id="svg_37" stroke="#fff" fill="#fff" stroke-miterlimit="10" d="m110.10902,171.763c8.753,-14.765 35.948,-60.55 46.062,-77.577a7.516,7.516 0 0 0 10.3,-2.621l19.854,11.8a7.516,7.516 0 0 0 2.464,10.551l-46.939,72.347a7.516,7.516 0 0 0 -9.681,2.624l-19.986,-10.05a5.04,5.04 0 0 0 -2.074,-7.074z" class="j"/>
     <ellipse id="svg_38" transform="rotate(-64.922 128.318 146.231)" stroke="#272626" fill="#b2b2b2" stroke-miterlimit="10" ry="16.144" rx="15.485" cy="162.375" cx="143.803" class="i"/>
     <ellipse id="svg_39" transform="rotate(-64.922 131.925 162.377)" stroke="#000" fill="#fff" stroke-miterlimit="10" ry="3.588" rx="3.075" cy="165.965" cx="135" class="k"/>
     <ellipse id="svg_40" transform="rotate(-64.922 157.281 120.927)" stroke="#000" fill="#fff" stroke-miterlimit="10" ry="3.588" rx="3.075" cy="124.515" cx="160.356" class="k"/>
     <g id="svg_41">
      <path id="svg_42" fill="#ff7d00" d="m159.99399,144.741l-2.513,-1.176a11.746,11.746 0 0 1 -3.241,3.964l-2.723,-2.242a10.309,10.309 0 0 0 3.218,-3.846c0.705,-1.507 0.607,-2.811 -0.451,-3.307c-1.005,-0.47 -2.036,0.079 -3.613,1.727c-2.277,2.384 -4.5,3.7 -7.068,2.5c-2.328,-1.089 -3.385,-3.583 -2.616,-6.673l-2.513,-1.176l1.213,-2.592l2.328,1.089a10.521,10.521 0 0 1 2.667,-3.427l2.63,2.165a9.69,9.69 0 0 0 -2.681,3.388c-0.8,1.719 -0.324,2.621 0.417,2.968c0.873,0.408 1.861,-0.257 3.76,-2.109c2.584,-2.628 4.632,-3.217 7.013,-2.1c2.354,1.1 3.584,3.708 2.69,7l2.7,1.263l-1.217,2.584z" class="c"/>
     </g>
     <g id="svg_43">
      <path id="svg_44" stroke="#272626" fill="#b2b2b2" stroke-miterlimit="10" d="m100.06499,177.24699l77.467,-87.553l35.687,32.424l-77.661,80.024l-35.493,-24.895z" class="i"/>
      <path id="svg_45" stroke="#fff" fill="#fff" stroke-miterlimit="10" d="m113.254,170.06701c11.37,-12.859 46.676,-52.726 59.807,-67.551a7.516,7.516 0 0 0 10.612,-0.64l17.285,15.322a7.516,7.516 0 0 0 0.439,10.827l-59.688,62.243a7.516,7.516 0 0 0 -10,0.76l-17.745,-13.623a5.04,5.04 0 0 0 -0.71,-7.338z" class="j"/>
      <ellipse id="svg_46" transform="rotate(-54.102 135.931 148.411)" stroke="#272626" fill="#b2b2b2" stroke-miterlimit="10" ry="16.144" rx="15.485" cy="164.555" cx="151.416" class="i"/>
      <ellipse id="svg_47" transform="rotate(-54.102 136.443 164.947)" stroke="#000" fill="#fff" stroke-miterlimit="10" ry="3.588" rx="3.075" cy="168.535" cx="139.518" class="k"/>
      <ellipse id="svg_48" transform="rotate(-54.102 169.13 128.994)" stroke="#000" fill="#fff" stroke-miterlimit="10" ry="3.588" rx="3.075" cy="132.582" cx="172.205" class="k"/>
      <g id="svg_49">
       <path id="svg_50" fill="#de9396" d="m167.32299,152.89499l-2.247,-1.627a11.751,11.751 0 0 1 -3.928,3.285l-2.254,-2.714a10.3,10.3 0 0 0 3.883,-3.173c0.976,-1.348 1.124,-2.648 0.177,-3.332c-0.9,-0.651 -2.014,-0.3 -3.873,1.018c-2.684,1.914 -5.116,2.785 -7.411,1.124c-2.081,-1.507 -2.652,-4.155 -1.317,-7.045l-2.247,-1.627l1.678,-2.318l2.082,1.506a10.515,10.515 0 0 1 3.263,-2.864l2.177,2.62a9.688,9.688 0 0 0 -3.27,2.824c-1.113,1.537 -0.81,2.514 -0.147,2.993c0.781,0.565 1.876,0.1 4.089,-1.366c3.031,-2.1 5.154,-2.29 7.283,-0.749c2.1,1.524 2.824,4.315 1.328,7.378l2.413,1.746l-1.679,2.321z" class="l"/>
      </g>
     </g>
     <g id="svg_51">
      <path id="svg_52" stroke="#272626" fill="#b2b2b2" stroke-miterlimit="10" d="m102.357,173.57199l92.526,-71.453l28.965,38.547l-91.3,64.022l-30.191,-31.116z" class="i"/>
      <path id="svg_53" stroke="#fff" fill="#fff" stroke-miterlimit="10" d="m116.65898,168.99801c13.582,-10.5 55.745,-43.025 71.425,-55.122a7.516,7.516 0 0 0 10.544,1.363l14.1,18.294a7.516,7.516 0 0 0 -1.6,10.716l-70.312,49.932a7.516,7.516 0 0 0 -9.966,-1.131l-14.872,-16.712a5.041,5.041 0 0 0 0.681,-7.34z" class="j"/>
      <ellipse id="svg_54" transform="rotate(-43.281 142.999 151.982)" stroke="#272626" fill="#b2b2b2" stroke-miterlimit="10" ry="16.144" rx="15.485" cy="168.126" cx="158.484" class="i"/>
      <ellipse id="svg_55" transform="rotate(-43.281 140.397 168.321)" stroke="#000" fill="#fff" stroke-miterlimit="10" ry="3.588" rx="3.075" cy="171.909" cx="143.472" class="k"/>
      <ellipse id="svg_56" transform="rotate(-43.281 179.252 139.143)" stroke="#000" fill="#fff" stroke-miterlimit="10" ry="3.588" rx="3.075" cy="142.731" cx="182.327" class="k"/>
      <g id="svg_57">
       <path id="svg_58" fill="#de9396" d="m172.99101,162.279l-1.9,-2.019a11.742,11.742 0 0 1 -4.474,2.489l-1.7,-3.088a10.309,10.309 0 0 0 4.41,-2.388c1.211,-1.141 1.6,-2.39 0.8,-3.24c-0.761,-0.808 -1.922,-0.677 -4,0.273c-3,1.377 -5.548,1.776 -7.49,-0.287c-1.761,-1.87 -1.825,-4.579 0.029,-7.167l-1.9,-2.019l2.083,-1.962l1.762,1.87a10.508,10.508 0 0 1 3.743,-2.2l1.646,2.983a9.687,9.687 0 0 0 -3.742,2.16c-1.381,1.3 -1.268,2.317 -0.707,2.912c0.66,0.7 1.825,0.447 4.272,-0.574c3.371,-1.489 5.492,-1.281 7.294,0.632c1.781,1.892 1.964,4.769 -0.081,7.5l2.042,2.168l-2.087,1.957z" class="l"/>
      </g>
     </g>
     <g id="svg_59">
      <path id="svg_60" stroke="#272626" fill="#b2b2b2" stroke-miterlimit="10" d="m105.298,170.392l104.295,-52.813l21.214,43.3l-101.7,45.743l-23.809,-36.23z" class="i"/>
      <path id="svg_61" stroke="#fff" fill="#fff" stroke-miterlimit="10" d="m120.205,168.58101c15.311,-7.76 62.83,-31.8 80.5,-40.734a7.516,7.516 0 0 0 10.1,3.318l10.416,20.617a7.516,7.516 0 0 0 -3.584,10.225l-78.436,35.845a7.516,7.516 0 0 0 -9.577,-2.982l-11.47,-19.206a5.041,5.041 0 0 0 2.051,-7.083z" class="j"/>
      <ellipse id="svg_62" stroke="#272626" fill="#b2b2b2" stroke-miterlimit="10" transform="matrix(0.844 -0.537 0.537 0.844 43.972 39.236)" ry="16.144" rx="15.485" cy="171.81595" cx="41.19846" class="i"/>
      <ellipse id="svg_63" stroke="#000" fill="#fff" stroke-miterlimit="10" transform="matrix(0.844 -0.537 0.537 0.844 38.35 54.796)" ry="3.588" rx="3.075" cy="159.25995" cx="28.78846" class="k"/>
      <ellipse id="svg_64" stroke="#000" fill="#fff" stroke-miterlimit="10" transform="matrix(0.844 -0.537 0.537 0.844 81.991 33.431)" ry="3.588" rx="3.075" cy="159.25995" cx="28.78846" class="k"/>
      <g id="svg_65">
       <path id="svg_66" fill="#de9396" d="m176.794,172.56002l-1.489,-2.341a11.736,11.736 0 0 1 -4.862,1.605l-1.094,-3.353a10.307,10.307 0 0 0 4.779,-1.518c1.4,-0.893 2.02,-2.046 1.394,-3.032c-0.6,-0.936 -1.76,-1.026 -3.975,-0.482c-3.2,0.79 -5.783,0.7 -7.3,-1.688c-1.38,-2.168 -0.933,-4.84 1.374,-7.034l-1.489,-2.341l2.415,-1.536l1.379,2.168a10.512,10.512 0 0 1 4.09,-1.46l1.057,3.239a9.685,9.685 0 0 0 -4.081,1.419c-1.6,1.019 -1.68,2.037 -1.241,2.728c0.517,0.813 1.709,0.782 4.3,0.238c3.59,-0.83 5.635,-0.227 7.045,1.99c1.395,2.193 1.034,5.053 -1.486,7.348l1.6,2.513l-2.416,1.537z" class="l"/>
      </g>
     </g>
     <g id="svg_67">
      <path id="svg_68" stroke="#272626" fill="#b2b2b2" stroke-miterlimit="10" d="m108.78398,167.82199l112.355,-32.3l12.708,46.512l-108.478,25.838l-16.585,-40.05z" class="i"/>
      <path id="svg_69" stroke="#fff" fill="#fff" stroke-miterlimit="10" d="m123.76298,168.84199c16.5,-4.748 67.683,-19.435 86.719,-24.9a7.515,7.515 0 0 0 9.3,5.155l6.361,22.206a7.516,7.516 0 0 0 -5.44,9.371l-83.77,20.482a7.517,7.517 0 0 0 -8.847,-4.727l-7.66,-21.018a5.04,5.04 0 0 0 3.337,-6.569z" class="j"/>
      <ellipse id="svg_70" stroke="#272626" fill="#b2b2b2" stroke-miterlimit="10" transform="matrix(0.93 -0.369 0.369 0.93 45.739 27.214)" ry="16.144" rx="15.485" cy="182.14926" cx="66.59043" class="i"/>
      <ellipse id="svg_71" stroke="#000" fill="#fff" stroke-miterlimit="10" transform="matrix(0.93 -0.369 0.369 0.93 37.296 41.442)" ry="3.588" rx="3.075" cy="169.59326" cx="54.18043" class="k"/>
      <ellipse id="svg_72" stroke="#000" fill="#fff" stroke-miterlimit="10" transform="matrix(0.93 -0.369 0.369 0.93 84.172 28.65)" ry="3.588" rx="3.075" cy="169.59326" cx="54.18043" class="k"/>
      <g id="svg_73">
       <path id="svg_74" fill="#ff7d00" d="m178.602,183.37402l-1.023,-2.579a11.741,11.741 0 0 1 -5.077,0.664l-0.445,-3.5a10.3,10.3 0 0 0 4.979,-0.593c1.548,-0.614 2.369,-1.631 1.938,-2.717c-0.409,-1.031 -1.536,-1.338 -3.814,-1.22c-3.292,0.175 -5.812,-0.4 -6.856,-3.029c-0.948,-2.389 -0.008,-4.929 2.67,-6.651l-1.023,-2.579l2.66,-1.055l0.948,2.388a10.505,10.505 0 0 1 4.291,-0.665l0.43,3.379a9.683,9.683 0 0 0 -4.275,0.628c-1.764,0.7 -2.033,1.686 -1.731,2.446c0.355,0.9 1.531,1.089 4.183,1.042c3.682,-0.141 5.578,0.835 6.547,3.278c0.958,2.416 0.067,5.157 -2.839,6.938l1.1,2.768l-2.663,1.057z" class="c"/>
      </g>
     </g>
     <g id="svg_75">
      <path id="svg_76" stroke="#272626" fill="#b2b2b2" stroke-miterlimit="10" d="m112.69097,165.95099l116.42,-10.628l3.752,48.07l-111.4,5.014l-8.772,-42.456z" class="i"/>
      <path id="svg_77" stroke="#fff" fill="#fff" stroke-miterlimit="10" d="m127.21501,169.766c17.093,-1.567 70.128,-6.384 89.851,-8.175a7.516,7.516 0 0 0 8.164,6.809l2.079,23a7.516,7.516 0 0 0 -7.1,8.183l-86.126,4.392a7.516,7.516 0 0 0 -7.8,-6.3l-3.579,-22.082a5.04,5.04 0 0 0 4.511,-5.827z" class="j"/>
      <ellipse id="svg_78" transform="rotate(-10.82 158.571 169.548)" stroke="#272626" fill="#b2b2b2" stroke-miterlimit="10" ry="16.144" rx="15.485" cy="185.692" cx="174.056" class="i"/>
      <ellipse id="svg_79" transform="rotate(-10.82 147.606 181.937)" stroke="#000" fill="#fff" stroke-miterlimit="10" ry="3.588" rx="3.075" cy="185.525" cx="150.681" class="k"/>
      <ellipse id="svg_80" transform="rotate(-10.82 196.051 178.172)" stroke="#000" fill="#fff" stroke-miterlimit="10" ry="3.588" rx="3.075" cy="181.76" cx="199.126" class="k"/>
      <g id="svg_81">
       <path id="svg_82" fill="#ff7d00" d="m178.34797,194.33399l-0.521,-2.725a11.743,11.743 0 0 1 -5.112,-0.3l0.219,-3.52a10.307,10.307 0 0 0 5,0.352c1.634,-0.312 2.632,-1.157 2.413,-2.3c-0.208,-1.09 -1.257,-1.6 -3.517,-1.914c-3.266,-0.446 -5.634,-1.48 -6.166,-4.262c-0.483,-2.524 0.917,-4.843 3.871,-6.032l-0.521,-2.724l2.811,-0.537l0.483,2.524a10.513,10.513 0 0 1 4.34,0.151l-0.213,3.4a9.684,9.684 0 0 0 -4.316,-0.186c-1.865,0.357 -2.313,1.274 -2.16,2.078c0.181,0.947 1.3,1.357 3.913,1.809c3.644,0.552 5.322,1.866 5.815,4.448c0.488,2.552 -0.9,5.077 -4.091,6.281l0.559,2.926l-2.807,0.531z" class="c"/>
      </g>
     </g>
     <g id="svg_83">
      <path id="svg_84" stroke="#272626" fill="#b2b2b2" stroke-miterlimit="10" d="m116.877,164.84699l116.346,11.417l-5.34,47.92l-110.361,-15.988l-0.645,-43.349z" class="i"/>
      <path id="svg_85" stroke="#fff" fill="#fff" stroke-miterlimit="10" d="m130.42801,171.321c17.083,1.67 70.079,6.9 89.788,8.838a7.516,7.516 0 0 0 6.741,8.221l-2.277,22.986a7.516,7.516 0 0 0 -8.512,6.7l-85.419,-11.854a7.517,7.517 0 0 0 -6.48,-7.657l0.631,-22.361a5.041,5.041 0 0 0 5.528,-4.873z" class="j"/>
      <ellipse id="svg_86" stroke="#272626" fill="#b2b2b2" stroke-miterlimit="10" ry="16.144" rx="15.485" cy="193.137" cx="176.753" class="i"/>
      <ellipse id="svg_87" stroke="#000" fill="#fff" stroke-miterlimit="10" ry="3.588" rx="3.075" cy="190.692" cx="151.247" class="k"/>
      <ellipse id="svg_88" stroke="#000" fill="#fff" stroke-miterlimit="10" ry="3.588" rx="3.075" cy="196.088" cx="199.538" class="k"/>
      <g id="svg_89">
       <path id="svg_90" fill="#ff7d00" d="m176.04202,205.05002l0,-2.774a11.753,11.753 0 0 1 -4.964,-1.256l0.876,-3.417a10.307,10.307 0 0 0 4.847,1.285c1.664,0 2.8,-0.642 2.8,-1.81c0,-1.109 -0.935,-1.81 -3.1,-2.54c-3.124,-1.052 -5.256,-2.511 -5.256,-5.344c0,-2.569 1.81,-4.584 4.935,-5.2l0,-2.774l2.862,0l0,2.569a10.516,10.516 0 0 1 4.234,0.964l-0.846,3.3a9.68,9.68 0 0 0 -4.2,-0.993c-1.9,0 -2.511,0.817 -2.511,1.635c0,0.964 1.022,1.577 3.5,2.511c3.475,1.227 4.876,2.832 4.876,5.46c0,2.6 -1.84,4.819 -5.2,5.4l0,2.978l-2.853,0.006z" class="c"/>
      </g>
     </g>
    </g>
    <path id="svg_91" fill="#ffa45a" d="m168.81497,170.88001s0.819,-2.041 -3.385,-1.635s-40.2,3.557 -50.166,6.52s-35.334,7.868 -35.334,7.868l0,4.357l88.885,-17.11z" class="g"/>
    <path id="svg_92" fill="#ff7d00" d="m86.08601,118.503s-34.956,67.492 -31.191,73.676s17.958,62.383 23.768,62.652s19.792,-1.882 30.548,-3.5s67.223,-9.142 69.912,-12.907s-5.02,-69.016 -11.114,-67.761s-82.85,14.377 -90.254,18.4c-5.177,2.816 -21.247,7.409 -19.992,0.239s12.369,-20.973 13.445,-24.738s16.672,-43.2 16.672,-43.2l-1.794,-2.861z" class="c"/>
    <path id="svg_93" stroke="#000" fill="#fff" stroke-miterlimit="10" d="m98.78902,114.73799" class="k"/>
    <path id="svg_94" fill="#aa4f04" d="m134.78801,192.566s42.3,-11.661 43.8,-9.22s2.983,15.593 2.712,16.271s-42.168,8.813 -43.524,8.542s-13.293,-7.864 -2.988,-15.593z" class="d"/>
    <path id="svg_95" stroke-width="2px" stroke="#aa4f04" stroke-miterlimit="10" fill="none" d="m78.822,249.194s4,2.126 13.3,0.445s67.019,-11.419 69.811,-11.767c7.138,-0.89 15.92,-5.142 15.92,-5.142" class="h"/>
    <path id="svg_96" stroke-width="2px" stroke="#aa4f04" stroke-miterlimit="10" fill="none" d="m60.87503,195.61999s1.928,5.059 18.244,-3.24s89.568,-17.951 89.568,-17.951" class="h"/>
    <path id="svg_97" fill="#ffa45a" d="m175.65299,184.67399s-36.758,7.54 -39.8,9.147a6.624,6.624 0 0 0 -3.337,6.279c0.222,1.112 3.04,7.118 9.047,6.229s37.085,-8.022 37.085,-8.022" class="g"/>
    <circle id="svg_98" fill="#aa4f04" r="5.898" cy="193.887" cx="169.973" class="d"/>
    <circle id="svg_99" fill="#fff" r="4.171" cy="193.887" cx="169.974" class="e"/>
   </g>
   <path id="svg_100" stroke-width="6px" stroke-miterlimit="10" stroke="#ff7d00" fill="none" d="m44.92199,182.84699l-10.984,3.474l0,22.12l22.531,11.593l0,30.818" class="a"/>
   <g id="svg_101">
    <path id="svg_102" fill="#f0beb4" d="m240.25699,146.88799l-22.97,-6.2a4.793,4.793 0 0 0 -2.847,-2.079c-1.847,-0.383 -4.771,-2.614 -6.464,-1.922s-0.384,6.464 3,7.541a31.886,31.886 0 0 0 7.7,1.154s22.778,9 24.317,8.618s0.614,-6.842 -2.736,-7.112z" class="m"/>
    <path id="svg_103" fill="#272626" d="m252.14898,120.07a7.589,7.589 0 0 0 -6.464,3c-2.309,3.347 -7.5,23.085 -7.5,23.085s3.463,1.5 4.04,4.5s0.252,3.043 0.252,3.043s4.6,-0.734 4.711,-3.274s10.155,-27.007 4.961,-30.354z" class="n"/>
    <path id="svg_104" fill="#f0beb4" d="m247.28303,252.04399l-0.846,8.7l-5.695,-1.154l1.847,-8.773l4.694,1.227z" class="m"/>
    <path id="svg_105" fill="#272626" d="m248.05799,266.30599c1.8,-1.235 -0.775,-6.327 -0.775,-6.327l-6.541,-1.539s-11.316,5.88 -10.439,7.475s15.955,1.626 17.755,0.391z" class="n"/>
    <path id="svg_106" fill="#f0beb4" d="m266.60202,255.12099l0.77,7.387l5.156,-0.462l0.539,-6.926l-6.465,0.001z" class="m"/>
    <path id="svg_107" fill="#272626" d="m279.14001,268.665s-11.295,-0.235 -12.543,-1.385s0,-5.31 0,-5.31l6.772,-1.231l7,6.772s1.246,1.427 -1.229,1.154z" class="n"/>
    <path id="svg_108" fill="#272626" d="m245.897,172.24399l-6.925,80.569l8.767,0.924s11.9,-57.252 11.838,-62.793s-1.906,-16.391 -1.906,-16.391l-11.774,-2.309z" class="n"/>
    <path id="svg_109" fill="#272626" d="m272.44503,175.01401l2.9,82.646l-10.515,0s-7.618,-64.871 -7.618,-69.488s2.367,-12.235 2.367,-12.235l12.866,-0.923z" class="n"/>
    <path id="svg_110" fill="#f7f7ff" d="m264.59698,119.60899s4.4,0.316 6.78,1.78c3,1.843 1.714,7.6 1.993,10.917c0.924,10.966 4.963,41.9 0,44.44s-20.661,4.156 -30.011,-2.77c2.309,-14.428 3.014,-51.381 7.178,-53.327c3.424,-1.601 14.06,-1.04 14.06,-1.04z" class="o"/>
    <path id="svg_111" fill="#e0ada6" d="m263.59601,106.835s0.384,14.082 1.077,14.929c-3.386,1.846 -6.695,3.386 -7.618,1.77s-1.588,-2.967 -1.588,-2.967s2.973,-5.575 1.973,-9.346s6.156,-4.386 6.156,-4.386z" class="p"/>
    <path id="svg_112" fill="#f0beb4" d="m264.67301,96.98001s1.195,12.543 -5.1,15.467s-7.754,-0.923 -8.216,-2.539s-1.616,-13.929 0,-14.621s11.239,-3.689 13.316,1.693z" class="m"/>
    <path id="svg_113" fill="#b2b2b2" d="m261.28598,92.01602s-10.562,-1.277 -13.523,-1.393s1.393,8.357 1.393,8.357a40.517,40.517 0 0 1 6.849,-1.915c2.67,-0.348 4.411,0.174 4.411,2.728s-0.87,4.469 -0.058,4.527s1.161,-1.974 1.915,-3.192s1.451,-0.128 1.161,2.548s-0.685,4.507 -0.233,4.751s1.277,1 1.857,-0.334s2.9,-12.21 1.1,-14.259a6.453,6.453 0 0 0 -4.872,-1.818z" class="q"/>
    <path id="svg_114" fill="#f0beb4" d="m280.641,151.005c0,0.577 3.694,5.771 -3.232,5.656s-22.855,-17.314 -22.855,-17.314s-1.886,-4.848 -3.424,-3.925s-3.925,-4.655 -1.924,-5.54s8.311,3.348 8.234,5.81s17.546,11.266 18.354,11.766s4.847,3.547 4.847,3.547z" class="m"/>
    <path id="svg_115" fill="#272626" d="m269.805,121.114a9.378,9.378 0 0 1 4.875,1.887c2.54,1.847 7.923,18.771 8.731,23.734s-2.193,9.7 -2.655,9.927a15.38,15.38 0 0 0 -6.81,-10.619a27.967,27.967 0 0 1 -4.271,-7.428c-1.27,-3.77 0.13,-17.501 0.13,-17.501z" class="n"/>
   </g>
  </g>
 </g>
</svg>