<svg xmlns="http://www.w3.org/2000/svg" width="21.601" height="21.631" viewBox="0 0 21.601 21.631">
  <g id="Grupo_16164" data-name="Grupo 16164" transform="translate(-2647.545 -1379.401)">
    <path id="Caminho_9587" data-name="Caminho 9587" d="M2656.172,1379.631a10.813,10.813,0,1,0,7.383,20.067c.249-.135.388-.335.247-.617a.436.436,0,0,0-.666-.185l-.167.086a9.9,9.9,0,1,1,4.084-4.037,10.375,10.375,0,0,1-2.166,2.725c-.3.277-.27.653.055.8.251.112.429-.018.6-.18a10.608,10.608,0,0,0,3.436-9.929A10.809,10.809,0,0,0,2656.172,1379.631Z" fill="#ff7d00"/>
    <path id="Caminho_9588" data-name="Caminho 9588" d="M2658.266,1381.943a8.282,8.282,0,1,0,8.368,8.269A8.283,8.283,0,0,0,2658.266,1381.943Zm.052,15.662a7.379,7.379,0,1,1,7.412-7.333A7.378,7.378,0,0,1,2658.318,1397.6Z" fill="#ff7d00"/>
    <path id="Caminho_9589" data-name="Caminho 9589" d="M2658.876,1389.778c-.364,0-.728,0-1.091-.006a1.01,1.01,0,1,1,0-2.019c.4-.011.8,0,1.2,0s.8,0,1.2,0c.358-.005.586-.187.556-.462a.473.473,0,0,0-.548-.442c-.377.005-.753-.01-1.129.006-.21.009-.281-.051-.273-.268.017-.413.016-.828,0-1.241a.426.426,0,0,0-.479-.461.42.42,0,0,0-.418.478c0,.376-.015.753,0,1.128.012.252-.027.351-.328.38a1.907,1.907,0,0,0,.221,3.8c.326,0,.652,0,.978.007a1.02,1.02,0,1,1,.007,2.022c-.74,0-1.48,0-2.221,0-.417,0-.609.14-.614.439s.2.461.634.463c.364,0,.728.009,1.091,0,.184-.006.236.059.231.237-.011.4,0,.8,0,1.2,0,.308.117.525.446.527s.454-.221.457-.523c0-.376.014-.753,0-1.129-.011-.228.041-.3.294-.33a1.908,1.908,0,0,0-.217-3.809Z" fill="#ff7d00"/>
  </g>
</svg>
