<svg xmlns="http://www.w3.org/2000/svg" width="19.309" height="13.577" viewBox="0 0 19.309 13.577">
  <g id="Grupo_7714" data-name="Grupo 7714" transform="translate(0 0)">
    <path id="Caminho_9296" data-name="Caminho 9296" d="M2239.53,368.891a2.261,2.261,0,0,0-2.332-2.329c-.723,0-1.445,0-2.168,0h-12.443a2.256,2.256,0,0,0-2.327,1.866c-.006.025-.009.048-.038.057v9.73c.029.009.032.032.038.057a2.255,2.255,0,0,0,2.308,1.866q7.315,0,14.63,0a2.259,2.259,0,0,0,2.332-2.329Q2239.533,373.35,2239.53,368.891Zm-1.131,8.855a1.15,1.15,0,0,1-1.263,1.261h-14.5a1.156,1.156,0,0,1-1.285-1.277q0-4.383,0-8.766a1.153,1.153,0,0,1,1.273-1.27h14.5a1.153,1.153,0,0,1,1.275,1.268Q2238.4,373.354,2238.4,377.746Z" transform="translate(-2220.222 -366.561)" fill="#ff7d00"/>
    <path id="Caminho_9297" data-name="Caminho 9297" d="M2272.973,414.394q-2.385.007-4.77,0c-.135,0-.162.036-.162.165q.008,2.1,0,4.2c0,.135.036.163.166.162.792-.006,1.583,0,2.375,0s1.6,0,2.394,0c.135,0,.163-.036.162-.166q-.008-2.1,0-4.2C2273.139,414.422,2273.1,414.394,2272.973,414.394Zm-1.1,3.4c-.421-.006-.842,0-1.263,0s-.867,0-1.3,0c-.109,0-.134-.032-.133-.136q.007-1,0-2c0-.109.032-.134.136-.133q1.282.006,2.564,0c.109,0,.134.032.133.136q-.007,1,0,2C2272.008,417.769,2271.975,417.8,2271.871,417.794Z" transform="translate(-2265.782 -412.134)" fill="#ff7d00"/>
    <path id="Caminho_9298" data-name="Caminho 9298" d="M2272.223,533.486c0-.1-.013-.144-.129-.144q-1.968.006-3.937,0c-.092,0-.116.027-.114.116.005.289.009.578,0,.866,0,.124.032.155.155.154.64-.006,1.281,0,1.921,0s1.306,0,1.959,0c.114,0,.152-.026.148-.145C2272.215,534.051,2272.218,533.768,2272.223,533.486Z" transform="translate(-2265.782 -525.462)" fill="#ff7d00"/>
    <path id="Caminho_9299" data-name="Caminho 9299" d="M2496.57,533.335c-.64.006-1.281,0-1.921,0s-1.306,0-1.959,0c-.115,0-.15.028-.147.146.009.282.007.565,0,.847,0,.1.015.143.13.143q1.969-.006,3.937,0c.093,0,.115-.029.113-.117-.005-.289-.009-.578,0-.866C2496.729,533.362,2496.69,533.334,2496.57,533.335Z" transform="translate(-2479.676 -525.456)" fill="#ff7d00"/>
    <path id="Caminho_9300" data-name="Caminho 9300" d="M2384.542,533.476c0-.1-.026-.126-.125-.126q-1.961,0-3.921,0c-.1,0-.129.023-.127.124.007.283.01.566,0,.848-.005.132.032.166.164.165.641-.007,1.281,0,1.923,0s1.294,0,1.941,0c.114,0,.151-.024.147-.144C2384.533,534.054,2384.535,533.765,2384.542,533.476Z" transform="translate(-2372.801 -525.47)" fill="#ff7d00"/>
    <path id="Caminho_9301" data-name="Caminho 9301" d="M2538.712,415.445c0,.095.033.114.119.113q.884,0,1.769,0c.1,0,.113-.033.112-.119,0-.3-.006-.6,0-.9,0-.093-.028-.115-.117-.114-.289.005-.577,0-.865,0s-.59,0-.885,0c-.088,0-.136.008-.133.118C2538.719,414.843,2538.718,415.144,2538.712,415.445Z" transform="translate(-2523.664 -412.162)" fill="#ff7d00"/>
  </g>
</svg>
