<svg height="88.971" viewBox="0 0 88.944 88.971" width="88.944" xmlns="http://www.w3.org/2000/svg"><path d="m192.966 435.109a5.9 5.9 0 1 1 -5.9 5.9 5.9 5.9 0 0 1 5.9-5.9zm0 8.844a2.948 2.948 0 1 0 -2.948-2.948 2.948 2.948 0 0 0 2.948 2.948zm0 0" fill="#001f40" transform="translate(-127.858 -393.633)"/><path d="m27.287 23.743a16.215 16.215 0 1 1 28.724 0 30.163 30.163 0 0 1 3.667.565 13.319 13.319 0 0 1 11.452-6.592 1.473 1.473 0 0 1 1.47 1.474v11.51a29.388 29.388 0 0 1 9.7 16.5h5.049a1.474 1.474 0 0 1 1.474 1.474v11.79a1.474 1.474 0 0 1 -1.474 1.474h-5.809a29.649 29.649 0 0 1 -13.358 16.688v8.374a1.474 1.474 0 0 1 -1.474 1.474h-13.267a1.474 1.474 0 0 1 -1.474-1.474v-4.425h-20.637v4.425a1.474 1.474 0 0 1 -1.473 1.474h-13.267a1.474 1.474 0 0 1 -1.474-1.474v-8.374a29.456 29.456 0 0 1 -14.593-22.803 5.824 5.824 0 0 1 -.148-1.255v-1.474a29.508 29.508 0 0 1 26.912-29.351zm14.362-20.767a13.267 13.267 0 1 0 13.266 13.267 13.267 13.267 0 0 0 -13.266-13.267zm-38.225 52.317a2.948 2.948 0 0 0 5.8-.725v-1.474h2.948v1.473a5.9 5.9 0 0 1 -5.9 5.9 5.823 5.823 0 0 1 -2.008-.377 26.534 26.534 0 0 0 13.026 16.373 1.475 1.475 0 0 1 .774 1.3v7.762h10.318v-4.425a1.473 1.473 0 0 1 1.474-1.473h23.585a1.473 1.473 0 0 1 1.474 1.473v4.422h10.319v-7.761a1.476 1.476 0 0 1 .774-1.3 26.648 26.648 0 0 0 13.006-16.385 1.472 1.472 0 0 1 1.422-1.086h5.434v-8.845h-4.8a1.474 1.474 0 0 1 -1.46-1.245 26.459 26.459 0 0 0 -9.41-16.371 1.474 1.474 0 0 1 -.543-1.142v-10.614a10.375 10.375 0 0 0 -7.87 5.858 1.474 1.474 0 0 1 -1.7.8 26.739 26.739 0 0 0 -5.957-.85 16.364 16.364 0 0 1 -3.19 2.924h5.45v2.948h-29.481v-2.944h5.446a16.4 16.4 0 0 1 -3.173-2.915 26.548 26.548 0 0 0 -25.858 26.5c0 .737.041 1.473.1 2.199zm0 0" fill="#001f40" stroke="#001f40" stroke-width=".5" transform="translate(-.125 .25)"/><g fill="#ff7d00"><path d="m404.875 81.027v-2.949a8.854 8.854 0 0 1 8.845 8.845h-2.949a5.9 5.9 0 0 0 -5.896-5.896zm0 0" transform="translate(-363.351 -70.43)"/><path d="m507.067 180.274a8.854 8.854 0 0 1 -8.844-8.844h2.948a5.9 5.9 0 0 0 5.9 5.9zm0 0" transform="translate(-465.544 -154.937)"/><path d="m709.336 13.836a1.474 1.474 0 0 1 -2.906 0 5.7 5.7 0 0 0 -4.685-4.684 1.474 1.474 0 0 1 0-2.908 5.7 5.7 0 0 0 4.685-4.683 1.474 1.474 0 0 1 2.906 0 5.7 5.7 0 0 0 4.685 4.683 1.474 1.474 0 0 1 0 2.908 5.7 5.7 0 0 0 -4.685 4.684zm-1.453-8.243a8.641 8.641 0 0 1 -2.1 2.106 8.633 8.633 0 0 1 2.1 2.105 8.666 8.666 0 0 1 2.105-2.104 8.674 8.674 0 0 1 -2.106-2.107zm0 0" transform="translate(-692.892 -.051)"/></g></svg>