<svg height="69.565" viewBox="0 0 69.564 69.565" width="69.564" xmlns="http://www.w3.org/2000/svg"><path d="m66.405 35.074v-9.774a6.311 6.311 0 0 0 -5.821-6.273l-9.084-15.862a6.257 6.257 0 0 0 -8.58-2.313l-31.126 18.121h-5.467a6.33 6.33 0 0 0 -6.327 6.327v37.941a6.33 6.33 0 0 0 6.324 6.324h53.757a6.33 6.33 0 0 0 6.324-6.324v-9.777a4.735 4.735 0 0 0 3.162-4.452v-9.486a4.735 4.735 0 0 0 -3.162-4.452zm-9.495-16.1h-13.78l10.335-6.017zm-5.016-8.761-15.048 8.76h-6.246l19.734-11.487zm-7.382-6.628a3.057 3.057 0 0 1 2.348-.316 3.1 3.1 0 0 1 1.9 1.468v.006l-24.44 14.23h-6.242zm18.731 59.656a3.166 3.166 0 0 1 -3.162 3.159h-53.754a3.166 3.166 0 0 1 -3.162-3.162v-37.938a3.166 3.166 0 0 1 3.162-3.162h53.754a3.166 3.166 0 0 1 3.162 3.162v9.486h-9.486a9.486 9.486 0 1 0 0 18.972h9.486zm3.162-14.229a1.582 1.582 0 0 1 -1.581 1.581h-11.067a6.324 6.324 0 1 1 0-12.648h11.067a1.582 1.582 0 0 1 1.581 1.581z" fill="#001f40" transform="translate(-.003)"/><g fill="#ff7d00"><path d="m344.5 277.341a3.162 3.162 0 1 0 3.162 3.162 3.166 3.166 0 0 0 -3.162-3.162z" transform="translate(-290.745 -236.234)"/><path d="m44.834 18.85-3.374-5.894-10.124 5.894h-6.284l14.836-8.638-1.56-2.726-19.518 11.364h-6.284l24.231-14.108v-.006a3.109 3.109 0 0 0 -2.7-1.574 3.055 3.055 0 0 0 -1.548.422l-26.225 15.266h-6.284l30.914-18a6.218 6.218 0 0 1 3.119-.85h.036a6.278 6.278 0 0 1 5.431 3.165l8.98 15.685z" transform="translate(12.002)"/></g></svg>