<svg height="47.663" viewBox="0 0 52.822 47.663" width="52.822" xmlns="http://www.w3.org/2000/svg"><path d="m51.274 25h-49.726a1.548 1.548 0 1 0 0 3.1h3.714v43.016a1.548 1.548 0 0 0 2.148 1.426l9.2-3.874 9.2 3.874a1.548 1.548 0 0 0 1.2 0l9.2-3.874 9.2 3.874a1.548 1.548 0 0 0 2.148-1.426v-43.016h3.714a1.548 1.548 0 1 0 0-3.1zm-6.809 43.785-7.652-3.222a1.548 1.548 0 0 0 -1.2 0l-9.2 3.874-9.2-3.874a1.547 1.547 0 0 0 -1.2 0l-7.656 3.222v-40.685h36.108z" fill="#001f40" transform="translate(0 -25)"/><path d="m183.022 105h-15.474a1.548 1.548 0 1 0 0 3.1h15.475a1.548 1.548 0 1 0 0-3.1z" fill="#ff7d00" transform="translate(-148.874 -96.747)"/><path d="m226.991 225h-14.443a1.547 1.547 0 1 0 0 3.095h14.443a1.547 1.547 0 1 0 0-3.095z" fill="#ff7d00" transform="translate(-189.232 -204.367)"/><circle cx="16.603" cy="22.104" fill="#001f40" r="1.66"/><path d="m226.991 305h-14.443a1.547 1.547 0 1 0 0 3.095h14.443a1.547 1.547 0 1 0 0-3.095z" fill="#ff7d00" transform="translate(-189.232 -276.113)"/><circle cx="16.603" cy="30.406" fill="#001f40" r="1.66"/></svg>