<svg height="69.873" viewBox="0 0 69.876 69.873" width="69.876" xmlns="http://www.w3.org/2000/svg"><path d="m86.02 264.2v24.249a5.746 5.746 0 0 1 -5.739 5.739h-50.508a5.746 5.746 0 0 1 -5.739-5.739v-24.249a1.148 1.148 0 1 1 2.3 0v24.249a3.448 3.448 0 0 0 3.444 3.444h50.502a3.448 3.448 0 0 0 3.444-3.444v-24.249a1.148 1.148 0 0 1 2.3 0zm-52.229 21.1h42.472a1.148 1.148 0 0 0 0-2.3h-42.472a1.148 1.148 0 0 0 0 2.3z" fill="#001f40" stroke="#001f40" transform="translate(-20.087 -224.821)"/><path d="m7.466 18.424a1.148 1.148 0 0 0 1.148 1.148c62.928 0 59.362.111 59.817-.24a1.142 1.142 0 0 0 .434-.749c.064-.461.487.7-7.544-17.833a1.148 1.148 0 0 0 -1.052-.692h-51.655a1.148 1.148 0 0 0 -1.053.691l-7.461 17.219c-.132.3-.095-.179-.095 7.578a9.466 9.466 0 0 0 17.79 4.51 9.473 9.473 0 0 0 16.647 0 9.473 9.473 0 0 0 16.644 0 9.469 9.469 0 0 0 17.792-4.516 1.148 1.148 0 1 0 -2.3 0 7.174 7.174 0 1 1 -14.349 0 1.148 1.148 0 1 0 -2.3 0 7.174 7.174 0 1 1 -14.349 0 1.148 1.148 0 1 0 -2.3 0 7.174 7.174 0 1 1 -14.349-.057 1.148 1.148 0 0 0 -2.3 0 7.174 7.174 0 1 1 -14.331.061v-6.882l7.068-16.308h50.147l6.466 14.922h-57.367a1.148 1.148 0 0 0 -1.148 1.148z" fill="#ff7d00" stroke="#ff7d00" transform="translate(.498 .442)"/></svg>