<svg height="65.6" viewBox="0 0 49.225 65.6" width="49.225" xmlns="http://www.w3.org/2000/svg"><g fill="#001f40"><path d="m112.725 14.046-13.646-13.646a1.364 1.364 0 0 0 -.965-.4h-28.656a5.465 5.465 0 0 0 -5.458 5.458v54.584a5.465 5.465 0 0 0 5.458 5.458h38.208a5.465 5.465 0 0 0 5.458-5.458v-45.032a1.363 1.363 0 0 0 -.399-.964zm-13.246-9.387 8.987 8.987h-6.258a2.732 2.732 0 0 1 -2.729-2.729zm10.921 55.383a2.732 2.732 0 0 1 -2.729 2.729h-38.213a2.732 2.732 0 0 1 -2.729-2.729v-54.584a2.732 2.732 0 0 1 2.729-2.729h27.292v8.188a5.465 5.465 0 0 0 5.458 5.458h8.192z" stroke="#001f40" stroke-width=".1" transform="translate(-63.95 .05)"/><path d="m159.385 298.667h-30.02a1.365 1.365 0 1 0 0 2.729h30.021a1.365 1.365 0 1 0 0-2.729z" transform="translate(-119.762 -260.408)"/><path d="m159.385 234.667h-30.02a1.365 1.365 0 1 0 0 2.729h30.021a1.365 1.365 0 1 0 0-2.729z" transform="translate(-119.762 -204.596)"/><path d="m159.385 362.667h-30.02a1.365 1.365 0 1 0 0 2.729h30.021a1.365 1.365 0 1 0 0-2.729z" transform="translate(-119.762 -316.221)"/><path d="m145.74 426.667h-16.375a1.365 1.365 0 1 0 0 2.729h16.375a1.365 1.365 0 1 0 0-2.729z" transform="translate(-119.762 -372.034)"/><path d="m234.667 172.031a1.364 1.364 0 0 0 1.365 1.365h16.375a1.365 1.365 0 1 0 0-2.729h-16.375a1.364 1.364 0 0 0 -1.365 1.364z" transform="translate(-212.784 -148.783)"/></g><path d="m132.094 86.947h-2.729a1.365 1.365 0 1 0 0 2.729h1.365a1.365 1.365 0 1 0 2.729 0v-.251a4.084 4.084 0 0 0 -1.365-7.936 1.365 1.365 0 0 1 0-2.729h2.729a1.365 1.365 0 1 0 0-2.729h-1.365a1.365 1.365 0 1 0 -2.729 0v.251a4.084 4.084 0 0 0 1.365 7.936 1.365 1.365 0 0 1 0 2.729z" fill="#ff7d00" transform="translate(-119.762 -65.063)"/></svg>