<svg height="76.827" viewBox="0 0 54.019 76.827" width="54.019" xmlns="http://www.w3.org/2000/svg"><path d="m193.51.674a2.26 2.26 0 0 0 -1.6-.674h-18.867a2.25 2.25 0 0 0 -2.243 2.179v1.644a2.249 2.249 0 0 0 2.243 2.177h11l-30.8 30.791a2.163 2.163 0 0 0 0 3.058l1.162 1.161a2.147 2.147 0 0 0 1.53.632 2.226 2.226 0 0 0 1.565-.633l30.7-30.665v10.747a2.248 2.248 0 0 0 2.1 2.317h1.643a2.342 2.342 0 0 0 1.578-.712 2.379 2.379 0 0 0 .683-1.605v-18.87a2.19 2.19 0 0 0 -.694-1.547z" fill="#ff7d00" transform="translate(-140.189)"/><path d="m114.494 228.642a2.136 2.136 0 0 0 -.633-1.526l-1.162-1.158a2.158 2.158 0 0 0 -3.011 0l-30.653 30.7v-10.741a2.413 2.413 0 0 0 -2.266-2.341h-1.645a2.265 2.265 0 0 0 -2.092 2.341v18.868a2.084 2.084 0 0 0 .614 1.536 2.061 2.061 0 0 0 1.521.663h18.861a2.386 2.386 0 0 0 2.412-2.156v-1.644a2.425 2.425 0 0 0 -2.412-2.2h-11l30.838-30.82a2.13 2.13 0 0 0 .628-1.522z" fill="#001f40" transform="translate(-73.032 -190.157)"/></svg>