<svg height="1103.23" viewBox="0 0 1329.503 1103.23" width="1329.503" xmlns="http://www.w3.org/2000/svg" xmlns:xlink="http://www.w3.org/1999/xlink"><linearGradient id="a" gradientUnits="objectBoundingBox" x1=".505" x2=".505" y1="1.007"><stop offset="0" stop-color="#808080" stop-opacity=".251"/><stop offset=".54" stop-color="#808080" stop-opacity=".122"/><stop offset="1" stop-color="#808080" stop-opacity=".102"/></linearGradient><g transform="translate(403.973)"><rect fill="#3f3d56" height="133.462" rx="2.29" width="16.194" x="533.009" y="249.763"/><rect fill="#3f3d56" height="1101.019" rx="12" width="541.746"/><path d="m896.584 199h-62.144v7.476a35.422 35.422 0 0 1 -35.44 35.424h-197.635a35.422 35.422 0 0 1 -35.441-35.422v-7.478h-58.185a43.026 43.026 0 0 0 -43.025 43.026v957.687a43.026 43.026 0 0 0 43.026 43.026h388.844a43.026 43.026 0 0 0 43.025-43.026v-957.613a43.026 43.026 0 0 0 -43.025-43.1z" fill="#fff" transform="translate(-430.241 -170.322)"/><rect fill="#e6e8ec" height="15.353" rx="3.87" width="75.65" x="218.617" y="32.881"/><circle cx="314.429" cy="40.558" fill="#e6e8ec" r="8.719"/><circle cx="274.182" cy="564.027" fill="#fff" r="102.483"/><path d="m794.154 546.586a136.972 136.972 0 1 1 -136.972-136.976 136.971 136.971 0 0 1 136.972 136.976zm-152.8 72.5 101.6-101.605a8.828 8.828 0 0 0 0-12.5l-12.5-12.41a8.81 8.81 0 0 0 -12.484 0l-82.87 82.872-38.694-38.785a8.864 8.864 0 0 0 -12.5 0l-12.5 12.575a8.864 8.864 0 0 0 0 12.5l57.448 57.428a8.827 8.827 0 0 0 12.5 0z" fill="#388e3c" transform="translate(-385.179 3.13)"/></g><rect fill="#3f3d56" height="39.496" rx="2.29" width="8.165" x="416.144" y="217.06"/><rect fill="#3f3d56" height="68.74" rx="2.29" width="9.201" x="415.848" y="289.381"/><rect fill="#3f3d56" height="69.331" rx="2.29" width="8.757" x="415.995" y="382.174"/><path d="m377.46 474.88a1.511 1.511 0 0 0 1.791.23 6.354 6.354 0 0 1 -1.791-.23z" fill="url(#a)" transform="translate(-69.98 90.628)"/><path d="m455.371 491-1.768 9.628-1.364 7.365-2.48 13.472-24.053 16.835s-2.168-1.856-5.745-4.781c-9.857-8.117-30.576-24.644-45.789-33.516a51.249 51.249 0 0 0 -12.586-5.8z" fill="#feb9b9" transform="translate(-80.186 100.992)"/><path d="m445.345 505.729s28.045 4.814 29.687-7.163-14.432-18.45-28.061-19.256-95.4 4.814-95.4 4.814-14.426 19.239 37.672 22.459z" fill="#3f3d56" transform="translate(-87.805 93.426)"/><path d="m0 0h146.713v173.97h-146.713z" fill="#2f2e41" transform="translate(272.157 203.933)"/><path d="m0 0h146.713v173.97h-146.713z" opacity=".1" transform="translate(272.157 204.722)"/><path d="m273.167 441.728c-2.416.609-5.5 2.946-8.937 6.325-14.786 14.639-35.964 48.993-35.964 48.993-27.076-32.252 2.885-57.734 15.657-66.491 3.105-2.12 5.191-3.286 5.191-3.286z" fill="#feb9b9" transform="translate(-172.957 60.018)"/><path d="m448.12 288.22s7.218 50.5 32.069 62.53-32.069 34.5-32.069 34.5l-77.76-28.883s44.1-14.436 35.273-56.928z" fill="#feb9b9" transform="translate(-74.545 -29.38)"/><path d="m403.672 473.16-1.759 9.6-1.429 7.393-2.484 13.468-24.05 16.823s-2.168-1.84-5.745-4.764c-9.857-8.116-30.574-24.644-45.811-33.516a50.921 50.921 0 0 0 -12.586-5.8z" fill="#feb9b9" transform="translate(-113.474 89.522)"/><path d="m390.6 492.557s25.17.179 26.684-11.833-13.717-18.45-26.684-19.255-91.753 5.188-91.753 5.188-11.177 22.684 38.38 25.9z" fill="#2f2e41" transform="translate(-121.214 81.958)"/><path d="m537.64 681.188c-1.1-.542-2.2-1.1-3.287-1.642l-2.958-3.73-38.789-49.189v.855c-.262 8.215-3.055 73.308-24.841 79.32-23.247 6.408-51.292 8.018-64.077-35.273s-36.143-137.891-60.131-143.509l35.684-29.26s23.626 27.634 33.252 54.085c-.361-1.642-16.676-77.874-3.286-91.362h117.068s18.072 51.473 30.459 76.971c9.644 19.8 24.118 66.6 33.437 98.28 9.229 31.277-23.189 58.895-52.531 44.454z" fill="#3f3d56" transform="translate(-91.776 82.013)"/><path d="m510.752 514.155c-18.072 10.7-97.41 6.341-123.22 4.6l-7.032-.51c-.756 0 .115-.427.115-.427l.723-7.278 19.239-48.894 103.011-59.737c-2.087 6.293-2.777 15.921-2.612 26.945.477 35.421 9.776 85.301 9.776 85.301z" opacity=".1" transform="translate(-68.224 43.713)"/><path d="m511.088 512.666c-18.073 10.7-97.41 6.341-123.22 4.6l-7.032-.494-1.167-.1 1.282-.328 6.341-1.643 13.62-54.512 103.011-59.719c-2.086 6.293-2.777 15.92-2.612 26.944.478 35.386 9.777 85.252 9.777 85.252z" fill="#efefef" transform="translate(-68.559 42.788)"/><path d="m500.816 427.38c-20.948 4.83-67.048 19-84.759 53.231-11.812 22.788-21.752 32.563-28.686 36.653l-7.032-.493a4.152 4.152 0 0 0 .115-.427l6.346-1.644 13.62-54.512 103.006-59.718c-2.062 6.259-2.775 15.886-2.61 26.91z" opacity=".1" transform="translate(-68.129 42.788)"/><path d="m238.692 427.29 24.053 14.425c-2.416.609-5.5 2.946-8.937 6.325-2-5.849-14.583-14.014-20.307-17.5 3.099-2.083 5.191-3.25 5.191-3.25z" opacity=".1" transform="translate(-162.535 60.032)"/><path d="m378.372 471.92a1.429 1.429 0 0 1 -1.642-.23 5.7 5.7 0 0 0 1.642.23z" opacity=".1" transform="translate(-70.449 88.578)"/><path d="m525.083 372.312s-21.653 2.4-36.883-13.636c0 0-64.076 18.45-85.777 60.13s-169.223 123.466-169.223 123.466 25.663 14.426 23.247 21.637l97.015-56.122s34.5-24.841 44.08-30.459 62.546-40.087 73.768 53.708 0 82.573 0 82.573 16.036 5.62 39.283-39.283 95.389-55.318 95.389-55.318l4.008-47.284s14.31-31.348 3.286-44.359a27.929 27.929 0 0 1 -6.424-13.571c-1.824-12.01 0-32.021 25.53-48.647 39.283-25.663 54.512-46.495 54.512-46.495s.8-15.246-23.247-22.459-121.856-46.493-121.856-46.493l-3.291 13.636 77.174 54.464s-38.477 31.215-69 30.459c-.004 0 5.664 23.247-21.591 24.053z" fill="#ff7d00" transform="translate(-162.728 -54.146)"/><path d="m438.641 309.264a156.642 156.642 0 0 1 -4.435-19.584l-42.487 11.22a46.576 46.576 0 0 1 -.969 24.513 45.691 45.691 0 0 0 47.891-16.149z" opacity=".1" transform="translate(-61.435 -28.442)"/><circle cx="341.916" cy="250.428" fill="#feb9b9" r="45.69"/><path d="m428.67 507.07s26.451 52.114 18.43 68.13" opacity=".1" transform="translate(-37.055 111.323)"/><path d="m461.87 219c12.683 1.446 24.726 6.883 37.213 9.857a18.465 18.465 0 0 0 9.628.361c4.846-1.5 8.789-6.571 13.817-6.424 3.094.1 5.832 2.2 8.379 4.222a103.071 103.071 0 0 1 11.5 10.252c8.608 9.348 13.948 21.933 21.8 32.1s19.052 22.1 30.207 17.432c-7.589 29.572-31.259 48.072-58.152 49.913-10.728.737-21.72-1.5-32.1 1.642a27.816 27.816 0 0 1 -8.1 1.971c-5.98 0-10.794-5.487-14.524-10.827-8.741-12.552-15.657-26.8-25.5-38.247-3.286-3.794-7.081-7.393-11.681-8.082s-8.822 1.511-12.913 3.631c-6.752 3.5-13.652 7.113-18.893 13.144s-8.543 14.934-6.375 23c1.167 4.37 3.83 8.314 3.877 12.88.1 7.294-6.341 12.618-7.607 19.715a73.949 73.949 0 0 0 -.312 8.971c-.558 9.722-6.923 17.676-13.552 23.805-2.6 2.366-5.451 4.929-6.21 8.592-.51 2.513 0 5.156-.328 7.706-.969 6.309-7.262 9.513-12.832 10.335a37.014 37.014 0 0 1 -19.255-2.283c7.788-3.683 12.586-14.162 10.778-23.543-2.48-13.013-15.558-22.36-14.436-35.6a41.255 41.255 0 0 1 3.615-11.713 107.341 107.341 0 0 0 6.178-22.2c.985-5.865 1.463-12.092-.379-17.694-1.642-5.094-5.076-9.151-7.985-13.456a76.511 76.511 0 0 1 -9.249-18.943 13.326 13.326 0 0 1 -.884-6.277 12.948 12.948 0 0 1 4.026-6.49c7.147-7.512 14.786-15.312 24.365-17.464a54.853 54.853 0 0 1 13.833-.526 163.249 163.249 0 0 0 24.035-1.019c6.571-.772 17.676-.673 23.247-4.929 5.191-3.977 8.116-8.971 14.506-11.5a42.719 42.719 0 0 1 20.273-2.317z" fill="#2f2e41" transform="translate(-95.656 -74.102)"/><ellipse cx="1215.189" cy="1087.075" fill="#001f40" rx="66.279" ry="11.208"/><path d="m941.19 853.176a19.3 19.3 0 0 0 6.313-9.544c.823-3.774-.792-8.249-4.419-9.709-4.055-1.549-8.4 1.269-11.671 4.1s-7.054 6.082-11.356 5.473a17.274 17.274 0 0 0 5.362-16.17 6.805 6.805 0 0 0 -1.5-3.3c-2.241-2.407-6.334-1.384-9.016.527-8.572 6.016-10.961 17.677-11.01 28.135-.874-3.774-.133-7.714-.166-11.538s-1.071-8.249-4.351-10.268a13.093 13.093 0 0 0 -6.594-1.549c-3.856-.148-8.143.248-10.78 3.065-3.3 3.494-2.406 9.363.429 13.187s7.171 6.28 11.159 8.934a24.729 24.729 0 0 1 7.954 7.6 6.877 6.877 0 0 1 .589 1.368h24.083a67.711 67.711 0 0 0 14.967-10.311z" fill="#001f40" transform="translate(301.41 215.571)"/><g fill="#efefef"><ellipse cx="314.066" cy="1095.833" rx="43.74" ry="7.398"/><path d="m920.345 842.787a12.73 12.73 0 0 0 4.166-6.3 5.617 5.617 0 0 0 -2.915-6.408c-2.677-1.021-5.537.839-7.7 2.709s-4.656 4.014-7.494 3.612a11.4 11.4 0 0 0 3.536-10.671 4.506 4.506 0 0 0 -.99-2.176c-1.473-1.588-4.178-.913-5.95.348-5.656 3.977-7.234 11.66-7.267 18.569-.576-2.491-.087-5.091-.109-7.614s-.707-5.438-2.872-6.776a8.64 8.64 0 0 0 -4.351-1.022c-2.546-.1-5.374.164-7.115 2.024-2.176 2.307-1.588 6.179.283 8.7s4.731 4.146 7.365 5.892a16.32 16.32 0 0 1 5.254 5.009 4.564 4.564 0 0 1 .392.9h15.892a44.658 44.658 0 0 0 9.876-6.81z" transform="translate(-588.189 240.95)"/><ellipse cx="66.699" cy="1095.833" rx="43.74" ry="7.398"/><path d="m920.345 842.787a12.73 12.73 0 0 0 4.166-6.3 5.617 5.617 0 0 0 -2.915-6.408c-2.677-1.021-5.537.839-7.7 2.709s-4.656 4.014-7.494 3.612a11.4 11.4 0 0 0 3.536-10.671 4.506 4.506 0 0 0 -.99-2.176c-1.473-1.588-4.178-.913-5.95.348-5.656 3.977-7.234 11.66-7.267 18.569-.576-2.491-.087-5.091-.109-7.614s-.707-5.438-2.872-6.776a8.64 8.64 0 0 0 -4.351-1.022c-2.546-.1-5.374.164-7.115 2.024-2.176 2.307-1.588 6.179.283 8.7s4.731 4.146 7.365 5.892a16.32 16.32 0 0 1 5.254 5.009 4.564 4.564 0 0 1 .392.9h15.892a44.658 44.658 0 0 0 9.876-6.81z" transform="translate(-835.557 240.95)"/></g><path d="m0 0h1329.503v2.682h-1329.503z" fill="#2f2e41" transform="translate(0 1099.006)"/><path d="m894.115 157s-138.791-8.374-122.438 88.878c0 0-3.3 17.192 12.329 24.988 0 0 .248-7.2 14.241-4.748a65.119 65.119 0 0 0 15.082.725 31.419 31.419 0 0 0 18.427-7.533s39.016-16.121 54.181-79.878c0 0 11.224-13.911 10.78-17.489l-23.421 10s8.01 16.9 1.648 30.934c0 0-.759-30.33-5.259-29.67-.905.133-12.164 5.851-12.164 5.851s13.764 29.422 3.38 50.819c0 0 3.938-36.263-7.682-48.692l-16.483 9.626s16.088 30.4 5.176 55.2c0 0 2.8-38.044-8.654-52.862l-14.934 11.653s15.114 29.95 5.9 50.525c0 0-1.2-44.275-9.134-47.62 0 0-13.071 11.538-15.066 16.252 0 0 10.351 21.758 3.923 33.23 0 0-3.939-29.5-7.171-29.67 0 0-13.021 19.548-14.374 32.966 0 0 .561-19.929 11.225-34.812 0 0-12.594 2.159-19.945 10.311 0 0 2.027-13.813 23.159-15.032 0 0 10.764-14.835 13.632-15.724 0 0-21-1.768-33.741 3.89 0 0 11.209-13.038 37.6-7.1l14.753-12.049s-27.66-3.775-39.4.4c0 0 13.5-11.538 43.367-3.132l16.057-9.594s-23.588-5.078-37.631-3.3c0 0 14.834-7.994 42.344.676l11.539-5.156s-17.274-3.4-22.335-3.939-5.319-1.924-5.319-1.924a59.918 59.918 0 0 1 32.456 3.61s24.364-9.076 23.952-10.61z" fill="#001f40" transform="translate(370.49 -82.578)"/><path d="m781.054 130.726s-62.636-3.775-55.318 40.169c0 0-1.473 7.764 5.571 11.291 0 0 .115-3.3 6.444-2.159a28.862 28.862 0 0 0 6.807.33 14.11 14.11 0 0 0 8.324-3.429s17.636-7.286 24.493-36.1c0 0 5.06-6.28 4.861-7.9l-10.582 4.516s3.61 7.632.775 13.978c0 0-.346-13.7-2.373-13.384-.412 0-5.506 2.651-5.506 2.651s6.23 13.3 1.533 22.962c0 0 1.779-16.384-3.477-22.005l-7.451 4.419s7.269 13.73 2.341 24.94c0 0 1.269-17.192-3.907-23.884l-6.742 5.275s6.824 13.533 2.671 22.832c0 0-.56-20.011-4.138-21.527 0 0-5.9 5.208-6.808 7.352 0 0 4.681 9.89 1.781 15.016 0 0-1.781-13.335-3.3-13.4 0 0-5.885 8.838-6.495 14.835a32.169 32.169 0 0 1 5.077-15.725 17.736 17.736 0 0 0 -9.016 4.665s.924-6.247 10.468-6.791c0 0 4.945-6.708 6.164-7.121 0 0-9.493-.791-15.247 1.768 0 0 5.06-5.885 16.978-3.214l6.594-5.44s-12.506-1.664-17.809.171c0 0 6.1-5.209 19.6-1.417l7.253-4.335s-10.665-2.29-17.01-1.473c0 0 6.708-3.61 19.137.294l5.193-2.324s-7.807-1.533-10.105-1.781-2.407-.874-2.407-.874a27.016 27.016 0 0 1 14.67 1.648s11.15-4.143 10.956-4.829z" fill="#3f3d56" transform="translate(293.387 -107.79)"/><path d="m781.054 130.726s-62.636-3.775-55.318 40.169c0 0-1.473 7.764 5.571 11.291 0 0 .115-3.3 6.444-2.159a28.862 28.862 0 0 0 6.807.33 14.11 14.11 0 0 0 8.324-3.429s17.636-7.286 24.493-36.1c0 0 5.06-6.28 4.861-7.9l-10.582 4.516s3.61 7.632.775 13.978c0 0-.346-13.7-2.373-13.384-.412 0-5.506 2.651-5.506 2.651s6.23 13.3 1.533 22.962c0 0 1.779-16.384-3.477-22.005l-7.451 4.419s7.269 13.73 2.341 24.94c0 0 1.269-17.192-3.907-23.884l-6.742 5.275s6.824 13.533 2.671 22.832c0 0-.56-20.011-4.138-21.527 0 0-5.9 5.208-6.808 7.352 0 0 4.681 9.89 1.781 15.016 0 0-1.781-13.335-3.3-13.4 0 0-5.885 8.838-6.495 14.835a32.169 32.169 0 0 1 5.077-15.725 17.736 17.736 0 0 0 -9.016 4.665s.924-6.247 10.468-6.791c0 0 4.945-6.708 6.164-7.121 0 0-9.493-.791-15.247 1.768 0 0 5.06-5.885 16.978-3.214l6.594-5.44s-12.506-1.664-17.809.171c0 0 6.1-5.209 19.6-1.417l7.253-4.335s-10.665-2.29-17.01-1.473c0 0 6.708-3.61 19.137.294l5.193-2.324s-7.807-1.533-10.105-1.781-2.407-.874-2.407-.874a27.016 27.016 0 0 1 14.67 1.648s11.15-4.143 10.956-4.829z" fill="#3f3d56" transform="translate(-672.535 563.08)"/></svg>