<svg xmlns="http://www.w3.org/2000/svg" width="20.5" height="20.634" viewBox="0 0 20.5 20.634">
  <g id="surface1" transform="translate(0.25 0.378)">
    <path id="Caminho_8703" data-name="Caminho 8703" d="M188.36,435.109a1.29,1.29,0,1,1-1.29,1.29A1.29,1.29,0,0,1,188.36,435.109Zm0,1.935a.645.645,0,1,0-.645-.645A.645.645,0,0,0,188.36,437.044Zm0,0" transform="translate(-173.67 -425.74)" fill="#ff7d00"/>
    <path id="Caminho_8704" data-name="Caminho 8704" d="M6.461,5.369a3.667,3.667,0,1,1,6.5,0,6.821,6.821,0,0,1,.829.128,3.012,3.012,0,0,1,2.59-1.491.333.333,0,0,1,.333.333v2.6A6.646,6.646,0,0,1,18.9,10.673h1.142a.333.333,0,0,1,.333.333v2.667a.333.333,0,0,1-.333.333H18.729a6.7,6.7,0,0,1-3.021,3.774v1.893a.333.333,0,0,1-.333.333h-3a.333.333,0,0,1-.333-.333v-1H7.375v1a.333.333,0,0,1-.333.333h-3a.333.333,0,0,1-.333-.333V17.78a6.661,6.661,0,0,1-3.3-5.156,1.317,1.317,0,0,1-.033-.284v-.333A6.673,6.673,0,0,1,6.461,5.369ZM9.708.673a3,3,0,1,0,3,3A3,3,0,0,0,9.708.673ZM1.064,12.5a.667.667,0,0,0,1.311-.164v-.333h.667v.333a1.333,1.333,0,0,1-1.333,1.333,1.317,1.317,0,0,1-.454-.085,6,6,0,0,0,2.946,3.7.333.333,0,0,1,.175.294v1.755H6.708v-1a.333.333,0,0,1,.333-.333h5.333a.333.333,0,0,1,.333.333v1h2.333V17.584a.334.334,0,0,1,.175-.294,6.026,6.026,0,0,0,2.941-3.706.333.333,0,0,1,.322-.245h1.229v-2H18.622a.333.333,0,0,1-.329-.281,5.983,5.983,0,0,0-2.128-3.7.333.333,0,0,1-.123-.258V4.7a2.346,2.346,0,0,0-1.78,1.325.333.333,0,0,1-.385.182,6.047,6.047,0,0,0-1.347-.192,3.7,3.7,0,0,1-.721.661h1.233V7.34H6.375V6.673H7.607a3.708,3.708,0,0,1-.718-.659,6,6,0,0,0-5.847,5.992C1.042,12.173,1.051,12.339,1.064,12.5Zm0,0" transform="translate(-0.375 0)" fill="#ff7d00" stroke="#ff7d00" stroke-width="0.5"/>
    <path id="Caminho_8705" data-name="Caminho 8705" d="M404.875,78.723v-.645a1.937,1.937,0,0,1,1.935,1.935h-.645A1.29,1.29,0,0,0,404.875,78.723Zm0,0" transform="translate(-395.508 -76.46)" fill="#ff7d00"/>
    <path id="Caminho_8706" data-name="Caminho 8706" d="M500.158,173.365a1.937,1.937,0,0,1-1.935-1.935h.645a1.29,1.29,0,0,0,1.29,1.29Zm0,0" transform="translate(-490.863 -167.744)" fill="#ff7d00"/>
    <path id="Caminho_8707" data-name="Caminho 8707" d="M702.446,3.287a.322.322,0,0,1-.636,0,1.247,1.247,0,0,0-1.025-1.025.323.323,0,0,1,0-.636A1.247,1.247,0,0,0,701.81.6a.322.322,0,0,1,.636,0,1.248,1.248,0,0,0,1.025,1.025.323.323,0,0,1,0,.636A1.248,1.248,0,0,0,702.446,3.287Zm-.318-1.8a1.888,1.888,0,0,1-.46.461.461.461,0,1,0,.921,0A1.9,1.9,0,0,1,702.128,1.483Zm0,0" transform="translate(-698.903 -0.325)" fill="#ff7d00"/>
  </g>
</svg>
