<svg height="67.531" viewBox="0 0 90.041 67.531" width="90.041" xmlns="http://www.w3.org/2000/svg"><path d="m79.723 110.2h-69.406a10.326 10.326 0 0 1 -10.317-10.319v-46.9a10.325 10.325 0 0 1 10.317-10.313h49.292a2.814 2.814 0 0 1 0 5.628h-49.292a4.7 4.7 0 0 0 -4.69 4.689v46.9a4.7 4.7 0 0 0 4.69 4.69h69.406a4.7 4.7 0 0 0 4.69-4.69v-46.9a4.7 4.7 0 0 0 -4.69-4.689h-22.51a2.814 2.814 0 0 1 0-5.628h22.51a10.325 10.325 0 0 1 10.318 10.317v46.9a10.326 10.326 0 0 1 -10.318 10.315zm0 0" fill="#001f40" transform="translate(0 -42.668)"/><path d="m116.047 168.091a9.379 9.379 0 1 1 9.379-9.379 9.392 9.392 0 0 1 -9.379 9.379zm0-13.131a3.752 3.752 0 1 0 3.751 3.752 3.758 3.758 0 0 0 -3.751-3.752zm0 0" fill="#ff7d00" transform="translate(-87.909 -130.574)"/><path d="m94.951 292.339a2.815 2.815 0 0 1 -2.814-2.814v-1.876a4.7 4.7 0 0 0 -4.69-4.69h-13.13a4.7 4.7 0 0 0 -4.69 4.69v1.876a2.814 2.814 0 1 1 -5.628 0v-1.876a10.326 10.326 0 0 1 10.317-10.317h13.13a10.326 10.326 0 0 1 10.317 10.317v1.876a2.815 2.815 0 0 1 -2.812 2.814zm0 0" fill="#ff7d00" transform="translate(-52.745 -236.064)"/><g fill="#001f40"><path d="m322.116 165.628h-20.634a2.814 2.814 0 1 1 0-5.628h20.634a2.814 2.814 0 0 1 0 5.628zm0 0" transform="translate(-246.144 -139.366)"/><path d="m322.116 250.96h-20.634a2.814 2.814 0 1 1 0-5.628h20.634a2.814 2.814 0 0 1 0 5.628zm0 0" transform="translate(-246.144 -209.691)"/><path d="m322.116 336.3h-20.634a2.814 2.814 0 1 1 0-5.628h20.634a2.814 2.814 0 0 1 0 5.628zm0 0" transform="translate(-246.144 -280.02)"/></g></svg>