<svg height="69.565" viewBox="0 0 48.913 69.565" width="48.913" xmlns="http://www.w3.org/2000/svg"><path d="m189.645.61a2.046 2.046 0 0 0 -1.453-.61h-17.08a2.037 2.037 0 0 0 -2.032 1.973v1.488a2.037 2.037 0 0 0 2.032 1.973h9.964l-27.887 27.881a1.958 1.958 0 0 0 0 2.769l1.052 1.051a1.944 1.944 0 0 0 1.386.572 2.015 2.015 0 0 0 1.417-.573l27.8-27.766v9.732a2.036 2.036 0 0 0 1.9 2.1h1.488a2.121 2.121 0 0 0 1.429-.645 2.155 2.155 0 0 0 .619-1.454v-17.09a1.984 1.984 0 0 0 -.635-1.401z" fill="#001f40" transform="translate(-141.363)"/><path d="m110.575 228.33a1.934 1.934 0 0 0 -.573-1.382l-1.053-1.049a1.955 1.955 0 0 0 -2.727 0l-27.755 27.801v-9.73a2.185 2.185 0 0 0 -2.052-2.12h-1.488a2.051 2.051 0 0 0 -1.895 2.12v17.085a1.887 1.887 0 0 0 .556 1.391 1.866 1.866 0 0 0 1.377.6h17.078a2.161 2.161 0 0 0 2.184-1.952v-1.489a2.2 2.2 0 0 0 -2.184-1.994h-9.964l27.921-27.904a1.929 1.929 0 0 0 .575-1.377z" fill="#ff7d00" transform="translate(-73.032 -193.483)"/></svg>