<svg xmlns="http://www.w3.org/2000/svg" width="29.383" height="29.868" viewBox="0 0 29.383 29.868">
  <g id="Grupo_7704" data-name="Grupo 7704" transform="translate(0.5 0.746)">
    <path id="Caminho_7296" data-name="Caminho 7296" d="M153.323,368.4a5.476,5.476,0,0,0-.755.007.826.826,0,0,1-.757-.319c-.948-.968-1.913-1.918-2.869-2.878a4.313,4.313,0,0,1,0-6.205c.993-1,1.992-1.987,2.981-2.988a.61.61,0,0,1,.518-.208c.722.039,1.448-.04,2.17.044a2.917,2.917,0,0,1,1.759.9q2.057,2.063,4.12,4.121a2.024,2.024,0,0,0,3.018,0q2.063-2.057,4.119-4.122a3.029,3.029,0,0,1,2.233-.92c.493,0,.987,0,1.48-.017a.364.364,0,0,1,.3.136c1.054,1.055,2.121,2.1,3.159,3.166a4.3,4.3,0,0,1-.012,6c-1.034,1.06-2.092,2.1-3.136,3.145a.41.41,0,0,1-.356.139c-.617-.043-1.237.026-1.855-.04a2.909,2.909,0,0,1-1.8-.881q-2.034-2.042-4.075-4.077a2.065,2.065,0,0,0-3.118-.009c-1.307,1.307-2.628,2.6-3.914,3.925a3.281,3.281,0,0,1-2.642,1.085C153.7,368.388,153.512,368.4,153.323,368.4Z" transform="translate(-147.626 -347.911)" fill="none" stroke="#ff7d00" stroke-width="1"/>
    <path id="Caminho_7297" data-name="Caminho 7297" d="M301.314,151.487a2.085,2.085,0,0,0,.253-.188q2.529-2.524,5.055-5.051a4.314,4.314,0,0,1,6.27.006q2.527,2.526,5.052,5.054a.652.652,0,0,1,.226.286,5.626,5.626,0,0,0-1.531.128,4.121,4.121,0,0,0-1.862,1.064q-2.072,2.068-4.141,4.14a.84.84,0,0,1-1.4,0c-1.306-1.306-2.623-2.6-3.914-3.922a4.278,4.278,0,0,0-3.427-1.416c-.174.01-.349,0-.524,0Z" transform="translate(-295.562 -144.9)" fill="none" stroke="#ff7d00" stroke-width="1"/>
    <path id="Caminho_7298" data-name="Caminho 7298" d="M319.05,577.932c-.123.13-.2.213-.276.292q-2.516,2.517-5.033,5.034a4.316,4.316,0,0,1-6.317-.009q-2.506-2.506-5.01-5.012a.717.717,0,0,1-.234-.3c.261,0,.507-.005.753,0a4.063,4.063,0,0,0,3.075-1.277q2.018-2.013,4.032-4.031c.538-.538.927-.535,1.473.012,1.307,1.307,2.624,2.6,3.917,3.923a4.227,4.227,0,0,0,3.294,1.364C318.806,577.929,318.89,577.932,319.05,577.932Z" transform="translate(-296.395 -556.24)" fill="none" stroke="#ff7d00" stroke-width="1"/>
  </g>
</svg>
