<svg xmlns="http://www.w3.org/2000/svg" width="11.829" height="20.299" viewBox="0 0 11.829 20.299">
  <g id="Grupo_7590" data-name="Grupo 7590" transform="translate(0.15 0.149)">
    <path id="Caminho_9302" data-name="Caminho 9302" d="M2306.547,769.4a2.049,2.049,0,0,0-.047-.542,1.464,1.464,0,0,0-1.516-1.122h-8.376a1.471,1.471,0,0,0-1.581,1.567q0,8.436,0,16.873a1.617,1.617,0,0,0,.162.754,1.56,1.56,0,0,0,1.107.806h8.982a1.587,1.587,0,0,0,1.277-1.755C2306.539,780.451,2306.547,774.924,2306.547,769.4Zm-.582,15.013c-.012.579,0,1.159,0,1.738a.9.9,0,0,1-1,1H2296.6a.894.894,0,0,1-.991-.989c0-.592,0-1.185,0-1.777,0-.143.043-.173.174-.167.221.011.443.006.664,0s.336-.123.331-.3-.128-.278-.33-.283-.417-.012-.624,0c-.164.011-.216-.026-.215-.206.008-2.1.005-4.192.005-6.288s0-4.192,0-6.288c0-.144.024-.195.185-.194q4.989.008,9.977,0c.145,0,.194.027.194.186q-.007,6.3,0,12.6c0,.173-.055.194-.207.193q-3.963-.007-7.927,0a1.116,1.116,0,0,0-.214.008.288.288,0,0,0,0,.569,1.15,1.15,0,0,0,.214.008q3.964,0,7.927,0C2305.917,784.213,2305.969,784.242,2305.965,784.41Zm-.006-14.4c0,.113-.093.067-.145.068-.456,0-.911,0-1.367,0h-3.671c-1.66,0-3.319,0-4.979,0-.154,0-.2-.04-.189-.191.015-.253,0-.508.016-.761a.858.858,0,0,1,.846-.808c.039,0,.078,0,.117,0h8.4a.879.879,0,0,1,.942.656A5.091,5.091,0,0,1,2305.959,770.007Z" transform="translate(-2295.025 -767.733)" fill="#ff7d00" stroke="#ff7d00" stroke-width="0.3"/>
    <path id="Caminho_9303" data-name="Caminho 9303" d="M2395.968,1116.636a1.029,1.029,0,1,0,1,1.058A1.028,1.028,0,0,0,2395.968,1116.636Zm-.015,1.37a.341.341,0,1,1,.33-.343A.347.347,0,0,1,2395.953,1118.006Z" transform="translate(-2390.184 -1100.07)" fill="#ff7d00" stroke="#ff7d00" stroke-width="0.3"/>
    <path id="Caminho_9304" data-name="Caminho 9304" d="M2408.574,791.65c-.435-.007-.87-.006-1.3,0a.344.344,0,1,0,0,.684c.213.006.427,0,.641,0s.443.005.664,0a.342.342,0,1,0,0-.683Z" transform="translate(-2401.586 -790.273)" fill="#ff7d00" stroke="#ff7d00" stroke-width="0.3"/>
    <path id="Caminho_9305" data-name="Caminho 9305" d="M2383.31,791.738a.341.341,0,1,0,.332.34A.344.344,0,0,0,2383.31,791.738Z" transform="translate(-2378.704 -790.361)" fill="#ff7d00" stroke="#ff7d00" stroke-width="0.3"/>
  </g>
</svg>
