<svg xmlns="http://www.w3.org/2000/svg" width="22.869" height="32.525" viewBox="0 0 22.869 32.525">
  <g id="transfer" transform="translate(0 0)">
    <g id="Grupo_6103" data-name="Grupo 6103" transform="translate(5.261 0)">
      <g id="Grupo_6102" data-name="Grupo 6102" transform="translate(0)">
        <path id="Caminho_7281" data-name="Caminho 7281" d="M169.929.285A.957.957,0,0,0,169.25,0h-7.986a.952.952,0,0,0-.95.923v.7a.952.952,0,0,0,.95.923h4.659L152.884,15.577a.915.915,0,0,0,0,1.295l.492.491a.909.909,0,0,0,.648.268.942.942,0,0,0,.662-.268l13-12.982V8.929a.952.952,0,0,0,.888.981h.7a.991.991,0,0,0,.668-.3,1.007,1.007,0,0,0,.289-.68V.94A.928.928,0,0,0,169.929.285Z" transform="translate(-152.616)" fill="#272626"/>
      </g>
    </g>
    <g id="Grupo_6105" data-name="Grupo 6105" transform="translate(0 14.897)">
      <g id="Grupo_6104" data-name="Grupo 6104">
        <path id="Caminho_7282" data-name="Caminho 7282" d="M90.585,226.741a.9.9,0,0,0-.268-.646l-.492-.49a.914.914,0,0,0-1.275,0l-12.977,13v-4.549a1.022,1.022,0,0,0-.959-.991h-.7a.959.959,0,0,0-.886.991v7.988a.882.882,0,0,0,.26.65.872.872,0,0,0,.644.281h7.985a1.01,1.01,0,0,0,1.021-.913v-.7a1.026,1.026,0,0,0-1.021-.932H77.262l13.056-13.048A.9.9,0,0,0,90.585,226.741Z" transform="translate(-73.032 -225.346)" fill="#ff7d00"/>
      </g>
    </g>
  </g>
</svg>
