<svg id="Componente_36_1" data-name="Componente 36 – 1" xmlns="http://www.w3.org/2000/svg" xmlns:xlink="http://www.w3.org/1999/xlink" width="179.971" height="213.879" viewBox="0 0 179.971 213.879">
  <defs>
    <linearGradient id="linear-gradient" x1="-161.258" y1="52.376" x2="-161.214" y2="52.429" gradientUnits="objectBoundingBox">
      <stop offset="0" stop-color="#fff"/>
      <stop offset="1" stop-color="#fff" stop-opacity="0"/>
    </linearGradient>
    <linearGradient id="linear-gradient-2" x1="-159.985" y1="52.572" x2="-159.957" y2="52.504" xlink:href="#linear-gradient"/>
  </defs>
  <g id="Grupo_8085" data-name="Grupo 8085" transform="translate(-1053.439 -158.193)">
    <g id="Grupo_8137" data-name="Grupo 8137">
      <path id="Caminho_13069" data-name="Caminho 13069" d="M1178.865,151.631l-86.973-.418a14.1,14.1,0,0,0-14.123,13.994l-.885,185.348a14.1,14.1,0,0,0,13.99,14.123l86.971.414a14.1,14.1,0,0,0,14.126-13.988l.884-185.35A14.1,14.1,0,0,0,1178.865,151.631Z" transform="translate(40.555 6.98)" fill="#333"/>
      <path id="Caminho_13070" data-name="Caminho 13070" d="M1178.381,160.1l-91.609-.439a6.171,6.171,0,0,0-6.182,6.12l-.762,159.611a6.175,6.175,0,0,0,6.124,6.178l91.609.439a6.166,6.166,0,0,0,6.176-6.12l.762-159.609A6.165,6.165,0,0,0,1178.381,160.1Z" transform="translate(43.28 14.797)" fill="#fff"/>
      <path id="Caminho_13071" data-name="Caminho 13071" d="M1137.115,253.514l-38.261-.185a4.176,4.176,0,0,0-4.182,4.145h0a4.173,4.173,0,0,0,4.145,4.183l38.262.183a4.172,4.172,0,0,0,4.179-4.143h0A4.169,4.169,0,0,0,1137.115,253.514Z" transform="translate(57.011 101.449)" fill="#666280"/>
      <path id="Caminho_13072" data-name="Caminho 13072" d="M1125.871,155.232l-23.486-.112a2.561,2.561,0,0,0-2.568,2.545h0a2.561,2.561,0,0,0,2.541,2.566l23.489.112a2.562,2.562,0,0,0,2.568-2.543v0A2.563,2.563,0,0,0,1125.871,155.232Z" transform="translate(61.771 10.595)" fill="#666280"/>
      <path id="Retângulo_3130" data-name="Retângulo 3130" d="M1.8,0H81.813a1.8,1.8,0,0,1,1.8,1.8V67.657a1.8,1.8,0,0,1-1.8,1.8H1.8a1.8,1.8,0,0,1-1.8-1.8V1.8A1.8,1.8,0,0,1,1.8,0Z" transform="translate(1133.636 205.319)" fill="#515151"/>
      <path id="Retângulo_3131" data-name="Retângulo 3131" d="M1.669,0H81.948a1.669,1.669,0,0,1,1.669,1.669v8.31a1.668,1.668,0,0,1-1.668,1.668H1.67A1.67,1.67,0,0,1,0,9.977V1.669A1.669,1.669,0,0,1,1.669,0Z" transform="translate(1133.636 191.238)" fill="#515151"/>
      <g id="Grupo_8082" data-name="Grupo 8082" transform="translate(1196.146 195.758)">
        <path id="Caminho_13073" data-name="Caminho 13073" d="M1119.073,173.333a1.3,1.3,0,1,0-1.306-1.305A1.3,1.3,0,0,0,1119.073,173.333Z" transform="translate(-1117.768 -170.726)" fill="#fff"/>
        <path id="Caminho_13074" data-name="Caminho 13074" d="M1122.462,173.333a1.3,1.3,0,1,0-1.3-1.305A1.306,1.306,0,0,0,1122.462,173.333Z" transform="translate(-1114.631 -170.726)" fill="#fff"/>
        <path id="Caminho_13075" data-name="Caminho 13075" d="M1125.854,173.333a1.3,1.3,0,1,0-1.305-1.305A1.308,1.308,0,0,0,1125.854,173.333Z" transform="translate(-1111.495 -170.726)" fill="#fff"/>
      </g>
      <path id="Retângulo_3132" data-name="Retângulo 3132" d="M1.669,0H81.948a1.669,1.669,0,0,1,1.669,1.669V9.978a1.669,1.669,0,0,1-1.669,1.669H1.67A1.67,1.67,0,0,1,0,9.977V1.669A1.669,1.669,0,0,1,1.669,0Z" transform="translate(1133.636 282.922)" fill="#d5d5d5"/>
      <path id="Retângulo_3133" data-name="Retângulo 3133" d="M1.67,0H81.948a1.669,1.669,0,0,1,1.669,1.669V9.98a1.669,1.669,0,0,1-1.669,1.669H1.669A1.669,1.669,0,0,1,0,9.98V1.67A1.67,1.67,0,0,1,1.67,0Z" transform="translate(1133.636 304.038)" fill="#d5d5d5"/>
      <path id="Retângulo_3134" data-name="Retângulo 3134" d="M1.669,0H81.948a1.669,1.669,0,0,1,1.669,1.669V9.979a1.669,1.669,0,0,1-1.669,1.669H1.67A1.67,1.67,0,0,1,0,9.979V1.669A1.669,1.669,0,0,1,1.669,0Z" transform="translate(1133.636 325.154)" fill="#d5d5d5"/>
      <path id="Retângulo_3135" data-name="Retângulo 3135" d="M2.463,0H43.208a2.463,2.463,0,0,1,2.463,2.463v39.95a2.463,2.463,0,0,1-2.463,2.463H2.462A2.462,2.462,0,0,1,0,42.414V2.463A2.463,2.463,0,0,1,2.463,0Z" transform="translate(1152.61 216.233)" fill="#fff"/>
      <g id="Grupo_6106" data-name="Grupo 6106" transform="translate(1160.896 223.337)">
        <path id="Caminho_7283" data-name="Caminho 7283" d="M1104.7,198.9a12.728,12.728,0,0,1,5.513-6.443c4.212-2.507,9.029-2.416,11.986-.09a13.244,13.244,0,0,0-.608-1.257c-3.024-5.448-9.329-7.62-14.078-4.847-3.945,2.3-5.577,7.287-4.285,12.032a.969.969,0,0,0,1.473.606Z" transform="translate(-1096.374 -185.052)" fill="#272626"/>
        <path id="Caminho_7284" data-name="Caminho 7284" d="M1108.09,190.367a12.591,12.591,0,0,1,6.287,5.654c2.451,4.316,2.356,9.256.089,12.286a12.17,12.17,0,0,0,1.224-.624c5.315-3.1,7.433-9.562,4.728-14.433a10.027,10.027,0,0,0-11.736-4.393,1,1,0,0,0-.712,1.232A1.04,1.04,0,0,0,1108.09,190.367Z" transform="translate(-1091.614 -181.993)" fill="#ff7d00"/>
        <path id="Caminho_7285" data-name="Caminho 7285" d="M1119.115,193.865a12.723,12.723,0,0,1-5.516,6.443c-4.21,2.506-9.029,2.416-11.984.091a12.792,12.792,0,0,0,.608,1.257c3.024,5.448,9.327,7.62,14.078,4.847,3.943-2.3,5.575-7.287,4.283-12.03a.967.967,0,0,0-1.47-.608Z" transform="translate(-1097.461 -177.042)" fill="#272626"/>
        <path id="Caminho_7286" data-name="Caminho 7286" d="M1112.963,205.252a12.6,12.6,0,0,1-6.287-5.652c-2.451-4.318-2.356-9.258-.089-12.288a12.215,12.215,0,0,0-1.226.624c-5.313,3.1-7.431,9.562-4.726,14.431a10.026,10.026,0,0,0,11.736,4.4,1.009,1.009,0,0,0,.712-1.234A1.125,1.125,0,0,0,1112.963,205.252Z" transform="translate(-1099.458 -182.961)" fill="#ff7d00"/>
        <path id="Caminho_7287" data-name="Caminho 7287" d="M1108.09,190.367a12.591,12.591,0,0,1,6.287,5.654c2.451,4.316,2.356,9.256.089,12.286a12.17,12.17,0,0,0,1.224-.624c5.315-3.1,7.433-9.562,4.728-14.433a10.027,10.027,0,0,0-11.736-4.393,1,1,0,0,0-.712,1.232A1.04,1.04,0,0,0,1108.09,190.367Z" transform="translate(-1091.614 -181.993)" fill="url(#linear-gradient)"/>
        <path id="Caminho_7295" data-name="Caminho 7295" d="M1112.963,205.252a12.6,12.6,0,0,1-6.287-5.652c-2.451-4.318-2.356-9.258-.089-12.288a12.215,12.215,0,0,0-1.226.624c-5.313,3.1-7.431,9.562-4.726,14.431a10.026,10.026,0,0,0,11.736,4.4,1.009,1.009,0,0,0,.712-1.234A1.125,1.125,0,0,0,1112.963,205.252Z" transform="translate(-1099.458 -182.961)" fill="url(#linear-gradient-2)"/>
      </g>
    </g>
  </g>
  <g id="Grupo_8138" data-name="Grupo 8138" transform="translate(-1055.909 -158.193)">
    <path id="Caminho_13076" data-name="Caminho 13076" d="M1054.407,162.189h71.8a9.508,9.508,0,0,1,9.483,9.479V238.56a1.06,1.06,0,0,1-1.809.749l-16.156-16.158h-63.321a9.512,9.512,0,0,1-9.485-9.483v-42A9.509,9.509,0,0,1,1054.407,162.189Z" transform="translate(10.987 17.134)" fill="#ff7d00"/>
    <path id="Caminho_13065" data-name="Caminho 13065" d="M946.885,191.243a26.217,26.217,0,0,1-10.464-2.8v-9.47a33.309,33.309,0,0,0,6.249,2.8,19.129,19.129,0,0,0,5.922,1.128,6.243,6.243,0,0,0,3.087-.582,2.3,2.3,0,0,0,.272-3.55,10.237,10.237,0,0,0-2.352-1.478c-1.1-.556-2.589-1.219-4.449-1.994a19.477,19.477,0,0,1-5.086-3.009,10.432,10.432,0,0,1-2.818-3.734,13.31,13.31,0,0,1-.879-5.141A9.973,9.973,0,0,1,939,156.066q2.632-2.655,7.888-3.278v-3.91h5.124v3.855a25.9,25.9,0,0,1,9.943,2.79l-2.943,8.113a20.844,20.844,0,0,0-9.349-2.677,5.22,5.22,0,0,0-2.795.554,1.872,1.872,0,0,0-.8,1.644,2.175,2.175,0,0,0,.582,1.548,8.14,8.14,0,0,0,2.022,1.37,39.666,39.666,0,0,0,3.986,1.75c3.46,1.41,5.94,3,7.435,4.8a10.419,10.419,0,0,1,2.258,6.944,11.364,11.364,0,0,1-2.639,7.793,12.1,12.1,0,0,1-7.7,3.7v5.486h-5.124Z" transform="translate(152.182 34.845)" fill="#fff"/>
  </g>
</svg>
