<svg id="Componente_37_1" data-name="Componente 37 – 1" xmlns="http://www.w3.org/2000/svg" width="205.817" height="209.917" viewBox="0 0 205.817 209.917">
  <path id="Caminho_13082" data-name="Caminho 13082" d="M1350.018,298.211a63.548,63.548,0,1,0-63.551-63.548A63.67,63.67,0,0,0,1350.018,298.211Z" transform="translate(-1210.92 -171.115)" fill="#efb941"/>
  <path id="Caminho_13083" data-name="Caminho 13083" d="M1347.388,175.307a56.726,56.726,0,1,1-40.114,16.615,56.553,56.553,0,0,1,40.114-16.615Zm38.74,17.985a54.787,54.787,0,1,0,16.049,38.742A54.608,54.608,0,0,0,1386.128,193.292Z" transform="translate(-1208.291 -168.486)" fill="#dd9d1d"/>
  <path id="Caminho_13084" data-name="Caminho 13084" d="M1331.587,252.389V230.716q-10.111-2.89-14.808-8.755a22.06,22.06,0,0,1-4.722-14.26,20.2,20.2,0,0,1,5.342-14.256q5.335-5.787,14.188-6.653V181.7h7.537v5.094q8.276.984,13.178,5.626a21.722,21.722,0,0,1,6.245,12.418l-13.161,1.7q-1.223-6.1-6.261-8.278v20.219c8.332,2.229,14.01,5.146,17.017,8.7q4.537,5.357,4.528,13.742a22.9,22.9,0,0,1-5.7,15.782q-5.7,6.419-15.849,7.994v9.66h-7.537V264.8a24.04,24.04,0,0,1-14.505-6.616c-3.734-3.7-6.1-8.934-7.148-15.673l13.48-1.593a17.082,17.082,0,0,0,3.111,7.13,14.218,14.218,0,0,0,5.062,4.336Zm0-54.344a9.731,9.731,0,0,0-4.813,3.573,9.214,9.214,0,0,0-1.767,5.482,8.846,8.846,0,0,0,1.608,5.1,11.281,11.281,0,0,0,4.972,3.788V198.045Zm7.537,55.193a11.236,11.236,0,0,0,6.349-3.716,10.007,10.007,0,0,0,2.46-6.759,9.056,9.056,0,0,0-2.07-5.96c-1.364-1.682-3.61-2.955-6.739-3.858Z" transform="translate(-1196.206 -164.479)" fill="#dd9d1d"/>
  <path id="Retângulo_3136" data-name="Retângulo 3136" d="M4.534,0H148.392a4.535,4.535,0,0,1,4.535,4.535V92.222a4.534,4.534,0,0,1-4.534,4.534H4.535A4.535,4.535,0,0,1,0,92.221V4.534A4.534,4.534,0,0,1,4.534,0Z" transform="translate(0 70.931)" fill="#333"/>
  <path id="Caminho_13085" data-name="Caminho 13085" d="M1291.037,292.348h-25.763L1277.1,245.2l22.248,1.837Z" transform="translate(-1224.21 -124.661)" fill="#333"/>
  <rect id="Retângulo_3137" data-name="Retângulo 3137" width="152.927" height="19.947" transform="translate(0 84.864)" fill="#f8f1ef"/>
  <path id="Retângulo_3138" data-name="Retângulo 3138" d="M4.535,0H148.392a4.535,4.535,0,0,1,4.535,4.535V92.223a4.536,4.536,0,0,1-4.536,4.536H4.535A4.535,4.535,0,0,1,0,92.224V4.535A4.535,4.535,0,0,1,4.535,0Z" transform="translate(52.889 113.158)" fill="#ff7d00"/>
  <rect id="Retângulo_3139" data-name="Retângulo 3139" width="152.927" height="19.269" transform="translate(52.889 161.126)" fill="#ecdcdb"/>
  <path id="Retângulo_3140" data-name="Retângulo 3140" d="M2.9,0H40.766a2.9,2.9,0,0,1,2.9,2.9V26.155a2.9,2.9,0,0,1-2.9,2.9H2.9a2.9,2.9,0,0,1-2.9-2.9V2.9A2.9,2.9,0,0,1,2.9,0Z" transform="translate(61.294 125.692)" fill="#f8f1ef"/>
  <path id="Caminho_13086" data-name="Caminho 13086" d="M1302.158,248.366h1.936v9.582a3.727,3.727,0,0,0,1.1,2.642l0,0a3.738,3.738,0,0,0,2.646,1.095h13.531v1.94h-13.531a5.681,5.681,0,0,1-4.011-1.668l0,0a5.679,5.679,0,0,1-1.668-4.009v-9.582Zm-6.264,29.053h-1.935v-14.3a3.759,3.759,0,0,0-3.747-3.742h-12.5v-1.939h12.5a5.7,5.7,0,0,1,5.682,5.682Z" transform="translate(-1216.413 -122.674)" fill="#e9ca7e"/>
  <path id="Caminho_13087" data-name="Caminho 13087" d="M1279.025,285.893h24.393a1.953,1.953,0,0,1,1.948,1.946h0a1.953,1.953,0,0,1-1.948,1.949h-24.393a1.953,1.953,0,0,1-1.948-1.949h0A1.953,1.953,0,0,1,1279.025,285.893Z" transform="translate(-1216.809 -99.143)" fill="#333"/>
  <path id="Caminho_13088" data-name="Caminho 13088" d="M1300.822,285.893h66.623a1.953,1.953,0,0,1,1.948,1.946h0a1.953,1.953,0,0,1-1.948,1.949h-66.623a1.952,1.952,0,0,1-1.948-1.949h0A1.952,1.952,0,0,1,1300.822,285.893Z" transform="translate(-1203.141 -99.143)" fill="#333"/>
  <path id="Retângulo_3141" data-name="Retângulo 3141" d="M2.645,0H23.8a2.645,2.645,0,0,1,2.645,2.645V15.6A2.645,2.645,0,0,1,23.8,18.244H2.647A2.647,2.647,0,0,1,0,15.6V2.645A2.645,2.645,0,0,1,2.645,0Z" transform="translate(173.221 186.751)" fill="#333"/>
  <path id="Caminho_13089" data-name="Caminho 13089" d="M1279.025,292.193h66.623a1.954,1.954,0,0,1,1.949,1.944h0a1.955,1.955,0,0,1-1.949,1.951h-66.623a1.954,1.954,0,0,1-1.948-1.951h0A1.952,1.952,0,0,1,1279.025,292.193Z" transform="translate(-1216.809 -95.192)" fill="#333"/>
  <path id="Caminho_13090" data-name="Caminho 13090" d="M1327.658,292.193h12.709a1.951,1.951,0,0,1,1.948,1.944h0a1.953,1.953,0,0,1-1.948,1.951h-12.709a1.953,1.953,0,0,1-1.948-1.951h0A1.951,1.951,0,0,1,1327.658,292.193Z" transform="translate(-1186.312 -95.192)" fill="#333"/>
  <path id="Retângulo_3142" data-name="Retângulo 3142" d="M2.645,0H23.8a2.645,2.645,0,0,1,2.645,2.645V15.6A2.645,2.645,0,0,1,23.8,18.244H2.647A2.647,2.647,0,0,1,0,15.6V2.645A2.645,2.645,0,0,1,2.645,0Z" transform="translate(13.02 114.827)" fill="#e9ca7e"/>
</svg>
