<svg id="Componente_38_1" data-name="Componente 38 – 1" xmlns="http://www.w3.org/2000/svg" width="336.783" height="285.777" viewBox="0 0 336.783 285.777">
  <path id="Caminho_13020" data-name="Caminho 13020" d="M933.794,233s11.586,3.584,18.211,20.062c5.223,13,16.367,48.122,22.82,69.533h-37c-5.372-11.723-10.531-21.983-10.531-21.983C920.827,277.267,921.218,253.952,933.794,233Z" transform="translate(-703.124 -42.092)" fill="#515151"/>
  <path id="Caminho_13021" data-name="Caminho 13021" d="M932.623,284.6c-1.7-3.708-3.377-7.268-4.877-10.408.335-4.6.551-7.449.589-7.665.115-.642,4.207,8.45,8.386,18.073Z" transform="translate(-697.925 -4.095)" fill="#497ab6"/>
  <path id="Caminho_13022" data-name="Caminho 13022" d="M939.69,243.253l-3.206.442-1.983,1.558-1.985-1.558-3.206-.442-18.886-17.035-41.018,19.093-2.043,45.247c.811,11.934,2.053,25.776,3.443,39.74H998.113c1.434-13.964,2.713-27.806,3.526-39.74L999.6,245.311l-41.021-19.093Z" transform="translate(-766.429 -49.791)" fill="#333"/>
  <path id="Caminho_13023" data-name="Caminho 13023" d="M908.531,239.754l.886,5.415,4.653,69.771H894.151L898.8,245.17l.884-5.415,4.423,3.3Z" transform="translate(-736.039 -34.434)" fill="#ff7d00"/>
  <path id="Caminho_13024" data-name="Caminho 13024" d="M909.335,209.4h0a19.847,19.847,0,0,1,19.789,19.789v16.073a19.847,19.847,0,0,1-19.789,19.787h0a19.845,19.845,0,0,1-19.789-19.787V229.185A19.846,19.846,0,0,1,909.335,209.4Z" transform="translate(-741.262 -68.875)" fill="#e3bac7"/>
  <path id="Caminho_13025" data-name="Caminho 13025" d="M928.107,216.446a19.627,19.627,0,0,1,1.016,6.241v16.073a19.7,19.7,0,0,1-.559,4.653c-1.274,1.01-2.1,1.652-2.1,1.652l-36.922-14.44v-7.938a19.566,19.566,0,0,1,1.513-7.562C897.87,215.1,915.67,215.647,928.107,216.446Z" transform="translate(-741.262 -62.377)" fill="#ce6c98"/>
  <path id="Caminho_13026" data-name="Caminho 13026" d="M898,234.728l1.919-.322a1.909,1.909,0,0,1,.433,1.1c.053.694.1,2.728.1,2.728l-1.469.525a21.844,21.844,0,0,1-2.875-.043C896.128,238.587,898,234.728,898,234.728Z" transform="translate(-733.827 -40.502)" fill="#2e2450"/>
  <path id="Caminho_13027" data-name="Caminho 13027" d="M901.946,234.728l-1.919-.322a1.925,1.925,0,0,0-.433,1.1c-.053.694-.1,2.728-.1,2.728l1.466.525a21.875,21.875,0,0,0,2.877-.043C903.814,238.587,901.946,234.728,901.946,234.728Z" transform="translate(-729.972 -40.502)" fill="#2e2450"/>
  <path id="Caminho_13028" data-name="Caminho 13028" d="M898.55,249.448l-4.177-10.534c3.614-3.906,15.358-3.906,18.969,0l-4.177,10.534A21.283,21.283,0,0,0,898.55,249.448Z" transform="translate(-735.786 -38.711)" fill="#ff7d00"/>
  <path id="Caminho_13029" data-name="Caminho 13029" d="M911.91,225.7l38.515,15.283c.756.316,8.286,3.782,9.178,16.3.442,6.169-2.418,39.479-5.588,73.6H907.953l3.219-103.529S911.2,226.15,911.91,225.7Z" transform="translate(-720.38 -50.376)" fill="#515151"/>
  <path id="Caminho_13030" data-name="Caminho 13030" d="M932.849,274.913l-.894,9.688H927.4c.743-10.472,1.268-17.727,1.332-18.073C928.807,266.117,930.525,269.726,932.849,274.913Z" transform="translate(-698.32 -4.095)" fill="#497ab6"/>
  <path id="Caminho_13031" data-name="Caminho 13031" d="M913.2,225.7l-38.512,15.283c-.758.316-8.284,3.782-9.178,16.3-.442,6.169,2.418,39.479,5.586,73.6h46.062l-3.215-103.529S913.91,226.15,913.2,225.7Z" transform="translate(-768.586 -50.376)" fill="#515151"/>
  <path id="Caminho_13032" data-name="Caminho 13032" d="M936.166,235.52c-3.306,10.775-12.563,46.367-3.737,83.033a.554.554,0,0,1-.305.63q-.682-1.476-1.351-2.9c-7.991-36.512,1.33-71.42,4.465-81.518Q935.692,235.121,936.166,235.52Z" transform="translate(-698.075 -40.098)" fill="#2e2450"/>
  <path id="Caminho_13033" data-name="Caminho 13033" d="M891.6,233s-11.586,3.584-18.209,20.062c-5.227,13-16.371,48.122-22.822,69.533h37c5.373-11.723,10.531-21.983,10.531-21.983C904.563,277.267,904.174,253.952,891.6,233Z" transform="translate(-785.483 -42.092)" fill="#515151"/>
  <path id="Caminho_13034" data-name="Caminho 13034" d="M870.079,284.6c1.7-3.708,3.377-7.268,4.877-10.408-.335-4.6-.546-7.449-.589-7.665-.115-.642-4.2,8.45-8.384,18.073Z" transform="translate(-767.994 -4.095)" fill="#497ab6"/>
  <path id="Caminho_13035" data-name="Caminho 13035" d="M867.982,274.913l.892,9.688h4.559c-.745-10.472-1.27-17.727-1.334-18.073C872.025,266.117,870.306,269.726,867.982,274.913Z" transform="translate(-765.726 -4.095)" fill="#497ab6"/>
  <path id="Caminho_13036" data-name="Caminho 13036" d="M866.313,235.52c3.3,10.775,12.561,46.367,3.738,83.033a.547.547,0,0,0,.307.63q.679-1.476,1.347-2.9c7.992-36.512-1.328-71.42-4.465-81.518Q866.785,235.121,866.313,235.52Z" transform="translate(-767.62 -40.098)" fill="#2e2450"/>
  <g id="Grupo_8073" data-name="Grupo 8073" transform="translate(116.628 112.26)">
    <path id="Caminho_13037" data-name="Caminho 13037" d="M882.149,201.029c-.243.068-.482.143-.719.231l-.006,0,0,0a10.187,10.187,0,1,0,8.7.832c.677,2.941.73,6.689-3.016,7.6l-.717-5.829A3.5,3.5,0,0,0,882.149,201.029Z" transform="translate(-874.715 -190.695)" fill="#ce6c98"/>
    <path id="Caminho_13038" data-name="Caminho 13038" d="M917.663,196.156c.254,0,.5,0,.756.021l.009,0v0a10.183,10.183,0,1,1-8.13,3.219c.167,3.016,1.163,6.634,5.016,6.463l-.935-5.8A3.5,3.5,0,0,1,917.663,196.156Z" transform="translate(-837.45 -196.156)" fill="#ce6c98"/>
  </g>
  <path id="Caminho_13039" data-name="Caminho 13039" d="M907.825,175.162h0A34.974,34.974,0,0,0,878.2,214.588l4.459,31.4a34.972,34.972,0,0,0,39.424,29.62h0a34.972,34.972,0,0,0,29.62-39.424l-4.459-31.4A34.971,34.971,0,0,0,907.825,175.162Z" transform="translate(-754.523 -108.105)" fill="#e3bac7"/>
  <path id="Caminho_13044" data-name="Caminho 13044" d="M883.14,240.891s4.86-2.835,3.607-11.667-.943-6.653-1.6-11.261,1.4-13.125,10.743-14.453l16.82-2.388s7.484-1.063,16.826-2.386,13.686,6.28,14.341,10.886.346,2.433,1.6,11.266,6.713,10.2,6.713,10.2c-.995-7,.747-10.058.747-10.058s-1.33-9.37-2.493-17.56-5.027-18.873-16.85-24.894-24.66-4.075-24.66-4.075-12.871,1.7-22.553,10.775-10.418,20.412-9.257,28.6,2.493,17.563,2.493,17.563S882.143,233.888,883.14,240.891Z" transform="translate(-755.825 -108.808)" fill="#2e2450"/>
  <path id="Caminho_13045" data-name="Caminho 13045" d="M872.875,263.954h15.874a1.417,1.417,0,0,1,1.413,1.409h0a1.421,1.421,0,0,1-1.413,1.415H872.875a1.417,1.417,0,0,1-1.411-1.415h0A1.413,1.413,0,0,1,872.875,263.954Z" transform="translate(-761.776 -6.98)" fill="#fff"/>
  <path id="Caminho_13047" data-name="Caminho 13047" d="M917.55,224.825a5.84,5.84,0,0,1,2.295,0c.589.295,2.589,4.354,3.825,6.356a5.387,5.387,0,0,1,.295,4.412c-.824,2.766-11.594,25.481-11.594,25.481s-.762,1.206-2,.03-10.623-15.682-10.623-15.682l17.8-18.775Z" transform="translate(-729.69 -51.518)" fill="#333"/>
  <path id="Caminho_13048" data-name="Caminho 13048" d="M893.117,224.825a5.829,5.829,0,0,0-2.292,0c-.591.295-2.591,4.354-3.827,6.356a5.392,5.392,0,0,0-.3,4.412c.826,2.766,11.6,25.481,11.6,25.481s.762,1.206,2,.03,10.623-15.682,10.623-15.682l-17.8-18.775Z" transform="translate(-744.833 -51.518)" fill="#333"/>
  <rect id="Retângulo_3129" data-name="Retângulo 3129" width="336.783" height="45.123" transform="translate(0 240.654)" fill="#fff"/>
  <g id="Grupo_8080" data-name="Grupo 8080" transform="translate(53.113 227.555)">
    <g id="Grupo_8077" data-name="Grupo 8077" transform="translate(192.462)">
      <path id="Caminho_13050" data-name="Caminho 13050" d="M968.254,268.993a3.732,3.732,0,0,0,2.262.433c1.055-.239,1.7-2.109,2.024-4.023s.512-6.19.664-6.828-.472-2.314-4.843-2.948c0,0-5.872-4.512-6.786-5.033a6.907,6.907,0,0,0-6.122.692s-4.783-.982-6.271-.636a6.751,6.751,0,0,0-2.918,2.2,26.224,26.224,0,0,0-5.6.233c-2.207.423-5.537,10.192-5.537,10.192H945.7c.9,0,3.56,5.52,7.706,2.6,1.829,2.041,5.165,5.311,8.194,1.91C962.28,272.036,967.761,270.16,968.254,268.993Z" transform="translate(-935.127 -250.171)" fill="#e3bac7"/>
      <g id="Grupo_8076" data-name="Grupo 8076" transform="translate(6.67 1.114)">
        <path id="Caminho_13051" data-name="Caminho 13051" d="M950.647,266.093a3,3,0,0,0,.4-1.3c-.019-.581.879-7.7.926-8.508s-.117-2.709-1.223-3.554" transform="translate(-924.19 -248.385)" fill="none" stroke="#d38bac" stroke-linecap="round" stroke-linejoin="round" stroke-width="0.709"/>
        <path id="Caminho_13052" data-name="Caminho 13052" d="M950.8,267.184a4.047,4.047,0,0,0,.519-2.113c-.359-2.743.35-5.663-1.159-8s-4.67-6.184-5.509-6.38" transform="translate(-930.993 -250.693)" fill="none" stroke="#d38bac" stroke-linecap="round" stroke-linejoin="round" stroke-width="0.709"/>
        <path id="Caminho_13053" data-name="Caminho 13053" d="M947.489,264.444a1.851,1.851,0,0,0,.145-2.26c-.818-1.212-1.189-4.282-1.925-5.609s-2.561-4.8-5.364-5.151" transform="translate(-935.878 -249.864)" fill="none" stroke="#d38bac" stroke-linecap="round" stroke-linejoin="round" stroke-width="0.709"/>
        <path id="Caminho_13054" data-name="Caminho 13054" d="M940.606,258.16a5.185,5.185,0,0,1-.937-3.484" transform="translate(-936.7 -246.174)" fill="none" stroke="#d38bac" stroke-linecap="round" stroke-linejoin="round" stroke-width="0.709"/>
        <path id="Caminho_13055" data-name="Caminho 13055" d="M941.245,255.843a12.036,12.036,0,0,0-2.993-1.01" transform="translate(-938.252 -245.996)" fill="none" stroke="#d38bac" stroke-linecap="round" stroke-linejoin="round" stroke-width="0.709"/>
      </g>
    </g>
    <g id="Grupo_8079" data-name="Grupo 8079">
      <path id="Caminho_13056" data-name="Caminho 13056" d="M849.926,268.993a3.725,3.725,0,0,1-2.258.433c-1.059-.239-1.7-2.109-2.026-4.023s-.514-6.19-.664-6.828.472-2.314,4.841-2.948c0,0,5.874-4.512,6.785-5.033a6.911,6.911,0,0,1,6.124.692s4.783-.982,6.271-.636a6.75,6.75,0,0,1,2.918,2.2,26.2,26.2,0,0,1,5.6.233c2.209.423,5.537,10.192,5.537,10.192H872.477c-.9,0-3.558,5.52-7.705,2.6-1.829,2.041-5.166,5.311-8.194,1.91C855.9,272.036,850.419,270.16,849.926,268.993Z" transform="translate(-844.959 -250.171)" fill="#e3bac7"/>
      <g id="Grupo_8078" data-name="Grupo 8078" transform="translate(3.634 1.114)">
        <path id="Caminho_13057" data-name="Caminho 13057" d="M847.995,266.093a3.03,3.03,0,0,1-.4-1.3c.021-.581-.879-7.7-.924-8.508s.12-2.709,1.221-3.554" transform="translate(-846.661 -248.385)" fill="none" stroke="#d38bac" stroke-linecap="round" stroke-linejoin="round" stroke-width="0.709"/>
        <path id="Caminho_13058" data-name="Caminho 13058" d="M850.686,267.184a4.047,4.047,0,0,1-.519-2.113c.359-2.743-.348-5.663,1.159-8s4.67-6.184,5.511-6.38" transform="translate(-842.702 -250.693)" fill="none" stroke="#d38bac" stroke-linecap="round" stroke-linejoin="round" stroke-width="0.709"/>
        <path id="Caminho_13059" data-name="Caminho 13059" d="M854.493,264.444a1.851,1.851,0,0,1-.145-2.26c.822-1.212,1.193-4.282,1.925-5.609s2.563-4.8,5.366-5.151" transform="translate(-838.314 -249.864)" fill="none" stroke="#d38bac" stroke-linecap="round" stroke-linejoin="round" stroke-width="0.709"/>
        <path id="Caminho_13060" data-name="Caminho 13060" d="M857.851,258.16a5.185,5.185,0,0,0,.937-3.484" transform="translate(-833.966 -246.174)" fill="none" stroke="#d38bac" stroke-linecap="round" stroke-linejoin="round" stroke-width="0.709"/>
        <path id="Caminho_13061" data-name="Caminho 13061" d="M858.279,255.843a12.029,12.029,0,0,1,2.995-1.01" transform="translate(-833.481 -245.996)" fill="none" stroke="#d38bac" stroke-linecap="round" stroke-linejoin="round" stroke-width="0.709"/>
      </g>
    </g>
  </g>
  <path id="Caminho_13062" data-name="Caminho 13062" d="M887.417,211.287a44.374,44.374,0,0,0,47.554-5.219s9.669-9.706,14.781-5.836c0,0,2.1-22.126-17.7-22.079,0,0,3.586-3.148,2.574-5.641s-9.341-8.41-26.986.753c0,0-1.3-6.5-7.876-6.619s-24.749,11.966-25.624,26.241C874.138,192.888,873.118,203.49,887.417,211.287Z" transform="translate(-758.76 -117.374)" fill="#2e2450"/>
  <path id="Caminho_13063" data-name="Caminho 13063" d="M1003.974,143.562H929a9.931,9.931,0,0,0-9.9,9.9v69.842a1.105,1.105,0,0,0,1.887.785l16.871-16.875h66.117a9.932,9.932,0,0,0,9.9-9.9V153.466A9.933,9.933,0,0,0,1003.974,143.562Z" transform="translate(-707.735 -143.562)" fill="#ff7d00"/>
  <path id="Caminho_13064" data-name="Caminho 13064" d="M933.941,184.792a22.226,22.226,0,0,1-8.871-2.376v-8.028a28.2,28.2,0,0,0,5.3,2.374,16.193,16.193,0,0,0,5.018.956,5.307,5.307,0,0,0,2.619-.493,1.784,1.784,0,0,0,.833-1.661,1.764,1.764,0,0,0-.6-1.349,8.629,8.629,0,0,0-1.994-1.253c-.933-.472-2.194-1.033-3.772-1.69a16.512,16.512,0,0,1-4.312-2.551,8.892,8.892,0,0,1-2.389-3.165,11.286,11.286,0,0,1-.743-4.359,8.445,8.445,0,0,1,2.228-6.226q2.228-2.251,6.685-2.779v-3.315h4.346v3.268a21.951,21.951,0,0,1,8.427,2.365l-2.5,6.877a17.67,17.67,0,0,0-7.925-2.269,4.411,4.411,0,0,0-2.367.47,1.588,1.588,0,0,0-.681,1.394,1.836,1.836,0,0,0,.5,1.313,6.882,6.882,0,0,0,1.712,1.161,33.862,33.862,0,0,0,3.379,1.483,15.906,15.906,0,0,1,6.305,4.073,8.843,8.843,0,0,1,1.913,5.887,9.633,9.633,0,0,1-2.237,6.606,10.257,10.257,0,0,1-6.525,3.138v4.651h-4.346Z" transform="translate(-701.009 -137.532)" fill="#fff"/>
  <path id="Caminho_13065" data-name="Caminho 13065" d="M945.284,184.792a22.225,22.225,0,0,1-8.871-2.376v-8.028a28.24,28.24,0,0,0,5.3,2.374,16.216,16.216,0,0,0,5.02.956,5.292,5.292,0,0,0,2.617-.493,1.947,1.947,0,0,0,.231-3.01,8.679,8.679,0,0,0-1.994-1.253c-.933-.472-2.194-1.033-3.772-1.69a16.51,16.51,0,0,1-4.312-2.551,8.844,8.844,0,0,1-2.389-3.165,11.283,11.283,0,0,1-.745-4.359,8.454,8.454,0,0,1,2.228-6.226q2.232-2.251,6.687-2.779v-3.315h4.344v3.268a21.959,21.959,0,0,1,8.429,2.365l-2.5,6.877a17.669,17.669,0,0,0-7.925-2.269,4.425,4.425,0,0,0-2.369.47,1.587,1.587,0,0,0-.679,1.394,1.843,1.843,0,0,0,.493,1.313,6.9,6.9,0,0,0,1.714,1.161,33.621,33.621,0,0,0,3.379,1.483,15.881,15.881,0,0,1,6.3,4.073,8.833,8.833,0,0,1,1.915,5.887,9.633,9.633,0,0,1-2.237,6.606,10.257,10.257,0,0,1-6.527,3.138v4.651h-4.344Z" transform="translate(-688.144 -137.532)" fill="#fff"/>
  <path id="Caminho_13066" data-name="Caminho 13066" d="M956.625,184.792a22.226,22.226,0,0,1-8.871-2.376v-8.028a28.181,28.181,0,0,0,5.3,2.374,16.215,16.215,0,0,0,5.02.956,5.3,5.3,0,0,0,2.617-.493,1.947,1.947,0,0,0,.231-3.01,8.673,8.673,0,0,0-1.994-1.253c-.933-.472-2.194-1.033-3.771-1.69a16.511,16.511,0,0,1-4.312-2.551,8.843,8.843,0,0,1-2.388-3.165,11.242,11.242,0,0,1-.745-4.359,8.455,8.455,0,0,1,2.228-6.226q2.228-2.251,6.687-2.779v-3.315h4.344v3.268a21.941,21.941,0,0,1,8.427,2.365l-2.5,6.877a17.662,17.662,0,0,0-7.923-2.269,4.425,4.425,0,0,0-2.369.47,1.587,1.587,0,0,0-.679,1.394,1.843,1.843,0,0,0,.493,1.313,6.9,6.9,0,0,0,1.714,1.161,33.608,33.608,0,0,0,3.379,1.483,15.9,15.9,0,0,1,6.3,4.073,8.833,8.833,0,0,1,1.915,5.887A9.633,9.633,0,0,1,967.5,181.5a10.257,10.257,0,0,1-6.527,3.138v4.651h-4.344Z" transform="translate(-675.278 -137.532)" fill="#fff"/>
</svg>
