<svg id="Componente_39_2" data-name="Componente 39 – 2" xmlns="http://www.w3.org/2000/svg" width="125.542" height="159.013" viewBox="0 0 125.542 159.013">
  <g id="Grupo_8295" data-name="Grupo 8295" transform="translate(0 0)">
    <g id="Grupo_8293" data-name="Grupo 8293">
      <g id="Grupo_8292" data-name="Grupo 8292">
        <g id="Grupo_8291" data-name="Grupo 8291">
          <g id="Grupo_8260" data-name="Grupo 8260" transform="translate(0.153 0.156)">
            <g id="Grupo_8244" data-name="Grupo 8244" transform="translate(111.639 82.722)">
              <path id="Caminho_13284" data-name="Caminho 13284" d="M7284.45,912.942c1.124,3.735.62,5.42-.576,6.475a.778.778,0,0,1-1.254-.368l-.032-.111-4.248-14.114a24.053,24.053,0,0,0-1.779-4.333,24.941,24.941,0,0,0-4.825-6.66.756.756,0,0,1-.171-.222.747.747,0,0,1,.394-1.033c1.017-.4,2.035-.775,2.927-1.09a2.841,2.841,0,0,1,3.669,1.861l.723,2.4c1.382,4.6-.1,4.609,1.068,8.494S7283.062,908.328,7284.45,912.942Z" transform="translate(-7271.484 -891.322)" fill="#fff"/>
            </g>
            <g id="Grupo_8245" data-name="Grupo 8245" transform="translate(102.449 85.01)">
              <path id="Caminho_13285" data-name="Caminho 13285" d="M7208.981,922.088l4.248,14.115h0c-3.729.876-5.445-1.708-7.7-4.249l.037-.031-.068-1.48a7.594,7.594,0,0,0-5.66-7.023,17.668,17.668,0,0,0-3.107-.53,7.13,7.13,0,0,0-.094-3.045c-.919-3.054-3.207-2.891-3.687-4.484a.391.391,0,0,1,.006-.236c.417-1.293,6.7-3.259,9.248-4.251h0a.732.732,0,0,0,.171.222,24.939,24.939,0,0,1,4.824,6.66A24.053,24.053,0,0,1,7208.981,922.088Z" transform="translate(-7192.937 -910.873)" fill="#323433"/>
            </g>
            <g id="Grupo_8246" data-name="Grupo 8246" transform="translate(104.687 97.026)">
              <path id="Caminho_13286" data-name="Caminho 13286" d="M7222.394,1021.125l.066,1.48-.036.031c-2.18-2.458-4.861-4.875-10.356-4.072a.051.051,0,0,1,0-.009,20.332,20.332,0,0,0,1.553-4.983,17.648,17.648,0,0,1,3.107.53A7.6,7.6,0,0,1,7222.394,1021.125Z" transform="translate(-7212.068 -1013.573)" fill="#fff"/>
            </g>
            <g id="Grupo_8247" data-name="Grupo 8247" transform="translate(61.146)">
              <path id="Caminho_13287" data-name="Caminho 13287" d="M6885.349,207.371c3.155,1.8,2.246,15.28-5.551,13.085-3.281-.925-2.721-2.976-6.423-3.985a8.7,8.7,0,0,0-4.908.244h0c0-.194.005-.389.007-.585a8.12,8.12,0,0,0-8.047-8.185q-2.254-.021-4.37-.022c-1.27,0-2.506,0-3.715,0a75.105,75.105,0,0,1,.966-11.383s2.121-.575,1.529-2.209c-1.042-2.874-1.511,2.846-4.867-.08,3.547,1.092,3.023-4.253-2.487-4.035a9.387,9.387,0,0,1-3.966-.581,6.817,6.817,0,0,1-3.586-3.64l.164-.14s11.7-3.265,15.612-.318c4.764,3.59.419,6.613,5.433,9.112s8.595-1.98,12.866,1.224-.379,7.435,3.283,9.891S6882.193,205.569,6885.349,207.371Z" transform="translate(-6839.929 -184.304)" fill="#323433"/>
            </g>
            <g id="Grupo_8248" data-name="Grupo 8248" transform="translate(61.162 88.118)">
              <path id="Caminho_13288" data-name="Caminho 13288" d="M6881.367,938.817c.479,1.594,2.767,1.43,3.686,4.484a7.13,7.13,0,0,1,.095,3.045,20.36,20.36,0,0,1-1.554,4.983c-11.471,3.643-19.372,5.926-29.392,8.867a7.149,7.149,0,0,1-8.8-4.618c-2.087-6.323-3.5-11.561-5.336-18.065,5.06.145,10.4.118,16.384-.074l.377,8.039,24.548-6.9A.383.383,0,0,0,6881.367,938.817Z" transform="translate(-6840.064 -937.438)" fill="#fff"/>
            </g>
            <g id="Grupo_8249" data-name="Grupo 8249" transform="translate(58.931 23.353)">
              <path id="Caminho_13289" data-name="Caminho 13289" d="M6842.672,399.313a40.6,40.6,0,0,0-5.52,11.358c-4.077.208-8.423.307-13.437.443a4.62,4.62,0,0,0,2.06-4.876L6821,383.9c1.833.1,3.66.166,5.508.206a37.876,37.876,0,0,0-.372,7.059.831.831,0,0,0,1.2.719,65.629,65.629,0,0,0,12-7.718c1.413,0,2.866.009,4.369.022a8.12,8.12,0,0,1,8.047,8.185c0,.2,0,.391-.007.585-.057,4.345-.284,8.347-.705,12.31l-8.678-.247C6842.452,403.117,6842.535,401.3,6842.672,399.313Z" transform="translate(-6820.997 -383.896)" fill="#ff7d00"/>
            </g>
            <g id="Grupo_8250" data-name="Grupo 8250" transform="translate(45.48 44.474)">
              <path id="Caminho_13290" data-name="Caminho 13290" d="M6709.271,566.859a1.61,1.61,0,0,1,1.92.41,33.688,33.688,0,0,0,4.884,4.84l4.638-.992a4.6,4.6,0,0,0,1.491-.6c5.014-.136,9.359-.235,13.437-.443,1.289-.066,2.553-.143,3.8-.235a1.3,1.3,0,0,0,1.2-1.223c.086-1.5.149-2.866.21-4.2l8.677.247c-.322,3.057-.76,6.088-1.323,9.238a5.014,5.014,0,0,1-4.845,4.13c-2.508.047-4.884.03-7.167-.065a70.058,70.058,0,0,1-19.715-3.457,23.048,23.048,0,0,1-6.069.286c-.02,0-.04,0-.06-.006a3.906,3.906,0,0,1-2.967-1.857,13.527,13.527,0,0,1-1.25-2.571,1.754,1.754,0,0,1,.224-1.6,1.719,1.719,0,0,1,.433-.426c.288-.2.573-.388.87-.573h0a17.405,17.405,0,0,1,1.6-.892Z" transform="translate(-6706.032 -564.416)" fill="#fff"/>
            </g>
            <g id="Grupo_8251" data-name="Grupo 8251" transform="translate(75.087 38.77)">
              <path id="Caminho_13291" data-name="Caminho 13291" d="M6964.6,515.665c-.138,1.985-.22,3.8-.307,5.7-.061,1.331-.125,2.7-.21,4.2a1.3,1.3,0,0,1-1.2,1.223c-1.249.092-2.512.169-3.8.235A40.538,40.538,0,0,1,6964.6,515.665Z" transform="translate(-6959.082 -515.665)" fill="#fff"/>
            </g>
            <g id="Grupo_8252" data-name="Grupo 8252" transform="translate(63.594 5.33)">
              <path id="Caminho_13292" data-name="Caminho 13292" d="M6861.076,235.785c.2-1.8.451-3.54.785-5.511a1.606,1.606,0,0,1,.126-.412,9.381,9.381,0,0,0,3.966.581c5.511-.219,6.036,5.127,2.487,4.035,3.356,2.926,3.826-2.794,4.867.08.592,1.634-1.528,2.209-1.528,2.209a75.082,75.082,0,0,0-.968,11.383c1.21,0,2.447,0,3.717,0a65.607,65.607,0,0,1-12,7.718.831.831,0,0,1-1.2-.719,37.792,37.792,0,0,1,.372-7.059c.523.011,1.05.02,1.578.027a16.734,16.734,0,0,0,1.467-5.485.312.312,0,0,0-.283-.34,3.949,3.949,0,0,1-3.594-4.257c.032-.4.067-.782.1-1.163l.1-.395C6861.346,236.23,6860.855,236.043,6861.076,235.785Z" transform="translate(-6860.848 -229.862)" fill="#fff"/>
            </g>
            <g id="Grupo_8253" data-name="Grupo 8253" transform="translate(36.081 150.614)">
              <path id="Caminho_13293" data-name="Caminho 13293" d="M6656.63,1475.553a2.994,2.994,0,0,1-2.863,3.252l-2.642.105c-5.052.2-4.673-1.316-8.943-1.146s-4.879,1.7-9.949,1.9c-4.1.162-5.69-.794-6.451-2.292a.819.819,0,0,1,.7-1.182l.122,0,15.511-.616a25.262,25.262,0,0,0,4.887-.674,26.288,26.288,0,0,0,8.061-3.167.752.752,0,0,1,.273-.117.789.789,0,0,1,.949.674C6656.43,1473.424,6656.542,1474.561,6656.63,1475.553Z" transform="translate(-6625.693 -1471.591)" fill="#fff"/>
            </g>
            <g id="Grupo_8254" data-name="Grupo 8254" transform="translate(36.994 139.989)">
              <path id="Caminho_13294" data-name="Caminho 13294" d="M6660.189,1381.525c1.011,1.991,1.753,7.445,2.045,9.9a.753.753,0,0,0-.273.117,26.3,26.3,0,0,1-8.061,3.167,25.238,25.238,0,0,1-4.886.674L6633.5,1396c.089-4.012,3.18-5.082,6.38-6.686l1.529.322a8,8,0,0,0,8.651-3.925,18.782,18.782,0,0,0,1.358-3.033,7.428,7.428,0,0,0,3.129.709c3.356-.133,3.114-2.535,4.865-2.6C6659.688,1380.769,6659.946,1381.047,6660.189,1381.525Z" transform="translate(-6633.504 -1380.779)" fill="#323433"/>
            </g>
            <g id="Grupo_8255" data-name="Grupo 8255" transform="translate(0 13.168)">
              <path id="Caminho_13295" data-name="Caminho 13295" d="M6338.236,343.251l-9.161,1.959a4.616,4.616,0,0,1-5.48-3.549l-1.514-7.081,1.506-.351a1.6,1.6,0,0,0,1.2-1.239c.056-.277.107-.546.153-.812h0c.134-.764.231-1.49.309-2.229.094-.883.158-1.785.224-2.791a1.342,1.342,0,0,0-1.425-1.424l-3.808.25-.491-2.29-2.332-10.907a4.615,4.615,0,0,1,3.549-5.48l48.4-10.352a4.617,4.617,0,0,1,5.48,3.549l1.4,6.532,4.779,22.342a4.61,4.61,0,0,1-3.549,5.48l-4.638.992a33.659,33.659,0,0,1-4.884-4.84,1.61,1.61,0,0,0-1.92-.41l-.014.007a17.441,17.441,0,0,0-1.6.892h0c-.3.185-.583.376-.869.573a1.729,1.729,0,0,0-.434.426,1.755,1.755,0,0,0-.224,1.6,13.558,13.558,0,0,0,1.25,2.571,3.926,3.926,0,0,0,.731.879l-17.085,3.654m11.713-19.414a2.425,2.425,0,1,0-2.521-2.327A2.426,2.426,0,0,0,6359.507,321.793Zm-10.481,2.129a2.425,2.425,0,1,0-2.519-2.327A2.425,2.425,0,0,0,6349.026,323.922Zm-10.479,2.129a2.425,2.425,0,1,0-2.52-2.327A2.425,2.425,0,0,0,6338.546,326.051Z" transform="translate(-6317.317 -296.851)" fill="#fff"/>
            </g>
            <g id="Grupo_8256" data-name="Grupo 8256" transform="translate(40.317 86.587)">
              <path id="Caminho_13296" data-name="Caminho 13296" d="M6676.446,942.3l8.815,36.2c-.243-.478-.5-.756-.773-.746-1.751.069-1.509,2.471-4.865,2.6a7.433,7.433,0,0,1-3.129-.709,20.391,20.391,0,0,1-4.539-2.859c0,.038-.007.077-.013.115l-9.161-32.629a22.64,22.64,0,0,1-.867-7.084l.5-12.84c5.267.67,10.271,1.136,15.448,1.408l-1.618,11.733A13.629,13.629,0,0,0,6676.446,942.3Z" transform="translate(-6661.898 -924.358)" fill="#fff"/>
            </g>
            <g id="Grupo_8257" data-name="Grupo 8257" transform="translate(43.375 139.025)">
              <path id="Caminho_13297" data-name="Caminho 13297" d="M6695.023,1372.655c0-.038.009-.077.013-.115a20.414,20.414,0,0,0,4.539,2.859,18.787,18.787,0,0,1-1.357,3.034,8,8,0,0,1-8.651,3.925l-1.528-.322C6691.149,1380.477,6694.364,1378.415,6695.023,1372.655Z" transform="translate(-6688.038 -1372.54)" fill="#fff"/>
            </g>
            <g id="Grupo_8258" data-name="Grupo 8258" transform="translate(38.575 54.567)">
              <path id="Caminho_13298" data-name="Caminho 13298" d="M6658.3,650.972a23.06,23.06,0,0,0,6.069-.286,70.073,70.073,0,0,0,19.716,3.457c5.718,11.282,2.63,20.288,8.686,29.821-2.358.112-4.614.2-6.783.273-5.988.192-11.324.219-16.384.074q-2.475-.07-4.877-.2c-5.177-.272-10.181-.737-15.448-1.408-.749-.1-1.5-.194-2.261-.3,1.407-14.616,5.813-23.881,11.224-31.441h0C6658.257,650.969,6658.277,650.97,6658.3,650.972Z" transform="translate(-6647.014 -650.686)" fill="#323433"/>
            </g>
            <g id="Grupo_8259" data-name="Grupo 8259" transform="translate(1.192 40.01)">
              <path id="Caminho_13299" data-name="Caminho 13299" d="M6334.468,529.727c-.065,1.007-.129,1.908-.224,2.791-.077.739-.175,1.465-.309,2.229h0c-.045.266-.1.535-.152.812a1.6,1.6,0,0,1-1.2,1.239l-1.507.351-1.24.288a.654.654,0,0,1-.767-.413,33.443,33.443,0,0,1-1.551-7.284,3.7,3.7,0,0,1,.432-2.093l.74-1.373.057-.012.49,2.29,3.808-.25A1.341,1.341,0,0,1,6334.468,529.727Z" transform="translate(-6327.501 -526.264)" fill="#fff"/>
            </g>
          </g>
          <g id="Grupo_8290" data-name="Grupo 8290">
            <g id="Grupo_8261" data-name="Grupo 8261" transform="translate(38.576 54.852)">
              <path id="Caminho_13300" data-name="Caminho 13300" d="M6675.067,685.525c-2.288,0-4.489-.031-6.622-.092-1.605-.045-3.249-.111-4.882-.2-5.027-.264-10.084-.725-15.46-1.409-.821-.1-1.561-.2-2.262-.3a.152.152,0,0,1-.132-.166c1.214-12.621,4.685-22.341,11.251-31.515a.153.153,0,1,1,.248.178c-4.385,6.127-9.614,15.21-11.181,31.221.657.09,1.351.181,2.113.278,5.369.683,10.418,1.143,15.438,1.407,1.632.086,3.271.152,4.874.2,5,.143,10.353.119,16.374-.074,2.087-.067,4.279-.155,6.521-.26-3.029-4.875-3.707-9.593-4.423-14.583-.679-4.72-1.381-9.6-4.133-15.03a.153.153,0,0,1,.272-.138c2.775,5.474,3.479,10.38,4.161,15.124.724,5.032,1.406,9.785,4.519,14.684a.153.153,0,0,1-.122.234c-2.334.111-4.617.2-6.786.273C6681.381,685.47,6678.145,685.525,6675.067,685.525Z" transform="translate(-6645.709 -651.784)" fill="#323433"/>
            </g>
            <g id="Grupo_8262" data-name="Grupo 8262" transform="translate(75.088 38.773)">
              <path id="Caminho_13301" data-name="Caminho 13301" d="M6957.929,526.023a.151.151,0,0,1-.045-.007.153.153,0,0,1-.1-.191,40.585,40.585,0,0,1,5.54-11.4.152.152,0,0,1,.252.171,40.285,40.285,0,0,0-5.5,11.318A.153.153,0,0,1,6957.929,526.023Z" transform="translate(-6957.777 -514.359)" fill="#323433"/>
            </g>
            <g id="Grupo_8263" data-name="Grupo 8263" transform="translate(4.765 50.9)">
              <path id="Caminho_13302" data-name="Caminho 13302" d="M6362.9,629.048a4.773,4.773,0,0,1-4.653-3.774l-1.514-7.081a.153.153,0,1,1,.3-.064l1.515,7.081a4.463,4.463,0,0,0,5.3,3.432l18.719-4a.153.153,0,1,1,.063.3l-18.719,4A4.81,4.81,0,0,1,6362.9,629.048Z" transform="translate(-6356.732 -618.009)" fill="#323433"/>
            </g>
            <g id="Grupo_8264" data-name="Grupo 8264" transform="translate(30.478 53.873)">
              <path id="Caminho_13303" data-name="Caminho 13303" d="M6576.651,647.371a.153.153,0,0,1-.032-.3l17.085-3.654a.153.153,0,0,1,.064.3l-17.085,3.654A.155.155,0,0,1,6576.651,647.371Z" transform="translate(-6576.499 -643.411)" fill="#323433"/>
            </g>
            <g id="Grupo_8265" data-name="Grupo 8265" transform="translate(45.481)">
              <path id="Caminho_13304" data-name="Caminho 13304" d="M6739.587,241.391c-1.592,0-3.1-.03-4.548-.09a69.8,69.8,0,0,1-19.721-3.452,23.263,23.263,0,0,1-6.069.282l-.021,0-.05-.006a4,4,0,0,1-2.314-1.016,4.064,4.064,0,0,1-.76-.913,13.559,13.559,0,0,1-1.264-2.6,1.909,1.909,0,0,1,.243-1.744,1.887,1.887,0,0,1,.472-.463c.335-.23.613-.413.875-.577a.153.153,0,0,1,.162.259c-.262.163-.528.339-.864.569a1.567,1.567,0,0,0-.4.388,1.606,1.606,0,0,0-.2,1.465,13.285,13.285,0,0,0,1.237,2.542,3.786,3.786,0,0,0,.7.845,3.711,3.711,0,0,0,2.148.94l.037,0,.023,0a23.029,23.029,0,0,0,6.03-.285.152.152,0,0,1,.072.006A69.5,69.5,0,0,0,6735.052,241c2.22.092,4.562.113,7.158.064a4.872,4.872,0,0,0,4.7-4c.573-3.2,1-6.22,1.322-9.227.418-3.938.647-7.96.7-12.3q0-.192,0-.383l0-.2a7.976,7.976,0,0,0-7.9-8.031c-1.43-.013-2.86-.021-4.368-.022-1.269,0-2.505,0-3.715,0h0a.153.153,0,0,1-.109-.046.156.156,0,0,1-.044-.11,74.794,74.794,0,0,1,.97-11.408.154.154,0,0,1,.109-.119,2.5,2.5,0,0,0,1.394-.988,1.237,1.237,0,0,0,.033-1.022c-.219-.6-.378-.716-.455-.73-.147-.028-.375.228-.617.5-.655.733-1.751,1.96-3.752.215a.152.152,0,0,1,.145-.261,1.652,1.652,0,0,0,1.8-.236,1.419,1.419,0,0,0,.048-1.543c-.489-1.011-1.9-2.055-4.376-1.957a9.5,9.5,0,0,1-4.029-.592,6.975,6.975,0,0,1-3.666-3.716.152.152,0,0,1,.038-.181l.163-.14a.156.156,0,0,1,.058-.031,51.976,51.976,0,0,1,6.361-1.269c4.572-.6,7.729-.271,9.385.976a5.973,5.973,0,0,1,2.675,4.988c.138,1.543.257,2.875,2.734,4.11,2.368,1.18,4.409.773,6.385.38,2.178-.434,4.235-.843,6.5.859,2.29,1.717,2.087,3.767,1.909,5.575-.168,1.708-.314,3.183,1.367,4.311a5.515,5.515,0,0,0,4.366,1,5.25,5.25,0,0,1,3.688.606c1.922,1.1,2.376,6.254.87,9.853a6.473,6.473,0,0,1-2.422,3.077,4.972,4.972,0,0,1-4.117.434,6.074,6.074,0,0,1-3.048-1.926,6.456,6.456,0,0,0-3.373-2.058,8.355,8.355,0,0,0-4.718.21c-.058,4.3-.288,8.3-.7,12.213-.318,3.014-.751,6.039-1.325,9.248a5.177,5.177,0,0,1-4.992,4.256C6741.311,241.383,6740.437,241.391,6739.587,241.391Zm12.468-26.506a7.5,7.5,0,0,1,1.98.259,6.716,6.716,0,0,1,3.512,2.14,5.746,5.746,0,0,0,2.913,1.845c3.717,1.047,5.463-1.64,6.173-3.335a12.667,12.667,0,0,0,.838-5.7c-.162-1.887-.751-3.3-1.578-3.767a4.937,4.937,0,0,0-3.5-.568,5.769,5.769,0,0,1-4.57-1.045c-1.834-1.229-1.672-2.864-1.5-4.594.179-1.812.364-3.687-1.789-5.3s-4.152-1.224-6.261-.8c-2.025.4-4.12.821-6.581-.406-2.63-1.311-2.762-2.79-2.9-4.356a5.651,5.651,0,0,0-2.555-4.771c-3.708-2.794-14.764.148-15.448.334l-.048.041a6.638,6.638,0,0,0,3.456,3.46,9.2,9.2,0,0,0,3.9.569c2.63-.105,4.132,1.031,4.663,2.129a1.714,1.714,0,0,1-.091,1.875,1.589,1.589,0,0,1-1.455.471c1.428.947,2.184.1,2.8-.591.328-.367.586-.656.9-.6.262.051.466.327.683.926a1.531,1.531,0,0,1-.048,1.268,2.668,2.668,0,0,1-1.49,1.112,74.371,74.371,0,0,0-.945,11.112c1.161,0,2.346,0,3.561,0,1.51,0,2.939.009,4.371.022a8.282,8.282,0,0,1,8.2,8.339l0,.2c0,.058,0,.116,0,.174A9.727,9.727,0,0,1,6752.055,214.886Z" transform="translate(-6704.731 -182.968)" fill="#323433"/>
            </g>
            <g id="Grupo_8266" data-name="Grupo 8266" transform="translate(0 13.171)">
              <path id="Caminho_13305" data-name="Caminho 13305" d="M6371.683,334.846a.151.151,0,0,1-.1-.034,33.915,33.915,0,0,1-4.9-4.86,1.458,1.458,0,0,0-1.738-.371l-.013.006a17.186,17.186,0,0,0-1.583.885.153.153,0,1,1-.162-.258,17.35,17.35,0,0,1,1.611-.9l.012-.006a1.765,1.765,0,0,1,2.1.447,33.716,33.716,0,0,0,4.807,4.775l4.567-.977a4.459,4.459,0,0,0,3.432-5.3l-6.175-28.874a4.465,4.465,0,0,0-5.3-3.432l-48.4,10.352a4.462,4.462,0,0,0-3.432,5.3l2.822,13.2a.153.153,0,0,1-.3.064l-2.822-13.2a4.768,4.768,0,0,1,3.666-5.661l48.4-10.352a4.77,4.77,0,0,1,5.662,3.666l6.175,28.874a4.764,4.764,0,0,1-3.666,5.661l-4.639.992A.156.156,0,0,1,6371.683,334.846Z" transform="translate(-6316.008 -295.542)" fill="#323433"/>
            </g>
            <g id="Grupo_8267" data-name="Grupo 8267" transform="translate(48.719 46.92)">
              <path id="Caminho_13306" data-name="Caminho 13306" d="M6736.585,589.8a.153.153,0,0,1-.113-.05,36.148,36.148,0,0,1-4.041-5.528.152.152,0,0,1,.259-.161,35.881,35.881,0,0,0,4.009,5.485.152.152,0,0,1-.114.255Z" transform="translate(-6732.408 -583.989)" fill="#323433"/>
            </g>
            <g id="Grupo_8268" data-name="Grupo 8268" transform="translate(47.108 47.82)">
              <path id="Caminho_13307" data-name="Caminho 13307" d="M6722.485,597.035a.153.153,0,0,1-.114-.051,34.8,34.8,0,0,1-3.709-5.073.153.153,0,1,1,.265-.151,34.056,34.056,0,0,0,3.672,5.021.152.152,0,0,1-.114.254Z" transform="translate(-6718.638 -591.677)" fill="#323433"/>
            </g>
            <g id="Grupo_8269" data-name="Grupo 8269" transform="translate(45.805 48.818)">
              <path id="Caminho_13308" data-name="Caminho 13308" d="M6710.729,605.138a.152.152,0,0,1-.119-.057,32.385,32.385,0,0,1-3.09-4.639.165.165,0,0,1-.019-.075.153.153,0,0,1,.291-.064,32.169,32.169,0,0,0,3.056,4.588.152.152,0,0,1-.119.248Z" transform="translate(-6707.502 -600.214)" fill="#323433"/>
            </g>
            <g id="Grupo_8270" data-name="Grupo 8270" transform="translate(63.711 5.334)">
              <path id="Caminho_13309" data-name="Caminho 13309" d="M6860.7,235.873h-.016a.152.152,0,0,1-.108-.053.151.151,0,0,1-.036-.115h0c0-.016.028-.278.056-.541l.039-.373a1.036,1.036,0,0,1,.037-.225c.2-1.706.493-3.857.766-5.468a1.793,1.793,0,0,1,.139-.45.153.153,0,0,1,.277.128,1.456,1.456,0,0,0-.115.374c-.337,1.992-.7,4.812-.894,6.59h0C6860.822,235.831,6860.789,235.873,6860.7,235.873Z" transform="translate(-6860.541 -228.557)" fill="#323433"/>
            </g>
            <g id="Grupo_8271" data-name="Grupo 8271" transform="translate(58.932 12.345)">
              <path id="Caminho_13310" data-name="Caminho 13310" d="M6826.93,300.027h0c-.528-.008-1.056-.016-1.579-.027-2.009-.043-3.813-.111-5.515-.206a.151.151,0,0,1-.143-.161.149.149,0,0,1,.16-.144c1.7.1,3.5.162,5.5.206q.734.015,1.475.026a16.475,16.475,0,0,0,1.415-5.345.162.162,0,0,0-.037-.118.156.156,0,0,0-.107-.056,4.11,4.11,0,0,1-3.733-4.422c.031-.384.065-.776.1-1.165a.153.153,0,1,1,.3.029c-.037.387-.071.778-.1,1.161a3.8,3.8,0,0,0,3.455,4.092.464.464,0,0,1,.421.506,16.847,16.847,0,0,1-1.478,5.532A.155.155,0,0,1,6826.93,300.027Z" transform="translate(-6819.691 -288.477)" fill="#323433"/>
            </g>
            <g id="Grupo_8272" data-name="Grupo 8272" transform="translate(61.651 33.972)">
              <path id="Caminho_13311" data-name="Caminho 13311" d="M6843.089,490.233a.153.153,0,0,1,0-.3l2.057-.055c4.223-.112,7.869-.209,11.376-.388,1.356-.069,2.6-.146,3.8-.235a1.15,1.15,0,0,0,1.06-1.079c.083-1.461.146-2.818.21-4.195l0-.1c.086-1.88.167-3.656.3-5.608.11-1.6.249-3.17.425-4.807a.152.152,0,1,1,.3.033c-.175,1.633-.314,3.2-.424,4.794-.135,1.95-.216,3.724-.3,5.6l0,.1c-.063,1.378-.126,2.736-.21,4.2a1.456,1.456,0,0,1-1.343,1.366c-1.2.088-2.446.165-3.805.235-3.511.179-7.16.276-11.384.388l-2.057.055Z" transform="translate(-6842.937 -473.325)" fill="#323433"/>
            </g>
            <g id="Grupo_8273" data-name="Grupo 8273" transform="translate(64.047 23.562)">
              <path id="Caminho_13312" data-name="Caminho 13312" d="M6864.411,392.522a.984.984,0,0,1-.982-.956,37.678,37.678,0,0,1,.374-7.086.153.153,0,0,1,.3.046,37.385,37.385,0,0,0-.371,7.031.678.678,0,0,0,.982.587,65.369,65.369,0,0,0,11.977-7.7.152.152,0,1,1,.188.24,65.626,65.626,0,0,1-12.027,7.734A.983.983,0,0,1,6864.411,392.522Z" transform="translate(-6863.407 -384.35)" fill="#323433"/>
            </g>
            <g id="Grupo_8274" data-name="Grupo 8274" transform="translate(2.334 42.051)">
              <path id="Caminho_13313" data-name="Caminho 13313" d="M6341.4,549.123l-.026,0a.152.152,0,0,1-.124-.177c.125-.717.226-1.443.308-2.219.09-.847.152-1.694.222-2.785a1.187,1.187,0,0,0-1.262-1.261l-4.4.289a.151.151,0,0,1-.162-.142.152.152,0,0,1,.142-.162l4.4-.29a1.494,1.494,0,0,1,1.587,1.586c-.071,1.1-.133,1.946-.223,2.8-.083.783-.185,1.515-.311,2.239A.153.153,0,0,1,6341.4,549.123Z" transform="translate(-6335.958 -542.371)" fill="#323433"/>
            </g>
            <g id="Grupo_8275" data-name="Grupo 8275" transform="translate(1.192 40.025)">
              <path id="Caminho_13314" data-name="Caminho 13314" d="M6328.529,536.545a.805.805,0,0,1-.759-.532,33.553,33.553,0,0,1-1.56-7.322,3.839,3.839,0,0,1,.451-2.18l.74-1.373a.153.153,0,1,1,.269.145l-.74,1.373a3.531,3.531,0,0,0-.415,2.007,33.078,33.078,0,0,0,1.543,7.247.5.5,0,0,0,.588.316l2.747-.64a1.445,1.445,0,0,0,1.085-1.121c.059-.287.108-.551.152-.808a.153.153,0,0,1,.3.052c-.044.26-.095.527-.154.817a1.751,1.751,0,0,1-1.315,1.357l-2.747.64A.822.822,0,0,1,6328.529,536.545Z" transform="translate(-6326.195 -525.058)" fill="#323433"/>
            </g>
            <g id="Grupo_8276" data-name="Grupo 8276" transform="translate(2.69 44.072)">
              <path id="Caminho_13315" data-name="Caminho 13315" d="M6339.15,560.238a.153.153,0,0,1-.008-.3l5.429-.286a.153.153,0,0,1,.016.3l-5.429.286Z" transform="translate(-6338.998 -559.647)" fill="#323433"/>
            </g>
            <g id="Grupo_8277" data-name="Grupo 8277" transform="translate(2.986 46.268)">
              <path id="Caminho_13316" data-name="Caminho 13316" d="M6341.678,578.982a.153.153,0,0,1-.008-.3l4.95-.26a.153.153,0,0,1,.016.3l-4.95.26Z" transform="translate(-6341.525 -578.417)" fill="#323433"/>
            </g>
            <g id="Grupo_8278" data-name="Grupo 8278" transform="translate(3.411 48.498)">
              <path id="Caminho_13317" data-name="Caminho 13317" d="M6345.315,598a.153.153,0,0,1-.008-.3l4.214-.223.009.152v.152l-4.207.223Z" transform="translate(-6345.162 -597.473)" fill="#323433"/>
            </g>
            <g id="Grupo_8279" data-name="Grupo 8279" transform="translate(40.317 86.591)">
              <path id="Caminho_13318" data-name="Caminho 13318" d="M6670.79,975.914a.151.151,0,0,1-.149-.123l-9.159-32.618a22.785,22.785,0,0,1-.873-7.131l.5-12.84a.152.152,0,0,1,.152-.147h.006a.152.152,0,0,1,.146.158l-.5,12.84a22.479,22.479,0,0,0,.862,7.036l9.161,32.63a.133.133,0,0,1,.006.041A.154.154,0,0,1,6670.79,975.914Z" transform="translate(-6660.593 -923.054)" fill="#323433"/>
            </g>
            <g id="Grupo_8280" data-name="Grupo 8280" transform="translate(54.54 87.999)">
              <path id="Caminho_13319" data-name="Caminho 13319" d="M6791.471,988.221a.152.152,0,0,1-.147-.117l-.022-.09-8.814-36.2a13.689,13.689,0,0,1-.2-4.863l1.618-11.734a.152.152,0,1,1,.3.042l-1.617,11.734a13.385,13.385,0,0,0,.2,4.752l8.837,36.288a.154.154,0,0,1-.113.184A.144.144,0,0,1,6791.471,988.221Z" transform="translate(-6782.156 -935.085)" fill="#323433"/>
            </g>
            <g id="Grupo_8281" data-name="Grupo 8281" transform="translate(36.995 139.029)">
              <path id="Caminho_13320" data-name="Caminho 13320" d="M6632.353,1387.722h0a.153.153,0,0,1-.149-.156c.082-3.711,2.728-5,5.527-6.359.31-.151.623-.3.938-.46,3.136-1.57,6.252-3.579,6.9-9.261,0-.039.009-.077.013-.114a.152.152,0,0,1,.251-.1,20.409,20.409,0,0,0,4.5,2.835,7.217,7.217,0,0,0,3.063.7,3.855,3.855,0,0,0,3.192-1.573,2.277,2.277,0,0,1,1.673-1.03c.326-.014.626.259.916.829,1.032,2.031,1.785,7.634,2.061,9.948a.152.152,0,1,1-.3.036c-.274-2.3-1.021-7.858-2.03-9.846-.221-.434-.446-.669-.632-.662-.668.026-1.015.423-1.454.926a4.162,4.162,0,0,1-3.41,1.678,7.511,7.511,0,0,1-3.2-.721,20.427,20.427,0,0,1-4.359-2.7c-.711,5.709-4.008,7.813-7.05,9.336-.315.158-.63.311-.94.462-2.833,1.377-5.278,2.566-5.355,6.09A.154.154,0,0,1,6632.353,1387.722Z" transform="translate(-6632.2 -1371.236)" fill="#323433"/>
            </g>
            <g id="Grupo_8282" data-name="Grupo 8282" transform="translate(36.082 150.618)">
              <path id="Caminho_13321" data-name="Caminho 13321" d="M6630.191,1478.68c-3.126,0-4.851-.736-5.693-2.394a.957.957,0,0,1,.03-.921.973.973,0,0,1,.8-.483l.122,0,15.51-.616a25.169,25.169,0,0,0,4.857-.67,26.128,26.128,0,0,0,8.01-3.145.919.919,0,0,1,.327-.14.943.943,0,0,1,.746.154.926.926,0,0,1,.388.65c.123,1,.238,2.1.341,3.277a3.143,3.143,0,0,1-3.008,3.418l-2.641.105a12.433,12.433,0,0,1-4.951-.61,10.051,10.051,0,0,0-3.993-.536,14.61,14.61,0,0,0-4.463.874,17.746,17.746,0,0,1-5.485,1.023Q6630.622,1478.68,6630.191,1478.68Zm24.166-8.089a.608.608,0,0,0-.133.014h0a.617.617,0,0,0-.219.094,26.427,26.427,0,0,1-8.11,3.189,25.477,25.477,0,0,1-4.916.678l-15.633.621a.671.671,0,0,0-.553.332.642.642,0,0,0-.02.628c.857,1.689,2.743,2.349,6.309,2.208a17.487,17.487,0,0,0,5.4-1.008,14.855,14.855,0,0,1,4.546-.889,10.323,10.323,0,0,1,4.1.549,12.182,12.182,0,0,0,4.847.6l2.642-.105a2.84,2.84,0,0,0,2.716-3.086c-.1-1.171-.217-2.27-.34-3.266a.624.624,0,0,0-.261-.438A.642.642,0,0,0,6654.356,1470.591Zm-.166-.135h0Z" transform="translate(-6624.395 -1470.286)" fill="#323433"/>
            </g>
            <g id="Grupo_8283" data-name="Grupo 8283" transform="translate(43.375 141.888)">
              <path id="Caminho_13322" data-name="Caminho 13322" d="M6690.1,1403.111a8.354,8.354,0,0,1-1.72-.18l-1.527-.322a.152.152,0,1,1,.062-.3l1.529.322a7.8,7.8,0,0,0,8.485-3.849,18.687,18.687,0,0,0,1.348-3.009.152.152,0,1,1,.289.1,18.87,18.87,0,0,1-1.369,3.058A8.085,8.085,0,0,1,6690.1,1403.111Z" transform="translate(-6686.732 -1395.671)" fill="#323433"/>
            </g>
            <g id="Grupo_8284" data-name="Grupo 8284" transform="translate(102.449 85.013)">
              <path id="Caminho_13323" data-name="Caminho 13323" d="M7210.671,935.375c-2.542,0-4.1-1.8-5.729-3.694-.222-.258-.447-.518-.678-.779-2.192-2.471-4.786-4.816-10.221-4.022a.152.152,0,0,1-.166-.2.109.109,0,0,1,.011-.025,20.236,20.236,0,0,0,1.54-4.939,6.917,6.917,0,0,0-.089-2.978,5,5,0,0,0-2.3-2.958,2.945,2.945,0,0,1-1.383-1.526.533.533,0,0,1,.008-.327c.327-1.017,3.542-2.247,7.394-3.632.764-.275,1.423-.512,1.943-.714a.153.153,0,0,1,.11.285c-.521.2-1.184.441-1.95.717-2.747.988-6.9,2.481-7.208,3.439a.23.23,0,0,0-.005.145c.185.617.661.946,1.264,1.363a5.325,5.325,0,0,1,2.422,3.121,7.209,7.209,0,0,1,.1,3.112,20.273,20.273,0,0,1-1.455,4.78c5.4-.7,8.1,1.778,10.217,4.16.232.261.458.523.682.782,1.937,2.246,3.609,4.185,6.866,3.42a.153.153,0,1,1,.07.3A6.271,6.271,0,0,1,7210.671,935.375Z" transform="translate(-7191.63 -909.568)" fill="#323433"/>
            </g>
            <g id="Grupo_8285" data-name="Grupo 8285" transform="translate(111.64 82.724)">
              <path id="Caminho_13324" data-name="Caminho 13324" d="M7282.218,918.6a.944.944,0,0,1-.257-.036.934.934,0,0,1-.639-.631l-.033-.111-4.248-14.114a23.945,23.945,0,0,0-1.768-4.305,24.855,24.855,0,0,0-4.79-6.617.883.883,0,0,1-.208-.268.907.907,0,0,1-.037-.729.889.889,0,0,1,.511-.515c.917-.361,1.9-.728,2.931-1.092a3,3,0,0,1,3.868,1.961l.722,2.4a11.821,11.821,0,0,1,.615,4.7,9.524,9.524,0,0,0,.454,3.794,13.865,13.865,0,0,0,1.862,3.9,16.844,16.844,0,0,1,2.242,4.8c1.016,3.371.83,5.355-.622,6.633A.906.906,0,0,1,7282.218,918.6Zm-7.534-28.287a2.692,2.692,0,0,0-.9.156c-1.024.363-2.007.729-2.923,1.089a.582.582,0,0,0-.336.339.6.6,0,0,0,.024.483h0a.579.579,0,0,0,.136.176,25.145,25.145,0,0,1,4.858,6.7,24.328,24.328,0,0,1,1.789,4.36l4.281,14.225a.629.629,0,0,0,.432.425.6.6,0,0,0,.574-.128c1.348-1.188,1.507-3.077.531-6.317a16.611,16.611,0,0,0-2.207-4.727,14.093,14.093,0,0,1-1.9-3.971,9.764,9.764,0,0,1-.466-3.9,11.569,11.569,0,0,0-.6-4.6l-.722-2.4a2.7,2.7,0,0,0-2.572-1.917Z" transform="translate(-7270.18 -890.006)" fill="#323433"/>
            </g>
            <g id="Grupo_8286" data-name="Grupo 8286" transform="translate(106.386 97.03)">
              <path id="Caminho_13325" data-name="Caminho 13325" d="M7234.127,1021.608a.152.152,0,0,1-.152-.146l-.067-1.48a7.4,7.4,0,0,0-5.547-6.882,17.519,17.519,0,0,0-3.081-.525l.01-.131v-.174h.015a17.875,17.875,0,0,1,3.134.534,7.7,7.7,0,0,1,5.775,7.164l.066,1.48a.152.152,0,0,1-.146.159Z" transform="translate(-7225.28 -1012.27)" fill="#323433"/>
            </g>
            <g id="Grupo_8287" data-name="Grupo 8287" transform="translate(61.163 88.196)">
              <path id="Caminho_13326" data-name="Caminho 13326" d="M6851.013,960.053a7.269,7.269,0,0,1-6.909-5.018c-1.731-5.244-2.979-9.686-4.424-14.83-.3-1.051-.6-2.127-.913-3.241a.153.153,0,0,1,.294-.083c.315,1.114.617,2.19.913,3.242,1.444,5.14,2.691,9.58,4.42,14.817a6.969,6.969,0,0,0,8.615,4.52l3.072-.9c8.609-2.523,16.042-4.7,26.316-7.965a.153.153,0,1,1,.092.291c-10.276,3.263-17.712,5.443-26.322,7.967l-3.072.9A7.385,7.385,0,0,1,6851.013,960.053Z" transform="translate(-6838.761 -936.77)" fill="#323433"/>
            </g>
            <g id="Grupo_8288" data-name="Grupo 8288" transform="translate(77.546 88.122)">
              <path id="Caminho_13327" data-name="Caminho 13327" d="M6979.314,944.479a.152.152,0,0,1-.152-.145l-.377-8.039a.154.154,0,0,1,.146-.16.151.151,0,0,1,.159.145l.369,7.848,24.363-6.844a.153.153,0,0,1,.083.294l-24.548,6.9A.164.164,0,0,1,6979.314,944.479Z" transform="translate(-6978.785 -936.134)" fill="#323433"/>
            </g>
            <g id="Grupo_8289" data-name="Grupo 8289" transform="translate(80.301 44.477)">
              <path id="Caminho_13328" data-name="Caminho 13328" d="M7011.161,563.665h0l-8.678-.247a.153.153,0,1,1,.009-.3l8.676.247a.153.153,0,0,1,.006.3Z" transform="translate(-7002.331 -563.113)" fill="#323433"/>
            </g>
          </g>
        </g>
      </g>
    </g>
    <g id="Grupo_8294" data-name="Grupo 8294" transform="translate(10.23 27.648)">
      <rect id="Retângulo_3178" data-name="Retângulo 3178" width="44.835" height="16.957" fill="#fff"/>
    </g>
  </g>
  <g id="Grupo_8305" data-name="Grupo 8305" transform="translate(39.697 28.095)">
    <g id="Grupo_8296" data-name="Grupo 8296" transform="translate(0 2.587)">
      <path id="Caminho_13329" data-name="Caminho 13329" d="M6656.426,452.036l-.192-.315c-.063-.043-.066-.127-.12-.176a1.636,1.636,0,0,1-.073-.176.036.036,0,0,0-.023-.033l-.13-.293a.066.066,0,0,0-.026-.053c-.024-.015-.021-.04-.021-.063a7.055,7.055,0,0,1-.347-1.127c-.021-.091-.043-.182-.064-.274.007-.038-.02-.073-.015-.111l-.067-.492a.076.076,0,0,1-.012-.068.056.056,0,0,0,0-.057l-.024-.337c.017-.037,0-.075,0-.113-.022-.037-.011-.081-.023-.12,0-.1.006-.2.009-.3s.014-.2.022-.3c0-.013,0-.025.006-.038.011-.048.009-.1.018-.146a.439.439,0,0,0,.008-.072,1,1,0,0,1,.018-.12c.007-.032.009-.065.014-.1a6.406,6.406,0,0,1,.145-.642c0-.015.01-.03.014-.046s.019-.05.024-.076.019-.058.027-.088c.011-.046.029-.089.043-.134.026-.071.053-.141.076-.213.021-.048.036-.1.055-.145s.048-.125.077-.186a2.156,2.156,0,0,1,.1-.206.622.622,0,0,1,.09-.121.28.28,0,0,1,.128-.071c.021-.006.043-.011.065-.016a.375.375,0,0,1,.134,0,.368.368,0,0,1,.184.1,1.163,1.163,0,0,1,.077.091.349.349,0,0,1,.038.289.344.344,0,0,1-.041.147,1.041,1.041,0,0,0-.127.283c0,.008-.005.015-.008.022a.238.238,0,0,0-.035.072l-.068.19a.543.543,0,0,0-.026.077c-.012.042-.027.082-.041.122-.018.056-.03.115-.048.171-.011.035-.018.07-.025.106a2.986,2.986,0,0,0-.071.314.728.728,0,0,0-.015.073c-.015.112-.041.222-.046.336-.012.051.008.105-.015.155-.015.077-.007.157-.016.234-.006.029.012.057.007.086a1.159,1.159,0,0,0,0,.316.7.7,0,0,0,.005.163,1.245,1.245,0,0,0,.027.313.163.163,0,0,1,0,.027.819.819,0,0,0,0,.091.345.345,0,0,0,.009.067c.009.093.031.185.044.278a.478.478,0,0,0,.023.136c.051.2.1.4.146.593a.509.509,0,0,0,.047.148c.041.132.089.26.14.389s.1.242.159.358c.02.041.036.084.058.124.031.068.074.13.109.2l.021.034c.053.1.121.2.184.3.017.023.031.048.049.071s.028.038.041.058.028.038.042.056a.657.657,0,0,0,.065.086,3.937,3.937,0,0,0,.364.417c.062.07.131.135.2.2a1.706,1.706,0,0,0,.154.134,1.306,1.306,0,0,0,.133.106l.037.03c.031.03.073.046.1.077a.3.3,0,0,0,.063.046l.05.029.267.161.053.031a1.126,1.126,0,0,1,.289.2.517.517,0,0,1,.072.221.167.167,0,0,1-.007.052.375.375,0,0,1-.022.068.4.4,0,0,0-.023.051.219.219,0,0,1-.044.064l-.023.026-.072.062a.213.213,0,0,1-.042.027.725.725,0,0,1-.1.029.407.407,0,0,1-.234-.037,1.555,1.555,0,0,1-.175-.086c-.028-.016-.058-.026-.084-.043-.083-.053-.171-.1-.251-.156a.327.327,0,0,0-.054-.043,1.03,1.03,0,0,1-.154-.106,1.806,1.806,0,0,1-.176-.136,1.14,1.14,0,0,1-.092-.071c-.041-.031-.077-.067-.115-.1q-.092-.085-.186-.169a.307.307,0,0,1-.027-.025c-.153-.157-.3-.316-.442-.486-.041-.065-.1-.117-.137-.181a.255.255,0,0,1-.05-.1A.594.594,0,0,0,6656.426,452.036Z" transform="translate(-6655.293 -445.209)"/>
    </g>
    <g id="Grupo_8297" data-name="Grupo 8297" transform="translate(11.462 3.285)">
      <path id="Caminho_13330" data-name="Caminho 13330" d="M6754.891,451.547a.424.424,0,0,1-.179.3c-.007.008-.009.021-.016.029s-.037.026-.054.041-.044.031-.067.046-.066.041-.1.064a.651.651,0,0,0-.054.045c-.043.034-.083.071-.126.106l-.034.031a1.589,1.589,0,0,0-.113.132.538.538,0,0,0-.091.192.353.353,0,0,0,.037.276.319.319,0,0,0,.042.059l.032.036c.062.058.124.116.185.176.087.077.193.129.283.2l.031.019a4.424,4.424,0,0,1,.386.233.268.268,0,0,1,.113.157l.021.086.006.108a.343.343,0,0,1-.251.32.3.3,0,0,1-.174.01.674.674,0,0,1-.186-.072.261.261,0,0,0-.053-.026.528.528,0,0,1-.084-.042l-.207-.125c-.037-.024-.076-.044-.111-.072-.054-.053-.127-.078-.183-.129s-.1-.076-.148-.116-.069-.064-.1-.1a.975.975,0,0,1-.078-.079,2.633,2.633,0,0,1-.218-.277c-.032-.048-.035-.109-.067-.157a1.132,1.132,0,0,1-.062-.25,1.763,1.763,0,0,1-.009-.183c0-.03.007-.06.013-.09s.007-.049.01-.073c.009-.048.02-.095.031-.142a1.381,1.381,0,0,1,.1-.222c.02-.03.038-.061.056-.092a2.144,2.144,0,0,1,.15-.216c.039-.039.074-.082.114-.119a.75.75,0,0,0,.084-.079l.035-.031a1.1,1.1,0,0,1,.13-.1c.019-.013.037-.031.063-.028.1-.06.19-.124.288-.178a.368.368,0,0,1,.549.255C6754.881,451.5,6754.886,451.524,6754.891,451.547Z" transform="translate(-6753.256 -451.173)"/>
    </g>
    <g id="Grupo_8298" data-name="Grupo 8298" transform="translate(9.16 1.872)">
      <path id="Caminho_13331" data-name="Caminho 13331" d="M6736.706,439.554l-.022.061a.717.717,0,0,1-.08.209,1.183,1.183,0,0,1-.074.147c-.023.072-.075.129-.1.2a1.1,1.1,0,0,1-.106.158.745.745,0,0,1-.082.115c-.029.042-.058.083-.086.126-.076.078-.141.165-.219.24l-.036.032c-.08.085-.174.153-.261.23l-.019.015a.723.723,0,0,0-.11.07l-.031.02a.879.879,0,0,0-.089.051c-.055.035-.115.059-.172.089a1.451,1.451,0,0,1-.227.081,2.589,2.589,0,0,1-.586.1c-.038,0-.077,0-.115,0-.066,0-.132-.006-.2-.017a1.037,1.037,0,0,1-.223-.049.97.97,0,0,1-.156-.087.488.488,0,0,1-.108-.134.392.392,0,0,1,.313-.538,1.027,1.027,0,0,1,.161.01,1.79,1.79,0,0,0,.191.025.612.612,0,0,0,.126,0,.509.509,0,0,1,.066-.007.185.185,0,0,0,.068-.01c.091-.023.183-.045.274-.066a.286.286,0,0,0,.065-.024.441.441,0,0,1,.062-.024,1.06,1.06,0,0,0,.247-.156l.04-.031a1.31,1.31,0,0,0,.251-.24c.016-.027.044-.044.062-.071a1.159,1.159,0,0,0,.133-.193c.028-.043.054-.086.079-.13q.059-.095.115-.191c.02-.034.03-.073.05-.106a1.134,1.134,0,0,1,.155-.262.547.547,0,0,1,.071-.058.355.355,0,0,1,.466.079c0,.012,0,.023.019.026A.513.513,0,0,1,6736.706,439.554Z" transform="translate(-6733.583 -439.091)"/>
    </g>
    <g id="Grupo_8299" data-name="Grupo 8299" transform="translate(1.265 1.582)">
      <path id="Caminho_13332" data-name="Caminho 13332" d="M6666.27,439.471l.08-.307.005-.021a.938.938,0,0,1,.125-.376l.03-.081a.327.327,0,0,1,.071-.178,1.121,1.121,0,0,0,.092-.22.125.125,0,0,0,.033-.067c-.007-.061.04-.1.061-.15a.674.674,0,0,1,.051-.1.525.525,0,0,0,.059-.11.281.281,0,0,1,.056-.091c.047-.074.087-.154.142-.224s.078-.128.116-.192c.024-.036.043-.073.067-.108.013-.019.031-.035.044-.054a1,1,0,0,1,.1-.145.509.509,0,0,0,.034-.047c.014-.019.031-.035.044-.055a1.419,1.419,0,0,1,.178-.209.4.4,0,0,1,.26-.115.459.459,0,0,1,.294.138c.015.016.029.033.043.051a.435.435,0,0,1,.062.243c-.006.02-.013.04-.019.06a1.242,1.242,0,0,1-.143.237.378.378,0,0,0-.058.073c-.043.05-.08.1-.122.156s-.051.088-.082.128-.056.093-.091.135c-.092.152-.19.3-.273.459a.1.1,0,0,1-.008.022c-.027.053-.061.1-.089.153s-.047.1-.068.15a.731.731,0,0,0-.036.083c-.007.017-.017.033-.024.05s-.021.054-.034.08a.556.556,0,0,0-.021.074.193.193,0,0,1-.015.032,1.237,1.237,0,0,0-.074.188.627.627,0,0,0-.029.09c-.033.1-.06.2-.09.3-.01.035-.019.071-.025.107-.021.1-.045.195-.057.294a1,1,0,0,0-.028.161,1.016,1.016,0,0,0-.016.228c0,.031-.014.059-.016.089-.013.087,0,.176-.01.263,0,.04,0,.08,0,.121a1.213,1.213,0,0,0,.009.152,1.934,1.934,0,0,0,.025.314.351.351,0,0,0,.008.075,6.4,6.4,0,0,0,.237.963c.058.161.117.322.188.478.021.042.036.087.06.128a3.593,3.593,0,0,0,.221.392c.03.052.061.1.1.152a.7.7,0,0,0,.068.086c.016.023.026.05.043.071a.6.6,0,0,0,.046.055,1.406,1.406,0,0,0,.181.213c.008.009.016.018.023.027.075.083.155.161.236.238a.623.623,0,0,0,.072.061c.057.052.116.1.177.149a.724.724,0,0,1,.075.055.4.4,0,0,0,.083.057,1.132,1.132,0,0,0,.131.093c.063.039.126.077.191.115a1.62,1.62,0,0,0,.171.1c.041.023.084.04.124.065.058.04.127.059.187.1.047.018.09.045.139.061a2.827,2.827,0,0,0,.259.115c.019.007.036.017.055.025.117.044.231.093.349.132.087.033.174.064.261.1.049.019.1.036.146.053a2.228,2.228,0,0,1,.225.1.207.207,0,0,1,.078.069.379.379,0,0,1,.07.341.4.4,0,0,1-.017.052.371.371,0,0,1-.238.214.362.362,0,0,1-.205.018l-.1-.025c-.078-.031-.158-.058-.237-.083l-.032-.012c-.022-.008-.043-.016-.066-.023-.1-.035-.192-.078-.29-.109l-.3-.124c-.037-.015-.073-.032-.108-.05-.092-.035-.176-.082-.269-.115l-.021-.012a.919.919,0,0,0-.107-.051l-.021-.013c-.039-.028-.086-.041-.125-.068l-.021-.011a.5.5,0,0,1-.191-.121q-.286-.166-.559-.353l-.294-.237-.233-.216-.268-.284a.057.057,0,0,1-.04-.023.535.535,0,0,0-.055-.072,1.023,1.023,0,0,0-.071-.075c-.016-.022-.025-.048-.042-.069s-.03-.036-.043-.054-.026-.04-.042-.058-.032-.047-.051-.069a.907.907,0,0,1-.151-.27.982.982,0,0,0-.131-.222,1.171,1.171,0,0,1-.125-.209c-.05-.119-.1-.237-.151-.357a2.347,2.347,0,0,1-.123-.356,6.169,6.169,0,0,1-.174-.633,2.591,2.591,0,0,1-.077-.465.476.476,0,0,1-.015-.091.258.258,0,0,0,0-.058c-.012-.128-.021-.256-.021-.385.006-.074-.022-.152.021-.222l.005-.217a1.45,1.45,0,0,1,.017-.365c.008-.04.013-.082.02-.122a.437.437,0,0,1,.011-.071.117.117,0,0,1,.031-.063l.021-.111A.2.2,0,0,1,6666.27,439.471Z" transform="translate(-6666.104 -436.616)"/>
    </g>
    <g id="Grupo_8300" data-name="Grupo 8300" transform="translate(5.168 3.842)">
      <path id="Caminho_13333" data-name="Caminho 13333" d="M6706.461,458.376l.108.082a.353.353,0,0,1,.18.137l.089.069a.64.64,0,0,1,.245.2l.038.028c.136.115.272.23.408.345.032.028.062.061.093.092a.291.291,0,0,1,.082.216h0a.537.537,0,0,1-.191.321.325.325,0,0,1-.337.032.508.508,0,0,1-.138-.092.693.693,0,0,0-.073-.053c-.178-.144-.352-.293-.535-.428a.581.581,0,0,0-.055-.046c-.065-.057-.138-.105-.205-.16-.042-.035-.086-.066-.129-.1s-.1-.075-.147-.108a.4.4,0,0,0-.052-.043.475.475,0,0,1-.072-.052.326.326,0,0,0-.064-.045,1.24,1.24,0,0,0-.125-.089.488.488,0,0,1-.076-.055c-.036-.035-.084-.053-.122-.085a.375.375,0,0,0-.091-.065.679.679,0,0,1-.1-.066,1.5,1.5,0,0,0-.16-.1.379.379,0,0,1-.058-.043c-.064-.055-.146-.084-.209-.14a.186.186,0,0,0-.066-.043.191.191,0,0,1-.031-.018c-.254-.163-.516-.313-.772-.472a.535.535,0,0,0-.071-.041,1.511,1.511,0,0,1-.207-.112,1.353,1.353,0,0,1-.165-.086.325.325,0,0,0-.063-.027,2.206,2.206,0,0,0-.239-.117.581.581,0,0,0-.108-.048c-.055-.026-.112-.047-.165-.076l-.064-.03a1.749,1.749,0,0,0-.174-.067c-.037-.015-.075-.029-.113-.041a4.107,4.107,0,0,0-.591-.164,1.2,1.2,0,0,0-.2-.037,1.311,1.311,0,0,0-.339-.007.719.719,0,0,0-.319.058.981.981,0,0,0-.245.1.7.7,0,0,0-.106.07c-.02.014-.042.025-.06.041l-.028.024a.934.934,0,0,0-.374.566.947.947,0,0,0,.181.735.99.99,0,0,0,.285.264,1.886,1.886,0,0,0,.645.22c.079.022.162.033.24.062a1.3,1.3,0,0,0,.13.031c.051.014.1.023.156.036a1.36,1.36,0,0,0,.3.073,2.2,2.2,0,0,0,.327.13l.091.033c.1.046.2.079.3.127s.184.084.271.136a4.569,4.569,0,0,1,.6.361,1.747,1.747,0,0,1,.177.122c.076.05.147.107.221.16a.316.316,0,0,1,.068.049c.072.059.143.118.218.172a.247.247,0,0,1,.029.022c.173.148.351.292.523.44.031.024.061.051.09.077.046.041.1.08.14.122.024.019.047.039.07.059s.063.053.094.08c.014.013.028.025.042.037a.312.312,0,0,0,.079.063c.059.043.1.1.158.147s.09.079.133.122a.407.407,0,0,1,.084.208.526.526,0,0,1,0,.171.409.409,0,0,1-.393.259.775.775,0,0,1-.076-.017.522.522,0,0,1-.109-.055,2.817,2.817,0,0,1-.225-.177l-.047-.036c-.028-.027-.061-.049-.089-.077s-.033-.032-.051-.046a.831.831,0,0,1-.069-.058c-.03-.03-.065-.054-.1-.081s-.09-.075-.134-.115c-.079-.073-.167-.135-.247-.206l-.027-.024q-.256-.217-.52-.424c-.121-.1-.25-.19-.377-.283a.306.306,0,0,0-.047-.036,1.891,1.891,0,0,1-.171-.113c-.049-.033-.1-.06-.147-.094a.8.8,0,0,0-.165-.087c-.051-.028-.1-.062-.152-.088-.069-.028-.132-.068-.2-.094-.037-.014-.072-.032-.108-.049a6.057,6.057,0,0,0-.663-.226l-.048-.011a1.813,1.813,0,0,0-.187-.049c-.088-.022-.177-.041-.266-.06-.072-.017-.142-.046-.216-.057-.144-.031-.283-.074-.423-.118a2.29,2.29,0,0,1-.258-.133c-.036-.024-.074-.046-.112-.068a1.815,1.815,0,0,1-.228-.176l-.027-.026a2.807,2.807,0,0,1-.232-.263,2,2,0,0,1-.138-.221.248.248,0,0,1-.018-.035c-.021-.039-.036-.081-.058-.12a.346.346,0,0,1-.027-.078.326.326,0,0,0-.037-.1.285.285,0,0,1-.028-.11.26.26,0,0,0-.012-.095.4.4,0,0,1-.009-.068c0-.049-.011-.1-.008-.147,0-.026,0-.052,0-.078,0-.056.007-.112.011-.167a1.516,1.516,0,0,1,.089-.344,2.1,2.1,0,0,1,.159-.319.437.437,0,0,1,.036-.051,2.043,2.043,0,0,1,.477-.49,2.547,2.547,0,0,1,.376-.219.5.5,0,0,0,.05-.026,1.119,1.119,0,0,1,.269-.09c.02,0,.039-.012.059-.015a2.045,2.045,0,0,1,.4-.057c.105,0,.211,0,.317.014l.088.012c.023,0,.047.007.071.01l.07.014c.03.006.062.007.093.013s.085.02.128.028.094.022.142.032c.1.03.206.058.308.091s.187.059.277.1c.056.021.112.042.167.065s.132.052.2.081a.971.971,0,0,1,.1.049c.028.012.056.022.083.036s.044.016.064.026c.1.051.206.095.3.152a.911.911,0,0,1,.084.039c.037.022.072.046.11.064a.726.726,0,0,1,.14.072c.028.019.058.037.087.054a.351.351,0,0,0,.051.027.85.85,0,0,1,.158.084c.043.028.087.054.131.08.063.039.127.077.191.115.043.027.087.053.131.079a.979.979,0,0,1,.147.1c.016.011.032.022.049.031.042.026.085.052.128.077a.5.5,0,0,1,.165.131.35.35,0,0,0,.107.067.575.575,0,0,1,.243.172.246.246,0,0,0,.085.056,1.56,1.56,0,0,0,.222.161.205.205,0,0,1,.111.081l.131.1A.416.416,0,0,1,6706.461,458.376Z" transform="translate(-6699.464 -455.932)"/>
    </g>
    <g id="Grupo_8301" data-name="Grupo 8301" transform="translate(3.847 0.469)">
      <path id="Caminho_13334" data-name="Caminho 13334" d="M6695.107,427.144a.511.511,0,0,1,.229.2c-.02.038.009.071.012.106.044.044.024.1.022.148s-.006.087-.01.13c0,.025-.011.05-.016.076s-.008.065-.015.1c-.017.089-.043.175-.066.262-.033.118-.088.227-.131.341a.117.117,0,0,1-.016.033c-.06.094-.125.184-.183.279a.1.1,0,0,1-.022.029c-.077.084-.151.17-.23.252-.073.063-.147.125-.219.188a.507.507,0,0,1-.211.137c-.164.093-.324.194-.495.274l-.216.1a1.052,1.052,0,0,1-.376.154,2.447,2.447,0,0,1-.42.083c-.071,0-.139.027-.211.022a.777.777,0,0,1-.3.006c-.013-.013-.028-.008-.042,0a.548.548,0,0,1-.192.024h0a.292.292,0,0,0-.18.008l-.011,0a.542.542,0,0,1-.094.02h-.026c-.111,0-.221.016-.332,0a.553.553,0,0,0-.149.007,4.322,4.322,0,0,0-.475.062,3.622,3.622,0,0,0-.377.092.173.173,0,0,1-.059.043c-.025.014-.054.021-.079.037l-.023.012a1.305,1.305,0,0,0-.417.24c-.047.035-.09.075-.135.112a1.519,1.519,0,0,0-.186.2c-.028.038-.059.075-.086.113a1.722,1.722,0,0,0-.181.333c0,.008-.007.015-.01.022a.5.5,0,0,0-.043.084.475.475,0,0,0-.029.122.2.2,0,0,0-.047.086.448.448,0,0,0-.021.066c-.012.047-.022.095-.032.143a1.344,1.344,0,0,0-.036.216c0,.026,0,.054-.026.071l-.008.15c.017.054.021.11.036.164a.2.2,0,0,1,0,.029,2.9,2.9,0,0,0,.1.5,1.315,1.315,0,0,1,.052.136,1.065,1.065,0,0,1,.056.177l.078.128c.081.059.115.156.183.225.016.019.03.037.046.055s.038.037.056.057.02.04.034.057l.075.071a.141.141,0,0,1,.076.046c.016.014.032.031.05.044a.918.918,0,0,1,.089.068,1.159,1.159,0,0,1,.111.081c.068.046.14.087.211.128s.157.08.24.112c.021.008.042.019.063.029s.056.022.083.035.064.024.1.034c.061.022.122.04.183.057.192.062.388.1.583.147.024.006.047.013.072.017.083.017.162.05.247.064.035.008.068.021.1.03a.555.555,0,0,1,.153.057c.047.018.092.039.139.058a.4.4,0,0,0,.053.023c.036.012.067.036.1.051.077.027.142.082.219.108.039.021.076.046.113.067l.229.139q.045.029.091.055a2.032,2.032,0,0,0,.194.132c.045.031.085.07.133.1s.1.069.144.108c.063.049.127.1.189.151.019.014.034.031.052.045s.046.037.069.056.046.037.068.057.032.031.049.044a.81.81,0,0,1,.07.058l.123.111c.04.037.081.073.12.112a.433.433,0,0,1,.163.31.465.465,0,0,1-.042.194,1.705,1.705,0,0,1-.124.13.225.225,0,0,1-.061.05.358.358,0,0,1-.16.027.382.382,0,0,1-.231-.081c-.032-.026-.063-.053-.1-.077-.046-.044-.094-.087-.142-.129-.061-.066-.141-.11-.2-.175l-.035-.031c-.028-.025-.058-.047-.086-.072s-.046-.038-.069-.057-.058-.049-.09-.07c-.064-.053-.134-.1-.2-.148-.117-.092-.252-.16-.37-.253-.16-.1-.328-.186-.5-.272-.036-.015-.072-.032-.107-.05a2.163,2.163,0,0,0-.219-.085c-.026-.008-.053-.015-.078-.024a1.116,1.116,0,0,0-.139-.034c-.081-.018-.161-.038-.241-.054-.132-.036-.27-.055-.4-.1a.363.363,0,0,0-.07-.02c-.078-.019-.152-.052-.23-.073a1.825,1.825,0,0,1-.232-.089c-.018-.007-.034-.017-.052-.025a.894.894,0,0,1-.1-.047.652.652,0,0,1-.1-.048.312.312,0,0,0-.061-.026c-.039-.018-.073-.042-.11-.062-.07-.043-.141-.086-.211-.128a.788.788,0,0,1-.117-.083c-.075-.05-.145-.106-.214-.161a.357.357,0,0,1-.037-.032c-.054-.05-.108-.1-.164-.148a3.192,3.192,0,0,1-.487-.635c-.02-.03-.034-.064-.053-.095-.04-.076-.073-.156-.113-.232a2.74,2.74,0,0,1-.208-.844c0-.02,0-.039,0-.059-.011-.074,0-.149-.01-.223.008-.071.008-.143.015-.215.013-.1.026-.205.04-.307,0-.029.012-.057.018-.085.015-.066.034-.132.054-.2,0-.015.007-.03.011-.045a.437.437,0,0,0,.027-.1c.009-.046.036-.085.048-.129.007-.018.017-.035.024-.053.04-.095.08-.189.128-.28a.383.383,0,0,0,.052-.1.792.792,0,0,1,.1-.158.3.3,0,0,0,.034-.045,1.207,1.207,0,0,1,.07-.108c.059-.077.124-.15.186-.224a.319.319,0,0,1,.024-.027c.044-.037.082-.083.127-.119a.528.528,0,0,0,.076-.073l.019-.017a2.82,2.82,0,0,1,.5-.329,1.335,1.335,0,0,1,.173-.078,2.962,2.962,0,0,1,.592-.181,1.085,1.085,0,0,1,.274-.048.7.7,0,0,1,.1-.019.293.293,0,0,0,.072-.006c.1-.016.2-.023.3-.031.018,0,.037,0,.055,0a.5.5,0,0,1,.067-.007c.045,0,.092,0,.137-.006.172-.014.345-.014.517-.03a.364.364,0,0,0,.058,0c.178-.01.355-.025.532-.052a.33.33,0,0,0,.1-.015c.143-.035.285-.074.429-.105a.217.217,0,0,0,.053-.022.571.571,0,0,1,.066-.026c.127-.064.262-.115.383-.191a1.642,1.642,0,0,0,.213-.13.966.966,0,0,0,.1-.075,1.529,1.529,0,0,0,.288-.269,1.6,1.6,0,0,0,.2-.3,1.646,1.646,0,0,0,.105-.31c.019-.063.021-.13.036-.194.008-.036.008-.074.017-.111.028-.092.027-.2.1-.268a1.074,1.074,0,0,1,.091-.07.246.246,0,0,1,.034-.021.383.383,0,0,1,.147-.033.064.064,0,0,1,.037.02Z" transform="translate(-6688.175 -427.106)"/>
    </g>
    <g id="Grupo_8302" data-name="Grupo 8302" transform="translate(3.843 0.109)">
      <path id="Caminho_13335" data-name="Caminho 13335" d="M6688.277,425.748a.455.455,0,0,1-.135-.232l.023-.175a.074.074,0,0,1,.014-.066.575.575,0,0,1,.032-.05.959.959,0,0,1,.074-.083,2.655,2.655,0,0,1,.375-.249c.07-.042.144-.08.216-.117s.129-.058.19-.092c.084-.04.17-.075.257-.106a1.16,1.16,0,0,1,.143-.054,3.168,3.168,0,0,1,.373-.128,5.127,5.127,0,0,1,.55-.151c.146-.021.287-.06.431-.085a.311.311,0,0,0,.105-.011.775.775,0,0,1,.13-.025.225.225,0,0,0,.07-.006c.076-.018.154-.019.23-.032.063,0,.121-.021.182-.018.023,0,.046-.006.069-.006a.222.222,0,0,0,.054,0c.089-.009.177-.013.265-.022.068,0,.136-.006.2-.007.022,0,.044,0,.066,0h.04a2.014,2.014,0,0,1,.209,0,.447.447,0,0,1,.264.178.469.469,0,0,1,.058.175.379.379,0,0,1-.179.36,1.238,1.238,0,0,1-.452.077c-.086-.005-.171.019-.257.014-.108,0-.215.022-.323.029-.023,0-.046.005-.069,0a.231.231,0,0,0-.067.007c-.034.007-.065.017-.1.022a2.344,2.344,0,0,0-.341.044.488.488,0,0,0-.136.022,5.289,5.289,0,0,0-.811.2.268.268,0,0,0-.1.03c-.037.02-.08.023-.115.046a.162.162,0,0,1-.026.013,1.431,1.431,0,0,0-.345.134,2.639,2.639,0,0,0-.446.218c-.1.057-.193.134-.3.188l-.047.025a.368.368,0,0,1-.343-.019A.073.073,0,0,1,6688.277,425.748Z" transform="translate(-6688.143 -424.027)"/>
    </g>
    <g id="Grupo_8303" data-name="Grupo 8303" transform="translate(2.555 0)">
      <path id="Caminho_13336" data-name="Caminho 13336" d="M6677.444,427.148l.128-.289.01-.019a.141.141,0,0,1,.037-.066h0a.965.965,0,0,1,.178-.333c.051-.066.093-.137.144-.2a.3.3,0,0,1,.072-.068l.226-.272.217-.221a.285.285,0,0,1,.148-.142l.074-.06c.021-.052.071-.076.108-.112.025-.021.054-.036.079-.058l.029-.026a3.216,3.216,0,0,1,.533-.319c.078-.047.173-.047.253-.086a5.6,5.6,0,0,1,.734-.167.369.369,0,0,0,.073,0,.716.716,0,0,1,.1-.015.238.238,0,0,0,.07-.006c.111-.012.221-.027.333-.031.067-.009.135-.01.2-.022s.116-.017.174-.015l.474-.044c.113-.016.228-.023.341-.04a.287.287,0,0,0,.1-.013,1.455,1.455,0,0,0,.514-.143.875.875,0,0,0,.174-.1,1.459,1.459,0,0,0,.24-.2,3.726,3.726,0,0,0,.438-.56,2.339,2.339,0,0,1,.2-.294c.022-.021.045-.041.068-.06a.382.382,0,0,1,.464.058.565.565,0,0,1,.054.065.371.371,0,0,1,.061.241.275.275,0,0,1-.013.091c-.044.068-.071.146-.118.213q-.035.055-.067.112a2.2,2.2,0,0,1-.157.238.316.316,0,0,1-.057.092c-.075.079-.14.167-.213.247a2.761,2.761,0,0,1-.229.227c-.048.039-.095.08-.141.121-.03.025-.063.045-.093.07-.075.055-.156.1-.236.147a2.148,2.148,0,0,1-.631.2c-.093.011-.182.044-.274.057a2.06,2.06,0,0,0-.372.038h-.027c-.025,0-.05,0-.076,0a.216.216,0,0,0-.061.005.318.318,0,0,1-.063.008.227.227,0,0,0-.053,0c-.1.01-.2.018-.294.03a.311.311,0,0,0-.058,0,2.314,2.314,0,0,0-.234.031,3.068,3.068,0,0,0-.542.062,1.224,1.224,0,0,0-.164.021,2.033,2.033,0,0,0-.863.313c-.043.032-.09.058-.13.094s-.073.056-.11.083-.075.062-.111.094a2.25,2.25,0,0,0-.211.2l-.026.025a3.73,3.73,0,0,0-.433.554,2.339,2.339,0,0,0-.177.313c-.01.017-.02.034-.029.052a2.52,2.52,0,0,0-.125.3.967.967,0,0,0-.081.29.11.11,0,0,1-.013.046.14.14,0,0,0-.024.108.476.476,0,0,1-.021.091.355.355,0,0,0-.018.078c-.012.045,0,.094-.018.138a1.975,1.975,0,0,0-.013.449.23.23,0,0,1,0,.026.6.6,0,0,0,0,.142.216.216,0,0,0,.006.056,4.332,4.332,0,0,0,.114.693,4.177,4.177,0,0,0,.223.609,2.8,2.8,0,0,0,.278.48c.023.036.048.07.072.1s.041.051.062.075c.049.065.111.118.164.179s.1.092.146.138c.029.026.061.05.091.075.1.083.205.151.306.229.1.062.2.123.3.179.092.039.175.1.267.133.044.017.085.041.129.058.084.036.169.069.255.1s.142.047.211.076l.033.013c.09.033.183.058.271.093.065.02.13.042.193.064a.788.788,0,0,0,.1.033,6.742,6.742,0,0,1,.63.276c.105.066.212.129.319.194l.051.031c.09.069.184.133.271.205a1.76,1.76,0,0,1,.347.339.393.393,0,0,1-.016.413.187.187,0,0,1-.106.107.406.406,0,0,1-.256.064.2.2,0,0,1-.039-.007.682.682,0,0,1-.313-.22l-.049-.038a3.133,3.133,0,0,0-.9-.546l-.055-.025c-.078-.03-.157-.058-.235-.086s-.161-.043-.237-.08c-.027-.008-.054-.015-.08-.025-.083-.031-.168-.053-.25-.084-.048-.02-.1-.037-.145-.054s-.118-.045-.177-.068c-.08-.037-.159-.071-.241-.1a.233.233,0,0,1-.032-.015c-.111-.057-.224-.107-.331-.17a2.019,2.019,0,0,1-.341-.206c-.107-.063-.2-.143-.3-.215a.209.209,0,0,1-.03-.022c-.065-.065-.139-.119-.206-.183a.618.618,0,0,1-.134-.154l-.053-.058c-.039-.007-.056-.042-.081-.066l-.062-.072c-.015-.019-.032-.037-.047-.054a.664.664,0,0,1-.152-.231c0-.011,0-.016-.015-.016a.936.936,0,0,1-.181-.252c-.024-.039-.045-.08-.069-.12-.065-.118-.111-.243-.172-.363a.125.125,0,0,1-.01-.1,5.087,5.087,0,0,1-.252-.968c0-.031.012-.064-.009-.094a.114.114,0,0,1-.037-.086,3.48,3.48,0,0,1-.02-.422c0-.029,0-.057,0-.086a.93.93,0,0,1,.037-.344c.009-.006.009-.013,0-.021a1.3,1.3,0,0,1,.032-.374c.013-.04.012-.085.045-.117l.056-.231a.056.056,0,0,1,.02-.06Z" transform="translate(-6677.129 -423.095)"/>
    </g>
    <g id="Grupo_8304" data-name="Grupo 8304" transform="translate(6.636 5.239)">
      <path id="Caminho_13337" data-name="Caminho 13337" d="M6712.917,468c.009.011.02.009.033,0a1,1,0,0,1,.264.062c.081.025.161.052.239.082l.046.017a1.142,1.142,0,0,1,.284.126.3.3,0,0,0,.108.046.063.063,0,0,1,.034,0,.478.478,0,0,1,.075.029.188.188,0,0,1,.1.059l.184.085a.139.139,0,0,1,.124.058l.269.135a1.024,1.024,0,0,1,.353.187l.939.571a2.711,2.711,0,0,0,.289.2.079.079,0,0,1,.061.042l.246.173a.138.138,0,0,1,.042.015.074.074,0,0,1,.038.041.99.99,0,0,0,.182.135.145.145,0,0,1,.077.039.208.208,0,0,0,.04.033c.014.01.031.019.034.038a.529.529,0,0,0,.121.1.494.494,0,0,1,.216.167.152.152,0,0,0,.071.056.581.581,0,0,0,.2.149c.033.034.083.052.1.1a.848.848,0,0,0,.179.138.5.5,0,0,1,.165.159l.017.015a.394.394,0,0,1,.116.315l-.028.1a.329.329,0,0,1-.329.243.586.586,0,0,1-.144-.022,1.272,1.272,0,0,1-.252-.18.3.3,0,0,1-.087-.1.83.83,0,0,0-.158-.128.062.062,0,0,1-.055-.019.214.214,0,0,0-.063-.05.207.207,0,0,1-.064-.084.283.283,0,0,0-.091-.071c-.055-.006-.082-.054-.123-.081a.864.864,0,0,1-.09-.07c-.025-.018-.047-.038-.07-.057a1,1,0,0,1-.094-.066c-.035-.03-.075-.054-.109-.085-.082-.056-.154-.124-.234-.183a2.215,2.215,0,0,1-.306-.214.808.808,0,0,1-.236-.167l-.082-.052a1.061,1.061,0,0,1-.284-.184l-.021-.013a.613.613,0,0,1-.258-.156l-.064-.039c-.1-.016-.162-.1-.252-.124a1.045,1.045,0,0,1-.094-.052c-.067-.056-.161-.07-.221-.139l-.071-.035a.582.582,0,0,1-.24-.123l-.127-.058a.862.862,0,0,1-.263-.118.867.867,0,0,0-.2-.079l-.024-.012a.5.5,0,0,1-.272-.1.673.673,0,0,0-.184-.062.3.3,0,0,1-.129-.022,2.739,2.739,0,0,0-.294-.075l-.036-.008a1.428,1.428,0,0,1-.31-.093.422.422,0,0,1-.076-.054.331.331,0,0,1-.09-.352l.012-.04a.137.137,0,0,1,.065-.118.559.559,0,0,1,.215-.13.278.278,0,0,1,.265.019Z" transform="translate(-6712.014 -467.876)"/>
    </g>
  </g>
  <g id="Grupo_8306" data-name="Grupo 8306" transform="translate(11.03 28.881)">
    <rect id="Retângulo_3179" data-name="Retângulo 3179" width="20.4" height="16.638" transform="translate(0 4.867) rotate(-13.803)" fill="#7a7a7a"/>
  </g>
</svg>
