<svg id="Componente_40_2" data-name="Componente 40 – 2" xmlns="http://www.w3.org/2000/svg" width="147.462" height="175.962" viewBox="0 0 147.462 175.962">
  <g id="Grupo_8238" data-name="Grupo 8238" transform="translate(0 15.057)">
    <g id="Grupo_8151" data-name="Grupo 8151" transform="translate(112.259 48.586)">
      <g id="Grupo_8150" data-name="Grupo 8150">
        <path id="Caminho_13237" data-name="Caminho 13237" d="M7598.063,3584.9h-2.626a3.181,3.181,0,0,1-2.883-1.83c-.243-.522-.473-1.037-.689-1.552-.416-.986-.785-1.968-1.125-2.992-.31-.935-.6-1.9-.866-2.938-.148-.564-.291-1.148-.433-1.757a.969.969,0,0,1,1.2-1.151l2.43.676,2.006.559,9.028,2.511h0l1.844.512a2.887,2.887,0,0,1,2,3.583c-3.445,11.887-7.176,19.212-14.289,29.57A4.63,4.63,0,0,1,7588,3611.7a123.266,123.266,0,0,1-14.787-7.711c2.193-4.215,4.184-7.952,6.773-12.337,2.558,1.633,5.211,3.259,8.061,4.937a.706.706,0,0,0,.911-.171C7592.316,3592.153,7595.343,3588.916,7598.063,3584.9Z" transform="translate(-7573.212 -3572.638)" fill="#fff"/>
      </g>
    </g>
    <g id="Grupo_8153" data-name="Grupo 8153" transform="translate(134.128 35.99)">
      <g id="Grupo_8152" data-name="Grupo 8152">
        <path id="Caminho_13238" data-name="Caminho 13238" d="M7861.454,3412.433v15.758l-9.027-2.512v-13.868h8.405A.621.621,0,0,1,7861.454,3412.433Z" transform="translate(-7852.426 -3411.812)" fill="#fff"/>
      </g>
    </g>
    <g id="Grupo_8155" data-name="Grupo 8155" transform="translate(132.121 35.99)">
      <g id="Grupo_8154" data-name="Grupo 8154">
        <path id="Caminho_13239" data-name="Caminho 13239" d="M7828.818,3411.812v13.868l-2.006-.559v-12.713a.6.6,0,0,1,.6-.6Z" transform="translate(-7826.813 -3411.812)" fill="#323433"/>
      </g>
    </g>
    <g id="Grupo_8157" data-name="Grupo 8157" transform="translate(109.963 66.098)">
      <g id="Grupo_8156" data-name="Grupo 8156">
        <path id="Caminho_13240" data-name="Caminho 13240" d="M7550.638,3796.237q1.152.755,2.331,1.506c-2.589,4.385-4.58,8.122-6.773,12.337q-1.155-.7-2.3-1.429C7546.152,3804.305,7548.126,3800.553,7550.638,3796.237Z" transform="translate(-7543.899 -3796.237)" fill="#323433"/>
      </g>
    </g>
    <g id="Grupo_8159" data-name="Grupo 8159" transform="translate(64.76 30.086)">
      <g id="Grupo_8158" data-name="Grupo 8158">
        <path id="Caminho_13241" data-name="Caminho 13241" d="M7018.692,3372.443c-2.511,4.316-4.486,8.069-6.738,12.413-2.827-1.8-5.576-3.7-8.194-5.667v22.371h-8.678a14.423,14.423,0,0,1-8.291-2.62c-4.049-2.845-8.115-5.713-12.381-8.658h0a126.235,126.235,0,0,1,.134-32.2,5.71,5.71,0,0,0-1.51-4.565c-2.314-2.469-4.378-4.8-6.283-7.1,3.071-3.376,5.921-6.428,9.536-9.981l8.867,8.891c-.894,1.985,2.7,4.444,2.7,4.444v.539c-1.988,2.653-6.041,9.217-.815,12.975,5.619,4.042,12.07.681,15.493-2.292C7008.265,3365.3,7013.33,3368.93,7018.692,3372.443Z" transform="translate(-6966.751 -3336.43)" fill="#ff7d00"/>
      </g>
    </g>
    <g id="Grupo_8161" data-name="Grupo 8161" transform="translate(104.781 131.097)">
      <g id="Grupo_8160" data-name="Grupo 8160">
        <path id="Caminho_13242" data-name="Caminho 13242" d="M7483.065,4626.708v28.308a.576.576,0,0,1-.594.576,13.654,13.654,0,0,1-1.918-.2V4628.66a9.331,9.331,0,0,1-2.828-2.528h4.763A.576.576,0,0,1,7483.065,4626.708Z" transform="translate(-7477.726 -4626.132)" fill="#323433"/>
      </g>
    </g>
    <g id="Grupo_8163" data-name="Grupo 8163" transform="translate(93.841 131.097)">
      <g id="Grupo_8162" data-name="Grupo 8162">
        <path id="Caminho_13243" data-name="Caminho 13243" d="M7351.819,4628.658v26.729c-9.444-1.7-8.359-13.021-13.767-13.021V4626.13h10.939A9.32,9.32,0,0,0,7351.819,4628.658Z" transform="translate(-7338.052 -4626.13)" fill="#fff"/>
      </g>
    </g>
    <g id="Grupo_8165" data-name="Grupo 8165" transform="translate(99.981 131.097)">
      <g id="Grupo_8164" data-name="Grupo 8164">
        <path id="Caminho_13244" data-name="Caminho 13244" d="M7424.072,4628.658v5.7a8.967,8.967,0,0,1-7.627-8.228h4.8A9.32,9.32,0,0,0,7424.072,4628.658Z" transform="translate(-7416.445 -4626.13)" fill="#ff7d00"/>
      </g>
    </g>
    <g id="Grupo_8167" data-name="Grupo 8167" transform="translate(84.57 25.64)">
      <g id="Grupo_8166" data-name="Grupo 8166">
        <path id="Caminho_13245" data-name="Caminho 13245" d="M7240.842,3282.895c0,2.836-2.031,5.011-4.409,6.268a10,10,0,0,1-4.475,1.218,47.807,47.807,0,0,1-8.115-.98v6.646s-2.413-3.316-4.162-3.764h0c.614-8.639,8.888-10.683,11.716-11.626C7234.336,3279.676,7240.842,3278.278,7240.842,3282.895Z" transform="translate(-7219.682 -3279.664)" fill="#323433"/>
      </g>
    </g>
    <g id="Grupo_8169" data-name="Grupo 8169" transform="translate(82.481 35.137)">
      <g id="Grupo_8168" data-name="Grupo 8168">
        <path id="Caminho_13246" data-name="Caminho 13246" d="M7211.854,3400.931c.231,2.78.323,5.4.314,8.235a6.926,6.926,0,0,1-6.825,6.9c2,1.538,3.9,2.987,5.729,4.366-3.422,2.973-9.873,6.334-15.492,2.292-5.226-3.759-1.173-10.322.815-12.975v-.539s-3.594-2.459-2.7-4.444a1.873,1.873,0,0,1,.183-.312,1.062,1.062,0,0,1,1.226-.406c1.749.448,4.161,3.764,4.161,3.764v-6.646a47.817,47.817,0,0,0,8.115.98,10,10,0,0,0,4.475-1.219Z" transform="translate(-7193.013 -3400.93)" fill="#fff"/>
      </g>
    </g>
    <g id="Grupo_8175" data-name="Grupo 8175" transform="translate(64.43 101.541)">
      <g id="Grupo_8174" data-name="Grupo 8174">
        <path id="Caminho_13249" data-name="Caminho 13249" d="M6979.564,4260.024l-1.594,1.8c-5.593-3.826-10.375-7.2-15.434-11.149l1.438-1.9C6968.885,4252.6,6973.622,4255.96,6979.564,4260.024Z" transform="translate(-6962.536 -4248.769)" fill="#fff"/>
      </g>
    </g>
    <g id="Grupo_8177" data-name="Grupo 8177" transform="translate(42.458 103.444)">
      <g id="Grupo_8176" data-name="Grupo 8176">
        <path id="Caminho_13250" data-name="Caminho 13250" d="M6733.383,4300.712v19.911c-4.485-2.728-11.774-3.555-15.524-3.555h-24.642a11.2,11.2,0,0,1-8.934-17.944l19.689-26.064c5.059,3.948,9.841,7.323,15.434,11.15l-14.639,16.5Z" transform="translate(-6682 -4273.059)" fill="#323433"/>
      </g>
    </g>
    <g id="Grupo_8179" data-name="Grupo 8179" transform="translate(53.491 0.349)">
      <g id="Grupo_8178" data-name="Grupo 8178">
        <path id="Caminho_13251" data-name="Caminho 13251" d="M6839.581,2957l11.063-.243c-6.518,10.479-9.411,16-13.433,21.583a1.418,1.418,0,0,0,.149,1.826l4.35,4.363c-3.439,3.424-6.22,6.435-9.294,9.826h0a138.944,138.944,0,0,1-8.8-12.518,4.835,4.835,0,0,1,.276-5.546C6829.754,2968.732,6832.632,2965.265,6839.581,2957Z" transform="translate(-6822.866 -2956.752)" fill="#fff"/>
      </g>
    </g>
    <g id="Grupo_8181" data-name="Grupo 8181" transform="translate(63.039 28.12)">
      <g id="Grupo_8180" data-name="Grupo 8180">
        <path id="Caminho_13252" data-name="Caminho 13252" d="M6954.07,3311.334l1.961,1.966c-3.615,3.553-6.465,6.6-9.536,9.981q-.883-1.064-1.72-2.119h0C6947.85,3317.769,6950.631,3314.759,6954.07,3311.334Z" transform="translate(-6944.775 -3311.334)" fill="#323433"/>
      </g>
    </g>
    <g id="Grupo_8183" data-name="Grupo 8183" transform="translate(1.942 105.449)">
      <g id="Grupo_8182" data-name="Grupo 8182">
        <path id="Caminho_13253" data-name="Caminho 13253" d="M6183.587,4299.321c-3.619,4.015-11.306-4.372-18.888,1.5l16.32,14.714,3.532,3.186a9.311,9.311,0,0,1,3.771-.408l3.008-3.336,4.364-4.84Z" transform="translate(-6164.699 -4298.658)" fill="#fff"/>
      </g>
    </g>
    <g id="Grupo_8185" data-name="Grupo 8185" transform="translate(18.262 120.408)">
      <g id="Grupo_8184" data-name="Grupo 8184">
        <path id="Caminho_13254" data-name="Caminho 13254" d="M6383.38,4491.017l-3.008,3.337a9.3,9.3,0,0,0-3.772.408l-3.532-3.186A8.988,8.988,0,0,1,6383.38,4491.017Z" transform="translate(-6373.068 -4489.654)" fill="#ff7d00"/>
      </g>
    </g>
    <g id="Grupo_8187" data-name="Grupo 8187" transform="translate(0.348 107.616)">
      <g id="Grupo_8186" data-name="Grupo 8186">
        <path id="Caminho_13255" data-name="Caminho 13255" d="M6169.562,4343.818l-3.189,3.538a.575.575,0,0,1-.812.042l-21.024-18.954a.577.577,0,0,1-.031-.827,13.689,13.689,0,0,1,1.434-1.29l19.854,17.9A9.3,9.3,0,0,1,6169.562,4343.818Z" transform="translate(-6144.344 -4326.326)" fill="#323433"/>
      </g>
    </g>
    <g id="Grupo_8189" data-name="Grupo 8189" transform="translate(20.832 72.223)">
      <g id="Grupo_8188" data-name="Grupo 8188">
        <path id="Caminho_13256" data-name="Caminho 13256" d="M6466.5,3915c-5.943-4.063-10.681-7.421-15.591-11.255-3.627-2.832-7.35-5.923-11.727-9.749-7.335,8.707-12.6,15.483-18.677,27.394l-2.525-2.257-12.107-10.818,24.492-30.582a8.822,8.822,0,0,1,11.655-1.906c5.579,3.585,10.639,7,15.442,10.314,4.266,2.944,8.332,5.812,12.381,8.658a14.424,14.424,0,0,0,8.29,2.62h8.679v7.627c0,8.561-12.763,15.1-19.613,10.428C6466.964,3915.32,6466.731,3915.16,6466.5,3915Z" transform="translate(-6405.873 -3874.43)" fill="#323433"/>
      </g>
    </g>
    <g id="Grupo_8191" data-name="Grupo 8191" transform="translate(53.146 0.244)">
      <g id="Grupo_8190" data-name="Grupo 8190">
        <path id="Caminho_13257" data-name="Caminho 13257" d="M6837.73,3039.452a.348.348,0,0,1-.345-.306,126.86,126.86,0,0,1,.134-32.286,5.359,5.359,0,0,0-1.419-4.287c-2.323-2.479-4.383-4.807-6.3-7.118-.564-.68-1.146-1.395-1.727-2.125a139.628,139.628,0,0,1-8.825-12.549,5.193,5.193,0,0,1,.294-5.944c5.807-7.473,8.593-10.837,15.705-19.3a.348.348,0,1,1,.532.448c-7.1,8.457-9.889,11.818-15.687,19.281a4.5,4.5,0,0,0-.257,5.146,139.062,139.062,0,0,0,8.782,12.488c.578.726,1.155,1.437,1.717,2.113,1.906,2.3,3.956,4.618,6.27,7.086a6.05,6.05,0,0,1,1.6,4.843,126.191,126.191,0,0,0-.134,32.12.349.349,0,0,1-.3.389Z" transform="translate(-6818.457 -2955.411)" fill="#323433"/>
      </g>
    </g>
    <g id="Grupo_8193" data-name="Grupo 8193" transform="translate(67.221)">
      <g id="Grupo_8192" data-name="Grupo 8192">
        <path id="Caminho_13258" data-name="Caminho 13258" d="M7014.109,2991.624a.348.348,0,0,1-.247-.1l-15.178-15.219a1.76,1.76,0,0,1-.186-2.275c2.5-3.471,4.536-6.871,7.351-11.575,1.7-2.832,3.616-6.042,6.065-9.981a.348.348,0,0,1,.648.175h0a.34.34,0,0,1-.053.184c-2.448,3.937-4.368,7.147-6.063,9.978-2.823,4.719-4.864,8.129-7.383,11.624a1.066,1.066,0,0,0,.113,1.377l15.178,15.219a.348.348,0,0,1-.246.594Z" transform="translate(-6998.167 -2952.299)" fill="#323433"/>
      </g>
    </g>
    <g id="Grupo_8195" data-name="Grupo 8195" transform="translate(20.484 52.022)">
      <g id="Grupo_8194" data-name="Grupo 8194">
        <path id="Caminho_13259" data-name="Caminho 13259" d="M6416.408,3684.025a.348.348,0,0,1-.232-.089l-14.632-13.075a.349.349,0,0,1-.04-.477L6426,3639.8a9.148,9.148,0,0,1,12.114-1.981c4.993,3.209,9.9,6.489,15.452,10.321,3.651,2.52,7.2,5.013,10.628,7.425l1.755,1.235a14,14,0,0,0,8.091,2.557h8.329v-22.022a.348.348,0,0,1,.557-.278c2.6,1.957,5.352,3.858,8.171,5.651.716.458,1.465.924,2.29,1.426a122.321,122.321,0,0,0,14.745,7.689,4.288,4.288,0,0,0,5.238-1.494c7.375-10.74,10.969-18.177,14.242-29.47a2.54,2.54,0,0,0-1.758-3.151l-1.844-.512a.348.348,0,1,1,.186-.671l1.844.512a3.236,3.236,0,0,1,2.241,4.016c-3.3,11.374-6.914,18.861-14.336,29.67a4.988,4.988,0,0,1-6.09,1.739,123.112,123.112,0,0,1-14.829-7.733c-.829-.5-1.583-.973-2.3-1.433-2.634-1.675-5.208-3.444-7.659-5.265v29.3c0,4.047-2.824,8.053-7.37,10.456-4.575,2.418-9.474,2.518-12.786.261l-.273-.186-.424-.288c-5.68-3.883-10.507-7.285-15.611-11.269-3.6-2.81-7.25-5.843-11.475-9.528-6.845,8.133-12.2,14.911-18.4,27.057a.348.348,0,0,1-.247.184A.33.33,0,0,1,6416.408,3684.025Zm-14.154-13.463,14.05,12.555c6.217-12.094,11.606-18.859,18.516-27.059a.347.347,0,0,1,.24-.123.342.342,0,0,1,.256.085c4.327,3.783,8.048,6.877,11.711,9.737,5.09,3.973,9.907,7.368,15.574,11.242l.426.289.271.186c3.052,2.08,7.789,1.962,12.069-.3,4.317-2.282,7-6.052,7-9.84v-7.279h-8.329a14.7,14.7,0,0,1-8.491-2.683l-1.756-1.235c-3.429-2.41-6.974-4.9-10.623-7.421-5.542-3.828-10.446-7.1-15.433-10.308a8.453,8.453,0,0,0-11.194,1.831Z" transform="translate(-6401.429 -3616.512)" fill="#323433"/>
      </g>
    </g>
    <g id="Grupo_8197" data-name="Grupo 8197" transform="translate(128.114 48.237)">
      <g id="Grupo_8196" data-name="Grupo 8196">
        <path id="Caminho_13260" data-name="Caminho 13260" d="M7789.407,3581.144h-7.392a3.539,3.539,0,0,1-3.2-2.03c-.262-.561-.49-1.073-.695-1.565-.422-1-.793-1.985-1.135-3.017-.312-.942-.6-1.91-.872-2.96-.144-.548-.286-1.125-.435-1.766a1.317,1.317,0,0,1,1.637-1.566l13.462,3.746a.348.348,0,0,1-.187.671l-13.463-3.746a.621.621,0,0,0-.772.736c.148.635.289,1.206.431,1.748.27,1.036.551,1.99.859,2.917.336,1.014.7,1.984,1.116,2.967.2.484.426.988.684,1.54a2.842,2.842,0,0,0,2.568,1.628h7.392a.348.348,0,1,1,0,.7Z" transform="translate(-7775.646 -3568.19)" fill="#323433"/>
      </g>
    </g>
    <g id="Grupo_8199" data-name="Grupo 8199" transform="translate(42.119 103.096)">
      <g id="Grupo_8198" data-name="Grupo 8198">
        <path id="Caminho_13261" data-name="Caminho 13261" d="M6729.4,4316.876a.351.351,0,0,1-.181-.05c-4.558-2.772-12.03-3.5-15.344-3.5h-24.642a11.544,11.544,0,0,1-9.212-18.5l19.69-26.064a.355.355,0,0,1,.233-.136.349.349,0,0,1,.26.072c4.263,3.353,8.457,6.279,13.764,9.983l1.654,1.154a.348.348,0,0,1,.061.517l-14.125,15.924H6729.4a.348.348,0,0,1,.348.348v19.91a.348.348,0,0,1-.177.3A.344.344,0,0,1,6729.4,4316.876Zm-29.347-47.418-19.476,25.782a10.847,10.847,0,0,0,8.656,17.386h24.642c3.257,0,10.46.7,15.177,3.3v-18.958h-28.268a.348.348,0,0,1-.261-.579l14.38-16.211-1.333-.93C6708.364,4275.616,6704.231,4272.732,6700.048,4269.458Z" transform="translate(-6677.673 -4268.616)" fill="#323433"/>
      </g>
    </g>
    <g id="Grupo_8201" data-name="Grupo 8201" transform="translate(94.463 49.928)">
      <g id="Grupo_8200" data-name="Grupo 8200">
        <path id="Caminho_13262" data-name="Caminho 13262" d="M7378.971,3612.829a1.048,1.048,0,0,1-.531-.144c-2.847-1.678-5.487-3.295-8.071-4.944q-1.181-.753-2.334-1.508c-5.025-3.292-10.016-6.829-16.181-11.469-1.712-1.291-3.588-2.72-5.731-4.369a.348.348,0,1,1,.425-.552c2.142,1.648,4.015,3.076,5.726,4.364,6.152,4.63,11.131,8.16,16.143,11.443q1.151.754,2.326,1.5c2.577,1.645,5.211,3.257,8.051,4.931a.36.36,0,0,0,.461-.087c1.189-1.512,2.335-2.891,3.442-4.225a92.09,92.09,0,0,0,5.649-7.281.348.348,0,0,1,.577.39,92.752,92.752,0,0,1-5.689,7.336c-1.1,1.331-2.248,2.707-3.432,4.211A1.059,1.059,0,0,1,7378.971,3612.829Z" transform="translate(-7345.987 -3589.771)" fill="#323433"/>
      </g>
    </g>
    <g id="Grupo_8203" data-name="Grupo 8203" transform="translate(82.672 25.291)">
      <g id="Grupo_8202" data-name="Grupo 8202">
        <path id="Caminho_13263" data-name="Caminho 13263" d="M7198.634,3301.78a.348.348,0,0,1-.348-.348v-7.917c-.712-.521-3.568-2.771-2.669-4.766a2.187,2.187,0,0,1,.217-.373,1.364,1.364,0,0,1,1.192-.6c.785-8.008,8.138-10.35,11.3-11.359.227-.072.434-.138.618-.2,1.428-.476,6.271-1.9,8.629-.2a3.2,3.2,0,0,1,1.273,2.767c0,2.636-1.675,5.033-4.595,6.575a10.358,10.358,0,0,1-4.638,1.259,46.54,46.54,0,0,1-7.767-.9v6.221a.348.348,0,0,1-.629.2c-.651-.894-2.633-3.29-3.967-3.632a.717.717,0,0,0-.857.274,1.522,1.522,0,0,0-.147.252c-.634,1.409,1.647,3.374,2.58,4.012a.348.348,0,0,1,.152.287v8.1A.349.349,0,0,1,7198.634,3301.78Zm-.923-13.852a10.736,10.736,0,0,1,3.443,3v-5.636a.349.349,0,0,1,.421-.341,47.809,47.809,0,0,0,8.042.972,9.647,9.647,0,0,0,4.312-1.177c1.271-.671,4.224-2.594,4.224-5.96a2.511,2.511,0,0,0-.984-2.2c-1.662-1.2-5.223-.633-8,.294-.187.062-.4.129-.627.2C7205.238,3278.132,7198.406,3280.309,7197.711,3287.928Z" transform="translate(-7195.443 -3275.206)" fill="#323433"/>
      </g>
    </g>
    <g id="Grupo_8205" data-name="Grupo 8205" transform="translate(92.3 34.791)">
      <g id="Grupo_8204" data-name="Grupo 8204">
        <path id="Caminho_13264" data-name="Caminho 13264" d="M7320.788,3412.339h-2.062a.348.348,0,0,1,0-.7h2.151a6.608,6.608,0,0,0,6.488-6.556c.008-2.922-.091-5.529-.314-8.2a.348.348,0,0,1,.694-.058c.225,2.7.325,5.322.316,8.264a7.306,7.306,0,0,1-7.168,7.25Z" transform="translate(-7318.378 -3396.505)" fill="#323433"/>
      </g>
    </g>
    <g id="Grupo_8207" data-name="Grupo 8207" transform="translate(82.133 43.611)">
      <g id="Grupo_8206" data-name="Grupo 8206">
        <path id="Caminho_13265" data-name="Caminho 13265" d="M7197.2,3524.654a9.953,9.953,0,0,1-5.922-1.926,6.11,6.11,0,0,1-2.634-4.114c-.537-3.5,1.884-7.363,3.374-9.353a.348.348,0,0,1,.557.418c-1.425,1.9-3.741,5.578-3.243,8.829a5.437,5.437,0,0,0,2.352,3.654c6.479,4.661,13.682-1.075,15.061-2.272a.348.348,0,1,1,.457.526C7204.493,3522.769,7200.868,3524.654,7197.2,3524.654Z" transform="translate(-7188.567 -3509.123)" fill="#323433"/>
      </g>
    </g>
    <g id="Grupo_8211" data-name="Grupo 8211" transform="translate(131.773 35.642)">
      <g id="Grupo_8210" data-name="Grupo 8210">
        <path id="Caminho_13267" data-name="Caminho 13267" d="M7833.748,3424.443a.349.349,0,0,1-.348-.348v-15.76a.274.274,0,0,0-.273-.273h-9.816a.248.248,0,0,0-.248.248v12.713a.348.348,0,0,1-.7,0v-12.713a.946.946,0,0,1,.945-.944h9.816a.971.971,0,0,1,.97.969v15.758A.349.349,0,0,1,7833.748,3424.443Z" transform="translate(-7822.365 -3407.367)" fill="#323433"/>
      </g>
    </g>
    <g id="Grupo_8213" data-name="Grupo 8213" transform="translate(133.779 35.642)">
      <g id="Grupo_8212" data-name="Grupo 8212">
        <path id="Caminho_13268" data-name="Caminho 13268" d="M7848.329,3421.931a.349.349,0,0,1-.349-.348v-13.868a.348.348,0,1,1,.7,0v13.868A.348.348,0,0,1,7848.329,3421.931Z" transform="translate(-7847.98 -3407.367)" fill="#323433"/>
      </g>
    </g>
    <g id="Grupo_8215" data-name="Grupo 8215" transform="translate(139.174 37.545)">
      <g id="Grupo_8214" data-name="Grupo 8214">
        <path id="Caminho_13269" data-name="Caminho 13269" d="M7918.977,3432.369h-1.766a.348.348,0,1,1,0-.7h1.766a.348.348,0,1,1,0,.7Z" transform="translate(-7916.862 -3431.672)" fill="#323433"/>
      </g>
    </g>
    <g id="Grupo_8217" data-name="Grupo 8217" transform="translate(128.573 51.183)">
      <g id="Grupo_8216" data-name="Grupo 8216">
        <path id="Caminho_13270" data-name="Caminho 13270" d="M7789.119,3607.807a.352.352,0,0,1-.074-.008c-.046-.01-4.586-1-7.236-1.309a.348.348,0,0,1,.081-.691c2.684.316,7.257,1.31,7.3,1.32a.348.348,0,0,1-.074.688Z" transform="translate(-7781.502 -3605.796)" fill="#323433"/>
      </g>
    </g>
    <g id="Grupo_8219" data-name="Grupo 8219" transform="translate(129.438 54.121)">
      <g id="Grupo_8218" data-name="Grupo 8218">
        <path id="Caminho_13271" data-name="Caminho 13271" d="M7799.834,3644.712a.346.346,0,0,1-.047,0c-.042-.006-4.2-.561-6.9-.7a.347.347,0,0,1-.329-.365.355.355,0,0,1,.365-.33c2.729.137,6.919.7,6.961.7a.348.348,0,0,1-.046.693Z" transform="translate(-7792.553 -3643.316)" fill="#323433"/>
      </g>
    </g>
    <g id="Grupo_8221" data-name="Grupo 8221" transform="translate(130.91 57.092)">
      <g id="Grupo_8220" data-name="Grupo 8220">
        <path id="Caminho_13272" data-name="Caminho 13272" d="M7818.1,3682.067h-.017c-.04,0-4.017-.184-6.719-.1l-.012-.7h0c2.72-.081,6.721.1,6.761.1a.348.348,0,0,1-.015.7Z" transform="translate(-7811.35 -3681.246)" fill="#323433"/>
      </g>
    </g>
    <g id="Grupo_8223" data-name="Grupo 8223" transform="translate(93.493 130.749)">
      <g id="Grupo_8222" data-name="Grupo 8222">
        <path id="Caminho_13273" data-name="Caminho 13273" d="M7349.667,4651.843h-.035a13.972,13.972,0,0,1-1.967-.208c-5.436-.977-7.509-5.076-9.176-8.37-1.313-2.6-2.35-4.646-4.528-4.646a.348.348,0,0,1,0-.7c2.606,0,3.785,2.329,5.15,5.026,1.68,3.32,3.584,7.084,8.678,8a13.313,13.313,0,0,0,1.869.2.221.221,0,0,0,.162-.062.228.228,0,0,0,.07-.165v-28.308a.228.228,0,0,0-.229-.228h-15.7a.348.348,0,1,1,0-.7h15.7a.925.925,0,0,1,.925.924v28.308a.929.929,0,0,1-.283.666A.91.91,0,0,1,7349.667,4651.843Z" transform="translate(-7333.612 -4621.688)" fill="#323433"/>
      </g>
    </g>
    <g id="Grupo_8225" data-name="Grupo 8225" transform="translate(104.432 130.749)">
      <g id="Grupo_8224" data-name="Grupo 8224">
        <path id="Caminho_13274" data-name="Caminho 13274" d="M7476.455,4651.643a.348.348,0,0,1-.349-.348v-26.531a9.62,9.62,0,0,1-2.759-2.52.348.348,0,1,1,.56-.414,8.916,8.916,0,0,0,2.722,2.434.348.348,0,0,1,.174.3v26.729A.348.348,0,0,1,7476.455,4651.643Z" transform="translate(-7473.279 -4621.689)" fill="#323433"/>
      </g>
    </g>
    <g id="Grupo_8227" data-name="Grupo 8227" transform="translate(0 105.104)">
      <g id="Grupo_8226" data-name="Grupo 8226">
        <path id="Caminho_13275" data-name="Caminho 13275" d="M6161.845,4318.339a.916.916,0,0,1-.618-.238l-21.024-18.954a.925.925,0,0,1-.048-1.328,14.092,14.092,0,0,1,1.472-1.324c4.364-3.382,8.8-2.177,12.361-1.209,2.807.763,5.024,1.365,6.483-.252a.348.348,0,0,1,.517.466c-1.746,1.936-4.265,1.25-7.183.458-3.591-.976-7.662-2.082-11.752,1.088a13.32,13.32,0,0,0-1.4,1.257.22.22,0,0,0-.061.163.228.228,0,0,0,.076.164l21.024,18.954a.213.213,0,0,0,.164.059.226.226,0,0,0,.156-.075l10.563-11.715a.348.348,0,0,1,.518.466l-10.562,11.715a.917.917,0,0,1-.638.3Z" transform="translate(-6139.897 -4294.26)" fill="#323433"/>
      </g>
    </g>
    <g id="Grupo_8229" data-name="Grupo 8229" transform="translate(1.594 107.268)">
      <g id="Grupo_8228" data-name="Grupo 8228">
        <path id="Caminho_13276" data-name="Caminho 13276" d="M6180.447,4340.478a.345.345,0,0,1-.233-.09l-19.853-17.9a.348.348,0,1,1,.466-.517l19.706,17.766a9.589,9.589,0,0,1,3.719-.362.348.348,0,1,1-.068.693,8.9,8.9,0,0,0-3.63.393A.355.355,0,0,1,6180.447,4340.478Z" transform="translate(-6160.246 -4321.882)" fill="#323433"/>
      </g>
    </g>
    <g id="Grupo_8231" data-name="Grupo 8231" transform="translate(109.615 65.75)">
      <g id="Grupo_8230" data-name="Grupo 8230">
        <path id="Caminho_13277" data-name="Caminho 13277" d="M7539.8,3804.9a.354.354,0,0,1-.16-.039.349.349,0,0,1-.149-.469c2.174-4.192,4.181-8.02,6.747-12.428a.348.348,0,1,1,.6.35c-2.557,4.395-4.561,8.215-6.73,12.4A.348.348,0,0,1,7539.8,3804.9Z" transform="translate(-7539.453 -3791.793)" fill="#323433"/>
      </g>
    </g>
    <g id="Grupo_8233" data-name="Grupo 8233" transform="translate(111.911 67.256)">
      <g id="Grupo_8232" data-name="Grupo 8232">
        <path id="Caminho_13278" data-name="Caminho 13278" d="M7569.112,3824.046a.348.348,0,0,1-.309-.509c2.346-4.508,4.3-8.146,6.782-12.354a.348.348,0,0,1,.6.354c-2.476,4.193-4.424,7.823-6.764,12.321A.349.349,0,0,1,7569.112,3824.046Z" transform="translate(-7568.764 -3811.012)" fill="#323433"/>
      </g>
    </g>
    <g id="Grupo_8235" data-name="Grupo 8235" transform="translate(62.692 27.772)">
      <g id="Grupo_8234" data-name="Grupo 8234">
        <path id="Caminho_13279" data-name="Caminho 13279" d="M6940.694,3317.408a.348.348,0,0,1-.259-.582c3.286-3.624,5.988-6.534,9.3-9.835a.348.348,0,0,1,.521.46.329.329,0,0,1-.027.031c-3.306,3.292-6,6.2-9.282,9.813A.344.344,0,0,1,6940.694,3317.408Z" transform="translate(-6940.346 -3306.886)" fill="#323433"/>
      </g>
    </g>
    <g id="Grupo_8237" data-name="Grupo 8237" transform="translate(64.412 29.738)">
      <g id="Grupo_8236" data-name="Grupo 8236">
        <path id="Caminho_13280" data-name="Caminho 13280" d="M6962.655,3342.663a.348.348,0,0,1-.258-.583c3.138-3.449,5.962-6.469,9.549-9.994a.348.348,0,1,1,.488.5c-3.575,3.514-6.393,6.526-9.521,9.966A.348.348,0,0,1,6962.655,3342.663Z" transform="translate(-6962.307 -3331.986)" fill="#323433"/>
      </g>
    </g>
  </g>
  <g id="Grupo_8239" data-name="Grupo 8239" transform="translate(57.973 0.721)">
    <path id="Caminho_13281" data-name="Caminho 13281" d="M6908.086,2769.413a3.7,3.7,0,0,0-2.728.252c-2.333,1.055-17.823,21.217-24.115,29.49a5.653,5.653,0,0,0,.1,6.966,95.185,95.185,0,0,0,7.313,8.207h0c3.261-2.5-3.085-5.122-.018-8.292-1.836-1.649,3.227-3.133,1.168-4.909-.1-.088,2.061-.261,2.13-.377l8.918-15.064a5.623,5.623,0,0,1,3.11-2.485c1.862-.6,3.409-1.041,5.325-1.492a.654.654,0,0,0,.053-1.258,10.56,10.56,0,0,0-3.18-.542.518.518,0,0,1-.415-.814l4.5-6.43a1.3,1.3,0,0,0,.015-1.459,5.521,5.521,0,0,0-.59-.747A3.829,3.829,0,0,0,6908.086,2769.413Z" transform="translate(-6880.092 -2769.257)" fill="#fff"/>
  </g>
  <g id="Grupo_8240" data-name="Grupo 8240" transform="translate(69.595)">
    <path id="Caminho_13282" data-name="Caminho 13282" d="M7031.579,2779.7s11.19-13.661,12.3-14.924,6.5-1.04,7.077,1.167-4.271,8.052-4.271,8.052a8.969,8.969,0,0,1,2.28.265c.663.265,1.031,3.648-.1,3.273s-5.848,1.568-5.848,1.568" transform="translate(-7031.336 -2763.7)" fill="#fff"/>
    <path id="Caminho_13283" data-name="Caminho 13283" d="M7028.969,2776.257l-.485-.4c.457-.558,11.206-13.679,12.3-14.932.795-.909,3.212-1.073,4.971-.658,1.468.347,2.407,1.04,2.644,1.952.262,1-.4,2.722-1.961,5.1-.741,1.129-1.519,2.151-1.974,2.73a6.411,6.411,0,0,1,1.757.271c.743.3,1,2.426.686,3.3a.779.779,0,0,1-1,.563c-.745-.247-3.849.826-5.629,1.561l-.239-.579c.012-.005,1.2-.5,2.519-.933,2.738-.911,3.346-.709,3.546-.643.069.023.12.04.2-.127a3.47,3.47,0,0,0-.311-2.56,8.342,8.342,0,0,0-2.16-.241h-.667l.425-.513c1.319-1.592,4.646-6.091,4.208-7.773-.173-.667-.969-1.213-2.182-1.5-1.714-.405-3.79-.186-4.355.46C7040.167,2762.586,7029.081,2776.12,7028.969,2776.257Z" transform="translate(-7028.484 -2760.054)" fill="#323433"/>
  </g>
  <g id="Grupo_8241" data-name="Grupo 8241" transform="translate(80.154 0.133)">
    <line id="Linha_29" data-name="Linha 29" y1="6.737" x2="4.827" transform="translate(0.255 0.182)" fill="#fff"/>
    <rect id="Retângulo_3176" data-name="Retângulo 3176" width="8.288" height="0.627" transform="translate(0 6.737) rotate(-54.378)" fill="#323433"/>
  </g>
  <g id="Grupo_8242" data-name="Grupo 8242" transform="translate(82.321 0.73)">
    <line id="Linha_30" data-name="Linha 30" y1="7.47" x2="5.352" transform="translate(0.255 0.182)" fill="#fff"/>
    <rect id="Retângulo_3177" data-name="Retângulo 3177" width="9.19" height="0.627" transform="translate(0 7.47) rotate(-54.378)" fill="#323433"/>
  </g>
</svg>
