<svg id="Componente_44_1" data-name="Componente 44 – 1" xmlns="http://www.w3.org/2000/svg" width="336.333" height="270.306" viewBox="0 0 336.333 270.306">
  <g id="Grupo_8494" data-name="Grupo 8494">
    <g id="Grupo_8431" data-name="Grupo 8431" transform="translate(0 222.425)">
      <ellipse id="Elipse_1234" data-name="Elipse 1234" cx="162.396" cy="23.94" rx="162.396" ry="23.94" fill="#f0f0f0"/>
    </g>
    <g id="Grupo_8455" data-name="Grupo 8455" transform="translate(37.863 0.371)">
      <g id="Grupo_8432" data-name="Grupo 8432" transform="translate(207.417 127.241)">
        <path id="Caminho_13449" data-name="Caminho 13449" d="M9275.728,4717.813c3.248,6.5-5.053,10.467-11.187,5.415s-12.262-9.874-12.262-9.874,1.7,7.5-.262,12.133a2.09,2.09,0,0,1-3.932-.3c-1.806-6.611-2.786-11.367-4.217-15.742a16.085,16.085,0,0,0-4.977-7.338c-18.579-15.53-33.208-28.1-46.155-42.311a18.674,18.674,0,0,0-4.62-3.688l-2.342-1.323,14.749-17.431q1.229.9,2.455,1.8a57.78,57.78,0,0,1,7.921,7.018C9224.662,4660.783,9272.945,4712.247,9275.728,4717.813Z" transform="translate(-9185.774 -4637.355)" fill="#fff"/>
      </g>
      <g id="Grupo_8433" data-name="Grupo 8433" transform="translate(137.294 33.505)">
        <path id="Caminho_13450" data-name="Caminho 13450" d="M9070.586,4339.208c0,4.842,4.322,6.672,4.322,10.424,0,5.676-9.874,7.114-9.874,13.019,0,4.07,6.436,4.218,6.436,9.789,0,4.89-6.668,5.134-6.948,12.289a20,20,0,0,1-10.142-.957c-6.007-2.3-9.464-7.387-18.708-8.892-4.083-.667-6.891-.241-12.423.527-13.247,1.838-23.42,3.556-31.451,3.361-9.771-.237-16.37-3.3-21.479-12.421-3.739-6.675-6.681-16.6-9.481-31.032a51.36,51.36,0,0,0-7.228-17.822,1.475,1.475,0,0,0-2.638.311c-1,2.862-1.856,5.386-2.639,7.792a5.736,5.736,0,0,1-1.131,2,15.3,15.3,0,0,1-1.49,1.495.593.593,0,0,0-.145.691l.028.059a5.606,5.606,0,0,1,.312,3.826c-.012.033-.019.067-.028.1a9.091,9.091,0,0,0,5.792,10.984l5.209,1.814a36.705,36.705,0,0,1-2.645,8.906c-3.723-2.028-7.271-3.848-10.609-5.423l-.263-.124c-14.878-35.878,14.224-49.608,30.231-38.172,7.956,5.682,8.241,18.471,22.166,23.87s38.079-5.4,49.161-6.819c8.563-1.1,21.018-1.857,31.615,1.783C9073.425,4332.831,9070.586,4335.357,9070.586,4339.208Z" transform="translate(-8939.254 -4307.823)" fill="#323433"/>
      </g>
      <g id="Grupo_8434" data-name="Grupo 8434" transform="translate(80.957 58.693)">
        <path id="Caminho_13451" data-name="Caminho 13451" d="M8781.395,4434.984c-10.493-5.974-25.671-12-34.423-13.685l2.8-4.66,12.2-20.266c14.367,6.8,30.076,12.425,39.672,16.917.088.043.177.083.264.125,3.339,1.574,6.887,3.394,10.607,5.423a39.192,39.192,0,0,1-7.249,10.6,2.17,2.17,0,0,0,1.626,3.635,66.514,66.514,0,0,0,21.707-3.367c5.107,9.119,11.708,12.184,21.479,12.421,10.627,7.169,21.577,14.929,32.327,22.79l-14.749,17.431-4.967,5.869-30.127-28.143c-11.459,21.326-15.8,37.137-17.906,55.573q-3.63-1.8-7.111-3.542c-15.115-7.549-28.22-14.281-40.025-20.979-6.864-3.893-13.288-7.777-19.412-11.8q-3.517-2.315-6.91-4.7C8756.77,4464.037,8768.841,4452.039,8781.395,4434.984Z" transform="translate(-8741.201 -4396.373)" fill="#ff7d00"/>
      </g>
      <g id="Grupo_8435" data-name="Grupo 8435" transform="translate(188.228 205.007)">
        <path id="Caminho_13452" data-name="Caminho 13452" d="M9124.008,4910.743l27.194,44.28a43.321,43.321,0,0,1-6.215.707l-26.673-43.433Z" transform="translate(-9118.314 -4910.743)" fill="#323433"/>
      </g>
      <g id="Grupo_8436" data-name="Grupo 8436" transform="translate(167.856 206.561)">
        <path id="Caminho_13453" data-name="Caminho 13453" d="M9067.069,4916.207l26.673,43.433c-14.545.593-24.8-6.641-38.121-10.039-.083-11.571-2.54-20.444-8.924-29.082q3.545-.349,7.053-.994,2.947-.542,5.856-1.292c.384-.1.766-.2,1.148-.3Z" transform="translate(-9046.697 -4916.207)" fill="#ff7d00"/>
      </g>
      <g id="Grupo_8437" data-name="Grupo 8437" transform="translate(169.431 199.407)">
        <path id="Caminho_13454" data-name="Caminho 13454" d="M9057.928,4891.055l5.639,9.181q-2.906.748-5.855,1.292l-5.479-8.919Z" transform="translate(-9052.232 -4891.055)" fill="#323433"/>
      </g>
      <g id="Grupo_8438" data-name="Grupo 8438" transform="translate(149.06 200.961)">
        <path id="Caminho_13455" data-name="Caminho 13455" d="M9000.988,4896.518l5.478,8.918q-3.505.645-7.053.994-2.128.212-4.267.313-2.041.1-4.084.1h-6.654a46.048,46.048,0,0,0-3.792-6.012,85.112,85.112,0,0,0,14.059-2.59Z" transform="translate(-8980.616 -4896.518)" fill="#ff7d00"/>
      </g>
      <g id="Grupo_8439" data-name="Grupo 8439" transform="translate(163.589 210.873)">
        <path id="Caminho_13456" data-name="Caminho 13456" d="M9035.964,4931.367c6.382,8.636,8.84,17.51,8.924,29.081a52.54,52.54,0,0,0-13.192-1.707v-27.062Q9033.835,4931.577,9035.964,4931.367Z" transform="translate(-9031.695 -4931.367)" fill="#fff"/>
      </g>
      <g id="Grupo_8440" data-name="Grupo 8440" transform="translate(49.349 153.45)">
        <path id="Caminho_13457" data-name="Caminho 13457" d="M8744.319,4814.29v5.341h-95.168a19.069,19.069,0,0,1-12.977-5.1c-.293-.272-.574-.55-.84-.834a19.07,19.07,0,0,1-.291-25.977l44.64-49.077,8.328-9.155c11.8,6.7,24.91,13.43,40.024,20.979-4.864,16.567-17.852,25.473-31.711,31.255a165.5,165.5,0,0,1-16.158,5.6h60.07q2.042,0,4.082-.1Z" transform="translate(-8630.08 -4729.493)" fill="#323433"/>
      </g>
      <g id="Grupo_8441" data-name="Grupo 8441" transform="translate(143.554 42.494)">
        <path id="Caminho_13458" data-name="Caminho 13458" d="M8969.984,4378.086a36.619,36.619,0,0,0,2.646-8.906l-5.209-1.814a9.092,9.092,0,0,1-5.793-10.984c.011-.035.019-.07.029-.1a5.612,5.612,0,0,0-.312-3.826l-.029-.059a.6.6,0,0,1,.146-.691,15.261,15.261,0,0,0,1.491-1.495,5.761,5.761,0,0,0,1.13-2c.782-2.406,1.642-4.93,2.639-7.792a1.474,1.474,0,0,1,2.637-.312,51.388,51.388,0,0,1,7.229,17.822c2.8,14.433,5.741,24.356,9.48,31.032a66.5,66.5,0,0,1-21.706,3.368,2.171,2.171,0,0,1-1.628-3.636A39.2,39.2,0,0,0,8969.984,4378.086Z" transform="translate(-8961.263 -4339.421)" fill="#fff"/>
      </g>
      <g id="Grupo_8442" data-name="Grupo 8442" transform="translate(144.792 205.272)">
        <path id="Caminho_13459" data-name="Caminho 13459" d="M8973.675,4917.688h-8.061v-5.7q2.139-.1,4.268-.313A46.289,46.289,0,0,1,8973.675,4917.688Z" transform="translate(-8965.614 -4911.677)" fill="#fff"/>
      </g>
      <g id="Grupo_8443" data-name="Grupo 8443" transform="translate(99.437 205.585)">
        <path id="Caminho_13460" data-name="Caminho 13460" d="M8851.523,4912.777v5.7h-45.355a166.335,166.335,0,0,0,16.156-5.6h25.116Q8849.482,4912.875,8851.523,4912.777Z" transform="translate(-8806.168 -4912.777)" fill="#323433"/>
      </g>
      <g id="Grupo_8444" data-name="Grupo 8444" transform="translate(24.594 141.648)">
        <path id="Caminho_13461" data-name="Caminho 13461" d="M8617.412,4708.959l-44.641,49.077a19.07,19.07,0,0,0,.291,25.978l0,0h-10.934a19.073,19.073,0,0,1-14.111-31.907l58.311-64.1c6.125,4.023,12.549,7.909,19.412,11.8Z" transform="translate(-8543.053 -4688.003)" fill="#323433"/>
      </g>
      <g id="Grupo_8445" data-name="Grupo 8445" transform="translate(23.819)">
        <path id="Caminho_13462" data-name="Caminho 13462" d="M8542.13,4194.928a15.248,15.248,0,0,1-1.6.048v-4.506c1.759-.082,3.41-.212,5.02-.409a3.708,3.708,0,0,1,2.926.922c8.193,7.383,50.367,45.625,56.176,49.918a77.937,77.937,0,0,0,13.586,7.825l-12.2,20.267c-5.1-2.883-12.09-6.875-16.964-9.842-7.424-4.519-32.118-37.684-38.423-46.241a5.133,5.133,0,0,0-3.871-2.082,53.483,53.483,0,0,1-6.454-.705v-1.472a2.678,2.678,0,0,0,1.03-1.562,25.7,25.7,0,0,1,.887-2.726,37.954,37.954,0,0,0,1.775-5.105c.372-1.826.067-3.317-1.881-4.185Z" transform="translate(-8540.328 -4190.035)" fill="#fff"/>
      </g>
      <g id="Grupo_8446" data-name="Grupo 8446" transform="translate(6.678 43.201)">
        <circle id="Elipse_1235" data-name="Elipse 1235" cx="14.313" cy="14.313" r="14.313" fill="#ff7d00"/>
      </g>
      <g id="Grupo_8447" data-name="Grupo 8447" transform="translate(15.145 2.106)">
        <path id="Caminho_13463" data-name="Caminho 13463" d="M8520.321,4200.372c1.946.869,2.251,2.36,1.881,4.186-.991.938-2.741,1.23-4.679,1.19a8.048,8.048,0,0,1-7.689-5.124v0c.013-.034.022-.065.033-.093a4.345,4.345,0,0,1,3.329-3.087c.124.166.249.321.374.468a6.317,6.317,0,0,0,5.144,2.368,15.27,15.27,0,0,0,1.6-.049Z" transform="translate(-8509.834 -4197.439)" fill="#fff"/>
      </g>
      <g id="Grupo_8448" data-name="Grupo 8448" transform="translate(14.051 5.29)">
        <path id="Caminho_13464" data-name="Caminho 13464" d="M8519.451,4212.565a38.423,38.423,0,0,1-1.777,5.105h0a8.417,8.417,0,0,1-3.928.664c-3.869-.081-6.928-2.408-7.756-5.354.445-1.927.86-3.638,1.094-4.35a8.049,8.049,0,0,0,7.688,5.124C8516.709,4213.8,8518.459,4213.5,8519.451,4212.565Z" transform="translate(-8505.988 -4208.631)" fill="#fff"/>
      </g>
      <g id="Grupo_8449" data-name="Grupo 8449" transform="translate(13.586 9.639)">
        <path id="Caminho_13465" data-name="Caminho 13465" d="M8508.93,4233.3a6.832,6.832,0,0,1-2.234-1.333,7.01,7.01,0,0,1-2.168-6.783c.1-.427.193-.852.291-1.267.828,2.947,3.887,5.273,7.756,5.355a8.4,8.4,0,0,0,3.926-.665h0a25.362,25.362,0,0,0-.887,2.726,2.68,2.68,0,0,1-1.031,1.562,5.75,5.75,0,0,1-3.516.8A6.809,6.809,0,0,1,8508.93,4233.3Z" transform="translate(-8504.352 -4223.921)" fill="#fff"/>
      </g>
      <g id="Grupo_8450" data-name="Grupo 8450" transform="translate(18.882 0.436)">
        <path id="Caminho_13466" data-name="Caminho 13466" d="M8528.116,4191.567v4.506a6.315,6.315,0,0,1-5.143-2.368l.144-2.016a.832.832,0,0,1,.166-.017C8525,4191.667,8526.6,4191.636,8528.116,4191.567Z" transform="translate(-8522.974 -4191.567)" fill="#fff"/>
      </g>
      <g id="Grupo_8451" data-name="Grupo 8451" transform="translate(18.163 18.617)">
        <path id="Caminho_13467" data-name="Caminho 13467" d="M8526.1,4256.956v19.185h-5.655v-20.252a6.842,6.842,0,0,0,2.141.4,5.76,5.76,0,0,0,3.515-.8Z" transform="translate(-8520.445 -4255.484)" fill="#fff"/>
      </g>
      <g id="Grupo_8452" data-name="Grupo 8452" transform="translate(18.261 0.559)">
        <path id="Caminho_13468" data-name="Caminho 13468" d="M8521.555,4192l-.143,2.016c-.128-.147-.253-.3-.377-.468-.021-.029-.041-.057-.063-.086A.928.928,0,0,1,8521.555,4192Z" transform="translate(-8520.79 -4191.998)" fill="#fff"/>
      </g>
      <g id="Grupo_8453" data-name="Grupo 8453" transform="translate(0 17.689)">
        <path id="Caminho_13469" data-name="Caminho 13469" d="M8474.755,4253.554v3.169c-6.414,10.792-15.4,11.841-15.4,11.841l-2.759-6.621c7.4-1.726,11.317-3.772,15.929-9.722A6.822,6.822,0,0,0,8474.755,4253.554Z" transform="translate(-8456.592 -4252.221)" fill="#fff"/>
      </g>
    </g>
    <g id="Grupo_8485" data-name="Grupo 8485" transform="translate(37.491 0)">
      <g id="Grupo_8456" data-name="Grupo 8456" transform="translate(86.727 58.693)">
        <path id="Caminho_13471" data-name="Caminho 13471" d="M8794.979,4434.421h0a.362.362,0,0,1-.183-.048c-10.473-5.963-25.545-11.956-34.312-13.643a.371.371,0,0,1-.247-.556l15.006-24.927a.371.371,0,0,1,.477-.144c8.048,3.812,16.578,7.276,24.1,10.333,5.834,2.369,11.343,4.607,15.565,6.584l.25.118c3.266,1.54,6.842,3.367,10.642,5.439a.38.38,0,0,1,.069.048.371.371,0,0,1-.245.651.377.377,0,0,1-.194-.056c-3.782-2.062-7.34-3.88-10.572-5.4-.1-.045-.185-.085-.269-.127-4.2-1.965-9.7-4.2-15.524-6.565-7.441-3.022-15.863-6.443-23.84-10.207l-14.561,24.187c8.9,1.83,23.679,7.738,34.008,13.618a.37.37,0,0,1-.171.7Z" transform="translate(-8760.182 -4395.068)" fill="#323433"/>
      </g>
      <g id="Grupo_8457" data-name="Grupo 8457" transform="translate(80.958 87.656)">
        <path id="Caminho_13472" data-name="Caminho 13472" d="M8813.727,4587.943a.353.353,0,0,1-.164-.039l-.271-.134q-3.488-1.733-6.842-3.407c-13.249-6.617-27.27-13.74-40.042-20.987-7.145-4.053-13.5-7.917-19.434-11.815-2.374-1.562-4.7-3.146-6.92-4.7a.371.371,0,0,1,0-.611c15.425-10.493,27.418-22.324,40.105-39.557,2.2-2.988,4.485-6.23,6.794-9.637a.371.371,0,1,1,.614.416c-2.313,3.415-4.605,6.665-6.812,9.661-12.616,17.14-24.558,28.959-39.841,39.428,2.08,1.456,4.251,2.929,6.464,4.384,5.916,3.889,12.26,7.745,19.391,11.79,12.757,7.239,26.768,14.356,40.008,20.969q3.256,1.628,6.638,3.306c1.965-16.816,5.81-32.7,17.885-55.181a.378.378,0,0,1,.269-.191.369.369,0,0,1,.313.1l29.845,27.877,19.462-23,.564.481-19.712,23.3a.372.372,0,0,1-.263.13.361.361,0,0,1-.275-.1l-29.775-27.814c-11.965,22.382-15.71,38.195-17.635,55.014a.378.378,0,0,1-.192.284A.372.372,0,0,1,8813.727,4587.943Z" transform="translate(-8739.896 -4496.888)" fill="#323433"/>
      </g>
      <g id="Grupo_8458" data-name="Grupo 8458" transform="translate(18.262)">
        <path id="Caminho_13473" data-name="Caminho 13473" d="M8603.331,4248.166a.361.361,0,0,1-.147-.031,78.882,78.882,0,0,1-13.66-7.866c-5.1-3.77-37.747-33.267-51.687-45.863-1.944-1.756-3.5-3.157-4.518-4.079a3.341,3.341,0,0,0-2.632-.829c-1.572.192-3.224.326-5.047.411-1.423.065-3.01.1-4.849.107a.534.534,0,0,0-.1.009.556.556,0,0,0-.423.347.537.537,0,0,0,.068.53c.021.024.044.059.067.093.117.154.234.3.355.439a5.947,5.947,0,0,0,4.869,2.239,14.971,14.971,0,0,0,1.56-.048c.06,0,.114-.008.172-.014,1.7-.146,3.123.861,4.626,1.927,1.674,1.188,3.4,2.414,5.812,2.414h.159a.371.371,0,0,1,.008.742c-2.721.063-4.687-1.328-6.409-2.549-1.447-1.027-2.7-1.915-4.128-1.794-.058.007-.12.011-.183.016a15.845,15.845,0,0,1-1.633.05,6.7,6.7,0,0,1-5.417-2.5c-.129-.15-.256-.309-.39-.485-.022-.032-.04-.057-.06-.08a1.3,1.3,0,0,1,.812-2.057,1.2,1.2,0,0,1,.23-.022c1.827-.007,3.4-.041,4.815-.1,1.8-.085,3.437-.218,4.991-.407a4.083,4.083,0,0,1,3.218,1.014c1.023.922,2.574,2.324,4.519,4.081,13.933,12.588,46.562,42.068,51.631,45.816a78.293,78.293,0,0,0,13.514,7.782.371.371,0,0,1-.146.712Z" transform="translate(-8519.488 -4188.731)" fill="#323433"/>
      </g>
      <g id="Grupo_8459" data-name="Grupo 8459" transform="translate(23.818 20.089)">
        <path id="Caminho_13474" data-name="Caminho 13474" d="M8605.106,4318.967a.371.371,0,0,1-.182-.047c-5.058-2.858-12.108-6.888-16.976-9.85-7.39-4.5-31.358-36.6-38.529-46.337a4.738,4.738,0,0,0-3.59-1.932,53.706,53.706,0,0,1-6.5-.71.371.371,0,1,1,.123-.731,53.35,53.35,0,0,0,6.411.7,5.479,5.479,0,0,1,4.152,2.232c5.089,6.909,30.856,41.6,38.317,46.144,4.858,2.957,11.9,6.981,16.953,9.837a.371.371,0,0,1-.183.694Z" transform="translate(-8539.022 -4259.354)" fill="#323433"/>
      </g>
      <g id="Grupo_8460" data-name="Grupo 8460" transform="translate(13.588 5.038)">
        <path id="Caminho_13475" data-name="Caminho 13475" d="M8510.432,4221.57c-.1,0-.2,0-.3,0a7.16,7.16,0,0,1-4.613-1.825,7.389,7.389,0,0,1-2.281-7.141c.091-.409.185-.815.276-1.213l.014-.056c.547-2.359.9-3.751,1.1-4.38a.371.371,0,0,1,.705.23c-.2.6-.553,2.012-1.087,4.317l-.013.057c-.092.4-.184.8-.276,1.209a6.651,6.651,0,0,0,2.053,6.424,6.426,6.426,0,0,0,4.137,1.638,5.353,5.353,0,0,0,3.287-.732,2.3,2.3,0,0,0,.893-1.352,24.677,24.677,0,0,1,.9-2.768c.166-.443.339-.883.508-1.316a24.38,24.38,0,0,0,1.251-3.732c.4-1.947-.1-3.074-1.669-3.773a.371.371,0,1,1,.3-.678c2.487,1.111,2.385,3.156,2.093,4.6a24.769,24.769,0,0,1-1.287,3.854c-.169.43-.339.866-.506,1.308a24.006,24.006,0,0,0-.872,2.685,3.052,3.052,0,0,1-1.174,1.771A5.777,5.777,0,0,1,8510.432,4221.57Z" transform="translate(-8503.056 -4206.442)" fill="#323433"/>
      </g>
      <g id="Grupo_8461" data-name="Grupo 8461" transform="translate(15.145 2.106)">
        <path id="Caminho_13476" data-name="Caminho 13476" d="M8508.9,4200.059a.369.369,0,0,1-.124-.021.372.372,0,0,1-.227-.473l.034-.1a4.719,4.719,0,0,1,3.59-3.323.371.371,0,0,1,.175.721,4,4,0,0,0-3.066,2.849l-.033.1A.37.37,0,0,1,8508.9,4200.059Z" transform="translate(-8508.53 -4196.135)" fill="#323433"/>
      </g>
      <g id="Grupo_8462" data-name="Grupo 8462" transform="translate(14.051 9.639)">
        <path id="Caminho_13477" data-name="Caminho 13477" d="M8513.154,4228.717c-.116,0-.232,0-.353,0-3.864-.081-7.2-2.395-8.105-5.626a.371.371,0,0,1,.715-.2c.82,2.92,3.866,5.01,7.406,5.085a8,8,0,0,0,3.748-.623.371.371,0,1,1,.343.658A8.264,8.264,0,0,1,8513.154,4228.717Z" transform="translate(-8504.683 -4222.616)" fill="#323433"/>
      </g>
      <g id="Grupo_8463" data-name="Grupo 8463" transform="translate(15.145 5.289)">
        <path id="Caminho_13478" data-name="Caminho 13478" d="M8516.929,4213.194c-.113,0-.229,0-.347,0-3.786-.08-7.013-2.242-8.033-5.38a.332.332,0,0,1-.019-.115.371.371,0,0,1,.73-.1c.93,2.828,3.876,4.775,7.337,4.848,2.114.039,3.605-.321,4.417-1.088a.371.371,0,0,1,.51.539C8520.615,4212.759,8519.069,4213.194,8516.929,4213.194Z" transform="translate(-8508.53 -4207.323)" fill="#323433"/>
      </g>
      <g id="Grupo_8464" data-name="Grupo 8464" transform="translate(18.163 18.617)">
        <path id="Caminho_13479" data-name="Caminho 13479" d="M8525.166,4275.58h-5.654a.371.371,0,0,1-.372-.371v-20.253a.371.371,0,0,1,.742,0v19.884h4.913v-20.287a.371.371,0,0,1,.742,0v20.657A.371.371,0,0,1,8525.166,4275.58Z" transform="translate(-8519.14 -4254.181)" fill="#323433"/>
      </g>
      <g id="Grupo_8465" data-name="Grupo 8465" transform="translate(6.678 43.2)">
        <path id="Caminho_13480" data-name="Caminho 13480" d="M8493.447,4369.971a14.684,14.684,0,1,1,14.684-14.684A14.7,14.7,0,0,1,8493.447,4369.971Zm0-28.626a13.942,13.942,0,1,0,13.942,13.942A13.958,13.958,0,0,0,8493.447,4341.345Z" transform="translate(-8478.764 -4340.603)" fill="#323433"/>
      </g>
      <g id="Grupo_8466" data-name="Grupo 8466" transform="translate(20.991 39.274)">
        <path id="Caminho_13481" data-name="Caminho 13481" d="M8529.452,4331.47a.371.371,0,0,1-.371-.372v-3.926a.371.371,0,1,1,.741,0v3.926A.37.37,0,0,1,8529.452,4331.47Z" transform="translate(-8529.081 -4326.802)" fill="#323433"/>
      </g>
      <g id="Grupo_8467" data-name="Grupo 8467" transform="translate(18.883 0.557)">
        <path id="Caminho_13482" data-name="Caminho 13482" d="M8522.041,4193.45h-.026a.371.371,0,0,1-.344-.4l.143-2.016a.372.372,0,0,1,.742.024l-.146,2.044A.369.369,0,0,1,8522.041,4193.45Z" transform="translate(-8521.67 -4190.69)" fill="#323433"/>
      </g>
      <g id="Grupo_8468" data-name="Grupo 8468" transform="translate(24.025 0.436)">
        <path id="Caminho_13483" data-name="Caminho 13483" d="M8540.119,4195.511a.371.371,0,0,1-.37-.371v-4.507a.371.371,0,1,1,.741,0v4.507A.371.371,0,0,1,8540.119,4195.511Z" transform="translate(-8539.749 -4190.262)" fill="#323433"/>
      </g>
      <g id="Grupo_8469" data-name="Grupo 8469" transform="translate(0 17.833)">
        <path id="Caminho_13484" data-name="Caminho 13484" d="M8458.416,4268.362a.371.371,0,0,1-.342-.228l-2.758-6.62a.371.371,0,0,1,.258-.5c6.856-1.6,10.958-3.442,15.719-9.588l.3.225.279.244,0,0c-4.784,6.178-8.922,8.12-15.7,9.739l2.477,5.946c1.54-.287,9.24-2.166,14.856-11.616a.371.371,0,0,1,.639.379,26.459,26.459,0,0,1-10.254,10.106,16.987,16.987,0,0,1-5.427,1.913A.338.338,0,0,1,8458.416,4268.362Z" transform="translate(-8455.287 -4251.422)" fill="#323433"/>
      </g>
      <g id="Grupo_8470" data-name="Grupo 8470" transform="translate(24.62 141.648)">
        <path id="Caminho_13485" data-name="Caminho 13485" d="M8572.192,4783.453H8561.26a19.445,19.445,0,0,1-14.386-32.528l58.312-64.1a.371.371,0,0,1,.549.5l-58.311,64.105a18.7,18.7,0,0,0,13.836,31.286h10.933a.371.371,0,0,1,0,.743Z" transform="translate(-8541.84 -4686.699)" fill="#323433"/>
      </g>
      <g id="Grupo_8471" data-name="Grupo 8471" transform="translate(52.347 211.185)">
        <path id="Caminho_13486" data-name="Caminho 13486" d="M8750.928,4964.306H8655.76a19.381,19.381,0,0,1-13.23-5.194c-.318-.3-.6-.576-.857-.854a19.378,19.378,0,0,1-2.3-2.928.37.37,0,1,1,.623-.4,18.8,18.8,0,0,0,2.213,2.819c.25.268.52.535.826.819a18.641,18.641,0,0,0,12.725,5h94.8v-32.031a.371.371,0,0,1,.742,0v32.4A.371.371,0,0,1,8750.928,4964.306Z" transform="translate(-8639.313 -4931.162)" fill="#323433"/>
      </g>
      <g id="Grupo_8472" data-name="Grupo 8472" transform="translate(49.353 154.981)">
        <path id="Caminho_13487" data-name="Caminho 13487" d="M8632.155,4814.118a.367.367,0,0,1-.312-.171,19.471,19.471,0,0,1,2-23.552l51.576-56.7a.371.371,0,0,1,.548.5l-51.575,56.7a18.727,18.727,0,0,0-1.927,22.654.372.372,0,0,1-.312.571Z" transform="translate(-8628.79 -4733.574)" fill="#fff"/>
      </g>
      <g id="Grupo_8473" data-name="Grupo 8473" transform="translate(141.873 205.007)">
        <path id="Caminho_13488" data-name="Caminho 13488" d="M9025.739,4955.2c-8.789,0-15.953-2.762-23.512-5.676a114.461,114.461,0,0,0-12.994-4.41,52.211,52.211,0,0,0-13.079-1.7h-.021a.372.372,0,0,1-.371-.371.385.385,0,0,1,.392-.372,52.953,52.953,0,0,1,13.264,1.72,115.394,115.394,0,0,1,13.076,4.437c7.973,3.074,15.5,5.979,24.936,5.591a43.219,43.219,0,0,0,5.631-.605l-26.765-43.58-11.74,3.2c-.384.1-.768.208-1.155.306-1.944.5-3.922.937-5.88,1.3-2.334.429-4.716.765-7.082,1-1.422.141-2.864.247-4.287.314-1.361.065-2.74.1-4.1.1h-17.634a.371.371,0,0,1,0-.742h17.634c1.349,0,2.716-.033,4.066-.1,1.41-.067,2.839-.172,4.248-.312,2.347-.231,4.708-.564,7.022-.989,1.94-.357,3.9-.79,5.831-1.287q.573-.146,1.144-.3l12.007-3.276a.373.373,0,0,1,.414.165l27.2,44.279a.372.372,0,0,1,.022.345.367.367,0,0,1-.271.214,44.1,44.1,0,0,1-6.27.713Q9026.588,4955.205,9025.739,4955.2Z" transform="translate(-8954.046 -4909.44)" fill="#323433"/>
      </g>
      <g id="Grupo_8474" data-name="Grupo 8474" transform="translate(99.437 174.429)">
        <path id="Caminho_13489" data-name="Caminho 13489" d="M8805.233,4839.539a.371.371,0,0,1-.106-.727,165.67,165.67,0,0,0,16.121-5.588c17.408-7.263,27.417-17.119,31.5-31.017a.371.371,0,0,1,.713.209c-4.151,14.129-14.295,24.137-31.926,31.493a166.507,166.507,0,0,1-16.193,5.614A.382.382,0,0,1,8805.233,4839.539Z" transform="translate(-8804.862 -4801.941)" fill="#323433"/>
      </g>
      <g id="Grupo_8475" data-name="Grupo 8475" transform="translate(188.227 206.561)">
        <path id="Caminho_13490" data-name="Caminho 13490" d="M9144.053,4959.079a.371.371,0,0,1-.243-.091.442.442,0,0,1-.074-.087l-26.673-43.433a.371.371,0,0,1,.633-.388l26.667,43.425a.37.37,0,0,1-.31.575Z" transform="translate(-9117.008 -4914.902)" fill="#323433"/>
      </g>
      <g id="Grupo_8476" data-name="Grupo 8476" transform="translate(167.856 210.873)">
        <path id="Caminho_13491" data-name="Caminho 13491" d="M9054.688,4959.886a.371.371,0,0,1-.37-.369c-.088-11.954-2.734-20.586-8.852-28.863a.37.37,0,1,1,.595-.442c6.22,8.414,8.911,17.177,9,29.3a.372.372,0,0,1-.368.374Z" transform="translate(-9045.394 -4930.062)" fill="#323433"/>
      </g>
      <g id="Grupo_8477" data-name="Grupo 8477" transform="translate(144.792 205.585)">
        <path id="Caminho_13492" data-name="Caminho 13492" d="M8964.682,4917.914a.372.372,0,0,1-.372-.37v-5.7a.371.371,0,0,1,.742,0v5.7A.37.37,0,0,1,8964.682,4917.914Z" transform="translate(-8964.31 -4911.474)" fill="#323433"/>
      </g>
      <g id="Grupo_8478" data-name="Grupo 8478" transform="translate(115.594 199.406)">
        <path id="Caminho_13493" data-name="Caminho 13493" d="M8927.205,4899.673a.375.375,0,0,1-.317-.176l-5.493-8.945-11.737,3.2a85.908,85.908,0,0,1-14.121,2.6c-1.416.139-2.857.245-4.286.314-1.361.065-2.74.1-4.1.1h-25.113a.371.371,0,0,1,0-.743h25.113c1.35,0,2.717-.033,4.066-.1,1.415-.069,2.845-.174,4.249-.312a85.107,85.107,0,0,0,14-2.579l12.007-3.276a.373.373,0,0,1,.414.164l5.64,9.181a.371.371,0,0,1-.316.565Z" transform="translate(-8861.664 -4889.751)" fill="#323433"/>
      </g>
      <g id="Grupo_8479" data-name="Grupo 8479" transform="translate(169.431 200.96)">
        <path id="Caminho_13494" data-name="Caminho 13494" d="M9056.777,4904.874a.371.371,0,0,1-.316-.176l-5.479-8.919a.371.371,0,1,1,.633-.389l5.479,8.919a.371.371,0,0,1-.316.565Z" transform="translate(-9050.928 -4895.213)" fill="#323433"/>
      </g>
      <g id="Grupo_8480" data-name="Grupo 8480" transform="translate(149.06 205.272)">
        <path id="Caminho_13495" data-name="Caminho 13495" d="M8983.475,4917.127a.372.372,0,0,1-.328-.2,45.247,45.247,0,0,0-3.762-5.962.371.371,0,0,1,.6-.442,46.2,46.2,0,0,1,3.823,6.06.371.371,0,0,1-.33.543Z" transform="translate(-8979.312 -4910.374)" fill="#323433"/>
      </g>
      <g id="Grupo_8481" data-name="Grupo 8481" transform="translate(98.409 154.852)">
        <path id="Caminho_13496" data-name="Caminho 13496" d="M8802.161,4741.614a.372.372,0,0,1-.367-.326c-.458-3.716-.546-7.748-.547-7.789a.371.371,0,0,1,.363-.379h.008a.372.372,0,0,1,.371.363c0,.04.09,4.037.541,7.714a.371.371,0,0,1-.322.414Z" transform="translate(-8801.247 -4733.121)" fill="#fff"/>
      </g>
      <g id="Grupo_8482" data-name="Grupo 8482" transform="translate(189.839 104.451)">
        <path id="Caminho_13497" data-name="Caminho 13497" d="M9204.976,4668.848c-.058,0-.115,0-.174-.006a2.446,2.446,0,0,1-2.228-1.818c-.719-2.631-1.317-5.006-1.844-7.1-.809-3.219-1.508-6-2.365-8.623a15.685,15.685,0,0,0-4.864-7.169c-18.077-15.11-32.957-27.824-46.19-42.345a18.307,18.307,0,0,0-4.527-3.616l-2.344-1.322a.371.371,0,0,1,.364-.647l2.345,1.322a19.027,19.027,0,0,1,4.71,3.762c13.2,14.488,28.063,27.184,46.118,42.276a16.429,16.429,0,0,1,5.094,7.508c.865,2.649,1.567,5.44,2.381,8.672.526,2.092,1.122,4.464,1.838,7.088a1.7,1.7,0,0,0,1.563,1.272,1.652,1.652,0,0,0,1.67-1.021c1.889-4.47.26-11.833.243-11.908a.371.371,0,0,1,.592-.373c.061.048,6.2,4.879,12.266,9.878,3.485,2.87,7.6,2.635,9.711.956,1.758-1.4,2.09-3.558.91-5.917-2.744-5.491-50.266-56.158-64.766-71.556a57.8,57.8,0,0,0-7.872-6.972l-.615-.452q-.92-.673-1.84-1.345c-11.472-8.39-22.344-16.055-32.314-22.783a.371.371,0,1,1,.415-.615c9.979,6.732,20.859,14.4,32.337,22.8q.921.671,1.841,1.346l.615.452a58.637,58.637,0,0,1,7.975,7.062c14.517,15.417,62.1,66.151,64.889,71.733,1.331,2.66.914,5.214-1.112,6.83a7.12,7.12,0,0,1-4.887,1.4,10.011,10.011,0,0,1-5.758-2.361c-4.788-3.944-9.618-7.784-11.468-9.248.392,2.219,1.1,7.634-.479,11.364A2.394,2.394,0,0,1,9204.976,4668.848Z" transform="translate(-9122.673 -4555.932)" fill="#323433"/>
      </g>
      <g id="Grupo_8483" data-name="Grupo 8483" transform="translate(137.29 33.505)">
        <path id="Caminho_13498" data-name="Caminho 13498" d="M9060.222,4384.409a19.254,19.254,0,0,1-6.919-1.223,31.52,31.52,0,0,1-6.22-3.48c-3.311-2.2-6.732-4.467-12.416-5.392-3.917-.639-6.572-.27-11.865.467l-.445.062q-3.287.456-6.325.895c-10.311,1.471-18.455,2.632-25.187,2.47-10.5-.254-16.791-3.836-21.645-12.344a66.354,66.354,0,0,1-21.529,3.291h-.028a2.542,2.542,0,0,1-1.876-4.258,38.733,38.733,0,0,0,7.185-10.5,36.047,36.047,0,0,0,2.566-8.509l-4.913-1.71a9.487,9.487,0,0,1-6.028-11.432l.031-.113a5.239,5.239,0,0,0-.292-3.562l-.025-.053a.972.972,0,0,1,.234-1.132,15.107,15.107,0,0,0,1.456-1.459,5.4,5.4,0,0,0,1.057-1.873c.7-2.167,1.517-4.572,2.641-7.8a1.846,1.846,0,0,1,3.3-.387,52.231,52.231,0,0,1,7.278,17.949c2.89,14.882,5.8,24.417,9.437,30.914l.009.014c4.726,8.434,10.856,11.976,21.161,12.226,6.673.16,14.788-1,25.063-2.464q3.042-.434,6.327-.895l.444-.062c5.2-.723,8.061-1.122,12.088-.464,5.841.951,9.33,3.267,12.705,5.506a30.963,30.963,0,0,0,6.076,3.405,19.736,19.736,0,0,0,9.656.977c.251-3.828,2.3-5.691,4.119-7.34,1.509-1.369,2.811-2.551,2.811-4.622,0-2.82-1.752-4.157-3.447-5.451-1.468-1.121-2.987-2.279-2.987-4.339,0-3.169,2.625-5.089,5.163-6.947,2.422-1.774,4.712-3.449,4.712-6.07,0-1.639-.917-2.931-1.888-4.3-1.142-1.609-2.437-3.433-2.437-6.126,0-3.9,2.752-6.443,5.524-8.494-8.063-2.606-18.409-3.125-30.768-1.539a101.606,101.606,0,0,0-12.794,3.1c-11.886,3.353-26.68,7.525-36.551,3.7-8.521-3.3-12.057-9.419-15.173-14.815-2.048-3.544-3.981-6.891-7.075-9.1a21.176,21.176,0,0,0-12.868-3.855,21.4,21.4,0,0,0-12.632,4.561,21.955,21.955,0,0,0-7.858,13.909c-1.122,6.735.119,14.511,3.687,23.113a.371.371,0,1,1-.686.284c-3.622-8.732-4.877-16.645-3.733-23.519a22.693,22.693,0,0,1,8.129-14.368,22.17,22.17,0,0,1,26.395-.729c3.222,2.3,5.2,5.715,7.285,9.33,3.206,5.548,6.521,11.286,14.8,14.5,9.64,3.739,24.3-.4,36.081-3.718a102.257,102.257,0,0,1,12.9-3.123c12.823-1.644,23.516-1.038,31.782,1.8a.37.37,0,0,1,.1.651c-3.479,2.5-5.8,4.877-5.8,8.318,0,2.457,1.167,4.1,2.3,5.7,1.04,1.467,2.023,2.853,2.023,4.728,0,3-2.551,4.864-5.016,6.668-2.5,1.829-4.858,3.556-4.858,6.349,0,1.693,1.249,2.646,2.694,3.749,1.753,1.338,3.741,2.854,3.741,6.042,0,2.4-1.483,3.746-3.055,5.171-1.843,1.673-3.749,3.4-3.895,7.132a.37.37,0,0,1-.318.354A24.506,24.506,0,0,1,9060.222,4384.409Zm-108.788-68.16c-.044,0-.089,0-.136.008a1.087,1.087,0,0,0-.92.736c-1.121,3.223-1.934,5.624-2.635,7.785a6.108,6.108,0,0,1-1.2,2.131,15.772,15.772,0,0,1-1.528,1.532.221.221,0,0,0-.05.256l.024.052a5.99,5.99,0,0,1,.335,4.086l-.03.108a8.743,8.743,0,0,0,5.559,10.529l5.21,1.814a.37.37,0,0,1,.244.413,37.028,37.028,0,0,1-2.674,9,39.484,39.484,0,0,1-7.316,10.7,1.8,1.8,0,0,0,1.331,3.014h.02a65.727,65.727,0,0,0,21.169-3.21c-3.578-6.558-6.456-16.076-9.3-30.749a51.518,51.518,0,0,0-7.177-17.694A1.069,1.069,0,0,0,8951.434,4316.249Z" transform="translate(-8937.934 -4306.519)" fill="#323433"/>
      </g>
      <g id="Grupo_8484" data-name="Grupo 8484" transform="translate(99.437 211.283)">
        <path id="Caminho_13499" data-name="Caminho 13499" d="M8847.669,4932.248h-42.435a.371.371,0,1,1,0-.742h42.435a.371.371,0,1,1,0,.742Z" transform="translate(-8804.863 -4931.506)" fill="#fff"/>
      </g>
    </g>
    <g id="Grupo_8486" data-name="Grupo 8486" transform="translate(147.584 14.606)">
      <path id="Caminho_13500" data-name="Caminho 13500" d="M8842.57,4264.765a.281.281,0,0,1-.055-.005.249.249,0,0,1-.189-.295l1.723-7.865a.246.246,0,0,1,.232-.194l7.857-.289,1.682-7.679a.247.247,0,0,1,.232-.195l7.857-.288,1.682-7.68a.247.247,0,1,1,.482.106l-1.723,7.867a.245.245,0,0,1-.232.194l-7.857.29-1.682,7.679a.246.246,0,0,1-.232.194l-7.857.289-1.68,7.678A.246.246,0,0,1,8842.57,4264.765Z" transform="translate(-8842.32 -4240.08)" fill="#323433"/>
    </g>
    <g id="Grupo_8489" data-name="Grupo 8489" transform="translate(94.233 93.611)">
      <g id="Grupo_8487" data-name="Grupo 8487" transform="translate(0 0.263)">
        <path id="Caminho_13501" data-name="Caminho 13501" d="M8661.882,4525.585a.248.248,0,0,1-.168-.065l-6.868-6.344a.247.247,0,1,1,.336-.363l6.868,6.343a.248.248,0,0,1-.168.429Z" transform="translate(-8654.766 -4518.748)" fill="#323433"/>
      </g>
      <g id="Grupo_8488" data-name="Grupo 8488" transform="translate(0.263)">
        <path id="Caminho_13502" data-name="Caminho 13502" d="M8655.937,4525.188a.248.248,0,0,1-.182-.416l6.344-6.868a.247.247,0,1,1,.362.335l-6.343,6.869A.247.247,0,0,1,8655.937,4525.188Z" transform="translate(-8655.688 -4517.824)" fill="#323433"/>
      </g>
    </g>
    <g id="Grupo_8490" data-name="Grupo 8490" transform="translate(68.21 80.05)">
      <rect id="Retângulo_3180" data-name="Retângulo 3180" width="5.964" height="5.964" transform="translate(0 4.217) rotate(-45)" fill="#323433"/>
    </g>
    <g id="Grupo_8491" data-name="Grupo 8491" transform="translate(123.898 14.995)">
      <path id="Caminho_13503" data-name="Caminho 13503" d="M8762.865,4249.069a3.812,3.812,0,1,1,3.813-3.812A3.815,3.815,0,0,1,8762.865,4249.069Zm0-7.129a3.317,3.317,0,1,0,3.317,3.317A3.322,3.322,0,0,0,8762.865,4241.94Z" transform="translate(-8759.054 -4241.446)" fill="#323433"/>
    </g>
    <g id="Grupo_8493" data-name="Grupo 8493" transform="translate(56.323 52.249)">
      <g id="Grupo_8492" data-name="Grupo 8492">
        <path id="Caminho_13504" data-name="Caminho 13504" d="M8521.489,4372.415h4.243v11.68h-1.871v-9.925h-2.372Z" transform="translate(-8521.489 -4372.415)" fill="#323433"/>
      </g>
    </g>
  </g>
</svg>
