<svg id="Componente_45_1" data-name="Componente 45 – 1" xmlns="http://www.w3.org/2000/svg" width="383.745" height="414.76" viewBox="0 0 383.745 414.76">
  <g id="Grupo_8571" data-name="Grupo 8571">
    <g id="Grupo_8495" data-name="Grupo 8495" transform="translate(164.664 283.266)">
      <circle id="Elipse_1236" data-name="Elipse 1236" cx="65.747" cy="65.747" r="65.747" fill="#ccc"/>
    </g>
    <g id="Grupo_8565" data-name="Grupo 8565">
      <g id="Grupo_8524" data-name="Grupo 8524" transform="translate(0.821 0.821)">
        <g id="Grupo_8496" data-name="Grupo 8496" transform="translate(160.717 92.304)">
          <path id="Caminho_13505" data-name="Caminho 13505" d="M423.666,2015.127v0a25.707,25.707,0,0,0-8.681,6.574l-1.622-2.065c-1.127-1.43,7.432-8.159,8.558-6.727Z" transform="translate(-413.261 -2012.713)" fill="#fff"/>
        </g>
        <g id="Grupo_8497" data-name="Grupo 8497" transform="translate(357.157 261.485)">
          <path id="Caminho_13506" data-name="Caminho 13506" d="M750.038,2286.5a10.535,10.535,0,0,1-3.062,8.575l-8.022,7.956a10.542,10.542,0,0,1-8.6,2.987l-4.929-.561-.015-.017a3.716,3.716,0,0,0,.307-.273l23.513-23.31a3.335,3.335,0,0,0,.276-.307l.017.014Z" transform="translate(-725.407 -2281.544)" fill="#323433"/>
        </g>
        <g id="Grupo_8498" data-name="Grupo 8498" transform="translate(350.987 255.293)">
          <path id="Caminho_13507" data-name="Caminho 13507" d="M746.719,2275.522a3.782,3.782,0,0,1-.85,2.375,3.274,3.274,0,0,1-.276.307l-23.513,23.311a3.754,3.754,0,0,1-.307.273,3.8,3.8,0,0,1-5.045-5.671l23.513-23.311a3.8,3.8,0,0,1,6.477,2.716Z" transform="translate(-715.603 -2271.704)" fill="#fff"/>
        </g>
        <g id="Grupo_8499" data-name="Grupo 8499" transform="translate(345.635 249.895)">
          <path id="Caminho_13508" data-name="Caminho 13508" d="M737.112,2264.252a3.8,3.8,0,0,1-.023,5.375l-23.513,23.31a3.8,3.8,0,1,1-5.351-5.4l23.516-23.311A3.8,3.8,0,0,1,737.112,2264.252Z" transform="translate(-707.099 -2263.126)" fill="#fff"/>
        </g>
        <g id="Grupo_8500" data-name="Grupo 8500" transform="translate(335.543 239.729)">
          <path id="Caminho_13509" data-name="Caminho 13509" d="M726.036,2253.043a3.517,3.517,0,0,1-.022,4.978l-.218.219-23.516,23.31-.221.219a3.517,3.517,0,0,1-4.978-.021l-6.02-6.069a7.135,7.135,0,0,0,.969-.8l27.176-26.942a6.965,6.965,0,0,0,.812-.962Z" transform="translate(-691.062 -2246.972)" fill="#ff7d00"/>
        </g>
        <g id="Grupo_8501" data-name="Grupo 8501" transform="translate(313.095 204.579)">
          <path id="Caminho_13510" data-name="Caminho 13510" d="M655.392,2191.119c7.449,3.87,15.926,18.821,11.767,22.944S655.449,2202.312,655.392,2191.119Z" transform="translate(-655.392 -2191.119)" fill="#fff"/>
        </g>
        <g id="Grupo_8502" data-name="Grupo 8502" transform="translate(304.579 214.561)">
          <path id="Caminho_13511" data-name="Caminho 13511" d="M641.859,2206.98c7,4.762,15.706,17.5,11.871,21.3S642.755,2217.8,641.859,2206.98Z" transform="translate(-641.859 -2206.98)" fill="#fff"/>
        </g>
        <g id="Grupo_8503" data-name="Grupo 8503" transform="translate(262.056 165.662)">
          <path id="Caminho_13512" data-name="Caminho 13512" d="M676.734,2203.345a6.943,6.943,0,0,1-.812.962l-27.176,26.942a7.125,7.125,0,0,1-.968.8,7.341,7.341,0,0,1-8.186.15l-3.885-2.5a51.213,51.213,0,0,0-21.08-7.627,46.6,46.6,0,1,1,52.419-51.919,51.365,51.365,0,0,0,7.507,21.212l2.406,3.8A7.34,7.34,0,0,1,676.734,2203.345Zm-59.922-25.167c.9,10.818,8.036,25.1,11.871,21.3S623.814,2182.94,616.812,2178.178Zm8.517-9.982c.057,11.193,7.608,27.064,11.767,22.944S632.778,2172.067,625.329,2168.2Z" transform="translate(-574.29 -2129.279)" fill="#fff"/>
        </g>
        <g id="Grupo_8504" data-name="Grupo 8504" transform="translate(15.795 313.507)">
          <path id="Caminho_13513" data-name="Caminho 13513" d="M205.553,2365.487l-16.722,71.131-5.853-1.376,15.909-71.035Z" transform="translate(-182.978 -2364.206)" fill="#fff"/>
        </g>
        <g id="Grupo_8505" data-name="Grupo 8505" transform="translate(60.074 353.402)">
          <path id="Caminho_13514" data-name="Caminho 13514" d="M264.463,2429.108l-5.266,39.324-5.86-.785,4.932-40.047Q261.453,2428.37,264.463,2429.108Z" transform="translate(-253.338 -2427.6)" fill="#fff"/>
        </g>
        <g id="Grupo_8506" data-name="Grupo 8506" transform="translate(83.82 323.752)">
          <path id="Caminho_13515" data-name="Caminho 13515" d="M357.2,2387.678l-.67,7.054a1.146,1.146,0,0,1-1.449,1c-17.152-4.775-39.281-10.032-64.01-15.241C314.786,2382.606,337.395,2385.072,357.2,2387.678Z" transform="translate(-291.07 -2380.487)" fill="#fff"/>
        </g>
        <g id="Grupo_8507" data-name="Grupo 8507" transform="translate(109.888 123.658)">
          <path id="Caminho_13516" data-name="Caminho 13516" d="M472.325,2082.8l2.321,3.592-26.387,14.843c5.7,14.041,6.281,25.469,2.441,45.57a46.487,46.487,0,0,0-.726,11.9,297.11,297.11,0,0,1-56.526,8.267,10.019,10.019,0,0,0,.64-2.762c.7-11.376-11.087-24.948-11.087-24.948l-32.712,23.014-2.772-4.346-15.024-23.553c10.581-7.2,21.06-14.566,31.922-22.463a127.768,127.768,0,0,1,16.312-10.087q1.07-.557,2.13-1.1c9.319,6.62,23.05,15.176,36.268,4.763,6.062-4.776,2.071-14.5-2.328-19.927a10.612,10.612,0,0,0,3.34-3.292h0c5.016-2.377,10.235-4.816,15.785-7.375q3.434-1.586,6.765-3.378c5.879-3.16,11.341-6.121,16.543-8.975Z" transform="translate(-332.493 -2062.534)" fill="#ff7d00"/>
        </g>
        <g id="Grupo_8508" data-name="Grupo 8508" transform="translate(173.113 279.835)">
          <path id="Caminho_13517" data-name="Caminho 13517" d="M442.318,2310.7l.415,8.372-9.774-3.712Z" transform="translate(-432.959 -2310.701)" fill="#323433"/>
        </g>
        <g id="Grupo_8509" data-name="Grupo 8509" transform="translate(65.934 354.909)">
          <path id="Caminho_13518" data-name="Caminho 13518" d="M289.838,2435.521c-10.522,8.725-13.41,35.149-27.189,33.8L267.915,2430C275.979,2431.973,283.171,2433.787,289.838,2435.521Z" transform="translate(-262.649 -2429.996)" fill="#323433"/>
        </g>
        <g id="Grupo_8510" data-name="Grupo 8510" transform="translate(21.648 314.787)">
          <path id="Caminho_13519" data-name="Caminho 13519" d="M230.392,2403.769c-16.956-1.127-21.7,36.855-38.114,33.6L209,2366.24c7.576,1.4,15.059,2.826,22.393,4.272-1.139,5.688-3.457,17.331-4.216,21.616C226.6,2395.4,227.709,2399.9,230.392,2403.769Z" transform="translate(-192.278 -2366.24)" fill="#323433"/>
        </g>
        <g id="Grupo_8511" data-name="Grupo 8511" transform="translate(179.084 324.637)">
          <path id="Caminho_13520" data-name="Caminho 13520" d="M455.387,2381.893l33.236,4.172c-1.449,9.965-3.04,19.607-4.972,30.106A19.147,19.147,0,0,1,461.1,2431.49c-6.493-1.283-12.668-2.487-18.648-3.634h0a19.406,19.406,0,0,0,2.307-5.107c4.075-14.175,7.349-26.81,10.633-40.853Z" transform="translate(-442.447 -2381.893)" fill="#fff"/>
        </g>
        <g id="Grupo_8512" data-name="Grupo 8512" transform="translate(132.094 358.276)">
          <path id="Caminho_13521" data-name="Caminho 13521" d="M418.385,2435.345c-6.113,16.9-18.764,17.59-29.491,16.212-5.654-.726-13-1.829-21.115-3.2,7.719,2.276,15.79,4.709,24.948,7.471a19.48,19.48,0,0,0,24.349-13.267c.668-2.326,1.315-4.61,1.944-6.866C418.969,2435.695,418.436,2435.346,418.385,2435.345Z" transform="translate(-367.779 -2435.345)" fill="#323433"/>
        </g>
        <g id="Grupo_8513" data-name="Grupo 8513" transform="translate(56.397 319.059)">
          <path id="Caminho_13522" data-name="Caminho 13522" d="M341.047,2384.914l1.089-11.447,40.986,5.14v0c-3.284,14.043-6.558,26.678-10.633,40.853a19.476,19.476,0,0,1-24.349,13.268c-24.391-7.356-41.072-12.377-63.92-18.326-6.668-1.734-13.86-3.548-21.924-5.525q-3.011-.736-6.193-1.508l-3.194-.769a12.006,12.006,0,0,0-2.05-.318c-2.682-3.869-3.794-8.369-3.215-11.64.758-4.285,3.077-15.929,4.216-21.616,7.877,1.549,15.586,3.121,23.055,4.694h0c24.729,5.209,46.858,10.466,64.01,15.241a1.146,1.146,0,0,0,1.449-1Z" transform="translate(-247.495 -2373.029)" fill="#fff"/>
        </g>
        <g id="Grupo_8514" data-name="Grupo 8514" transform="translate(56.397 319.059)">
          <path id="Caminho_13523" data-name="Caminho 13523" d="M341.047,2384.914l1.089-11.447,40.986,5.14v0c-3.284,14.043-6.558,26.678-10.633,40.853a19.476,19.476,0,0,1-24.349,13.268c-24.391-7.356-41.072-12.377-63.92-18.326-6.668-1.734-13.86-3.548-21.924-5.525q-3.011-.736-6.193-1.508l-3.194-.769a12.006,12.006,0,0,0-2.05-.318c-2.682-3.869-3.794-8.369-3.215-11.64.758-4.285,3.077-15.929,4.216-21.616,7.877,1.549,15.586,3.121,23.055,4.694h0c24.729,5.209,46.858,10.466,64.01,15.241a1.146,1.146,0,0,0,1.449-1Z" transform="translate(-247.495 -2373.029)" fill="#fff"/>
        </g>
        <g id="Grupo_8515" data-name="Grupo 8515" transform="translate(160.253 119.511)">
          <path id="Caminho_13524" data-name="Caminho 13524" d="M446.462,2083.11c4.4,5.427,8.391,15.152,2.328,19.928-13.218,10.412-26.949,1.857-36.268-4.763q3.182-1.646,6.3-3.234l1.456-17.665.632-7.672c-2.985-3.582-2.926-7.565-1.286-9.463,1.372-1.595,2.368-.149,2.97,1.387,3.7-3.64,10.8-4.875,21.277-4.561a19.5,19.5,0,0,0,7.68-1.122c.121,6.526.113,12.164-.089,18.51a10.564,10.564,0,0,1-1.659,5.363h0A10.611,10.611,0,0,1,446.462,2083.11Z" transform="translate(-412.523 -2055.945)" fill="#fff"/>
        </g>
        <g id="Grupo_8516" data-name="Grupo 8516" transform="translate(0 195.495)">
          <path id="Caminho_13525" data-name="Caminho 13525" d="M158.442,2225.326c-.164-.525-.322-1.067-.478-1.619a2.167,2.167,0,0,1,3.125-2.49A56.56,56.56,0,0,0,182.2,2228.2a11.136,11.136,0,0,0,7.339-1.539c30.236-18.527,54.491-33.821,78.233-49.971l15.024,23.553c-12.68,5.522-68.988,30.2-77.1,36.456-5.8,4.473-9.514,15.972-11.456,23.787a3.018,3.018,0,0,1-5.69.488,34.327,34.327,0,0,1-2.736-9.594,7.492,7.492,0,0,0-5.434-6.341C166.568,2241.185,161.6,2235.494,158.442,2225.326Z" transform="translate(-157.88 -2176.685)" fill="#fff"/>
        </g>
        <g id="Grupo_8517" data-name="Grupo 8517" transform="translate(236.627 54.71)">
          <path id="Caminho_13526" data-name="Caminho 13526" d="M625.946,1953.032c.083.013.166.029.249.048l1.826.4a3.367,3.367,0,0,1,2.557,4.058c-2.964,12.7-4.681,18.089-6.376,28.937a2.448,2.448,0,0,0,1.408,2.606l10.415,4.688a2.47,2.47,0,0,1-.874,4.764c-8.854.142-16.655.463-23.722.828a6.827,6.827,0,0,0-3.484,1.173c-23.369,16.4-41.135,29.29-60.969,41.651l-13.093-20.263c22.206-12.185,39.62-22.417,64.114-37.821a32.386,32.386,0,0,0,10.264-10.317l13.157-18.665A4.473,4.473,0,0,1,625.946,1953.032Z" transform="translate(-533.883 -1952.975)" fill="#fff"/>
        </g>
        <g id="Grupo_8518" data-name="Grupo 8518" transform="translate(135.276 266.924)">
          <path id="Caminho_13527" data-name="Caminho 13527" d="M473.543,2301.868a485.443,485.443,0,0,1-.911,51.435l-9.813-1.232-33.236-4.172-40.986-5.141-15.762-1.978a135.262,135.262,0,0,1,10.936-45.753c13.45,1.917,33.511,1.368,49.055.354a331.808,331.808,0,0,0,39.959-5.2C473.116,2294.007,473.367,2297.892,473.543,2301.868Zm-53.1,9.6-.415-8.371-9.359,4.659Z" transform="translate(-372.835 -2290.186)" fill="#323433"/>
        </g>
        <g id="Grupo_8519" data-name="Grupo 8519" transform="translate(146.212 219.824)">
          <path id="Caminho_13528" data-name="Caminho 13528" d="M477.848,2249.989c.56,4.1,1.017,8.236,1.378,12.455a331.71,331.71,0,0,1-39.959,5.2c-15.544,1.015-35.605,1.564-49.055-.354,9.379-21.748,21.693-35.585,24.632-43.674a297.092,297.092,0,0,0,56.526-8.267,45.923,45.923,0,0,0,1.319,8.24A234.9,234.9,0,0,1,477.848,2249.989Z" transform="translate(-390.212 -2215.344)" fill="#323433"/>
        </g>
        <g id="Grupo_8520" data-name="Grupo 8520" transform="translate(156.418 90.474)">
          <path id="Caminho_13529" data-name="Caminho 13529" d="M454.575,2009.8s8.8,23.55-5.281,29.037a19.488,19.488,0,0,1-7.68,1.122c-10.474-.314-17.579.921-21.277,4.561-.6-1.536-1.6-2.982-2.97-1.387-1.639,1.9-1.7,5.882,1.286,9.464l-.632,7.672c-15.5-15.336-13.423-30.533-5.568-39.647a25.708,25.708,0,0,1,8.681-6.574,20.337,20.337,0,0,1,9.692-1.961c5.294.327,8.17,4.412,13.621,4.748S454.575,2009.8,454.575,2009.8Z" transform="translate(-406.43 -2009.804)" fill="#323433"/>
        </g>
        <g id="Grupo_8521" data-name="Grupo 8521" transform="translate(40.53)">
          <path id="Caminho_13530" data-name="Caminho 13530" d="M349.507,1948.819c3.206,3.193,1.622,9.725,1.622,9.725-1.126-1.432-9.685,5.3-8.558,6.727,0,0-15.031,15.146-23.214,10.966s-.6-12.292-9.7-17.212-12.356,10.677-22.048,4.225.147-17.828-9.438-23.6-19.91,7.08-29.036.525-4.284-14.427-9.834-19.4S222.282,1923,222.282,1923c10.587-17.608,35.457-36.177,43.548-56.957,14.886,8.135,3.9,20.667,13.953,27.686s14.213-5.25,23.059,1.423,1.119,19.4,9.066,25.207,12.775-1.8,19.1,3.9-.307,16.048,5.157,20.2S346.3,1945.625,349.507,1948.819Z" transform="translate(-222.282 -1866.04)" fill="#323433"/>
        </g>
        <g id="Grupo_8522" data-name="Grupo 8522" transform="translate(132.094 358.276)">
          <path id="Caminho_13531" data-name="Caminho 13531" d="M418.385,2435.345c-6.113,16.9-18.764,17.59-29.491,16.212-5.654-.726-13-1.829-21.115-3.2,7.719,2.276,15.79,4.709,24.948,7.471a19.48,19.48,0,0,0,24.349-13.267c.668-2.326,1.315-4.61,1.944-6.866C418.969,2435.695,418.436,2435.346,418.385,2435.345Z" transform="translate(-367.779 -2435.345)" fill="#323433"/>
        </g>
        <g id="Grupo_8523" data-name="Grupo 8523" transform="translate(176.229 351.795)">
          <path id="Caminho_13532" data-name="Caminho 13532" d="M483.131,2425.047c-4.694,17.345-17.243,19.083-28.048,18.6-4.564-.205-10.228-.226-16.52-.582-.213.175-.43.346-.653.509,6.569,1.323,13.359,2.628,21.084,4.276a20.256,20.256,0,0,0,15.032-3.037,19.49,19.49,0,0,0,8.4-12.463c.474-2.374.929-4.7,1.369-7C483.742,2425.347,483.183,2425.043,483.131,2425.047Z" transform="translate(-437.91 -2425.047)" fill="#323433"/>
        </g>
      </g>
      <g id="Grupo_8564" data-name="Grupo 8564">
        <g id="Grupo_8525" data-name="Grupo 8525" transform="translate(262.056 165.715)">
          <path id="Caminho_13533" data-name="Caminho 13533" d="M643.092,2233.753a8.154,8.154,0,0,1-4.43-1.312l-3.884-2.5a50.085,50.085,0,0,0-20.744-7.5,47.5,47.5,0,0,1-26.832-80.954,47.552,47.552,0,0,1,66.787.562,46.969,46.969,0,0,1,13.386,27.56,50.874,50.874,0,0,0,7.387,20.873l2.405,3.8a8.125,8.125,0,0,1-.247,9.1,7.818,7.818,0,0,1-.9,1.071L648.84,2231.38a7.964,7.964,0,0,1-1.08.9A8.129,8.129,0,0,1,643.092,2233.753ZM620.306,2129.7a45.755,45.755,0,0,0-6.055,91.107,51.694,51.694,0,0,1,21.417,7.751l3.884,2.5a6.491,6.491,0,0,0,7.271-.133,6.406,6.406,0,0,0,.862-.714l27.176-26.942a6.167,6.167,0,0,0,.716-.848l.006-.009a6.488,6.488,0,0,0,.2-7.268l-2.405-3.8a52.529,52.529,0,0,1-7.629-21.551,45.686,45.686,0,0,0-45.441-40.1Z" transform="translate(-572.985 -2128.059)" fill="#323433"/>
        </g>
        <g id="Grupo_8526" data-name="Grupo 8526" transform="translate(335.481 268.373)">
          <path id="Caminho_13534" data-name="Caminho 13534" d="M699.061,2300h-.019a4.31,4.31,0,0,1-3.065-1.287l-6.082-6.132a.821.821,0,1,1,1.166-1.156l6.082,6.132a2.677,2.677,0,0,0,1.906.8,2.58,2.58,0,0,0,1.911-.783l.222-.22a.821.821,0,0,1,1.155,1.167l-.221.218A4.307,4.307,0,0,1,699.061,2300Z" transform="translate(-689.658 -2291.184)" fill="#323433"/>
        </g>
        <g id="Grupo_8527" data-name="Grupo 8527" transform="translate(364.438 239.666)">
          <path id="Caminho_13535" data-name="Caminho 13535" d="M742.332,2258.541a.821.821,0,0,1-.582-1.4l.218-.219a2.694,2.694,0,0,0,.021-3.82l-6.082-6.138a.821.821,0,0,1,1.17-1.152l6.077,6.133a4.338,4.338,0,0,1-.027,6.139l-.213.215A.82.82,0,0,1,742.332,2258.541Z" transform="translate(-735.671 -2245.567)" fill="#323433"/>
        </g>
        <g id="Grupo_8528" data-name="Grupo 8528" transform="translate(345.636 249.895)">
          <path id="Caminho_13536" data-name="Caminho 13536" d="M710.417,2294.377H710.4a4.621,4.621,0,0,1-3.233-7.9l23.516-23.311a4.585,4.585,0,0,1,3.252-1.34h.021a4.622,4.622,0,0,1,3.232,7.9.821.821,0,1,1-1.156-1.166,2.98,2.98,0,0,0-2.084-5.1h-.013a2.953,2.953,0,0,0-2.1.864l-23.517,23.311a2.98,2.98,0,0,0,2.085,5.1h.013a2.961,2.961,0,0,0,2.1-.864.821.821,0,0,1,1.156,1.166A4.594,4.594,0,0,1,710.417,2294.377Z" transform="translate(-705.795 -2261.822)" fill="#323433"/>
        </g>
        <g id="Grupo_8529" data-name="Grupo 8529" transform="translate(350.988 255.293)">
          <path id="Caminho_13537" data-name="Caminho 13537" d="M718.92,2302.958a4.625,4.625,0,0,1-3.253-7.908l23.513-23.311a4.594,4.594,0,0,1,3.254-1.34h.021a4.619,4.619,0,0,1,3.57,7.529,4.218,4.218,0,0,1-.338.376l-23.512,23.31a4.814,4.814,0,0,1-.371.33A4.607,4.607,0,0,1,718.92,2302.958Zm23.515-30.917a2.962,2.962,0,0,0-2.1.864l-23.513,23.311a2.98,2.98,0,0,0,3.954,4.447,3.041,3.041,0,0,0,.24-.214l23.514-23.312a2.441,2.441,0,0,0,.21-.234l.007-.008a2.977,2.977,0,0,0,.666-1.861,2.983,2.983,0,0,0-2.966-2.993Z" transform="translate(-714.299 -2270.399)" fill="#323433"/>
        </g>
        <g id="Grupo_8530" data-name="Grupo 8530" transform="translate(357.172 261.5)">
          <path id="Caminho_13538" data-name="Caminho 13538" d="M731.077,2306.427a11.474,11.474,0,0,1-1.294-.073l-4.93-.561a.821.821,0,0,1,.186-1.631l4.929.561a9.679,9.679,0,0,0,7.933-2.755l8.022-7.955a9.669,9.669,0,0,0,2.823-7.906l-.519-4.937a.821.821,0,0,1,1.633-.171l.518,4.937a11.3,11.3,0,0,1-3.3,9.243l-8.023,7.956A11.308,11.308,0,0,1,731.077,2306.427Z" transform="translate(-724.125 -2280.263)" fill="#323433"/>
        </g>
        <g id="Grupo_8531" data-name="Grupo 8531" transform="translate(313.094 194.831)">
          <path id="Caminho_13539" data-name="Caminho 13539" d="M654.908,2185.714a.821.821,0,0,1-.821-.816c-.025-4.137.916-7.18,2.8-9.044a4.4,4.4,0,0,1,3.946-1.469c2.546.444,5.052,3.321,7.661,8.8a.821.821,0,1,1-1.481.706c-2.9-6.092-5.116-7.65-6.461-7.884a2.826,2.826,0,0,0-2.508,1.017c-1.533,1.521-2.332,4.242-2.31,7.87a.821.821,0,0,1-.816.826Z" transform="translate(-654.086 -2174.325)" fill="#323433"/>
        </g>
        <g id="Grupo_8532" data-name="Grupo 8532" transform="translate(313.095 204.579)">
          <path id="Caminho_13540" data-name="Caminho 13540" d="M665.182,2215.065a3.23,3.23,0,0,1-1.235-.259c-4.559-1.887-9.812-14.761-9.86-24.166a.821.821,0,0,1,1.2-.732c5.649,2.935,12.176,12.277,13.177,18.86.368,2.418-.04,4.234-1.211,5.4A2.905,2.905,0,0,1,665.182,2215.065Zm-9.4-22.948c.544,8.947,5.374,19.755,8.8,21.172A1.245,1.245,0,0,0,666.1,2213c.969-.961.94-2.7.744-3.982C665.993,2203.442,660.66,2195.45,655.779,2192.117Z" transform="translate(-654.087 -2189.815)" fill="#323433"/>
        </g>
        <g id="Grupo_8533" data-name="Grupo 8533" transform="translate(304.486 203.654)">
          <path id="Caminho_13541" data-name="Caminho 13541" d="M641.319,2200.893a.821.821,0,0,1-.817-.753c-.4-4.762.437-8.312,2.409-10.267,1.3-1.288,3.621-2.423,7.3-.512a.821.821,0,0,1-.756,1.458c-2.251-1.167-4.065-1.094-5.391.221-1.616,1.6-2.283,4.7-1.929,8.964a.821.821,0,0,1-.75.886Z" transform="translate(-640.407 -2188.344)" fill="#323433"/>
        </g>
        <g id="Grupo_8534" data-name="Grupo 8534" transform="translate(304.579 214.561)">
          <path id="Caminho_13542" data-name="Caminho 13542" d="M651.833,2229.242a3.08,3.08,0,0,1-1.068-.2c-4.556-1.682-9.5-13.971-10.207-22.478a.821.821,0,0,1,1.279-.746c5.517,3.752,12.606,12.92,13.136,18.678a4.612,4.612,0,0,1-1.148,3.882A2.789,2.789,0,0,1,651.833,2229.242Zm-9.43-20.948c1.23,8.745,5.887,18.085,8.93,19.208a1.135,1.135,0,0,0,1.335-.289,3.075,3.075,0,0,0,.67-2.566C652.906,2219.948,647.314,2212.313,642.4,2208.294Z" transform="translate(-640.555 -2205.676)" fill="#323433"/>
        </g>
        <g id="Grupo_8535" data-name="Grupo 8535" transform="translate(295.96 212.733)">
          <path id="Caminho_13543" data-name="Caminho 13543" d="M630.171,2223.276a.821.821,0,0,1-.759-.509c-.229-.554-5.544-13.645-.13-19.012,1.12-1.109,3.325-1.838,7.477.986a.821.821,0,1,1-.923,1.358c-1.459-.993-4.1-2.465-5.4-1.177-4.635,4.595.439,17.094.491,17.22a.821.821,0,0,1-.446,1.072A.812.812,0,0,1,630.171,2223.276Z" transform="translate(-626.859 -2202.772)" fill="#323433"/>
        </g>
        <g id="Grupo_8536" data-name="Grupo 8536" transform="translate(109.888 123.629)">
          <path id="Caminho_13544" data-name="Caminho 13544" d="M457.194,2269.237a.812.812,0,0,1-.1-.007l-99.8-12.522a.821.821,0,0,1-.717-.865,135.339,135.339,0,0,1,11-46.027c5.551-12.871,12-22.786,17.174-30.753,3.5-5.385,6.264-9.638,7.44-12.875a9.137,9.137,0,0,0,.592-2.533c.593-9.623-8.248-21.126-10.415-23.791l-32.094,22.578a.82.82,0,0,1-1.164-.23l-17.8-27.9a.821.821,0,1,1,1.384-.883l17.335,27.175,32.009-22.519a.821.821,0,0,1,1.092.133,62.885,62.885,0,0,1,5.893,8.327c3.88,6.534,5.7,12.325,5.394,17.21a10.714,10.714,0,0,1-.688,2.992c-1.24,3.413-4.05,7.736-7.607,13.208-5.145,7.916-11.547,17.766-17.043,30.51a133.659,133.659,0,0,0-10.821,44.708l98.163,12.317a479.019,479.019,0,0,0,.856-50.473c-.175-3.963-.43-7.882-.756-11.648-.358-4.191-.82-8.368-1.373-12.415a233.586,233.586,0,0,0-5.142-26.313,46.84,46.84,0,0,1-1.342-8.388,47.313,47.313,0,0,1,.738-12.109c3.806-19.926,3.2-31.308-2.4-45.107a.82.82,0,0,1,.358-1.024L473,2085.6l-14.94-23.122a.843.843,0,0,1,.225-1.154.8.8,0,0,1,1.119.209l.036.054,15.413,23.855a.821.821,0,0,1-.287,1.161l-25.759,14.49c5.483,13.834,6.031,25.4,2.218,45.361a45.658,45.658,0,0,0-.712,11.688,45.1,45.1,0,0,0,1.3,8.094,235.233,235.233,0,0,1,5.177,26.5c.557,4.074,1.021,8.278,1.382,12.5.329,3.789.584,7.731.761,11.716.65,14.531.36,30.9-.912,51.521a.821.821,0,0,1-.819.77Z" transform="translate(-331.188 -2061.183)" fill="#323433"/>
        </g>
        <g id="Grupo_8537" data-name="Grupo 8537" transform="translate(321.542 54.767)">
          <path id="Caminho_13545" data-name="Caminho 13545" d="M668.33,1971.8a.822.822,0,0,1-.765-1.118l7.148-18.4a.821.821,0,1,1,1.53.594l-7.148,18.4A.821.821,0,0,1,668.33,1971.8Z" transform="translate(-667.509 -1951.761)" fill="#323433"/>
        </g>
        <g id="Grupo_8538" data-name="Grupo 8538" transform="translate(197.534 54.709)">
          <path id="Caminho_13546" data-name="Caminho 13546" d="M523.467,2042.522a.821.821,0,0,1-.435-1.517c16.242-10.123,31.333-20.766,48.806-33.089,3.89-2.743,7.917-5.583,12.125-8.537a7.676,7.676,0,0,1,3.913-1.32c8.566-.443,16.113-.707,23.752-.829a1.648,1.648,0,0,0,.583-3.18l-10.448-4.7a3.275,3.275,0,0,1-1.882-3.48c1.213-7.767,2.43-12.717,4.115-19.568.667-2.712,1.422-5.785,2.273-9.43a2.546,2.546,0,0,0-1.933-3.07l-1.827-.4c-.071-.016-.136-.028-.2-.039a3.634,3.634,0,0,0-3.7,1.7l-13.186,18.709a33.311,33.311,0,0,1-10.5,10.539c-24.027,15.11-41.415,25.367-64.157,37.846-5.073,2.783-10.486,5.719-16.549,8.978-2.229,1.2-4.52,2.343-6.809,3.4-5.5,2.536-10.663,4.948-15.778,7.371a.821.821,0,0,1-.7-1.484c5.121-2.426,10.287-4.84,15.794-7.378,2.258-1.043,4.519-2.172,6.719-3.355,6.059-3.256,11.468-6.19,16.537-8.971,22.711-12.462,40.076-22.706,64.072-37.8a31.73,31.73,0,0,0,10-10.056l13.183-18.7a5.248,5.248,0,0,1,5.33-2.426c.1.016.2.035.3.058l1.821.4a4.188,4.188,0,0,1,3.18,5.047c-.853,3.653-1.609,6.732-2.278,9.448-1.675,6.811-2.884,11.732-4.087,19.429a1.629,1.629,0,0,0,.935,1.73l10.414,4.688a3.29,3.29,0,0,1-1.2,6.333c-7.619.122-15.146.385-23.692.827a6.018,6.018,0,0,0-3.065,1.031c-4.2,2.947-8.223,5.785-12.112,8.529-17.493,12.338-32.6,22.993-48.884,33.14A.816.816,0,0,1,523.467,2042.522Z" transform="translate(-470.459 -1951.668)" fill="#323433"/>
        </g>
        <g id="Grupo_8539" data-name="Grupo 8539" transform="translate(0.563 244.137)">
          <path id="Caminho_13547" data-name="Caminho 13547" d="M179.932,2263.384a.8.8,0,0,1-.166-.017,73.225,73.225,0,0,1-21.911-9.178.821.821,0,1,1,.87-1.392,72.851,72.851,0,0,0,21.369,8.962.821.821,0,0,1-.163,1.625Z" transform="translate(-157.47 -2252.671)" fill="#323433"/>
        </g>
        <g id="Grupo_8540" data-name="Grupo 8540" transform="translate(176.985 119.512)">
          <path id="Caminho_13548" data-name="Caminho 13548" d="M450.32,2085.032a11.571,11.571,0,0,1-1.426-.089c-3.444-.424-6.758-.97-10.43-1.718a.821.821,0,0,1,.328-1.609c3.629.739,6.9,1.28,10.3,1.7a9.6,9.6,0,0,0,6.306-1.385,9.829,9.829,0,0,0,3.081-3.037c.011-.018.023-.035.036-.052a9.775,9.775,0,0,0,1.5-4.9c.191-5.992.218-11.516.089-18.467a.821.821,0,0,1,1.641-.031c.13,6.981.1,12.529-.089,18.552a11.411,11.411,0,0,1-1.788,5.78c-.012.019-.025.037-.038.054a11.5,11.5,0,0,1-3.562,3.493A11.185,11.185,0,0,1,450.32,2085.032Z" transform="translate(-437.806 -2054.641)" fill="#323433"/>
        </g>
        <g id="Grupo_8541" data-name="Grupo 8541" transform="translate(189.677 148.212)">
          <path id="Caminho_13549" data-name="Caminho 13549" d="M459.054,2106.449a.821.821,0,0,1-.819-.774l-.261-4.561a.821.821,0,1,1,1.639-.094l.261,4.562a.821.821,0,0,1-.773.866Z" transform="translate(-457.974 -2100.246)" fill="#323433"/>
        </g>
        <g id="Grupo_8542" data-name="Grupo 8542" transform="translate(0 90.474)">
          <path id="Caminho_13550" data-name="Caminho 13550" d="M190.807,2201.25a3.774,3.774,0,0,1-3.493-2.3,34.785,34.785,0,0,1-2.8-9.827,6.65,6.65,0,0,0-4.839-5.645c-14.843-4.137-19.489-10.561-22.5-20.257-.166-.531-.327-1.08-.484-1.64a2.987,2.987,0,0,1,4.308-3.433,56.086,56.086,0,0,0,20.825,6.886,10.338,10.338,0,0,0,6.8-1.426c34.141-20.92,56.8-35.391,78.2-49.95,10.729-7.3,21.164-14.642,31.9-22.448a128.975,128.975,0,0,1,16.417-10.152l2.13-1.1q2.979-1.541,5.9-3.029l1.388-16.828c-15.912-15.95-13.215-31.36-5.34-40.5a26.566,26.566,0,0,1,8.96-6.784,21.182,21.182,0,0,1,10.084-2.034,16.615,16.615,0,0,1,7.044,2.442,15.478,15.478,0,0,0,6.576,2.306c4.91.3,9.342-6.586,9.386-6.656a.821.821,0,0,1,1.461.153c.371.992,8.914,24.373-5.751,30.089a20.409,20.409,0,0,1-8,1.177c-10.783-.323-17.35,1.052-20.677,4.325a.82.82,0,0,1-1.34-.285c-.459-1.173-.874-1.532-1.029-1.559-.064-.007-.257.061-.555.407-1.428,1.654-1.333,5.248,1.3,8.4a.816.816,0,0,1,.187.594l-.632,7.666v.013l-1.456,17.657a.824.824,0,0,1-.446.664q-3.121,1.591-6.3,3.231l-2.128,1.1a127.383,127.383,0,0,0-16.208,10.022c-10.752,7.817-21.2,15.169-31.944,22.478-21.426,14.575-44.1,29.058-78.266,49.992a11.972,11.972,0,0,1-7.882,1.652,57.6,57.6,0,0,1-21.385-7.071,1.346,1.346,0,0,0-1.942,1.547c.153.545.309,1.079.471,1.6,2.912,9.376,7.18,15.207,21.374,19.165a8.283,8.283,0,0,1,6.029,7.036,33.175,33.175,0,0,0,2.673,9.36,2.2,2.2,0,0,0,4.142-.358c2.128-8.563,5.895-19.72,11.751-24.239,8.017-6.188,61.171-29.548,77.27-36.559a.821.821,0,1,1,.656,1.5c-11.429,4.978-68.852,30.125-76.923,36.354-5.772,4.453-9.471,16.531-11.162,23.335a3.791,3.791,0,0,1-3.405,2.9C191.033,2201.246,190.919,2201.25,190.807,2201.25ZM337.152,2012.4a19.95,19.95,0,0,0-8.291,1.918,24.913,24.913,0,0,0-8.4,6.364c-7.227,8.385-9.746,22.464,4.276,37.253l.457-5.553c-3.083-3.9-2.87-8.167-1.063-10.262a2.233,2.233,0,0,1,2.074-.953A2.689,2.689,0,0,1,328,2042.7c3.864-3.1,10.437-4.356,21.025-4.038a18.862,18.862,0,0,0,7.358-1.066c11.18-4.358,6.908-21.314,5.308-26.483-1.713,2.217-5.508,6.344-9.909,6.065a17.013,17.013,0,0,1-7.25-2.5,15.1,15.1,0,0,0-6.37-2.251C337.826,2012.406,337.49,2012.4,337.152,2012.4Z" transform="translate(-156.575 -2008.5)" fill="#323433"/>
        </g>
        <g id="Grupo_8543" data-name="Grupo 8543" transform="translate(160.252 146.677)">
          <path id="Caminho_13551" data-name="Caminho 13551" d="M434.927,2124.221c-9.625,0-18.34-6.192-23.363-9.76a.821.821,0,1,1,.95-1.338c11.3,8.025,23.388,14.16,35.285,4.787a7.144,7.144,0,0,0,2.716-5.01c.5-4.478-2.239-10.135-5.174-13.756a.821.821,0,1,1,1.275-1.033c2.92,3.6,6.121,9.683,5.53,14.971a8.73,8.73,0,0,1-3.332,6.117A21.939,21.939,0,0,1,434.927,2124.221Z" transform="translate(-411.218 -2097.807)" fill="#323433"/>
        </g>
        <g id="Grupo_8544" data-name="Grupo 8544" transform="translate(170.844 219.825)">
          <path id="Caminho_13552" data-name="Caminho 13552" d="M428.868,2223.948a.821.821,0,0,1-.032-1.64,297.29,297.29,0,0,0,56.365-8.246.821.821,0,1,1,.388,1.6,298.983,298.983,0,0,1-56.687,8.29Z" transform="translate(-428.048 -2214.04)" fill="#323433"/>
        </g>
        <g id="Grupo_8545" data-name="Grupo 8545" transform="translate(160.716 92.304)">
          <path id="Caminho_13553" data-name="Caminho 13553" d="M414.5,2022.041a.818.818,0,0,1-.646-.314l-1.622-2.065a1.489,1.489,0,0,1-.121-1.564c.863-2.16,6.17-6.332,8.475-6.665a1.491,1.491,0,0,1,1.495.487l1.745,2.215a.821.821,0,0,1-1.29,1.016l-1.657-2.1c-.5.018-2.025.719-4.051,2.309-2.094,1.645-3.081,2.96-3.215,3.4l1.532,1.951a.821.821,0,0,1-.645,1.328Z" transform="translate(-411.955 -2011.408)" fill="#323433"/>
        </g>
        <g id="Grupo_8546" data-name="Grupo 8546" transform="translate(40.53)">
          <path id="Caminho_13554" data-name="Caminho 13554" d="M322.091,1977.3a7.78,7.78,0,0,1-3.59-.813c-4.395-2.245-4.668-5.551-4.933-8.748-.262-3.168-.51-6.16-4.782-8.472-3.9-2.108-6.511-.053-9.537,2.325-3.3,2.6-7.048,5.539-12.575,1.861-5.231-3.484-5.174-8.427-5.125-12.787.05-4.377.093-8.156-4.282-10.79s-8.935-1.09-13.753.547c-5.092,1.731-10.357,3.52-15.34-.06-5.443-3.908-6.175-8.294-6.821-12.164-.476-2.856-.889-5.324-3.082-7.288-5.03-4.507-15.929,2.233-16.038,2.3a.821.821,0,0,1-1.139-1.118c4.447-7.4,11.271-14.831,18.494-22.7,9.992-10.885,20.324-22.141,24.993-34.132a.819.819,0,0,1,1.159-.422c8.586,4.693,8.972,10.932,9.313,16.437.277,4.489.517,8.365,4.715,11.3,4.759,3.325,7.988,2.037,11.406.673s6.972-2.782,11.678.767c4.855,3.661,5.044,9.12,5.21,13.936.155,4.462.3,8.676,3.845,11.264,3.751,2.737,6.757,2.27,9.664,1.821,2.993-.462,6.088-.942,9.5,2.135,3.571,3.218,3.347,7.76,3.149,11.766-.176,3.571-.329,6.654,1.953,8.388,2.7,2.05,5.129,2.229,7.479,2.4,2.174.161,4.227.313,5.952,2.03,3.494,3.48,1.909,10.216,1.84,10.5a.821.821,0,0,1-1.6-.386c.014-.061,1.434-6.124-1.4-8.95-1.294-1.288-2.892-1.406-4.914-1.556a14.21,14.21,0,0,1-8.35-2.733c-2.972-2.258-2.784-6.08-2.6-9.777.189-3.819.384-7.769-2.609-10.466-2.831-2.554-5.294-2.173-8.147-1.731-3.086.478-6.583,1.019-10.882-2.118-4.191-3.059-4.357-7.875-4.519-12.532-.169-4.882-.329-9.493-4.558-12.682-3.968-2.992-6.8-1.863-10.081-.553-3.5,1.4-7.468,2.979-12.955-.852-4.847-3.385-5.135-8.04-5.413-12.541-.318-5.14-.647-10.448-7.657-14.638-4.928,11.941-15.107,23.031-24.96,33.764-6.3,6.859-12.285,13.384-16.605,19.788,3.918-1.881,10.963-4.378,15.175-.6,2.623,2.349,3.1,5.211,3.607,8.241.622,3.73,1.266,7.588,6.159,11.1,4.3,3.087,8.94,1.508,13.853-.162,4.961-1.686,10.09-3.429,15.128-.4,5.181,3.118,5.128,7.743,5.077,12.215-.049,4.326-.1,8.412,4.393,11.4,4.537,3.021,7.37.794,10.651-1.785,3.041-2.39,6.488-5.1,11.333-2.478,5.053,2.734,5.363,6.478,5.636,9.781.248,3,.463,5.593,4.043,7.421,3.867,1.977,9.66-1.01,13.839-3.861a65.412,65.412,0,0,0,8.418-6.951.821.821,0,1,1,1.165,1.157C342.121,1965.919,330.716,1977.294,322.091,1977.3Z" transform="translate(-220.978 -1864.735)" fill="#323433"/>
        </g>
        <g id="Grupo_8547" data-name="Grupo 8547" transform="translate(83.82 319.497)">
          <path id="Caminho_13555" data-name="Caminho 13555" d="M354.908,2393.6a1.965,1.965,0,0,1-.53-.073c-16.957-4.72-39.074-9.986-63.96-15.228a.821.821,0,0,1,.339-1.607c24.92,5.25,47.072,10.524,64.061,15.253a.335.335,0,0,0,.27-.043.326.326,0,0,0,.142-.238l1.76-18.5a.821.821,0,1,1,1.634.156l-1.759,18.5a1.968,1.968,0,0,1-1.955,1.781Z" transform="translate(-289.766 -2372.421)" fill="#323433"/>
        </g>
        <g id="Grupo_8548" data-name="Grupo 8548" transform="translate(21.648 314.787)">
          <path id="Caminho_13556" data-name="Caminho 13556" d="M193.761,2437.907a10.9,10.9,0,0,1-2.126-.214.82.82,0,0,1-.639-.993l16.722-71.13a.819.819,0,0,1,.948-.62c7.542,1.392,15.079,2.831,22.4,4.274,7.722,1.519,15.483,3.1,23.064,4.695a.821.821,0,0,1-.338,1.607c-7.575-1.595-15.328-3.173-23.044-4.691-7.068-1.393-14.335-2.782-21.614-4.127l-16.34,69.5c7.25.779,12.146-7.393,17.311-16.024,5.389-9,10.956-18.32,19.854-17.722a12.947,12.947,0,0,1,2.189.339l3.194.769q3.185.772,6.2,1.508c7.945,1.947,15.119,3.755,21.936,5.528,23.106,6.017,40.238,11.183,63.95,18.334a18.652,18.652,0,0,0,21.113-7.815,18.553,18.553,0,0,0,2.21-4.893c3.994-13.891,7.271-26.479,10.624-40.813a.821.821,0,1,1,1.6.374c-3.36,14.363-6.642,26.975-10.644,40.893a20.313,20.313,0,0,1-9.8,12.218,20.432,20.432,0,0,1-15.578,1.607c-23.695-7.146-40.815-12.309-63.889-18.317-6.809-1.771-13.977-3.577-21.912-5.523q-3.009-.735-6.191-1.506l-3.194-.769a11.341,11.341,0,0,0-1.912-.3c-7.884-.535-13.2,8.347-18.337,16.927C206.545,2429.339,201.417,2437.906,193.761,2437.907Z" transform="translate(-190.974 -2364.936)" fill="#323433"/>
        </g>
        <g id="Grupo_8549" data-name="Grupo 8549" transform="translate(15.795 313.507)">
          <path id="Caminho_13557" data-name="Caminho 13557" d="M188.348,2436.955a.806.806,0,0,1-.188-.022l-5.853-1.376a.82.82,0,0,1-.613-.979l15.909-71.035a.819.819,0,0,1,.956-.626l6.666,1.28a.821.821,0,1,1-.31,1.612l-5.884-1.13-15.558,69.465,5.063,1.191a.821.821,0,0,1-.188,1.62Z" transform="translate(-181.673 -2362.902)" fill="#323433"/>
        </g>
        <g id="Grupo_8550" data-name="Grupo 8550" transform="translate(56.395 319.058)">
          <path id="Caminho_13558" data-name="Caminho 13558" d="M250.375,2406.621a.82.82,0,0,1-.675-.353c-2.711-3.911-3.994-8.605-3.348-12.251.778-4.4,3.205-16.571,4.216-21.618a.821.821,0,0,1,1.629.143v0a.822.822,0,0,1-.016.161c-1.008,5.032-3.437,17.211-4.213,21.6-.564,3.186.645,7.515,3.081,11.029a.821.821,0,0,1-.674,1.289Z" transform="translate(-246.187 -2371.723)" fill="#323433"/>
        </g>
        <g id="Grupo_8551" data-name="Grupo 8551" transform="translate(179.087 328.81)">
          <path id="Caminho_13559" data-name="Caminho 13559" d="M464.3,2434.644a19.746,19.746,0,0,1-3.84-.376c-6.671-1.318-12.769-2.506-18.642-3.632a.821.821,0,1,1,.309-1.612c5.877,1.127,11.978,2.316,18.652,3.634A18.329,18.329,0,0,0,482.362,2418c1.928-10.477,3.507-20.034,4.967-30.076a.821.821,0,0,1,1.625.236c-1.463,10.062-3.045,19.638-4.977,30.137a19.958,19.958,0,0,1-19.68,16.35Z" transform="translate(-441.147 -2387.218)" fill="#323433"/>
        </g>
        <g id="Grupo_8552" data-name="Grupo 8552" transform="translate(65.934 354.909)">
          <path id="Caminho_13560" data-name="Caminho 13560" d="M263.175,2469.708c-.356,0-.718-.018-1.089-.054a.822.822,0,0,1-.734-.926l5.265-39.324a.821.821,0,0,1,1.627.218l-5.148,38.444h.064c7.115,0,11.1-8.43,15.309-17.333,2.957-6.255,6.014-12.722,10.361-16.327a.821.821,0,0,1,1.048,1.264c-4.066,3.372-7.045,9.673-9.925,15.765C275.7,2460.424,271.314,2469.708,263.175,2469.708Z" transform="translate(-261.345 -2428.691)" fill="#323433"/>
        </g>
        <g id="Grupo_8553" data-name="Grupo 8553" transform="translate(84.568 323.757)">
          <path id="Caminho_13561" data-name="Caminho 13561" d="M357.16,2388.019a.65.65,0,0,1-.092-.006c-19.871-2.614-42.727-5.1-66.114-7.188l.161-1.635h0c23.393,2.09,46.271,4.578,66.145,7.193a.821.821,0,0,1-.1,1.635Z" transform="translate(-290.954 -2379.19)" fill="#323433"/>
        </g>
        <g id="Grupo_8554" data-name="Grupo 8554" transform="translate(60.074 353.402)">
          <path id="Caminho_13562" data-name="Caminho 13562" d="M258.715,2468.771a.841.841,0,0,1-.11-.008l-5.86-.785a.822.822,0,0,1-.706-.915l4.932-40.047a.821.821,0,0,1,1.629.2l-4.833,39.24,5.055.678a.821.821,0,0,1-.108,1.635Z" transform="translate(-252.033 -2426.296)" fill="#323433"/>
        </g>
        <g id="Grupo_8555" data-name="Grupo 8555" transform="translate(187.635 127.137)">
          <path id="Caminho_13563" data-name="Caminho 13563" d="M454.729,2066.757" transform="translate(-454.729 -2066.757)" fill="none" stroke="#323433" stroke-linecap="round" stroke-linejoin="round" stroke-width="2.609"/>
        </g>
        <g id="Grupo_8556" data-name="Grupo 8556" transform="translate(180.32 127.806)">
          <path id="Caminho_13564" data-name="Caminho 13564" d="M443.105,2067.82" transform="translate(-443.105 -2067.82)" fill="none" stroke="#323433" stroke-linecap="round" stroke-linejoin="round" stroke-width="2.609"/>
        </g>
        <g id="Grupo_8557" data-name="Grupo 8557" transform="translate(233.848 254.419)">
          <path id="Caminho_13565" data-name="Caminho 13565" d="M530.36,2283.158a.821.821,0,0,1-.159-1.626c22.214-4.411,22.414-7.769,22.364-8.136-.071-.526-1.546-3.127-23.565-2.693a.821.821,0,0,1-.033-1.642c21.8-.429,24.933,1.971,25.224,4.112.174,1.269.7,5.13-23.671,9.968A.838.838,0,0,1,530.36,2283.158Z" transform="translate(-528.163 -2269.011)" fill="#323433"/>
        </g>
        <g id="Grupo_8558" data-name="Grupo 8558" transform="translate(146.211 266.924)">
          <path id="Caminho_13566" data-name="Caminho 13566" d="M412.593,2296.641a171.066,171.066,0,0,1-22.981-1.285.821.821,0,1,1,.232-1.626c14.808,2.111,36.985,1.125,48.886.348a332.224,332.224,0,0,0,39.852-5.181.821.821,0,1,1,.32,1.61,333.936,333.936,0,0,1-40.065,5.209C432.243,2296.147,422.506,2296.641,412.593,2296.641Z" transform="translate(-388.907 -2288.882)" fill="#fff"/>
        </g>
        <g id="Grupo_8559" data-name="Grupo 8559" transform="translate(131.413 254.601)">
          <path id="Caminho_13567" data-name="Caminho 13567" d="M381.013,2288.107a.856.856,0,0,1-.116-.009c-10.257-1.464-15.326-4.12-15.5-8.124-.169-3.911,3.678-7.482,11.434-10.615a.821.821,0,1,1,.614,1.522c-6.943,2.8-10.542,5.924-10.408,9.021.13,3,5,5.273,14.09,6.569a.821.821,0,0,1-.115,1.635Z" transform="translate(-365.393 -2269.3)" fill="#323433"/>
        </g>
        <g id="Grupo_8560" data-name="Grupo 8560" transform="translate(235.984 276.082)">
          <path id="Caminho_13568" data-name="Caminho 13568" d="M532.377,2307.6a.821.821,0,0,1-.124-1.633c5.133-.791,10.07-1.639,14.673-2.519a.821.821,0,0,1,.308,1.613c-4.622.884-9.579,1.735-14.732,2.53A.815.815,0,0,1,532.377,2307.6Z" transform="translate(-531.557 -2303.434)" fill="#323433"/>
        </g>
        <g id="Grupo_8561" data-name="Grupo 8561" transform="translate(182.973 278.606)">
          <path id="Caminho_13569" data-name="Caminho 13569" d="M448.142,2314.37a.821.821,0,0,1-.039-1.641c3.955-.191,7.874-.414,11.646-.661,12.735-.832,27.395-2.47,41.28-4.614a.821.821,0,0,1,.25,1.624c-13.931,2.15-28.642,3.793-41.422,4.629-3.782.248-7.709.471-11.675.663Z" transform="translate(-447.321 -2307.444)" fill="#fff"/>
        </g>
        <g id="Grupo_8562" data-name="Grupo 8562" transform="translate(142.079 249.546)">
          <path id="Caminho_13570" data-name="Caminho 13570" d="M386.858,2270.3c-.093,0-.186,0-.281-.009a4.515,4.515,0,0,1,.556-9.014,4.515,4.515,0,0,1,4.23,4.786h0A4.521,4.521,0,0,1,386.858,2270.3Zm0-7.39a2.878,2.878,0,0,0-2.866,2.7,2.831,2.831,0,0,0,.2,1.232,2.874,2.874,0,0,0,5.541-.878h0a2.879,2.879,0,0,0-2.693-3.047C386.972,2262.91,386.913,2262.908,386.854,2262.908Zm3.69,3.1h0Z" transform="translate(-382.341 -2261.267)" fill="#323433"/>
        </g>
        <g id="Grupo_8563" data-name="Grupo 8563" transform="translate(173.934 280.656)">
          <path id="Caminho_13571" data-name="Caminho 13571" d="M442.318,2310.7l-9.359,4.659,9.774,3.712Z" transform="translate(-432.959 -2310.701)" fill="#fff"/>
        </g>
      </g>
    </g>
    <g id="Grupo_8566" data-name="Grupo 8566" transform="translate(102.076 139.037)">
      <path id="Caminho_13572" data-name="Caminho 13572" d="M326.446,2088.825a3.868,3.868,0,1,0-3.092,4.513A3.868,3.868,0,0,0,326.446,2088.825Z" transform="translate(-318.776 -2085.667)" fill="#323433"/>
    </g>
    <g id="Grupo_8567" data-name="Grupo 8567" transform="translate(305.152 285.921)">
      <path id="Caminho_13573" data-name="Caminho 13573" d="M676.027,2340.15h-.014l-9.862-.254a.547.547,0,0,1-.518-.424l-2.121-9.2-9.437-.244a.546.546,0,0,1-.519-.423l-2.12-9.2-9.436-.241a.547.547,0,0,1-.533-.561.541.541,0,0,1,.561-.533l9.86.252a.547.547,0,0,1,.519.424l2.12,9.2,9.437.244a.547.547,0,0,1,.519.424l2.121,9.2,9.437.244a.547.547,0,0,1-.014,1.094Z" transform="translate(-641.466 -2319.069)" fill="#323433"/>
    </g>
    <g id="Grupo_8570" data-name="Grupo 8570" transform="translate(71.204 128.178)">
      <g id="Grupo_8568" data-name="Grupo 8568" transform="translate(0 1.549)">
        <path id="Caminho_13574" data-name="Caminho 13574" d="M280.108,2078.713a.55.55,0,0,1-.309-.1l-9.843-6.745a.547.547,0,0,1,.619-.9l9.843,6.744a.548.548,0,0,1-.31,1Z" transform="translate(-269.718 -2070.873)" fill="#323433"/>
      </g>
      <g id="Grupo_8569" data-name="Grupo 8569" transform="translate(1.55)">
        <path id="Caminho_13575" data-name="Caminho 13575" d="M272.727,2079.349a.542.542,0,0,1-.308-.1.548.548,0,0,1-.142-.761l6.744-9.843a.547.547,0,1,1,.9.619l-6.744,9.843A.547.547,0,0,1,272.727,2079.349Z" transform="translate(-272.181 -2068.412)" fill="#323433"/>
      </g>
    </g>
  </g>
</svg>
