<svg id="Componente_60_2" data-name="Componente 60 – 2" xmlns="http://www.w3.org/2000/svg" width="24.935" height="17.533" viewBox="0 0 24.935 17.533">
  <path id="Caminho_9296" data-name="Caminho 9296" d="M2245.155,369.57a2.919,2.919,0,0,0-3.011-3.008c-.933,0-1.866,0-2.8,0h-16.068a2.913,2.913,0,0,0-3.005,2.41c-.007.033-.011.063-.048.074V381.61c.037.011.041.041.048.074a2.912,2.912,0,0,0,2.981,2.409q9.446,0,18.892,0a2.917,2.917,0,0,0,3.011-3.007Q2245.159,375.328,2245.155,369.57ZM2243.694,381a1.486,1.486,0,0,1-1.632,1.628h-18.72a1.492,1.492,0,0,1-1.659-1.649q0-5.66,0-11.32a1.489,1.489,0,0,1,1.644-1.64h18.721a1.489,1.489,0,0,1,1.647,1.637Q2243.695,375.332,2243.694,381Z" transform="translate(-2220.222 -366.561)" fill="currentColor"/>
  <path id="Caminho_9297" data-name="Caminho 9297" d="M2274.41,414.394q-3.079.009-6.16,0c-.174,0-.209.046-.209.214q.01,2.715,0,5.429c0,.174.046.211.214.209,1.022-.008,2.045,0,3.068,0s2.061,0,3.092,0c.174,0,.21-.046.21-.214q-.01-2.715,0-5.429C2274.625,414.43,2274.578,414.394,2274.41,414.394Zm-1.424,4.39c-.544-.007-1.088,0-1.631,0-.56,0-1.12,0-1.679,0-.141,0-.173-.041-.172-.176q.008-1.29,0-2.581c0-.141.042-.172.176-.172q1.656.008,3.311,0c.14,0,.173.041.172.176q-.009,1.29,0,2.581C2273.163,418.753,2273.121,418.786,2272.986,418.784Z" transform="translate(-2265.123 -411.475)" fill="currentColor"/>
  <path id="Caminho_9298" data-name="Caminho 9298" d="M2273.441,533.527c0-.125-.016-.186-.167-.185q-2.542.008-5.083,0c-.119,0-.15.035-.147.15.007.373.011.746,0,1.119-.005.16.042.2.2.2.827-.008,1.654,0,2.481,0,.843,0,1.687,0,2.53,0,.147,0,.2-.034.19-.188C2273.431,534.257,2273.435,533.892,2273.441,533.527Z" transform="translate(-2265.123 -523.166)" fill="currentColor"/>
  <path id="Caminho_9299" data-name="Caminho 9299" d="M2497.743,533.335c-.827.008-1.654,0-2.481,0-.843,0-1.687,0-2.53,0-.149,0-.194.037-.189.189.012.364.008.73,0,1.094,0,.127.019.185.168.184q2.542-.008,5.083,0c.12,0,.148-.038.146-.151-.007-.373-.011-.746,0-1.119C2497.949,533.37,2497.9,533.334,2497.743,533.335Z" transform="translate(-2475.927 -523.16)" fill="currentColor"/>
  <path id="Caminho_9300" data-name="Caminho 9300" d="M2385.758,533.512c0-.128-.034-.163-.162-.162q-2.532.006-5.063,0c-.125,0-.167.03-.164.16.009.365.013.731,0,1.1-.006.171.042.215.212.213.827-.009,1.654,0,2.482,0s1.671,0,2.507,0c.147,0,.194-.032.189-.185C2385.747,534.259,2385.75,533.885,2385.758,533.512Z" transform="translate(-2370.596 -523.174)" fill="currentColor"/>
  <path id="Caminho_9301" data-name="Caminho 9301" d="M2538.712,415.743c0,.122.042.147.154.146q1.142-.006,2.284,0c.123,0,.146-.043.144-.153-.006-.389-.007-.778,0-1.166,0-.12-.037-.149-.151-.147-.373.007-.745,0-1.118,0s-.761,0-1.142,0c-.113,0-.176.01-.172.153C2538.722,414.965,2538.72,415.354,2538.712,415.743Z" transform="translate(-2519.28 -411.503)" fill="currentColor"/>
</svg>
