<svg id="cash" xmlns="http://www.w3.org/2000/svg" width="19.847" height="19.982" viewBox="0 0 19.847 19.982">
  <g id="Grupo_6524" data-name="Grupo 6524" transform="translate(0)">
    <g id="Grupo_6523" data-name="Grupo 6523" transform="translate(0)">
      <path id="Caminho_8912" data-name="Caminho 8912" d="M21.137,10.772a2.5,2.5,0,0,0-3.534,0l-1.244,1.244a3.047,3.047,0,0,0,.064-.591V6.559a3.066,3.066,0,0,0-3-3.062V2.858a1,1,0,0,0,.5-.86V.5a.5.5,0,0,0-.5-.5h-4a.5.5,0,0,0-.5.5V2a1,1,0,0,0,.5.86V3.5a3.066,3.066,0,0,0-3,3.062v4.866c0,.041.005.079.007.119a2.5,2.5,0,0,0-1.006.446v-.5a.5.5,0,0,0-.5-.5h-3a.5.5,0,0,0-.5.5v7.993a.5.5,0,0,0,.5.5h3a.5.5,0,0,0,.5-.5v-.5h7.993a.5.5,0,0,0,.353-.146l7.359-7.358A.5.5,0,0,0,21.137,10.772Zm-16.7,8.211h-2V11.989h2ZM9.928,1h3V2h-3ZM7.43,11.425V6.559A2.066,2.066,0,0,1,9.494,4.5h.435a.5.5,0,0,0,.5-.5V3h2V4a.5.5,0,0,0,.5.5h.435a2.066,2.066,0,0,1,2.063,2.063v4.866a2.039,2.039,0,0,1-.89,1.694c-.016-.007-.033-.01-.05-.016a1.592,1.592,0,0,0-.193-.063c-.028-.007-.055-.016-.083-.021a1.488,1.488,0,0,0-.282-.03H11.218a2.493,2.493,0,0,0-2.289-1.5H7.43C7.43,11.468,7.43,11.446,7.43,11.425Zm5.788,6.559H5.432v-4a1.335,1.335,0,0,1,.045-.355.078.078,0,0,1,0-.021,1.492,1.492,0,0,1,1.449-1.122h2a1.492,1.492,0,0,1,1.449,1.122.5.5,0,0,0,.485.376h3.062a.509.509,0,0,1,.308.108.471.471,0,0,1,.167.247c0,.006.005.01.007.016a.4.4,0,0,1,.018.128.489.489,0,0,1-.153.356.478.478,0,0,1-.347.144H8.43v1h5.495a1.507,1.507,0,0,0,1.5-1.5c0-.038-.006-.076-.009-.114l2.9-2.895a1.536,1.536,0,0,1,1.707-.293Z" transform="translate(-1.436)" fill="#272626"/>
    </g>
  </g>
  <g id="Grupo_6526" data-name="Grupo 6526" transform="translate(1.499 12.988)">
    <g id="Grupo_6525" data-name="Grupo 6525">
      <rect id="Retângulo_2723" data-name="Retângulo 2723" width="0.999" height="0.999" fill="#ff7d00"/>
    </g>
  </g>
  <g id="Grupo_6528" data-name="Grupo 6528" transform="translate(7.993 5.994)">
    <g id="Grupo_6527" data-name="Grupo 6527">
      <path id="Caminho_8913" data-name="Caminho 8913" d="M176.1,130v-.5a1,1,0,0,0-1-1h-.5V128h-1v.5h-.5a1,1,0,0,0-1,1v1a1,1,0,0,0,1,1h2v1h-2V132h-1v.5a1,1,0,0,0,1,1h.5v.5h1v-.5h.5a1,1,0,0,0,1-1v-1a1,1,0,0,0-1-1h-2v-1h2v.5h1Z" transform="translate(-172.103 -128)" fill="#ff7d00"/>
    </g>
  </g>
</svg>
