<svg id="Grupo_3353" data-name="Grupo 3353" xmlns="http://www.w3.org/2000/svg" width="19.887" height="25.99" viewBox="0 0 19.887 25.99">
  <path id="Caminho_3666_1_" d="M184.393,77.23c-.211.356-.422.7-.633,1.026,3.472.446,5.819,1.614,5.819,2.683,0,1.356-3.781,2.873-8.836,2.873s-8.836-1.517-8.836-2.873c0-1.067,2.349-2.235,5.819-2.683-.211-.327-.422-.671-.633-1.026-3.444.519-6.293,1.782-6.293,3.707,0,2.581,5.122,3.977,9.943,3.977s9.943-1.394,9.943-3.977C190.684,79.012,187.837,77.749,184.393,77.23Z" transform="translate(-170.8 -58.924)" fill="#272626"/>
  <g id="Grupo_10_1_" transform="translate(2.954)">
    <path id="Caminho_95_1_" d="M6.525,0A7,7,0,0,0-.47,6.995c0,6.684,6.646,13.406,6.715,13.475l.282.282.282-.282c.066-.069,6.713-6.791,6.713-13.475A7.007,7.007,0,0,0,6.525,0Zm5.651,6.995c0,4.909-4.112,10.052-5.648,11.8C4.989,17.045.876,11.9.876,6.995a5.65,5.65,0,1,1,11.3-.007Z" transform="translate(0.47)" fill="#ff7d00"/>
    <path id="Caminho_96_1_" d="M16.253,12.76a3.971,3.971,0,1,0,3.97,3.973h0A3.975,3.975,0,0,0,16.253,12.76Zm2.626,3.97A2.626,2.626,0,1,1,16.253,14.1a2.626,2.626,0,0,1,2.626,2.626Z" transform="translate(-9.258 -9.736)" fill="#272626"/>
  </g>
</svg>
