<svg id="Grupo_3354" data-name="Grupo 3354" xmlns="http://www.w3.org/2000/svg" width="25.243" height="23.743" viewBox="0 0 25.243 23.743">
  <path id="Caminho_3914" data-name="Caminho 3914" d="M507.809,35.586a.535.535,0,0,0,.389-.171.559.559,0,0,0,.168-.389.578.578,0,0,0-.156-.389.555.555,0,0,0-.4-.168.542.542,0,0,0-.389.168.563.563,0,0,0-.168.389.542.542,0,0,0,.168.389A.566.566,0,0,0,507.809,35.586Z" transform="translate(-501.227 -26.923)" fill="#ff7d00"/>
  <path id="Caminho_3915" data-name="Caminho 3915" d="M495.108,48.316a.574.574,0,0,0,.389-.156.559.559,0,0,0,.168-.389.518.518,0,0,0-.164-.379.474.474,0,0,0-.382-.192.542.542,0,0,0-.389.168.552.552,0,0,0-.171.389.558.558,0,0,0,.548.559Z" transform="translate(-491.545 -36.636)" fill="#ff7d00"/>
  <path id="Caminho_3916" data-name="Caminho 3916" d="M495.108,35.586a.535.535,0,0,0,.389-.171.559.559,0,0,0,.168-.389.53.53,0,0,0-.166-.384.5.5,0,0,0-.379-.173.542.542,0,0,0-.389.168.552.552,0,0,0-.171.389.558.558,0,0,0,.548.559Z" transform="translate(-491.545 -26.923)" fill="#ff7d00"/>
  <path id="Caminho_3917" data-name="Caminho 3917" d="M495.137,61a.542.542,0,0,0,.389-.168.552.552,0,0,0,.156-.389.546.546,0,0,0-.173-.393.586.586,0,0,0-.37-.166.535.535,0,0,0-.389.171.552.552,0,0,0-.171.389.542.542,0,0,0,.168.389A.563.563,0,0,0,495.137,61Z" transform="translate(-491.56 -46.31)" fill="#ff7d00"/>
  <path id="Caminho_3918" data-name="Caminho 3918" d="M490.039,21.73H483.8a1.962,1.962,0,0,0-1.96,1.96v15.3a1.962,1.962,0,0,0,1.96,1.96h6.25a1.962,1.962,0,0,0,1.96-1.96V23.69A1.985,1.985,0,0,0,490.039,21.73Zm-7.082,1.96a.844.844,0,0,1,.844-.844h6.25a.844.844,0,0,1,.844.844V38.907h-.014v.076a.844.844,0,0,1-.844.844H483.8a.844.844,0,0,1-.844-.844V23.69Z" transform="translate(-481.84 -17.203)" fill="#ff7d00"/>
  <path id="Caminho_3919" data-name="Caminho 3919" d="M507.817,48.316a.574.574,0,0,0,.389-.156.559.559,0,0,0,.168-.389.575.575,0,0,0-.152-.384.529.529,0,0,0-.405-.187.542.542,0,0,0-.389.168.563.563,0,0,0-.168.389.542.542,0,0,0,.168.389A.556.556,0,0,0,507.817,48.316Z" transform="translate(-501.235 -36.636)" fill="#ff7d00"/>
  <path id="Caminho_3920" data-name="Caminho 3920" d="M507.809,73.736a.542.542,0,0,0,.389-.168.563.563,0,0,0,.168-.389.574.574,0,0,0-.156-.389.558.558,0,0,0-.4-.171.535.535,0,0,0-.389.171.559.559,0,0,0-.168.389.542.542,0,0,0,.168.389A.573.573,0,0,0,507.809,73.736Z" transform="translate(-501.227 -56.031)" fill="#ff7d00"/>
  <path id="Caminho_3921" data-name="Caminho 3921" d="M507.809,86.476a.542.542,0,0,0,.389-.168.563.563,0,0,0,.168-.389.574.574,0,0,0-.156-.389.558.558,0,0,0-.4-.171.535.535,0,0,0-.389.171.559.559,0,0,0-.168.389.542.542,0,0,0,.168.389A.573.573,0,0,0,507.809,86.476Z" transform="translate(-501.227 -65.751)" fill="#ff7d00"/>
  <path id="Caminho_3922" data-name="Caminho 3922" d="M507.809,61a.542.542,0,0,0,.389-.168.563.563,0,0,0,.168-.389.53.53,0,0,0-.166-.384.509.509,0,0,0-.393-.173.535.535,0,0,0-.389.171.563.563,0,0,0-.168.389.542.542,0,0,0,.168.389A.581.581,0,0,0,507.809,61Z" transform="translate(-501.227 -46.318)" fill="#ff7d00"/>
  <path id="Caminho_3923" data-name="Caminho 3923" d="M543.835,5.88l-.2-.076V3.187a.558.558,0,0,0-.557-.557H535.58a.558.558,0,0,0-.557.557v2.6l-.2.076a3.254,3.254,0,0,0-2.079,3.065V23.078a3.286,3.286,0,0,0,3.283,3.283h6.613a3.286,3.286,0,0,0,3.283-3.283V8.93A3.264,3.264,0,0,0,543.835,5.88ZM544.8,21.1V23.09a2.169,2.169,0,0,1-2.166,2.166h-6.613a2.169,2.169,0,0,1-2.166-2.166V21.1H544.8Zm0-9.057v7.929H533.854V12.04Zm0-3.11v1.993H533.854V8.93a2.169,2.169,0,0,1,2.166-2.166h6.613A2.169,2.169,0,0,1,544.8,8.93Zm-8.663-3.283V3.758h6.378V5.647Z" transform="translate(-520.675 -2.63)" fill="#272626"/>
  <path id="Caminho_3924" data-name="Caminho 3924" d="M495.108,73.744a.542.542,0,0,0,.389-.168.563.563,0,0,0,.168-.389.53.53,0,0,0-.166-.384.5.5,0,0,0-.379-.173.542.542,0,0,0-.389.168.552.552,0,0,0-.171.389.554.554,0,0,0,.548.557Z" transform="translate(-491.545 -56.038)" fill="#ff7d00"/>
  <path id="Caminho_3925" data-name="Caminho 3925" d="M495.129,86.476a.542.542,0,0,0,.389-.168.559.559,0,0,0,.168-.389.542.542,0,0,0-.168-.389.552.552,0,0,0-.389-.171.542.542,0,0,0-.389.168.552.552,0,0,0-.171.389.542.542,0,0,0,.168.389A.566.566,0,0,0,495.129,86.476Z" transform="translate(-491.553 -65.751)" fill="#ff7d00"/>
  <path id="Caminho_3926" data-name="Caminho 3926" d="M551.207,52.139h1.218v1.218a.557.557,0,1,0,1.114,0V52.139h1.223a.557.557,0,0,0,0-1.114h-1.218V49.807a.557.557,0,1,0-1.114,0v1.218h-1.223a.557.557,0,0,0,0,1.114Z" transform="translate(-534.34 -38.2)" fill="#272626"/>
</svg>
