<svg id="healthcare" xmlns="http://www.w3.org/2000/svg" width="28.533" height="26.251" viewBox="0 0 28.533 26.251">
  <path id="Caminho_9222" data-name="Caminho 9222" d="M.557,295.8H5.35a.56.56,0,0,0,.557-.563v-.55a11.8,11.8,0,0,1,4.251,1.073,12.562,12.562,0,0,0,5.223,1.167,15.31,15.31,0,0,0,4.528-1.037.565.565,0,0,0,.346-.716.556.556,0,0,0-.708-.349,14.37,14.37,0,0,1-4.165.975,11.483,11.483,0,0,1-4.809-1.086,12.833,12.833,0,0,0-4.665-1.155v-5.722A6.82,6.82,0,0,0,7,287.4a3.911,3.911,0,0,1,4.05-.111l2.69,1.53a1.661,1.661,0,0,0,.82.217h3.609a1.128,1.128,0,0,1,.4,2.177,1.087,1.087,0,0,1-.4.076H12.5a.563.563,0,0,0,0,1.126h5.665a2.187,2.187,0,0,0,.785-.145l.013,0,6.935-2.591a1.1,1.1,0,0,1,.4-.076,1.122,1.122,0,0,1,1.115,1.126,1.133,1.133,0,0,1-.637,1.018l-.375.182s-1.023.481-1.01.477c-.365.169-.779.358-1.233.56a.565.565,0,0,0-.286.742.555.555,0,0,0,.735.289c1.1-.488,1.822-.833,2.645-1.232a2.266,2.266,0,0,0,1.276-2.037,2.244,2.244,0,0,0-2.229-2.253,2.2,2.2,0,0,0-.8.151l-5.138,1.919a2.25,2.25,0,0,0-2.2-2.633H14.559a.553.553,0,0,1-.273-.072l-2.691-1.53a4.946,4.946,0,0,0-5.059.068,3.438,3.438,0,0,1-1.185.408H.557a.56.56,0,0,0-.557.563v7.885a.56.56,0,0,0,.557.563Zm.557-7.885H4.793v6.759H1.115Z" transform="translate(0 -270.673)" fill="#ff7d00"/>
  <path id="Caminho_9223" data-name="Caminho 9223" d="M194.169,40.467a.563.563,0,0,0,.619,0c8.262-5.436,8.534-9.458,7.961-11.371a4.6,4.6,0,0,0-4.329-3.19,5.208,5.208,0,0,0-3.941,1.886,5.207,5.207,0,0,0-3.941-1.886,4.6,4.6,0,0,0-4.327,3.2C185.638,31.013,185.91,35.033,194.169,40.467ZM187.29,29.424a3.5,3.5,0,0,1,3.248-2.392,4.253,4.253,0,0,1,3.455,1.986.563.563,0,0,0,.972,0,4.292,4.292,0,0,1,3.455-1.985,3.5,3.5,0,0,1,3.25,2.387c.384,1.282.435,4.791-7.191,9.9C186.855,34.211,186.906,30.7,187.29,29.424Z" transform="translate(-175.851 -25.905)" fill="#ff7d00"/>
  <path id="Caminho_9224" data-name="Caminho 9224" d="M286.563,109.474h1.69v1.69a.563.563,0,0,0,1.126,0v-1.69h1.69a.563.563,0,0,0,0-1.126h-1.69v-1.69a.563.563,0,1,0-1.126,0v1.69h-1.69a.563.563,0,1,0,0,1.126Z" transform="translate(-270.103 -101.505)" fill="#ff7d00"/>
  <circle id="Elipse_1172" data-name="Elipse 1172" cx="0.563" cy="0.563" r="0.563" transform="translate(21.502 23.209)" fill="#ff7d00"/>
</svg>
