<svg id="mortgage-loan" xmlns="http://www.w3.org/2000/svg" width="28.533" height="26.251" viewBox="0 0 28.533 26.251">
  <path id="Caminho_9236" data-name="Caminho 9236" d="M16.472,146.631h1.417v1.889h.945v-2.362a.472.472,0,0,0-.472-.472H16.945v-.25l5.97-4.94-.6-.728-6.141,5.082a.472.472,0,0,0-.171.364v.945A.472.472,0,0,0,16.472,146.631Z" transform="translate(-16 -133.477)" fill="#ff7d00"/>
  <path id="Caminho_9237" data-name="Caminho 9237" d="M159.814,43.446l-3.135-2.595V35.307h.472v-.945h-5.668v.945h.472v1.635l-5.84-4.833a.472.472,0,0,0-.6,0L138.9,37.582l.6.728,6.312-5.224,13.226,10.946v.25h-1.417a.472.472,0,0,0-.472.472v4.251h.945V45.227h1.417a.472.472,0,0,0,.472-.472V43.81a.472.472,0,0,0-.171-.364ZM152.9,37.724V35.307h2.834v4.762l-1.012-.838Z" transform="translate(-131.452 -32.001)" fill="#ff7d00"/>
  <path id="Caminho_9238" data-name="Caminho 9238" d="M44.053,251.337H42.626v-5.668h-.951v5.668h-1.9v-7.558a3.8,3.8,0,0,0-7.609,0v7.558H29.78a1.061,1.061,0,0,0,.007-.118v-1.653a1.067,1.067,0,0,0-.958-1.057,1.064,1.064,0,0,0,.007-.124v-1.653a1.066,1.066,0,0,0-.007-.124,1.067,1.067,0,0,0,.958-1.057V243.9a1.067,1.067,0,0,0-.958-1.057,1.064,1.064,0,0,0,.007-.124v-1.653A1.068,1.068,0,0,0,27.765,240H22.3a1.068,1.068,0,0,0-1.07,1.063v1.653a1.067,1.067,0,0,0,.958,1.057,1.065,1.065,0,0,0-.007.124v.325a4.3,4.3,0,0,0-5.506,1.513,4.231,4.231,0,0,0,.917,5.6H16.471a.474.474,0,0,0-.476.472V253.7a.474.474,0,0,0,.476.472H44.053a.474.474,0,0,0,.476-.472v-1.889A.474.474,0,0,0,44.053,251.337Zm-10.938-7.558a2.853,2.853,0,0,1,5.707,0v7.558H33.115Zm-4.28,7.44a.118.118,0,0,1-.119.118H23.247a.118.118,0,0,1-.119-.118V251.2a4.264,4.264,0,0,0,1.182-1.749h4.406a.118.118,0,0,1,.119.118Zm-.951-4.487v1.653a.119.119,0,0,1-.119.118H24.529a4.237,4.237,0,0,0-.218-1.889h3.454A.118.118,0,0,1,27.884,246.731Zm-5.707-5.668a.118.118,0,0,1,.119-.118h5.469a.118.118,0,0,1,.119.118v1.653a.118.118,0,0,1-.119.118H22.3a.118.118,0,0,1-.119-.118Zm.951,2.834a.119.119,0,0,1,.119-.118h5.469a.119.119,0,0,1,.119.118v1.653a.118.118,0,0,1-.119.118H23.832a4.3,4.3,0,0,0-.7-.8Zm-6.182,4.133a3.329,3.329,0,1,1,3.329,3.307A3.318,3.318,0,0,1,16.946,248.03Zm26.631,5.2H16.946v-.945H43.577Z" transform="translate(-15.995 -227.92)" fill="#ff7d00"/>
  <rect id="Retângulo_3083" data-name="Retângulo 3083" width="1.141" height="1.141" transform="translate(20.688 18.754)" fill="#ff7d00"/>
  <path id="Caminho_9239" data-name="Caminho 9239" d="M188.251,96a3.31,3.31,0,0,0-3.307,3.307v.472H184v.945h8.5v-.945h-.945v-.472A3.31,3.31,0,0,0,188.251,96Zm-2.362,3.307a2.366,2.366,0,0,1,1.889-2.315v2.787h-1.889Zm2.834.472V96.992a2.366,2.366,0,0,1,1.889,2.315v.472Z" transform="translate(-173.984 -92.221)" fill="#ff7d00"/>
  <path id="Caminho_9240" data-name="Caminho 9240" d="M65.889,336h-.945v.479A1.064,1.064,0,0,0,64,337.535v.236a1.064,1.064,0,0,0,1.063,1.063h.709a.118.118,0,0,1,.118.118v.236a.118.118,0,0,1-.118.118H64v.945h.945v.472h.945v-.479a1.064,1.064,0,0,0,.945-1.056v-.236a1.064,1.064,0,0,0-1.063-1.063h-.709a.118.118,0,0,1-.118-.118v-.236a.118.118,0,0,1,.118-.118h1.771v-.945h-.945Z" transform="translate(-61.166 -318.252)" fill="#ff7d00"/>
</svg>
