<svg xmlns="http://www.w3.org/2000/svg" width="27.992" height="29.093" viewBox="0 0 27.992 29.093">
  <g id="Grupo_16163" data-name="Grupo 16163" transform="translate(-32.798 -615.329)">
    <path id="Caminho_9575" data-name="Caminho 9575" d="M2635.978,870.359a7.8,7.8,0,0,0-2.284-3.939,14.884,14.884,0,0,1-3.12-4.528c-.067-.151-.1-.235.086-.349a1.358,1.358,0,0,0,.662-1.377,1.337,1.337,0,0,0-.878-1.156c-.18-.073-.182-.158-.142-.309.17-.639.334-1.279.5-1.919.14-.551-.043-.788-.607-.788-1.695,0-3.389-.005-5.083.006a.4.4,0,0,1-.426-.259,8.749,8.749,0,1,0-7.466,12.767c.171-.006.344,0,.531,0-.033.073-.055.125-.079.175a6.857,6.857,0,0,0,.108,6.61,9.254,9.254,0,0,0,6.517,4.567,8.085,8.085,0,0,1,1.176.223h.568a.327.327,0,0,1,.4,0h.511c.044-.07.11-.057.176-.048h0c.059,0,.133-.043.165.048h.17c.032-.091.111-.049.169-.055a9.883,9.883,0,0,0,6.532-3.162A7.07,7.07,0,0,0,2635.978,870.359Zm-5.61-10.041c.007.313-.206.5-.588.5-.653,0-1.305,0-1.958,0s-1.324-.006-1.986,0c-.175,0-.238-.039-.206-.221.042-.24-.067-.568.091-.7.138-.119.451-.041.686-.041q1.689,0,3.377,0C2630.159,859.854,2630.362,860.018,2630.368,860.319Zm-.614-3.35c-.158.617-.316,1.218-.465,1.821-.027.107-.092.1-.167.1H2625.8c-.086,0-.164.012-.178-.116a9.628,9.628,0,0,0-.4-1.805Zm-12.828,10.589a7.8,7.8,0,1,1,7.793-7.811A7.822,7.822,0,0,1,2616.927,867.558Zm16.646,8.524a8.807,8.807,0,0,1-5.487,2.916,9.811,9.811,0,0,1-8.2-2.469,6.33,6.33,0,0,1-2.03-4.849,6.2,6.2,0,0,1,1.087-3.292.444.444,0,0,1,.267-.187,8.666,8.666,0,0,0,6.156-6.2c.047-.16.1-.223.281-.222q1.8.013,3.606,0a.28.28,0,0,1,.31.2,15.9,15.9,0,0,0,3.5,5.181,6.742,6.742,0,0,1,2,3.521A6.136,6.136,0,0,1,2633.573,876.082Z" transform="translate(-2575.364 -235.66)" fill="#ff7d00"/>
    <path id="Caminho_9576" data-name="Caminho 9576" d="M2860.783,1261.664h.4A.581.581,0,0,0,2860.783,1261.664Z" transform="translate(-2810.109 -617.242)" fill="#ff7d00"/>
    <path id="Caminho_9577" data-name="Caminho 9577" d="M2860.783,1261.24a.581.581,0,0,1,.4,0A.327.327,0,0,0,2860.783,1261.24Z" transform="translate(-2810.109 -616.818)" fill="#ff7d00"/>
    <path id="Caminho_9578" data-name="Caminho 9578" d="M2873.8,1261.7c-.057.007-.12-.02-.171.029h.171c0-.01,0-.019,0-.029Z" transform="translate(-2822.043 -617.304)" fill="#ff7d00"/>
    <path id="Caminho_9579" data-name="Caminho 9579" d="M2873.8,1261.372h0c0-.006,0-.013,0-.02-.065-.008-.132-.021-.176.049C2873.676,1261.352,2873.739,1261.379,2873.8,1261.372Z" transform="translate(-2822.043 -616.979)" fill="#ff7d00"/>
    <path id="Caminho_9580" data-name="Caminho 9580" d="M2876.052,1261.7a.017.017,0,0,1,0,.014c-.006.01-.012.014-.017.014h.171C2876.16,1261.682,2876.1,1261.7,2876.052,1261.7Z" transform="translate(-2824.281 -617.304)" fill="#ff7d00"/>
    <path id="Caminho_9581" data-name="Caminho 9581" d="M2876.109,1261.321h0a.036.036,0,0,1,.014.021c.052,0,.107-.016.151.028C2876.241,1261.278,2876.168,1261.324,2876.109,1261.321Z" transform="translate(-2824.351 -616.948)" fill="#ff7d00"/>
    <path id="Caminho_9582" data-name="Caminho 9582" d="M2876.051,1261.728a.016.016,0,0,0,0-.013h-.015c0,.01,0,.019,0,.029S2876.045,1261.738,2876.051,1261.728Z" transform="translate(-2824.281 -617.321)" fill="#ff7d00"/>
    <path id="Caminho_9583" data-name="Caminho 9583" d="M2876.095,1261.459a.036.036,0,0,0-.014-.021h0c0,.007,0,.013,0,.02Z" transform="translate(-2824.323 -617.065)" fill="#ff7d00"/>
    <path id="Caminho_9584" data-name="Caminho 9584" d="M2648.376,884.935a6.361,6.361,0,1,0,6.34,6.369A6.381,6.381,0,0,0,2648.376,884.935Zm4.189,9.74c-.095.12-.142.1-.229,0-.225-.243-.457-.48-.691-.714a.5.5,0,0,0-.728-.06.487.487,0,0,0,.036.727q.341.362.691.714c.084.084.134.135,0,.234a5.49,5.49,0,0,1-2.7,1.087c-.166.02-.135-.086-.135-.175,0-.388,0-.776,0-1.164,0-.345-.186-.556-.468-.563s-.485.213-.49.571c-.006.379-.008.757,0,1.136,0,.165-.038.2-.21.177a5.493,5.493,0,0,1-2.8-1.251c.293-.258.58-.493.844-.749a.488.488,0,0,0,.054-.746.505.505,0,0,0-.748.083c-.219.223-.437.446-.649.675-.083.089-.131.1-.214-.006a5.51,5.51,0,0,1-1.125-2.625c-.02-.133.024-.164.146-.161.274.006.549.008.823,0a.464.464,0,0,0,.5-.468.471.471,0,0,0-.485-.486,5.891,5.891,0,0,0-.766,0c-.216.016-.25-.068-.224-.258a5.409,5.409,0,0,1,1.257-2.845c.307.292.6.563.881.838a.488.488,0,1,0,.692-.67c-.241-.254-.484-.506-.735-.75-.1-.093-.106-.142.011-.229a5.488,5.488,0,0,1,2.537-1.049c.158-.023.218.016.211.187-.013.293-.011.587,0,.88a.48.48,0,1,0,.956,0c.008-.293.012-.587,0-.88-.007-.174.058-.208.214-.187a5.461,5.461,0,0,1,2.571,1.037c.118.087.079.138,0,.216-.241.241-.478.486-.714.731-.279.289-.309.58-.085.791s.489.163.767-.108.576-.547.876-.831a5.213,5.213,0,0,1,1.235,2.618c.085.506.076.507-.427.507-.18,0-.36-.006-.54,0a.478.478,0,0,0-.514.486.464.464,0,0,0,.52.472c.284.006.568,0,.852,0,.12,0,.165.021.145.16A5.485,5.485,0,0,1,2652.565,894.676Z" transform="translate(-2606.805 -267.204)" fill="#ff7d00"/>
    <path id="Caminho_9585" data-name="Caminho 9585" d="M2726.472,938.883a1.655,1.655,0,0,1-.81-1.818c0-.477,0-.8,0-1.12-.006-.349-.18-.554-.465-.562s-.49.206-.493.565c-.005.747,0,1.495,0,2.242a.581.581,0,0,0,.16.439c.469.467.933.94,1.406,1.4a.464.464,0,0,0,.7.018.469.469,0,0,0-.018-.685A3.909,3.909,0,0,0,2726.472,938.883Z" transform="translate(-2683.656 -314.081)" fill="#ff7d00"/>
    <path id="Caminho_9586" data-name="Caminho 9586" d="M2820.04,1056.228a.343.343,0,0,1-.223-.367c.014-.568,0-1.136.008-1.7,0-.195-.088-.446.05-.566.08-.069.331.059.505.1a.483.483,0,0,0,.6-.327.476.476,0,0,0-.345-.6,2.911,2.911,0,0,0-.576-.144c-.217-.021-.253-.124-.242-.313a6.694,6.694,0,0,0,0-.767.475.475,0,1,0-.95.006c-.012.246-.008.492,0,.738,0,.122-.018.219-.167.175-.117-.035-.332.1-.323-.177.008-.227,0-.454,0-.682a.484.484,0,1,0-.962,0c-.006.255-.009.512,0,.767.006.143-.026.214-.182.251a2.233,2.233,0,0,0-.771.346,1.667,1.667,0,0,0-.06,2.732,3.41,3.41,0,0,0,.838.469.239.239,0,0,1,.176.271c-.008.691,0,1.382,0,2.074s0,1.382,0,2.073c0,.174-.021.242-.228.221a9.753,9.753,0,0,1-1.374-.2.49.49,0,0,0-.6.2.467.467,0,0,0,.306.709,5.647,5.647,0,0,0,1.511.226c.291,0,.423.075.384.4a6.775,6.775,0,0,0-.006.88c0,.351.2.575.5.566s.463-.222.466-.563c0-.36.009-.72,0-1.079-.009-.291.212-.169.341-.2.17-.043.148.087.148.19,0,.35,0,.7,0,1.051,0,.386.183.607.484.6s.473-.226.476-.615c0-.407.01-.815,0-1.221a.335.335,0,0,1,.239-.376,2.749,2.749,0,0,0,1.559-3.452A2.869,2.869,0,0,0,2820.04,1056.228Zm-2.63-1.075c-.576-.246-.765-.477-.725-.858a.8.8,0,0,1,.715-.7c0,.038.009.074.009.111C2817.41,1054.182,2817.41,1054.655,2817.41,1055.153Zm1.451,2.243q0,1.558,0,3.115a.329.329,0,0,1-.439.284c-.088-.044-.045-.134-.046-.2,0-.642,0-1.284,0-1.926,0-.6,0-1.208.005-1.813,0-.077-.086-.255.079-.226.147.025.388,0,.4.257C2818.867,1057.056,2818.861,1057.226,2818.861,1057.4Zm0-1.687c-.488-.125-.488-.125-.488-.562,0-.511,0-1.022,0-1.533,0-.135.018-.23.18-.2.125.027.318-.073.313.2C2818.853,1054.307,2818.861,1055,2818.861,1055.709Zm1.917,3.181a1.567,1.567,0,0,1-.943,1.482v-3.111A1.6,1.6,0,0,1,2820.778,1058.89Z" transform="translate(-2767.698 -421.576)" fill="#ff7d00"/>
  </g>
</svg>
